<?xml version="1.0" encoding="utf-8" standalone="no"?>
<!DOCTYPE svg PUBLIC "-//W3C//DTD SVG 1.1//EN"
  "http://www.w3.org/Graphics/SVG/1.1/DTD/svg11.dtd">
<!-- Created with matplotlib (https://matplotlib.org/) -->
<svg height="345.6pt" version="1.1" viewBox="0 0 460.8 345.6" width="460.8pt" xmlns="http://www.w3.org/2000/svg" xmlns:xlink="http://www.w3.org/1999/xlink">
 <metadata>
  <rdf:RDF xmlns:cc="http://creativecommons.org/ns#" xmlns:dc="http://purl.org/dc/elements/1.1/" xmlns:rdf="http://www.w3.org/1999/02/22-rdf-syntax-ns#">
   <cc:Work>
    <dc:type rdf:resource="http://purl.org/dc/dcmitype/StillImage"/>
    <dc:date>2022-07-18T02:12:41.635415</dc:date>
    <dc:format>image/svg+xml</dc:format>
    <dc:creator>
     <cc:Agent>
      <dc:title>Matplotlib v3.3.4, https://matplotlib.org/</dc:title>
     </cc:Agent>
    </dc:creator>
   </cc:Work>
  </rdf:RDF>
 </metadata>
 <defs>
  <style type="text/css">*{stroke-linecap:butt;stroke-linejoin:round;}</style>
 </defs>
 <g id="figure_1">
  <g id="patch_1">
   <path d="M 0 345.6 
L 460.8 345.6 
L 460.8 0 
L 0 0 
z
" style="fill:#ffffff;"/>
  </g>
  <g id="axes_1">
   <g id="patch_2">
    <path d="M 57.6 307.584 
L 414.72 307.584 
L 414.72 41.472 
L 57.6 41.472 
z
" style="fill:#ffffff;"/>
   </g>
   <g id="matplotlib.axis_1">
    <g id="xtick_1">
     <g id="line2d_1">
      <defs>
       <path d="M 0 0 
L 0 3.5 
" id="md5fee67999" style="stroke:#000000;stroke-width:0.8;"/>
      </defs>
      <g>
       <use style="stroke:#000000;stroke-width:0.8;" x="92.2094" xlink:href="#md5fee67999" y="307.584"/>
      </g>
     </g>
     <g id="text_1">
      <!-- 25 -->
      <g transform="translate(85.8469 322.182437)scale(0.1 -0.1)">
       <defs>
        <path d="M 12.796875 55.515625 
L 7.328125 55.515625 
L 7.328125 68.5 
Q 12.546875 71.296875 17.84375 72.75 
Q 23.140625 74.21875 28.21875 74.21875 
Q 39.59375 74.21875 46.1875 68.703125 
Q 52.78125 63.1875 52.78125 53.71875 
Q 52.78125 43.015625 37.84375 28.125 
Q 36.671875 27 36.078125 26.421875 
L 17.671875 8.015625 
L 48.09375 8.015625 
L 48.09375 17 
L 53.8125 17 
L 53.8125 0 
L 6.78125 0 
L 6.78125 5.328125 
L 28.90625 27.390625 
Q 36.234375 34.71875 39.359375 40.84375 
Q 42.484375 46.96875 42.484375 53.71875 
Q 42.484375 61.078125 38.640625 65.234375 
Q 34.8125 69.390625 28.078125 69.390625 
Q 21.09375 69.390625 17.28125 65.921875 
Q 13.484375 62.453125 12.796875 55.515625 
z
" id="DejaVuSerif-50"/>
        <path d="M 50.296875 72.90625 
L 50.296875 64.890625 
L 16.890625 64.890625 
L 16.890625 44 
Q 19.4375 45.75 22.828125 46.625 
Q 26.21875 47.515625 30.421875 47.515625 
Q 42.234375 47.515625 49.0625 40.96875 
Q 55.90625 34.421875 55.90625 23.09375 
Q 55.90625 11.53125 49 5.046875 
Q 42.09375 -1.421875 29.59375 -1.421875 
Q 24.5625 -1.421875 19.28125 -0.1875 
Q 14.015625 1.03125 8.5 3.515625 
L 8.5 17.671875 
L 14.015625 17.671875 
Q 14.453125 10.75 18.421875 7.078125 
Q 22.40625 3.421875 29.59375 3.421875 
Q 37.3125 3.421875 41.453125 8.5 
Q 45.609375 13.578125 45.609375 23.09375 
Q 45.609375 32.5625 41.484375 37.609375 
Q 37.359375 42.671875 29.59375 42.671875 
Q 25.203125 42.671875 21.84375 41.109375 
Q 18.5 39.546875 15.921875 36.28125 
L 11.71875 36.28125 
L 11.71875 72.90625 
z
" id="DejaVuSerif-53"/>
       </defs>
       <use xlink:href="#DejaVuSerif-50"/>
       <use x="63.623047" xlink:href="#DejaVuSerif-53"/>
      </g>
     </g>
    </g>
    <g id="xtick_2">
     <g id="line2d_2">
      <g>
       <use style="stroke:#000000;stroke-width:0.8;" x="135.963382" xlink:href="#md5fee67999" y="307.584"/>
      </g>
     </g>
     <g id="text_2">
      <!-- 50 -->
      <g transform="translate(129.600882 322.182437)scale(0.1 -0.1)">
       <defs>
        <path d="M 31.78125 3.421875 
Q 39.265625 3.421875 42.96875 11.625 
Q 46.6875 19.828125 46.6875 36.375 
Q 46.6875 52.984375 42.96875 61.1875 
Q 39.265625 69.390625 31.78125 69.390625 
Q 24.3125 69.390625 20.59375 61.1875 
Q 16.890625 52.984375 16.890625 36.375 
Q 16.890625 19.828125 20.59375 11.625 
Q 24.3125 3.421875 31.78125 3.421875 
z
M 31.78125 -1.421875 
Q 19.921875 -1.421875 13.25 8.53125 
Q 6.59375 18.5 6.59375 36.375 
Q 6.59375 54.296875 13.25 64.25 
Q 19.921875 74.21875 31.78125 74.21875 
Q 43.703125 74.21875 50.34375 64.25 
Q 56.984375 54.296875 56.984375 36.375 
Q 56.984375 18.5 50.34375 8.53125 
Q 43.703125 -1.421875 31.78125 -1.421875 
z
" id="DejaVuSerif-48"/>
       </defs>
       <use xlink:href="#DejaVuSerif-53"/>
       <use x="63.623047" xlink:href="#DejaVuSerif-48"/>
      </g>
     </g>
    </g>
    <g id="xtick_3">
     <g id="line2d_3">
      <g>
       <use style="stroke:#000000;stroke-width:0.8;" x="179.717363" xlink:href="#md5fee67999" y="307.584"/>
      </g>
     </g>
     <g id="text_3">
      <!-- 75 -->
      <g transform="translate(173.354863 322.182437)scale(0.1 -0.1)">
       <defs>
        <path d="M 56.390625 67.921875 
L 27.875 0 
L 20.609375 0 
L 47.796875 64.890625 
L 14.109375 64.890625 
L 14.109375 55.90625 
L 8.40625 55.90625 
L 8.40625 72.90625 
L 56.390625 72.90625 
z
" id="DejaVuSerif-55"/>
       </defs>
       <use xlink:href="#DejaVuSerif-55"/>
       <use x="63.623047" xlink:href="#DejaVuSerif-53"/>
      </g>
     </g>
    </g>
    <g id="xtick_4">
     <g id="line2d_4">
      <g>
       <use style="stroke:#000000;stroke-width:0.8;" x="223.471345" xlink:href="#md5fee67999" y="307.584"/>
      </g>
     </g>
     <g id="text_4">
      <!-- 100 -->
      <g transform="translate(213.927595 322.182437)scale(0.1 -0.1)">
       <defs>
        <path d="M 14.203125 0 
L 14.203125 5.171875 
L 26.90625 5.171875 
L 26.90625 65.828125 
L 12.203125 56.296875 
L 12.203125 62.703125 
L 29.984375 74.21875 
L 36.71875 74.21875 
L 36.71875 5.171875 
L 49.421875 5.171875 
L 49.421875 0 
z
" id="DejaVuSerif-49"/>
       </defs>
       <use xlink:href="#DejaVuSerif-49"/>
       <use x="63.623047" xlink:href="#DejaVuSerif-48"/>
       <use x="127.246094" xlink:href="#DejaVuSerif-48"/>
      </g>
     </g>
    </g>
    <g id="xtick_5">
     <g id="line2d_5">
      <g>
       <use style="stroke:#000000;stroke-width:0.8;" x="267.225327" xlink:href="#md5fee67999" y="307.584"/>
      </g>
     </g>
     <g id="text_5">
      <!-- 125 -->
      <g transform="translate(257.681577 322.182437)scale(0.1 -0.1)">
       <use xlink:href="#DejaVuSerif-49"/>
       <use x="63.623047" xlink:href="#DejaVuSerif-50"/>
       <use x="127.246094" xlink:href="#DejaVuSerif-53"/>
      </g>
     </g>
    </g>
    <g id="xtick_6">
     <g id="line2d_6">
      <g>
       <use style="stroke:#000000;stroke-width:0.8;" x="310.979309" xlink:href="#md5fee67999" y="307.584"/>
      </g>
     </g>
     <g id="text_6">
      <!-- 150 -->
      <g transform="translate(301.435559 322.182437)scale(0.1 -0.1)">
       <use xlink:href="#DejaVuSerif-49"/>
       <use x="63.623047" xlink:href="#DejaVuSerif-53"/>
       <use x="127.246094" xlink:href="#DejaVuSerif-48"/>
      </g>
     </g>
    </g>
    <g id="xtick_7">
     <g id="line2d_7">
      <g>
       <use style="stroke:#000000;stroke-width:0.8;" x="354.733291" xlink:href="#md5fee67999" y="307.584"/>
      </g>
     </g>
     <g id="text_7">
      <!-- 175 -->
      <g transform="translate(345.189541 322.182437)scale(0.1 -0.1)">
       <use xlink:href="#DejaVuSerif-49"/>
       <use x="63.623047" xlink:href="#DejaVuSerif-55"/>
       <use x="127.246094" xlink:href="#DejaVuSerif-53"/>
      </g>
     </g>
    </g>
    <g id="xtick_8">
     <g id="line2d_8">
      <g>
       <use style="stroke:#000000;stroke-width:0.8;" x="398.487273" xlink:href="#md5fee67999" y="307.584"/>
      </g>
     </g>
     <g id="text_8">
      <!-- 200 -->
      <g transform="translate(388.943523 322.182437)scale(0.1 -0.1)">
       <use xlink:href="#DejaVuSerif-50"/>
       <use x="63.623047" xlink:href="#DejaVuSerif-48"/>
       <use x="127.246094" xlink:href="#DejaVuSerif-48"/>
      </g>
     </g>
    </g>
    <g id="text_9">
     <!-- Time -->
     <g transform="translate(223.524844 335.860562)scale(0.1 -0.1)">
      <defs>
       <path d="M 19.09375 0 
L 19.09375 5.171875 
L 28.421875 5.171875 
L 28.421875 67.09375 
L 6.984375 67.09375 
L 6.984375 55.71875 
L 0.984375 55.71875 
L 0.984375 72.90625 
L 65.71875 72.90625 
L 65.71875 55.71875 
L 59.71875 55.71875 
L 59.71875 67.09375 
L 38.28125 67.09375 
L 38.28125 5.171875 
L 47.609375 5.171875 
L 47.609375 0 
z
" id="DejaVuSerif-84"/>
       <path d="M 9.71875 68.015625 
Q 9.71875 70.265625 11.34375 71.921875 
Q 12.984375 73.578125 15.28125 73.578125 
Q 17.53125 73.578125 19.15625 71.921875 
Q 20.796875 70.265625 20.796875 68.015625 
Q 20.796875 65.71875 19.1875 64.109375 
Q 17.578125 62.5 15.28125 62.5 
Q 12.984375 62.5 11.34375 64.109375 
Q 9.71875 65.71875 9.71875 68.015625 
z
M 21.1875 5.171875 
L 29.6875 5.171875 
L 29.6875 0 
L 3.609375 0 
L 3.609375 5.171875 
L 12.203125 5.171875 
L 12.203125 46.6875 
L 3.609375 46.6875 
L 3.609375 51.90625 
L 21.1875 51.90625 
z
" id="DejaVuSerif-105"/>
       <path d="M 51.8125 41.796875 
Q 54.390625 47.515625 58.421875 50.421875 
Q 62.453125 53.328125 67.828125 53.328125 
Q 75.984375 53.328125 79.984375 48.265625 
Q 83.984375 43.21875 83.984375 33.015625 
L 83.984375 5.171875 
L 92.09375 5.171875 
L 92.09375 0 
L 67.1875 0 
L 67.1875 5.171875 
L 75 5.171875 
L 75 31.984375 
Q 75 39.9375 72.65625 43.3125 
Q 70.3125 46.6875 64.890625 46.6875 
Q 58.890625 46.6875 55.734375 42.140625 
Q 52.59375 37.59375 52.59375 28.90625 
L 52.59375 5.171875 
L 60.40625 5.171875 
L 60.40625 0 
L 35.796875 0 
L 35.796875 5.171875 
L 43.609375 5.171875 
L 43.609375 32.328125 
Q 43.609375 40.09375 41.265625 43.390625 
Q 38.921875 46.6875 33.5 46.6875 
Q 27.484375 46.6875 24.328125 42.140625 
Q 21.1875 37.59375 21.1875 28.90625 
L 21.1875 5.171875 
L 29 5.171875 
L 29 0 
L 4.109375 0 
L 4.109375 5.171875 
L 12.203125 5.171875 
L 12.203125 46.78125 
L 3.609375 46.78125 
L 3.609375 51.90625 
L 21.1875 51.90625 
L 21.1875 42.671875 
Q 23.6875 47.859375 27.53125 50.59375 
Q 31.390625 53.328125 36.28125 53.328125 
Q 42.328125 53.328125 46.375 50.3125 
Q 50.4375 47.3125 51.8125 41.796875 
z
" id="DejaVuSerif-109"/>
       <path d="M 54.203125 25 
L 15.484375 25 
L 15.484375 24.609375 
Q 15.484375 14.109375 19.4375 8.765625 
Q 23.390625 3.421875 31.109375 3.421875 
Q 37.015625 3.421875 40.796875 6.515625 
Q 44.578125 9.625 46.09375 15.71875 
L 53.328125 15.71875 
Q 51.171875 7.171875 45.375 2.875 
Q 39.59375 -1.421875 30.171875 -1.421875 
Q 18.796875 -1.421875 11.890625 6.078125 
Q 4.984375 13.578125 4.984375 25.984375 
Q 4.984375 38.28125 11.765625 45.796875 
Q 18.5625 53.328125 29.59375 53.328125 
Q 41.359375 53.328125 47.65625 46.0625 
Q 53.953125 38.8125 54.203125 25 
z
M 43.609375 30.171875 
Q 43.3125 39.265625 39.765625 43.875 
Q 36.234375 48.484375 29.59375 48.484375 
Q 23.390625 48.484375 19.828125 43.84375 
Q 16.265625 39.203125 15.484375 30.171875 
z
" id="DejaVuSerif-101"/>
      </defs>
      <use xlink:href="#DejaVuSerif-84"/>
      <use x="66.699219" xlink:href="#DejaVuSerif-105"/>
      <use x="98.681641" xlink:href="#DejaVuSerif-109"/>
      <use x="193.505859" xlink:href="#DejaVuSerif-101"/>
     </g>
    </g>
   </g>
   <g id="matplotlib.axis_2">
    <g id="ytick_1">
     <g id="line2d_9">
      <defs>
       <path d="M 0 0 
L -3.5 0 
" id="mb8f6efa012" style="stroke:#000000;stroke-width:0.8;"/>
      </defs>
      <g>
       <use style="stroke:#000000;stroke-width:0.8;" x="57.6" xlink:href="#mb8f6efa012" y="295.488"/>
      </g>
     </g>
     <g id="text_10">
      <!-- 0.0 -->
      <g transform="translate(34.696875 299.287219)scale(0.1 -0.1)">
       <defs>
        <path d="M 9.421875 5.078125 
Q 9.421875 7.8125 11.28125 9.71875 
Q 13.140625 11.625 15.921875 11.625 
Q 18.609375 11.625 20.5 9.71875 
Q 22.40625 7.8125 22.40625 5.078125 
Q 22.40625 2.390625 20.5 0.484375 
Q 18.609375 -1.421875 15.921875 -1.421875 
Q 13.140625 -1.421875 11.28125 0.453125 
Q 9.421875 2.34375 9.421875 5.078125 
z
" id="DejaVuSerif-46"/>
       </defs>
       <use xlink:href="#DejaVuSerif-48"/>
       <use x="63.623047" xlink:href="#DejaVuSerif-46"/>
       <use x="95.410156" xlink:href="#DejaVuSerif-48"/>
      </g>
     </g>
    </g>
    <g id="ytick_2">
     <g id="line2d_10">
      <g>
       <use style="stroke:#000000;stroke-width:0.8;" x="57.6" xlink:href="#mb8f6efa012" y="263.232"/>
      </g>
     </g>
     <g id="text_11">
      <!-- 0.2 -->
      <g transform="translate(34.696875 267.031219)scale(0.1 -0.1)">
       <use xlink:href="#DejaVuSerif-48"/>
       <use x="63.623047" xlink:href="#DejaVuSerif-46"/>
       <use x="95.410156" xlink:href="#DejaVuSerif-50"/>
      </g>
     </g>
    </g>
    <g id="ytick_3">
     <g id="line2d_11">
      <g>
       <use style="stroke:#000000;stroke-width:0.8;" x="57.6" xlink:href="#mb8f6efa012" y="230.976"/>
      </g>
     </g>
     <g id="text_12">
      <!-- 0.4 -->
      <g transform="translate(34.696875 234.775219)scale(0.1 -0.1)">
       <defs>
        <path d="M 34.90625 24.703125 
L 34.90625 63.484375 
L 10.015625 24.703125 
z
M 56.390625 0 
L 23.1875 0 
L 23.1875 5.171875 
L 34.90625 5.171875 
L 34.90625 19.484375 
L 3.078125 19.484375 
L 3.078125 24.8125 
L 35.015625 74.21875 
L 44.671875 74.21875 
L 44.671875 24.703125 
L 58.59375 24.703125 
L 58.59375 19.484375 
L 44.671875 19.484375 
L 44.671875 5.171875 
L 56.390625 5.171875 
z
" id="DejaVuSerif-52"/>
       </defs>
       <use xlink:href="#DejaVuSerif-48"/>
       <use x="63.623047" xlink:href="#DejaVuSerif-46"/>
       <use x="95.410156" xlink:href="#DejaVuSerif-52"/>
      </g>
     </g>
    </g>
    <g id="ytick_4">
     <g id="line2d_12">
      <g>
       <use style="stroke:#000000;stroke-width:0.8;" x="57.6" xlink:href="#mb8f6efa012" y="198.72"/>
      </g>
     </g>
     <g id="text_13">
      <!-- 0.6 -->
      <g transform="translate(34.696875 202.519219)scale(0.1 -0.1)">
       <defs>
        <path d="M 32.71875 3.421875 
Q 39.59375 3.421875 43.296875 8.46875 
Q 47.015625 13.53125 47.015625 23 
Q 47.015625 32.46875 43.296875 37.515625 
Q 39.59375 42.578125 32.71875 42.578125 
Q 25.734375 42.578125 22.0625 37.6875 
Q 18.40625 32.8125 18.40625 23.578125 
Q 18.40625 13.875 22.109375 8.640625 
Q 25.828125 3.421875 32.71875 3.421875 
z
M 16.796875 40.140625 
Q 20.125 43.796875 24.3125 45.59375 
Q 28.515625 47.40625 33.796875 47.40625 
Q 44.671875 47.40625 51 40.859375 
Q 57.328125 34.328125 57.328125 23 
Q 57.328125 11.921875 50.515625 5.25 
Q 43.703125 -1.421875 32.328125 -1.421875 
Q 19.96875 -1.421875 13.328125 7.78125 
Q 6.6875 17 6.6875 34.078125 
Q 6.6875 53.21875 14.546875 63.71875 
Q 22.40625 74.21875 36.71875 74.21875 
Q 40.578125 74.21875 44.828125 73.484375 
Q 49.078125 72.75 53.515625 71.296875 
L 53.515625 59.28125 
L 48 59.28125 
Q 47.40625 64.203125 44.234375 66.796875 
Q 41.0625 69.390625 35.6875 69.390625 
Q 26.21875 69.390625 21.578125 62.203125 
Q 16.9375 55.03125 16.796875 40.140625 
z
" id="DejaVuSerif-54"/>
       </defs>
       <use xlink:href="#DejaVuSerif-48"/>
       <use x="63.623047" xlink:href="#DejaVuSerif-46"/>
       <use x="95.410156" xlink:href="#DejaVuSerif-54"/>
      </g>
     </g>
    </g>
    <g id="ytick_5">
     <g id="line2d_13">
      <g>
       <use style="stroke:#000000;stroke-width:0.8;" x="57.6" xlink:href="#mb8f6efa012" y="166.464"/>
      </g>
     </g>
     <g id="text_14">
      <!-- 0.8 -->
      <g transform="translate(34.696875 170.263219)scale(0.1 -0.1)">
       <defs>
        <path d="M 46.578125 19.921875 
Q 46.578125 27.734375 42.6875 32.046875 
Q 38.8125 36.375 31.78125 36.375 
Q 24.75 36.375 20.875 32.046875 
Q 17 27.734375 17 19.921875 
Q 17 12.0625 20.875 7.734375 
Q 24.75 3.421875 31.78125 3.421875 
Q 38.8125 3.421875 42.6875 7.734375 
Q 46.578125 12.0625 46.578125 19.921875 
z
M 44.578125 55.328125 
Q 44.578125 61.96875 41.203125 65.671875 
Q 37.84375 69.390625 31.78125 69.390625 
Q 25.78125 69.390625 22.390625 65.671875 
Q 19 61.96875 19 55.328125 
Q 19 48.640625 22.390625 44.921875 
Q 25.78125 41.21875 31.78125 41.21875 
Q 37.84375 41.21875 41.203125 44.921875 
Q 44.578125 48.640625 44.578125 55.328125 
z
M 39.3125 38.8125 
Q 47.609375 37.703125 52.25 32.6875 
Q 56.890625 27.6875 56.890625 19.921875 
Q 56.890625 9.671875 50.390625 4.125 
Q 43.890625 -1.421875 31.78125 -1.421875 
Q 19.734375 -1.421875 13.203125 4.125 
Q 6.6875 9.671875 6.6875 19.921875 
Q 6.6875 27.6875 11.328125 32.6875 
Q 15.96875 37.703125 24.3125 38.8125 
Q 16.9375 40.140625 13 44.40625 
Q 9.078125 48.6875 9.078125 55.328125 
Q 9.078125 64.109375 15.125 69.15625 
Q 21.1875 74.21875 31.78125 74.21875 
Q 42.390625 74.21875 48.4375 69.15625 
Q 54.5 64.109375 54.5 55.328125 
Q 54.5 48.6875 50.5625 44.40625 
Q 46.625 40.140625 39.3125 38.8125 
z
" id="DejaVuSerif-56"/>
       </defs>
       <use xlink:href="#DejaVuSerif-48"/>
       <use x="63.623047" xlink:href="#DejaVuSerif-46"/>
       <use x="95.410156" xlink:href="#DejaVuSerif-56"/>
      </g>
     </g>
    </g>
    <g id="ytick_6">
     <g id="line2d_14">
      <g>
       <use style="stroke:#000000;stroke-width:0.8;" x="57.6" xlink:href="#mb8f6efa012" y="134.208"/>
      </g>
     </g>
     <g id="text_15">
      <!-- 1.0 -->
      <g transform="translate(34.696875 138.007219)scale(0.1 -0.1)">
       <use xlink:href="#DejaVuSerif-49"/>
       <use x="63.623047" xlink:href="#DejaVuSerif-46"/>
       <use x="95.410156" xlink:href="#DejaVuSerif-48"/>
      </g>
     </g>
    </g>
    <g id="ytick_7">
     <g id="line2d_15">
      <g>
       <use style="stroke:#000000;stroke-width:0.8;" x="57.6" xlink:href="#mb8f6efa012" y="101.952"/>
      </g>
     </g>
     <g id="text_16">
      <!-- 1.2 -->
      <g transform="translate(34.696875 105.751219)scale(0.1 -0.1)">
       <use xlink:href="#DejaVuSerif-49"/>
       <use x="63.623047" xlink:href="#DejaVuSerif-46"/>
       <use x="95.410156" xlink:href="#DejaVuSerif-50"/>
      </g>
     </g>
    </g>
    <g id="ytick_8">
     <g id="line2d_16">
      <g>
       <use style="stroke:#000000;stroke-width:0.8;" x="57.6" xlink:href="#mb8f6efa012" y="69.696"/>
      </g>
     </g>
     <g id="text_17">
      <!-- 1.4 -->
      <g transform="translate(34.696875 73.495219)scale(0.1 -0.1)">
       <use xlink:href="#DejaVuSerif-49"/>
       <use x="63.623047" xlink:href="#DejaVuSerif-46"/>
       <use x="95.410156" xlink:href="#DejaVuSerif-52"/>
      </g>
     </g>
    </g>
    <g id="text_18">
     <!-- Speed -->
     <g transform="translate(28.617187 190.273313)rotate(-90)scale(0.1 -0.1)">
      <defs>
       <path d="M 9.28125 3.515625 
L 9.28125 20.125 
L 14.890625 20.0625 
Q 15.140625 11.765625 19.703125 7.78125 
Q 24.265625 3.8125 33.59375 3.8125 
Q 42.28125 3.8125 46.84375 7.25 
Q 51.421875 10.6875 51.421875 17.28125 
Q 51.421875 22.5625 48.65625 25.390625 
Q 45.90625 28.21875 37.015625 30.90625 
L 27.390625 33.796875 
Q 16.9375 36.96875 12.671875 41.703125 
Q 8.40625 46.4375 8.40625 54.6875 
Q 8.40625 63.96875 14.984375 69.09375 
Q 21.578125 74.21875 33.5 74.21875 
Q 38.578125 74.21875 44.625 73.109375 
Q 50.6875 72.015625 57.515625 69.921875 
L 57.515625 54.390625 
L 52 54.390625 
Q 51.171875 62.109375 46.84375 65.546875 
Q 42.53125 69 33.6875 69 
Q 25.984375 69 21.953125 65.84375 
Q 17.921875 62.703125 17.921875 56.6875 
Q 17.921875 51.46875 20.9375 48.484375 
Q 23.96875 45.515625 33.796875 42.578125 
L 42.828125 39.890625 
Q 52.734375 36.921875 56.953125 32.296875 
Q 61.1875 27.6875 61.1875 19.921875 
Q 61.1875 9.328125 54.390625 3.953125 
Q 47.609375 -1.421875 34.1875 -1.421875 
Q 28.171875 -1.421875 21.9375 -0.1875 
Q 15.71875 1.03125 9.28125 3.515625 
z
" id="DejaVuSerif-83"/>
       <path d="M 20.515625 28.515625 
L 20.515625 23.390625 
Q 20.515625 14.015625 24.09375 9.109375 
Q 27.6875 4.203125 34.515625 4.203125 
Q 41.40625 4.203125 44.9375 9.71875 
Q 48.484375 15.234375 48.484375 25.984375 
Q 48.484375 36.765625 44.9375 42.234375 
Q 41.40625 47.703125 34.515625 47.703125 
Q 27.6875 47.703125 24.09375 42.765625 
Q 20.515625 37.84375 20.515625 28.515625 
z
M 11.53125 46.6875 
L 2.875 46.6875 
L 2.875 51.90625 
L 20.515625 51.90625 
L 20.515625 43.796875 
Q 23.140625 48.6875 27.21875 51 
Q 31.296875 53.328125 37.3125 53.328125 
Q 46.875 53.328125 52.921875 45.75 
Q 58.984375 38.1875 58.984375 25.984375 
Q 58.984375 13.765625 52.921875 6.171875 
Q 46.875 -1.421875 37.3125 -1.421875 
Q 31.296875 -1.421875 27.21875 0.890625 
Q 23.140625 3.21875 20.515625 8.109375 
L 20.515625 -15.578125 
L 29 -15.578125 
L 29 -20.796875 
L 2.875 -20.796875 
L 2.875 -15.578125 
L 11.53125 -15.578125 
z
" id="DejaVuSerif-112"/>
       <path d="M 52.484375 5.171875 
L 61.078125 5.171875 
L 61.078125 0 
L 43.5 0 
L 43.5 8.109375 
Q 40.875 3.21875 36.796875 0.890625 
Q 32.71875 -1.421875 26.703125 -1.421875 
Q 17.140625 -1.421875 11.0625 6.171875 
Q 4.984375 13.765625 4.984375 25.984375 
Q 4.984375 38.1875 11.03125 45.75 
Q 17.09375 53.328125 26.703125 53.328125 
Q 32.71875 53.328125 36.796875 51 
Q 40.875 48.6875 43.5 43.796875 
L 43.5 70.796875 
L 35.015625 70.796875 
L 35.015625 75.984375 
L 52.484375 75.984375 
z
M 43.5 23.390625 
L 43.5 28.515625 
Q 43.5 37.84375 39.90625 42.765625 
Q 36.328125 47.703125 29.5 47.703125 
Q 22.5625 47.703125 19.015625 42.234375 
Q 15.484375 36.765625 15.484375 25.984375 
Q 15.484375 15.234375 19.015625 9.71875 
Q 22.5625 4.203125 29.5 4.203125 
Q 36.328125 4.203125 39.90625 9.109375 
Q 43.5 14.015625 43.5 23.390625 
z
" id="DejaVuSerif-100"/>
      </defs>
      <use xlink:href="#DejaVuSerif-83"/>
      <use x="68.505859" xlink:href="#DejaVuSerif-112"/>
      <use x="132.519531" xlink:href="#DejaVuSerif-101"/>
      <use x="191.699219" xlink:href="#DejaVuSerif-101"/>
      <use x="250.878906" xlink:href="#DejaVuSerif-100"/>
     </g>
    </g>
   </g>
   <g id="line2d_17">
    <path clip-path="url(#pb5f0af09db)" d="M 73.832727 53.568 
L 74.130254 295.488 
L 75.880414 295.488 
L 76.160439 101.952 
L 76.457966 101.952 
L 76.755493 134.208 
L 77.630573 134.208 
L 77.910598 295.488 
L 79.083205 295.488 
L 79.380732 157.248 
L 79.660758 174.528 
L 80.833364 174.528 
L 81.130891 187.968 
L 81.708444 187.968 
L 82.005971 295.488 
L 82.285997 187.968 
L 82.583524 198.72 
L 83.75613 198.72 
L 84.036156 207.517091 
L 85.208763 207.517091 
L 85.50629 134.208 
L 85.786315 214.848 
L 86.661395 214.848 
L 86.958922 221.051077 
L 88.131529 221.051077 
L 88.411554 226.368 
L 88.709081 157.248 
L 89.286634 157.248 
L 89.584161 226.368 
L 89.881688 230.976 
L 91.036793 230.976 
L 91.33432 235.008 
L 91.631847 235.008 
L 91.911873 174.528 
L 92.506927 174.528 
L 92.786952 181.643294 
L 93.382006 181.643294 
L 93.662032 238.565647 
L 93.959559 238.565647 
L 94.257086 241.728 
L 94.537111 241.728 
L 94.834639 187.968 
L 95.412191 187.968 
L 95.709718 193.626947 
L 96.882325 193.626947 
L 97.16235 198.72 
L 97.459877 198.72 
L 97.757405 247.104 
L 98.03743 198.72 
L 98.334957 198.72 
L 98.632484 203.328 
L 99.787589 203.328 
L 100.085116 207.517091 
L 101.257723 207.517091 
L 101.537749 211.341913 
L 102.710355 211.341913 
L 103.007882 214.848 
L 103.882962 214.848 
L 104.162988 174.528 
L 104.460515 179.3664 
L 105.038067 179.3664 
L 105.335594 218.0736 
L 105.633121 218.0736 
L 105.913147 221.051077 
L 107.085753 221.051077 
L 107.383281 187.968 
L 108.538386 187.968 
L 108.835913 191.808 
L 109.13344 191.808 
L 109.413465 226.368 
L 110.008519 226.368 
L 110.288545 228.751448 
L 110.586072 195.383172 
L 111.461152 195.383172 
L 111.758679 198.72 
L 112.633758 198.72 
L 112.913784 230.976 
L 113.211311 233.057032 
L 113.508838 201.841548 
L 114.383918 201.841548 
L 114.663943 204.768 
L 115.83655 204.768 
L 116.134077 207.517091 
L 116.414102 207.517091 
L 116.71163 178.193455 
L 117.009157 207.517091 
L 117.289182 207.517091 
L 117.586709 210.104471 
L 118.759316 210.104471 
L 119.039341 212.544 
L 119.336868 212.544 
L 119.634395 184.896 
L 120.211948 184.896 
L 120.509475 187.968 
L 120.789501 187.968 
L 121.087028 214.848 
L 121.66458 214.848 
L 121.962107 217.027459 
L 122.53966 217.027459 
L 122.837187 190.873946 
L 123.134714 190.873946 
L 123.41474 193.626947 
L 124.289819 193.626947 
L 124.587346 219.092211 
L 124.884873 221.051077 
L 125.759953 221.051077 
L 126.039978 196.238769 
L 126.337506 198.72 
L 127.510112 198.72 
L 127.790138 201.080195 
L 128.385192 201.080195 
L 128.665217 224.682146 
L 128.962744 201.080195 
L 129.260272 203.328 
L 130.415377 203.328 
L 130.712904 205.471256 
L 131.88551 205.471256 
L 132.165536 185.524364 
L 132.463063 207.517091 
L 133.338143 207.517091 
L 133.63567 209.472 
L 134.790775 209.472 
L 135.088302 190.305391 
L 135.963382 190.305391 
L 136.260909 211.341913 
L 136.540934 213.132255 
L 137.713541 213.132255 
L 138.011068 214.848 
L 138.291093 194.688 
L 139.166173 194.688 
L 139.4637 196.745143 
L 140.041253 196.745143 
L 140.33878 216.493714 
L 140.636307 216.493714 
L 140.916332 218.0736 
L 141.213859 198.72 
L 142.088939 198.72 
L 142.386466 200.617412 
L 143.541571 200.617412 
L 143.839098 202.441846 
L 144.136625 221.051077 
L 144.416651 202.441846 
L 145.011705 202.441846 
L 145.29173 204.197434 
L 146.464337 204.197434 
L 146.761864 205.888 
L 147.339417 205.888 
L 147.636944 187.968 
L 147.916969 205.888 
L 148.214496 207.517091 
L 149.387103 207.517091 
L 149.667129 209.088 
L 150.262183 209.088 
L 150.542208 191.808 
L 150.839735 191.808 
L 151.137262 193.626947 
L 151.417288 193.626947 
L 151.714815 210.603789 
L 152.292368 210.603789 
L 152.589895 212.06731 
L 153.464974 212.06731 
L 153.762501 195.383172 
L 154.042527 197.079864 
L 155.215134 197.079864 
L 155.512661 198.72 
L 155.792686 214.848 
L 156.38774 214.848 
L 156.667766 198.72 
L 156.965293 200.306361 
L 158.1379 200.306361 
L 158.417925 201.841548 
L 159.012979 201.841548 
L 159.293005 217.44929 
L 159.590532 217.44929 
L 159.888059 203.328 
L 161.043164 203.328 
L 161.340691 204.768 
L 162.513298 204.768 
L 162.793323 206.163692 
L 163.09085 191.276308 
L 163.388377 206.163692 
L 163.96593 206.163692 
L 164.263457 207.517091 
L 165.418562 207.517091 
L 165.716089 208.83009 
L 166.013616 194.387104 
L 166.888696 194.387104 
L 167.168721 195.873882 
L 167.466248 210.104471 
L 168.341328 210.104471 
L 168.638855 211.341913 
L 168.918881 211.341913 
L 169.216408 197.317565 
L 169.79396 197.317565 
L 170.091487 198.72 
L 170.66904 198.72 
L 170.966567 212.544 
L 171.264094 212.544 
L 171.54412 213.712225 
L 171.841647 213.712225 
L 172.139174 200.08293 
L 172.716726 200.08293 
L 173.014253 201.408 
L 174.169358 201.408 
L 174.466886 202.696767 
L 174.764413 202.696767 
L 175.044438 215.952658 
L 175.341965 202.696767 
L 175.639492 202.696767 
L 175.919518 203.950703 
L 177.092124 203.950703 
L 177.389652 205.1712 
L 178.544757 205.1712 
L 178.842284 206.359579 
L 180.01489 206.359579 
L 180.294916 207.517091 
L 181.169996 207.517091 
L 181.467523 194.949818 
L 181.76505 196.238769 
L 182.342602 196.238769 
L 182.640129 208.644923 
L 182.920155 208.644923 
L 183.217682 209.744203 
L 184.390289 209.744203 
L 184.670314 198.72 
L 185.842921 198.72 
L 186.140448 199.914667 
L 186.420473 199.914667 
L 186.718 211.861333 
L 187.295553 211.861333 
L 187.59308 201.080195 
L 188.765687 201.080195 
L 189.045712 202.217639 
L 189.920792 202.217639 
L 190.218319 213.876434 
L 190.515846 214.848 
L 190.795872 203.328 
L 191.670951 203.328 
L 191.968478 204.412235 
L 193.141085 204.412235 
L 193.421111 205.471256 
L 193.718638 205.471256 
L 194.016165 194.219163 
L 194.29619 205.471256 
L 194.593717 205.471256 
L 194.891244 206.505931 
L 196.046349 206.505931 
L 196.343877 207.517091 
L 196.641404 207.517091 
L 196.921429 196.520727 
L 197.516483 196.520727 
L 197.796509 197.632719 
L 198.094036 208.505528 
L 198.969115 208.505528 
L 199.266642 209.472 
L 199.844195 209.472 
L 200.141722 198.72 
L 200.421748 198.72 
L 200.719275 199.783385 
L 201.594354 199.783385 
L 201.891881 210.417231 
L 202.171907 211.341913 
L 202.766961 211.341913 
L 203.046987 200.823652 
L 203.344514 200.823652 
L 203.642041 201.841548 
L 204.797146 201.841548 
L 205.094673 202.837787 
L 205.672225 202.837787 
L 205.969753 213.132255 
L 206.26728 202.837787 
L 206.547305 203.813053 
L 207.719912 203.813053 
L 208.017439 204.768 
L 209.172544 204.768 
L 209.470071 195.727175 
L 209.767598 205.703258 
L 210.642678 205.703258 
L 210.922703 206.619429 
L 212.09531 206.619429 
L 212.392837 197.742545 
L 213.267917 197.742545 
L 213.547942 207.517091 
L 213.845469 208.3968 
L 215.018076 208.3968 
L 215.298101 209.259089 
L 215.595629 199.678099 
L 216.470708 199.678099 
L 216.768235 200.617412 
L 217.048261 200.617412 
L 217.345788 210.104471 
L 217.92334 210.104471 
L 218.220867 210.933437 
L 218.518395 201.538485 
L 219.393474 201.538485 
L 219.6735 202.441846 
L 220.846106 202.441846 
L 221.143633 203.328 
L 221.423659 212.544 
L 221.721186 203.328 
L 222.298739 203.328 
L 222.596266 204.197434 
L 223.768872 204.197434 
L 224.048898 205.050617 
L 224.643952 205.050617 
L 224.923977 196.006879 
L 225.221505 205.050617 
L 225.519032 205.888 
L 226.674137 205.888 
L 226.971664 206.710018 
L 227.549216 206.710018 
L 227.846743 197.83222 
L 228.144271 197.83222 
L 228.424296 198.72 
L 228.721823 198.72 
L 229.01935 207.517091 
L 229.596903 207.517091 
L 229.89443 208.309622 
L 230.769509 208.309622 
L 231.049535 199.591784 
L 231.347062 200.448 
L 232.519669 200.448 
L 232.799694 201.289062 
L 233.097221 209.852602 
L 233.674774 209.852602 
L 233.972301 201.289062 
L 234.269828 202.115368 
L 235.424933 202.115368 
L 235.72246 202.927304 
L 236.300013 202.927304 
L 236.59754 211.341913 
L 236.895067 211.341913 
L 237.175092 203.725241 
L 238.347699 203.725241 
L 238.645226 204.509538 
L 239.800331 204.509538 
L 240.097858 205.280542 
L 240.395385 197.079864 
L 240.675411 205.280542 
L 241.270465 205.280542 
L 241.550491 206.038588 
L 242.723097 206.038588 
L 243.020624 206.784 
L 243.30065 198.72 
L 244.175729 198.72 
L 244.473257 199.519736 
L 244.770784 207.517091 
L 245.645863 207.517091 
L 245.925889 208.238164 
L 246.223416 208.238164 
L 246.520943 200.306361 
L 247.098495 200.306361 
L 247.396023 201.080195 
L 247.973575 201.080195 
L 248.271102 208.947512 
L 248.551128 208.947512 
L 248.848655 209.645419 
L 249.146182 209.645419 
L 249.426207 201.841548 
L 250.021261 201.841548 
L 250.301287 202.59072 
L 251.473894 202.59072 
L 251.771421 203.328 
L 252.051446 203.328 
L 252.348973 211.008 
L 252.6465 203.328 
L 252.926526 203.328 
L 253.224053 204.053669 
L 254.39666 204.053669 
L 254.676685 204.768 
L 255.271739 204.768 
L 255.551765 197.208 
L 255.849292 204.768 
L 256.146819 205.471256 
L 257.301924 205.471256 
L 257.599451 206.163692 
L 258.474531 206.163692 
L 258.772058 198.72 
L 259.052083 199.458687 
L 259.647137 199.458687 
L 259.927163 206.845557 
L 260.22469 206.845557 
L 260.522217 207.517091 
L 261.677322 207.517091 
L 261.974849 200.902737 
L 263.147456 200.902737 
L 263.427481 201.608597 
L 263.725009 201.608597 
L 264.022536 208.83009 
L 264.600088 208.83009 
L 264.897615 202.304 
L 266.05272 202.304 
L 266.350247 202.989176 
L 267.225327 202.989176 
L 267.522854 210.104471 
L 267.80288 210.727708 
L 268.100407 203.66435 
L 268.975486 203.66435 
L 269.273013 204.329739 
L 270.428119 204.329739 
L 270.725646 204.985554 
L 271.023173 198.023827 
L 271.303198 198.023827 
L 271.600725 204.985554 
L 271.898252 204.985554 
L 272.178278 205.632 
L 273.350885 205.632 
L 273.648412 206.269277 
L 273.928437 206.269277 
L 274.225964 199.406298 
L 274.803517 199.406298 
L 275.101044 200.08293 
L 275.398571 206.897577 
L 276.273651 206.897577 
L 276.553676 207.517091 
L 277.14873 207.517091 
L 277.428756 200.750098 
L 277.726283 200.750098 
L 278.02381 201.408 
L 278.898889 201.408 
L 279.178915 208.128 
L 279.476442 208.730483 
L 280.053995 208.730483 
L 280.351522 202.056828 
L 280.649049 202.056828 
L 280.929074 202.696767 
L 282.101681 202.696767 
L 282.399208 203.328 
L 282.976761 203.328 
L 283.274288 209.910857 
L 283.554313 203.328 
L 283.85184 203.950703 
L 285.024447 203.950703 
L 285.304472 204.565047 
L 286.179552 204.565047 
L 286.477079 198.07055 
L 286.774606 198.72 
L 287.054632 205.1712 
L 287.929711 205.1712 
L 288.227238 205.769325 
L 289.399845 205.769325 
L 289.679871 199.993263 
L 290.55495 199.993263 
L 290.852477 206.359579 
L 291.150004 206.942118 
L 292.30511 206.942118 
L 292.602637 207.517091 
L 292.900164 201.233455 
L 293.775243 201.233455 
L 294.055269 201.841548 
L 294.352796 201.841548 
L 294.650323 208.084645 
L 295.227876 208.084645 
L 295.525403 208.644923 
L 295.805428 202.441846 
L 296.680508 202.441846 
L 296.978035 203.034497 
L 298.150642 203.034497 
L 298.430667 203.619646 
L 298.728194 209.744203 
L 299.025721 203.619646 
L 299.603274 203.619646 
L 299.900801 204.197434 
L 301.055906 204.197434 
L 301.353433 204.768 
L 301.65096 204.768 
L 301.930986 198.72 
L 302.228513 204.768 
L 302.52604 204.768 
L 302.806065 205.331478 
L 303.978672 205.331478 
L 304.276199 205.888 
L 304.853752 205.888 
L 305.151279 199.914667 
L 305.431304 199.914667 
L 305.728831 200.501006 
L 306.026358 200.501006 
L 306.306384 206.437693 
L 306.901438 206.437693 
L 307.181463 206.980683 
L 308.056543 206.980683 
L 308.35407 201.080195 
L 308.651597 201.652364 
L 309.806702 201.652364 
L 310.104229 202.217639 
L 310.401756 208.047036 
L 310.979309 208.047036 
L 311.276836 202.217639 
L 311.556862 202.776144 
L 312.729468 202.776144 
L 313.026995 203.328 
L 313.604548 203.328 
L 313.902075 209.088 
L 314.1821 209.088 
L 314.479628 203.873325 
L 315.652234 203.873325 
L 315.93226 204.412235 
L 317.104866 204.412235 
L 317.402394 199.285895 
L 317.682419 199.285895 
L 317.979946 204.944842 
L 318.557499 204.944842 
L 318.855026 205.471256 
L 320.027632 205.471256 
L 320.307658 205.991584 
L 320.605185 200.398058 
L 321.182738 200.398058 
L 321.480265 205.991584 
L 321.777792 206.505931 
L 322.932897 206.505931 
L 323.230424 207.0144 
L 323.527951 207.0144 
L 323.807976 201.4848 
L 324.403031 201.4848 
L 324.683056 202.018909 
L 325.27811 202.018909 
L 325.558136 207.517091 
L 325.855663 207.517091 
L 326.15319 208.014102 
L 326.433215 208.014102 
L 326.730742 202.546983 
L 327.308295 202.546983 
L 327.605822 203.069124 
L 328.778429 203.069124 
L 329.058454 203.58543 
L 329.355981 203.58543 
L 329.653508 208.991464 
L 329.933534 203.58543 
L 330.231061 203.58543 
L 330.528588 204.096 
L 331.683693 204.096 
L 331.98122 204.600928 
L 332.558773 204.600928 
L 332.8563 199.25463 
L 333.153827 204.600928 
L 333.433852 205.100308 
L 334.606459 205.100308 
L 334.903986 205.59423 
L 335.779066 205.59423 
L 336.059091 200.306361 
L 336.356618 200.823652 
L 336.934171 200.823652 
L 337.231698 206.082783 
L 337.529225 206.082783 
L 337.809251 206.566054 
L 338.981857 206.566054 
L 339.279384 201.841548 
L 340.43449 201.841548 
L 340.732017 202.342332 
L 341.029544 207.517091 
L 341.904623 207.517091 
L 342.184649 202.837787 
L 343.357256 202.837787 
L 343.654783 203.328 
L 344.529862 203.328 
L 344.809888 208.448 
L 345.107415 208.906105 
L 345.404942 203.813053 
L 346.280022 203.813053 
L 346.560047 204.293026 
L 347.732654 204.293026 
L 348.030181 204.768 
L 348.310206 199.728 
L 348.607733 199.728 
L 348.90526 204.768 
L 349.185286 204.768 
L 349.482813 205.238052 
L 350.65542 205.238052 
L 350.935445 205.703258 
L 351.232972 205.703258 
L 351.530499 200.715216 
L 352.108052 200.715216 
L 352.405579 201.201231 
L 352.685605 206.163692 
L 353.560684 206.163692 
L 353.858211 206.619429 
L 354.435764 206.619429 
L 354.733291 201.682286 
L 355.030818 201.682286 
L 355.310843 202.158457 
L 356.185923 202.158457 
L 356.48345 207.070538 
L 356.780977 207.517091 
L 357.35853 207.517091 
L 357.656057 202.629818 
L 357.936082 202.629818 
L 358.233609 203.096442 
L 359.406216 203.096442 
L 359.686242 203.5584 
L 359.983769 203.5584 
L 360.281296 208.3968 
L 360.561321 208.3968 
L 360.858848 203.5584 
L 361.156375 204.015761 
L 362.311481 204.015761 
L 362.609008 204.468594 
L 363.484087 204.468594 
L 363.781614 199.678099 
L 364.06164 200.150069 
L 364.359167 204.916966 
L 365.234247 204.916966 
L 365.531774 205.360941 
L 366.686879 205.360941 
L 366.984406 201.080195 
L 367.859485 201.080195 
L 368.157012 205.800585 
L 368.437038 206.235961 
L 369.609645 206.235961 
L 369.907172 206.66713 
L 370.187197 201.992348 
L 371.062277 201.992348 
L 371.359804 202.441846 
L 371.657331 202.441846 
L 371.937357 207.094154 
L 372.532411 207.094154 
L 372.812436 207.517091 
L 373.109963 202.887043 
L 373.985043 202.887043 
L 374.28257 203.328 
L 375.437675 203.328 
L 375.735202 203.764777 
L 376.032729 208.350938 
L 376.312755 203.764777 
L 376.907809 203.764777 
L 377.187834 204.197434 
L 378.360441 204.197434 
L 378.657968 204.626028 
L 378.937994 204.626028 
L 379.235521 200.08293 
L 379.533048 204.626028 
L 379.813073 204.626028 
L 380.1106 205.050617 
L 381.283207 205.050617 
L 381.563233 205.471256 
L 382.158287 205.471256 
L 382.438312 200.970419 
L 382.735839 200.970419 
L 383.033366 201.408 
L 383.313392 201.408 
L 383.610919 205.888 
L 384.188471 205.888 
L 384.485999 206.300903 
L 385.063551 206.300903 
L 385.361078 201.841548 
L 385.658605 201.841548 
L 385.938631 202.271119 
L 387.111237 202.271119 
L 387.408765 202.696767 
L 387.68879 207.115397 
L 388.283844 207.115397 
L 388.56387 202.696767 
L 388.861397 203.118545 
L 390.034003 203.118545 
L 390.314029 203.536507 
L 390.909083 203.536507 
L 391.189109 207.915149 
L 391.486636 207.915149 
L 391.784163 203.950703 
L 392.939268 203.950703 
L 393.236795 204.361184 
L 394.409402 204.361184 
L 394.689427 200.448 
L 394.986954 200.448 
L 395.284481 204.768 
L 395.862034 204.768 
L 396.159561 205.1712 
L 397.314666 205.1712 
L 397.612193 205.570832 
L 397.90972 201.289062 
L 398.487273 201.289062 
L 398.487273 201.289062 
" style="fill:none;stroke:#1f77b4;stroke-linecap:square;stroke-width:1.5;"/>
   </g>
   <g id="patch_3">
    <path d="M 57.6 307.584 
L 57.6 41.472 
" style="fill:none;stroke:#000000;stroke-linecap:square;stroke-linejoin:miter;stroke-width:0.8;"/>
   </g>
   <g id="patch_4">
    <path d="M 414.72 307.584 
L 414.72 41.472 
" style="fill:none;stroke:#000000;stroke-linecap:square;stroke-linejoin:miter;stroke-width:0.8;"/>
   </g>
   <g id="patch_5">
    <path d="M 57.6 307.584 
L 414.72 307.584 
" style="fill:none;stroke:#000000;stroke-linecap:square;stroke-linejoin:miter;stroke-width:0.8;"/>
   </g>
   <g id="patch_6">
    <path d="M 57.6 41.472 
L 414.72 41.472 
" style="fill:none;stroke:#000000;stroke-linecap:square;stroke-linejoin:miter;stroke-width:0.8;"/>
   </g>
   <g id="text_19">
    <!-- Speed function of time -->
    <g transform="translate(167.024063 35.472)scale(0.12 -0.12)">
     <defs>
      <path id="DejaVuSerif-32"/>
      <path d="M 43.015625 63.71875 
L 38.28125 63.71875 
Q 38.234375 67.390625 36.203125 69.28125 
Q 34.1875 71.1875 30.328125 71.1875 
Q 25.296875 71.1875 23.234375 68.421875 
Q 21.1875 65.671875 21.1875 58.59375 
L 21.1875 51.90625 
L 35.6875 51.90625 
L 35.6875 46.6875 
L 21.1875 46.6875 
L 21.1875 5.171875 
L 32.71875 5.171875 
L 32.71875 0 
L 3.609375 0 
L 3.609375 5.171875 
L 12.203125 5.171875 
L 12.203125 46.6875 
L 3.609375 46.6875 
L 3.609375 51.90625 
L 12.203125 51.90625 
L 12.203125 58.40625 
Q 12.203125 67.09375 16.71875 71.53125 
Q 21.234375 75.984375 29.984375 75.984375 
Q 33.25 75.984375 36.515625 75.390625 
Q 39.796875 74.8125 43.015625 73.578125 
z
" id="DejaVuSerif-102"/>
      <path d="M 35.40625 51.90625 
L 52.203125 51.90625 
L 52.203125 5.171875 
L 60.6875 5.171875 
L 60.6875 0 
L 43.21875 0 
L 43.21875 9.1875 
Q 40.71875 4 36.765625 1.28125 
Q 32.8125 -1.421875 27.59375 -1.421875 
Q 18.953125 -1.421875 14.875 3.484375 
Q 10.796875 8.40625 10.796875 18.890625 
L 10.796875 46.6875 
L 2.6875 46.6875 
L 2.6875 51.90625 
L 19.828125 51.90625 
L 19.828125 21.6875 
Q 19.828125 12.203125 22.140625 8.6875 
Q 24.46875 5.171875 30.421875 5.171875 
Q 36.671875 5.171875 39.9375 9.765625 
Q 43.21875 14.359375 43.21875 23.09375 
L 43.21875 46.6875 
L 35.40625 46.6875 
z
" id="DejaVuSerif-117"/>
      <path d="M 4.109375 0 
L 4.109375 5.171875 
L 12.203125 5.171875 
L 12.203125 46.6875 
L 3.609375 46.6875 
L 3.609375 51.90625 
L 21.1875 51.90625 
L 21.1875 42.671875 
Q 23.6875 47.953125 27.65625 50.640625 
Q 31.640625 53.328125 36.921875 53.328125 
Q 45.515625 53.328125 49.5625 48.390625 
Q 53.609375 43.453125 53.609375 33.015625 
L 53.609375 5.171875 
L 61.625 5.171875 
L 61.625 0 
L 36.8125 0 
L 36.8125 5.171875 
L 44.578125 5.171875 
L 44.578125 30.171875 
Q 44.578125 39.703125 42.234375 43.234375 
Q 39.890625 46.78125 33.984375 46.78125 
Q 27.734375 46.78125 24.453125 42.203125 
Q 21.1875 37.640625 21.1875 28.90625 
L 21.1875 5.171875 
L 29 5.171875 
L 29 0 
z
" id="DejaVuSerif-110"/>
      <path d="M 51.421875 15.578125 
Q 49.515625 7.28125 44.09375 2.921875 
Q 38.671875 -1.421875 30.078125 -1.421875 
Q 18.75 -1.421875 11.859375 6.078125 
Q 4.984375 13.578125 4.984375 25.984375 
Q 4.984375 38.421875 11.859375 45.875 
Q 18.75 53.328125 30.078125 53.328125 
Q 35.015625 53.328125 39.890625 52.171875 
Q 44.78125 51.03125 49.703125 48.6875 
L 49.703125 35.40625 
L 44.484375 35.40625 
Q 43.453125 42.234375 40.015625 45.359375 
Q 36.578125 48.484375 30.171875 48.484375 
Q 22.90625 48.484375 19.1875 42.84375 
Q 15.484375 37.203125 15.484375 25.984375 
Q 15.484375 14.75 19.171875 9.078125 
Q 22.859375 3.421875 30.171875 3.421875 
Q 35.984375 3.421875 39.453125 6.4375 
Q 42.921875 9.46875 44.1875 15.578125 
z
" id="DejaVuSerif-99"/>
      <path d="M 10.796875 46.6875 
L 2.875 46.6875 
L 2.875 51.90625 
L 10.796875 51.90625 
L 10.796875 68.015625 
L 19.828125 68.015625 
L 19.828125 51.90625 
L 36.71875 51.90625 
L 36.71875 46.6875 
L 19.828125 46.6875 
L 19.828125 13.71875 
Q 19.828125 7.125 21.09375 5.265625 
Q 22.359375 3.421875 25.78125 3.421875 
Q 29.296875 3.421875 30.90625 5.484375 
Q 32.515625 7.5625 32.625 12.203125 
L 39.40625 12.203125 
Q 39.015625 5.125 35.546875 1.84375 
Q 32.078125 -1.421875 25 -1.421875 
Q 17.234375 -1.421875 14.015625 2.015625 
Q 10.796875 5.46875 10.796875 13.71875 
z
" id="DejaVuSerif-116"/>
      <path d="M 30.078125 3.421875 
Q 37.3125 3.421875 40.984375 9.125 
Q 44.671875 14.84375 44.671875 25.984375 
Q 44.671875 37.109375 40.984375 42.796875 
Q 37.3125 48.484375 30.078125 48.484375 
Q 22.859375 48.484375 19.171875 42.796875 
Q 15.484375 37.109375 15.484375 25.984375 
Q 15.484375 14.84375 19.1875 9.125 
Q 22.90625 3.421875 30.078125 3.421875 
z
M 30.078125 -1.421875 
Q 18.75 -1.421875 11.859375 6.078125 
Q 4.984375 13.578125 4.984375 25.984375 
Q 4.984375 38.375 11.84375 45.84375 
Q 18.703125 53.328125 30.078125 53.328125 
Q 41.453125 53.328125 48.3125 45.84375 
Q 55.171875 38.375 55.171875 25.984375 
Q 55.171875 13.578125 48.3125 6.078125 
Q 41.453125 -1.421875 30.078125 -1.421875 
z
" id="DejaVuSerif-111"/>
     </defs>
     <use xlink:href="#DejaVuSerif-83"/>
     <use x="68.505859" xlink:href="#DejaVuSerif-112"/>
     <use x="132.519531" xlink:href="#DejaVuSerif-101"/>
     <use x="191.699219" xlink:href="#DejaVuSerif-101"/>
     <use x="250.878906" xlink:href="#DejaVuSerif-100"/>
     <use x="314.892578" xlink:href="#DejaVuSerif-32"/>
     <use x="346.679688" xlink:href="#DejaVuSerif-102"/>
     <use x="383.691406" xlink:href="#DejaVuSerif-117"/>
     <use x="448.095703" xlink:href="#DejaVuSerif-110"/>
     <use x="512.5" xlink:href="#DejaVuSerif-99"/>
     <use x="568.505859" xlink:href="#DejaVuSerif-116"/>
     <use x="608.691406" xlink:href="#DejaVuSerif-105"/>
     <use x="640.673828" xlink:href="#DejaVuSerif-111"/>
     <use x="700.878906" xlink:href="#DejaVuSerif-110"/>
     <use x="765.283203" xlink:href="#DejaVuSerif-32"/>
     <use x="797.070312" xlink:href="#DejaVuSerif-111"/>
     <use x="857.275391" xlink:href="#DejaVuSerif-102"/>
     <use x="894.287109" xlink:href="#DejaVuSerif-32"/>
     <use x="926.074219" xlink:href="#DejaVuSerif-116"/>
     <use x="966.259766" xlink:href="#DejaVuSerif-105"/>
     <use x="998.242188" xlink:href="#DejaVuSerif-109"/>
     <use x="1093.066406" xlink:href="#DejaVuSerif-101"/>
    </g>
   </g>
  </g>
 </g>
 <defs>
  <clipPath id="pb5f0af09db">
   <rect height="266.112" width="357.12" x="57.6" y="41.472"/>
  </clipPath>
 </defs>
</svg>
