<?xml version="1.0" encoding="utf-8" standalone="no"?>
<!DOCTYPE svg PUBLIC "-//W3C//DTD SVG 1.1//EN"
  "http://www.w3.org/Graphics/SVG/1.1/DTD/svg11.dtd">
<!-- Created with matplotlib (https://matplotlib.org/) -->
<svg height="345.6pt" version="1.1" viewBox="0 0 460.8 345.6" width="460.8pt" xmlns="http://www.w3.org/2000/svg" xmlns:xlink="http://www.w3.org/1999/xlink">
 <metadata>
  <rdf:RDF xmlns:cc="http://creativecommons.org/ns#" xmlns:dc="http://purl.org/dc/elements/1.1/" xmlns:rdf="http://www.w3.org/1999/02/22-rdf-syntax-ns#">
   <cc:Work>
    <dc:type rdf:resource="http://purl.org/dc/dcmitype/StillImage"/>
    <dc:date>2023-01-07T16:36:02.546095</dc:date>
    <dc:format>image/svg+xml</dc:format>
    <dc:creator>
     <cc:Agent>
      <dc:title>Matplotlib v3.3.4, https://matplotlib.org/</dc:title>
     </cc:Agent>
    </dc:creator>
   </cc:Work>
  </rdf:RDF>
 </metadata>
 <defs>
  <style type="text/css">*{stroke-linecap:butt;stroke-linejoin:round;}</style>
 </defs>
 <g id="figure_1">
  <g id="patch_1">
   <path d="M 0 345.6 
L 460.8 345.6 
L 460.8 0 
L 0 0 
z
" style="fill:#ffffff;"/>
  </g>
  <g id="axes_1">
   <g id="patch_2">
    <path d="M 57.6 307.584 
L 414.72 307.584 
L 414.72 41.472 
L 57.6 41.472 
z
" style="fill:#ffffff;"/>
   </g>
   <g id="matplotlib.axis_1">
    <g id="xtick_1">
     <g id="line2d_1">
      <defs>
       <path d="M 0 0 
L 0 3.5 
" id="m2f7137883b" style="stroke:#000000;stroke-width:0.8;"/>
      </defs>
      <g>
       <use style="stroke:#000000;stroke-width:0.8;" x="72.979898" xlink:href="#m2f7137883b" y="307.584"/>
      </g>
     </g>
     <g id="text_1">
      <!-- 0 -->
      <g transform="translate(69.798648 322.182437)scale(0.1 -0.1)">
       <defs>
        <path d="M 31.78125 3.421875 
Q 39.265625 3.421875 42.96875 11.625 
Q 46.6875 19.828125 46.6875 36.375 
Q 46.6875 52.984375 42.96875 61.1875 
Q 39.265625 69.390625 31.78125 69.390625 
Q 24.3125 69.390625 20.59375 61.1875 
Q 16.890625 52.984375 16.890625 36.375 
Q 16.890625 19.828125 20.59375 11.625 
Q 24.3125 3.421875 31.78125 3.421875 
z
M 31.78125 -1.421875 
Q 19.921875 -1.421875 13.25 8.53125 
Q 6.59375 18.5 6.59375 36.375 
Q 6.59375 54.296875 13.25 64.25 
Q 19.921875 74.21875 31.78125 74.21875 
Q 43.703125 74.21875 50.34375 64.25 
Q 56.984375 54.296875 56.984375 36.375 
Q 56.984375 18.5 50.34375 8.53125 
Q 43.703125 -1.421875 31.78125 -1.421875 
z
" id="DejaVuSerif-48"/>
       </defs>
       <use xlink:href="#DejaVuSerif-48"/>
      </g>
     </g>
    </g>
    <g id="xtick_2">
     <g id="line2d_2">
      <g>
       <use style="stroke:#000000;stroke-width:0.8;" x="138.081373" xlink:href="#m2f7137883b" y="307.584"/>
      </g>
     </g>
     <g id="text_2">
      <!-- 200 -->
      <g transform="translate(128.537623 322.182437)scale(0.1 -0.1)">
       <defs>
        <path d="M 12.796875 55.515625 
L 7.328125 55.515625 
L 7.328125 68.5 
Q 12.546875 71.296875 17.84375 72.75 
Q 23.140625 74.21875 28.21875 74.21875 
Q 39.59375 74.21875 46.1875 68.703125 
Q 52.78125 63.1875 52.78125 53.71875 
Q 52.78125 43.015625 37.84375 28.125 
Q 36.671875 27 36.078125 26.421875 
L 17.671875 8.015625 
L 48.09375 8.015625 
L 48.09375 17 
L 53.8125 17 
L 53.8125 0 
L 6.78125 0 
L 6.78125 5.328125 
L 28.90625 27.390625 
Q 36.234375 34.71875 39.359375 40.84375 
Q 42.484375 46.96875 42.484375 53.71875 
Q 42.484375 61.078125 38.640625 65.234375 
Q 34.8125 69.390625 28.078125 69.390625 
Q 21.09375 69.390625 17.28125 65.921875 
Q 13.484375 62.453125 12.796875 55.515625 
z
" id="DejaVuSerif-50"/>
       </defs>
       <use xlink:href="#DejaVuSerif-50"/>
       <use x="63.623047" xlink:href="#DejaVuSerif-48"/>
       <use x="127.246094" xlink:href="#DejaVuSerif-48"/>
      </g>
     </g>
    </g>
    <g id="xtick_3">
     <g id="line2d_3">
      <g>
       <use style="stroke:#000000;stroke-width:0.8;" x="203.182848" xlink:href="#m2f7137883b" y="307.584"/>
      </g>
     </g>
     <g id="text_3">
      <!-- 400 -->
      <g transform="translate(193.639098 322.182437)scale(0.1 -0.1)">
       <defs>
        <path d="M 34.90625 24.703125 
L 34.90625 63.484375 
L 10.015625 24.703125 
z
M 56.390625 0 
L 23.1875 0 
L 23.1875 5.171875 
L 34.90625 5.171875 
L 34.90625 19.484375 
L 3.078125 19.484375 
L 3.078125 24.8125 
L 35.015625 74.21875 
L 44.671875 74.21875 
L 44.671875 24.703125 
L 58.59375 24.703125 
L 58.59375 19.484375 
L 44.671875 19.484375 
L 44.671875 5.171875 
L 56.390625 5.171875 
z
" id="DejaVuSerif-52"/>
       </defs>
       <use xlink:href="#DejaVuSerif-52"/>
       <use x="63.623047" xlink:href="#DejaVuSerif-48"/>
       <use x="127.246094" xlink:href="#DejaVuSerif-48"/>
      </g>
     </g>
    </g>
    <g id="xtick_4">
     <g id="line2d_4">
      <g>
       <use style="stroke:#000000;stroke-width:0.8;" x="268.284323" xlink:href="#m2f7137883b" y="307.584"/>
      </g>
     </g>
     <g id="text_4">
      <!-- 600 -->
      <g transform="translate(258.740573 322.182437)scale(0.1 -0.1)">
       <defs>
        <path d="M 32.71875 3.421875 
Q 39.59375 3.421875 43.296875 8.46875 
Q 47.015625 13.53125 47.015625 23 
Q 47.015625 32.46875 43.296875 37.515625 
Q 39.59375 42.578125 32.71875 42.578125 
Q 25.734375 42.578125 22.0625 37.6875 
Q 18.40625 32.8125 18.40625 23.578125 
Q 18.40625 13.875 22.109375 8.640625 
Q 25.828125 3.421875 32.71875 3.421875 
z
M 16.796875 40.140625 
Q 20.125 43.796875 24.3125 45.59375 
Q 28.515625 47.40625 33.796875 47.40625 
Q 44.671875 47.40625 51 40.859375 
Q 57.328125 34.328125 57.328125 23 
Q 57.328125 11.921875 50.515625 5.25 
Q 43.703125 -1.421875 32.328125 -1.421875 
Q 19.96875 -1.421875 13.328125 7.78125 
Q 6.6875 17 6.6875 34.078125 
Q 6.6875 53.21875 14.546875 63.71875 
Q 22.40625 74.21875 36.71875 74.21875 
Q 40.578125 74.21875 44.828125 73.484375 
Q 49.078125 72.75 53.515625 71.296875 
L 53.515625 59.28125 
L 48 59.28125 
Q 47.40625 64.203125 44.234375 66.796875 
Q 41.0625 69.390625 35.6875 69.390625 
Q 26.21875 69.390625 21.578125 62.203125 
Q 16.9375 55.03125 16.796875 40.140625 
z
" id="DejaVuSerif-54"/>
       </defs>
       <use xlink:href="#DejaVuSerif-54"/>
       <use x="63.623047" xlink:href="#DejaVuSerif-48"/>
       <use x="127.246094" xlink:href="#DejaVuSerif-48"/>
      </g>
     </g>
    </g>
    <g id="xtick_5">
     <g id="line2d_5">
      <g>
       <use style="stroke:#000000;stroke-width:0.8;" x="333.385798" xlink:href="#m2f7137883b" y="307.584"/>
      </g>
     </g>
     <g id="text_5">
      <!-- 800 -->
      <g transform="translate(323.842048 322.182437)scale(0.1 -0.1)">
       <defs>
        <path d="M 46.578125 19.921875 
Q 46.578125 27.734375 42.6875 32.046875 
Q 38.8125 36.375 31.78125 36.375 
Q 24.75 36.375 20.875 32.046875 
Q 17 27.734375 17 19.921875 
Q 17 12.0625 20.875 7.734375 
Q 24.75 3.421875 31.78125 3.421875 
Q 38.8125 3.421875 42.6875 7.734375 
Q 46.578125 12.0625 46.578125 19.921875 
z
M 44.578125 55.328125 
Q 44.578125 61.96875 41.203125 65.671875 
Q 37.84375 69.390625 31.78125 69.390625 
Q 25.78125 69.390625 22.390625 65.671875 
Q 19 61.96875 19 55.328125 
Q 19 48.640625 22.390625 44.921875 
Q 25.78125 41.21875 31.78125 41.21875 
Q 37.84375 41.21875 41.203125 44.921875 
Q 44.578125 48.640625 44.578125 55.328125 
z
M 39.3125 38.8125 
Q 47.609375 37.703125 52.25 32.6875 
Q 56.890625 27.6875 56.890625 19.921875 
Q 56.890625 9.671875 50.390625 4.125 
Q 43.890625 -1.421875 31.78125 -1.421875 
Q 19.734375 -1.421875 13.203125 4.125 
Q 6.6875 9.671875 6.6875 19.921875 
Q 6.6875 27.6875 11.328125 32.6875 
Q 15.96875 37.703125 24.3125 38.8125 
Q 16.9375 40.140625 13 44.40625 
Q 9.078125 48.6875 9.078125 55.328125 
Q 9.078125 64.109375 15.125 69.15625 
Q 21.1875 74.21875 31.78125 74.21875 
Q 42.390625 74.21875 48.4375 69.15625 
Q 54.5 64.109375 54.5 55.328125 
Q 54.5 48.6875 50.5625 44.40625 
Q 46.625 40.140625 39.3125 38.8125 
z
" id="DejaVuSerif-56"/>
       </defs>
       <use xlink:href="#DejaVuSerif-56"/>
       <use x="63.623047" xlink:href="#DejaVuSerif-48"/>
       <use x="127.246094" xlink:href="#DejaVuSerif-48"/>
      </g>
     </g>
    </g>
    <g id="xtick_6">
     <g id="line2d_6">
      <g>
       <use style="stroke:#000000;stroke-width:0.8;" x="398.487273" xlink:href="#m2f7137883b" y="307.584"/>
      </g>
     </g>
     <g id="text_6">
      <!-- 1000 -->
      <g transform="translate(385.762273 322.182437)scale(0.1 -0.1)">
       <defs>
        <path d="M 14.203125 0 
L 14.203125 5.171875 
L 26.90625 5.171875 
L 26.90625 65.828125 
L 12.203125 56.296875 
L 12.203125 62.703125 
L 29.984375 74.21875 
L 36.71875 74.21875 
L 36.71875 5.171875 
L 49.421875 5.171875 
L 49.421875 0 
z
" id="DejaVuSerif-49"/>
       </defs>
       <use xlink:href="#DejaVuSerif-49"/>
       <use x="63.623047" xlink:href="#DejaVuSerif-48"/>
       <use x="127.246094" xlink:href="#DejaVuSerif-48"/>
       <use x="190.869141" xlink:href="#DejaVuSerif-48"/>
      </g>
     </g>
    </g>
    <g id="text_7">
     <!-- Time -->
     <g transform="translate(223.524844 335.860562)scale(0.1 -0.1)">
      <defs>
       <path d="M 19.09375 0 
L 19.09375 5.171875 
L 28.421875 5.171875 
L 28.421875 67.09375 
L 6.984375 67.09375 
L 6.984375 55.71875 
L 0.984375 55.71875 
L 0.984375 72.90625 
L 65.71875 72.90625 
L 65.71875 55.71875 
L 59.71875 55.71875 
L 59.71875 67.09375 
L 38.28125 67.09375 
L 38.28125 5.171875 
L 47.609375 5.171875 
L 47.609375 0 
z
" id="DejaVuSerif-84"/>
       <path d="M 9.71875 68.015625 
Q 9.71875 70.265625 11.34375 71.921875 
Q 12.984375 73.578125 15.28125 73.578125 
Q 17.53125 73.578125 19.15625 71.921875 
Q 20.796875 70.265625 20.796875 68.015625 
Q 20.796875 65.71875 19.1875 64.109375 
Q 17.578125 62.5 15.28125 62.5 
Q 12.984375 62.5 11.34375 64.109375 
Q 9.71875 65.71875 9.71875 68.015625 
z
M 21.1875 5.171875 
L 29.6875 5.171875 
L 29.6875 0 
L 3.609375 0 
L 3.609375 5.171875 
L 12.203125 5.171875 
L 12.203125 46.6875 
L 3.609375 46.6875 
L 3.609375 51.90625 
L 21.1875 51.90625 
z
" id="DejaVuSerif-105"/>
       <path d="M 51.8125 41.796875 
Q 54.390625 47.515625 58.421875 50.421875 
Q 62.453125 53.328125 67.828125 53.328125 
Q 75.984375 53.328125 79.984375 48.265625 
Q 83.984375 43.21875 83.984375 33.015625 
L 83.984375 5.171875 
L 92.09375 5.171875 
L 92.09375 0 
L 67.1875 0 
L 67.1875 5.171875 
L 75 5.171875 
L 75 31.984375 
Q 75 39.9375 72.65625 43.3125 
Q 70.3125 46.6875 64.890625 46.6875 
Q 58.890625 46.6875 55.734375 42.140625 
Q 52.59375 37.59375 52.59375 28.90625 
L 52.59375 5.171875 
L 60.40625 5.171875 
L 60.40625 0 
L 35.796875 0 
L 35.796875 5.171875 
L 43.609375 5.171875 
L 43.609375 32.328125 
Q 43.609375 40.09375 41.265625 43.390625 
Q 38.921875 46.6875 33.5 46.6875 
Q 27.484375 46.6875 24.328125 42.140625 
Q 21.1875 37.59375 21.1875 28.90625 
L 21.1875 5.171875 
L 29 5.171875 
L 29 0 
L 4.109375 0 
L 4.109375 5.171875 
L 12.203125 5.171875 
L 12.203125 46.78125 
L 3.609375 46.78125 
L 3.609375 51.90625 
L 21.1875 51.90625 
L 21.1875 42.671875 
Q 23.6875 47.859375 27.53125 50.59375 
Q 31.390625 53.328125 36.28125 53.328125 
Q 42.328125 53.328125 46.375 50.3125 
Q 50.4375 47.3125 51.8125 41.796875 
z
" id="DejaVuSerif-109"/>
       <path d="M 54.203125 25 
L 15.484375 25 
L 15.484375 24.609375 
Q 15.484375 14.109375 19.4375 8.765625 
Q 23.390625 3.421875 31.109375 3.421875 
Q 37.015625 3.421875 40.796875 6.515625 
Q 44.578125 9.625 46.09375 15.71875 
L 53.328125 15.71875 
Q 51.171875 7.171875 45.375 2.875 
Q 39.59375 -1.421875 30.171875 -1.421875 
Q 18.796875 -1.421875 11.890625 6.078125 
Q 4.984375 13.578125 4.984375 25.984375 
Q 4.984375 38.28125 11.765625 45.796875 
Q 18.5625 53.328125 29.59375 53.328125 
Q 41.359375 53.328125 47.65625 46.0625 
Q 53.953125 38.8125 54.203125 25 
z
M 43.609375 30.171875 
Q 43.3125 39.265625 39.765625 43.875 
Q 36.234375 48.484375 29.59375 48.484375 
Q 23.390625 48.484375 19.828125 43.84375 
Q 16.265625 39.203125 15.484375 30.171875 
z
" id="DejaVuSerif-101"/>
      </defs>
      <use xlink:href="#DejaVuSerif-84"/>
      <use x="66.699219" xlink:href="#DejaVuSerif-105"/>
      <use x="98.681641" xlink:href="#DejaVuSerif-109"/>
      <use x="193.505859" xlink:href="#DejaVuSerif-101"/>
     </g>
    </g>
   </g>
   <g id="matplotlib.axis_2">
    <g id="ytick_1">
     <g id="line2d_7">
      <defs>
       <path d="M 0 0 
L -3.5 0 
" id="m6516dd3046" style="stroke:#000000;stroke-width:0.8;"/>
      </defs>
      <g>
       <use style="stroke:#000000;stroke-width:0.8;" x="57.6" xlink:href="#m6516dd3046" y="295.488"/>
      </g>
     </g>
     <g id="text_8">
      <!-- −0.40 -->
      <g transform="translate(19.954687 299.287219)scale(0.1 -0.1)">
       <defs>
        <path d="M 10.59375 35.296875 
L 73.1875 35.296875 
L 73.1875 27.390625 
L 10.59375 27.390625 
z
" id="DejaVuSerif-8722"/>
        <path d="M 9.421875 5.078125 
Q 9.421875 7.8125 11.28125 9.71875 
Q 13.140625 11.625 15.921875 11.625 
Q 18.609375 11.625 20.5 9.71875 
Q 22.40625 7.8125 22.40625 5.078125 
Q 22.40625 2.390625 20.5 0.484375 
Q 18.609375 -1.421875 15.921875 -1.421875 
Q 13.140625 -1.421875 11.28125 0.453125 
Q 9.421875 2.34375 9.421875 5.078125 
z
" id="DejaVuSerif-46"/>
       </defs>
       <use xlink:href="#DejaVuSerif-8722"/>
       <use x="83.789062" xlink:href="#DejaVuSerif-48"/>
       <use x="147.412109" xlink:href="#DejaVuSerif-46"/>
       <use x="179.199219" xlink:href="#DejaVuSerif-52"/>
       <use x="242.822266" xlink:href="#DejaVuSerif-48"/>
      </g>
     </g>
    </g>
    <g id="ytick_2">
     <g id="line2d_8">
      <g>
       <use style="stroke:#000000;stroke-width:0.8;" x="57.6" xlink:href="#m6516dd3046" y="265.785123"/>
      </g>
     </g>
     <g id="text_9">
      <!-- −0.35 -->
      <g transform="translate(19.954687 269.584341)scale(0.1 -0.1)">
       <defs>
        <path d="M 9.71875 69.828125 
Q 15.4375 71.96875 20.671875 73.09375 
Q 25.921875 74.21875 30.515625 74.21875 
Q 41.21875 74.21875 47.21875 69.59375 
Q 53.21875 64.984375 53.21875 56.78125 
Q 53.21875 50.203125 49.0625 45.78125 
Q 44.921875 41.359375 37.3125 39.796875 
Q 46.296875 38.53125 51.25 33.28125 
Q 56.203125 28.03125 56.203125 19.671875 
Q 56.203125 9.46875 49.34375 4.015625 
Q 42.484375 -1.421875 29.59375 -1.421875 
Q 23.875 -1.421875 18.421875 -0.1875 
Q 12.984375 1.03125 7.625 3.515625 
L 7.625 17.671875 
L 13.09375 17.671875 
Q 13.578125 10.640625 17.828125 7.03125 
Q 22.078125 3.421875 29.78125 3.421875 
Q 37.25 3.421875 41.578125 7.734375 
Q 45.90625 12.0625 45.90625 19.578125 
Q 45.90625 28.171875 41.453125 32.59375 
Q 37.015625 37.015625 28.421875 37.015625 
L 23.78125 37.015625 
L 23.78125 42 
L 26.21875 42 
Q 34.765625 42 39.03125 45.53125 
Q 43.3125 49.078125 43.3125 56.203125 
Q 43.3125 62.59375 39.796875 65.984375 
Q 36.28125 69.390625 29.6875 69.390625 
Q 23.09375 69.390625 19.453125 66.265625 
Q 15.828125 63.140625 15.1875 56.984375 
L 9.71875 56.984375 
z
" id="DejaVuSerif-51"/>
        <path d="M 50.296875 72.90625 
L 50.296875 64.890625 
L 16.890625 64.890625 
L 16.890625 44 
Q 19.4375 45.75 22.828125 46.625 
Q 26.21875 47.515625 30.421875 47.515625 
Q 42.234375 47.515625 49.0625 40.96875 
Q 55.90625 34.421875 55.90625 23.09375 
Q 55.90625 11.53125 49 5.046875 
Q 42.09375 -1.421875 29.59375 -1.421875 
Q 24.5625 -1.421875 19.28125 -0.1875 
Q 14.015625 1.03125 8.5 3.515625 
L 8.5 17.671875 
L 14.015625 17.671875 
Q 14.453125 10.75 18.421875 7.078125 
Q 22.40625 3.421875 29.59375 3.421875 
Q 37.3125 3.421875 41.453125 8.5 
Q 45.609375 13.578125 45.609375 23.09375 
Q 45.609375 32.5625 41.484375 37.609375 
Q 37.359375 42.671875 29.59375 42.671875 
Q 25.203125 42.671875 21.84375 41.109375 
Q 18.5 39.546875 15.921875 36.28125 
L 11.71875 36.28125 
L 11.71875 72.90625 
z
" id="DejaVuSerif-53"/>
       </defs>
       <use xlink:href="#DejaVuSerif-8722"/>
       <use x="83.789062" xlink:href="#DejaVuSerif-48"/>
       <use x="147.412109" xlink:href="#DejaVuSerif-46"/>
       <use x="179.199219" xlink:href="#DejaVuSerif-51"/>
       <use x="242.822266" xlink:href="#DejaVuSerif-53"/>
      </g>
     </g>
    </g>
    <g id="ytick_3">
     <g id="line2d_9">
      <g>
       <use style="stroke:#000000;stroke-width:0.8;" x="57.6" xlink:href="#m6516dd3046" y="236.082245"/>
      </g>
     </g>
     <g id="text_10">
      <!-- −0.30 -->
      <g transform="translate(19.954687 239.881464)scale(0.1 -0.1)">
       <use xlink:href="#DejaVuSerif-8722"/>
       <use x="83.789062" xlink:href="#DejaVuSerif-48"/>
       <use x="147.412109" xlink:href="#DejaVuSerif-46"/>
       <use x="179.199219" xlink:href="#DejaVuSerif-51"/>
       <use x="242.822266" xlink:href="#DejaVuSerif-48"/>
      </g>
     </g>
    </g>
    <g id="ytick_4">
     <g id="line2d_10">
      <g>
       <use style="stroke:#000000;stroke-width:0.8;" x="57.6" xlink:href="#m6516dd3046" y="206.379368"/>
      </g>
     </g>
     <g id="text_11">
      <!-- −0.25 -->
      <g transform="translate(19.954687 210.178586)scale(0.1 -0.1)">
       <use xlink:href="#DejaVuSerif-8722"/>
       <use x="83.789062" xlink:href="#DejaVuSerif-48"/>
       <use x="147.412109" xlink:href="#DejaVuSerif-46"/>
       <use x="179.199219" xlink:href="#DejaVuSerif-50"/>
       <use x="242.822266" xlink:href="#DejaVuSerif-53"/>
      </g>
     </g>
    </g>
    <g id="ytick_5">
     <g id="line2d_11">
      <g>
       <use style="stroke:#000000;stroke-width:0.8;" x="57.6" xlink:href="#m6516dd3046" y="176.67649"/>
      </g>
     </g>
     <g id="text_12">
      <!-- −0.20 -->
      <g transform="translate(19.954687 180.475709)scale(0.1 -0.1)">
       <use xlink:href="#DejaVuSerif-8722"/>
       <use x="83.789062" xlink:href="#DejaVuSerif-48"/>
       <use x="147.412109" xlink:href="#DejaVuSerif-46"/>
       <use x="179.199219" xlink:href="#DejaVuSerif-50"/>
       <use x="242.822266" xlink:href="#DejaVuSerif-48"/>
      </g>
     </g>
    </g>
    <g id="ytick_6">
     <g id="line2d_12">
      <g>
       <use style="stroke:#000000;stroke-width:0.8;" x="57.6" xlink:href="#m6516dd3046" y="146.973613"/>
      </g>
     </g>
     <g id="text_13">
      <!-- −0.15 -->
      <g transform="translate(19.954687 150.772832)scale(0.1 -0.1)">
       <use xlink:href="#DejaVuSerif-8722"/>
       <use x="83.789062" xlink:href="#DejaVuSerif-48"/>
       <use x="147.412109" xlink:href="#DejaVuSerif-46"/>
       <use x="179.199219" xlink:href="#DejaVuSerif-49"/>
       <use x="242.822266" xlink:href="#DejaVuSerif-53"/>
      </g>
     </g>
    </g>
    <g id="ytick_7">
     <g id="line2d_13">
      <g>
       <use style="stroke:#000000;stroke-width:0.8;" x="57.6" xlink:href="#m6516dd3046" y="117.270735"/>
      </g>
     </g>
     <g id="text_14">
      <!-- −0.10 -->
      <g transform="translate(19.954687 121.069954)scale(0.1 -0.1)">
       <use xlink:href="#DejaVuSerif-8722"/>
       <use x="83.789062" xlink:href="#DejaVuSerif-48"/>
       <use x="147.412109" xlink:href="#DejaVuSerif-46"/>
       <use x="179.199219" xlink:href="#DejaVuSerif-49"/>
       <use x="242.822266" xlink:href="#DejaVuSerif-48"/>
      </g>
     </g>
    </g>
    <g id="ytick_8">
     <g id="line2d_14">
      <g>
       <use style="stroke:#000000;stroke-width:0.8;" x="57.6" xlink:href="#m6516dd3046" y="87.567858"/>
      </g>
     </g>
     <g id="text_15">
      <!-- −0.05 -->
      <g transform="translate(19.954687 91.367077)scale(0.1 -0.1)">
       <use xlink:href="#DejaVuSerif-8722"/>
       <use x="83.789062" xlink:href="#DejaVuSerif-48"/>
       <use x="147.412109" xlink:href="#DejaVuSerif-46"/>
       <use x="179.199219" xlink:href="#DejaVuSerif-48"/>
       <use x="242.822266" xlink:href="#DejaVuSerif-53"/>
      </g>
     </g>
    </g>
    <g id="ytick_9">
     <g id="line2d_15">
      <g>
       <use style="stroke:#000000;stroke-width:0.8;" x="57.6" xlink:href="#m6516dd3046" y="57.86498"/>
      </g>
     </g>
     <g id="text_16">
      <!-- 0.00 -->
      <g transform="translate(28.334375 61.664199)scale(0.1 -0.1)">
       <use xlink:href="#DejaVuSerif-48"/>
       <use x="63.623047" xlink:href="#DejaVuSerif-46"/>
       <use x="95.410156" xlink:href="#DejaVuSerif-48"/>
       <use x="159.033203" xlink:href="#DejaVuSerif-48"/>
      </g>
     </g>
    </g>
    <g id="text_17">
     <!-- Speed -->
     <g transform="translate(13.875 190.273313)rotate(-90)scale(0.1 -0.1)">
      <defs>
       <path d="M 9.28125 3.515625 
L 9.28125 20.125 
L 14.890625 20.0625 
Q 15.140625 11.765625 19.703125 7.78125 
Q 24.265625 3.8125 33.59375 3.8125 
Q 42.28125 3.8125 46.84375 7.25 
Q 51.421875 10.6875 51.421875 17.28125 
Q 51.421875 22.5625 48.65625 25.390625 
Q 45.90625 28.21875 37.015625 30.90625 
L 27.390625 33.796875 
Q 16.9375 36.96875 12.671875 41.703125 
Q 8.40625 46.4375 8.40625 54.6875 
Q 8.40625 63.96875 14.984375 69.09375 
Q 21.578125 74.21875 33.5 74.21875 
Q 38.578125 74.21875 44.625 73.109375 
Q 50.6875 72.015625 57.515625 69.921875 
L 57.515625 54.390625 
L 52 54.390625 
Q 51.171875 62.109375 46.84375 65.546875 
Q 42.53125 69 33.6875 69 
Q 25.984375 69 21.953125 65.84375 
Q 17.921875 62.703125 17.921875 56.6875 
Q 17.921875 51.46875 20.9375 48.484375 
Q 23.96875 45.515625 33.796875 42.578125 
L 42.828125 39.890625 
Q 52.734375 36.921875 56.953125 32.296875 
Q 61.1875 27.6875 61.1875 19.921875 
Q 61.1875 9.328125 54.390625 3.953125 
Q 47.609375 -1.421875 34.1875 -1.421875 
Q 28.171875 -1.421875 21.9375 -0.1875 
Q 15.71875 1.03125 9.28125 3.515625 
z
" id="DejaVuSerif-83"/>
       <path d="M 20.515625 28.515625 
L 20.515625 23.390625 
Q 20.515625 14.015625 24.09375 9.109375 
Q 27.6875 4.203125 34.515625 4.203125 
Q 41.40625 4.203125 44.9375 9.71875 
Q 48.484375 15.234375 48.484375 25.984375 
Q 48.484375 36.765625 44.9375 42.234375 
Q 41.40625 47.703125 34.515625 47.703125 
Q 27.6875 47.703125 24.09375 42.765625 
Q 20.515625 37.84375 20.515625 28.515625 
z
M 11.53125 46.6875 
L 2.875 46.6875 
L 2.875 51.90625 
L 20.515625 51.90625 
L 20.515625 43.796875 
Q 23.140625 48.6875 27.21875 51 
Q 31.296875 53.328125 37.3125 53.328125 
Q 46.875 53.328125 52.921875 45.75 
Q 58.984375 38.1875 58.984375 25.984375 
Q 58.984375 13.765625 52.921875 6.171875 
Q 46.875 -1.421875 37.3125 -1.421875 
Q 31.296875 -1.421875 27.21875 0.890625 
Q 23.140625 3.21875 20.515625 8.109375 
L 20.515625 -15.578125 
L 29 -15.578125 
L 29 -20.796875 
L 2.875 -20.796875 
L 2.875 -15.578125 
L 11.53125 -15.578125 
z
" id="DejaVuSerif-112"/>
       <path d="M 52.484375 5.171875 
L 61.078125 5.171875 
L 61.078125 0 
L 43.5 0 
L 43.5 8.109375 
Q 40.875 3.21875 36.796875 0.890625 
Q 32.71875 -1.421875 26.703125 -1.421875 
Q 17.140625 -1.421875 11.0625 6.171875 
Q 4.984375 13.765625 4.984375 25.984375 
Q 4.984375 38.1875 11.03125 45.75 
Q 17.09375 53.328125 26.703125 53.328125 
Q 32.71875 53.328125 36.796875 51 
Q 40.875 48.6875 43.5 43.796875 
L 43.5 70.796875 
L 35.015625 70.796875 
L 35.015625 75.984375 
L 52.484375 75.984375 
z
M 43.5 23.390625 
L 43.5 28.515625 
Q 43.5 37.84375 39.90625 42.765625 
Q 36.328125 47.703125 29.5 47.703125 
Q 22.5625 47.703125 19.015625 42.234375 
Q 15.484375 36.765625 15.484375 25.984375 
Q 15.484375 15.234375 19.015625 9.71875 
Q 22.5625 4.203125 29.5 4.203125 
Q 36.328125 4.203125 39.90625 9.109375 
Q 43.5 14.015625 43.5 23.390625 
z
" id="DejaVuSerif-100"/>
      </defs>
      <use xlink:href="#DejaVuSerif-83"/>
      <use x="68.505859" xlink:href="#DejaVuSerif-112"/>
      <use x="132.519531" xlink:href="#DejaVuSerif-101"/>
      <use x="191.699219" xlink:href="#DejaVuSerif-101"/>
      <use x="250.878906" xlink:href="#DejaVuSerif-100"/>
     </g>
    </g>
   </g>
   <g id="line2d_16">
    <path clip-path="url(#p9095934f36)" d="M 73.832727 57.86498 
L 74.080113 57.86498 
L 74.200551 295.488 
L 74.526058 57.86498 
L 75.134757 57.86498 
L 75.219389 176.67649 
L 75.25845 165.875444 
L 75.421203 165.875444 
L 75.544896 156.874572 
L 75.623018 156.874572 
L 75.665334 149.25845 
L 75.785772 57.86498 
L 76.641856 57.86498 
L 76.762294 123.871375 
L 76.846926 123.871375 
L 76.967363 120.397354 
L 77.04874 120.397354 
L 77.172433 117.270735 
L 77.250555 117.270735 
L 77.374248 114.44189 
L 77.455624 114.44189 
L 77.537001 111.870212 
L 77.660694 57.86498 
L 78.715338 57.86498 
L 78.839031 100.297663 
L 78.878092 100.297663 
L 79.001784 98.834467 
L 79.083161 98.834467 
L 79.203599 97.468817 
L 79.288231 97.468817 
L 79.408669 96.191274 
L 79.490045 96.191274 
L 79.613738 94.993577 
L 79.69186 94.993577 
L 79.815553 93.868468 
L 79.89693 93.868468 
L 80.017367 92.809542 
L 80.101999 92.809542 
L 80.14106 91.811126 
L 80.264753 57.86498 
L 81.605843 57.86498 
L 81.729536 86.153435 
L 81.849974 85.495564 
L 81.931351 85.495564 
L 82.055044 84.867596 
L 82.133165 84.867596 
L 82.256858 84.267538 
L 82.338235 84.267538 
L 82.458673 83.69357 
L 82.543305 83.69357 
L 82.663742 83.144025 
L 82.745119 83.144025 
L 82.868812 82.617378 
L 82.946934 82.617378 
L 83.070627 82.112227 
L 83.152003 82.112227 
L 83.272441 81.627282 
L 83.357073 81.627282 
L 83.477511 81.161355 
L 83.558888 81.161355 
L 83.68258 80.713348 
L 83.721641 80.713348 
L 83.845334 57.86498 
L 85.674686 57.86498 
L 85.798378 77.028127 
L 85.918816 76.72395 
L 86.000193 76.72395 
L 86.123886 76.429279 
L 86.202008 76.429279 
L 86.3257 76.143674 
L 86.407077 76.143674 
L 86.527515 75.866724 
L 86.612147 75.866724 
L 86.732585 75.598042 
L 86.813961 75.598042 
L 86.937654 75.337261 
L 87.015776 75.337261 
L 87.139469 75.08404 
L 87.220846 75.08404 
L 87.341283 74.838053 
L 87.425915 74.838053 
L 87.546353 74.598996 
L 87.62773 74.598996 
L 87.751423 74.366579 
L 87.829544 74.366579 
L 87.953237 74.14053 
L 88.034614 74.14053 
L 88.155052 73.92059 
L 88.239684 73.92059 
L 88.360121 73.706515 
L 88.441498 73.706515 
L 88.565191 73.498074 
L 88.643313 73.498074 
L 88.767006 73.295047 
L 88.806067 73.295047 
L 88.929759 57.86498 
L 91.940703 57.86498 
L 92.06114 70.640412 
L 92.103456 70.640412 
L 92.223894 70.504503 
L 92.308526 70.504503 
L 92.428964 70.371455 
L 92.51034 70.371455 
L 92.634033 70.241179 
L 92.712155 70.241179 
L 92.835848 70.11359 
L 92.917225 70.11359 
L 93.037662 69.988604 
L 93.122294 69.988604 
L 93.242732 69.866143 
L 93.324109 69.866143 
L 93.447802 69.746131 
L 93.525923 69.746131 
L 93.649616 69.628496 
L 93.730993 69.628496 
L 93.851431 69.513168 
L 93.936063 69.513168 
L 94.0565 69.400078 
L 94.339692 69.289164 
L 94.463385 69.180362 
L 94.749831 69.073613 
L 94.870269 68.96886 
L 95.15346 68.866046 
L 95.316214 68.765119 
L 95.5636 68.666027 
L 95.684037 68.56872 
L 95.967229 68.473151 
L 96.129982 68.379273 
L 96.377368 68.287043 
L 96.497806 68.196416 
L 96.660559 68.107352 
L 96.780997 57.86498 
L 104.63549 57.86498 
L 104.716867 65.530239 
L 104.755928 65.481103 
L 105.328821 65.384696 
L 105.491575 65.337402 
L 105.93752 65.244577 
L 106.100273 65.199024 
L 106.546218 65.109585 
L 106.708972 65.065678 
L 107.158172 64.979442 
L 107.320926 64.937094 
L 107.770126 64.853893 
L 107.93288 64.813022 
L 108.378825 64.732698 
L 108.622955 64.65421 
L 109.192593 64.577495 
L 109.436724 64.502495 
L 110.211431 64.393085 
L 110.452307 64.322128 
L 111.227014 64.218537 
L 111.471145 64.151304 
L 112.242597 64.05308 
L 112.489983 63.989285 
L 112.529044 63.989285 
L 112.652737 57.86498 
L 137.674489 57.86498 
L 137.794926 54.128769 
L 139.70891 54.231601 
L 140.197171 54.264632 
L 142.35203 54.370524 
L 142.924923 54.401088 
L 145.203474 54.508723 
L 145.769857 54.536927 
L 148.253478 54.645156 
L 148.946809 54.679685 
L 151.713622 54.786962 
L 152.403697 54.818531 
L 153.82942 54.872247 
L 153.949857 57.86498 
L 164.528847 57.86498 
L 164.649285 55.224725 
L 168.597689 55.331686 
L 169.694649 55.363686 
L 174.294068 55.474407 
L 175.553782 55.507609 
L 180.599146 55.614762 
L 181.985808 55.644205 
L 185.524073 55.71649 
L 185.644511 53.568 
L 187.39574 53.636813 
L 187.519433 55.750897 
L 188.984216 55.780568 
L 195.657117 55.891367 
L 197.323715 55.920439 
L 204.849446 56.03147 
L 204.973138 54.197959 
L 209.081041 54.30775 
L 210.220317 54.339416 
L 213.638145 54.426152 
L 213.761838 56.145566 
L 215.916696 56.172509 
L 223.445682 56.257247 
L 223.527059 54.649513 
L 223.56612 54.653859 
L 229.021623 54.762852 
L 230.362714 54.790944 
L 236.14047 54.898401 
L 237.72569 54.927737 
L 237.810322 54.931363 
L 237.93076 56.398172 
L 241.716411 56.43179 
L 241.836849 54.998599 
L 243.545762 55.029384 
L 250.583232 55.139946 
L 252.497215 55.170842 
L 259.739754 55.273672 
L 259.860192 53.982251 
L 261.041784 54.007464 
L 261.162221 55.293303 
L 263.278019 55.323558 
L 271.946281 55.43281 
L 274.306209 55.462321 
L 277.684976 55.502923 
L 277.805414 54.321894 
L 283.869616 54.424493 
L 283.990054 55.573534 
L 294.731797 55.682951 
L 295.587881 55.692924 
L 295.708319 54.606895 
L 303.47818 54.716266 
L 305.593978 54.746568 
L 306.407747 54.757443 
L 306.531439 55.793289 
L 309.500067 55.820032 
L 313.406155 55.852931 
L 313.529848 54.84946 
L 322.806808 54.960054 
L 325.08536 54.988188 
L 328.828695 55.029384 
L 328.952387 55.976085 
L 331.230939 55.992459 
L 331.351377 55.056198 
L 334.036813 55.086847 
L 344.98037 55.197057 
L 347.952253 55.226679 
L 349.049213 55.236407 
L 349.172905 54.362799 
L 351.207327 54.388418 
L 351.327764 55.259465 
L 363.697045 55.36894 
L 366.831681 55.396597 
L 366.952118 54.573803 
L 369.556177 54.603168 
L 373.504582 54.647336 
L 373.625019 55.451747 
L 384.614148 55.536865 
L 384.734586 54.762852 
L 395.759521 54.868473 
L 395.883214 55.619016 
L 398.487273 55.635871 
L 398.487273 55.635871 
" style="fill:none;stroke:#1f77b4;stroke-linecap:square;stroke-width:1.5;"/>
   </g>
   <g id="patch_3">
    <path d="M 57.6 307.584 
L 57.6 41.472 
" style="fill:none;stroke:#000000;stroke-linecap:square;stroke-linejoin:miter;stroke-width:0.8;"/>
   </g>
   <g id="patch_4">
    <path d="M 414.72 307.584 
L 414.72 41.472 
" style="fill:none;stroke:#000000;stroke-linecap:square;stroke-linejoin:miter;stroke-width:0.8;"/>
   </g>
   <g id="patch_5">
    <path d="M 57.6 307.584 
L 414.72 307.584 
" style="fill:none;stroke:#000000;stroke-linecap:square;stroke-linejoin:miter;stroke-width:0.8;"/>
   </g>
   <g id="patch_6">
    <path d="M 57.6 41.472 
L 414.72 41.472 
" style="fill:none;stroke:#000000;stroke-linecap:square;stroke-linejoin:miter;stroke-width:0.8;"/>
   </g>
   <g id="text_18">
    <!-- Speed function of time -->
    <g transform="translate(167.024063 35.472)scale(0.12 -0.12)">
     <defs>
      <path id="DejaVuSerif-32"/>
      <path d="M 43.015625 63.71875 
L 38.28125 63.71875 
Q 38.234375 67.390625 36.203125 69.28125 
Q 34.1875 71.1875 30.328125 71.1875 
Q 25.296875 71.1875 23.234375 68.421875 
Q 21.1875 65.671875 21.1875 58.59375 
L 21.1875 51.90625 
L 35.6875 51.90625 
L 35.6875 46.6875 
L 21.1875 46.6875 
L 21.1875 5.171875 
L 32.71875 5.171875 
L 32.71875 0 
L 3.609375 0 
L 3.609375 5.171875 
L 12.203125 5.171875 
L 12.203125 46.6875 
L 3.609375 46.6875 
L 3.609375 51.90625 
L 12.203125 51.90625 
L 12.203125 58.40625 
Q 12.203125 67.09375 16.71875 71.53125 
Q 21.234375 75.984375 29.984375 75.984375 
Q 33.25 75.984375 36.515625 75.390625 
Q 39.796875 74.8125 43.015625 73.578125 
z
" id="DejaVuSerif-102"/>
      <path d="M 35.40625 51.90625 
L 52.203125 51.90625 
L 52.203125 5.171875 
L 60.6875 5.171875 
L 60.6875 0 
L 43.21875 0 
L 43.21875 9.1875 
Q 40.71875 4 36.765625 1.28125 
Q 32.8125 -1.421875 27.59375 -1.421875 
Q 18.953125 -1.421875 14.875 3.484375 
Q 10.796875 8.40625 10.796875 18.890625 
L 10.796875 46.6875 
L 2.6875 46.6875 
L 2.6875 51.90625 
L 19.828125 51.90625 
L 19.828125 21.6875 
Q 19.828125 12.203125 22.140625 8.6875 
Q 24.46875 5.171875 30.421875 5.171875 
Q 36.671875 5.171875 39.9375 9.765625 
Q 43.21875 14.359375 43.21875 23.09375 
L 43.21875 46.6875 
L 35.40625 46.6875 
z
" id="DejaVuSerif-117"/>
      <path d="M 4.109375 0 
L 4.109375 5.171875 
L 12.203125 5.171875 
L 12.203125 46.6875 
L 3.609375 46.6875 
L 3.609375 51.90625 
L 21.1875 51.90625 
L 21.1875 42.671875 
Q 23.6875 47.953125 27.65625 50.640625 
Q 31.640625 53.328125 36.921875 53.328125 
Q 45.515625 53.328125 49.5625 48.390625 
Q 53.609375 43.453125 53.609375 33.015625 
L 53.609375 5.171875 
L 61.625 5.171875 
L 61.625 0 
L 36.8125 0 
L 36.8125 5.171875 
L 44.578125 5.171875 
L 44.578125 30.171875 
Q 44.578125 39.703125 42.234375 43.234375 
Q 39.890625 46.78125 33.984375 46.78125 
Q 27.734375 46.78125 24.453125 42.203125 
Q 21.1875 37.640625 21.1875 28.90625 
L 21.1875 5.171875 
L 29 5.171875 
L 29 0 
z
" id="DejaVuSerif-110"/>
      <path d="M 51.421875 15.578125 
Q 49.515625 7.28125 44.09375 2.921875 
Q 38.671875 -1.421875 30.078125 -1.421875 
Q 18.75 -1.421875 11.859375 6.078125 
Q 4.984375 13.578125 4.984375 25.984375 
Q 4.984375 38.421875 11.859375 45.875 
Q 18.75 53.328125 30.078125 53.328125 
Q 35.015625 53.328125 39.890625 52.171875 
Q 44.78125 51.03125 49.703125 48.6875 
L 49.703125 35.40625 
L 44.484375 35.40625 
Q 43.453125 42.234375 40.015625 45.359375 
Q 36.578125 48.484375 30.171875 48.484375 
Q 22.90625 48.484375 19.1875 42.84375 
Q 15.484375 37.203125 15.484375 25.984375 
Q 15.484375 14.75 19.171875 9.078125 
Q 22.859375 3.421875 30.171875 3.421875 
Q 35.984375 3.421875 39.453125 6.4375 
Q 42.921875 9.46875 44.1875 15.578125 
z
" id="DejaVuSerif-99"/>
      <path d="M 10.796875 46.6875 
L 2.875 46.6875 
L 2.875 51.90625 
L 10.796875 51.90625 
L 10.796875 68.015625 
L 19.828125 68.015625 
L 19.828125 51.90625 
L 36.71875 51.90625 
L 36.71875 46.6875 
L 19.828125 46.6875 
L 19.828125 13.71875 
Q 19.828125 7.125 21.09375 5.265625 
Q 22.359375 3.421875 25.78125 3.421875 
Q 29.296875 3.421875 30.90625 5.484375 
Q 32.515625 7.5625 32.625 12.203125 
L 39.40625 12.203125 
Q 39.015625 5.125 35.546875 1.84375 
Q 32.078125 -1.421875 25 -1.421875 
Q 17.234375 -1.421875 14.015625 2.015625 
Q 10.796875 5.46875 10.796875 13.71875 
z
" id="DejaVuSerif-116"/>
      <path d="M 30.078125 3.421875 
Q 37.3125 3.421875 40.984375 9.125 
Q 44.671875 14.84375 44.671875 25.984375 
Q 44.671875 37.109375 40.984375 42.796875 
Q 37.3125 48.484375 30.078125 48.484375 
Q 22.859375 48.484375 19.171875 42.796875 
Q 15.484375 37.109375 15.484375 25.984375 
Q 15.484375 14.84375 19.1875 9.125 
Q 22.90625 3.421875 30.078125 3.421875 
z
M 30.078125 -1.421875 
Q 18.75 -1.421875 11.859375 6.078125 
Q 4.984375 13.578125 4.984375 25.984375 
Q 4.984375 38.375 11.84375 45.84375 
Q 18.703125 53.328125 30.078125 53.328125 
Q 41.453125 53.328125 48.3125 45.84375 
Q 55.171875 38.375 55.171875 25.984375 
Q 55.171875 13.578125 48.3125 6.078125 
Q 41.453125 -1.421875 30.078125 -1.421875 
z
" id="DejaVuSerif-111"/>
     </defs>
     <use xlink:href="#DejaVuSerif-83"/>
     <use x="68.505859" xlink:href="#DejaVuSerif-112"/>
     <use x="132.519531" xlink:href="#DejaVuSerif-101"/>
     <use x="191.699219" xlink:href="#DejaVuSerif-101"/>
     <use x="250.878906" xlink:href="#DejaVuSerif-100"/>
     <use x="314.892578" xlink:href="#DejaVuSerif-32"/>
     <use x="346.679688" xlink:href="#DejaVuSerif-102"/>
     <use x="383.691406" xlink:href="#DejaVuSerif-117"/>
     <use x="448.095703" xlink:href="#DejaVuSerif-110"/>
     <use x="512.5" xlink:href="#DejaVuSerif-99"/>
     <use x="568.505859" xlink:href="#DejaVuSerif-116"/>
     <use x="608.691406" xlink:href="#DejaVuSerif-105"/>
     <use x="640.673828" xlink:href="#DejaVuSerif-111"/>
     <use x="700.878906" xlink:href="#DejaVuSerif-110"/>
     <use x="765.283203" xlink:href="#DejaVuSerif-32"/>
     <use x="797.070312" xlink:href="#DejaVuSerif-111"/>
     <use x="857.275391" xlink:href="#DejaVuSerif-102"/>
     <use x="894.287109" xlink:href="#DejaVuSerif-32"/>
     <use x="926.074219" xlink:href="#DejaVuSerif-116"/>
     <use x="966.259766" xlink:href="#DejaVuSerif-105"/>
     <use x="998.242188" xlink:href="#DejaVuSerif-109"/>
     <use x="1093.066406" xlink:href="#DejaVuSerif-101"/>
    </g>
   </g>
  </g>
 </g>
 <defs>
  <clipPath id="p9095934f36">
   <rect height="266.112" width="357.12" x="57.6" y="41.472"/>
  </clipPath>
 </defs>
</svg>
