<?xml version="1.0" encoding="utf-8" standalone="no"?>
<!DOCTYPE svg PUBLIC "-//W3C//DTD SVG 1.1//EN"
  "http://www.w3.org/Graphics/SVG/1.1/DTD/svg11.dtd">
<!-- Created with matplotlib (https://matplotlib.org/) -->
<svg height="345.6pt" version="1.1" viewBox="0 0 460.8 345.6" width="460.8pt" xmlns="http://www.w3.org/2000/svg" xmlns:xlink="http://www.w3.org/1999/xlink">
 <metadata>
  <rdf:RDF xmlns:cc="http://creativecommons.org/ns#" xmlns:dc="http://purl.org/dc/elements/1.1/" xmlns:rdf="http://www.w3.org/1999/02/22-rdf-syntax-ns#">
   <cc:Work>
    <dc:type rdf:resource="http://purl.org/dc/dcmitype/StillImage"/>
    <dc:date>2023-01-04T14:11:49.256757</dc:date>
    <dc:format>image/svg+xml</dc:format>
    <dc:creator>
     <cc:Agent>
      <dc:title>Matplotlib v3.3.4, https://matplotlib.org/</dc:title>
     </cc:Agent>
    </dc:creator>
   </cc:Work>
  </rdf:RDF>
 </metadata>
 <defs>
  <style type="text/css">*{stroke-linecap:butt;stroke-linejoin:round;}</style>
 </defs>
 <g id="figure_1">
  <g id="patch_1">
   <path d="M 0 345.6 
L 460.8 345.6 
L 460.8 0 
L 0 0 
z
" style="fill:#ffffff;"/>
  </g>
  <g id="axes_1">
   <g id="patch_2">
    <path d="M 57.6 307.584 
L 414.72 307.584 
L 414.72 41.472 
L 57.6 41.472 
z
" style="fill:#ffffff;"/>
   </g>
   <g id="matplotlib.axis_1">
    <g id="xtick_1">
     <g id="line2d_1">
      <defs>
       <path d="M 0 0 
L 0 3.5 
" id="mbef779eb1a" style="stroke:#000000;stroke-width:0.8;"/>
      </defs>
      <g>
       <use style="stroke:#000000;stroke-width:0.8;" x="62.927019" xlink:href="#mbef779eb1a" y="307.584"/>
      </g>
     </g>
     <g id="text_1">
      <!-- 600 -->
      <g transform="translate(53.383269 322.182437)scale(0.1 -0.1)">
       <defs>
        <path d="M 32.71875 3.421875 
Q 39.59375 3.421875 43.296875 8.46875 
Q 47.015625 13.53125 47.015625 23 
Q 47.015625 32.46875 43.296875 37.515625 
Q 39.59375 42.578125 32.71875 42.578125 
Q 25.734375 42.578125 22.0625 37.6875 
Q 18.40625 32.8125 18.40625 23.578125 
Q 18.40625 13.875 22.109375 8.640625 
Q 25.828125 3.421875 32.71875 3.421875 
z
M 16.796875 40.140625 
Q 20.125 43.796875 24.3125 45.59375 
Q 28.515625 47.40625 33.796875 47.40625 
Q 44.671875 47.40625 51 40.859375 
Q 57.328125 34.328125 57.328125 23 
Q 57.328125 11.921875 50.515625 5.25 
Q 43.703125 -1.421875 32.328125 -1.421875 
Q 19.96875 -1.421875 13.328125 7.78125 
Q 6.6875 17 6.6875 34.078125 
Q 6.6875 53.21875 14.546875 63.71875 
Q 22.40625 74.21875 36.71875 74.21875 
Q 40.578125 74.21875 44.828125 73.484375 
Q 49.078125 72.75 53.515625 71.296875 
L 53.515625 59.28125 
L 48 59.28125 
Q 47.40625 64.203125 44.234375 66.796875 
Q 41.0625 69.390625 35.6875 69.390625 
Q 26.21875 69.390625 21.578125 62.203125 
Q 16.9375 55.03125 16.796875 40.140625 
z
" id="DejaVuSerif-54"/>
        <path d="M 31.78125 3.421875 
Q 39.265625 3.421875 42.96875 11.625 
Q 46.6875 19.828125 46.6875 36.375 
Q 46.6875 52.984375 42.96875 61.1875 
Q 39.265625 69.390625 31.78125 69.390625 
Q 24.3125 69.390625 20.59375 61.1875 
Q 16.890625 52.984375 16.890625 36.375 
Q 16.890625 19.828125 20.59375 11.625 
Q 24.3125 3.421875 31.78125 3.421875 
z
M 31.78125 -1.421875 
Q 19.921875 -1.421875 13.25 8.53125 
Q 6.59375 18.5 6.59375 36.375 
Q 6.59375 54.296875 13.25 64.25 
Q 19.921875 74.21875 31.78125 74.21875 
Q 43.703125 74.21875 50.34375 64.25 
Q 56.984375 54.296875 56.984375 36.375 
Q 56.984375 18.5 50.34375 8.53125 
Q 43.703125 -1.421875 31.78125 -1.421875 
z
" id="DejaVuSerif-48"/>
       </defs>
       <use xlink:href="#DejaVuSerif-54"/>
       <use x="63.623047" xlink:href="#DejaVuSerif-48"/>
       <use x="127.246094" xlink:href="#DejaVuSerif-48"/>
      </g>
     </g>
    </g>
    <g id="xtick_2">
     <g id="line2d_2">
      <g>
       <use style="stroke:#000000;stroke-width:0.8;" x="104.872051" xlink:href="#mbef779eb1a" y="307.584"/>
      </g>
     </g>
     <g id="text_2">
      <!-- 650 -->
      <g transform="translate(95.328301 322.182437)scale(0.1 -0.1)">
       <defs>
        <path d="M 50.296875 72.90625 
L 50.296875 64.890625 
L 16.890625 64.890625 
L 16.890625 44 
Q 19.4375 45.75 22.828125 46.625 
Q 26.21875 47.515625 30.421875 47.515625 
Q 42.234375 47.515625 49.0625 40.96875 
Q 55.90625 34.421875 55.90625 23.09375 
Q 55.90625 11.53125 49 5.046875 
Q 42.09375 -1.421875 29.59375 -1.421875 
Q 24.5625 -1.421875 19.28125 -0.1875 
Q 14.015625 1.03125 8.5 3.515625 
L 8.5 17.671875 
L 14.015625 17.671875 
Q 14.453125 10.75 18.421875 7.078125 
Q 22.40625 3.421875 29.59375 3.421875 
Q 37.3125 3.421875 41.453125 8.5 
Q 45.609375 13.578125 45.609375 23.09375 
Q 45.609375 32.5625 41.484375 37.609375 
Q 37.359375 42.671875 29.59375 42.671875 
Q 25.203125 42.671875 21.84375 41.109375 
Q 18.5 39.546875 15.921875 36.28125 
L 11.71875 36.28125 
L 11.71875 72.90625 
z
" id="DejaVuSerif-53"/>
       </defs>
       <use xlink:href="#DejaVuSerif-54"/>
       <use x="63.623047" xlink:href="#DejaVuSerif-53"/>
       <use x="127.246094" xlink:href="#DejaVuSerif-48"/>
      </g>
     </g>
    </g>
    <g id="xtick_3">
     <g id="line2d_3">
      <g>
       <use style="stroke:#000000;stroke-width:0.8;" x="146.817082" xlink:href="#mbef779eb1a" y="307.584"/>
      </g>
     </g>
     <g id="text_3">
      <!-- 700 -->
      <g transform="translate(137.273332 322.182437)scale(0.1 -0.1)">
       <defs>
        <path d="M 56.390625 67.921875 
L 27.875 0 
L 20.609375 0 
L 47.796875 64.890625 
L 14.109375 64.890625 
L 14.109375 55.90625 
L 8.40625 55.90625 
L 8.40625 72.90625 
L 56.390625 72.90625 
z
" id="DejaVuSerif-55"/>
       </defs>
       <use xlink:href="#DejaVuSerif-55"/>
       <use x="63.623047" xlink:href="#DejaVuSerif-48"/>
       <use x="127.246094" xlink:href="#DejaVuSerif-48"/>
      </g>
     </g>
    </g>
    <g id="xtick_4">
     <g id="line2d_4">
      <g>
       <use style="stroke:#000000;stroke-width:0.8;" x="188.762114" xlink:href="#mbef779eb1a" y="307.584"/>
      </g>
     </g>
     <g id="text_4">
      <!-- 750 -->
      <g transform="translate(179.218364 322.182437)scale(0.1 -0.1)">
       <use xlink:href="#DejaVuSerif-55"/>
       <use x="63.623047" xlink:href="#DejaVuSerif-53"/>
       <use x="127.246094" xlink:href="#DejaVuSerif-48"/>
      </g>
     </g>
    </g>
    <g id="xtick_5">
     <g id="line2d_5">
      <g>
       <use style="stroke:#000000;stroke-width:0.8;" x="230.707146" xlink:href="#mbef779eb1a" y="307.584"/>
      </g>
     </g>
     <g id="text_5">
      <!-- 800 -->
      <g transform="translate(221.163396 322.182437)scale(0.1 -0.1)">
       <defs>
        <path d="M 46.578125 19.921875 
Q 46.578125 27.734375 42.6875 32.046875 
Q 38.8125 36.375 31.78125 36.375 
Q 24.75 36.375 20.875 32.046875 
Q 17 27.734375 17 19.921875 
Q 17 12.0625 20.875 7.734375 
Q 24.75 3.421875 31.78125 3.421875 
Q 38.8125 3.421875 42.6875 7.734375 
Q 46.578125 12.0625 46.578125 19.921875 
z
M 44.578125 55.328125 
Q 44.578125 61.96875 41.203125 65.671875 
Q 37.84375 69.390625 31.78125 69.390625 
Q 25.78125 69.390625 22.390625 65.671875 
Q 19 61.96875 19 55.328125 
Q 19 48.640625 22.390625 44.921875 
Q 25.78125 41.21875 31.78125 41.21875 
Q 37.84375 41.21875 41.203125 44.921875 
Q 44.578125 48.640625 44.578125 55.328125 
z
M 39.3125 38.8125 
Q 47.609375 37.703125 52.25 32.6875 
Q 56.890625 27.6875 56.890625 19.921875 
Q 56.890625 9.671875 50.390625 4.125 
Q 43.890625 -1.421875 31.78125 -1.421875 
Q 19.734375 -1.421875 13.203125 4.125 
Q 6.6875 9.671875 6.6875 19.921875 
Q 6.6875 27.6875 11.328125 32.6875 
Q 15.96875 37.703125 24.3125 38.8125 
Q 16.9375 40.140625 13 44.40625 
Q 9.078125 48.6875 9.078125 55.328125 
Q 9.078125 64.109375 15.125 69.15625 
Q 21.1875 74.21875 31.78125 74.21875 
Q 42.390625 74.21875 48.4375 69.15625 
Q 54.5 64.109375 54.5 55.328125 
Q 54.5 48.6875 50.5625 44.40625 
Q 46.625 40.140625 39.3125 38.8125 
z
" id="DejaVuSerif-56"/>
       </defs>
       <use xlink:href="#DejaVuSerif-56"/>
       <use x="63.623047" xlink:href="#DejaVuSerif-48"/>
       <use x="127.246094" xlink:href="#DejaVuSerif-48"/>
      </g>
     </g>
    </g>
    <g id="xtick_6">
     <g id="line2d_6">
      <g>
       <use style="stroke:#000000;stroke-width:0.8;" x="272.652178" xlink:href="#mbef779eb1a" y="307.584"/>
      </g>
     </g>
     <g id="text_6">
      <!-- 850 -->
      <g transform="translate(263.108428 322.182437)scale(0.1 -0.1)">
       <use xlink:href="#DejaVuSerif-56"/>
       <use x="63.623047" xlink:href="#DejaVuSerif-53"/>
       <use x="127.246094" xlink:href="#DejaVuSerif-48"/>
      </g>
     </g>
    </g>
    <g id="xtick_7">
     <g id="line2d_7">
      <g>
       <use style="stroke:#000000;stroke-width:0.8;" x="314.597209" xlink:href="#mbef779eb1a" y="307.584"/>
      </g>
     </g>
     <g id="text_7">
      <!-- 900 -->
      <g transform="translate(305.053459 322.182437)scale(0.1 -0.1)">
       <defs>
        <path d="M 46.78125 32.671875 
Q 43.5 29 39.25 27.1875 
Q 35.015625 25.390625 29.6875 25.390625 
Q 18.84375 25.390625 12.5625 31.9375 
Q 6.296875 38.484375 6.296875 49.8125 
Q 6.296875 60.890625 13.109375 67.546875 
Q 19.921875 74.21875 31.296875 74.21875 
Q 43.65625 74.21875 50.265625 65.015625 
Q 56.890625 55.8125 56.890625 38.71875 
Q 56.890625 19.578125 49.015625 9.078125 
Q 41.15625 -1.421875 26.90625 -1.421875 
Q 23.046875 -1.421875 18.796875 -0.6875 
Q 14.546875 0.046875 10.109375 1.515625 
L 10.109375 13.625 
L 15.578125 13.625 
Q 16.21875 8.6875 19.390625 6.046875 
Q 22.5625 3.421875 27.875 3.421875 
Q 37.359375 3.421875 41.984375 10.5625 
Q 46.625 17.71875 46.78125 32.671875 
z
M 30.90625 69.390625 
Q 23.96875 69.390625 20.28125 64.328125 
Q 16.609375 59.28125 16.609375 49.8125 
Q 16.609375 40.328125 20.28125 35.25 
Q 23.96875 30.171875 30.90625 30.171875 
Q 37.84375 30.171875 41.53125 35.078125 
Q 45.21875 39.984375 45.21875 49.21875 
Q 45.21875 58.9375 41.5 64.15625 
Q 37.796875 69.390625 30.90625 69.390625 
z
" id="DejaVuSerif-57"/>
       </defs>
       <use xlink:href="#DejaVuSerif-57"/>
       <use x="63.623047" xlink:href="#DejaVuSerif-48"/>
       <use x="127.246094" xlink:href="#DejaVuSerif-48"/>
      </g>
     </g>
    </g>
    <g id="xtick_8">
     <g id="line2d_8">
      <g>
       <use style="stroke:#000000;stroke-width:0.8;" x="356.542241" xlink:href="#mbef779eb1a" y="307.584"/>
      </g>
     </g>
     <g id="text_8">
      <!-- 950 -->
      <g transform="translate(346.998491 322.182437)scale(0.1 -0.1)">
       <use xlink:href="#DejaVuSerif-57"/>
       <use x="63.623047" xlink:href="#DejaVuSerif-53"/>
       <use x="127.246094" xlink:href="#DejaVuSerif-48"/>
      </g>
     </g>
    </g>
    <g id="xtick_9">
     <g id="line2d_9">
      <g>
       <use style="stroke:#000000;stroke-width:0.8;" x="398.487273" xlink:href="#mbef779eb1a" y="307.584"/>
      </g>
     </g>
     <g id="text_9">
      <!-- 1000 -->
      <g transform="translate(385.762273 322.182437)scale(0.1 -0.1)">
       <defs>
        <path d="M 14.203125 0 
L 14.203125 5.171875 
L 26.90625 5.171875 
L 26.90625 65.828125 
L 12.203125 56.296875 
L 12.203125 62.703125 
L 29.984375 74.21875 
L 36.71875 74.21875 
L 36.71875 5.171875 
L 49.421875 5.171875 
L 49.421875 0 
z
" id="DejaVuSerif-49"/>
       </defs>
       <use xlink:href="#DejaVuSerif-49"/>
       <use x="63.623047" xlink:href="#DejaVuSerif-48"/>
       <use x="127.246094" xlink:href="#DejaVuSerif-48"/>
       <use x="190.869141" xlink:href="#DejaVuSerif-48"/>
      </g>
     </g>
    </g>
    <g id="text_10">
     <!-- Time -->
     <g transform="translate(223.524844 335.860562)scale(0.1 -0.1)">
      <defs>
       <path d="M 19.09375 0 
L 19.09375 5.171875 
L 28.421875 5.171875 
L 28.421875 67.09375 
L 6.984375 67.09375 
L 6.984375 55.71875 
L 0.984375 55.71875 
L 0.984375 72.90625 
L 65.71875 72.90625 
L 65.71875 55.71875 
L 59.71875 55.71875 
L 59.71875 67.09375 
L 38.28125 67.09375 
L 38.28125 5.171875 
L 47.609375 5.171875 
L 47.609375 0 
z
" id="DejaVuSerif-84"/>
       <path d="M 9.71875 68.015625 
Q 9.71875 70.265625 11.34375 71.921875 
Q 12.984375 73.578125 15.28125 73.578125 
Q 17.53125 73.578125 19.15625 71.921875 
Q 20.796875 70.265625 20.796875 68.015625 
Q 20.796875 65.71875 19.1875 64.109375 
Q 17.578125 62.5 15.28125 62.5 
Q 12.984375 62.5 11.34375 64.109375 
Q 9.71875 65.71875 9.71875 68.015625 
z
M 21.1875 5.171875 
L 29.6875 5.171875 
L 29.6875 0 
L 3.609375 0 
L 3.609375 5.171875 
L 12.203125 5.171875 
L 12.203125 46.6875 
L 3.609375 46.6875 
L 3.609375 51.90625 
L 21.1875 51.90625 
z
" id="DejaVuSerif-105"/>
       <path d="M 51.8125 41.796875 
Q 54.390625 47.515625 58.421875 50.421875 
Q 62.453125 53.328125 67.828125 53.328125 
Q 75.984375 53.328125 79.984375 48.265625 
Q 83.984375 43.21875 83.984375 33.015625 
L 83.984375 5.171875 
L 92.09375 5.171875 
L 92.09375 0 
L 67.1875 0 
L 67.1875 5.171875 
L 75 5.171875 
L 75 31.984375 
Q 75 39.9375 72.65625 43.3125 
Q 70.3125 46.6875 64.890625 46.6875 
Q 58.890625 46.6875 55.734375 42.140625 
Q 52.59375 37.59375 52.59375 28.90625 
L 52.59375 5.171875 
L 60.40625 5.171875 
L 60.40625 0 
L 35.796875 0 
L 35.796875 5.171875 
L 43.609375 5.171875 
L 43.609375 32.328125 
Q 43.609375 40.09375 41.265625 43.390625 
Q 38.921875 46.6875 33.5 46.6875 
Q 27.484375 46.6875 24.328125 42.140625 
Q 21.1875 37.59375 21.1875 28.90625 
L 21.1875 5.171875 
L 29 5.171875 
L 29 0 
L 4.109375 0 
L 4.109375 5.171875 
L 12.203125 5.171875 
L 12.203125 46.78125 
L 3.609375 46.78125 
L 3.609375 51.90625 
L 21.1875 51.90625 
L 21.1875 42.671875 
Q 23.6875 47.859375 27.53125 50.59375 
Q 31.390625 53.328125 36.28125 53.328125 
Q 42.328125 53.328125 46.375 50.3125 
Q 50.4375 47.3125 51.8125 41.796875 
z
" id="DejaVuSerif-109"/>
       <path d="M 54.203125 25 
L 15.484375 25 
L 15.484375 24.609375 
Q 15.484375 14.109375 19.4375 8.765625 
Q 23.390625 3.421875 31.109375 3.421875 
Q 37.015625 3.421875 40.796875 6.515625 
Q 44.578125 9.625 46.09375 15.71875 
L 53.328125 15.71875 
Q 51.171875 7.171875 45.375 2.875 
Q 39.59375 -1.421875 30.171875 -1.421875 
Q 18.796875 -1.421875 11.890625 6.078125 
Q 4.984375 13.578125 4.984375 25.984375 
Q 4.984375 38.28125 11.765625 45.796875 
Q 18.5625 53.328125 29.59375 53.328125 
Q 41.359375 53.328125 47.65625 46.0625 
Q 53.953125 38.8125 54.203125 25 
z
M 43.609375 30.171875 
Q 43.3125 39.265625 39.765625 43.875 
Q 36.234375 48.484375 29.59375 48.484375 
Q 23.390625 48.484375 19.828125 43.84375 
Q 16.265625 39.203125 15.484375 30.171875 
z
" id="DejaVuSerif-101"/>
      </defs>
      <use xlink:href="#DejaVuSerif-84"/>
      <use x="66.699219" xlink:href="#DejaVuSerif-105"/>
      <use x="98.681641" xlink:href="#DejaVuSerif-109"/>
      <use x="193.505859" xlink:href="#DejaVuSerif-101"/>
     </g>
    </g>
   </g>
   <g id="matplotlib.axis_2">
    <g id="ytick_1">
     <g id="line2d_10">
      <defs>
       <path d="M 0 0 
L -3.5 0 
" id="mb95b9718be" style="stroke:#000000;stroke-width:0.8;"/>
      </defs>
      <g>
       <use style="stroke:#000000;stroke-width:0.8;" x="57.6" xlink:href="#mb95b9718be" y="295.488"/>
      </g>
     </g>
     <g id="text_11">
      <!-- 0.0 -->
      <g transform="translate(34.696875 299.287219)scale(0.1 -0.1)">
       <defs>
        <path d="M 9.421875 5.078125 
Q 9.421875 7.8125 11.28125 9.71875 
Q 13.140625 11.625 15.921875 11.625 
Q 18.609375 11.625 20.5 9.71875 
Q 22.40625 7.8125 22.40625 5.078125 
Q 22.40625 2.390625 20.5 0.484375 
Q 18.609375 -1.421875 15.921875 -1.421875 
Q 13.140625 -1.421875 11.28125 0.453125 
Q 9.421875 2.34375 9.421875 5.078125 
z
" id="DejaVuSerif-46"/>
       </defs>
       <use xlink:href="#DejaVuSerif-48"/>
       <use x="63.623047" xlink:href="#DejaVuSerif-46"/>
       <use x="95.410156" xlink:href="#DejaVuSerif-48"/>
      </g>
     </g>
    </g>
    <g id="ytick_2">
     <g id="line2d_11">
      <g>
       <use style="stroke:#000000;stroke-width:0.8;" x="57.6" xlink:href="#mb95b9718be" y="263.232"/>
      </g>
     </g>
     <g id="text_12">
      <!-- 0.2 -->
      <g transform="translate(34.696875 267.031219)scale(0.1 -0.1)">
       <defs>
        <path d="M 12.796875 55.515625 
L 7.328125 55.515625 
L 7.328125 68.5 
Q 12.546875 71.296875 17.84375 72.75 
Q 23.140625 74.21875 28.21875 74.21875 
Q 39.59375 74.21875 46.1875 68.703125 
Q 52.78125 63.1875 52.78125 53.71875 
Q 52.78125 43.015625 37.84375 28.125 
Q 36.671875 27 36.078125 26.421875 
L 17.671875 8.015625 
L 48.09375 8.015625 
L 48.09375 17 
L 53.8125 17 
L 53.8125 0 
L 6.78125 0 
L 6.78125 5.328125 
L 28.90625 27.390625 
Q 36.234375 34.71875 39.359375 40.84375 
Q 42.484375 46.96875 42.484375 53.71875 
Q 42.484375 61.078125 38.640625 65.234375 
Q 34.8125 69.390625 28.078125 69.390625 
Q 21.09375 69.390625 17.28125 65.921875 
Q 13.484375 62.453125 12.796875 55.515625 
z
" id="DejaVuSerif-50"/>
       </defs>
       <use xlink:href="#DejaVuSerif-48"/>
       <use x="63.623047" xlink:href="#DejaVuSerif-46"/>
       <use x="95.410156" xlink:href="#DejaVuSerif-50"/>
      </g>
     </g>
    </g>
    <g id="ytick_3">
     <g id="line2d_12">
      <g>
       <use style="stroke:#000000;stroke-width:0.8;" x="57.6" xlink:href="#mb95b9718be" y="230.976"/>
      </g>
     </g>
     <g id="text_13">
      <!-- 0.4 -->
      <g transform="translate(34.696875 234.775219)scale(0.1 -0.1)">
       <defs>
        <path d="M 34.90625 24.703125 
L 34.90625 63.484375 
L 10.015625 24.703125 
z
M 56.390625 0 
L 23.1875 0 
L 23.1875 5.171875 
L 34.90625 5.171875 
L 34.90625 19.484375 
L 3.078125 19.484375 
L 3.078125 24.8125 
L 35.015625 74.21875 
L 44.671875 74.21875 
L 44.671875 24.703125 
L 58.59375 24.703125 
L 58.59375 19.484375 
L 44.671875 19.484375 
L 44.671875 5.171875 
L 56.390625 5.171875 
z
" id="DejaVuSerif-52"/>
       </defs>
       <use xlink:href="#DejaVuSerif-48"/>
       <use x="63.623047" xlink:href="#DejaVuSerif-46"/>
       <use x="95.410156" xlink:href="#DejaVuSerif-52"/>
      </g>
     </g>
    </g>
    <g id="ytick_4">
     <g id="line2d_13">
      <g>
       <use style="stroke:#000000;stroke-width:0.8;" x="57.6" xlink:href="#mb95b9718be" y="198.72"/>
      </g>
     </g>
     <g id="text_14">
      <!-- 0.6 -->
      <g transform="translate(34.696875 202.519219)scale(0.1 -0.1)">
       <use xlink:href="#DejaVuSerif-48"/>
       <use x="63.623047" xlink:href="#DejaVuSerif-46"/>
       <use x="95.410156" xlink:href="#DejaVuSerif-54"/>
      </g>
     </g>
    </g>
    <g id="ytick_5">
     <g id="line2d_14">
      <g>
       <use style="stroke:#000000;stroke-width:0.8;" x="57.6" xlink:href="#mb95b9718be" y="166.464"/>
      </g>
     </g>
     <g id="text_15">
      <!-- 0.8 -->
      <g transform="translate(34.696875 170.263219)scale(0.1 -0.1)">
       <use xlink:href="#DejaVuSerif-48"/>
       <use x="63.623047" xlink:href="#DejaVuSerif-46"/>
       <use x="95.410156" xlink:href="#DejaVuSerif-56"/>
      </g>
     </g>
    </g>
    <g id="ytick_6">
     <g id="line2d_15">
      <g>
       <use style="stroke:#000000;stroke-width:0.8;" x="57.6" xlink:href="#mb95b9718be" y="134.208"/>
      </g>
     </g>
     <g id="text_16">
      <!-- 1.0 -->
      <g transform="translate(34.696875 138.007219)scale(0.1 -0.1)">
       <use xlink:href="#DejaVuSerif-49"/>
       <use x="63.623047" xlink:href="#DejaVuSerif-46"/>
       <use x="95.410156" xlink:href="#DejaVuSerif-48"/>
      </g>
     </g>
    </g>
    <g id="ytick_7">
     <g id="line2d_16">
      <g>
       <use style="stroke:#000000;stroke-width:0.8;" x="57.6" xlink:href="#mb95b9718be" y="101.952"/>
      </g>
     </g>
     <g id="text_17">
      <!-- 1.2 -->
      <g transform="translate(34.696875 105.751219)scale(0.1 -0.1)">
       <use xlink:href="#DejaVuSerif-49"/>
       <use x="63.623047" xlink:href="#DejaVuSerif-46"/>
       <use x="95.410156" xlink:href="#DejaVuSerif-50"/>
      </g>
     </g>
    </g>
    <g id="ytick_8">
     <g id="line2d_17">
      <g>
       <use style="stroke:#000000;stroke-width:0.8;" x="57.6" xlink:href="#mb95b9718be" y="69.696"/>
      </g>
     </g>
     <g id="text_18">
      <!-- 1.4 -->
      <g transform="translate(34.696875 73.495219)scale(0.1 -0.1)">
       <use xlink:href="#DejaVuSerif-49"/>
       <use x="63.623047" xlink:href="#DejaVuSerif-46"/>
       <use x="95.410156" xlink:href="#DejaVuSerif-52"/>
      </g>
     </g>
    </g>
    <g id="text_19">
     <!-- Speed -->
     <g transform="translate(28.617187 190.273313)rotate(-90)scale(0.1 -0.1)">
      <defs>
       <path d="M 9.28125 3.515625 
L 9.28125 20.125 
L 14.890625 20.0625 
Q 15.140625 11.765625 19.703125 7.78125 
Q 24.265625 3.8125 33.59375 3.8125 
Q 42.28125 3.8125 46.84375 7.25 
Q 51.421875 10.6875 51.421875 17.28125 
Q 51.421875 22.5625 48.65625 25.390625 
Q 45.90625 28.21875 37.015625 30.90625 
L 27.390625 33.796875 
Q 16.9375 36.96875 12.671875 41.703125 
Q 8.40625 46.4375 8.40625 54.6875 
Q 8.40625 63.96875 14.984375 69.09375 
Q 21.578125 74.21875 33.5 74.21875 
Q 38.578125 74.21875 44.625 73.109375 
Q 50.6875 72.015625 57.515625 69.921875 
L 57.515625 54.390625 
L 52 54.390625 
Q 51.171875 62.109375 46.84375 65.546875 
Q 42.53125 69 33.6875 69 
Q 25.984375 69 21.953125 65.84375 
Q 17.921875 62.703125 17.921875 56.6875 
Q 17.921875 51.46875 20.9375 48.484375 
Q 23.96875 45.515625 33.796875 42.578125 
L 42.828125 39.890625 
Q 52.734375 36.921875 56.953125 32.296875 
Q 61.1875 27.6875 61.1875 19.921875 
Q 61.1875 9.328125 54.390625 3.953125 
Q 47.609375 -1.421875 34.1875 -1.421875 
Q 28.171875 -1.421875 21.9375 -0.1875 
Q 15.71875 1.03125 9.28125 3.515625 
z
" id="DejaVuSerif-83"/>
       <path d="M 20.515625 28.515625 
L 20.515625 23.390625 
Q 20.515625 14.015625 24.09375 9.109375 
Q 27.6875 4.203125 34.515625 4.203125 
Q 41.40625 4.203125 44.9375 9.71875 
Q 48.484375 15.234375 48.484375 25.984375 
Q 48.484375 36.765625 44.9375 42.234375 
Q 41.40625 47.703125 34.515625 47.703125 
Q 27.6875 47.703125 24.09375 42.765625 
Q 20.515625 37.84375 20.515625 28.515625 
z
M 11.53125 46.6875 
L 2.875 46.6875 
L 2.875 51.90625 
L 20.515625 51.90625 
L 20.515625 43.796875 
Q 23.140625 48.6875 27.21875 51 
Q 31.296875 53.328125 37.3125 53.328125 
Q 46.875 53.328125 52.921875 45.75 
Q 58.984375 38.1875 58.984375 25.984375 
Q 58.984375 13.765625 52.921875 6.171875 
Q 46.875 -1.421875 37.3125 -1.421875 
Q 31.296875 -1.421875 27.21875 0.890625 
Q 23.140625 3.21875 20.515625 8.109375 
L 20.515625 -15.578125 
L 29 -15.578125 
L 29 -20.796875 
L 2.875 -20.796875 
L 2.875 -15.578125 
L 11.53125 -15.578125 
z
" id="DejaVuSerif-112"/>
       <path d="M 52.484375 5.171875 
L 61.078125 5.171875 
L 61.078125 0 
L 43.5 0 
L 43.5 8.109375 
Q 40.875 3.21875 36.796875 0.890625 
Q 32.71875 -1.421875 26.703125 -1.421875 
Q 17.140625 -1.421875 11.0625 6.171875 
Q 4.984375 13.765625 4.984375 25.984375 
Q 4.984375 38.1875 11.03125 45.75 
Q 17.09375 53.328125 26.703125 53.328125 
Q 32.71875 53.328125 36.796875 51 
Q 40.875 48.6875 43.5 43.796875 
L 43.5 70.796875 
L 35.015625 70.796875 
L 35.015625 75.984375 
L 52.484375 75.984375 
z
M 43.5 23.390625 
L 43.5 28.515625 
Q 43.5 37.84375 39.90625 42.765625 
Q 36.328125 47.703125 29.5 47.703125 
Q 22.5625 47.703125 19.015625 42.234375 
Q 15.484375 36.765625 15.484375 25.984375 
Q 15.484375 15.234375 19.015625 9.71875 
Q 22.5625 4.203125 29.5 4.203125 
Q 36.328125 4.203125 39.90625 9.109375 
Q 43.5 14.015625 43.5 23.390625 
z
" id="DejaVuSerif-100"/>
      </defs>
      <use xlink:href="#DejaVuSerif-83"/>
      <use x="68.505859" xlink:href="#DejaVuSerif-112"/>
      <use x="132.519531" xlink:href="#DejaVuSerif-101"/>
      <use x="191.699219" xlink:href="#DejaVuSerif-101"/>
      <use x="250.878906" xlink:href="#DejaVuSerif-100"/>
     </g>
    </g>
   </g>
   <g id="line2d_18">
    <path clip-path="url(#pdf51b92ced)" d="M 73.832727 295.488 
L 73.97534 53.568 
L 74.394791 53.568 
L 74.529015 101.952 
L 74.671628 295.488 
L 75.091078 295.488 
L 75.233691 134.208 
L 75.787366 134.208 
L 75.929979 157.248 
L 76.072592 157.248 
L 76.206816 295.488 
L 76.349429 295.488 
L 76.492042 157.248 
L 76.626266 174.528 
L 77.18833 174.528 
L 77.330943 187.968 
L 77.60778 187.968 
L 77.750393 295.488 
L 77.884617 187.968 
L 78.02723 198.72 
L 78.589294 198.72 
L 78.723518 207.517091 
L 79.008744 207.517091 
L 79.142968 119.546182 
L 79.285581 119.546182 
L 79.428195 134.208 
L 79.562419 214.848 
L 79.981869 214.848 
L 80.124482 221.051077 
L 80.267095 221.051077 
L 80.401319 146.614154 
L 80.686545 146.614154 
L 80.82077 157.248 
L 80.963383 157.248 
L 81.105996 226.368 
L 81.382833 226.368 
L 81.525446 230.976 
L 81.65967 166.464 
L 82.079121 166.464 
L 82.221734 174.528 
L 82.498571 174.528 
L 82.641184 235.008 
L 82.783797 235.008 
L 82.918021 181.643294 
L 83.480085 181.643294 
L 83.622698 187.968 
L 84.042148 187.968 
L 84.176372 241.728 
L 84.318985 193.626947 
L 84.881049 193.626947 
L 85.015273 198.72 
L 85.434723 198.72 
L 85.577336 150.336 
L 85.719949 157.248 
L 85.854173 203.328 
L 86.273624 203.328 
L 86.416237 207.517091 
L 86.693074 207.517091 
L 86.835687 163.531636 
L 86.9783 163.531636 
L 87.112524 169.26887 
L 87.397751 169.26887 
L 87.531975 211.341913 
L 87.674588 211.341913 
L 87.817201 214.848 
L 87.951425 214.848 
L 88.094038 174.528 
L 88.370875 174.528 
L 88.513488 179.3664 
L 88.932939 179.3664 
L 89.075552 218.0736 
L 89.209776 221.051077 
L 89.352389 183.832615 
L 89.771839 183.832615 
L 89.914452 187.968 
L 90.468127 187.968 
L 90.61074 157.248 
L 90.753353 191.808 
L 91.172803 191.808 
L 91.307027 195.383172 
L 91.869091 195.383172 
L 92.011704 166.464 
L 92.145928 166.464 
L 92.288541 198.72 
L 92.565378 198.72 
L 92.707992 201.841548 
L 93.127442 201.841548 
L 93.270055 170.626065 
L 93.404279 174.528 
L 93.689505 174.528 
L 93.823729 204.768 
L 93.966342 204.768 
L 94.108956 207.517091 
L 94.385793 207.517091 
L 94.528406 178.193455 
L 94.66263 178.193455 
L 94.805243 181.643294 
L 95.224693 181.643294 
L 95.367307 210.104471 
L 95.501531 212.544 
L 95.644144 212.544 
L 95.786757 184.896 
L 96.063594 184.896 
L 96.206207 187.968 
L 96.759882 187.968 
L 96.902495 190.873946 
L 97.045108 164.720432 
L 97.179332 190.873946 
L 97.464558 190.873946 
L 97.598782 193.626947 
L 98.160846 193.626947 
L 98.303459 171.426462 
L 98.580296 171.426462 
L 98.722909 196.238769 
L 98.857133 196.238769 
L 98.999746 198.72 
L 99.56181 198.72 
L 99.696034 177.478244 
L 100.115484 177.478244 
L 100.258097 201.080195 
L 100.40071 203.328 
L 100.820161 203.328 
L 100.954385 180.288 
L 101.096998 182.96707 
L 101.659061 182.96707 
L 101.793285 185.524364 
L 101.935899 207.517091 
L 102.078512 207.517091 
L 102.212736 185.524364 
L 102.355349 185.524364 
L 102.497962 187.968 
L 103.051636 187.968 
L 103.194249 190.305391 
L 103.756313 190.305391 
L 103.890537 192.543319 
L 104.4526 192.543319 
L 104.595214 194.688 
L 104.729438 174.528 
L 104.872051 174.528 
L 105.014664 194.688 
L 105.148888 194.688 
L 105.291501 196.745143 
L 105.853564 196.745143 
L 105.987789 198.72 
L 106.130402 179.3664 
L 106.549852 179.3664 
L 106.692465 181.643294 
L 106.826689 200.617412 
L 107.24614 200.617412 
L 107.388753 183.832615 
L 107.950816 183.832615 
L 108.08504 185.939321 
L 108.227653 185.939321 
L 108.370266 204.197434 
L 108.50449 204.197434 
L 108.647104 185.939321 
L 108.789717 187.968 
L 109.343391 187.968 
L 109.486004 189.922909 
L 110.048068 189.922909 
L 110.182292 191.808 
L 110.744355 191.808 
L 110.886968 193.626947 
L 111.021192 193.626947 
L 111.163805 176.650105 
L 111.306419 176.650105 
L 111.440643 193.626947 
L 111.583256 195.383172 
L 112.145319 195.383172 
L 112.279543 197.079864 
L 112.422156 180.678508 
L 112.841607 180.678508 
L 112.98422 182.592 
L 113.118444 198.72 
L 113.537894 198.72 
L 113.680507 200.306361 
L 113.823121 184.442754 
L 114.242571 184.442754 
L 114.376795 186.233806 
L 114.662021 186.233806 
L 114.796245 201.841548 
L 114.938858 201.841548 
L 115.081471 187.968 
L 115.635146 187.968 
L 115.777759 189.648 
L 116.339822 189.648 
L 116.474047 191.276308 
L 117.03611 191.276308 
L 117.178723 192.855273 
L 117.45556 192.855273 
L 117.598173 178.193455 
L 117.732397 178.193455 
L 117.875011 179.944119 
L 118.017624 194.387104 
L 118.437074 194.387104 
L 118.571298 195.873882 
L 118.713911 195.873882 
L 118.856524 181.643294 
L 119.133362 181.643294 
L 119.275975 183.293217 
L 119.410199 183.293217 
L 119.552812 197.317565 
L 119.829649 197.317565 
L 119.972262 198.72 
L 120.114875 184.896 
L 120.534326 184.896 
L 120.66855 186.453634 
L 120.953776 186.453634 
L 121.088 200.08293 
L 121.230613 200.08293 
L 121.373226 201.408 
L 121.50745 187.968 
L 121.926901 187.968 
L 122.069514 189.440877 
L 122.488964 189.440877 
L 122.631577 202.696767 
L 122.765801 190.873946 
L 123.327865 190.873946 
L 123.470478 192.2688 
L 123.889928 192.2688 
L 124.024152 179.3664 
L 124.166765 180.894316 
L 124.309378 180.894316 
L 124.443603 193.626947 
L 124.728829 193.626947 
L 124.863053 194.949818 
L 125.148279 194.949818 
L 125.282503 182.382545 
L 125.425116 182.382545 
L 125.567729 183.832615 
L 125.844567 183.832615 
L 125.98718 196.238769 
L 126.121404 196.238769 
L 126.264017 197.495089 
L 126.40663 197.495089 
L 126.540854 185.245975 
L 126.82608 185.245975 
L 126.960304 186.624 
L 127.379755 186.624 
L 127.522368 198.72 
L 127.664981 199.914667 
L 127.799205 187.968 
L 128.218655 187.968 
L 128.361268 189.27922 
L 128.923332 189.27922 
L 129.057556 190.558843 
L 129.619619 190.558843 
L 129.762233 191.808 
L 130.315907 191.808 
L 130.45852 181.643294 
L 130.601133 181.643294 
L 130.735357 193.027765 
L 131.020584 193.027765 
L 131.154808 194.219163 
L 131.574258 194.219163 
L 131.716871 182.96707 
L 131.859484 184.260414 
L 132.136321 184.260414 
L 132.278934 195.383172 
L 132.413159 195.383172 
L 132.555772 196.520727 
L 132.832609 196.520727 
L 132.975222 185.524364 
L 133.117835 185.524364 
L 133.252059 186.75991 
L 133.814123 186.75991 
L 133.956736 187.968 
L 134.09096 198.72 
L 134.233573 187.968 
L 134.51041 187.968 
L 134.653023 189.149538 
L 135.215087 189.149538 
L 135.349311 190.305391 
L 135.491924 179.78713 
L 135.634537 190.305391 
L 135.911374 190.305391 
L 136.053987 191.436387 
L 136.607662 191.436387 
L 136.750275 192.543319 
L 136.892888 182.248851 
L 137.027112 182.248851 
L 137.169725 192.543319 
L 137.312338 192.543319 
L 137.446562 193.626947 
L 138.008626 193.626947 
L 138.151239 184.608 
L 138.570689 184.608 
L 138.704913 194.688 
L 138.847526 195.727175 
L 139.266977 195.727175 
L 139.40959 185.751093 
L 139.543814 186.870857 
L 140.105877 186.870857 
L 140.24849 187.968 
L 140.382715 197.742545 
L 140.525328 197.742545 
L 140.667941 187.968 
L 140.802165 187.968 
L 140.944778 189.0432 
L 141.506841 189.0432 
L 141.641066 190.097109 
L 142.203129 190.097109 
L 142.345742 191.130353 
L 142.899416 191.130353 
L 143.04203 192.143534 
L 143.184643 182.748583 
L 143.46148 182.748583 
L 143.604093 192.143534 
L 143.738317 193.137231 
L 144.300381 193.137231 
L 144.442994 194.112 
L 144.577218 184.896 
L 144.996668 184.896 
L 145.139281 185.939321 
L 145.281894 195.068377 
L 145.701345 195.068377 
L 145.835569 186.96314 
L 146.397632 186.96314 
L 146.540245 187.968 
L 146.674469 187.968 
L 146.817082 196.928 
L 146.959696 196.928 
L 147.09392 187.968 
L 147.236533 188.954422 
L 147.798596 188.954422 
L 147.93282 189.922909 
L 148.494884 189.922909 
L 148.637497 190.873946 
L 149.191171 190.873946 
L 149.333784 191.808 
L 149.476397 191.808 
L 149.610622 183.168 
L 149.753235 183.168 
L 149.895848 191.808 
L 150.030072 192.725522 
L 150.592135 192.725522 
L 150.734748 193.626947 
L 150.868973 193.626947 
L 151.011586 185.138526 
L 151.288423 185.138526 
L 151.431036 186.098087 
L 151.573649 194.512696 
L 151.993099 194.512696 
L 152.127323 195.383172 
L 152.269937 187.041103 
L 152.689387 187.041103 
L 152.832 187.968 
L 153.108837 187.968 
L 153.25145 196.238769 
L 153.385674 196.238769 
L 153.528288 188.879186 
L 154.090351 188.879186 
L 154.224575 189.775059 
L 154.786638 189.775059 
L 154.929252 190.656 
L 155.482926 190.656 
L 155.625539 191.52238 
L 155.902376 191.52238 
L 156.044989 183.525025 
L 156.187603 183.525025 
L 156.321827 184.442754 
L 156.46444 192.374557 
L 156.88389 192.374557 
L 157.026503 193.212878 
L 157.160727 193.212878 
L 157.30334 185.345561 
L 157.580178 185.345561 
L 157.722791 186.233806 
L 157.865404 186.233806 
L 157.999628 194.037677 
L 158.284854 194.037677 
L 158.419078 194.84928 
L 158.561691 194.84928 
L 158.704304 187.10784 
L 158.981142 187.10784 
L 159.123755 187.968 
L 159.400592 187.968 
L 159.543205 195.648 
L 159.677429 195.648 
L 159.820042 196.434142 
L 159.962655 188.814614 
L 160.382106 188.814614 
L 160.51633 189.648 
L 160.93578 189.648 
L 161.078393 197.208 
L 161.221006 190.468465 
L 161.774681 190.468465 
L 161.917294 191.276308 
L 162.336744 191.276308 
L 162.479357 183.832615 
L 162.613581 184.684947 
L 162.756195 184.684947 
L 162.898808 192.071817 
L 163.175645 192.071817 
L 163.318258 192.855273 
L 163.595095 192.855273 
L 163.737708 185.524364 
L 163.871932 185.524364 
L 164.014545 186.351158 
L 164.291383 186.351158 
L 164.433996 193.626947 
L 164.576609 193.626947 
L 164.710833 194.387104 
L 164.853446 194.387104 
L 164.996059 187.165612 
L 165.272896 187.165612 
L 165.41551 187.968 
L 165.83496 187.968 
L 165.969184 195.136 
L 166.111797 195.873882 
L 166.25441 195.873882 
L 166.388634 188.758588 
L 166.67386 188.758588 
L 166.808085 189.537635 
L 167.370148 189.537635 
L 167.512761 190.305391 
L 168.066436 190.305391 
L 168.209049 191.062101 
L 168.771112 191.062101 
L 168.905336 184.896 
L 169.047949 184.896 
L 169.190562 191.808 
L 169.4674 191.808 
L 169.610013 192.543319 
L 170.029463 192.543319 
L 170.163687 185.68034 
L 170.3063 186.453634 
L 170.725751 186.453634 
L 170.868364 193.268282 
L 171.002588 193.983105 
L 171.287814 193.983105 
L 171.422038 187.216112 
L 171.564651 187.216112 
L 171.707264 187.968 
L 172.260939 187.968 
L 172.403552 188.709517 
L 172.546165 195.383172 
L 172.680389 188.709517 
L 172.965615 188.709517 
L 173.099839 189.440877 
L 173.661903 189.440877 
L 173.804516 190.162286 
L 174.35819 190.162286 
L 174.500803 190.873946 
L 175.062867 190.873946 
L 175.197091 191.576054 
L 175.339704 185.081557 
L 175.482317 185.081557 
L 175.616541 191.576054 
L 175.759154 191.576054 
L 175.901767 192.2688 
L 176.455442 192.2688 
L 176.598055 186.543894 
L 177.017505 186.543894 
L 177.160118 192.952371 
L 177.294342 193.626947 
L 177.713793 193.626947 
L 177.856406 187.260632 
L 177.999019 187.968 
L 178.552693 187.968 
L 178.695307 188.666182 
L 178.83792 194.949818 
L 178.972144 194.949818 
L 179.114757 188.666182 
L 179.25737 188.666182 
L 179.391594 189.355355 
L 179.953658 189.355355 
L 180.096271 190.035692 
L 180.230495 190.035692 
L 180.373108 183.832615 
L 180.515721 190.035692 
L 180.649945 190.035692 
L 180.792558 190.707363 
L 181.354622 190.707363 
L 181.488846 191.370532 
L 181.631459 185.245975 
L 181.908296 185.245975 
L 182.050909 191.370532 
L 182.193522 192.025358 
L 182.747197 192.025358 
L 182.88981 192.672 
L 183.032423 186.624 
L 183.451873 186.624 
L 183.586097 187.300174 
L 183.72871 193.310609 
L 184.148161 193.310609 
L 184.290774 187.968 
L 184.844448 187.968 
L 184.987061 188.627632 
L 185.129674 188.627632 
L 185.263899 194.564319 
L 185.406512 194.564319 
L 185.549125 188.627632 
L 185.683349 189.27922 
L 186.245412 189.27922 
L 186.388025 189.922909 
L 186.9417 189.922909 
L 187.084313 190.558843 
L 187.646376 190.558843 
L 187.7806 191.187162 
L 187.923214 191.187162 
L 188.065827 185.392671 
L 188.200051 185.392671 
L 188.342664 191.187162 
L 188.485277 191.808 
L 189.038951 191.808 
L 189.181564 192.421491 
L 189.324178 186.695574 
L 189.743628 186.695574 
L 189.877852 187.335529 
L 190.020465 187.335529 
L 190.163078 193.027765 
L 190.439915 193.027765 
L 190.582529 193.626947 
L 190.716753 187.968 
L 191.136203 187.968 
L 191.278816 188.593116 
L 191.555653 188.593116 
L 191.698266 194.219163 
L 191.840879 194.219163 
L 191.975104 189.211006 
L 192.537167 189.211006 
L 192.67978 189.821793 
L 193.233455 189.821793 
L 193.376068 190.4256 
L 193.938131 190.4256 
L 194.072355 191.022545 
L 194.357581 191.022545 
L 194.491805 185.524364 
L 194.634419 185.524364 
L 194.777032 186.145627 
L 194.911256 191.612746 
L 195.330706 191.612746 
L 195.473319 192.196315 
L 195.615932 192.196315 
L 195.750156 186.75991 
L 196.035383 186.75991 
L 196.169607 187.36733 
L 196.31222 187.36733 
L 196.454833 192.773363 
L 196.73167 192.773363 
L 196.874283 193.344 
L 197.008507 187.968 
L 197.427958 187.968 
L 197.570571 188.562033 
L 197.847408 188.562033 
L 197.990021 193.908331 
L 198.132634 193.908331 
L 198.266858 194.466462 
L 198.409471 189.149538 
L 198.828922 189.149538 
L 198.971535 189.730623 
L 199.525209 189.730623 
L 199.667822 185.046261 
L 199.810436 190.305391 
L 200.229886 190.305391 
L 200.36411 190.873946 
L 200.78356 190.873946 
L 200.926173 185.643243 
L 201.068786 186.233806 
L 201.203011 186.233806 
L 201.345624 191.436387 
L 201.622461 191.436387 
L 201.765074 191.992813 
L 202.041911 191.992813 
L 202.184524 186.818053 
L 202.327137 186.818053 
L 202.461362 187.396085 
L 202.746588 187.396085 
L 202.880812 192.543319 
L 203.023425 192.543319 
L 203.166038 193.088 
L 203.300262 193.088 
L 203.442875 187.968 
L 203.719712 187.968 
L 203.862326 188.533895 
L 204.281776 188.533895 
L 204.424389 193.626947 
L 204.558613 194.160251 
L 204.701226 189.093864 
L 205.120677 189.093864 
L 205.26329 189.648 
L 205.816964 189.648 
L 205.959577 190.196394 
L 206.521641 190.196394 
L 206.655865 190.739134 
L 207.217928 190.739134 
L 207.360541 186.313846 
L 207.494765 186.313846 
L 207.637378 191.276308 
L 207.914216 191.276308 
L 208.056829 191.808 
L 208.476279 191.808 
L 208.618892 186.870857 
L 208.753116 187.422213 
L 209.038342 187.422213 
L 209.172567 192.334294 
L 209.31518 192.334294 
L 209.457793 192.855273 
L 209.73463 192.855273 
L 209.877243 187.968 
L 210.011467 187.968 
L 210.15408 188.508302 
L 210.716144 188.508302 
L 210.850368 189.0432 
L 210.992981 193.8816 
L 211.135594 189.0432 
L 211.412431 189.0432 
L 211.555044 189.572776 
L 212.108719 189.572776 
L 212.251332 190.097109 
L 212.393945 185.306614 
L 212.528169 190.097109 
L 212.813395 190.097109 
L 212.947619 190.616276 
L 213.509683 190.616276 
L 213.652296 191.130353 
L 213.78652 186.386824 
L 213.929133 186.386824 
L 214.071746 191.130353 
L 214.20597 191.130353 
L 214.348584 191.639415 
L 214.910647 191.639415 
L 215.044871 187.446058 
L 215.464321 187.446058 
L 215.606934 192.143534 
L 215.749548 192.642783 
L 216.168998 192.642783 
L 216.303222 187.968 
L 216.445835 188.484923 
L 217.007899 188.484923 
L 217.142123 188.9969 
L 217.284736 193.626947 
L 217.427349 193.626947 
L 217.561573 188.9969 
L 217.704186 188.9969 
L 217.846799 189.504 
L 218.400474 189.504 
L 218.543087 190.006294 
L 219.10515 190.006294 
L 219.239374 190.503849 
L 219.801438 190.503849 
L 219.944051 190.996732 
L 220.078275 186.453634 
L 220.363501 186.453634 
L 220.497725 190.996732 
L 220.640338 191.485009 
L 221.202402 191.485009 
L 221.336626 191.968744 
L 221.479239 187.467907 
L 221.898689 187.467907 
L 222.041302 187.968 
L 222.175526 192.448 
L 222.594977 192.448 
L 222.73759 188.463484 
L 223.299653 188.463484 
L 223.433877 188.954422 
L 223.57649 188.954422 
L 223.719104 193.393321 
L 223.853328 193.393321 
L 223.995941 188.954422 
L 224.138554 189.440877 
L 224.692228 189.440877 
L 224.834841 189.922909 
L 225.396905 189.922909 
L 225.531129 190.400579 
L 226.093192 190.400579 
L 226.235805 190.873946 
L 226.37003 190.873946 
L 226.512643 186.515027 
L 226.655256 186.515027 
L 226.78948 190.873946 
L 226.932093 191.343067 
L 227.494156 191.343067 
L 227.628381 191.808 
L 227.770994 187.488 
L 228.190444 187.488 
L 228.333057 187.968 
L 228.467281 192.2688 
L 228.886732 192.2688 
L 229.029345 188.443752 
L 229.591408 188.443752 
L 229.725632 188.915313 
L 230.010858 188.915313 
L 230.145082 193.17822 
L 230.287696 193.17822 
L 230.430309 189.382737 
L 230.983983 189.382737 
L 231.126596 189.846079 
L 231.68866 189.846079 
L 231.822884 190.305391 
L 232.384947 190.305391 
L 232.52756 190.760727 
L 232.804397 190.760727 
L 232.947011 186.571636 
L 233.081235 186.571636 
L 233.223848 187.041103 
L 233.366461 191.212138 
L 233.785911 191.212138 
L 233.920135 191.659674 
L 234.062748 191.659674 
L 234.205362 187.506541 
L 234.482199 187.506541 
L 234.624812 187.968 
L 234.759036 187.968 
L 234.901649 192.103385 
L 235.178486 192.103385 
L 235.321099 192.543319 
L 235.463712 188.425532 
L 235.883163 188.425532 
L 236.017387 188.879186 
L 236.302613 188.879186 
L 236.436837 192.979525 
L 236.57945 192.979525 
L 236.722063 189.329013 
L 237.275738 189.329013 
L 237.418351 189.775059 
L 237.837801 189.775059 
L 237.980414 193.840941 
L 238.114638 190.217372 
L 238.676702 190.217372 
L 238.819315 190.656 
L 239.238765 190.656 
L 239.372989 186.624 
L 239.515603 187.075718 
L 239.658216 187.075718 
L 239.79244 191.090988 
L 240.077666 191.090988 
L 240.21189 191.52238 
L 240.497116 191.52238 
L 240.63134 187.523702 
L 240.773953 187.523702 
L 240.916567 187.968 
L 241.193404 187.968 
L 241.336017 191.950222 
L 241.470241 191.950222 
L 241.612854 192.374557 
L 241.755467 192.374557 
L 241.889691 188.408656 
L 242.174918 188.408656 
L 242.309142 188.845714 
L 242.728592 188.845714 
L 242.871205 192.795429 
L 243.013818 193.212878 
L 243.148042 189.27922 
L 243.567493 189.27922 
L 243.710106 189.709215 
L 244.272169 189.709215 
L 244.406393 186.233806 
L 244.549006 190.135742 
L 244.968457 190.135742 
L 245.11107 190.558843 
L 245.664744 190.558843 
L 245.807357 187.10784 
L 245.94997 187.10784 
L 246.084195 190.97856 
L 246.369421 190.97856 
L 246.503645 191.394932 
L 246.923095 191.394932 
L 247.065708 187.539633 
L 247.208321 187.968 
L 247.485159 187.968 
L 247.627772 191.808 
L 247.761996 191.808 
L 247.904609 192.217802 
L 248.181446 192.217802 
L 248.324059 188.39298 
L 248.466672 188.39298 
L 248.600896 188.814614 
L 249.16296 188.814614 
L 249.305573 189.232941 
L 249.439797 193.027765 
L 249.58241 189.232941 
L 249.859247 189.232941 
L 250.00186 189.648 
L 250.563924 189.648 
L 250.698148 190.059829 
L 250.840761 186.294537 
L 250.983374 190.059829 
L 251.260211 190.059829 
L 251.402825 190.468465 
L 251.956499 190.468465 
L 252.099112 187.13773 
L 252.375949 187.13773 
L 252.518562 190.873946 
L 252.661175 190.873946 
L 252.7954 191.276308 
L 253.21485 191.276308 
L 253.357463 187.554462 
L 253.500076 187.968 
L 253.919526 187.968 
L 254.053751 191.675586 
L 254.196364 192.071817 
L 254.615814 192.071817 
L 254.758427 188.378382 
L 254.892651 188.785643 
L 255.454715 188.785643 
L 255.597328 189.189818 
L 255.731552 192.855273 
L 255.874165 192.855273 
L 256.016778 189.189818 
L 256.151002 189.189818 
L 256.293615 189.590943 
L 256.855679 189.590943 
L 256.989903 189.989053 
L 257.551966 189.989053 
L 257.694579 190.38418 
L 258.248254 190.38418 
L 258.390867 190.776358 
L 258.53348 187.165612 
L 258.810317 187.165612 
L 258.95293 190.776358 
L 259.087154 191.165621 
L 259.649218 191.165621 
L 259.791831 187.968 
L 260.345505 187.968 
L 260.488118 188.364753 
L 260.630732 191.935528 
L 260.907569 191.935528 
L 261.050182 188.364753 
L 261.184406 188.758588 
L 261.746469 188.758588 
L 261.889082 189.149538 
L 262.023307 189.149538 
L 262.16592 192.694154 
L 262.308533 192.694154 
L 262.442757 189.149538 
L 262.58537 189.537635 
L 263.147433 189.537635 
L 263.281658 189.922909 
L 263.843721 189.922909 
L 263.986334 190.305391 
L 264.540008 190.305391 
L 264.682622 190.685112 
L 264.825235 190.685112 
L 264.959459 187.191682 
L 265.102072 187.191682 
L 265.244685 190.685112 
L 265.378909 191.062101 
L 265.940973 191.062101 
L 266.083586 191.436387 
L 266.21781 187.968 
L 266.63726 187.968 
L 266.779873 188.352 
L 266.922486 191.808 
L 267.341937 191.808 
L 267.476161 188.733267 
L 268.038224 188.733267 
L 268.180837 189.11183 
L 268.315061 189.11183 
L 268.457674 192.543319 
L 268.600288 192.543319 
L 268.734512 189.11183 
L 268.877125 189.487717 
L 269.439188 189.487717 
L 269.573412 189.860958 
L 269.858638 189.860958 
L 269.992863 186.453634 
L 270.135476 189.860958 
L 270.278089 190.231579 
L 270.831763 190.231579 
L 270.974376 190.599608 
L 271.251214 190.599608 
L 271.393827 187.216112 
L 271.53644 187.216112 
L 271.670664 187.593366 
L 271.813277 190.965073 
L 272.232727 190.965073 
L 272.37534 191.328 
L 272.509564 191.328 
L 272.652178 187.968 
L 272.929015 187.968 
L 273.071628 188.340042 
L 273.214241 188.340042 
L 273.348465 191.688415 
L 273.633691 191.688415 
L 273.767915 192.046345 
L 273.910529 188.709517 
L 274.329979 188.709517 
L 274.472592 189.076454 
L 274.749429 189.076454 
L 274.892042 192.401814 
L 275.026266 192.401814 
L 275.168879 189.440877 
L 275.730943 189.440877 
L 275.865167 189.802812 
L 276.42723 189.802812 
L 276.569844 190.162286 
L 277.123518 190.162286 
L 277.266131 190.519322 
L 277.542968 190.519322 
L 277.685581 187.239051 
L 277.828195 187.239051 
L 277.962419 187.604757 
L 278.105032 190.873946 
L 278.524482 190.873946 
L 278.667095 191.226182 
L 278.943932 191.226182 
L 279.086545 187.968 
L 279.22077 187.968 
L 279.363383 188.328805 
L 279.64022 188.328805 
L 279.782833 191.576054 
L 279.925446 191.576054 
L 280.05967 191.923585 
L 280.202283 191.923585 
L 280.344896 188.687197 
L 280.621734 188.687197 
L 280.764347 189.0432 
L 281.183797 189.0432 
L 281.318021 192.2688 
L 281.460634 192.611721 
L 281.603247 189.396837 
L 282.022698 189.396837 
L 282.156922 189.748132 
L 282.718985 189.748132 
L 282.861598 186.903446 
L 282.995822 190.097109 
L 283.415273 190.097109 
L 283.557886 190.443789 
L 283.977336 190.443789 
L 284.119949 187.260632 
L 284.254173 187.615475 
L 284.396786 187.615475 
L 284.5394 190.788197 
L 284.816237 190.788197 
L 284.95885 191.130353 
L 285.235687 191.130353 
L 285.3783 187.968 
L 285.512524 187.968 
L 285.655137 188.318228 
L 285.931975 188.318228 
L 286.074588 191.47028 
L 286.217201 191.47028 
L 286.351425 191.808 
L 286.494038 191.808 
L 286.636651 188.666182 
L 286.913488 188.666182 
L 287.056101 189.011883 
L 287.475552 189.011883 
L 287.609776 192.143534 
L 287.752389 192.476903 
L 287.895002 192.476903 
L 288.029226 189.355355 
L 288.314452 189.355355 
L 288.448677 189.696617 
L 289.01074 189.696617 
L 289.153353 190.035692 
L 289.287577 186.934154 
L 289.43019 190.035692 
L 289.707027 190.035692 
L 289.849641 190.372601 
L 290.411704 190.372601 
L 290.545928 187.62558 
L 290.831154 187.62558 
L 290.965378 190.707363 
L 291.107992 190.707363 
L 291.250605 191.04 
L 291.670055 191.04 
L 291.804279 187.968 
L 291.946892 188.308253 
L 292.366342 188.308253 
L 292.508956 191.370532 
L 292.64318 191.698978 
L 292.928406 191.698978 
L 293.06263 188.64636 
L 293.205243 188.64636 
L 293.347856 188.98234 
L 293.901531 188.98234 
L 294.044144 189.316213 
L 294.186757 192.349693 
L 294.320981 189.316213 
L 294.606207 189.316213 
L 294.740431 189.648 
L 295.302495 189.648 
L 295.445108 189.97772 
L 295.998782 189.97772 
L 296.141395 190.305391 
L 296.703459 190.305391 
L 296.837683 190.631034 
L 296.980296 187.635121 
L 297.122909 187.635121 
L 297.257133 190.631034 
L 297.399746 190.631034 
L 297.542359 190.954667 
L 298.096034 190.954667 
L 298.238647 188.298831 
L 298.658097 188.298831 
L 298.80071 191.276308 
L 298.934934 191.595975 
L 299.354385 191.595975 
L 299.496998 188.627632 
L 299.639611 188.954422 
L 300.193285 188.954422 
L 300.335899 189.27922 
L 300.478512 189.27922 
L 300.612736 192.229463 
L 300.755349 189.27922 
L 300.897962 189.27922 
L 301.032186 189.602043 
L 301.594249 189.602043 
L 301.736863 189.922909 
L 301.871087 189.922909 
L 302.0137 186.990545 
L 302.156313 189.922909 
L 302.290537 189.922909 
L 302.43315 190.241837 
L 302.995214 190.241837 
L 303.129438 190.558843 
L 303.272051 187.644145 
L 303.548888 187.644145 
L 303.691501 190.558843 
L 303.834114 190.873946 
L 304.387789 190.873946 
L 304.530402 191.187162 
L 304.673015 188.289916 
L 305.092465 188.289916 
L 305.226689 188.60991 
L 305.369302 191.498507 
L 305.788753 191.498507 
L 305.931366 188.928 
L 306.48504 188.928 
L 306.627653 189.244202 
L 306.770266 189.244202 
L 306.90449 192.115656 
L 307.047104 192.115656 
L 307.189717 189.244202 
L 307.323941 189.558533 
L 307.886004 189.558533 
L 308.028617 189.871009 
L 308.582292 189.871009 
L 308.724905 190.181647 
L 309.286968 190.181647 
L 309.421192 190.490463 
L 309.563805 190.490463 
L 309.706419 187.652692 
L 309.983256 187.652692 
L 310.125869 187.968 
L 310.260093 190.797474 
L 310.679543 190.797474 
L 310.822156 191.102694 
L 310.96477 188.281469 
L 311.38422 188.281469 
L 311.518444 188.593116 
L 311.661057 188.593116 
L 311.80367 191.40614 
L 312.080507 191.40614 
L 312.223121 191.707826 
L 312.357345 188.902957 
L 312.776795 188.902957 
L 312.919408 189.211006 
L 313.196245 189.211006 
L 313.338858 192.007769 
L 313.481471 192.007769 
L 313.615696 189.51728 
L 314.177759 189.51728 
L 314.320372 189.821793 
L 314.874047 189.821793 
L 315.01666 190.124562 
L 315.578723 190.124562 
L 315.712947 190.4256 
L 315.998173 190.4256 
L 316.132397 187.6608 
L 316.275011 187.6608 
L 316.417624 187.968 
L 316.551848 190.724923 
L 316.971298 190.724923 
L 317.113911 191.022545 
L 317.256524 191.022545 
L 317.390748 188.273455 
L 317.675975 188.273455 
L 317.810199 188.577178 
L 317.952812 188.577178 
L 318.095425 191.318482 
L 318.372262 191.318482 
L 318.514875 191.612746 
L 318.649099 188.879186 
L 319.06855 188.879186 
L 319.211163 189.179493 
L 319.488 189.179493 
L 319.630613 191.905352 
L 319.773226 191.905352 
L 319.90745 189.478112 
L 320.469514 189.478112 
L 320.612127 189.775059 
L 321.165801 189.775059 
L 321.308414 187.36733 
L 321.451027 190.070346 
L 321.870478 190.070346 
L 322.004702 190.363989 
L 322.424152 190.363989 
L 322.566765 187.668501 
L 322.709378 187.968 
L 322.843603 187.968 
L 322.986216 190.656 
L 323.263053 190.656 
L 323.405666 190.946393 
L 323.682503 190.946393 
L 323.825116 188.265839 
L 323.967729 188.265839 
L 324.101953 188.562033 
L 324.38718 188.562033 
L 324.521404 191.235182 
L 324.664017 191.235182 
L 324.80663 191.52238 
L 324.940854 191.52238 
L 325.083467 188.856595 
L 325.360304 188.856595 
L 325.502918 189.149538 
L 325.922368 189.149538 
L 326.064981 191.808 
L 326.199205 192.092055 
L 326.341818 189.440877 
L 326.761268 189.440877 
L 326.903882 189.730623 
L 327.457556 189.730623 
L 327.600169 187.38206 
L 327.742782 190.01879 
L 328.162233 190.01879 
L 328.296457 190.305391 
L 328.715907 190.305391 
L 328.85852 187.675826 
L 329.001133 187.968 
L 329.135357 187.968 
L 329.27797 190.590439 
L 329.554808 190.590439 
L 329.697421 190.873946 
L 330.116871 190.873946 
L 330.259484 188.258595 
L 330.393708 188.547623 
L 330.813159 188.547623 
L 330.955772 191.155925 
L 331.098385 191.436387 
L 331.375222 191.436387 
L 331.517835 188.835097 
L 331.652059 188.835097 
L 331.794672 189.121029 
L 332.356736 189.121029 
L 332.49096 189.405433 
L 332.633573 191.992813 
L 332.776186 189.405433 
L 333.053023 189.405433 
L 333.195636 189.68832 
L 333.749311 189.68832 
L 333.891924 189.969702 
L 334.034537 187.396085 
L 334.168761 189.969702 
L 334.453987 189.969702 
L 334.588211 190.249592 
L 335.150275 190.249592 
L 335.292888 187.968 
L 335.569725 187.968 
L 335.712338 190.528 
L 335.846562 190.528 
L 335.989175 190.804939 
L 336.408626 190.804939 
L 336.551239 188.251694 
L 336.685463 188.533895 
L 337.104913 188.533895 
L 337.247526 191.080421 
L 337.39014 191.354457 
L 337.80959 191.354457 
L 337.943814 188.814614 
L 338.086427 189.093864 
L 338.64849 189.093864 
L 338.782715 189.371655 
L 338.925328 191.898235 
L 339.067941 191.898235 
L 339.202165 189.371655 
L 339.344778 189.371655 
L 339.487391 189.648 
L 340.041066 189.648 
L 340.183679 189.922909 
L 340.745742 189.922909 
L 340.879966 190.196394 
L 341.44203 190.196394 
L 341.584643 190.468465 
L 341.718867 187.968 
L 342.004093 187.968 
L 342.138317 190.468465 
L 342.28093 190.739134 
L 342.842994 190.739134 
L 342.977218 188.520802 
L 343.539281 188.520802 
L 343.681894 188.795077 
L 343.816118 191.276308 
L 344.101345 191.276308 
L 344.235569 188.795077 
L 344.378182 189.067949 
L 344.940245 189.067949 
L 345.074469 189.339429 
L 345.217082 189.339429 
L 345.359696 191.808 
L 345.49392 189.339429 
L 345.636533 189.339429 
L 345.779146 189.609527 
L 346.33282 189.609527 
L 346.475433 189.878254 
L 347.037497 189.878254 
L 347.171721 190.14562 
L 347.733784 190.14562 
L 347.876397 190.411636 
L 348.010622 190.411636 
L 348.153235 187.968 
L 348.295848 187.968 
L 348.430072 190.411636 
L 348.572685 190.676312 
L 349.134748 190.676312 
L 349.268973 190.939658 
L 349.411586 188.508302 
L 349.831036 188.508302 
L 349.973649 188.776421 
L 350.107873 191.201684 
L 350.527323 191.201684 
L 350.669937 189.0432 
L 351.232 189.0432 
L 351.366224 189.308648 
L 351.65145 189.308648 
L 351.785674 191.721815 
L 351.928288 189.308648 
L 352.070901 189.572776 
L 352.624575 189.572776 
L 352.767188 189.835593 
L 353.044025 189.835593 
L 353.186638 187.434402 
L 353.329252 189.835593 
L 353.463476 190.097109 
L 354.025539 190.097109 
L 354.168152 190.357333 
L 354.302376 190.357333 
L 354.444989 187.968 
L 354.721827 187.968 
L 354.86444 188.232828 
L 355.007053 190.616276 
L 355.426503 190.616276 
L 355.560727 190.873946 
L 355.70334 190.873946 
L 355.845953 188.496354 
L 356.122791 188.496354 
L 356.265404 188.758588 
L 356.399628 188.758588 
L 356.542241 191.130353 
L 356.819078 191.130353 
L 356.961691 191.385506 
L 357.104304 189.01954 
L 357.523755 189.01954 
L 357.657979 189.27922 
L 357.943205 189.27922 
L 358.077429 191.639415 
L 358.220042 191.639415 
L 358.362655 189.537635 
L 358.91633 189.537635 
L 359.058943 189.794796 
L 359.621006 189.794796 
L 359.75523 190.050712 
L 360.317294 190.050712 
L 360.459907 190.305391 
L 360.736744 190.305391 
L 360.879357 187.968 
L 361.013581 187.968 
L 361.156195 188.227084 
L 361.298808 190.558843 
L 361.718258 190.558843 
L 361.852482 190.811077 
L 361.995095 190.811077 
L 362.137708 188.484923 
L 362.414545 188.484923 
L 362.557159 188.741525 
L 362.833996 188.741525 
L 362.976609 191.062101 
L 363.110833 191.062101 
L 363.253446 191.311923 
L 363.396059 188.9969 
L 363.81551 188.9969 
L 363.949734 189.251055 
L 364.369184 189.251055 
L 364.511797 191.560554 
L 364.65441 191.808 
L 364.788634 189.504 
L 365.208085 189.504 
L 365.350698 189.755743 
L 365.912761 189.755743 
L 366.046985 187.713213 
L 366.189598 190.006294 
L 366.609049 190.006294 
L 366.751662 190.25566 
L 367.171112 190.25566 
L 367.305336 187.968 
L 367.447949 188.221585 
L 367.590562 188.221585 
L 367.724786 190.503849 
L 368.010013 190.503849 
L 368.144237 190.750871 
L 368.429463 190.750871 
L 368.563687 188.473976 
L 368.7063 188.473976 
L 368.848913 188.725183 
L 369.125751 188.725183 
L 369.268364 190.996732 
L 369.402588 190.996732 
L 369.545201 191.241443 
L 369.687814 191.241443 
L 369.822038 188.975213 
L 370.107264 188.975213 
L 370.241488 189.224075 
L 370.660939 189.224075 
L 370.803552 191.485009 
L 370.946165 191.727441 
L 371.080389 189.471776 
L 371.499839 189.471776 
L 371.642452 189.718326 
L 372.204516 189.718326 
L 372.33874 187.718534 
L 372.481353 187.718534 
L 372.623966 189.963731 
L 372.900803 189.963731 
L 373.043416 190.208 
L 373.597091 190.208 
L 373.739704 188.216314 
L 374.016541 188.216314 
L 374.159154 190.451141 
L 374.301767 190.451141 
L 374.435992 190.693161 
L 374.855442 190.693161 
L 374.998055 188.463484 
L 375.140668 188.709517 
L 375.560118 188.709517 
L 375.694342 190.934069 
L 375.836956 191.173872 
L 376.113793 191.173872 
L 376.256406 188.954422 
L 376.399019 188.954422 
L 376.533243 189.198206 
L 377.095307 189.198206 
L 377.23792 189.440877 
L 377.372144 191.650192 
L 377.514757 189.440877 
L 377.791594 189.440877 
L 377.934207 189.682442 
L 378.496271 189.682442 
L 378.630495 189.922909 
L 378.773108 187.723636 
L 378.915721 189.922909 
L 379.192558 189.922909 
L 379.335171 190.162286 
L 379.888846 190.162286 
L 380.031459 188.211258 
L 380.308296 188.211258 
L 380.450909 190.400579 
L 380.593522 190.400579 
L 380.727746 190.637797 
L 381.28981 190.637797 
L 381.432423 188.694486 
L 381.851873 188.694486 
L 381.986097 190.873946 
L 382.12871 191.109034 
L 382.548161 191.109034 
L 382.690774 188.934472 
L 382.824998 189.173381 
L 383.387061 189.173381 
L 383.529674 189.411221 
L 383.663899 189.411221 
L 383.806512 191.576054 
L 383.949125 189.411221 
L 384.083349 189.411221 
L 384.225962 189.648 
L 384.788025 189.648 
L 384.922249 189.883724 
L 385.064863 189.883724 
L 385.207476 187.728535 
L 385.3417 189.883724 
L 385.484313 189.883724 
L 385.626926 190.1184 
L 386.1806 190.1184 
L 386.323214 190.352035 
L 386.465827 188.206404 
L 386.742664 188.206404 
L 386.885277 190.352035 
L 387.019501 190.584637 
L 387.581564 190.584637 
L 387.724178 188.680053 
L 388.277852 188.680053 
L 388.420465 188.915313 
L 388.563078 191.046767 
L 388.839915 191.046767 
L 388.982529 188.915313 
L 389.116753 189.149538 
L 389.678816 189.149538 
L 389.821429 189.382737 
L 389.955653 189.382737 
L 390.098266 191.504842 
L 390.240879 191.504842 
L 390.375104 189.382737 
L 390.517717 189.614915 
L 391.07978 189.614915 
L 391.214004 189.846079 
L 391.776068 189.846079 
L 391.918681 190.076235 
L 392.472355 190.076235 
L 392.614968 190.305391 
L 392.757581 190.305391 
L 392.891805 188.201739 
L 393.034419 188.201739 
L 393.177032 190.305391 
L 393.311256 190.533553 
L 393.873319 190.533553 
L 394.015932 190.760727 
L 394.150156 188.666182 
L 394.569607 188.666182 
L 394.71222 188.896898 
L 394.854833 188.896898 
L 394.989057 190.98692 
L 395.274283 190.98692 
L 395.408507 189.126621 
L 395.970571 189.126621 
L 396.113184 189.355355 
L 396.390021 189.355355 
L 396.532634 191.436387 
L 396.666858 189.355355 
L 396.809471 189.583107 
L 397.371535 189.583107 
L 397.505759 189.809884 
L 397.790985 189.809884 
L 397.925209 187.737764 
L 398.067822 189.809884 
L 398.210436 190.035692 
L 398.487273 190.035692 
L 398.487273 190.035692 
" style="fill:none;stroke:#1f77b4;stroke-linecap:square;stroke-width:1.5;"/>
   </g>
   <g id="patch_3">
    <path d="M 57.6 307.584 
L 57.6 41.472 
" style="fill:none;stroke:#000000;stroke-linecap:square;stroke-linejoin:miter;stroke-width:0.8;"/>
   </g>
   <g id="patch_4">
    <path d="M 414.72 307.584 
L 414.72 41.472 
" style="fill:none;stroke:#000000;stroke-linecap:square;stroke-linejoin:miter;stroke-width:0.8;"/>
   </g>
   <g id="patch_5">
    <path d="M 57.6 307.584 
L 414.72 307.584 
" style="fill:none;stroke:#000000;stroke-linecap:square;stroke-linejoin:miter;stroke-width:0.8;"/>
   </g>
   <g id="patch_6">
    <path d="M 57.6 41.472 
L 414.72 41.472 
" style="fill:none;stroke:#000000;stroke-linecap:square;stroke-linejoin:miter;stroke-width:0.8;"/>
   </g>
   <g id="text_20">
    <!-- Speed function of time -->
    <g transform="translate(167.024063 35.472)scale(0.12 -0.12)">
     <defs>
      <path id="DejaVuSerif-32"/>
      <path d="M 43.015625 63.71875 
L 38.28125 63.71875 
Q 38.234375 67.390625 36.203125 69.28125 
Q 34.1875 71.1875 30.328125 71.1875 
Q 25.296875 71.1875 23.234375 68.421875 
Q 21.1875 65.671875 21.1875 58.59375 
L 21.1875 51.90625 
L 35.6875 51.90625 
L 35.6875 46.6875 
L 21.1875 46.6875 
L 21.1875 5.171875 
L 32.71875 5.171875 
L 32.71875 0 
L 3.609375 0 
L 3.609375 5.171875 
L 12.203125 5.171875 
L 12.203125 46.6875 
L 3.609375 46.6875 
L 3.609375 51.90625 
L 12.203125 51.90625 
L 12.203125 58.40625 
Q 12.203125 67.09375 16.71875 71.53125 
Q 21.234375 75.984375 29.984375 75.984375 
Q 33.25 75.984375 36.515625 75.390625 
Q 39.796875 74.8125 43.015625 73.578125 
z
" id="DejaVuSerif-102"/>
      <path d="M 35.40625 51.90625 
L 52.203125 51.90625 
L 52.203125 5.171875 
L 60.6875 5.171875 
L 60.6875 0 
L 43.21875 0 
L 43.21875 9.1875 
Q 40.71875 4 36.765625 1.28125 
Q 32.8125 -1.421875 27.59375 -1.421875 
Q 18.953125 -1.421875 14.875 3.484375 
Q 10.796875 8.40625 10.796875 18.890625 
L 10.796875 46.6875 
L 2.6875 46.6875 
L 2.6875 51.90625 
L 19.828125 51.90625 
L 19.828125 21.6875 
Q 19.828125 12.203125 22.140625 8.6875 
Q 24.46875 5.171875 30.421875 5.171875 
Q 36.671875 5.171875 39.9375 9.765625 
Q 43.21875 14.359375 43.21875 23.09375 
L 43.21875 46.6875 
L 35.40625 46.6875 
z
" id="DejaVuSerif-117"/>
      <path d="M 4.109375 0 
L 4.109375 5.171875 
L 12.203125 5.171875 
L 12.203125 46.6875 
L 3.609375 46.6875 
L 3.609375 51.90625 
L 21.1875 51.90625 
L 21.1875 42.671875 
Q 23.6875 47.953125 27.65625 50.640625 
Q 31.640625 53.328125 36.921875 53.328125 
Q 45.515625 53.328125 49.5625 48.390625 
Q 53.609375 43.453125 53.609375 33.015625 
L 53.609375 5.171875 
L 61.625 5.171875 
L 61.625 0 
L 36.8125 0 
L 36.8125 5.171875 
L 44.578125 5.171875 
L 44.578125 30.171875 
Q 44.578125 39.703125 42.234375 43.234375 
Q 39.890625 46.78125 33.984375 46.78125 
Q 27.734375 46.78125 24.453125 42.203125 
Q 21.1875 37.640625 21.1875 28.90625 
L 21.1875 5.171875 
L 29 5.171875 
L 29 0 
z
" id="DejaVuSerif-110"/>
      <path d="M 51.421875 15.578125 
Q 49.515625 7.28125 44.09375 2.921875 
Q 38.671875 -1.421875 30.078125 -1.421875 
Q 18.75 -1.421875 11.859375 6.078125 
Q 4.984375 13.578125 4.984375 25.984375 
Q 4.984375 38.421875 11.859375 45.875 
Q 18.75 53.328125 30.078125 53.328125 
Q 35.015625 53.328125 39.890625 52.171875 
Q 44.78125 51.03125 49.703125 48.6875 
L 49.703125 35.40625 
L 44.484375 35.40625 
Q 43.453125 42.234375 40.015625 45.359375 
Q 36.578125 48.484375 30.171875 48.484375 
Q 22.90625 48.484375 19.1875 42.84375 
Q 15.484375 37.203125 15.484375 25.984375 
Q 15.484375 14.75 19.171875 9.078125 
Q 22.859375 3.421875 30.171875 3.421875 
Q 35.984375 3.421875 39.453125 6.4375 
Q 42.921875 9.46875 44.1875 15.578125 
z
" id="DejaVuSerif-99"/>
      <path d="M 10.796875 46.6875 
L 2.875 46.6875 
L 2.875 51.90625 
L 10.796875 51.90625 
L 10.796875 68.015625 
L 19.828125 68.015625 
L 19.828125 51.90625 
L 36.71875 51.90625 
L 36.71875 46.6875 
L 19.828125 46.6875 
L 19.828125 13.71875 
Q 19.828125 7.125 21.09375 5.265625 
Q 22.359375 3.421875 25.78125 3.421875 
Q 29.296875 3.421875 30.90625 5.484375 
Q 32.515625 7.5625 32.625 12.203125 
L 39.40625 12.203125 
Q 39.015625 5.125 35.546875 1.84375 
Q 32.078125 -1.421875 25 -1.421875 
Q 17.234375 -1.421875 14.015625 2.015625 
Q 10.796875 5.46875 10.796875 13.71875 
z
" id="DejaVuSerif-116"/>
      <path d="M 30.078125 3.421875 
Q 37.3125 3.421875 40.984375 9.125 
Q 44.671875 14.84375 44.671875 25.984375 
Q 44.671875 37.109375 40.984375 42.796875 
Q 37.3125 48.484375 30.078125 48.484375 
Q 22.859375 48.484375 19.171875 42.796875 
Q 15.484375 37.109375 15.484375 25.984375 
Q 15.484375 14.84375 19.1875 9.125 
Q 22.90625 3.421875 30.078125 3.421875 
z
M 30.078125 -1.421875 
Q 18.75 -1.421875 11.859375 6.078125 
Q 4.984375 13.578125 4.984375 25.984375 
Q 4.984375 38.375 11.84375 45.84375 
Q 18.703125 53.328125 30.078125 53.328125 
Q 41.453125 53.328125 48.3125 45.84375 
Q 55.171875 38.375 55.171875 25.984375 
Q 55.171875 13.578125 48.3125 6.078125 
Q 41.453125 -1.421875 30.078125 -1.421875 
z
" id="DejaVuSerif-111"/>
     </defs>
     <use xlink:href="#DejaVuSerif-83"/>
     <use x="68.505859" xlink:href="#DejaVuSerif-112"/>
     <use x="132.519531" xlink:href="#DejaVuSerif-101"/>
     <use x="191.699219" xlink:href="#DejaVuSerif-101"/>
     <use x="250.878906" xlink:href="#DejaVuSerif-100"/>
     <use x="314.892578" xlink:href="#DejaVuSerif-32"/>
     <use x="346.679688" xlink:href="#DejaVuSerif-102"/>
     <use x="383.691406" xlink:href="#DejaVuSerif-117"/>
     <use x="448.095703" xlink:href="#DejaVuSerif-110"/>
     <use x="512.5" xlink:href="#DejaVuSerif-99"/>
     <use x="568.505859" xlink:href="#DejaVuSerif-116"/>
     <use x="608.691406" xlink:href="#DejaVuSerif-105"/>
     <use x="640.673828" xlink:href="#DejaVuSerif-111"/>
     <use x="700.878906" xlink:href="#DejaVuSerif-110"/>
     <use x="765.283203" xlink:href="#DejaVuSerif-32"/>
     <use x="797.070312" xlink:href="#DejaVuSerif-111"/>
     <use x="857.275391" xlink:href="#DejaVuSerif-102"/>
     <use x="894.287109" xlink:href="#DejaVuSerif-32"/>
     <use x="926.074219" xlink:href="#DejaVuSerif-116"/>
     <use x="966.259766" xlink:href="#DejaVuSerif-105"/>
     <use x="998.242188" xlink:href="#DejaVuSerif-109"/>
     <use x="1093.066406" xlink:href="#DejaVuSerif-101"/>
    </g>
   </g>
  </g>
 </g>
 <defs>
  <clipPath id="pdf51b92ced">
   <rect height="266.112" width="357.12" x="57.6" y="41.472"/>
  </clipPath>
 </defs>
</svg>
