<?xml version="1.0" encoding="utf-8" standalone="no"?>
<!DOCTYPE svg PUBLIC "-//W3C//DTD SVG 1.1//EN"
  "http://www.w3.org/Graphics/SVG/1.1/DTD/svg11.dtd">
<!-- Created with matplotlib (https://matplotlib.org/) -->
<svg height="345.6pt" version="1.1" viewBox="0 0 460.8 345.6" width="460.8pt" xmlns="http://www.w3.org/2000/svg" xmlns:xlink="http://www.w3.org/1999/xlink">
 <metadata>
  <rdf:RDF xmlns:cc="http://creativecommons.org/ns#" xmlns:dc="http://purl.org/dc/elements/1.1/" xmlns:rdf="http://www.w3.org/1999/02/22-rdf-syntax-ns#">
   <cc:Work>
    <dc:type rdf:resource="http://purl.org/dc/dcmitype/StillImage"/>
    <dc:date>2022-05-25T01:06:38.652400</dc:date>
    <dc:format>image/svg+xml</dc:format>
    <dc:creator>
     <cc:Agent>
      <dc:title>Matplotlib v3.3.4, https://matplotlib.org/</dc:title>
     </cc:Agent>
    </dc:creator>
   </cc:Work>
  </rdf:RDF>
 </metadata>
 <defs>
  <style type="text/css">*{stroke-linecap:butt;stroke-linejoin:round;}</style>
 </defs>
 <g id="figure_1">
  <g id="patch_1">
   <path d="M 0 345.6 
L 460.8 345.6 
L 460.8 0 
L 0 0 
z
" style="fill:#ffffff;"/>
  </g>
  <g id="axes_1">
   <g id="patch_2">
    <path d="M 57.6 307.584 
L 414.72 307.584 
L 414.72 41.472 
L 57.6 41.472 
z
" style="fill:#ffffff;"/>
   </g>
   <g id="PolyCollection_1">
    <defs>
     <path d="M 57.6 -38.016 
L 57.6 -279.936 
L 58.31424 -279.935974 
L 59.02848 -279.935921 
L 59.74272 -279.935842 
L 60.45696 -279.935734 
L 61.1712 -279.935597 
L 61.88544 -279.93543 
L 62.59968 -279.935229 
L 63.31392 -279.934993 
L 64.02816 -279.934718 
L 64.7424 -279.934402 
L 65.45664 -279.934042 
L 66.17088 -279.933632 
L 66.88512 -279.933168 
L 67.59936 -279.932645 
L 68.3136 -279.932057 
L 69.02784 -279.931398 
L 69.74208 -279.93066 
L 70.45632 -279.929836 
L 71.17056 -279.928916 
L 71.8848 -279.927891 
L 72.59904 -279.926751 
L 73.31328 -279.925484 
L 74.02752 -279.924076 
L 74.74176 -279.922515 
L 75.456 -279.920784 
L 76.17024 -279.918868 
L 76.88448 -279.916747 
L 77.59872 -279.914402 
L 78.31296 -279.911812 
L 79.0272 -279.908952 
L 79.74144 -279.905797 
L 80.45568 -279.90232 
L 81.16992 -279.89849 
L 81.88416 -279.894275 
L 82.5984 -279.889638 
L 83.31264 -279.884542 
L 84.02688 -279.878946 
L 84.74112 -279.872804 
L 85.45536 -279.866068 
L 86.1696 -279.858686 
L 86.88384 -279.850603 
L 87.59808 -279.841756 
L 88.31232 -279.832082 
L 89.02656 -279.821511 
L 89.7408 -279.809967 
L 90.45504 -279.797371 
L 91.16928 -279.783635 
L 91.88352 -279.768668 
L 92.59776 -279.75237 
L 93.312 -279.734637 
L 94.02624 -279.715355 
L 94.74048 -279.694405 
L 95.45472 -279.671657 
L 96.16896 -279.646976 
L 96.8832 -279.620215 
L 97.59744 -279.591222 
L 98.31168 -279.559831 
L 99.02592 -279.525869 
L 99.74016 -279.489151 
L 100.4544 -279.449483 
L 101.16864 -279.406656 
L 101.88288 -279.360454 
L 102.59712 -279.310644 
L 103.31136 -279.256985 
L 104.0256 -279.199219 
L 104.73984 -279.137077 
L 105.45408 -279.070275 
L 106.16832 -278.998514 
L 106.88256 -278.921482 
L 107.5968 -278.83885 
L 108.31104 -278.750274 
L 109.02528 -278.655394 
L 109.73952 -278.553835 
L 110.45376 -278.445203 
L 111.168 -278.329089 
L 111.88224 -278.205065 
L 112.59648 -278.072688 
L 113.31072 -277.931496 
L 114.02496 -277.781008 
L 114.7392 -277.620728 
L 115.45344 -277.45014 
L 116.16768 -277.26871 
L 116.88192 -277.075887 
L 117.59616 -276.871102 
L 118.3104 -276.653767 
L 119.02464 -276.423278 
L 119.73888 -276.179013 
L 120.45312 -275.920333 
L 121.16736 -275.646583 
L 121.8816 -275.357092 
L 122.59584 -275.051172 
L 123.31008 -274.728122 
L 124.02432 -274.387226 
L 124.73856 -274.027754 
L 125.4528 -273.648965 
L 126.16704 -273.250105 
L 126.88128 -272.830409 
L 127.59552 -272.389105 
L 128.30976 -271.92541 
L 129.024 -271.438536 
L 129.73824 -270.927688 
L 130.45248 -270.392068 
L 131.16672 -269.830875 
L 131.88096 -269.243308 
L 132.5952 -268.628564 
L 133.30944 -267.985847 
L 134.02368 -267.31436 
L 134.73792 -266.613317 
L 135.45216 -265.881939 
L 136.1664 -265.119455 
L 136.88064 -264.32511 
L 137.59488 -263.498162 
L 138.30912 -262.637886 
L 139.02336 -261.743575 
L 139.7376 -260.814547 
L 140.45184 -259.85014 
L 141.16608 -258.849721 
L 141.88032 -257.812682 
L 142.59456 -256.738451 
L 143.3088 -255.626483 
L 144.02304 -254.476274 
L 144.73728 -253.287356 
L 145.45152 -252.059299 
L 146.16576 -250.791719 
L 146.88 -249.484274 
L 147.59424 -248.13667 
L 148.30848 -246.748662 
L 149.02272 -245.320055 
L 149.73696 -243.850707 
L 150.4512 -242.340532 
L 151.16544 -240.789497 
L 151.87968 -239.19763 
L 152.59392 -237.565018 
L 153.30816 -235.891807 
L 154.0224 -234.178205 
L 154.73664 -232.424486 
L 155.45088 -230.630983 
L 156.16512 -228.798098 
L 156.87936 -226.926294 
L 157.5936 -225.016104 
L 158.30784 -223.068122 
L 159.02208 -221.08301 
L 159.73632 -219.061496 
L 160.45056 -217.004372 
L 161.1648 -214.912495 
L 161.87904 -212.786785 
L 162.59328 -210.628226 
L 163.30752 -208.437864 
L 164.02176 -206.216803 
L 164.736 -203.966208 
L 165.45024 -201.6873 
L 166.16448 -199.381357 
L 166.87872 -197.049707 
L 167.59296 -194.693732 
L 168.3072 -192.31486 
L 169.02144 -189.914566 
L 169.73568 -187.494368 
L 170.44992 -185.055824 
L 171.16416 -182.600529 
L 171.8784 -180.130112 
L 172.59264 -177.646233 
L 173.30688 -175.15058 
L 174.02112 -172.644862 
L 174.73536 -170.130812 
L 175.4496 -167.610177 
L 176.16384 -165.084718 
L 176.87808 -162.556206 
L 177.59232 -160.026415 
L 178.30656 -157.497125 
L 179.0208 -154.970109 
L 179.73504 -152.447137 
L 180.44928 -149.92997 
L 181.16352 -147.420354 
L 181.87776 -144.920018 
L 182.592 -142.430673 
L 183.30624 -139.954002 
L 184.02048 -137.491665 
L 184.73472 -135.045287 
L 185.44896 -132.616461 
L 186.1632 -130.206743 
L 186.87744 -127.817649 
L 187.59168 -125.450651 
L 188.30592 -123.107176 
L 189.02016 -120.788601 
L 189.7344 -118.496257 
L 190.44864 -116.231417 
L 191.16288 -113.995302 
L 191.87712 -111.789077 
L 192.59136 -109.613846 
L 193.3056 -107.470656 
L 194.01984 -105.360491 
L 194.73408 -103.284274 
L 195.44832 -101.242865 
L 196.16256 -99.23706 
L 196.8768 -97.26759 
L 197.59104 -95.335123 
L 198.30528 -93.440262 
L 199.01952 -91.583544 
L 199.73376 -89.765444 
L 200.448 -87.98637 
L 201.16224 -86.24667 
L 201.87648 -84.546626 
L 202.59072 -82.886461 
L 203.30496 -81.266336 
L 204.0192 -79.686353 
L 204.73344 -78.146555 
L 205.44768 -76.646929 
L 206.16192 -75.187408 
L 206.87616 -73.767868 
L 207.5904 -72.388138 
L 208.30464 -71.047993 
L 209.01888 -69.747163 
L 209.73312 -68.485331 
L 210.44736 -67.262137 
L 211.1616 -66.077179 
L 211.87584 -64.930015 
L 212.59008 -63.820168 
L 213.30432 -62.747124 
L 214.01856 -61.710336 
L 214.7328 -60.70923 
L 215.44704 -59.743201 
L 216.16128 -58.81162 
L 216.87552 -57.913833 
L 217.58976 -57.049165 
L 218.304 -56.216924 
L 219.01824 -55.416399 
L 219.73248 -54.646866 
L 220.44672 -53.907588 
L 221.16096 -53.197815 
L 221.8752 -52.516792 
L 222.58944 -51.863756 
L 223.30368 -51.23794 
L 224.01792 -50.638571 
L 224.73216 -50.064879 
L 225.4464 -49.516091 
L 226.16064 -48.991438 
L 226.87488 -48.490154 
L 227.58912 -48.011477 
L 228.30336 -47.554652 
L 229.0176 -47.11893 
L 229.73184 -46.703573 
L 230.44608 -46.307851 
L 231.16032 -45.931045 
L 231.87456 -45.572446 
L 232.5888 -45.23136 
L 233.30304 -44.907105 
L 234.01728 -44.599013 
L 234.73152 -44.306429 
L 235.44576 -44.028714 
L 236.16 -43.765246 
L 236.87424 -43.515416 
L 237.58848 -43.278633 
L 238.30272 -43.054321 
L 239.01696 -42.841922 
L 239.7312 -42.640895 
L 240.44544 -42.450714 
L 241.15968 -42.270871 
L 241.87392 -42.100875 
L 242.58816 -41.940251 
L 243.3024 -41.788543 
L 244.01664 -41.645308 
L 244.73088 -41.510123 
L 245.44512 -41.382579 
L 246.15936 -41.262285 
L 246.8736 -41.148862 
L 247.58784 -41.041951 
L 248.30208 -40.941205 
L 249.01632 -40.846293 
L 249.73056 -40.756899 
L 250.4448 -40.672721 
L 251.15904 -40.593468 
L 251.87328 -40.518867 
L 252.58752 -40.448655 
L 253.30176 -40.382581 
L 254.016 -40.320409 
L 254.73024 -40.261912 
L 255.44448 -40.206877 
L 256.15872 -40.155098 
L 256.87296 -40.106384 
L 257.5872 -40.060551 
L 258.30144 -40.017426 
L 259.01568 -39.976846 
L 259.72992 -39.938655 
L 260.44416 -39.902708 
L 261.1584 -39.868866 
L 261.87264 -39.836998 
L 262.58688 -39.806982 
L 263.30112 -39.778703 
L 264.01536 -39.752051 
L 264.7296 -39.726923 
L 265.44384 -39.703224 
L 266.15808 -39.680862 
L 266.87232 -39.659753 
L 267.58656 -39.639816 
L 268.3008 -39.620977 
L 269.01504 -39.603166 
L 269.72928 -39.586316 
L 270.44352 -39.570365 
L 271.15776 -39.555257 
L 271.872 -39.540936 
L 272.58624 -39.527352 
L 273.30048 -39.514458 
L 274.01472 -39.50221 
L 274.72896 -39.490566 
L 275.4432 -39.479488 
L 276.15744 -39.468939 
L 276.87168 -39.458885 
L 277.58592 -39.449296 
L 278.30016 -39.440142 
L 279.0144 -39.431395 
L 279.72864 -39.42303 
L 280.44288 -39.415022 
L 281.15712 -39.40735 
L 281.87136 -39.399993 
L 282.5856 -39.392931 
L 283.29984 -39.386146 
L 284.01408 -39.379621 
L 284.72832 -39.37334 
L 285.44256 -39.367288 
L 286.1568 -39.361451 
L 286.87104 -39.355817 
L 287.58528 -39.350372 
L 288.29952 -39.345106 
L 289.01376 -39.340008 
L 289.728 -39.335067 
L 290.44224 -39.330274 
L 291.15648 -39.325619 
L 291.87072 -39.321095 
L 292.58496 -39.316692 
L 293.2992 -39.312403 
L 294.01344 -39.308221 
L 294.72768 -39.304137 
L 295.44192 -39.300146 
L 296.15616 -39.29624 
L 296.8704 -39.292413 
L 297.58464 -39.288658 
L 298.29888 -39.28497 
L 299.01312 -39.28134 
L 299.72736 -39.277765 
L 300.4416 -39.274236 
L 301.15584 -39.270747 
L 301.87008 -39.267293 
L 302.58432 -39.263867 
L 303.29856 -39.260461 
L 304.0128 -39.25707 
L 304.72704 -39.253684 
L 305.44128 -39.250298 
L 306.15552 -39.246902 
L 306.86976 -39.24349 
L 307.584 -39.240051 
L 308.29824 -39.236576 
L 309.01248 -39.233056 
L 309.72672 -39.229479 
L 310.44096 -39.225835 
L 311.1552 -39.222111 
L 311.86944 -39.218295 
L 312.58368 -39.214372 
L 313.29792 -39.210327 
L 314.01216 -39.206144 
L 314.7264 -39.201806 
L 315.44064 -39.197294 
L 316.15488 -39.192588 
L 316.86912 -39.187667 
L 317.58336 -39.182507 
L 318.2976 -39.177085 
L 319.01184 -39.171372 
L 319.72608 -39.165342 
L 320.44032 -39.158963 
L 321.15456 -39.152205 
L 321.8688 -39.145032 
L 322.58304 -39.137408 
L 323.29728 -39.129297 
L 324.01152 -39.120657 
L 324.72576 -39.111447 
L 325.44 -39.101625 
L 326.15424 -39.091145 
L 326.86848 -39.079961 
L 327.58272 -39.068028 
L 328.29696 -39.055299 
L 329.0112 -39.041726 
L 329.72544 -39.027265 
L 330.43968 -39.011873 
L 331.15392 -38.995507 
L 331.86816 -38.978131 
L 332.5824 -38.959714 
L 333.29664 -38.940227 
L 334.01088 -38.919653 
L 334.72512 -38.897981 
L 335.43936 -38.875212 
L 336.1536 -38.851356 
L 336.86784 -38.82644 
L 337.58208 -38.800499 
L 338.29632 -38.773588 
L 339.01056 -38.745776 
L 339.7248 -38.717144 
L 340.43904 -38.687794 
L 341.15328 -38.657838 
L 341.86752 -38.627405 
L 342.58176 -38.596634 
L 343.296 -38.565673 
L 344.01024 -38.534679 
L 344.72448 -38.503812 
L 345.43872 -38.473234 
L 346.15296 -38.443104 
L 346.8672 -38.413577 
L 347.58144 -38.384798 
L 348.29568 -38.3569 
L 349.00992 -38.330004 
L 349.72416 -38.304214 
L 350.4384 -38.279618 
L 351.15264 -38.256284 
L 351.86688 -38.234264 
L 352.58112 -38.213589 
L 353.29536 -38.194276 
L 354.0096 -38.176323 
L 354.72384 -38.159714 
L 355.43808 -38.14442 
L 356.15232 -38.1304 
L 356.86656 -38.117605 
L 357.5808 -38.105976 
L 358.29504 -38.095452 
L 359.00928 -38.085964 
L 359.72352 -38.077443 
L 360.43776 -38.069819 
L 361.152 -38.063022 
L 361.86624 -38.056982 
L 362.58048 -38.051633 
L 363.29472 -38.04691 
L 364.00896 -38.042754 
L 364.7232 -38.039106 
L 365.43744 -38.035913 
L 366.15168 -38.033127 
L 366.86592 -38.030701 
L 367.58016 -38.028595 
L 368.2944 -38.026771 
L 369.00864 -38.025194 
L 369.72288 -38.023834 
L 370.43712 -38.022664 
L 371.15136 -38.02166 
L 371.8656 -38.020799 
L 372.57984 -38.020062 
L 373.29408 -38.019434 
L 374.00832 -38.018898 
L 374.72256 -38.018442 
L 375.4368 -38.018055 
L 376.15104 -38.017727 
L 376.86528 -38.01745 
L 377.57952 -38.017215 
L 378.29376 -38.017017 
L 379.008 -38.01685 
L 379.72224 -38.01671 
L 380.43648 -38.016592 
L 381.15072 -38.016493 
L 381.86496 -38.01641 
L 382.5792 -38.016341 
L 383.29344 -38.016283 
L 384.00768 -38.016235 
L 384.72192 -38.016194 
L 385.43616 -38.016161 
L 386.1504 -38.016133 
L 386.86464 -38.01611 
L 387.57888 -38.01609 
L 388.29312 -38.016074 
L 389.00736 -38.016061 
L 389.7216 -38.01605 
L 390.43584 -38.016041 
L 391.15008 -38.016034 
L 391.86432 -38.016028 
L 392.57856 -38.016023 
L 393.2928 -38.016019 
L 394.00704 -38.016015 
L 394.72128 -38.016012 
L 395.43552 -38.01601 
L 396.14976 -38.016008 
L 396.864 -38.016007 
L 397.57824 -38.016005 
L 398.29248 -38.016004 
L 399.00672 -38.016004 
L 399.72096 -38.016003 
L 400.4352 -38.016002 
L 401.14944 -38.016002 
L 401.86368 -38.016002 
L 402.57792 -38.016001 
L 403.29216 -38.016001 
L 404.0064 -38.016001 
L 404.72064 -38.016001 
L 405.43488 -38.016001 
L 406.14912 -38.016 
L 406.86336 -38.016 
L 407.5776 -38.016 
L 408.29184 -38.016 
L 409.00608 -38.016 
L 409.72032 -38.016 
L 410.43456 -38.016 
L 411.1488 -38.016 
L 411.86304 -38.016 
L 412.57728 -38.016 
L 413.29152 -38.016 
L 414.00576 -38.016 
L 414.72 -38.016 
L 414.72 -38.016 
L 414.72 -38.016 
L 414.00576 -38.016 
L 413.29152 -38.016 
L 412.57728 -38.016 
L 411.86304 -38.016 
L 411.1488 -38.016 
L 410.43456 -38.016 
L 409.72032 -38.016 
L 409.00608 -38.016 
L 408.29184 -38.016 
L 407.5776 -38.016 
L 406.86336 -38.016 
L 406.14912 -38.016 
L 405.43488 -38.016 
L 404.72064 -38.016 
L 404.0064 -38.016 
L 403.29216 -38.016 
L 402.57792 -38.016 
L 401.86368 -38.016 
L 401.14944 -38.016 
L 400.4352 -38.016 
L 399.72096 -38.016 
L 399.00672 -38.016 
L 398.29248 -38.016 
L 397.57824 -38.016 
L 396.864 -38.016 
L 396.14976 -38.016 
L 395.43552 -38.016 
L 394.72128 -38.016 
L 394.00704 -38.016 
L 393.2928 -38.016 
L 392.57856 -38.016 
L 391.86432 -38.016 
L 391.15008 -38.016 
L 390.43584 -38.016 
L 389.7216 -38.016 
L 389.00736 -38.016 
L 388.29312 -38.016 
L 387.57888 -38.016 
L 386.86464 -38.016 
L 386.1504 -38.016 
L 385.43616 -38.016 
L 384.72192 -38.016 
L 384.00768 -38.016 
L 383.29344 -38.016 
L 382.5792 -38.016 
L 381.86496 -38.016 
L 381.15072 -38.016 
L 380.43648 -38.016 
L 379.72224 -38.016 
L 379.008 -38.016 
L 378.29376 -38.016 
L 377.57952 -38.016 
L 376.86528 -38.016 
L 376.15104 -38.016 
L 375.4368 -38.016 
L 374.72256 -38.016 
L 374.00832 -38.016 
L 373.29408 -38.016 
L 372.57984 -38.016 
L 371.8656 -38.016 
L 371.15136 -38.016 
L 370.43712 -38.016 
L 369.72288 -38.016 
L 369.00864 -38.016 
L 368.2944 -38.016 
L 367.58016 -38.016 
L 366.86592 -38.016 
L 366.15168 -38.016 
L 365.43744 -38.016 
L 364.7232 -38.016 
L 364.00896 -38.016 
L 363.29472 -38.016 
L 362.58048 -38.016 
L 361.86624 -38.016 
L 361.152 -38.016 
L 360.43776 -38.016 
L 359.72352 -38.016 
L 359.00928 -38.016 
L 358.29504 -38.016 
L 357.5808 -38.016 
L 356.86656 -38.016 
L 356.15232 -38.016 
L 355.43808 -38.016 
L 354.72384 -38.016 
L 354.0096 -38.016 
L 353.29536 -38.016 
L 352.58112 -38.016 
L 351.86688 -38.016 
L 351.15264 -38.016 
L 350.4384 -38.016 
L 349.72416 -38.016 
L 349.00992 -38.016 
L 348.29568 -38.016 
L 347.58144 -38.016 
L 346.8672 -38.016 
L 346.15296 -38.016 
L 345.43872 -38.016 
L 344.72448 -38.016 
L 344.01024 -38.016 
L 343.296 -38.016 
L 342.58176 -38.016 
L 341.86752 -38.016 
L 341.15328 -38.016 
L 340.43904 -38.016 
L 339.7248 -38.016 
L 339.01056 -38.016 
L 338.29632 -38.016 
L 337.58208 -38.016 
L 336.86784 -38.016 
L 336.1536 -38.016 
L 335.43936 -38.016 
L 334.72512 -38.016 
L 334.01088 -38.016 
L 333.29664 -38.016 
L 332.5824 -38.016 
L 331.86816 -38.016 
L 331.15392 -38.016 
L 330.43968 -38.016 
L 329.72544 -38.016 
L 329.0112 -38.016 
L 328.29696 -38.016 
L 327.58272 -38.016 
L 326.86848 -38.016 
L 326.15424 -38.016 
L 325.44 -38.016 
L 324.72576 -38.016 
L 324.01152 -38.016 
L 323.29728 -38.016 
L 322.58304 -38.016 
L 321.8688 -38.016 
L 321.15456 -38.016 
L 320.44032 -38.016 
L 319.72608 -38.016 
L 319.01184 -38.016 
L 318.2976 -38.016 
L 317.58336 -38.016 
L 316.86912 -38.016 
L 316.15488 -38.016 
L 315.44064 -38.016 
L 314.7264 -38.016 
L 314.01216 -38.016 
L 313.29792 -38.016 
L 312.58368 -38.016 
L 311.86944 -38.016 
L 311.1552 -38.016 
L 310.44096 -38.016 
L 309.72672 -38.016 
L 309.01248 -38.016 
L 308.29824 -38.016 
L 307.584 -38.016 
L 306.86976 -38.016 
L 306.15552 -38.016 
L 305.44128 -38.016 
L 304.72704 -38.016 
L 304.0128 -38.016 
L 303.29856 -38.016 
L 302.58432 -38.016 
L 301.87008 -38.016 
L 301.15584 -38.016 
L 300.4416 -38.016 
L 299.72736 -38.016 
L 299.01312 -38.016 
L 298.29888 -38.016 
L 297.58464 -38.016 
L 296.8704 -38.016 
L 296.15616 -38.016 
L 295.44192 -38.016 
L 294.72768 -38.016 
L 294.01344 -38.016 
L 293.2992 -38.016 
L 292.58496 -38.016 
L 291.87072 -38.016 
L 291.15648 -38.016 
L 290.44224 -38.016 
L 289.728 -38.016 
L 289.01376 -38.016 
L 288.29952 -38.016 
L 287.58528 -38.016 
L 286.87104 -38.016 
L 286.1568 -38.016 
L 285.44256 -38.016 
L 284.72832 -38.016 
L 284.01408 -38.016 
L 283.29984 -38.016 
L 282.5856 -38.016 
L 281.87136 -38.016 
L 281.15712 -38.016 
L 280.44288 -38.016 
L 279.72864 -38.016 
L 279.0144 -38.016 
L 278.30016 -38.016 
L 277.58592 -38.016 
L 276.87168 -38.016 
L 276.15744 -38.016 
L 275.4432 -38.016 
L 274.72896 -38.016 
L 274.01472 -38.016 
L 273.30048 -38.016 
L 272.58624 -38.016 
L 271.872 -38.016 
L 271.15776 -38.016 
L 270.44352 -38.016 
L 269.72928 -38.016 
L 269.01504 -38.016 
L 268.3008 -38.016 
L 267.58656 -38.016 
L 266.87232 -38.016 
L 266.15808 -38.016 
L 265.44384 -38.016 
L 264.7296 -38.016 
L 264.01536 -38.016 
L 263.30112 -38.016 
L 262.58688 -38.016 
L 261.87264 -38.016 
L 261.1584 -38.016 
L 260.44416 -38.016 
L 259.72992 -38.016 
L 259.01568 -38.016 
L 258.30144 -38.016 
L 257.5872 -38.016 
L 256.87296 -38.016 
L 256.15872 -38.016 
L 255.44448 -38.016 
L 254.73024 -38.016 
L 254.016 -38.016 
L 253.30176 -38.016 
L 252.58752 -38.016 
L 251.87328 -38.016 
L 251.15904 -38.016 
L 250.4448 -38.016 
L 249.73056 -38.016 
L 249.01632 -38.016 
L 248.30208 -38.016 
L 247.58784 -38.016 
L 246.8736 -38.016 
L 246.15936 -38.016 
L 245.44512 -38.016 
L 244.73088 -38.016 
L 244.01664 -38.016 
L 243.3024 -38.016 
L 242.58816 -38.016 
L 241.87392 -38.016 
L 241.15968 -38.016 
L 240.44544 -38.016 
L 239.7312 -38.016 
L 239.01696 -38.016 
L 238.30272 -38.016 
L 237.58848 -38.016 
L 236.87424 -38.016 
L 236.16 -38.016 
L 235.44576 -38.016 
L 234.73152 -38.016 
L 234.01728 -38.016 
L 233.30304 -38.016 
L 232.5888 -38.016 
L 231.87456 -38.016 
L 231.16032 -38.016 
L 230.44608 -38.016 
L 229.73184 -38.016 
L 229.0176 -38.016 
L 228.30336 -38.016 
L 227.58912 -38.016 
L 226.87488 -38.016 
L 226.16064 -38.016 
L 225.4464 -38.016 
L 224.73216 -38.016 
L 224.01792 -38.016 
L 223.30368 -38.016 
L 222.58944 -38.016 
L 221.8752 -38.016 
L 221.16096 -38.016 
L 220.44672 -38.016 
L 219.73248 -38.016 
L 219.01824 -38.016 
L 218.304 -38.016 
L 217.58976 -38.016 
L 216.87552 -38.016 
L 216.16128 -38.016 
L 215.44704 -38.016 
L 214.7328 -38.016 
L 214.01856 -38.016 
L 213.30432 -38.016 
L 212.59008 -38.016 
L 211.87584 -38.016 
L 211.1616 -38.016 
L 210.44736 -38.016 
L 209.73312 -38.016 
L 209.01888 -38.016 
L 208.30464 -38.016 
L 207.5904 -38.016 
L 206.87616 -38.016 
L 206.16192 -38.016 
L 205.44768 -38.016 
L 204.73344 -38.016 
L 204.0192 -38.016 
L 203.30496 -38.016 
L 202.59072 -38.016 
L 201.87648 -38.016 
L 201.16224 -38.016 
L 200.448 -38.016 
L 199.73376 -38.016 
L 199.01952 -38.016 
L 198.30528 -38.016 
L 197.59104 -38.016 
L 196.8768 -38.016 
L 196.16256 -38.016 
L 195.44832 -38.016 
L 194.73408 -38.016 
L 194.01984 -38.016 
L 193.3056 -38.016 
L 192.59136 -38.016 
L 191.87712 -38.016 
L 191.16288 -38.016 
L 190.44864 -38.016 
L 189.7344 -38.016 
L 189.02016 -38.016 
L 188.30592 -38.016 
L 187.59168 -38.016 
L 186.87744 -38.016 
L 186.1632 -38.016 
L 185.44896 -38.016 
L 184.73472 -38.016 
L 184.02048 -38.016 
L 183.30624 -38.016 
L 182.592 -38.016 
L 181.87776 -38.016 
L 181.16352 -38.016 
L 180.44928 -38.016 
L 179.73504 -38.016 
L 179.0208 -38.016 
L 178.30656 -38.016 
L 177.59232 -38.016 
L 176.87808 -38.016 
L 176.16384 -38.016 
L 175.4496 -38.016 
L 174.73536 -38.016 
L 174.02112 -38.016 
L 173.30688 -38.016 
L 172.59264 -38.016 
L 171.8784 -38.016 
L 171.16416 -38.016 
L 170.44992 -38.016 
L 169.73568 -38.016 
L 169.02144 -38.016 
L 168.3072 -38.016 
L 167.59296 -38.016 
L 166.87872 -38.016 
L 166.16448 -38.016 
L 165.45024 -38.016 
L 164.736 -38.016 
L 164.02176 -38.016 
L 163.30752 -38.016 
L 162.59328 -38.016 
L 161.87904 -38.016 
L 161.1648 -38.016 
L 160.45056 -38.016 
L 159.73632 -38.016 
L 159.02208 -38.016 
L 158.30784 -38.016 
L 157.5936 -38.016 
L 156.87936 -38.016 
L 156.16512 -38.016 
L 155.45088 -38.016 
L 154.73664 -38.016 
L 154.0224 -38.016 
L 153.30816 -38.016 
L 152.59392 -38.016 
L 151.87968 -38.016 
L 151.16544 -38.016 
L 150.4512 -38.016 
L 149.73696 -38.016 
L 149.02272 -38.016 
L 148.30848 -38.016 
L 147.59424 -38.016 
L 146.88 -38.016 
L 146.16576 -38.016 
L 145.45152 -38.016 
L 144.73728 -38.016 
L 144.02304 -38.016 
L 143.3088 -38.016 
L 142.59456 -38.016 
L 141.88032 -38.016 
L 141.16608 -38.016 
L 140.45184 -38.016 
L 139.7376 -38.016 
L 139.02336 -38.016 
L 138.30912 -38.016 
L 137.59488 -38.016 
L 136.88064 -38.016 
L 136.1664 -38.016 
L 135.45216 -38.016 
L 134.73792 -38.016 
L 134.02368 -38.016 
L 133.30944 -38.016 
L 132.5952 -38.016 
L 131.88096 -38.016 
L 131.16672 -38.016 
L 130.45248 -38.016 
L 129.73824 -38.016 
L 129.024 -38.016 
L 128.30976 -38.016 
L 127.59552 -38.016 
L 126.88128 -38.016 
L 126.16704 -38.016 
L 125.4528 -38.016 
L 124.73856 -38.016 
L 124.02432 -38.016 
L 123.31008 -38.016 
L 122.59584 -38.016 
L 121.8816 -38.016 
L 121.16736 -38.016 
L 120.45312 -38.016 
L 119.73888 -38.016 
L 119.02464 -38.016 
L 118.3104 -38.016 
L 117.59616 -38.016 
L 116.88192 -38.016 
L 116.16768 -38.016 
L 115.45344 -38.016 
L 114.7392 -38.016 
L 114.02496 -38.016 
L 113.31072 -38.016 
L 112.59648 -38.016 
L 111.88224 -38.016 
L 111.168 -38.016 
L 110.45376 -38.016 
L 109.73952 -38.016 
L 109.02528 -38.016 
L 108.31104 -38.016 
L 107.5968 -38.016 
L 106.88256 -38.016 
L 106.16832 -38.016 
L 105.45408 -38.016 
L 104.73984 -38.016 
L 104.0256 -38.016 
L 103.31136 -38.016 
L 102.59712 -38.016 
L 101.88288 -38.016 
L 101.16864 -38.016 
L 100.4544 -38.016 
L 99.74016 -38.016 
L 99.02592 -38.016 
L 98.31168 -38.016 
L 97.59744 -38.016 
L 96.8832 -38.016 
L 96.16896 -38.016 
L 95.45472 -38.016 
L 94.74048 -38.016 
L 94.02624 -38.016 
L 93.312 -38.016 
L 92.59776 -38.016 
L 91.88352 -38.016 
L 91.16928 -38.016 
L 90.45504 -38.016 
L 89.7408 -38.016 
L 89.02656 -38.016 
L 88.31232 -38.016 
L 87.59808 -38.016 
L 86.88384 -38.016 
L 86.1696 -38.016 
L 85.45536 -38.016 
L 84.74112 -38.016 
L 84.02688 -38.016 
L 83.31264 -38.016 
L 82.5984 -38.016 
L 81.88416 -38.016 
L 81.16992 -38.016 
L 80.45568 -38.016 
L 79.74144 -38.016 
L 79.0272 -38.016 
L 78.31296 -38.016 
L 77.59872 -38.016 
L 76.88448 -38.016 
L 76.17024 -38.016 
L 75.456 -38.016 
L 74.74176 -38.016 
L 74.02752 -38.016 
L 73.31328 -38.016 
L 72.59904 -38.016 
L 71.8848 -38.016 
L 71.17056 -38.016 
L 70.45632 -38.016 
L 69.74208 -38.016 
L 69.02784 -38.016 
L 68.3136 -38.016 
L 67.59936 -38.016 
L 66.88512 -38.016 
L 66.17088 -38.016 
L 65.45664 -38.016 
L 64.7424 -38.016 
L 64.02816 -38.016 
L 63.31392 -38.016 
L 62.59968 -38.016 
L 61.88544 -38.016 
L 61.1712 -38.016 
L 60.45696 -38.016 
L 59.74272 -38.016 
L 59.02848 -38.016 
L 58.31424 -38.016 
L 57.6 -38.016 
z
" id="mdf9c99f649" style="stroke:#509369;"/>
    </defs>
    <g clip-path="url(#p97c9b7cdb0)">
     <use style="fill:#509369;stroke:#509369;" x="0" xlink:href="#mdf9c99f649" y="345.6"/>
    </g>
   </g>
   <g id="PolyCollection_2">
    <defs>
     <path d="M 57.6 -279.937742 
L 57.6 -279.936 
L 58.31424 -279.935974 
L 59.02848 -279.935921 
L 59.74272 -279.935842 
L 60.45696 -279.935734 
L 61.1712 -279.935597 
L 61.88544 -279.93543 
L 62.59968 -279.935229 
L 63.31392 -279.934993 
L 64.02816 -279.934718 
L 64.7424 -279.934402 
L 65.45664 -279.934042 
L 66.17088 -279.933632 
L 66.88512 -279.933168 
L 67.59936 -279.932645 
L 68.3136 -279.932057 
L 69.02784 -279.931398 
L 69.74208 -279.93066 
L 70.45632 -279.929836 
L 71.17056 -279.928916 
L 71.8848 -279.927891 
L 72.59904 -279.926751 
L 73.31328 -279.925484 
L 74.02752 -279.924076 
L 74.74176 -279.922515 
L 75.456 -279.920784 
L 76.17024 -279.918868 
L 76.88448 -279.916747 
L 77.59872 -279.914402 
L 78.31296 -279.911812 
L 79.0272 -279.908952 
L 79.74144 -279.905797 
L 80.45568 -279.90232 
L 81.16992 -279.89849 
L 81.88416 -279.894275 
L 82.5984 -279.889638 
L 83.31264 -279.884542 
L 84.02688 -279.878946 
L 84.74112 -279.872804 
L 85.45536 -279.866068 
L 86.1696 -279.858686 
L 86.88384 -279.850603 
L 87.59808 -279.841756 
L 88.31232 -279.832082 
L 89.02656 -279.821511 
L 89.7408 -279.809967 
L 90.45504 -279.797371 
L 91.16928 -279.783635 
L 91.88352 -279.768668 
L 92.59776 -279.75237 
L 93.312 -279.734637 
L 94.02624 -279.715355 
L 94.74048 -279.694405 
L 95.45472 -279.671657 
L 96.16896 -279.646976 
L 96.8832 -279.620215 
L 97.59744 -279.591222 
L 98.31168 -279.559831 
L 99.02592 -279.525869 
L 99.74016 -279.489151 
L 100.4544 -279.449483 
L 101.16864 -279.406656 
L 101.88288 -279.360454 
L 102.59712 -279.310644 
L 103.31136 -279.256985 
L 104.0256 -279.199219 
L 104.73984 -279.137077 
L 105.45408 -279.070275 
L 106.16832 -278.998514 
L 106.88256 -278.921482 
L 107.5968 -278.83885 
L 108.31104 -278.750274 
L 109.02528 -278.655394 
L 109.73952 -278.553835 
L 110.45376 -278.445203 
L 111.168 -278.329089 
L 111.88224 -278.205065 
L 112.59648 -278.072688 
L 113.31072 -277.931496 
L 114.02496 -277.781008 
L 114.7392 -277.620728 
L 115.45344 -277.45014 
L 116.16768 -277.26871 
L 116.88192 -277.075887 
L 117.59616 -276.871102 
L 118.3104 -276.653767 
L 119.02464 -276.423278 
L 119.73888 -276.179013 
L 120.45312 -275.920333 
L 121.16736 -275.646583 
L 121.8816 -275.357092 
L 122.59584 -275.051172 
L 123.31008 -274.728122 
L 124.02432 -274.387226 
L 124.73856 -274.027754 
L 125.4528 -273.648965 
L 126.16704 -273.250105 
L 126.88128 -272.830409 
L 127.59552 -272.389105 
L 128.30976 -271.92541 
L 129.024 -271.438536 
L 129.73824 -270.927688 
L 130.45248 -270.392068 
L 131.16672 -269.830875 
L 131.88096 -269.243308 
L 132.5952 -268.628564 
L 133.30944 -267.985847 
L 134.02368 -267.31436 
L 134.73792 -266.613317 
L 135.45216 -265.881939 
L 136.1664 -265.119455 
L 136.88064 -264.32511 
L 137.59488 -263.498162 
L 138.30912 -262.637886 
L 139.02336 -261.743575 
L 139.7376 -260.814547 
L 140.45184 -259.85014 
L 141.16608 -258.849721 
L 141.88032 -257.812682 
L 142.59456 -256.738451 
L 143.3088 -255.626483 
L 144.02304 -254.476274 
L 144.73728 -253.287356 
L 145.45152 -252.059299 
L 146.16576 -250.791719 
L 146.88 -249.484274 
L 147.59424 -248.13667 
L 148.30848 -246.748662 
L 149.02272 -245.320055 
L 149.73696 -243.850707 
L 150.4512 -242.340532 
L 151.16544 -240.789497 
L 151.87968 -239.19763 
L 152.59392 -237.565018 
L 153.30816 -235.891807 
L 154.0224 -234.178205 
L 154.73664 -232.424486 
L 155.45088 -230.630983 
L 156.16512 -228.798098 
L 156.87936 -226.926294 
L 157.5936 -225.016104 
L 158.30784 -223.068122 
L 159.02208 -221.08301 
L 159.73632 -219.061496 
L 160.45056 -217.004372 
L 161.1648 -214.912495 
L 161.87904 -212.786785 
L 162.59328 -210.628226 
L 163.30752 -208.437864 
L 164.02176 -206.216803 
L 164.736 -203.966208 
L 165.45024 -201.6873 
L 166.16448 -199.381357 
L 166.87872 -197.049707 
L 167.59296 -194.693732 
L 168.3072 -192.31486 
L 169.02144 -189.914566 
L 169.73568 -187.494368 
L 170.44992 -185.055824 
L 171.16416 -182.600529 
L 171.8784 -180.130112 
L 172.59264 -177.646233 
L 173.30688 -175.15058 
L 174.02112 -172.644862 
L 174.73536 -170.130812 
L 175.4496 -167.610177 
L 176.16384 -165.084718 
L 176.87808 -162.556206 
L 177.59232 -160.026415 
L 178.30656 -157.497125 
L 179.0208 -154.970109 
L 179.73504 -152.447137 
L 180.44928 -149.92997 
L 181.16352 -147.420354 
L 181.87776 -144.920018 
L 182.592 -142.430673 
L 183.30624 -139.954002 
L 184.02048 -137.491665 
L 184.73472 -135.045287 
L 185.44896 -132.616461 
L 186.1632 -130.206743 
L 186.87744 -127.817649 
L 187.59168 -125.450651 
L 188.30592 -123.107176 
L 189.02016 -120.788601 
L 189.7344 -118.496257 
L 190.44864 -116.231417 
L 191.16288 -113.995302 
L 191.87712 -111.789077 
L 192.59136 -109.613846 
L 193.3056 -107.470656 
L 194.01984 -105.360491 
L 194.73408 -103.284274 
L 195.44832 -101.242865 
L 196.16256 -99.23706 
L 196.8768 -97.26759 
L 197.59104 -95.335123 
L 198.30528 -93.440262 
L 199.01952 -91.583544 
L 199.73376 -89.765444 
L 200.448 -87.98637 
L 201.16224 -86.24667 
L 201.87648 -84.546626 
L 202.59072 -82.886461 
L 203.30496 -81.266336 
L 204.0192 -79.686353 
L 204.73344 -78.146555 
L 205.44768 -76.646929 
L 206.16192 -75.187408 
L 206.87616 -73.767868 
L 207.5904 -72.388138 
L 208.30464 -71.047993 
L 209.01888 -69.747163 
L 209.73312 -68.485331 
L 210.44736 -67.262137 
L 211.1616 -66.077179 
L 211.87584 -64.930015 
L 212.59008 -63.820168 
L 213.30432 -62.747124 
L 214.01856 -61.710336 
L 214.7328 -60.70923 
L 215.44704 -59.743201 
L 216.16128 -58.81162 
L 216.87552 -57.913833 
L 217.58976 -57.049165 
L 218.304 -56.216924 
L 219.01824 -55.416399 
L 219.73248 -54.646866 
L 220.44672 -53.907588 
L 221.16096 -53.197815 
L 221.8752 -52.516792 
L 222.58944 -51.863756 
L 223.30368 -51.23794 
L 224.01792 -50.638571 
L 224.73216 -50.064879 
L 225.4464 -49.516091 
L 226.16064 -48.991438 
L 226.87488 -48.490154 
L 227.58912 -48.011477 
L 228.30336 -47.554652 
L 229.0176 -47.11893 
L 229.73184 -46.703573 
L 230.44608 -46.307851 
L 231.16032 -45.931045 
L 231.87456 -45.572446 
L 232.5888 -45.23136 
L 233.30304 -44.907105 
L 234.01728 -44.599013 
L 234.73152 -44.306429 
L 235.44576 -44.028714 
L 236.16 -43.765246 
L 236.87424 -43.515416 
L 237.58848 -43.278633 
L 238.30272 -43.054321 
L 239.01696 -42.841922 
L 239.7312 -42.640895 
L 240.44544 -42.450714 
L 241.15968 -42.270871 
L 241.87392 -42.100875 
L 242.58816 -41.940251 
L 243.3024 -41.788543 
L 244.01664 -41.645308 
L 244.73088 -41.510123 
L 245.44512 -41.382579 
L 246.15936 -41.262285 
L 246.8736 -41.148862 
L 247.58784 -41.041951 
L 248.30208 -40.941205 
L 249.01632 -40.846293 
L 249.73056 -40.756899 
L 250.4448 -40.672721 
L 251.15904 -40.593468 
L 251.87328 -40.518867 
L 252.58752 -40.448655 
L 253.30176 -40.382581 
L 254.016 -40.320409 
L 254.73024 -40.261912 
L 255.44448 -40.206877 
L 256.15872 -40.155098 
L 256.87296 -40.106384 
L 257.5872 -40.060551 
L 258.30144 -40.017426 
L 259.01568 -39.976846 
L 259.72992 -39.938655 
L 260.44416 -39.902708 
L 261.1584 -39.868866 
L 261.87264 -39.836998 
L 262.58688 -39.806982 
L 263.30112 -39.778703 
L 264.01536 -39.752051 
L 264.7296 -39.726923 
L 265.44384 -39.703224 
L 266.15808 -39.680862 
L 266.87232 -39.659753 
L 267.58656 -39.639816 
L 268.3008 -39.620977 
L 269.01504 -39.603166 
L 269.72928 -39.586316 
L 270.44352 -39.570365 
L 271.15776 -39.555257 
L 271.872 -39.540936 
L 272.58624 -39.527352 
L 273.30048 -39.514458 
L 274.01472 -39.50221 
L 274.72896 -39.490566 
L 275.4432 -39.479488 
L 276.15744 -39.468939 
L 276.87168 -39.458885 
L 277.58592 -39.449296 
L 278.30016 -39.440142 
L 279.0144 -39.431395 
L 279.72864 -39.42303 
L 280.44288 -39.415022 
L 281.15712 -39.40735 
L 281.87136 -39.399993 
L 282.5856 -39.392931 
L 283.29984 -39.386146 
L 284.01408 -39.379621 
L 284.72832 -39.37334 
L 285.44256 -39.367288 
L 286.1568 -39.361451 
L 286.87104 -39.355817 
L 287.58528 -39.350372 
L 288.29952 -39.345106 
L 289.01376 -39.340008 
L 289.728 -39.335067 
L 290.44224 -39.330274 
L 291.15648 -39.325619 
L 291.87072 -39.321095 
L 292.58496 -39.316692 
L 293.2992 -39.312403 
L 294.01344 -39.308221 
L 294.72768 -39.304137 
L 295.44192 -39.300146 
L 296.15616 -39.29624 
L 296.8704 -39.292413 
L 297.58464 -39.288658 
L 298.29888 -39.28497 
L 299.01312 -39.28134 
L 299.72736 -39.277765 
L 300.4416 -39.274236 
L 301.15584 -39.270747 
L 301.87008 -39.267293 
L 302.58432 -39.263867 
L 303.29856 -39.260461 
L 304.0128 -39.25707 
L 304.72704 -39.253684 
L 305.44128 -39.250298 
L 306.15552 -39.246902 
L 306.86976 -39.24349 
L 307.584 -39.240051 
L 308.29824 -39.236576 
L 309.01248 -39.233056 
L 309.72672 -39.229479 
L 310.44096 -39.225835 
L 311.1552 -39.222111 
L 311.86944 -39.218295 
L 312.58368 -39.214372 
L 313.29792 -39.210327 
L 314.01216 -39.206144 
L 314.7264 -39.201806 
L 315.44064 -39.197294 
L 316.15488 -39.192588 
L 316.86912 -39.187667 
L 317.58336 -39.182507 
L 318.2976 -39.177085 
L 319.01184 -39.171372 
L 319.72608 -39.165342 
L 320.44032 -39.158963 
L 321.15456 -39.152205 
L 321.8688 -39.145032 
L 322.58304 -39.137408 
L 323.29728 -39.129297 
L 324.01152 -39.120657 
L 324.72576 -39.111447 
L 325.44 -39.101625 
L 326.15424 -39.091145 
L 326.86848 -39.079961 
L 327.58272 -39.068028 
L 328.29696 -39.055299 
L 329.0112 -39.041726 
L 329.72544 -39.027265 
L 330.43968 -39.011873 
L 331.15392 -38.995507 
L 331.86816 -38.978131 
L 332.5824 -38.959714 
L 333.29664 -38.940227 
L 334.01088 -38.919653 
L 334.72512 -38.897981 
L 335.43936 -38.875212 
L 336.1536 -38.851356 
L 336.86784 -38.82644 
L 337.58208 -38.800499 
L 338.29632 -38.773588 
L 339.01056 -38.745776 
L 339.7248 -38.717144 
L 340.43904 -38.687794 
L 341.15328 -38.657838 
L 341.86752 -38.627405 
L 342.58176 -38.596634 
L 343.296 -38.565673 
L 344.01024 -38.534679 
L 344.72448 -38.503812 
L 345.43872 -38.473234 
L 346.15296 -38.443104 
L 346.8672 -38.413577 
L 347.58144 -38.384798 
L 348.29568 -38.3569 
L 349.00992 -38.330004 
L 349.72416 -38.304214 
L 350.4384 -38.279618 
L 351.15264 -38.256284 
L 351.86688 -38.234264 
L 352.58112 -38.213589 
L 353.29536 -38.194276 
L 354.0096 -38.176323 
L 354.72384 -38.159714 
L 355.43808 -38.14442 
L 356.15232 -38.1304 
L 356.86656 -38.117605 
L 357.5808 -38.105976 
L 358.29504 -38.095452 
L 359.00928 -38.085964 
L 359.72352 -38.077443 
L 360.43776 -38.069819 
L 361.152 -38.063022 
L 361.86624 -38.056982 
L 362.58048 -38.051633 
L 363.29472 -38.04691 
L 364.00896 -38.042754 
L 364.7232 -38.039106 
L 365.43744 -38.035913 
L 366.15168 -38.033127 
L 366.86592 -38.030701 
L 367.58016 -38.028595 
L 368.2944 -38.026771 
L 369.00864 -38.025194 
L 369.72288 -38.023834 
L 370.43712 -38.022664 
L 371.15136 -38.02166 
L 371.8656 -38.020799 
L 372.57984 -38.020062 
L 373.29408 -38.019434 
L 374.00832 -38.018898 
L 374.72256 -38.018442 
L 375.4368 -38.018055 
L 376.15104 -38.017727 
L 376.86528 -38.01745 
L 377.57952 -38.017215 
L 378.29376 -38.017017 
L 379.008 -38.01685 
L 379.72224 -38.01671 
L 380.43648 -38.016592 
L 381.15072 -38.016493 
L 381.86496 -38.01641 
L 382.5792 -38.016341 
L 383.29344 -38.016283 
L 384.00768 -38.016235 
L 384.72192 -38.016194 
L 385.43616 -38.016161 
L 386.1504 -38.016133 
L 386.86464 -38.01611 
L 387.57888 -38.01609 
L 388.29312 -38.016074 
L 389.00736 -38.016061 
L 389.7216 -38.01605 
L 390.43584 -38.016041 
L 391.15008 -38.016034 
L 391.86432 -38.016028 
L 392.57856 -38.016023 
L 393.2928 -38.016019 
L 394.00704 -38.016015 
L 394.72128 -38.016012 
L 395.43552 -38.01601 
L 396.14976 -38.016008 
L 396.864 -38.016007 
L 397.57824 -38.016005 
L 398.29248 -38.016004 
L 399.00672 -38.016004 
L 399.72096 -38.016003 
L 400.4352 -38.016002 
L 401.14944 -38.016002 
L 401.86368 -38.016002 
L 402.57792 -38.016001 
L 403.29216 -38.016001 
L 404.0064 -38.016001 
L 404.72064 -38.016001 
L 405.43488 -38.016001 
L 406.14912 -38.016 
L 406.86336 -38.016 
L 407.5776 -38.016 
L 408.29184 -38.016 
L 409.00608 -38.016 
L 409.72032 -38.016 
L 410.43456 -38.016 
L 411.1488 -38.016 
L 411.86304 -38.016 
L 412.57728 -38.016 
L 413.29152 -38.016 
L 414.00576 -38.016 
L 414.72 -38.016 
L 414.72 -38.016015 
L 414.72 -38.016015 
L 414.00576 -38.016016 
L 413.29152 -38.016017 
L 412.57728 -38.016019 
L 411.86304 -38.016023 
L 411.1488 -38.016027 
L 410.43456 -38.016033 
L 409.72032 -38.01604 
L 409.00608 -38.016049 
L 408.29184 -38.01606 
L 407.5776 -38.016075 
L 406.86336 -38.016092 
L 406.14912 -38.016114 
L 405.43488 -38.016141 
L 404.72064 -38.016174 
L 404.0064 -38.016215 
L 403.29216 -38.016266 
L 402.57792 -38.016328 
L 401.86368 -38.016404 
L 401.14944 -38.016497 
L 400.4352 -38.016612 
L 399.72096 -38.016752 
L 399.00672 -38.016923 
L 398.29248 -38.017133 
L 397.57824 -38.017389 
L 396.864 -38.017702 
L 396.14976 -38.018083 
L 395.43552 -38.018547 
L 394.72128 -38.019112 
L 394.00704 -38.019798 
L 393.2928 -38.020631 
L 392.57856 -38.021642 
L 391.86432 -38.022867 
L 391.15008 -38.024351 
L 390.43584 -38.026144 
L 389.7216 -38.028311 
L 389.00736 -38.030927 
L 388.29312 -38.03408 
L 387.57888 -38.037877 
L 386.86464 -38.042444 
L 386.1504 -38.047933 
L 385.43616 -38.054521 
L 384.72192 -38.062419 
L 384.00768 -38.071876 
L 383.29344 -38.083188 
L 382.5792 -38.096701 
L 381.86496 -38.112824 
L 381.15072 -38.132036 
L 380.43648 -38.1549 
L 379.72224 -38.182075 
L 379.008 -38.21433 
L 378.29376 -38.252561 
L 377.57952 -38.297811 
L 376.86528 -38.351293 
L 376.15104 -38.414409 
L 375.4368 -38.488781 
L 374.72256 -38.576279 
L 374.00832 -38.679052 
L 373.29408 -38.799565 
L 372.57984 -38.940638 
L 371.8656 -39.105485 
L 371.15136 -39.297756 
L 370.43712 -39.52159 
L 369.72288 -39.781652 
L 369.00864 -40.083191 
L 368.2944 -40.432081 
L 367.58016 -40.834872 
L 366.86592 -41.29883 
L 366.15168 -41.831978 
L 365.43744 -42.443125 
L 364.7232 -43.141888 
L 364.00896 -43.938697 
L 363.29472 -44.844792 
L 362.58048 -45.872188 
L 361.86624 -47.033624 
L 361.152 -48.342484 
L 360.43776 -49.812686 
L 359.72352 -51.458531 
L 359.00928 -53.294522 
L 358.29504 -55.335143 
L 357.5808 -57.594593 
L 356.86656 -60.086487 
L 356.15232 -62.823521 
L 355.43808 -65.817105 
L 354.72384 -69.076981 
L 354.0096 -72.61082 
L 353.29536 -76.423832 
L 352.58112 -80.518387 
L 351.86688 -84.893672 
L 351.15264 -89.545403 
L 350.4384 -94.465609 
L 349.72416 -99.642498 
L 349.00992 -105.06043 
L 348.29568 -110.700005 
L 347.58144 -116.538265 
L 346.8672 -122.549015 
L 346.15296 -128.703253 
L 345.43872 -134.969708 
L 344.72448 -141.315439 
L 344.01024 -147.706507 
L 343.296 -154.10866 
L 342.58176 -160.488026 
L 341.86752 -166.811773 
L 341.15328 -173.04871 
L 340.43904 -179.169823 
L 339.7248 -185.148705 
L 339.01056 -190.961893 
L 338.29632 -196.589092 
L 337.58208 -202.0133 
L 336.86784 -207.220828 
L 336.1536 -212.201238 
L 335.43936 -216.947202 
L 334.72512 -221.454303 
L 334.01088 -225.720789 
L 333.29664 -229.747302 
L 332.5824 -233.53658 
L 331.86816 -237.093169 
L 331.15392 -240.423121 
L 330.43968 -243.533721 
L 329.72544 -246.433223 
L 329.0112 -249.13061 
L 328.29696 -251.635376 
L 327.58272 -253.957342 
L 326.86848 -256.106487 
L 326.15424 -258.092808 
L 325.44 -259.926205 
L 324.72576 -261.616388 
L 324.01152 -263.172794 
L 323.29728 -264.604534 
L 322.58304 -265.920347 
L 321.8688 -267.128572 
L 321.15456 -268.237121 
L 320.44032 -269.253476 
L 319.72608 -270.184684 
L 319.01184 -271.037354 
L 318.2976 -271.817675 
L 317.58336 -272.531419 
L 316.86912 -273.183961 
L 316.15488 -273.780293 
L 315.44064 -274.325045 
L 314.7264 -274.822498 
L 314.01216 -275.276611 
L 313.29792 -275.691036 
L 312.58368 -276.069137 
L 311.86944 -276.414013 
L 311.1552 -276.72851 
L 310.44096 -277.015245 
L 309.72672 -277.276617 
L 309.01248 -277.514829 
L 308.29824 -277.731898 
L 307.584 -277.929671 
L 306.86976 -278.10984 
L 306.15552 -278.27395 
L 305.44128 -278.423417 
L 304.72704 -278.559532 
L 304.0128 -278.683477 
L 303.29856 -278.79633 
L 302.58432 -278.899074 
L 301.87008 -278.992609 
L 301.15584 -279.077754 
L 300.4416 -279.155257 
L 299.72736 -279.225799 
L 299.01312 -279.290003 
L 298.29888 -279.348434 
L 297.58464 -279.401609 
L 296.8704 -279.45 
L 296.15616 -279.494034 
L 295.44192 -279.534102 
L 294.72768 -279.57056 
L 294.01344 -279.603733 
L 293.2992 -279.633915 
L 292.58496 -279.661376 
L 291.87072 -279.686359 
L 291.15648 -279.709089 
L 290.44224 -279.729767 
L 289.728 -279.748578 
L 289.01376 -279.765691 
L 288.29952 -279.781258 
L 287.58528 -279.79542 
L 286.87104 -279.808301 
L 286.1568 -279.820019 
L 285.44256 -279.830678 
L 284.72832 -279.840373 
L 284.01408 -279.849191 
L 283.29984 -279.857212 
L 282.5856 -279.864508 
L 281.87136 -279.871144 
L 281.15712 -279.877179 
L 280.44288 -279.882668 
L 279.72864 -279.887661 
L 279.0144 -279.892201 
L 278.30016 -279.896331 
L 277.58592 -279.900086 
L 276.87168 -279.903502 
L 276.15744 -279.906608 
L 275.4432 -279.909433 
L 274.72896 -279.912001 
L 274.01472 -279.914338 
L 273.30048 -279.916462 
L 272.58624 -279.918394 
L 271.872 -279.920151 
L 271.15776 -279.921748 
L 270.44352 -279.923201 
L 269.72928 -279.924522 
L 269.01504 -279.925723 
L 268.3008 -279.926815 
L 267.58656 -279.927808 
L 266.87232 -279.928711 
L 266.15808 -279.929532 
L 265.44384 -279.930278 
L 264.7296 -279.930957 
L 264.01536 -279.931574 
L 263.30112 -279.932135 
L 262.58688 -279.932645 
L 261.87264 -279.933109 
L 261.1584 -279.933531 
L 260.44416 -279.933914 
L 259.72992 -279.934263 
L 259.01568 -279.934579 
L 258.30144 -279.934867 
L 257.5872 -279.935129 
L 256.87296 -279.935367 
L 256.15872 -279.935584 
L 255.44448 -279.93578 
L 254.73024 -279.935959 
L 254.016 -279.936122 
L 253.30176 -279.93627 
L 252.58752 -279.936404 
L 251.87328 -279.936526 
L 251.15904 -279.936637 
L 250.4448 -279.936738 
L 249.73056 -279.936829 
L 249.01632 -279.936913 
L 248.30208 -279.936988 
L 247.58784 -279.937057 
L 246.8736 -279.93712 
L 246.15936 -279.937177 
L 245.44512 -279.937228 
L 244.73088 -279.937275 
L 244.01664 -279.937318 
L 243.3024 -279.937357 
L 242.58816 -279.937392 
L 241.87392 -279.937424 
L 241.15968 -279.937453 
L 240.44544 -279.93748 
L 239.7312 -279.937504 
L 239.01696 -279.937525 
L 238.30272 -279.937545 
L 237.58848 -279.937563 
L 236.87424 -279.93758 
L 236.16 -279.937595 
L 235.44576 -279.937608 
L 234.73152 -279.93762 
L 234.01728 -279.937632 
L 233.30304 -279.937642 
L 232.5888 -279.937651 
L 231.87456 -279.937659 
L 231.16032 -279.937667 
L 230.44608 -279.937674 
L 229.73184 -279.93768 
L 229.0176 -279.937686 
L 228.30336 -279.937691 
L 227.58912 -279.937696 
L 226.87488 -279.9377 
L 226.16064 -279.937704 
L 225.4464 -279.937707 
L 224.73216 -279.937711 
L 224.01792 -279.937713 
L 223.30368 -279.937716 
L 222.58944 -279.937718 
L 221.8752 -279.937721 
L 221.16096 -279.937723 
L 220.44672 -279.937724 
L 219.73248 -279.937726 
L 219.01824 -279.937728 
L 218.304 -279.937729 
L 217.58976 -279.93773 
L 216.87552 -279.937731 
L 216.16128 -279.937732 
L 215.44704 -279.937733 
L 214.7328 -279.937734 
L 214.01856 -279.937735 
L 213.30432 -279.937735 
L 212.59008 -279.937736 
L 211.87584 -279.937737 
L 211.1616 -279.937737 
L 210.44736 -279.937738 
L 209.73312 -279.937738 
L 209.01888 -279.937738 
L 208.30464 -279.937739 
L 207.5904 -279.937739 
L 206.87616 -279.937739 
L 206.16192 -279.93774 
L 205.44768 -279.93774 
L 204.73344 -279.93774 
L 204.0192 -279.93774 
L 203.30496 -279.93774 
L 202.59072 -279.937741 
L 201.87648 -279.937741 
L 201.16224 -279.937741 
L 200.448 -279.937741 
L 199.73376 -279.937741 
L 199.01952 -279.937741 
L 198.30528 -279.937741 
L 197.59104 -279.937741 
L 196.8768 -279.937741 
L 196.16256 -279.937741 
L 195.44832 -279.937742 
L 194.73408 -279.937742 
L 194.01984 -279.937742 
L 193.3056 -279.937742 
L 192.59136 -279.937742 
L 191.87712 -279.937742 
L 191.16288 -279.937742 
L 190.44864 -279.937742 
L 189.7344 -279.937742 
L 189.02016 -279.937742 
L 188.30592 -279.937742 
L 187.59168 -279.937742 
L 186.87744 -279.937742 
L 186.1632 -279.937742 
L 185.44896 -279.937742 
L 184.73472 -279.937742 
L 184.02048 -279.937742 
L 183.30624 -279.937742 
L 182.592 -279.937742 
L 181.87776 -279.937742 
L 181.16352 -279.937742 
L 180.44928 -279.937742 
L 179.73504 -279.937742 
L 179.0208 -279.937742 
L 178.30656 -279.937742 
L 177.59232 -279.937742 
L 176.87808 -279.937742 
L 176.16384 -279.937742 
L 175.4496 -279.937742 
L 174.73536 -279.937742 
L 174.02112 -279.937742 
L 173.30688 -279.937742 
L 172.59264 -279.937742 
L 171.8784 -279.937742 
L 171.16416 -279.937742 
L 170.44992 -279.937742 
L 169.73568 -279.937742 
L 169.02144 -279.937742 
L 168.3072 -279.937742 
L 167.59296 -279.937742 
L 166.87872 -279.937742 
L 166.16448 -279.937742 
L 165.45024 -279.937742 
L 164.736 -279.937742 
L 164.02176 -279.937742 
L 163.30752 -279.937742 
L 162.59328 -279.937742 
L 161.87904 -279.937742 
L 161.1648 -279.937742 
L 160.45056 -279.937742 
L 159.73632 -279.937742 
L 159.02208 -279.937742 
L 158.30784 -279.937742 
L 157.5936 -279.937742 
L 156.87936 -279.937742 
L 156.16512 -279.937742 
L 155.45088 -279.937742 
L 154.73664 -279.937742 
L 154.0224 -279.937742 
L 153.30816 -279.937742 
L 152.59392 -279.937742 
L 151.87968 -279.937742 
L 151.16544 -279.937742 
L 150.4512 -279.937742 
L 149.73696 -279.937742 
L 149.02272 -279.937742 
L 148.30848 -279.937742 
L 147.59424 -279.937742 
L 146.88 -279.937742 
L 146.16576 -279.937742 
L 145.45152 -279.937742 
L 144.73728 -279.937742 
L 144.02304 -279.937742 
L 143.3088 -279.937742 
L 142.59456 -279.937742 
L 141.88032 -279.937742 
L 141.16608 -279.937742 
L 140.45184 -279.937742 
L 139.7376 -279.937742 
L 139.02336 -279.937742 
L 138.30912 -279.937742 
L 137.59488 -279.937742 
L 136.88064 -279.937742 
L 136.1664 -279.937742 
L 135.45216 -279.937742 
L 134.73792 -279.937742 
L 134.02368 -279.937742 
L 133.30944 -279.937742 
L 132.5952 -279.937742 
L 131.88096 -279.937742 
L 131.16672 -279.937742 
L 130.45248 -279.937742 
L 129.73824 -279.937742 
L 129.024 -279.937742 
L 128.30976 -279.937742 
L 127.59552 -279.937742 
L 126.88128 -279.937742 
L 126.16704 -279.937742 
L 125.4528 -279.937742 
L 124.73856 -279.937742 
L 124.02432 -279.937742 
L 123.31008 -279.937742 
L 122.59584 -279.937742 
L 121.8816 -279.937742 
L 121.16736 -279.937742 
L 120.45312 -279.937742 
L 119.73888 -279.937742 
L 119.02464 -279.937742 
L 118.3104 -279.937742 
L 117.59616 -279.937742 
L 116.88192 -279.937742 
L 116.16768 -279.937742 
L 115.45344 -279.937742 
L 114.7392 -279.937742 
L 114.02496 -279.937742 
L 113.31072 -279.937742 
L 112.59648 -279.937742 
L 111.88224 -279.937742 
L 111.168 -279.937742 
L 110.45376 -279.937742 
L 109.73952 -279.937742 
L 109.02528 -279.937742 
L 108.31104 -279.937742 
L 107.5968 -279.937742 
L 106.88256 -279.937742 
L 106.16832 -279.937742 
L 105.45408 -279.937742 
L 104.73984 -279.937742 
L 104.0256 -279.937742 
L 103.31136 -279.937742 
L 102.59712 -279.937742 
L 101.88288 -279.937742 
L 101.16864 -279.937742 
L 100.4544 -279.937742 
L 99.74016 -279.937742 
L 99.02592 -279.937742 
L 98.31168 -279.937742 
L 97.59744 -279.937742 
L 96.8832 -279.937742 
L 96.16896 -279.937742 
L 95.45472 -279.937742 
L 94.74048 -279.937742 
L 94.02624 -279.937742 
L 93.312 -279.937742 
L 92.59776 -279.937742 
L 91.88352 -279.937742 
L 91.16928 -279.937742 
L 90.45504 -279.937742 
L 89.7408 -279.937742 
L 89.02656 -279.937742 
L 88.31232 -279.937742 
L 87.59808 -279.937742 
L 86.88384 -279.937742 
L 86.1696 -279.937742 
L 85.45536 -279.937742 
L 84.74112 -279.937742 
L 84.02688 -279.937742 
L 83.31264 -279.937742 
L 82.5984 -279.937742 
L 81.88416 -279.937742 
L 81.16992 -279.937742 
L 80.45568 -279.937742 
L 79.74144 -279.937742 
L 79.0272 -279.937742 
L 78.31296 -279.937742 
L 77.59872 -279.937742 
L 76.88448 -279.937742 
L 76.17024 -279.937742 
L 75.456 -279.937742 
L 74.74176 -279.937742 
L 74.02752 -279.937742 
L 73.31328 -279.937742 
L 72.59904 -279.937742 
L 71.8848 -279.937742 
L 71.17056 -279.937742 
L 70.45632 -279.937742 
L 69.74208 -279.937742 
L 69.02784 -279.937742 
L 68.3136 -279.937742 
L 67.59936 -279.937742 
L 66.88512 -279.937742 
L 66.17088 -279.937742 
L 65.45664 -279.937742 
L 64.7424 -279.937742 
L 64.02816 -279.937742 
L 63.31392 -279.937742 
L 62.59968 -279.937742 
L 61.88544 -279.937742 
L 61.1712 -279.937742 
L 60.45696 -279.937742 
L 59.74272 -279.937742 
L 59.02848 -279.937742 
L 58.31424 -279.937742 
L 57.6 -279.937742 
z
" id="mfce1500b0a" style="stroke:#afe88e;"/>
    </defs>
    <g clip-path="url(#p97c9b7cdb0)">
     <use style="fill:#afe88e;stroke:#afe88e;" x="0" xlink:href="#mfce1500b0a" y="345.6"/>
    </g>
   </g>
   <g id="line2d_1">
    <path clip-path="url(#p97c9b7cdb0)" d="M 57.6 65.662258 
L 285.44256 65.769322 
L 294.01344 65.996267 
L 299.01312 66.309997 
L 303.29856 66.80367 
L 306.15552 67.32605 
L 309.01248 68.085171 
L 311.1552 68.87149 
L 313.29792 69.908964 
L 315.44064 71.274955 
L 316.86912 72.416039 
L 318.2976 73.782325 
L 319.72608 75.415316 
L 321.15456 77.362879 
L 322.58304 79.679653 
L 324.01152 82.427206 
L 325.44 85.673795 
L 326.86848 89.493513 
L 328.29696 93.964624 
L 329.72544 99.166777 
L 331.15392 105.176879 
L 332.5824 112.06342 
L 334.01088 119.879211 
L 335.43936 128.652798 
L 337.58208 143.5867 
L 339.7248 160.451295 
L 342.58176 185.111974 
L 347.58144 229.061735 
L 349.72416 245.957502 
L 351.86688 260.706328 
L 353.29536 269.176168 
L 354.72384 276.523019 
L 356.15232 282.776479 
L 357.5808 288.005407 
L 359.00928 292.305478 
L 360.43776 295.787314 
L 361.86624 298.566376 
L 363.29472 300.755208 
L 364.7232 302.458112 
L 366.15168 303.768022 
L 367.58016 304.765128 
L 369.00864 305.516809 
L 371.15136 306.302244 
L 373.29408 306.800435 
L 376.15104 307.185591 
L 379.72224 307.417925 
L 386.1504 307.552067 
L 404.72064 307.583826 
L 414.72 307.583985 
L 414.72 307.583985 
" style="fill:none;stroke:#000000;stroke-linecap:square;stroke-width:0.7;"/>
   </g>
   <g id="patch_3">
    <path d="M 57.6 307.584 
L 57.6 41.472 
" style="fill:none;stroke:#000000;stroke-linecap:square;stroke-linejoin:miter;stroke-width:0.8;"/>
   </g>
   <g id="patch_4">
    <path d="M 414.72 307.584 
L 414.72 41.472 
" style="fill:none;stroke:#000000;stroke-linecap:square;stroke-linejoin:miter;stroke-width:0.8;"/>
   </g>
   <g id="patch_5">
    <path d="M 57.6 307.584 
L 414.72 307.584 
" style="fill:none;stroke:#000000;stroke-linecap:square;stroke-linejoin:miter;stroke-width:0.8;"/>
   </g>
   <g id="patch_6">
    <path d="M 57.6 41.472 
L 414.72 41.472 
" style="fill:none;stroke:#000000;stroke-linecap:square;stroke-linejoin:miter;stroke-width:0.8;"/>
   </g>
   <g id="legend_1">
    <g id="patch_7">
     <path d="M 91.90611 34.09119 
L 246.68736 34.09119 
Q 249.08736 34.09119 249.08736 31.69119 
L 249.08736 15.27744 
Q 249.08736 12.87744 246.68736 12.87744 
L 91.90611 12.87744 
Q 89.50611 12.87744 89.50611 15.27744 
L 89.50611 31.69119 
Q 89.50611 34.09119 91.90611 34.09119 
z
" style="fill:#ffffff;opacity:0.8;stroke:#cccccc;stroke-linejoin:miter;"/>
    </g>
    <g id="patch_8">
     <path d="M 94.30611 26.795565 
L 118.30611 26.795565 
L 118.30611 18.395565 
L 94.30611 18.395565 
z
" style="fill:#509369;stroke:#509369;stroke-linejoin:miter;"/>
    </g>
    <g id="text_1">
     <!-- back -->
     <g transform="translate(127.90611 26.795565)scale(0.12 -0.12)">
      <defs>
       <path d="M 11.53125 5.171875 
L 11.53125 70.796875 
L 2.875 70.796875 
L 2.875 75.984375 
L 20.515625 75.984375 
L 20.515625 43.796875 
Q 23.140625 48.6875 27.21875 51 
Q 31.296875 53.328125 37.3125 53.328125 
Q 46.875 53.328125 52.921875 45.75 
Q 58.984375 38.1875 58.984375 25.984375 
Q 58.984375 13.765625 52.921875 6.171875 
Q 46.875 -1.421875 37.3125 -1.421875 
Q 31.296875 -1.421875 27.21875 0.890625 
Q 23.140625 3.21875 20.515625 8.109375 
L 20.515625 0 
L 2.875 0 
L 2.875 5.171875 
z
M 20.515625 23.390625 
Q 20.515625 14.015625 24.09375 9.109375 
Q 27.6875 4.203125 34.515625 4.203125 
Q 41.40625 4.203125 44.9375 9.71875 
Q 48.484375 15.234375 48.484375 25.984375 
Q 48.484375 36.765625 44.9375 42.234375 
Q 41.40625 47.703125 34.515625 47.703125 
Q 27.6875 47.703125 24.09375 42.765625 
Q 20.515625 37.84375 20.515625 28.515625 
z
" id="DejaVuSerif-98"/>
       <path d="M 39.796875 16.3125 
L 39.796875 27.296875 
L 28.21875 27.296875 
Q 21.53125 27.296875 18.25 24.40625 
Q 14.984375 21.53125 14.984375 15.578125 
Q 14.984375 10.15625 18.296875 6.984375 
Q 21.625 3.8125 27.296875 3.8125 
Q 32.90625 3.8125 36.34375 7.28125 
Q 39.796875 10.75 39.796875 16.3125 
z
M 48.78125 32.421875 
L 48.78125 5.171875 
L 56.78125 5.171875 
L 56.78125 0 
L 39.796875 0 
L 39.796875 5.609375 
Q 36.8125 2 32.90625 0.28125 
Q 29 -1.421875 23.78125 -1.421875 
Q 15.140625 -1.421875 10.0625 3.171875 
Q 4.984375 7.765625 4.984375 15.578125 
Q 4.984375 23.640625 10.796875 28.078125 
Q 16.609375 32.515625 27.203125 32.515625 
L 39.796875 32.515625 
L 39.796875 36.078125 
Q 39.796875 42 36.203125 45.234375 
Q 32.625 48.484375 26.125 48.484375 
Q 20.75 48.484375 17.578125 46.046875 
Q 14.40625 43.609375 13.625 38.8125 
L 8.984375 38.8125 
L 8.984375 49.3125 
Q 13.671875 51.3125 18.09375 52.3125 
Q 22.515625 53.328125 26.703125 53.328125 
Q 37.5 53.328125 43.140625 47.96875 
Q 48.78125 42.625 48.78125 32.421875 
z
" id="DejaVuSerif-97"/>
       <path d="M 51.421875 15.578125 
Q 49.515625 7.28125 44.09375 2.921875 
Q 38.671875 -1.421875 30.078125 -1.421875 
Q 18.75 -1.421875 11.859375 6.078125 
Q 4.984375 13.578125 4.984375 25.984375 
Q 4.984375 38.421875 11.859375 45.875 
Q 18.75 53.328125 30.078125 53.328125 
Q 35.015625 53.328125 39.890625 52.171875 
Q 44.78125 51.03125 49.703125 48.6875 
L 49.703125 35.40625 
L 44.484375 35.40625 
Q 43.453125 42.234375 40.015625 45.359375 
Q 36.578125 48.484375 30.171875 48.484375 
Q 22.90625 48.484375 19.1875 42.84375 
Q 15.484375 37.203125 15.484375 25.984375 
Q 15.484375 14.75 19.171875 9.078125 
Q 22.859375 3.421875 30.171875 3.421875 
Q 35.984375 3.421875 39.453125 6.4375 
Q 42.921875 9.46875 44.1875 15.578125 
z
" id="DejaVuSerif-99"/>
       <path d="M 28.609375 0 
L 3.421875 0 
L 3.421875 5.171875 
L 11.53125 5.171875 
L 11.53125 70.796875 
L 2.875 70.796875 
L 2.875 75.984375 
L 20.515625 75.984375 
L 20.515625 26.515625 
L 42.390625 46.6875 
L 34.90625 46.6875 
L 34.90625 51.90625 
L 58.40625 51.90625 
L 58.40625 46.6875 
L 49.515625 46.6875 
L 34.078125 32.421875 
L 53.8125 5.171875 
L 61.28125 5.171875 
L 61.28125 0 
L 35.6875 0 
L 35.6875 5.171875 
L 43.109375 5.171875 
L 27.59375 26.515625 
L 20.515625 19.921875 
L 20.515625 5.171875 
L 28.609375 5.171875 
z
" id="DejaVuSerif-107"/>
      </defs>
      <use xlink:href="#DejaVuSerif-98"/>
      <use x="64.013672" xlink:href="#DejaVuSerif-97"/>
      <use x="123.632812" xlink:href="#DejaVuSerif-99"/>
      <use x="179.638672" xlink:href="#DejaVuSerif-107"/>
     </g>
    </g>
    <g id="patch_9">
     <path d="M 180.734235 26.795565 
L 204.734235 26.795565 
L 204.734235 18.395565 
L 180.734235 18.395565 
z
" style="fill:#afe88e;stroke:#afe88e;stroke-linejoin:miter;"/>
    </g>
    <g id="text_2">
     <!-- front -->
     <g transform="translate(214.334235 26.795565)scale(0.12 -0.12)">
      <defs>
       <path d="M 43.015625 63.71875 
L 38.28125 63.71875 
Q 38.234375 67.390625 36.203125 69.28125 
Q 34.1875 71.1875 30.328125 71.1875 
Q 25.296875 71.1875 23.234375 68.421875 
Q 21.1875 65.671875 21.1875 58.59375 
L 21.1875 51.90625 
L 35.6875 51.90625 
L 35.6875 46.6875 
L 21.1875 46.6875 
L 21.1875 5.171875 
L 32.71875 5.171875 
L 32.71875 0 
L 3.609375 0 
L 3.609375 5.171875 
L 12.203125 5.171875 
L 12.203125 46.6875 
L 3.609375 46.6875 
L 3.609375 51.90625 
L 12.203125 51.90625 
L 12.203125 58.40625 
Q 12.203125 67.09375 16.71875 71.53125 
Q 21.234375 75.984375 29.984375 75.984375 
Q 33.25 75.984375 36.515625 75.390625 
Q 39.796875 74.8125 43.015625 73.578125 
z
" id="DejaVuSerif-102"/>
       <path d="M 47.796875 52 
L 47.796875 39.015625 
L 42.625 39.015625 
Q 42.390625 42.875 40.484375 44.78125 
Q 38.578125 46.6875 34.90625 46.6875 
Q 28.265625 46.6875 24.71875 42.09375 
Q 21.1875 37.5 21.1875 28.90625 
L 21.1875 5.171875 
L 31.59375 5.171875 
L 31.59375 0 
L 4.109375 0 
L 4.109375 5.171875 
L 12.203125 5.171875 
L 12.203125 46.78125 
L 3.609375 46.78125 
L 3.609375 51.90625 
L 21.1875 51.90625 
L 21.1875 42.671875 
Q 23.828125 48.09375 27.96875 50.703125 
Q 32.125 53.328125 38.09375 53.328125 
Q 40.28125 53.328125 42.703125 52.984375 
Q 45.125 52.640625 47.796875 52 
z
" id="DejaVuSerif-114"/>
       <path d="M 30.078125 3.421875 
Q 37.3125 3.421875 40.984375 9.125 
Q 44.671875 14.84375 44.671875 25.984375 
Q 44.671875 37.109375 40.984375 42.796875 
Q 37.3125 48.484375 30.078125 48.484375 
Q 22.859375 48.484375 19.171875 42.796875 
Q 15.484375 37.109375 15.484375 25.984375 
Q 15.484375 14.84375 19.1875 9.125 
Q 22.90625 3.421875 30.078125 3.421875 
z
M 30.078125 -1.421875 
Q 18.75 -1.421875 11.859375 6.078125 
Q 4.984375 13.578125 4.984375 25.984375 
Q 4.984375 38.375 11.84375 45.84375 
Q 18.703125 53.328125 30.078125 53.328125 
Q 41.453125 53.328125 48.3125 45.84375 
Q 55.171875 38.375 55.171875 25.984375 
Q 55.171875 13.578125 48.3125 6.078125 
Q 41.453125 -1.421875 30.078125 -1.421875 
z
" id="DejaVuSerif-111"/>
       <path d="M 4.109375 0 
L 4.109375 5.171875 
L 12.203125 5.171875 
L 12.203125 46.6875 
L 3.609375 46.6875 
L 3.609375 51.90625 
L 21.1875 51.90625 
L 21.1875 42.671875 
Q 23.6875 47.953125 27.65625 50.640625 
Q 31.640625 53.328125 36.921875 53.328125 
Q 45.515625 53.328125 49.5625 48.390625 
Q 53.609375 43.453125 53.609375 33.015625 
L 53.609375 5.171875 
L 61.625 5.171875 
L 61.625 0 
L 36.8125 0 
L 36.8125 5.171875 
L 44.578125 5.171875 
L 44.578125 30.171875 
Q 44.578125 39.703125 42.234375 43.234375 
Q 39.890625 46.78125 33.984375 46.78125 
Q 27.734375 46.78125 24.453125 42.203125 
Q 21.1875 37.640625 21.1875 28.90625 
L 21.1875 5.171875 
L 29 5.171875 
L 29 0 
z
" id="DejaVuSerif-110"/>
       <path d="M 10.796875 46.6875 
L 2.875 46.6875 
L 2.875 51.90625 
L 10.796875 51.90625 
L 10.796875 68.015625 
L 19.828125 68.015625 
L 19.828125 51.90625 
L 36.71875 51.90625 
L 36.71875 46.6875 
L 19.828125 46.6875 
L 19.828125 13.71875 
Q 19.828125 7.125 21.09375 5.265625 
Q 22.359375 3.421875 25.78125 3.421875 
Q 29.296875 3.421875 30.90625 5.484375 
Q 32.515625 7.5625 32.625 12.203125 
L 39.40625 12.203125 
Q 39.015625 5.125 35.546875 1.84375 
Q 32.078125 -1.421875 25 -1.421875 
Q 17.234375 -1.421875 14.015625 2.015625 
Q 10.796875 5.46875 10.796875 13.71875 
z
" id="DejaVuSerif-116"/>
      </defs>
      <use xlink:href="#DejaVuSerif-102"/>
      <use x="37.011719" xlink:href="#DejaVuSerif-114"/>
      <use x="84.814453" xlink:href="#DejaVuSerif-111"/>
      <use x="145.019531" xlink:href="#DejaVuSerif-110"/>
      <use x="209.423828" xlink:href="#DejaVuSerif-116"/>
     </g>
    </g>
   </g>
  </g>
 </g>
 <defs>
  <clipPath id="p97c9b7cdb0">
   <rect height="266.112" width="357.12" x="57.6" y="41.472"/>
  </clipPath>
 </defs>
</svg>
