<?xml version="1.0" encoding="utf-8" standalone="no"?>
<!DOCTYPE svg PUBLIC "-//W3C//DTD SVG 1.1//EN"
  "http://www.w3.org/Graphics/SVG/1.1/DTD/svg11.dtd">
<!-- Created with matplotlib (https://matplotlib.org/) -->
<svg height="345.6pt" version="1.1" viewBox="0 0 460.8 345.6" width="460.8pt" xmlns="http://www.w3.org/2000/svg" xmlns:xlink="http://www.w3.org/1999/xlink">
 <metadata>
  <rdf:RDF xmlns:cc="http://creativecommons.org/ns#" xmlns:dc="http://purl.org/dc/elements/1.1/" xmlns:rdf="http://www.w3.org/1999/02/22-rdf-syntax-ns#">
   <cc:Work>
    <dc:type rdf:resource="http://purl.org/dc/dcmitype/StillImage"/>
    <dc:date>2023-01-24T13:47:07.740026</dc:date>
    <dc:format>image/svg+xml</dc:format>
    <dc:creator>
     <cc:Agent>
      <dc:title>Matplotlib v3.3.4, https://matplotlib.org/</dc:title>
     </cc:Agent>
    </dc:creator>
   </cc:Work>
  </rdf:RDF>
 </metadata>
 <defs>
  <style type="text/css">*{stroke-linecap:butt;stroke-linejoin:round;}</style>
 </defs>
 <g id="figure_1">
  <g id="patch_1">
   <path d="M 0 345.6 
L 460.8 345.6 
L 460.8 0 
L 0 0 
z
" style="fill:#ffffff;"/>
  </g>
  <g id="axes_1">
   <g id="patch_2">
    <path d="M 57.6 307.584 
L 414.72 307.584 
L 414.72 41.472 
L 57.6 41.472 
z
" style="fill:#ffffff;"/>
   </g>
   <g id="matplotlib.axis_1">
    <g id="xtick_1">
     <g id="line2d_1">
      <defs>
       <path d="M 0 0 
L 0 3.5 
" id="mc0eb744ad0" style="stroke:#000000;stroke-width:0.8;"/>
      </defs>
      <g>
       <use style="stroke:#000000;stroke-width:0.8;" x="65.294402" xlink:href="#mc0eb744ad0" y="307.584"/>
      </g>
     </g>
     <g id="text_1">
      <!-- 75 -->
      <g transform="translate(58.931902 322.182437)scale(0.1 -0.1)">
       <defs>
        <path d="M 56.390625 67.921875 
L 27.875 0 
L 20.609375 0 
L 47.796875 64.890625 
L 14.109375 64.890625 
L 14.109375 55.90625 
L 8.40625 55.90625 
L 8.40625 72.90625 
L 56.390625 72.90625 
z
" id="DejaVuSerif-55"/>
        <path d="M 50.296875 72.90625 
L 50.296875 64.890625 
L 16.890625 64.890625 
L 16.890625 44 
Q 19.4375 45.75 22.828125 46.625 
Q 26.21875 47.515625 30.421875 47.515625 
Q 42.234375 47.515625 49.0625 40.96875 
Q 55.90625 34.421875 55.90625 23.09375 
Q 55.90625 11.53125 49 5.046875 
Q 42.09375 -1.421875 29.59375 -1.421875 
Q 24.5625 -1.421875 19.28125 -0.1875 
Q 14.015625 1.03125 8.5 3.515625 
L 8.5 17.671875 
L 14.015625 17.671875 
Q 14.453125 10.75 18.421875 7.078125 
Q 22.40625 3.421875 29.59375 3.421875 
Q 37.3125 3.421875 41.453125 8.5 
Q 45.609375 13.578125 45.609375 23.09375 
Q 45.609375 32.5625 41.484375 37.609375 
Q 37.359375 42.671875 29.59375 42.671875 
Q 25.203125 42.671875 21.84375 41.109375 
Q 18.5 39.546875 15.921875 36.28125 
L 11.71875 36.28125 
L 11.71875 72.90625 
z
" id="DejaVuSerif-53"/>
       </defs>
       <use xlink:href="#DejaVuSerif-55"/>
       <use x="63.623047" xlink:href="#DejaVuSerif-53"/>
      </g>
     </g>
    </g>
    <g id="xtick_2">
     <g id="line2d_2">
      <g>
       <use style="stroke:#000000;stroke-width:0.8;" x="106.582242" xlink:href="#mc0eb744ad0" y="307.584"/>
      </g>
     </g>
     <g id="text_2">
      <!-- 100 -->
      <g transform="translate(97.038492 322.182437)scale(0.1 -0.1)">
       <defs>
        <path d="M 14.203125 0 
L 14.203125 5.171875 
L 26.90625 5.171875 
L 26.90625 65.828125 
L 12.203125 56.296875 
L 12.203125 62.703125 
L 29.984375 74.21875 
L 36.71875 74.21875 
L 36.71875 5.171875 
L 49.421875 5.171875 
L 49.421875 0 
z
" id="DejaVuSerif-49"/>
        <path d="M 31.78125 3.421875 
Q 39.265625 3.421875 42.96875 11.625 
Q 46.6875 19.828125 46.6875 36.375 
Q 46.6875 52.984375 42.96875 61.1875 
Q 39.265625 69.390625 31.78125 69.390625 
Q 24.3125 69.390625 20.59375 61.1875 
Q 16.890625 52.984375 16.890625 36.375 
Q 16.890625 19.828125 20.59375 11.625 
Q 24.3125 3.421875 31.78125 3.421875 
z
M 31.78125 -1.421875 
Q 19.921875 -1.421875 13.25 8.53125 
Q 6.59375 18.5 6.59375 36.375 
Q 6.59375 54.296875 13.25 64.25 
Q 19.921875 74.21875 31.78125 74.21875 
Q 43.703125 74.21875 50.34375 64.25 
Q 56.984375 54.296875 56.984375 36.375 
Q 56.984375 18.5 50.34375 8.53125 
Q 43.703125 -1.421875 31.78125 -1.421875 
z
" id="DejaVuSerif-48"/>
       </defs>
       <use xlink:href="#DejaVuSerif-49"/>
       <use x="63.623047" xlink:href="#DejaVuSerif-48"/>
       <use x="127.246094" xlink:href="#DejaVuSerif-48"/>
      </g>
     </g>
    </g>
    <g id="xtick_3">
     <g id="line2d_3">
      <g>
       <use style="stroke:#000000;stroke-width:0.8;" x="147.870082" xlink:href="#mc0eb744ad0" y="307.584"/>
      </g>
     </g>
     <g id="text_3">
      <!-- 125 -->
      <g transform="translate(138.326332 322.182437)scale(0.1 -0.1)">
       <defs>
        <path d="M 12.796875 55.515625 
L 7.328125 55.515625 
L 7.328125 68.5 
Q 12.546875 71.296875 17.84375 72.75 
Q 23.140625 74.21875 28.21875 74.21875 
Q 39.59375 74.21875 46.1875 68.703125 
Q 52.78125 63.1875 52.78125 53.71875 
Q 52.78125 43.015625 37.84375 28.125 
Q 36.671875 27 36.078125 26.421875 
L 17.671875 8.015625 
L 48.09375 8.015625 
L 48.09375 17 
L 53.8125 17 
L 53.8125 0 
L 6.78125 0 
L 6.78125 5.328125 
L 28.90625 27.390625 
Q 36.234375 34.71875 39.359375 40.84375 
Q 42.484375 46.96875 42.484375 53.71875 
Q 42.484375 61.078125 38.640625 65.234375 
Q 34.8125 69.390625 28.078125 69.390625 
Q 21.09375 69.390625 17.28125 65.921875 
Q 13.484375 62.453125 12.796875 55.515625 
z
" id="DejaVuSerif-50"/>
       </defs>
       <use xlink:href="#DejaVuSerif-49"/>
       <use x="63.623047" xlink:href="#DejaVuSerif-50"/>
       <use x="127.246094" xlink:href="#DejaVuSerif-53"/>
      </g>
     </g>
    </g>
    <g id="xtick_4">
     <g id="line2d_4">
      <g>
       <use style="stroke:#000000;stroke-width:0.8;" x="189.157923" xlink:href="#mc0eb744ad0" y="307.584"/>
      </g>
     </g>
     <g id="text_4">
      <!-- 150 -->
      <g transform="translate(179.614173 322.182437)scale(0.1 -0.1)">
       <use xlink:href="#DejaVuSerif-49"/>
       <use x="63.623047" xlink:href="#DejaVuSerif-53"/>
       <use x="127.246094" xlink:href="#DejaVuSerif-48"/>
      </g>
     </g>
    </g>
    <g id="xtick_5">
     <g id="line2d_5">
      <g>
       <use style="stroke:#000000;stroke-width:0.8;" x="230.445763" xlink:href="#mc0eb744ad0" y="307.584"/>
      </g>
     </g>
     <g id="text_5">
      <!-- 175 -->
      <g transform="translate(220.902013 322.182437)scale(0.1 -0.1)">
       <use xlink:href="#DejaVuSerif-49"/>
       <use x="63.623047" xlink:href="#DejaVuSerif-55"/>
       <use x="127.246094" xlink:href="#DejaVuSerif-53"/>
      </g>
     </g>
    </g>
    <g id="xtick_6">
     <g id="line2d_6">
      <g>
       <use style="stroke:#000000;stroke-width:0.8;" x="271.733603" xlink:href="#mc0eb744ad0" y="307.584"/>
      </g>
     </g>
     <g id="text_6">
      <!-- 200 -->
      <g transform="translate(262.189853 322.182437)scale(0.1 -0.1)">
       <use xlink:href="#DejaVuSerif-50"/>
       <use x="63.623047" xlink:href="#DejaVuSerif-48"/>
       <use x="127.246094" xlink:href="#DejaVuSerif-48"/>
      </g>
     </g>
    </g>
    <g id="xtick_7">
     <g id="line2d_7">
      <g>
       <use style="stroke:#000000;stroke-width:0.8;" x="313.021443" xlink:href="#mc0eb744ad0" y="307.584"/>
      </g>
     </g>
     <g id="text_7">
      <!-- 225 -->
      <g transform="translate(303.477693 322.182437)scale(0.1 -0.1)">
       <use xlink:href="#DejaVuSerif-50"/>
       <use x="63.623047" xlink:href="#DejaVuSerif-50"/>
       <use x="127.246094" xlink:href="#DejaVuSerif-53"/>
      </g>
     </g>
    </g>
    <g id="xtick_8">
     <g id="line2d_8">
      <g>
       <use style="stroke:#000000;stroke-width:0.8;" x="354.309284" xlink:href="#mc0eb744ad0" y="307.584"/>
      </g>
     </g>
     <g id="text_8">
      <!-- 250 -->
      <g transform="translate(344.765534 322.182437)scale(0.1 -0.1)">
       <use xlink:href="#DejaVuSerif-50"/>
       <use x="63.623047" xlink:href="#DejaVuSerif-53"/>
       <use x="127.246094" xlink:href="#DejaVuSerif-48"/>
      </g>
     </g>
    </g>
    <g id="xtick_9">
     <g id="line2d_9">
      <g>
       <use style="stroke:#000000;stroke-width:0.8;" x="395.597124" xlink:href="#mc0eb744ad0" y="307.584"/>
      </g>
     </g>
     <g id="text_9">
      <!-- 275 -->
      <g transform="translate(386.053374 322.182437)scale(0.1 -0.1)">
       <use xlink:href="#DejaVuSerif-50"/>
       <use x="63.623047" xlink:href="#DejaVuSerif-55"/>
       <use x="127.246094" xlink:href="#DejaVuSerif-53"/>
      </g>
     </g>
    </g>
    <g id="text_10">
     <!-- Time -->
     <g transform="translate(223.524844 335.860562)scale(0.1 -0.1)">
      <defs>
       <path d="M 19.09375 0 
L 19.09375 5.171875 
L 28.421875 5.171875 
L 28.421875 67.09375 
L 6.984375 67.09375 
L 6.984375 55.71875 
L 0.984375 55.71875 
L 0.984375 72.90625 
L 65.71875 72.90625 
L 65.71875 55.71875 
L 59.71875 55.71875 
L 59.71875 67.09375 
L 38.28125 67.09375 
L 38.28125 5.171875 
L 47.609375 5.171875 
L 47.609375 0 
z
" id="DejaVuSerif-84"/>
       <path d="M 9.71875 68.015625 
Q 9.71875 70.265625 11.34375 71.921875 
Q 12.984375 73.578125 15.28125 73.578125 
Q 17.53125 73.578125 19.15625 71.921875 
Q 20.796875 70.265625 20.796875 68.015625 
Q 20.796875 65.71875 19.1875 64.109375 
Q 17.578125 62.5 15.28125 62.5 
Q 12.984375 62.5 11.34375 64.109375 
Q 9.71875 65.71875 9.71875 68.015625 
z
M 21.1875 5.171875 
L 29.6875 5.171875 
L 29.6875 0 
L 3.609375 0 
L 3.609375 5.171875 
L 12.203125 5.171875 
L 12.203125 46.6875 
L 3.609375 46.6875 
L 3.609375 51.90625 
L 21.1875 51.90625 
z
" id="DejaVuSerif-105"/>
       <path d="M 51.8125 41.796875 
Q 54.390625 47.515625 58.421875 50.421875 
Q 62.453125 53.328125 67.828125 53.328125 
Q 75.984375 53.328125 79.984375 48.265625 
Q 83.984375 43.21875 83.984375 33.015625 
L 83.984375 5.171875 
L 92.09375 5.171875 
L 92.09375 0 
L 67.1875 0 
L 67.1875 5.171875 
L 75 5.171875 
L 75 31.984375 
Q 75 39.9375 72.65625 43.3125 
Q 70.3125 46.6875 64.890625 46.6875 
Q 58.890625 46.6875 55.734375 42.140625 
Q 52.59375 37.59375 52.59375 28.90625 
L 52.59375 5.171875 
L 60.40625 5.171875 
L 60.40625 0 
L 35.796875 0 
L 35.796875 5.171875 
L 43.609375 5.171875 
L 43.609375 32.328125 
Q 43.609375 40.09375 41.265625 43.390625 
Q 38.921875 46.6875 33.5 46.6875 
Q 27.484375 46.6875 24.328125 42.140625 
Q 21.1875 37.59375 21.1875 28.90625 
L 21.1875 5.171875 
L 29 5.171875 
L 29 0 
L 4.109375 0 
L 4.109375 5.171875 
L 12.203125 5.171875 
L 12.203125 46.78125 
L 3.609375 46.78125 
L 3.609375 51.90625 
L 21.1875 51.90625 
L 21.1875 42.671875 
Q 23.6875 47.859375 27.53125 50.59375 
Q 31.390625 53.328125 36.28125 53.328125 
Q 42.328125 53.328125 46.375 50.3125 
Q 50.4375 47.3125 51.8125 41.796875 
z
" id="DejaVuSerif-109"/>
       <path d="M 54.203125 25 
L 15.484375 25 
L 15.484375 24.609375 
Q 15.484375 14.109375 19.4375 8.765625 
Q 23.390625 3.421875 31.109375 3.421875 
Q 37.015625 3.421875 40.796875 6.515625 
Q 44.578125 9.625 46.09375 15.71875 
L 53.328125 15.71875 
Q 51.171875 7.171875 45.375 2.875 
Q 39.59375 -1.421875 30.171875 -1.421875 
Q 18.796875 -1.421875 11.890625 6.078125 
Q 4.984375 13.578125 4.984375 25.984375 
Q 4.984375 38.28125 11.765625 45.796875 
Q 18.5625 53.328125 29.59375 53.328125 
Q 41.359375 53.328125 47.65625 46.0625 
Q 53.953125 38.8125 54.203125 25 
z
M 43.609375 30.171875 
Q 43.3125 39.265625 39.765625 43.875 
Q 36.234375 48.484375 29.59375 48.484375 
Q 23.390625 48.484375 19.828125 43.84375 
Q 16.265625 39.203125 15.484375 30.171875 
z
" id="DejaVuSerif-101"/>
      </defs>
      <use xlink:href="#DejaVuSerif-84"/>
      <use x="66.699219" xlink:href="#DejaVuSerif-105"/>
      <use x="98.681641" xlink:href="#DejaVuSerif-109"/>
      <use x="193.505859" xlink:href="#DejaVuSerif-101"/>
     </g>
    </g>
   </g>
   <g id="matplotlib.axis_2">
    <g id="ytick_1">
     <g id="line2d_10">
      <defs>
       <path d="M 0 0 
L -3.5 0 
" id="m01b074b77e" style="stroke:#000000;stroke-width:0.8;"/>
      </defs>
      <g>
       <use style="stroke:#000000;stroke-width:0.8;" x="57.6" xlink:href="#m01b074b77e" y="295.488"/>
      </g>
     </g>
     <g id="text_11">
      <!-- 3.00 -->
      <g transform="translate(28.334375 299.287219)scale(0.1 -0.1)">
       <defs>
        <path d="M 9.71875 69.828125 
Q 15.4375 71.96875 20.671875 73.09375 
Q 25.921875 74.21875 30.515625 74.21875 
Q 41.21875 74.21875 47.21875 69.59375 
Q 53.21875 64.984375 53.21875 56.78125 
Q 53.21875 50.203125 49.0625 45.78125 
Q 44.921875 41.359375 37.3125 39.796875 
Q 46.296875 38.53125 51.25 33.28125 
Q 56.203125 28.03125 56.203125 19.671875 
Q 56.203125 9.46875 49.34375 4.015625 
Q 42.484375 -1.421875 29.59375 -1.421875 
Q 23.875 -1.421875 18.421875 -0.1875 
Q 12.984375 1.03125 7.625 3.515625 
L 7.625 17.671875 
L 13.09375 17.671875 
Q 13.578125 10.640625 17.828125 7.03125 
Q 22.078125 3.421875 29.78125 3.421875 
Q 37.25 3.421875 41.578125 7.734375 
Q 45.90625 12.0625 45.90625 19.578125 
Q 45.90625 28.171875 41.453125 32.59375 
Q 37.015625 37.015625 28.421875 37.015625 
L 23.78125 37.015625 
L 23.78125 42 
L 26.21875 42 
Q 34.765625 42 39.03125 45.53125 
Q 43.3125 49.078125 43.3125 56.203125 
Q 43.3125 62.59375 39.796875 65.984375 
Q 36.28125 69.390625 29.6875 69.390625 
Q 23.09375 69.390625 19.453125 66.265625 
Q 15.828125 63.140625 15.1875 56.984375 
L 9.71875 56.984375 
z
" id="DejaVuSerif-51"/>
        <path d="M 9.421875 5.078125 
Q 9.421875 7.8125 11.28125 9.71875 
Q 13.140625 11.625 15.921875 11.625 
Q 18.609375 11.625 20.5 9.71875 
Q 22.40625 7.8125 22.40625 5.078125 
Q 22.40625 2.390625 20.5 0.484375 
Q 18.609375 -1.421875 15.921875 -1.421875 
Q 13.140625 -1.421875 11.28125 0.453125 
Q 9.421875 2.34375 9.421875 5.078125 
z
" id="DejaVuSerif-46"/>
       </defs>
       <use xlink:href="#DejaVuSerif-51"/>
       <use x="63.623047" xlink:href="#DejaVuSerif-46"/>
       <use x="95.410156" xlink:href="#DejaVuSerif-48"/>
       <use x="159.033203" xlink:href="#DejaVuSerif-48"/>
      </g>
     </g>
    </g>
    <g id="ytick_2">
     <g id="line2d_11">
      <g>
       <use style="stroke:#000000;stroke-width:0.8;" x="57.6" xlink:href="#m01b074b77e" y="261.888"/>
      </g>
     </g>
     <g id="text_12">
      <!-- 3.25 -->
      <g transform="translate(28.334375 265.687219)scale(0.1 -0.1)">
       <use xlink:href="#DejaVuSerif-51"/>
       <use x="63.623047" xlink:href="#DejaVuSerif-46"/>
       <use x="95.410156" xlink:href="#DejaVuSerif-50"/>
       <use x="159.033203" xlink:href="#DejaVuSerif-53"/>
      </g>
     </g>
    </g>
    <g id="ytick_3">
     <g id="line2d_12">
      <g>
       <use style="stroke:#000000;stroke-width:0.8;" x="57.6" xlink:href="#m01b074b77e" y="228.288"/>
      </g>
     </g>
     <g id="text_13">
      <!-- 3.50 -->
      <g transform="translate(28.334375 232.087219)scale(0.1 -0.1)">
       <use xlink:href="#DejaVuSerif-51"/>
       <use x="63.623047" xlink:href="#DejaVuSerif-46"/>
       <use x="95.410156" xlink:href="#DejaVuSerif-53"/>
       <use x="159.033203" xlink:href="#DejaVuSerif-48"/>
      </g>
     </g>
    </g>
    <g id="ytick_4">
     <g id="line2d_13">
      <g>
       <use style="stroke:#000000;stroke-width:0.8;" x="57.6" xlink:href="#m01b074b77e" y="194.688"/>
      </g>
     </g>
     <g id="text_14">
      <!-- 3.75 -->
      <g transform="translate(28.334375 198.487219)scale(0.1 -0.1)">
       <use xlink:href="#DejaVuSerif-51"/>
       <use x="63.623047" xlink:href="#DejaVuSerif-46"/>
       <use x="95.410156" xlink:href="#DejaVuSerif-55"/>
       <use x="159.033203" xlink:href="#DejaVuSerif-53"/>
      </g>
     </g>
    </g>
    <g id="ytick_5">
     <g id="line2d_14">
      <g>
       <use style="stroke:#000000;stroke-width:0.8;" x="57.6" xlink:href="#m01b074b77e" y="161.088"/>
      </g>
     </g>
     <g id="text_15">
      <!-- 4.00 -->
      <g transform="translate(28.334375 164.887219)scale(0.1 -0.1)">
       <defs>
        <path d="M 34.90625 24.703125 
L 34.90625 63.484375 
L 10.015625 24.703125 
z
M 56.390625 0 
L 23.1875 0 
L 23.1875 5.171875 
L 34.90625 5.171875 
L 34.90625 19.484375 
L 3.078125 19.484375 
L 3.078125 24.8125 
L 35.015625 74.21875 
L 44.671875 74.21875 
L 44.671875 24.703125 
L 58.59375 24.703125 
L 58.59375 19.484375 
L 44.671875 19.484375 
L 44.671875 5.171875 
L 56.390625 5.171875 
z
" id="DejaVuSerif-52"/>
       </defs>
       <use xlink:href="#DejaVuSerif-52"/>
       <use x="63.623047" xlink:href="#DejaVuSerif-46"/>
       <use x="95.410156" xlink:href="#DejaVuSerif-48"/>
       <use x="159.033203" xlink:href="#DejaVuSerif-48"/>
      </g>
     </g>
    </g>
    <g id="ytick_6">
     <g id="line2d_15">
      <g>
       <use style="stroke:#000000;stroke-width:0.8;" x="57.6" xlink:href="#m01b074b77e" y="127.488"/>
      </g>
     </g>
     <g id="text_16">
      <!-- 4.25 -->
      <g transform="translate(28.334375 131.287219)scale(0.1 -0.1)">
       <use xlink:href="#DejaVuSerif-52"/>
       <use x="63.623047" xlink:href="#DejaVuSerif-46"/>
       <use x="95.410156" xlink:href="#DejaVuSerif-50"/>
       <use x="159.033203" xlink:href="#DejaVuSerif-53"/>
      </g>
     </g>
    </g>
    <g id="ytick_7">
     <g id="line2d_16">
      <g>
       <use style="stroke:#000000;stroke-width:0.8;" x="57.6" xlink:href="#m01b074b77e" y="93.888"/>
      </g>
     </g>
     <g id="text_17">
      <!-- 4.50 -->
      <g transform="translate(28.334375 97.687219)scale(0.1 -0.1)">
       <use xlink:href="#DejaVuSerif-52"/>
       <use x="63.623047" xlink:href="#DejaVuSerif-46"/>
       <use x="95.410156" xlink:href="#DejaVuSerif-53"/>
       <use x="159.033203" xlink:href="#DejaVuSerif-48"/>
      </g>
     </g>
    </g>
    <g id="ytick_8">
     <g id="line2d_17">
      <g>
       <use style="stroke:#000000;stroke-width:0.8;" x="57.6" xlink:href="#m01b074b77e" y="60.288"/>
      </g>
     </g>
     <g id="text_18">
      <!-- 4.75 -->
      <g transform="translate(28.334375 64.087219)scale(0.1 -0.1)">
       <use xlink:href="#DejaVuSerif-52"/>
       <use x="63.623047" xlink:href="#DejaVuSerif-46"/>
       <use x="95.410156" xlink:href="#DejaVuSerif-55"/>
       <use x="159.033203" xlink:href="#DejaVuSerif-53"/>
      </g>
     </g>
    </g>
    <g id="text_19">
     <!-- Speed -->
     <g transform="translate(22.254687 190.273313)rotate(-90)scale(0.1 -0.1)">
      <defs>
       <path d="M 9.28125 3.515625 
L 9.28125 20.125 
L 14.890625 20.0625 
Q 15.140625 11.765625 19.703125 7.78125 
Q 24.265625 3.8125 33.59375 3.8125 
Q 42.28125 3.8125 46.84375 7.25 
Q 51.421875 10.6875 51.421875 17.28125 
Q 51.421875 22.5625 48.65625 25.390625 
Q 45.90625 28.21875 37.015625 30.90625 
L 27.390625 33.796875 
Q 16.9375 36.96875 12.671875 41.703125 
Q 8.40625 46.4375 8.40625 54.6875 
Q 8.40625 63.96875 14.984375 69.09375 
Q 21.578125 74.21875 33.5 74.21875 
Q 38.578125 74.21875 44.625 73.109375 
Q 50.6875 72.015625 57.515625 69.921875 
L 57.515625 54.390625 
L 52 54.390625 
Q 51.171875 62.109375 46.84375 65.546875 
Q 42.53125 69 33.6875 69 
Q 25.984375 69 21.953125 65.84375 
Q 17.921875 62.703125 17.921875 56.6875 
Q 17.921875 51.46875 20.9375 48.484375 
Q 23.96875 45.515625 33.796875 42.578125 
L 42.828125 39.890625 
Q 52.734375 36.921875 56.953125 32.296875 
Q 61.1875 27.6875 61.1875 19.921875 
Q 61.1875 9.328125 54.390625 3.953125 
Q 47.609375 -1.421875 34.1875 -1.421875 
Q 28.171875 -1.421875 21.9375 -0.1875 
Q 15.71875 1.03125 9.28125 3.515625 
z
" id="DejaVuSerif-83"/>
       <path d="M 20.515625 28.515625 
L 20.515625 23.390625 
Q 20.515625 14.015625 24.09375 9.109375 
Q 27.6875 4.203125 34.515625 4.203125 
Q 41.40625 4.203125 44.9375 9.71875 
Q 48.484375 15.234375 48.484375 25.984375 
Q 48.484375 36.765625 44.9375 42.234375 
Q 41.40625 47.703125 34.515625 47.703125 
Q 27.6875 47.703125 24.09375 42.765625 
Q 20.515625 37.84375 20.515625 28.515625 
z
M 11.53125 46.6875 
L 2.875 46.6875 
L 2.875 51.90625 
L 20.515625 51.90625 
L 20.515625 43.796875 
Q 23.140625 48.6875 27.21875 51 
Q 31.296875 53.328125 37.3125 53.328125 
Q 46.875 53.328125 52.921875 45.75 
Q 58.984375 38.1875 58.984375 25.984375 
Q 58.984375 13.765625 52.921875 6.171875 
Q 46.875 -1.421875 37.3125 -1.421875 
Q 31.296875 -1.421875 27.21875 0.890625 
Q 23.140625 3.21875 20.515625 8.109375 
L 20.515625 -15.578125 
L 29 -15.578125 
L 29 -20.796875 
L 2.875 -20.796875 
L 2.875 -15.578125 
L 11.53125 -15.578125 
z
" id="DejaVuSerif-112"/>
       <path d="M 52.484375 5.171875 
L 61.078125 5.171875 
L 61.078125 0 
L 43.5 0 
L 43.5 8.109375 
Q 40.875 3.21875 36.796875 0.890625 
Q 32.71875 -1.421875 26.703125 -1.421875 
Q 17.140625 -1.421875 11.0625 6.171875 
Q 4.984375 13.765625 4.984375 25.984375 
Q 4.984375 38.1875 11.03125 45.75 
Q 17.09375 53.328125 26.703125 53.328125 
Q 32.71875 53.328125 36.796875 51 
Q 40.875 48.6875 43.5 43.796875 
L 43.5 70.796875 
L 35.015625 70.796875 
L 35.015625 75.984375 
L 52.484375 75.984375 
z
M 43.5 23.390625 
L 43.5 28.515625 
Q 43.5 37.84375 39.90625 42.765625 
Q 36.328125 47.703125 29.5 47.703125 
Q 22.5625 47.703125 19.015625 42.234375 
Q 15.484375 36.765625 15.484375 25.984375 
Q 15.484375 15.234375 19.015625 9.71875 
Q 22.5625 4.203125 29.5 4.203125 
Q 36.328125 4.203125 39.90625 9.109375 
Q 43.5 14.015625 43.5 23.390625 
z
" id="DejaVuSerif-100"/>
      </defs>
      <use xlink:href="#DejaVuSerif-83"/>
      <use x="68.505859" xlink:href="#DejaVuSerif-112"/>
      <use x="132.519531" xlink:href="#DejaVuSerif-101"/>
      <use x="191.699219" xlink:href="#DejaVuSerif-101"/>
      <use x="250.878906" xlink:href="#DejaVuSerif-100"/>
     </g>
    </g>
   </g>
   <g id="line2d_18">
    <path clip-path="url(#p135f2735a7)" d="M 73.832727 295.488 
L 73.964848 295.488 
L 74.096969 93.888 
L 74.245606 295.488 
L 74.509848 53.568 
L 74.658484 214.848 
L 75.071362 214.848 
L 75.203484 161.088 
L 75.335605 295.488 
L 75.484241 161.088 
L 75.616362 295.488 
L 75.897119 122.688 
L 76.02924 237.888 
L 76.442119 237.888 
L 76.57424 194.688 
L 76.854997 194.688 
L 76.987118 295.488 
L 77.267876 161.088 
L 77.399997 250.688 
L 77.548633 161.088 
L 77.680754 250.688 
L 77.812875 250.688 
L 77.961511 214.848 
L 78.506511 214.848 
L 78.638632 185.524364 
L 78.787268 258.833455 
L 78.919389 185.524364 
L 79.05151 258.833455 
L 79.332268 161.088 
L 79.464389 228.288 
L 79.877267 228.288 
L 80.025903 202.441846 
L 80.290145 202.441846 
L 80.438782 264.472615 
L 80.703024 180.288 
L 80.85166 237.888 
L 80.983781 180.288 
L 81.115902 180.288 
L 81.264539 237.888 
L 81.39666 214.848 
L 81.677417 214.848 
L 81.809538 161.088 
L 81.941659 214.848 
L 82.090295 194.688 
L 82.222416 245.088 
L 82.354538 194.688 
L 82.635295 194.688 
L 82.767416 176.899765 
L 82.916052 224.335059 
L 83.048173 224.335059 
L 83.180294 176.899765 
L 83.328931 224.335059 
L 83.461052 205.888 
L 83.593173 250.688 
L 83.741809 205.888 
L 84.006051 205.888 
L 84.154687 189.382737 
L 84.286808 231.824842 
L 84.41893 231.824842 
L 84.567566 189.382737 
L 84.699687 231.824842 
L 84.831808 214.848 
L 85.393323 214.848 
L 85.525444 199.488 
L 85.657565 237.888 
L 85.806201 199.488 
L 85.938322 199.488 
L 86.070443 237.888 
L 86.219079 222.178909 
L 86.483322 222.178909 
L 86.631958 185.524364 
L 86.764079 222.178909 
L 86.8962 207.835826 
L 87.457715 207.835826 
L 87.589836 194.688 
L 87.721957 194.688 
L 87.870593 228.288 
L 88.002714 194.688 
L 88.134835 228.288 
L 88.283471 214.848 
L 88.415592 182.592 
L 88.547714 214.848 
L 88.828471 214.848 
L 88.960592 202.441846 
L 89.37347 202.441846 
L 89.522107 233.457231 
L 89.654228 220.821333 
L 89.786349 190.954667 
L 89.934985 220.821333 
L 90.067106 190.954667 
L 90.199227 220.821333 
L 90.347863 209.088 
L 90.760742 209.088 
L 90.892863 237.888 
L 91.024984 225.970759 
L 91.17362 198.163862 
L 91.305741 225.970759 
L 91.437862 198.163862 
L 91.586499 225.970759 
L 91.71862 214.848 
L 92.263619 214.848 
L 92.412255 204.442839 
L 92.544376 204.442839 
L 92.676498 230.455742 
L 92.825134 204.442839 
L 92.957255 204.442839 
L 93.089376 219.888 
L 93.238012 194.688 
L 93.370133 219.888 
L 93.502254 219.888 
L 93.650891 194.688 
L 93.783012 209.960727 
L 94.328011 209.960727 
L 94.476647 224.335059 
L 94.608768 200.617412 
L 94.74089 224.335059 
L 94.889526 200.617412 
L 95.021647 200.617412 
L 95.153768 214.848 
L 95.566646 214.848 
L 95.715283 191.808 
L 95.847404 205.888 
L 95.979525 205.888 
L 96.128161 228.288 
L 96.260282 205.888 
L 96.392403 205.888 
L 96.541039 219.206919 
L 96.67316 197.412324 
L 96.805282 219.206919 
L 96.953918 219.206919 
L 97.086039 197.412324 
L 97.21816 210.603789 
L 97.779675 210.603789 
L 97.911796 223.118769 
L 98.043917 202.441846 
L 98.192553 223.118769 
L 98.324674 223.118769 
L 98.456795 202.441846 
L 98.605431 214.848 
L 98.737553 214.848 
L 98.869674 194.688 
L 99.01831 214.848 
L 99.150431 214.848 
L 99.282552 226.648976 
L 99.431188 206.980683 
L 99.844067 206.980683 
L 99.976188 218.688 
L 100.108309 218.688 
L 100.256945 199.488 
L 100.389066 218.688 
L 100.521187 199.488 
L 100.669823 211.097302 
L 101.214823 211.097302 
L 101.346944 222.178909 
L 101.49558 203.851636 
L 101.627701 203.851636 
L 101.759822 222.178909 
L 101.908459 203.851636 
L 102.04058 214.848 
L 102.172701 214.848 
L 102.321337 196.928 
L 102.453458 214.848 
L 102.585579 214.848 
L 102.734215 225.366261 
L 102.866337 207.835826 
L 103.279215 207.835826 
L 103.411336 218.279489 
L 103.559972 218.279489 
L 103.692093 201.122043 
L 103.824214 218.279489 
L 103.972851 201.122043 
L 104.104972 211.488 
L 104.649971 211.488 
L 104.798607 204.973714 
L 105.06285 204.973714 
L 105.211486 221.430857 
L 105.475728 198.72 
L 105.624364 214.848 
L 106.037243 214.848 
L 106.169364 208.523294 
L 106.450121 208.523294 
L 106.582242 224.335059 
L 106.862999 202.441846 
L 106.995121 217.949538 
L 107.127242 202.441846 
L 107.275878 217.949538 
L 107.407999 217.949538 
L 107.54012 211.804981 
L 108.101635 211.804981 
L 108.233756 205.888 
L 108.365877 220.821333 
L 108.514513 205.888 
L 108.646634 220.821333 
L 108.927391 200.186182 
L 109.059513 214.848 
L 109.472391 214.848 
L 109.604512 209.088 
L 109.885269 209.088 
L 110.01739 223.488 
L 110.298148 203.530105 
L 110.430269 217.677474 
L 110.578905 203.530105 
L 110.711026 203.530105 
L 110.843147 217.677474 
L 110.991783 212.06731 
L 111.256026 212.06731 
L 111.404662 198.163862 
L 111.536783 212.06731 
L 111.668904 206.647322 
L 111.81754 220.315119 
L 111.949661 206.647322 
L 112.230419 206.647322 
L 112.36254 201.408 
L 112.494661 214.848 
L 112.643297 214.848 
L 112.775418 201.408 
L 112.907539 214.848 
L 113.056176 209.560131 
L 113.188297 222.779803 
L 113.320418 209.560131 
L 113.601175 209.560131 
L 113.733296 204.442839 
L 113.881932 217.44929 
L 114.014053 217.44929 
L 114.146174 204.442839 
L 114.294811 217.44929 
L 114.426932 212.288 
L 114.971931 212.288 
L 115.120568 207.288 
L 115.252689 219.888 
L 115.38481 207.288 
L 115.533446 207.288 
L 115.665567 219.888 
L 115.797688 214.848 
L 115.946324 202.441846 
L 116.078445 214.848 
L 116.210567 202.441846 
L 116.359203 214.848 
L 116.491324 209.960727 
L 117.036323 209.960727 
L 117.18496 205.219343 
L 117.317081 205.219343 
L 117.449202 217.255164 
L 117.597838 205.219343 
L 117.729959 217.255164 
L 117.86208 212.476235 
L 118.010716 200.617412 
L 118.142837 212.476235 
L 118.423595 212.476235 
L 118.555716 207.835826 
L 118.968594 207.835826 
L 119.100715 219.522783 
L 119.249352 214.848 
L 119.381473 203.328 
L 119.513594 214.848 
L 119.66223 203.328 
L 119.794351 214.848 
L 119.926472 210.304901 
L 120.339351 210.304901 
L 120.487987 221.662648 
L 120.620108 217.088 
L 120.752229 205.888 
L 120.900865 217.088 
L 121.032986 205.888 
L 121.165107 217.088 
L 121.313744 212.638685 
L 121.726622 212.638685 
L 121.858743 201.59211 
L 121.990864 208.309622 
L 122.1395 208.309622 
L 122.271621 219.206919 
L 122.403743 208.309622 
L 122.552379 208.309622 
L 122.6845 214.848 
L 122.816621 204.096 
L 122.965257 214.848 
L 123.097378 214.848 
L 123.229499 204.096 
L 123.378136 210.603789 
L 123.923135 210.603789 
L 124.055256 216.942545 
L 124.203892 206.469818 
L 124.336013 216.942545 
L 124.468135 206.469818 
L 124.616771 206.469818 
L 124.748892 212.780308 
L 125.16177 212.780308 
L 125.293891 202.441846 
L 125.442528 208.723443 
L 125.574649 208.723443 
L 125.70677 218.931038 
L 125.855406 208.723443 
L 125.987527 208.723443 
L 126.119648 214.848 
L 126.268284 204.768 
L 126.400405 214.848 
L 126.532527 214.848 
L 126.681163 204.768 
L 126.813284 210.865778 
L 126.945405 210.865778 
L 127.094041 220.821333 
L 127.226162 210.865778 
L 127.358283 210.865778 
L 127.50692 216.814829 
L 127.639041 206.980683 
L 127.771162 206.980683 
L 127.919798 216.814829 
L 128.051919 206.980683 
L 128.18404 212.904867 
L 128.332676 212.904867 
L 128.464797 203.189205 
L 128.596919 212.904867 
L 128.745555 212.904867 
L 128.877676 218.688 
L 129.009797 209.088 
L 129.422675 209.088 
L 129.571312 214.848 
L 129.703433 214.848 
L 129.835554 205.360941 
L 129.98419 214.848 
L 130.116311 205.360941 
L 130.248432 211.097302 
L 130.809947 211.097302 
L 130.942068 216.701793 
L 131.074189 207.432828 
L 131.222825 207.432828 
L 131.354946 216.701793 
L 131.487067 207.432828 
L 131.635704 213.015273 
L 131.767825 213.015273 
L 131.899946 203.851636 
L 132.048582 213.015273 
L 132.180703 213.015273 
L 132.312824 218.47227 
L 132.46146 209.411596 
L 132.874339 209.411596 
L 133.00646 205.888 
L 133.138581 214.848 
L 133.287217 205.888 
L 133.419338 214.848 
L 133.700096 202.441846 
L 133.832217 211.303385 
L 134.245095 211.303385 
L 134.377216 207.835826 
L 134.525852 216.601043 
L 134.657974 207.835826 
L 134.790095 216.601043 
L 135.070852 204.442839 
L 135.202973 213.113806 
L 135.615851 213.113806 
L 135.764488 209.700766 
L 136.02873 209.700766 
L 136.177366 218.279489 
L 136.441608 206.359579 
L 136.590244 214.848 
L 136.722366 206.359579 
L 136.854487 214.848 
L 137.003123 214.848 
L 137.135244 211.488 
L 137.680243 211.488 
L 137.82888 208.197278 
L 137.961001 216.51068 
L 138.093122 208.197278 
L 138.241758 216.51068 
L 138.506 204.973714 
L 138.654636 213.202286 
L 138.786758 213.202286 
L 138.918879 204.973714 
L 139.067515 213.202286 
L 139.199636 209.960727 
L 139.744635 209.960727 
L 139.893272 206.784 
L 140.025393 214.848 
L 140.157514 206.784 
L 140.30615 206.784 
L 140.438271 214.848 
L 140.570392 211.654337 
L 140.85115 211.654337 
L 140.983271 203.670178 
L 141.131907 211.654337 
L 141.264028 208.523294 
L 141.396149 216.429176 
L 141.544785 208.523294 
L 141.676906 208.523294 
L 141.809027 216.429176 
L 141.957664 213.282175 
L 142.221906 213.282175 
L 142.370542 205.453049 
L 142.502663 213.282175 
L 142.634784 210.195692 
L 142.78342 217.949538 
L 142.915542 210.195692 
L 143.196299 210.195692 
L 143.32842 207.168 
L 143.460541 214.848 
L 143.609177 214.848 
L 143.741298 207.168 
L 143.873419 214.848 
L 144.022056 211.804981 
L 144.154177 204.197434 
L 144.286298 211.804981 
L 144.567055 211.804981 
L 144.699176 208.818841 
L 145.112055 208.818841 
L 145.260691 216.35529 
L 145.392812 213.354667 
L 145.524933 205.888 
L 145.673569 213.354667 
L 145.80569 205.888 
L 145.937811 213.354667 
L 146.086448 210.409101 
L 146.631447 210.409101 
L 146.763568 207.517091 
L 146.912205 207.517091 
L 147.044326 214.848 
L 147.176447 207.517091 
L 147.325083 214.848 
L 147.457204 211.942054 
L 147.589325 204.677189 
L 147.737961 211.942054 
L 148.002203 211.942054 
L 148.15084 209.088 
L 148.282961 209.088 
L 148.415082 216.288 
L 148.563718 209.088 
L 148.695839 216.288 
L 148.82796 213.420743 
L 148.976597 206.28446 
L 149.108718 213.420743 
L 149.389475 213.420743 
L 149.521596 210.603789 
L 150.066596 210.603789 
L 150.215232 214.848 
L 150.347353 207.835826 
L 150.479474 214.848 
L 150.62811 207.835826 
L 150.760231 207.835826 
L 150.892352 212.06731 
L 151.305231 212.06731 
L 151.453867 205.115586 
L 151.585988 209.334154 
L 151.718109 209.334154 
L 151.866745 216.226462 
L 151.998866 209.334154 
L 152.130988 209.334154 
L 152.279624 213.48122 
L 152.411745 206.647322 
L 152.543866 213.48122 
L 152.692502 213.48122 
L 152.824623 206.647322 
L 152.956744 210.782118 
L 153.518259 210.782118 
L 153.65038 214.848 
L 153.782501 208.128 
L 153.931137 214.848 
L 154.063258 208.128 
L 154.19538 208.128 
L 154.344016 212.182215 
L 154.756894 212.182215 
L 154.889015 205.517752 
L 155.021136 209.560131 
L 155.582651 209.560131 
L 155.714772 213.53678 
L 155.846893 213.53678 
L 155.995529 206.980683 
L 156.12765 213.53678 
L 156.259772 206.980683 
L 156.408408 210.946065 
L 156.953407 210.946065 
L 157.085528 214.848 
L 157.234165 208.3968 
L 157.366286 208.3968 
L 157.498407 214.848 
L 157.647043 208.3968 
L 157.779164 212.288 
L 157.911285 212.288 
L 158.059921 205.888 
L 158.192042 212.288 
L 158.324164 212.288 
L 158.4728 216.117921 
L 158.604921 209.768315 
L 159.017799 209.768315 
L 159.14992 213.588 
L 159.298557 213.588 
L 159.430678 207.288 
L 159.562799 213.588 
L 159.711435 207.288 
L 159.843556 211.097302 
L 160.388556 211.097302 
L 160.537192 208.644923 
L 160.801434 208.644923 
L 160.95007 214.848 
L 161.214312 206.229985 
L 161.362949 212.38571 
L 161.49507 206.229985 
L 161.627191 212.38571 
L 161.775827 212.38571 
L 161.907948 209.960727 
L 162.188705 209.960727 
L 162.320826 216.069818 
L 162.601584 207.572211 
L 162.733705 213.635368 
L 162.865826 207.572211 
L 163.014462 213.635368 
L 163.146583 213.635368 
L 163.278704 211.237254 
L 163.840219 211.237254 
L 163.97234 208.874667 
L 164.104461 214.848 
L 164.253097 208.874667 
L 164.385219 214.848 
L 164.665976 206.546824 
L 164.798097 212.476235 
L 165.210975 212.476235 
L 165.343096 210.139095 
L 165.904611 210.139095 
L 166.036732 207.835826 
L 166.168853 213.679304 
L 166.317489 207.835826 
L 166.449611 207.835826 
L 166.581732 213.679304 
L 166.730368 211.367137 
L 166.99461 211.367137 
L 167.143246 205.565698 
L 167.275367 211.367137 
L 167.407488 209.088 
L 167.556125 214.848 
L 167.688246 209.088 
L 167.969003 209.088 
L 168.101124 206.841191 
L 168.233245 212.56034 
L 168.381881 212.56034 
L 168.514003 206.841191 
L 168.646124 212.56034 
L 168.79476 210.304901 
L 169.339759 210.304901 
L 169.47188 208.081007 
L 169.620517 213.720168 
L 169.752638 213.720168 
L 169.884759 208.081007 
L 170.033395 213.720168 
L 170.165516 211.488 
L 170.710516 211.488 
L 170.859152 209.286621 
L 170.991273 214.848 
L 171.123394 209.286621 
L 171.27203 209.286621 
L 171.404151 214.848 
L 171.536272 212.638685 
L 171.684909 207.115397 
L 171.81703 212.638685 
L 171.949151 207.115397 
L 172.097787 212.638685 
L 172.229908 210.459429 
L 172.774908 210.459429 
L 172.923544 208.309622 
L 173.055665 208.309622 
L 173.187786 213.75827 
L 173.336422 208.309622 
L 173.468543 213.75827 
L 173.600664 211.600752 
L 173.749301 206.188671 
L 173.881422 211.600752 
L 174.162179 211.600752 
L 174.2943 209.472 
L 174.707179 209.472 
L 174.8393 214.848 
L 174.987936 212.711841 
L 175.120057 207.371444 
L 175.252178 212.711841 
L 175.400814 207.371444 
L 175.532935 212.711841 
L 175.665056 210.603789 
L 176.077935 210.603789 
L 176.226571 215.909053 
L 176.358692 213.793882 
L 176.490813 208.523294 
L 176.639449 213.793882 
L 176.771571 208.523294 
L 176.903692 208.523294 
L 177.052328 211.706182 
L 177.465206 211.706182 
L 177.597327 206.469818 
L 177.729448 209.645419 
L 177.878085 209.645419 
L 178.010206 214.848 
L 178.142327 209.645419 
L 178.290963 209.645419 
L 178.423084 212.780308 
L 178.555205 207.611077 
L 178.703842 212.780308 
L 178.835963 212.780308 
L 178.968084 207.611077 
L 179.11672 210.738955 
L 179.661719 210.738955 
L 179.79384 213.827241 
L 179.942477 208.723443 
L 180.074598 213.827241 
L 180.206719 208.723443 
L 180.355355 208.723443 
L 180.487476 211.804981 
L 180.900355 211.804981 
L 181.032476 206.733283 
L 181.181112 209.808 
L 181.313233 209.808 
L 181.445354 214.848 
L 181.59399 209.808 
L 181.726111 209.808 
L 181.858233 212.844522 
L 182.006869 207.835826 
L 182.13899 207.835826 
L 182.271111 212.844522 
L 182.419747 207.835826 
L 182.551868 210.865778 
L 183.096868 210.865778 
L 183.245504 213.858552 
L 183.377625 208.911313 
L 183.509746 208.911313 
L 183.658382 213.858552 
L 183.790503 208.911313 
L 183.922625 211.897756 
L 184.071261 211.897756 
L 184.203382 206.980683 
L 184.335503 211.897756 
L 184.484139 211.897756 
L 184.61626 214.848 
L 184.748381 209.960727 
L 185.16126 209.960727 
L 185.309896 212.904867 
L 185.442017 212.904867 
L 185.574138 208.047036 
L 185.722774 212.904867 
L 185.854895 208.047036 
L 185.987017 210.985006 
L 186.548531 210.985006 
L 186.680652 213.888 
L 186.812773 209.088 
L 186.96141 209.088 
L 187.093531 213.888 
L 187.374288 207.213444 
L 187.506409 211.985041 
L 187.63853 207.213444 
L 187.787166 211.985041 
L 187.919287 211.985041 
L 188.051409 210.104471 
L 188.612923 210.104471 
L 188.745044 208.245895 
L 188.877165 212.961684 
L 189.025802 208.245895 
L 189.157923 212.961684 
L 189.290044 212.961684 
L 189.43868 211.097302 
L 189.983679 211.097302 
L 190.115801 209.254474 
L 190.264437 213.915746 
L 190.396558 209.254474 
L 190.528679 213.915746 
L 190.809436 207.432828 
L 190.941557 212.06731 
L 191.354436 212.06731 
L 191.503072 210.24 
L 191.767314 210.24 
L 191.91595 214.848 
L 192.180193 208.433455 
L 192.328829 213.015273 
L 192.46095 208.433455 
L 192.593071 208.433455 
L 192.741707 213.015273 
L 192.873828 211.203254 
L 193.154586 211.203254 
L 193.286707 206.647322 
L 193.418828 211.203254 
L 193.567464 209.411596 
L 193.699585 213.941933 
L 193.831706 209.411596 
L 194.112463 209.411596 
L 194.244585 207.639955 
L 194.393221 212.144983 
L 194.525342 212.144983 
L 194.657463 207.639955 
L 194.806099 212.144983 
L 194.93822 210.368 
L 195.48322 210.368 
L 195.631856 208.610652 
L 195.763977 213.065901 
L 195.896098 208.610652 
L 196.044734 208.610652 
L 196.176856 213.065901 
L 196.308977 211.303385 
L 196.870491 211.303385 
L 197.002612 209.560131 
L 197.134733 213.966689 
L 197.28337 209.560131 
L 197.415491 209.560131 
L 197.547612 213.966689 
L 197.696248 212.218435 
L 197.828369 207.835826 
L 197.96049 212.218435 
L 198.109126 207.835826 
L 198.241248 212.218435 
L 198.373369 210.489081 
L 198.934883 210.489081 
L 199.067004 208.778323 
L 199.199125 208.778323 
L 199.347762 213.113806 
L 199.479883 208.778323 
L 199.612004 213.113806 
L 199.76064 211.39816 
L 199.892761 207.085861 
L 200.024882 211.39816 
L 200.30564 211.39816 
L 200.437761 209.700766 
L 200.850639 209.700766 
L 200.999275 213.990128 
L 201.131396 212.288 
L 201.263517 208.021333 
L 201.412154 212.288 
L 201.544275 208.021333 
L 201.676396 212.288 
L 201.825032 210.603789 
L 202.370032 210.603789 
L 202.502153 208.937215 
L 202.650789 208.937215 
L 202.78291 213.159204 
L 202.915031 208.937215 
L 203.063667 208.937215 
L 203.195788 211.488 
L 203.608667 211.488 
L 203.740788 207.288 
L 203.889424 209.834114 
L 204.021545 209.834114 
L 204.153666 214.012352 
L 204.302302 209.834114 
L 204.434424 209.834114 
L 204.566545 212.353979 
L 204.715181 208.197278 
L 204.847302 212.353979 
L 204.979423 212.353979 
L 205.128059 208.197278 
L 205.26018 210.712615 
L 205.80518 210.712615 
L 205.953816 213.202286 
L 206.085937 209.088 
L 206.218058 213.202286 
L 206.366694 209.088 
L 206.498816 209.088 
L 206.630937 211.573279 
L 207.043815 211.573279 
L 207.192451 207.479878 
L 207.324572 209.960727 
L 207.456693 209.960727 
L 207.60533 214.033455 
L 207.737451 209.960727 
L 207.869572 209.960727 
L 208.018208 212.416643 
L 208.150329 208.364382 
L 208.28245 208.364382 
L 208.431086 212.416643 
L 208.563208 208.364382 
L 208.695329 210.816 
L 208.843965 210.816 
L 208.976086 206.784 
L 209.108207 210.816 
L 209.256843 210.816 
L 209.388964 213.243224 
L 209.521085 209.231284 
L 209.669722 209.231284 
L 209.801843 213.243224 
L 209.933964 209.231284 
L 210.0826 211.654337 
L 210.214721 211.654337 
L 210.346842 207.662257 
L 210.495479 211.654337 
L 210.6276 211.654337 
L 210.759721 214.053517 
L 210.908357 210.081103 
L 211.321235 210.081103 
L 211.453356 212.476235 
L 211.585477 212.476235 
L 211.734114 208.523294 
L 211.866235 212.476235 
L 211.998356 208.523294 
L 212.146992 210.914341 
L 212.691992 210.914341 
L 212.824113 213.282175 
L 212.972749 209.367612 
L 213.10487 209.367612 
L 213.236991 213.282175 
L 213.517748 207.835826 
L 213.649869 211.731478 
L 213.798506 207.835826 
L 213.930627 211.731478 
L 214.062748 211.731478 
L 214.211384 210.195692 
L 214.756384 210.195692 
L 214.888505 208.674603 
L 215.037141 212.532976 
L 215.169262 208.674603 
L 215.301383 212.532976 
L 215.58214 207.168 
L 215.714262 211.008 
L 216.12714 211.008 
L 216.275776 209.497479 
L 216.407897 213.31928 
L 216.540018 209.497479 
L 216.688655 213.31928 
L 216.952897 208.001208 
L 217.101533 211.804981 
L 217.514411 211.804981 
L 217.646532 210.304901 
L 217.92729 210.304901 
L 218.059411 214.090817 
L 218.340168 208.818841 
L 218.472289 212.587065 
L 218.60441 208.818841 
L 218.753047 208.818841 
L 218.885168 212.587065 
L 219.017289 211.097302 
L 219.298046 211.097302 
L 219.430167 207.346605 
L 219.578803 211.097302 
L 219.710924 209.621333 
L 219.843046 213.354667 
L 219.991682 209.621333 
L 220.255924 209.621333 
L 220.40456 208.158968 
L 220.536681 211.875097 
L 220.668802 211.875097 
L 220.817439 208.158968 
L 220.94956 211.875097 
L 221.081681 210.409101 
L 221.643195 210.409101 
L 221.775316 208.956493 
L 221.907438 212.638685 
L 222.056074 208.956493 
L 222.188195 208.956493 
L 222.320316 212.638685 
L 222.468952 211.182545 
L 223.013952 211.182545 
L 223.146073 209.739584 
L 223.294709 213.388452 
L 223.42683 209.739584 
L 223.558951 209.739584 
L 223.707587 213.388452 
L 223.839708 211.942054 
L 223.97183 208.309622 
L 224.120466 211.942054 
L 224.252587 208.309622 
L 224.384708 211.942054 
L 224.533344 210.508628 
L 225.078344 210.508628 
L 225.210465 209.088 
L 225.359101 209.088 
L 225.491222 212.688 
L 225.623343 209.088 
L 225.771979 212.688 
L 225.9041 211.264 
L 226.036222 207.68 
L 226.184858 211.264 
L 226.4491 211.264 
L 226.597736 209.852602 
L 227.010615 209.852602 
L 227.142736 213.420743 
L 227.274857 212.006062 
L 227.423493 208.453639 
L 227.555614 212.006062 
L 227.687735 208.453639 
L 227.836371 212.006062 
L 227.968492 210.603789 
L 228.513492 210.603789 
L 228.662128 209.213764 
L 228.794249 209.213764 
L 228.92637 212.735162 
L 229.075007 209.213764 
L 229.207128 209.213764 
L 229.339249 211.341913 
L 229.752127 211.341913 
L 229.900763 207.835826 
L 230.032885 209.960727 
L 230.165006 209.960727 
L 230.313642 213.451636 
L 230.445763 209.960727 
L 230.577884 209.960727 
L 230.72652 212.06731 
L 230.858641 208.591448 
L 230.990762 212.06731 
L 231.139399 212.06731 
L 231.27152 208.591448 
L 231.403641 210.694867 
L 231.965155 210.694867 
L 232.097277 212.780308 
L 232.229398 209.334154 
L 232.378034 212.780308 
L 232.510155 209.334154 
L 232.642276 209.334154 
L 232.790912 211.416511 
L 233.203791 211.416511 
L 233.335912 207.985021 
L 233.468033 210.064271 
L 233.616669 210.064271 
L 233.74879 213.48122 
L 233.880911 210.064271 
L 234.029547 210.064271 
L 234.161669 212.125975 
L 234.29379 208.723443 
L 234.442426 208.723443 
L 234.574547 212.125975 
L 234.706668 208.723443 
L 234.855304 210.782118 
L 234.987425 210.782118 
L 235.119546 207.393882 
L 235.268183 210.782118 
L 235.400304 210.782118 
L 235.532425 212.823565 
L 235.681061 209.449506 
L 235.813182 209.449506 
L 235.945303 212.823565 
L 236.093939 209.449506 
L 236.226061 211.488 
L 236.358182 211.488 
L 236.506818 208.128 
L 236.638939 211.488 
L 236.77106 211.488 
L 236.919696 213.509577 
L 237.051817 210.163519 
L 237.464696 210.163519 
L 237.596817 212.182215 
L 237.745453 212.182215 
L 237.877574 208.849983 
L 238.009695 212.182215 
L 238.158331 208.849983 
L 238.290453 210.865778 
L 238.835452 210.865778 
L 238.984088 212.865049 
L 239.116209 209.560131 
L 239.24833 209.560131 
L 239.396967 212.865049 
L 239.661209 208.265143 
L 239.809845 211.556571 
L 239.941966 208.265143 
L 240.074087 211.556571 
L 240.222723 211.556571 
L 240.354845 210.258732 
L 240.899844 210.258732 
L 241.04848 208.971401 
L 241.180601 212.236178 
L 241.312722 208.971401 
L 241.461359 212.236178 
L 241.725601 207.694452 
L 241.874237 210.946065 
L 242.287115 210.946065 
L 242.419237 209.666313 
L 242.551358 212.904867 
L 242.699994 209.666313 
L 242.832115 212.904867 
L 243.112872 208.3968 
L 243.244993 211.6224 
L 243.657872 211.6224 
L 243.789993 210.350151 
L 244.07075 210.350151 
L 244.202871 213.5629 
L 244.483629 209.088 
L 244.61575 212.288 
L 244.764386 209.088 
L 244.896507 209.088 
L 245.028628 212.288 
L 245.177264 211.023178 
L 245.441506 211.023178 
L 245.590143 207.835826 
L 245.722264 211.023178 
L 245.854385 209.768315 
L 246.003021 212.943118 
L 246.135142 209.768315 
L 246.4159 209.768315 
L 246.548021 208.523294 
L 246.680142 211.685647 
L 246.828778 211.685647 
L 246.960899 208.523294 
L 247.09302 211.685647 
L 247.241656 210.438 
L 247.786656 210.438 
L 247.918777 209.200062 
L 248.067413 212.337805 
L 248.199534 209.200062 
L 248.331655 209.200062 
L 248.480292 212.337805 
L 248.612413 211.097302 
L 249.157412 211.097302 
L 249.306048 209.866378 
L 249.438169 212.979892 
L 249.570291 209.866378 
L 249.718927 209.866378 
L 249.851048 212.979892 
L 249.983169 211.746462 
L 250.131805 208.644923 
L 250.263926 211.746462 
L 250.396047 208.644923 
L 250.544684 211.746462 
L 250.676805 210.522483 
L 251.221804 210.522483 
L 251.37044 209.307847 
L 251.502561 209.307847 
L 251.634683 212.38571 
L 251.783319 209.307847 
L 251.91544 212.38571 
L 252.047561 211.168608 
L 252.196197 208.102449 
L 252.328318 211.168608 
L 252.609076 211.168608 
L 252.741197 209.960727 
L 253.154075 209.960727 
L 253.286196 213.015273 
L 253.434832 211.804981 
L 253.566953 208.761962 
L 253.699075 211.804981 
L 253.847711 208.761962 
L 253.979832 211.804981 
L 254.111953 210.603789 
L 254.673468 210.603789 
L 254.805589 209.411596 
L 254.93771 209.411596 
L 255.086346 212.43182 
L 255.218467 209.411596 
L 255.350588 209.411596 
L 255.499224 211.237254 
L 255.912103 211.237254 
L 256.044224 208.228299 
L 256.176345 210.051569 
L 256.324981 210.051569 
L 256.457102 213.049338 
L 256.589223 210.051569 
L 256.73786 210.051569 
L 256.869981 211.861333 
L 257.002102 208.874667 
L 257.150738 211.861333 
L 257.282859 211.861333 
L 257.41498 208.874667 
L 257.563616 210.682096 
L 258.108616 210.682096 
L 258.240737 212.476235 
L 258.389373 209.511529 
L 258.521494 212.476235 
L 258.653615 209.511529 
L 258.802252 209.511529 
L 258.934373 211.303385 
L 259.347251 211.303385 
L 259.479372 208.349538 
L 259.628008 210.139095 
L 260.173008 210.139095 
L 260.305129 211.915636 
L 260.453765 208.983273 
L 260.585886 208.983273 
L 260.718007 211.915636 
L 260.866644 208.983273 
L 260.998765 210.757565 
L 261.130886 210.757565 
L 261.279522 207.835826 
L 261.411643 210.757565 
L 261.543764 210.757565 
L 261.6924 212.519047 
L 261.824521 209.607856 
L 261.956643 209.607856 
L 262.105279 212.519047 
L 262.2374 209.607856 
L 262.369521 211.367137 
L 262.518157 211.367137 
L 262.650278 208.466417 
L 262.782399 211.367137 
L 262.931036 211.367137 
L 263.063157 213.113806 
L 263.195278 210.223484 
L 263.608156 210.223484 
L 263.756792 211.968 
L 263.888914 211.968 
L 264.021035 209.088 
L 264.169671 211.968 
L 264.301792 209.088 
L 264.433913 210.830349 
L 264.995428 210.830349 
L 265.127549 209.700766 
L 265.408306 209.700766 
L 265.540427 212.56034 
L 265.821184 208.579166 
L 265.953306 211.428636 
L 266.085427 208.579166 
L 266.234063 211.428636 
L 266.366184 211.428636 
L 266.498305 210.304901 
L 267.05982 210.304901 
L 267.191941 209.189053 
L 267.324062 212.018526 
L 267.472698 209.189053 
L 267.604819 212.018526 
L 267.885576 208.081007 
L 268.017698 210.900587 
L 268.430576 210.900587 
L 268.562697 209.790439 
L 268.711333 212.600195 
L 268.843454 209.790439 
L 268.975575 212.600195 
L 269.256333 208.688 
L 269.388454 211.488 
L 269.801332 211.488 
L 269.949968 210.383502 
L 270.494968 210.383502 
L 270.627089 209.286621 
L 270.775725 212.06731 
L 270.907846 209.286621 
L 271.039967 209.286621 
L 271.188604 212.06731 
L 271.320725 210.968412 
L 271.601482 210.968412 
L 271.733603 208.197278 
L 271.865724 210.968412 
L 272.01436 209.877041 
L 272.146482 212.638685 
L 272.278603 209.877041 
L 272.55936 209.877041 
L 272.691481 208.793119 
L 272.840117 211.545338 
L 272.972238 211.545338 
L 273.104359 208.793119 
L 273.252996 211.545338 
L 273.385117 210.459429 
L 273.930116 210.459429 
L 274.078752 209.380881 
L 274.210874 212.114441 
L 274.342995 209.380881 
L 274.491631 209.380881 
L 274.623752 212.114441 
L 274.755873 211.033946 
L 275.317388 211.033946 
L 275.449509 209.960727 
L 275.862387 209.960727 
L 275.994508 212.675879 
L 276.143144 211.600752 
L 276.275266 208.894711 
L 276.407387 211.600752 
L 276.556023 208.894711 
L 276.688144 211.600752 
L 276.820265 210.532816 
L 277.38178 210.532816 
L 277.513901 209.472 
L 277.646022 209.472 
L 277.794658 212.16 
L 277.926779 209.472 
L 278.0589 212.16 
L 278.207537 211.097302 
L 278.339658 208.418233 
L 278.471779 211.097302 
L 278.752536 211.097302 
L 278.884657 210.041642 
L 279.297535 210.041642 
L 279.446172 212.711841 
L 279.578293 211.654337 
L 279.710414 208.99295 
L 279.85905 211.654337 
L 279.991171 208.99295 
L 280.123292 211.654337 
L 280.271929 210.603789 
L 280.684807 210.603789 
L 280.816928 207.951158 
L 280.949049 209.560131 
L 281.097685 209.560131 
L 281.229806 212.204066 
L 281.361928 209.560131 
L 281.510564 209.560131 
L 281.642685 211.158588 
L 282.055563 211.158588 
L 282.187684 208.523294 
L 282.336321 210.119922 
L 282.468442 210.119922 
L 282.600563 212.746632 
L 282.749199 210.119922 
L 282.88132 210.119922 
L 283.013441 211.706182 
L 283.162077 209.088 
L 283.294198 211.706182 
L 283.42632 211.706182 
L 283.574956 209.088 
L 283.707077 210.672466 
L 284.252076 210.672466 
L 284.400713 212.24671 
L 284.532834 209.645419 
L 284.664955 212.24671 
L 284.813591 209.645419 
L 284.945712 209.645419 
L 285.077833 211.217904 
L 285.226469 211.217904 
L 285.35859 208.624977 
L 285.490712 211.217904 
L 285.639348 208.624977 
L 285.771469 210.195692 
L 286.316468 210.195692 
L 286.465105 211.756371 
L 286.597226 209.180013 
L 286.729347 209.180013 
L 286.877983 211.756371 
L 287.010104 209.180013 
L 287.142225 210.738955 
L 287.290861 210.738955 
L 287.422982 208.170803 
L 287.555104 210.738955 
L 287.70374 210.738955 
L 287.835861 212.288 
L 287.967982 209.728 
L 288.116618 209.728 
L 288.248739 212.288 
L 288.38086 209.728 
L 288.529497 211.275342 
L 288.661618 211.275342 
L 288.793739 208.723443 
L 288.942375 211.275342 
L 289.074496 211.275342 
L 289.206617 212.812921 
L 289.355253 210.269073 
L 289.768132 210.269073 
L 289.900253 211.804981 
L 290.032374 211.804981 
L 290.18101 209.269132 
L 290.313131 211.804981 
L 290.593889 208.275461 
L 290.72601 210.803361 
L 291.138888 210.803361 
L 291.271009 209.808 
L 291.551766 209.808 
L 291.683888 212.328 
L 291.964645 208.818841 
L 292.096766 211.330991 
L 292.245402 208.818841 
L 292.377523 211.330991 
L 292.509644 211.330991 
L 292.658281 210.340174 
L 293.20328 210.340174 
L 293.335401 209.355492 
L 293.484037 211.852087 
L 293.616158 209.355492 
L 293.74828 211.852087 
L 294.029037 208.376889 
L 294.161158 210.865778 
L 294.574036 210.865778 
L 294.722673 209.885538 
L 294.854794 212.366769 
L 294.986915 209.885538 
L 295.135551 212.366769 
L 295.399793 208.911313 
L 295.548429 211.384933 
L 295.680551 211.384933 
L 295.812672 208.911313 
L 295.961308 211.384933 
L 296.093429 210.409101 
L 296.638428 210.409101 
L 296.787065 209.43922 
L 296.919186 211.897756 
L 297.051307 209.43922 
L 297.199943 209.43922 
L 297.332064 211.897756 
L 297.464185 210.926298 
L 297.744943 210.926298 
L 297.877064 208.475234 
L 298.0257 210.926298 
L 298.157821 209.960727 
L 298.289942 212.404364 
L 298.438578 209.960727 
L 298.70282 209.960727 
L 298.851457 209.000991 
L 298.983578 211.437245 
L 299.115699 211.437245 
L 299.264335 209.000991 
L 299.396456 211.437245 
L 299.528577 210.475952 
L 300.090092 210.475952 
L 300.222213 209.520432 
L 300.635091 209.520432 
L 300.767212 211.942054 
L 300.915849 210.985006 
L 301.04797 208.570635 
L 301.180091 210.985006 
L 301.460848 210.985006 
L 301.592969 210.033672 
L 302.005848 210.033672 
L 302.154484 212.440836 
L 302.286605 211.488 
L 302.418726 209.088 
L 302.567362 211.488 
L 302.699483 209.088 
L 302.831604 211.488 
L 302.980241 210.540819 
L 303.52524 210.540819 
L 303.657361 209.599243 
L 303.805997 209.599243 
L 303.938119 211.985041 
L 304.07024 209.599243 
L 304.218876 211.985041 
L 304.350997 211.041982 
L 304.483118 208.663221 
L 304.631754 211.041982 
L 304.895996 211.041982 
L 305.044633 210.104471 
L 305.589632 210.104471 
L 305.721753 211.537267 
L 305.870389 209.172457 
L 306.002511 211.537267 
L 306.134632 209.172457 
L 306.283268 209.172457 
L 306.415389 210.603789 
L 306.960388 210.603789 
L 307.109025 212.026776 
L 307.241146 209.675755 
L 307.373267 212.026776 
L 307.521903 209.675755 
L 307.654024 209.675755 
L 307.786145 211.097302 
L 308.199024 211.097302 
L 308.34766 208.753116 
L 308.479781 210.173217 
L 308.611902 210.173217 
L 308.760538 212.510609 
L 308.892659 210.173217 
L 309.02478 210.173217 
L 309.173417 211.58511 
L 309.305538 209.254474 
L 309.437659 211.58511 
L 309.586295 211.58511 
L 309.718416 209.254474 
L 309.850537 210.664945 
L 310.412052 210.664945 
L 310.544173 212.06731 
L 310.676294 209.750069 
L 311.089172 209.750069 
L 311.237809 211.151037 
L 311.36993 211.151037 
L 311.502051 208.840436 
L 311.650687 211.151037 
L 311.782808 208.840436 
L 311.914929 210.24 
L 312.476444 210.24 
L 312.608565 211.63159 
L 312.740686 209.334154 
L 312.889322 209.334154 
L 313.021443 211.63159 
L 313.153564 209.334154 
L 313.302201 210.724364 
L 313.8472 210.724364 
L 313.979321 212.106697 
L 314.127958 209.822278 
L 314.260079 209.822278 
L 314.3922 212.106697 
L 314.540836 209.822278 
L 314.672957 211.203254 
L 314.805078 211.203254 
L 314.953714 208.925288 
L 315.085835 211.203254 
L 315.217957 211.203254 
L 315.366593 212.576451 
L 315.498714 210.304901 
L 315.911592 210.304901 
L 316.043713 209.411596 
L 316.19235 211.676764 
L 316.324471 209.411596 
L 316.456592 211.676764 
L 316.737349 208.523294 
L 316.86947 210.782118 
L 317.282349 210.782118 
L 317.430985 209.892469 
L 317.695227 209.892469 
L 317.843863 212.144983 
L 318.108105 209.007777 
L 318.256742 211.254017 
L 318.388863 209.007777 
L 318.520984 211.254017 
L 318.66962 211.254017 
L 318.801741 210.368 
L 319.346741 210.368 
L 319.495377 209.486892 
L 319.627498 211.720687 
L 319.759619 209.486892 
L 319.908255 211.720687 
L 320.040376 211.720687 
L 320.172497 210.838276 
L 320.453255 210.838276 
L 320.585376 208.610652 
L 320.734012 210.838276 
L 320.866133 209.960727 
L 320.998254 212.182215 
L 321.14689 209.960727 
L 321.411133 209.960727 
L 321.559769 209.088 
L 321.69189 211.303385 
L 321.824011 211.303385 
L 321.972647 209.088 
L 322.104768 211.303385 
L 322.236889 210.42937 
L 322.798404 210.42937 
L 322.930525 209.560131 
L 323.062646 211.76341 
L 323.211282 209.560131 
L 323.343403 209.560131 
L 323.475525 211.76341 
L 323.624161 210.892905 
L 323.888403 210.892905 
L 324.037039 208.695629 
L 324.16916 210.892905 
L 324.301281 210.02713 
L 324.449918 212.218435 
L 324.582039 210.02713 
L 324.862796 210.02713 
L 324.994917 209.166049 
L 325.127038 211.351415 
L 325.275674 211.351415 
L 325.407795 209.166049 
L 325.539917 211.351415 
L 325.688553 210.489081 
L 325.820674 208.309622 
L 325.952795 210.489081 
L 326.233552 210.489081 
L 326.365673 209.631396 
L 326.51431 209.631396 
L 326.646431 211.804981 
L 326.778552 209.631396 
L 326.927188 211.804981 
L 327.059309 210.946065 
L 327.19143 208.778323 
L 327.340066 210.946065 
L 327.604309 210.946065 
L 327.752945 210.091753 
L 328.165823 210.091753 
L 328.297944 212.253684 
L 328.430065 211.39816 
L 328.578702 209.242011 
L 328.710823 211.39816 
L 328.842944 209.242011 
L 328.99158 211.39816 
L 329.123701 210.5472 
L 329.668701 210.5472 
L 329.817337 209.700766 
L 329.949458 209.700766 
L 330.081579 211.845447 
L 330.230215 209.700766 
L 330.362336 211.845447 
L 330.494457 210.997814 
L 330.643094 208.858822 
L 330.775215 210.997814 
L 330.907336 210.997814 
L 331.055972 208.858822 
L 331.188093 210.154667 
L 331.733093 210.154667 
L 331.881729 211.443673 
L 332.01385 209.315968 
L 332.145971 211.443673 
L 332.294607 209.315968 
L 332.426728 209.315968 
L 332.558849 210.603789 
L 333.120364 210.603789 
L 333.252485 211.88485 
L 333.384606 209.768315 
L 333.533242 211.88485 
L 333.665364 209.768315 
L 333.797485 209.768315 
L 333.946121 211.048209 
L 334.358999 211.048209 
L 334.49112 208.937215 
L 334.623241 210.215937 
L 334.771878 210.215937 
L 334.903999 212.32142 
L 335.03612 210.215937 
L 335.184756 210.215937 
L 335.316877 211.488 
L 335.448998 209.388 
L 335.597634 209.388 
L 335.729756 211.488 
L 335.861877 209.388 
L 336.010513 210.658909 
L 336.142634 210.658909 
L 336.274755 208.564364 
L 336.423391 210.658909 
L 336.555512 210.658909 
L 336.687633 211.923233 
L 336.83627 209.834114 
L 337.249148 209.834114 
L 337.381269 211.097302 
L 337.51339 211.097302 
L 337.662026 209.013581 
L 337.794148 211.097302 
L 337.926269 209.013581 
L 338.074905 210.275629 
L 338.619904 210.275629 
L 338.752025 211.531188 
L 338.900662 211.531188 
L 339.032783 209.45818 
L 339.164904 211.531188 
L 339.31354 209.45818 
L 339.445661 210.712615 
L 339.990661 210.712615 
L 340.139297 211.960634 
L 340.271418 209.89823 
L 340.403539 209.89823 
L 340.552175 211.960634 
L 340.816417 209.088 
L 340.965054 211.145143 
L 341.097175 209.088 
L 341.229296 211.145143 
L 341.377932 211.145143 
L 341.510053 210.333802 
L 342.055053 210.333802 
L 342.203689 209.526579 
L 342.33581 211.573279 
L 342.467931 209.526579 
L 342.616567 211.573279 
L 342.880809 208.723443 
L 343.029446 210.764962 
L 343.442324 210.764962 
L 343.574445 209.960727 
L 343.855203 209.960727 
L 343.987324 211.997091 
L 344.268081 209.160544 
L 344.400202 211.191778 
L 344.532323 209.160544 
L 344.680959 211.191778 
L 344.81308 211.191778 
L 344.945201 210.390513 
L 345.506716 210.390513 
L 345.638837 209.593263 
L 345.770958 211.614316 
L 345.919595 209.593263 
L 346.051716 209.593263 
L 346.183837 211.614316 
L 346.332473 210.816 
L 346.596715 210.816 
L 346.745351 208.8 
L 346.877472 210.816 
L 347.009594 210.021666 
L 347.15823 212.032638 
L 347.290351 210.021666 
L 347.571108 210.021666 
L 347.703229 209.231284 
L 347.83535 211.237254 
L 347.983987 211.237254 
L 348.116108 209.231284 
L 348.248229 211.237254 
L 348.396865 210.445816 
L 348.941864 210.445816 
L 349.073986 209.658297 
L 349.222622 211.654337 
L 349.354743 209.658297 
L 349.486864 209.658297 
L 349.6355 211.654337 
L 349.767621 210.865778 
L 350.048379 210.865778 
L 350.1805 208.874667 
L 350.312621 210.865778 
L 350.461257 210.081103 
L 351.006256 210.081103 
L 351.138378 209.300285 
L 351.287014 209.300285 
L 351.419135 211.281612 
L 351.551256 209.300285 
L 351.699892 211.281612 
L 351.832013 210.499765 
L 352.377013 210.499765 
L 352.525649 209.721741 
L 352.65777 209.721741 
L 352.789891 211.693379 
L 352.938527 209.721741 
L 353.070648 211.693379 
L 353.20277 210.914341 
L 353.351406 208.947512 
L 353.483527 210.914341 
L 353.764284 210.914341 
L 353.896405 210.139095 
L 354.309284 210.139095 
L 354.441405 212.101139 
L 354.590041 211.324893 
L 354.722162 209.367612 
L 354.854283 211.324893 
L 355.002919 209.367612 
L 355.13504 211.324893 
L 355.267162 210.552407 
L 355.68004 210.552407 
L 355.828676 208.599864 
L 355.960797 209.783652 
L 356.092918 209.783652 
L 356.241555 211.731478 
L 356.373676 209.783652 
L 356.505797 209.783652 
L 356.654433 210.961735 
L 356.786554 209.018602 
L 356.918675 210.961735 
L 357.067311 210.961735 
L 357.199432 209.018602 
L 357.331554 210.195692 
L 357.48019 210.195692 
L 357.612311 212.134154 
L 357.744432 210.195692 
L 357.893068 210.195692 
L 358.025189 211.367137 
L 358.15731 209.433324 
L 358.305947 211.367137 
L 358.438068 211.367137 
L 358.570189 209.433324 
L 358.718825 210.603789 
L 359.263824 210.603789 
L 359.395946 211.768668 
L 359.544582 209.844086 
L 359.676703 211.768668 
L 359.808824 209.844086 
L 359.95746 209.844086 
L 360.089581 211.008 
L 360.221702 211.008 
L 360.370339 209.088 
L 360.50246 211.008 
L 360.634581 209.088 
L 360.783217 210.250945 
L 361.328217 210.250945 
L 361.460338 211.408379 
L 361.608974 209.497479 
L 361.741095 209.497479 
L 361.873216 211.408379 
L 362.021852 209.497479 
L 362.153973 210.653957 
L 362.286094 210.653957 
L 362.434731 208.747574 
L 362.566852 210.653957 
L 362.698973 210.653957 
L 362.847609 211.804981 
L 362.97973 209.903094 
L 363.392609 209.903094 
L 363.52473 211.053176 
L 363.673366 211.053176 
L 363.805487 209.155765 
L 363.937608 211.053176 
L 364.086244 211.053176 
L 364.218365 212.197859 
L 364.350486 210.304901 
L 364.763365 210.304901 
L 364.912001 211.448656 
L 365.044122 211.448656 
L 365.176243 209.560131 
L 365.324879 211.448656 
L 365.589122 208.818841 
L 365.737758 210.702953 
L 366.150636 210.702953 
L 366.282757 209.960727 
L 366.563515 209.960727 
L 366.695636 211.840448 
L 366.976393 209.221953 
L 367.108514 211.097302 
L 367.240635 209.221953 
L 367.389271 211.097302 
L 367.521393 211.097302 
L 367.653514 210.357606 
L 368.215028 210.357606 
L 368.347149 209.621333 
L 368.47927 211.488 
L 368.627907 209.621333 
L 368.760028 211.488 
L 369.040785 208.888462 
L 369.172906 210.750818 
L 369.585785 210.750818 
L 369.717906 210.017032 
L 370.27942 210.017032 
L 370.411541 209.286621 
L 370.543662 211.140414 
L 370.692299 211.140414 
L 370.82442 209.286621 
L 370.956541 211.140414 
L 371.105177 210.409101 
L 371.650177 210.409101 
L 371.782298 209.681135 
L 371.930934 211.526444 
L 372.063055 209.681135 
L 372.195176 209.681135 
L 372.343812 211.526444 
L 372.475933 210.797589 
L 372.756691 210.797589 
L 372.888812 208.956493 
L 373.020933 210.797589 
L 373.169569 210.072055 
L 373.30169 211.908957 
L 373.433811 210.072055 
L 373.714569 210.072055 
L 373.84669 209.349818 
L 373.995326 211.182545 
L 374.127447 211.182545 
L 374.259568 209.349818 
L 374.408204 211.182545 
L 374.540325 210.459429 
L 375.085325 210.459429 
L 375.233961 209.739584 
L 375.64684 209.739584 
L 375.778961 211.564018 
L 375.911082 210.843305 
L 376.059718 209.022989 
L 376.191839 210.843305 
L 376.32396 209.022989 
L 376.472596 210.843305 
L 376.604717 210.125838 
L 377.017596 210.125838 
L 377.149717 211.942054 
L 377.298353 211.22373 
L 377.430474 209.411596 
L 377.562595 211.22373 
L 377.711232 209.411596 
L 377.843353 211.22373 
L 377.975474 210.508628 
L 378.536988 210.508628 
L 378.669109 209.796725 
L 378.80123 209.796725 
L 378.949867 211.600752 
L 379.081988 209.796725 
L 379.214109 211.600752 
L 379.362745 210.888 
L 379.494866 209.088 
L 379.626987 210.888 
L 379.907745 210.888 
L 380.039866 210.178423 
L 380.60138 210.178423 
L 380.733501 211.264 
L 380.865623 209.472 
L 381.014259 211.264 
L 381.14638 209.472 
L 381.278501 209.472 
L 381.427137 210.556736 
L 381.840016 210.556736 
L 381.972137 208.76871 
L 382.104258 209.852602 
L 382.252894 209.852602 
L 382.385015 211.636673 
L 382.517136 209.852602 
L 382.665772 209.852602 
L 382.797893 210.931709 
L 383.210772 210.931709 
L 383.342893 209.151576 
L 383.491529 210.22985 
L 383.62365 210.22985 
L 383.755771 212.006062 
L 383.904408 210.22985 
L 384.036529 210.22985 
L 384.16865 211.303385 
L 384.317286 209.531077 
L 384.449407 211.303385 
L 384.581528 211.303385 
L 384.730164 209.531077 
L 384.862285 210.603789 
L 384.994407 210.603789 
L 385.143043 208.835368 
L 385.275164 210.603789 
L 385.407285 210.603789 
L 385.555921 211.671807 
L 385.688042 209.907256 
L 386.100921 209.907256 
L 386.233042 210.974463 
L 386.381678 210.974463 
L 386.513799 209.213764 
L 386.64592 210.974463 
L 386.794556 209.213764 
L 386.926677 210.280157 
L 387.471677 210.280157 
L 387.620313 211.341913 
L 387.752434 209.58887 
L 387.884555 209.58887 
L 388.033192 211.341913 
L 388.165313 209.58887 
L 388.297434 210.649822 
L 388.44607 210.649822 
L 388.578191 208.900581 
L 388.710312 210.649822 
L 388.858948 210.649822 
L 388.991069 211.706182 
L 389.123191 209.960727 
L 389.271827 209.960727 
L 389.403948 211.706182 
L 389.536069 209.960727 
L 389.684705 211.016294 
L 389.816826 211.016294 
L 389.948947 209.274609 
L 390.097584 211.016294 
L 390.229705 211.016294 
L 390.361826 210.329379 
L 390.92334 210.329379 
L 391.055461 209.645419 
L 391.187583 211.379613 
L 391.336219 209.645419 
L 391.46834 211.379613 
L 391.749097 208.964395 
L 391.881218 210.694867 
L 392.294097 210.694867 
L 392.426218 210.013054 
L 392.706975 210.013054 
L 392.839096 211.73982 
L 393.119853 209.334154 
L 393.251975 211.057231 
L 393.400611 209.334154 
L 393.532732 211.057231 
L 393.664853 211.057231 
L 393.813489 210.377552 
L 394.358489 210.377552 
L 394.49061 209.700766 
L 394.639246 211.416511 
L 394.771367 209.700766 
L 395.052124 209.700766 
L 395.184246 209.026854 
L 395.316367 210.738955 
L 395.465003 210.738955 
L 395.597124 209.026854 
L 395.729245 210.738955 
L 395.877881 210.064271 
L 396.010002 211.772746 
L 396.142123 210.064271 
L 396.422881 210.064271 
L 396.555002 209.39244 
L 396.703638 211.097302 
L 396.835759 211.097302 
L 396.96788 209.39244 
L 397.116516 211.097302 
L 397.248638 210.424709 
L 397.793637 210.424709 
L 397.942273 209.754947 
L 398.074394 211.452632 
L 398.206515 209.754947 
L 398.487273 209.754947 
L 398.487273 209.754947 
" style="fill:none;stroke:#1f77b4;stroke-linecap:square;stroke-width:1.5;"/>
   </g>
   <g id="patch_3">
    <path d="M 57.6 307.584 
L 57.6 41.472 
" style="fill:none;stroke:#000000;stroke-linecap:square;stroke-linejoin:miter;stroke-width:0.8;"/>
   </g>
   <g id="patch_4">
    <path d="M 414.72 307.584 
L 414.72 41.472 
" style="fill:none;stroke:#000000;stroke-linecap:square;stroke-linejoin:miter;stroke-width:0.8;"/>
   </g>
   <g id="patch_5">
    <path d="M 57.6 307.584 
L 414.72 307.584 
" style="fill:none;stroke:#000000;stroke-linecap:square;stroke-linejoin:miter;stroke-width:0.8;"/>
   </g>
   <g id="patch_6">
    <path d="M 57.6 41.472 
L 414.72 41.472 
" style="fill:none;stroke:#000000;stroke-linecap:square;stroke-linejoin:miter;stroke-width:0.8;"/>
   </g>
   <g id="text_20">
    <!-- Speed function of time -->
    <g transform="translate(167.024063 35.472)scale(0.12 -0.12)">
     <defs>
      <path id="DejaVuSerif-32"/>
      <path d="M 43.015625 63.71875 
L 38.28125 63.71875 
Q 38.234375 67.390625 36.203125 69.28125 
Q 34.1875 71.1875 30.328125 71.1875 
Q 25.296875 71.1875 23.234375 68.421875 
Q 21.1875 65.671875 21.1875 58.59375 
L 21.1875 51.90625 
L 35.6875 51.90625 
L 35.6875 46.6875 
L 21.1875 46.6875 
L 21.1875 5.171875 
L 32.71875 5.171875 
L 32.71875 0 
L 3.609375 0 
L 3.609375 5.171875 
L 12.203125 5.171875 
L 12.203125 46.6875 
L 3.609375 46.6875 
L 3.609375 51.90625 
L 12.203125 51.90625 
L 12.203125 58.40625 
Q 12.203125 67.09375 16.71875 71.53125 
Q 21.234375 75.984375 29.984375 75.984375 
Q 33.25 75.984375 36.515625 75.390625 
Q 39.796875 74.8125 43.015625 73.578125 
z
" id="DejaVuSerif-102"/>
      <path d="M 35.40625 51.90625 
L 52.203125 51.90625 
L 52.203125 5.171875 
L 60.6875 5.171875 
L 60.6875 0 
L 43.21875 0 
L 43.21875 9.1875 
Q 40.71875 4 36.765625 1.28125 
Q 32.8125 -1.421875 27.59375 -1.421875 
Q 18.953125 -1.421875 14.875 3.484375 
Q 10.796875 8.40625 10.796875 18.890625 
L 10.796875 46.6875 
L 2.6875 46.6875 
L 2.6875 51.90625 
L 19.828125 51.90625 
L 19.828125 21.6875 
Q 19.828125 12.203125 22.140625 8.6875 
Q 24.46875 5.171875 30.421875 5.171875 
Q 36.671875 5.171875 39.9375 9.765625 
Q 43.21875 14.359375 43.21875 23.09375 
L 43.21875 46.6875 
L 35.40625 46.6875 
z
" id="DejaVuSerif-117"/>
      <path d="M 4.109375 0 
L 4.109375 5.171875 
L 12.203125 5.171875 
L 12.203125 46.6875 
L 3.609375 46.6875 
L 3.609375 51.90625 
L 21.1875 51.90625 
L 21.1875 42.671875 
Q 23.6875 47.953125 27.65625 50.640625 
Q 31.640625 53.328125 36.921875 53.328125 
Q 45.515625 53.328125 49.5625 48.390625 
Q 53.609375 43.453125 53.609375 33.015625 
L 53.609375 5.171875 
L 61.625 5.171875 
L 61.625 0 
L 36.8125 0 
L 36.8125 5.171875 
L 44.578125 5.171875 
L 44.578125 30.171875 
Q 44.578125 39.703125 42.234375 43.234375 
Q 39.890625 46.78125 33.984375 46.78125 
Q 27.734375 46.78125 24.453125 42.203125 
Q 21.1875 37.640625 21.1875 28.90625 
L 21.1875 5.171875 
L 29 5.171875 
L 29 0 
z
" id="DejaVuSerif-110"/>
      <path d="M 51.421875 15.578125 
Q 49.515625 7.28125 44.09375 2.921875 
Q 38.671875 -1.421875 30.078125 -1.421875 
Q 18.75 -1.421875 11.859375 6.078125 
Q 4.984375 13.578125 4.984375 25.984375 
Q 4.984375 38.421875 11.859375 45.875 
Q 18.75 53.328125 30.078125 53.328125 
Q 35.015625 53.328125 39.890625 52.171875 
Q 44.78125 51.03125 49.703125 48.6875 
L 49.703125 35.40625 
L 44.484375 35.40625 
Q 43.453125 42.234375 40.015625 45.359375 
Q 36.578125 48.484375 30.171875 48.484375 
Q 22.90625 48.484375 19.1875 42.84375 
Q 15.484375 37.203125 15.484375 25.984375 
Q 15.484375 14.75 19.171875 9.078125 
Q 22.859375 3.421875 30.171875 3.421875 
Q 35.984375 3.421875 39.453125 6.4375 
Q 42.921875 9.46875 44.1875 15.578125 
z
" id="DejaVuSerif-99"/>
      <path d="M 10.796875 46.6875 
L 2.875 46.6875 
L 2.875 51.90625 
L 10.796875 51.90625 
L 10.796875 68.015625 
L 19.828125 68.015625 
L 19.828125 51.90625 
L 36.71875 51.90625 
L 36.71875 46.6875 
L 19.828125 46.6875 
L 19.828125 13.71875 
Q 19.828125 7.125 21.09375 5.265625 
Q 22.359375 3.421875 25.78125 3.421875 
Q 29.296875 3.421875 30.90625 5.484375 
Q 32.515625 7.5625 32.625 12.203125 
L 39.40625 12.203125 
Q 39.015625 5.125 35.546875 1.84375 
Q 32.078125 -1.421875 25 -1.421875 
Q 17.234375 -1.421875 14.015625 2.015625 
Q 10.796875 5.46875 10.796875 13.71875 
z
" id="DejaVuSerif-116"/>
      <path d="M 30.078125 3.421875 
Q 37.3125 3.421875 40.984375 9.125 
Q 44.671875 14.84375 44.671875 25.984375 
Q 44.671875 37.109375 40.984375 42.796875 
Q 37.3125 48.484375 30.078125 48.484375 
Q 22.859375 48.484375 19.171875 42.796875 
Q 15.484375 37.109375 15.484375 25.984375 
Q 15.484375 14.84375 19.1875 9.125 
Q 22.90625 3.421875 30.078125 3.421875 
z
M 30.078125 -1.421875 
Q 18.75 -1.421875 11.859375 6.078125 
Q 4.984375 13.578125 4.984375 25.984375 
Q 4.984375 38.375 11.84375 45.84375 
Q 18.703125 53.328125 30.078125 53.328125 
Q 41.453125 53.328125 48.3125 45.84375 
Q 55.171875 38.375 55.171875 25.984375 
Q 55.171875 13.578125 48.3125 6.078125 
Q 41.453125 -1.421875 30.078125 -1.421875 
z
" id="DejaVuSerif-111"/>
     </defs>
     <use xlink:href="#DejaVuSerif-83"/>
     <use x="68.505859" xlink:href="#DejaVuSerif-112"/>
     <use x="132.519531" xlink:href="#DejaVuSerif-101"/>
     <use x="191.699219" xlink:href="#DejaVuSerif-101"/>
     <use x="250.878906" xlink:href="#DejaVuSerif-100"/>
     <use x="314.892578" xlink:href="#DejaVuSerif-32"/>
     <use x="346.679688" xlink:href="#DejaVuSerif-102"/>
     <use x="383.691406" xlink:href="#DejaVuSerif-117"/>
     <use x="448.095703" xlink:href="#DejaVuSerif-110"/>
     <use x="512.5" xlink:href="#DejaVuSerif-99"/>
     <use x="568.505859" xlink:href="#DejaVuSerif-116"/>
     <use x="608.691406" xlink:href="#DejaVuSerif-105"/>
     <use x="640.673828" xlink:href="#DejaVuSerif-111"/>
     <use x="700.878906" xlink:href="#DejaVuSerif-110"/>
     <use x="765.283203" xlink:href="#DejaVuSerif-32"/>
     <use x="797.070312" xlink:href="#DejaVuSerif-111"/>
     <use x="857.275391" xlink:href="#DejaVuSerif-102"/>
     <use x="894.287109" xlink:href="#DejaVuSerif-32"/>
     <use x="926.074219" xlink:href="#DejaVuSerif-116"/>
     <use x="966.259766" xlink:href="#DejaVuSerif-105"/>
     <use x="998.242188" xlink:href="#DejaVuSerif-109"/>
     <use x="1093.066406" xlink:href="#DejaVuSerif-101"/>
    </g>
   </g>
  </g>
 </g>
 <defs>
  <clipPath id="p135f2735a7">
   <rect height="266.112" width="357.12" x="57.6" y="41.472"/>
  </clipPath>
 </defs>
</svg>
