<?xml version="1.0" encoding="UTF-8" standalone="no"?>
<!-- Created with Inkscape (http://www.inkscape.org/) -->

<svg
   width="75mm"
   height="54mm"
   viewBox="0 0 75 54"
   version="1.1"
   id="svg14443"
   inkscape:version="1.2.1 (0f2f062aeb, 2022-09-21, custom)"
   sodipodi:docname="eradication_density.svg"
   inkscape:export-filename="../6f428e40/eradication_density.png"
   inkscape:export-xdpi="200"
   inkscape:export-ydpi="200"
   xmlns:inkscape="http://www.inkscape.org/namespaces/inkscape"
   xmlns:sodipodi="http://sodipodi.sourceforge.net/DTD/sodipodi-0.dtd"
   xmlns="http://www.w3.org/2000/svg"
   xmlns:svg="http://www.w3.org/2000/svg">
  <sodipodi:namedview
     id="namedview14445"
     pagecolor="#ffffff"
     bordercolor="#666666"
     borderopacity="1.0"
     inkscape:showpageshadow="2"
     inkscape:pageopacity="0.0"
     inkscape:pagecheckerboard="0"
     inkscape:deskcolor="#d1d1d1"
     inkscape:document-units="mm"
     showgrid="false"
     showguides="true"
     inkscape:zoom="1.2660539"
     inkscape:cx="46.601491"
     inkscape:cy="135.8552"
     inkscape:window-width="1657"
     inkscape:window-height="909"
     inkscape:window-x="97"
     inkscape:window-y="119"
     inkscape:window-maximized="0"
     inkscape:current-layer="layer1" />
  <defs
     id="defs14440">
    <clipPath
       id="p840022f3ac">
      <rect
         id="rect6186"
         y="41.472"
         x="57.599998"
         width="357.12"
         height="266.112" />
    </clipPath>
    <clipPath
       id="clipPath14303">
      <rect
         id="rect14301"
         y="41.472"
         x="57.599998"
         width="357.12"
         height="266.112" />
    </clipPath>
    <clipPath
       id="clipPath14307">
      <rect
         id="rect14305"
         y="41.472"
         x="57.599998"
         width="357.12"
         height="266.112" />
    </clipPath>
    <clipPath
       id="clipPath14311">
      <rect
         id="rect14309"
         y="41.472"
         x="57.599998"
         width="357.12"
         height="266.112" />
    </clipPath>
    <clipPath
       id="clipPath14315">
      <rect
         id="rect14313"
         y="41.472"
         x="57.599998"
         width="357.12"
         height="266.112" />
    </clipPath>
    <clipPath
       id="clipPath14319">
      <rect
         id="rect14317"
         y="41.472"
         x="57.599998"
         width="357.12"
         height="266.112" />
    </clipPath>
    <clipPath
       id="clipPath14323">
      <rect
         id="rect14321"
         y="41.472"
         x="57.599998"
         width="357.12"
         height="266.112" />
    </clipPath>
    <clipPath
       id="clipPath14327">
      <rect
         id="rect14325"
         y="41.472"
         x="57.599998"
         width="357.12"
         height="266.112" />
    </clipPath>
    <clipPath
       id="clipPath14331">
      <rect
         id="rect14329"
         y="41.472"
         x="57.599998"
         width="357.12"
         height="266.112" />
    </clipPath>
    <clipPath
       id="clipPath14335">
      <rect
         id="rect14333"
         y="41.472"
         x="57.599998"
         width="357.12"
         height="266.112" />
    </clipPath>
    <clipPath
       id="clipPath14339">
      <rect
         id="rect14337"
         y="41.472"
         x="57.599998"
         width="357.12"
         height="266.112" />
    </clipPath>
    <clipPath
       id="clipPath14343">
      <rect
         id="rect14341"
         y="41.472"
         x="57.599998"
         width="357.12"
         height="266.112" />
    </clipPath>
    <clipPath
       id="clipPath14347">
      <rect
         id="rect14345"
         y="41.472"
         x="57.599998"
         width="357.12"
         height="266.112" />
    </clipPath>
    <path
       style="stroke:#000000;stroke-width:0.8;stroke-linecap:butt;stroke-linejoin:round"
       id="path6276"
       d="M 0,0 H -3.5"
       inkscape:connector-curvature="0" />
    <path
       id="path6282"
       d="m 31.78125,3.421875 q 7.484375,0 11.1875,8.203125 3.71875,8.203125 3.71875,24.75 0,16.609375 -3.71875,24.8125 -3.703125,8.203125 -11.1875,8.203125 -7.46875,0 -11.1875,-8.203125 -3.703125,-8.203125 -3.703125,-24.8125 0,-16.546875 3.703125,-24.75 3.71875,-8.203125 11.1875,-8.203125 z m 0,-4.84375 Q 19.921875,-1.421875 13.25,8.53125 6.59375,18.5 6.59375,36.375 q 0,17.921875 6.65625,27.875 6.671875,9.96875 18.53125,9.96875 11.921875,0 18.5625,-9.96875 6.640625,-9.953125 6.640625,-27.875 0,-17.875 -6.640625,-27.84375 -6.640625,-9.953125 -18.5625,-9.953125 z"
       inkscape:connector-curvature="0"
       style="stroke-linecap:butt;stroke-linejoin:round" />
    <path
       id="path6294"
       d="M 14.203125,0 V 5.171875 H 26.90625 v 60.65625 l -14.703125,-9.53125 v 6.40625 L 29.984375,74.21875 H 36.71875 V 5.171875 H 49.421875 V 0 Z"
       inkscape:connector-curvature="0"
       style="stroke-linecap:butt;stroke-linejoin:round" />
    <clipPath
       id="p840022f3ac-1">
      <rect
         id="rect6186-2"
         y="41.472"
         x="57.599998"
         width="357.12"
         height="266.112" />
    </clipPath>
    <clipPath
       id="clipPath14303-7">
      <rect
         id="rect14301-0"
         y="41.472"
         x="57.599998"
         width="357.12"
         height="266.112" />
    </clipPath>
    <clipPath
       id="clipPath14307-9">
      <rect
         id="rect14305-3"
         y="41.472"
         x="57.599998"
         width="357.12"
         height="266.112" />
    </clipPath>
    <clipPath
       id="clipPath14311-6">
      <rect
         id="rect14309-0"
         y="41.472"
         x="57.599998"
         width="357.12"
         height="266.112" />
    </clipPath>
    <clipPath
       id="clipPath14315-6">
      <rect
         id="rect14313-2"
         y="41.472"
         x="57.599998"
         width="357.12"
         height="266.112" />
    </clipPath>
    <clipPath
       id="clipPath14319-6">
      <rect
         id="rect14317-1"
         y="41.472"
         x="57.599998"
         width="357.12"
         height="266.112" />
    </clipPath>
    <clipPath
       id="clipPath14323-8">
      <rect
         id="rect14321-7"
         y="41.472"
         x="57.599998"
         width="357.12"
         height="266.112" />
    </clipPath>
    <clipPath
       id="clipPath14327-9">
      <rect
         id="rect14325-2"
         y="41.472"
         x="57.599998"
         width="357.12"
         height="266.112" />
    </clipPath>
    <clipPath
       id="clipPath14331-0">
      <rect
         id="rect14329-2"
         y="41.472"
         x="57.599998"
         width="357.12"
         height="266.112" />
    </clipPath>
    <clipPath
       id="clipPath14335-3">
      <rect
         id="rect14333-7"
         y="41.472"
         x="57.599998"
         width="357.12"
         height="266.112" />
    </clipPath>
    <clipPath
       id="clipPath14339-5">
      <rect
         id="rect14337-9"
         y="41.472"
         x="57.599998"
         width="357.12"
         height="266.112" />
    </clipPath>
    <clipPath
       id="clipPath14343-2">
      <rect
         id="rect14341-2"
         y="41.472"
         x="57.599998"
         width="357.12"
         height="266.112" />
    </clipPath>
    <clipPath
       id="clipPath14347-8">
      <rect
         id="rect14345-9"
         y="41.472"
         x="57.599998"
         width="357.12"
         height="266.112" />
    </clipPath>
    <path
       style="stroke:#000000;stroke-width:0.8;stroke-linecap:butt;stroke-linejoin:round"
       id="path6276-8"
       d="M 0,0 H -3.5"
       inkscape:connector-curvature="0" />
    <path
       id="path6282-2"
       d="m 31.78125,3.421875 q 7.484375,0 11.1875,8.203125 3.71875,8.203125 3.71875,24.75 0,16.609375 -3.71875,24.8125 -3.703125,8.203125 -11.1875,8.203125 -7.46875,0 -11.1875,-8.203125 -3.703125,-8.203125 -3.703125,-24.8125 0,-16.546875 3.703125,-24.75 3.71875,-8.203125 11.1875,-8.203125 z m 0,-4.84375 Q 19.921875,-1.421875 13.25,8.53125 6.59375,18.5 6.59375,36.375 q 0,17.921875 6.65625,27.875 6.671875,9.96875 18.53125,9.96875 11.921875,0 18.5625,-9.96875 6.640625,-9.953125 6.640625,-27.875 0,-17.875 -6.640625,-27.84375 -6.640625,-9.953125 -18.5625,-9.953125 z"
       inkscape:connector-curvature="0"
       style="stroke-linecap:butt;stroke-linejoin:round" />
    <path
       id="path6294-0"
       d="M 14.203125,0 V 5.171875 H 26.90625 v 60.65625 l -14.703125,-9.53125 v 6.40625 L 29.984375,74.21875 H 36.71875 V 5.171875 H 49.421875 V 0 Z"
       inkscape:connector-curvature="0"
       style="stroke-linecap:butt;stroke-linejoin:round" />
    <clipPath
       id="pf0e568b632-5">
      <rect
         id="rect5227-6"
         y="41.472"
         x="57.599998"
         width="357.12"
         height="266.112" />
    </clipPath>
    <clipPath
       id="p840022f3ac-17">
      <rect
         id="rect6186-7"
         y="41.472"
         x="57.599998"
         width="357.12"
         height="266.112" />
    </clipPath>
    <clipPath
       id="paa5418faf9-3">
      <rect
         height="266.112"
         width="357.12"
         x="57.599998"
         y="41.472"
         id="rect381-6" />
    </clipPath>
    <clipPath
       id="pa073f7bf6b">
      <rect
         id="rect3319"
         y="41.472"
         x="57.599998"
         width="357.12"
         height="266.112" />
    </clipPath>
    <clipPath
       id="clipPath2272">
      <rect
         id="rect2270"
         y="41.472"
         x="57.599998"
         width="357.12"
         height="266.112" />
    </clipPath>
    <clipPath
       id="clipPath2276">
      <rect
         id="rect2274"
         y="41.472"
         x="57.599998"
         width="357.12"
         height="266.112" />
    </clipPath>
    <clipPath
       id="clipPath2280">
      <rect
         id="rect2278"
         y="41.472"
         x="57.599998"
         width="357.12"
         height="266.112" />
    </clipPath>
    <clipPath
       id="clipPath2284">
      <rect
         id="rect2282"
         y="41.472"
         x="57.599998"
         width="357.12"
         height="266.112" />
    </clipPath>
    <clipPath
       id="clipPath2288">
      <rect
         id="rect2286"
         y="41.472"
         x="57.599998"
         width="357.12"
         height="266.112" />
    </clipPath>
    <clipPath
       id="clipPath2292">
      <rect
         id="rect2290"
         y="41.472"
         x="57.599998"
         width="357.12"
         height="266.112" />
    </clipPath>
    <clipPath
       id="clipPath2296">
      <rect
         id="rect2294"
         y="41.472"
         x="57.599998"
         width="357.12"
         height="266.112" />
    </clipPath>
    <clipPath
       id="clipPath2300">
      <rect
         id="rect2298"
         y="41.472"
         x="57.599998"
         width="357.12"
         height="266.112" />
    </clipPath>
    <clipPath
       id="clipPath2304">
      <rect
         id="rect2302"
         y="41.472"
         x="57.599998"
         width="357.12"
         height="266.112" />
    </clipPath>
    <clipPath
       id="clipPath2308">
      <rect
         id="rect2306"
         y="41.472"
         x="57.599998"
         width="357.12"
         height="266.112" />
    </clipPath>
    <clipPath
       id="clipPath2312">
      <rect
         id="rect2310"
         y="41.472"
         x="57.599998"
         width="357.12"
         height="266.112" />
    </clipPath>
    <clipPath
       id="clipPath2316">
      <rect
         id="rect2314"
         y="41.472"
         x="57.599998"
         width="357.12"
         height="266.112" />
    </clipPath>
    <path
       id="path3388"
       d="M 9.28125,3.515625 V 20.125 l 5.609375,-0.0625 q 0.25,-8.296875 4.8125,-12.28125 4.5625,-3.96875 13.890625,-3.96875 8.6875,0 13.25,3.4375 4.578125,3.4375 4.578125,10.03125 0,5.28125 -2.765625,8.109375 -2.75,2.828125 -11.640625,5.515625 l -9.625,2.890625 Q 16.9375,36.96875 12.671875,41.703125 8.40625,46.4375 8.40625,54.6875 q 0,9.28125 6.578125,14.40625 6.59375,5.125 18.515625,5.125 5.078125,0 11.125,-1.109375 6.0625,-1.09375 12.890625,-3.1875 V 54.390625 H 52 q -0.828125,7.71875 -5.15625,11.15625 Q 42.53125,69 33.6875,69 q -7.703125,0 -11.734375,-3.15625 -4.03125,-3.140625 -4.03125,-9.15625 0,-5.21875 3.015625,-8.203125 3.03125,-2.96875 12.859375,-5.90625 l 9.03125,-2.6875 q 9.90625,-2.96875 14.125,-7.59375 4.234375,-4.609375 4.234375,-12.375 0,-10.59375 -6.796875,-15.96875 -6.78125,-5.375 -20.203125,-5.375 -6.015625,0 -12.25,1.234375 -6.21875,1.21875 -12.65625,3.703125 z"
       inkscape:connector-curvature="0"
       style="stroke-linecap:butt;stroke-linejoin:round" />
    <path
       id="path3390"
       d="m 20.515625,28.515625 v -5.125 q 0,-9.375 3.578125,-14.28125 3.59375,-4.90625 10.421875,-4.90625 6.890625,0 10.421875,5.515625 3.546875,5.515625 3.546875,16.265625 0,10.78125 -3.546875,16.25 -3.53125,5.46875 -10.421875,5.46875 -6.828125,0 -10.421875,-4.9375 -3.578125,-4.921875 -3.578125,-14.25 z M 11.53125,46.6875 H 2.875 v 5.21875 H 20.515625 V 43.796875 Q 23.140625,48.6875 27.21875,51 q 4.078125,2.328125 10.09375,2.328125 9.5625,0 15.609375,-7.578125 6.0625,-7.5625 6.0625,-19.765625 0,-12.21875 -6.0625,-19.8125 -6.046875,-7.59375 -15.609375,-7.59375 -6.015625,0 -10.09375,2.3125 -4.078125,2.328125 -6.703125,7.21875 v -23.6875 H 29 v -5.21875 H 2.875 v 5.21875 h 8.65625 z"
       inkscape:connector-curvature="0"
       style="stroke-linecap:butt;stroke-linejoin:round" />
    <path
       id="path3392"
       d="M 39.796875,16.3125 V 27.296875 H 28.21875 q -6.6875,0 -9.96875,-2.890625 -3.265625,-2.875 -3.265625,-8.828125 0,-5.421875 3.3125,-8.59375 3.328125,-3.171875 9,-3.171875 5.609375,0 9.046875,3.46875 3.453125,3.46875 3.453125,9.03125 z m 8.984375,16.109375 v -27.25 h 8 V 0 H 39.796875 V 5.609375 Q 36.8125,2 32.90625,0.28125 29,-1.421875 23.78125,-1.421875 q -8.640625,0 -13.71875,4.59375 -5.078125,4.59375 -5.078125,12.40625 0,8.0625 5.8125,12.5 5.8125,4.4375 16.40625,4.4375 h 12.59375 v 3.5625 q 0,5.921875 -3.59375,9.15625 -3.578125,3.25 -10.078125,3.25 -5.375,0 -8.546875,-2.4375 Q 14.40625,43.609375 13.625,38.8125 H 8.984375 v 10.5 q 4.6875,2 9.109375,3 4.421875,1.015625 8.609375,1.015625 10.796875,0 16.4375,-5.359375 Q 48.78125,42.625 48.78125,32.421875 Z"
       inkscape:connector-curvature="0"
       style="stroke-linecap:butt;stroke-linejoin:round" />
    <path
       id="path3394"
       d="M 51.421875,15.578125 Q 49.515625,7.28125 44.09375,2.921875 q -5.421875,-4.34375 -14.015625,-4.34375 -11.328125,0 -18.21875,7.5 -6.875,7.5 -6.875,19.90625 0,12.4375 6.875,19.890625 6.890625,7.453125 18.21875,7.453125 4.9375,0 9.8125,-1.15625 4.890625,-1.140625 9.8125,-3.484375 V 35.40625 h -5.21875 q -1.03125,6.828125 -4.46875,9.953125 -3.4375,3.125 -9.84375,3.125 -7.265625,0 -10.984375,-5.640625 -3.703125,-5.640625 -3.703125,-16.859375 0,-11.234375 3.6875,-16.90625 3.6875,-5.65625 11,-5.65625 5.8125,0 9.28125,3.015625 3.46875,3.03125 4.734375,9.140625 z"
       inkscape:connector-curvature="0"
       style="stroke-linecap:butt;stroke-linejoin:round" />
    <path
       id="path3396"
       d="m 54.203125,25 h -38.71875 v -0.390625 q 0,-10.5 3.953125,-15.84375 3.953125,-5.34375 11.671875,-5.34375 5.90625,0 9.6875,3.09375 3.78125,3.109375 5.296875,9.203125 h 7.234375 Q 51.171875,7.171875 45.375,2.875 39.59375,-1.421875 30.171875,-1.421875 q -11.375,0 -18.28125,7.5 -6.90625,7.5 -6.90625,19.90625 0,12.296875 6.78125,19.8125 6.796875,7.53125 17.828125,7.53125 11.765625,0 18.0625,-7.265625 6.296875,-7.25 6.546875,-21.0625 z m -10.59375,5.171875 q -0.296875,9.09375 -3.84375,13.703125 -3.53125,4.609375 -10.171875,4.609375 -6.203125,0 -9.765625,-4.640625 -3.5625,-4.640625 -4.34375,-13.671875 z"
       inkscape:connector-curvature="0"
       style="stroke-linecap:butt;stroke-linejoin:round" />
    <path
       style="stroke:#000000;stroke-width:0.8;stroke-linecap:butt;stroke-linejoin:round"
       id="path3409"
       d="M 0,0 H -3.5"
       inkscape:connector-curvature="0" />
    <path
       id="path3415"
       d="m 31.78125,3.421875 q 7.484375,0 11.1875,8.203125 3.71875,8.203125 3.71875,24.75 0,16.609375 -3.71875,24.8125 -3.703125,8.203125 -11.1875,8.203125 -7.46875,0 -11.1875,-8.203125 -3.703125,-8.203125 -3.703125,-24.8125 0,-16.546875 3.703125,-24.75 3.71875,-8.203125 11.1875,-8.203125 z m 0,-4.84375 Q 19.921875,-1.421875 13.25,8.53125 6.59375,18.5 6.59375,36.375 q 0,17.921875 6.65625,27.875 6.671875,9.96875 18.53125,9.96875 11.921875,0 18.5625,-9.96875 6.640625,-9.953125 6.640625,-27.875 0,-17.875 -6.640625,-27.84375 -6.640625,-9.953125 -18.5625,-9.953125 z"
       inkscape:connector-curvature="0"
       style="stroke-linecap:butt;stroke-linejoin:round" />
    <path
       id="path3427"
       d="M 14.203125,0 V 5.171875 H 26.90625 v 60.65625 l -14.703125,-9.53125 v 6.40625 L 29.984375,74.21875 H 36.71875 V 5.171875 H 49.421875 V 0 Z"
       inkscape:connector-curvature="0"
       style="stroke-linecap:butt;stroke-linejoin:round" />
  </defs>
  <g
     inkscape:label="Layer 1"
     inkscape:groupmode="layer"
     id="layer1">
    <text
       xml:space="preserve"
       style="font-size:4.93889px;line-height:1.25;font-family:Sawasdee;-inkscape-font-specification:Sawasdee;stroke-width:0.264583;stroke-linecap:butt;stroke-linejoin:round"
       x="-37.336987"
       y="14.13547"
       id="text14384-0-9"
       transform="rotate(-90)"><tspan
         sodipodi:role="line"
         id="tspan14382-6-4"
         style="font-size:4.93889px;stroke-width:0.264583"
         x="-37.336987"
         y="14.13547">Densities</tspan></text>
    <g
       id="figure_1-8"
       transform="matrix(0.13615599,0,0,0.13615599,56.47835,83.898685)"
       style="stroke-linecap:butt;stroke-linejoin:round">
      <g
         id="line2d_15-7"
         style="stroke-linecap:butt;stroke-linejoin:round"
         transform="translate(-350.34925,-579.99028)" />
      <g
         id="g14438"
         transform="translate(-772.26294,-130.18597)" />
      <g
         id="line2d_14-1"
         style="stroke-linecap:butt;stroke-linejoin:round"
         transform="matrix(-1,0,0,1,188.81701,-687.70247)" />
      <g
         id="axes_1-1"
         style="stroke-linecap:butt;stroke-linejoin:round"
         transform="translate(-351.21305,-581.42008)">
        <g
           id="patch_2-9"
           style="stroke-linecap:butt;stroke-linejoin:round">
          <path
             id="path3073"
             style="fill:#ffffff;stroke-linecap:butt;stroke-linejoin:round"
             d="M 57.6,307.584 H 414.72 V 41.472 H 57.6 Z"
             inkscape:connector-curvature="0" />
        </g>
        <g
           id="matplotlib.axis_1-6"
           style="stroke-linecap:butt;stroke-linejoin:round">
          <g
             id="xtick_1-9"
             style="stroke-linecap:butt;stroke-linejoin:round">
            <g
               id="line2d_1-3"
               style="stroke-linecap:butt;stroke-linejoin:round">
              <path
                 id="path3076"
                 style="fill:none;stroke:#b0b0b0;stroke-width:0.8;stroke-linecap:square;stroke-linejoin:round"
                 d="M 73.832727,307.584 V 41.472"
                 clip-path="url(#pa073f7bf6b)"
                 inkscape:connector-curvature="0" />
            </g>
          </g>
          <g
             id="xtick_2-3"
             style="stroke-linecap:butt;stroke-linejoin:round">
            <g
               id="line2d_2-8"
               style="stroke-linecap:butt;stroke-linejoin:round">
              <path
                 id="path3080"
                 style="fill:none;stroke:#b0b0b0;stroke-width:0.8;stroke-linecap:square;stroke-linejoin:round"
                 d="M 114.41455,307.584 V 41.472"
                 clip-path="url(#pa073f7bf6b)"
                 inkscape:connector-curvature="0" />
            </g>
          </g>
          <g
             id="xtick_3-0"
             style="stroke-linecap:butt;stroke-linejoin:round">
            <g
               id="line2d_3-5"
               style="stroke-linecap:butt;stroke-linejoin:round">
              <path
                 id="path3084"
                 style="fill:none;stroke:#b0b0b0;stroke-width:0.8;stroke-linecap:square;stroke-linejoin:round"
                 d="M 154.99636,307.584 V 41.472"
                 clip-path="url(#pa073f7bf6b)"
                 inkscape:connector-curvature="0" />
            </g>
          </g>
          <g
             id="xtick_4-6"
             style="stroke-linecap:butt;stroke-linejoin:round">
            <g
               id="line2d_4-6"
               style="stroke-linecap:butt;stroke-linejoin:round">
              <path
                 id="path3088"
                 style="fill:none;stroke:#b0b0b0;stroke-width:0.8;stroke-linecap:square;stroke-linejoin:round"
                 d="M 195.57818,307.584 V 41.472"
                 clip-path="url(#pa073f7bf6b)"
                 inkscape:connector-curvature="0" />
            </g>
          </g>
          <g
             id="xtick_5-4"
             style="stroke-linecap:butt;stroke-linejoin:round">
            <g
               id="line2d_5-0"
               style="stroke-linecap:butt;stroke-linejoin:round">
              <path
                 id="path3092"
                 style="fill:none;stroke:#b0b0b0;stroke-width:0.8;stroke-linecap:square;stroke-linejoin:round"
                 d="M 236.16,307.584 V 41.472"
                 clip-path="url(#pa073f7bf6b)"
                 inkscape:connector-curvature="0" />
            </g>
          </g>
          <g
             id="xtick_6-0"
             style="stroke-linecap:butt;stroke-linejoin:round">
            <g
               id="line2d_6-4"
               style="stroke-linecap:butt;stroke-linejoin:round">
              <path
                 id="path3096"
                 style="fill:none;stroke:#b0b0b0;stroke-width:0.8;stroke-linecap:square;stroke-linejoin:round"
                 d="M 276.74182,307.584 V 41.472"
                 clip-path="url(#pa073f7bf6b)"
                 inkscape:connector-curvature="0" />
            </g>
          </g>
          <g
             id="xtick_7-6"
             style="stroke-linecap:butt;stroke-linejoin:round">
            <g
               id="line2d_7-2"
               style="stroke-linecap:butt;stroke-linejoin:round">
              <path
                 id="path3100"
                 style="fill:none;stroke:#b0b0b0;stroke-width:0.8;stroke-linecap:square;stroke-linejoin:round"
                 d="M 317.32364,307.584 V 41.472"
                 clip-path="url(#pa073f7bf6b)"
                 inkscape:connector-curvature="0" />
            </g>
          </g>
          <g
             id="xtick_8-6"
             style="stroke-linecap:butt;stroke-linejoin:round">
            <g
               id="line2d_8-7"
               style="stroke-linecap:butt;stroke-linejoin:round">
              <path
                 id="path3104"
                 style="fill:none;stroke:#b0b0b0;stroke-width:0.8;stroke-linecap:square;stroke-linejoin:round"
                 d="M 357.90546,307.584 V 41.472"
                 clip-path="url(#pa073f7bf6b)"
                 inkscape:connector-curvature="0" />
            </g>
          </g>
          <g
             id="xtick_9-5"
             style="stroke-linecap:butt;stroke-linejoin:round">
            <g
               id="line2d_9-6"
               style="stroke-linecap:butt;stroke-linejoin:round">
              <path
                 id="path3108"
                 style="fill:none;stroke:#b0b0b0;stroke-width:0.8;stroke-linecap:square;stroke-linejoin:round"
                 d="M 398.48727,307.584 V 41.472"
                 clip-path="url(#pa073f7bf6b)"
                 inkscape:connector-curvature="0" />
            </g>
          </g>
          <g
             id="text_1-9"
             style="stroke-linecap:butt;stroke-linejoin:round">
            <!-- Space -->
            <g
               id="g3129"
               transform="matrix(0.17,0,0,-0.17,210.03711,324.50134)"
               style="stroke-linecap:butt;stroke-linejoin:round">
              <defs
                 id="defs3117">
                <path
                   id="path2681"
                   d="M 9.28125,3.515625 V 20.125 l 5.609375,-0.0625 q 0.25,-8.296875 4.8125,-12.28125 4.5625,-3.96875 13.890625,-3.96875 8.6875,0 13.25,3.4375 4.578125,3.4375 4.578125,10.03125 0,5.28125 -2.765625,8.109375 -2.75,2.828125 -11.640625,5.515625 l -9.625,2.890625 Q 16.9375,36.96875 12.671875,41.703125 8.40625,46.4375 8.40625,54.6875 q 0,9.28125 6.578125,14.40625 6.59375,5.125 18.515625,5.125 5.078125,0 11.125,-1.109375 6.0625,-1.09375 12.890625,-3.1875 V 54.390625 H 52 q -0.828125,7.71875 -5.15625,11.15625 Q 42.53125,69 33.6875,69 q -7.703125,0 -11.734375,-3.15625 -4.03125,-3.140625 -4.03125,-9.15625 0,-5.21875 3.015625,-8.203125 3.03125,-2.96875 12.859375,-5.90625 l 9.03125,-2.6875 q 9.90625,-2.96875 14.125,-7.59375 4.234375,-4.609375 4.234375,-12.375 0,-10.59375 -6.796875,-15.96875 -6.78125,-5.375 -20.203125,-5.375 -6.015625,0 -12.25,1.234375 -6.21875,1.21875 -12.65625,3.703125 z"
                   inkscape:connector-curvature="0"
                   style="stroke-linecap:butt;stroke-linejoin:round" />
                <path
                   id="path2683"
                   d="m 20.515625,28.515625 v -5.125 q 0,-9.375 3.578125,-14.28125 3.59375,-4.90625 10.421875,-4.90625 6.890625,0 10.421875,5.515625 3.546875,5.515625 3.546875,16.265625 0,10.78125 -3.546875,16.25 -3.53125,5.46875 -10.421875,5.46875 -6.828125,0 -10.421875,-4.9375 -3.578125,-4.921875 -3.578125,-14.25 z M 11.53125,46.6875 H 2.875 v 5.21875 H 20.515625 V 43.796875 Q 23.140625,48.6875 27.21875,51 q 4.078125,2.328125 10.09375,2.328125 9.5625,0 15.609375,-7.578125 6.0625,-7.5625 6.0625,-19.765625 0,-12.21875 -6.0625,-19.8125 -6.046875,-7.59375 -15.609375,-7.59375 -6.015625,0 -10.09375,2.3125 -4.078125,2.328125 -6.703125,7.21875 v -23.6875 H 29 v -5.21875 H 2.875 v 5.21875 h 8.65625 z"
                   inkscape:connector-curvature="0"
                   style="stroke-linecap:butt;stroke-linejoin:round" />
                <path
                   id="path2685"
                   d="M 39.796875,16.3125 V 27.296875 H 28.21875 q -6.6875,0 -9.96875,-2.890625 -3.265625,-2.875 -3.265625,-8.828125 0,-5.421875 3.3125,-8.59375 3.328125,-3.171875 9,-3.171875 5.609375,0 9.046875,3.46875 3.453125,3.46875 3.453125,9.03125 z m 8.984375,16.109375 v -27.25 h 8 V 0 H 39.796875 V 5.609375 Q 36.8125,2 32.90625,0.28125 29,-1.421875 23.78125,-1.421875 q -8.640625,0 -13.71875,4.59375 -5.078125,4.59375 -5.078125,12.40625 0,8.0625 5.8125,12.5 5.8125,4.4375 16.40625,4.4375 h 12.59375 v 3.5625 q 0,5.921875 -3.59375,9.15625 -3.578125,3.25 -10.078125,3.25 -5.375,0 -8.546875,-2.4375 Q 14.40625,43.609375 13.625,38.8125 H 8.984375 v 10.5 q 4.6875,2 9.109375,3 4.421875,1.015625 8.609375,1.015625 10.796875,0 16.4375,-5.359375 Q 48.78125,42.625 48.78125,32.421875 Z"
                   inkscape:connector-curvature="0"
                   style="stroke-linecap:butt;stroke-linejoin:round" />
                <path
                   id="path2687"
                   d="M 51.421875,15.578125 Q 49.515625,7.28125 44.09375,2.921875 q -5.421875,-4.34375 -14.015625,-4.34375 -11.328125,0 -18.21875,7.5 -6.875,7.5 -6.875,19.90625 0,12.4375 6.875,19.890625 6.890625,7.453125 18.21875,7.453125 4.9375,0 9.8125,-1.15625 4.890625,-1.140625 9.8125,-3.484375 V 35.40625 h -5.21875 q -1.03125,6.828125 -4.46875,9.953125 -3.4375,3.125 -9.84375,3.125 -7.265625,0 -10.984375,-5.640625 -3.703125,-5.640625 -3.703125,-16.859375 0,-11.234375 3.6875,-16.90625 3.6875,-5.65625 11,-5.65625 5.8125,0 9.28125,3.015625 3.46875,3.03125 4.734375,9.140625 z"
                   inkscape:connector-curvature="0"
                   style="stroke-linecap:butt;stroke-linejoin:round" />
                <path
                   id="path2689"
                   d="m 54.203125,25 h -38.71875 v -0.390625 q 0,-10.5 3.953125,-15.84375 3.953125,-5.34375 11.671875,-5.34375 5.90625,0 9.6875,3.09375 3.78125,3.109375 5.296875,9.203125 h 7.234375 Q 51.171875,7.171875 45.375,2.875 39.59375,-1.421875 30.171875,-1.421875 q -11.375,0 -18.28125,7.5 -6.90625,7.5 -6.90625,19.90625 0,12.296875 6.78125,19.8125 6.796875,7.53125 17.828125,7.53125 11.765625,0 18.0625,-7.265625 6.296875,-7.25 6.546875,-21.0625 z m -10.59375,5.171875 q -0.296875,9.09375 -3.84375,13.703125 -3.53125,4.609375 -10.171875,4.609375 -6.203125,0 -9.765625,-4.640625 -3.5625,-4.640625 -4.34375,-13.671875 z"
                   inkscape:connector-curvature="0"
                   style="stroke-linecap:butt;stroke-linejoin:round" />
              </defs>
            </g>
          </g>
        </g>
        <g
           id="matplotlib.axis_2-2"
           style="stroke-linecap:butt;stroke-linejoin:round">
          <g
             id="ytick_1-8"
             style="stroke-linecap:butt;stroke-linejoin:round">
            <g
               id="line2d_10-2"
               style="stroke-linecap:butt;stroke-linejoin:round">
              <path
                 id="path3133"
                 style="fill:none;stroke:#b0b0b0;stroke-width:0.8;stroke-linecap:square;stroke-linejoin:round"
                 d="M 57.6,300.05253 H 414.72"
                 clip-path="url(#pa073f7bf6b)"
                 inkscape:connector-curvature="0" />
            </g>
            <g
               id="line2d_11-9"
               style="stroke-linecap:butt;stroke-linejoin:round">
              <defs
                 id="defs3137">
                <path
                   style="stroke:#000000;stroke-width:0.8;stroke-linecap:butt;stroke-linejoin:round"
                   id="path2697"
                   d="M 0,0 H -3.5"
                   inkscape:connector-curvature="0" />
              </defs>
              <g
                 id="g3141"
                 style="stroke-linecap:butt;stroke-linejoin:round">
                <path
                   style="stroke:#000000;stroke-width:0.8;stroke-linecap:butt;stroke-linejoin:round"
                   id="use3139"
                   d="m 57.599998,300.05252 h -3.5" />
              </g>
            </g>
            <g
               id="text_2-9"
               style="stroke-linecap:butt;stroke-linejoin:round">
              <!-- 0 -->
              <g
                 id="g3149"
                 transform="matrix(0.2,0,0,-0.2,37.875,307.65097)"
                 style="stroke-linecap:butt;stroke-linejoin:round">
                <defs
                   id="defs3145">
                  <path
                     id="path2703"
                     d="m 31.78125,3.421875 q 7.484375,0 11.1875,8.203125 3.71875,8.203125 3.71875,24.75 0,16.609375 -3.71875,24.8125 -3.703125,8.203125 -11.1875,8.203125 -7.46875,0 -11.1875,-8.203125 -3.703125,-8.203125 -3.703125,-24.8125 0,-16.546875 3.703125,-24.75 3.71875,-8.203125 11.1875,-8.203125 z m 0,-4.84375 Q 19.921875,-1.421875 13.25,8.53125 6.59375,18.5 6.59375,36.375 q 0,17.921875 6.65625,27.875 6.671875,9.96875 18.53125,9.96875 11.921875,0 18.5625,-9.96875 6.640625,-9.953125 6.640625,-27.875 0,-17.875 -6.640625,-27.84375 -6.640625,-9.953125 -18.5625,-9.953125 z"
                     inkscape:connector-curvature="0"
                     style="stroke-linecap:butt;stroke-linejoin:round" />
                </defs>
                <path
                   id="use3147"
                   d="m 31.78125,3.421875 q 7.484375,0 11.1875,8.203125 3.71875,8.203125 3.71875,24.75 0,16.609375 -3.71875,24.8125 -3.703125,8.203125 -11.1875,8.203125 -7.46875,0 -11.1875,-8.203125 -3.703125,-8.203125 -3.703125,-24.8125 0,-16.546875 3.703125,-24.75 3.71875,-8.203125 11.1875,-8.203125 z m 0,-4.84375 Q 19.921875,-1.421875 13.25,8.53125 6.59375,18.5 6.59375,36.375 q 0,17.921875 6.65625,27.875 6.671875,9.96875 18.53125,9.96875 11.921875,0 18.5625,-9.96875 6.640625,-9.953125 6.640625,-27.875 0,-17.875 -6.640625,-27.84375 -6.640625,-9.953125 -18.5625,-9.953125 z"
                   style="stroke-linecap:butt;stroke-linejoin:round" />
              </g>
            </g>
          </g>
          <g
             id="ytick_2-0"
             style="stroke-linecap:butt;stroke-linejoin:round">
            <g
               id="line2d_12-2"
               style="stroke-linecap:butt;stroke-linejoin:round">
              <path
                 id="path3153"
                 style="fill:none;stroke:#b0b0b0;stroke-width:0.8;stroke-linecap:square;stroke-linejoin:round"
                 d="M 57.6,49.003472 H 414.72"
                 clip-path="url(#pa073f7bf6b)"
                 inkscape:connector-curvature="0" />
            </g>
            <g
               id="line2d_13-7"
               style="stroke-linecap:butt;stroke-linejoin:round">
              <g
                 id="g3158"
                 style="stroke-linecap:butt;stroke-linejoin:round">
                <path
                   style="stroke:#000000;stroke-width:0.8;stroke-linecap:butt;stroke-linejoin:round"
                   id="use3156"
                   d="m 57.599998,49.003471 h -3.5" />
              </g>
            </g>
            <g
               id="text_3-6"
               style="stroke-linecap:butt;stroke-linejoin:round">
              <!-- 1 -->
              <g
                 id="g3166"
                 transform="matrix(0.2,0,0,-0.2,37.875,56.601909)"
                 style="stroke-linecap:butt;stroke-linejoin:round">
                <defs
                   id="defs3162">
                  <path
                     id="path2715"
                     d="M 14.203125,0 V 5.171875 H 26.90625 v 60.65625 l -14.703125,-9.53125 v 6.40625 L 29.984375,74.21875 H 36.71875 V 5.171875 H 49.421875 V 0 Z"
                     inkscape:connector-curvature="0"
                     style="stroke-linecap:butt;stroke-linejoin:round" />
                </defs>
                <path
                   id="use3164"
                   d="M 14.203125,0 V 5.171875 H 26.90625 v 60.65625 l -14.703125,-9.53125 v 6.40625 L 29.984375,74.21875 H 36.71875 V 5.171875 H 49.421875 V 0 Z"
                   style="stroke-linecap:butt;stroke-linejoin:round" />
              </g>
            </g>
          </g>
        </g>
        <g
           id="line2d_14-4"
           style="stroke-linecap:butt;stroke-linejoin:round">
          <path
             id="path3216"
             style="fill:none;stroke:#6495ed;stroke-width:11.3473;stroke-linecap:square;stroke-linejoin:round;stroke-miterlimit:4;stroke-dasharray:none"
             d="m 73.832727,300.05253 189.679413,-0.10124 0.64931,-0.22653 0.40582,-0.33795 0.40582,-0.65531 0.32466,-0.9221 0.32465,-1.49653 0.40582,-3.14965 0.40582,-5.387 0.40581,-8.83758 0.40582,-13.8492 0.48699,-25.6127 0.56814,-44.25176 1.37978,-118.174954 0.40582,-15.975623 0.40582,-7.583942 0.32465,-2.621089 0.32466,-1.135307 0.32465,-0.457927 0.40582,-0.197263 0.81164,-0.07036 7.62938,-0.005 h 118.17425 v 0"
             clip-path="url(#pa073f7bf6b)"
             inkscape:connector-curvature="0" />
        </g>
        <g
           id="line2d_15-9"
           style="stroke-linecap:butt;stroke-linejoin:round">
          <path
             id="path3219"
             style="fill:none;stroke:#dc143c;stroke-width:11.0168;stroke-linecap:square;stroke-linejoin:round;stroke-miterlimit:4;stroke-dasharray:none"
             d="M 73.832727,300.05253 262.944,299.9451 l 0.64931,-0.22726 0.48698,-0.42009 0.40582,-0.68631 0.40582,-1.22079 0.40582,-2.06971 0.40581,-3.31428 0.48698,-6.17129 0.56815,-10.52969 1.13629,-22.13243 0.24349,-1.30645 0.0812,0.0871 0.16232,1.02674 0.24349,3.66973 0.40582,10.66374 0.81164,22.64157 0.40582,5.8983 0.40581,2.69608 0.32466,0.89459 0.32465,0.37535 0.48699,0.18172 1.05512,0.0493 24.83608,0.001 H 398.4873 v 0"
             clip-path="url(#pa073f7bf6b)"
             inkscape:connector-curvature="0" />
        </g>
        <g
           id="patch_3-1"
           style="stroke-linecap:butt;stroke-linejoin:round">
          <path
             id="path3222"
             style="fill:none;stroke:#000000;stroke-width:0.8;stroke-linecap:square;stroke-linejoin:miter"
             d="M 57.6,307.584 V 41.472"
             inkscape:connector-curvature="0" />
        </g>
        <g
           id="patch_4-0"
           style="stroke-linecap:butt;stroke-linejoin:round">
          <path
             id="path3225"
             style="fill:none;stroke:#000000;stroke-width:0.8;stroke-linecap:square;stroke-linejoin:miter"
             d="M 414.72,307.584 V 41.472"
             inkscape:connector-curvature="0" />
        </g>
        <g
           id="patch_5-7"
           style="stroke-linecap:butt;stroke-linejoin:round">
          <path
             id="path3228"
             style="fill:none;stroke:#000000;stroke-width:0.8;stroke-linecap:square;stroke-linejoin:miter"
             d="M 57.6,307.584 H 414.72"
             inkscape:connector-curvature="0" />
        </g>
        <g
           id="patch_6-5"
           style="stroke-linecap:butt;stroke-linejoin:round">
          <path
             id="path3231"
             style="fill:none;stroke:#000000;stroke-width:0.8;stroke-linecap:square;stroke-linejoin:miter"
             d="M 57.6,41.472 H 414.72"
             inkscape:connector-curvature="0" />
        </g>
        <g
           id="text_5-8"
           style="stroke-linecap:butt;stroke-linejoin:round">
          <!-- t = 750.0 -->
        </g>
      </g>
      <path
         inkscape:connector-curvature="0"
         style="fill:#666666;fill-opacity:1;stroke:#888888;stroke-width:2.96331;stroke-linecap:butt;stroke-linejoin:round;stroke-miterlimit:4;stroke-dasharray:none;stroke-opacity:1"
         d="m -1.472722,-426.04557 c -1.519434,2.9e-4 -3.037546,0.58095 -4.201505,1.74586 l -1.354843,1.35492 c -2.327991,2.32924 -2.325347,6.07884 0.0039,8.40676 l 8.922854,8.91918 h -45.77214 c -2.979671,0 -5.378023,2.39835 -5.378023,5.37802 v 1.73455 c 0,2.97975 2.398352,5.37803 5.378023,5.37803 H 2.246835 l -9.264447,9.26834 c -2.327992,2.32924 -2.329167,6.07876 0,8.40675 l 1.358662,1.35874 c 2.329167,2.32806 6.07883701,2.3216 8.406828,-0.007 l 19.530908,-19.54236 h 0.0038 l 1.358809,-1.35881 c 2.327918,-2.32909 2.321528,-6.07876 -0.0073,-8.40676 l -1.350903,-1.35462 -19.549856,-19.53869 c -1.16462,-1.16396 -2.68581599,-1.74241 -4.205324,-1.74205 z"
         id="rect30238-6" />
    </g>
    <text
       xml:space="preserve"
       style="font-size:4.93889px;line-height:1.25;font-family:Sawasdee;-inkscape-font-specification:Sawasdee;stroke-width:0.264583;stroke-linecap:butt;stroke-linejoin:round"
       x="33.310692"
       y="52.171192"
       id="text14384-0-0"><tspan
         sodipodi:role="line"
         id="tspan14382-6-9"
         style="font-size:4.93889px;stroke-width:0.264583"
         x="33.310692"
         y="52.171192">Space</tspan></text>
    <g
       id="patch_7-2-9"
       style="stroke-linecap:butt;stroke-linejoin:round"
       transform="matrix(0.25148958,0,0,0.22007518,2.5001546,0.40991351)">
      <path
         id="path5417-1"
         style="opacity:0.8;fill:#ffffff;stroke:#cccccc;stroke-width:1.11111;stroke-linecap:butt;stroke-linejoin:miter"
         d="M 59.715047,36.448128 H 246.65842 q 2.39926,0 2.39926,-2.963873 V 13.003433 q 0,-2.963872 -2.39926,-2.963872 H 59.715047 q -2.399257,0 -2.399257,2.963872 v 20.480822 q 0,2.963873 2.399257,2.963873 z"
         inkscape:connector-curvature="0" />
    </g>
    <g
       id="line2d_16-6-2"
       style="stroke-width:14.728;stroke-linecap:butt;stroke-linejoin:round;stroke-miterlimit:4;stroke-dasharray:none"
       transform="matrix(0.13579575,0,0,0.13579575,29.62734,2.4259396)">
      <path
         id="path5420-7"
         style="fill:none;stroke:#6495ed;stroke-width:14.728;stroke-linecap:square;stroke-linejoin:round;stroke-miterlimit:4;stroke-dasharray:none"
         d="m 62.08611,22.595565 h 24"
         inkscape:connector-curvature="0" />
    </g>
    <g
       id="line2d_18-8-0"
       style="stroke-linecap:butt;stroke-linejoin:round"
       transform="matrix(0.13579575,0,0,0.13579575,-5.1610464,2.4815146)">
      <path
         id="path5450-9"
         style="fill:none;stroke:#dc143c;stroke-width:14.728;stroke-linecap:square;stroke-linejoin:round;stroke-miterlimit:4;stroke-dasharray:none"
         d="m 177.61048,22.595565 h 24"
         inkscape:connector-curvature="0" />
    </g>
    <text
       xml:space="preserve"
       style="font-size:4.9389px;line-height:1.25;font-family:Sawasdee;-inkscape-font-specification:Sawasdee;stroke-width:0.264583;stroke-linecap:butt;stroke-linejoin:round"
       x="43.221306"
       y="7.0563555"
       id="text14384-3"><tspan
         sodipodi:role="line"
         id="tspan14382-60"
         style="font-size:4.9389px;stroke-width:0.264583"
         x="43.221306"
         y="7.0563555">Wild-type</tspan></text>
    <text
       xml:space="preserve"
       style="font-size:4.9389px;line-height:1.25;font-family:Sawasdee;-inkscape-font-specification:Sawasdee;stroke-width:0.264583;stroke-linecap:butt;stroke-linejoin:round"
       x="24.053291"
       y="7.035203"
       id="text14384-0-6"><tspan
         sodipodi:role="line"
         id="tspan14382-6-2"
         style="font-size:4.9389px;stroke-width:0.264583"
         x="24.053291"
         y="7.035203">Drive</tspan></text>
  </g>
</svg>
