<?xml version="1.0" encoding="utf-8" standalone="no"?>
<!DOCTYPE svg PUBLIC "-//W3C//DTD SVG 1.1//EN"
  "http://www.w3.org/Graphics/SVG/1.1/DTD/svg11.dtd">
<!-- Created with matplotlib (https://matplotlib.org/) -->
<svg height="345.6pt" version="1.1" viewBox="0 0 460.8 345.6" width="460.8pt" xmlns="http://www.w3.org/2000/svg" xmlns:xlink="http://www.w3.org/1999/xlink">
 <metadata>
  <rdf:RDF xmlns:cc="http://creativecommons.org/ns#" xmlns:dc="http://purl.org/dc/elements/1.1/" xmlns:rdf="http://www.w3.org/1999/02/22-rdf-syntax-ns#">
   <cc:Work>
    <dc:type rdf:resource="http://purl.org/dc/dcmitype/StillImage"/>
    <dc:date>2022-05-25T01:06:03.539736</dc:date>
    <dc:format>image/svg+xml</dc:format>
    <dc:creator>
     <cc:Agent>
      <dc:title>Matplotlib v3.3.4, https://matplotlib.org/</dc:title>
     </cc:Agent>
    </dc:creator>
   </cc:Work>
  </rdf:RDF>
 </metadata>
 <defs>
  <style type="text/css">*{stroke-linecap:butt;stroke-linejoin:round;}</style>
 </defs>
 <g id="figure_1">
  <g id="patch_1">
   <path d="M 0 345.6 
L 460.8 345.6 
L 460.8 0 
L 0 0 
z
" style="fill:#ffffff;"/>
  </g>
  <g id="axes_1">
   <g id="patch_2">
    <path d="M 57.6 307.584 
L 414.72 307.584 
L 414.72 41.472 
L 57.6 41.472 
z
" style="fill:#ffffff;"/>
   </g>
   <g id="PolyCollection_1">
    <defs>
     <path d="M 57.6 -38.016 
L 57.6 -279.936 
L 58.31424 -279.935996 
L 59.02848 -279.935987 
L 59.74272 -279.935973 
L 60.45696 -279.935955 
L 61.1712 -279.935932 
L 61.88544 -279.935904 
L 62.59968 -279.93587 
L 63.31392 -279.93583 
L 64.02816 -279.935784 
L 64.7424 -279.935731 
L 65.45664 -279.93567 
L 66.17088 -279.935602 
L 66.88512 -279.935524 
L 67.59936 -279.935436 
L 68.3136 -279.935338 
L 69.02784 -279.935228 
L 69.74208 -279.935105 
L 70.45632 -279.934968 
L 71.17056 -279.934815 
L 71.8848 -279.934645 
L 72.59904 -279.934456 
L 73.31328 -279.934246 
L 74.02752 -279.934013 
L 74.74176 -279.933756 
L 75.456 -279.93347 
L 76.17024 -279.933155 
L 76.88448 -279.932806 
L 77.59872 -279.932421 
L 78.31296 -279.931997 
L 79.0272 -279.931528 
L 79.74144 -279.931013 
L 80.45568 -279.930445 
L 81.16992 -279.929821 
L 81.88416 -279.929135 
L 82.5984 -279.928381 
L 83.31264 -279.927554 
L 84.02688 -279.926646 
L 84.74112 -279.925652 
L 85.45536 -279.924563 
L 86.1696 -279.923371 
L 86.88384 -279.922068 
L 87.59808 -279.920643 
L 88.31232 -279.919088 
L 89.02656 -279.91739 
L 89.7408 -279.915539 
L 90.45504 -279.913521 
L 91.16928 -279.911324 
L 91.88352 -279.908933 
L 92.59776 -279.906333 
L 93.312 -279.903508 
L 94.02624 -279.900439 
L 94.74048 -279.89711 
L 95.45472 -279.893499 
L 96.16896 -279.889586 
L 96.8832 -279.885349 
L 97.59744 -279.880764 
L 98.31168 -279.875806 
L 99.02592 -279.870449 
L 99.74016 -279.864664 
L 100.4544 -279.858421 
L 101.16864 -279.851689 
L 101.88288 -279.844435 
L 102.59712 -279.836625 
L 103.31136 -279.82822 
L 104.0256 -279.819182 
L 104.73984 -279.809471 
L 105.45408 -279.799043 
L 106.16832 -279.787853 
L 106.88256 -279.775855 
L 107.5968 -279.762999 
L 108.31104 -279.749233 
L 109.02528 -279.734503 
L 109.73952 -279.718752 
L 110.45376 -279.701922 
L 111.168 -279.683952 
L 111.88224 -279.664777 
L 112.59648 -279.644332 
L 113.31072 -279.622546 
L 114.02496 -279.599349 
L 114.7392 -279.574666 
L 115.45344 -279.548422 
L 116.16768 -279.520535 
L 116.88192 -279.490924 
L 117.59616 -279.459505 
L 118.3104 -279.426191 
L 119.02464 -279.390891 
L 119.73888 -279.353514 
L 120.45312 -279.313964 
L 121.16736 -279.272145 
L 121.8816 -279.227958 
L 122.59584 -279.1813 
L 123.31008 -279.132068 
L 124.02432 -279.080156 
L 124.73856 -279.025456 
L 125.4528 -278.967859 
L 126.16704 -278.907252 
L 126.88128 -278.843524 
L 127.59552 -278.776559 
L 128.30976 -278.706243 
L 129.024 -278.632458 
L 129.73824 -278.555087 
L 130.45248 -278.474012 
L 131.16672 -278.389114 
L 131.88096 -278.300275 
L 132.5952 -278.207375 
L 133.30944 -278.110296 
L 134.02368 -278.008921 
L 134.73792 -277.903131 
L 135.45216 -277.792811 
L 136.1664 -277.677846 
L 136.88064 -277.558122 
L 137.59488 -277.433529 
L 138.30912 -277.303956 
L 139.02336 -277.169297 
L 139.7376 -277.029449 
L 140.45184 -276.884312 
L 141.16608 -276.733786 
L 141.88032 -276.577781 
L 142.59456 -276.416205 
L 143.3088 -276.248975 
L 144.02304 -276.07601 
L 144.73728 -275.897235 
L 145.45152 -275.712581 
L 146.16576 -275.521983 
L 146.88 -275.325384 
L 147.59424 -275.122731 
L 148.30848 -274.91398 
L 149.02272 -274.699092 
L 149.73696 -274.478035 
L 150.4512 -274.250787 
L 151.16544 -274.017329 
L 151.87968 -273.777654 
L 152.59392 -273.531761 
L 153.30816 -273.279656 
L 154.0224 -273.021357 
L 154.73664 -272.756886 
L 155.45088 -272.486277 
L 156.16512 -272.209571 
L 156.87936 -271.926818 
L 157.5936 -271.638078 
L 158.30784 -271.343418 
L 159.02208 -271.042915 
L 159.73632 -270.736655 
L 160.45056 -270.424732 
L 161.1648 -270.107249 
L 161.87904 -269.78432 
L 162.59328 -269.456063 
L 163.30752 -269.122609 
L 164.02176 -268.784095 
L 164.736 -268.440666 
L 165.45024 -268.092475 
L 166.16448 -267.739684 
L 166.87872 -267.382461 
L 167.59296 -267.020981 
L 168.3072 -266.655428 
L 169.02144 -266.28599 
L 169.73568 -265.912862 
L 170.44992 -265.536246 
L 171.16416 -265.156348 
L 171.8784 -264.773379 
L 172.59264 -264.387556 
L 173.30688 -263.999099 
L 174.02112 -263.608233 
L 174.73536 -263.215186 
L 175.4496 -262.820187 
L 176.16384 -262.423469 
L 176.87808 -262.025269 
L 177.59232 -261.625822 
L 178.30656 -261.225367 
L 179.0208 -260.82414 
L 179.73504 -260.422381 
L 180.44928 -260.020326 
L 181.16352 -259.618214 
L 181.87776 -259.21628 
L 182.592 -258.814756 
L 183.30624 -258.413876 
L 184.02048 -258.013867 
L 184.73472 -257.614955 
L 185.44896 -257.217362 
L 186.1632 -256.821305 
L 186.87744 -256.426999 
L 187.59168 -256.034652 
L 188.30592 -255.644467 
L 189.02016 -255.256642 
L 189.7344 -254.871369 
L 190.44864 -254.488832 
L 191.16288 -254.109211 
L 191.87712 -253.732678 
L 192.59136 -253.359396 
L 193.3056 -252.989524 
L 194.01984 -252.623209 
L 194.73408 -252.260593 
L 195.44832 -251.901807 
L 196.16256 -251.546976 
L 196.8768 -251.196215 
L 197.59104 -250.849628 
L 198.30528 -250.507312 
L 199.01952 -250.169353 
L 199.73376 -249.835826 
L 200.448 -249.506798 
L 201.16224 -249.182323 
L 201.87648 -248.862446 
L 202.59072 -248.547197 
L 203.30496 -248.236598 
L 204.0192 -247.930657 
L 204.73344 -247.629368 
L 205.44768 -247.332712 
L 206.16192 -247.040655 
L 206.87616 -246.75315 
L 207.5904 -246.470129 
L 208.30464 -246.191512 
L 209.01888 -245.917196 
L 209.73312 -245.64706 
L 210.44736 -245.380959 
L 211.1616 -245.118725 
L 211.87584 -244.860164 
L 212.59008 -244.605052 
L 213.30432 -244.353132 
L 214.01856 -244.104114 
L 214.7328 -243.857665 
L 215.44704 -243.61341 
L 216.16128 -243.370924 
L 216.87552 -243.129725 
L 217.58976 -242.88927 
L 218.304 -242.648944 
L 219.01824 -242.408057 
L 219.73248 -242.165824 
L 220.44672 -241.921363 
L 221.16096 -241.673678 
L 221.8752 -241.421644 
L 222.58944 -241.163992 
L 223.30368 -240.899287 
L 224.01792 -240.625912 
L 224.73216 -240.342041 
L 225.4464 -240.045613 
L 226.16064 -239.734303 
L 226.87488 -239.405489 
L 227.58912 -239.056215 
L 228.30336 -238.683153 
L 229.0176 -238.282554 
L 229.73184 -237.850208 
L 230.44608 -237.381383 
L 231.16032 -236.870777 
L 231.87456 -236.312453 
L 232.5888 -235.699782 
L 233.30304 -235.025378 
L 234.01728 -234.281034 
L 234.73152 -233.457662 
L 235.44576 -232.54524 
L 236.16 -231.532757 
L 236.87424 -230.408189 
L 237.58848 -229.158477 
L 238.30272 -227.769544 
L 239.01696 -226.226339 
L 239.7312 -224.512929 
L 240.44544 -222.612647 
L 241.15968 -220.508307 
L 241.87392 -218.182492 
L 242.58816 -215.617936 
L 243.3024 -212.798001 
L 244.01664 -209.70725 
L 244.73088 -206.332114 
L 245.44512 -202.661647 
L 246.15936 -198.688332 
L 246.8736 -194.408911 
L 247.58784 -189.825183 
L 248.30208 -184.944711 
L 249.01632 -179.781368 
L 249.73056 -174.355644 
L 250.4448 -168.694667 
L 251.15904 -162.831874 
L 251.87328 -156.806334 
L 252.58752 -150.661723 
L 253.30176 -144.44502 
L 254.016 -138.204989 
L 254.73024 -131.990581 
L 255.44448 -125.849338 
L 256.15872 -119.825948 
L 256.87296 -113.961004 
L 257.5872 -108.290068 
L 258.30144 -102.843038 
L 259.01568 -97.643838 
L 259.72992 -92.710405 
L 260.44416 -88.054911 
L 261.1584 -83.684188 
L 261.87264 -79.600278 
L 262.58688 -75.801071 
L 263.30112 -72.280966 
L 264.01536 -69.031535 
L 264.7296 -66.042144 
L 265.44384 -63.30053 
L 266.15808 -60.793301 
L 266.87232 -58.506379 
L 267.58656 -56.425364 
L 268.3008 -54.535833 
L 269.01504 -52.823584 
L 269.72928 -51.274815 
L 270.44352 -49.876266 
L 271.15776 -48.615315 
L 271.872 -47.48004 
L 272.58624 -46.459262 
L 273.30048 -45.542551 
L 274.01472 -44.720233 
L 274.72896 -43.983369 
L 275.4432 -43.323736 
L 276.15744 -42.73379 
L 276.87168 -42.206634 
L 277.58592 -41.73598 
L 278.30016 -41.316106 
L 279.0144 -40.941818 
L 279.72864 -40.608412 
L 280.44288 -40.311631 
L 281.15712 -40.047632 
L 281.87136 -39.812949 
L 282.5856 -39.604461 
L 283.29984 -39.419362 
L 284.01408 -39.255129 
L 284.72832 -39.109498 
L 285.44256 -38.980441 
L 286.1568 -38.866137 
L 286.87104 -38.764961 
L 287.58528 -38.675457 
L 288.29952 -38.596323 
L 289.01376 -38.526399 
L 289.728 -38.464648 
L 290.44224 -38.410147 
L 291.15648 -38.362071 
L 291.87072 -38.319687 
L 292.58496 -38.282343 
L 293.2992 -38.249459 
L 294.01344 -38.220517 
L 294.72768 -38.195061 
L 295.44192 -38.172684 
L 296.15616 -38.153024 
L 296.8704 -38.135761 
L 297.58464 -38.120613 
L 298.29888 -38.107327 
L 299.01312 -38.095682 
L 299.72736 -38.085481 
L 300.4416 -38.07655 
L 301.15584 -38.068736 
L 301.87008 -38.061903 
L 302.58432 -38.055932 
L 303.29856 -38.050716 
L 304.0128 -38.046164 
L 304.72704 -38.042193 
L 305.44128 -38.038731 
L 306.15552 -38.035715 
L 306.86976 -38.033088 
L 307.584 -38.030802 
L 308.29824 -38.028815 
L 309.01248 -38.027087 
L 309.72672 -38.025586 
L 310.44096 -38.024284 
L 311.1552 -38.023154 
L 311.86944 -38.022174 
L 312.58368 -38.021325 
L 313.29792 -38.02059 
L 314.01216 -38.019954 
L 314.7264 -38.019404 
L 315.44064 -38.018929 
L 316.15488 -38.018518 
L 316.86912 -38.018164 
L 317.58336 -38.017858 
L 318.2976 -38.017595 
L 319.01184 -38.017368 
L 319.72608 -38.017172 
L 320.44032 -38.017004 
L 321.15456 -38.01686 
L 321.8688 -38.016735 
L 322.58304 -38.016629 
L 323.29728 -38.016537 
L 324.01152 -38.016459 
L 324.72576 -38.016391 
L 325.44 -38.016334 
L 326.15424 -38.016284 
L 326.86848 -38.016242 
L 327.58272 -38.016206 
L 328.29696 -38.016175 
L 329.0112 -38.016149 
L 329.72544 -38.016127 
L 330.43968 -38.016107 
L 331.15392 -38.016091 
L 331.86816 -38.016077 
L 332.5824 -38.016065 
L 333.29664 -38.016055 
L 334.01088 -38.016047 
L 334.72512 -38.01604 
L 335.43936 -38.016034 
L 336.1536 -38.016028 
L 336.86784 -38.016024 
L 337.58208 -38.01602 
L 338.29632 -38.016017 
L 339.01056 -38.016014 
L 339.7248 -38.016012 
L 340.43904 -38.01601 
L 341.15328 -38.016009 
L 341.86752 -38.016007 
L 342.58176 -38.016006 
L 343.296 -38.016005 
L 344.01024 -38.016004 
L 344.72448 -38.016004 
L 345.43872 -38.016003 
L 346.15296 -38.016002 
L 346.8672 -38.016002 
L 347.58144 -38.016002 
L 348.29568 -38.016001 
L 349.00992 -38.016001 
L 349.72416 -38.016001 
L 350.4384 -38.016001 
L 351.15264 -38.016001 
L 351.86688 -38.016001 
L 352.58112 -38.016 
L 353.29536 -38.016 
L 354.0096 -38.016 
L 354.72384 -38.016 
L 355.43808 -38.016 
L 356.15232 -38.016 
L 356.86656 -38.016 
L 357.5808 -38.016 
L 358.29504 -38.016 
L 359.00928 -38.016 
L 359.72352 -38.016 
L 360.43776 -38.016 
L 361.152 -38.016 
L 361.86624 -38.016 
L 362.58048 -38.016 
L 363.29472 -38.016 
L 364.00896 -38.016 
L 364.7232 -38.016 
L 365.43744 -38.016 
L 366.15168 -38.016 
L 366.86592 -38.016 
L 367.58016 -38.016 
L 368.2944 -38.016 
L 369.00864 -38.016 
L 369.72288 -38.016 
L 370.43712 -38.016 
L 371.15136 -38.016 
L 371.8656 -38.016 
L 372.57984 -38.016 
L 373.29408 -38.016 
L 374.00832 -38.016 
L 374.72256 -38.016 
L 375.4368 -38.016 
L 376.15104 -38.016 
L 376.86528 -38.016 
L 377.57952 -38.016 
L 378.29376 -38.016 
L 379.008 -38.016 
L 379.72224 -38.016 
L 380.43648 -38.016 
L 381.15072 -38.016 
L 381.86496 -38.016 
L 382.5792 -38.016 
L 383.29344 -38.016 
L 384.00768 -38.016 
L 384.72192 -38.016 
L 385.43616 -38.016 
L 386.1504 -38.016 
L 386.86464 -38.016 
L 387.57888 -38.016 
L 388.29312 -38.016 
L 389.00736 -38.016 
L 389.7216 -38.016 
L 390.43584 -38.016 
L 391.15008 -38.016 
L 391.86432 -38.016 
L 392.57856 -38.016 
L 393.2928 -38.016 
L 394.00704 -38.016 
L 394.72128 -38.016 
L 395.43552 -38.016 
L 396.14976 -38.016 
L 396.864 -38.016 
L 397.57824 -38.016 
L 398.29248 -38.016 
L 399.00672 -38.016 
L 399.72096 -38.016 
L 400.4352 -38.016 
L 401.14944 -38.016 
L 401.86368 -38.016 
L 402.57792 -38.016 
L 403.29216 -38.016 
L 404.0064 -38.016 
L 404.72064 -38.016 
L 405.43488 -38.016 
L 406.14912 -38.016 
L 406.86336 -38.016 
L 407.5776 -38.016 
L 408.29184 -38.016 
L 409.00608 -38.016 
L 409.72032 -38.016 
L 410.43456 -38.016 
L 411.1488 -38.016 
L 411.86304 -38.016 
L 412.57728 -38.016 
L 413.29152 -38.016 
L 414.00576 -38.016 
L 414.72 -38.016 
L 414.72 -38.016 
L 414.72 -38.016 
L 414.00576 -38.016 
L 413.29152 -38.016 
L 412.57728 -38.016 
L 411.86304 -38.016 
L 411.1488 -38.016 
L 410.43456 -38.016 
L 409.72032 -38.016 
L 409.00608 -38.016 
L 408.29184 -38.016 
L 407.5776 -38.016 
L 406.86336 -38.016 
L 406.14912 -38.016 
L 405.43488 -38.016 
L 404.72064 -38.016 
L 404.0064 -38.016 
L 403.29216 -38.016 
L 402.57792 -38.016 
L 401.86368 -38.016 
L 401.14944 -38.016 
L 400.4352 -38.016 
L 399.72096 -38.016 
L 399.00672 -38.016 
L 398.29248 -38.016 
L 397.57824 -38.016 
L 396.864 -38.016 
L 396.14976 -38.016 
L 395.43552 -38.016 
L 394.72128 -38.016 
L 394.00704 -38.016 
L 393.2928 -38.016 
L 392.57856 -38.016 
L 391.86432 -38.016 
L 391.15008 -38.016 
L 390.43584 -38.016 
L 389.7216 -38.016 
L 389.00736 -38.016 
L 388.29312 -38.016 
L 387.57888 -38.016 
L 386.86464 -38.016 
L 386.1504 -38.016 
L 385.43616 -38.016 
L 384.72192 -38.016 
L 384.00768 -38.016 
L 383.29344 -38.016 
L 382.5792 -38.016 
L 381.86496 -38.016 
L 381.15072 -38.016 
L 380.43648 -38.016 
L 379.72224 -38.016 
L 379.008 -38.016 
L 378.29376 -38.016 
L 377.57952 -38.016 
L 376.86528 -38.016 
L 376.15104 -38.016 
L 375.4368 -38.016 
L 374.72256 -38.016 
L 374.00832 -38.016 
L 373.29408 -38.016 
L 372.57984 -38.016 
L 371.8656 -38.016 
L 371.15136 -38.016 
L 370.43712 -38.016 
L 369.72288 -38.016 
L 369.00864 -38.016 
L 368.2944 -38.016 
L 367.58016 -38.016 
L 366.86592 -38.016 
L 366.15168 -38.016 
L 365.43744 -38.016 
L 364.7232 -38.016 
L 364.00896 -38.016 
L 363.29472 -38.016 
L 362.58048 -38.016 
L 361.86624 -38.016 
L 361.152 -38.016 
L 360.43776 -38.016 
L 359.72352 -38.016 
L 359.00928 -38.016 
L 358.29504 -38.016 
L 357.5808 -38.016 
L 356.86656 -38.016 
L 356.15232 -38.016 
L 355.43808 -38.016 
L 354.72384 -38.016 
L 354.0096 -38.016 
L 353.29536 -38.016 
L 352.58112 -38.016 
L 351.86688 -38.016 
L 351.15264 -38.016 
L 350.4384 -38.016 
L 349.72416 -38.016 
L 349.00992 -38.016 
L 348.29568 -38.016 
L 347.58144 -38.016 
L 346.8672 -38.016 
L 346.15296 -38.016 
L 345.43872 -38.016 
L 344.72448 -38.016 
L 344.01024 -38.016 
L 343.296 -38.016 
L 342.58176 -38.016 
L 341.86752 -38.016 
L 341.15328 -38.016 
L 340.43904 -38.016 
L 339.7248 -38.016 
L 339.01056 -38.016 
L 338.29632 -38.016 
L 337.58208 -38.016 
L 336.86784 -38.016 
L 336.1536 -38.016 
L 335.43936 -38.016 
L 334.72512 -38.016 
L 334.01088 -38.016 
L 333.29664 -38.016 
L 332.5824 -38.016 
L 331.86816 -38.016 
L 331.15392 -38.016 
L 330.43968 -38.016 
L 329.72544 -38.016 
L 329.0112 -38.016 
L 328.29696 -38.016 
L 327.58272 -38.016 
L 326.86848 -38.016 
L 326.15424 -38.016 
L 325.44 -38.016 
L 324.72576 -38.016 
L 324.01152 -38.016 
L 323.29728 -38.016 
L 322.58304 -38.016 
L 321.8688 -38.016 
L 321.15456 -38.016 
L 320.44032 -38.016 
L 319.72608 -38.016 
L 319.01184 -38.016 
L 318.2976 -38.016 
L 317.58336 -38.016 
L 316.86912 -38.016 
L 316.15488 -38.016 
L 315.44064 -38.016 
L 314.7264 -38.016 
L 314.01216 -38.016 
L 313.29792 -38.016 
L 312.58368 -38.016 
L 311.86944 -38.016 
L 311.1552 -38.016 
L 310.44096 -38.016 
L 309.72672 -38.016 
L 309.01248 -38.016 
L 308.29824 -38.016 
L 307.584 -38.016 
L 306.86976 -38.016 
L 306.15552 -38.016 
L 305.44128 -38.016 
L 304.72704 -38.016 
L 304.0128 -38.016 
L 303.29856 -38.016 
L 302.58432 -38.016 
L 301.87008 -38.016 
L 301.15584 -38.016 
L 300.4416 -38.016 
L 299.72736 -38.016 
L 299.01312 -38.016 
L 298.29888 -38.016 
L 297.58464 -38.016 
L 296.8704 -38.016 
L 296.15616 -38.016 
L 295.44192 -38.016 
L 294.72768 -38.016 
L 294.01344 -38.016 
L 293.2992 -38.016 
L 292.58496 -38.016 
L 291.87072 -38.016 
L 291.15648 -38.016 
L 290.44224 -38.016 
L 289.728 -38.016 
L 289.01376 -38.016 
L 288.29952 -38.016 
L 287.58528 -38.016 
L 286.87104 -38.016 
L 286.1568 -38.016 
L 285.44256 -38.016 
L 284.72832 -38.016 
L 284.01408 -38.016 
L 283.29984 -38.016 
L 282.5856 -38.016 
L 281.87136 -38.016 
L 281.15712 -38.016 
L 280.44288 -38.016 
L 279.72864 -38.016 
L 279.0144 -38.016 
L 278.30016 -38.016 
L 277.58592 -38.016 
L 276.87168 -38.016 
L 276.15744 -38.016 
L 275.4432 -38.016 
L 274.72896 -38.016 
L 274.01472 -38.016 
L 273.30048 -38.016 
L 272.58624 -38.016 
L 271.872 -38.016 
L 271.15776 -38.016 
L 270.44352 -38.016 
L 269.72928 -38.016 
L 269.01504 -38.016 
L 268.3008 -38.016 
L 267.58656 -38.016 
L 266.87232 -38.016 
L 266.15808 -38.016 
L 265.44384 -38.016 
L 264.7296 -38.016 
L 264.01536 -38.016 
L 263.30112 -38.016 
L 262.58688 -38.016 
L 261.87264 -38.016 
L 261.1584 -38.016 
L 260.44416 -38.016 
L 259.72992 -38.016 
L 259.01568 -38.016 
L 258.30144 -38.016 
L 257.5872 -38.016 
L 256.87296 -38.016 
L 256.15872 -38.016 
L 255.44448 -38.016 
L 254.73024 -38.016 
L 254.016 -38.016 
L 253.30176 -38.016 
L 252.58752 -38.016 
L 251.87328 -38.016 
L 251.15904 -38.016 
L 250.4448 -38.016 
L 249.73056 -38.016 
L 249.01632 -38.016 
L 248.30208 -38.016 
L 247.58784 -38.016 
L 246.8736 -38.016 
L 246.15936 -38.016 
L 245.44512 -38.016 
L 244.73088 -38.016 
L 244.01664 -38.016 
L 243.3024 -38.016 
L 242.58816 -38.016 
L 241.87392 -38.016 
L 241.15968 -38.016 
L 240.44544 -38.016 
L 239.7312 -38.016 
L 239.01696 -38.016 
L 238.30272 -38.016 
L 237.58848 -38.016 
L 236.87424 -38.016 
L 236.16 -38.016 
L 235.44576 -38.016 
L 234.73152 -38.016 
L 234.01728 -38.016 
L 233.30304 -38.016 
L 232.5888 -38.016 
L 231.87456 -38.016 
L 231.16032 -38.016 
L 230.44608 -38.016 
L 229.73184 -38.016 
L 229.0176 -38.016 
L 228.30336 -38.016 
L 227.58912 -38.016 
L 226.87488 -38.016 
L 226.16064 -38.016 
L 225.4464 -38.016 
L 224.73216 -38.016 
L 224.01792 -38.016 
L 223.30368 -38.016 
L 222.58944 -38.016 
L 221.8752 -38.016 
L 221.16096 -38.016 
L 220.44672 -38.016 
L 219.73248 -38.016 
L 219.01824 -38.016 
L 218.304 -38.016 
L 217.58976 -38.016 
L 216.87552 -38.016 
L 216.16128 -38.016 
L 215.44704 -38.016 
L 214.7328 -38.016 
L 214.01856 -38.016 
L 213.30432 -38.016 
L 212.59008 -38.016 
L 211.87584 -38.016 
L 211.1616 -38.016 
L 210.44736 -38.016 
L 209.73312 -38.016 
L 209.01888 -38.016 
L 208.30464 -38.016 
L 207.5904 -38.016 
L 206.87616 -38.016 
L 206.16192 -38.016 
L 205.44768 -38.016 
L 204.73344 -38.016 
L 204.0192 -38.016 
L 203.30496 -38.016 
L 202.59072 -38.016 
L 201.87648 -38.016 
L 201.16224 -38.016 
L 200.448 -38.016 
L 199.73376 -38.016 
L 199.01952 -38.016 
L 198.30528 -38.016 
L 197.59104 -38.016 
L 196.8768 -38.016 
L 196.16256 -38.016 
L 195.44832 -38.016 
L 194.73408 -38.016 
L 194.01984 -38.016 
L 193.3056 -38.016 
L 192.59136 -38.016 
L 191.87712 -38.016 
L 191.16288 -38.016 
L 190.44864 -38.016 
L 189.7344 -38.016 
L 189.02016 -38.016 
L 188.30592 -38.016 
L 187.59168 -38.016 
L 186.87744 -38.016 
L 186.1632 -38.016 
L 185.44896 -38.016 
L 184.73472 -38.016 
L 184.02048 -38.016 
L 183.30624 -38.016 
L 182.592 -38.016 
L 181.87776 -38.016 
L 181.16352 -38.016 
L 180.44928 -38.016 
L 179.73504 -38.016 
L 179.0208 -38.016 
L 178.30656 -38.016 
L 177.59232 -38.016 
L 176.87808 -38.016 
L 176.16384 -38.016 
L 175.4496 -38.016 
L 174.73536 -38.016 
L 174.02112 -38.016 
L 173.30688 -38.016 
L 172.59264 -38.016 
L 171.8784 -38.016 
L 171.16416 -38.016 
L 170.44992 -38.016 
L 169.73568 -38.016 
L 169.02144 -38.016 
L 168.3072 -38.016 
L 167.59296 -38.016 
L 166.87872 -38.016 
L 166.16448 -38.016 
L 165.45024 -38.016 
L 164.736 -38.016 
L 164.02176 -38.016 
L 163.30752 -38.016 
L 162.59328 -38.016 
L 161.87904 -38.016 
L 161.1648 -38.016 
L 160.45056 -38.016 
L 159.73632 -38.016 
L 159.02208 -38.016 
L 158.30784 -38.016 
L 157.5936 -38.016 
L 156.87936 -38.016 
L 156.16512 -38.016 
L 155.45088 -38.016 
L 154.73664 -38.016 
L 154.0224 -38.016 
L 153.30816 -38.016 
L 152.59392 -38.016 
L 151.87968 -38.016 
L 151.16544 -38.016 
L 150.4512 -38.016 
L 149.73696 -38.016 
L 149.02272 -38.016 
L 148.30848 -38.016 
L 147.59424 -38.016 
L 146.88 -38.016 
L 146.16576 -38.016 
L 145.45152 -38.016 
L 144.73728 -38.016 
L 144.02304 -38.016 
L 143.3088 -38.016 
L 142.59456 -38.016 
L 141.88032 -38.016 
L 141.16608 -38.016 
L 140.45184 -38.016 
L 139.7376 -38.016 
L 139.02336 -38.016 
L 138.30912 -38.016 
L 137.59488 -38.016 
L 136.88064 -38.016 
L 136.1664 -38.016 
L 135.45216 -38.016 
L 134.73792 -38.016 
L 134.02368 -38.016 
L 133.30944 -38.016 
L 132.5952 -38.016 
L 131.88096 -38.016 
L 131.16672 -38.016 
L 130.45248 -38.016 
L 129.73824 -38.016 
L 129.024 -38.016 
L 128.30976 -38.016 
L 127.59552 -38.016 
L 126.88128 -38.016 
L 126.16704 -38.016 
L 125.4528 -38.016 
L 124.73856 -38.016 
L 124.02432 -38.016 
L 123.31008 -38.016 
L 122.59584 -38.016 
L 121.8816 -38.016 
L 121.16736 -38.016 
L 120.45312 -38.016 
L 119.73888 -38.016 
L 119.02464 -38.016 
L 118.3104 -38.016 
L 117.59616 -38.016 
L 116.88192 -38.016 
L 116.16768 -38.016 
L 115.45344 -38.016 
L 114.7392 -38.016 
L 114.02496 -38.016 
L 113.31072 -38.016 
L 112.59648 -38.016 
L 111.88224 -38.016 
L 111.168 -38.016 
L 110.45376 -38.016 
L 109.73952 -38.016 
L 109.02528 -38.016 
L 108.31104 -38.016 
L 107.5968 -38.016 
L 106.88256 -38.016 
L 106.16832 -38.016 
L 105.45408 -38.016 
L 104.73984 -38.016 
L 104.0256 -38.016 
L 103.31136 -38.016 
L 102.59712 -38.016 
L 101.88288 -38.016 
L 101.16864 -38.016 
L 100.4544 -38.016 
L 99.74016 -38.016 
L 99.02592 -38.016 
L 98.31168 -38.016 
L 97.59744 -38.016 
L 96.8832 -38.016 
L 96.16896 -38.016 
L 95.45472 -38.016 
L 94.74048 -38.016 
L 94.02624 -38.016 
L 93.312 -38.016 
L 92.59776 -38.016 
L 91.88352 -38.016 
L 91.16928 -38.016 
L 90.45504 -38.016 
L 89.7408 -38.016 
L 89.02656 -38.016 
L 88.31232 -38.016 
L 87.59808 -38.016 
L 86.88384 -38.016 
L 86.1696 -38.016 
L 85.45536 -38.016 
L 84.74112 -38.016 
L 84.02688 -38.016 
L 83.31264 -38.016 
L 82.5984 -38.016 
L 81.88416 -38.016 
L 81.16992 -38.016 
L 80.45568 -38.016 
L 79.74144 -38.016 
L 79.0272 -38.016 
L 78.31296 -38.016 
L 77.59872 -38.016 
L 76.88448 -38.016 
L 76.17024 -38.016 
L 75.456 -38.016 
L 74.74176 -38.016 
L 74.02752 -38.016 
L 73.31328 -38.016 
L 72.59904 -38.016 
L 71.8848 -38.016 
L 71.17056 -38.016 
L 70.45632 -38.016 
L 69.74208 -38.016 
L 69.02784 -38.016 
L 68.3136 -38.016 
L 67.59936 -38.016 
L 66.88512 -38.016 
L 66.17088 -38.016 
L 65.45664 -38.016 
L 64.7424 -38.016 
L 64.02816 -38.016 
L 63.31392 -38.016 
L 62.59968 -38.016 
L 61.88544 -38.016 
L 61.1712 -38.016 
L 60.45696 -38.016 
L 59.74272 -38.016 
L 59.02848 -38.016 
L 58.31424 -38.016 
L 57.6 -38.016 
z
" id="m1331d7b6d7" style="stroke:#509369;"/>
    </defs>
    <g clip-path="url(#p039954ddf0)">
     <use style="fill:#509369;stroke:#509369;" x="0" xlink:href="#m1331d7b6d7" y="345.6"/>
    </g>
   </g>
   <g id="PolyCollection_2">
    <defs>
     <path d="M 57.6 -279.936302 
L 57.6 -279.936 
L 58.31424 -279.935996 
L 59.02848 -279.935987 
L 59.74272 -279.935973 
L 60.45696 -279.935955 
L 61.1712 -279.935932 
L 61.88544 -279.935904 
L 62.59968 -279.93587 
L 63.31392 -279.93583 
L 64.02816 -279.935784 
L 64.7424 -279.935731 
L 65.45664 -279.93567 
L 66.17088 -279.935602 
L 66.88512 -279.935524 
L 67.59936 -279.935436 
L 68.3136 -279.935338 
L 69.02784 -279.935228 
L 69.74208 -279.935105 
L 70.45632 -279.934968 
L 71.17056 -279.934815 
L 71.8848 -279.934645 
L 72.59904 -279.934456 
L 73.31328 -279.934246 
L 74.02752 -279.934013 
L 74.74176 -279.933756 
L 75.456 -279.93347 
L 76.17024 -279.933155 
L 76.88448 -279.932806 
L 77.59872 -279.932421 
L 78.31296 -279.931997 
L 79.0272 -279.931528 
L 79.74144 -279.931013 
L 80.45568 -279.930445 
L 81.16992 -279.929821 
L 81.88416 -279.929135 
L 82.5984 -279.928381 
L 83.31264 -279.927554 
L 84.02688 -279.926646 
L 84.74112 -279.925652 
L 85.45536 -279.924563 
L 86.1696 -279.923371 
L 86.88384 -279.922068 
L 87.59808 -279.920643 
L 88.31232 -279.919088 
L 89.02656 -279.91739 
L 89.7408 -279.915539 
L 90.45504 -279.913521 
L 91.16928 -279.911324 
L 91.88352 -279.908933 
L 92.59776 -279.906333 
L 93.312 -279.903508 
L 94.02624 -279.900439 
L 94.74048 -279.89711 
L 95.45472 -279.893499 
L 96.16896 -279.889586 
L 96.8832 -279.885349 
L 97.59744 -279.880764 
L 98.31168 -279.875806 
L 99.02592 -279.870449 
L 99.74016 -279.864664 
L 100.4544 -279.858421 
L 101.16864 -279.851689 
L 101.88288 -279.844435 
L 102.59712 -279.836625 
L 103.31136 -279.82822 
L 104.0256 -279.819182 
L 104.73984 -279.809471 
L 105.45408 -279.799043 
L 106.16832 -279.787853 
L 106.88256 -279.775855 
L 107.5968 -279.762999 
L 108.31104 -279.749233 
L 109.02528 -279.734503 
L 109.73952 -279.718752 
L 110.45376 -279.701922 
L 111.168 -279.683952 
L 111.88224 -279.664777 
L 112.59648 -279.644332 
L 113.31072 -279.622546 
L 114.02496 -279.599349 
L 114.7392 -279.574666 
L 115.45344 -279.548422 
L 116.16768 -279.520535 
L 116.88192 -279.490924 
L 117.59616 -279.459505 
L 118.3104 -279.426191 
L 119.02464 -279.390891 
L 119.73888 -279.353514 
L 120.45312 -279.313964 
L 121.16736 -279.272145 
L 121.8816 -279.227958 
L 122.59584 -279.1813 
L 123.31008 -279.132068 
L 124.02432 -279.080156 
L 124.73856 -279.025456 
L 125.4528 -278.967859 
L 126.16704 -278.907252 
L 126.88128 -278.843524 
L 127.59552 -278.776559 
L 128.30976 -278.706243 
L 129.024 -278.632458 
L 129.73824 -278.555087 
L 130.45248 -278.474012 
L 131.16672 -278.389114 
L 131.88096 -278.300275 
L 132.5952 -278.207375 
L 133.30944 -278.110296 
L 134.02368 -278.008921 
L 134.73792 -277.903131 
L 135.45216 -277.792811 
L 136.1664 -277.677846 
L 136.88064 -277.558122 
L 137.59488 -277.433529 
L 138.30912 -277.303956 
L 139.02336 -277.169297 
L 139.7376 -277.029449 
L 140.45184 -276.884312 
L 141.16608 -276.733786 
L 141.88032 -276.577781 
L 142.59456 -276.416205 
L 143.3088 -276.248975 
L 144.02304 -276.07601 
L 144.73728 -275.897235 
L 145.45152 -275.712581 
L 146.16576 -275.521983 
L 146.88 -275.325384 
L 147.59424 -275.122731 
L 148.30848 -274.91398 
L 149.02272 -274.699092 
L 149.73696 -274.478035 
L 150.4512 -274.250787 
L 151.16544 -274.017329 
L 151.87968 -273.777654 
L 152.59392 -273.531761 
L 153.30816 -273.279656 
L 154.0224 -273.021357 
L 154.73664 -272.756886 
L 155.45088 -272.486277 
L 156.16512 -272.209571 
L 156.87936 -271.926818 
L 157.5936 -271.638078 
L 158.30784 -271.343418 
L 159.02208 -271.042915 
L 159.73632 -270.736655 
L 160.45056 -270.424732 
L 161.1648 -270.107249 
L 161.87904 -269.78432 
L 162.59328 -269.456063 
L 163.30752 -269.122609 
L 164.02176 -268.784095 
L 164.736 -268.440666 
L 165.45024 -268.092475 
L 166.16448 -267.739684 
L 166.87872 -267.382461 
L 167.59296 -267.020981 
L 168.3072 -266.655428 
L 169.02144 -266.28599 
L 169.73568 -265.912862 
L 170.44992 -265.536246 
L 171.16416 -265.156348 
L 171.8784 -264.773379 
L 172.59264 -264.387556 
L 173.30688 -263.999099 
L 174.02112 -263.608233 
L 174.73536 -263.215186 
L 175.4496 -262.820187 
L 176.16384 -262.423469 
L 176.87808 -262.025269 
L 177.59232 -261.625822 
L 178.30656 -261.225367 
L 179.0208 -260.82414 
L 179.73504 -260.422381 
L 180.44928 -260.020326 
L 181.16352 -259.618214 
L 181.87776 -259.21628 
L 182.592 -258.814756 
L 183.30624 -258.413876 
L 184.02048 -258.013867 
L 184.73472 -257.614955 
L 185.44896 -257.217362 
L 186.1632 -256.821305 
L 186.87744 -256.426999 
L 187.59168 -256.034652 
L 188.30592 -255.644467 
L 189.02016 -255.256642 
L 189.7344 -254.871369 
L 190.44864 -254.488832 
L 191.16288 -254.109211 
L 191.87712 -253.732678 
L 192.59136 -253.359396 
L 193.3056 -252.989524 
L 194.01984 -252.623209 
L 194.73408 -252.260593 
L 195.44832 -251.901807 
L 196.16256 -251.546976 
L 196.8768 -251.196215 
L 197.59104 -250.849628 
L 198.30528 -250.507312 
L 199.01952 -250.169353 
L 199.73376 -249.835826 
L 200.448 -249.506798 
L 201.16224 -249.182323 
L 201.87648 -248.862446 
L 202.59072 -248.547197 
L 203.30496 -248.236598 
L 204.0192 -247.930657 
L 204.73344 -247.629368 
L 205.44768 -247.332712 
L 206.16192 -247.040655 
L 206.87616 -246.75315 
L 207.5904 -246.470129 
L 208.30464 -246.191512 
L 209.01888 -245.917196 
L 209.73312 -245.64706 
L 210.44736 -245.380959 
L 211.1616 -245.118725 
L 211.87584 -244.860164 
L 212.59008 -244.605052 
L 213.30432 -244.353132 
L 214.01856 -244.104114 
L 214.7328 -243.857665 
L 215.44704 -243.61341 
L 216.16128 -243.370924 
L 216.87552 -243.129725 
L 217.58976 -242.88927 
L 218.304 -242.648944 
L 219.01824 -242.408057 
L 219.73248 -242.165824 
L 220.44672 -241.921363 
L 221.16096 -241.673678 
L 221.8752 -241.421644 
L 222.58944 -241.163992 
L 223.30368 -240.899287 
L 224.01792 -240.625912 
L 224.73216 -240.342041 
L 225.4464 -240.045613 
L 226.16064 -239.734303 
L 226.87488 -239.405489 
L 227.58912 -239.056215 
L 228.30336 -238.683153 
L 229.0176 -238.282554 
L 229.73184 -237.850208 
L 230.44608 -237.381383 
L 231.16032 -236.870777 
L 231.87456 -236.312453 
L 232.5888 -235.699782 
L 233.30304 -235.025378 
L 234.01728 -234.281034 
L 234.73152 -233.457662 
L 235.44576 -232.54524 
L 236.16 -231.532757 
L 236.87424 -230.408189 
L 237.58848 -229.158477 
L 238.30272 -227.769544 
L 239.01696 -226.226339 
L 239.7312 -224.512929 
L 240.44544 -222.612647 
L 241.15968 -220.508307 
L 241.87392 -218.182492 
L 242.58816 -215.617936 
L 243.3024 -212.798001 
L 244.01664 -209.70725 
L 244.73088 -206.332114 
L 245.44512 -202.661647 
L 246.15936 -198.688332 
L 246.8736 -194.408911 
L 247.58784 -189.825183 
L 248.30208 -184.944711 
L 249.01632 -179.781368 
L 249.73056 -174.355644 
L 250.4448 -168.694667 
L 251.15904 -162.831874 
L 251.87328 -156.806334 
L 252.58752 -150.661723 
L 253.30176 -144.44502 
L 254.016 -138.204989 
L 254.73024 -131.990581 
L 255.44448 -125.849338 
L 256.15872 -119.825948 
L 256.87296 -113.961004 
L 257.5872 -108.290068 
L 258.30144 -102.843038 
L 259.01568 -97.643838 
L 259.72992 -92.710405 
L 260.44416 -88.054911 
L 261.1584 -83.684188 
L 261.87264 -79.600278 
L 262.58688 -75.801071 
L 263.30112 -72.280966 
L 264.01536 -69.031535 
L 264.7296 -66.042144 
L 265.44384 -63.30053 
L 266.15808 -60.793301 
L 266.87232 -58.506379 
L 267.58656 -56.425364 
L 268.3008 -54.535833 
L 269.01504 -52.823584 
L 269.72928 -51.274815 
L 270.44352 -49.876266 
L 271.15776 -48.615315 
L 271.872 -47.48004 
L 272.58624 -46.459262 
L 273.30048 -45.542551 
L 274.01472 -44.720233 
L 274.72896 -43.983369 
L 275.4432 -43.323736 
L 276.15744 -42.73379 
L 276.87168 -42.206634 
L 277.58592 -41.73598 
L 278.30016 -41.316106 
L 279.0144 -40.941818 
L 279.72864 -40.608412 
L 280.44288 -40.311631 
L 281.15712 -40.047632 
L 281.87136 -39.812949 
L 282.5856 -39.604461 
L 283.29984 -39.419362 
L 284.01408 -39.255129 
L 284.72832 -39.109498 
L 285.44256 -38.980441 
L 286.1568 -38.866137 
L 286.87104 -38.764961 
L 287.58528 -38.675457 
L 288.29952 -38.596323 
L 289.01376 -38.526399 
L 289.728 -38.464648 
L 290.44224 -38.410147 
L 291.15648 -38.362071 
L 291.87072 -38.319687 
L 292.58496 -38.282343 
L 293.2992 -38.249459 
L 294.01344 -38.220517 
L 294.72768 -38.195061 
L 295.44192 -38.172684 
L 296.15616 -38.153024 
L 296.8704 -38.135761 
L 297.58464 -38.120613 
L 298.29888 -38.107327 
L 299.01312 -38.095682 
L 299.72736 -38.085481 
L 300.4416 -38.07655 
L 301.15584 -38.068736 
L 301.87008 -38.061903 
L 302.58432 -38.055932 
L 303.29856 -38.050716 
L 304.0128 -38.046164 
L 304.72704 -38.042193 
L 305.44128 -38.038731 
L 306.15552 -38.035715 
L 306.86976 -38.033088 
L 307.584 -38.030802 
L 308.29824 -38.028815 
L 309.01248 -38.027087 
L 309.72672 -38.025586 
L 310.44096 -38.024284 
L 311.1552 -38.023154 
L 311.86944 -38.022174 
L 312.58368 -38.021325 
L 313.29792 -38.02059 
L 314.01216 -38.019954 
L 314.7264 -38.019404 
L 315.44064 -38.018929 
L 316.15488 -38.018518 
L 316.86912 -38.018164 
L 317.58336 -38.017858 
L 318.2976 -38.017595 
L 319.01184 -38.017368 
L 319.72608 -38.017172 
L 320.44032 -38.017004 
L 321.15456 -38.01686 
L 321.8688 -38.016735 
L 322.58304 -38.016629 
L 323.29728 -38.016537 
L 324.01152 -38.016459 
L 324.72576 -38.016391 
L 325.44 -38.016334 
L 326.15424 -38.016284 
L 326.86848 -38.016242 
L 327.58272 -38.016206 
L 328.29696 -38.016175 
L 329.0112 -38.016149 
L 329.72544 -38.016127 
L 330.43968 -38.016107 
L 331.15392 -38.016091 
L 331.86816 -38.016077 
L 332.5824 -38.016065 
L 333.29664 -38.016055 
L 334.01088 -38.016047 
L 334.72512 -38.01604 
L 335.43936 -38.016034 
L 336.1536 -38.016028 
L 336.86784 -38.016024 
L 337.58208 -38.01602 
L 338.29632 -38.016017 
L 339.01056 -38.016014 
L 339.7248 -38.016012 
L 340.43904 -38.01601 
L 341.15328 -38.016009 
L 341.86752 -38.016007 
L 342.58176 -38.016006 
L 343.296 -38.016005 
L 344.01024 -38.016004 
L 344.72448 -38.016004 
L 345.43872 -38.016003 
L 346.15296 -38.016002 
L 346.8672 -38.016002 
L 347.58144 -38.016002 
L 348.29568 -38.016001 
L 349.00992 -38.016001 
L 349.72416 -38.016001 
L 350.4384 -38.016001 
L 351.15264 -38.016001 
L 351.86688 -38.016001 
L 352.58112 -38.016 
L 353.29536 -38.016 
L 354.0096 -38.016 
L 354.72384 -38.016 
L 355.43808 -38.016 
L 356.15232 -38.016 
L 356.86656 -38.016 
L 357.5808 -38.016 
L 358.29504 -38.016 
L 359.00928 -38.016 
L 359.72352 -38.016 
L 360.43776 -38.016 
L 361.152 -38.016 
L 361.86624 -38.016 
L 362.58048 -38.016 
L 363.29472 -38.016 
L 364.00896 -38.016 
L 364.7232 -38.016 
L 365.43744 -38.016 
L 366.15168 -38.016 
L 366.86592 -38.016 
L 367.58016 -38.016 
L 368.2944 -38.016 
L 369.00864 -38.016 
L 369.72288 -38.016 
L 370.43712 -38.016 
L 371.15136 -38.016 
L 371.8656 -38.016 
L 372.57984 -38.016 
L 373.29408 -38.016 
L 374.00832 -38.016 
L 374.72256 -38.016 
L 375.4368 -38.016 
L 376.15104 -38.016 
L 376.86528 -38.016 
L 377.57952 -38.016 
L 378.29376 -38.016 
L 379.008 -38.016 
L 379.72224 -38.016 
L 380.43648 -38.016 
L 381.15072 -38.016 
L 381.86496 -38.016 
L 382.5792 -38.016 
L 383.29344 -38.016 
L 384.00768 -38.016 
L 384.72192 -38.016 
L 385.43616 -38.016 
L 386.1504 -38.016 
L 386.86464 -38.016 
L 387.57888 -38.016 
L 388.29312 -38.016 
L 389.00736 -38.016 
L 389.7216 -38.016 
L 390.43584 -38.016 
L 391.15008 -38.016 
L 391.86432 -38.016 
L 392.57856 -38.016 
L 393.2928 -38.016 
L 394.00704 -38.016 
L 394.72128 -38.016 
L 395.43552 -38.016 
L 396.14976 -38.016 
L 396.864 -38.016 
L 397.57824 -38.016 
L 398.29248 -38.016 
L 399.00672 -38.016 
L 399.72096 -38.016 
L 400.4352 -38.016 
L 401.14944 -38.016 
L 401.86368 -38.016 
L 402.57792 -38.016 
L 403.29216 -38.016 
L 404.0064 -38.016 
L 404.72064 -38.016 
L 405.43488 -38.016 
L 406.14912 -38.016 
L 406.86336 -38.016 
L 407.5776 -38.016 
L 408.29184 -38.016 
L 409.00608 -38.016 
L 409.72032 -38.016 
L 410.43456 -38.016 
L 411.1488 -38.016 
L 411.86304 -38.016 
L 412.57728 -38.016 
L 413.29152 -38.016 
L 414.00576 -38.016 
L 414.72 -38.016 
L 414.72 -38.016 
L 414.72 -38.016 
L 414.00576 -38.016 
L 413.29152 -38.016 
L 412.57728 -38.016 
L 411.86304 -38.016 
L 411.1488 -38.016 
L 410.43456 -38.016 
L 409.72032 -38.016 
L 409.00608 -38.016 
L 408.29184 -38.016 
L 407.5776 -38.016 
L 406.86336 -38.016 
L 406.14912 -38.016 
L 405.43488 -38.016 
L 404.72064 -38.016 
L 404.0064 -38.016 
L 403.29216 -38.016 
L 402.57792 -38.016 
L 401.86368 -38.016 
L 401.14944 -38.016 
L 400.4352 -38.016 
L 399.72096 -38.016 
L 399.00672 -38.016 
L 398.29248 -38.016 
L 397.57824 -38.016 
L 396.864 -38.016 
L 396.14976 -38.016 
L 395.43552 -38.016 
L 394.72128 -38.016 
L 394.00704 -38.016 
L 393.2928 -38.016 
L 392.57856 -38.016 
L 391.86432 -38.016 
L 391.15008 -38.016 
L 390.43584 -38.016 
L 389.7216 -38.016 
L 389.00736 -38.016 
L 388.29312 -38.016 
L 387.57888 -38.016 
L 386.86464 -38.016 
L 386.1504 -38.016 
L 385.43616 -38.016 
L 384.72192 -38.016 
L 384.00768 -38.016 
L 383.29344 -38.016 
L 382.5792 -38.016 
L 381.86496 -38.016 
L 381.15072 -38.016 
L 380.43648 -38.016 
L 379.72224 -38.016 
L 379.008 -38.016 
L 378.29376 -38.016 
L 377.57952 -38.016 
L 376.86528 -38.016 
L 376.15104 -38.016 
L 375.4368 -38.016 
L 374.72256 -38.016 
L 374.00832 -38.016 
L 373.29408 -38.016 
L 372.57984 -38.016 
L 371.8656 -38.016 
L 371.15136 -38.016 
L 370.43712 -38.016 
L 369.72288 -38.016 
L 369.00864 -38.016 
L 368.2944 -38.016 
L 367.58016 -38.016 
L 366.86592 -38.016 
L 366.15168 -38.016 
L 365.43744 -38.016 
L 364.7232 -38.016 
L 364.00896 -38.016 
L 363.29472 -38.016 
L 362.58048 -38.016 
L 361.86624 -38.016 
L 361.152 -38.016 
L 360.43776 -38.016 
L 359.72352 -38.016 
L 359.00928 -38.016 
L 358.29504 -38.016 
L 357.5808 -38.016 
L 356.86656 -38.016 
L 356.15232 -38.016 
L 355.43808 -38.016 
L 354.72384 -38.016 
L 354.0096 -38.016001 
L 353.29536 -38.016001 
L 352.58112 -38.016001 
L 351.86688 -38.016001 
L 351.15264 -38.016001 
L 350.4384 -38.016001 
L 349.72416 -38.016002 
L 349.00992 -38.016002 
L 348.29568 -38.016002 
L 347.58144 -38.016003 
L 346.8672 -38.016003 
L 346.15296 -38.016004 
L 345.43872 -38.016005 
L 344.72448 -38.016006 
L 344.01024 -38.016007 
L 343.296 -38.016008 
L 342.58176 -38.01601 
L 341.86752 -38.016012 
L 341.15328 -38.016014 
L 340.43904 -38.016016 
L 339.7248 -38.016019 
L 339.01056 -38.016023 
L 338.29632 -38.016027 
L 337.58208 -38.016032 
L 336.86784 -38.016038 
L 336.1536 -38.016045 
L 335.43936 -38.016053 
L 334.72512 -38.016062 
L 334.01088 -38.016073 
L 333.29664 -38.016086 
L 332.5824 -38.016101 
L 331.86816 -38.016119 
L 331.15392 -38.01614 
L 330.43968 -38.016164 
L 329.72544 -38.016193 
L 329.0112 -38.016226 
L 328.29696 -38.016265 
L 327.58272 -38.01631 
L 326.86848 -38.016363 
L 326.15424 -38.016425 
L 325.44 -38.016497 
L 324.72576 -38.016581 
L 324.01152 -38.016679 
L 323.29728 -38.016792 
L 322.58304 -38.016924 
L 321.8688 -38.017077 
L 321.15456 -38.017254 
L 320.44032 -38.01746 
L 319.72608 -38.017699 
L 319.01184 -38.017976 
L 318.2976 -38.018296 
L 317.58336 -38.018667 
L 316.86912 -38.019095 
L 316.15488 -38.019591 
L 315.44064 -38.020163 
L 314.7264 -38.020823 
L 314.01216 -38.021585 
L 313.29792 -38.022463 
L 312.58368 -38.023475 
L 311.86944 -38.02464 
L 311.1552 -38.025981 
L 310.44096 -38.027523 
L 309.72672 -38.029295 
L 309.01248 -38.031331 
L 308.29824 -38.033668 
L 307.584 -38.03635 
L 306.86976 -38.039425 
L 306.15552 -38.04295 
L 305.44128 -38.046986 
L 304.72704 -38.051607 
L 304.0128 -38.056894 
L 303.29856 -38.062939 
L 302.58432 -38.069846 
L 301.87008 -38.077735 
L 301.15584 -38.08674 
L 300.4416 -38.097013 
L 299.72736 -38.108726 
L 299.01312 -38.122073 
L 298.29888 -38.137274 
L 297.58464 -38.154577 
L 296.8704 -38.174261 
L 296.15616 -38.196642 
L 295.44192 -38.222076 
L 294.72768 -38.250963 
L 294.01344 -38.283754 
L 293.2992 -38.320957 
L 292.58496 -38.363144 
L 291.87072 -38.410954 
L 291.15648 -38.46511 
L 290.44224 -38.526422 
L 289.728 -38.595796 
L 289.01376 -38.674251 
L 288.29952 -38.76293 
L 287.58528 -38.863109 
L 286.87104 -38.976221 
L 286.1568 -39.103866 
L 285.44256 -39.247833 
L 284.72832 -39.410119 
L 284.01408 -39.592956 
L 283.29984 -39.798829 
L 282.5856 -40.030509 
L 281.87136 -40.291081 
L 281.15712 -40.583974 
L 280.44288 -40.912998 
L 279.72864 -41.282379 
L 279.0144 -41.696801 
L 278.30016 -42.161445 
L 277.58592 -42.682039 
L 276.87168 -43.264896 
L 276.15744 -43.916967 
L 275.4432 -44.645889 
L 274.72896 -45.46003 
L 274.01472 -46.368535 
L 273.30048 -47.381371 
L 272.58624 -48.509362 
L 271.872 -49.764216 
L 271.15776 -51.158544 
L 270.44352 -52.705859 
L 269.72928 -54.420557 
L 269.01504 -56.317869 
L 268.3008 -58.413783 
L 267.58656 -60.724923 
L 266.87232 -63.268381 
L 266.15808 -66.061487 
L 265.44384 -69.121523 
L 264.7296 -72.465351 
L 264.01536 -76.108969 
L 263.30112 -80.066981 
L 262.58688 -84.351978 
L 261.87264 -88.973848 
L 261.1584 -93.939019 
L 260.44416 -99.249658 
L 259.72992 -104.902873 
L 259.01568 -110.889943 
L 258.30144 -117.195661 
L 257.5872 -123.79783 
L 256.87296 -130.666994 
L 256.15872 -137.766479 
L 255.44448 -145.052777 
L 254.73024 -152.476318 
L 254.016 -159.982633 
L 253.30176 -167.513852 
L 252.58752 -175.01048 
L 251.87328 -182.413321 
L 251.15904 -189.665428 
L 250.4448 -196.713931 
L 249.73056 -203.511615 
L 249.01632 -210.018154 
L 248.30208 -216.200917 
L 247.58784 -222.035351 
L 246.8736 -227.504948 
L 246.15936 -232.600854 
L 245.44512 -237.321197 
L 244.73088 -241.670225 
L 244.01664 -245.657322 
L 243.3024 -249.296006 
L 242.58816 -252.60294 
L 241.87392 -255.597019 
L 241.15968 -258.298563 
L 240.44544 -260.728618 
L 239.7312 -262.908381 
L 239.01696 -264.858743 
L 238.30272 -266.599938 
L 237.58848 -268.151285 
L 236.87424 -269.531015 
L 236.16 -270.756159 
L 235.44576 -271.842497 
L 234.73152 -272.804545 
L 234.01728 -273.655572 
L 233.30304 -274.407645 
L 232.5888 -275.071689 
L 231.87456 -275.657551 
L 231.16032 -276.174084 
L 230.44608 -276.629215 
L 229.73184 -277.030029 
L 229.0176 -277.38284 
L 228.30336 -277.69327 
L 227.58912 -277.966308 
L 226.87488 -278.20638 
L 226.16064 -278.417405 
L 225.4464 -278.602852 
L 224.73216 -278.765784 
L 224.01792 -278.908907 
L 223.30368 -279.034606 
L 222.58944 -279.144987 
L 221.8752 -279.241902 
L 221.16096 -279.326985 
L 220.44672 -279.401671 
L 219.73248 -279.467226 
L 219.01824 -279.52476 
L 218.304 -279.575251 
L 217.58976 -279.619559 
L 216.87552 -279.658438 
L 216.16128 -279.692552 
L 215.44704 -279.722484 
L 214.7328 -279.748744 
L 214.01856 -279.771783 
L 213.30432 -279.791995 
L 212.59008 -279.809726 
L 211.87584 -279.82528 
L 211.1616 -279.838925 
L 210.44736 -279.850894 
L 209.73312 -279.861393 
L 209.01888 -279.870602 
L 208.30464 -279.87868 
L 207.5904 -279.885766 
L 206.87616 -279.89198 
L 206.16192 -279.897431 
L 205.44768 -279.902212 
L 204.73344 -279.906405 
L 204.0192 -279.910083 
L 203.30496 -279.913308 
L 202.59072 -279.916137 
L 201.87648 -279.918619 
L 201.16224 -279.920794 
L 200.448 -279.922703 
L 199.73376 -279.924376 
L 199.01952 -279.925844 
L 198.30528 -279.927131 
L 197.59104 -279.92826 
L 196.8768 -279.92925 
L 196.16256 -279.930118 
L 195.44832 -279.93088 
L 194.73408 -279.931547 
L 194.01984 -279.932133 
L 193.3056 -279.932646 
L 192.59136 -279.933097 
L 191.87712 -279.933491 
L 191.16288 -279.933838 
L 190.44864 -279.934141 
L 189.7344 -279.934407 
L 189.02016 -279.934641 
L 188.30592 -279.934845 
L 187.59168 -279.935025 
L 186.87744 -279.935182 
L 186.1632 -279.93532 
L 185.44896 -279.935441 
L 184.73472 -279.935547 
L 184.02048 -279.93564 
L 183.30624 -279.935722 
L 182.592 -279.935793 
L 181.87776 -279.935856 
L 181.16352 -279.935911 
L 180.44928 -279.935959 
L 179.73504 -279.936002 
L 179.0208 -279.936039 
L 178.30656 -279.936071 
L 177.59232 -279.9361 
L 176.87808 -279.936125 
L 176.16384 -279.936146 
L 175.4496 -279.936166 
L 174.73536 -279.936182 
L 174.02112 -279.936197 
L 173.30688 -279.93621 
L 172.59264 -279.936221 
L 171.8784 -279.936231 
L 171.16416 -279.93624 
L 170.44992 -279.936248 
L 169.73568 -279.936254 
L 169.02144 -279.93626 
L 168.3072 -279.936265 
L 167.59296 -279.93627 
L 166.87872 -279.936274 
L 166.16448 -279.936277 
L 165.45024 -279.93628 
L 164.736 -279.936283 
L 164.02176 -279.936285 
L 163.30752 -279.936287 
L 162.59328 -279.936289 
L 161.87904 -279.936291 
L 161.1648 -279.936292 
L 160.45056 -279.936293 
L 159.73632 -279.936294 
L 159.02208 -279.936295 
L 158.30784 -279.936296 
L 157.5936 -279.936297 
L 156.87936 -279.936298 
L 156.16512 -279.936298 
L 155.45088 -279.936299 
L 154.73664 -279.936299 
L 154.0224 -279.936299 
L 153.30816 -279.9363 
L 152.59392 -279.9363 
L 151.87968 -279.9363 
L 151.16544 -279.9363 
L 150.4512 -279.936301 
L 149.73696 -279.936301 
L 149.02272 -279.936301 
L 148.30848 -279.936301 
L 147.59424 -279.936301 
L 146.88 -279.936301 
L 146.16576 -279.936301 
L 145.45152 -279.936301 
L 144.73728 -279.936301 
L 144.02304 -279.936302 
L 143.3088 -279.936302 
L 142.59456 -279.936302 
L 141.88032 -279.936302 
L 141.16608 -279.936302 
L 140.45184 -279.936302 
L 139.7376 -279.936302 
L 139.02336 -279.936302 
L 138.30912 -279.936302 
L 137.59488 -279.936302 
L 136.88064 -279.936302 
L 136.1664 -279.936302 
L 135.45216 -279.936302 
L 134.73792 -279.936302 
L 134.02368 -279.936302 
L 133.30944 -279.936302 
L 132.5952 -279.936302 
L 131.88096 -279.936302 
L 131.16672 -279.936302 
L 130.45248 -279.936302 
L 129.73824 -279.936302 
L 129.024 -279.936302 
L 128.30976 -279.936302 
L 127.59552 -279.936302 
L 126.88128 -279.936302 
L 126.16704 -279.936302 
L 125.4528 -279.936302 
L 124.73856 -279.936302 
L 124.02432 -279.936302 
L 123.31008 -279.936302 
L 122.59584 -279.936302 
L 121.8816 -279.936302 
L 121.16736 -279.936302 
L 120.45312 -279.936302 
L 119.73888 -279.936302 
L 119.02464 -279.936302 
L 118.3104 -279.936302 
L 117.59616 -279.936302 
L 116.88192 -279.936302 
L 116.16768 -279.936302 
L 115.45344 -279.936302 
L 114.7392 -279.936302 
L 114.02496 -279.936302 
L 113.31072 -279.936302 
L 112.59648 -279.936302 
L 111.88224 -279.936302 
L 111.168 -279.936302 
L 110.45376 -279.936302 
L 109.73952 -279.936302 
L 109.02528 -279.936302 
L 108.31104 -279.936302 
L 107.5968 -279.936302 
L 106.88256 -279.936302 
L 106.16832 -279.936302 
L 105.45408 -279.936302 
L 104.73984 -279.936302 
L 104.0256 -279.936302 
L 103.31136 -279.936302 
L 102.59712 -279.936302 
L 101.88288 -279.936302 
L 101.16864 -279.936302 
L 100.4544 -279.936302 
L 99.74016 -279.936302 
L 99.02592 -279.936302 
L 98.31168 -279.936302 
L 97.59744 -279.936302 
L 96.8832 -279.936302 
L 96.16896 -279.936302 
L 95.45472 -279.936302 
L 94.74048 -279.936302 
L 94.02624 -279.936302 
L 93.312 -279.936302 
L 92.59776 -279.936302 
L 91.88352 -279.936302 
L 91.16928 -279.936302 
L 90.45504 -279.936302 
L 89.7408 -279.936302 
L 89.02656 -279.936302 
L 88.31232 -279.936302 
L 87.59808 -279.936302 
L 86.88384 -279.936302 
L 86.1696 -279.936302 
L 85.45536 -279.936302 
L 84.74112 -279.936302 
L 84.02688 -279.936302 
L 83.31264 -279.936302 
L 82.5984 -279.936302 
L 81.88416 -279.936302 
L 81.16992 -279.936302 
L 80.45568 -279.936302 
L 79.74144 -279.936302 
L 79.0272 -279.936302 
L 78.31296 -279.936302 
L 77.59872 -279.936302 
L 76.88448 -279.936302 
L 76.17024 -279.936302 
L 75.456 -279.936302 
L 74.74176 -279.936302 
L 74.02752 -279.936302 
L 73.31328 -279.936302 
L 72.59904 -279.936302 
L 71.8848 -279.936302 
L 71.17056 -279.936302 
L 70.45632 -279.936302 
L 69.74208 -279.936302 
L 69.02784 -279.936302 
L 68.3136 -279.936302 
L 67.59936 -279.936302 
L 66.88512 -279.936302 
L 66.17088 -279.936302 
L 65.45664 -279.936302 
L 64.7424 -279.936302 
L 64.02816 -279.936302 
L 63.31392 -279.936302 
L 62.59968 -279.936302 
L 61.88544 -279.936302 
L 61.1712 -279.936302 
L 60.45696 -279.936302 
L 59.74272 -279.936302 
L 59.02848 -279.936302 
L 58.31424 -279.936302 
L 57.6 -279.936302 
z
" id="me379f7b5ec" style="stroke:#afe88e;"/>
    </defs>
    <g clip-path="url(#p039954ddf0)">
     <use style="fill:#afe88e;stroke:#afe88e;" x="0" xlink:href="#me379f7b5ec" y="345.6"/>
    </g>
   </g>
   <g id="line2d_1">
    <path clip-path="url(#p039954ddf0)" d="M 57.6 65.663698 
L 211.87584 65.77472 
L 218.304 66.024749 
L 221.8752 66.358098 
L 224.73216 66.834216 
L 226.87488 67.39362 
L 229.0176 68.21716 
L 230.44608 68.970785 
L 231.87456 69.942449 
L 233.30304 71.192355 
L 234.73152 72.795455 
L 236.16 74.843841 
L 237.58848 77.448715 
L 239.01696 80.741257 
L 240.44544 84.871382 
L 241.87392 90.002981 
L 243.3024 96.303994 
L 244.73088 103.929775 
L 246.15936 112.999146 
L 247.58784 123.564649 
L 249.01632 135.581846 
L 251.15904 155.934572 
L 255.44448 200.547223 
L 257.5872 221.80217 
L 259.72992 240.697127 
L 261.1584 251.660981 
L 262.58688 261.248022 
L 264.01536 269.491031 
L 265.44384 276.478477 
L 266.87232 282.331619 
L 268.3008 287.186217 
L 269.72928 291.179443 
L 271.15776 294.441456 
L 272.58624 297.090638 
L 274.01472 299.231465 
L 275.4432 300.954111 
L 276.87168 302.335104 
L 278.30016 303.438555 
L 279.72864 304.317621 
L 281.87136 305.308919 
L 284.01408 306.007044 
L 286.87104 306.623779 
L 289.728 307.004204 
L 294.01344 307.316246 
L 300.4416 307.502987 
L 313.29792 307.577537 
L 408.29184 307.584 
L 414.72 307.584 
L 414.72 307.584 
" style="fill:none;stroke:#000000;stroke-linecap:square;stroke-width:0.7;"/>
   </g>
   <g id="patch_3">
    <path d="M 57.6 307.584 
L 57.6 41.472 
" style="fill:none;stroke:#000000;stroke-linecap:square;stroke-linejoin:miter;stroke-width:0.8;"/>
   </g>
   <g id="patch_4">
    <path d="M 414.72 307.584 
L 414.72 41.472 
" style="fill:none;stroke:#000000;stroke-linecap:square;stroke-linejoin:miter;stroke-width:0.8;"/>
   </g>
   <g id="patch_5">
    <path d="M 57.6 307.584 
L 414.72 307.584 
" style="fill:none;stroke:#000000;stroke-linecap:square;stroke-linejoin:miter;stroke-width:0.8;"/>
   </g>
   <g id="patch_6">
    <path d="M 57.6 41.472 
L 414.72 41.472 
" style="fill:none;stroke:#000000;stroke-linecap:square;stroke-linejoin:miter;stroke-width:0.8;"/>
   </g>
   <g id="legend_1">
    <g id="patch_7">
     <path d="M 91.90611 34.09119 
L 246.68736 34.09119 
Q 249.08736 34.09119 249.08736 31.69119 
L 249.08736 15.27744 
Q 249.08736 12.87744 246.68736 12.87744 
L 91.90611 12.87744 
Q 89.50611 12.87744 89.50611 15.27744 
L 89.50611 31.69119 
Q 89.50611 34.09119 91.90611 34.09119 
z
" style="fill:#ffffff;opacity:0.8;stroke:#cccccc;stroke-linejoin:miter;"/>
    </g>
    <g id="patch_8">
     <path d="M 94.30611 26.795565 
L 118.30611 26.795565 
L 118.30611 18.395565 
L 94.30611 18.395565 
z
" style="fill:#509369;stroke:#509369;stroke-linejoin:miter;"/>
    </g>
    <g id="text_1">
     <!-- back -->
     <g transform="translate(127.90611 26.795565)scale(0.12 -0.12)">
      <defs>
       <path d="M 11.53125 5.171875 
L 11.53125 70.796875 
L 2.875 70.796875 
L 2.875 75.984375 
L 20.515625 75.984375 
L 20.515625 43.796875 
Q 23.140625 48.6875 27.21875 51 
Q 31.296875 53.328125 37.3125 53.328125 
Q 46.875 53.328125 52.921875 45.75 
Q 58.984375 38.1875 58.984375 25.984375 
Q 58.984375 13.765625 52.921875 6.171875 
Q 46.875 -1.421875 37.3125 -1.421875 
Q 31.296875 -1.421875 27.21875 0.890625 
Q 23.140625 3.21875 20.515625 8.109375 
L 20.515625 0 
L 2.875 0 
L 2.875 5.171875 
z
M 20.515625 23.390625 
Q 20.515625 14.015625 24.09375 9.109375 
Q 27.6875 4.203125 34.515625 4.203125 
Q 41.40625 4.203125 44.9375 9.71875 
Q 48.484375 15.234375 48.484375 25.984375 
Q 48.484375 36.765625 44.9375 42.234375 
Q 41.40625 47.703125 34.515625 47.703125 
Q 27.6875 47.703125 24.09375 42.765625 
Q 20.515625 37.84375 20.515625 28.515625 
z
" id="DejaVuSerif-98"/>
       <path d="M 39.796875 16.3125 
L 39.796875 27.296875 
L 28.21875 27.296875 
Q 21.53125 27.296875 18.25 24.40625 
Q 14.984375 21.53125 14.984375 15.578125 
Q 14.984375 10.15625 18.296875 6.984375 
Q 21.625 3.8125 27.296875 3.8125 
Q 32.90625 3.8125 36.34375 7.28125 
Q 39.796875 10.75 39.796875 16.3125 
z
M 48.78125 32.421875 
L 48.78125 5.171875 
L 56.78125 5.171875 
L 56.78125 0 
L 39.796875 0 
L 39.796875 5.609375 
Q 36.8125 2 32.90625 0.28125 
Q 29 -1.421875 23.78125 -1.421875 
Q 15.140625 -1.421875 10.0625 3.171875 
Q 4.984375 7.765625 4.984375 15.578125 
Q 4.984375 23.640625 10.796875 28.078125 
Q 16.609375 32.515625 27.203125 32.515625 
L 39.796875 32.515625 
L 39.796875 36.078125 
Q 39.796875 42 36.203125 45.234375 
Q 32.625 48.484375 26.125 48.484375 
Q 20.75 48.484375 17.578125 46.046875 
Q 14.40625 43.609375 13.625 38.8125 
L 8.984375 38.8125 
L 8.984375 49.3125 
Q 13.671875 51.3125 18.09375 52.3125 
Q 22.515625 53.328125 26.703125 53.328125 
Q 37.5 53.328125 43.140625 47.96875 
Q 48.78125 42.625 48.78125 32.421875 
z
" id="DejaVuSerif-97"/>
       <path d="M 51.421875 15.578125 
Q 49.515625 7.28125 44.09375 2.921875 
Q 38.671875 -1.421875 30.078125 -1.421875 
Q 18.75 -1.421875 11.859375 6.078125 
Q 4.984375 13.578125 4.984375 25.984375 
Q 4.984375 38.421875 11.859375 45.875 
Q 18.75 53.328125 30.078125 53.328125 
Q 35.015625 53.328125 39.890625 52.171875 
Q 44.78125 51.03125 49.703125 48.6875 
L 49.703125 35.40625 
L 44.484375 35.40625 
Q 43.453125 42.234375 40.015625 45.359375 
Q 36.578125 48.484375 30.171875 48.484375 
Q 22.90625 48.484375 19.1875 42.84375 
Q 15.484375 37.203125 15.484375 25.984375 
Q 15.484375 14.75 19.171875 9.078125 
Q 22.859375 3.421875 30.171875 3.421875 
Q 35.984375 3.421875 39.453125 6.4375 
Q 42.921875 9.46875 44.1875 15.578125 
z
" id="DejaVuSerif-99"/>
       <path d="M 28.609375 0 
L 3.421875 0 
L 3.421875 5.171875 
L 11.53125 5.171875 
L 11.53125 70.796875 
L 2.875 70.796875 
L 2.875 75.984375 
L 20.515625 75.984375 
L 20.515625 26.515625 
L 42.390625 46.6875 
L 34.90625 46.6875 
L 34.90625 51.90625 
L 58.40625 51.90625 
L 58.40625 46.6875 
L 49.515625 46.6875 
L 34.078125 32.421875 
L 53.8125 5.171875 
L 61.28125 5.171875 
L 61.28125 0 
L 35.6875 0 
L 35.6875 5.171875 
L 43.109375 5.171875 
L 27.59375 26.515625 
L 20.515625 19.921875 
L 20.515625 5.171875 
L 28.609375 5.171875 
z
" id="DejaVuSerif-107"/>
      </defs>
      <use xlink:href="#DejaVuSerif-98"/>
      <use x="64.013672" xlink:href="#DejaVuSerif-97"/>
      <use x="123.632812" xlink:href="#DejaVuSerif-99"/>
      <use x="179.638672" xlink:href="#DejaVuSerif-107"/>
     </g>
    </g>
    <g id="patch_9">
     <path d="M 180.734235 26.795565 
L 204.734235 26.795565 
L 204.734235 18.395565 
L 180.734235 18.395565 
z
" style="fill:#afe88e;stroke:#afe88e;stroke-linejoin:miter;"/>
    </g>
    <g id="text_2">
     <!-- front -->
     <g transform="translate(214.334235 26.795565)scale(0.12 -0.12)">
      <defs>
       <path d="M 43.015625 63.71875 
L 38.28125 63.71875 
Q 38.234375 67.390625 36.203125 69.28125 
Q 34.1875 71.1875 30.328125 71.1875 
Q 25.296875 71.1875 23.234375 68.421875 
Q 21.1875 65.671875 21.1875 58.59375 
L 21.1875 51.90625 
L 35.6875 51.90625 
L 35.6875 46.6875 
L 21.1875 46.6875 
L 21.1875 5.171875 
L 32.71875 5.171875 
L 32.71875 0 
L 3.609375 0 
L 3.609375 5.171875 
L 12.203125 5.171875 
L 12.203125 46.6875 
L 3.609375 46.6875 
L 3.609375 51.90625 
L 12.203125 51.90625 
L 12.203125 58.40625 
Q 12.203125 67.09375 16.71875 71.53125 
Q 21.234375 75.984375 29.984375 75.984375 
Q 33.25 75.984375 36.515625 75.390625 
Q 39.796875 74.8125 43.015625 73.578125 
z
" id="DejaVuSerif-102"/>
       <path d="M 47.796875 52 
L 47.796875 39.015625 
L 42.625 39.015625 
Q 42.390625 42.875 40.484375 44.78125 
Q 38.578125 46.6875 34.90625 46.6875 
Q 28.265625 46.6875 24.71875 42.09375 
Q 21.1875 37.5 21.1875 28.90625 
L 21.1875 5.171875 
L 31.59375 5.171875 
L 31.59375 0 
L 4.109375 0 
L 4.109375 5.171875 
L 12.203125 5.171875 
L 12.203125 46.78125 
L 3.609375 46.78125 
L 3.609375 51.90625 
L 21.1875 51.90625 
L 21.1875 42.671875 
Q 23.828125 48.09375 27.96875 50.703125 
Q 32.125 53.328125 38.09375 53.328125 
Q 40.28125 53.328125 42.703125 52.984375 
Q 45.125 52.640625 47.796875 52 
z
" id="DejaVuSerif-114"/>
       <path d="M 30.078125 3.421875 
Q 37.3125 3.421875 40.984375 9.125 
Q 44.671875 14.84375 44.671875 25.984375 
Q 44.671875 37.109375 40.984375 42.796875 
Q 37.3125 48.484375 30.078125 48.484375 
Q 22.859375 48.484375 19.171875 42.796875 
Q 15.484375 37.109375 15.484375 25.984375 
Q 15.484375 14.84375 19.1875 9.125 
Q 22.90625 3.421875 30.078125 3.421875 
z
M 30.078125 -1.421875 
Q 18.75 -1.421875 11.859375 6.078125 
Q 4.984375 13.578125 4.984375 25.984375 
Q 4.984375 38.375 11.84375 45.84375 
Q 18.703125 53.328125 30.078125 53.328125 
Q 41.453125 53.328125 48.3125 45.84375 
Q 55.171875 38.375 55.171875 25.984375 
Q 55.171875 13.578125 48.3125 6.078125 
Q 41.453125 -1.421875 30.078125 -1.421875 
z
" id="DejaVuSerif-111"/>
       <path d="M 4.109375 0 
L 4.109375 5.171875 
L 12.203125 5.171875 
L 12.203125 46.6875 
L 3.609375 46.6875 
L 3.609375 51.90625 
L 21.1875 51.90625 
L 21.1875 42.671875 
Q 23.6875 47.953125 27.65625 50.640625 
Q 31.640625 53.328125 36.921875 53.328125 
Q 45.515625 53.328125 49.5625 48.390625 
Q 53.609375 43.453125 53.609375 33.015625 
L 53.609375 5.171875 
L 61.625 5.171875 
L 61.625 0 
L 36.8125 0 
L 36.8125 5.171875 
L 44.578125 5.171875 
L 44.578125 30.171875 
Q 44.578125 39.703125 42.234375 43.234375 
Q 39.890625 46.78125 33.984375 46.78125 
Q 27.734375 46.78125 24.453125 42.203125 
Q 21.1875 37.640625 21.1875 28.90625 
L 21.1875 5.171875 
L 29 5.171875 
L 29 0 
z
" id="DejaVuSerif-110"/>
       <path d="M 10.796875 46.6875 
L 2.875 46.6875 
L 2.875 51.90625 
L 10.796875 51.90625 
L 10.796875 68.015625 
L 19.828125 68.015625 
L 19.828125 51.90625 
L 36.71875 51.90625 
L 36.71875 46.6875 
L 19.828125 46.6875 
L 19.828125 13.71875 
Q 19.828125 7.125 21.09375 5.265625 
Q 22.359375 3.421875 25.78125 3.421875 
Q 29.296875 3.421875 30.90625 5.484375 
Q 32.515625 7.5625 32.625 12.203125 
L 39.40625 12.203125 
Q 39.015625 5.125 35.546875 1.84375 
Q 32.078125 -1.421875 25 -1.421875 
Q 17.234375 -1.421875 14.015625 2.015625 
Q 10.796875 5.46875 10.796875 13.71875 
z
" id="DejaVuSerif-116"/>
      </defs>
      <use xlink:href="#DejaVuSerif-102"/>
      <use x="37.011719" xlink:href="#DejaVuSerif-114"/>
      <use x="84.814453" xlink:href="#DejaVuSerif-111"/>
      <use x="145.019531" xlink:href="#DejaVuSerif-110"/>
      <use x="209.423828" xlink:href="#DejaVuSerif-116"/>
     </g>
    </g>
   </g>
  </g>
 </g>
 <defs>
  <clipPath id="p039954ddf0">
   <rect height="266.112" width="357.12" x="57.6" y="41.472"/>
  </clipPath>
 </defs>
</svg>
