<?xml version="1.0" encoding="utf-8" standalone="no"?>
<!DOCTYPE svg PUBLIC "-//W3C//DTD SVG 1.1//EN"
  "http://www.w3.org/Graphics/SVG/1.1/DTD/svg11.dtd">
<!-- Created with matplotlib (https://matplotlib.org/) -->
<svg height="345.6pt" version="1.1" viewBox="0 0 460.8 345.6" width="460.8pt" xmlns="http://www.w3.org/2000/svg" xmlns:xlink="http://www.w3.org/1999/xlink">
 <metadata>
  <rdf:RDF xmlns:cc="http://creativecommons.org/ns#" xmlns:dc="http://purl.org/dc/elements/1.1/" xmlns:rdf="http://www.w3.org/1999/02/22-rdf-syntax-ns#">
   <cc:Work>
    <dc:type rdf:resource="http://purl.org/dc/dcmitype/StillImage"/>
    <dc:date>2022-07-18T02:11:39.068337</dc:date>
    <dc:format>image/svg+xml</dc:format>
    <dc:creator>
     <cc:Agent>
      <dc:title>Matplotlib v3.3.4, https://matplotlib.org/</dc:title>
     </cc:Agent>
    </dc:creator>
   </cc:Work>
  </rdf:RDF>
 </metadata>
 <defs>
  <style type="text/css">*{stroke-linecap:butt;stroke-linejoin:round;}</style>
 </defs>
 <g id="figure_1">
  <g id="patch_1">
   <path d="M 0 345.6 
L 460.8 345.6 
L 460.8 0 
L 0 0 
z
" style="fill:#ffffff;"/>
  </g>
  <g id="axes_1">
   <g id="patch_2">
    <path d="M 57.6 307.584 
L 414.72 307.584 
L 414.72 41.472 
L 57.6 41.472 
z
" style="fill:#ffffff;"/>
   </g>
   <g id="matplotlib.axis_1">
    <g id="xtick_1">
     <g id="line2d_1">
      <defs>
       <path d="M 0 0 
L 0 3.5 
" id="m05dc444805" style="stroke:#000000;stroke-width:0.8;"/>
      </defs>
      <g>
       <use style="stroke:#000000;stroke-width:0.8;" x="68.050076" xlink:href="#m05dc444805" y="307.584"/>
      </g>
     </g>
     <g id="text_1">
      <!-- 0 -->
      <g transform="translate(64.868826 322.182437)scale(0.1 -0.1)">
       <defs>
        <path d="M 31.78125 3.421875 
Q 39.265625 3.421875 42.96875 11.625 
Q 46.6875 19.828125 46.6875 36.375 
Q 46.6875 52.984375 42.96875 61.1875 
Q 39.265625 69.390625 31.78125 69.390625 
Q 24.3125 69.390625 20.59375 61.1875 
Q 16.890625 52.984375 16.890625 36.375 
Q 16.890625 19.828125 20.59375 11.625 
Q 24.3125 3.421875 31.78125 3.421875 
z
M 31.78125 -1.421875 
Q 19.921875 -1.421875 13.25 8.53125 
Q 6.59375 18.5 6.59375 36.375 
Q 6.59375 54.296875 13.25 64.25 
Q 19.921875 74.21875 31.78125 74.21875 
Q 43.703125 74.21875 50.34375 64.25 
Q 56.984375 54.296875 56.984375 36.375 
Q 56.984375 18.5 50.34375 8.53125 
Q 43.703125 -1.421875 31.78125 -1.421875 
z
" id="DejaVuSerif-48"/>
       </defs>
       <use xlink:href="#DejaVuSerif-48"/>
      </g>
     </g>
    </g>
    <g id="xtick_2">
     <g id="line2d_2">
      <g>
       <use style="stroke:#000000;stroke-width:0.8;" x="109.354726" xlink:href="#m05dc444805" y="307.584"/>
      </g>
     </g>
     <g id="text_2">
      <!-- 25 -->
      <g transform="translate(102.992226 322.182437)scale(0.1 -0.1)">
       <defs>
        <path d="M 12.796875 55.515625 
L 7.328125 55.515625 
L 7.328125 68.5 
Q 12.546875 71.296875 17.84375 72.75 
Q 23.140625 74.21875 28.21875 74.21875 
Q 39.59375 74.21875 46.1875 68.703125 
Q 52.78125 63.1875 52.78125 53.71875 
Q 52.78125 43.015625 37.84375 28.125 
Q 36.671875 27 36.078125 26.421875 
L 17.671875 8.015625 
L 48.09375 8.015625 
L 48.09375 17 
L 53.8125 17 
L 53.8125 0 
L 6.78125 0 
L 6.78125 5.328125 
L 28.90625 27.390625 
Q 36.234375 34.71875 39.359375 40.84375 
Q 42.484375 46.96875 42.484375 53.71875 
Q 42.484375 61.078125 38.640625 65.234375 
Q 34.8125 69.390625 28.078125 69.390625 
Q 21.09375 69.390625 17.28125 65.921875 
Q 13.484375 62.453125 12.796875 55.515625 
z
" id="DejaVuSerif-50"/>
        <path d="M 50.296875 72.90625 
L 50.296875 64.890625 
L 16.890625 64.890625 
L 16.890625 44 
Q 19.4375 45.75 22.828125 46.625 
Q 26.21875 47.515625 30.421875 47.515625 
Q 42.234375 47.515625 49.0625 40.96875 
Q 55.90625 34.421875 55.90625 23.09375 
Q 55.90625 11.53125 49 5.046875 
Q 42.09375 -1.421875 29.59375 -1.421875 
Q 24.5625 -1.421875 19.28125 -0.1875 
Q 14.015625 1.03125 8.5 3.515625 
L 8.5 17.671875 
L 14.015625 17.671875 
Q 14.453125 10.75 18.421875 7.078125 
Q 22.40625 3.421875 29.59375 3.421875 
Q 37.3125 3.421875 41.453125 8.5 
Q 45.609375 13.578125 45.609375 23.09375 
Q 45.609375 32.5625 41.484375 37.609375 
Q 37.359375 42.671875 29.59375 42.671875 
Q 25.203125 42.671875 21.84375 41.109375 
Q 18.5 39.546875 15.921875 36.28125 
L 11.71875 36.28125 
L 11.71875 72.90625 
z
" id="DejaVuSerif-53"/>
       </defs>
       <use xlink:href="#DejaVuSerif-50"/>
       <use x="63.623047" xlink:href="#DejaVuSerif-53"/>
      </g>
     </g>
    </g>
    <g id="xtick_3">
     <g id="line2d_3">
      <g>
       <use style="stroke:#000000;stroke-width:0.8;" x="150.659375" xlink:href="#m05dc444805" y="307.584"/>
      </g>
     </g>
     <g id="text_3">
      <!-- 50 -->
      <g transform="translate(144.296875 322.182437)scale(0.1 -0.1)">
       <use xlink:href="#DejaVuSerif-53"/>
       <use x="63.623047" xlink:href="#DejaVuSerif-48"/>
      </g>
     </g>
    </g>
    <g id="xtick_4">
     <g id="line2d_4">
      <g>
       <use style="stroke:#000000;stroke-width:0.8;" x="191.964025" xlink:href="#m05dc444805" y="307.584"/>
      </g>
     </g>
     <g id="text_4">
      <!-- 75 -->
      <g transform="translate(185.601525 322.182437)scale(0.1 -0.1)">
       <defs>
        <path d="M 56.390625 67.921875 
L 27.875 0 
L 20.609375 0 
L 47.796875 64.890625 
L 14.109375 64.890625 
L 14.109375 55.90625 
L 8.40625 55.90625 
L 8.40625 72.90625 
L 56.390625 72.90625 
z
" id="DejaVuSerif-55"/>
       </defs>
       <use xlink:href="#DejaVuSerif-55"/>
       <use x="63.623047" xlink:href="#DejaVuSerif-53"/>
      </g>
     </g>
    </g>
    <g id="xtick_5">
     <g id="line2d_5">
      <g>
       <use style="stroke:#000000;stroke-width:0.8;" x="233.268675" xlink:href="#m05dc444805" y="307.584"/>
      </g>
     </g>
     <g id="text_5">
      <!-- 100 -->
      <g transform="translate(223.724925 322.182437)scale(0.1 -0.1)">
       <defs>
        <path d="M 14.203125 0 
L 14.203125 5.171875 
L 26.90625 5.171875 
L 26.90625 65.828125 
L 12.203125 56.296875 
L 12.203125 62.703125 
L 29.984375 74.21875 
L 36.71875 74.21875 
L 36.71875 5.171875 
L 49.421875 5.171875 
L 49.421875 0 
z
" id="DejaVuSerif-49"/>
       </defs>
       <use xlink:href="#DejaVuSerif-49"/>
       <use x="63.623047" xlink:href="#DejaVuSerif-48"/>
       <use x="127.246094" xlink:href="#DejaVuSerif-48"/>
      </g>
     </g>
    </g>
    <g id="xtick_6">
     <g id="line2d_6">
      <g>
       <use style="stroke:#000000;stroke-width:0.8;" x="274.573324" xlink:href="#m05dc444805" y="307.584"/>
      </g>
     </g>
     <g id="text_6">
      <!-- 125 -->
      <g transform="translate(265.029574 322.182437)scale(0.1 -0.1)">
       <use xlink:href="#DejaVuSerif-49"/>
       <use x="63.623047" xlink:href="#DejaVuSerif-50"/>
       <use x="127.246094" xlink:href="#DejaVuSerif-53"/>
      </g>
     </g>
    </g>
    <g id="xtick_7">
     <g id="line2d_7">
      <g>
       <use style="stroke:#000000;stroke-width:0.8;" x="315.877974" xlink:href="#m05dc444805" y="307.584"/>
      </g>
     </g>
     <g id="text_7">
      <!-- 150 -->
      <g transform="translate(306.334224 322.182437)scale(0.1 -0.1)">
       <use xlink:href="#DejaVuSerif-49"/>
       <use x="63.623047" xlink:href="#DejaVuSerif-53"/>
       <use x="127.246094" xlink:href="#DejaVuSerif-48"/>
      </g>
     </g>
    </g>
    <g id="xtick_8">
     <g id="line2d_8">
      <g>
       <use style="stroke:#000000;stroke-width:0.8;" x="357.182623" xlink:href="#m05dc444805" y="307.584"/>
      </g>
     </g>
     <g id="text_8">
      <!-- 175 -->
      <g transform="translate(347.638873 322.182437)scale(0.1 -0.1)">
       <use xlink:href="#DejaVuSerif-49"/>
       <use x="63.623047" xlink:href="#DejaVuSerif-55"/>
       <use x="127.246094" xlink:href="#DejaVuSerif-53"/>
      </g>
     </g>
    </g>
    <g id="xtick_9">
     <g id="line2d_9">
      <g>
       <use style="stroke:#000000;stroke-width:0.8;" x="398.487273" xlink:href="#m05dc444805" y="307.584"/>
      </g>
     </g>
     <g id="text_9">
      <!-- 200 -->
      <g transform="translate(388.943523 322.182437)scale(0.1 -0.1)">
       <use xlink:href="#DejaVuSerif-50"/>
       <use x="63.623047" xlink:href="#DejaVuSerif-48"/>
       <use x="127.246094" xlink:href="#DejaVuSerif-48"/>
      </g>
     </g>
    </g>
    <g id="text_10">
     <!-- Time -->
     <g transform="translate(223.524844 335.860562)scale(0.1 -0.1)">
      <defs>
       <path d="M 19.09375 0 
L 19.09375 5.171875 
L 28.421875 5.171875 
L 28.421875 67.09375 
L 6.984375 67.09375 
L 6.984375 55.71875 
L 0.984375 55.71875 
L 0.984375 72.90625 
L 65.71875 72.90625 
L 65.71875 55.71875 
L 59.71875 55.71875 
L 59.71875 67.09375 
L 38.28125 67.09375 
L 38.28125 5.171875 
L 47.609375 5.171875 
L 47.609375 0 
z
" id="DejaVuSerif-84"/>
       <path d="M 9.71875 68.015625 
Q 9.71875 70.265625 11.34375 71.921875 
Q 12.984375 73.578125 15.28125 73.578125 
Q 17.53125 73.578125 19.15625 71.921875 
Q 20.796875 70.265625 20.796875 68.015625 
Q 20.796875 65.71875 19.1875 64.109375 
Q 17.578125 62.5 15.28125 62.5 
Q 12.984375 62.5 11.34375 64.109375 
Q 9.71875 65.71875 9.71875 68.015625 
z
M 21.1875 5.171875 
L 29.6875 5.171875 
L 29.6875 0 
L 3.609375 0 
L 3.609375 5.171875 
L 12.203125 5.171875 
L 12.203125 46.6875 
L 3.609375 46.6875 
L 3.609375 51.90625 
L 21.1875 51.90625 
z
" id="DejaVuSerif-105"/>
       <path d="M 51.8125 41.796875 
Q 54.390625 47.515625 58.421875 50.421875 
Q 62.453125 53.328125 67.828125 53.328125 
Q 75.984375 53.328125 79.984375 48.265625 
Q 83.984375 43.21875 83.984375 33.015625 
L 83.984375 5.171875 
L 92.09375 5.171875 
L 92.09375 0 
L 67.1875 0 
L 67.1875 5.171875 
L 75 5.171875 
L 75 31.984375 
Q 75 39.9375 72.65625 43.3125 
Q 70.3125 46.6875 64.890625 46.6875 
Q 58.890625 46.6875 55.734375 42.140625 
Q 52.59375 37.59375 52.59375 28.90625 
L 52.59375 5.171875 
L 60.40625 5.171875 
L 60.40625 0 
L 35.796875 0 
L 35.796875 5.171875 
L 43.609375 5.171875 
L 43.609375 32.328125 
Q 43.609375 40.09375 41.265625 43.390625 
Q 38.921875 46.6875 33.5 46.6875 
Q 27.484375 46.6875 24.328125 42.140625 
Q 21.1875 37.59375 21.1875 28.90625 
L 21.1875 5.171875 
L 29 5.171875 
L 29 0 
L 4.109375 0 
L 4.109375 5.171875 
L 12.203125 5.171875 
L 12.203125 46.78125 
L 3.609375 46.78125 
L 3.609375 51.90625 
L 21.1875 51.90625 
L 21.1875 42.671875 
Q 23.6875 47.859375 27.53125 50.59375 
Q 31.390625 53.328125 36.28125 53.328125 
Q 42.328125 53.328125 46.375 50.3125 
Q 50.4375 47.3125 51.8125 41.796875 
z
" id="DejaVuSerif-109"/>
       <path d="M 54.203125 25 
L 15.484375 25 
L 15.484375 24.609375 
Q 15.484375 14.109375 19.4375 8.765625 
Q 23.390625 3.421875 31.109375 3.421875 
Q 37.015625 3.421875 40.796875 6.515625 
Q 44.578125 9.625 46.09375 15.71875 
L 53.328125 15.71875 
Q 51.171875 7.171875 45.375 2.875 
Q 39.59375 -1.421875 30.171875 -1.421875 
Q 18.796875 -1.421875 11.890625 6.078125 
Q 4.984375 13.578125 4.984375 25.984375 
Q 4.984375 38.28125 11.765625 45.796875 
Q 18.5625 53.328125 29.59375 53.328125 
Q 41.359375 53.328125 47.65625 46.0625 
Q 53.953125 38.8125 54.203125 25 
z
M 43.609375 30.171875 
Q 43.3125 39.265625 39.765625 43.875 
Q 36.234375 48.484375 29.59375 48.484375 
Q 23.390625 48.484375 19.828125 43.84375 
Q 16.265625 39.203125 15.484375 30.171875 
z
" id="DejaVuSerif-101"/>
      </defs>
      <use xlink:href="#DejaVuSerif-84"/>
      <use x="66.699219" xlink:href="#DejaVuSerif-105"/>
      <use x="98.681641" xlink:href="#DejaVuSerif-109"/>
      <use x="193.505859" xlink:href="#DejaVuSerif-101"/>
     </g>
    </g>
   </g>
   <g id="matplotlib.axis_2">
    <g id="ytick_1">
     <g id="line2d_10">
      <defs>
       <path d="M 0 0 
L -3.5 0 
" id="m2800629c8d" style="stroke:#000000;stroke-width:0.8;"/>
      </defs>
      <g>
       <use style="stroke:#000000;stroke-width:0.8;" x="57.6" xlink:href="#m2800629c8d" y="279.36"/>
      </g>
     </g>
     <g id="text_11">
      <!-- −1.4 -->
      <g transform="translate(26.317187 283.159219)scale(0.1 -0.1)">
       <defs>
        <path d="M 10.59375 35.296875 
L 73.1875 35.296875 
L 73.1875 27.390625 
L 10.59375 27.390625 
z
" id="DejaVuSerif-8722"/>
        <path d="M 9.421875 5.078125 
Q 9.421875 7.8125 11.28125 9.71875 
Q 13.140625 11.625 15.921875 11.625 
Q 18.609375 11.625 20.5 9.71875 
Q 22.40625 7.8125 22.40625 5.078125 
Q 22.40625 2.390625 20.5 0.484375 
Q 18.609375 -1.421875 15.921875 -1.421875 
Q 13.140625 -1.421875 11.28125 0.453125 
Q 9.421875 2.34375 9.421875 5.078125 
z
" id="DejaVuSerif-46"/>
        <path d="M 34.90625 24.703125 
L 34.90625 63.484375 
L 10.015625 24.703125 
z
M 56.390625 0 
L 23.1875 0 
L 23.1875 5.171875 
L 34.90625 5.171875 
L 34.90625 19.484375 
L 3.078125 19.484375 
L 3.078125 24.8125 
L 35.015625 74.21875 
L 44.671875 74.21875 
L 44.671875 24.703125 
L 58.59375 24.703125 
L 58.59375 19.484375 
L 44.671875 19.484375 
L 44.671875 5.171875 
L 56.390625 5.171875 
z
" id="DejaVuSerif-52"/>
       </defs>
       <use xlink:href="#DejaVuSerif-8722"/>
       <use x="83.789062" xlink:href="#DejaVuSerif-49"/>
       <use x="147.412109" xlink:href="#DejaVuSerif-46"/>
       <use x="179.199219" xlink:href="#DejaVuSerif-52"/>
      </g>
     </g>
    </g>
    <g id="ytick_2">
     <g id="line2d_11">
      <g>
       <use style="stroke:#000000;stroke-width:0.8;" x="57.6" xlink:href="#m2800629c8d" y="247.104"/>
      </g>
     </g>
     <g id="text_12">
      <!-- −1.2 -->
      <g transform="translate(26.317187 250.903219)scale(0.1 -0.1)">
       <use xlink:href="#DejaVuSerif-8722"/>
       <use x="83.789062" xlink:href="#DejaVuSerif-49"/>
       <use x="147.412109" xlink:href="#DejaVuSerif-46"/>
       <use x="179.199219" xlink:href="#DejaVuSerif-50"/>
      </g>
     </g>
    </g>
    <g id="ytick_3">
     <g id="line2d_12">
      <g>
       <use style="stroke:#000000;stroke-width:0.8;" x="57.6" xlink:href="#m2800629c8d" y="214.848"/>
      </g>
     </g>
     <g id="text_13">
      <!-- −1.0 -->
      <g transform="translate(26.317187 218.647219)scale(0.1 -0.1)">
       <use xlink:href="#DejaVuSerif-8722"/>
       <use x="83.789062" xlink:href="#DejaVuSerif-49"/>
       <use x="147.412109" xlink:href="#DejaVuSerif-46"/>
       <use x="179.199219" xlink:href="#DejaVuSerif-48"/>
      </g>
     </g>
    </g>
    <g id="ytick_4">
     <g id="line2d_13">
      <g>
       <use style="stroke:#000000;stroke-width:0.8;" x="57.6" xlink:href="#m2800629c8d" y="182.592"/>
      </g>
     </g>
     <g id="text_14">
      <!-- −0.8 -->
      <g transform="translate(26.317187 186.391219)scale(0.1 -0.1)">
       <defs>
        <path d="M 46.578125 19.921875 
Q 46.578125 27.734375 42.6875 32.046875 
Q 38.8125 36.375 31.78125 36.375 
Q 24.75 36.375 20.875 32.046875 
Q 17 27.734375 17 19.921875 
Q 17 12.0625 20.875 7.734375 
Q 24.75 3.421875 31.78125 3.421875 
Q 38.8125 3.421875 42.6875 7.734375 
Q 46.578125 12.0625 46.578125 19.921875 
z
M 44.578125 55.328125 
Q 44.578125 61.96875 41.203125 65.671875 
Q 37.84375 69.390625 31.78125 69.390625 
Q 25.78125 69.390625 22.390625 65.671875 
Q 19 61.96875 19 55.328125 
Q 19 48.640625 22.390625 44.921875 
Q 25.78125 41.21875 31.78125 41.21875 
Q 37.84375 41.21875 41.203125 44.921875 
Q 44.578125 48.640625 44.578125 55.328125 
z
M 39.3125 38.8125 
Q 47.609375 37.703125 52.25 32.6875 
Q 56.890625 27.6875 56.890625 19.921875 
Q 56.890625 9.671875 50.390625 4.125 
Q 43.890625 -1.421875 31.78125 -1.421875 
Q 19.734375 -1.421875 13.203125 4.125 
Q 6.6875 9.671875 6.6875 19.921875 
Q 6.6875 27.6875 11.328125 32.6875 
Q 15.96875 37.703125 24.3125 38.8125 
Q 16.9375 40.140625 13 44.40625 
Q 9.078125 48.6875 9.078125 55.328125 
Q 9.078125 64.109375 15.125 69.15625 
Q 21.1875 74.21875 31.78125 74.21875 
Q 42.390625 74.21875 48.4375 69.15625 
Q 54.5 64.109375 54.5 55.328125 
Q 54.5 48.6875 50.5625 44.40625 
Q 46.625 40.140625 39.3125 38.8125 
z
" id="DejaVuSerif-56"/>
       </defs>
       <use xlink:href="#DejaVuSerif-8722"/>
       <use x="83.789062" xlink:href="#DejaVuSerif-48"/>
       <use x="147.412109" xlink:href="#DejaVuSerif-46"/>
       <use x="179.199219" xlink:href="#DejaVuSerif-56"/>
      </g>
     </g>
    </g>
    <g id="ytick_5">
     <g id="line2d_14">
      <g>
       <use style="stroke:#000000;stroke-width:0.8;" x="57.6" xlink:href="#m2800629c8d" y="150.336"/>
      </g>
     </g>
     <g id="text_15">
      <!-- −0.6 -->
      <g transform="translate(26.317187 154.135219)scale(0.1 -0.1)">
       <defs>
        <path d="M 32.71875 3.421875 
Q 39.59375 3.421875 43.296875 8.46875 
Q 47.015625 13.53125 47.015625 23 
Q 47.015625 32.46875 43.296875 37.515625 
Q 39.59375 42.578125 32.71875 42.578125 
Q 25.734375 42.578125 22.0625 37.6875 
Q 18.40625 32.8125 18.40625 23.578125 
Q 18.40625 13.875 22.109375 8.640625 
Q 25.828125 3.421875 32.71875 3.421875 
z
M 16.796875 40.140625 
Q 20.125 43.796875 24.3125 45.59375 
Q 28.515625 47.40625 33.796875 47.40625 
Q 44.671875 47.40625 51 40.859375 
Q 57.328125 34.328125 57.328125 23 
Q 57.328125 11.921875 50.515625 5.25 
Q 43.703125 -1.421875 32.328125 -1.421875 
Q 19.96875 -1.421875 13.328125 7.78125 
Q 6.6875 17 6.6875 34.078125 
Q 6.6875 53.21875 14.546875 63.71875 
Q 22.40625 74.21875 36.71875 74.21875 
Q 40.578125 74.21875 44.828125 73.484375 
Q 49.078125 72.75 53.515625 71.296875 
L 53.515625 59.28125 
L 48 59.28125 
Q 47.40625 64.203125 44.234375 66.796875 
Q 41.0625 69.390625 35.6875 69.390625 
Q 26.21875 69.390625 21.578125 62.203125 
Q 16.9375 55.03125 16.796875 40.140625 
z
" id="DejaVuSerif-54"/>
       </defs>
       <use xlink:href="#DejaVuSerif-8722"/>
       <use x="83.789062" xlink:href="#DejaVuSerif-48"/>
       <use x="147.412109" xlink:href="#DejaVuSerif-46"/>
       <use x="179.199219" xlink:href="#DejaVuSerif-54"/>
      </g>
     </g>
    </g>
    <g id="ytick_6">
     <g id="line2d_15">
      <g>
       <use style="stroke:#000000;stroke-width:0.8;" x="57.6" xlink:href="#m2800629c8d" y="118.08"/>
      </g>
     </g>
     <g id="text_16">
      <!-- −0.4 -->
      <g transform="translate(26.317187 121.879219)scale(0.1 -0.1)">
       <use xlink:href="#DejaVuSerif-8722"/>
       <use x="83.789062" xlink:href="#DejaVuSerif-48"/>
       <use x="147.412109" xlink:href="#DejaVuSerif-46"/>
       <use x="179.199219" xlink:href="#DejaVuSerif-52"/>
      </g>
     </g>
    </g>
    <g id="ytick_7">
     <g id="line2d_16">
      <g>
       <use style="stroke:#000000;stroke-width:0.8;" x="57.6" xlink:href="#m2800629c8d" y="85.824"/>
      </g>
     </g>
     <g id="text_17">
      <!-- −0.2 -->
      <g transform="translate(26.317187 89.623219)scale(0.1 -0.1)">
       <use xlink:href="#DejaVuSerif-8722"/>
       <use x="83.789062" xlink:href="#DejaVuSerif-48"/>
       <use x="147.412109" xlink:href="#DejaVuSerif-46"/>
       <use x="179.199219" xlink:href="#DejaVuSerif-50"/>
      </g>
     </g>
    </g>
    <g id="ytick_8">
     <g id="line2d_17">
      <g>
       <use style="stroke:#000000;stroke-width:0.8;" x="57.6" xlink:href="#m2800629c8d" y="53.568"/>
      </g>
     </g>
     <g id="text_18">
      <!-- 0.0 -->
      <g transform="translate(34.696875 57.367219)scale(0.1 -0.1)">
       <use xlink:href="#DejaVuSerif-48"/>
       <use x="63.623047" xlink:href="#DejaVuSerif-46"/>
       <use x="95.410156" xlink:href="#DejaVuSerif-48"/>
      </g>
     </g>
    </g>
    <g id="text_19">
     <!-- Speed -->
     <g transform="translate(20.2375 190.273313)rotate(-90)scale(0.1 -0.1)">
      <defs>
       <path d="M 9.28125 3.515625 
L 9.28125 20.125 
L 14.890625 20.0625 
Q 15.140625 11.765625 19.703125 7.78125 
Q 24.265625 3.8125 33.59375 3.8125 
Q 42.28125 3.8125 46.84375 7.25 
Q 51.421875 10.6875 51.421875 17.28125 
Q 51.421875 22.5625 48.65625 25.390625 
Q 45.90625 28.21875 37.015625 30.90625 
L 27.390625 33.796875 
Q 16.9375 36.96875 12.671875 41.703125 
Q 8.40625 46.4375 8.40625 54.6875 
Q 8.40625 63.96875 14.984375 69.09375 
Q 21.578125 74.21875 33.5 74.21875 
Q 38.578125 74.21875 44.625 73.109375 
Q 50.6875 72.015625 57.515625 69.921875 
L 57.515625 54.390625 
L 52 54.390625 
Q 51.171875 62.109375 46.84375 65.546875 
Q 42.53125 69 33.6875 69 
Q 25.984375 69 21.953125 65.84375 
Q 17.921875 62.703125 17.921875 56.6875 
Q 17.921875 51.46875 20.9375 48.484375 
Q 23.96875 45.515625 33.796875 42.578125 
L 42.828125 39.890625 
Q 52.734375 36.921875 56.953125 32.296875 
Q 61.1875 27.6875 61.1875 19.921875 
Q 61.1875 9.328125 54.390625 3.953125 
Q 47.609375 -1.421875 34.1875 -1.421875 
Q 28.171875 -1.421875 21.9375 -0.1875 
Q 15.71875 1.03125 9.28125 3.515625 
z
" id="DejaVuSerif-83"/>
       <path d="M 20.515625 28.515625 
L 20.515625 23.390625 
Q 20.515625 14.015625 24.09375 9.109375 
Q 27.6875 4.203125 34.515625 4.203125 
Q 41.40625 4.203125 44.9375 9.71875 
Q 48.484375 15.234375 48.484375 25.984375 
Q 48.484375 36.765625 44.9375 42.234375 
Q 41.40625 47.703125 34.515625 47.703125 
Q 27.6875 47.703125 24.09375 42.765625 
Q 20.515625 37.84375 20.515625 28.515625 
z
M 11.53125 46.6875 
L 2.875 46.6875 
L 2.875 51.90625 
L 20.515625 51.90625 
L 20.515625 43.796875 
Q 23.140625 48.6875 27.21875 51 
Q 31.296875 53.328125 37.3125 53.328125 
Q 46.875 53.328125 52.921875 45.75 
Q 58.984375 38.1875 58.984375 25.984375 
Q 58.984375 13.765625 52.921875 6.171875 
Q 46.875 -1.421875 37.3125 -1.421875 
Q 31.296875 -1.421875 27.21875 0.890625 
Q 23.140625 3.21875 20.515625 8.109375 
L 20.515625 -15.578125 
L 29 -15.578125 
L 29 -20.796875 
L 2.875 -20.796875 
L 2.875 -15.578125 
L 11.53125 -15.578125 
z
" id="DejaVuSerif-112"/>
       <path d="M 52.484375 5.171875 
L 61.078125 5.171875 
L 61.078125 0 
L 43.5 0 
L 43.5 8.109375 
Q 40.875 3.21875 36.796875 0.890625 
Q 32.71875 -1.421875 26.703125 -1.421875 
Q 17.140625 -1.421875 11.0625 6.171875 
Q 4.984375 13.765625 4.984375 25.984375 
Q 4.984375 38.1875 11.03125 45.75 
Q 17.09375 53.328125 26.703125 53.328125 
Q 32.71875 53.328125 36.796875 51 
Q 40.875 48.6875 43.5 43.796875 
L 43.5 70.796875 
L 35.015625 70.796875 
L 35.015625 75.984375 
L 52.484375 75.984375 
z
M 43.5 23.390625 
L 43.5 28.515625 
Q 43.5 37.84375 39.90625 42.765625 
Q 36.328125 47.703125 29.5 47.703125 
Q 22.5625 47.703125 19.015625 42.234375 
Q 15.484375 36.765625 15.484375 25.984375 
Q 15.484375 15.234375 19.015625 9.71875 
Q 22.5625 4.203125 29.5 4.203125 
Q 36.328125 4.203125 39.90625 9.109375 
Q 43.5 14.015625 43.5 23.390625 
z
" id="DejaVuSerif-100"/>
      </defs>
      <use xlink:href="#DejaVuSerif-83"/>
      <use x="68.505859" xlink:href="#DejaVuSerif-112"/>
      <use x="132.519531" xlink:href="#DejaVuSerif-101"/>
      <use x="191.699219" xlink:href="#DejaVuSerif-101"/>
      <use x="250.878906" xlink:href="#DejaVuSerif-100"/>
     </g>
    </g>
   </g>
   <g id="line2d_18">
    <path clip-path="url(#p907aaa8ee9)" d="M 73.832727 295.488 
L 74.377949 295.488 
L 74.65882 53.568 
L 76.030135 53.568 
L 76.311006 247.104 
L 76.591878 214.848 
L 77.682321 214.848 
L 77.963192 191.808 
L 78.244064 53.568 
L 79.070157 53.568 
L 79.334507 174.528 
L 80.441471 174.528 
L 80.722343 161.088 
L 81.548436 161.088 
L 81.812786 53.568 
L 82.093657 150.336 
L 83.200622 150.336 
L 83.464972 141.538909 
L 84.571936 141.538909 
L 84.852808 134.208 
L 85.117158 214.848 
L 85.398029 134.208 
L 85.943251 134.208 
L 86.224122 128.004923 
L 87.331087 128.004923 
L 87.595437 122.688 
L 87.876308 191.808 
L 88.702401 191.808 
L 88.983273 182.592 
L 89.247622 118.08 
L 90.073715 118.08 
L 90.354587 114.048 
L 90.635459 114.048 
L 90.899808 174.528 
L 91.461552 174.528 
L 91.725901 167.412706 
L 92.287645 167.412706 
L 92.551994 110.490353 
L 92.832866 110.490353 
L 93.113738 107.328 
L 93.378087 107.328 
L 93.658959 161.088 
L 94.20418 161.088 
L 94.485052 155.429053 
L 95.592017 155.429053 
L 95.856366 150.336 
L 96.137238 150.336 
L 96.41811 101.952 
L 96.682459 150.336 
L 96.963331 150.336 
L 97.244203 145.728 
L 98.334645 145.728 
L 98.615517 141.538909 
L 99.160738 141.538909 
L 99.44161 185.524364 
L 99.722482 141.538909 
L 99.986831 137.714087 
L 101.093796 137.714087 
L 101.374668 134.208 
L 102.200761 134.208 
L 102.46511 174.528 
L 102.745982 169.6896 
L 103.291203 169.6896 
L 103.572075 130.9824 
L 103.852947 130.9824 
L 104.117296 128.004923 
L 105.224261 128.004923 
L 105.505133 161.088 
L 106.595575 161.088 
L 106.876447 157.248 
L 107.157319 122.688 
L 107.983412 122.688 
L 108.247761 153.672828 
L 109.354726 153.672828 
L 109.635598 150.336 
L 110.46169 150.336 
L 110.72604 118.08 
L 111.006912 115.998968 
L 111.287783 147.214452 
L 112.113876 147.214452 
L 112.378226 144.288 
L 113.485191 144.288 
L 113.766062 141.538909 
L 114.030412 170.862545 
L 114.311284 170.862545 
L 114.592155 141.538909 
L 114.856505 141.538909 
L 115.137377 138.951529 
L 116.244341 138.951529 
L 116.508691 136.512 
L 116.789563 136.512 
L 117.070434 164.16 
L 117.615656 164.16 
L 117.896527 161.088 
L 118.160877 134.208 
L 118.98697 134.208 
L 119.267842 132.028541 
L 119.548713 132.028541 
L 119.813063 158.182054 
L 120.374806 158.182054 
L 120.639156 155.429053 
L 121.465249 155.429053 
L 121.746121 129.963789 
L 122.026992 128.004923 
L 122.572214 128.004923 
L 122.853085 152.817231 
L 123.117435 152.817231 
L 123.398307 150.336 
L 124.505271 150.336 
L 124.769621 147.975805 
L 125.050493 147.975805 
L 125.331364 124.373854 
L 125.595714 147.975805 
L 125.876586 147.975805 
L 126.157457 145.728 
L 127.2479 145.728 
L 127.528772 143.584744 
L 128.354865 143.584744 
L 128.635736 166.08893 
L 128.900086 163.531636 
L 129.180958 141.538909 
L 130.007051 141.538909 
L 130.287922 139.584 
L 131.114015 139.584 
L 131.378365 161.088 
L 131.659237 158.750609 
L 132.204458 158.750609 
L 132.48533 137.714087 
L 132.766201 137.714087 
L 133.030551 135.923745 
L 134.137516 135.923745 
L 134.418387 154.368 
L 135.50883 154.368 
L 135.789702 152.310857 
L 136.070573 152.310857 
L 136.334923 132.562286 
L 136.896666 132.562286 
L 137.161016 150.336 
L 138.267981 150.336 
L 138.548852 148.438588 
L 139.374945 148.438588 
L 139.639295 129.464471 
L 139.920167 128.004923 
L 140.201038 146.614154 
L 141.027131 146.614154 
L 141.291481 144.858566 
L 142.398446 144.858566 
L 142.679317 143.168 
L 142.943667 143.168 
L 143.224539 161.088 
L 143.50541 143.168 
L 143.76976 143.168 
L 144.050632 141.538909 
L 145.157596 141.538909 
L 145.421946 139.968 
L 145.702817 139.968 
L 145.983689 157.248 
L 146.52891 157.248 
L 146.809782 155.429053 
L 147.074132 138.452211 
L 147.900225 138.452211 
L 148.181096 136.98869 
L 148.726318 136.98869 
L 149.007189 153.672828 
L 149.288061 153.672828 
L 149.552411 151.976136 
L 150.378504 151.976136 
L 150.659375 135.57478 
L 150.940247 134.208 
L 151.485468 134.208 
L 151.76634 150.336 
L 152.03069 150.336 
L 152.311561 148.749639 
L 153.418526 148.749639 
L 153.682876 147.214452 
L 153.963747 147.214452 
L 154.244619 131.60671 
L 154.508969 131.60671 
L 154.78984 147.214452 
L 155.070712 145.728 
L 156.161155 145.728 
L 156.442026 144.288 
L 157.268119 144.288 
L 157.548991 159.408 
L 157.813341 157.779692 
L 158.094212 142.892308 
L 158.920305 142.892308 
L 159.201177 141.538909 
L 160.29162 141.538909 
L 160.572491 154.668896 
L 161.398584 154.668896 
L 161.679456 140.22591 
L 161.943806 138.951529 
L 163.05077 138.951529 
L 163.331642 151.738435 
L 164.422085 151.738435 
L 164.702956 150.336 
L 164.983828 150.336 
L 165.248178 136.512 
L 165.809921 136.512 
L 166.074271 135.343775 
L 166.355142 148.97307 
L 167.181235 148.97307 
L 167.462107 147.648 
L 168.55255 147.648 
L 168.833421 146.359233 
L 169.940386 146.359233 
L 170.204736 145.105297 
L 171.3117 145.105297 
L 171.592572 143.8848 
L 171.856922 143.8848 
L 172.137793 156.7872 
L 172.418665 143.8848 
L 172.683015 143.8848 
L 172.963886 142.696421 
L 174.070851 142.696421 
L 174.335201 141.538909 
L 174.896944 141.538909 
L 175.161294 154.106182 
L 175.442165 154.106182 
L 175.723037 152.817231 
L 175.987387 152.817231 
L 176.268258 140.411077 
L 176.81348 140.411077 
L 177.094351 139.311797 
L 177.639573 139.311797 
L 177.920444 151.560911 
L 178.201316 151.560911 
L 178.465666 150.336 
L 179.291759 150.336 
L 179.57263 138.24 
L 179.853502 137.194667 
L 180.679595 137.194667 
L 180.943944 149.141333 
L 181.224816 147.975805 
L 182.331781 147.975805 
L 182.59613 146.838361 
L 183.157874 146.838361 
L 183.422223 135.179566 
L 183.703095 146.838361 
L 183.983967 145.728 
L 185.074409 145.728 
L 185.355281 144.643765 
L 186.462246 144.643765 
L 186.726595 154.836837 
L 187.007467 143.584744 
L 187.83356 143.584744 
L 188.114432 142.550069 
L 189.204874 142.550069 
L 189.485746 152.535273 
L 190.311839 152.535273 
L 190.592711 141.538909 
L 190.85706 140.550472 
L 191.964025 140.550472 
L 192.244897 139.584 
L 192.509246 150.336 
L 193.335339 150.336 
L 193.616211 149.272615 
L 193.897083 149.272615 
L 194.161432 138.638769 
L 194.723176 138.638769 
L 194.987525 137.714087 
L 195.268397 148.232348 
L 196.09449 148.232348 
L 196.375362 147.214452 
L 197.465804 147.214452 
L 197.746676 146.218213 
L 198.027548 135.923745 
L 198.291897 146.218213 
L 198.853641 146.218213 
L 199.11799 145.242947 
L 200.224955 145.242947 
L 200.505827 144.288 
L 200.770176 144.288 
L 201.051048 154.368 
L 201.33192 154.368 
L 201.596269 144.288 
L 201.877141 143.352742 
L 202.984105 143.352742 
L 203.248455 142.436571 
L 203.810198 142.436571 
L 204.074548 152.310857 
L 204.35542 152.310857 
L 204.636291 151.313455 
L 204.900641 151.313455 
L 205.181513 141.538909 
L 205.726734 141.538909 
L 206.007606 140.6592 
L 206.833699 140.6592 
L 207.11457 150.336 
L 207.37892 149.377901 
L 208.485885 149.377901 
L 208.766756 148.438588 
L 209.031106 138.951529 
L 209.592849 138.951529 
L 209.857199 148.438588 
L 210.138071 147.517515 
L 211.245035 147.517515 
L 211.509385 146.614154 
L 212.071128 146.614154 
L 212.335478 137.309538 
L 212.61635 137.309538 
L 212.897221 145.728 
L 213.987664 145.728 
L 214.268536 144.858566 
L 215.3755 144.858566 
L 215.63985 153.049121 
L 215.920722 153.049121 
L 216.201593 144.005383 
L 216.746815 144.005383 
L 217.027686 143.168 
L 218.118129 143.168 
L 218.399001 142.345982 
L 218.679872 151.22378 
L 219.225094 151.22378 
L 219.505965 142.345982 
L 219.770315 141.538909 
L 220.87728 141.538909 
L 221.158151 140.746378 
L 221.422501 149.464216 
L 222.248594 149.464216 
L 222.529466 148.608 
L 223.074687 148.608 
L 223.355559 139.968 
L 223.63643 139.968 
L 223.90078 139.203398 
L 224.181652 139.203398 
L 224.462523 147.766938 
L 225.007745 147.766938 
L 225.288616 146.940632 
L 226.379059 146.940632 
L 226.659931 146.128696 
L 226.940802 137.714087 
L 227.205152 146.128696 
L 227.766895 146.128696 
L 228.031245 145.330759 
L 229.13821 145.330759 
L 229.419081 144.546462 
L 229.964303 144.546462 
L 230.245174 152.817231 
L 230.509524 144.546462 
L 230.790396 143.775458 
L 231.89736 143.775458 
L 232.16171 143.017412 
L 232.723453 143.017412 
L 232.987803 151.149176 
L 233.268675 151.149176 
L 233.549546 150.336 
L 233.813896 150.336 
L 234.094768 142.272 
L 234.639989 142.272 
L 234.920861 141.538909 
L 235.746954 141.538909 
L 236.027825 149.536264 
L 236.292175 148.749639 
L 237.399139 148.749639 
L 237.680011 147.975805 
L 237.944361 140.108488 
L 238.770454 140.108488 
L 239.051325 147.214452 
L 240.15829 147.214452 
L 240.42264 146.46528 
L 241.248733 146.46528 
L 241.529604 138.72384 
L 241.810476 145.728 
L 242.900919 145.728 
L 243.18179 145.002331 
L 244.288755 145.002331 
L 244.553105 144.288 
L 244.833976 151.848 
L 245.114848 144.288 
L 245.660069 144.288 
L 245.940941 143.584744 
L 247.031384 143.584744 
L 247.312255 142.892308 
L 247.593127 150.336 
L 248.41922 150.336 
L 248.68357 149.597313 
L 248.964441 142.210443 
L 249.790534 142.210443 
L 250.071406 141.538909 
L 250.335756 141.538909 
L 250.616627 148.869818 
L 251.161849 148.869818 
L 251.44272 148.153263 
L 251.987942 148.153263 
L 252.268813 140.877474 
L 252.549685 140.877474 
L 252.814035 140.22591 
L 253.094906 140.22591 
L 253.375778 147.447403 
L 253.920999 147.447403 
L 254.201871 146.752 
L 255.292314 146.752 
L 255.573185 146.066824 
L 255.854057 146.066824 
L 256.118407 138.951529 
L 256.399278 146.066824 
L 256.68015 146.066824 
L 256.9445 145.39165 
L 258.051464 145.39165 
L 258.332336 144.726261 
L 258.877557 144.726261 
L 259.158429 151.738435 
L 259.422779 144.726261 
L 259.70365 144.070446 
L 260.810615 144.070446 
L 261.074965 143.424 
L 261.901058 143.424 
L 262.181929 150.336 
L 262.462801 149.649702 
L 263.008022 149.649702 
L 263.288894 142.786723 
L 263.553244 142.786723 
L 263.834115 142.158423 
L 264.660208 142.158423 
L 264.94108 148.97307 
L 265.20543 148.305902 
L 266.312394 148.305902 
L 266.593266 147.648 
L 266.857616 140.928 
L 267.683709 140.928 
L 267.96458 146.999172 
L 269.071545 146.999172 
L 269.335895 146.359233 
L 270.161988 146.359233 
L 270.442859 139.731288 
L 270.723731 139.145143 
L 270.98808 145.728 
L 271.814173 145.728 
L 272.095045 145.105297 
L 273.20201 145.105297 
L 273.466359 144.490953 
L 273.747231 150.98545 
L 274.028103 144.490953 
L 274.573324 144.490953 
L 274.854196 143.8848 
L 275.944638 143.8848 
L 276.22551 143.286675 
L 276.506382 143.286675 
L 276.770731 149.695152 
L 277.332475 149.695152 
L 277.596824 149.062737 
L 277.877696 142.696421 
L 278.703789 142.696421 
L 278.984661 142.113882 
L 279.24901 142.113882 
L 279.529882 148.438588 
L 280.075103 148.438588 
L 280.355975 147.822545 
L 281.182068 147.822545 
L 281.46294 141.538909 
L 281.727289 140.971355 
L 282.289033 140.971355 
L 282.553382 147.214452 
L 282.834254 147.214452 
L 283.115126 146.614154 
L 284.205568 146.614154 
L 284.48644 146.021503 
L 284.767312 146.021503 
L 285.031661 139.857936 
L 285.312533 146.021503 
L 285.593405 146.021503 
L 285.857754 145.436354 
L 286.964719 145.436354 
L 287.245591 144.858566 
L 288.071684 144.858566 
L 288.336033 150.944604 
L 288.616905 150.336 
L 288.897777 144.288 
L 289.72387 144.288 
L 289.988219 143.724522 
L 290.814312 143.724522 
L 291.095184 149.734957 
L 291.376056 149.141333 
L 291.921277 149.141333 
L 292.202149 143.168 
L 292.466498 143.168 
L 292.74737 142.618307 
L 293.854334 142.618307 
L 294.118684 147.975805 
L 295.225649 147.975805 
L 295.50652 147.403636 
L 295.77087 147.403636 
L 296.051742 141.538909 
L 296.596963 141.538909 
L 296.877835 146.838361 
L 297.984799 146.838361 
L 298.249149 146.279856 
L 299.075242 146.279856 
L 299.356114 140.485365 
L 299.636985 139.968 
L 299.901335 145.728 
L 300.727428 145.728 
L 301.0083 145.182675 
L 302.115264 145.182675 
L 302.379614 144.643765 
L 302.660486 144.643765 
L 302.941357 150.336 
L 303.205707 144.643765 
L 303.486579 144.643765 
L 303.76745 144.111158 
L 304.857893 144.111158 
L 305.138765 143.584744 
L 305.419636 143.584744 
L 305.683986 149.210791 
L 306.245729 149.210791 
L 306.510079 148.657942 
L 306.790951 143.064416 
L 307.617044 143.064416 
L 307.897915 142.550069 
L 308.443137 142.550069 
L 308.724008 148.111448 
L 308.988358 148.111448 
L 309.26923 147.5712 
L 310.095323 147.5712 
L 310.376194 142.0416 
L 310.640544 141.538909 
L 311.202287 141.538909 
L 311.466637 147.037091 
L 311.747509 147.037091 
L 312.02838 146.509017 
L 313.118823 146.509017 
L 313.399695 145.986876 
L 313.680566 145.986876 
L 313.944916 140.550472 
L 314.225788 140.550472 
L 314.506659 145.986876 
L 314.771009 145.47057 
L 315.877974 145.47057 
L 316.158845 144.96 
L 316.984938 144.96 
L 317.249288 150.336 
L 317.53016 149.80137 
L 317.811031 144.455072 
L 318.637124 144.455072 
L 318.901474 143.955692 
L 320.008439 143.955692 
L 320.28931 148.749639 
L 321.115403 148.749639 
L 321.379753 143.46177 
L 321.660625 142.973217 
L 322.767589 142.973217 
L 323.031939 147.720649 
L 324.138904 147.720649 
L 324.419775 147.214452 
L 324.684125 147.214452 
L 324.964997 142.011871 
L 325.510218 142.011871 
L 325.79109 141.538909 
L 326.071961 146.713668 
L 326.898054 146.713668 
L 327.162404 146.218213 
L 328.269368 146.218213 
L 328.55024 145.728 
L 329.640683 145.728 
L 329.921554 145.242947 
L 331.028519 145.242947 
L 331.292869 144.762974 
L 331.57374 144.762974 
L 331.854612 149.829361 
L 332.118962 144.762974 
L 332.399833 144.762974 
L 332.680705 144.288 
L 333.771148 144.288 
L 334.052019 143.817948 
L 334.597241 143.817948 
L 334.878112 148.831834 
L 335.158984 148.831834 
L 335.423334 148.340784 
L 335.704205 148.340784 
L 335.985077 143.352742 
L 336.530298 143.352742 
L 336.81117 142.892308 
L 337.356391 142.892308 
L 337.637263 147.854769 
L 337.901613 147.854769 
L 338.182484 147.373714 
L 339.008577 147.373714 
L 339.289449 142.436571 
L 339.553799 141.985462 
L 340.379892 141.985462 
L 340.660763 146.897543 
L 340.941635 146.426182 
L 342.032078 146.426182 
L 342.312949 145.959558 
L 342.858171 145.959558 
L 343.139042 141.096844 
L 343.419914 145.959558 
L 343.684264 145.4976 
L 344.791228 145.4976 
L 345.0721 145.040239 
L 346.162543 145.040239 
L 346.443414 149.377901 
L 346.724286 144.587406 
L 347.550379 144.587406 
L 347.814729 144.139034 
L 348.921693 144.139034 
L 349.202565 148.438588 
L 350.028658 148.438588 
L 350.293008 143.695059 
L 350.573879 143.255415 
L 351.680844 143.255415 
L 351.945194 142.820039 
L 352.226065 147.517515 
L 353.052158 147.517515 
L 353.33303 147.063652 
L 353.59738 147.063652 
L 353.878251 142.38887 
L 354.423473 142.38887 
L 354.704344 141.961846 
L 354.985216 146.614154 
L 355.811309 146.614154 
L 356.075659 146.168957 
L 357.182623 146.168957 
L 357.463495 145.728 
L 357.727845 141.12 
L 358.008716 145.728 
L 358.553938 145.728 
L 358.834809 145.291223 
L 359.941774 145.291223 
L 360.206124 144.858566 
L 360.486995 144.858566 
L 360.767867 149.423094 
L 361.032217 149.423094 
L 361.313088 144.858566 
L 361.59396 144.429972 
L 362.684402 144.429972 
L 362.965274 144.005383 
L 363.510495 144.005383 
L 363.791367 148.527252 
L 364.072239 148.527252 
L 364.336588 148.085581 
L 364.61746 148.085581 
L 364.898332 143.584744 
L 365.443553 143.584744 
L 365.724425 143.168 
L 366.550518 143.168 
L 366.814867 147.648 
L 367.095739 147.214452 
L 368.202704 147.214452 
L 368.467053 146.784881 
L 368.747925 142.345982 
L 369.293146 142.345982 
L 369.574018 146.784881 
L 369.85489 146.359233 
L 370.945332 146.359233 
L 371.226204 145.937455 
L 371.771425 145.937455 
L 372.052297 141.538909 
L 372.333169 141.538909 
L 372.597518 145.519493 
L 373.704483 145.519493 
L 373.985355 145.105297 
L 375.075797 145.105297 
L 375.356669 149.034188 
L 375.637541 149.034188 
L 375.90189 144.694816 
L 376.463634 144.694816 
L 376.727983 144.288 
L 377.834948 144.288 
L 378.11582 143.8848 
L 378.380169 148.1856 
L 378.941913 148.1856 
L 379.206262 143.8848 
L 379.487134 143.485168 
L 380.594099 143.485168 
L 380.858448 143.089057 
L 381.13932 147.351965 
L 381.965413 147.351965 
L 382.246285 146.940632 
L 382.791506 146.940632 
L 383.072378 142.696421 
L 383.336727 142.696421 
L 383.617599 142.307214 
L 383.898471 142.307214 
L 384.16282 146.532891 
L 384.724563 146.532891 
L 384.988913 146.128696 
L 386.095878 146.128696 
L 386.376749 145.728 
L 386.641099 141.538909 
L 386.921971 145.728 
L 387.467192 145.728 
L 387.748064 145.330759 
L 388.855028 145.330759 
L 389.119378 144.936927 
L 389.681121 144.936927 
L 389.945471 149.09006 
L 390.226343 144.936927 
L 390.507214 144.546462 
L 391.597657 144.546462 
L 391.878529 144.159319 
L 392.42375 144.159319 
L 392.704622 148.277106 
L 392.985493 148.277106 
L 393.249843 147.875797 
L 393.530715 147.875797 
L 393.811586 143.775458 
L 394.356808 143.775458 
L 394.637679 143.394835 
L 395.463772 143.394835 
L 395.728122 147.477873 
L 396.008994 147.083294 
L 397.115958 147.083294 
L 397.380308 146.692017 
L 397.66118 142.643146 
L 398.487273 142.643146 
L 398.487273 142.643146 
" style="fill:none;stroke:#1f77b4;stroke-linecap:square;stroke-width:1.5;"/>
   </g>
   <g id="patch_3">
    <path d="M 57.6 307.584 
L 57.6 41.472 
" style="fill:none;stroke:#000000;stroke-linecap:square;stroke-linejoin:miter;stroke-width:0.8;"/>
   </g>
   <g id="patch_4">
    <path d="M 414.72 307.584 
L 414.72 41.472 
" style="fill:none;stroke:#000000;stroke-linecap:square;stroke-linejoin:miter;stroke-width:0.8;"/>
   </g>
   <g id="patch_5">
    <path d="M 57.6 307.584 
L 414.72 307.584 
" style="fill:none;stroke:#000000;stroke-linecap:square;stroke-linejoin:miter;stroke-width:0.8;"/>
   </g>
   <g id="patch_6">
    <path d="M 57.6 41.472 
L 414.72 41.472 
" style="fill:none;stroke:#000000;stroke-linecap:square;stroke-linejoin:miter;stroke-width:0.8;"/>
   </g>
   <g id="text_20">
    <!-- Speed function of time -->
    <g transform="translate(167.024063 35.472)scale(0.12 -0.12)">
     <defs>
      <path id="DejaVuSerif-32"/>
      <path d="M 43.015625 63.71875 
L 38.28125 63.71875 
Q 38.234375 67.390625 36.203125 69.28125 
Q 34.1875 71.1875 30.328125 71.1875 
Q 25.296875 71.1875 23.234375 68.421875 
Q 21.1875 65.671875 21.1875 58.59375 
L 21.1875 51.90625 
L 35.6875 51.90625 
L 35.6875 46.6875 
L 21.1875 46.6875 
L 21.1875 5.171875 
L 32.71875 5.171875 
L 32.71875 0 
L 3.609375 0 
L 3.609375 5.171875 
L 12.203125 5.171875 
L 12.203125 46.6875 
L 3.609375 46.6875 
L 3.609375 51.90625 
L 12.203125 51.90625 
L 12.203125 58.40625 
Q 12.203125 67.09375 16.71875 71.53125 
Q 21.234375 75.984375 29.984375 75.984375 
Q 33.25 75.984375 36.515625 75.390625 
Q 39.796875 74.8125 43.015625 73.578125 
z
" id="DejaVuSerif-102"/>
      <path d="M 35.40625 51.90625 
L 52.203125 51.90625 
L 52.203125 5.171875 
L 60.6875 5.171875 
L 60.6875 0 
L 43.21875 0 
L 43.21875 9.1875 
Q 40.71875 4 36.765625 1.28125 
Q 32.8125 -1.421875 27.59375 -1.421875 
Q 18.953125 -1.421875 14.875 3.484375 
Q 10.796875 8.40625 10.796875 18.890625 
L 10.796875 46.6875 
L 2.6875 46.6875 
L 2.6875 51.90625 
L 19.828125 51.90625 
L 19.828125 21.6875 
Q 19.828125 12.203125 22.140625 8.6875 
Q 24.46875 5.171875 30.421875 5.171875 
Q 36.671875 5.171875 39.9375 9.765625 
Q 43.21875 14.359375 43.21875 23.09375 
L 43.21875 46.6875 
L 35.40625 46.6875 
z
" id="DejaVuSerif-117"/>
      <path d="M 4.109375 0 
L 4.109375 5.171875 
L 12.203125 5.171875 
L 12.203125 46.6875 
L 3.609375 46.6875 
L 3.609375 51.90625 
L 21.1875 51.90625 
L 21.1875 42.671875 
Q 23.6875 47.953125 27.65625 50.640625 
Q 31.640625 53.328125 36.921875 53.328125 
Q 45.515625 53.328125 49.5625 48.390625 
Q 53.609375 43.453125 53.609375 33.015625 
L 53.609375 5.171875 
L 61.625 5.171875 
L 61.625 0 
L 36.8125 0 
L 36.8125 5.171875 
L 44.578125 5.171875 
L 44.578125 30.171875 
Q 44.578125 39.703125 42.234375 43.234375 
Q 39.890625 46.78125 33.984375 46.78125 
Q 27.734375 46.78125 24.453125 42.203125 
Q 21.1875 37.640625 21.1875 28.90625 
L 21.1875 5.171875 
L 29 5.171875 
L 29 0 
z
" id="DejaVuSerif-110"/>
      <path d="M 51.421875 15.578125 
Q 49.515625 7.28125 44.09375 2.921875 
Q 38.671875 -1.421875 30.078125 -1.421875 
Q 18.75 -1.421875 11.859375 6.078125 
Q 4.984375 13.578125 4.984375 25.984375 
Q 4.984375 38.421875 11.859375 45.875 
Q 18.75 53.328125 30.078125 53.328125 
Q 35.015625 53.328125 39.890625 52.171875 
Q 44.78125 51.03125 49.703125 48.6875 
L 49.703125 35.40625 
L 44.484375 35.40625 
Q 43.453125 42.234375 40.015625 45.359375 
Q 36.578125 48.484375 30.171875 48.484375 
Q 22.90625 48.484375 19.1875 42.84375 
Q 15.484375 37.203125 15.484375 25.984375 
Q 15.484375 14.75 19.171875 9.078125 
Q 22.859375 3.421875 30.171875 3.421875 
Q 35.984375 3.421875 39.453125 6.4375 
Q 42.921875 9.46875 44.1875 15.578125 
z
" id="DejaVuSerif-99"/>
      <path d="M 10.796875 46.6875 
L 2.875 46.6875 
L 2.875 51.90625 
L 10.796875 51.90625 
L 10.796875 68.015625 
L 19.828125 68.015625 
L 19.828125 51.90625 
L 36.71875 51.90625 
L 36.71875 46.6875 
L 19.828125 46.6875 
L 19.828125 13.71875 
Q 19.828125 7.125 21.09375 5.265625 
Q 22.359375 3.421875 25.78125 3.421875 
Q 29.296875 3.421875 30.90625 5.484375 
Q 32.515625 7.5625 32.625 12.203125 
L 39.40625 12.203125 
Q 39.015625 5.125 35.546875 1.84375 
Q 32.078125 -1.421875 25 -1.421875 
Q 17.234375 -1.421875 14.015625 2.015625 
Q 10.796875 5.46875 10.796875 13.71875 
z
" id="DejaVuSerif-116"/>
      <path d="M 30.078125 3.421875 
Q 37.3125 3.421875 40.984375 9.125 
Q 44.671875 14.84375 44.671875 25.984375 
Q 44.671875 37.109375 40.984375 42.796875 
Q 37.3125 48.484375 30.078125 48.484375 
Q 22.859375 48.484375 19.171875 42.796875 
Q 15.484375 37.109375 15.484375 25.984375 
Q 15.484375 14.84375 19.1875 9.125 
Q 22.90625 3.421875 30.078125 3.421875 
z
M 30.078125 -1.421875 
Q 18.75 -1.421875 11.859375 6.078125 
Q 4.984375 13.578125 4.984375 25.984375 
Q 4.984375 38.375 11.84375 45.84375 
Q 18.703125 53.328125 30.078125 53.328125 
Q 41.453125 53.328125 48.3125 45.84375 
Q 55.171875 38.375 55.171875 25.984375 
Q 55.171875 13.578125 48.3125 6.078125 
Q 41.453125 -1.421875 30.078125 -1.421875 
z
" id="DejaVuSerif-111"/>
     </defs>
     <use xlink:href="#DejaVuSerif-83"/>
     <use x="68.505859" xlink:href="#DejaVuSerif-112"/>
     <use x="132.519531" xlink:href="#DejaVuSerif-101"/>
     <use x="191.699219" xlink:href="#DejaVuSerif-101"/>
     <use x="250.878906" xlink:href="#DejaVuSerif-100"/>
     <use x="314.892578" xlink:href="#DejaVuSerif-32"/>
     <use x="346.679688" xlink:href="#DejaVuSerif-102"/>
     <use x="383.691406" xlink:href="#DejaVuSerif-117"/>
     <use x="448.095703" xlink:href="#DejaVuSerif-110"/>
     <use x="512.5" xlink:href="#DejaVuSerif-99"/>
     <use x="568.505859" xlink:href="#DejaVuSerif-116"/>
     <use x="608.691406" xlink:href="#DejaVuSerif-105"/>
     <use x="640.673828" xlink:href="#DejaVuSerif-111"/>
     <use x="700.878906" xlink:href="#DejaVuSerif-110"/>
     <use x="765.283203" xlink:href="#DejaVuSerif-32"/>
     <use x="797.070312" xlink:href="#DejaVuSerif-111"/>
     <use x="857.275391" xlink:href="#DejaVuSerif-102"/>
     <use x="894.287109" xlink:href="#DejaVuSerif-32"/>
     <use x="926.074219" xlink:href="#DejaVuSerif-116"/>
     <use x="966.259766" xlink:href="#DejaVuSerif-105"/>
     <use x="998.242188" xlink:href="#DejaVuSerif-109"/>
     <use x="1093.066406" xlink:href="#DejaVuSerif-101"/>
    </g>
   </g>
  </g>
 </g>
 <defs>
  <clipPath id="p907aaa8ee9">
   <rect height="266.112" width="357.12" x="57.6" y="41.472"/>
  </clipPath>
 </defs>
</svg>
