<?xml version="1.0" encoding="utf-8" standalone="no"?>
<!DOCTYPE svg PUBLIC "-//W3C//DTD SVG 1.1//EN"
  "http://www.w3.org/Graphics/SVG/1.1/DTD/svg11.dtd">
<!-- Created with matplotlib (https://matplotlib.org/) -->
<svg height="345.6pt" version="1.1" viewBox="0 0 460.8 345.6" width="460.8pt" xmlns="http://www.w3.org/2000/svg" xmlns:xlink="http://www.w3.org/1999/xlink">
 <metadata>
  <rdf:RDF xmlns:cc="http://creativecommons.org/ns#" xmlns:dc="http://purl.org/dc/elements/1.1/" xmlns:rdf="http://www.w3.org/1999/02/22-rdf-syntax-ns#">
   <cc:Work>
    <dc:type rdf:resource="http://purl.org/dc/dcmitype/StillImage"/>
    <dc:date>2022-05-25T01:06:02.439719</dc:date>
    <dc:format>image/svg+xml</dc:format>
    <dc:creator>
     <cc:Agent>
      <dc:title>Matplotlib v3.3.4, https://matplotlib.org/</dc:title>
     </cc:Agent>
    </dc:creator>
   </cc:Work>
  </rdf:RDF>
 </metadata>
 <defs>
  <style type="text/css">*{stroke-linecap:butt;stroke-linejoin:round;}</style>
 </defs>
 <g id="figure_1">
  <g id="patch_1">
   <path d="M 0 345.6 
L 460.8 345.6 
L 460.8 0 
L 0 0 
z
" style="fill:#ffffff;"/>
  </g>
  <g id="axes_1">
   <g id="patch_2">
    <path d="M 57.6 307.584 
L 414.72 307.584 
L 414.72 41.472 
L 57.6 41.472 
z
" style="fill:#ffffff;"/>
   </g>
   <g id="PolyCollection_1">
    <defs>
     <path d="M 57.6 -38.016 
L 57.6 -279.936 
L 58.31424 -279.936 
L 59.02848 -279.935999 
L 59.74272 -279.935999 
L 60.45696 -279.935998 
L 61.1712 -279.935997 
L 61.88544 -279.935997 
L 62.59968 -279.935996 
L 63.31392 -279.935995 
L 64.02816 -279.935994 
L 64.7424 -279.935992 
L 65.45664 -279.935991 
L 66.17088 -279.935989 
L 66.88512 -279.935987 
L 67.59936 -279.935985 
L 68.3136 -279.935983 
L 69.02784 -279.93598 
L 69.74208 -279.935976 
L 70.45632 -279.935973 
L 71.17056 -279.935969 
L 71.8848 -279.935964 
L 72.59904 -279.935958 
L 73.31328 -279.935952 
L 74.02752 -279.935945 
L 74.74176 -279.935937 
L 75.456 -279.935927 
L 76.17024 -279.935917 
L 76.88448 -279.935905 
L 77.59872 -279.935891 
L 78.31296 -279.935875 
L 79.0272 -279.935857 
L 79.74144 -279.935836 
L 80.45568 -279.935813 
L 81.16992 -279.935786 
L 81.88416 -279.935756 
L 82.5984 -279.935721 
L 83.31264 -279.935682 
L 84.02688 -279.935637 
L 84.74112 -279.935585 
L 85.45536 -279.935526 
L 86.1696 -279.935459 
L 86.88384 -279.935383 
L 87.59808 -279.935296 
L 88.31232 -279.935197 
L 89.02656 -279.935083 
L 89.7408 -279.934954 
L 90.45504 -279.934807 
L 91.16928 -279.934639 
L 91.88352 -279.934447 
L 92.59776 -279.934229 
L 93.312 -279.93398 
L 94.02624 -279.933695 
L 94.74048 -279.933372 
L 95.45472 -279.933002 
L 96.16896 -279.932581 
L 96.8832 -279.932101 
L 97.59744 -279.931553 
L 98.31168 -279.930928 
L 99.02592 -279.930216 
L 99.74016 -279.929404 
L 100.4544 -279.928478 
L 101.16864 -279.927422 
L 101.88288 -279.926219 
L 102.59712 -279.924846 
L 103.31136 -279.923281 
L 104.0256 -279.921497 
L 104.73984 -279.919462 
L 105.45408 -279.917143 
L 106.16832 -279.914498 
L 106.88256 -279.911483 
L 107.5968 -279.908045 
L 108.31104 -279.904126 
L 109.02528 -279.899657 
L 109.73952 -279.894563 
L 110.45376 -279.888755 
L 111.168 -279.882134 
L 111.88224 -279.874585 
L 112.59648 -279.86598 
L 113.31072 -279.85617 
L 114.02496 -279.844986 
L 114.7392 -279.832238 
L 115.45344 -279.817706 
L 116.16768 -279.801141 
L 116.88192 -279.782259 
L 117.59616 -279.760737 
L 118.3104 -279.736206 
L 119.02464 -279.708247 
L 119.73888 -279.676382 
L 120.45312 -279.640067 
L 121.16736 -279.598682 
L 121.8816 -279.551522 
L 122.59584 -279.497785 
L 123.31008 -279.436557 
L 124.02432 -279.3668 
L 124.73856 -279.287333 
L 125.4528 -279.196813 
L 126.16704 -279.093715 
L 126.88128 -278.976305 
L 127.59552 -278.842616 
L 128.30976 -278.690416 
L 129.024 -278.517174 
L 129.73824 -278.320021 
L 130.45248 -278.095711 
L 131.16672 -277.84057 
L 131.88096 -277.550451 
L 132.5952 -277.22067 
L 133.30944 -276.845953 
L 134.02368 -276.420363 
L 134.73792 -275.937238 
L 135.45216 -275.389108 
L 136.1664 -274.767628 
L 136.88064 -274.063493 
L 137.59488 -273.266364 
L 138.30912 -272.364798 
L 139.02336 -271.346177 
L 139.7376 -270.196661 
L 140.45184 -268.901156 
L 141.16608 -267.443303 
L 141.88032 -265.805513 
L 142.59456 -263.969046 
L 143.3088 -261.914145 
L 144.02304 -259.620251 
L 144.73728 -257.066302 
L 145.45152 -254.231129 
L 146.16576 -251.093972 
L 146.88 -247.635107 
L 147.59424 -243.836599 
L 148.30848 -239.683159 
L 149.02272 -235.163095 
L 149.73696 -230.269314 
L 150.4512 -225.00032 
L 151.16544 -219.361153 
L 151.87968 -213.364166 
L 152.59392 -207.02958 
L 153.30816 -200.385715 
L 154.0224 -193.46883 
L 154.73664 -186.322549 
L 155.45088 -178.996846 
L 156.16512 -171.546646 
L 156.87936 -164.030118 
L 157.5936 -156.506775 
L 158.30784 -149.035521 
L 159.02208 -141.672786 
L 159.73632 -134.470868 
L 160.45056 -127.476585 
L 161.1648 -120.730296 
L 161.87904 -114.26531 
L 162.59328 -108.107666 
L 163.30752 -102.276248 
L 164.02176 -96.783167 
L 164.736 -91.634346 
L 165.45024 -86.830235 
L 166.16448 -82.3666 
L 166.87872 -78.235324 
L 167.59296 -74.425194 
L 168.3072 -70.922623 
L 169.02144 -67.712312 
L 169.73568 -64.777827 
L 170.44992 -62.102083 
L 171.16416 -59.667759 
L 171.8784 -57.457626 
L 172.59264 -55.454807 
L 173.30688 -53.642978 
L 174.02112 -52.006507 
L 174.73536 -50.530562 
L 175.4496 -49.201168 
L 176.16384 -38.016 
L 176.87808 -38.016 
L 177.59232 -38.016 
L 178.30656 -38.016 
L 179.0208 -38.016 
L 179.73504 -38.016 
L 180.44928 -38.016 
L 181.16352 -38.016 
L 181.87776 -38.016 
L 182.592 -38.016 
L 183.30624 -38.016 
L 184.02048 -38.016 
L 184.73472 -38.016 
L 185.44896 -38.016 
L 186.1632 -38.016 
L 186.87744 -38.016 
L 187.59168 -38.016 
L 188.30592 -38.016 
L 189.02016 -38.016 
L 189.7344 -38.016 
L 190.44864 -38.016 
L 191.16288 -38.016 
L 191.87712 -38.016 
L 192.59136 -38.016 
L 193.3056 -38.016 
L 194.01984 -38.016 
L 194.73408 -38.016 
L 195.44832 -38.016 
L 196.16256 -38.016 
L 196.8768 -38.016 
L 197.59104 -38.016 
L 198.30528 -38.016 
L 199.01952 -38.016 
L 199.73376 -38.016 
L 200.448 -38.016 
L 201.16224 -38.016 
L 201.87648 -38.016 
L 202.59072 -38.016 
L 203.30496 -38.016 
L 204.0192 -38.016 
L 204.73344 -38.016 
L 205.44768 -38.016 
L 206.16192 -38.016 
L 206.87616 -38.016 
L 207.5904 -38.016 
L 208.30464 -38.016 
L 209.01888 -38.016 
L 209.73312 -38.016 
L 210.44736 -38.016 
L 211.1616 -38.016 
L 211.87584 -38.016 
L 212.59008 -38.016 
L 213.30432 -38.016 
L 214.01856 -38.016 
L 214.7328 -38.016 
L 215.44704 -38.016 
L 216.16128 -38.016 
L 216.87552 -38.016 
L 217.58976 -38.016 
L 218.304 -38.016 
L 219.01824 -38.016 
L 219.73248 -38.016 
L 220.44672 -38.016 
L 221.16096 -38.016 
L 221.8752 -38.016 
L 222.58944 -38.016 
L 223.30368 -38.016 
L 224.01792 -38.016 
L 224.73216 -38.016 
L 225.4464 -38.016 
L 226.16064 -38.016 
L 226.87488 -38.016 
L 227.58912 -38.016 
L 228.30336 -38.016 
L 229.0176 -38.016 
L 229.73184 -38.016 
L 230.44608 -38.016 
L 231.16032 -38.016 
L 231.87456 -38.016 
L 232.5888 -38.016 
L 233.30304 -38.016 
L 234.01728 -38.016 
L 234.73152 -38.016 
L 235.44576 -38.016 
L 236.16 -38.016 
L 236.87424 -38.016 
L 237.58848 -38.016 
L 238.30272 -38.016 
L 239.01696 -38.016 
L 239.7312 -38.016 
L 240.44544 -38.016 
L 241.15968 -38.016 
L 241.87392 -38.016 
L 242.58816 -38.016 
L 243.3024 -38.016 
L 244.01664 -38.016 
L 244.73088 -38.016 
L 245.44512 -38.016 
L 246.15936 -38.016 
L 246.8736 -38.016 
L 247.58784 -38.016 
L 248.30208 -38.016 
L 249.01632 -38.016 
L 249.73056 -38.016 
L 250.4448 -38.016 
L 251.15904 -38.016 
L 251.87328 -38.016 
L 252.58752 -38.016 
L 253.30176 -38.016 
L 254.016 -38.016 
L 254.73024 -38.016 
L 255.44448 -38.016 
L 256.15872 -38.016 
L 256.87296 -38.016 
L 257.5872 -38.016 
L 258.30144 -38.016 
L 259.01568 -38.016 
L 259.72992 -38.016 
L 260.44416 -38.016 
L 261.1584 -38.016 
L 261.87264 -38.016 
L 262.58688 -38.016 
L 263.30112 -38.016 
L 264.01536 -38.016 
L 264.7296 -38.016 
L 265.44384 -38.016 
L 266.15808 -38.016 
L 266.87232 -38.016 
L 267.58656 -38.016 
L 268.3008 -38.016 
L 269.01504 -38.016 
L 269.72928 -38.016 
L 270.44352 -38.016 
L 271.15776 -38.016 
L 271.872 -38.016 
L 272.58624 -38.016 
L 273.30048 -38.016 
L 274.01472 -38.016 
L 274.72896 -38.016 
L 275.4432 -38.016 
L 276.15744 -38.016 
L 276.87168 -38.016 
L 277.58592 -38.016 
L 278.30016 -38.016 
L 279.0144 -38.016 
L 279.72864 -38.016 
L 280.44288 -38.016 
L 281.15712 -38.016 
L 281.87136 -38.016 
L 282.5856 -38.016 
L 283.29984 -38.016 
L 284.01408 -38.016 
L 284.72832 -38.016 
L 285.44256 -38.016 
L 286.1568 -38.016 
L 286.87104 -38.016 
L 287.58528 -38.016 
L 288.29952 -38.016 
L 289.01376 -38.016 
L 289.728 -38.016 
L 290.44224 -38.016 
L 291.15648 -38.016 
L 291.87072 -38.016 
L 292.58496 -38.016 
L 293.2992 -38.016 
L 294.01344 -38.016 
L 294.72768 -38.016 
L 295.44192 -38.016 
L 296.15616 -38.016 
L 296.8704 -38.016 
L 297.58464 -38.016 
L 298.29888 -38.016 
L 299.01312 -38.016 
L 299.72736 -38.016 
L 300.4416 -38.016 
L 301.15584 -38.016 
L 301.87008 -38.016 
L 302.58432 -38.016 
L 303.29856 -38.016 
L 304.0128 -38.016 
L 304.72704 -38.016 
L 305.44128 -38.016 
L 306.15552 -38.016 
L 306.86976 -38.016 
L 307.584 -38.016 
L 308.29824 -38.016 
L 309.01248 -38.016 
L 309.72672 -38.016 
L 310.44096 -38.016 
L 311.1552 -38.016 
L 311.86944 -38.016 
L 312.58368 -38.016 
L 313.29792 -38.016 
L 314.01216 -38.016 
L 314.7264 -38.016 
L 315.44064 -38.016 
L 316.15488 -38.016 
L 316.86912 -38.016 
L 317.58336 -38.016 
L 318.2976 -38.016 
L 319.01184 -38.016 
L 319.72608 -38.016 
L 320.44032 -38.016 
L 321.15456 -38.016 
L 321.8688 -38.016 
L 322.58304 -38.016 
L 323.29728 -38.016 
L 324.01152 -38.016 
L 324.72576 -38.016 
L 325.44 -38.016 
L 326.15424 -38.016 
L 326.86848 -38.016 
L 327.58272 -38.016 
L 328.29696 -38.016 
L 329.0112 -38.016 
L 329.72544 -38.016 
L 330.43968 -38.016 
L 331.15392 -38.016 
L 331.86816 -38.016 
L 332.5824 -38.016 
L 333.29664 -38.016 
L 334.01088 -38.016 
L 334.72512 -38.016 
L 335.43936 -38.016 
L 336.1536 -38.016 
L 336.86784 -38.016 
L 337.58208 -38.016 
L 338.29632 -38.016 
L 339.01056 -38.016 
L 339.7248 -38.016 
L 340.43904 -38.016 
L 341.15328 -38.016 
L 341.86752 -38.016 
L 342.58176 -38.016 
L 343.296 -38.016 
L 344.01024 -38.016 
L 344.72448 -38.016 
L 345.43872 -38.016 
L 346.15296 -38.016 
L 346.8672 -38.016 
L 347.58144 -38.016 
L 348.29568 -38.016 
L 349.00992 -38.016 
L 349.72416 -38.016 
L 350.4384 -38.016 
L 351.15264 -38.016 
L 351.86688 -38.016 
L 352.58112 -38.016 
L 353.29536 -38.016 
L 354.0096 -38.016 
L 354.72384 -38.016 
L 355.43808 -38.016 
L 356.15232 -38.016 
L 356.86656 -38.016 
L 357.5808 -38.016 
L 358.29504 -38.016 
L 359.00928 -38.016 
L 359.72352 -38.016 
L 360.43776 -38.016 
L 361.152 -38.016 
L 361.86624 -38.016 
L 362.58048 -38.016 
L 363.29472 -38.016 
L 364.00896 -38.016 
L 364.7232 -38.016 
L 365.43744 -38.016 
L 366.15168 -38.016 
L 366.86592 -38.016 
L 367.58016 -38.016 
L 368.2944 -38.016 
L 369.00864 -38.016 
L 369.72288 -38.016 
L 370.43712 -38.016 
L 371.15136 -38.016 
L 371.8656 -38.016 
L 372.57984 -38.016 
L 373.29408 -38.016 
L 374.00832 -38.016 
L 374.72256 -38.016 
L 375.4368 -38.016 
L 376.15104 -38.016 
L 376.86528 -38.016 
L 377.57952 -38.016 
L 378.29376 -38.016 
L 379.008 -38.016 
L 379.72224 -38.016 
L 380.43648 -38.016 
L 381.15072 -38.016 
L 381.86496 -38.016 
L 382.5792 -38.016 
L 383.29344 -38.016 
L 384.00768 -38.016 
L 384.72192 -38.016 
L 385.43616 -38.016 
L 386.1504 -38.016 
L 386.86464 -38.016 
L 387.57888 -38.016 
L 388.29312 -38.016 
L 389.00736 -38.016 
L 389.7216 -38.016 
L 390.43584 -38.016 
L 391.15008 -38.016 
L 391.86432 -38.016 
L 392.57856 -38.016 
L 393.2928 -38.016 
L 394.00704 -38.016 
L 394.72128 -38.016 
L 395.43552 -38.016 
L 396.14976 -38.016 
L 396.864 -38.016 
L 397.57824 -38.016 
L 398.29248 -38.016 
L 399.00672 -38.016 
L 399.72096 -38.016 
L 400.4352 -38.016 
L 401.14944 -38.016 
L 401.86368 -38.016 
L 402.57792 -38.016 
L 403.29216 -38.016 
L 404.0064 -38.016 
L 404.72064 -38.016 
L 405.43488 -38.016 
L 406.14912 -38.016 
L 406.86336 -38.016 
L 407.5776 -38.016 
L 408.29184 -38.016 
L 409.00608 -38.016 
L 409.72032 -38.016 
L 410.43456 -38.016 
L 411.1488 -38.016 
L 411.86304 -38.016 
L 412.57728 -38.016 
L 413.29152 -38.016 
L 414.00576 -38.016 
L 414.72 -38.016 
L 414.72 -38.016 
L 414.72 -38.016 
L 414.00576 -38.016 
L 413.29152 -38.016 
L 412.57728 -38.016 
L 411.86304 -38.016 
L 411.1488 -38.016 
L 410.43456 -38.016 
L 409.72032 -38.016 
L 409.00608 -38.016 
L 408.29184 -38.016 
L 407.5776 -38.016 
L 406.86336 -38.016 
L 406.14912 -38.016 
L 405.43488 -38.016 
L 404.72064 -38.016 
L 404.0064 -38.016 
L 403.29216 -38.016 
L 402.57792 -38.016 
L 401.86368 -38.016 
L 401.14944 -38.016 
L 400.4352 -38.016 
L 399.72096 -38.016 
L 399.00672 -38.016 
L 398.29248 -38.016 
L 397.57824 -38.016 
L 396.864 -38.016 
L 396.14976 -38.016 
L 395.43552 -38.016 
L 394.72128 -38.016 
L 394.00704 -38.016 
L 393.2928 -38.016 
L 392.57856 -38.016 
L 391.86432 -38.016 
L 391.15008 -38.016 
L 390.43584 -38.016 
L 389.7216 -38.016 
L 389.00736 -38.016 
L 388.29312 -38.016 
L 387.57888 -38.016 
L 386.86464 -38.016 
L 386.1504 -38.016 
L 385.43616 -38.016 
L 384.72192 -38.016 
L 384.00768 -38.016 
L 383.29344 -38.016 
L 382.5792 -38.016 
L 381.86496 -38.016 
L 381.15072 -38.016 
L 380.43648 -38.016 
L 379.72224 -38.016 
L 379.008 -38.016 
L 378.29376 -38.016 
L 377.57952 -38.016 
L 376.86528 -38.016 
L 376.15104 -38.016 
L 375.4368 -38.016 
L 374.72256 -38.016 
L 374.00832 -38.016 
L 373.29408 -38.016 
L 372.57984 -38.016 
L 371.8656 -38.016 
L 371.15136 -38.016 
L 370.43712 -38.016 
L 369.72288 -38.016 
L 369.00864 -38.016 
L 368.2944 -38.016 
L 367.58016 -38.016 
L 366.86592 -38.016 
L 366.15168 -38.016 
L 365.43744 -38.016 
L 364.7232 -38.016 
L 364.00896 -38.016 
L 363.29472 -38.016 
L 362.58048 -38.016 
L 361.86624 -38.016 
L 361.152 -38.016 
L 360.43776 -38.016 
L 359.72352 -38.016 
L 359.00928 -38.016 
L 358.29504 -38.016 
L 357.5808 -38.016 
L 356.86656 -38.016 
L 356.15232 -38.016 
L 355.43808 -38.016 
L 354.72384 -38.016 
L 354.0096 -38.016 
L 353.29536 -38.016 
L 352.58112 -38.016 
L 351.86688 -38.016 
L 351.15264 -38.016 
L 350.4384 -38.016 
L 349.72416 -38.016 
L 349.00992 -38.016 
L 348.29568 -38.016 
L 347.58144 -38.016 
L 346.8672 -38.016 
L 346.15296 -38.016 
L 345.43872 -38.016 
L 344.72448 -38.016 
L 344.01024 -38.016 
L 343.296 -38.016 
L 342.58176 -38.016 
L 341.86752 -38.016 
L 341.15328 -38.016 
L 340.43904 -38.016 
L 339.7248 -38.016 
L 339.01056 -38.016 
L 338.29632 -38.016 
L 337.58208 -38.016 
L 336.86784 -38.016 
L 336.1536 -38.016 
L 335.43936 -38.016 
L 334.72512 -38.016 
L 334.01088 -38.016 
L 333.29664 -38.016 
L 332.5824 -38.016 
L 331.86816 -38.016 
L 331.15392 -38.016 
L 330.43968 -38.016 
L 329.72544 -38.016 
L 329.0112 -38.016 
L 328.29696 -38.016 
L 327.58272 -38.016 
L 326.86848 -38.016 
L 326.15424 -38.016 
L 325.44 -38.016 
L 324.72576 -38.016 
L 324.01152 -38.016 
L 323.29728 -38.016 
L 322.58304 -38.016 
L 321.8688 -38.016 
L 321.15456 -38.016 
L 320.44032 -38.016 
L 319.72608 -38.016 
L 319.01184 -38.016 
L 318.2976 -38.016 
L 317.58336 -38.016 
L 316.86912 -38.016 
L 316.15488 -38.016 
L 315.44064 -38.016 
L 314.7264 -38.016 
L 314.01216 -38.016 
L 313.29792 -38.016 
L 312.58368 -38.016 
L 311.86944 -38.016 
L 311.1552 -38.016 
L 310.44096 -38.016 
L 309.72672 -38.016 
L 309.01248 -38.016 
L 308.29824 -38.016 
L 307.584 -38.016 
L 306.86976 -38.016 
L 306.15552 -38.016 
L 305.44128 -38.016 
L 304.72704 -38.016 
L 304.0128 -38.016 
L 303.29856 -38.016 
L 302.58432 -38.016 
L 301.87008 -38.016 
L 301.15584 -38.016 
L 300.4416 -38.016 
L 299.72736 -38.016 
L 299.01312 -38.016 
L 298.29888 -38.016 
L 297.58464 -38.016 
L 296.8704 -38.016 
L 296.15616 -38.016 
L 295.44192 -38.016 
L 294.72768 -38.016 
L 294.01344 -38.016 
L 293.2992 -38.016 
L 292.58496 -38.016 
L 291.87072 -38.016 
L 291.15648 -38.016 
L 290.44224 -38.016 
L 289.728 -38.016 
L 289.01376 -38.016 
L 288.29952 -38.016 
L 287.58528 -38.016 
L 286.87104 -38.016 
L 286.1568 -38.016 
L 285.44256 -38.016 
L 284.72832 -38.016 
L 284.01408 -38.016 
L 283.29984 -38.016 
L 282.5856 -38.016 
L 281.87136 -38.016 
L 281.15712 -38.016 
L 280.44288 -38.016 
L 279.72864 -38.016 
L 279.0144 -38.016 
L 278.30016 -38.016 
L 277.58592 -38.016 
L 276.87168 -38.016 
L 276.15744 -38.016 
L 275.4432 -38.016 
L 274.72896 -38.016 
L 274.01472 -38.016 
L 273.30048 -38.016 
L 272.58624 -38.016 
L 271.872 -38.016 
L 271.15776 -38.016 
L 270.44352 -38.016 
L 269.72928 -38.016 
L 269.01504 -38.016 
L 268.3008 -38.016 
L 267.58656 -38.016 
L 266.87232 -38.016 
L 266.15808 -38.016 
L 265.44384 -38.016 
L 264.7296 -38.016 
L 264.01536 -38.016 
L 263.30112 -38.016 
L 262.58688 -38.016 
L 261.87264 -38.016 
L 261.1584 -38.016 
L 260.44416 -38.016 
L 259.72992 -38.016 
L 259.01568 -38.016 
L 258.30144 -38.016 
L 257.5872 -38.016 
L 256.87296 -38.016 
L 256.15872 -38.016 
L 255.44448 -38.016 
L 254.73024 -38.016 
L 254.016 -38.016 
L 253.30176 -38.016 
L 252.58752 -38.016 
L 251.87328 -38.016 
L 251.15904 -38.016 
L 250.4448 -38.016 
L 249.73056 -38.016 
L 249.01632 -38.016 
L 248.30208 -38.016 
L 247.58784 -38.016 
L 246.8736 -38.016 
L 246.15936 -38.016 
L 245.44512 -38.016 
L 244.73088 -38.016 
L 244.01664 -38.016 
L 243.3024 -38.016 
L 242.58816 -38.016 
L 241.87392 -38.016 
L 241.15968 -38.016 
L 240.44544 -38.016 
L 239.7312 -38.016 
L 239.01696 -38.016 
L 238.30272 -38.016 
L 237.58848 -38.016 
L 236.87424 -38.016 
L 236.16 -38.016 
L 235.44576 -38.016 
L 234.73152 -38.016 
L 234.01728 -38.016 
L 233.30304 -38.016 
L 232.5888 -38.016 
L 231.87456 -38.016 
L 231.16032 -38.016 
L 230.44608 -38.016 
L 229.73184 -38.016 
L 229.0176 -38.016 
L 228.30336 -38.016 
L 227.58912 -38.016 
L 226.87488 -38.016 
L 226.16064 -38.016 
L 225.4464 -38.016 
L 224.73216 -38.016 
L 224.01792 -38.016 
L 223.30368 -38.016 
L 222.58944 -38.016 
L 221.8752 -38.016 
L 221.16096 -38.016 
L 220.44672 -38.016 
L 219.73248 -38.016 
L 219.01824 -38.016 
L 218.304 -38.016 
L 217.58976 -38.016 
L 216.87552 -38.016 
L 216.16128 -38.016 
L 215.44704 -38.016 
L 214.7328 -38.016 
L 214.01856 -38.016 
L 213.30432 -38.016 
L 212.59008 -38.016 
L 211.87584 -38.016 
L 211.1616 -38.016 
L 210.44736 -38.016 
L 209.73312 -38.016 
L 209.01888 -38.016 
L 208.30464 -38.016 
L 207.5904 -38.016 
L 206.87616 -38.016 
L 206.16192 -38.016 
L 205.44768 -38.016 
L 204.73344 -38.016 
L 204.0192 -38.016 
L 203.30496 -38.016 
L 202.59072 -38.016 
L 201.87648 -38.016 
L 201.16224 -38.016 
L 200.448 -38.016 
L 199.73376 -38.016 
L 199.01952 -38.016 
L 198.30528 -38.016 
L 197.59104 -38.016 
L 196.8768 -38.016 
L 196.16256 -38.016 
L 195.44832 -38.016 
L 194.73408 -38.016 
L 194.01984 -38.016 
L 193.3056 -38.016 
L 192.59136 -38.016 
L 191.87712 -38.016 
L 191.16288 -38.016 
L 190.44864 -38.016 
L 189.7344 -38.016 
L 189.02016 -38.016 
L 188.30592 -38.016 
L 187.59168 -38.016 
L 186.87744 -38.016 
L 186.1632 -38.016 
L 185.44896 -38.016 
L 184.73472 -38.016 
L 184.02048 -38.016 
L 183.30624 -38.016 
L 182.592 -38.016 
L 181.87776 -38.016 
L 181.16352 -38.016 
L 180.44928 -38.016 
L 179.73504 -38.016 
L 179.0208 -38.016 
L 178.30656 -38.016 
L 177.59232 -38.016 
L 176.87808 -38.016 
L 176.16384 -38.016 
L 175.4496 -38.016 
L 174.73536 -38.016 
L 174.02112 -38.016 
L 173.30688 -38.016 
L 172.59264 -38.016 
L 171.8784 -38.016 
L 171.16416 -38.016 
L 170.44992 -38.016 
L 169.73568 -38.016 
L 169.02144 -38.016 
L 168.3072 -38.016 
L 167.59296 -38.016 
L 166.87872 -38.016 
L 166.16448 -38.016 
L 165.45024 -38.016 
L 164.736 -38.016 
L 164.02176 -38.016 
L 163.30752 -38.016 
L 162.59328 -38.016 
L 161.87904 -38.016 
L 161.1648 -38.016 
L 160.45056 -38.016 
L 159.73632 -38.016 
L 159.02208 -38.016 
L 158.30784 -38.016 
L 157.5936 -38.016 
L 156.87936 -38.016 
L 156.16512 -38.016 
L 155.45088 -38.016 
L 154.73664 -38.016 
L 154.0224 -38.016 
L 153.30816 -38.016 
L 152.59392 -38.016 
L 151.87968 -38.016 
L 151.16544 -38.016 
L 150.4512 -38.016 
L 149.73696 -38.016 
L 149.02272 -38.016 
L 148.30848 -38.016 
L 147.59424 -38.016 
L 146.88 -38.016 
L 146.16576 -38.016 
L 145.45152 -38.016 
L 144.73728 -38.016 
L 144.02304 -38.016 
L 143.3088 -38.016 
L 142.59456 -38.016 
L 141.88032 -38.016 
L 141.16608 -38.016 
L 140.45184 -38.016 
L 139.7376 -38.016 
L 139.02336 -38.016 
L 138.30912 -38.016 
L 137.59488 -38.016 
L 136.88064 -38.016 
L 136.1664 -38.016 
L 135.45216 -38.016 
L 134.73792 -38.016 
L 134.02368 -38.016 
L 133.30944 -38.016 
L 132.5952 -38.016 
L 131.88096 -38.016 
L 131.16672 -38.016 
L 130.45248 -38.016 
L 129.73824 -38.016 
L 129.024 -38.016 
L 128.30976 -38.016 
L 127.59552 -38.016 
L 126.88128 -38.016 
L 126.16704 -38.016 
L 125.4528 -38.016 
L 124.73856 -38.016 
L 124.02432 -38.016 
L 123.31008 -38.016 
L 122.59584 -38.016 
L 121.8816 -38.016 
L 121.16736 -38.016 
L 120.45312 -38.016 
L 119.73888 -38.016 
L 119.02464 -38.016 
L 118.3104 -38.016 
L 117.59616 -38.016 
L 116.88192 -38.016 
L 116.16768 -38.016 
L 115.45344 -38.016 
L 114.7392 -38.016 
L 114.02496 -38.016 
L 113.31072 -38.016 
L 112.59648 -38.016 
L 111.88224 -38.016 
L 111.168 -38.016 
L 110.45376 -38.016 
L 109.73952 -38.016 
L 109.02528 -38.016 
L 108.31104 -38.016 
L 107.5968 -38.016 
L 106.88256 -38.016 
L 106.16832 -38.016 
L 105.45408 -38.016 
L 104.73984 -38.016 
L 104.0256 -38.016 
L 103.31136 -38.016 
L 102.59712 -38.016 
L 101.88288 -38.016 
L 101.16864 -38.016 
L 100.4544 -38.016 
L 99.74016 -38.016 
L 99.02592 -38.016 
L 98.31168 -38.016 
L 97.59744 -38.016 
L 96.8832 -38.016 
L 96.16896 -38.016 
L 95.45472 -38.016 
L 94.74048 -38.016 
L 94.02624 -38.016 
L 93.312 -38.016 
L 92.59776 -38.016 
L 91.88352 -38.016 
L 91.16928 -38.016 
L 90.45504 -38.016 
L 89.7408 -38.016 
L 89.02656 -38.016 
L 88.31232 -38.016 
L 87.59808 -38.016 
L 86.88384 -38.016 
L 86.1696 -38.016 
L 85.45536 -38.016 
L 84.74112 -38.016 
L 84.02688 -38.016 
L 83.31264 -38.016 
L 82.5984 -38.016 
L 81.88416 -38.016 
L 81.16992 -38.016 
L 80.45568 -38.016 
L 79.74144 -38.016 
L 79.0272 -38.016 
L 78.31296 -38.016 
L 77.59872 -38.016 
L 76.88448 -38.016 
L 76.17024 -38.016 
L 75.456 -38.016 
L 74.74176 -38.016 
L 74.02752 -38.016 
L 73.31328 -38.016 
L 72.59904 -38.016 
L 71.8848 -38.016 
L 71.17056 -38.016 
L 70.45632 -38.016 
L 69.74208 -38.016 
L 69.02784 -38.016 
L 68.3136 -38.016 
L 67.59936 -38.016 
L 66.88512 -38.016 
L 66.17088 -38.016 
L 65.45664 -38.016 
L 64.7424 -38.016 
L 64.02816 -38.016 
L 63.31392 -38.016 
L 62.59968 -38.016 
L 61.88544 -38.016 
L 61.1712 -38.016 
L 60.45696 -38.016 
L 59.74272 -38.016 
L 59.02848 -38.016 
L 58.31424 -38.016 
L 57.6 -38.016 
z
" id="m431d8f602c" style="stroke:#509369;"/>
    </defs>
    <g clip-path="url(#p2dad3c0a1f)">
     <use style="fill:#509369;stroke:#509369;" x="0" xlink:href="#m431d8f602c" y="345.6"/>
    </g>
   </g>
   <g id="PolyCollection_2">
    <defs>
     <path d="M 57.6 -279.936 
L 57.6 -279.936 
L 58.31424 -279.936 
L 59.02848 -279.935999 
L 59.74272 -279.935999 
L 60.45696 -279.935998 
L 61.1712 -279.935997 
L 61.88544 -279.935997 
L 62.59968 -279.935996 
L 63.31392 -279.935995 
L 64.02816 -279.935994 
L 64.7424 -279.935992 
L 65.45664 -279.935991 
L 66.17088 -279.935989 
L 66.88512 -279.935987 
L 67.59936 -279.935985 
L 68.3136 -279.935983 
L 69.02784 -279.93598 
L 69.74208 -279.935976 
L 70.45632 -279.935973 
L 71.17056 -279.935969 
L 71.8848 -279.935964 
L 72.59904 -279.935958 
L 73.31328 -279.935952 
L 74.02752 -279.935945 
L 74.74176 -279.935937 
L 75.456 -279.935927 
L 76.17024 -279.935917 
L 76.88448 -279.935905 
L 77.59872 -279.935891 
L 78.31296 -279.935875 
L 79.0272 -279.935857 
L 79.74144 -279.935836 
L 80.45568 -279.935813 
L 81.16992 -279.935786 
L 81.88416 -279.935756 
L 82.5984 -279.935721 
L 83.31264 -279.935682 
L 84.02688 -279.935637 
L 84.74112 -279.935585 
L 85.45536 -279.935526 
L 86.1696 -279.935459 
L 86.88384 -279.935383 
L 87.59808 -279.935296 
L 88.31232 -279.935197 
L 89.02656 -279.935083 
L 89.7408 -279.934954 
L 90.45504 -279.934807 
L 91.16928 -279.934639 
L 91.88352 -279.934447 
L 92.59776 -279.934229 
L 93.312 -279.93398 
L 94.02624 -279.933695 
L 94.74048 -279.933372 
L 95.45472 -279.933002 
L 96.16896 -279.932581 
L 96.8832 -279.932101 
L 97.59744 -279.931553 
L 98.31168 -279.930928 
L 99.02592 -279.930216 
L 99.74016 -279.929404 
L 100.4544 -279.928478 
L 101.16864 -279.927422 
L 101.88288 -279.926219 
L 102.59712 -279.924846 
L 103.31136 -279.923281 
L 104.0256 -279.921497 
L 104.73984 -279.919462 
L 105.45408 -279.917143 
L 106.16832 -279.914498 
L 106.88256 -279.911483 
L 107.5968 -279.908045 
L 108.31104 -279.904126 
L 109.02528 -279.899657 
L 109.73952 -279.894563 
L 110.45376 -279.888755 
L 111.168 -279.882134 
L 111.88224 -279.874585 
L 112.59648 -279.86598 
L 113.31072 -279.85617 
L 114.02496 -279.844986 
L 114.7392 -279.832238 
L 115.45344 -279.817706 
L 116.16768 -279.801141 
L 116.88192 -279.782259 
L 117.59616 -279.760737 
L 118.3104 -279.736206 
L 119.02464 -279.708247 
L 119.73888 -279.676382 
L 120.45312 -279.640067 
L 121.16736 -279.598682 
L 121.8816 -279.551522 
L 122.59584 -279.497785 
L 123.31008 -279.436557 
L 124.02432 -279.3668 
L 124.73856 -279.287333 
L 125.4528 -279.196813 
L 126.16704 -279.093715 
L 126.88128 -278.976305 
L 127.59552 -278.842616 
L 128.30976 -278.690416 
L 129.024 -278.517174 
L 129.73824 -278.320021 
L 130.45248 -278.095711 
L 131.16672 -277.84057 
L 131.88096 -277.550451 
L 132.5952 -277.22067 
L 133.30944 -276.845953 
L 134.02368 -276.420363 
L 134.73792 -275.937238 
L 135.45216 -275.389108 
L 136.1664 -274.767628 
L 136.88064 -274.063493 
L 137.59488 -273.266364 
L 138.30912 -272.364798 
L 139.02336 -271.346177 
L 139.7376 -270.196661 
L 140.45184 -268.901156 
L 141.16608 -267.443303 
L 141.88032 -265.805513 
L 142.59456 -263.969046 
L 143.3088 -261.914145 
L 144.02304 -259.620251 
L 144.73728 -257.066302 
L 145.45152 -254.231129 
L 146.16576 -251.093972 
L 146.88 -247.635107 
L 147.59424 -243.836599 
L 148.30848 -239.683159 
L 149.02272 -235.163095 
L 149.73696 -230.269314 
L 150.4512 -225.00032 
L 151.16544 -219.361153 
L 151.87968 -213.364166 
L 152.59392 -207.02958 
L 153.30816 -200.385715 
L 154.0224 -193.46883 
L 154.73664 -186.322549 
L 155.45088 -178.996846 
L 156.16512 -171.546646 
L 156.87936 -164.030118 
L 157.5936 -156.506775 
L 158.30784 -149.035521 
L 159.02208 -141.672786 
L 159.73632 -134.470868 
L 160.45056 -127.476585 
L 161.1648 -120.730296 
L 161.87904 -114.26531 
L 162.59328 -108.107666 
L 163.30752 -102.276248 
L 164.02176 -96.783167 
L 164.736 -91.634346 
L 165.45024 -86.830235 
L 166.16448 -82.3666 
L 166.87872 -78.235324 
L 167.59296 -74.425194 
L 168.3072 -70.922623 
L 169.02144 -67.712312 
L 169.73568 -64.777827 
L 170.44992 -62.102083 
L 171.16416 -59.667759 
L 171.8784 -57.457626 
L 172.59264 -55.454807 
L 173.30688 -53.642978 
L 174.02112 -52.006507 
L 174.73536 -50.530562 
L 175.4496 -49.201168 
L 176.16384 -38.016 
L 176.87808 -38.016 
L 177.59232 -38.016 
L 178.30656 -38.016 
L 179.0208 -38.016 
L 179.73504 -38.016 
L 180.44928 -38.016 
L 181.16352 -38.016 
L 181.87776 -38.016 
L 182.592 -38.016 
L 183.30624 -38.016 
L 184.02048 -38.016 
L 184.73472 -38.016 
L 185.44896 -38.016 
L 186.1632 -38.016 
L 186.87744 -38.016 
L 187.59168 -38.016 
L 188.30592 -38.016 
L 189.02016 -38.016 
L 189.7344 -38.016 
L 190.44864 -38.016 
L 191.16288 -38.016 
L 191.87712 -38.016 
L 192.59136 -38.016 
L 193.3056 -38.016 
L 194.01984 -38.016 
L 194.73408 -38.016 
L 195.44832 -38.016 
L 196.16256 -38.016 
L 196.8768 -38.016 
L 197.59104 -38.016 
L 198.30528 -38.016 
L 199.01952 -38.016 
L 199.73376 -38.016 
L 200.448 -38.016 
L 201.16224 -38.016 
L 201.87648 -38.016 
L 202.59072 -38.016 
L 203.30496 -38.016 
L 204.0192 -38.016 
L 204.73344 -38.016 
L 205.44768 -38.016 
L 206.16192 -38.016 
L 206.87616 -38.016 
L 207.5904 -38.016 
L 208.30464 -38.016 
L 209.01888 -38.016 
L 209.73312 -38.016 
L 210.44736 -38.016 
L 211.1616 -38.016 
L 211.87584 -38.016 
L 212.59008 -38.016 
L 213.30432 -38.016 
L 214.01856 -38.016 
L 214.7328 -38.016 
L 215.44704 -38.016 
L 216.16128 -38.016 
L 216.87552 -38.016 
L 217.58976 -38.016 
L 218.304 -38.016 
L 219.01824 -38.016 
L 219.73248 -38.016 
L 220.44672 -38.016 
L 221.16096 -38.016 
L 221.8752 -38.016 
L 222.58944 -38.016 
L 223.30368 -38.016 
L 224.01792 -38.016 
L 224.73216 -38.016 
L 225.4464 -38.016 
L 226.16064 -38.016 
L 226.87488 -38.016 
L 227.58912 -38.016 
L 228.30336 -38.016 
L 229.0176 -38.016 
L 229.73184 -38.016 
L 230.44608 -38.016 
L 231.16032 -38.016 
L 231.87456 -38.016 
L 232.5888 -38.016 
L 233.30304 -38.016 
L 234.01728 -38.016 
L 234.73152 -38.016 
L 235.44576 -38.016 
L 236.16 -38.016 
L 236.87424 -38.016 
L 237.58848 -38.016 
L 238.30272 -38.016 
L 239.01696 -38.016 
L 239.7312 -38.016 
L 240.44544 -38.016 
L 241.15968 -38.016 
L 241.87392 -38.016 
L 242.58816 -38.016 
L 243.3024 -38.016 
L 244.01664 -38.016 
L 244.73088 -38.016 
L 245.44512 -38.016 
L 246.15936 -38.016 
L 246.8736 -38.016 
L 247.58784 -38.016 
L 248.30208 -38.016 
L 249.01632 -38.016 
L 249.73056 -38.016 
L 250.4448 -38.016 
L 251.15904 -38.016 
L 251.87328 -38.016 
L 252.58752 -38.016 
L 253.30176 -38.016 
L 254.016 -38.016 
L 254.73024 -38.016 
L 255.44448 -38.016 
L 256.15872 -38.016 
L 256.87296 -38.016 
L 257.5872 -38.016 
L 258.30144 -38.016 
L 259.01568 -38.016 
L 259.72992 -38.016 
L 260.44416 -38.016 
L 261.1584 -38.016 
L 261.87264 -38.016 
L 262.58688 -38.016 
L 263.30112 -38.016 
L 264.01536 -38.016 
L 264.7296 -38.016 
L 265.44384 -38.016 
L 266.15808 -38.016 
L 266.87232 -38.016 
L 267.58656 -38.016 
L 268.3008 -38.016 
L 269.01504 -38.016 
L 269.72928 -38.016 
L 270.44352 -38.016 
L 271.15776 -38.016 
L 271.872 -38.016 
L 272.58624 -38.016 
L 273.30048 -38.016 
L 274.01472 -38.016 
L 274.72896 -38.016 
L 275.4432 -38.016 
L 276.15744 -38.016 
L 276.87168 -38.016 
L 277.58592 -38.016 
L 278.30016 -38.016 
L 279.0144 -38.016 
L 279.72864 -38.016 
L 280.44288 -38.016 
L 281.15712 -38.016 
L 281.87136 -38.016 
L 282.5856 -38.016 
L 283.29984 -38.016 
L 284.01408 -38.016 
L 284.72832 -38.016 
L 285.44256 -38.016 
L 286.1568 -38.016 
L 286.87104 -38.016 
L 287.58528 -38.016 
L 288.29952 -38.016 
L 289.01376 -38.016 
L 289.728 -38.016 
L 290.44224 -38.016 
L 291.15648 -38.016 
L 291.87072 -38.016 
L 292.58496 -38.016 
L 293.2992 -38.016 
L 294.01344 -38.016 
L 294.72768 -38.016 
L 295.44192 -38.016 
L 296.15616 -38.016 
L 296.8704 -38.016 
L 297.58464 -38.016 
L 298.29888 -38.016 
L 299.01312 -38.016 
L 299.72736 -38.016 
L 300.4416 -38.016 
L 301.15584 -38.016 
L 301.87008 -38.016 
L 302.58432 -38.016 
L 303.29856 -38.016 
L 304.0128 -38.016 
L 304.72704 -38.016 
L 305.44128 -38.016 
L 306.15552 -38.016 
L 306.86976 -38.016 
L 307.584 -38.016 
L 308.29824 -38.016 
L 309.01248 -38.016 
L 309.72672 -38.016 
L 310.44096 -38.016 
L 311.1552 -38.016 
L 311.86944 -38.016 
L 312.58368 -38.016 
L 313.29792 -38.016 
L 314.01216 -38.016 
L 314.7264 -38.016 
L 315.44064 -38.016 
L 316.15488 -38.016 
L 316.86912 -38.016 
L 317.58336 -38.016 
L 318.2976 -38.016 
L 319.01184 -38.016 
L 319.72608 -38.016 
L 320.44032 -38.016 
L 321.15456 -38.016 
L 321.8688 -38.016 
L 322.58304 -38.016 
L 323.29728 -38.016 
L 324.01152 -38.016 
L 324.72576 -38.016 
L 325.44 -38.016 
L 326.15424 -38.016 
L 326.86848 -38.016 
L 327.58272 -38.016 
L 328.29696 -38.016 
L 329.0112 -38.016 
L 329.72544 -38.016 
L 330.43968 -38.016 
L 331.15392 -38.016 
L 331.86816 -38.016 
L 332.5824 -38.016 
L 333.29664 -38.016 
L 334.01088 -38.016 
L 334.72512 -38.016 
L 335.43936 -38.016 
L 336.1536 -38.016 
L 336.86784 -38.016 
L 337.58208 -38.016 
L 338.29632 -38.016 
L 339.01056 -38.016 
L 339.7248 -38.016 
L 340.43904 -38.016 
L 341.15328 -38.016 
L 341.86752 -38.016 
L 342.58176 -38.016 
L 343.296 -38.016 
L 344.01024 -38.016 
L 344.72448 -38.016 
L 345.43872 -38.016 
L 346.15296 -38.016 
L 346.8672 -38.016 
L 347.58144 -38.016 
L 348.29568 -38.016 
L 349.00992 -38.016 
L 349.72416 -38.016 
L 350.4384 -38.016 
L 351.15264 -38.016 
L 351.86688 -38.016 
L 352.58112 -38.016 
L 353.29536 -38.016 
L 354.0096 -38.016 
L 354.72384 -38.016 
L 355.43808 -38.016 
L 356.15232 -38.016 
L 356.86656 -38.016 
L 357.5808 -38.016 
L 358.29504 -38.016 
L 359.00928 -38.016 
L 359.72352 -38.016 
L 360.43776 -38.016 
L 361.152 -38.016 
L 361.86624 -38.016 
L 362.58048 -38.016 
L 363.29472 -38.016 
L 364.00896 -38.016 
L 364.7232 -38.016 
L 365.43744 -38.016 
L 366.15168 -38.016 
L 366.86592 -38.016 
L 367.58016 -38.016 
L 368.2944 -38.016 
L 369.00864 -38.016 
L 369.72288 -38.016 
L 370.43712 -38.016 
L 371.15136 -38.016 
L 371.8656 -38.016 
L 372.57984 -38.016 
L 373.29408 -38.016 
L 374.00832 -38.016 
L 374.72256 -38.016 
L 375.4368 -38.016 
L 376.15104 -38.016 
L 376.86528 -38.016 
L 377.57952 -38.016 
L 378.29376 -38.016 
L 379.008 -38.016 
L 379.72224 -38.016 
L 380.43648 -38.016 
L 381.15072 -38.016 
L 381.86496 -38.016 
L 382.5792 -38.016 
L 383.29344 -38.016 
L 384.00768 -38.016 
L 384.72192 -38.016 
L 385.43616 -38.016 
L 386.1504 -38.016 
L 386.86464 -38.016 
L 387.57888 -38.016 
L 388.29312 -38.016 
L 389.00736 -38.016 
L 389.7216 -38.016 
L 390.43584 -38.016 
L 391.15008 -38.016 
L 391.86432 -38.016 
L 392.57856 -38.016 
L 393.2928 -38.016 
L 394.00704 -38.016 
L 394.72128 -38.016 
L 395.43552 -38.016 
L 396.14976 -38.016 
L 396.864 -38.016 
L 397.57824 -38.016 
L 398.29248 -38.016 
L 399.00672 -38.016 
L 399.72096 -38.016 
L 400.4352 -38.016 
L 401.14944 -38.016 
L 401.86368 -38.016 
L 402.57792 -38.016 
L 403.29216 -38.016 
L 404.0064 -38.016 
L 404.72064 -38.016 
L 405.43488 -38.016 
L 406.14912 -38.016 
L 406.86336 -38.016 
L 407.5776 -38.016 
L 408.29184 -38.016 
L 409.00608 -38.016 
L 409.72032 -38.016 
L 410.43456 -38.016 
L 411.1488 -38.016 
L 411.86304 -38.016 
L 412.57728 -38.016 
L 413.29152 -38.016 
L 414.00576 -38.016 
L 414.72 -38.016 
L 414.72 -38.016 
L 414.72 -38.016 
L 414.00576 -38.016 
L 413.29152 -38.016 
L 412.57728 -38.016 
L 411.86304 -38.016 
L 411.1488 -38.016 
L 410.43456 -38.016 
L 409.72032 -38.016 
L 409.00608 -38.016 
L 408.29184 -38.016 
L 407.5776 -38.016 
L 406.86336 -38.016 
L 406.14912 -38.016 
L 405.43488 -38.016 
L 404.72064 -38.016 
L 404.0064 -38.016 
L 403.29216 -38.016 
L 402.57792 -38.016 
L 401.86368 -38.016 
L 401.14944 -38.016 
L 400.4352 -38.016 
L 399.72096 -38.016 
L 399.00672 -38.016 
L 398.29248 -38.016 
L 397.57824 -38.016 
L 396.864 -38.016 
L 396.14976 -38.016 
L 395.43552 -38.016 
L 394.72128 -38.016 
L 394.00704 -38.016 
L 393.2928 -38.016 
L 392.57856 -38.016 
L 391.86432 -38.016 
L 391.15008 -38.016 
L 390.43584 -38.016 
L 389.7216 -38.016 
L 389.00736 -38.016 
L 388.29312 -38.016 
L 387.57888 -38.016 
L 386.86464 -38.016 
L 386.1504 -38.016 
L 385.43616 -38.016 
L 384.72192 -38.016 
L 384.00768 -38.016 
L 383.29344 -38.016 
L 382.5792 -38.016 
L 381.86496 -38.016 
L 381.15072 -38.016 
L 380.43648 -38.016 
L 379.72224 -38.016 
L 379.008 -38.016 
L 378.29376 -38.016 
L 377.57952 -38.016 
L 376.86528 -38.016 
L 376.15104 -38.016 
L 375.4368 -38.016 
L 374.72256 -38.016 
L 374.00832 -38.016 
L 373.29408 -38.016 
L 372.57984 -38.016 
L 371.8656 -38.016 
L 371.15136 -38.016 
L 370.43712 -38.016 
L 369.72288 -38.016 
L 369.00864 -38.016 
L 368.2944 -38.016 
L 367.58016 -38.016 
L 366.86592 -38.016 
L 366.15168 -38.016 
L 365.43744 -38.016 
L 364.7232 -38.016 
L 364.00896 -38.016 
L 363.29472 -38.016 
L 362.58048 -38.016 
L 361.86624 -38.016 
L 361.152 -38.016 
L 360.43776 -38.016 
L 359.72352 -38.016 
L 359.00928 -38.016 
L 358.29504 -38.016 
L 357.5808 -38.016 
L 356.86656 -38.016 
L 356.15232 -38.016 
L 355.43808 -38.016 
L 354.72384 -38.016 
L 354.0096 -38.016 
L 353.29536 -38.016 
L 352.58112 -38.016 
L 351.86688 -38.016 
L 351.15264 -38.016 
L 350.4384 -38.016 
L 349.72416 -38.016 
L 349.00992 -38.016 
L 348.29568 -38.016 
L 347.58144 -38.016 
L 346.8672 -38.016 
L 346.15296 -38.016 
L 345.43872 -38.016 
L 344.72448 -38.016 
L 344.01024 -38.016 
L 343.296 -38.016 
L 342.58176 -38.016 
L 341.86752 -38.016 
L 341.15328 -38.016 
L 340.43904 -38.016 
L 339.7248 -38.016 
L 339.01056 -38.016 
L 338.29632 -38.016 
L 337.58208 -38.016 
L 336.86784 -38.016 
L 336.1536 -38.016 
L 335.43936 -38.016 
L 334.72512 -38.016 
L 334.01088 -38.016 
L 333.29664 -38.016 
L 332.5824 -38.016 
L 331.86816 -38.016 
L 331.15392 -38.016 
L 330.43968 -38.016 
L 329.72544 -38.016 
L 329.0112 -38.016 
L 328.29696 -38.016 
L 327.58272 -38.016 
L 326.86848 -38.016 
L 326.15424 -38.016 
L 325.44 -38.016 
L 324.72576 -38.016 
L 324.01152 -38.016 
L 323.29728 -38.016 
L 322.58304 -38.016 
L 321.8688 -38.016 
L 321.15456 -38.016 
L 320.44032 -38.016 
L 319.72608 -38.016 
L 319.01184 -38.016 
L 318.2976 -38.016 
L 317.58336 -38.016 
L 316.86912 -38.016 
L 316.15488 -38.016 
L 315.44064 -38.016 
L 314.7264 -38.016 
L 314.01216 -38.016 
L 313.29792 -38.016 
L 312.58368 -38.016 
L 311.86944 -38.016 
L 311.1552 -38.016 
L 310.44096 -38.016 
L 309.72672 -38.016 
L 309.01248 -38.016 
L 308.29824 -38.016 
L 307.584 -38.016 
L 306.86976 -38.016 
L 306.15552 -38.016 
L 305.44128 -38.016 
L 304.72704 -38.016 
L 304.0128 -38.016 
L 303.29856 -38.016 
L 302.58432 -38.016 
L 301.87008 -38.016 
L 301.15584 -38.016 
L 300.4416 -38.016 
L 299.72736 -38.016 
L 299.01312 -38.016 
L 298.29888 -38.016 
L 297.58464 -38.016 
L 296.8704 -38.016 
L 296.15616 -38.016 
L 295.44192 -38.016 
L 294.72768 -38.016 
L 294.01344 -38.016 
L 293.2992 -38.016 
L 292.58496 -38.016 
L 291.87072 -38.016 
L 291.15648 -38.016 
L 290.44224 -38.016 
L 289.728 -38.016 
L 289.01376 -38.016 
L 288.29952 -38.016 
L 287.58528 -38.016 
L 286.87104 -38.016 
L 286.1568 -38.016 
L 285.44256 -38.016 
L 284.72832 -38.016 
L 284.01408 -38.016 
L 283.29984 -38.016 
L 282.5856 -38.016 
L 281.87136 -38.016 
L 281.15712 -38.016 
L 280.44288 -38.016 
L 279.72864 -38.016 
L 279.0144 -38.016 
L 278.30016 -38.016 
L 277.58592 -38.016 
L 276.87168 -38.016 
L 276.15744 -38.016 
L 275.4432 -38.016 
L 274.72896 -38.016 
L 274.01472 -38.016 
L 273.30048 -38.016 
L 272.58624 -38.016 
L 271.872 -38.016 
L 271.15776 -38.016 
L 270.44352 -38.016 
L 269.72928 -38.016 
L 269.01504 -38.016 
L 268.3008 -38.016 
L 267.58656 -38.016 
L 266.87232 -38.016 
L 266.15808 -38.016 
L 265.44384 -38.016 
L 264.7296 -38.016 
L 264.01536 -38.016 
L 263.30112 -38.016 
L 262.58688 -38.016 
L 261.87264 -38.016 
L 261.1584 -38.016 
L 260.44416 -38.016 
L 259.72992 -38.016 
L 259.01568 -38.016 
L 258.30144 -38.016 
L 257.5872 -38.016 
L 256.87296 -38.016 
L 256.15872 -38.016 
L 255.44448 -38.016 
L 254.73024 -38.016 
L 254.016 -38.016 
L 253.30176 -38.016 
L 252.58752 -38.016 
L 251.87328 -38.016 
L 251.15904 -38.016 
L 250.4448 -38.016 
L 249.73056 -38.016 
L 249.01632 -38.016 
L 248.30208 -38.016 
L 247.58784 -38.016 
L 246.8736 -38.016 
L 246.15936 -38.016 
L 245.44512 -38.016 
L 244.73088 -38.016 
L 244.01664 -38.016 
L 243.3024 -38.016 
L 242.58816 -38.016 
L 241.87392 -38.016 
L 241.15968 -38.016 
L 240.44544 -38.016 
L 239.7312 -38.016 
L 239.01696 -38.016 
L 238.30272 -38.016 
L 237.58848 -38.016 
L 236.87424 -38.016 
L 236.16 -38.016 
L 235.44576 -38.016 
L 234.73152 -38.016 
L 234.01728 -38.016 
L 233.30304 -38.016 
L 232.5888 -38.016 
L 231.87456 -38.016 
L 231.16032 -38.016 
L 230.44608 -38.016 
L 229.73184 -38.016 
L 229.0176 -38.016 
L 228.30336 -38.016 
L 227.58912 -38.016 
L 226.87488 -38.016 
L 226.16064 -38.016 
L 225.4464 -38.016 
L 224.73216 -38.016 
L 224.01792 -38.016 
L 223.30368 -38.016 
L 222.58944 -38.016 
L 221.8752 -38.016 
L 221.16096 -38.016 
L 220.44672 -38.016 
L 219.73248 -38.016 
L 219.01824 -38.016 
L 218.304 -38.016 
L 217.58976 -38.016 
L 216.87552 -38.016 
L 216.16128 -38.016 
L 215.44704 -38.016 
L 214.7328 -38.016 
L 214.01856 -38.016 
L 213.30432 -38.016 
L 212.59008 -38.016 
L 211.87584 -38.016 
L 211.1616 -38.016 
L 210.44736 -38.016 
L 209.73312 -38.016 
L 209.01888 -38.016 
L 208.30464 -38.016 
L 207.5904 -38.016 
L 206.87616 -38.016 
L 206.16192 -38.016 
L 205.44768 -38.016 
L 204.73344 -38.016 
L 204.0192 -38.016 
L 203.30496 -38.016 
L 202.59072 -38.016 
L 201.87648 -38.016 
L 201.16224 -38.016 
L 200.448 -38.016 
L 199.73376 -38.016 
L 199.01952 -38.016 
L 198.30528 -38.016 
L 197.59104 -38.016 
L 196.8768 -38.016 
L 196.16256 -38.016 
L 195.44832 -38.016 
L 194.73408 -38.016 
L 194.01984 -38.016 
L 193.3056 -38.016 
L 192.59136 -38.016 
L 191.87712 -38.016 
L 191.16288 -38.016 
L 190.44864 -38.016 
L 189.7344 -38.016 
L 189.02016 -38.016 
L 188.30592 -38.016 
L 187.59168 -38.016 
L 186.87744 -38.016 
L 186.1632 -38.016 
L 185.44896 -38.016 
L 184.73472 -38.016 
L 184.02048 -40.774426 
L 183.30624 -41.125774 
L 182.592 -41.519975 
L 181.87776 -41.961972 
L 181.16352 -42.457231 
L 180.44928 -43.011781 
L 179.73504 -43.632268 
L 179.0208 -44.325997 
L 178.30656 -45.100985 
L 177.59232 -45.966001 
L 176.87808 -46.930618 
L 176.16384 -48.005246 
L 175.4496 -49.201168 
L 174.73536 -50.530562 
L 174.02112 -52.006507 
L 173.30688 -53.642978 
L 172.59264 -55.454807 
L 171.8784 -57.457626 
L 171.16416 -59.667759 
L 170.44992 -62.102083 
L 169.73568 -64.777827 
L 169.02144 -67.712312 
L 168.3072 -70.922623 
L 167.59296 -74.425194 
L 166.87872 -78.235324 
L 166.16448 -82.3666 
L 165.45024 -86.830235 
L 164.736 -91.634346 
L 164.02176 -96.783167 
L 163.30752 -102.276248 
L 162.59328 -108.107666 
L 161.87904 -114.26531 
L 161.1648 -120.730296 
L 160.45056 -127.476585 
L 159.73632 -134.470868 
L 159.02208 -141.672786 
L 158.30784 -149.035521 
L 157.5936 -156.506775 
L 156.87936 -164.030118 
L 156.16512 -171.546646 
L 155.45088 -178.996846 
L 154.73664 -186.322549 
L 154.0224 -193.46883 
L 153.30816 -200.385715 
L 152.59392 -207.02958 
L 151.87968 -213.364166 
L 151.16544 -219.361153 
L 150.4512 -225.00032 
L 149.73696 -230.269314 
L 149.02272 -235.163095 
L 148.30848 -239.683159 
L 147.59424 -243.836599 
L 146.88 -247.635107 
L 146.16576 -251.093972 
L 145.45152 -254.231129 
L 144.73728 -257.066302 
L 144.02304 -259.620251 
L 143.3088 -261.914145 
L 142.59456 -263.969046 
L 141.88032 -265.805513 
L 141.16608 -267.443303 
L 140.45184 -268.901156 
L 139.7376 -270.196661 
L 139.02336 -271.346177 
L 138.30912 -272.364798 
L 137.59488 -273.266364 
L 136.88064 -274.063493 
L 136.1664 -274.767628 
L 135.45216 -275.389108 
L 134.73792 -275.937238 
L 134.02368 -276.420363 
L 133.30944 -276.845953 
L 132.5952 -277.22067 
L 131.88096 -277.550451 
L 131.16672 -277.84057 
L 130.45248 -278.095711 
L 129.73824 -278.320021 
L 129.024 -278.517174 
L 128.30976 -278.690416 
L 127.59552 -278.842616 
L 126.88128 -278.976305 
L 126.16704 -279.093715 
L 125.4528 -279.196813 
L 124.73856 -279.287333 
L 124.02432 -279.3668 
L 123.31008 -279.436557 
L 122.59584 -279.497785 
L 121.8816 -279.551522 
L 121.16736 -279.598682 
L 120.45312 -279.640067 
L 119.73888 -279.676382 
L 119.02464 -279.708247 
L 118.3104 -279.736206 
L 117.59616 -279.760737 
L 116.88192 -279.782259 
L 116.16768 -279.801141 
L 115.45344 -279.817706 
L 114.7392 -279.832238 
L 114.02496 -279.844986 
L 113.31072 -279.85617 
L 112.59648 -279.86598 
L 111.88224 -279.874585 
L 111.168 -279.882134 
L 110.45376 -279.888755 
L 109.73952 -279.894563 
L 109.02528 -279.899657 
L 108.31104 -279.904126 
L 107.5968 -279.908045 
L 106.88256 -279.911483 
L 106.16832 -279.914498 
L 105.45408 -279.917143 
L 104.73984 -279.919462 
L 104.0256 -279.921497 
L 103.31136 -279.923281 
L 102.59712 -279.924846 
L 101.88288 -279.926219 
L 101.16864 -279.927422 
L 100.4544 -279.928478 
L 99.74016 -279.929404 
L 99.02592 -279.930216 
L 98.31168 -279.930928 
L 97.59744 -279.931553 
L 96.8832 -279.932101 
L 96.16896 -279.932581 
L 95.45472 -279.933002 
L 94.74048 -279.933372 
L 94.02624 -279.933695 
L 93.312 -279.93398 
L 92.59776 -279.934229 
L 91.88352 -279.934447 
L 91.16928 -279.934639 
L 90.45504 -279.934807 
L 89.7408 -279.934954 
L 89.02656 -279.935083 
L 88.31232 -279.935197 
L 87.59808 -279.935296 
L 86.88384 -279.935383 
L 86.1696 -279.935459 
L 85.45536 -279.935526 
L 84.74112 -279.935585 
L 84.02688 -279.935637 
L 83.31264 -279.935682 
L 82.5984 -279.935721 
L 81.88416 -279.935756 
L 81.16992 -279.935786 
L 80.45568 -279.935813 
L 79.74144 -279.935836 
L 79.0272 -279.935857 
L 78.31296 -279.935875 
L 77.59872 -279.935891 
L 76.88448 -279.935905 
L 76.17024 -279.935917 
L 75.456 -279.935927 
L 74.74176 -279.935937 
L 74.02752 -279.935945 
L 73.31328 -279.935952 
L 72.59904 -279.935958 
L 71.8848 -279.935964 
L 71.17056 -279.935969 
L 70.45632 -279.935973 
L 69.74208 -279.935976 
L 69.02784 -279.93598 
L 68.3136 -279.935983 
L 67.59936 -279.935985 
L 66.88512 -279.935987 
L 66.17088 -279.935989 
L 65.45664 -279.935991 
L 64.7424 -279.935992 
L 64.02816 -279.935994 
L 63.31392 -279.935995 
L 62.59968 -279.935996 
L 61.88544 -279.935997 
L 61.1712 -279.935997 
L 60.45696 -279.935998 
L 59.74272 -279.935999 
L 59.02848 -279.935999 
L 58.31424 -279.936 
L 57.6 -279.936 
z
" id="mf5aed98952" style="stroke:#afe88e;"/>
    </defs>
    <g clip-path="url(#p2dad3c0a1f)">
     <use style="fill:#afe88e;stroke:#afe88e;" x="0" xlink:href="#mf5aed98952" y="345.6"/>
    </g>
   </g>
   <g id="line2d_1">
    <path clip-path="url(#p2dad3c0a1f)" d="M 57.6 65.664 
L 114.7392 65.767762 
L 121.16736 66.001318 
L 124.73856 66.312667 
L 127.59552 66.757384 
L 129.73824 67.279979 
L 131.88096 68.049549 
L 133.30944 68.754047 
L 134.73792 69.662762 
L 136.1664 70.832372 
L 137.59488 72.333636 
L 139.02336 74.253823 
L 140.45184 76.698844 
L 141.88032 79.794487 
L 143.3088 83.685855 
L 144.73728 88.533698 
L 146.16576 94.506028 
L 147.59424 101.763401 
L 149.02272 110.436905 
L 150.4512 120.59968 
L 151.87968 132.235834 
L 154.0224 152.13117 
L 156.87936 181.569882 
L 160.45056 218.123415 
L 162.59328 237.492334 
L 164.02176 248.816833 
L 165.45024 258.769765 
L 166.87872 267.364676 
L 168.3072 274.677377 
L 169.73568 280.822173 
L 171.16416 285.932241 
L 172.59264 290.145193 
L 174.02112 293.593493 
L 175.4496 296.398832 
L 176.87808 298.669382 
L 178.30656 300.499015 
L 179.73504 301.967732 
L 181.16352 303.142769 
L 182.592 304.080025 
L 184.02048 304.825574 
L 184.73472 307.584 
L 414.72 307.584 
L 414.72 307.584 
" style="fill:none;stroke:#000000;stroke-linecap:square;stroke-width:0.7;"/>
   </g>
   <g id="patch_3">
    <path d="M 57.6 307.584 
L 57.6 41.472 
" style="fill:none;stroke:#000000;stroke-linecap:square;stroke-linejoin:miter;stroke-width:0.8;"/>
   </g>
   <g id="patch_4">
    <path d="M 414.72 307.584 
L 414.72 41.472 
" style="fill:none;stroke:#000000;stroke-linecap:square;stroke-linejoin:miter;stroke-width:0.8;"/>
   </g>
   <g id="patch_5">
    <path d="M 57.6 307.584 
L 414.72 307.584 
" style="fill:none;stroke:#000000;stroke-linecap:square;stroke-linejoin:miter;stroke-width:0.8;"/>
   </g>
   <g id="patch_6">
    <path d="M 57.6 41.472 
L 414.72 41.472 
" style="fill:none;stroke:#000000;stroke-linecap:square;stroke-linejoin:miter;stroke-width:0.8;"/>
   </g>
   <g id="legend_1">
    <g id="patch_7">
     <path d="M 91.90611 34.09119 
L 246.68736 34.09119 
Q 249.08736 34.09119 249.08736 31.69119 
L 249.08736 15.27744 
Q 249.08736 12.87744 246.68736 12.87744 
L 91.90611 12.87744 
Q 89.50611 12.87744 89.50611 15.27744 
L 89.50611 31.69119 
Q 89.50611 34.09119 91.90611 34.09119 
z
" style="fill:#ffffff;opacity:0.8;stroke:#cccccc;stroke-linejoin:miter;"/>
    </g>
    <g id="patch_8">
     <path d="M 94.30611 26.795565 
L 118.30611 26.795565 
L 118.30611 18.395565 
L 94.30611 18.395565 
z
" style="fill:#509369;stroke:#509369;stroke-linejoin:miter;"/>
    </g>
    <g id="text_1">
     <!-- back -->
     <g transform="translate(127.90611 26.795565)scale(0.12 -0.12)">
      <defs>
       <path d="M 11.53125 5.171875 
L 11.53125 70.796875 
L 2.875 70.796875 
L 2.875 75.984375 
L 20.515625 75.984375 
L 20.515625 43.796875 
Q 23.140625 48.6875 27.21875 51 
Q 31.296875 53.328125 37.3125 53.328125 
Q 46.875 53.328125 52.921875 45.75 
Q 58.984375 38.1875 58.984375 25.984375 
Q 58.984375 13.765625 52.921875 6.171875 
Q 46.875 -1.421875 37.3125 -1.421875 
Q 31.296875 -1.421875 27.21875 0.890625 
Q 23.140625 3.21875 20.515625 8.109375 
L 20.515625 0 
L 2.875 0 
L 2.875 5.171875 
z
M 20.515625 23.390625 
Q 20.515625 14.015625 24.09375 9.109375 
Q 27.6875 4.203125 34.515625 4.203125 
Q 41.40625 4.203125 44.9375 9.71875 
Q 48.484375 15.234375 48.484375 25.984375 
Q 48.484375 36.765625 44.9375 42.234375 
Q 41.40625 47.703125 34.515625 47.703125 
Q 27.6875 47.703125 24.09375 42.765625 
Q 20.515625 37.84375 20.515625 28.515625 
z
" id="DejaVuSerif-98"/>
       <path d="M 39.796875 16.3125 
L 39.796875 27.296875 
L 28.21875 27.296875 
Q 21.53125 27.296875 18.25 24.40625 
Q 14.984375 21.53125 14.984375 15.578125 
Q 14.984375 10.15625 18.296875 6.984375 
Q 21.625 3.8125 27.296875 3.8125 
Q 32.90625 3.8125 36.34375 7.28125 
Q 39.796875 10.75 39.796875 16.3125 
z
M 48.78125 32.421875 
L 48.78125 5.171875 
L 56.78125 5.171875 
L 56.78125 0 
L 39.796875 0 
L 39.796875 5.609375 
Q 36.8125 2 32.90625 0.28125 
Q 29 -1.421875 23.78125 -1.421875 
Q 15.140625 -1.421875 10.0625 3.171875 
Q 4.984375 7.765625 4.984375 15.578125 
Q 4.984375 23.640625 10.796875 28.078125 
Q 16.609375 32.515625 27.203125 32.515625 
L 39.796875 32.515625 
L 39.796875 36.078125 
Q 39.796875 42 36.203125 45.234375 
Q 32.625 48.484375 26.125 48.484375 
Q 20.75 48.484375 17.578125 46.046875 
Q 14.40625 43.609375 13.625 38.8125 
L 8.984375 38.8125 
L 8.984375 49.3125 
Q 13.671875 51.3125 18.09375 52.3125 
Q 22.515625 53.328125 26.703125 53.328125 
Q 37.5 53.328125 43.140625 47.96875 
Q 48.78125 42.625 48.78125 32.421875 
z
" id="DejaVuSerif-97"/>
       <path d="M 51.421875 15.578125 
Q 49.515625 7.28125 44.09375 2.921875 
Q 38.671875 -1.421875 30.078125 -1.421875 
Q 18.75 -1.421875 11.859375 6.078125 
Q 4.984375 13.578125 4.984375 25.984375 
Q 4.984375 38.421875 11.859375 45.875 
Q 18.75 53.328125 30.078125 53.328125 
Q 35.015625 53.328125 39.890625 52.171875 
Q 44.78125 51.03125 49.703125 48.6875 
L 49.703125 35.40625 
L 44.484375 35.40625 
Q 43.453125 42.234375 40.015625 45.359375 
Q 36.578125 48.484375 30.171875 48.484375 
Q 22.90625 48.484375 19.1875 42.84375 
Q 15.484375 37.203125 15.484375 25.984375 
Q 15.484375 14.75 19.171875 9.078125 
Q 22.859375 3.421875 30.171875 3.421875 
Q 35.984375 3.421875 39.453125 6.4375 
Q 42.921875 9.46875 44.1875 15.578125 
z
" id="DejaVuSerif-99"/>
       <path d="M 28.609375 0 
L 3.421875 0 
L 3.421875 5.171875 
L 11.53125 5.171875 
L 11.53125 70.796875 
L 2.875 70.796875 
L 2.875 75.984375 
L 20.515625 75.984375 
L 20.515625 26.515625 
L 42.390625 46.6875 
L 34.90625 46.6875 
L 34.90625 51.90625 
L 58.40625 51.90625 
L 58.40625 46.6875 
L 49.515625 46.6875 
L 34.078125 32.421875 
L 53.8125 5.171875 
L 61.28125 5.171875 
L 61.28125 0 
L 35.6875 0 
L 35.6875 5.171875 
L 43.109375 5.171875 
L 27.59375 26.515625 
L 20.515625 19.921875 
L 20.515625 5.171875 
L 28.609375 5.171875 
z
" id="DejaVuSerif-107"/>
      </defs>
      <use xlink:href="#DejaVuSerif-98"/>
      <use x="64.013672" xlink:href="#DejaVuSerif-97"/>
      <use x="123.632812" xlink:href="#DejaVuSerif-99"/>
      <use x="179.638672" xlink:href="#DejaVuSerif-107"/>
     </g>
    </g>
    <g id="patch_9">
     <path d="M 180.734235 26.795565 
L 204.734235 26.795565 
L 204.734235 18.395565 
L 180.734235 18.395565 
z
" style="fill:#afe88e;stroke:#afe88e;stroke-linejoin:miter;"/>
    </g>
    <g id="text_2">
     <!-- front -->
     <g transform="translate(214.334235 26.795565)scale(0.12 -0.12)">
      <defs>
       <path d="M 43.015625 63.71875 
L 38.28125 63.71875 
Q 38.234375 67.390625 36.203125 69.28125 
Q 34.1875 71.1875 30.328125 71.1875 
Q 25.296875 71.1875 23.234375 68.421875 
Q 21.1875 65.671875 21.1875 58.59375 
L 21.1875 51.90625 
L 35.6875 51.90625 
L 35.6875 46.6875 
L 21.1875 46.6875 
L 21.1875 5.171875 
L 32.71875 5.171875 
L 32.71875 0 
L 3.609375 0 
L 3.609375 5.171875 
L 12.203125 5.171875 
L 12.203125 46.6875 
L 3.609375 46.6875 
L 3.609375 51.90625 
L 12.203125 51.90625 
L 12.203125 58.40625 
Q 12.203125 67.09375 16.71875 71.53125 
Q 21.234375 75.984375 29.984375 75.984375 
Q 33.25 75.984375 36.515625 75.390625 
Q 39.796875 74.8125 43.015625 73.578125 
z
" id="DejaVuSerif-102"/>
       <path d="M 47.796875 52 
L 47.796875 39.015625 
L 42.625 39.015625 
Q 42.390625 42.875 40.484375 44.78125 
Q 38.578125 46.6875 34.90625 46.6875 
Q 28.265625 46.6875 24.71875 42.09375 
Q 21.1875 37.5 21.1875 28.90625 
L 21.1875 5.171875 
L 31.59375 5.171875 
L 31.59375 0 
L 4.109375 0 
L 4.109375 5.171875 
L 12.203125 5.171875 
L 12.203125 46.78125 
L 3.609375 46.78125 
L 3.609375 51.90625 
L 21.1875 51.90625 
L 21.1875 42.671875 
Q 23.828125 48.09375 27.96875 50.703125 
Q 32.125 53.328125 38.09375 53.328125 
Q 40.28125 53.328125 42.703125 52.984375 
Q 45.125 52.640625 47.796875 52 
z
" id="DejaVuSerif-114"/>
       <path d="M 30.078125 3.421875 
Q 37.3125 3.421875 40.984375 9.125 
Q 44.671875 14.84375 44.671875 25.984375 
Q 44.671875 37.109375 40.984375 42.796875 
Q 37.3125 48.484375 30.078125 48.484375 
Q 22.859375 48.484375 19.171875 42.796875 
Q 15.484375 37.109375 15.484375 25.984375 
Q 15.484375 14.84375 19.1875 9.125 
Q 22.90625 3.421875 30.078125 3.421875 
z
M 30.078125 -1.421875 
Q 18.75 -1.421875 11.859375 6.078125 
Q 4.984375 13.578125 4.984375 25.984375 
Q 4.984375 38.375 11.84375 45.84375 
Q 18.703125 53.328125 30.078125 53.328125 
Q 41.453125 53.328125 48.3125 45.84375 
Q 55.171875 38.375 55.171875 25.984375 
Q 55.171875 13.578125 48.3125 6.078125 
Q 41.453125 -1.421875 30.078125 -1.421875 
z
" id="DejaVuSerif-111"/>
       <path d="M 4.109375 0 
L 4.109375 5.171875 
L 12.203125 5.171875 
L 12.203125 46.6875 
L 3.609375 46.6875 
L 3.609375 51.90625 
L 21.1875 51.90625 
L 21.1875 42.671875 
Q 23.6875 47.953125 27.65625 50.640625 
Q 31.640625 53.328125 36.921875 53.328125 
Q 45.515625 53.328125 49.5625 48.390625 
Q 53.609375 43.453125 53.609375 33.015625 
L 53.609375 5.171875 
L 61.625 5.171875 
L 61.625 0 
L 36.8125 0 
L 36.8125 5.171875 
L 44.578125 5.171875 
L 44.578125 30.171875 
Q 44.578125 39.703125 42.234375 43.234375 
Q 39.890625 46.78125 33.984375 46.78125 
Q 27.734375 46.78125 24.453125 42.203125 
Q 21.1875 37.640625 21.1875 28.90625 
L 21.1875 5.171875 
L 29 5.171875 
L 29 0 
z
" id="DejaVuSerif-110"/>
       <path d="M 10.796875 46.6875 
L 2.875 46.6875 
L 2.875 51.90625 
L 10.796875 51.90625 
L 10.796875 68.015625 
L 19.828125 68.015625 
L 19.828125 51.90625 
L 36.71875 51.90625 
L 36.71875 46.6875 
L 19.828125 46.6875 
L 19.828125 13.71875 
Q 19.828125 7.125 21.09375 5.265625 
Q 22.359375 3.421875 25.78125 3.421875 
Q 29.296875 3.421875 30.90625 5.484375 
Q 32.515625 7.5625 32.625 12.203125 
L 39.40625 12.203125 
Q 39.015625 5.125 35.546875 1.84375 
Q 32.078125 -1.421875 25 -1.421875 
Q 17.234375 -1.421875 14.015625 2.015625 
Q 10.796875 5.46875 10.796875 13.71875 
z
" id="DejaVuSerif-116"/>
      </defs>
      <use xlink:href="#DejaVuSerif-102"/>
      <use x="37.011719" xlink:href="#DejaVuSerif-114"/>
      <use x="84.814453" xlink:href="#DejaVuSerif-111"/>
      <use x="145.019531" xlink:href="#DejaVuSerif-110"/>
      <use x="209.423828" xlink:href="#DejaVuSerif-116"/>
     </g>
    </g>
   </g>
  </g>
 </g>
 <defs>
  <clipPath id="p2dad3c0a1f">
   <rect height="266.112" width="357.12" x="57.6" y="41.472"/>
  </clipPath>
 </defs>
</svg>
