<?xml version="1.0" encoding="utf-8" standalone="no"?>
<!DOCTYPE svg PUBLIC "-//W3C//DTD SVG 1.1//EN"
  "http://www.w3.org/Graphics/SVG/1.1/DTD/svg11.dtd">
<!-- Created with matplotlib (https://matplotlib.org/) -->
<svg height="345.6pt" version="1.1" viewBox="0 0 460.8 345.6" width="460.8pt" xmlns="http://www.w3.org/2000/svg" xmlns:xlink="http://www.w3.org/1999/xlink">
 <metadata>
  <rdf:RDF xmlns:cc="http://creativecommons.org/ns#" xmlns:dc="http://purl.org/dc/elements/1.1/" xmlns:rdf="http://www.w3.org/1999/02/22-rdf-syntax-ns#">
   <cc:Work>
    <dc:type rdf:resource="http://purl.org/dc/dcmitype/StillImage"/>
    <dc:date>2022-05-25T01:06:02.773611</dc:date>
    <dc:format>image/svg+xml</dc:format>
    <dc:creator>
     <cc:Agent>
      <dc:title>Matplotlib v3.3.4, https://matplotlib.org/</dc:title>
     </cc:Agent>
    </dc:creator>
   </cc:Work>
  </rdf:RDF>
 </metadata>
 <defs>
  <style type="text/css">*{stroke-linecap:butt;stroke-linejoin:round;}</style>
 </defs>
 <g id="figure_1">
  <g id="patch_1">
   <path d="M 0 345.6 
L 460.8 345.6 
L 460.8 0 
L 0 0 
z
" style="fill:#ffffff;"/>
  </g>
  <g id="axes_1">
   <g id="patch_2">
    <path d="M 57.6 307.584 
L 414.72 307.584 
L 414.72 41.472 
L 57.6 41.472 
z
" style="fill:#ffffff;"/>
   </g>
   <g id="PolyCollection_1">
    <defs>
     <path d="M 57.6 -38.016 
L 57.6 -279.936 
L 58.31424 -279.936 
L 59.02848 -279.936 
L 59.74272 -279.936 
L 60.45696 -279.936 
L 61.1712 -279.936 
L 61.88544 -279.936 
L 62.59968 -279.936 
L 63.31392 -279.936 
L 64.02816 -279.936 
L 64.7424 -279.936 
L 65.45664 -279.936 
L 66.17088 -279.936 
L 66.88512 -279.936 
L 67.59936 -279.936 
L 68.3136 -279.936 
L 69.02784 -279.936 
L 69.74208 -279.936 
L 70.45632 -279.936 
L 71.17056 -279.936 
L 71.8848 -279.936 
L 72.59904 -279.936 
L 73.31328 -279.936 
L 74.02752 -279.936 
L 74.74176 -279.936 
L 75.456 -279.936 
L 76.17024 -279.936 
L 76.88448 -279.936 
L 77.59872 -279.936 
L 78.31296 -279.936 
L 79.0272 -279.936 
L 79.74144 -279.936 
L 80.45568 -279.936 
L 81.16992 -279.936 
L 81.88416 -279.936 
L 82.5984 -279.936 
L 83.31264 -279.936 
L 84.02688 -279.936 
L 84.74112 -279.936 
L 85.45536 -279.936 
L 86.1696 -279.936 
L 86.88384 -279.936 
L 87.59808 -279.936 
L 88.31232 -279.936 
L 89.02656 -279.936 
L 89.7408 -279.936 
L 90.45504 -279.936 
L 91.16928 -279.936 
L 91.88352 -279.936 
L 92.59776 -279.936 
L 93.312 -279.935999 
L 94.02624 -279.935999 
L 94.74048 -279.935999 
L 95.45472 -279.935999 
L 96.16896 -279.935999 
L 96.8832 -279.935999 
L 97.59744 -279.935999 
L 98.31168 -279.935999 
L 99.02592 -279.935998 
L 99.74016 -279.935998 
L 100.4544 -279.935998 
L 101.16864 -279.935997 
L 101.88288 -279.935997 
L 102.59712 -279.935996 
L 103.31136 -279.935996 
L 104.0256 -279.935995 
L 104.73984 -279.935994 
L 105.45408 -279.935992 
L 106.16832 -279.935991 
L 106.88256 -279.935989 
L 107.5968 -279.935986 
L 108.31104 -279.935983 
L 109.02528 -279.935979 
L 109.73952 -279.935974 
L 110.45376 -279.935968 
L 111.168 -279.93596 
L 111.88224 -279.93595 
L 112.59648 -279.935938 
L 113.31072 -279.935922 
L 114.02496 -279.935902 
L 114.7392 -279.935878 
L 115.45344 -279.935847 
L 116.16768 -279.935808 
L 116.88192 -279.93576 
L 117.59616 -279.9357 
L 118.3104 -279.935625 
L 119.02464 -279.935531 
L 119.73888 -279.935415 
L 120.45312 -279.935272 
L 121.16736 -279.935094 
L 121.8816 -279.934874 
L 122.59584 -279.934604 
L 123.31008 -279.934272 
L 124.02432 -279.933865 
L 124.73856 -279.933367 
L 125.4528 -279.93276 
L 126.16704 -279.932021 
L 126.88128 -279.931124 
L 127.59552 -279.930039 
L 128.30976 -279.928728 
L 129.024 -279.927148 
L 129.73824 -279.925251 
L 130.45248 -279.922977 
L 131.16672 -279.920259 
L 131.88096 -279.917018 
L 132.5952 -279.913166 
L 133.30944 -279.908597 
L 134.02368 -279.903193 
L 134.73792 -279.896819 
L 135.45216 -279.889319 
L 136.1664 -279.880518 
L 136.88064 -279.870218 
L 137.59488 -279.858195 
L 138.30912 -279.844198 
L 139.02336 -279.827946 
L 139.7376 -279.809123 
L 140.45184 -279.787382 
L 141.16608 -279.762334 
L 141.88032 -279.733551 
L 142.59456 -279.700562 
L 143.3088 -279.662849 
L 144.02304 -279.619845 
L 144.73728 -279.570931 
L 145.45152 -279.515434 
L 146.16576 -279.452626 
L 146.88 -279.381717 
L 147.59424 -279.301857 
L 148.30848 -279.212132 
L 149.02272 -279.11156 
L 149.73696 -278.999093 
L 150.4512 -278.87361 
L 151.16544 -278.733918 
L 151.87968 -278.578745 
L 152.59392 -278.406744 
L 153.30816 -278.216482 
L 154.0224 -278.006441 
L 154.73664 -277.775008 
L 155.45088 -277.520476 
L 156.16512 -277.241029 
L 156.87936 -276.934737 
L 157.5936 -276.599543 
L 158.30784 -276.233251 
L 159.02208 -275.833507 
L 159.73632 -275.397781 
L 160.45056 -274.923343 
L 161.1648 -274.407232 
L 161.87904 -273.846229 
L 162.59328 -273.236815 
L 163.30752 -272.575127 
L 164.02176 -271.856913 
L 164.736 -271.077469 
L 165.45024 -270.231583 
L 166.16448 -269.313461 
L 166.87872 -268.316656 
L 167.59296 -267.233985 
L 168.3072 -266.057448 
L 169.02144 -264.778136 
L 169.73568 -263.386152 
L 170.44992 -261.870524 
L 171.16416 -260.219135 
L 171.8784 -258.418668 
L 172.59264 -256.454572 
L 173.30688 -254.311062 
L 174.02112 -251.97117 
L 174.73536 -249.416848 
L 175.4496 -246.629154 
L 176.16384 -243.588528 
L 176.87808 -240.275171 
L 177.59232 -236.66956 
L 178.30656 -232.753089 
L 179.0208 -228.508858 
L 179.73504 -223.922594 
L 180.44928 -218.983687 
L 181.16352 -213.686303 
L 181.87776 -208.03052 
L 182.592 -202.023399 
L 183.30624 -195.679899 
L 184.02048 -189.023525 
L 184.73472 -182.086608 
L 185.44896 -174.910118 
L 186.1632 -167.542973 
L 186.87744 -160.04081 
L 187.59168 -152.464304 
L 188.30592 -144.877104 
L 189.02016 -137.343574 
L 189.7344 -129.926488 
L 190.44864 -122.684881 
L 191.16288 -115.672194 
L 191.87712 -108.934836 
L 192.59136 -102.511224 
L 193.3056 -96.431308 
L 194.01984 -90.716539 
L 194.73408 -85.380228 
L 195.44832 -80.428185 
L 196.16256 -75.859573 
L 196.8768 -71.66787 
L 197.59104 -67.841868 
L 198.30528 -64.366661 
L 199.01952 -61.224569 
L 199.73376 -58.395969 
L 200.448 -55.860029 
L 201.16224 -53.595321 
L 201.87648 -51.58034 
L 202.59072 -49.793904 
L 203.30496 -48.215482 
L 204.0192 -46.825421 
L 204.73344 -45.605121 
L 205.44768 -44.537144 
L 206.16192 -43.605271 
L 206.87616 -42.794536 
L 207.5904 -42.091211 
L 208.30464 -41.482783 
L 209.01888 -40.957908 
L 209.73312 -40.506351 
L 210.44736 -40.118925 
L 211.1616 -39.787413 
L 211.87584 -39.504503 
L 212.59008 -39.26371 
L 213.30432 -39.059305 
L 214.01856 -38.886246 
L 214.7328 -38.74011 
L 215.44704 -38.617033 
L 216.16128 -38.513646 
L 216.87552 -38.427027 
L 217.58976 -38.354645 
L 218.304 -38.29432 
L 219.01824 -38.244173 
L 219.73248 -38.202597 
L 220.44672 -38.168217 
L 221.16096 -38.139862 
L 221.8752 -38.116537 
L 222.58944 -38.0974 
L 223.30368 -38.081741 
L 224.01792 -38.068961 
L 224.73216 -38.058558 
L 225.4464 -38.050112 
L 226.16064 -38.043273 
L 226.87488 -38.037751 
L 227.58912 -38.033303 
L 228.30336 -38.029729 
L 229.0176 -38.026866 
L 229.73184 -38.024578 
L 230.44608 -38.022755 
L 231.16032 -38.021306 
L 231.87456 -38.020157 
L 232.5888 -38.019248 
L 233.30304 -38.018532 
L 234.01728 -38.017969 
L 234.73152 -38.017527 
L 235.44576 -38.017181 
L 236.16 -38.016911 
L 236.87424 -38.016701 
L 237.58848 -38.016538 
L 238.30272 -38.016412 
L 239.01696 -38.016315 
L 239.7312 -38.01624 
L 240.44544 -38.016182 
L 241.15968 -38.016138 
L 241.87392 -38.016104 
L 242.58816 -38.016079 
L 243.3024 -38.016059 
L 244.01664 -38.016044 
L 244.73088 -38.016033 
L 245.44512 -38.016025 
L 246.15936 -38.016018 
L 246.8736 -38.016014 
L 247.58784 -38.01601 
L 248.30208 -38.016007 
L 249.01632 -38.016006 
L 249.73056 -38.016004 
L 250.4448 -38.016003 
L 251.15904 -38.016002 
L 251.87328 -38.016002 
L 252.58752 -38.016001 
L 253.30176 -38.016001 
L 254.016 -38.016001 
L 254.73024 -38.016 
L 255.44448 -38.016 
L 256.15872 -38.016 
L 256.87296 -38.016 
L 257.5872 -38.016 
L 258.30144 -38.016 
L 259.01568 -38.016 
L 259.72992 -38.016 
L 260.44416 -38.016 
L 261.1584 -38.016 
L 261.87264 -38.016 
L 262.58688 -38.016 
L 263.30112 -38.016 
L 264.01536 -38.016 
L 264.7296 -38.016 
L 265.44384 -38.016 
L 266.15808 -38.016 
L 266.87232 -38.016 
L 267.58656 -38.016 
L 268.3008 -38.016 
L 269.01504 -38.016 
L 269.72928 -38.016 
L 270.44352 -38.016 
L 271.15776 -38.016 
L 271.872 -38.016 
L 272.58624 -38.016 
L 273.30048 -38.016 
L 274.01472 -38.016 
L 274.72896 -38.016 
L 275.4432 -38.016 
L 276.15744 -38.016 
L 276.87168 -38.016 
L 277.58592 -38.016 
L 278.30016 -38.016 
L 279.0144 -38.016 
L 279.72864 -38.016 
L 280.44288 -38.016 
L 281.15712 -38.016 
L 281.87136 -38.016 
L 282.5856 -38.016 
L 283.29984 -38.016 
L 284.01408 -38.016 
L 284.72832 -38.016 
L 285.44256 -38.016 
L 286.1568 -38.016 
L 286.87104 -38.016 
L 287.58528 -38.016 
L 288.29952 -38.016 
L 289.01376 -38.016 
L 289.728 -38.016 
L 290.44224 -38.016 
L 291.15648 -38.016 
L 291.87072 -38.016 
L 292.58496 -38.016 
L 293.2992 -38.016 
L 294.01344 -38.016 
L 294.72768 -38.016 
L 295.44192 -38.016 
L 296.15616 -38.016 
L 296.8704 -38.016 
L 297.58464 -38.016 
L 298.29888 -38.016 
L 299.01312 -38.016 
L 299.72736 -38.016 
L 300.4416 -38.016 
L 301.15584 -38.016 
L 301.87008 -38.016 
L 302.58432 -38.016 
L 303.29856 -38.016 
L 304.0128 -38.016 
L 304.72704 -38.016 
L 305.44128 -38.016 
L 306.15552 -38.016 
L 306.86976 -38.016 
L 307.584 -38.016 
L 308.29824 -38.016 
L 309.01248 -38.016 
L 309.72672 -38.016 
L 310.44096 -38.016 
L 311.1552 -38.016 
L 311.86944 -38.016 
L 312.58368 -38.016 
L 313.29792 -38.016 
L 314.01216 -38.016 
L 314.7264 -38.016 
L 315.44064 -38.016 
L 316.15488 -38.016 
L 316.86912 -38.016 
L 317.58336 -38.016 
L 318.2976 -38.016 
L 319.01184 -38.016 
L 319.72608 -38.016 
L 320.44032 -38.016 
L 321.15456 -38.016 
L 321.8688 -38.016 
L 322.58304 -38.016 
L 323.29728 -38.016 
L 324.01152 -38.016 
L 324.72576 -38.016 
L 325.44 -38.016 
L 326.15424 -38.016 
L 326.86848 -38.016 
L 327.58272 -38.016 
L 328.29696 -38.016 
L 329.0112 -38.016 
L 329.72544 -38.016 
L 330.43968 -38.016 
L 331.15392 -38.016 
L 331.86816 -38.016 
L 332.5824 -38.016 
L 333.29664 -38.016 
L 334.01088 -38.016 
L 334.72512 -38.016 
L 335.43936 -38.016 
L 336.1536 -38.016 
L 336.86784 -38.016 
L 337.58208 -38.016 
L 338.29632 -38.016 
L 339.01056 -38.016 
L 339.7248 -38.016 
L 340.43904 -38.016 
L 341.15328 -38.016 
L 341.86752 -38.016 
L 342.58176 -38.016 
L 343.296 -38.016 
L 344.01024 -38.016 
L 344.72448 -38.016 
L 345.43872 -38.016 
L 346.15296 -38.016 
L 346.8672 -38.016 
L 347.58144 -38.016 
L 348.29568 -38.016 
L 349.00992 -38.016 
L 349.72416 -38.016 
L 350.4384 -38.016 
L 351.15264 -38.016 
L 351.86688 -38.016 
L 352.58112 -38.016 
L 353.29536 -38.016 
L 354.0096 -38.016 
L 354.72384 -38.016 
L 355.43808 -38.016 
L 356.15232 -38.016 
L 356.86656 -38.016 
L 357.5808 -38.016 
L 358.29504 -38.016 
L 359.00928 -38.016 
L 359.72352 -38.016 
L 360.43776 -38.016 
L 361.152 -38.016 
L 361.86624 -38.016 
L 362.58048 -38.016 
L 363.29472 -38.016 
L 364.00896 -38.016 
L 364.7232 -38.016 
L 365.43744 -38.016 
L 366.15168 -38.016 
L 366.86592 -38.016 
L 367.58016 -38.016 
L 368.2944 -38.016 
L 369.00864 -38.016 
L 369.72288 -38.016 
L 370.43712 -38.016 
L 371.15136 -38.016 
L 371.8656 -38.016 
L 372.57984 -38.016 
L 373.29408 -38.016 
L 374.00832 -38.016 
L 374.72256 -38.016 
L 375.4368 -38.016 
L 376.15104 -38.016 
L 376.86528 -38.016 
L 377.57952 -38.016 
L 378.29376 -38.016 
L 379.008 -38.016 
L 379.72224 -38.016 
L 380.43648 -38.016 
L 381.15072 -38.016 
L 381.86496 -38.016 
L 382.5792 -38.016 
L 383.29344 -38.016 
L 384.00768 -38.016 
L 384.72192 -38.016 
L 385.43616 -38.016 
L 386.1504 -38.016 
L 386.86464 -38.016 
L 387.57888 -38.016 
L 388.29312 -38.016 
L 389.00736 -38.016 
L 389.7216 -38.016 
L 390.43584 -38.016 
L 391.15008 -38.016 
L 391.86432 -38.016 
L 392.57856 -38.016 
L 393.2928 -38.016 
L 394.00704 -38.016 
L 394.72128 -38.016 
L 395.43552 -38.016 
L 396.14976 -38.016 
L 396.864 -38.016 
L 397.57824 -38.016 
L 398.29248 -38.016 
L 399.00672 -38.016 
L 399.72096 -38.016 
L 400.4352 -38.016 
L 401.14944 -38.016 
L 401.86368 -38.016 
L 402.57792 -38.016 
L 403.29216 -38.016 
L 404.0064 -38.016 
L 404.72064 -38.016 
L 405.43488 -38.016 
L 406.14912 -38.016 
L 406.86336 -38.016 
L 407.5776 -38.016 
L 408.29184 -38.016 
L 409.00608 -38.016 
L 409.72032 -38.016 
L 410.43456 -38.016 
L 411.1488 -38.016 
L 411.86304 -38.016 
L 412.57728 -38.016 
L 413.29152 -38.016 
L 414.00576 -38.016 
L 414.72 -38.016 
L 414.72 -38.016 
L 414.72 -38.016 
L 414.00576 -38.016 
L 413.29152 -38.016 
L 412.57728 -38.016 
L 411.86304 -38.016 
L 411.1488 -38.016 
L 410.43456 -38.016 
L 409.72032 -38.016 
L 409.00608 -38.016 
L 408.29184 -38.016 
L 407.5776 -38.016 
L 406.86336 -38.016 
L 406.14912 -38.016 
L 405.43488 -38.016 
L 404.72064 -38.016 
L 404.0064 -38.016 
L 403.29216 -38.016 
L 402.57792 -38.016 
L 401.86368 -38.016 
L 401.14944 -38.016 
L 400.4352 -38.016 
L 399.72096 -38.016 
L 399.00672 -38.016 
L 398.29248 -38.016 
L 397.57824 -38.016 
L 396.864 -38.016 
L 396.14976 -38.016 
L 395.43552 -38.016 
L 394.72128 -38.016 
L 394.00704 -38.016 
L 393.2928 -38.016 
L 392.57856 -38.016 
L 391.86432 -38.016 
L 391.15008 -38.016 
L 390.43584 -38.016 
L 389.7216 -38.016 
L 389.00736 -38.016 
L 388.29312 -38.016 
L 387.57888 -38.016 
L 386.86464 -38.016 
L 386.1504 -38.016 
L 385.43616 -38.016 
L 384.72192 -38.016 
L 384.00768 -38.016 
L 383.29344 -38.016 
L 382.5792 -38.016 
L 381.86496 -38.016 
L 381.15072 -38.016 
L 380.43648 -38.016 
L 379.72224 -38.016 
L 379.008 -38.016 
L 378.29376 -38.016 
L 377.57952 -38.016 
L 376.86528 -38.016 
L 376.15104 -38.016 
L 375.4368 -38.016 
L 374.72256 -38.016 
L 374.00832 -38.016 
L 373.29408 -38.016 
L 372.57984 -38.016 
L 371.8656 -38.016 
L 371.15136 -38.016 
L 370.43712 -38.016 
L 369.72288 -38.016 
L 369.00864 -38.016 
L 368.2944 -38.016 
L 367.58016 -38.016 
L 366.86592 -38.016 
L 366.15168 -38.016 
L 365.43744 -38.016 
L 364.7232 -38.016 
L 364.00896 -38.016 
L 363.29472 -38.016 
L 362.58048 -38.016 
L 361.86624 -38.016 
L 361.152 -38.016 
L 360.43776 -38.016 
L 359.72352 -38.016 
L 359.00928 -38.016 
L 358.29504 -38.016 
L 357.5808 -38.016 
L 356.86656 -38.016 
L 356.15232 -38.016 
L 355.43808 -38.016 
L 354.72384 -38.016 
L 354.0096 -38.016 
L 353.29536 -38.016 
L 352.58112 -38.016 
L 351.86688 -38.016 
L 351.15264 -38.016 
L 350.4384 -38.016 
L 349.72416 -38.016 
L 349.00992 -38.016 
L 348.29568 -38.016 
L 347.58144 -38.016 
L 346.8672 -38.016 
L 346.15296 -38.016 
L 345.43872 -38.016 
L 344.72448 -38.016 
L 344.01024 -38.016 
L 343.296 -38.016 
L 342.58176 -38.016 
L 341.86752 -38.016 
L 341.15328 -38.016 
L 340.43904 -38.016 
L 339.7248 -38.016 
L 339.01056 -38.016 
L 338.29632 -38.016 
L 337.58208 -38.016 
L 336.86784 -38.016 
L 336.1536 -38.016 
L 335.43936 -38.016 
L 334.72512 -38.016 
L 334.01088 -38.016 
L 333.29664 -38.016 
L 332.5824 -38.016 
L 331.86816 -38.016 
L 331.15392 -38.016 
L 330.43968 -38.016 
L 329.72544 -38.016 
L 329.0112 -38.016 
L 328.29696 -38.016 
L 327.58272 -38.016 
L 326.86848 -38.016 
L 326.15424 -38.016 
L 325.44 -38.016 
L 324.72576 -38.016 
L 324.01152 -38.016 
L 323.29728 -38.016 
L 322.58304 -38.016 
L 321.8688 -38.016 
L 321.15456 -38.016 
L 320.44032 -38.016 
L 319.72608 -38.016 
L 319.01184 -38.016 
L 318.2976 -38.016 
L 317.58336 -38.016 
L 316.86912 -38.016 
L 316.15488 -38.016 
L 315.44064 -38.016 
L 314.7264 -38.016 
L 314.01216 -38.016 
L 313.29792 -38.016 
L 312.58368 -38.016 
L 311.86944 -38.016 
L 311.1552 -38.016 
L 310.44096 -38.016 
L 309.72672 -38.016 
L 309.01248 -38.016 
L 308.29824 -38.016 
L 307.584 -38.016 
L 306.86976 -38.016 
L 306.15552 -38.016 
L 305.44128 -38.016 
L 304.72704 -38.016 
L 304.0128 -38.016 
L 303.29856 -38.016 
L 302.58432 -38.016 
L 301.87008 -38.016 
L 301.15584 -38.016 
L 300.4416 -38.016 
L 299.72736 -38.016 
L 299.01312 -38.016 
L 298.29888 -38.016 
L 297.58464 -38.016 
L 296.8704 -38.016 
L 296.15616 -38.016 
L 295.44192 -38.016 
L 294.72768 -38.016 
L 294.01344 -38.016 
L 293.2992 -38.016 
L 292.58496 -38.016 
L 291.87072 -38.016 
L 291.15648 -38.016 
L 290.44224 -38.016 
L 289.728 -38.016 
L 289.01376 -38.016 
L 288.29952 -38.016 
L 287.58528 -38.016 
L 286.87104 -38.016 
L 286.1568 -38.016 
L 285.44256 -38.016 
L 284.72832 -38.016 
L 284.01408 -38.016 
L 283.29984 -38.016 
L 282.5856 -38.016 
L 281.87136 -38.016 
L 281.15712 -38.016 
L 280.44288 -38.016 
L 279.72864 -38.016 
L 279.0144 -38.016 
L 278.30016 -38.016 
L 277.58592 -38.016 
L 276.87168 -38.016 
L 276.15744 -38.016 
L 275.4432 -38.016 
L 274.72896 -38.016 
L 274.01472 -38.016 
L 273.30048 -38.016 
L 272.58624 -38.016 
L 271.872 -38.016 
L 271.15776 -38.016 
L 270.44352 -38.016 
L 269.72928 -38.016 
L 269.01504 -38.016 
L 268.3008 -38.016 
L 267.58656 -38.016 
L 266.87232 -38.016 
L 266.15808 -38.016 
L 265.44384 -38.016 
L 264.7296 -38.016 
L 264.01536 -38.016 
L 263.30112 -38.016 
L 262.58688 -38.016 
L 261.87264 -38.016 
L 261.1584 -38.016 
L 260.44416 -38.016 
L 259.72992 -38.016 
L 259.01568 -38.016 
L 258.30144 -38.016 
L 257.5872 -38.016 
L 256.87296 -38.016 
L 256.15872 -38.016 
L 255.44448 -38.016 
L 254.73024 -38.016 
L 254.016 -38.016 
L 253.30176 -38.016 
L 252.58752 -38.016 
L 251.87328 -38.016 
L 251.15904 -38.016 
L 250.4448 -38.016 
L 249.73056 -38.016 
L 249.01632 -38.016 
L 248.30208 -38.016 
L 247.58784 -38.016 
L 246.8736 -38.016 
L 246.15936 -38.016 
L 245.44512 -38.016 
L 244.73088 -38.016 
L 244.01664 -38.016 
L 243.3024 -38.016 
L 242.58816 -38.016 
L 241.87392 -38.016 
L 241.15968 -38.016 
L 240.44544 -38.016 
L 239.7312 -38.016 
L 239.01696 -38.016 
L 238.30272 -38.016 
L 237.58848 -38.016 
L 236.87424 -38.016 
L 236.16 -38.016 
L 235.44576 -38.016 
L 234.73152 -38.016 
L 234.01728 -38.016 
L 233.30304 -38.016 
L 232.5888 -38.016 
L 231.87456 -38.016 
L 231.16032 -38.016 
L 230.44608 -38.016 
L 229.73184 -38.016 
L 229.0176 -38.016 
L 228.30336 -38.016 
L 227.58912 -38.016 
L 226.87488 -38.016 
L 226.16064 -38.016 
L 225.4464 -38.016 
L 224.73216 -38.016 
L 224.01792 -38.016 
L 223.30368 -38.016 
L 222.58944 -38.016 
L 221.8752 -38.016 
L 221.16096 -38.016 
L 220.44672 -38.016 
L 219.73248 -38.016 
L 219.01824 -38.016 
L 218.304 -38.016 
L 217.58976 -38.016 
L 216.87552 -38.016 
L 216.16128 -38.016 
L 215.44704 -38.016 
L 214.7328 -38.016 
L 214.01856 -38.016 
L 213.30432 -38.016 
L 212.59008 -38.016 
L 211.87584 -38.016 
L 211.1616 -38.016 
L 210.44736 -38.016 
L 209.73312 -38.016 
L 209.01888 -38.016 
L 208.30464 -38.016 
L 207.5904 -38.016 
L 206.87616 -38.016 
L 206.16192 -38.016 
L 205.44768 -38.016 
L 204.73344 -38.016 
L 204.0192 -38.016 
L 203.30496 -38.016 
L 202.59072 -38.016 
L 201.87648 -38.016 
L 201.16224 -38.016 
L 200.448 -38.016 
L 199.73376 -38.016 
L 199.01952 -38.016 
L 198.30528 -38.016 
L 197.59104 -38.016 
L 196.8768 -38.016 
L 196.16256 -38.016 
L 195.44832 -38.016 
L 194.73408 -38.016 
L 194.01984 -38.016 
L 193.3056 -38.016 
L 192.59136 -38.016 
L 191.87712 -38.016 
L 191.16288 -38.016 
L 190.44864 -38.016 
L 189.7344 -38.016 
L 189.02016 -38.016 
L 188.30592 -38.016 
L 187.59168 -38.016 
L 186.87744 -38.016 
L 186.1632 -38.016 
L 185.44896 -38.016 
L 184.73472 -38.016 
L 184.02048 -38.016 
L 183.30624 -38.016 
L 182.592 -38.016 
L 181.87776 -38.016 
L 181.16352 -38.016 
L 180.44928 -38.016 
L 179.73504 -38.016 
L 179.0208 -38.016 
L 178.30656 -38.016 
L 177.59232 -38.016 
L 176.87808 -38.016 
L 176.16384 -38.016 
L 175.4496 -38.016 
L 174.73536 -38.016 
L 174.02112 -38.016 
L 173.30688 -38.016 
L 172.59264 -38.016 
L 171.8784 -38.016 
L 171.16416 -38.016 
L 170.44992 -38.016 
L 169.73568 -38.016 
L 169.02144 -38.016 
L 168.3072 -38.016 
L 167.59296 -38.016 
L 166.87872 -38.016 
L 166.16448 -38.016 
L 165.45024 -38.016 
L 164.736 -38.016 
L 164.02176 -38.016 
L 163.30752 -38.016 
L 162.59328 -38.016 
L 161.87904 -38.016 
L 161.1648 -38.016 
L 160.45056 -38.016 
L 159.73632 -38.016 
L 159.02208 -38.016 
L 158.30784 -38.016 
L 157.5936 -38.016 
L 156.87936 -38.016 
L 156.16512 -38.016 
L 155.45088 -38.016 
L 154.73664 -38.016 
L 154.0224 -38.016 
L 153.30816 -38.016 
L 152.59392 -38.016 
L 151.87968 -38.016 
L 151.16544 -38.016 
L 150.4512 -38.016 
L 149.73696 -38.016 
L 149.02272 -38.016 
L 148.30848 -38.016 
L 147.59424 -38.016 
L 146.88 -38.016 
L 146.16576 -38.016 
L 145.45152 -38.016 
L 144.73728 -38.016 
L 144.02304 -38.016 
L 143.3088 -38.016 
L 142.59456 -38.016 
L 141.88032 -38.016 
L 141.16608 -38.016 
L 140.45184 -38.016 
L 139.7376 -38.016 
L 139.02336 -38.016 
L 138.30912 -38.016 
L 137.59488 -38.016 
L 136.88064 -38.016 
L 136.1664 -38.016 
L 135.45216 -38.016 
L 134.73792 -38.016 
L 134.02368 -38.016 
L 133.30944 -38.016 
L 132.5952 -38.016 
L 131.88096 -38.016 
L 131.16672 -38.016 
L 130.45248 -38.016 
L 129.73824 -38.016 
L 129.024 -38.016 
L 128.30976 -38.016 
L 127.59552 -38.016 
L 126.88128 -38.016 
L 126.16704 -38.016 
L 125.4528 -38.016 
L 124.73856 -38.016 
L 124.02432 -38.016 
L 123.31008 -38.016 
L 122.59584 -38.016 
L 121.8816 -38.016 
L 121.16736 -38.016 
L 120.45312 -38.016 
L 119.73888 -38.016 
L 119.02464 -38.016 
L 118.3104 -38.016 
L 117.59616 -38.016 
L 116.88192 -38.016 
L 116.16768 -38.016 
L 115.45344 -38.016 
L 114.7392 -38.016 
L 114.02496 -38.016 
L 113.31072 -38.016 
L 112.59648 -38.016 
L 111.88224 -38.016 
L 111.168 -38.016 
L 110.45376 -38.016 
L 109.73952 -38.016 
L 109.02528 -38.016 
L 108.31104 -38.016 
L 107.5968 -38.016 
L 106.88256 -38.016 
L 106.16832 -38.016 
L 105.45408 -38.016 
L 104.73984 -38.016 
L 104.0256 -38.016 
L 103.31136 -38.016 
L 102.59712 -38.016 
L 101.88288 -38.016 
L 101.16864 -38.016 
L 100.4544 -38.016 
L 99.74016 -38.016 
L 99.02592 -38.016 
L 98.31168 -38.016 
L 97.59744 -38.016 
L 96.8832 -38.016 
L 96.16896 -38.016 
L 95.45472 -38.016 
L 94.74048 -38.016 
L 94.02624 -38.016 
L 93.312 -38.016 
L 92.59776 -38.016 
L 91.88352 -38.016 
L 91.16928 -38.016 
L 90.45504 -38.016 
L 89.7408 -38.016 
L 89.02656 -38.016 
L 88.31232 -38.016 
L 87.59808 -38.016 
L 86.88384 -38.016 
L 86.1696 -38.016 
L 85.45536 -38.016 
L 84.74112 -38.016 
L 84.02688 -38.016 
L 83.31264 -38.016 
L 82.5984 -38.016 
L 81.88416 -38.016 
L 81.16992 -38.016 
L 80.45568 -38.016 
L 79.74144 -38.016 
L 79.0272 -38.016 
L 78.31296 -38.016 
L 77.59872 -38.016 
L 76.88448 -38.016 
L 76.17024 -38.016 
L 75.456 -38.016 
L 74.74176 -38.016 
L 74.02752 -38.016 
L 73.31328 -38.016 
L 72.59904 -38.016 
L 71.8848 -38.016 
L 71.17056 -38.016 
L 70.45632 -38.016 
L 69.74208 -38.016 
L 69.02784 -38.016 
L 68.3136 -38.016 
L 67.59936 -38.016 
L 66.88512 -38.016 
L 66.17088 -38.016 
L 65.45664 -38.016 
L 64.7424 -38.016 
L 64.02816 -38.016 
L 63.31392 -38.016 
L 62.59968 -38.016 
L 61.88544 -38.016 
L 61.1712 -38.016 
L 60.45696 -38.016 
L 59.74272 -38.016 
L 59.02848 -38.016 
L 58.31424 -38.016 
L 57.6 -38.016 
z
" id="md349017312" style="stroke:#509369;"/>
    </defs>
    <g clip-path="url(#p924681886c)">
     <use style="fill:#509369;stroke:#509369;" x="0" xlink:href="#md349017312" y="345.6"/>
    </g>
   </g>
   <g id="PolyCollection_2">
    <defs>
     <path d="M 57.6 -279.936 
L 57.6 -279.936 
L 58.31424 -279.936 
L 59.02848 -279.936 
L 59.74272 -279.936 
L 60.45696 -279.936 
L 61.1712 -279.936 
L 61.88544 -279.936 
L 62.59968 -279.936 
L 63.31392 -279.936 
L 64.02816 -279.936 
L 64.7424 -279.936 
L 65.45664 -279.936 
L 66.17088 -279.936 
L 66.88512 -279.936 
L 67.59936 -279.936 
L 68.3136 -279.936 
L 69.02784 -279.936 
L 69.74208 -279.936 
L 70.45632 -279.936 
L 71.17056 -279.936 
L 71.8848 -279.936 
L 72.59904 -279.936 
L 73.31328 -279.936 
L 74.02752 -279.936 
L 74.74176 -279.936 
L 75.456 -279.936 
L 76.17024 -279.936 
L 76.88448 -279.936 
L 77.59872 -279.936 
L 78.31296 -279.936 
L 79.0272 -279.936 
L 79.74144 -279.936 
L 80.45568 -279.936 
L 81.16992 -279.936 
L 81.88416 -279.936 
L 82.5984 -279.936 
L 83.31264 -279.936 
L 84.02688 -279.936 
L 84.74112 -279.936 
L 85.45536 -279.936 
L 86.1696 -279.936 
L 86.88384 -279.936 
L 87.59808 -279.936 
L 88.31232 -279.936 
L 89.02656 -279.936 
L 89.7408 -279.936 
L 90.45504 -279.936 
L 91.16928 -279.936 
L 91.88352 -279.936 
L 92.59776 -279.936 
L 93.312 -279.935999 
L 94.02624 -279.935999 
L 94.74048 -279.935999 
L 95.45472 -279.935999 
L 96.16896 -279.935999 
L 96.8832 -279.935999 
L 97.59744 -279.935999 
L 98.31168 -279.935999 
L 99.02592 -279.935998 
L 99.74016 -279.935998 
L 100.4544 -279.935998 
L 101.16864 -279.935997 
L 101.88288 -279.935997 
L 102.59712 -279.935996 
L 103.31136 -279.935996 
L 104.0256 -279.935995 
L 104.73984 -279.935994 
L 105.45408 -279.935992 
L 106.16832 -279.935991 
L 106.88256 -279.935989 
L 107.5968 -279.935986 
L 108.31104 -279.935983 
L 109.02528 -279.935979 
L 109.73952 -279.935974 
L 110.45376 -279.935968 
L 111.168 -279.93596 
L 111.88224 -279.93595 
L 112.59648 -279.935938 
L 113.31072 -279.935922 
L 114.02496 -279.935902 
L 114.7392 -279.935878 
L 115.45344 -279.935847 
L 116.16768 -279.935808 
L 116.88192 -279.93576 
L 117.59616 -279.9357 
L 118.3104 -279.935625 
L 119.02464 -279.935531 
L 119.73888 -279.935415 
L 120.45312 -279.935272 
L 121.16736 -279.935094 
L 121.8816 -279.934874 
L 122.59584 -279.934604 
L 123.31008 -279.934272 
L 124.02432 -279.933865 
L 124.73856 -279.933367 
L 125.4528 -279.93276 
L 126.16704 -279.932021 
L 126.88128 -279.931124 
L 127.59552 -279.930039 
L 128.30976 -279.928728 
L 129.024 -279.927148 
L 129.73824 -279.925251 
L 130.45248 -279.922977 
L 131.16672 -279.920259 
L 131.88096 -279.917018 
L 132.5952 -279.913166 
L 133.30944 -279.908597 
L 134.02368 -279.903193 
L 134.73792 -279.896819 
L 135.45216 -279.889319 
L 136.1664 -279.880518 
L 136.88064 -279.870218 
L 137.59488 -279.858195 
L 138.30912 -279.844198 
L 139.02336 -279.827946 
L 139.7376 -279.809123 
L 140.45184 -279.787382 
L 141.16608 -279.762334 
L 141.88032 -279.733551 
L 142.59456 -279.700562 
L 143.3088 -279.662849 
L 144.02304 -279.619845 
L 144.73728 -279.570931 
L 145.45152 -279.515434 
L 146.16576 -279.452626 
L 146.88 -279.381717 
L 147.59424 -279.301857 
L 148.30848 -279.212132 
L 149.02272 -279.11156 
L 149.73696 -278.999093 
L 150.4512 -278.87361 
L 151.16544 -278.733918 
L 151.87968 -278.578745 
L 152.59392 -278.406744 
L 153.30816 -278.216482 
L 154.0224 -278.006441 
L 154.73664 -277.775008 
L 155.45088 -277.520476 
L 156.16512 -277.241029 
L 156.87936 -276.934737 
L 157.5936 -276.599543 
L 158.30784 -276.233251 
L 159.02208 -275.833507 
L 159.73632 -275.397781 
L 160.45056 -274.923343 
L 161.1648 -274.407232 
L 161.87904 -273.846229 
L 162.59328 -273.236815 
L 163.30752 -272.575127 
L 164.02176 -271.856913 
L 164.736 -271.077469 
L 165.45024 -270.231583 
L 166.16448 -269.313461 
L 166.87872 -268.316656 
L 167.59296 -267.233985 
L 168.3072 -266.057448 
L 169.02144 -264.778136 
L 169.73568 -263.386152 
L 170.44992 -261.870524 
L 171.16416 -260.219135 
L 171.8784 -258.418668 
L 172.59264 -256.454572 
L 173.30688 -254.311062 
L 174.02112 -251.97117 
L 174.73536 -249.416848 
L 175.4496 -246.629154 
L 176.16384 -243.588528 
L 176.87808 -240.275171 
L 177.59232 -236.66956 
L 178.30656 -232.753089 
L 179.0208 -228.508858 
L 179.73504 -223.922594 
L 180.44928 -218.983687 
L 181.16352 -213.686303 
L 181.87776 -208.03052 
L 182.592 -202.023399 
L 183.30624 -195.679899 
L 184.02048 -189.023525 
L 184.73472 -182.086608 
L 185.44896 -174.910118 
L 186.1632 -167.542973 
L 186.87744 -160.04081 
L 187.59168 -152.464304 
L 188.30592 -144.877104 
L 189.02016 -137.343574 
L 189.7344 -129.926488 
L 190.44864 -122.684881 
L 191.16288 -115.672194 
L 191.87712 -108.934836 
L 192.59136 -102.511224 
L 193.3056 -96.431308 
L 194.01984 -90.716539 
L 194.73408 -85.380228 
L 195.44832 -80.428185 
L 196.16256 -75.859573 
L 196.8768 -71.66787 
L 197.59104 -67.841868 
L 198.30528 -64.366661 
L 199.01952 -61.224569 
L 199.73376 -58.395969 
L 200.448 -55.860029 
L 201.16224 -53.595321 
L 201.87648 -51.58034 
L 202.59072 -49.793904 
L 203.30496 -48.215482 
L 204.0192 -46.825421 
L 204.73344 -45.605121 
L 205.44768 -44.537144 
L 206.16192 -43.605271 
L 206.87616 -42.794536 
L 207.5904 -42.091211 
L 208.30464 -41.482783 
L 209.01888 -40.957908 
L 209.73312 -40.506351 
L 210.44736 -40.118925 
L 211.1616 -39.787413 
L 211.87584 -39.504503 
L 212.59008 -39.26371 
L 213.30432 -39.059305 
L 214.01856 -38.886246 
L 214.7328 -38.74011 
L 215.44704 -38.617033 
L 216.16128 -38.513646 
L 216.87552 -38.427027 
L 217.58976 -38.354645 
L 218.304 -38.29432 
L 219.01824 -38.244173 
L 219.73248 -38.202597 
L 220.44672 -38.168217 
L 221.16096 -38.139862 
L 221.8752 -38.116537 
L 222.58944 -38.0974 
L 223.30368 -38.081741 
L 224.01792 -38.068961 
L 224.73216 -38.058558 
L 225.4464 -38.050112 
L 226.16064 -38.043273 
L 226.87488 -38.037751 
L 227.58912 -38.033303 
L 228.30336 -38.029729 
L 229.0176 -38.026866 
L 229.73184 -38.024578 
L 230.44608 -38.022755 
L 231.16032 -38.021306 
L 231.87456 -38.020157 
L 232.5888 -38.019248 
L 233.30304 -38.018532 
L 234.01728 -38.017969 
L 234.73152 -38.017527 
L 235.44576 -38.017181 
L 236.16 -38.016911 
L 236.87424 -38.016701 
L 237.58848 -38.016538 
L 238.30272 -38.016412 
L 239.01696 -38.016315 
L 239.7312 -38.01624 
L 240.44544 -38.016182 
L 241.15968 -38.016138 
L 241.87392 -38.016104 
L 242.58816 -38.016079 
L 243.3024 -38.016059 
L 244.01664 -38.016044 
L 244.73088 -38.016033 
L 245.44512 -38.016025 
L 246.15936 -38.016018 
L 246.8736 -38.016014 
L 247.58784 -38.01601 
L 248.30208 -38.016007 
L 249.01632 -38.016006 
L 249.73056 -38.016004 
L 250.4448 -38.016003 
L 251.15904 -38.016002 
L 251.87328 -38.016002 
L 252.58752 -38.016001 
L 253.30176 -38.016001 
L 254.016 -38.016001 
L 254.73024 -38.016 
L 255.44448 -38.016 
L 256.15872 -38.016 
L 256.87296 -38.016 
L 257.5872 -38.016 
L 258.30144 -38.016 
L 259.01568 -38.016 
L 259.72992 -38.016 
L 260.44416 -38.016 
L 261.1584 -38.016 
L 261.87264 -38.016 
L 262.58688 -38.016 
L 263.30112 -38.016 
L 264.01536 -38.016 
L 264.7296 -38.016 
L 265.44384 -38.016 
L 266.15808 -38.016 
L 266.87232 -38.016 
L 267.58656 -38.016 
L 268.3008 -38.016 
L 269.01504 -38.016 
L 269.72928 -38.016 
L 270.44352 -38.016 
L 271.15776 -38.016 
L 271.872 -38.016 
L 272.58624 -38.016 
L 273.30048 -38.016 
L 274.01472 -38.016 
L 274.72896 -38.016 
L 275.4432 -38.016 
L 276.15744 -38.016 
L 276.87168 -38.016 
L 277.58592 -38.016 
L 278.30016 -38.016 
L 279.0144 -38.016 
L 279.72864 -38.016 
L 280.44288 -38.016 
L 281.15712 -38.016 
L 281.87136 -38.016 
L 282.5856 -38.016 
L 283.29984 -38.016 
L 284.01408 -38.016 
L 284.72832 -38.016 
L 285.44256 -38.016 
L 286.1568 -38.016 
L 286.87104 -38.016 
L 287.58528 -38.016 
L 288.29952 -38.016 
L 289.01376 -38.016 
L 289.728 -38.016 
L 290.44224 -38.016 
L 291.15648 -38.016 
L 291.87072 -38.016 
L 292.58496 -38.016 
L 293.2992 -38.016 
L 294.01344 -38.016 
L 294.72768 -38.016 
L 295.44192 -38.016 
L 296.15616 -38.016 
L 296.8704 -38.016 
L 297.58464 -38.016 
L 298.29888 -38.016 
L 299.01312 -38.016 
L 299.72736 -38.016 
L 300.4416 -38.016 
L 301.15584 -38.016 
L 301.87008 -38.016 
L 302.58432 -38.016 
L 303.29856 -38.016 
L 304.0128 -38.016 
L 304.72704 -38.016 
L 305.44128 -38.016 
L 306.15552 -38.016 
L 306.86976 -38.016 
L 307.584 -38.016 
L 308.29824 -38.016 
L 309.01248 -38.016 
L 309.72672 -38.016 
L 310.44096 -38.016 
L 311.1552 -38.016 
L 311.86944 -38.016 
L 312.58368 -38.016 
L 313.29792 -38.016 
L 314.01216 -38.016 
L 314.7264 -38.016 
L 315.44064 -38.016 
L 316.15488 -38.016 
L 316.86912 -38.016 
L 317.58336 -38.016 
L 318.2976 -38.016 
L 319.01184 -38.016 
L 319.72608 -38.016 
L 320.44032 -38.016 
L 321.15456 -38.016 
L 321.8688 -38.016 
L 322.58304 -38.016 
L 323.29728 -38.016 
L 324.01152 -38.016 
L 324.72576 -38.016 
L 325.44 -38.016 
L 326.15424 -38.016 
L 326.86848 -38.016 
L 327.58272 -38.016 
L 328.29696 -38.016 
L 329.0112 -38.016 
L 329.72544 -38.016 
L 330.43968 -38.016 
L 331.15392 -38.016 
L 331.86816 -38.016 
L 332.5824 -38.016 
L 333.29664 -38.016 
L 334.01088 -38.016 
L 334.72512 -38.016 
L 335.43936 -38.016 
L 336.1536 -38.016 
L 336.86784 -38.016 
L 337.58208 -38.016 
L 338.29632 -38.016 
L 339.01056 -38.016 
L 339.7248 -38.016 
L 340.43904 -38.016 
L 341.15328 -38.016 
L 341.86752 -38.016 
L 342.58176 -38.016 
L 343.296 -38.016 
L 344.01024 -38.016 
L 344.72448 -38.016 
L 345.43872 -38.016 
L 346.15296 -38.016 
L 346.8672 -38.016 
L 347.58144 -38.016 
L 348.29568 -38.016 
L 349.00992 -38.016 
L 349.72416 -38.016 
L 350.4384 -38.016 
L 351.15264 -38.016 
L 351.86688 -38.016 
L 352.58112 -38.016 
L 353.29536 -38.016 
L 354.0096 -38.016 
L 354.72384 -38.016 
L 355.43808 -38.016 
L 356.15232 -38.016 
L 356.86656 -38.016 
L 357.5808 -38.016 
L 358.29504 -38.016 
L 359.00928 -38.016 
L 359.72352 -38.016 
L 360.43776 -38.016 
L 361.152 -38.016 
L 361.86624 -38.016 
L 362.58048 -38.016 
L 363.29472 -38.016 
L 364.00896 -38.016 
L 364.7232 -38.016 
L 365.43744 -38.016 
L 366.15168 -38.016 
L 366.86592 -38.016 
L 367.58016 -38.016 
L 368.2944 -38.016 
L 369.00864 -38.016 
L 369.72288 -38.016 
L 370.43712 -38.016 
L 371.15136 -38.016 
L 371.8656 -38.016 
L 372.57984 -38.016 
L 373.29408 -38.016 
L 374.00832 -38.016 
L 374.72256 -38.016 
L 375.4368 -38.016 
L 376.15104 -38.016 
L 376.86528 -38.016 
L 377.57952 -38.016 
L 378.29376 -38.016 
L 379.008 -38.016 
L 379.72224 -38.016 
L 380.43648 -38.016 
L 381.15072 -38.016 
L 381.86496 -38.016 
L 382.5792 -38.016 
L 383.29344 -38.016 
L 384.00768 -38.016 
L 384.72192 -38.016 
L 385.43616 -38.016 
L 386.1504 -38.016 
L 386.86464 -38.016 
L 387.57888 -38.016 
L 388.29312 -38.016 
L 389.00736 -38.016 
L 389.7216 -38.016 
L 390.43584 -38.016 
L 391.15008 -38.016 
L 391.86432 -38.016 
L 392.57856 -38.016 
L 393.2928 -38.016 
L 394.00704 -38.016 
L 394.72128 -38.016 
L 395.43552 -38.016 
L 396.14976 -38.016 
L 396.864 -38.016 
L 397.57824 -38.016 
L 398.29248 -38.016 
L 399.00672 -38.016 
L 399.72096 -38.016 
L 400.4352 -38.016 
L 401.14944 -38.016 
L 401.86368 -38.016 
L 402.57792 -38.016 
L 403.29216 -38.016 
L 404.0064 -38.016 
L 404.72064 -38.016 
L 405.43488 -38.016 
L 406.14912 -38.016 
L 406.86336 -38.016 
L 407.5776 -38.016 
L 408.29184 -38.016 
L 409.00608 -38.016 
L 409.72032 -38.016 
L 410.43456 -38.016 
L 411.1488 -38.016 
L 411.86304 -38.016 
L 412.57728 -38.016 
L 413.29152 -38.016 
L 414.00576 -38.016 
L 414.72 -38.016 
L 414.72 -38.016 
L 414.72 -38.016 
L 414.00576 -38.016 
L 413.29152 -38.016 
L 412.57728 -38.016 
L 411.86304 -38.016 
L 411.1488 -38.016 
L 410.43456 -38.016 
L 409.72032 -38.016 
L 409.00608 -38.016 
L 408.29184 -38.016 
L 407.5776 -38.016 
L 406.86336 -38.016 
L 406.14912 -38.016 
L 405.43488 -38.016 
L 404.72064 -38.016 
L 404.0064 -38.016 
L 403.29216 -38.016 
L 402.57792 -38.016 
L 401.86368 -38.016 
L 401.14944 -38.016 
L 400.4352 -38.016 
L 399.72096 -38.016 
L 399.00672 -38.016 
L 398.29248 -38.016 
L 397.57824 -38.016 
L 396.864 -38.016 
L 396.14976 -38.016 
L 395.43552 -38.016 
L 394.72128 -38.016 
L 394.00704 -38.016 
L 393.2928 -38.016 
L 392.57856 -38.016 
L 391.86432 -38.016 
L 391.15008 -38.016 
L 390.43584 -38.016 
L 389.7216 -38.016 
L 389.00736 -38.016 
L 388.29312 -38.016 
L 387.57888 -38.016 
L 386.86464 -38.016 
L 386.1504 -38.016 
L 385.43616 -38.016 
L 384.72192 -38.016 
L 384.00768 -38.016 
L 383.29344 -38.016 
L 382.5792 -38.016 
L 381.86496 -38.016 
L 381.15072 -38.016 
L 380.43648 -38.016 
L 379.72224 -38.016 
L 379.008 -38.016 
L 378.29376 -38.016 
L 377.57952 -38.016 
L 376.86528 -38.016 
L 376.15104 -38.016 
L 375.4368 -38.016 
L 374.72256 -38.016 
L 374.00832 -38.016 
L 373.29408 -38.016 
L 372.57984 -38.016 
L 371.8656 -38.016 
L 371.15136 -38.016 
L 370.43712 -38.016 
L 369.72288 -38.016 
L 369.00864 -38.016 
L 368.2944 -38.016 
L 367.58016 -38.016 
L 366.86592 -38.016 
L 366.15168 -38.016 
L 365.43744 -38.016 
L 364.7232 -38.016 
L 364.00896 -38.016 
L 363.29472 -38.016 
L 362.58048 -38.016 
L 361.86624 -38.016 
L 361.152 -38.016 
L 360.43776 -38.016 
L 359.72352 -38.016 
L 359.00928 -38.016 
L 358.29504 -38.016 
L 357.5808 -38.016 
L 356.86656 -38.016 
L 356.15232 -38.016 
L 355.43808 -38.016 
L 354.72384 -38.016 
L 354.0096 -38.016 
L 353.29536 -38.016 
L 352.58112 -38.016 
L 351.86688 -38.016 
L 351.15264 -38.016 
L 350.4384 -38.016 
L 349.72416 -38.016 
L 349.00992 -38.016 
L 348.29568 -38.016 
L 347.58144 -38.016 
L 346.8672 -38.016 
L 346.15296 -38.016 
L 345.43872 -38.016 
L 344.72448 -38.016 
L 344.01024 -38.016 
L 343.296 -38.016 
L 342.58176 -38.016 
L 341.86752 -38.016 
L 341.15328 -38.016 
L 340.43904 -38.016 
L 339.7248 -38.016 
L 339.01056 -38.016 
L 338.29632 -38.016 
L 337.58208 -38.016 
L 336.86784 -38.016 
L 336.1536 -38.016 
L 335.43936 -38.016 
L 334.72512 -38.016 
L 334.01088 -38.016 
L 333.29664 -38.016 
L 332.5824 -38.016 
L 331.86816 -38.016 
L 331.15392 -38.016 
L 330.43968 -38.016 
L 329.72544 -38.016 
L 329.0112 -38.016 
L 328.29696 -38.016 
L 327.58272 -38.016 
L 326.86848 -38.016 
L 326.15424 -38.016 
L 325.44 -38.016 
L 324.72576 -38.016 
L 324.01152 -38.016 
L 323.29728 -38.016 
L 322.58304 -38.016 
L 321.8688 -38.016 
L 321.15456 -38.016 
L 320.44032 -38.016 
L 319.72608 -38.016 
L 319.01184 -38.016 
L 318.2976 -38.016 
L 317.58336 -38.016 
L 316.86912 -38.016 
L 316.15488 -38.016 
L 315.44064 -38.016 
L 314.7264 -38.016 
L 314.01216 -38.016 
L 313.29792 -38.016 
L 312.58368 -38.016 
L 311.86944 -38.016 
L 311.1552 -38.016 
L 310.44096 -38.016 
L 309.72672 -38.016 
L 309.01248 -38.016 
L 308.29824 -38.016 
L 307.584 -38.016 
L 306.86976 -38.016 
L 306.15552 -38.016 
L 305.44128 -38.016 
L 304.72704 -38.016 
L 304.0128 -38.016 
L 303.29856 -38.016 
L 302.58432 -38.016 
L 301.87008 -38.016 
L 301.15584 -38.016 
L 300.4416 -38.016 
L 299.72736 -38.016 
L 299.01312 -38.016 
L 298.29888 -38.016 
L 297.58464 -38.016 
L 296.8704 -38.016 
L 296.15616 -38.016 
L 295.44192 -38.016 
L 294.72768 -38.016 
L 294.01344 -38.016 
L 293.2992 -38.016 
L 292.58496 -38.016 
L 291.87072 -38.016 
L 291.15648 -38.016 
L 290.44224 -38.016 
L 289.728 -38.016 
L 289.01376 -38.016 
L 288.29952 -38.016 
L 287.58528 -38.016 
L 286.87104 -38.016 
L 286.1568 -38.016 
L 285.44256 -38.016 
L 284.72832 -38.016 
L 284.01408 -38.016 
L 283.29984 -38.016 
L 282.5856 -38.016 
L 281.87136 -38.016 
L 281.15712 -38.016 
L 280.44288 -38.016 
L 279.72864 -38.016 
L 279.0144 -38.016 
L 278.30016 -38.016 
L 277.58592 -38.016 
L 276.87168 -38.016 
L 276.15744 -38.016 
L 275.4432 -38.016 
L 274.72896 -38.016 
L 274.01472 -38.016 
L 273.30048 -38.016 
L 272.58624 -38.016 
L 271.872 -38.016 
L 271.15776 -38.016 
L 270.44352 -38.016 
L 269.72928 -38.016 
L 269.01504 -38.016 
L 268.3008 -38.016 
L 267.58656 -38.016 
L 266.87232 -38.016 
L 266.15808 -38.016 
L 265.44384 -38.016 
L 264.7296 -38.016 
L 264.01536 -38.016 
L 263.30112 -38.016 
L 262.58688 -38.016 
L 261.87264 -38.016 
L 261.1584 -38.016 
L 260.44416 -38.016 
L 259.72992 -38.016 
L 259.01568 -38.016 
L 258.30144 -38.016001 
L 257.5872 -38.016001 
L 256.87296 -38.016001 
L 256.15872 -38.016001 
L 255.44448 -38.016002 
L 254.73024 -38.016003 
L 254.016 -38.016003 
L 253.30176 -38.016005 
L 252.58752 -38.016006 
L 251.87328 -38.016008 
L 251.15904 -38.016011 
L 250.4448 -38.016015 
L 249.73056 -38.016019 
L 249.01632 -38.016026 
L 248.30208 -38.016034 
L 247.58784 -38.016045 
L 246.8736 -38.016059 
L 246.15936 -38.016077 
L 245.44512 -38.016101 
L 244.73088 -38.016132 
L 244.01664 -38.016171 
L 243.3024 -38.016222 
L 242.58816 -38.016288 
L 241.87392 -38.016372 
L 241.15968 -38.01648 
L 240.44544 -38.016618 
L 239.7312 -38.016793 
L 239.01696 -38.017015 
L 238.30272 -38.017297 
L 237.58848 -38.017653 
L 236.87424 -38.018101 
L 236.16 -38.018665 
L 235.44576 -38.019373 
L 234.73152 -38.020259 
L 234.01728 -38.021365 
L 233.30304 -38.022742 
L 232.5888 -38.024454 
L 231.87456 -38.026576 
L 231.16032 -38.0292 
L 230.44608 -38.032439 
L 229.73184 -38.036425 
L 229.0176 -38.041321 
L 228.30336 -38.047319 
L 227.58912 -38.054651 
L 226.87488 -38.063593 
L 226.16064 -38.074473 
L 225.4464 -38.08768 
L 224.73216 -38.103676 
L 224.01792 -38.123003 
L 223.30368 -38.146304 
L 222.58944 -38.174331 
L 221.8752 -38.207965 
L 221.16096 -38.248236 
L 220.44672 -38.296345 
L 219.73248 -38.353688 
L 219.01824 -38.421881 
L 218.304 -38.502795 
L 217.58976 -38.598588 
L 216.87552 -38.71174 
L 216.16128 -38.845096 
L 215.44704 -39.001912 
L 214.7328 -39.1859 
L 214.01856 -39.401284 
L 213.30432 -39.652853 
L 212.59008 -39.946024 
L 211.87584 -40.286904 
L 211.1616 -40.682355 
L 210.44736 -41.140064 
L 209.73312 -41.668614 
L 209.01888 -42.277547 
L 208.30464 -42.977438 
L 207.5904 -43.779957 
L 206.87616 -44.697919 
L 206.16192 -45.745338 
L 205.44768 -46.93745 
L 204.73344 -48.290724 
L 204.0192 -49.822849 
L 203.30496 -51.552672 
L 202.59072 -53.500112 
L 201.87648 -55.686005 
L 201.16224 -58.131889 
L 200.448 -60.859715 
L 199.73376 -63.891469 
L 199.01952 -67.248693 
L 198.30528 -70.951895 
L 197.59104 -75.019851 
L 196.8768 -79.46879 
L 196.16256 -84.31147 
L 195.44832 -89.55618 
L 194.73408 -95.205675 
L 194.01984 -101.256128 
L 193.3056 -107.696134 
L 192.59136 -114.505877 
L 191.87712 -121.65654 
L 191.16288 -129.110055 
L 190.44864 -136.819305 
L 189.7344 -144.72881 
L 189.02016 -152.775968 
L 188.30592 -160.892796 
L 187.59168 -169.008103 
L 186.87744 -177.049961 
L 186.1632 -184.948289 
L 185.44896 -192.637343 
L 184.73472 -200.05793 
L 184.02048 -207.15917 
L 183.30624 -213.899704 
L 182.592 -220.248307 
L 181.87776 -226.183918 
L 181.16352 -231.695174 
L 180.44928 -236.779539 
L 179.73504 -241.442167 
L 179.0208 -245.694612 
L 178.30656 -249.553496 
L 177.59232 -253.039224 
L 176.87808 -256.174804 
L 176.16384 -258.984809 
L 175.4496 -261.494506 
L 174.73536 -263.729147 
L 174.02112 -265.713419 
L 173.30688 -267.471037 
L 172.59264 -269.024451 
L 171.8784 -270.394667 
L 171.16416 -271.601143 
L 170.44992 -272.66175 
L 169.73568 -273.592787 
L 169.02144 -274.409026 
L 168.3072 -275.123784 
L 167.59296 -275.749016 
L 166.87872 -276.295407 
L 166.16448 -276.772478 
L 165.45024 -277.188685 
L 164.736 -277.55152 
L 164.02176 -277.867606 
L 163.30752 -278.142785 
L 162.59328 -278.382203 
L 161.87904 -278.590385 
L 161.1648 -278.771302 
L 160.45056 -278.92844 
L 159.73632 -279.06485 
L 159.02208 -279.183205 
L 158.30784 -279.285841 
L 157.5936 -279.3748 
L 156.87936 -279.451864 
L 156.16512 -279.518588 
L 155.45088 -279.576331 
L 154.73664 -279.626273 
L 154.0224 -279.669446 
L 153.30816 -279.706746 
L 152.59392 -279.738953 
L 151.87968 -279.766747 
L 151.16544 -279.790718 
L 150.4512 -279.81138 
L 149.73696 -279.829178 
L 149.02272 -279.844498 
L 148.30848 -279.857678 
L 147.59424 -279.869009 
L 146.88 -279.878742 
L 146.16576 -279.887098 
L 145.45152 -279.894266 
L 144.73728 -279.90041 
L 144.02304 -279.905673 
L 143.3088 -279.910177 
L 142.59456 -279.914029 
L 141.88032 -279.917321 
L 141.16608 -279.920131 
L 140.45184 -279.922529 
L 139.7376 -279.924572 
L 139.02336 -279.926313 
L 138.30912 -279.927794 
L 137.59488 -279.929053 
L 136.88064 -279.930123 
L 136.1664 -279.931031 
L 135.45216 -279.931802 
L 134.73792 -279.932454 
L 134.02368 -279.933007 
L 133.30944 -279.933475 
L 132.5952 -279.93387 
L 131.88096 -279.934204 
L 131.16672 -279.934487 
L 130.45248 -279.934725 
L 129.73824 -279.934925 
L 129.024 -279.935094 
L 128.30976 -279.935237 
L 127.59552 -279.935357 
L 126.88128 -279.935458 
L 126.16704 -279.935543 
L 125.4528 -279.935615 
L 124.73856 -279.935675 
L 124.02432 -279.935725 
L 123.31008 -279.935768 
L 122.59584 -279.935804 
L 121.8816 -279.935834 
L 121.16736 -279.935859 
L 120.45312 -279.935881 
L 119.73888 -279.935899 
L 119.02464 -279.935914 
L 118.3104 -279.935927 
L 117.59616 -279.935938 
L 116.88192 -279.935947 
L 116.16768 -279.935954 
L 115.45344 -279.935961 
L 114.7392 -279.935967 
L 114.02496 -279.935971 
L 113.31072 -279.935975 
L 112.59648 -279.935979 
L 111.88224 -279.935982 
L 111.168 -279.935984 
L 110.45376 -279.935986 
L 109.73952 -279.935988 
L 109.02528 -279.93599 
L 108.31104 -279.935991 
L 107.5968 -279.935992 
L 106.88256 -279.935993 
L 106.16832 -279.935994 
L 105.45408 -279.935995 
L 104.73984 -279.935996 
L 104.0256 -279.935996 
L 103.31136 -279.935997 
L 102.59712 -279.935997 
L 101.88288 -279.935997 
L 101.16864 -279.935998 
L 100.4544 -279.935998 
L 99.74016 -279.935998 
L 99.02592 -279.935999 
L 98.31168 -279.935999 
L 97.59744 -279.935999 
L 96.8832 -279.935999 
L 96.16896 -279.935999 
L 95.45472 -279.935999 
L 94.74048 -279.935999 
L 94.02624 -279.935999 
L 93.312 -279.935999 
L 92.59776 -279.936 
L 91.88352 -279.936 
L 91.16928 -279.936 
L 90.45504 -279.936 
L 89.7408 -279.936 
L 89.02656 -279.936 
L 88.31232 -279.936 
L 87.59808 -279.936 
L 86.88384 -279.936 
L 86.1696 -279.936 
L 85.45536 -279.936 
L 84.74112 -279.936 
L 84.02688 -279.936 
L 83.31264 -279.936 
L 82.5984 -279.936 
L 81.88416 -279.936 
L 81.16992 -279.936 
L 80.45568 -279.936 
L 79.74144 -279.936 
L 79.0272 -279.936 
L 78.31296 -279.936 
L 77.59872 -279.936 
L 76.88448 -279.936 
L 76.17024 -279.936 
L 75.456 -279.936 
L 74.74176 -279.936 
L 74.02752 -279.936 
L 73.31328 -279.936 
L 72.59904 -279.936 
L 71.8848 -279.936 
L 71.17056 -279.936 
L 70.45632 -279.936 
L 69.74208 -279.936 
L 69.02784 -279.936 
L 68.3136 -279.936 
L 67.59936 -279.936 
L 66.88512 -279.936 
L 66.17088 -279.936 
L 65.45664 -279.936 
L 64.7424 -279.936 
L 64.02816 -279.936 
L 63.31392 -279.936 
L 62.59968 -279.936 
L 61.88544 -279.936 
L 61.1712 -279.936 
L 60.45696 -279.936 
L 59.74272 -279.936 
L 59.02848 -279.936 
L 58.31424 -279.936 
L 57.6 -279.936 
z
" id="m387e983709" style="stroke:#afe88e;"/>
    </defs>
    <g clip-path="url(#p924681886c)">
     <use style="fill:#afe88e;stroke:#afe88e;" x="0" xlink:href="#m387e983709" y="345.6"/>
    </g>
   </g>
   <g id="line2d_1">
    <path clip-path="url(#p924681886c)" d="M 57.6 65.664 
L 149.73696 65.770822 
L 155.45088 66.023669 
L 159.02208 66.416795 
L 161.1648 66.828698 
L 163.30752 67.457215 
L 164.736 68.04848 
L 166.16448 68.827522 
L 167.59296 69.850984 
L 169.02144 71.190974 
L 170.44992 72.93825 
L 171.8784 75.205333 
L 173.30688 78.128963 
L 174.73536 81.870853 
L 176.16384 86.615191 
L 177.59232 92.560776 
L 179.0208 99.905388 
L 180.44928 108.820461 
L 181.87776 119.416082 
L 183.30624 131.700296 
L 185.44896 152.962657 
L 188.30592 184.707204 
L 191.16288 216.489945 
L 193.3056 237.903866 
L 194.73408 250.394325 
L 196.16256 261.28853 
L 197.59104 270.580149 
L 199.01952 278.351307 
L 200.448 284.740285 
L 201.87648 289.913995 
L 203.30496 294.047328 
L 204.73344 297.309276 
L 206.16192 299.854662 
L 207.5904 301.820043 
L 209.01888 303.322453 
L 210.44736 304.459936 
L 211.87584 305.313096 
L 213.30432 305.947147 
L 215.44704 306.598088 
L 217.58976 307.001412 
L 220.44672 307.303655 
L 224.73216 307.496324 
L 233.30304 307.577258 
L 294.01344 307.584 
L 414.72 307.584 
L 414.72 307.584 
" style="fill:none;stroke:#000000;stroke-linecap:square;stroke-width:0.7;"/>
   </g>
   <g id="patch_3">
    <path d="M 57.6 307.584 
L 57.6 41.472 
" style="fill:none;stroke:#000000;stroke-linecap:square;stroke-linejoin:miter;stroke-width:0.8;"/>
   </g>
   <g id="patch_4">
    <path d="M 414.72 307.584 
L 414.72 41.472 
" style="fill:none;stroke:#000000;stroke-linecap:square;stroke-linejoin:miter;stroke-width:0.8;"/>
   </g>
   <g id="patch_5">
    <path d="M 57.6 307.584 
L 414.72 307.584 
" style="fill:none;stroke:#000000;stroke-linecap:square;stroke-linejoin:miter;stroke-width:0.8;"/>
   </g>
   <g id="patch_6">
    <path d="M 57.6 41.472 
L 414.72 41.472 
" style="fill:none;stroke:#000000;stroke-linecap:square;stroke-linejoin:miter;stroke-width:0.8;"/>
   </g>
   <g id="legend_1">
    <g id="patch_7">
     <path d="M 91.90611 34.09119 
L 246.68736 34.09119 
Q 249.08736 34.09119 249.08736 31.69119 
L 249.08736 15.27744 
Q 249.08736 12.87744 246.68736 12.87744 
L 91.90611 12.87744 
Q 89.50611 12.87744 89.50611 15.27744 
L 89.50611 31.69119 
Q 89.50611 34.09119 91.90611 34.09119 
z
" style="fill:#ffffff;opacity:0.8;stroke:#cccccc;stroke-linejoin:miter;"/>
    </g>
    <g id="patch_8">
     <path d="M 94.30611 26.795565 
L 118.30611 26.795565 
L 118.30611 18.395565 
L 94.30611 18.395565 
z
" style="fill:#509369;stroke:#509369;stroke-linejoin:miter;"/>
    </g>
    <g id="text_1">
     <!-- back -->
     <g transform="translate(127.90611 26.795565)scale(0.12 -0.12)">
      <defs>
       <path d="M 11.53125 5.171875 
L 11.53125 70.796875 
L 2.875 70.796875 
L 2.875 75.984375 
L 20.515625 75.984375 
L 20.515625 43.796875 
Q 23.140625 48.6875 27.21875 51 
Q 31.296875 53.328125 37.3125 53.328125 
Q 46.875 53.328125 52.921875 45.75 
Q 58.984375 38.1875 58.984375 25.984375 
Q 58.984375 13.765625 52.921875 6.171875 
Q 46.875 -1.421875 37.3125 -1.421875 
Q 31.296875 -1.421875 27.21875 0.890625 
Q 23.140625 3.21875 20.515625 8.109375 
L 20.515625 0 
L 2.875 0 
L 2.875 5.171875 
z
M 20.515625 23.390625 
Q 20.515625 14.015625 24.09375 9.109375 
Q 27.6875 4.203125 34.515625 4.203125 
Q 41.40625 4.203125 44.9375 9.71875 
Q 48.484375 15.234375 48.484375 25.984375 
Q 48.484375 36.765625 44.9375 42.234375 
Q 41.40625 47.703125 34.515625 47.703125 
Q 27.6875 47.703125 24.09375 42.765625 
Q 20.515625 37.84375 20.515625 28.515625 
z
" id="DejaVuSerif-98"/>
       <path d="M 39.796875 16.3125 
L 39.796875 27.296875 
L 28.21875 27.296875 
Q 21.53125 27.296875 18.25 24.40625 
Q 14.984375 21.53125 14.984375 15.578125 
Q 14.984375 10.15625 18.296875 6.984375 
Q 21.625 3.8125 27.296875 3.8125 
Q 32.90625 3.8125 36.34375 7.28125 
Q 39.796875 10.75 39.796875 16.3125 
z
M 48.78125 32.421875 
L 48.78125 5.171875 
L 56.78125 5.171875 
L 56.78125 0 
L 39.796875 0 
L 39.796875 5.609375 
Q 36.8125 2 32.90625 0.28125 
Q 29 -1.421875 23.78125 -1.421875 
Q 15.140625 -1.421875 10.0625 3.171875 
Q 4.984375 7.765625 4.984375 15.578125 
Q 4.984375 23.640625 10.796875 28.078125 
Q 16.609375 32.515625 27.203125 32.515625 
L 39.796875 32.515625 
L 39.796875 36.078125 
Q 39.796875 42 36.203125 45.234375 
Q 32.625 48.484375 26.125 48.484375 
Q 20.75 48.484375 17.578125 46.046875 
Q 14.40625 43.609375 13.625 38.8125 
L 8.984375 38.8125 
L 8.984375 49.3125 
Q 13.671875 51.3125 18.09375 52.3125 
Q 22.515625 53.328125 26.703125 53.328125 
Q 37.5 53.328125 43.140625 47.96875 
Q 48.78125 42.625 48.78125 32.421875 
z
" id="DejaVuSerif-97"/>
       <path d="M 51.421875 15.578125 
Q 49.515625 7.28125 44.09375 2.921875 
Q 38.671875 -1.421875 30.078125 -1.421875 
Q 18.75 -1.421875 11.859375 6.078125 
Q 4.984375 13.578125 4.984375 25.984375 
Q 4.984375 38.421875 11.859375 45.875 
Q 18.75 53.328125 30.078125 53.328125 
Q 35.015625 53.328125 39.890625 52.171875 
Q 44.78125 51.03125 49.703125 48.6875 
L 49.703125 35.40625 
L 44.484375 35.40625 
Q 43.453125 42.234375 40.015625 45.359375 
Q 36.578125 48.484375 30.171875 48.484375 
Q 22.90625 48.484375 19.1875 42.84375 
Q 15.484375 37.203125 15.484375 25.984375 
Q 15.484375 14.75 19.171875 9.078125 
Q 22.859375 3.421875 30.171875 3.421875 
Q 35.984375 3.421875 39.453125 6.4375 
Q 42.921875 9.46875 44.1875 15.578125 
z
" id="DejaVuSerif-99"/>
       <path d="M 28.609375 0 
L 3.421875 0 
L 3.421875 5.171875 
L 11.53125 5.171875 
L 11.53125 70.796875 
L 2.875 70.796875 
L 2.875 75.984375 
L 20.515625 75.984375 
L 20.515625 26.515625 
L 42.390625 46.6875 
L 34.90625 46.6875 
L 34.90625 51.90625 
L 58.40625 51.90625 
L 58.40625 46.6875 
L 49.515625 46.6875 
L 34.078125 32.421875 
L 53.8125 5.171875 
L 61.28125 5.171875 
L 61.28125 0 
L 35.6875 0 
L 35.6875 5.171875 
L 43.109375 5.171875 
L 27.59375 26.515625 
L 20.515625 19.921875 
L 20.515625 5.171875 
L 28.609375 5.171875 
z
" id="DejaVuSerif-107"/>
      </defs>
      <use xlink:href="#DejaVuSerif-98"/>
      <use x="64.013672" xlink:href="#DejaVuSerif-97"/>
      <use x="123.632812" xlink:href="#DejaVuSerif-99"/>
      <use x="179.638672" xlink:href="#DejaVuSerif-107"/>
     </g>
    </g>
    <g id="patch_9">
     <path d="M 180.734235 26.795565 
L 204.734235 26.795565 
L 204.734235 18.395565 
L 180.734235 18.395565 
z
" style="fill:#afe88e;stroke:#afe88e;stroke-linejoin:miter;"/>
    </g>
    <g id="text_2">
     <!-- front -->
     <g transform="translate(214.334235 26.795565)scale(0.12 -0.12)">
      <defs>
       <path d="M 43.015625 63.71875 
L 38.28125 63.71875 
Q 38.234375 67.390625 36.203125 69.28125 
Q 34.1875 71.1875 30.328125 71.1875 
Q 25.296875 71.1875 23.234375 68.421875 
Q 21.1875 65.671875 21.1875 58.59375 
L 21.1875 51.90625 
L 35.6875 51.90625 
L 35.6875 46.6875 
L 21.1875 46.6875 
L 21.1875 5.171875 
L 32.71875 5.171875 
L 32.71875 0 
L 3.609375 0 
L 3.609375 5.171875 
L 12.203125 5.171875 
L 12.203125 46.6875 
L 3.609375 46.6875 
L 3.609375 51.90625 
L 12.203125 51.90625 
L 12.203125 58.40625 
Q 12.203125 67.09375 16.71875 71.53125 
Q 21.234375 75.984375 29.984375 75.984375 
Q 33.25 75.984375 36.515625 75.390625 
Q 39.796875 74.8125 43.015625 73.578125 
z
" id="DejaVuSerif-102"/>
       <path d="M 47.796875 52 
L 47.796875 39.015625 
L 42.625 39.015625 
Q 42.390625 42.875 40.484375 44.78125 
Q 38.578125 46.6875 34.90625 46.6875 
Q 28.265625 46.6875 24.71875 42.09375 
Q 21.1875 37.5 21.1875 28.90625 
L 21.1875 5.171875 
L 31.59375 5.171875 
L 31.59375 0 
L 4.109375 0 
L 4.109375 5.171875 
L 12.203125 5.171875 
L 12.203125 46.78125 
L 3.609375 46.78125 
L 3.609375 51.90625 
L 21.1875 51.90625 
L 21.1875 42.671875 
Q 23.828125 48.09375 27.96875 50.703125 
Q 32.125 53.328125 38.09375 53.328125 
Q 40.28125 53.328125 42.703125 52.984375 
Q 45.125 52.640625 47.796875 52 
z
" id="DejaVuSerif-114"/>
       <path d="M 30.078125 3.421875 
Q 37.3125 3.421875 40.984375 9.125 
Q 44.671875 14.84375 44.671875 25.984375 
Q 44.671875 37.109375 40.984375 42.796875 
Q 37.3125 48.484375 30.078125 48.484375 
Q 22.859375 48.484375 19.171875 42.796875 
Q 15.484375 37.109375 15.484375 25.984375 
Q 15.484375 14.84375 19.1875 9.125 
Q 22.90625 3.421875 30.078125 3.421875 
z
M 30.078125 -1.421875 
Q 18.75 -1.421875 11.859375 6.078125 
Q 4.984375 13.578125 4.984375 25.984375 
Q 4.984375 38.375 11.84375 45.84375 
Q 18.703125 53.328125 30.078125 53.328125 
Q 41.453125 53.328125 48.3125 45.84375 
Q 55.171875 38.375 55.171875 25.984375 
Q 55.171875 13.578125 48.3125 6.078125 
Q 41.453125 -1.421875 30.078125 -1.421875 
z
" id="DejaVuSerif-111"/>
       <path d="M 4.109375 0 
L 4.109375 5.171875 
L 12.203125 5.171875 
L 12.203125 46.6875 
L 3.609375 46.6875 
L 3.609375 51.90625 
L 21.1875 51.90625 
L 21.1875 42.671875 
Q 23.6875 47.953125 27.65625 50.640625 
Q 31.640625 53.328125 36.921875 53.328125 
Q 45.515625 53.328125 49.5625 48.390625 
Q 53.609375 43.453125 53.609375 33.015625 
L 53.609375 5.171875 
L 61.625 5.171875 
L 61.625 0 
L 36.8125 0 
L 36.8125 5.171875 
L 44.578125 5.171875 
L 44.578125 30.171875 
Q 44.578125 39.703125 42.234375 43.234375 
Q 39.890625 46.78125 33.984375 46.78125 
Q 27.734375 46.78125 24.453125 42.203125 
Q 21.1875 37.640625 21.1875 28.90625 
L 21.1875 5.171875 
L 29 5.171875 
L 29 0 
z
" id="DejaVuSerif-110"/>
       <path d="M 10.796875 46.6875 
L 2.875 46.6875 
L 2.875 51.90625 
L 10.796875 51.90625 
L 10.796875 68.015625 
L 19.828125 68.015625 
L 19.828125 51.90625 
L 36.71875 51.90625 
L 36.71875 46.6875 
L 19.828125 46.6875 
L 19.828125 13.71875 
Q 19.828125 7.125 21.09375 5.265625 
Q 22.359375 3.421875 25.78125 3.421875 
Q 29.296875 3.421875 30.90625 5.484375 
Q 32.515625 7.5625 32.625 12.203125 
L 39.40625 12.203125 
Q 39.015625 5.125 35.546875 1.84375 
Q 32.078125 -1.421875 25 -1.421875 
Q 17.234375 -1.421875 14.015625 2.015625 
Q 10.796875 5.46875 10.796875 13.71875 
z
" id="DejaVuSerif-116"/>
      </defs>
      <use xlink:href="#DejaVuSerif-102"/>
      <use x="37.011719" xlink:href="#DejaVuSerif-114"/>
      <use x="84.814453" xlink:href="#DejaVuSerif-111"/>
      <use x="145.019531" xlink:href="#DejaVuSerif-110"/>
      <use x="209.423828" xlink:href="#DejaVuSerif-116"/>
     </g>
    </g>
   </g>
  </g>
 </g>
 <defs>
  <clipPath id="p924681886c">
   <rect height="266.112" width="357.12" x="57.6" y="41.472"/>
  </clipPath>
 </defs>
</svg>
