<?xml version="1.0" encoding="utf-8" standalone="no"?>
<!DOCTYPE svg PUBLIC "-//W3C//DTD SVG 1.1//EN"
  "http://www.w3.org/Graphics/SVG/1.1/DTD/svg11.dtd">
<!-- Created with matplotlib (https://matplotlib.org/) -->
<svg height="345.6pt" version="1.1" viewBox="0 0 460.8 345.6" width="460.8pt" xmlns="http://www.w3.org/2000/svg" xmlns:xlink="http://www.w3.org/1999/xlink">
 <metadata>
  <rdf:RDF xmlns:cc="http://creativecommons.org/ns#" xmlns:dc="http://purl.org/dc/elements/1.1/" xmlns:rdf="http://www.w3.org/1999/02/22-rdf-syntax-ns#">
   <cc:Work>
    <dc:type rdf:resource="http://purl.org/dc/dcmitype/StillImage"/>
    <dc:date>2022-05-25T01:12:07.726666</dc:date>
    <dc:format>image/svg+xml</dc:format>
    <dc:creator>
     <cc:Agent>
      <dc:title>Matplotlib v3.3.4, https://matplotlib.org/</dc:title>
     </cc:Agent>
    </dc:creator>
   </cc:Work>
  </rdf:RDF>
 </metadata>
 <defs>
  <style type="text/css">*{stroke-linecap:butt;stroke-linejoin:round;}</style>
 </defs>
 <g id="figure_1">
  <g id="patch_1">
   <path d="M 0 345.6 
L 460.8 345.6 
L 460.8 0 
L 0 0 
z
" style="fill:#ffffff;"/>
  </g>
  <g id="axes_1">
   <g id="patch_2">
    <path d="M 57.6 307.584 
L 414.72 307.584 
L 414.72 41.472 
L 57.6 41.472 
z
" style="fill:#ffffff;"/>
   </g>
   <g id="PolyCollection_1">
    <defs>
     <path d="M 57.6 -38.016 
L 57.6 -279.936 
L 58.31424 -279.936 
L 59.02848 -279.936 
L 59.74272 -279.936 
L 60.45696 -279.936 
L 61.1712 -279.936 
L 61.88544 -279.936 
L 62.59968 -279.936 
L 63.31392 -279.936 
L 64.02816 -279.936 
L 64.7424 -279.936 
L 65.45664 -279.936 
L 66.17088 -279.936 
L 66.88512 -279.936 
L 67.59936 -279.936 
L 68.3136 -279.936 
L 69.02784 -279.936 
L 69.74208 -279.936 
L 70.45632 -279.936 
L 71.17056 -279.936 
L 71.8848 -279.936 
L 72.59904 -279.936 
L 73.31328 -279.936 
L 74.02752 -279.936 
L 74.74176 -279.936 
L 75.456 -279.936 
L 76.17024 -279.936 
L 76.88448 -279.936 
L 77.59872 -279.936 
L 78.31296 -279.936 
L 79.0272 -279.936 
L 79.74144 -279.936 
L 80.45568 -279.936 
L 81.16992 -279.936 
L 81.88416 -279.936 
L 82.5984 -279.936 
L 83.31264 -279.935999 
L 84.02688 -279.935999 
L 84.74112 -279.935999 
L 85.45536 -279.935999 
L 86.1696 -279.935998 
L 86.88384 -279.935998 
L 87.59808 -279.935997 
L 88.31232 -279.935997 
L 89.02656 -279.935996 
L 89.7408 -279.935994 
L 90.45504 -279.935993 
L 91.16928 -279.935991 
L 91.88352 -279.935988 
L 92.59776 -279.935985 
L 93.312 -279.935981 
L 94.02624 -279.935976 
L 94.74048 -279.935969 
L 95.45472 -279.935961 
L 96.16896 -279.93595 
L 96.8832 -279.935937 
L 97.59744 -279.935921 
L 98.31168 -279.935901 
L 99.02592 -279.935876 
L 99.74016 -279.935845 
L 100.4544 -279.935806 
L 101.16864 -279.935758 
L 101.88288 -279.935699 
L 102.59712 -279.935626 
L 103.31136 -279.935536 
L 104.0256 -279.935425 
L 104.73984 -279.93529 
L 105.45408 -279.935124 
L 106.16832 -279.934922 
L 106.88256 -279.934676 
L 107.5968 -279.934376 
L 108.31104 -279.934012 
L 109.02528 -279.933571 
L 109.73952 -279.933038 
L 110.45376 -279.932395 
L 111.168 -279.931621 
L 111.88224 -279.930691 
L 112.59648 -279.929574 
L 113.31072 -279.928238 
L 114.02496 -279.926641 
L 114.7392 -279.924736 
L 115.45344 -279.92247 
L 116.16768 -279.919778 
L 116.88192 -279.916586 
L 117.59616 -279.91281 
L 118.3104 -279.908352 
L 119.02464 -279.903098 
L 119.73888 -279.896919 
L 120.45312 -279.889665 
L 121.16736 -279.881168 
L 121.8816 -279.871233 
L 122.59584 -279.859641 
L 123.31008 -279.846142 
L 124.02432 -279.830452 
L 124.73856 -279.812253 
L 125.4528 -279.791185 
L 126.16704 -279.766845 
L 126.88128 -279.738779 
L 127.59552 -279.706483 
L 128.30976 -279.66939 
L 129.024 -279.626875 
L 129.73824 -279.578241 
L 130.45248 -279.522718 
L 131.16672 -279.459455 
L 131.88096 -279.387519 
L 132.5952 -279.305881 
L 133.30944 -279.213417 
L 134.02368 -279.108901 
L 134.73792 -278.990997 
L 135.45216 -278.858254 
L 136.1664 -278.709103 
L 136.88064 -278.541848 
L 137.59488 -278.354666 
L 138.30912 -278.145601 
L 139.02336 -277.91256 
L 139.7376 -277.653311 
L 140.45184 -277.365482 
L 141.16608 -277.04656 
L 141.88032 -276.69389 
L 142.59456 -276.304681 
L 143.3088 -275.876004 
L 144.02304 -275.4048 
L 144.73728 -274.887885 
L 145.45152 -274.321957 
L 146.16576 -273.703607 
L 146.88 -273.029329 
L 147.59424 -272.295536 
L 148.30848 -271.498571 
L 149.02272 -270.634726 
L 149.73696 -269.700262 
L 150.4512 -268.691429 
L 151.16544 -267.604487 
L 151.87968 -266.435733 
L 152.59392 -265.181524 
L 153.30816 -263.838306 
L 154.0224 -262.402643 
L 154.73664 -260.871245 
L 155.45088 -259.240998 
L 156.16512 -257.508999 
L 156.87936 -255.672581 
L 157.5936 -253.729349 
L 158.30784 -251.677208 
L 159.02208 -249.514395 
L 159.73632 -247.239506 
L 160.45056 -244.851525 
L 161.1648 -242.349851 
L 161.87904 -239.734318 
L 162.59328 -237.005217 
L 163.30752 -234.163319 
L 164.02176 -231.209883 
L 164.736 -228.146674 
L 165.45024 -224.975966 
L 166.16448 -221.70055 
L 166.87872 -218.323733 
L 167.59296 -214.849331 
L 168.3072 -211.281665 
L 169.02144 -207.625546 
L 169.73568 -203.886255 
L 170.44992 -200.069529 
L 171.16416 -196.181526 
L 171.8784 -192.228803 
L 172.59264 -188.218279 
L 173.30688 -184.157198 
L 174.02112 -180.053091 
L 174.73536 -175.913731 
L 175.4496 -171.747091 
L 176.16384 -167.561292 
L 176.87808 -163.364559 
L 177.59232 -159.16517 
L 178.30656 -154.971405 
L 179.0208 -150.791498 
L 179.73504 -146.633584 
L 180.44928 -142.505657 
L 181.16352 -138.415515 
L 181.87776 -134.370722 
L 182.592 -130.378561 
L 183.30624 -126.445998 
L 184.02048 -122.579642 
L 184.73472 -118.785715 
L 185.44896 -115.07002 
L 186.1632 -111.437919 
L 186.87744 -107.894308 
L 187.59168 -104.443605 
L 188.30592 -101.089732 
L 189.02016 -97.83611 
L 189.7344 -94.685657 
L 190.44864 -91.640781 
L 191.16288 -88.703394 
L 191.87712 -85.874911 
L 192.59136 -83.156268 
L 193.3056 -80.547932 
L 194.01984 -78.049924 
L 194.73408 -75.661835 
L 195.44832 -73.382853 
L 196.16256 -71.211785 
L 196.8768 -69.147085 
L 197.59104 -67.186882 
L 198.30528 -65.329013 
L 199.01952 -63.571043 
L 199.73376 -61.910307 
L 200.448 -60.34393 
L 201.16224 -58.868864 
L 201.87648 -57.481911 
L 202.59072 -56.179757 
L 203.30496 -54.958994 
L 204.0192 -53.816151 
L 204.73344 -52.747715 
L 205.44768 -51.750155 
L 206.16192 -50.819942 
L 206.87616 -49.953572 
L 207.5904 -49.147581 
L 208.30464 -48.398561 
L 209.01888 -47.703175 
L 209.73312 -47.05817 
L 210.44736 -46.460387 
L 211.1616 -45.906768 
L 211.87584 -45.394365 
L 212.59008 -44.920348 
L 213.30432 -44.482004 
L 214.01856 -44.076744 
L 214.7328 -43.702104 
L 215.44704 -43.355744 
L 216.16128 -43.03545 
L 216.87552 -42.73913 
L 217.58976 -42.464814 
L 218.304 -42.210651 
L 219.01824 -41.974906 
L 219.73248 -41.755955 
L 220.44672 -41.552284 
L 221.16096 -41.362483 
L 221.8752 -41.185242 
L 222.58944 -41.019347 
L 223.30368 -40.863679 
L 224.01792 -40.717204 
L 224.73216 -40.578977 
L 225.4464 -40.448132 
L 226.16064 -40.323884 
L 226.87488 -40.205522 
L 227.58912 -40.092411 
L 228.30336 -39.983985 
L 229.0176 -39.879749 
L 229.73184 -39.779275 
L 230.44608 -39.6822 
L 231.16032 -39.588224 
L 231.87456 -39.497108 
L 232.5888 -39.408673 
L 233.30304 -39.322793 
L 234.01728 -39.239394 
L 234.73152 -39.158448 
L 235.44576 -39.079969 
L 236.16 -39.004004 
L 236.87424 -38.930632 
L 237.58848 -38.859949 
L 238.30272 -38.792069 
L 239.01696 -38.727106 
L 239.7312 -38.665178 
L 240.44544 -38.60639 
L 241.15968 -38.550833 
L 241.87392 -38.498577 
L 242.58816 -38.449669 
L 243.3024 -38.404125 
L 244.01664 -38.361934 
L 244.73088 -38.323055 
L 245.44512 -38.287418 
L 246.15936 -38.254927 
L 246.8736 -38.225462 
L 247.58784 -38.198881 
L 248.30208 -38.175028 
L 249.01632 -38.153734 
L 249.73056 -38.134822 
L 250.4448 -38.118107 
L 251.15904 -38.103408 
L 251.87328 -38.090544 
L 252.58752 -38.079338 
L 253.30176 -38.069621 
L 254.016 -38.061234 
L 254.73024 -38.054024 
L 255.44448 -38.047855 
L 256.15872 -38.042596 
L 256.87296 -38.038133 
L 257.5872 -38.034359 
L 258.30144 -38.03118 
L 259.01568 -38.028513 
L 259.72992 -38.026282 
L 260.44416 -38.024424 
L 261.1584 -38.022882 
L 261.87264 -38.021605 
L 262.58688 -38.020553 
L 263.30112 -38.019687 
L 264.01536 -38.018978 
L 264.7296 -38.018399 
L 265.44384 -38.017927 
L 266.15808 -38.017544 
L 266.87232 -38.017234 
L 267.58656 -38.016983 
L 268.3008 -38.016782 
L 269.01504 -38.01662 
L 269.72928 -38.01649 
L 270.44352 -38.016387 
L 271.15776 -38.016305 
L 271.872 -38.016239 
L 272.58624 -38.016187 
L 273.30048 -38.016147 
L 274.01472 -38.016114 
L 274.72896 -38.016089 
L 275.4432 -38.016069 
L 276.15744 -38.016053 
L 276.87168 -38.016041 
L 277.58592 -38.016032 
L 278.30016 -38.016024 
L 279.0144 -38.016019 
L 279.72864 -38.016014 
L 280.44288 -38.016011 
L 281.15712 -38.016008 
L 281.87136 -38.016006 
L 282.5856 -38.016005 
L 283.29984 -38.016004 
L 284.01408 -38.016003 
L 284.72832 -38.016002 
L 285.44256 -38.016002 
L 286.1568 -38.016001 
L 286.87104 -38.016001 
L 287.58528 -38.016001 
L 288.29952 -38.016 
L 289.01376 -38.016 
L 289.728 -38.016 
L 290.44224 -38.016 
L 291.15648 -38.016 
L 291.87072 -38.016 
L 292.58496 -38.016 
L 293.2992 -38.016 
L 294.01344 -38.016 
L 294.72768 -38.016 
L 295.44192 -38.016 
L 296.15616 -38.016 
L 296.8704 -38.016 
L 297.58464 -38.016 
L 298.29888 -38.016 
L 299.01312 -38.016 
L 299.72736 -38.016 
L 300.4416 -38.016 
L 301.15584 -38.016 
L 301.87008 -38.016 
L 302.58432 -38.016 
L 303.29856 -38.016 
L 304.0128 -38.016 
L 304.72704 -38.016 
L 305.44128 -38.016 
L 306.15552 -38.016 
L 306.86976 -38.016 
L 307.584 -38.016 
L 308.29824 -38.016 
L 309.01248 -38.016 
L 309.72672 -38.016 
L 310.44096 -38.016 
L 311.1552 -38.016 
L 311.86944 -38.016 
L 312.58368 -38.016 
L 313.29792 -38.016 
L 314.01216 -38.016 
L 314.7264 -38.016 
L 315.44064 -38.016 
L 316.15488 -38.016 
L 316.86912 -38.016 
L 317.58336 -38.016 
L 318.2976 -38.016 
L 319.01184 -38.016 
L 319.72608 -38.016 
L 320.44032 -38.016 
L 321.15456 -38.016 
L 321.8688 -38.016 
L 322.58304 -38.016 
L 323.29728 -38.016 
L 324.01152 -38.016 
L 324.72576 -38.016 
L 325.44 -38.016 
L 326.15424 -38.016 
L 326.86848 -38.016 
L 327.58272 -38.016 
L 328.29696 -38.016 
L 329.0112 -38.016 
L 329.72544 -38.016 
L 330.43968 -38.016 
L 331.15392 -38.016 
L 331.86816 -38.016 
L 332.5824 -38.016 
L 333.29664 -38.016 
L 334.01088 -38.016 
L 334.72512 -38.016 
L 335.43936 -38.016 
L 336.1536 -38.016 
L 336.86784 -38.016 
L 337.58208 -38.016 
L 338.29632 -38.016 
L 339.01056 -38.016 
L 339.7248 -38.016 
L 340.43904 -38.016 
L 341.15328 -38.016 
L 341.86752 -38.016 
L 342.58176 -38.016 
L 343.296 -38.016 
L 344.01024 -38.016 
L 344.72448 -38.016 
L 345.43872 -38.016 
L 346.15296 -38.016 
L 346.8672 -38.016 
L 347.58144 -38.016 
L 348.29568 -38.016 
L 349.00992 -38.016 
L 349.72416 -38.016 
L 350.4384 -38.016 
L 351.15264 -38.016 
L 351.86688 -38.016 
L 352.58112 -38.016 
L 353.29536 -38.016 
L 354.0096 -38.016 
L 354.72384 -38.016 
L 355.43808 -38.016 
L 356.15232 -38.016 
L 356.86656 -38.016 
L 357.5808 -38.016 
L 358.29504 -38.016 
L 359.00928 -38.016 
L 359.72352 -38.016 
L 360.43776 -38.016 
L 361.152 -38.016 
L 361.86624 -38.016 
L 362.58048 -38.016 
L 363.29472 -38.016 
L 364.00896 -38.016 
L 364.7232 -38.016 
L 365.43744 -38.016 
L 366.15168 -38.016 
L 366.86592 -38.016 
L 367.58016 -38.016 
L 368.2944 -38.016 
L 369.00864 -38.016 
L 369.72288 -38.016 
L 370.43712 -38.016 
L 371.15136 -38.016 
L 371.8656 -38.016 
L 372.57984 -38.016 
L 373.29408 -38.016 
L 374.00832 -38.016 
L 374.72256 -38.016 
L 375.4368 -38.016 
L 376.15104 -38.016 
L 376.86528 -38.016 
L 377.57952 -38.016 
L 378.29376 -38.016 
L 379.008 -38.016 
L 379.72224 -38.016 
L 380.43648 -38.016 
L 381.15072 -38.016 
L 381.86496 -38.016 
L 382.5792 -38.016 
L 383.29344 -38.016 
L 384.00768 -38.016 
L 384.72192 -38.016 
L 385.43616 -38.016 
L 386.1504 -38.016 
L 386.86464 -38.016 
L 387.57888 -38.016 
L 388.29312 -38.016 
L 389.00736 -38.016 
L 389.7216 -38.016 
L 390.43584 -38.016 
L 391.15008 -38.016 
L 391.86432 -38.016 
L 392.57856 -38.016 
L 393.2928 -38.016 
L 394.00704 -38.016 
L 394.72128 -38.016 
L 395.43552 -38.016 
L 396.14976 -38.016 
L 396.864 -38.016 
L 397.57824 -38.016 
L 398.29248 -38.016 
L 399.00672 -38.016 
L 399.72096 -38.016 
L 400.4352 -38.016 
L 401.14944 -38.016 
L 401.86368 -38.016 
L 402.57792 -38.016 
L 403.29216 -38.016 
L 404.0064 -38.016 
L 404.72064 -38.016 
L 405.43488 -38.016 
L 406.14912 -38.016 
L 406.86336 -38.016 
L 407.5776 -38.016 
L 408.29184 -38.016 
L 409.00608 -38.016 
L 409.72032 -38.016 
L 410.43456 -38.016 
L 411.1488 -38.016 
L 411.86304 -38.016 
L 412.57728 -38.016 
L 413.29152 -38.016 
L 414.00576 -38.016 
L 414.72 -38.016 
L 414.72 -38.016 
L 414.72 -38.016 
L 414.00576 -38.016 
L 413.29152 -38.016 
L 412.57728 -38.016 
L 411.86304 -38.016 
L 411.1488 -38.016 
L 410.43456 -38.016 
L 409.72032 -38.016 
L 409.00608 -38.016 
L 408.29184 -38.016 
L 407.5776 -38.016 
L 406.86336 -38.016 
L 406.14912 -38.016 
L 405.43488 -38.016 
L 404.72064 -38.016 
L 404.0064 -38.016 
L 403.29216 -38.016 
L 402.57792 -38.016 
L 401.86368 -38.016 
L 401.14944 -38.016 
L 400.4352 -38.016 
L 399.72096 -38.016 
L 399.00672 -38.016 
L 398.29248 -38.016 
L 397.57824 -38.016 
L 396.864 -38.016 
L 396.14976 -38.016 
L 395.43552 -38.016 
L 394.72128 -38.016 
L 394.00704 -38.016 
L 393.2928 -38.016 
L 392.57856 -38.016 
L 391.86432 -38.016 
L 391.15008 -38.016 
L 390.43584 -38.016 
L 389.7216 -38.016 
L 389.00736 -38.016 
L 388.29312 -38.016 
L 387.57888 -38.016 
L 386.86464 -38.016 
L 386.1504 -38.016 
L 385.43616 -38.016 
L 384.72192 -38.016 
L 384.00768 -38.016 
L 383.29344 -38.016 
L 382.5792 -38.016 
L 381.86496 -38.016 
L 381.15072 -38.016 
L 380.43648 -38.016 
L 379.72224 -38.016 
L 379.008 -38.016 
L 378.29376 -38.016 
L 377.57952 -38.016 
L 376.86528 -38.016 
L 376.15104 -38.016 
L 375.4368 -38.016 
L 374.72256 -38.016 
L 374.00832 -38.016 
L 373.29408 -38.016 
L 372.57984 -38.016 
L 371.8656 -38.016 
L 371.15136 -38.016 
L 370.43712 -38.016 
L 369.72288 -38.016 
L 369.00864 -38.016 
L 368.2944 -38.016 
L 367.58016 -38.016 
L 366.86592 -38.016 
L 366.15168 -38.016 
L 365.43744 -38.016 
L 364.7232 -38.016 
L 364.00896 -38.016 
L 363.29472 -38.016 
L 362.58048 -38.016 
L 361.86624 -38.016 
L 361.152 -38.016 
L 360.43776 -38.016 
L 359.72352 -38.016 
L 359.00928 -38.016 
L 358.29504 -38.016 
L 357.5808 -38.016 
L 356.86656 -38.016 
L 356.15232 -38.016 
L 355.43808 -38.016 
L 354.72384 -38.016 
L 354.0096 -38.016 
L 353.29536 -38.016 
L 352.58112 -38.016 
L 351.86688 -38.016 
L 351.15264 -38.016 
L 350.4384 -38.016 
L 349.72416 -38.016 
L 349.00992 -38.016 
L 348.29568 -38.016 
L 347.58144 -38.016 
L 346.8672 -38.016 
L 346.15296 -38.016 
L 345.43872 -38.016 
L 344.72448 -38.016 
L 344.01024 -38.016 
L 343.296 -38.016 
L 342.58176 -38.016 
L 341.86752 -38.016 
L 341.15328 -38.016 
L 340.43904 -38.016 
L 339.7248 -38.016 
L 339.01056 -38.016 
L 338.29632 -38.016 
L 337.58208 -38.016 
L 336.86784 -38.016 
L 336.1536 -38.016 
L 335.43936 -38.016 
L 334.72512 -38.016 
L 334.01088 -38.016 
L 333.29664 -38.016 
L 332.5824 -38.016 
L 331.86816 -38.016 
L 331.15392 -38.016 
L 330.43968 -38.016 
L 329.72544 -38.016 
L 329.0112 -38.016 
L 328.29696 -38.016 
L 327.58272 -38.016 
L 326.86848 -38.016 
L 326.15424 -38.016 
L 325.44 -38.016 
L 324.72576 -38.016 
L 324.01152 -38.016 
L 323.29728 -38.016 
L 322.58304 -38.016 
L 321.8688 -38.016 
L 321.15456 -38.016 
L 320.44032 -38.016 
L 319.72608 -38.016 
L 319.01184 -38.016 
L 318.2976 -38.016 
L 317.58336 -38.016 
L 316.86912 -38.016 
L 316.15488 -38.016 
L 315.44064 -38.016 
L 314.7264 -38.016 
L 314.01216 -38.016 
L 313.29792 -38.016 
L 312.58368 -38.016 
L 311.86944 -38.016 
L 311.1552 -38.016 
L 310.44096 -38.016 
L 309.72672 -38.016 
L 309.01248 -38.016 
L 308.29824 -38.016 
L 307.584 -38.016 
L 306.86976 -38.016 
L 306.15552 -38.016 
L 305.44128 -38.016 
L 304.72704 -38.016 
L 304.0128 -38.016 
L 303.29856 -38.016 
L 302.58432 -38.016 
L 301.87008 -38.016 
L 301.15584 -38.016 
L 300.4416 -38.016 
L 299.72736 -38.016 
L 299.01312 -38.016 
L 298.29888 -38.016 
L 297.58464 -38.016 
L 296.8704 -38.016 
L 296.15616 -38.016 
L 295.44192 -38.016 
L 294.72768 -38.016 
L 294.01344 -38.016 
L 293.2992 -38.016 
L 292.58496 -38.016 
L 291.87072 -38.016 
L 291.15648 -38.016 
L 290.44224 -38.016 
L 289.728 -38.016 
L 289.01376 -38.016 
L 288.29952 -38.016 
L 287.58528 -38.016 
L 286.87104 -38.016 
L 286.1568 -38.016 
L 285.44256 -38.016 
L 284.72832 -38.016 
L 284.01408 -38.016 
L 283.29984 -38.016 
L 282.5856 -38.016 
L 281.87136 -38.016 
L 281.15712 -38.016 
L 280.44288 -38.016 
L 279.72864 -38.016 
L 279.0144 -38.016 
L 278.30016 -38.016 
L 277.58592 -38.016 
L 276.87168 -38.016 
L 276.15744 -38.016 
L 275.4432 -38.016 
L 274.72896 -38.016 
L 274.01472 -38.016 
L 273.30048 -38.016 
L 272.58624 -38.016 
L 271.872 -38.016 
L 271.15776 -38.016 
L 270.44352 -38.016 
L 269.72928 -38.016 
L 269.01504 -38.016 
L 268.3008 -38.016 
L 267.58656 -38.016 
L 266.87232 -38.016 
L 266.15808 -38.016 
L 265.44384 -38.016 
L 264.7296 -38.016 
L 264.01536 -38.016 
L 263.30112 -38.016 
L 262.58688 -38.016 
L 261.87264 -38.016 
L 261.1584 -38.016 
L 260.44416 -38.016 
L 259.72992 -38.016 
L 259.01568 -38.016 
L 258.30144 -38.016 
L 257.5872 -38.016 
L 256.87296 -38.016 
L 256.15872 -38.016 
L 255.44448 -38.016 
L 254.73024 -38.016 
L 254.016 -38.016 
L 253.30176 -38.016 
L 252.58752 -38.016 
L 251.87328 -38.016 
L 251.15904 -38.016 
L 250.4448 -38.016 
L 249.73056 -38.016 
L 249.01632 -38.016 
L 248.30208 -38.016 
L 247.58784 -38.016 
L 246.8736 -38.016 
L 246.15936 -38.016 
L 245.44512 -38.016 
L 244.73088 -38.016 
L 244.01664 -38.016 
L 243.3024 -38.016 
L 242.58816 -38.016 
L 241.87392 -38.016 
L 241.15968 -38.016 
L 240.44544 -38.016 
L 239.7312 -38.016 
L 239.01696 -38.016 
L 238.30272 -38.016 
L 237.58848 -38.016 
L 236.87424 -38.016 
L 236.16 -38.016 
L 235.44576 -38.016 
L 234.73152 -38.016 
L 234.01728 -38.016 
L 233.30304 -38.016 
L 232.5888 -38.016 
L 231.87456 -38.016 
L 231.16032 -38.016 
L 230.44608 -38.016 
L 229.73184 -38.016 
L 229.0176 -38.016 
L 228.30336 -38.016 
L 227.58912 -38.016 
L 226.87488 -38.016 
L 226.16064 -38.016 
L 225.4464 -38.016 
L 224.73216 -38.016 
L 224.01792 -38.016 
L 223.30368 -38.016 
L 222.58944 -38.016 
L 221.8752 -38.016 
L 221.16096 -38.016 
L 220.44672 -38.016 
L 219.73248 -38.016 
L 219.01824 -38.016 
L 218.304 -38.016 
L 217.58976 -38.016 
L 216.87552 -38.016 
L 216.16128 -38.016 
L 215.44704 -38.016 
L 214.7328 -38.016 
L 214.01856 -38.016 
L 213.30432 -38.016 
L 212.59008 -38.016 
L 211.87584 -38.016 
L 211.1616 -38.016 
L 210.44736 -38.016 
L 209.73312 -38.016 
L 209.01888 -38.016 
L 208.30464 -38.016 
L 207.5904 -38.016 
L 206.87616 -38.016 
L 206.16192 -38.016 
L 205.44768 -38.016 
L 204.73344 -38.016 
L 204.0192 -38.016 
L 203.30496 -38.016 
L 202.59072 -38.016 
L 201.87648 -38.016 
L 201.16224 -38.016 
L 200.448 -38.016 
L 199.73376 -38.016 
L 199.01952 -38.016 
L 198.30528 -38.016 
L 197.59104 -38.016 
L 196.8768 -38.016 
L 196.16256 -38.016 
L 195.44832 -38.016 
L 194.73408 -38.016 
L 194.01984 -38.016 
L 193.3056 -38.016 
L 192.59136 -38.016 
L 191.87712 -38.016 
L 191.16288 -38.016 
L 190.44864 -38.016 
L 189.7344 -38.016 
L 189.02016 -38.016 
L 188.30592 -38.016 
L 187.59168 -38.016 
L 186.87744 -38.016 
L 186.1632 -38.016 
L 185.44896 -38.016 
L 184.73472 -38.016 
L 184.02048 -38.016 
L 183.30624 -38.016 
L 182.592 -38.016 
L 181.87776 -38.016 
L 181.16352 -38.016 
L 180.44928 -38.016 
L 179.73504 -38.016 
L 179.0208 -38.016 
L 178.30656 -38.016 
L 177.59232 -38.016 
L 176.87808 -38.016 
L 176.16384 -38.016 
L 175.4496 -38.016 
L 174.73536 -38.016 
L 174.02112 -38.016 
L 173.30688 -38.016 
L 172.59264 -38.016 
L 171.8784 -38.016 
L 171.16416 -38.016 
L 170.44992 -38.016 
L 169.73568 -38.016 
L 169.02144 -38.016 
L 168.3072 -38.016 
L 167.59296 -38.016 
L 166.87872 -38.016 
L 166.16448 -38.016 
L 165.45024 -38.016 
L 164.736 -38.016 
L 164.02176 -38.016 
L 163.30752 -38.016 
L 162.59328 -38.016 
L 161.87904 -38.016 
L 161.1648 -38.016 
L 160.45056 -38.016 
L 159.73632 -38.016 
L 159.02208 -38.016 
L 158.30784 -38.016 
L 157.5936 -38.016 
L 156.87936 -38.016 
L 156.16512 -38.016 
L 155.45088 -38.016 
L 154.73664 -38.016 
L 154.0224 -38.016 
L 153.30816 -38.016 
L 152.59392 -38.016 
L 151.87968 -38.016 
L 151.16544 -38.016 
L 150.4512 -38.016 
L 149.73696 -38.016 
L 149.02272 -38.016 
L 148.30848 -38.016 
L 147.59424 -38.016 
L 146.88 -38.016 
L 146.16576 -38.016 
L 145.45152 -38.016 
L 144.73728 -38.016 
L 144.02304 -38.016 
L 143.3088 -38.016 
L 142.59456 -38.016 
L 141.88032 -38.016 
L 141.16608 -38.016 
L 140.45184 -38.016 
L 139.7376 -38.016 
L 139.02336 -38.016 
L 138.30912 -38.016 
L 137.59488 -38.016 
L 136.88064 -38.016 
L 136.1664 -38.016 
L 135.45216 -38.016 
L 134.73792 -38.016 
L 134.02368 -38.016 
L 133.30944 -38.016 
L 132.5952 -38.016 
L 131.88096 -38.016 
L 131.16672 -38.016 
L 130.45248 -38.016 
L 129.73824 -38.016 
L 129.024 -38.016 
L 128.30976 -38.016 
L 127.59552 -38.016 
L 126.88128 -38.016 
L 126.16704 -38.016 
L 125.4528 -38.016 
L 124.73856 -38.016 
L 124.02432 -38.016 
L 123.31008 -38.016 
L 122.59584 -38.016 
L 121.8816 -38.016 
L 121.16736 -38.016 
L 120.45312 -38.016 
L 119.73888 -38.016 
L 119.02464 -38.016 
L 118.3104 -38.016 
L 117.59616 -38.016 
L 116.88192 -38.016 
L 116.16768 -38.016 
L 115.45344 -38.016 
L 114.7392 -38.016 
L 114.02496 -38.016 
L 113.31072 -38.016 
L 112.59648 -38.016 
L 111.88224 -38.016 
L 111.168 -38.016 
L 110.45376 -38.016 
L 109.73952 -38.016 
L 109.02528 -38.016 
L 108.31104 -38.016 
L 107.5968 -38.016 
L 106.88256 -38.016 
L 106.16832 -38.016 
L 105.45408 -38.016 
L 104.73984 -38.016 
L 104.0256 -38.016 
L 103.31136 -38.016 
L 102.59712 -38.016 
L 101.88288 -38.016 
L 101.16864 -38.016 
L 100.4544 -38.016 
L 99.74016 -38.016 
L 99.02592 -38.016 
L 98.31168 -38.016 
L 97.59744 -38.016 
L 96.8832 -38.016 
L 96.16896 -38.016 
L 95.45472 -38.016 
L 94.74048 -38.016 
L 94.02624 -38.016 
L 93.312 -38.016 
L 92.59776 -38.016 
L 91.88352 -38.016 
L 91.16928 -38.016 
L 90.45504 -38.016 
L 89.7408 -38.016 
L 89.02656 -38.016 
L 88.31232 -38.016 
L 87.59808 -38.016 
L 86.88384 -38.016 
L 86.1696 -38.016 
L 85.45536 -38.016 
L 84.74112 -38.016 
L 84.02688 -38.016 
L 83.31264 -38.016 
L 82.5984 -38.016 
L 81.88416 -38.016 
L 81.16992 -38.016 
L 80.45568 -38.016 
L 79.74144 -38.016 
L 79.0272 -38.016 
L 78.31296 -38.016 
L 77.59872 -38.016 
L 76.88448 -38.016 
L 76.17024 -38.016 
L 75.456 -38.016 
L 74.74176 -38.016 
L 74.02752 -38.016 
L 73.31328 -38.016 
L 72.59904 -38.016 
L 71.8848 -38.016 
L 71.17056 -38.016 
L 70.45632 -38.016 
L 69.74208 -38.016 
L 69.02784 -38.016 
L 68.3136 -38.016 
L 67.59936 -38.016 
L 66.88512 -38.016 
L 66.17088 -38.016 
L 65.45664 -38.016 
L 64.7424 -38.016 
L 64.02816 -38.016 
L 63.31392 -38.016 
L 62.59968 -38.016 
L 61.88544 -38.016 
L 61.1712 -38.016 
L 60.45696 -38.016 
L 59.74272 -38.016 
L 59.02848 -38.016 
L 58.31424 -38.016 
L 57.6 -38.016 
z
" id="mac4fc87486" style="stroke:#509369;"/>
    </defs>
    <g clip-path="url(#p1664182f9e)">
     <use style="fill:#509369;stroke:#509369;" x="0" xlink:href="#mac4fc87486" y="345.6"/>
    </g>
   </g>
   <g id="PolyCollection_2">
    <defs>
     <path d="M 57.6 -279.936 
L 57.6 -279.936 
L 58.31424 -279.936 
L 59.02848 -279.936 
L 59.74272 -279.936 
L 60.45696 -279.936 
L 61.1712 -279.936 
L 61.88544 -279.936 
L 62.59968 -279.936 
L 63.31392 -279.936 
L 64.02816 -279.936 
L 64.7424 -279.936 
L 65.45664 -279.936 
L 66.17088 -279.936 
L 66.88512 -279.936 
L 67.59936 -279.936 
L 68.3136 -279.936 
L 69.02784 -279.936 
L 69.74208 -279.936 
L 70.45632 -279.936 
L 71.17056 -279.936 
L 71.8848 -279.936 
L 72.59904 -279.936 
L 73.31328 -279.936 
L 74.02752 -279.936 
L 74.74176 -279.936 
L 75.456 -279.936 
L 76.17024 -279.936 
L 76.88448 -279.936 
L 77.59872 -279.936 
L 78.31296 -279.936 
L 79.0272 -279.936 
L 79.74144 -279.936 
L 80.45568 -279.936 
L 81.16992 -279.936 
L 81.88416 -279.936 
L 82.5984 -279.936 
L 83.31264 -279.935999 
L 84.02688 -279.935999 
L 84.74112 -279.935999 
L 85.45536 -279.935999 
L 86.1696 -279.935998 
L 86.88384 -279.935998 
L 87.59808 -279.935997 
L 88.31232 -279.935997 
L 89.02656 -279.935996 
L 89.7408 -279.935994 
L 90.45504 -279.935993 
L 91.16928 -279.935991 
L 91.88352 -279.935988 
L 92.59776 -279.935985 
L 93.312 -279.935981 
L 94.02624 -279.935976 
L 94.74048 -279.935969 
L 95.45472 -279.935961 
L 96.16896 -279.93595 
L 96.8832 -279.935937 
L 97.59744 -279.935921 
L 98.31168 -279.935901 
L 99.02592 -279.935876 
L 99.74016 -279.935845 
L 100.4544 -279.935806 
L 101.16864 -279.935758 
L 101.88288 -279.935699 
L 102.59712 -279.935626 
L 103.31136 -279.935536 
L 104.0256 -279.935425 
L 104.73984 -279.93529 
L 105.45408 -279.935124 
L 106.16832 -279.934922 
L 106.88256 -279.934676 
L 107.5968 -279.934376 
L 108.31104 -279.934012 
L 109.02528 -279.933571 
L 109.73952 -279.933038 
L 110.45376 -279.932395 
L 111.168 -279.931621 
L 111.88224 -279.930691 
L 112.59648 -279.929574 
L 113.31072 -279.928238 
L 114.02496 -279.926641 
L 114.7392 -279.924736 
L 115.45344 -279.92247 
L 116.16768 -279.919778 
L 116.88192 -279.916586 
L 117.59616 -279.91281 
L 118.3104 -279.908352 
L 119.02464 -279.903098 
L 119.73888 -279.896919 
L 120.45312 -279.889665 
L 121.16736 -279.881168 
L 121.8816 -279.871233 
L 122.59584 -279.859641 
L 123.31008 -279.846142 
L 124.02432 -279.830452 
L 124.73856 -279.812253 
L 125.4528 -279.791185 
L 126.16704 -279.766845 
L 126.88128 -279.738779 
L 127.59552 -279.706483 
L 128.30976 -279.66939 
L 129.024 -279.626875 
L 129.73824 -279.578241 
L 130.45248 -279.522718 
L 131.16672 -279.459455 
L 131.88096 -279.387519 
L 132.5952 -279.305881 
L 133.30944 -279.213417 
L 134.02368 -279.108901 
L 134.73792 -278.990997 
L 135.45216 -278.858254 
L 136.1664 -278.709103 
L 136.88064 -278.541848 
L 137.59488 -278.354666 
L 138.30912 -278.145601 
L 139.02336 -277.91256 
L 139.7376 -277.653311 
L 140.45184 -277.365482 
L 141.16608 -277.04656 
L 141.88032 -276.69389 
L 142.59456 -276.304681 
L 143.3088 -275.876004 
L 144.02304 -275.4048 
L 144.73728 -274.887885 
L 145.45152 -274.321957 
L 146.16576 -273.703607 
L 146.88 -273.029329 
L 147.59424 -272.295536 
L 148.30848 -271.498571 
L 149.02272 -270.634726 
L 149.73696 -269.700262 
L 150.4512 -268.691429 
L 151.16544 -267.604487 
L 151.87968 -266.435733 
L 152.59392 -265.181524 
L 153.30816 -263.838306 
L 154.0224 -262.402643 
L 154.73664 -260.871245 
L 155.45088 -259.240998 
L 156.16512 -257.508999 
L 156.87936 -255.672581 
L 157.5936 -253.729349 
L 158.30784 -251.677208 
L 159.02208 -249.514395 
L 159.73632 -247.239506 
L 160.45056 -244.851525 
L 161.1648 -242.349851 
L 161.87904 -239.734318 
L 162.59328 -237.005217 
L 163.30752 -234.163319 
L 164.02176 -231.209883 
L 164.736 -228.146674 
L 165.45024 -224.975966 
L 166.16448 -221.70055 
L 166.87872 -218.323733 
L 167.59296 -214.849331 
L 168.3072 -211.281665 
L 169.02144 -207.625546 
L 169.73568 -203.886255 
L 170.44992 -200.069529 
L 171.16416 -196.181526 
L 171.8784 -192.228803 
L 172.59264 -188.218279 
L 173.30688 -184.157198 
L 174.02112 -180.053091 
L 174.73536 -175.913731 
L 175.4496 -171.747091 
L 176.16384 -167.561292 
L 176.87808 -163.364559 
L 177.59232 -159.16517 
L 178.30656 -154.971405 
L 179.0208 -150.791498 
L 179.73504 -146.633584 
L 180.44928 -142.505657 
L 181.16352 -138.415515 
L 181.87776 -134.370722 
L 182.592 -130.378561 
L 183.30624 -126.445998 
L 184.02048 -122.579642 
L 184.73472 -118.785715 
L 185.44896 -115.07002 
L 186.1632 -111.437919 
L 186.87744 -107.894308 
L 187.59168 -104.443605 
L 188.30592 -101.089732 
L 189.02016 -97.83611 
L 189.7344 -94.685657 
L 190.44864 -91.640781 
L 191.16288 -88.703394 
L 191.87712 -85.874911 
L 192.59136 -83.156268 
L 193.3056 -80.547932 
L 194.01984 -78.049924 
L 194.73408 -75.661835 
L 195.44832 -73.382853 
L 196.16256 -71.211785 
L 196.8768 -69.147085 
L 197.59104 -67.186882 
L 198.30528 -65.329013 
L 199.01952 -63.571043 
L 199.73376 -61.910307 
L 200.448 -60.34393 
L 201.16224 -58.868864 
L 201.87648 -57.481911 
L 202.59072 -56.179757 
L 203.30496 -54.958994 
L 204.0192 -53.816151 
L 204.73344 -52.747715 
L 205.44768 -51.750155 
L 206.16192 -50.819942 
L 206.87616 -49.953572 
L 207.5904 -49.147581 
L 208.30464 -48.398561 
L 209.01888 -47.703175 
L 209.73312 -47.05817 
L 210.44736 -46.460387 
L 211.1616 -45.906768 
L 211.87584 -45.394365 
L 212.59008 -44.920348 
L 213.30432 -44.482004 
L 214.01856 -44.076744 
L 214.7328 -43.702104 
L 215.44704 -43.355744 
L 216.16128 -43.03545 
L 216.87552 -42.73913 
L 217.58976 -42.464814 
L 218.304 -42.210651 
L 219.01824 -41.974906 
L 219.73248 -41.755955 
L 220.44672 -41.552284 
L 221.16096 -41.362483 
L 221.8752 -41.185242 
L 222.58944 -41.019347 
L 223.30368 -40.863679 
L 224.01792 -40.717204 
L 224.73216 -40.578977 
L 225.4464 -40.448132 
L 226.16064 -40.323884 
L 226.87488 -40.205522 
L 227.58912 -40.092411 
L 228.30336 -39.983985 
L 229.0176 -39.879749 
L 229.73184 -39.779275 
L 230.44608 -39.6822 
L 231.16032 -39.588224 
L 231.87456 -39.497108 
L 232.5888 -39.408673 
L 233.30304 -39.322793 
L 234.01728 -39.239394 
L 234.73152 -39.158448 
L 235.44576 -39.079969 
L 236.16 -39.004004 
L 236.87424 -38.930632 
L 237.58848 -38.859949 
L 238.30272 -38.792069 
L 239.01696 -38.727106 
L 239.7312 -38.665178 
L 240.44544 -38.60639 
L 241.15968 -38.550833 
L 241.87392 -38.498577 
L 242.58816 -38.449669 
L 243.3024 -38.404125 
L 244.01664 -38.361934 
L 244.73088 -38.323055 
L 245.44512 -38.287418 
L 246.15936 -38.254927 
L 246.8736 -38.225462 
L 247.58784 -38.198881 
L 248.30208 -38.175028 
L 249.01632 -38.153734 
L 249.73056 -38.134822 
L 250.4448 -38.118107 
L 251.15904 -38.103408 
L 251.87328 -38.090544 
L 252.58752 -38.079338 
L 253.30176 -38.069621 
L 254.016 -38.061234 
L 254.73024 -38.054024 
L 255.44448 -38.047855 
L 256.15872 -38.042596 
L 256.87296 -38.038133 
L 257.5872 -38.034359 
L 258.30144 -38.03118 
L 259.01568 -38.028513 
L 259.72992 -38.026282 
L 260.44416 -38.024424 
L 261.1584 -38.022882 
L 261.87264 -38.021605 
L 262.58688 -38.020553 
L 263.30112 -38.019687 
L 264.01536 -38.018978 
L 264.7296 -38.018399 
L 265.44384 -38.017927 
L 266.15808 -38.017544 
L 266.87232 -38.017234 
L 267.58656 -38.016983 
L 268.3008 -38.016782 
L 269.01504 -38.01662 
L 269.72928 -38.01649 
L 270.44352 -38.016387 
L 271.15776 -38.016305 
L 271.872 -38.016239 
L 272.58624 -38.016187 
L 273.30048 -38.016147 
L 274.01472 -38.016114 
L 274.72896 -38.016089 
L 275.4432 -38.016069 
L 276.15744 -38.016053 
L 276.87168 -38.016041 
L 277.58592 -38.016032 
L 278.30016 -38.016024 
L 279.0144 -38.016019 
L 279.72864 -38.016014 
L 280.44288 -38.016011 
L 281.15712 -38.016008 
L 281.87136 -38.016006 
L 282.5856 -38.016005 
L 283.29984 -38.016004 
L 284.01408 -38.016003 
L 284.72832 -38.016002 
L 285.44256 -38.016002 
L 286.1568 -38.016001 
L 286.87104 -38.016001 
L 287.58528 -38.016001 
L 288.29952 -38.016 
L 289.01376 -38.016 
L 289.728 -38.016 
L 290.44224 -38.016 
L 291.15648 -38.016 
L 291.87072 -38.016 
L 292.58496 -38.016 
L 293.2992 -38.016 
L 294.01344 -38.016 
L 294.72768 -38.016 
L 295.44192 -38.016 
L 296.15616 -38.016 
L 296.8704 -38.016 
L 297.58464 -38.016 
L 298.29888 -38.016 
L 299.01312 -38.016 
L 299.72736 -38.016 
L 300.4416 -38.016 
L 301.15584 -38.016 
L 301.87008 -38.016 
L 302.58432 -38.016 
L 303.29856 -38.016 
L 304.0128 -38.016 
L 304.72704 -38.016 
L 305.44128 -38.016 
L 306.15552 -38.016 
L 306.86976 -38.016 
L 307.584 -38.016 
L 308.29824 -38.016 
L 309.01248 -38.016 
L 309.72672 -38.016 
L 310.44096 -38.016 
L 311.1552 -38.016 
L 311.86944 -38.016 
L 312.58368 -38.016 
L 313.29792 -38.016 
L 314.01216 -38.016 
L 314.7264 -38.016 
L 315.44064 -38.016 
L 316.15488 -38.016 
L 316.86912 -38.016 
L 317.58336 -38.016 
L 318.2976 -38.016 
L 319.01184 -38.016 
L 319.72608 -38.016 
L 320.44032 -38.016 
L 321.15456 -38.016 
L 321.8688 -38.016 
L 322.58304 -38.016 
L 323.29728 -38.016 
L 324.01152 -38.016 
L 324.72576 -38.016 
L 325.44 -38.016 
L 326.15424 -38.016 
L 326.86848 -38.016 
L 327.58272 -38.016 
L 328.29696 -38.016 
L 329.0112 -38.016 
L 329.72544 -38.016 
L 330.43968 -38.016 
L 331.15392 -38.016 
L 331.86816 -38.016 
L 332.5824 -38.016 
L 333.29664 -38.016 
L 334.01088 -38.016 
L 334.72512 -38.016 
L 335.43936 -38.016 
L 336.1536 -38.016 
L 336.86784 -38.016 
L 337.58208 -38.016 
L 338.29632 -38.016 
L 339.01056 -38.016 
L 339.7248 -38.016 
L 340.43904 -38.016 
L 341.15328 -38.016 
L 341.86752 -38.016 
L 342.58176 -38.016 
L 343.296 -38.016 
L 344.01024 -38.016 
L 344.72448 -38.016 
L 345.43872 -38.016 
L 346.15296 -38.016 
L 346.8672 -38.016 
L 347.58144 -38.016 
L 348.29568 -38.016 
L 349.00992 -38.016 
L 349.72416 -38.016 
L 350.4384 -38.016 
L 351.15264 -38.016 
L 351.86688 -38.016 
L 352.58112 -38.016 
L 353.29536 -38.016 
L 354.0096 -38.016 
L 354.72384 -38.016 
L 355.43808 -38.016 
L 356.15232 -38.016 
L 356.86656 -38.016 
L 357.5808 -38.016 
L 358.29504 -38.016 
L 359.00928 -38.016 
L 359.72352 -38.016 
L 360.43776 -38.016 
L 361.152 -38.016 
L 361.86624 -38.016 
L 362.58048 -38.016 
L 363.29472 -38.016 
L 364.00896 -38.016 
L 364.7232 -38.016 
L 365.43744 -38.016 
L 366.15168 -38.016 
L 366.86592 -38.016 
L 367.58016 -38.016 
L 368.2944 -38.016 
L 369.00864 -38.016 
L 369.72288 -38.016 
L 370.43712 -38.016 
L 371.15136 -38.016 
L 371.8656 -38.016 
L 372.57984 -38.016 
L 373.29408 -38.016 
L 374.00832 -38.016 
L 374.72256 -38.016 
L 375.4368 -38.016 
L 376.15104 -38.016 
L 376.86528 -38.016 
L 377.57952 -38.016 
L 378.29376 -38.016 
L 379.008 -38.016 
L 379.72224 -38.016 
L 380.43648 -38.016 
L 381.15072 -38.016 
L 381.86496 -38.016 
L 382.5792 -38.016 
L 383.29344 -38.016 
L 384.00768 -38.016 
L 384.72192 -38.016 
L 385.43616 -38.016 
L 386.1504 -38.016 
L 386.86464 -38.016 
L 387.57888 -38.016 
L 388.29312 -38.016 
L 389.00736 -38.016 
L 389.7216 -38.016 
L 390.43584 -38.016 
L 391.15008 -38.016 
L 391.86432 -38.016 
L 392.57856 -38.016 
L 393.2928 -38.016 
L 394.00704 -38.016 
L 394.72128 -38.016 
L 395.43552 -38.016 
L 396.14976 -38.016 
L 396.864 -38.016 
L 397.57824 -38.016 
L 398.29248 -38.016 
L 399.00672 -38.016 
L 399.72096 -38.016 
L 400.4352 -38.016 
L 401.14944 -38.016 
L 401.86368 -38.016 
L 402.57792 -38.016 
L 403.29216 -38.016 
L 404.0064 -38.016 
L 404.72064 -38.016 
L 405.43488 -38.016 
L 406.14912 -38.016 
L 406.86336 -38.016 
L 407.5776 -38.016 
L 408.29184 -38.016 
L 409.00608 -38.016 
L 409.72032 -38.016 
L 410.43456 -38.016 
L 411.1488 -38.016 
L 411.86304 -38.016 
L 412.57728 -38.016 
L 413.29152 -38.016 
L 414.00576 -38.016 
L 414.72 -38.016 
L 414.72 -38.016 
L 414.72 -38.016 
L 414.00576 -38.016 
L 413.29152 -38.016 
L 412.57728 -38.016 
L 411.86304 -38.016 
L 411.1488 -38.016 
L 410.43456 -38.016 
L 409.72032 -38.016 
L 409.00608 -38.016 
L 408.29184 -38.016 
L 407.5776 -38.016 
L 406.86336 -38.016 
L 406.14912 -38.016 
L 405.43488 -38.016 
L 404.72064 -38.016 
L 404.0064 -38.016 
L 403.29216 -38.016 
L 402.57792 -38.016 
L 401.86368 -38.016 
L 401.14944 -38.016 
L 400.4352 -38.016 
L 399.72096 -38.016 
L 399.00672 -38.016 
L 398.29248 -38.016 
L 397.57824 -38.016 
L 396.864 -38.016 
L 396.14976 -38.016 
L 395.43552 -38.016 
L 394.72128 -38.016 
L 394.00704 -38.016 
L 393.2928 -38.016 
L 392.57856 -38.016 
L 391.86432 -38.016 
L 391.15008 -38.016 
L 390.43584 -38.016 
L 389.7216 -38.016 
L 389.00736 -38.016 
L 388.29312 -38.016 
L 387.57888 -38.016 
L 386.86464 -38.016 
L 386.1504 -38.016 
L 385.43616 -38.016 
L 384.72192 -38.016 
L 384.00768 -38.016 
L 383.29344 -38.016 
L 382.5792 -38.016 
L 381.86496 -38.016 
L 381.15072 -38.016 
L 380.43648 -38.016 
L 379.72224 -38.016 
L 379.008 -38.016 
L 378.29376 -38.016 
L 377.57952 -38.016 
L 376.86528 -38.016 
L 376.15104 -38.016 
L 375.4368 -38.016 
L 374.72256 -38.016 
L 374.00832 -38.016 
L 373.29408 -38.016 
L 372.57984 -38.016 
L 371.8656 -38.016 
L 371.15136 -38.016 
L 370.43712 -38.016 
L 369.72288 -38.016 
L 369.00864 -38.016 
L 368.2944 -38.016 
L 367.58016 -38.016 
L 366.86592 -38.016 
L 366.15168 -38.016 
L 365.43744 -38.016 
L 364.7232 -38.016 
L 364.00896 -38.016 
L 363.29472 -38.016 
L 362.58048 -38.016 
L 361.86624 -38.016 
L 361.152 -38.016 
L 360.43776 -38.016 
L 359.72352 -38.016 
L 359.00928 -38.016 
L 358.29504 -38.016 
L 357.5808 -38.016 
L 356.86656 -38.016 
L 356.15232 -38.016 
L 355.43808 -38.016 
L 354.72384 -38.016 
L 354.0096 -38.016 
L 353.29536 -38.016 
L 352.58112 -38.016 
L 351.86688 -38.016 
L 351.15264 -38.016 
L 350.4384 -38.016 
L 349.72416 -38.016 
L 349.00992 -38.016 
L 348.29568 -38.016 
L 347.58144 -38.016 
L 346.8672 -38.016 
L 346.15296 -38.016 
L 345.43872 -38.016 
L 344.72448 -38.016 
L 344.01024 -38.016 
L 343.296 -38.016 
L 342.58176 -38.016 
L 341.86752 -38.016 
L 341.15328 -38.016 
L 340.43904 -38.016 
L 339.7248 -38.016 
L 339.01056 -38.016 
L 338.29632 -38.016 
L 337.58208 -38.016 
L 336.86784 -38.016 
L 336.1536 -38.016 
L 335.43936 -38.016 
L 334.72512 -38.016 
L 334.01088 -38.016 
L 333.29664 -38.016 
L 332.5824 -38.016 
L 331.86816 -38.016 
L 331.15392 -38.016 
L 330.43968 -38.016 
L 329.72544 -38.016 
L 329.0112 -38.016 
L 328.29696 -38.016 
L 327.58272 -38.016 
L 326.86848 -38.016 
L 326.15424 -38.016 
L 325.44 -38.016 
L 324.72576 -38.016 
L 324.01152 -38.016 
L 323.29728 -38.016 
L 322.58304 -38.016 
L 321.8688 -38.016 
L 321.15456 -38.016 
L 320.44032 -38.016 
L 319.72608 -38.016 
L 319.01184 -38.016 
L 318.2976 -38.016 
L 317.58336 -38.016 
L 316.86912 -38.016 
L 316.15488 -38.016 
L 315.44064 -38.016 
L 314.7264 -38.016 
L 314.01216 -38.016 
L 313.29792 -38.016 
L 312.58368 -38.016 
L 311.86944 -38.016 
L 311.1552 -38.016 
L 310.44096 -38.016 
L 309.72672 -38.016 
L 309.01248 -38.016 
L 308.29824 -38.016 
L 307.584 -38.016 
L 306.86976 -38.016 
L 306.15552 -38.016 
L 305.44128 -38.016 
L 304.72704 -38.016 
L 304.0128 -38.016 
L 303.29856 -38.016 
L 302.58432 -38.016 
L 301.87008 -38.016001 
L 301.15584 -38.016001 
L 300.4416 -38.016001 
L 299.72736 -38.016002 
L 299.01312 -38.016002 
L 298.29888 -38.016003 
L 297.58464 -38.016004 
L 296.8704 -38.016006 
L 296.15616 -38.016008 
L 295.44192 -38.016011 
L 294.72768 -38.016015 
L 294.01344 -38.01602 
L 293.2992 -38.016027 
L 292.58496 -38.016036 
L 291.87072 -38.016048 
L 291.15648 -38.016064 
L 290.44224 -38.016085 
L 289.728 -38.016113 
L 289.01376 -38.01615 
L 288.29952 -38.016199 
L 287.58528 -38.016263 
L 286.87104 -38.016347 
L 286.1568 -38.016456 
L 285.44256 -38.016599 
L 284.72832 -38.016784 
L 284.01408 -38.017025 
L 283.29984 -38.017337 
L 282.5856 -38.01774 
L 281.87136 -38.018259 
L 281.15712 -38.018927 
L 280.44288 -38.019783 
L 279.72864 -38.020879 
L 279.0144 -38.022279 
L 278.30016 -38.024061 
L 277.58592 -38.026327 
L 276.87168 -38.029198 
L 276.15744 -38.032829 
L 275.4432 -38.037409 
L 274.72896 -38.043172 
L 274.01472 -38.050406 
L 273.30048 -38.059462 
L 272.58624 -38.070772 
L 271.872 -38.084859 
L 271.15776 -38.10236 
L 270.44352 -38.124045 
L 269.72928 -38.150842 
L 269.01504 -38.183868 
L 268.3008 -38.224458 
L 267.58656 -38.274206 
L 266.87232 -38.335007 
L 266.15808 -38.409102 
L 265.44384 -38.499136 
L 264.7296 -38.608211 
L 264.01536 -38.739956 
L 263.30112 -38.898589 
L 262.58688 -39.088999 
L 261.87264 -39.316815 
L 261.1584 -39.588488 
L 260.44416 -39.911369 
L 259.72992 -40.293787 
L 259.01568 -40.745118 
L 258.30144 -41.275846 
L 257.5872 -41.897612 
L 256.87296 -42.623241 
L 256.15872 -43.466745 
L 255.44448 -44.443296 
L 254.73024 -45.569163 
L 254.016 -46.861594 
L 253.30176 -48.338662 
L 252.58752 -50.019044 
L 251.87328 -51.92174 
L 251.15904 -54.06573 
L 250.4448 -56.469572 
L 249.73056 -59.150927 
L 249.01632 -62.126047 
L 248.30208 -65.409212 
L 247.58784 -69.012141 
L 246.8736 -72.943406 
L 246.15936 -77.207858 
L 245.44512 -81.806113 
L 244.73088 -86.7341 
L 244.01664 -91.982738 
L 243.3024 -97.537731 
L 242.58816 -103.379535 
L 241.87392 -109.483497 
L 241.15968 -115.820178 
L 240.44544 -122.355856 
L 239.7312 -129.053197 
L 239.01696 -135.872063 
L 238.30272 -142.770427 
L 237.58848 -149.705354 
L 236.87424 -156.633995 
L 236.16 -163.514555 
L 235.44576 -170.307186 
L 234.73152 -176.974778 
L 234.01728 -183.483603 
L 233.30304 -189.803812 
L 232.5888 -195.90977 
L 231.87456 -201.78023 
L 231.16032 -207.398352 
L 230.44608 -212.751609 
L 229.73184 -217.831559 
L 229.0176 -222.633557 
L 228.30336 -227.156385 
L 227.58912 -231.401856 
L 226.87488 -235.374397 
L 226.16064 -239.080632 
L 225.4464 -242.528972 
L 224.73216 -245.729243 
L 224.01792 -248.692332 
L 223.30368 -251.429875 
L 222.58944 -253.95398 
L 221.8752 -256.276994 
L 221.16096 -258.411303 
L 220.44672 -260.369161 
L 219.73248 -262.162564 
L 219.01824 -263.803144 
L 218.304 -265.302085 
L 217.58976 -266.670072 
L 216.87552 -267.917248 
L 216.16128 -269.053192 
L 215.44704 -270.086909 
L 214.7328 -271.02683 
L 214.01856 -271.880818 
L 213.30432 -272.656185 
L 212.59008 -273.35971 
L 211.87584 -273.997662 
L 211.1616 -274.575826 
L 210.44736 -275.099526 
L 209.73312 -275.573658 
L 209.01888 -276.002713 
L 208.30464 -276.390803 
L 207.5904 -276.741694 
L 206.87616 -277.058824 
L 206.16192 -277.345331 
L 205.44768 -277.604079 
L 204.73344 -277.837674 
L 204.0192 -278.04849 
L 203.30496 -278.238684 
L 202.59072 -278.410219 
L 201.87648 -278.564875 
L 201.16224 -278.70427 
L 200.448 -278.829871 
L 199.73376 -278.943008 
L 199.01952 -279.044886 
L 198.30528 -279.136599 
L 197.59104 -279.219134 
L 196.8768 -279.293388 
L 196.16256 -279.36017 
L 195.44832 -279.420213 
L 194.73408 -279.47418 
L 194.01984 -279.522669 
L 193.3056 -279.566223 
L 192.59136 -279.60533 
L 191.87712 -279.640432 
L 191.16288 -279.671928 
L 190.44864 -279.700178 
L 189.7344 -279.725507 
L 189.02016 -279.748208 
L 188.30592 -279.768546 
L 187.59168 -279.786759 
L 186.87744 -279.803062 
L 186.1632 -279.81765 
L 185.44896 -279.830696 
L 184.73472 -279.842359 
L 184.02048 -279.85278 
L 183.30624 -279.862086 
L 182.592 -279.870394 
L 181.87776 -279.877805 
L 181.16352 -279.884413 
L 180.44928 -279.890302 
L 179.73504 -279.895547 
L 179.0208 -279.900216 
L 178.30656 -279.904369 
L 177.59232 -279.908062 
L 176.87808 -279.911342 
L 176.16384 -279.914254 
L 175.4496 -279.916838 
L 174.73536 -279.919129 
L 174.02112 -279.921158 
L 173.30688 -279.922955 
L 172.59264 -279.924544 
L 171.8784 -279.925949 
L 171.16416 -279.92719 
L 170.44992 -279.928284 
L 169.73568 -279.929249 
L 169.02144 -279.9301 
L 168.3072 -279.930848 
L 167.59296 -279.931506 
L 166.87872 -279.932084 
L 166.16448 -279.932591 
L 165.45024 -279.933036 
L 164.736 -279.933425 
L 164.02176 -279.933766 
L 163.30752 -279.934064 
L 162.59328 -279.934324 
L 161.87904 -279.934551 
L 161.1648 -279.934748 
L 160.45056 -279.93492 
L 159.73632 -279.93507 
L 159.02208 -279.935199 
L 158.30784 -279.935312 
L 157.5936 -279.935409 
L 156.87936 -279.935494 
L 156.16512 -279.935566 
L 155.45088 -279.935629 
L 154.73664 -279.935683 
L 154.0224 -279.93573 
L 153.30816 -279.93577 
L 152.59392 -279.935804 
L 151.87968 -279.935834 
L 151.16544 -279.935859 
L 150.4512 -279.935881 
L 149.73696 -279.935899 
L 149.02272 -279.935915 
L 148.30848 -279.935928 
L 147.59424 -279.935939 
L 146.88 -279.935949 
L 146.16576 -279.935957 
L 145.45152 -279.935964 
L 144.73728 -279.93597 
L 144.02304 -279.935975 
L 143.3088 -279.935979 
L 142.59456 -279.935983 
L 141.88032 -279.935985 
L 141.16608 -279.935988 
L 140.45184 -279.93599 
L 139.7376 -279.935992 
L 139.02336 -279.935993 
L 138.30912 -279.935994 
L 137.59488 -279.935995 
L 136.88064 -279.935996 
L 136.1664 -279.935997 
L 135.45216 -279.935997 
L 134.73792 -279.935998 
L 134.02368 -279.935998 
L 133.30944 -279.935999 
L 132.5952 -279.935999 
L 131.88096 -279.935999 
L 131.16672 -279.935999 
L 130.45248 -279.935999 
L 129.73824 -279.935999 
L 129.024 -279.936 
L 128.30976 -279.936 
L 127.59552 -279.936 
L 126.88128 -279.936 
L 126.16704 -279.936 
L 125.4528 -279.936 
L 124.73856 -279.936 
L 124.02432 -279.936 
L 123.31008 -279.936 
L 122.59584 -279.936 
L 121.8816 -279.936 
L 121.16736 -279.936 
L 120.45312 -279.936 
L 119.73888 -279.936 
L 119.02464 -279.936 
L 118.3104 -279.936 
L 117.59616 -279.936 
L 116.88192 -279.936 
L 116.16768 -279.936 
L 115.45344 -279.936 
L 114.7392 -279.936 
L 114.02496 -279.936 
L 113.31072 -279.936 
L 112.59648 -279.936 
L 111.88224 -279.936 
L 111.168 -279.936 
L 110.45376 -279.936 
L 109.73952 -279.936 
L 109.02528 -279.936 
L 108.31104 -279.936 
L 107.5968 -279.936 
L 106.88256 -279.936 
L 106.16832 -279.936 
L 105.45408 -279.936 
L 104.73984 -279.936 
L 104.0256 -279.936 
L 103.31136 -279.936 
L 102.59712 -279.936 
L 101.88288 -279.936 
L 101.16864 -279.936 
L 100.4544 -279.936 
L 99.74016 -279.936 
L 99.02592 -279.936 
L 98.31168 -279.936 
L 97.59744 -279.936 
L 96.8832 -279.936 
L 96.16896 -279.936 
L 95.45472 -279.936 
L 94.74048 -279.936 
L 94.02624 -279.936 
L 93.312 -279.936 
L 92.59776 -279.936 
L 91.88352 -279.936 
L 91.16928 -279.936 
L 90.45504 -279.936 
L 89.7408 -279.936 
L 89.02656 -279.936 
L 88.31232 -279.936 
L 87.59808 -279.936 
L 86.88384 -279.936 
L 86.1696 -279.936 
L 85.45536 -279.936 
L 84.74112 -279.936 
L 84.02688 -279.936 
L 83.31264 -279.936 
L 82.5984 -279.936 
L 81.88416 -279.936 
L 81.16992 -279.936 
L 80.45568 -279.936 
L 79.74144 -279.936 
L 79.0272 -279.936 
L 78.31296 -279.936 
L 77.59872 -279.936 
L 76.88448 -279.936 
L 76.17024 -279.936 
L 75.456 -279.936 
L 74.74176 -279.936 
L 74.02752 -279.936 
L 73.31328 -279.936 
L 72.59904 -279.936 
L 71.8848 -279.936 
L 71.17056 -279.936 
L 70.45632 -279.936 
L 69.74208 -279.936 
L 69.02784 -279.936 
L 68.3136 -279.936 
L 67.59936 -279.936 
L 66.88512 -279.936 
L 66.17088 -279.936 
L 65.45664 -279.936 
L 64.7424 -279.936 
L 64.02816 -279.936 
L 63.31392 -279.936 
L 62.59968 -279.936 
L 61.88544 -279.936 
L 61.1712 -279.936 
L 60.45696 -279.936 
L 59.74272 -279.936 
L 59.02848 -279.936 
L 58.31424 -279.936 
L 57.6 -279.936 
z
" id="m5848a8020d" style="stroke:#afe88e;"/>
    </defs>
    <g clip-path="url(#p1664182f9e)">
     <use style="fill:#afe88e;stroke:#afe88e;" x="0" xlink:href="#m5848a8020d" y="345.6"/>
    </g>
   </g>
   <g id="line2d_1">
    <path clip-path="url(#p1664182f9e)" d="M 57.6 65.664 
L 185.44896 65.769304 
L 192.59136 65.99467 
L 196.8768 66.306612 
L 200.448 66.770129 
L 203.30496 67.361316 
L 205.44768 67.995921 
L 207.5904 68.858306 
L 209.73312 70.026342 
L 211.1616 71.024174 
L 212.59008 72.24029 
L 214.01856 73.719182 
L 215.44704 75.513091 
L 216.87552 77.682752 
L 218.304 80.297915 
L 219.73248 83.437436 
L 221.16096 87.188697 
L 222.58944 91.64602 
L 224.01792 96.907668 
L 225.4464 103.071028 
L 226.87488 110.225603 
L 228.30336 118.443615 
L 229.73184 127.768441 
L 231.16032 138.201648 
L 233.30304 155.796188 
L 235.44576 175.292814 
L 242.58816 242.220465 
L 244.73088 258.8659 
L 246.15936 268.392142 
L 247.58784 276.587859 
L 249.01632 283.473953 
L 250.4448 289.130428 
L 251.87328 293.67826 
L 253.30176 297.261338 
L 254.73024 300.030837 
L 256.15872 302.133255 
L 257.5872 303.702388 
L 259.01568 304.854882 
L 260.44416 305.688631 
L 261.87264 306.283185 
L 264.01536 306.860044 
L 266.15808 307.190898 
L 269.01504 307.416132 
L 274.01472 307.549594 
L 288.29952 307.583801 
L 414.72 307.584 
L 414.72 307.584 
" style="fill:none;stroke:#000000;stroke-linecap:square;stroke-width:0.7;"/>
   </g>
   <g id="patch_3">
    <path d="M 57.6 307.584 
L 57.6 41.472 
" style="fill:none;stroke:#000000;stroke-linecap:square;stroke-linejoin:miter;stroke-width:0.8;"/>
   </g>
   <g id="patch_4">
    <path d="M 414.72 307.584 
L 414.72 41.472 
" style="fill:none;stroke:#000000;stroke-linecap:square;stroke-linejoin:miter;stroke-width:0.8;"/>
   </g>
   <g id="patch_5">
    <path d="M 57.6 307.584 
L 414.72 307.584 
" style="fill:none;stroke:#000000;stroke-linecap:square;stroke-linejoin:miter;stroke-width:0.8;"/>
   </g>
   <g id="patch_6">
    <path d="M 57.6 41.472 
L 414.72 41.472 
" style="fill:none;stroke:#000000;stroke-linecap:square;stroke-linejoin:miter;stroke-width:0.8;"/>
   </g>
   <g id="legend_1">
    <g id="patch_7">
     <path d="M 91.90611 34.09119 
L 246.68736 34.09119 
Q 249.08736 34.09119 249.08736 31.69119 
L 249.08736 15.27744 
Q 249.08736 12.87744 246.68736 12.87744 
L 91.90611 12.87744 
Q 89.50611 12.87744 89.50611 15.27744 
L 89.50611 31.69119 
Q 89.50611 34.09119 91.90611 34.09119 
z
" style="fill:#ffffff;opacity:0.8;stroke:#cccccc;stroke-linejoin:miter;"/>
    </g>
    <g id="patch_8">
     <path d="M 94.30611 26.795565 
L 118.30611 26.795565 
L 118.30611 18.395565 
L 94.30611 18.395565 
z
" style="fill:#509369;stroke:#509369;stroke-linejoin:miter;"/>
    </g>
    <g id="text_1">
     <!-- back -->
     <g transform="translate(127.90611 26.795565)scale(0.12 -0.12)">
      <defs>
       <path d="M 11.53125 5.171875 
L 11.53125 70.796875 
L 2.875 70.796875 
L 2.875 75.984375 
L 20.515625 75.984375 
L 20.515625 43.796875 
Q 23.140625 48.6875 27.21875 51 
Q 31.296875 53.328125 37.3125 53.328125 
Q 46.875 53.328125 52.921875 45.75 
Q 58.984375 38.1875 58.984375 25.984375 
Q 58.984375 13.765625 52.921875 6.171875 
Q 46.875 -1.421875 37.3125 -1.421875 
Q 31.296875 -1.421875 27.21875 0.890625 
Q 23.140625 3.21875 20.515625 8.109375 
L 20.515625 0 
L 2.875 0 
L 2.875 5.171875 
z
M 20.515625 23.390625 
Q 20.515625 14.015625 24.09375 9.109375 
Q 27.6875 4.203125 34.515625 4.203125 
Q 41.40625 4.203125 44.9375 9.71875 
Q 48.484375 15.234375 48.484375 25.984375 
Q 48.484375 36.765625 44.9375 42.234375 
Q 41.40625 47.703125 34.515625 47.703125 
Q 27.6875 47.703125 24.09375 42.765625 
Q 20.515625 37.84375 20.515625 28.515625 
z
" id="DejaVuSerif-98"/>
       <path d="M 39.796875 16.3125 
L 39.796875 27.296875 
L 28.21875 27.296875 
Q 21.53125 27.296875 18.25 24.40625 
Q 14.984375 21.53125 14.984375 15.578125 
Q 14.984375 10.15625 18.296875 6.984375 
Q 21.625 3.8125 27.296875 3.8125 
Q 32.90625 3.8125 36.34375 7.28125 
Q 39.796875 10.75 39.796875 16.3125 
z
M 48.78125 32.421875 
L 48.78125 5.171875 
L 56.78125 5.171875 
L 56.78125 0 
L 39.796875 0 
L 39.796875 5.609375 
Q 36.8125 2 32.90625 0.28125 
Q 29 -1.421875 23.78125 -1.421875 
Q 15.140625 -1.421875 10.0625 3.171875 
Q 4.984375 7.765625 4.984375 15.578125 
Q 4.984375 23.640625 10.796875 28.078125 
Q 16.609375 32.515625 27.203125 32.515625 
L 39.796875 32.515625 
L 39.796875 36.078125 
Q 39.796875 42 36.203125 45.234375 
Q 32.625 48.484375 26.125 48.484375 
Q 20.75 48.484375 17.578125 46.046875 
Q 14.40625 43.609375 13.625 38.8125 
L 8.984375 38.8125 
L 8.984375 49.3125 
Q 13.671875 51.3125 18.09375 52.3125 
Q 22.515625 53.328125 26.703125 53.328125 
Q 37.5 53.328125 43.140625 47.96875 
Q 48.78125 42.625 48.78125 32.421875 
z
" id="DejaVuSerif-97"/>
       <path d="M 51.421875 15.578125 
Q 49.515625 7.28125 44.09375 2.921875 
Q 38.671875 -1.421875 30.078125 -1.421875 
Q 18.75 -1.421875 11.859375 6.078125 
Q 4.984375 13.578125 4.984375 25.984375 
Q 4.984375 38.421875 11.859375 45.875 
Q 18.75 53.328125 30.078125 53.328125 
Q 35.015625 53.328125 39.890625 52.171875 
Q 44.78125 51.03125 49.703125 48.6875 
L 49.703125 35.40625 
L 44.484375 35.40625 
Q 43.453125 42.234375 40.015625 45.359375 
Q 36.578125 48.484375 30.171875 48.484375 
Q 22.90625 48.484375 19.1875 42.84375 
Q 15.484375 37.203125 15.484375 25.984375 
Q 15.484375 14.75 19.171875 9.078125 
Q 22.859375 3.421875 30.171875 3.421875 
Q 35.984375 3.421875 39.453125 6.4375 
Q 42.921875 9.46875 44.1875 15.578125 
z
" id="DejaVuSerif-99"/>
       <path d="M 28.609375 0 
L 3.421875 0 
L 3.421875 5.171875 
L 11.53125 5.171875 
L 11.53125 70.796875 
L 2.875 70.796875 
L 2.875 75.984375 
L 20.515625 75.984375 
L 20.515625 26.515625 
L 42.390625 46.6875 
L 34.90625 46.6875 
L 34.90625 51.90625 
L 58.40625 51.90625 
L 58.40625 46.6875 
L 49.515625 46.6875 
L 34.078125 32.421875 
L 53.8125 5.171875 
L 61.28125 5.171875 
L 61.28125 0 
L 35.6875 0 
L 35.6875 5.171875 
L 43.109375 5.171875 
L 27.59375 26.515625 
L 20.515625 19.921875 
L 20.515625 5.171875 
L 28.609375 5.171875 
z
" id="DejaVuSerif-107"/>
      </defs>
      <use xlink:href="#DejaVuSerif-98"/>
      <use x="64.013672" xlink:href="#DejaVuSerif-97"/>
      <use x="123.632812" xlink:href="#DejaVuSerif-99"/>
      <use x="179.638672" xlink:href="#DejaVuSerif-107"/>
     </g>
    </g>
    <g id="patch_9">
     <path d="M 180.734235 26.795565 
L 204.734235 26.795565 
L 204.734235 18.395565 
L 180.734235 18.395565 
z
" style="fill:#afe88e;stroke:#afe88e;stroke-linejoin:miter;"/>
    </g>
    <g id="text_2">
     <!-- front -->
     <g transform="translate(214.334235 26.795565)scale(0.12 -0.12)">
      <defs>
       <path d="M 43.015625 63.71875 
L 38.28125 63.71875 
Q 38.234375 67.390625 36.203125 69.28125 
Q 34.1875 71.1875 30.328125 71.1875 
Q 25.296875 71.1875 23.234375 68.421875 
Q 21.1875 65.671875 21.1875 58.59375 
L 21.1875 51.90625 
L 35.6875 51.90625 
L 35.6875 46.6875 
L 21.1875 46.6875 
L 21.1875 5.171875 
L 32.71875 5.171875 
L 32.71875 0 
L 3.609375 0 
L 3.609375 5.171875 
L 12.203125 5.171875 
L 12.203125 46.6875 
L 3.609375 46.6875 
L 3.609375 51.90625 
L 12.203125 51.90625 
L 12.203125 58.40625 
Q 12.203125 67.09375 16.71875 71.53125 
Q 21.234375 75.984375 29.984375 75.984375 
Q 33.25 75.984375 36.515625 75.390625 
Q 39.796875 74.8125 43.015625 73.578125 
z
" id="DejaVuSerif-102"/>
       <path d="M 47.796875 52 
L 47.796875 39.015625 
L 42.625 39.015625 
Q 42.390625 42.875 40.484375 44.78125 
Q 38.578125 46.6875 34.90625 46.6875 
Q 28.265625 46.6875 24.71875 42.09375 
Q 21.1875 37.5 21.1875 28.90625 
L 21.1875 5.171875 
L 31.59375 5.171875 
L 31.59375 0 
L 4.109375 0 
L 4.109375 5.171875 
L 12.203125 5.171875 
L 12.203125 46.78125 
L 3.609375 46.78125 
L 3.609375 51.90625 
L 21.1875 51.90625 
L 21.1875 42.671875 
Q 23.828125 48.09375 27.96875 50.703125 
Q 32.125 53.328125 38.09375 53.328125 
Q 40.28125 53.328125 42.703125 52.984375 
Q 45.125 52.640625 47.796875 52 
z
" id="DejaVuSerif-114"/>
       <path d="M 30.078125 3.421875 
Q 37.3125 3.421875 40.984375 9.125 
Q 44.671875 14.84375 44.671875 25.984375 
Q 44.671875 37.109375 40.984375 42.796875 
Q 37.3125 48.484375 30.078125 48.484375 
Q 22.859375 48.484375 19.171875 42.796875 
Q 15.484375 37.109375 15.484375 25.984375 
Q 15.484375 14.84375 19.1875 9.125 
Q 22.90625 3.421875 30.078125 3.421875 
z
M 30.078125 -1.421875 
Q 18.75 -1.421875 11.859375 6.078125 
Q 4.984375 13.578125 4.984375 25.984375 
Q 4.984375 38.375 11.84375 45.84375 
Q 18.703125 53.328125 30.078125 53.328125 
Q 41.453125 53.328125 48.3125 45.84375 
Q 55.171875 38.375 55.171875 25.984375 
Q 55.171875 13.578125 48.3125 6.078125 
Q 41.453125 -1.421875 30.078125 -1.421875 
z
" id="DejaVuSerif-111"/>
       <path d="M 4.109375 0 
L 4.109375 5.171875 
L 12.203125 5.171875 
L 12.203125 46.6875 
L 3.609375 46.6875 
L 3.609375 51.90625 
L 21.1875 51.90625 
L 21.1875 42.671875 
Q 23.6875 47.953125 27.65625 50.640625 
Q 31.640625 53.328125 36.921875 53.328125 
Q 45.515625 53.328125 49.5625 48.390625 
Q 53.609375 43.453125 53.609375 33.015625 
L 53.609375 5.171875 
L 61.625 5.171875 
L 61.625 0 
L 36.8125 0 
L 36.8125 5.171875 
L 44.578125 5.171875 
L 44.578125 30.171875 
Q 44.578125 39.703125 42.234375 43.234375 
Q 39.890625 46.78125 33.984375 46.78125 
Q 27.734375 46.78125 24.453125 42.203125 
Q 21.1875 37.640625 21.1875 28.90625 
L 21.1875 5.171875 
L 29 5.171875 
L 29 0 
z
" id="DejaVuSerif-110"/>
       <path d="M 10.796875 46.6875 
L 2.875 46.6875 
L 2.875 51.90625 
L 10.796875 51.90625 
L 10.796875 68.015625 
L 19.828125 68.015625 
L 19.828125 51.90625 
L 36.71875 51.90625 
L 36.71875 46.6875 
L 19.828125 46.6875 
L 19.828125 13.71875 
Q 19.828125 7.125 21.09375 5.265625 
Q 22.359375 3.421875 25.78125 3.421875 
Q 29.296875 3.421875 30.90625 5.484375 
Q 32.515625 7.5625 32.625 12.203125 
L 39.40625 12.203125 
Q 39.015625 5.125 35.546875 1.84375 
Q 32.078125 -1.421875 25 -1.421875 
Q 17.234375 -1.421875 14.015625 2.015625 
Q 10.796875 5.46875 10.796875 13.71875 
z
" id="DejaVuSerif-116"/>
      </defs>
      <use xlink:href="#DejaVuSerif-102"/>
      <use x="37.011719" xlink:href="#DejaVuSerif-114"/>
      <use x="84.814453" xlink:href="#DejaVuSerif-111"/>
      <use x="145.019531" xlink:href="#DejaVuSerif-110"/>
      <use x="209.423828" xlink:href="#DejaVuSerif-116"/>
     </g>
    </g>
   </g>
  </g>
 </g>
 <defs>
  <clipPath id="p1664182f9e">
   <rect height="266.112" width="357.12" x="57.6" y="41.472"/>
  </clipPath>
 </defs>
</svg>
