<?xml version="1.0" encoding="utf-8" standalone="no"?>
<!DOCTYPE svg PUBLIC "-//W3C//DTD SVG 1.1//EN"
  "http://www.w3.org/Graphics/SVG/1.1/DTD/svg11.dtd">
<!-- Created with matplotlib (https://matplotlib.org/) -->
<svg height="345.6pt" version="1.1" viewBox="0 0 460.8 345.6" width="460.8pt" xmlns="http://www.w3.org/2000/svg" xmlns:xlink="http://www.w3.org/1999/xlink">
 <metadata>
  <rdf:RDF xmlns:cc="http://creativecommons.org/ns#" xmlns:dc="http://purl.org/dc/elements/1.1/" xmlns:rdf="http://www.w3.org/1999/02/22-rdf-syntax-ns#">
   <cc:Work>
    <dc:type rdf:resource="http://purl.org/dc/dcmitype/StillImage"/>
    <dc:date>2023-03-20T14:32:03.224163</dc:date>
    <dc:format>image/svg+xml</dc:format>
    <dc:creator>
     <cc:Agent>
      <dc:title>Matplotlib v3.3.4, https://matplotlib.org/</dc:title>
     </cc:Agent>
    </dc:creator>
   </cc:Work>
  </rdf:RDF>
 </metadata>
 <defs>
  <style type="text/css">*{stroke-linecap:butt;stroke-linejoin:round;}</style>
 </defs>
 <g id="figure_1">
  <g id="patch_1">
   <path d="M 0 345.6 
L 460.8 345.6 
L 460.8 0 
L 0 0 
z
" style="fill:#ffffff;"/>
  </g>
  <g id="axes_1">
   <g id="patch_2">
    <path d="M 57.6 307.584 
L 414.72 307.584 
L 414.72 41.472 
L 57.6 41.472 
z
" style="fill:#ffffff;"/>
   </g>
   <g id="matplotlib.axis_1">
    <g id="xtick_1">
     <g id="line2d_1">
      <defs>
       <path d="M 0 0 
L 0 3.5 
" id="m0e97f67618" style="stroke:#000000;stroke-width:0.8;"/>
      </defs>
      <g>
       <use style="stroke:#000000;stroke-width:0.8;" x="71.579702" xlink:href="#m0e97f67618" y="307.584"/>
      </g>
     </g>
     <g id="text_1">
      <!-- 0 -->
      <g transform="translate(68.398452 322.182437)scale(0.1 -0.1)">
       <defs>
        <path d="M 31.78125 3.421875 
Q 39.265625 3.421875 42.96875 11.625 
Q 46.6875 19.828125 46.6875 36.375 
Q 46.6875 52.984375 42.96875 61.1875 
Q 39.265625 69.390625 31.78125 69.390625 
Q 24.3125 69.390625 20.59375 61.1875 
Q 16.890625 52.984375 16.890625 36.375 
Q 16.890625 19.828125 20.59375 11.625 
Q 24.3125 3.421875 31.78125 3.421875 
z
M 31.78125 -1.421875 
Q 19.921875 -1.421875 13.25 8.53125 
Q 6.59375 18.5 6.59375 36.375 
Q 6.59375 54.296875 13.25 64.25 
Q 19.921875 74.21875 31.78125 74.21875 
Q 43.703125 74.21875 50.34375 64.25 
Q 56.984375 54.296875 56.984375 36.375 
Q 56.984375 18.5 50.34375 8.53125 
Q 43.703125 -1.421875 31.78125 -1.421875 
z
" id="DejaVuSerif-48"/>
       </defs>
       <use xlink:href="#DejaVuSerif-48"/>
      </g>
     </g>
    </g>
    <g id="xtick_2">
     <g id="line2d_2">
      <g>
       <use style="stroke:#000000;stroke-width:0.8;" x="135.95186" xlink:href="#m0e97f67618" y="307.584"/>
      </g>
     </g>
     <g id="text_2">
      <!-- 50 -->
      <g transform="translate(129.58936 322.182437)scale(0.1 -0.1)">
       <defs>
        <path d="M 50.296875 72.90625 
L 50.296875 64.890625 
L 16.890625 64.890625 
L 16.890625 44 
Q 19.4375 45.75 22.828125 46.625 
Q 26.21875 47.515625 30.421875 47.515625 
Q 42.234375 47.515625 49.0625 40.96875 
Q 55.90625 34.421875 55.90625 23.09375 
Q 55.90625 11.53125 49 5.046875 
Q 42.09375 -1.421875 29.59375 -1.421875 
Q 24.5625 -1.421875 19.28125 -0.1875 
Q 14.015625 1.03125 8.5 3.515625 
L 8.5 17.671875 
L 14.015625 17.671875 
Q 14.453125 10.75 18.421875 7.078125 
Q 22.40625 3.421875 29.59375 3.421875 
Q 37.3125 3.421875 41.453125 8.5 
Q 45.609375 13.578125 45.609375 23.09375 
Q 45.609375 32.5625 41.484375 37.609375 
Q 37.359375 42.671875 29.59375 42.671875 
Q 25.203125 42.671875 21.84375 41.109375 
Q 18.5 39.546875 15.921875 36.28125 
L 11.71875 36.28125 
L 11.71875 72.90625 
z
" id="DejaVuSerif-53"/>
       </defs>
       <use xlink:href="#DejaVuSerif-53"/>
       <use x="63.623047" xlink:href="#DejaVuSerif-48"/>
      </g>
     </g>
    </g>
    <g id="xtick_3">
     <g id="line2d_3">
      <g>
       <use style="stroke:#000000;stroke-width:0.8;" x="200.324019" xlink:href="#m0e97f67618" y="307.584"/>
      </g>
     </g>
     <g id="text_3">
      <!-- 100 -->
      <g transform="translate(190.780269 322.182437)scale(0.1 -0.1)">
       <defs>
        <path d="M 14.203125 0 
L 14.203125 5.171875 
L 26.90625 5.171875 
L 26.90625 65.828125 
L 12.203125 56.296875 
L 12.203125 62.703125 
L 29.984375 74.21875 
L 36.71875 74.21875 
L 36.71875 5.171875 
L 49.421875 5.171875 
L 49.421875 0 
z
" id="DejaVuSerif-49"/>
       </defs>
       <use xlink:href="#DejaVuSerif-49"/>
       <use x="63.623047" xlink:href="#DejaVuSerif-48"/>
       <use x="127.246094" xlink:href="#DejaVuSerif-48"/>
      </g>
     </g>
    </g>
    <g id="xtick_4">
     <g id="line2d_4">
      <g>
       <use style="stroke:#000000;stroke-width:0.8;" x="264.696178" xlink:href="#m0e97f67618" y="307.584"/>
      </g>
     </g>
     <g id="text_4">
      <!-- 150 -->
      <g transform="translate(255.152428 322.182437)scale(0.1 -0.1)">
       <use xlink:href="#DejaVuSerif-49"/>
       <use x="63.623047" xlink:href="#DejaVuSerif-53"/>
       <use x="127.246094" xlink:href="#DejaVuSerif-48"/>
      </g>
     </g>
    </g>
    <g id="xtick_5">
     <g id="line2d_5">
      <g>
       <use style="stroke:#000000;stroke-width:0.8;" x="329.068337" xlink:href="#m0e97f67618" y="307.584"/>
      </g>
     </g>
     <g id="text_5">
      <!-- 200 -->
      <g transform="translate(319.524587 322.182437)scale(0.1 -0.1)">
       <defs>
        <path d="M 12.796875 55.515625 
L 7.328125 55.515625 
L 7.328125 68.5 
Q 12.546875 71.296875 17.84375 72.75 
Q 23.140625 74.21875 28.21875 74.21875 
Q 39.59375 74.21875 46.1875 68.703125 
Q 52.78125 63.1875 52.78125 53.71875 
Q 52.78125 43.015625 37.84375 28.125 
Q 36.671875 27 36.078125 26.421875 
L 17.671875 8.015625 
L 48.09375 8.015625 
L 48.09375 17 
L 53.8125 17 
L 53.8125 0 
L 6.78125 0 
L 6.78125 5.328125 
L 28.90625 27.390625 
Q 36.234375 34.71875 39.359375 40.84375 
Q 42.484375 46.96875 42.484375 53.71875 
Q 42.484375 61.078125 38.640625 65.234375 
Q 34.8125 69.390625 28.078125 69.390625 
Q 21.09375 69.390625 17.28125 65.921875 
Q 13.484375 62.453125 12.796875 55.515625 
z
" id="DejaVuSerif-50"/>
       </defs>
       <use xlink:href="#DejaVuSerif-50"/>
       <use x="63.623047" xlink:href="#DejaVuSerif-48"/>
       <use x="127.246094" xlink:href="#DejaVuSerif-48"/>
      </g>
     </g>
    </g>
    <g id="xtick_6">
     <g id="line2d_6">
      <g>
       <use style="stroke:#000000;stroke-width:0.8;" x="393.440495" xlink:href="#m0e97f67618" y="307.584"/>
      </g>
     </g>
     <g id="text_6">
      <!-- 250 -->
      <g transform="translate(383.896745 322.182437)scale(0.1 -0.1)">
       <use xlink:href="#DejaVuSerif-50"/>
       <use x="63.623047" xlink:href="#DejaVuSerif-53"/>
       <use x="127.246094" xlink:href="#DejaVuSerif-48"/>
      </g>
     </g>
    </g>
    <g id="text_7">
     <!-- Time -->
     <g transform="translate(223.524844 335.860562)scale(0.1 -0.1)">
      <defs>
       <path d="M 19.09375 0 
L 19.09375 5.171875 
L 28.421875 5.171875 
L 28.421875 67.09375 
L 6.984375 67.09375 
L 6.984375 55.71875 
L 0.984375 55.71875 
L 0.984375 72.90625 
L 65.71875 72.90625 
L 65.71875 55.71875 
L 59.71875 55.71875 
L 59.71875 67.09375 
L 38.28125 67.09375 
L 38.28125 5.171875 
L 47.609375 5.171875 
L 47.609375 0 
z
" id="DejaVuSerif-84"/>
       <path d="M 9.71875 68.015625 
Q 9.71875 70.265625 11.34375 71.921875 
Q 12.984375 73.578125 15.28125 73.578125 
Q 17.53125 73.578125 19.15625 71.921875 
Q 20.796875 70.265625 20.796875 68.015625 
Q 20.796875 65.71875 19.1875 64.109375 
Q 17.578125 62.5 15.28125 62.5 
Q 12.984375 62.5 11.34375 64.109375 
Q 9.71875 65.71875 9.71875 68.015625 
z
M 21.1875 5.171875 
L 29.6875 5.171875 
L 29.6875 0 
L 3.609375 0 
L 3.609375 5.171875 
L 12.203125 5.171875 
L 12.203125 46.6875 
L 3.609375 46.6875 
L 3.609375 51.90625 
L 21.1875 51.90625 
z
" id="DejaVuSerif-105"/>
       <path d="M 51.8125 41.796875 
Q 54.390625 47.515625 58.421875 50.421875 
Q 62.453125 53.328125 67.828125 53.328125 
Q 75.984375 53.328125 79.984375 48.265625 
Q 83.984375 43.21875 83.984375 33.015625 
L 83.984375 5.171875 
L 92.09375 5.171875 
L 92.09375 0 
L 67.1875 0 
L 67.1875 5.171875 
L 75 5.171875 
L 75 31.984375 
Q 75 39.9375 72.65625 43.3125 
Q 70.3125 46.6875 64.890625 46.6875 
Q 58.890625 46.6875 55.734375 42.140625 
Q 52.59375 37.59375 52.59375 28.90625 
L 52.59375 5.171875 
L 60.40625 5.171875 
L 60.40625 0 
L 35.796875 0 
L 35.796875 5.171875 
L 43.609375 5.171875 
L 43.609375 32.328125 
Q 43.609375 40.09375 41.265625 43.390625 
Q 38.921875 46.6875 33.5 46.6875 
Q 27.484375 46.6875 24.328125 42.140625 
Q 21.1875 37.59375 21.1875 28.90625 
L 21.1875 5.171875 
L 29 5.171875 
L 29 0 
L 4.109375 0 
L 4.109375 5.171875 
L 12.203125 5.171875 
L 12.203125 46.78125 
L 3.609375 46.78125 
L 3.609375 51.90625 
L 21.1875 51.90625 
L 21.1875 42.671875 
Q 23.6875 47.859375 27.53125 50.59375 
Q 31.390625 53.328125 36.28125 53.328125 
Q 42.328125 53.328125 46.375 50.3125 
Q 50.4375 47.3125 51.8125 41.796875 
z
" id="DejaVuSerif-109"/>
       <path d="M 54.203125 25 
L 15.484375 25 
L 15.484375 24.609375 
Q 15.484375 14.109375 19.4375 8.765625 
Q 23.390625 3.421875 31.109375 3.421875 
Q 37.015625 3.421875 40.796875 6.515625 
Q 44.578125 9.625 46.09375 15.71875 
L 53.328125 15.71875 
Q 51.171875 7.171875 45.375 2.875 
Q 39.59375 -1.421875 30.171875 -1.421875 
Q 18.796875 -1.421875 11.890625 6.078125 
Q 4.984375 13.578125 4.984375 25.984375 
Q 4.984375 38.28125 11.765625 45.796875 
Q 18.5625 53.328125 29.59375 53.328125 
Q 41.359375 53.328125 47.65625 46.0625 
Q 53.953125 38.8125 54.203125 25 
z
M 43.609375 30.171875 
Q 43.3125 39.265625 39.765625 43.875 
Q 36.234375 48.484375 29.59375 48.484375 
Q 23.390625 48.484375 19.828125 43.84375 
Q 16.265625 39.203125 15.484375 30.171875 
z
" id="DejaVuSerif-101"/>
      </defs>
      <use xlink:href="#DejaVuSerif-84"/>
      <use x="66.699219" xlink:href="#DejaVuSerif-105"/>
      <use x="98.681641" xlink:href="#DejaVuSerif-109"/>
      <use x="193.505859" xlink:href="#DejaVuSerif-101"/>
     </g>
    </g>
   </g>
   <g id="matplotlib.axis_2">
    <g id="ytick_1">
     <g id="line2d_7">
      <defs>
       <path d="M 0 0 
L -3.5 0 
" id="md07c967417" style="stroke:#000000;stroke-width:0.8;"/>
      </defs>
      <g>
       <use style="stroke:#000000;stroke-width:0.8;" x="57.6" xlink:href="#md07c967417" y="295.488"/>
      </g>
     </g>
     <g id="text_8">
      <!-- 3.0 -->
      <g transform="translate(34.696875 299.287219)scale(0.1 -0.1)">
       <defs>
        <path d="M 9.71875 69.828125 
Q 15.4375 71.96875 20.671875 73.09375 
Q 25.921875 74.21875 30.515625 74.21875 
Q 41.21875 74.21875 47.21875 69.59375 
Q 53.21875 64.984375 53.21875 56.78125 
Q 53.21875 50.203125 49.0625 45.78125 
Q 44.921875 41.359375 37.3125 39.796875 
Q 46.296875 38.53125 51.25 33.28125 
Q 56.203125 28.03125 56.203125 19.671875 
Q 56.203125 9.46875 49.34375 4.015625 
Q 42.484375 -1.421875 29.59375 -1.421875 
Q 23.875 -1.421875 18.421875 -0.1875 
Q 12.984375 1.03125 7.625 3.515625 
L 7.625 17.671875 
L 13.09375 17.671875 
Q 13.578125 10.640625 17.828125 7.03125 
Q 22.078125 3.421875 29.78125 3.421875 
Q 37.25 3.421875 41.578125 7.734375 
Q 45.90625 12.0625 45.90625 19.578125 
Q 45.90625 28.171875 41.453125 32.59375 
Q 37.015625 37.015625 28.421875 37.015625 
L 23.78125 37.015625 
L 23.78125 42 
L 26.21875 42 
Q 34.765625 42 39.03125 45.53125 
Q 43.3125 49.078125 43.3125 56.203125 
Q 43.3125 62.59375 39.796875 65.984375 
Q 36.28125 69.390625 29.6875 69.390625 
Q 23.09375 69.390625 19.453125 66.265625 
Q 15.828125 63.140625 15.1875 56.984375 
L 9.71875 56.984375 
z
" id="DejaVuSerif-51"/>
        <path d="M 9.421875 5.078125 
Q 9.421875 7.8125 11.28125 9.71875 
Q 13.140625 11.625 15.921875 11.625 
Q 18.609375 11.625 20.5 9.71875 
Q 22.40625 7.8125 22.40625 5.078125 
Q 22.40625 2.390625 20.5 0.484375 
Q 18.609375 -1.421875 15.921875 -1.421875 
Q 13.140625 -1.421875 11.28125 0.453125 
Q 9.421875 2.34375 9.421875 5.078125 
z
" id="DejaVuSerif-46"/>
       </defs>
       <use xlink:href="#DejaVuSerif-51"/>
       <use x="63.623047" xlink:href="#DejaVuSerif-46"/>
       <use x="95.410156" xlink:href="#DejaVuSerif-48"/>
      </g>
     </g>
    </g>
    <g id="ytick_2">
     <g id="line2d_8">
      <g>
       <use style="stroke:#000000;stroke-width:0.8;" x="57.6" xlink:href="#md07c967417" y="263.232"/>
      </g>
     </g>
     <g id="text_9">
      <!-- 3.2 -->
      <g transform="translate(34.696875 267.031219)scale(0.1 -0.1)">
       <use xlink:href="#DejaVuSerif-51"/>
       <use x="63.623047" xlink:href="#DejaVuSerif-46"/>
       <use x="95.410156" xlink:href="#DejaVuSerif-50"/>
      </g>
     </g>
    </g>
    <g id="ytick_3">
     <g id="line2d_9">
      <g>
       <use style="stroke:#000000;stroke-width:0.8;" x="57.6" xlink:href="#md07c967417" y="230.976"/>
      </g>
     </g>
     <g id="text_10">
      <!-- 3.4 -->
      <g transform="translate(34.696875 234.775219)scale(0.1 -0.1)">
       <defs>
        <path d="M 34.90625 24.703125 
L 34.90625 63.484375 
L 10.015625 24.703125 
z
M 56.390625 0 
L 23.1875 0 
L 23.1875 5.171875 
L 34.90625 5.171875 
L 34.90625 19.484375 
L 3.078125 19.484375 
L 3.078125 24.8125 
L 35.015625 74.21875 
L 44.671875 74.21875 
L 44.671875 24.703125 
L 58.59375 24.703125 
L 58.59375 19.484375 
L 44.671875 19.484375 
L 44.671875 5.171875 
L 56.390625 5.171875 
z
" id="DejaVuSerif-52"/>
       </defs>
       <use xlink:href="#DejaVuSerif-51"/>
       <use x="63.623047" xlink:href="#DejaVuSerif-46"/>
       <use x="95.410156" xlink:href="#DejaVuSerif-52"/>
      </g>
     </g>
    </g>
    <g id="ytick_4">
     <g id="line2d_10">
      <g>
       <use style="stroke:#000000;stroke-width:0.8;" x="57.6" xlink:href="#md07c967417" y="198.72"/>
      </g>
     </g>
     <g id="text_11">
      <!-- 3.6 -->
      <g transform="translate(34.696875 202.519219)scale(0.1 -0.1)">
       <defs>
        <path d="M 32.71875 3.421875 
Q 39.59375 3.421875 43.296875 8.46875 
Q 47.015625 13.53125 47.015625 23 
Q 47.015625 32.46875 43.296875 37.515625 
Q 39.59375 42.578125 32.71875 42.578125 
Q 25.734375 42.578125 22.0625 37.6875 
Q 18.40625 32.8125 18.40625 23.578125 
Q 18.40625 13.875 22.109375 8.640625 
Q 25.828125 3.421875 32.71875 3.421875 
z
M 16.796875 40.140625 
Q 20.125 43.796875 24.3125 45.59375 
Q 28.515625 47.40625 33.796875 47.40625 
Q 44.671875 47.40625 51 40.859375 
Q 57.328125 34.328125 57.328125 23 
Q 57.328125 11.921875 50.515625 5.25 
Q 43.703125 -1.421875 32.328125 -1.421875 
Q 19.96875 -1.421875 13.328125 7.78125 
Q 6.6875 17 6.6875 34.078125 
Q 6.6875 53.21875 14.546875 63.71875 
Q 22.40625 74.21875 36.71875 74.21875 
Q 40.578125 74.21875 44.828125 73.484375 
Q 49.078125 72.75 53.515625 71.296875 
L 53.515625 59.28125 
L 48 59.28125 
Q 47.40625 64.203125 44.234375 66.796875 
Q 41.0625 69.390625 35.6875 69.390625 
Q 26.21875 69.390625 21.578125 62.203125 
Q 16.9375 55.03125 16.796875 40.140625 
z
" id="DejaVuSerif-54"/>
       </defs>
       <use xlink:href="#DejaVuSerif-51"/>
       <use x="63.623047" xlink:href="#DejaVuSerif-46"/>
       <use x="95.410156" xlink:href="#DejaVuSerif-54"/>
      </g>
     </g>
    </g>
    <g id="ytick_5">
     <g id="line2d_11">
      <g>
       <use style="stroke:#000000;stroke-width:0.8;" x="57.6" xlink:href="#md07c967417" y="166.464"/>
      </g>
     </g>
     <g id="text_12">
      <!-- 3.8 -->
      <g transform="translate(34.696875 170.263219)scale(0.1 -0.1)">
       <defs>
        <path d="M 46.578125 19.921875 
Q 46.578125 27.734375 42.6875 32.046875 
Q 38.8125 36.375 31.78125 36.375 
Q 24.75 36.375 20.875 32.046875 
Q 17 27.734375 17 19.921875 
Q 17 12.0625 20.875 7.734375 
Q 24.75 3.421875 31.78125 3.421875 
Q 38.8125 3.421875 42.6875 7.734375 
Q 46.578125 12.0625 46.578125 19.921875 
z
M 44.578125 55.328125 
Q 44.578125 61.96875 41.203125 65.671875 
Q 37.84375 69.390625 31.78125 69.390625 
Q 25.78125 69.390625 22.390625 65.671875 
Q 19 61.96875 19 55.328125 
Q 19 48.640625 22.390625 44.921875 
Q 25.78125 41.21875 31.78125 41.21875 
Q 37.84375 41.21875 41.203125 44.921875 
Q 44.578125 48.640625 44.578125 55.328125 
z
M 39.3125 38.8125 
Q 47.609375 37.703125 52.25 32.6875 
Q 56.890625 27.6875 56.890625 19.921875 
Q 56.890625 9.671875 50.390625 4.125 
Q 43.890625 -1.421875 31.78125 -1.421875 
Q 19.734375 -1.421875 13.203125 4.125 
Q 6.6875 9.671875 6.6875 19.921875 
Q 6.6875 27.6875 11.328125 32.6875 
Q 15.96875 37.703125 24.3125 38.8125 
Q 16.9375 40.140625 13 44.40625 
Q 9.078125 48.6875 9.078125 55.328125 
Q 9.078125 64.109375 15.125 69.15625 
Q 21.1875 74.21875 31.78125 74.21875 
Q 42.390625 74.21875 48.4375 69.15625 
Q 54.5 64.109375 54.5 55.328125 
Q 54.5 48.6875 50.5625 44.40625 
Q 46.625 40.140625 39.3125 38.8125 
z
" id="DejaVuSerif-56"/>
       </defs>
       <use xlink:href="#DejaVuSerif-51"/>
       <use x="63.623047" xlink:href="#DejaVuSerif-46"/>
       <use x="95.410156" xlink:href="#DejaVuSerif-56"/>
      </g>
     </g>
    </g>
    <g id="ytick_6">
     <g id="line2d_12">
      <g>
       <use style="stroke:#000000;stroke-width:0.8;" x="57.6" xlink:href="#md07c967417" y="134.208"/>
      </g>
     </g>
     <g id="text_13">
      <!-- 4.0 -->
      <g transform="translate(34.696875 138.007219)scale(0.1 -0.1)">
       <use xlink:href="#DejaVuSerif-52"/>
       <use x="63.623047" xlink:href="#DejaVuSerif-46"/>
       <use x="95.410156" xlink:href="#DejaVuSerif-48"/>
      </g>
     </g>
    </g>
    <g id="ytick_7">
     <g id="line2d_13">
      <g>
       <use style="stroke:#000000;stroke-width:0.8;" x="57.6" xlink:href="#md07c967417" y="101.952"/>
      </g>
     </g>
     <g id="text_14">
      <!-- 4.2 -->
      <g transform="translate(34.696875 105.751219)scale(0.1 -0.1)">
       <use xlink:href="#DejaVuSerif-52"/>
       <use x="63.623047" xlink:href="#DejaVuSerif-46"/>
       <use x="95.410156" xlink:href="#DejaVuSerif-50"/>
      </g>
     </g>
    </g>
    <g id="ytick_8">
     <g id="line2d_14">
      <g>
       <use style="stroke:#000000;stroke-width:0.8;" x="57.6" xlink:href="#md07c967417" y="69.696"/>
      </g>
     </g>
     <g id="text_15">
      <!-- 4.4 -->
      <g transform="translate(34.696875 73.495219)scale(0.1 -0.1)">
       <use xlink:href="#DejaVuSerif-52"/>
       <use x="63.623047" xlink:href="#DejaVuSerif-46"/>
       <use x="95.410156" xlink:href="#DejaVuSerif-52"/>
      </g>
     </g>
    </g>
    <g id="text_16">
     <!-- Speed -->
     <g transform="translate(28.617187 190.273313)rotate(-90)scale(0.1 -0.1)">
      <defs>
       <path d="M 9.28125 3.515625 
L 9.28125 20.125 
L 14.890625 20.0625 
Q 15.140625 11.765625 19.703125 7.78125 
Q 24.265625 3.8125 33.59375 3.8125 
Q 42.28125 3.8125 46.84375 7.25 
Q 51.421875 10.6875 51.421875 17.28125 
Q 51.421875 22.5625 48.65625 25.390625 
Q 45.90625 28.21875 37.015625 30.90625 
L 27.390625 33.796875 
Q 16.9375 36.96875 12.671875 41.703125 
Q 8.40625 46.4375 8.40625 54.6875 
Q 8.40625 63.96875 14.984375 69.09375 
Q 21.578125 74.21875 33.5 74.21875 
Q 38.578125 74.21875 44.625 73.109375 
Q 50.6875 72.015625 57.515625 69.921875 
L 57.515625 54.390625 
L 52 54.390625 
Q 51.171875 62.109375 46.84375 65.546875 
Q 42.53125 69 33.6875 69 
Q 25.984375 69 21.953125 65.84375 
Q 17.921875 62.703125 17.921875 56.6875 
Q 17.921875 51.46875 20.9375 48.484375 
Q 23.96875 45.515625 33.796875 42.578125 
L 42.828125 39.890625 
Q 52.734375 36.921875 56.953125 32.296875 
Q 61.1875 27.6875 61.1875 19.921875 
Q 61.1875 9.328125 54.390625 3.953125 
Q 47.609375 -1.421875 34.1875 -1.421875 
Q 28.171875 -1.421875 21.9375 -0.1875 
Q 15.71875 1.03125 9.28125 3.515625 
z
" id="DejaVuSerif-83"/>
       <path d="M 20.515625 28.515625 
L 20.515625 23.390625 
Q 20.515625 14.015625 24.09375 9.109375 
Q 27.6875 4.203125 34.515625 4.203125 
Q 41.40625 4.203125 44.9375 9.71875 
Q 48.484375 15.234375 48.484375 25.984375 
Q 48.484375 36.765625 44.9375 42.234375 
Q 41.40625 47.703125 34.515625 47.703125 
Q 27.6875 47.703125 24.09375 42.765625 
Q 20.515625 37.84375 20.515625 28.515625 
z
M 11.53125 46.6875 
L 2.875 46.6875 
L 2.875 51.90625 
L 20.515625 51.90625 
L 20.515625 43.796875 
Q 23.140625 48.6875 27.21875 51 
Q 31.296875 53.328125 37.3125 53.328125 
Q 46.875 53.328125 52.921875 45.75 
Q 58.984375 38.1875 58.984375 25.984375 
Q 58.984375 13.765625 52.921875 6.171875 
Q 46.875 -1.421875 37.3125 -1.421875 
Q 31.296875 -1.421875 27.21875 0.890625 
Q 23.140625 3.21875 20.515625 8.109375 
L 20.515625 -15.578125 
L 29 -15.578125 
L 29 -20.796875 
L 2.875 -20.796875 
L 2.875 -15.578125 
L 11.53125 -15.578125 
z
" id="DejaVuSerif-112"/>
       <path d="M 52.484375 5.171875 
L 61.078125 5.171875 
L 61.078125 0 
L 43.5 0 
L 43.5 8.109375 
Q 40.875 3.21875 36.796875 0.890625 
Q 32.71875 -1.421875 26.703125 -1.421875 
Q 17.140625 -1.421875 11.0625 6.171875 
Q 4.984375 13.765625 4.984375 25.984375 
Q 4.984375 38.1875 11.03125 45.75 
Q 17.09375 53.328125 26.703125 53.328125 
Q 32.71875 53.328125 36.796875 51 
Q 40.875 48.6875 43.5 43.796875 
L 43.5 70.796875 
L 35.015625 70.796875 
L 35.015625 75.984375 
L 52.484375 75.984375 
z
M 43.5 23.390625 
L 43.5 28.515625 
Q 43.5 37.84375 39.90625 42.765625 
Q 36.328125 47.703125 29.5 47.703125 
Q 22.5625 47.703125 19.015625 42.234375 
Q 15.484375 36.765625 15.484375 25.984375 
Q 15.484375 15.234375 19.015625 9.71875 
Q 22.5625 4.203125 29.5 4.203125 
Q 36.328125 4.203125 39.90625 9.109375 
Q 43.5 14.015625 43.5 23.390625 
z
" id="DejaVuSerif-100"/>
      </defs>
      <use xlink:href="#DejaVuSerif-83"/>
      <use x="68.505859" xlink:href="#DejaVuSerif-112"/>
      <use x="132.519531" xlink:href="#DejaVuSerif-101"/>
      <use x="191.699219" xlink:href="#DejaVuSerif-101"/>
      <use x="250.878906" xlink:href="#DejaVuSerif-100"/>
     </g>
    </g>
   </g>
   <g id="line2d_15">
    <path clip-path="url(#p38d28e739a)" d="M 73.832727 295.488 
L 73.935723 53.568 
L 74.051593 295.488 
L 74.154588 53.568 
L 74.257584 295.488 
L 74.476449 198.72 
L 74.79831 198.72 
L 74.901305 134.208 
L 75.017175 134.208 
L 75.12017 295.488 
L 75.223166 134.208 
L 75.339036 295.488 
L 75.545027 88.128 
L 75.763892 226.368 
L 75.866887 226.368 
L 76.085753 174.528 
L 76.407614 174.528 
L 76.510609 241.728 
L 76.626479 134.208 
L 76.729474 241.728 
L 76.83247 134.208 
L 76.94834 134.208 
L 77.154331 198.72 
L 77.270201 101.952 
L 77.476191 198.72 
L 77.592061 251.502545 
L 77.798052 163.531636 
L 78.016918 163.531636 
L 78.119913 134.208 
L 78.235783 214.848 
L 78.338778 134.208 
L 78.441774 214.848 
L 78.557644 214.848 
L 78.763635 183.832615 
L 78.879505 183.832615 
L 78.9825 109.395692 
L 79.085495 183.832615 
L 79.304361 157.248 
L 79.523226 157.248 
L 79.626222 226.368 
L 79.729217 198.72 
L 79.845087 134.208 
L 79.948082 198.72 
L 80.051078 134.208 
L 80.166948 134.208 
L 80.372939 174.528 
L 80.488808 114.048 
L 80.694799 174.528 
L 80.913665 153.182118 
L 81.01666 153.182118 
L 81.13253 210.104471 
L 81.338521 134.208 
L 81.454391 187.968 
L 81.660382 134.208 
L 81.776252 187.968 
L 81.879247 168.161684 
L 81.982243 117.231158 
L 82.201108 168.161684 
L 82.304103 117.231158 
L 82.625964 198.72 
L 82.844829 150.336 
L 82.947825 180.288 
L 83.063695 180.288 
L 83.16669 134.208 
L 83.269686 180.288 
L 83.488551 119.546182 
L 83.591547 163.531636 
L 83.707416 163.531636 
L 83.810412 119.546182 
L 83.913407 163.531636 
L 84.029277 148.232348 
L 84.132273 190.305391 
L 84.235268 148.232348 
L 84.351138 148.232348 
L 84.454133 190.305391 
L 84.557129 174.528 
L 84.672999 134.208 
L 84.87899 174.528 
L 84.99486 134.208 
L 85.200851 160.0128 
L 85.31672 121.3056 
L 85.522711 160.0128 
L 85.741577 146.614154 
L 86.063437 146.614154 
L 86.166433 134.208 
L 86.385298 170.048 
L 86.488294 134.208 
L 86.604164 170.048 
L 86.810154 157.248 
L 87.02902 157.248 
L 87.132015 122.688 
L 87.350881 145.330759 
L 87.672741 145.330759 
L 87.775737 134.208 
L 87.891607 166.464 
L 87.994602 134.208 
L 88.097598 166.464 
L 88.213468 166.464 
L 88.419458 155.018323 
L 88.741319 155.018323 
L 88.960185 144.288 
L 89.06318 174.528 
L 89.282045 144.288 
L 89.385041 163.531636 
L 89.500911 163.531636 
L 89.603906 134.208 
L 89.706902 163.531636 
L 89.925767 124.720941 
L 90.028762 153.182118 
L 90.144632 153.182118 
L 90.247628 124.720941 
L 90.350623 153.182118 
L 90.466493 143.424 
L 90.569489 171.072 
L 90.672484 143.424 
L 90.788354 143.424 
L 90.891349 171.072 
L 90.994345 161.088 
L 91.110215 134.208 
L 91.316206 161.088 
L 91.432075 134.208 
L 91.638066 151.643676 
L 91.959927 151.643676 
L 92.178793 142.696421 
L 92.500653 142.696421 
L 92.603649 134.208 
L 92.822514 159.020308 
L 92.92551 134.208 
L 93.041379 159.020308 
L 93.24737 150.336 
L 93.569231 150.336 
L 93.685101 165.677268 
L 93.891092 142.075317 
L 94.006962 165.677268 
L 94.212953 134.208 
L 94.431818 157.248 
L 94.534814 134.208 
L 94.650683 157.248 
L 94.856674 149.210791 
L 95.07554 149.210791 
L 95.178535 126.706605 
L 95.500396 163.531636 
L 95.719261 141.538909 
L 95.822257 155.712 
L 95.938127 155.712 
L 96.041122 134.208 
L 96.144117 155.712 
L 96.259987 155.712 
L 96.465978 148.232348 
L 96.787839 148.232348 
L 97.006704 141.070979 
L 97.1097 161.659915 
L 97.328565 141.070979 
L 97.431561 154.368 
L 97.547431 154.368 
L 97.650426 134.208 
L 97.753421 154.368 
L 97.972287 127.625143 
L 98.075282 147.373714 
L 98.397143 147.373714 
L 98.513013 140.6592 
L 98.616008 160.0128 
L 98.719004 140.6592 
L 98.834874 140.6592 
L 98.937869 160.0128 
L 99.040865 153.182118 
L 99.156735 134.208 
L 99.362725 153.182118 
L 99.478595 134.208 
L 99.684586 146.614154 
L 100.006447 146.614154 
L 100.122317 140.294038 
L 100.225312 158.552151 
L 100.328308 140.294038 
L 100.444178 140.294038 
L 100.547173 158.552151 
L 100.650169 152.128 
L 100.766038 134.208 
L 100.972029 152.128 
L 101.087899 152.128 
L 101.29389 145.937455 
L 101.615751 145.937455 
L 101.731621 157.248 
L 101.937612 139.968 
L 102.053482 157.248 
L 102.259473 134.208 
L 102.478338 151.184842 
L 102.581333 134.208 
L 102.697203 151.184842 
L 102.903194 145.330759 
L 103.225055 145.330759 
L 103.340925 156.076475 
L 103.546916 139.675119 
L 103.662786 156.076475 
L 103.765781 139.675119 
L 103.868777 150.336 
L 104.306507 150.336 
L 104.409503 144.783738 
L 104.512498 160.647344 
L 104.731363 144.783738 
L 104.834359 144.783738 
L 105.053224 139.410581 
L 105.15622 155.018323 
L 105.375085 139.410581 
L 105.478081 149.568 
L 105.59395 149.568 
L 105.696946 134.208 
L 105.799941 149.568 
L 105.915811 149.568 
L 106.121802 144.288 
L 106.443663 144.288 
L 106.662528 139.170462 
L 106.765524 154.057846 
L 106.881394 139.170462 
L 106.984389 154.057846 
L 107.087384 148.869818 
L 107.525115 148.869818 
L 107.628111 158.279642 
L 107.731106 143.836657 
L 107.846976 143.836657 
L 107.949971 158.279642 
L 108.168837 138.951529 
L 108.271832 153.182118 
L 108.374828 138.951529 
L 108.490698 138.951529 
L 108.593693 153.182118 
L 108.696688 148.232348 
L 108.812558 134.208 
L 109.018549 148.232348 
L 109.134419 134.208 
L 109.34041 143.424 
L 109.662271 143.424 
L 109.778141 138.751099 
L 109.881136 152.380394 
L 109.984132 138.751099 
L 110.100002 138.751099 
L 110.202997 152.380394 
L 110.305992 147.648 
L 110.743723 147.648 
L 110.949714 143.04526 
L 111.065584 156.301151 
L 111.271575 143.04526 
L 111.49044 151.643676 
L 111.593436 138.566919 
L 111.709305 151.643676 
L 111.915296 134.208 
L 112.134162 147.1104 
L 112.237157 134.208 
L 112.353027 147.1104 
L 112.559018 142.696421 
L 112.880879 142.696421 
L 112.996749 150.964364 
L 113.20274 138.397091 
L 113.318609 150.964364 
L 113.421605 138.397091 
L 113.5246 146.614154 
L 113.962331 146.614154 
L 114.065326 142.374076 
L 114.168322 154.62319 
L 114.387187 142.374076 
L 114.490183 154.62319 
L 114.606053 150.336 
L 114.709048 138.24 
L 114.812044 150.336 
L 114.927913 150.336 
L 115.030909 138.24 
L 115.133904 146.154667 
L 115.571635 146.154667 
L 115.777626 142.075317 
L 116.099487 142.075317 
L 116.318352 138.094265 
L 116.421348 149.75306 
L 116.640213 138.094265 
L 116.743208 145.728 
L 117.180939 145.728 
L 117.283934 153.182118 
L 117.38693 141.797647 
L 117.5028 141.797647 
L 117.605795 153.182118 
L 117.824661 137.958698 
L 118.030651 149.210791 
L 118.146521 137.958698 
L 118.249517 149.210791 
L 118.352512 145.330759 
L 118.790243 145.330759 
L 118.893238 152.535273 
L 118.996234 141.538909 
L 119.112104 141.538909 
L 119.215099 152.535273 
L 119.433965 137.83227 
L 119.639955 148.705079 
L 119.755825 137.83227 
L 119.858821 148.705079 
L 119.961816 144.96 
L 120.077686 134.208 
L 120.283677 144.96 
L 120.399547 134.208 
L 120.721408 151.931077 
L 120.927399 141.297231 
L 121.146264 148.232348 
L 121.249259 137.714087 
L 121.468125 148.232348 
L 121.57112 144.613161 
L 122.008851 144.613161 
L 122.214842 141.070979 
L 122.330712 151.365447 
L 122.536703 141.070979 
L 122.755568 147.789474 
L 122.858563 137.603368 
L 123.077429 147.789474 
L 123.180424 144.288 
L 123.618155 144.288 
L 123.824146 140.858722 
L 124.043011 140.858722 
L 124.146007 150.834804 
L 124.261876 147.373714 
L 124.364872 137.499429 
L 124.467867 147.373714 
L 124.583737 147.373714 
L 124.686733 137.499429 
L 124.789728 143.982545 
L 125.227459 143.982545 
L 125.330454 140.6592 
L 125.43345 150.336 
L 125.652315 140.6592 
L 125.755311 150.336 
L 125.87118 146.982653 
L 125.974176 137.401663 
L 126.077171 146.982653 
L 126.193041 146.982653 
L 126.296037 137.401663 
L 126.399032 143.695059 
L 126.836763 143.695059 
L 126.939758 140.471301 
L 127.042754 149.866252 
L 127.261619 140.471301 
L 127.364614 149.866252 
L 127.480484 146.614154 
L 127.58348 137.309538 
L 127.686475 146.614154 
L 127.905341 146.614154 
L 128.008336 143.424 
L 128.446067 143.424 
L 128.549062 149.423094 
L 128.652058 140.294038 
L 128.767928 140.294038 
L 128.870923 149.423094 
L 129.089788 137.222579 
L 129.295779 146.266318 
L 129.411649 137.222579 
L 129.514645 146.266318 
L 129.61764 143.168 
L 130.055371 143.168 
L 130.158366 149.00433 
L 130.261362 140.126532 
L 130.377232 140.126532 
L 130.480227 149.00433 
L 130.699092 137.140364 
L 130.905083 145.937455 
L 131.020953 137.140364 
L 131.123949 145.937455 
L 131.226944 142.925838 
L 131.548805 142.925838 
L 131.664675 151.643676 
L 131.76767 148.608 
L 131.870666 139.968 
L 132.089531 148.608 
L 132.192526 139.968 
L 132.411392 145.626053 
L 132.733253 145.626053 
L 132.836248 142.696421 
L 133.273979 142.696421 
L 133.47997 139.817739 
L 133.595839 148.232348 
L 133.80183 139.817739 
L 134.020696 145.330759 
L 134.123691 136.98869 
L 134.342557 145.330759 
L 134.445552 142.478769 
L 134.883283 142.478769 
L 135.089274 139.675119 
L 135.205143 147.875797 
L 135.308139 139.675119 
L 135.411134 147.875797 
L 135.63 145.050353 
L 135.95186 145.050353 
L 136.054856 150.336 
L 136.273721 142.272 
L 136.376717 150.336 
L 136.595582 139.53957 
L 136.698578 147.536926 
L 136.814447 147.536926 
L 136.917443 139.53957 
L 137.020438 147.536926 
L 137.136308 144.783738 
L 137.239304 136.851934 
L 137.342299 144.783738 
L 137.458169 144.783738 
L 137.561164 136.851934 
L 137.66416 142.075317 
L 138.101891 142.075317 
L 138.204886 139.410581 
L 138.307881 147.214452 
L 138.526747 139.410581 
L 138.629742 147.214452 
L 138.745612 144.52992 
L 138.848608 136.78848 
L 138.951603 144.52992 
L 139.170468 144.52992 
L 139.273464 141.888 
L 139.389334 141.888 
L 139.492329 149.568 
L 139.595325 141.888 
L 139.711195 141.888 
L 139.917185 146.907213 
L 140.033055 139.287685 
L 140.239046 146.907213 
L 140.457912 144.288 
L 140.779772 144.288 
L 140.882768 141.709395 
L 140.998638 141.709395 
L 141.101633 149.210791 
L 141.204629 141.709395 
L 141.320499 141.709395 
L 141.526489 146.614154 
L 141.642359 139.170462 
L 141.745355 146.614154 
L 141.96422 136.67029 
L 142.170211 144.05716 
L 142.286081 136.67029 
L 142.389076 144.05716 
L 142.492072 141.538909 
L 142.929802 141.538909 
L 143.032798 146.334316 
L 143.135793 139.058526 
L 143.354659 146.334316 
L 143.457654 139.058526 
L 143.67652 143.836657 
L 143.99838 143.836657 
L 144.101376 141.376 
L 144.217246 148.544 
L 144.423237 141.376 
L 144.539106 148.544 
L 144.642102 146.066824 
L 144.745097 138.951529 
L 144.963963 146.066824 
L 145.066958 138.951529 
L 145.285823 143.62581 
L 145.607684 143.62581 
L 145.71068 141.220174 
L 145.82655 148.232348 
L 146.032541 141.220174 
L 146.14841 148.232348 
L 146.251406 145.810878 
L 146.354401 138.849151 
L 146.470271 145.810878 
L 146.676262 138.849151 
L 146.895127 143.424 
L 146.998123 136.512 
L 147.216988 143.424 
L 147.319984 147.933957 
L 147.538849 141.070979 
L 147.641844 147.933957 
L 147.86071 138.751099 
L 147.963705 145.565746 
L 148.079575 145.565746 
L 148.182571 138.751099 
L 148.285566 145.565746 
L 148.504431 143.230657 
L 148.826292 143.230657 
L 148.929288 147.648 
L 149.148153 140.928 
L 149.251148 147.648 
L 149.470014 138.657103 
L 149.573009 145.330759 
L 149.688879 145.330759 
L 149.791875 138.657103 
L 149.89487 145.330759 
L 150.113735 143.04526 
L 150.435596 143.04526 
L 150.538592 147.373714 
L 150.757457 140.790857 
L 150.860452 147.373714 
L 151.079318 138.566919 
L 151.182313 145.105297 
L 151.298183 138.566919 
L 151.504174 145.105297 
L 151.723039 142.867329 
L 152.0449 142.867329 
L 152.147896 140.6592 
L 152.263765 140.6592 
L 152.366761 147.1104 
L 152.469756 140.6592 
L 152.585626 140.6592 
L 152.791617 144.888795 
L 152.907487 138.480318 
L 153.113478 144.888795 
L 153.332343 142.696421 
L 153.654204 142.696421 
L 153.7572 140.532706 
L 153.873069 140.532706 
L 153.976065 146.857412 
L 154.07906 140.532706 
L 154.19493 140.532706 
L 154.400921 144.680727 
L 154.516791 138.397091 
L 154.722782 144.680727 
L 154.941647 142.532129 
L 155.263508 142.532129 
L 155.366504 140.411077 
L 155.585369 146.614154 
L 155.688364 140.411077 
L 155.804234 146.614154 
L 155.90723 144.480611 
L 156.010225 138.317045 
L 156.22909 144.480611 
L 156.332086 138.317045 
L 156.550951 142.374076 
L 156.872812 142.374076 
L 156.975808 140.294038 
L 157.091677 146.380075 
L 157.297668 140.294038 
L 157.413538 146.380075 
L 157.516534 144.288 
L 157.619529 138.24 
L 157.838394 144.288 
L 157.94139 138.24 
L 158.160255 142.221913 
L 158.482116 142.221913 
L 158.585111 140.181333 
L 158.700981 146.154667 
L 158.906972 140.181333 
L 159.022842 146.154667 
L 159.125838 144.102479 
L 159.228833 138.165791 
L 159.447698 144.102479 
L 159.550694 144.102479 
L 159.769559 142.075317 
L 159.872555 147.975805 
L 160.09142 142.075317 
L 160.194415 145.937455 
L 160.310285 145.937455 
L 160.413281 140.072727 
L 160.516276 145.937455 
L 160.632146 145.937455 
L 160.838137 143.923663 
L 160.954007 143.923663 
L 161.057002 138.094265 
L 161.159998 143.923663 
L 161.378863 141.933988 
L 161.700724 141.933988 
L 161.803719 145.728 
L 162.022585 139.968 
L 162.12558 145.728 
L 162.344446 138.025278 
L 162.447441 143.751195 
L 162.563311 143.751195 
L 162.666306 138.025278 
L 162.769302 143.751195 
L 162.988167 141.797647 
L 163.310028 141.797647 
L 163.413023 145.525895 
L 163.528893 139.866947 
L 163.734884 145.525895 
L 163.850754 139.866947 
L 164.056745 143.584744 
L 164.378606 143.584744 
L 164.494476 141.666035 
L 164.597471 147.259561 
L 164.700467 141.666035 
L 164.816336 141.666035 
L 164.919332 147.259561 
L 165.022327 145.330759 
L 165.138197 139.769379 
L 165.344188 145.330759 
L 165.460058 139.769379 
L 165.666049 143.424 
L 165.98791 143.424 
L 166.206775 141.538909 
L 166.528636 141.538909 
L 166.631631 139.675119 
L 166.747501 139.675119 
L 166.850497 145.142237 
L 166.953492 139.675119 
L 167.069362 139.675119 
L 167.275353 143.268674 
L 167.391223 137.83227 
L 167.597214 143.268674 
L 167.816079 141.416045 
L 167.919075 141.416045 
L 168.034944 146.822078 
L 168.240935 139.584 
L 168.459801 144.96 
L 168.562796 139.584 
L 168.678666 144.96 
L 168.884657 143.118497 
L 169.206518 143.118497 
L 169.322388 146.614154 
L 169.528378 141.297231 
L 169.644248 146.614154 
L 169.850239 139.495869 
L 170.069105 144.783738 
L 170.1721 139.495869 
L 170.28797 144.783738 
L 170.493961 142.973217 
L 170.815822 142.973217 
L 170.931692 146.412973 
L 171.137682 141.18227 
L 171.356548 141.18227 
L 171.459543 139.410581 
L 171.575413 144.613161 
L 171.781404 139.410581 
L 171.897274 144.613161 
L 172.103265 142.832599 
L 172.425126 142.832599 
L 172.643991 141.070979 
L 172.746986 146.218213 
L 172.965852 141.070979 
L 173.068847 144.448 
L 173.184717 144.448 
L 173.287713 139.328 
L 173.390708 144.448 
L 173.506578 144.448 
L 173.712569 142.696421 
L 174.03443 142.696421 
L 174.253295 140.963183 
L 174.35629 146.029571 
L 174.575156 140.963183 
L 174.678151 144.288 
L 174.794021 144.288 
L 174.897017 139.248 
L 175.000012 144.288 
L 175.115882 144.288 
L 175.321873 142.564477 
L 175.643734 142.564477 
L 175.862599 140.858722 
L 175.965594 145.846763 
L 176.18446 140.858722 
L 176.287455 144.132923 
L 176.403325 139.170462 
L 176.609316 144.132923 
L 176.725186 139.170462 
L 176.931177 142.436571 
L 177.253038 142.436571 
L 177.368907 140.757442 
L 177.471903 145.669523 
L 177.574898 140.757442 
L 177.690768 140.757442 
L 177.793764 145.669523 
L 177.896759 143.982545 
L 178.012629 139.095273 
L 178.21862 143.982545 
L 178.33449 139.095273 
L 178.540481 142.312523 
L 178.862341 142.312523 
L 178.978211 140.6592 
L 179.081207 145.4976 
L 179.184202 140.6592 
L 179.300072 140.6592 
L 179.403068 145.4976 
L 179.506063 143.836657 
L 179.621933 139.022328 
L 179.827924 143.836657 
L 179.943794 139.022328 
L 180.149785 142.192158 
L 180.471645 142.192158 
L 180.587515 140.563862 
L 180.690511 145.330759 
L 180.793506 140.563862 
L 181.012372 145.330759 
L 181.115367 143.695059 
L 181.334232 143.695059 
L 181.437228 138.951529 
L 181.553098 143.695059 
L 181.759089 142.075317 
L 182.080949 142.075317 
L 182.196819 145.168777 
L 182.40281 140.471301 
L 182.51868 145.168777 
L 182.724671 138.882783 
L 182.943536 143.557565 
L 183.046532 138.882783 
L 183.162402 143.557565 
L 183.368393 141.961846 
L 183.690253 141.961846 
L 183.806123 145.011445 
L 184.012114 140.381397 
L 184.127984 145.011445 
L 184.333975 138.816 
L 184.55284 143.424 
L 184.655836 138.816 
L 184.771706 143.424 
L 184.977697 141.851602 
L 185.196562 141.851602 
L 185.299557 146.437763 
L 185.415427 144.858566 
L 185.518423 140.294038 
L 185.621418 144.858566 
L 185.737288 144.858566 
L 185.840284 140.294038 
L 185.943279 143.294197 
L 186.38101 143.294197 
L 186.587001 141.744449 
L 186.908861 141.744449 
L 187.127727 140.209116 
L 187.230722 144.709953 
L 187.449587 140.209116 
L 187.552583 143.168 
L 187.668453 143.168 
L 187.771448 138.688 
L 187.874444 143.168 
L 187.990314 143.168 
L 188.196305 141.640258 
L 188.518165 141.640258 
L 188.737031 140.126532 
L 188.840026 144.565431 
L 189.058891 140.126532 
L 189.161887 143.04526 
L 189.277757 143.04526 
L 189.380752 138.62663 
L 189.483748 143.04526 
L 189.599618 143.04526 
L 189.702613 145.937455 
L 189.805608 141.538909 
L 189.921478 141.538909 
L 190.024474 145.937455 
L 190.243339 140.04619 
L 190.44933 144.424833 
L 190.5652 140.04619 
L 190.668195 144.424833 
L 190.771191 142.925838 
L 191.208922 142.925838 
L 191.311917 145.779659 
L 191.414912 141.440287 
L 191.530782 141.440287 
L 191.633778 145.779659 
L 191.852643 139.968 
L 191.955639 144.288 
L 192.058634 139.968 
L 192.174504 139.968 
L 192.277499 144.288 
L 192.380495 142.8096 
L 192.496365 138.5088 
L 192.702356 142.8096 
L 192.818226 138.5088 
L 193.024216 141.344283 
L 193.346077 141.344283 
L 193.461947 139.891877 
L 193.564943 144.154784 
L 193.667938 139.891877 
L 193.783808 139.891877 
L 193.886803 144.154784 
L 193.989799 142.696421 
L 194.427529 142.696421 
L 194.63352 141.250795 
L 194.74939 145.476472 
L 194.955381 141.250795 
L 195.174247 144.025043 
L 195.277242 139.817739 
L 195.496107 144.025043 
L 195.599103 142.586182 
L 196.036833 142.586182 
L 196.242824 141.159724 
L 196.358694 145.330759 
L 196.564685 141.159724 
L 196.78355 143.898644 
L 196.886546 139.745511 
L 197.002416 143.898644 
L 197.208407 138.343385 
L 197.427272 142.478769 
L 197.530268 138.343385 
L 197.646137 142.478769 
L 197.852128 141.070979 
L 198.173989 141.070979 
L 198.289859 143.775458 
L 198.392854 139.675119 
L 198.49585 143.775458 
L 198.61172 143.775458 
L 198.714715 139.675119 
L 198.817711 142.374076 
L 199.255441 142.374076 
L 199.358437 140.984471 
L 199.461432 145.050353 
L 199.680298 140.984471 
L 199.783293 145.050353 
L 199.899163 143.655364 
L 200.002158 139.606494 
L 200.105154 143.655364 
L 200.221024 143.655364 
L 200.324019 139.606494 
L 200.427015 142.272 
L 200.864745 142.272 
L 200.967741 140.900116 
L 201.070736 144.915386 
L 201.289602 140.900116 
L 201.392597 144.915386 
L 201.508467 143.538248 
L 201.611462 139.53957 
L 201.714458 143.538248 
L 201.830328 143.538248 
L 201.933323 139.53957 
L 202.036319 142.172444 
L 202.474049 142.172444 
L 202.68004 140.817836 
L 202.79591 140.817836 
L 202.898906 144.783738 
L 203.117771 139.474286 
L 203.323762 143.424 
L 203.439632 139.474286 
L 203.542627 143.424 
L 203.645623 142.075317 
L 204.083353 142.075317 
L 204.186349 144.655287 
L 204.289344 140.737555 
L 204.405214 140.737555 
L 204.50821 144.655287 
L 204.727075 139.410581 
L 204.933066 143.312516 
L 205.048936 139.410581 
L 205.151931 143.312516 
L 205.254927 141.98053 
L 205.692657 141.98053 
L 205.795653 144.52992 
L 205.898648 140.6592 
L 206.014518 140.6592 
L 206.117514 144.52992 
L 206.336379 139.348398 
L 206.54237 143.203697 
L 206.65824 139.348398 
L 206.761235 143.203697 
L 206.864231 141.888 
L 207.301961 141.888 
L 207.404957 144.407526 
L 207.507952 140.582704 
L 207.726817 144.407526 
L 207.829813 140.582704 
L 208.048678 143.097449 
L 208.151674 139.287685 
L 208.370539 143.097449 
L 208.473535 141.797647 
L 208.911265 141.797647 
L 209.117256 140.508 
L 209.233126 144.288 
L 209.439117 140.508 
L 209.657982 142.993681 
L 209.760978 139.228389 
L 209.979843 142.993681 
L 210.082838 141.709395 
L 210.520569 141.709395 
L 210.72656 140.435027 
L 210.84243 144.171243 
L 211.048421 140.435027 
L 211.267286 142.892308 
L 211.370282 139.170462 
L 211.589147 142.892308 
L 211.692142 141.623172 
L 211.911008 141.623172 
L 212.014003 145.330759 
L 212.232869 140.363725 
L 212.335864 144.05716 
L 212.451734 144.05716 
L 212.554729 140.363725 
L 212.657725 144.05716 
L 212.87659 142.793247 
L 213.198451 142.793247 
L 213.301446 145.204364 
L 213.520312 141.538909 
L 213.739177 141.538909 
L 213.842173 140.294038 
L 213.945168 143.94566 
L 214.164033 140.294038 
L 214.267029 143.94566 
L 214.382899 142.696421 
L 214.485894 139.058526 
L 214.58889 142.696421 
L 214.704759 142.696421 
L 214.807755 139.058526 
L 214.91075 141.456539 
L 215.348481 141.456539 
L 215.451477 140.22591 
L 215.554472 143.836657 
L 215.773337 140.22591 
L 215.876333 143.836657 
L 215.992203 142.601755 
L 216.095198 139.004431 
L 216.198194 142.601755 
L 216.417059 142.601755 
L 216.520054 141.376 
L 216.635924 141.376 
L 216.73892 144.96 
L 216.841915 141.376 
L 216.957785 141.376 
L 217.163776 143.730066 
L 217.279646 140.159292 
L 217.485637 143.730066 
L 217.704502 142.509176 
L 218.026363 142.509176 
L 218.129358 141.297231 
L 218.245228 141.297231 
L 218.348224 144.841846 
L 218.451219 141.297231 
L 218.567089 141.297231 
L 218.77308 143.62581 
L 218.88895 140.094131 
L 218.991945 143.62581 
L 219.210811 138.899782 
L 219.416802 142.418618 
L 219.532671 138.899782 
L 219.635667 142.418618 
L 219.738662 141.220174 
L 220.176393 141.220174 
L 220.279388 143.523812 
L 220.382384 140.030383 
L 220.498254 140.030383 
L 220.601249 143.523812 
L 220.820115 138.849151 
L 221.026105 142.330014 
L 221.244971 142.330014 
L 221.347966 141.144774 
L 221.463836 144.613161 
L 221.669827 141.144774 
L 221.785697 144.613161 
L 221.888692 143.424 
L 221.991688 139.968 
L 222.210553 143.424 
L 222.313549 139.968 
L 222.532414 142.243302 
L 222.854275 142.243302 
L 222.95727 141.070979 
L 223.07314 144.502468 
L 223.279131 141.070979 
L 223.395001 144.502468 
L 223.497996 143.326304 
L 223.600992 139.90694 
L 223.819857 143.326304 
L 223.922853 139.90694 
L 224.141718 142.158423 
L 224.463579 142.158423 
L 224.566574 140.998737 
L 225.004305 140.998737 
L 225.210296 139.847161 
L 225.326166 143.230657 
L 225.429161 139.847161 
L 225.532157 143.230657 
L 225.751022 142.075317 
L 226.072883 142.075317 
L 226.175878 144.288 
L 226.394744 140.928 
L 226.497739 144.288 
L 226.716604 139.788623 
L 226.8196 143.136997 
L 226.93547 143.136997 
L 227.038465 139.788623 
L 227.141461 143.136997 
L 227.360326 141.993931 
L 227.682187 141.993931 
L 227.785182 144.184082 
L 228.004047 140.858722 
L 228.107043 144.184082 
L 228.325908 139.731288 
L 228.428904 143.04526 
L 228.544774 143.04526 
L 228.647769 139.731288 
L 228.750765 143.04526 
L 228.96963 141.914212 
L 229.291491 141.914212 
L 229.394486 144.082286 
L 229.613351 140.790857 
L 229.716347 144.082286 
L 229.935212 139.675119 
L 230.038208 142.95539 
L 230.154078 139.675119 
L 230.360068 142.95539 
L 230.578934 141.836108 
L 230.900795 141.836108 
L 231.00379 140.724364 
L 231.11966 140.724364 
L 231.222655 143.982545 
L 231.325651 140.724364 
L 231.441521 140.724364 
L 231.647512 142.867329 
L 231.763382 139.620081 
L 231.969372 142.867329 
L 232.188238 141.759572 
L 232.510099 141.759572 
L 232.613094 140.6592 
L 232.728964 140.6592 
L 232.831959 143.8848 
L 232.934955 140.6592 
L 233.050825 140.6592 
L 233.256816 142.781023 
L 233.372686 139.56614 
L 233.578676 142.781023 
L 233.797542 141.684556 
L 234.119403 141.684556 
L 234.222398 140.595327 
L 234.338268 140.595327 
L 234.441263 143.78899 
L 234.544259 140.595327 
L 234.660129 140.595327 
L 234.86612 142.696421 
L 235.18798 142.696421 
L 235.30385 144.783738 
L 235.509841 141.611016 
L 235.728707 141.611016 
L 235.831702 140.532706 
L 235.947572 143.695059 
L 236.153563 140.532706 
L 236.269433 143.695059 
L 236.372428 142.613472 
L 236.475424 139.46142 
L 236.694289 142.613472 
L 236.797284 139.46142 
L 237.01615 141.538909 
L 237.338011 141.538909 
L 237.441006 140.471301 
L 237.556876 143.602951 
L 237.762867 140.471301 
L 237.878737 143.602951 
L 237.981732 142.532129 
L 238.084728 139.410581 
L 238.303593 142.532129 
L 238.406588 139.410581 
L 238.625454 141.468193 
L 238.947314 141.468193 
L 239.05031 140.411077 
L 239.16618 143.512615 
L 239.269175 140.411077 
L 239.372171 143.512615 
L 239.488041 143.512615 
L 239.694032 142.452345 
L 240.015892 142.452345 
L 240.234758 141.398828 
L 240.337753 144.480611 
L 240.556618 141.398828 
L 240.659614 143.424 
L 240.775484 143.424 
L 240.878479 140.352 
L 240.981475 143.424 
L 241.097345 143.424 
L 241.303335 142.374076 
L 241.419205 142.374076 
L 241.522201 139.311797 
L 241.625196 142.374076 
L 241.844062 141.330776 
L 242.165922 141.330776 
L 242.268918 143.337057 
L 242.487783 140.294038 
L 242.590779 143.337057 
L 242.809644 139.263799 
L 242.912639 142.297279 
L 243.028509 142.297279 
L 243.131505 139.263799 
L 243.2345 142.297279 
L 243.453366 141.264 
L 243.775226 141.264 
L 243.878222 143.251738 
L 243.994092 140.237159 
L 244.200083 143.251738 
L 244.315953 140.237159 
L 244.521943 142.221913 
L 244.843804 142.221913 
L 244.959674 141.198464 
L 245.06267 144.194378 
L 245.165665 141.198464 
L 245.281535 141.198464 
L 245.38453 144.194378 
L 245.487526 143.168 
L 245.603396 140.181333 
L 245.809387 143.168 
L 245.925256 140.181333 
L 246.131247 142.147938 
L 246.453108 142.147938 
L 246.568978 141.134135 
L 246.671974 144.102479 
L 246.774969 141.134135 
L 246.993834 141.134135 
L 247.09683 140.126532 
L 247.2127 140.126532 
L 247.315695 143.085798 
L 247.418691 140.126532 
L 247.53456 140.126532 
L 247.740551 142.075317 
L 247.856421 139.125073 
L 248.062412 142.075317 
L 248.281277 141.070979 
L 248.603138 141.070979 
L 248.706134 140.072727 
L 248.924999 143.005091 
L 249.027995 140.072727 
L 249.143864 143.005091 
L 249.349855 142.004012 
L 249.671716 142.004012 
L 249.787586 143.923663 
L 249.993577 141.008964 
L 250.109447 143.923663 
L 250.315438 140.019892 
L 250.534303 142.925838 
L 250.637299 140.019892 
L 250.753168 142.925838 
L 250.959159 141.933988 
L 251.28102 141.933988 
L 251.39689 143.836657 
L 251.602881 140.94806 
L 251.718751 143.836657 
L 251.924742 139.968 
L 252.143607 142.848 
L 252.246602 139.968 
L 252.362472 142.848 
L 252.465468 141.865211 
L 252.568463 138.993757 
L 252.787329 141.865211 
L 252.890324 138.993757 
L 253.109189 140.888237 
L 253.43105 140.888237 
L 253.534046 142.77154 
L 253.649916 142.77154 
L 253.752911 139.917027 
L 253.855906 142.77154 
L 253.971776 142.77154 
L 254.177767 141.797647 
L 254.499628 141.797647 
L 254.718493 140.829466 
L 254.821489 143.667238 
L 255.040354 140.829466 
L 255.14335 142.696421 
L 255.25922 142.696421 
L 255.362215 139.866947 
L 255.46521 142.696421 
L 255.58108 142.696421 
L 255.787071 141.731265 
L 256.108932 141.731265 
L 256.327797 140.771721 
L 256.430793 143.584744 
L 256.649658 140.771721 
L 256.752654 142.622609 
L 256.868523 142.622609 
L 256.971519 139.817739 
L 257.074514 142.622609 
L 257.190384 142.622609 
L 257.396375 141.666035 
L 257.718236 141.666035 
L 257.937101 140.714974 
L 258.040097 143.503677 
L 258.155967 140.714974 
L 258.258962 143.503677 
L 258.361958 142.550069 
L 258.477827 139.769379 
L 258.683818 142.550069 
L 258.799688 139.769379 
L 259.005679 141.601926 
L 259.32754 141.601926 
L 259.44341 140.6592 
L 259.546405 143.424 
L 259.649401 140.6592 
L 259.765271 140.6592 
L 259.868266 143.424 
L 259.971262 142.478769 
L 260.087131 139.721846 
L 260.293122 142.478769 
L 260.408992 139.721846 
L 260.614983 141.538909 
L 260.936844 141.538909 
L 261.052714 140.604374 
L 261.155709 143.345677 
L 261.258705 140.604374 
L 261.374575 140.604374 
L 261.47757 143.345677 
L 261.580565 142.408678 
L 261.696435 139.675119 
L 261.902426 142.408678 
L 262.018296 139.675119 
L 262.224287 141.476958 
L 262.546148 141.476958 
L 262.662018 140.550472 
L 262.765013 143.268674 
L 262.868009 140.550472 
L 263.086874 143.268674 
L 263.189869 142.339765 
L 263.6276 142.339765 
L 263.833591 141.416045 
L 264.155452 141.416045 
L 264.271322 143.192958 
L 264.477313 140.497471 
L 264.593183 143.192958 
L 264.799173 139.584 
L 265.018039 142.272 
L 265.121034 139.584 
L 265.236904 142.272 
L 265.442895 141.356144 
L 265.764756 141.356144 
L 265.880626 143.118497 
L 266.086617 140.445348 
L 266.202486 143.118497 
L 266.408477 139.53957 
L 266.627343 142.205355 
L 266.730338 139.53957 
L 266.846208 142.205355 
L 267.052199 141.297231 
L 267.37406 141.297231 
L 267.48993 143.04526 
L 267.592925 140.394082 
L 267.695921 143.04526 
L 267.81179 143.04526 
L 267.914786 140.394082 
L 268.017781 142.139803 
L 268.455512 142.139803 
L 268.558508 141.239281 
L 268.661503 143.876011 
L 268.880368 141.239281 
L 268.983364 143.876011 
L 269.099234 142.973217 
L 269.202229 140.343652 
L 269.305225 142.973217 
L 269.421094 142.973217 
L 269.52409 140.343652 
L 269.627085 142.075317 
L 269.742955 142.075317 
L 269.845951 139.452878 
L 269.948946 142.075317 
L 270.064816 142.075317 
L 270.270807 141.18227 
L 270.592668 141.18227 
L 270.811533 140.294038 
L 270.914529 142.90234 
L 271.133394 140.294038 
L 271.236389 142.011871 
L 271.352259 142.011871 
L 271.455255 139.410581 
L 271.55825 142.011871 
L 271.67412 142.011871 
L 271.880111 141.126177 
L 272.201972 141.126177 
L 272.317842 140.245219 
L 272.523832 142.832599 
L 272.639702 140.245219 
L 272.742698 142.832599 
L 272.845693 141.94944 
L 273.283424 141.94944 
L 273.386419 143.644596 
L 273.489415 141.070979 
L 273.605285 141.070979 
L 273.70828 143.644596 
L 273.927146 140.197178 
L 274.133136 142.763968 
L 274.249006 140.197178 
L 274.352002 142.763968 
L 274.454997 141.888 
L 274.892728 141.888 
L 274.995723 143.5699 
L 275.098719 141.016654 
L 275.214589 141.016654 
L 275.317584 143.5699 
L 275.53645 140.149895 
L 275.639445 142.696421 
L 275.74244 140.149895 
L 275.85831 140.149895 
L 275.961306 142.696421 
L 276.064301 141.827528 
L 276.180171 139.287685 
L 276.386162 141.827528 
L 276.502032 139.287685 
L 276.708023 140.963183 
L 277.029884 140.963183 
L 277.248749 142.629932 
L 277.351744 140.103352 
L 277.57061 142.629932 
L 277.673605 141.768 
L 278.111336 141.768 
L 278.317327 140.910545 
L 278.433197 143.424 
L 278.639188 140.910545 
L 278.858053 142.564477 
L 278.961048 140.057534 
L 279.179914 142.564477 
L 279.282909 141.709395 
L 279.72064 141.709395 
L 279.926631 140.858722 
L 280.042501 143.352742 
L 280.248492 140.858722 
L 280.467357 142.500031 
L 280.570352 140.012422 
L 280.789218 142.500031 
L 280.892213 141.651692 
L 281.111078 141.651692 
L 281.214074 139.170462 
L 281.329944 141.651692 
L 281.535935 140.807693 
L 281.7548 140.807693 
L 281.857795 143.282578 
L 281.973665 142.436571 
L 282.076661 139.968 
L 282.179656 142.436571 
L 282.295526 142.436571 
L 282.398522 139.968 
L 282.501517 141.59487 
L 282.939248 141.59487 
L 283.042243 140.757442 
L 283.145239 143.213482 
L 283.364104 140.757442 
L 283.467099 143.213482 
L 283.582969 142.374076 
L 283.685965 139.924253 
L 283.78896 142.374076 
L 283.90483 142.374076 
L 284.007826 139.924253 
L 284.110821 141.538909 
L 284.548552 141.538909 
L 284.651547 140.70795 
L 284.754543 143.145431 
L 284.973408 140.70795 
L 285.076403 143.145431 
L 285.192273 142.312523 
L 285.295269 139.881166 
L 285.398264 142.312523 
L 285.514134 142.312523 
L 285.61713 139.881166 
L 285.720125 141.483789 
L 286.157856 141.483789 
L 286.260851 140.6592 
L 286.363847 143.0784 
L 286.479716 140.6592 
L 286.685707 143.0784 
L 286.904573 142.25189 
L 287.007568 142.25189 
L 287.123438 139.838723 
L 287.226434 142.25189 
L 287.329429 141.429493 
L 287.76716 141.429493 
L 287.870155 143.012367 
L 287.973151 140.611176 
L 288.08902 140.611176 
L 288.192016 143.012367 
L 288.410881 139.796911 
L 288.616872 142.192158 
L 288.732742 139.796911 
L 288.835738 142.192158 
L 288.938733 141.376 
L 289.376464 141.376 
L 289.479459 142.94731 
L 289.582455 140.563862 
L 289.698324 140.563862 
L 289.80132 142.94731 
L 290.020185 139.755715 
L 290.226176 142.133307 
L 290.342046 139.755715 
L 290.445041 142.133307 
L 290.548037 141.323294 
L 290.985768 141.323294 
L 291.088763 142.883208 
L 291.191759 140.517242 
L 291.410624 142.883208 
L 291.513619 140.517242 
L 291.732485 142.075317 
L 292.054345 142.075317 
L 292.157341 141.271358 
L 292.273211 143.62581 
L 292.479202 141.271358 
L 292.595072 143.62581 
L 292.698067 142.820039 
L 292.801062 140.471301 
L 292.916932 142.820039 
L 293.122923 140.471301 
L 293.341789 142.018169 
L 293.444784 139.675119 
L 293.663649 142.018169 
L 293.766645 141.220174 
L 294.204376 141.220174 
L 294.410366 140.426024 
L 294.526236 142.757783 
L 294.732227 140.426024 
L 294.951093 141.961846 
L 295.054088 139.635692 
L 295.272953 141.961846 
L 295.375949 141.169727 
L 295.81368 141.169727 
L 295.916675 140.381397 
L 296.01967 142.696421 
L 296.13554 142.696421 
L 296.238536 140.381397 
L 296.341531 142.696421 
L 296.560397 141.906329 
L 296.882257 141.906329 
L 296.985253 143.424 
L 297.204118 141.12 
L 297.307114 143.424 
L 297.525979 140.337406 
L 297.628974 142.635933 
L 297.744844 142.635933 
L 297.84784 140.337406 
L 297.950835 142.635933 
L 298.169701 141.851602 
L 298.491561 141.851602 
L 298.594557 143.358638 
L 298.813422 141.070979 
L 299.032287 141.070979 
L 299.135283 140.294038 
L 299.238278 142.576302 
L 299.457144 140.294038 
L 299.560139 142.576302 
L 299.676009 141.797647 
L 299.779004 139.520753 
L 299.882 141.797647 
L 299.99787 141.797647 
L 300.100865 139.520753 
L 300.203861 141.022648 
L 300.641591 141.022648 
L 300.744587 140.251279 
L 300.847582 142.517508 
L 300.963452 140.251279 
L 301.169443 142.517508 
L 301.388308 141.744449 
L 301.710169 141.744449 
L 301.813165 140.974993 
L 301.929035 140.974993 
L 302.03203 143.230657 
L 302.135026 140.974993 
L 302.250895 140.974993 
L 302.456886 142.459535 
L 302.572756 140.209116 
L 302.778747 142.459535 
L 302.997612 141.691991 
L 303.319473 141.691991 
L 303.422469 140.928 
L 303.538339 140.928 
L 303.641334 143.168 
L 303.744329 140.928 
L 303.860199 140.928 
L 304.06619 142.402365 
L 304.18206 140.167538 
L 304.388051 142.402365 
L 304.606916 141.640258 
L 304.709912 141.640258 
L 304.825782 139.410581 
L 304.928777 141.640258 
L 305.031773 140.881655 
L 305.469503 140.881655 
L 305.572499 142.345982 
L 305.675494 140.126532 
L 305.89436 142.345982 
L 305.997355 140.126532 
L 306.21622 141.589236 
L 306.538081 141.589236 
L 306.641077 140.835945 
L 306.756947 143.04526 
L 306.962937 140.835945 
L 307.078807 143.04526 
L 307.181803 142.290369 
L 307.284798 140.086087 
L 307.503664 142.290369 
L 307.606659 140.086087 
L 307.825524 141.538909 
L 308.147385 141.538909 
L 308.250381 140.790857 
L 308.36625 142.985143 
L 308.572241 140.790857 
L 308.688111 142.985143 
L 308.791107 142.235511 
L 308.894102 140.04619 
L 309.112968 142.235511 
L 309.215963 140.04619 
L 309.434828 141.489264 
L 309.756689 141.489264 
L 309.859685 140.746378 
L 309.975554 142.925838 
L 310.181545 140.746378 
L 310.297415 142.925838 
L 310.503406 142.181393 
L 310.619276 142.181393 
L 310.722271 140.006831 
L 310.825267 142.181393 
L 311.044132 141.440287 
L 311.365993 141.440287 
L 311.468989 142.867329 
L 311.687854 140.702497 
L 311.790849 142.867329 
L 312.009715 139.968 
L 312.11271 142.128 
L 312.22858 142.128 
L 312.331575 139.968 
L 312.434571 142.128 
L 312.653436 141.391964 
L 312.975297 141.391964 
L 313.078292 142.8096 
L 313.297158 140.6592 
L 313.400153 142.8096 
L 313.619019 139.929685 
L 313.722014 142.075317 
L 313.837884 142.075317 
L 313.940879 139.929685 
L 314.043875 142.075317 
L 314.26274 141.344283 
L 314.584601 141.344283 
L 314.687596 142.752636 
L 314.906462 140.616477 
L 315.009457 142.752636 
L 315.125327 140.616477 
L 315.331318 142.02333 
L 315.653179 142.02333 
L 315.769049 141.297231 
L 315.872044 143.424 
L 315.97504 141.297231 
L 316.09091 141.297231 
L 316.193905 143.424 
L 316.2969 142.696421 
L 316.41277 140.574316 
L 316.515766 142.696421 
L 316.618761 140.574316 
L 316.734631 140.574316 
L 316.940622 141.972026 
L 317.056492 139.854565 
L 317.262483 141.972026 
L 317.481348 141.250795 
L 317.803209 141.250795 
L 317.906204 140.532706 
L 318.022074 140.532706 
L 318.12507 142.640941 
L 318.228065 140.532706 
L 318.343935 140.532706 
L 318.549926 141.921391 
L 318.665796 139.817739 
L 318.871787 141.921391 
L 319.090652 141.204963 
L 319.412513 141.204963 
L 319.515508 140.491636 
L 319.631378 140.491636 
L 319.734374 142.586182 
L 319.837369 140.491636 
L 319.953239 140.491636 
L 320.15923 141.871413 
L 320.481091 141.871413 
L 320.596961 143.245241 
L 320.802952 141.159724 
L 320.918821 143.245241 
L 321.124812 140.451097 
L 321.343678 142.532129 
L 321.446673 140.451097 
L 321.562543 142.532129 
L 321.768534 141.822077 
L 322.090395 141.822077 
L 322.206265 143.187186 
L 322.412256 141.115066 
L 322.631121 141.115066 
L 322.734116 140.411077 
L 322.849986 142.478769 
L 323.055977 140.411077 
L 323.171847 142.478769 
L 323.274842 141.773373 
L 323.377838 139.71009 
L 323.596703 141.773373 
L 323.699699 139.71009 
L 323.918564 141.070979 
L 324.240425 141.070979 
L 324.34342 140.371567 
L 324.45929 142.426089 
L 324.665281 140.371567 
L 324.781151 142.426089 
L 324.987142 141.725288 
L 325.309003 141.725288 
L 325.527868 141.02745 
L 325.630863 143.073285 
L 325.849729 141.02745 
L 325.952724 142.374076 
L 326.068594 142.374076 
L 326.17159 140.332557 
L 326.274585 142.374076 
L 326.390455 142.374076 
L 326.596446 141.677811 
L 326.918307 141.677811 
L 327.137172 140.984471 
L 327.240167 143.017412 
L 327.459033 140.984471 
L 327.562028 142.322717 
L 327.677898 142.322717 
L 327.780894 140.294038 
L 327.883889 142.322717 
L 327.999759 142.322717 
L 328.20575 141.630929 
L 328.32162 141.630929 
L 328.424615 139.606494 
L 328.527611 141.630929 
L 328.746476 140.942029 
L 329.068337 140.942029 
L 329.171332 142.272 
L 329.390198 140.256 
L 329.493193 142.272 
L 329.712058 139.572823 
L 329.815054 141.584632 
L 330.136915 141.584632 
L 330.252784 140.900116 
L 330.35578 142.907751 
L 330.458775 140.900116 
L 330.574645 140.900116 
L 330.677641 142.907751 
L 330.780636 142.221913 
L 330.896506 140.218435 
L 331.102497 142.221913 
L 331.218367 140.218435 
L 331.424358 141.538909 
L 331.746219 141.538909 
L 331.862088 140.858722 
L 331.965084 142.853938 
L 332.068079 140.858722 
L 332.183949 140.858722 
L 332.286945 142.853938 
L 332.38994 142.172444 
L 332.50581 140.181333 
L 332.711801 142.172444 
L 332.827671 140.181333 
L 333.033662 141.493749 
L 333.355523 141.493749 
L 333.471392 140.817836 
L 333.574388 142.800787 
L 333.677383 140.817836 
L 333.793253 140.817836 
L 333.896249 142.800787 
L 333.999244 142.123583 
L 334.115114 140.144687 
L 334.218109 142.123583 
L 334.321105 140.144687 
L 334.436975 140.144687 
L 334.642966 141.449143 
L 334.964826 141.449143 
L 335.080696 142.748285 
L 335.286687 140.77745 
L 335.402557 142.748285 
L 335.608548 140.108488 
L 335.827413 142.075317 
L 335.930409 140.108488 
L 336.046279 142.075317 
L 336.25227 141.405079 
L 336.57413 141.405079 
L 336.69 142.696421 
L 336.895991 140.737555 
L 337.011861 142.696421 
L 337.217852 140.072727 
L 337.436717 142.027636 
L 337.539713 140.072727 
L 337.655583 142.027636 
L 337.861574 141.361548 
L 338.183434 141.361548 
L 338.299304 142.645183 
L 338.505295 140.698141 
L 338.621165 142.645183 
L 338.827156 140.037398 
L 339.046021 141.98053 
L 339.149017 140.037398 
L 339.264887 141.98053 
L 339.367882 141.318541 
L 339.470878 143.25778 
L 339.689743 141.318541 
L 339.792738 143.25778 
L 339.908608 142.59456 
L 340.011604 140.6592 
L 340.114599 142.59456 
L 340.333465 140.6592 
L 340.43646 141.933988 
L 340.55233 141.933988 
L 340.655325 140.002491 
L 340.758321 141.933988 
L 340.874191 141.933988 
L 341.080182 141.276048 
L 341.402042 141.276048 
L 341.620908 140.620724 
L 341.723903 142.544541 
L 341.942768 140.620724 
L 342.045764 141.888 
L 342.161634 141.888 
L 342.264629 139.968 
L 342.367625 141.888 
L 342.483495 141.888 
L 342.689486 141.234059 
L 343.011346 141.234059 
L 343.230212 140.582704 
L 343.333207 142.495115 
L 343.552072 140.582704 
L 343.655068 141.842556 
L 343.770938 141.842556 
L 343.873933 139.933917 
L 343.976929 141.842556 
L 344.092799 141.842556 
L 344.298789 141.192567 
L 344.414659 141.192567 
L 344.517655 143.097449 
L 344.73652 140.545132 
L 344.942511 142.446271 
L 345.058381 140.545132 
L 345.161376 142.446271 
L 345.264372 141.797647 
L 345.702103 141.797647 
L 345.805098 143.04526 
L 345.908093 141.151562 
L 346.229954 141.151562 
L 346.345824 140.508 
L 346.44882 142.398 
L 346.551815 140.508 
L 346.667685 140.508 
L 346.77068 142.398 
L 346.873676 141.753263 
L 346.989546 139.866947 
L 347.195537 141.753263 
L 347.311407 139.866947 
L 347.517397 141.111035 
L 347.839258 141.111035 
L 347.955128 140.471301 
L 348.058124 142.350291 
L 348.161119 140.471301 
L 348.276989 140.471301 
L 348.379984 142.350291 
L 348.48298 141.709395 
L 348.59885 139.834047 
L 348.804841 141.709395 
L 348.92071 139.834047 
L 349.242571 142.9427 
L 349.448562 141.070979 
L 349.667428 142.303135 
L 349.770423 140.435027 
L 349.989288 142.303135 
L 350.092284 141.666035 
L 350.530014 141.666035 
L 350.736005 141.031385 
L 350.851875 142.892308 
L 351.057866 141.031385 
L 351.276731 142.256522 
L 351.379727 140.399171 
L 351.598592 142.256522 
L 351.701588 141.623172 
L 351.920453 141.623172 
L 352.023449 139.769379 
L 352.139318 141.623172 
L 352.345309 140.992245 
L 352.66717 140.992245 
L 352.78304 142.210443 
L 352.989031 140.363725 
L 353.104901 142.210443 
L 353.310892 139.7376 
L 353.529757 141.5808 
L 353.632753 139.7376 
L 353.748622 141.5808 
L 353.954613 140.953551 
L 354.173479 140.953551 
L 354.276474 142.793247 
L 354.392344 142.164888 
L 354.495339 140.328683 
L 354.598335 142.164888 
L 354.714205 142.164888 
L 354.8172 140.328683 
L 354.920196 141.538909 
L 355.357926 141.538909 
L 355.460922 140.915297 
L 355.563917 142.74456 
L 355.782783 140.915297 
L 355.885778 142.74456 
L 356.001648 142.119849 
L 356.104643 140.294038 
L 356.207639 142.119849 
L 356.323509 142.119849 
L 356.426504 140.294038 
L 356.5295 141.497492 
L 356.96723 141.497492 
L 357.070226 140.877474 
L 357.173221 142.696421 
L 357.392087 140.877474 
L 357.495082 142.696421 
L 357.610952 142.075317 
L 357.713947 140.259782 
L 357.816943 142.075317 
L 357.932813 142.075317 
L 358.035808 140.259782 
L 358.138804 141.456539 
L 358.254674 141.456539 
L 358.357669 139.644404 
L 358.460664 141.456539 
L 358.576534 141.456539 
L 358.782525 140.840075 
L 358.898395 140.840075 
L 359.001391 142.648822 
L 359.220256 140.22591 
L 359.426247 142.031284 
L 359.542117 140.22591 
L 359.645112 142.031284 
L 359.748108 141.416045 
L 360.185838 141.416045 
L 360.288834 142.601755 
L 360.391829 140.803093 
L 360.507699 140.803093 
L 360.610695 142.601755 
L 360.82956 140.192416 
L 361.035551 141.98774 
L 361.151421 140.192416 
L 361.254416 141.98774 
L 361.357412 141.376 
L 361.795142 141.376 
L 361.898138 142.555209 
L 362.001133 140.766521 
L 362.117003 140.766521 
L 362.219998 142.555209 
L 362.438864 140.159292 
L 362.644855 141.944679 
L 362.760725 140.159292 
L 362.86372 141.944679 
L 362.966716 141.336398 
L 363.404446 141.336398 
L 363.507442 142.509176 
L 363.610437 140.730353 
L 363.726307 140.730353 
L 363.829302 142.509176 
L 363.932298 140.730353 
L 364.151163 141.902092 
L 364.254159 140.126532 
L 364.473024 141.902092 
L 364.576019 141.297231 
L 365.01375 141.297231 
L 365.219741 140.694581 
L 365.335611 142.463649 
L 365.541602 140.694581 
L 365.760467 141.859971 
L 365.863463 140.094131 
L 366.082328 141.859971 
L 366.185323 141.258492 
L 366.623054 141.258492 
L 366.829045 140.6592 
L 366.944915 142.418618 
L 367.150906 140.6592 
L 367.369771 141.818309 
L 367.472767 140.062083 
L 367.691632 141.818309 
L 367.794627 141.220174 
L 368.232358 141.220174 
L 368.438349 140.624203 
L 368.554219 142.374076 
L 368.657214 140.624203 
L 368.76021 142.374076 
L 368.979075 141.777097 
L 369.300936 141.777097 
L 369.403931 142.925838 
L 369.622797 141.18227 
L 369.725792 142.925838 
L 369.944658 140.589583 
L 370.047653 142.330014 
L 370.266518 140.589583 
L 370.369514 142.330014 
L 370.485384 141.73633 
L 370.588379 139.999023 
L 370.691375 141.73633 
L 370.807244 141.73633 
L 370.91024 139.999023 
L 371.013235 141.144774 
L 371.450966 141.144774 
L 371.553962 140.555335 
L 371.656957 142.286426 
L 371.875822 140.555335 
L 371.978818 142.286426 
L 372.094688 141.696 
L 372.197683 139.968 
L 372.300679 141.696 
L 372.416548 141.696 
L 372.519544 139.968 
L 372.622539 141.107679 
L 373.06027 141.107679 
L 373.163265 140.521452 
L 373.266261 142.243302 
L 373.485126 140.521452 
L 373.588122 142.243302 
L 373.806987 141.656099 
L 374.128848 141.656099 
L 374.231843 141.070979 
L 374.347713 141.070979 
L 374.450709 142.786723 
L 374.553704 141.070979 
L 374.669574 141.070979 
L 374.875565 142.200637 
L 374.991435 140.487929 
L 375.197426 142.200637 
L 375.416291 141.616622 
L 375.738152 141.616622 
L 375.841147 141.034667 
L 376.278878 141.034667 
L 376.381873 142.158423 
L 376.484869 140.454761 
L 376.600739 140.454761 
L 376.703734 142.158423 
L 376.9226 139.876893 
L 377.12859 141.577561 
L 377.24446 139.876893 
L 377.347456 141.577561 
L 377.450451 140.998737 
L 377.888182 140.998737 
L 377.991177 142.116651 
L 378.094173 140.42194 
L 378.210043 140.42194 
L 378.313038 142.116651 
L 378.531904 139.847161 
L 378.737894 141.538909 
L 378.95676 141.538909 
L 379.059755 140.963183 
L 379.175625 142.651979 
L 379.381616 140.963183 
L 379.497486 142.651979 
L 379.600481 142.075317 
L 379.703477 140.389463 
L 379.922342 142.075317 
L 380.025338 140.389463 
L 380.244203 141.500661 
L 380.566064 141.500661 
L 380.669059 140.928 
L 380.784929 142.608 
L 380.99092 140.928 
L 381.10679 142.608 
L 381.209785 142.034412 
L 381.312781 140.357324 
L 381.531646 142.034412 
L 381.634642 140.357324 
L 381.853507 141.46281 
L 382.175368 141.46281 
L 382.278363 140.893181 
L 382.716094 140.893181 
L 382.922085 140.325517 
L 383.037955 141.993931 
L 383.243946 140.325517 
L 383.462811 141.425349 
L 383.784672 141.425349 
L 383.887667 142.521402 
L 384.106532 140.858722 
L 384.209528 142.521402 
L 384.428393 140.294038 
L 384.531389 141.953866 
L 384.647259 141.953866 
L 384.750254 140.294038 
L 384.85325 141.953866 
L 385.072115 141.388274 
L 385.393976 141.388274 
L 385.496971 142.478769 
L 385.715836 140.824615 
L 385.818832 142.478769 
L 386.037697 140.262881 
L 386.140693 141.914212 
L 386.256563 141.914212 
L 386.359558 140.262881 
L 386.462553 141.914212 
L 386.681419 141.351578 
L 387.00328 141.351578 
L 387.106275 142.436571 
L 387.32514 140.790857 
L 387.428136 142.436571 
L 387.647001 140.232041 
L 387.749997 141.874961 
L 387.865867 141.874961 
L 387.968862 140.232041 
L 388.071857 141.874961 
L 388.187727 141.315254 
L 388.290723 139.675119 
L 388.393718 141.315254 
L 388.612584 141.315254 
L 388.715579 140.757442 
L 388.831449 140.757442 
L 388.934444 142.394802 
L 389.03744 140.757442 
L 389.15331 140.757442 
L 389.359301 141.836108 
L 389.475171 140.201514 
L 389.681161 141.836108 
L 389.900027 141.279298 
L 390.221888 141.279298 
L 390.324883 140.724364 
L 390.440753 140.724364 
L 390.543748 142.353455 
L 390.646744 140.724364 
L 390.762614 140.724364 
L 390.968605 141.797647 
L 391.084474 140.171294 
L 391.290465 141.797647 
L 391.509331 141.243705 
L 391.831192 141.243705 
L 391.934187 140.691618 
L 392.050057 140.691618 
L 392.153052 142.312523 
L 392.256048 140.691618 
L 392.371918 140.691618 
L 392.577909 141.759572 
L 392.693778 140.141378 
L 392.899769 141.759572 
L 393.118635 141.208467 
L 393.440495 141.208467 
L 393.543491 140.6592 
L 393.762356 142.272 
L 393.865352 140.6592 
L 393.981222 142.272 
L 394.187213 141.721877 
L 394.406078 141.721877 
L 394.509073 140.11176 
L 394.727939 141.173581 
L 395.049799 141.173581 
L 395.152795 140.627104 
L 395.268665 142.231881 
L 395.474656 140.627104 
L 395.590526 142.231881 
L 395.693521 141.684556 
L 395.796516 140.082437 
L 396.015382 141.684556 
L 396.118377 140.082437 
L 396.337243 141.139041 
L 396.659103 141.139041 
L 396.762099 140.595327 
L 396.877969 142.192158 
L 397.08396 140.595327 
L 397.19983 142.192158 
L 397.302825 141.647605 
L 397.40582 140.053404 
L 397.624686 141.647605 
L 397.727681 140.053404 
L 397.946547 141.104842 
L 398.268407 141.104842 
L 398.371403 140.563862 
L 398.487273 140.563862 
L 398.487273 140.563862 
" style="fill:none;stroke:#1f77b4;stroke-linecap:square;stroke-width:1.5;"/>
   </g>
   <g id="patch_3">
    <path d="M 57.6 307.584 
L 57.6 41.472 
" style="fill:none;stroke:#000000;stroke-linecap:square;stroke-linejoin:miter;stroke-width:0.8;"/>
   </g>
   <g id="patch_4">
    <path d="M 414.72 307.584 
L 414.72 41.472 
" style="fill:none;stroke:#000000;stroke-linecap:square;stroke-linejoin:miter;stroke-width:0.8;"/>
   </g>
   <g id="patch_5">
    <path d="M 57.6 307.584 
L 414.72 307.584 
" style="fill:none;stroke:#000000;stroke-linecap:square;stroke-linejoin:miter;stroke-width:0.8;"/>
   </g>
   <g id="patch_6">
    <path d="M 57.6 41.472 
L 414.72 41.472 
" style="fill:none;stroke:#000000;stroke-linecap:square;stroke-linejoin:miter;stroke-width:0.8;"/>
   </g>
   <g id="text_17">
    <!-- Speed function of time -->
    <g transform="translate(167.024063 35.472)scale(0.12 -0.12)">
     <defs>
      <path id="DejaVuSerif-32"/>
      <path d="M 43.015625 63.71875 
L 38.28125 63.71875 
Q 38.234375 67.390625 36.203125 69.28125 
Q 34.1875 71.1875 30.328125 71.1875 
Q 25.296875 71.1875 23.234375 68.421875 
Q 21.1875 65.671875 21.1875 58.59375 
L 21.1875 51.90625 
L 35.6875 51.90625 
L 35.6875 46.6875 
L 21.1875 46.6875 
L 21.1875 5.171875 
L 32.71875 5.171875 
L 32.71875 0 
L 3.609375 0 
L 3.609375 5.171875 
L 12.203125 5.171875 
L 12.203125 46.6875 
L 3.609375 46.6875 
L 3.609375 51.90625 
L 12.203125 51.90625 
L 12.203125 58.40625 
Q 12.203125 67.09375 16.71875 71.53125 
Q 21.234375 75.984375 29.984375 75.984375 
Q 33.25 75.984375 36.515625 75.390625 
Q 39.796875 74.8125 43.015625 73.578125 
z
" id="DejaVuSerif-102"/>
      <path d="M 35.40625 51.90625 
L 52.203125 51.90625 
L 52.203125 5.171875 
L 60.6875 5.171875 
L 60.6875 0 
L 43.21875 0 
L 43.21875 9.1875 
Q 40.71875 4 36.765625 1.28125 
Q 32.8125 -1.421875 27.59375 -1.421875 
Q 18.953125 -1.421875 14.875 3.484375 
Q 10.796875 8.40625 10.796875 18.890625 
L 10.796875 46.6875 
L 2.6875 46.6875 
L 2.6875 51.90625 
L 19.828125 51.90625 
L 19.828125 21.6875 
Q 19.828125 12.203125 22.140625 8.6875 
Q 24.46875 5.171875 30.421875 5.171875 
Q 36.671875 5.171875 39.9375 9.765625 
Q 43.21875 14.359375 43.21875 23.09375 
L 43.21875 46.6875 
L 35.40625 46.6875 
z
" id="DejaVuSerif-117"/>
      <path d="M 4.109375 0 
L 4.109375 5.171875 
L 12.203125 5.171875 
L 12.203125 46.6875 
L 3.609375 46.6875 
L 3.609375 51.90625 
L 21.1875 51.90625 
L 21.1875 42.671875 
Q 23.6875 47.953125 27.65625 50.640625 
Q 31.640625 53.328125 36.921875 53.328125 
Q 45.515625 53.328125 49.5625 48.390625 
Q 53.609375 43.453125 53.609375 33.015625 
L 53.609375 5.171875 
L 61.625 5.171875 
L 61.625 0 
L 36.8125 0 
L 36.8125 5.171875 
L 44.578125 5.171875 
L 44.578125 30.171875 
Q 44.578125 39.703125 42.234375 43.234375 
Q 39.890625 46.78125 33.984375 46.78125 
Q 27.734375 46.78125 24.453125 42.203125 
Q 21.1875 37.640625 21.1875 28.90625 
L 21.1875 5.171875 
L 29 5.171875 
L 29 0 
z
" id="DejaVuSerif-110"/>
      <path d="M 51.421875 15.578125 
Q 49.515625 7.28125 44.09375 2.921875 
Q 38.671875 -1.421875 30.078125 -1.421875 
Q 18.75 -1.421875 11.859375 6.078125 
Q 4.984375 13.578125 4.984375 25.984375 
Q 4.984375 38.421875 11.859375 45.875 
Q 18.75 53.328125 30.078125 53.328125 
Q 35.015625 53.328125 39.890625 52.171875 
Q 44.78125 51.03125 49.703125 48.6875 
L 49.703125 35.40625 
L 44.484375 35.40625 
Q 43.453125 42.234375 40.015625 45.359375 
Q 36.578125 48.484375 30.171875 48.484375 
Q 22.90625 48.484375 19.1875 42.84375 
Q 15.484375 37.203125 15.484375 25.984375 
Q 15.484375 14.75 19.171875 9.078125 
Q 22.859375 3.421875 30.171875 3.421875 
Q 35.984375 3.421875 39.453125 6.4375 
Q 42.921875 9.46875 44.1875 15.578125 
z
" id="DejaVuSerif-99"/>
      <path d="M 10.796875 46.6875 
L 2.875 46.6875 
L 2.875 51.90625 
L 10.796875 51.90625 
L 10.796875 68.015625 
L 19.828125 68.015625 
L 19.828125 51.90625 
L 36.71875 51.90625 
L 36.71875 46.6875 
L 19.828125 46.6875 
L 19.828125 13.71875 
Q 19.828125 7.125 21.09375 5.265625 
Q 22.359375 3.421875 25.78125 3.421875 
Q 29.296875 3.421875 30.90625 5.484375 
Q 32.515625 7.5625 32.625 12.203125 
L 39.40625 12.203125 
Q 39.015625 5.125 35.546875 1.84375 
Q 32.078125 -1.421875 25 -1.421875 
Q 17.234375 -1.421875 14.015625 2.015625 
Q 10.796875 5.46875 10.796875 13.71875 
z
" id="DejaVuSerif-116"/>
      <path d="M 30.078125 3.421875 
Q 37.3125 3.421875 40.984375 9.125 
Q 44.671875 14.84375 44.671875 25.984375 
Q 44.671875 37.109375 40.984375 42.796875 
Q 37.3125 48.484375 30.078125 48.484375 
Q 22.859375 48.484375 19.171875 42.796875 
Q 15.484375 37.109375 15.484375 25.984375 
Q 15.484375 14.84375 19.1875 9.125 
Q 22.90625 3.421875 30.078125 3.421875 
z
M 30.078125 -1.421875 
Q 18.75 -1.421875 11.859375 6.078125 
Q 4.984375 13.578125 4.984375 25.984375 
Q 4.984375 38.375 11.84375 45.84375 
Q 18.703125 53.328125 30.078125 53.328125 
Q 41.453125 53.328125 48.3125 45.84375 
Q 55.171875 38.375 55.171875 25.984375 
Q 55.171875 13.578125 48.3125 6.078125 
Q 41.453125 -1.421875 30.078125 -1.421875 
z
" id="DejaVuSerif-111"/>
     </defs>
     <use xlink:href="#DejaVuSerif-83"/>
     <use x="68.505859" xlink:href="#DejaVuSerif-112"/>
     <use x="132.519531" xlink:href="#DejaVuSerif-101"/>
     <use x="191.699219" xlink:href="#DejaVuSerif-101"/>
     <use x="250.878906" xlink:href="#DejaVuSerif-100"/>
     <use x="314.892578" xlink:href="#DejaVuSerif-32"/>
     <use x="346.679688" xlink:href="#DejaVuSerif-102"/>
     <use x="383.691406" xlink:href="#DejaVuSerif-117"/>
     <use x="448.095703" xlink:href="#DejaVuSerif-110"/>
     <use x="512.5" xlink:href="#DejaVuSerif-99"/>
     <use x="568.505859" xlink:href="#DejaVuSerif-116"/>
     <use x="608.691406" xlink:href="#DejaVuSerif-105"/>
     <use x="640.673828" xlink:href="#DejaVuSerif-111"/>
     <use x="700.878906" xlink:href="#DejaVuSerif-110"/>
     <use x="765.283203" xlink:href="#DejaVuSerif-32"/>
     <use x="797.070312" xlink:href="#DejaVuSerif-111"/>
     <use x="857.275391" xlink:href="#DejaVuSerif-102"/>
     <use x="894.287109" xlink:href="#DejaVuSerif-32"/>
     <use x="926.074219" xlink:href="#DejaVuSerif-116"/>
     <use x="966.259766" xlink:href="#DejaVuSerif-105"/>
     <use x="998.242188" xlink:href="#DejaVuSerif-109"/>
     <use x="1093.066406" xlink:href="#DejaVuSerif-101"/>
    </g>
   </g>
  </g>
 </g>
 <defs>
  <clipPath id="p38d28e739a">
   <rect height="266.112" width="357.12" x="57.6" y="41.472"/>
  </clipPath>
 </defs>
</svg>
