<?xml version="1.0" encoding="utf-8" standalone="no"?>
<!DOCTYPE svg PUBLIC "-//W3C//DTD SVG 1.1//EN"
  "http://www.w3.org/Graphics/SVG/1.1/DTD/svg11.dtd">
<!-- Created with matplotlib (https://matplotlib.org/) -->
<svg height="345.6pt" version="1.1" viewBox="0 0 460.8 345.6" width="460.8pt" xmlns="http://www.w3.org/2000/svg" xmlns:xlink="http://www.w3.org/1999/xlink">
 <metadata>
  <rdf:RDF xmlns:cc="http://creativecommons.org/ns#" xmlns:dc="http://purl.org/dc/elements/1.1/" xmlns:rdf="http://www.w3.org/1999/02/22-rdf-syntax-ns#">
   <cc:Work>
    <dc:type rdf:resource="http://purl.org/dc/dcmitype/StillImage"/>
    <dc:date>2022-10-13T14:24:15.483904</dc:date>
    <dc:format>image/svg+xml</dc:format>
    <dc:creator>
     <cc:Agent>
      <dc:title>Matplotlib v3.3.4, https://matplotlib.org/</dc:title>
     </cc:Agent>
    </dc:creator>
   </cc:Work>
  </rdf:RDF>
 </metadata>
 <defs>
  <style type="text/css">*{stroke-linecap:butt;stroke-linejoin:round;}</style>
 </defs>
 <g id="figure_1">
  <g id="patch_1">
   <path d="M 0 345.6 
L 460.8 345.6 
L 460.8 0 
L 0 0 
z
" style="fill:#ffffff;"/>
  </g>
  <g id="axes_1">
   <g id="patch_2">
    <path d="M 103.104 307.584 
L 369.216 307.584 
L 369.216 41.472 
L 103.104 41.472 
z
" style="fill:#ffffff;"/>
   </g>
   <g id="matplotlib.axis_1">
    <g id="xtick_1">
     <g id="line2d_1">
      <defs>
       <path d="M 0 0 
L 0 3.5 
" id="m7f973d4d9d" style="stroke:#000000;stroke-width:0.8;"/>
      </defs>
      <g>
       <use style="stroke:#000000;stroke-width:0.8;" x="103.767297" xlink:href="#m7f973d4d9d" y="307.584"/>
      </g>
     </g>
     <g id="text_1">
      <!-- 0 -->
      <g transform="translate(100.586047 322.182437)scale(0.1 -0.1)">
       <defs>
        <path d="M 31.78125 3.421875 
Q 39.265625 3.421875 42.96875 11.625 
Q 46.6875 19.828125 46.6875 36.375 
Q 46.6875 52.984375 42.96875 61.1875 
Q 39.265625 69.390625 31.78125 69.390625 
Q 24.3125 69.390625 20.59375 61.1875 
Q 16.890625 52.984375 16.890625 36.375 
Q 16.890625 19.828125 20.59375 11.625 
Q 24.3125 3.421875 31.78125 3.421875 
z
M 31.78125 -1.421875 
Q 19.921875 -1.421875 13.25 8.53125 
Q 6.59375 18.5 6.59375 36.375 
Q 6.59375 54.296875 13.25 64.25 
Q 19.921875 74.21875 31.78125 74.21875 
Q 43.703125 74.21875 50.34375 64.25 
Q 56.984375 54.296875 56.984375 36.375 
Q 56.984375 18.5 50.34375 8.53125 
Q 43.703125 -1.421875 31.78125 -1.421875 
z
" id="DejaVuSerif-48"/>
       </defs>
       <use xlink:href="#DejaVuSerif-48"/>
      </g>
     </g>
    </g>
    <g id="xtick_2">
     <g id="line2d_2">
      <g>
       <use style="stroke:#000000;stroke-width:0.8;" x="170.096971" xlink:href="#m7f973d4d9d" y="307.584"/>
      </g>
     </g>
     <g id="text_2">
      <!-- 50 -->
      <g transform="translate(163.734471 322.182437)scale(0.1 -0.1)">
       <defs>
        <path d="M 50.296875 72.90625 
L 50.296875 64.890625 
L 16.890625 64.890625 
L 16.890625 44 
Q 19.4375 45.75 22.828125 46.625 
Q 26.21875 47.515625 30.421875 47.515625 
Q 42.234375 47.515625 49.0625 40.96875 
Q 55.90625 34.421875 55.90625 23.09375 
Q 55.90625 11.53125 49 5.046875 
Q 42.09375 -1.421875 29.59375 -1.421875 
Q 24.5625 -1.421875 19.28125 -0.1875 
Q 14.015625 1.03125 8.5 3.515625 
L 8.5 17.671875 
L 14.015625 17.671875 
Q 14.453125 10.75 18.421875 7.078125 
Q 22.40625 3.421875 29.59375 3.421875 
Q 37.3125 3.421875 41.453125 8.5 
Q 45.609375 13.578125 45.609375 23.09375 
Q 45.609375 32.5625 41.484375 37.609375 
Q 37.359375 42.671875 29.59375 42.671875 
Q 25.203125 42.671875 21.84375 41.109375 
Q 18.5 39.546875 15.921875 36.28125 
L 11.71875 36.28125 
L 11.71875 72.90625 
z
" id="DejaVuSerif-53"/>
       </defs>
       <use xlink:href="#DejaVuSerif-53"/>
       <use x="63.623047" xlink:href="#DejaVuSerif-48"/>
      </g>
     </g>
    </g>
    <g id="xtick_3">
     <g id="line2d_3">
      <g>
       <use style="stroke:#000000;stroke-width:0.8;" x="236.426645" xlink:href="#m7f973d4d9d" y="307.584"/>
      </g>
     </g>
     <g id="text_3">
      <!-- 100 -->
      <g transform="translate(226.882895 322.182437)scale(0.1 -0.1)">
       <defs>
        <path d="M 14.203125 0 
L 14.203125 5.171875 
L 26.90625 5.171875 
L 26.90625 65.828125 
L 12.203125 56.296875 
L 12.203125 62.703125 
L 29.984375 74.21875 
L 36.71875 74.21875 
L 36.71875 5.171875 
L 49.421875 5.171875 
L 49.421875 0 
z
" id="DejaVuSerif-49"/>
       </defs>
       <use xlink:href="#DejaVuSerif-49"/>
       <use x="63.623047" xlink:href="#DejaVuSerif-48"/>
       <use x="127.246094" xlink:href="#DejaVuSerif-48"/>
      </g>
     </g>
    </g>
    <g id="xtick_4">
     <g id="line2d_4">
      <g>
       <use style="stroke:#000000;stroke-width:0.8;" x="302.75632" xlink:href="#m7f973d4d9d" y="307.584"/>
      </g>
     </g>
     <g id="text_4">
      <!-- 150 -->
      <g transform="translate(293.21257 322.182437)scale(0.1 -0.1)">
       <use xlink:href="#DejaVuSerif-49"/>
       <use x="63.623047" xlink:href="#DejaVuSerif-53"/>
       <use x="127.246094" xlink:href="#DejaVuSerif-48"/>
      </g>
     </g>
    </g>
    <g id="xtick_5">
     <g id="line2d_5">
      <g>
       <use style="stroke:#000000;stroke-width:0.8;" x="369.085994" xlink:href="#m7f973d4d9d" y="307.584"/>
      </g>
     </g>
     <g id="text_5">
      <!-- 200 -->
      <g transform="translate(359.542244 322.182437)scale(0.1 -0.1)">
       <defs>
        <path d="M 12.796875 55.515625 
L 7.328125 55.515625 
L 7.328125 68.5 
Q 12.546875 71.296875 17.84375 72.75 
Q 23.140625 74.21875 28.21875 74.21875 
Q 39.59375 74.21875 46.1875 68.703125 
Q 52.78125 63.1875 52.78125 53.71875 
Q 52.78125 43.015625 37.84375 28.125 
Q 36.671875 27 36.078125 26.421875 
L 17.671875 8.015625 
L 48.09375 8.015625 
L 48.09375 17 
L 53.8125 17 
L 53.8125 0 
L 6.78125 0 
L 6.78125 5.328125 
L 28.90625 27.390625 
Q 36.234375 34.71875 39.359375 40.84375 
Q 42.484375 46.96875 42.484375 53.71875 
Q 42.484375 61.078125 38.640625 65.234375 
Q 34.8125 69.390625 28.078125 69.390625 
Q 21.09375 69.390625 17.28125 65.921875 
Q 13.484375 62.453125 12.796875 55.515625 
z
" id="DejaVuSerif-50"/>
       </defs>
       <use xlink:href="#DejaVuSerif-50"/>
       <use x="63.623047" xlink:href="#DejaVuSerif-48"/>
       <use x="127.246094" xlink:href="#DejaVuSerif-48"/>
      </g>
     </g>
    </g>
   </g>
   <g id="matplotlib.axis_2">
    <g id="ytick_1">
     <g id="line2d_6">
      <defs>
       <path d="M 0 0 
L -3.5 0 
" id="mdffe9e5d5a" style="stroke:#000000;stroke-width:0.8;"/>
      </defs>
      <g>
       <use style="stroke:#000000;stroke-width:0.8;" x="103.104" xlink:href="#mdffe9e5d5a" y="306.920703"/>
      </g>
     </g>
     <g id="text_6">
      <!-- 0 -->
      <g transform="translate(89.7415 310.719922)scale(0.1 -0.1)">
       <use xlink:href="#DejaVuSerif-48"/>
      </g>
     </g>
    </g>
    <g id="ytick_2">
     <g id="line2d_7">
      <g>
       <use style="stroke:#000000;stroke-width:0.8;" x="103.104" xlink:href="#mdffe9e5d5a" y="273.755866"/>
      </g>
     </g>
     <g id="text_7">
      <!-- 25 -->
      <g transform="translate(83.379 277.555085)scale(0.1 -0.1)">
       <use xlink:href="#DejaVuSerif-50"/>
       <use x="63.623047" xlink:href="#DejaVuSerif-53"/>
      </g>
     </g>
    </g>
    <g id="ytick_3">
     <g id="line2d_8">
      <g>
       <use style="stroke:#000000;stroke-width:0.8;" x="103.104" xlink:href="#mdffe9e5d5a" y="240.591029"/>
      </g>
     </g>
     <g id="text_8">
      <!-- 50 -->
      <g transform="translate(83.379 244.390248)scale(0.1 -0.1)">
       <use xlink:href="#DejaVuSerif-53"/>
       <use x="63.623047" xlink:href="#DejaVuSerif-48"/>
      </g>
     </g>
    </g>
    <g id="ytick_4">
     <g id="line2d_9">
      <g>
       <use style="stroke:#000000;stroke-width:0.8;" x="103.104" xlink:href="#mdffe9e5d5a" y="207.426192"/>
      </g>
     </g>
     <g id="text_9">
      <!-- 75 -->
      <g transform="translate(83.379 211.225411)scale(0.1 -0.1)">
       <defs>
        <path d="M 56.390625 67.921875 
L 27.875 0 
L 20.609375 0 
L 47.796875 64.890625 
L 14.109375 64.890625 
L 14.109375 55.90625 
L 8.40625 55.90625 
L 8.40625 72.90625 
L 56.390625 72.90625 
z
" id="DejaVuSerif-55"/>
       </defs>
       <use xlink:href="#DejaVuSerif-55"/>
       <use x="63.623047" xlink:href="#DejaVuSerif-53"/>
      </g>
     </g>
    </g>
    <g id="ytick_5">
     <g id="line2d_10">
      <g>
       <use style="stroke:#000000;stroke-width:0.8;" x="103.104" xlink:href="#mdffe9e5d5a" y="174.261355"/>
      </g>
     </g>
     <g id="text_10">
      <!-- 100 -->
      <g transform="translate(77.0165 178.060573)scale(0.1 -0.1)">
       <use xlink:href="#DejaVuSerif-49"/>
       <use x="63.623047" xlink:href="#DejaVuSerif-48"/>
       <use x="127.246094" xlink:href="#DejaVuSerif-48"/>
      </g>
     </g>
    </g>
    <g id="ytick_6">
     <g id="line2d_11">
      <g>
       <use style="stroke:#000000;stroke-width:0.8;" x="103.104" xlink:href="#mdffe9e5d5a" y="141.096518"/>
      </g>
     </g>
     <g id="text_11">
      <!-- 125 -->
      <g transform="translate(77.0165 144.895736)scale(0.1 -0.1)">
       <use xlink:href="#DejaVuSerif-49"/>
       <use x="63.623047" xlink:href="#DejaVuSerif-50"/>
       <use x="127.246094" xlink:href="#DejaVuSerif-53"/>
      </g>
     </g>
    </g>
    <g id="ytick_7">
     <g id="line2d_12">
      <g>
       <use style="stroke:#000000;stroke-width:0.8;" x="103.104" xlink:href="#mdffe9e5d5a" y="107.93168"/>
      </g>
     </g>
     <g id="text_12">
      <!-- 150 -->
      <g transform="translate(77.0165 111.730899)scale(0.1 -0.1)">
       <use xlink:href="#DejaVuSerif-49"/>
       <use x="63.623047" xlink:href="#DejaVuSerif-53"/>
       <use x="127.246094" xlink:href="#DejaVuSerif-48"/>
      </g>
     </g>
    </g>
    <g id="ytick_8">
     <g id="line2d_13">
      <g>
       <use style="stroke:#000000;stroke-width:0.8;" x="103.104" xlink:href="#mdffe9e5d5a" y="74.766843"/>
      </g>
     </g>
     <g id="text_13">
      <!-- 175 -->
      <g transform="translate(77.0165 78.566062)scale(0.1 -0.1)">
       <use xlink:href="#DejaVuSerif-49"/>
       <use x="63.623047" xlink:href="#DejaVuSerif-55"/>
       <use x="127.246094" xlink:href="#DejaVuSerif-53"/>
      </g>
     </g>
    </g>
    <g id="ytick_9">
     <g id="line2d_14">
      <g>
       <use style="stroke:#000000;stroke-width:0.8;" x="103.104" xlink:href="#mdffe9e5d5a" y="41.602006"/>
      </g>
     </g>
     <g id="text_14">
      <!-- 200 -->
      <g transform="translate(77.0165 45.401225)scale(0.1 -0.1)">
       <use xlink:href="#DejaVuSerif-50"/>
       <use x="63.623047" xlink:href="#DejaVuSerif-48"/>
       <use x="127.246094" xlink:href="#DejaVuSerif-48"/>
      </g>
     </g>
    </g>
   </g>
   <g id="LineCollection_1">
    <path clip-path="url(#pb6fe7efa62)" d="M 210.044983 206.839697 
L 269.856865 206.839697 
L 270.069968 206.626595 
L 270.069968 140.831135 
L 269.856865 140.618032 
L 204.061405 140.618032 
L 203.848303 140.831135 
L 203.848303 201.813153 
L 203.848303 201.813153 
" style="fill:none;stroke:#440154;stroke-width:3;"/>
   </g>
   <g id="LineCollection_2">
    <path clip-path="url(#pb6fe7efa62)" d="M 245.844143 226.758735 
L 265.861189 226.670165 
L 266.926703 226.633873 
L 267.35548 226.604973 
L 267.459459 225.524713 
L 271.188757 225.416445 
L 271.721514 225.337553 
L 272.693545 225.273081 
L 272.787027 224.177598 
L 275.184432 224.075671 
L 275.450811 223.942394 
L 276.518461 223.941189 
L 276.518461 222.875676 
L 276.782703 222.739448 
L 277.848216 222.739448 
L 278.048392 222.609297 
L 278.114595 221.502212 
L 279.180108 221.502212 
L 279.446486 221.307995 
L 280.549388 221.277405 
L 280.549388 220.211892 
L 280.778378 220.020751 
L 281.92434 219.945514 
L 281.92434 218.88 
L 282.11027 218.69407 
L 283.251022 218.613622 
L 283.251022 217.548108 
L 283.442162 217.319118 
L 284.538265 217.28173 
L 284.538265 216.216216 
L 284.732483 215.949838 
L 284.774054 214.818121 
L 285.839568 214.818121 
L 285.969718 214.617946 
L 285.969718 213.552432 
L 286.105946 213.28819 
L 287.172664 213.286054 
L 287.172664 212.220541 
L 287.305941 211.954162 
L 287.407868 209.556757 
L 287.437838 209.463275 
L 288.503351 209.463275 
L 288.567824 209.024 
L 288.646715 206.892973 
L 288.70761 206.360216 
L 288.76973 204.12521 
L 289.835243 204.12521 
L 289.864144 203.430054 
L 289.970899 196.504216 
L 289.986643 191.709405 
L 289.900435 144.826811 
L 289.864144 143.761297 
L 289.835243 143.33252 
L 288.754983 143.228541 
L 288.646715 139.499243 
L 288.567824 138.966486 
L 288.503351 137.994455 
L 287.407868 137.900973 
L 287.305941 135.503568 
L 287.172664 135.237189 
L 287.171459 134.169539 
L 286.105946 134.169539 
L 285.969718 133.905297 
L 285.969718 132.839784 
L 285.839568 132.639608 
L 284.732483 132.573405 
L 284.732483 131.507892 
L 284.538265 131.241514 
L 284.507676 130.138612 
L 283.442162 130.138612 
L 283.251022 129.909622 
L 283.175784 128.76366 
L 282.11027 128.76366 
L 281.92434 128.57773 
L 281.843892 127.436978 
L 280.778378 127.436978 
L 280.549388 127.245838 
L 280.512 126.149735 
L 279.446486 126.149735 
L 279.180108 125.955517 
L 278.048392 125.913946 
L 278.048392 124.848432 
L 277.848216 124.718282 
L 276.782703 124.718282 
L 276.518461 124.582054 
L 276.516324 123.515336 
L 275.450811 123.515336 
L 275.184432 123.382059 
L 272.787027 123.280132 
L 272.693545 123.250162 
L 272.693545 122.184649 
L 272.25427 122.120176 
L 270.123243 122.041285 
L 269.590486 121.98039 
L 267.35548 121.91827 
L 267.35548 120.852757 
L 266.660324 120.823856 
L 259.734486 120.717101 
L 254.939676 120.701357 
L 208.057081 120.787565 
L 206.991568 120.823856 
L 206.56279 120.852757 
L 206.458811 121.933017 
L 202.729514 122.041285 
L 202.196757 122.120176 
L 201.224725 122.184649 
L 201.131243 123.280132 
L 198.733838 123.382059 
L 198.467459 123.515336 
L 197.39981 123.516541 
L 197.39981 124.582054 
L 197.135568 124.718282 
L 196.070054 124.718282 
L 195.869879 124.848432 
L 195.803676 125.955517 
L 194.738162 125.955517 
L 194.471784 126.149735 
L 193.368882 126.180324 
L 193.368882 127.245838 
L 193.139892 127.436978 
L 191.99393 127.512216 
L 191.99393 128.57773 
L 191.808 128.76366 
L 190.667249 128.844108 
L 190.667249 129.909622 
L 190.476108 130.138612 
L 189.380005 130.176 
L 189.380005 131.241514 
L 189.185788 131.507892 
L 189.144216 132.639608 
L 188.078703 132.639608 
L 187.948552 132.839784 
L 187.948552 133.905297 
L 187.812324 134.169539 
L 186.745606 134.171676 
L 186.745606 135.237189 
L 186.612329 135.503568 
L 186.510402 137.900973 
L 186.480432 137.994455 
L 185.414919 137.994455 
L 185.350447 138.43373 
L 185.271555 140.564757 
L 185.210661 141.097514 
L 185.148541 143.33252 
L 184.083027 143.33252 
L 184.054127 144.027676 
L 183.947371 150.953514 
L 183.931628 155.748324 
L 184.017835 202.630919 
L 184.054127 203.696432 
L 184.083027 204.12521 
L 185.163287 204.229189 
L 185.271555 207.958486 
L 185.350447 208.491243 
L 185.414919 209.463275 
L 186.510402 209.556757 
L 186.612329 211.954162 
L 186.745606 212.220541 
L 186.746811 213.28819 
L 187.812324 213.28819 
L 187.948552 213.552432 
L 187.948552 214.617946 
L 188.078703 214.818121 
L 189.185788 214.884324 
L 189.185788 215.949838 
L 189.380005 216.216216 
L 189.410595 217.319118 
L 190.476108 217.319118 
L 190.667249 217.548108 
L 190.742486 218.69407 
L 191.808 218.69407 
L 191.99393 218.88 
L 192.074378 220.020751 
L 193.139892 220.020751 
L 193.368882 220.211892 
L 193.40627 221.307995 
L 194.471784 221.307995 
L 194.738162 221.502212 
L 195.869879 221.543784 
L 195.869879 222.609297 
L 196.070054 222.739448 
L 197.135568 222.739448 
L 197.39981 222.875676 
L 197.401946 223.942394 
L 198.467459 223.942394 
L 198.733838 224.075671 
L 201.131243 224.177598 
L 201.224725 224.207568 
L 201.224725 225.273081 
L 201.664 225.337553 
L 203.795027 225.416445 
L 204.327784 225.477339 
L 206.56279 225.539459 
L 206.56279 226.604973 
L 207.257946 226.633873 
L 214.183784 226.740629 
L 218.978595 226.756372 
L 231.537046 226.758752 
L 231.537046 226.758752 
" style="fill:none;stroke:#440154;stroke-width:3;"/>
   </g>
   <g id="LineCollection_3">
    <path clip-path="url(#pb6fe7efa62)" d="M 229.406019 242.76172 
L 209.388973 242.661235 
L 207.790703 242.609735 
L 206.540016 242.587676 
L 206.458811 241.509377 
L 202.729514 241.410609 
L 201.930378 241.355778 
L 199.888449 241.255784 
L 199.799351 240.163583 
L 197.401946 240.07847 
L 196.869189 239.993026 
L 195.86037 239.923892 
L 195.803676 238.835318 
L 194.738162 238.835318 
L 194.205405 238.721456 
L 192.074378 238.611372 
L 192.030694 238.592 
L 192.030694 237.526486 
L 191.808 237.410205 
L 190.742486 237.410205 
L 190.476108 237.27695 
L 189.37903 237.260108 
L 189.37903 236.194595 
L 189.144216 236.050874 
L 188.078703 236.050874 
L 187.87096 235.928216 
L 187.812324 234.823183 
L 186.746811 234.823183 
L 186.480432 234.640846 
L 185.351437 234.596324 
L 185.351437 233.530811 
L 185.148541 233.373851 
L 183.941912 233.264432 
L 183.941912 232.198919 
L 183.816649 232.093192 
L 182.751135 232.093192 
L 182.563922 231.932541 
L 182.484757 230.794263 
L 181.419243 230.794263 
L 181.215486 230.600649 
L 181.152865 229.472514 
L 180.087351 229.472514 
L 179.893737 229.268757 
L 179.820973 228.124078 
L 178.755459 228.124078 
L 178.594808 227.936865 
L 178.489081 226.746088 
L 177.423568 226.746088 
L 177.314149 226.604973 
L 177.314149 225.539459 
L 177.157189 225.336563 
L 176.047154 225.273081 
L 176.047154 224.207568 
L 175.864817 223.941189 
L 175.825297 222.81704 
L 174.759784 222.81704 
L 174.637126 222.609297 
L 174.637126 221.543784 
L 174.493405 221.30897 
L 173.41105 221.277405 
L 173.41105 220.211892 
L 173.277795 219.945514 
L 173.277795 218.88 
L 173.161514 218.657306 
L 172.076628 218.613622 
L 171.966544 216.216216 
L 171.852682 215.683459 
L 171.829622 214.82763 
L 170.764108 214.82763 
L 170.694974 214.351568 
L 170.60953 212.220541 
L 170.524417 211.687784 
L 170.49773 210.799551 
L 169.432216 210.799551 
L 169.390397 210.355892 
L 169.332222 208.224865 
L 169.277391 207.42573 
L 169.178623 204.229189 
L 169.165838 204.147984 
L 168.100324 204.147984 
L 168.078265 203.163676 
L 167.974776 196.504216 
L 167.946452 193.574054 
L 168.050685 144.826811 
L 168.100324 143.309746 
L 169.178623 143.228541 
L 169.277391 139.499243 
L 169.332222 138.700108 
L 169.432216 136.658178 
L 170.524417 136.569081 
L 170.60953 134.171676 
L 170.694974 133.638919 
L 170.764108 132.630099 
L 171.852682 132.573405 
L 171.852682 131.507892 
L 171.966544 130.975135 
L 172.076628 128.844108 
L 172.096 128.800424 
L 173.161514 128.800424 
L 173.277795 128.57773 
L 173.277795 127.512216 
L 173.41105 127.245838 
L 173.427892 126.14876 
L 174.493405 126.14876 
L 174.637126 125.913946 
L 174.637126 124.848432 
L 174.759784 124.640689 
L 175.864817 124.582054 
L 175.864817 123.516541 
L 176.047154 123.250162 
L 176.091676 122.121167 
L 177.157189 122.121167 
L 177.314149 121.91827 
L 177.423568 120.711642 
L 178.489081 120.711642 
L 178.594808 120.586378 
L 178.594808 119.520865 
L 178.755459 119.333652 
L 179.893737 119.254486 
L 179.893737 118.188973 
L 180.087351 117.985215 
L 181.215486 117.922595 
L 181.215486 116.857081 
L 181.419243 116.663467 
L 182.563922 116.590703 
L 182.563922 115.525189 
L 182.751135 115.364538 
L 183.941912 115.258811 
L 183.941912 114.193297 
L 184.083027 114.083879 
L 185.148541 114.083879 
L 185.351437 113.926919 
L 185.414919 112.816883 
L 186.480432 112.816883 
L 186.746811 112.634547 
L 187.87096 112.595027 
L 187.87096 111.529514 
L 188.078703 111.406856 
L 189.144216 111.406856 
L 189.37903 111.263135 
L 189.410595 110.180779 
L 190.476108 110.180779 
L 190.742486 110.047525 
L 191.808 110.047525 
L 192.030694 109.931243 
L 192.074378 108.846358 
L 194.471784 108.736273 
L 195.004541 108.622412 
L 195.86037 108.599351 
L 195.86037 107.533838 
L 196.336432 107.464704 
L 198.467459 107.37926 
L 199.000216 107.294147 
L 199.888449 107.267459 
L 199.888449 106.201946 
L 200.332108 106.160127 
L 202.463135 106.101952 
L 203.26227 106.047121 
L 206.458811 105.948353 
L 206.540016 105.935568 
L 206.540016 104.870054 
L 207.524324 104.847994 
L 214.183784 104.744506 
L 217.113946 104.716181 
L 265.861189 104.820415 
L 267.378254 104.870054 
L 267.459459 105.948353 
L 271.188757 106.047121 
L 271.987892 106.101952 
L 274.029822 106.201946 
L 274.118919 107.294147 
L 276.516324 107.37926 
L 277.049081 107.464704 
L 278.057901 107.533838 
L 278.114595 108.622412 
L 279.180108 108.622412 
L 279.712865 108.736273 
L 281.843892 108.846358 
L 281.887576 108.86573 
L 281.887576 109.931243 
L 282.11027 110.047525 
L 283.175784 110.047525 
L 283.442162 110.180779 
L 284.53924 110.197622 
L 284.53924 111.263135 
L 284.774054 111.406856 
L 285.839568 111.406856 
L 286.047311 111.529514 
L 286.105946 112.634547 
L 287.171459 112.634547 
L 287.437838 112.816883 
L 288.566833 112.861405 
L 288.566833 113.926919 
L 288.76973 114.083879 
L 289.976358 114.193297 
L 289.976358 115.258811 
L 290.101622 115.364538 
L 291.167135 115.364538 
L 291.354348 115.525189 
L 291.433514 116.663467 
L 292.499027 116.663467 
L 292.702785 116.857081 
L 292.765405 117.985215 
L 293.830919 117.985215 
L 294.024533 118.188973 
L 294.097297 119.333652 
L 295.162811 119.333652 
L 295.323462 119.520865 
L 295.429189 120.711642 
L 296.494703 120.711642 
L 296.604121 120.852757 
L 296.604121 121.91827 
L 296.761081 122.121167 
L 297.871117 122.184649 
L 297.871117 123.250162 
L 298.053453 123.516541 
L 298.092973 124.640689 
L 299.158486 124.640689 
L 299.281144 124.848432 
L 299.281144 125.913946 
L 299.424865 126.14876 
L 300.507221 126.180324 
L 300.507221 127.245838 
L 300.640475 127.512216 
L 300.640475 128.57773 
L 300.756757 128.800424 
L 301.841642 128.844108 
L 301.951727 131.241514 
L 302.065588 131.77427 
L 302.088649 132.630099 
L 303.154162 132.630099 
L 303.223296 133.106162 
L 303.30874 135.237189 
L 303.393853 135.769946 
L 303.420541 136.658178 
L 304.486054 136.658178 
L 304.527873 137.101838 
L 304.586048 139.232865 
L 304.640879 140.032 
L 304.739647 143.228541 
L 304.752432 143.309746 
L 305.817946 143.309746 
L 305.840006 144.294054 
L 305.943494 150.953514 
L 305.971819 153.883676 
L 305.867585 202.630919 
L 305.817946 204.147984 
L 304.739647 204.229189 
L 304.640879 207.958486 
L 304.586048 208.757622 
L 304.486054 210.799551 
L 303.393853 210.888649 
L 303.30874 213.286054 
L 303.223296 213.818811 
L 303.154162 214.82763 
L 302.065588 214.884324 
L 302.065588 215.949838 
L 301.951727 216.482595 
L 301.841642 218.613622 
L 301.82227 218.657306 
L 300.756757 218.657306 
L 300.640475 218.88 
L 300.640475 219.945514 
L 300.507221 220.211892 
L 300.490378 221.30897 
L 299.424865 221.30897 
L 299.281144 221.543784 
L 299.281144 222.609297 
L 299.158486 222.81704 
L 298.053453 222.875676 
L 298.053453 223.941189 
L 297.871117 224.207568 
L 297.826595 225.336563 
L 296.761081 225.336563 
L 296.604121 225.539459 
L 296.494703 226.746088 
L 295.429189 226.746088 
L 295.323462 226.871351 
L 295.323462 227.936865 
L 295.162811 228.124078 
L 294.024533 228.203243 
L 294.024533 229.268757 
L 293.830919 229.472514 
L 292.702785 229.535135 
L 292.702785 230.600649 
L 292.499027 230.794263 
L 291.354348 230.867027 
L 291.354348 231.932541 
L 291.167135 232.093192 
L 289.976358 232.198919 
L 289.976358 233.264432 
L 289.835243 233.373851 
L 288.76973 233.373851 
L 288.566833 233.530811 
L 288.503351 234.640846 
L 287.437838 234.640846 
L 287.171459 234.823183 
L 286.047311 234.862703 
L 286.047311 235.928216 
L 285.839568 236.050874 
L 284.774054 236.050874 
L 284.53924 236.194595 
L 284.507676 237.27695 
L 283.442162 237.27695 
L 283.175784 237.410205 
L 282.11027 237.410205 
L 281.887576 237.526486 
L 281.843892 238.611372 
L 279.446486 238.721456 
L 278.91373 238.835318 
L 278.057901 238.858378 
L 278.057901 239.923892 
L 277.581838 239.993026 
L 275.450811 240.07847 
L 274.918054 240.163583 
L 274.029822 240.19027 
L 274.029822 241.255784 
L 273.586162 241.297603 
L 271.455135 241.355778 
L 270.656 241.410609 
L 267.459459 241.509377 
L 267.378254 241.522162 
L 267.378254 242.587676 
L 266.393946 242.609735 
L 259.734486 242.713224 
L 256.804324 242.741548 
L 243.713116 242.761755 
L 243.713116 242.761755 
" style="fill:none;stroke:#440154;stroke-width:3;"/>
   </g>
   <g id="patch_3">
    <path d="M 103.104 307.584 
L 103.104 41.472 
" style="fill:none;stroke:#000000;stroke-linecap:square;stroke-linejoin:miter;stroke-width:0.8;"/>
   </g>
   <g id="patch_4">
    <path d="M 369.216 307.584 
L 369.216 41.472 
" style="fill:none;stroke:#000000;stroke-linecap:square;stroke-linejoin:miter;stroke-width:0.8;"/>
   </g>
   <g id="patch_5">
    <path d="M 103.104 307.584 
L 369.216 307.584 
" style="fill:none;stroke:#000000;stroke-linecap:square;stroke-linejoin:miter;stroke-width:0.8;"/>
   </g>
   <g id="patch_6">
    <path d="M 103.104 41.472 
L 369.216 41.472 
" style="fill:none;stroke:#000000;stroke-linecap:square;stroke-linejoin:miter;stroke-width:0.8;"/>
   </g>
   <g id="text_15">
    <g clip-path="url(#pb6fe7efa62)">
     <!-- 0 -->
     <g style="fill:#440154;" transform="translate(201.282985 208.559778)rotate(-343.169584)scale(0.1 -0.1)">
      <use xlink:href="#DejaVuSerif-48"/>
     </g>
    </g>
   </g>
   <g id="text_16">
    <g clip-path="url(#pb6fe7efa62)">
     <!-- 12 -->
     <g style="fill:#440154;" transform="translate(232.328095 229.518132)rotate(-0.000016)scale(0.1 -0.1)">
      <use xlink:href="#DejaVuSerif-49"/>
      <use x="63.623047" xlink:href="#DejaVuSerif-50"/>
     </g>
    </g>
   </g>
   <g id="text_17">
    <g clip-path="url(#pb6fe7efa62)">
     <!-- 24 -->
     <g style="fill:#440154;" transform="translate(230.197063 245.521651)rotate(-359.999903)scale(0.1 -0.1)">
      <defs>
       <path d="M 34.90625 24.703125 
L 34.90625 63.484375 
L 10.015625 24.703125 
z
M 56.390625 0 
L 23.1875 0 
L 23.1875 5.171875 
L 34.90625 5.171875 
L 34.90625 19.484375 
L 3.078125 19.484375 
L 3.078125 24.8125 
L 35.015625 74.21875 
L 44.671875 74.21875 
L 44.671875 24.703125 
L 58.59375 24.703125 
L 58.59375 19.484375 
L 44.671875 19.484375 
L 44.671875 5.171875 
L 56.390625 5.171875 
z
" id="DejaVuSerif-52"/>
      </defs>
      <use xlink:href="#DejaVuSerif-50"/>
      <use x="63.623047" xlink:href="#DejaVuSerif-52"/>
     </g>
    </g>
   </g>
  </g>
 </g>
 <defs>
  <clipPath id="pb6fe7efa62">
   <rect height="266.112" width="266.112" x="103.104" y="41.472"/>
  </clipPath>
 </defs>
</svg>
