<?xml version="1.0" encoding="utf-8" standalone="no"?>
<!DOCTYPE svg PUBLIC "-//W3C//DTD SVG 1.1//EN"
  "http://www.w3.org/Graphics/SVG/1.1/DTD/svg11.dtd">
<!-- Created with matplotlib (https://matplotlib.org/) -->
<svg height="345.6pt" version="1.1" viewBox="0 0 460.8 345.6" width="460.8pt" xmlns="http://www.w3.org/2000/svg" xmlns:xlink="http://www.w3.org/1999/xlink">
 <metadata>
  <rdf:RDF xmlns:cc="http://creativecommons.org/ns#" xmlns:dc="http://purl.org/dc/elements/1.1/" xmlns:rdf="http://www.w3.org/1999/02/22-rdf-syntax-ns#">
   <cc:Work>
    <dc:type rdf:resource="http://purl.org/dc/dcmitype/StillImage"/>
    <dc:date>2022-10-13T14:24:16.910304</dc:date>
    <dc:format>image/svg+xml</dc:format>
    <dc:creator>
     <cc:Agent>
      <dc:title>Matplotlib v3.3.4, https://matplotlib.org/</dc:title>
     </cc:Agent>
    </dc:creator>
   </cc:Work>
  </rdf:RDF>
 </metadata>
 <defs>
  <style type="text/css">*{stroke-linecap:butt;stroke-linejoin:round;}</style>
 </defs>
 <g id="figure_1">
  <g id="patch_1">
   <path d="M 0 345.6 
L 460.8 345.6 
L 460.8 0 
L 0 0 
z
" style="fill:#ffffff;"/>
  </g>
  <g id="axes_1">
   <g id="patch_2">
    <path d="M 103.104 307.584 
L 369.216 307.584 
L 369.216 41.472 
L 103.104 41.472 
z
" style="fill:#ffffff;"/>
   </g>
   <g id="matplotlib.axis_1">
    <g id="xtick_1">
     <g id="line2d_1">
      <defs>
       <path d="M 0 0 
L 0 3.5 
" id="m4a83c6f5b2" style="stroke:#000000;stroke-width:0.8;"/>
      </defs>
      <g>
       <use style="stroke:#000000;stroke-width:0.8;" x="103.767297" xlink:href="#m4a83c6f5b2" y="307.584"/>
      </g>
     </g>
     <g id="text_1">
      <!-- 0 -->
      <g transform="translate(100.586047 322.182437)scale(0.1 -0.1)">
       <defs>
        <path d="M 31.78125 3.421875 
Q 39.265625 3.421875 42.96875 11.625 
Q 46.6875 19.828125 46.6875 36.375 
Q 46.6875 52.984375 42.96875 61.1875 
Q 39.265625 69.390625 31.78125 69.390625 
Q 24.3125 69.390625 20.59375 61.1875 
Q 16.890625 52.984375 16.890625 36.375 
Q 16.890625 19.828125 20.59375 11.625 
Q 24.3125 3.421875 31.78125 3.421875 
z
M 31.78125 -1.421875 
Q 19.921875 -1.421875 13.25 8.53125 
Q 6.59375 18.5 6.59375 36.375 
Q 6.59375 54.296875 13.25 64.25 
Q 19.921875 74.21875 31.78125 74.21875 
Q 43.703125 74.21875 50.34375 64.25 
Q 56.984375 54.296875 56.984375 36.375 
Q 56.984375 18.5 50.34375 8.53125 
Q 43.703125 -1.421875 31.78125 -1.421875 
z
" id="DejaVuSerif-48"/>
       </defs>
       <use xlink:href="#DejaVuSerif-48"/>
      </g>
     </g>
    </g>
    <g id="xtick_2">
     <g id="line2d_2">
      <g>
       <use style="stroke:#000000;stroke-width:0.8;" x="170.096971" xlink:href="#m4a83c6f5b2" y="307.584"/>
      </g>
     </g>
     <g id="text_2">
      <!-- 50 -->
      <g transform="translate(163.734471 322.182437)scale(0.1 -0.1)">
       <defs>
        <path d="M 50.296875 72.90625 
L 50.296875 64.890625 
L 16.890625 64.890625 
L 16.890625 44 
Q 19.4375 45.75 22.828125 46.625 
Q 26.21875 47.515625 30.421875 47.515625 
Q 42.234375 47.515625 49.0625 40.96875 
Q 55.90625 34.421875 55.90625 23.09375 
Q 55.90625 11.53125 49 5.046875 
Q 42.09375 -1.421875 29.59375 -1.421875 
Q 24.5625 -1.421875 19.28125 -0.1875 
Q 14.015625 1.03125 8.5 3.515625 
L 8.5 17.671875 
L 14.015625 17.671875 
Q 14.453125 10.75 18.421875 7.078125 
Q 22.40625 3.421875 29.59375 3.421875 
Q 37.3125 3.421875 41.453125 8.5 
Q 45.609375 13.578125 45.609375 23.09375 
Q 45.609375 32.5625 41.484375 37.609375 
Q 37.359375 42.671875 29.59375 42.671875 
Q 25.203125 42.671875 21.84375 41.109375 
Q 18.5 39.546875 15.921875 36.28125 
L 11.71875 36.28125 
L 11.71875 72.90625 
z
" id="DejaVuSerif-53"/>
       </defs>
       <use xlink:href="#DejaVuSerif-53"/>
       <use x="63.623047" xlink:href="#DejaVuSerif-48"/>
      </g>
     </g>
    </g>
    <g id="xtick_3">
     <g id="line2d_3">
      <g>
       <use style="stroke:#000000;stroke-width:0.8;" x="236.426645" xlink:href="#m4a83c6f5b2" y="307.584"/>
      </g>
     </g>
     <g id="text_3">
      <!-- 100 -->
      <g transform="translate(226.882895 322.182437)scale(0.1 -0.1)">
       <defs>
        <path d="M 14.203125 0 
L 14.203125 5.171875 
L 26.90625 5.171875 
L 26.90625 65.828125 
L 12.203125 56.296875 
L 12.203125 62.703125 
L 29.984375 74.21875 
L 36.71875 74.21875 
L 36.71875 5.171875 
L 49.421875 5.171875 
L 49.421875 0 
z
" id="DejaVuSerif-49"/>
       </defs>
       <use xlink:href="#DejaVuSerif-49"/>
       <use x="63.623047" xlink:href="#DejaVuSerif-48"/>
       <use x="127.246094" xlink:href="#DejaVuSerif-48"/>
      </g>
     </g>
    </g>
    <g id="xtick_4">
     <g id="line2d_4">
      <g>
       <use style="stroke:#000000;stroke-width:0.8;" x="302.75632" xlink:href="#m4a83c6f5b2" y="307.584"/>
      </g>
     </g>
     <g id="text_4">
      <!-- 150 -->
      <g transform="translate(293.21257 322.182437)scale(0.1 -0.1)">
       <use xlink:href="#DejaVuSerif-49"/>
       <use x="63.623047" xlink:href="#DejaVuSerif-53"/>
       <use x="127.246094" xlink:href="#DejaVuSerif-48"/>
      </g>
     </g>
    </g>
    <g id="xtick_5">
     <g id="line2d_5">
      <g>
       <use style="stroke:#000000;stroke-width:0.8;" x="369.085994" xlink:href="#m4a83c6f5b2" y="307.584"/>
      </g>
     </g>
     <g id="text_5">
      <!-- 200 -->
      <g transform="translate(359.542244 322.182437)scale(0.1 -0.1)">
       <defs>
        <path d="M 12.796875 55.515625 
L 7.328125 55.515625 
L 7.328125 68.5 
Q 12.546875 71.296875 17.84375 72.75 
Q 23.140625 74.21875 28.21875 74.21875 
Q 39.59375 74.21875 46.1875 68.703125 
Q 52.78125 63.1875 52.78125 53.71875 
Q 52.78125 43.015625 37.84375 28.125 
Q 36.671875 27 36.078125 26.421875 
L 17.671875 8.015625 
L 48.09375 8.015625 
L 48.09375 17 
L 53.8125 17 
L 53.8125 0 
L 6.78125 0 
L 6.78125 5.328125 
L 28.90625 27.390625 
Q 36.234375 34.71875 39.359375 40.84375 
Q 42.484375 46.96875 42.484375 53.71875 
Q 42.484375 61.078125 38.640625 65.234375 
Q 34.8125 69.390625 28.078125 69.390625 
Q 21.09375 69.390625 17.28125 65.921875 
Q 13.484375 62.453125 12.796875 55.515625 
z
" id="DejaVuSerif-50"/>
       </defs>
       <use xlink:href="#DejaVuSerif-50"/>
       <use x="63.623047" xlink:href="#DejaVuSerif-48"/>
       <use x="127.246094" xlink:href="#DejaVuSerif-48"/>
      </g>
     </g>
    </g>
   </g>
   <g id="matplotlib.axis_2">
    <g id="ytick_1">
     <g id="line2d_6">
      <defs>
       <path d="M 0 0 
L -3.5 0 
" id="m0dfcde937c" style="stroke:#000000;stroke-width:0.8;"/>
      </defs>
      <g>
       <use style="stroke:#000000;stroke-width:0.8;" x="103.104" xlink:href="#m0dfcde937c" y="306.920703"/>
      </g>
     </g>
     <g id="text_6">
      <!-- 0 -->
      <g transform="translate(89.7415 310.719922)scale(0.1 -0.1)">
       <use xlink:href="#DejaVuSerif-48"/>
      </g>
     </g>
    </g>
    <g id="ytick_2">
     <g id="line2d_7">
      <g>
       <use style="stroke:#000000;stroke-width:0.8;" x="103.104" xlink:href="#m0dfcde937c" y="273.755866"/>
      </g>
     </g>
     <g id="text_7">
      <!-- 25 -->
      <g transform="translate(83.379 277.555085)scale(0.1 -0.1)">
       <use xlink:href="#DejaVuSerif-50"/>
       <use x="63.623047" xlink:href="#DejaVuSerif-53"/>
      </g>
     </g>
    </g>
    <g id="ytick_3">
     <g id="line2d_8">
      <g>
       <use style="stroke:#000000;stroke-width:0.8;" x="103.104" xlink:href="#m0dfcde937c" y="240.591029"/>
      </g>
     </g>
     <g id="text_8">
      <!-- 50 -->
      <g transform="translate(83.379 244.390248)scale(0.1 -0.1)">
       <use xlink:href="#DejaVuSerif-53"/>
       <use x="63.623047" xlink:href="#DejaVuSerif-48"/>
      </g>
     </g>
    </g>
    <g id="ytick_4">
     <g id="line2d_9">
      <g>
       <use style="stroke:#000000;stroke-width:0.8;" x="103.104" xlink:href="#m0dfcde937c" y="207.426192"/>
      </g>
     </g>
     <g id="text_9">
      <!-- 75 -->
      <g transform="translate(83.379 211.225411)scale(0.1 -0.1)">
       <defs>
        <path d="M 56.390625 67.921875 
L 27.875 0 
L 20.609375 0 
L 47.796875 64.890625 
L 14.109375 64.890625 
L 14.109375 55.90625 
L 8.40625 55.90625 
L 8.40625 72.90625 
L 56.390625 72.90625 
z
" id="DejaVuSerif-55"/>
       </defs>
       <use xlink:href="#DejaVuSerif-55"/>
       <use x="63.623047" xlink:href="#DejaVuSerif-53"/>
      </g>
     </g>
    </g>
    <g id="ytick_5">
     <g id="line2d_10">
      <g>
       <use style="stroke:#000000;stroke-width:0.8;" x="103.104" xlink:href="#m0dfcde937c" y="174.261355"/>
      </g>
     </g>
     <g id="text_10">
      <!-- 100 -->
      <g transform="translate(77.0165 178.060573)scale(0.1 -0.1)">
       <use xlink:href="#DejaVuSerif-49"/>
       <use x="63.623047" xlink:href="#DejaVuSerif-48"/>
       <use x="127.246094" xlink:href="#DejaVuSerif-48"/>
      </g>
     </g>
    </g>
    <g id="ytick_6">
     <g id="line2d_11">
      <g>
       <use style="stroke:#000000;stroke-width:0.8;" x="103.104" xlink:href="#m0dfcde937c" y="141.096518"/>
      </g>
     </g>
     <g id="text_11">
      <!-- 125 -->
      <g transform="translate(77.0165 144.895736)scale(0.1 -0.1)">
       <use xlink:href="#DejaVuSerif-49"/>
       <use x="63.623047" xlink:href="#DejaVuSerif-50"/>
       <use x="127.246094" xlink:href="#DejaVuSerif-53"/>
      </g>
     </g>
    </g>
    <g id="ytick_7">
     <g id="line2d_12">
      <g>
       <use style="stroke:#000000;stroke-width:0.8;" x="103.104" xlink:href="#m0dfcde937c" y="107.93168"/>
      </g>
     </g>
     <g id="text_12">
      <!-- 150 -->
      <g transform="translate(77.0165 111.730899)scale(0.1 -0.1)">
       <use xlink:href="#DejaVuSerif-49"/>
       <use x="63.623047" xlink:href="#DejaVuSerif-53"/>
       <use x="127.246094" xlink:href="#DejaVuSerif-48"/>
      </g>
     </g>
    </g>
    <g id="ytick_8">
     <g id="line2d_13">
      <g>
       <use style="stroke:#000000;stroke-width:0.8;" x="103.104" xlink:href="#m0dfcde937c" y="74.766843"/>
      </g>
     </g>
     <g id="text_13">
      <!-- 175 -->
      <g transform="translate(77.0165 78.566062)scale(0.1 -0.1)">
       <use xlink:href="#DejaVuSerif-49"/>
       <use x="63.623047" xlink:href="#DejaVuSerif-55"/>
       <use x="127.246094" xlink:href="#DejaVuSerif-53"/>
      </g>
     </g>
    </g>
    <g id="ytick_9">
     <g id="line2d_14">
      <g>
       <use style="stroke:#000000;stroke-width:0.8;" x="103.104" xlink:href="#m0dfcde937c" y="41.602006"/>
      </g>
     </g>
     <g id="text_14">
      <!-- 200 -->
      <g transform="translate(77.0165 45.401225)scale(0.1 -0.1)">
       <use xlink:href="#DejaVuSerif-50"/>
       <use x="63.623047" xlink:href="#DejaVuSerif-48"/>
       <use x="127.246094" xlink:href="#DejaVuSerif-48"/>
      </g>
     </g>
    </g>
   </g>
   <g id="LineCollection_1">
    <path clip-path="url(#p93a3a09b02)" d="M 210.044983 206.839697 
L 269.856865 206.839697 
L 270.069968 206.626595 
L 270.069968 140.831135 
L 269.856865 140.618032 
L 204.061405 140.618032 
L 203.848303 140.831135 
L 203.848303 201.813153 
L 203.848303 201.813153 
" style="fill:none;stroke:#440154;stroke-width:3;"/>
   </g>
   <g id="LineCollection_2">
    <path clip-path="url(#p93a3a09b02)" d="M 245.844143 226.758735 
L 265.861189 226.670165 
L 266.926703 226.633873 
L 267.35548 226.604973 
L 267.459459 225.524713 
L 271.188757 225.416445 
L 271.721514 225.337553 
L 272.693545 225.273081 
L 272.787027 224.177598 
L 275.184432 224.075671 
L 275.450811 223.942394 
L 276.518461 223.941189 
L 276.518461 222.875676 
L 276.782703 222.739448 
L 277.848216 222.739448 
L 278.048392 222.609297 
L 278.114595 221.502212 
L 279.180108 221.502212 
L 279.446486 221.307995 
L 280.549388 221.277405 
L 280.549388 220.211892 
L 280.778378 220.020751 
L 281.92434 219.945514 
L 281.92434 218.88 
L 282.11027 218.69407 
L 283.251022 218.613622 
L 283.251022 217.548108 
L 283.442162 217.319118 
L 284.538265 217.28173 
L 284.538265 216.216216 
L 284.732483 215.949838 
L 284.774054 214.818121 
L 285.839568 214.818121 
L 285.969718 214.617946 
L 285.969718 213.552432 
L 286.105946 213.28819 
L 287.172664 213.286054 
L 287.172664 212.220541 
L 287.305941 211.954162 
L 287.407868 209.556757 
L 287.437838 209.463275 
L 288.503351 209.463275 
L 288.567824 209.024 
L 288.646715 206.892973 
L 288.70761 206.360216 
L 288.76973 204.12521 
L 289.835243 204.12521 
L 289.864144 203.430054 
L 289.970899 196.504216 
L 289.986643 191.709405 
L 289.900435 144.826811 
L 289.864144 143.761297 
L 289.835243 143.33252 
L 288.754983 143.228541 
L 288.646715 139.499243 
L 288.567824 138.966486 
L 288.503351 137.994455 
L 287.407868 137.900973 
L 287.305941 135.503568 
L 287.172664 135.237189 
L 287.171459 134.169539 
L 286.105946 134.169539 
L 285.969718 133.905297 
L 285.969718 132.839784 
L 285.839568 132.639608 
L 284.732483 132.573405 
L 284.732483 131.507892 
L 284.538265 131.241514 
L 284.507676 130.138612 
L 283.442162 130.138612 
L 283.251022 129.909622 
L 283.175784 128.76366 
L 282.11027 128.76366 
L 281.92434 128.57773 
L 281.843892 127.436978 
L 280.778378 127.436978 
L 280.549388 127.245838 
L 280.512 126.149735 
L 279.446486 126.149735 
L 279.180108 125.955517 
L 278.048392 125.913946 
L 278.048392 124.848432 
L 277.848216 124.718282 
L 276.782703 124.718282 
L 276.518461 124.582054 
L 276.516324 123.515336 
L 275.450811 123.515336 
L 275.184432 123.382059 
L 272.787027 123.280132 
L 272.693545 123.250162 
L 272.693545 122.184649 
L 272.25427 122.120176 
L 270.123243 122.041285 
L 269.590486 121.98039 
L 267.35548 121.91827 
L 267.35548 120.852757 
L 266.660324 120.823856 
L 259.734486 120.717101 
L 254.939676 120.701357 
L 208.057081 120.787565 
L 206.991568 120.823856 
L 206.56279 120.852757 
L 206.458811 121.933017 
L 202.729514 122.041285 
L 202.196757 122.120176 
L 201.224725 122.184649 
L 201.131243 123.280132 
L 198.733838 123.382059 
L 198.467459 123.515336 
L 197.39981 123.516541 
L 197.39981 124.582054 
L 197.135568 124.718282 
L 196.070054 124.718282 
L 195.869879 124.848432 
L 195.803676 125.955517 
L 194.738162 125.955517 
L 194.471784 126.149735 
L 193.368882 126.180324 
L 193.368882 127.245838 
L 193.139892 127.436978 
L 191.99393 127.512216 
L 191.99393 128.57773 
L 191.808 128.76366 
L 190.667249 128.844108 
L 190.667249 129.909622 
L 190.476108 130.138612 
L 189.380005 130.176 
L 189.380005 131.241514 
L 189.185788 131.507892 
L 189.144216 132.639608 
L 188.078703 132.639608 
L 187.948552 132.839784 
L 187.948552 133.905297 
L 187.812324 134.169539 
L 186.745606 134.171676 
L 186.745606 135.237189 
L 186.612329 135.503568 
L 186.510402 137.900973 
L 186.480432 137.994455 
L 185.414919 137.994455 
L 185.350447 138.43373 
L 185.271555 140.564757 
L 185.210661 141.097514 
L 185.148541 143.33252 
L 184.083027 143.33252 
L 184.054127 144.027676 
L 183.947371 150.953514 
L 183.931628 155.748324 
L 184.017835 202.630919 
L 184.054127 203.696432 
L 184.083027 204.12521 
L 185.163287 204.229189 
L 185.271555 207.958486 
L 185.350447 208.491243 
L 185.414919 209.463275 
L 186.510402 209.556757 
L 186.612329 211.954162 
L 186.745606 212.220541 
L 186.746811 213.28819 
L 187.812324 213.28819 
L 187.948552 213.552432 
L 187.948552 214.617946 
L 188.078703 214.818121 
L 189.185788 214.884324 
L 189.185788 215.949838 
L 189.380005 216.216216 
L 189.410595 217.319118 
L 190.476108 217.319118 
L 190.667249 217.548108 
L 190.742486 218.69407 
L 191.808 218.69407 
L 191.99393 218.88 
L 192.074378 220.020751 
L 193.139892 220.020751 
L 193.368882 220.211892 
L 193.40627 221.307995 
L 194.471784 221.307995 
L 194.738162 221.502212 
L 195.869879 221.543784 
L 195.869879 222.609297 
L 196.070054 222.739448 
L 197.135568 222.739448 
L 197.39981 222.875676 
L 197.401946 223.942394 
L 198.467459 223.942394 
L 198.733838 224.075671 
L 201.131243 224.177598 
L 201.224725 224.207568 
L 201.224725 225.273081 
L 201.664 225.337553 
L 203.795027 225.416445 
L 204.327784 225.477339 
L 206.56279 225.539459 
L 206.56279 226.604973 
L 207.257946 226.633873 
L 214.183784 226.740629 
L 218.978595 226.756372 
L 231.537046 226.758752 
L 231.537046 226.758752 
" style="fill:none;stroke:#440154;stroke-width:3;"/>
   </g>
   <g id="LineCollection_3">
    <path clip-path="url(#p93a3a09b02)" d="M 242.913981 249.375357 
L 264.529297 249.274577 
L 265.863385 249.247135 
L 265.863385 248.181622 
L 267.459459 248.126889 
L 271.188757 248.049186 
L 271.987892 247.998902 
L 273.943022 247.915243 
L 273.943022 246.84973 
L 274.651676 246.812445 
L 276.516324 246.747714 
L 277.049081 246.671042 
L 278.102368 246.583351 
L 278.114595 245.514237 
L 280.512 245.42926 
L 281.044757 245.328312 
L 282.017761 245.251459 
L 282.11027 244.150105 
L 283.175784 244.150105 
L 283.708541 244.035777 
L 284.507676 244.035777 
L 284.734249 243.919568 
L 284.774054 242.83562 
L 285.839568 242.83562 
L 286.105946 242.702599 
L 287.171459 242.702599 
L 287.366433 242.587676 
L 287.437838 241.483267 
L 288.503351 241.483267 
L 288.76973 241.324149 
L 289.937095 241.255784 
L 289.937095 240.19027 
L 290.101622 240.086131 
L 291.167135 240.086131 
L 291.392283 239.923892 
L 291.433514 238.829651 
L 292.499027 238.829651 
L 292.765405 238.629659 
L 293.877331 238.592 
L 293.877331 237.526486 
L 294.097297 237.350599 
L 295.266863 237.260108 
L 295.266863 236.194595 
L 295.429189 236.05255 
L 296.494703 236.05255 
L 296.628041 235.928216 
L 296.628041 234.862703 
L 296.761081 234.735436 
L 297.826595 234.735436 
L 297.965706 234.596324 
L 297.965706 233.530811 
L 298.092973 233.397771 
L 299.158486 233.397771 
L 299.28282 233.264432 
L 299.28282 232.198919 
L 299.424865 232.036593 
L 300.58087 231.932541 
L 300.58087 230.867027 
L 300.756757 230.64706 
L 301.859929 230.600649 
L 301.859929 229.535135 
L 302.059921 229.268757 
L 302.088649 228.162013 
L 303.154162 228.162013 
L 303.316402 227.936865 
L 303.420541 226.706824 
L 304.554419 226.604973 
L 304.554419 225.539459 
L 304.713538 225.273081 
L 304.752432 224.136162 
L 305.817946 224.136162 
L 305.932869 223.941189 
L 305.932869 222.875676 
L 306.065891 222.609297 
L 306.084324 221.503978 
L 307.149838 221.503978 
L 307.266047 221.277405 
L 307.266047 220.211892 
L 307.380375 219.679135 
L 307.416216 218.78749 
L 308.48173 218.78749 
L 308.558582 218.347243 
L 308.65953 216.216216 
L 308.744507 215.683459 
L 308.748108 214.872098 
L 309.813622 214.872098 
L 309.901312 214.351568 
L 309.977984 212.220541 
L 310.042715 211.687784 
L 310.08 210.712752 
L 311.168947 210.62227 
L 311.279456 206.892973 
L 311.321655 206.093838 
L 311.411892 202.633115 
L 312.477669 202.630919 
L 312.586692 192.508541 
L 312.602711 186.381838 
L 312.504848 146.158703 
L 312.477405 144.824615 
L 311.411892 144.824615 
L 311.357159 143.228541 
L 311.279456 139.499243 
L 311.229172 138.700108 
L 311.145514 136.744978 
L 310.08 136.744978 
L 310.042715 136.036324 
L 309.977984 134.171676 
L 309.901312 133.638919 
L 309.813622 132.585632 
L 308.744507 132.573405 
L 308.65953 130.176 
L 308.558582 129.643243 
L 308.48173 128.670239 
L 307.380375 128.57773 
L 307.380375 127.512216 
L 307.266047 126.979459 
L 307.266047 126.180324 
L 307.149838 125.953751 
L 306.065891 125.913946 
L 306.065891 124.848432 
L 305.932869 124.582054 
L 305.932869 123.516541 
L 305.817946 123.321567 
L 304.713538 123.250162 
L 304.713538 122.184649 
L 304.554419 121.91827 
L 304.486054 120.750905 
L 303.420541 120.750905 
L 303.316402 120.586378 
L 303.316402 119.520865 
L 303.154162 119.295717 
L 302.059921 119.254486 
L 302.059921 118.188973 
L 301.859929 117.922595 
L 301.82227 116.810669 
L 300.756757 116.810669 
L 300.58087 116.590703 
L 300.490378 115.421137 
L 299.424865 115.421137 
L 299.28282 115.258811 
L 299.28282 114.193297 
L 299.158486 114.059959 
L 298.092973 114.059959 
L 297.965706 113.926919 
L 297.965706 112.861405 
L 297.826595 112.722294 
L 296.761081 112.722294 
L 296.628041 112.595027 
L 296.628041 111.529514 
L 296.494703 111.40518 
L 295.429189 111.40518 
L 295.266863 111.263135 
L 295.162811 110.10713 
L 294.097297 110.10713 
L 293.877331 109.931243 
L 293.830919 108.828071 
L 292.765405 108.828071 
L 292.499027 108.628079 
L 291.392283 108.599351 
L 291.392283 107.533838 
L 291.167135 107.371598 
L 289.937095 107.267459 
L 289.835243 106.133581 
L 288.76973 106.133581 
L 288.503351 105.974462 
L 287.366433 105.935568 
L 287.366433 104.870054 
L 287.171459 104.755131 
L 286.105946 104.755131 
L 285.839568 104.622109 
L 284.734249 104.603676 
L 284.734249 103.538162 
L 284.507676 103.421953 
L 283.442162 103.421953 
L 282.909405 103.307625 
L 282.017761 103.271784 
L 282.017761 102.20627 
L 281.577514 102.129418 
L 279.446486 102.02847 
L 278.91373 101.943493 
L 278.102368 101.939892 
L 278.102368 100.874378 
L 277.581838 100.786688 
L 275.450811 100.710016 
L 274.918054 100.645285 
L 273.943022 100.608 
L 273.852541 99.519053 
L 270.123243 99.408544 
L 269.324108 99.366345 
L 265.863385 99.276108 
L 265.861189 98.210331 
L 255.738811 98.101308 
L 249.612108 98.085289 
L 209.388973 98.183152 
L 208.054885 98.210595 
L 208.054885 99.276108 
L 206.458811 99.330841 
L 202.729514 99.408544 
L 201.930378 99.458828 
L 199.975248 99.542486 
L 199.975248 100.608 
L 199.266595 100.645285 
L 197.401946 100.710016 
L 196.869189 100.786688 
L 195.815902 100.874378 
L 195.803676 101.943493 
L 193.40627 102.02847 
L 192.873514 102.129418 
L 191.90051 102.20627 
L 191.808 103.307625 
L 190.742486 103.307625 
L 190.20973 103.421953 
L 189.410595 103.421953 
L 189.184022 103.538162 
L 189.144216 104.622109 
L 188.078703 104.622109 
L 187.812324 104.755131 
L 186.746811 104.755131 
L 186.551838 104.870054 
L 186.480432 105.974462 
L 185.414919 105.974462 
L 185.148541 106.133581 
L 183.981176 106.201946 
L 183.981176 107.267459 
L 183.816649 107.371598 
L 182.751135 107.371598 
L 182.525987 107.533838 
L 182.484757 108.628079 
L 181.419243 108.628079 
L 181.152865 108.828071 
L 180.04094 108.86573 
L 180.04094 109.931243 
L 179.820973 110.10713 
L 178.651407 110.197622 
L 178.651407 111.263135 
L 178.489081 111.40518 
L 177.423568 111.40518 
L 177.290229 111.529514 
L 177.290229 112.595027 
L 177.157189 112.722294 
L 176.091676 112.722294 
L 175.952564 112.861405 
L 175.952564 113.926919 
L 175.825297 114.059959 
L 174.759784 114.059959 
L 174.63545 114.193297 
L 174.63545 115.258811 
L 174.493405 115.421137 
L 173.337401 115.525189 
L 173.337401 116.590703 
L 173.161514 116.810669 
L 172.058341 116.857081 
L 172.058341 117.922595 
L 171.858349 118.188973 
L 171.829622 119.295717 
L 170.764108 119.295717 
L 170.601869 119.520865 
L 170.49773 120.750905 
L 169.363851 120.852757 
L 169.363851 121.91827 
L 169.204733 122.184649 
L 169.165838 123.321567 
L 168.100324 123.321567 
L 167.985401 123.516541 
L 167.985401 124.582054 
L 167.85238 124.848432 
L 167.833946 125.953751 
L 166.768432 125.953751 
L 166.652223 126.180324 
L 166.652223 127.245838 
L 166.537895 127.778595 
L 166.502054 128.670239 
L 165.436541 128.670239 
L 165.359688 129.110486 
L 165.25874 131.241514 
L 165.173763 131.77427 
L 165.170162 132.585632 
L 164.104649 132.585632 
L 164.016958 133.106162 
L 163.940286 135.237189 
L 163.875555 135.769946 
L 163.83827 136.744978 
L 162.749323 136.835459 
L 162.638814 140.564757 
L 162.596615 141.363892 
L 162.506378 144.824615 
L 161.440601 144.826811 
L 161.331579 154.949189 
L 161.31556 161.075892 
L 161.413423 201.299027 
L 161.440865 202.633115 
L 162.506378 202.633115 
L 162.561111 204.229189 
L 162.638814 207.958486 
L 162.689098 208.757622 
L 162.772757 210.712752 
L 163.83827 210.712752 
L 163.875555 211.421405 
L 163.940286 213.286054 
L 164.016958 213.818811 
L 164.104649 214.872098 
L 165.173763 214.884324 
L 165.25874 217.28173 
L 165.359688 217.814486 
L 165.436541 218.78749 
L 166.537895 218.88 
L 166.537895 219.945514 
L 166.652223 220.47827 
L 166.652223 221.277405 
L 166.768432 221.503978 
L 167.85238 221.543784 
L 167.85238 222.609297 
L 167.985401 222.875676 
L 167.985401 223.941189 
L 168.100324 224.136162 
L 169.204733 224.207568 
L 169.204733 225.273081 
L 169.363851 225.539459 
L 169.432216 226.706824 
L 170.49773 226.706824 
L 170.601869 226.871351 
L 170.601869 227.936865 
L 170.764108 228.162013 
L 171.858349 228.203243 
L 171.858349 229.268757 
L 172.058341 229.535135 
L 172.096 230.64706 
L 173.161514 230.64706 
L 173.337401 230.867027 
L 173.427892 232.036593 
L 174.493405 232.036593 
L 174.63545 232.198919 
L 174.63545 233.264432 
L 174.759784 233.397771 
L 175.825297 233.397771 
L 175.952564 233.530811 
L 175.952564 234.596324 
L 176.091676 234.735436 
L 177.157189 234.735436 
L 177.290229 234.862703 
L 177.290229 235.928216 
L 177.423568 236.05255 
L 178.489081 236.05255 
L 178.651407 236.194595 
L 178.755459 237.350599 
L 179.820973 237.350599 
L 180.04094 237.526486 
L 180.087351 238.629659 
L 181.152865 238.629659 
L 181.419243 238.829651 
L 182.525987 238.858378 
L 182.525987 239.923892 
L 182.751135 240.086131 
L 183.981176 240.19027 
L 184.083027 241.324149 
L 185.148541 241.324149 
L 185.414919 241.483267 
L 186.551838 241.522162 
L 186.551838 242.587676 
L 186.746811 242.702599 
L 187.812324 242.702599 
L 188.078703 242.83562 
L 189.184022 242.854054 
L 189.184022 243.919568 
L 189.410595 244.035777 
L 190.476108 244.035777 
L 191.008865 244.150105 
L 191.90051 244.185946 
L 191.90051 245.251459 
L 192.340757 245.328312 
L 194.471784 245.42926 
L 195.004541 245.514237 
L 195.815902 245.517838 
L 195.815902 246.583351 
L 196.336432 246.671042 
L 198.467459 246.747714 
L 199.000216 246.812445 
L 199.975248 246.84973 
L 200.06573 247.938677 
L 203.795027 248.049186 
L 204.594162 248.091385 
L 208.054885 248.181622 
L 208.057081 249.247399 
L 218.179459 249.356421 
L 224.306162 249.37244 
L 228.606884 249.374796 
L 228.606884 249.374796 
" style="fill:none;stroke:#440154;stroke-width:3;"/>
   </g>
   <g id="patch_3">
    <path d="M 103.104 307.584 
L 103.104 41.472 
" style="fill:none;stroke:#000000;stroke-linecap:square;stroke-linejoin:miter;stroke-width:0.8;"/>
   </g>
   <g id="patch_4">
    <path d="M 369.216 307.584 
L 369.216 41.472 
" style="fill:none;stroke:#000000;stroke-linecap:square;stroke-linejoin:miter;stroke-width:0.8;"/>
   </g>
   <g id="patch_5">
    <path d="M 103.104 307.584 
L 369.216 307.584 
" style="fill:none;stroke:#000000;stroke-linecap:square;stroke-linejoin:miter;stroke-width:0.8;"/>
   </g>
   <g id="patch_6">
    <path d="M 103.104 41.472 
L 369.216 41.472 
" style="fill:none;stroke:#000000;stroke-linecap:square;stroke-linejoin:miter;stroke-width:0.8;"/>
   </g>
   <g id="text_15">
    <g clip-path="url(#p93a3a09b02)">
     <!-- 0 -->
     <g style="fill:#440154;" transform="translate(201.282985 208.559778)rotate(-343.169584)scale(0.1 -0.1)">
      <use xlink:href="#DejaVuSerif-48"/>
     </g>
    </g>
   </g>
   <g id="text_16">
    <g clip-path="url(#p93a3a09b02)">
     <!-- 12 -->
     <g style="fill:#440154;" transform="translate(232.328095 229.518132)rotate(-0.000016)scale(0.1 -0.1)">
      <use xlink:href="#DejaVuSerif-49"/>
      <use x="63.623047" xlink:href="#DejaVuSerif-50"/>
     </g>
    </g>
   </g>
   <g id="text_17">
    <g clip-path="url(#p93a3a09b02)">
     <!-- 24 -->
     <g style="fill:#440154;" transform="translate(229.39788 252.134908)rotate(-359.998919)scale(0.1 -0.1)">
      <defs>
       <path d="M 34.90625 24.703125 
L 34.90625 63.484375 
L 10.015625 24.703125 
z
M 56.390625 0 
L 23.1875 0 
L 23.1875 5.171875 
L 34.90625 5.171875 
L 34.90625 19.484375 
L 3.078125 19.484375 
L 3.078125 24.8125 
L 35.015625 74.21875 
L 44.671875 74.21875 
L 44.671875 24.703125 
L 58.59375 24.703125 
L 58.59375 19.484375 
L 44.671875 19.484375 
L 44.671875 5.171875 
L 56.390625 5.171875 
z
" id="DejaVuSerif-52"/>
      </defs>
      <use xlink:href="#DejaVuSerif-50"/>
      <use x="63.623047" xlink:href="#DejaVuSerif-52"/>
     </g>
    </g>
   </g>
  </g>
 </g>
 <defs>
  <clipPath id="p93a3a09b02">
   <rect height="266.112" width="266.112" x="103.104" y="41.472"/>
  </clipPath>
 </defs>
</svg>
