<?xml version="1.0" encoding="utf-8" standalone="no"?>
<!DOCTYPE svg PUBLIC "-//W3C//DTD SVG 1.1//EN"
  "http://www.w3.org/Graphics/SVG/1.1/DTD/svg11.dtd">
<!-- Created with matplotlib (https://matplotlib.org/) -->
<svg height="345.6pt" version="1.1" viewBox="0 0 460.8 345.6" width="460.8pt" xmlns="http://www.w3.org/2000/svg" xmlns:xlink="http://www.w3.org/1999/xlink">
 <metadata>
  <rdf:RDF xmlns:cc="http://creativecommons.org/ns#" xmlns:dc="http://purl.org/dc/elements/1.1/" xmlns:rdf="http://www.w3.org/1999/02/22-rdf-syntax-ns#">
   <cc:Work>
    <dc:type rdf:resource="http://purl.org/dc/dcmitype/StillImage"/>
    <dc:date>2022-05-25T01:06:38.142823</dc:date>
    <dc:format>image/svg+xml</dc:format>
    <dc:creator>
     <cc:Agent>
      <dc:title>Matplotlib v3.3.4, https://matplotlib.org/</dc:title>
     </cc:Agent>
    </dc:creator>
   </cc:Work>
  </rdf:RDF>
 </metadata>
 <defs>
  <style type="text/css">*{stroke-linecap:butt;stroke-linejoin:round;}</style>
 </defs>
 <g id="figure_1">
  <g id="patch_1">
   <path d="M 0 345.6 
L 460.8 345.6 
L 460.8 0 
L 0 0 
z
" style="fill:#ffffff;"/>
  </g>
  <g id="axes_1">
   <g id="patch_2">
    <path d="M 57.6 307.584 
L 414.72 307.584 
L 414.72 41.472 
L 57.6 41.472 
z
" style="fill:#ffffff;"/>
   </g>
   <g id="PolyCollection_1">
    <defs>
     <path d="M 57.6 -38.016 
L 57.6 -279.936 
L 58.31424 -279.936 
L 59.02848 -279.936 
L 59.74272 -279.936 
L 60.45696 -279.936 
L 61.1712 -279.936 
L 61.88544 -279.936 
L 62.59968 -279.936 
L 63.31392 -279.936 
L 64.02816 -279.936 
L 64.7424 -279.936 
L 65.45664 -279.936 
L 66.17088 -279.936 
L 66.88512 -279.935999 
L 67.59936 -279.935999 
L 68.3136 -279.935999 
L 69.02784 -279.935999 
L 69.74208 -279.935998 
L 70.45632 -279.935998 
L 71.17056 -279.935997 
L 71.8848 -279.935997 
L 72.59904 -279.935996 
L 73.31328 -279.935995 
L 74.02752 -279.935994 
L 74.74176 -279.935993 
L 75.456 -279.935991 
L 76.17024 -279.935989 
L 76.88448 -279.935986 
L 77.59872 -279.935983 
L 78.31296 -279.935979 
L 79.0272 -279.935974 
L 79.74144 -279.935969 
L 80.45568 -279.935962 
L 81.16992 -279.935953 
L 81.88416 -279.935943 
L 82.5984 -279.935931 
L 83.31264 -279.935916 
L 84.02688 -279.935898 
L 84.74112 -279.935876 
L 85.45536 -279.935851 
L 86.1696 -279.935819 
L 86.88384 -279.935782 
L 87.59808 -279.935737 
L 88.31232 -279.935684 
L 89.02656 -279.93562 
L 89.7408 -279.935545 
L 90.45504 -279.935454 
L 91.16928 -279.935347 
L 91.88352 -279.93522 
L 92.59776 -279.935069 
L 93.312 -279.93489 
L 94.02624 -279.934679 
L 94.74048 -279.93443 
L 95.45472 -279.934136 
L 96.16896 -279.933791 
L 96.8832 -279.933385 
L 97.59744 -279.932908 
L 98.31168 -279.93235 
L 99.02592 -279.931697 
L 99.74016 -279.930934 
L 100.4544 -279.930043 
L 101.16864 -279.929005 
L 101.88288 -279.927797 
L 102.59712 -279.926394 
L 103.31136 -279.924766 
L 104.0256 -279.92288 
L 104.73984 -279.920697 
L 105.45408 -279.918176 
L 106.16832 -279.915267 
L 106.88256 -279.911915 
L 107.5968 -279.908059 
L 108.31104 -279.903629 
L 109.02528 -279.898547 
L 109.73952 -279.892726 
L 110.45376 -279.886066 
L 111.168 -279.878458 
L 111.88224 -279.86978 
L 112.59648 -279.859894 
L 113.31072 -279.84865 
L 114.02496 -279.835878 
L 114.7392 -279.821391 
L 115.45344 -279.804982 
L 116.16768 -279.786423 
L 116.88192 -279.765463 
L 117.59616 -279.741823 
L 118.3104 -279.715199 
L 119.02464 -279.685257 
L 119.73888 -279.651631 
L 120.45312 -279.613922 
L 121.16736 -279.571695 
L 121.8816 -279.524474 
L 122.59584 -279.471745 
L 123.31008 -279.412949 
L 124.02432 -279.347481 
L 124.73856 -279.274687 
L 125.4528 -279.193864 
L 126.16704 -279.104253 
L 126.88128 -279.00504 
L 127.59552 -278.895353 
L 128.30976 -278.774259 
L 129.024 -278.640761 
L 129.73824 -278.4938 
L 130.45248 -278.332247 
L 131.16672 -278.154908 
L 131.88096 -277.960517 
L 132.5952 -277.747738 
L 133.30944 -277.515164 
L 134.02368 -277.261315 
L 134.73792 -276.984642 
L 135.45216 -276.683522 
L 136.1664 -276.356261 
L 136.88064 -276.001099 
L 137.59488 -275.616207 
L 138.30912 -275.199691 
L 139.02336 -274.749595 
L 139.7376 -274.263908 
L 140.45184 -273.740563 
L 141.16608 -273.177444 
L 141.88032 -272.572395 
L 142.59456 -271.923221 
L 143.3088 -271.227699 
L 144.02304 -270.483583 
L 144.73728 -269.688616 
L 145.45152 -268.840536 
L 146.16576 -267.937085 
L 146.88 -266.976024 
L 147.59424 -265.955138 
L 148.30848 -264.872252 
L 149.02272 -263.725242 
L 149.73696 -262.512045 
L 150.4512 -261.230676 
L 151.16544 -259.879235 
L 151.87968 -258.455926 
L 152.59392 -256.959068 
L 153.30816 -255.387109 
L 154.0224 -253.738636 
L 154.73664 -252.012395 
L 155.45088 -250.207296 
L 156.16512 -248.322431 
L 156.87936 -246.357084 
L 157.5936 -244.310744 
L 158.30784 -242.183111 
L 159.02208 -239.974113 
L 159.73632 -237.683908 
L 160.45056 -235.312897 
L 161.1648 -232.861727 
L 161.87904 -230.331301 
L 162.59328 -227.722776 
L 163.30752 -225.037574 
L 164.02176 -222.277376 
L 164.736 -219.444125 
L 165.45024 -216.540027 
L 166.16448 -213.567544 
L 166.87872 -210.529391 
L 167.59296 -207.428529 
L 168.3072 -204.26816 
L 169.02144 -201.051713 
L 169.73568 -197.78284 
L 170.44992 -194.465396 
L 171.16416 -191.10343 
L 171.8784 -187.701169 
L 172.59264 -184.263004 
L 173.30688 -180.793468 
L 174.02112 -177.297222 
L 174.73536 -173.779034 
L 175.4496 -170.24376 
L 176.16384 -166.696323 
L 176.87808 -163.141691 
L 177.59232 -159.58486 
L 178.30656 -156.030825 
L 179.0208 -152.484568 
L 179.73504 -148.951029 
L 180.44928 -145.435088 
L 181.16352 -141.941546 
L 181.87776 -138.475103 
L 182.592 -135.04034 
L 183.30624 -131.641699 
L 184.02048 -128.283468 
L 184.73472 -124.969763 
L 185.44896 -121.704515 
L 186.1632 -118.491455 
L 186.87744 -115.334099 
L 187.59168 -112.235743 
L 188.30592 -109.199448 
L 189.02016 -106.228037 
L 189.7344 -103.324084 
L 190.44864 -100.489911 
L 191.16288 -97.727587 
L 191.87712 -95.038922 
L 192.59136 -92.425469 
L 193.3056 -89.888527 
L 194.01984 -87.429141 
L 194.73408 -85.048106 
L 195.44832 -82.745973 
L 196.16256 -80.523056 
L 196.8768 -78.379438 
L 197.59104 -76.314982 
L 198.30528 -74.329335 
L 199.01952 -72.421947 
L 199.73376 -70.592074 
L 200.448 -68.838791 
L 201.16224 -67.161009 
L 201.87648 -65.557482 
L 202.59072 -64.02682 
L 203.30496 -62.567506 
L 204.0192 -61.177903 
L 204.73344 -59.856273 
L 205.44768 -58.600785 
L 206.16192 -57.40953 
L 206.87616 -56.28053 
L 207.5904 -55.211757 
L 208.30464 -54.201137 
L 209.01888 -53.246564 
L 209.73312 -52.345912 
L 210.44736 -51.497043 
L 211.1616 -50.697816 
L 211.87584 -49.946099 
L 212.59008 -49.239775 
L 213.30432 -48.576748 
L 214.01856 -47.954951 
L 214.7328 -47.372356 
L 215.44704 -46.826974 
L 216.16128 -46.316862 
L 216.87552 -45.840128 
L 217.58976 -45.394936 
L 218.304 -44.979503 
L 219.01824 -44.592111 
L 219.73248 -44.231101 
L 220.44672 -43.894876 
L 221.16096 -43.581907 
L 221.8752 -43.290728 
L 222.58944 -43.019938 
L 223.30368 -42.7682 
L 224.01792 -42.534243 
L 224.73216 -42.316859 
L 225.4464 -42.114903 
L 226.16064 -41.927288 
L 226.87488 -41.75299 
L 227.58912 -41.591041 
L 228.30336 -41.440527 
L 229.0176 -41.30059 
L 229.73184 -41.170422 
L 230.44608 -41.049266 
L 231.16032 -40.936408 
L 231.87456 -40.831183 
L 232.5888 -40.732965 
L 233.30304 -40.641169 
L 234.01728 -40.555247 
L 234.73152 -40.474689 
L 235.44576 -40.399013 
L 236.16 -40.327771 
L 236.87424 -40.260545 
L 237.58848 -40.19694 
L 238.30272 -40.136589 
L 239.01696 -40.079146 
L 239.7312 -40.024289 
L 240.44544 -39.971712 
L 241.15968 -39.921129 
L 241.87392 -39.872274 
L 242.58816 -39.824891 
L 243.3024 -39.778745 
L 244.01664 -39.733612 
L 244.73088 -39.689281 
L 245.44512 -39.645558 
L 246.15936 -39.60226 
L 246.8736 -39.559217 
L 247.58784 -39.516275 
L 248.30208 -39.473291 
L 249.01632 -39.430142 
L 249.73056 -39.386716 
L 250.4448 -39.342921 
L 251.15904 -39.298685 
L 251.87328 -39.253952 
L 252.58752 -39.208691 
L 253.30176 -39.162891 
L 254.016 -39.116566 
L 254.73024 -39.069753 
L 255.44448 -39.022514 
L 256.15872 -38.974935 
L 256.87296 -38.927128 
L 257.5872 -38.879224 
L 258.30144 -38.831377 
L 259.01568 -38.783756 
L 259.72992 -38.736545 
L 260.44416 -38.689939 
L 261.1584 -38.644136 
L 261.87264 -38.599335 
L 262.58688 -38.555731 
L 263.30112 -38.51351 
L 264.01536 -38.47284 
L 264.7296 -38.433876 
L 265.44384 -38.396749 
L 266.15808 -38.361565 
L 266.87232 -38.328406 
L 267.58656 -38.297326 
L 268.3008 -38.268354 
L 269.01504 -38.241493 
L 269.72928 -38.216722 
L 270.44352 -38.193998 
L 271.15776 -38.173259 
L 271.872 -38.154427 
L 272.58624 -38.137412 
L 273.30048 -38.122112 
L 274.01472 -38.108419 
L 274.72896 -38.096219 
L 275.4432 -38.085399 
L 276.15744 -38.075843 
L 276.87168 -38.067439 
L 277.58592 -38.060078 
L 278.30016 -38.053656 
L 279.0144 -38.048075 
L 279.72864 -38.043241 
L 280.44288 -38.039071 
L 281.15712 -38.035486 
L 281.87136 -38.032413 
L 282.5856 -38.029789 
L 283.29984 -38.027554 
L 284.01408 -38.025657 
L 284.72832 -38.024052 
L 285.44256 -38.022697 
L 286.1568 -38.021557 
L 286.87104 -38.0206 
L 287.58528 -38.0198 
L 288.29952 -38.019132 
L 289.01376 -38.018575 
L 289.728 -38.018113 
L 290.44224 -38.01773 
L 291.15648 -38.017414 
L 291.87072 -38.017153 
L 292.58496 -38.016938 
L 293.2992 -38.016762 
L 294.01344 -38.016618 
L 294.72768 -38.0165 
L 295.44192 -38.016403 
L 296.15616 -38.016325 
L 296.8704 -38.016262 
L 297.58464 -38.01621 
L 298.29888 -38.016168 
L 299.01312 -38.016135 
L 299.72736 -38.016108 
L 300.4416 -38.016086 
L 301.15584 -38.016068 
L 301.87008 -38.016054 
L 302.58432 -38.016043 
L 303.29856 -38.016034 
L 304.0128 -38.016027 
L 304.72704 -38.016021 
L 305.44128 -38.016017 
L 306.15552 -38.016013 
L 306.86976 -38.01601 
L 307.584 -38.016008 
L 308.29824 -38.016006 
L 309.01248 -38.016005 
L 309.72672 -38.016004 
L 310.44096 -38.016003 
L 311.1552 -38.016002 
L 311.86944 -38.016002 
L 312.58368 -38.016001 
L 313.29792 -38.016001 
L 314.01216 -38.016001 
L 314.7264 -38.016001 
L 315.44064 -38.016 
L 316.15488 -38.016 
L 316.86912 -38.016 
L 317.58336 -38.016 
L 318.2976 -38.016 
L 319.01184 -38.016 
L 319.72608 -38.016 
L 320.44032 -38.016 
L 321.15456 -38.016 
L 321.8688 -38.016 
L 322.58304 -38.016 
L 323.29728 -38.016 
L 324.01152 -38.016 
L 324.72576 -38.016 
L 325.44 -38.016 
L 326.15424 -38.016 
L 326.86848 -38.016 
L 327.58272 -38.016 
L 328.29696 -38.016 
L 329.0112 -38.016 
L 329.72544 -38.016 
L 330.43968 -38.016 
L 331.15392 -38.016 
L 331.86816 -38.016 
L 332.5824 -38.016 
L 333.29664 -38.016 
L 334.01088 -38.016 
L 334.72512 -38.016 
L 335.43936 -38.016 
L 336.1536 -38.016 
L 336.86784 -38.016 
L 337.58208 -38.016 
L 338.29632 -38.016 
L 339.01056 -38.016 
L 339.7248 -38.016 
L 340.43904 -38.016 
L 341.15328 -38.016 
L 341.86752 -38.016 
L 342.58176 -38.016 
L 343.296 -38.016 
L 344.01024 -38.016 
L 344.72448 -38.016 
L 345.43872 -38.016 
L 346.15296 -38.016 
L 346.8672 -38.016 
L 347.58144 -38.016 
L 348.29568 -38.016 
L 349.00992 -38.016 
L 349.72416 -38.016 
L 350.4384 -38.016 
L 351.15264 -38.016 
L 351.86688 -38.016 
L 352.58112 -38.016 
L 353.29536 -38.016 
L 354.0096 -38.016 
L 354.72384 -38.016 
L 355.43808 -38.016 
L 356.15232 -38.016 
L 356.86656 -38.016 
L 357.5808 -38.016 
L 358.29504 -38.016 
L 359.00928 -38.016 
L 359.72352 -38.016 
L 360.43776 -38.016 
L 361.152 -38.016 
L 361.86624 -38.016 
L 362.58048 -38.016 
L 363.29472 -38.016 
L 364.00896 -38.016 
L 364.7232 -38.016 
L 365.43744 -38.016 
L 366.15168 -38.016 
L 366.86592 -38.016 
L 367.58016 -38.016 
L 368.2944 -38.016 
L 369.00864 -38.016 
L 369.72288 -38.016 
L 370.43712 -38.016 
L 371.15136 -38.016 
L 371.8656 -38.016 
L 372.57984 -38.016 
L 373.29408 -38.016 
L 374.00832 -38.016 
L 374.72256 -38.016 
L 375.4368 -38.016 
L 376.15104 -38.016 
L 376.86528 -38.016 
L 377.57952 -38.016 
L 378.29376 -38.016 
L 379.008 -38.016 
L 379.72224 -38.016 
L 380.43648 -38.016 
L 381.15072 -38.016 
L 381.86496 -38.016 
L 382.5792 -38.016 
L 383.29344 -38.016 
L 384.00768 -38.016 
L 384.72192 -38.016 
L 385.43616 -38.016 
L 386.1504 -38.016 
L 386.86464 -38.016 
L 387.57888 -38.016 
L 388.29312 -38.016 
L 389.00736 -38.016 
L 389.7216 -38.016 
L 390.43584 -38.016 
L 391.15008 -38.016 
L 391.86432 -38.016 
L 392.57856 -38.016 
L 393.2928 -38.016 
L 394.00704 -38.016 
L 394.72128 -38.016 
L 395.43552 -38.016 
L 396.14976 -38.016 
L 396.864 -38.016 
L 397.57824 -38.016 
L 398.29248 -38.016 
L 399.00672 -38.016 
L 399.72096 -38.016 
L 400.4352 -38.016 
L 401.14944 -38.016 
L 401.86368 -38.016 
L 402.57792 -38.016 
L 403.29216 -38.016 
L 404.0064 -38.016 
L 404.72064 -38.016 
L 405.43488 -38.016 
L 406.14912 -38.016 
L 406.86336 -38.016 
L 407.5776 -38.016 
L 408.29184 -38.016 
L 409.00608 -38.016 
L 409.72032 -38.016 
L 410.43456 -38.016 
L 411.1488 -38.016 
L 411.86304 -38.016 
L 412.57728 -38.016 
L 413.29152 -38.016 
L 414.00576 -38.016 
L 414.72 -38.016 
L 414.72 -38.016 
L 414.72 -38.016 
L 414.00576 -38.016 
L 413.29152 -38.016 
L 412.57728 -38.016 
L 411.86304 -38.016 
L 411.1488 -38.016 
L 410.43456 -38.016 
L 409.72032 -38.016 
L 409.00608 -38.016 
L 408.29184 -38.016 
L 407.5776 -38.016 
L 406.86336 -38.016 
L 406.14912 -38.016 
L 405.43488 -38.016 
L 404.72064 -38.016 
L 404.0064 -38.016 
L 403.29216 -38.016 
L 402.57792 -38.016 
L 401.86368 -38.016 
L 401.14944 -38.016 
L 400.4352 -38.016 
L 399.72096 -38.016 
L 399.00672 -38.016 
L 398.29248 -38.016 
L 397.57824 -38.016 
L 396.864 -38.016 
L 396.14976 -38.016 
L 395.43552 -38.016 
L 394.72128 -38.016 
L 394.00704 -38.016 
L 393.2928 -38.016 
L 392.57856 -38.016 
L 391.86432 -38.016 
L 391.15008 -38.016 
L 390.43584 -38.016 
L 389.7216 -38.016 
L 389.00736 -38.016 
L 388.29312 -38.016 
L 387.57888 -38.016 
L 386.86464 -38.016 
L 386.1504 -38.016 
L 385.43616 -38.016 
L 384.72192 -38.016 
L 384.00768 -38.016 
L 383.29344 -38.016 
L 382.5792 -38.016 
L 381.86496 -38.016 
L 381.15072 -38.016 
L 380.43648 -38.016 
L 379.72224 -38.016 
L 379.008 -38.016 
L 378.29376 -38.016 
L 377.57952 -38.016 
L 376.86528 -38.016 
L 376.15104 -38.016 
L 375.4368 -38.016 
L 374.72256 -38.016 
L 374.00832 -38.016 
L 373.29408 -38.016 
L 372.57984 -38.016 
L 371.8656 -38.016 
L 371.15136 -38.016 
L 370.43712 -38.016 
L 369.72288 -38.016 
L 369.00864 -38.016 
L 368.2944 -38.016 
L 367.58016 -38.016 
L 366.86592 -38.016 
L 366.15168 -38.016 
L 365.43744 -38.016 
L 364.7232 -38.016 
L 364.00896 -38.016 
L 363.29472 -38.016 
L 362.58048 -38.016 
L 361.86624 -38.016 
L 361.152 -38.016 
L 360.43776 -38.016 
L 359.72352 -38.016 
L 359.00928 -38.016 
L 358.29504 -38.016 
L 357.5808 -38.016 
L 356.86656 -38.016 
L 356.15232 -38.016 
L 355.43808 -38.016 
L 354.72384 -38.016 
L 354.0096 -38.016 
L 353.29536 -38.016 
L 352.58112 -38.016 
L 351.86688 -38.016 
L 351.15264 -38.016 
L 350.4384 -38.016 
L 349.72416 -38.016 
L 349.00992 -38.016 
L 348.29568 -38.016 
L 347.58144 -38.016 
L 346.8672 -38.016 
L 346.15296 -38.016 
L 345.43872 -38.016 
L 344.72448 -38.016 
L 344.01024 -38.016 
L 343.296 -38.016 
L 342.58176 -38.016 
L 341.86752 -38.016 
L 341.15328 -38.016 
L 340.43904 -38.016 
L 339.7248 -38.016 
L 339.01056 -38.016 
L 338.29632 -38.016 
L 337.58208 -38.016 
L 336.86784 -38.016 
L 336.1536 -38.016 
L 335.43936 -38.016 
L 334.72512 -38.016 
L 334.01088 -38.016 
L 333.29664 -38.016 
L 332.5824 -38.016 
L 331.86816 -38.016 
L 331.15392 -38.016 
L 330.43968 -38.016 
L 329.72544 -38.016 
L 329.0112 -38.016 
L 328.29696 -38.016 
L 327.58272 -38.016 
L 326.86848 -38.016 
L 326.15424 -38.016 
L 325.44 -38.016 
L 324.72576 -38.016 
L 324.01152 -38.016 
L 323.29728 -38.016 
L 322.58304 -38.016 
L 321.8688 -38.016 
L 321.15456 -38.016 
L 320.44032 -38.016 
L 319.72608 -38.016 
L 319.01184 -38.016 
L 318.2976 -38.016 
L 317.58336 -38.016 
L 316.86912 -38.016 
L 316.15488 -38.016 
L 315.44064 -38.016 
L 314.7264 -38.016 
L 314.01216 -38.016 
L 313.29792 -38.016 
L 312.58368 -38.016 
L 311.86944 -38.016 
L 311.1552 -38.016 
L 310.44096 -38.016 
L 309.72672 -38.016 
L 309.01248 -38.016 
L 308.29824 -38.016 
L 307.584 -38.016 
L 306.86976 -38.016 
L 306.15552 -38.016 
L 305.44128 -38.016 
L 304.72704 -38.016 
L 304.0128 -38.016 
L 303.29856 -38.016 
L 302.58432 -38.016 
L 301.87008 -38.016 
L 301.15584 -38.016 
L 300.4416 -38.016 
L 299.72736 -38.016 
L 299.01312 -38.016 
L 298.29888 -38.016 
L 297.58464 -38.016 
L 296.8704 -38.016 
L 296.15616 -38.016 
L 295.44192 -38.016 
L 294.72768 -38.016 
L 294.01344 -38.016 
L 293.2992 -38.016 
L 292.58496 -38.016 
L 291.87072 -38.016 
L 291.15648 -38.016 
L 290.44224 -38.016 
L 289.728 -38.016 
L 289.01376 -38.016 
L 288.29952 -38.016 
L 287.58528 -38.016 
L 286.87104 -38.016 
L 286.1568 -38.016 
L 285.44256 -38.016 
L 284.72832 -38.016 
L 284.01408 -38.016 
L 283.29984 -38.016 
L 282.5856 -38.016 
L 281.87136 -38.016 
L 281.15712 -38.016 
L 280.44288 -38.016 
L 279.72864 -38.016 
L 279.0144 -38.016 
L 278.30016 -38.016 
L 277.58592 -38.016 
L 276.87168 -38.016 
L 276.15744 -38.016 
L 275.4432 -38.016 
L 274.72896 -38.016 
L 274.01472 -38.016 
L 273.30048 -38.016 
L 272.58624 -38.016 
L 271.872 -38.016 
L 271.15776 -38.016 
L 270.44352 -38.016 
L 269.72928 -38.016 
L 269.01504 -38.016 
L 268.3008 -38.016 
L 267.58656 -38.016 
L 266.87232 -38.016 
L 266.15808 -38.016 
L 265.44384 -38.016 
L 264.7296 -38.016 
L 264.01536 -38.016 
L 263.30112 -38.016 
L 262.58688 -38.016 
L 261.87264 -38.016 
L 261.1584 -38.016 
L 260.44416 -38.016 
L 259.72992 -38.016 
L 259.01568 -38.016 
L 258.30144 -38.016 
L 257.5872 -38.016 
L 256.87296 -38.016 
L 256.15872 -38.016 
L 255.44448 -38.016 
L 254.73024 -38.016 
L 254.016 -38.016 
L 253.30176 -38.016 
L 252.58752 -38.016 
L 251.87328 -38.016 
L 251.15904 -38.016 
L 250.4448 -38.016 
L 249.73056 -38.016 
L 249.01632 -38.016 
L 248.30208 -38.016 
L 247.58784 -38.016 
L 246.8736 -38.016 
L 246.15936 -38.016 
L 245.44512 -38.016 
L 244.73088 -38.016 
L 244.01664 -38.016 
L 243.3024 -38.016 
L 242.58816 -38.016 
L 241.87392 -38.016 
L 241.15968 -38.016 
L 240.44544 -38.016 
L 239.7312 -38.016 
L 239.01696 -38.016 
L 238.30272 -38.016 
L 237.58848 -38.016 
L 236.87424 -38.016 
L 236.16 -38.016 
L 235.44576 -38.016 
L 234.73152 -38.016 
L 234.01728 -38.016 
L 233.30304 -38.016 
L 232.5888 -38.016 
L 231.87456 -38.016 
L 231.16032 -38.016 
L 230.44608 -38.016 
L 229.73184 -38.016 
L 229.0176 -38.016 
L 228.30336 -38.016 
L 227.58912 -38.016 
L 226.87488 -38.016 
L 226.16064 -38.016 
L 225.4464 -38.016 
L 224.73216 -38.016 
L 224.01792 -38.016 
L 223.30368 -38.016 
L 222.58944 -38.016 
L 221.8752 -38.016 
L 221.16096 -38.016 
L 220.44672 -38.016 
L 219.73248 -38.016 
L 219.01824 -38.016 
L 218.304 -38.016 
L 217.58976 -38.016 
L 216.87552 -38.016 
L 216.16128 -38.016 
L 215.44704 -38.016 
L 214.7328 -38.016 
L 214.01856 -38.016 
L 213.30432 -38.016 
L 212.59008 -38.016 
L 211.87584 -38.016 
L 211.1616 -38.016 
L 210.44736 -38.016 
L 209.73312 -38.016 
L 209.01888 -38.016 
L 208.30464 -38.016 
L 207.5904 -38.016 
L 206.87616 -38.016 
L 206.16192 -38.016 
L 205.44768 -38.016 
L 204.73344 -38.016 
L 204.0192 -38.016 
L 203.30496 -38.016 
L 202.59072 -38.016 
L 201.87648 -38.016 
L 201.16224 -38.016 
L 200.448 -38.016 
L 199.73376 -38.016 
L 199.01952 -38.016 
L 198.30528 -38.016 
L 197.59104 -38.016 
L 196.8768 -38.016 
L 196.16256 -38.016 
L 195.44832 -38.016 
L 194.73408 -38.016 
L 194.01984 -38.016 
L 193.3056 -38.016 
L 192.59136 -38.016 
L 191.87712 -38.016 
L 191.16288 -38.016 
L 190.44864 -38.016 
L 189.7344 -38.016 
L 189.02016 -38.016 
L 188.30592 -38.016 
L 187.59168 -38.016 
L 186.87744 -38.016 
L 186.1632 -38.016 
L 185.44896 -38.016 
L 184.73472 -38.016 
L 184.02048 -38.016 
L 183.30624 -38.016 
L 182.592 -38.016 
L 181.87776 -38.016 
L 181.16352 -38.016 
L 180.44928 -38.016 
L 179.73504 -38.016 
L 179.0208 -38.016 
L 178.30656 -38.016 
L 177.59232 -38.016 
L 176.87808 -38.016 
L 176.16384 -38.016 
L 175.4496 -38.016 
L 174.73536 -38.016 
L 174.02112 -38.016 
L 173.30688 -38.016 
L 172.59264 -38.016 
L 171.8784 -38.016 
L 171.16416 -38.016 
L 170.44992 -38.016 
L 169.73568 -38.016 
L 169.02144 -38.016 
L 168.3072 -38.016 
L 167.59296 -38.016 
L 166.87872 -38.016 
L 166.16448 -38.016 
L 165.45024 -38.016 
L 164.736 -38.016 
L 164.02176 -38.016 
L 163.30752 -38.016 
L 162.59328 -38.016 
L 161.87904 -38.016 
L 161.1648 -38.016 
L 160.45056 -38.016 
L 159.73632 -38.016 
L 159.02208 -38.016 
L 158.30784 -38.016 
L 157.5936 -38.016 
L 156.87936 -38.016 
L 156.16512 -38.016 
L 155.45088 -38.016 
L 154.73664 -38.016 
L 154.0224 -38.016 
L 153.30816 -38.016 
L 152.59392 -38.016 
L 151.87968 -38.016 
L 151.16544 -38.016 
L 150.4512 -38.016 
L 149.73696 -38.016 
L 149.02272 -38.016 
L 148.30848 -38.016 
L 147.59424 -38.016 
L 146.88 -38.016 
L 146.16576 -38.016 
L 145.45152 -38.016 
L 144.73728 -38.016 
L 144.02304 -38.016 
L 143.3088 -38.016 
L 142.59456 -38.016 
L 141.88032 -38.016 
L 141.16608 -38.016 
L 140.45184 -38.016 
L 139.7376 -38.016 
L 139.02336 -38.016 
L 138.30912 -38.016 
L 137.59488 -38.016 
L 136.88064 -38.016 
L 136.1664 -38.016 
L 135.45216 -38.016 
L 134.73792 -38.016 
L 134.02368 -38.016 
L 133.30944 -38.016 
L 132.5952 -38.016 
L 131.88096 -38.016 
L 131.16672 -38.016 
L 130.45248 -38.016 
L 129.73824 -38.016 
L 129.024 -38.016 
L 128.30976 -38.016 
L 127.59552 -38.016 
L 126.88128 -38.016 
L 126.16704 -38.016 
L 125.4528 -38.016 
L 124.73856 -38.016 
L 124.02432 -38.016 
L 123.31008 -38.016 
L 122.59584 -38.016 
L 121.8816 -38.016 
L 121.16736 -38.016 
L 120.45312 -38.016 
L 119.73888 -38.016 
L 119.02464 -38.016 
L 118.3104 -38.016 
L 117.59616 -38.016 
L 116.88192 -38.016 
L 116.16768 -38.016 
L 115.45344 -38.016 
L 114.7392 -38.016 
L 114.02496 -38.016 
L 113.31072 -38.016 
L 112.59648 -38.016 
L 111.88224 -38.016 
L 111.168 -38.016 
L 110.45376 -38.016 
L 109.73952 -38.016 
L 109.02528 -38.016 
L 108.31104 -38.016 
L 107.5968 -38.016 
L 106.88256 -38.016 
L 106.16832 -38.016 
L 105.45408 -38.016 
L 104.73984 -38.016 
L 104.0256 -38.016 
L 103.31136 -38.016 
L 102.59712 -38.016 
L 101.88288 -38.016 
L 101.16864 -38.016 
L 100.4544 -38.016 
L 99.74016 -38.016 
L 99.02592 -38.016 
L 98.31168 -38.016 
L 97.59744 -38.016 
L 96.8832 -38.016 
L 96.16896 -38.016 
L 95.45472 -38.016 
L 94.74048 -38.016 
L 94.02624 -38.016 
L 93.312 -38.016 
L 92.59776 -38.016 
L 91.88352 -38.016 
L 91.16928 -38.016 
L 90.45504 -38.016 
L 89.7408 -38.016 
L 89.02656 -38.016 
L 88.31232 -38.016 
L 87.59808 -38.016 
L 86.88384 -38.016 
L 86.1696 -38.016 
L 85.45536 -38.016 
L 84.74112 -38.016 
L 84.02688 -38.016 
L 83.31264 -38.016 
L 82.5984 -38.016 
L 81.88416 -38.016 
L 81.16992 -38.016 
L 80.45568 -38.016 
L 79.74144 -38.016 
L 79.0272 -38.016 
L 78.31296 -38.016 
L 77.59872 -38.016 
L 76.88448 -38.016 
L 76.17024 -38.016 
L 75.456 -38.016 
L 74.74176 -38.016 
L 74.02752 -38.016 
L 73.31328 -38.016 
L 72.59904 -38.016 
L 71.8848 -38.016 
L 71.17056 -38.016 
L 70.45632 -38.016 
L 69.74208 -38.016 
L 69.02784 -38.016 
L 68.3136 -38.016 
L 67.59936 -38.016 
L 66.88512 -38.016 
L 66.17088 -38.016 
L 65.45664 -38.016 
L 64.7424 -38.016 
L 64.02816 -38.016 
L 63.31392 -38.016 
L 62.59968 -38.016 
L 61.88544 -38.016 
L 61.1712 -38.016 
L 60.45696 -38.016 
L 59.74272 -38.016 
L 59.02848 -38.016 
L 58.31424 -38.016 
L 57.6 -38.016 
z
" id="m19a970a350" style="stroke:#509369;"/>
    </defs>
    <g clip-path="url(#p1723b1041c)">
     <use style="fill:#509369;stroke:#509369;" x="0" xlink:href="#m19a970a350" y="345.6"/>
    </g>
   </g>
   <g id="PolyCollection_2">
    <defs>
     <path d="M 57.6 -279.936 
L 57.6 -279.936 
L 58.31424 -279.936 
L 59.02848 -279.936 
L 59.74272 -279.936 
L 60.45696 -279.936 
L 61.1712 -279.936 
L 61.88544 -279.936 
L 62.59968 -279.936 
L 63.31392 -279.936 
L 64.02816 -279.936 
L 64.7424 -279.936 
L 65.45664 -279.936 
L 66.17088 -279.936 
L 66.88512 -279.935999 
L 67.59936 -279.935999 
L 68.3136 -279.935999 
L 69.02784 -279.935999 
L 69.74208 -279.935998 
L 70.45632 -279.935998 
L 71.17056 -279.935997 
L 71.8848 -279.935997 
L 72.59904 -279.935996 
L 73.31328 -279.935995 
L 74.02752 -279.935994 
L 74.74176 -279.935993 
L 75.456 -279.935991 
L 76.17024 -279.935989 
L 76.88448 -279.935986 
L 77.59872 -279.935983 
L 78.31296 -279.935979 
L 79.0272 -279.935974 
L 79.74144 -279.935969 
L 80.45568 -279.935962 
L 81.16992 -279.935953 
L 81.88416 -279.935943 
L 82.5984 -279.935931 
L 83.31264 -279.935916 
L 84.02688 -279.935898 
L 84.74112 -279.935876 
L 85.45536 -279.935851 
L 86.1696 -279.935819 
L 86.88384 -279.935782 
L 87.59808 -279.935737 
L 88.31232 -279.935684 
L 89.02656 -279.93562 
L 89.7408 -279.935545 
L 90.45504 -279.935454 
L 91.16928 -279.935347 
L 91.88352 -279.93522 
L 92.59776 -279.935069 
L 93.312 -279.93489 
L 94.02624 -279.934679 
L 94.74048 -279.93443 
L 95.45472 -279.934136 
L 96.16896 -279.933791 
L 96.8832 -279.933385 
L 97.59744 -279.932908 
L 98.31168 -279.93235 
L 99.02592 -279.931697 
L 99.74016 -279.930934 
L 100.4544 -279.930043 
L 101.16864 -279.929005 
L 101.88288 -279.927797 
L 102.59712 -279.926394 
L 103.31136 -279.924766 
L 104.0256 -279.92288 
L 104.73984 -279.920697 
L 105.45408 -279.918176 
L 106.16832 -279.915267 
L 106.88256 -279.911915 
L 107.5968 -279.908059 
L 108.31104 -279.903629 
L 109.02528 -279.898547 
L 109.73952 -279.892726 
L 110.45376 -279.886066 
L 111.168 -279.878458 
L 111.88224 -279.86978 
L 112.59648 -279.859894 
L 113.31072 -279.84865 
L 114.02496 -279.835878 
L 114.7392 -279.821391 
L 115.45344 -279.804982 
L 116.16768 -279.786423 
L 116.88192 -279.765463 
L 117.59616 -279.741823 
L 118.3104 -279.715199 
L 119.02464 -279.685257 
L 119.73888 -279.651631 
L 120.45312 -279.613922 
L 121.16736 -279.571695 
L 121.8816 -279.524474 
L 122.59584 -279.471745 
L 123.31008 -279.412949 
L 124.02432 -279.347481 
L 124.73856 -279.274687 
L 125.4528 -279.193864 
L 126.16704 -279.104253 
L 126.88128 -279.00504 
L 127.59552 -278.895353 
L 128.30976 -278.774259 
L 129.024 -278.640761 
L 129.73824 -278.4938 
L 130.45248 -278.332247 
L 131.16672 -278.154908 
L 131.88096 -277.960517 
L 132.5952 -277.747738 
L 133.30944 -277.515164 
L 134.02368 -277.261315 
L 134.73792 -276.984642 
L 135.45216 -276.683522 
L 136.1664 -276.356261 
L 136.88064 -276.001099 
L 137.59488 -275.616207 
L 138.30912 -275.199691 
L 139.02336 -274.749595 
L 139.7376 -274.263908 
L 140.45184 -273.740563 
L 141.16608 -273.177444 
L 141.88032 -272.572395 
L 142.59456 -271.923221 
L 143.3088 -271.227699 
L 144.02304 -270.483583 
L 144.73728 -269.688616 
L 145.45152 -268.840536 
L 146.16576 -267.937085 
L 146.88 -266.976024 
L 147.59424 -265.955138 
L 148.30848 -264.872252 
L 149.02272 -263.725242 
L 149.73696 -262.512045 
L 150.4512 -261.230676 
L 151.16544 -259.879235 
L 151.87968 -258.455926 
L 152.59392 -256.959068 
L 153.30816 -255.387109 
L 154.0224 -253.738636 
L 154.73664 -252.012395 
L 155.45088 -250.207296 
L 156.16512 -248.322431 
L 156.87936 -246.357084 
L 157.5936 -244.310744 
L 158.30784 -242.183111 
L 159.02208 -239.974113 
L 159.73632 -237.683908 
L 160.45056 -235.312897 
L 161.1648 -232.861727 
L 161.87904 -230.331301 
L 162.59328 -227.722776 
L 163.30752 -225.037574 
L 164.02176 -222.277376 
L 164.736 -219.444125 
L 165.45024 -216.540027 
L 166.16448 -213.567544 
L 166.87872 -210.529391 
L 167.59296 -207.428529 
L 168.3072 -204.26816 
L 169.02144 -201.051713 
L 169.73568 -197.78284 
L 170.44992 -194.465396 
L 171.16416 -191.10343 
L 171.8784 -187.701169 
L 172.59264 -184.263004 
L 173.30688 -180.793468 
L 174.02112 -177.297222 
L 174.73536 -173.779034 
L 175.4496 -170.24376 
L 176.16384 -166.696323 
L 176.87808 -163.141691 
L 177.59232 -159.58486 
L 178.30656 -156.030825 
L 179.0208 -152.484568 
L 179.73504 -148.951029 
L 180.44928 -145.435088 
L 181.16352 -141.941546 
L 181.87776 -138.475103 
L 182.592 -135.04034 
L 183.30624 -131.641699 
L 184.02048 -128.283468 
L 184.73472 -124.969763 
L 185.44896 -121.704515 
L 186.1632 -118.491455 
L 186.87744 -115.334099 
L 187.59168 -112.235743 
L 188.30592 -109.199448 
L 189.02016 -106.228037 
L 189.7344 -103.324084 
L 190.44864 -100.489911 
L 191.16288 -97.727587 
L 191.87712 -95.038922 
L 192.59136 -92.425469 
L 193.3056 -89.888527 
L 194.01984 -87.429141 
L 194.73408 -85.048106 
L 195.44832 -82.745973 
L 196.16256 -80.523056 
L 196.8768 -78.379438 
L 197.59104 -76.314982 
L 198.30528 -74.329335 
L 199.01952 -72.421947 
L 199.73376 -70.592074 
L 200.448 -68.838791 
L 201.16224 -67.161009 
L 201.87648 -65.557482 
L 202.59072 -64.02682 
L 203.30496 -62.567506 
L 204.0192 -61.177903 
L 204.73344 -59.856273 
L 205.44768 -58.600785 
L 206.16192 -57.40953 
L 206.87616 -56.28053 
L 207.5904 -55.211757 
L 208.30464 -54.201137 
L 209.01888 -53.246564 
L 209.73312 -52.345912 
L 210.44736 -51.497043 
L 211.1616 -50.697816 
L 211.87584 -49.946099 
L 212.59008 -49.239775 
L 213.30432 -48.576748 
L 214.01856 -47.954951 
L 214.7328 -47.372356 
L 215.44704 -46.826974 
L 216.16128 -46.316862 
L 216.87552 -45.840128 
L 217.58976 -45.394936 
L 218.304 -44.979503 
L 219.01824 -44.592111 
L 219.73248 -44.231101 
L 220.44672 -43.894876 
L 221.16096 -43.581907 
L 221.8752 -43.290728 
L 222.58944 -43.019938 
L 223.30368 -42.7682 
L 224.01792 -42.534243 
L 224.73216 -42.316859 
L 225.4464 -42.114903 
L 226.16064 -41.927288 
L 226.87488 -41.75299 
L 227.58912 -41.591041 
L 228.30336 -41.440527 
L 229.0176 -41.30059 
L 229.73184 -41.170422 
L 230.44608 -41.049266 
L 231.16032 -40.936408 
L 231.87456 -40.831183 
L 232.5888 -40.732965 
L 233.30304 -40.641169 
L 234.01728 -40.555247 
L 234.73152 -40.474689 
L 235.44576 -40.399013 
L 236.16 -40.327771 
L 236.87424 -40.260545 
L 237.58848 -40.19694 
L 238.30272 -40.136589 
L 239.01696 -40.079146 
L 239.7312 -40.024289 
L 240.44544 -39.971712 
L 241.15968 -39.921129 
L 241.87392 -39.872274 
L 242.58816 -39.824891 
L 243.3024 -39.778745 
L 244.01664 -39.733612 
L 244.73088 -39.689281 
L 245.44512 -39.645558 
L 246.15936 -39.60226 
L 246.8736 -39.559217 
L 247.58784 -39.516275 
L 248.30208 -39.473291 
L 249.01632 -39.430142 
L 249.73056 -39.386716 
L 250.4448 -39.342921 
L 251.15904 -39.298685 
L 251.87328 -39.253952 
L 252.58752 -39.208691 
L 253.30176 -39.162891 
L 254.016 -39.116566 
L 254.73024 -39.069753 
L 255.44448 -39.022514 
L 256.15872 -38.974935 
L 256.87296 -38.927128 
L 257.5872 -38.879224 
L 258.30144 -38.831377 
L 259.01568 -38.783756 
L 259.72992 -38.736545 
L 260.44416 -38.689939 
L 261.1584 -38.644136 
L 261.87264 -38.599335 
L 262.58688 -38.555731 
L 263.30112 -38.51351 
L 264.01536 -38.47284 
L 264.7296 -38.433876 
L 265.44384 -38.396749 
L 266.15808 -38.361565 
L 266.87232 -38.328406 
L 267.58656 -38.297326 
L 268.3008 -38.268354 
L 269.01504 -38.241493 
L 269.72928 -38.216722 
L 270.44352 -38.193998 
L 271.15776 -38.173259 
L 271.872 -38.154427 
L 272.58624 -38.137412 
L 273.30048 -38.122112 
L 274.01472 -38.108419 
L 274.72896 -38.096219 
L 275.4432 -38.085399 
L 276.15744 -38.075843 
L 276.87168 -38.067439 
L 277.58592 -38.060078 
L 278.30016 -38.053656 
L 279.0144 -38.048075 
L 279.72864 -38.043241 
L 280.44288 -38.039071 
L 281.15712 -38.035486 
L 281.87136 -38.032413 
L 282.5856 -38.029789 
L 283.29984 -38.027554 
L 284.01408 -38.025657 
L 284.72832 -38.024052 
L 285.44256 -38.022697 
L 286.1568 -38.021557 
L 286.87104 -38.0206 
L 287.58528 -38.0198 
L 288.29952 -38.019132 
L 289.01376 -38.018575 
L 289.728 -38.018113 
L 290.44224 -38.01773 
L 291.15648 -38.017414 
L 291.87072 -38.017153 
L 292.58496 -38.016938 
L 293.2992 -38.016762 
L 294.01344 -38.016618 
L 294.72768 -38.0165 
L 295.44192 -38.016403 
L 296.15616 -38.016325 
L 296.8704 -38.016262 
L 297.58464 -38.01621 
L 298.29888 -38.016168 
L 299.01312 -38.016135 
L 299.72736 -38.016108 
L 300.4416 -38.016086 
L 301.15584 -38.016068 
L 301.87008 -38.016054 
L 302.58432 -38.016043 
L 303.29856 -38.016034 
L 304.0128 -38.016027 
L 304.72704 -38.016021 
L 305.44128 -38.016017 
L 306.15552 -38.016013 
L 306.86976 -38.01601 
L 307.584 -38.016008 
L 308.29824 -38.016006 
L 309.01248 -38.016005 
L 309.72672 -38.016004 
L 310.44096 -38.016003 
L 311.1552 -38.016002 
L 311.86944 -38.016002 
L 312.58368 -38.016001 
L 313.29792 -38.016001 
L 314.01216 -38.016001 
L 314.7264 -38.016001 
L 315.44064 -38.016 
L 316.15488 -38.016 
L 316.86912 -38.016 
L 317.58336 -38.016 
L 318.2976 -38.016 
L 319.01184 -38.016 
L 319.72608 -38.016 
L 320.44032 -38.016 
L 321.15456 -38.016 
L 321.8688 -38.016 
L 322.58304 -38.016 
L 323.29728 -38.016 
L 324.01152 -38.016 
L 324.72576 -38.016 
L 325.44 -38.016 
L 326.15424 -38.016 
L 326.86848 -38.016 
L 327.58272 -38.016 
L 328.29696 -38.016 
L 329.0112 -38.016 
L 329.72544 -38.016 
L 330.43968 -38.016 
L 331.15392 -38.016 
L 331.86816 -38.016 
L 332.5824 -38.016 
L 333.29664 -38.016 
L 334.01088 -38.016 
L 334.72512 -38.016 
L 335.43936 -38.016 
L 336.1536 -38.016 
L 336.86784 -38.016 
L 337.58208 -38.016 
L 338.29632 -38.016 
L 339.01056 -38.016 
L 339.7248 -38.016 
L 340.43904 -38.016 
L 341.15328 -38.016 
L 341.86752 -38.016 
L 342.58176 -38.016 
L 343.296 -38.016 
L 344.01024 -38.016 
L 344.72448 -38.016 
L 345.43872 -38.016 
L 346.15296 -38.016 
L 346.8672 -38.016 
L 347.58144 -38.016 
L 348.29568 -38.016 
L 349.00992 -38.016 
L 349.72416 -38.016 
L 350.4384 -38.016 
L 351.15264 -38.016 
L 351.86688 -38.016 
L 352.58112 -38.016 
L 353.29536 -38.016 
L 354.0096 -38.016 
L 354.72384 -38.016 
L 355.43808 -38.016 
L 356.15232 -38.016 
L 356.86656 -38.016 
L 357.5808 -38.016 
L 358.29504 -38.016 
L 359.00928 -38.016 
L 359.72352 -38.016 
L 360.43776 -38.016 
L 361.152 -38.016 
L 361.86624 -38.016 
L 362.58048 -38.016 
L 363.29472 -38.016 
L 364.00896 -38.016 
L 364.7232 -38.016 
L 365.43744 -38.016 
L 366.15168 -38.016 
L 366.86592 -38.016 
L 367.58016 -38.016 
L 368.2944 -38.016 
L 369.00864 -38.016 
L 369.72288 -38.016 
L 370.43712 -38.016 
L 371.15136 -38.016 
L 371.8656 -38.016 
L 372.57984 -38.016 
L 373.29408 -38.016 
L 374.00832 -38.016 
L 374.72256 -38.016 
L 375.4368 -38.016 
L 376.15104 -38.016 
L 376.86528 -38.016 
L 377.57952 -38.016 
L 378.29376 -38.016 
L 379.008 -38.016 
L 379.72224 -38.016 
L 380.43648 -38.016 
L 381.15072 -38.016 
L 381.86496 -38.016 
L 382.5792 -38.016 
L 383.29344 -38.016 
L 384.00768 -38.016 
L 384.72192 -38.016 
L 385.43616 -38.016 
L 386.1504 -38.016 
L 386.86464 -38.016 
L 387.57888 -38.016 
L 388.29312 -38.016 
L 389.00736 -38.016 
L 389.7216 -38.016 
L 390.43584 -38.016 
L 391.15008 -38.016 
L 391.86432 -38.016 
L 392.57856 -38.016 
L 393.2928 -38.016 
L 394.00704 -38.016 
L 394.72128 -38.016 
L 395.43552 -38.016 
L 396.14976 -38.016 
L 396.864 -38.016 
L 397.57824 -38.016 
L 398.29248 -38.016 
L 399.00672 -38.016 
L 399.72096 -38.016 
L 400.4352 -38.016 
L 401.14944 -38.016 
L 401.86368 -38.016 
L 402.57792 -38.016 
L 403.29216 -38.016 
L 404.0064 -38.016 
L 404.72064 -38.016 
L 405.43488 -38.016 
L 406.14912 -38.016 
L 406.86336 -38.016 
L 407.5776 -38.016 
L 408.29184 -38.016 
L 409.00608 -38.016 
L 409.72032 -38.016 
L 410.43456 -38.016 
L 411.1488 -38.016 
L 411.86304 -38.016 
L 412.57728 -38.016 
L 413.29152 -38.016 
L 414.00576 -38.016 
L 414.72 -38.016 
L 414.72 -38.016 
L 414.72 -38.016 
L 414.00576 -38.016 
L 413.29152 -38.016 
L 412.57728 -38.016 
L 411.86304 -38.016 
L 411.1488 -38.016 
L 410.43456 -38.016 
L 409.72032 -38.016 
L 409.00608 -38.016 
L 408.29184 -38.016 
L 407.5776 -38.016 
L 406.86336 -38.016 
L 406.14912 -38.016 
L 405.43488 -38.016 
L 404.72064 -38.016 
L 404.0064 -38.016 
L 403.29216 -38.016 
L 402.57792 -38.016 
L 401.86368 -38.016 
L 401.14944 -38.016 
L 400.4352 -38.016 
L 399.72096 -38.016 
L 399.00672 -38.016 
L 398.29248 -38.016 
L 397.57824 -38.016 
L 396.864 -38.016 
L 396.14976 -38.016 
L 395.43552 -38.016 
L 394.72128 -38.016 
L 394.00704 -38.016 
L 393.2928 -38.016 
L 392.57856 -38.016 
L 391.86432 -38.016 
L 391.15008 -38.016 
L 390.43584 -38.016 
L 389.7216 -38.016 
L 389.00736 -38.016 
L 388.29312 -38.016 
L 387.57888 -38.016 
L 386.86464 -38.016 
L 386.1504 -38.016 
L 385.43616 -38.016 
L 384.72192 -38.016 
L 384.00768 -38.016 
L 383.29344 -38.016 
L 382.5792 -38.016 
L 381.86496 -38.016 
L 381.15072 -38.016 
L 380.43648 -38.016 
L 379.72224 -38.016 
L 379.008 -38.016 
L 378.29376 -38.016 
L 377.57952 -38.016 
L 376.86528 -38.016 
L 376.15104 -38.016 
L 375.4368 -38.016 
L 374.72256 -38.016 
L 374.00832 -38.016 
L 373.29408 -38.016 
L 372.57984 -38.016 
L 371.8656 -38.016 
L 371.15136 -38.016 
L 370.43712 -38.016 
L 369.72288 -38.016 
L 369.00864 -38.016 
L 368.2944 -38.016 
L 367.58016 -38.016 
L 366.86592 -38.016 
L 366.15168 -38.016 
L 365.43744 -38.016 
L 364.7232 -38.016 
L 364.00896 -38.016 
L 363.29472 -38.016 
L 362.58048 -38.016 
L 361.86624 -38.016 
L 361.152 -38.016 
L 360.43776 -38.016 
L 359.72352 -38.016 
L 359.00928 -38.016 
L 358.29504 -38.016 
L 357.5808 -38.016 
L 356.86656 -38.016 
L 356.15232 -38.016 
L 355.43808 -38.016 
L 354.72384 -38.016 
L 354.0096 -38.016 
L 353.29536 -38.016 
L 352.58112 -38.016 
L 351.86688 -38.016 
L 351.15264 -38.016 
L 350.4384 -38.016 
L 349.72416 -38.016 
L 349.00992 -38.016 
L 348.29568 -38.016 
L 347.58144 -38.016 
L 346.8672 -38.016 
L 346.15296 -38.016 
L 345.43872 -38.016 
L 344.72448 -38.016 
L 344.01024 -38.016 
L 343.296 -38.016 
L 342.58176 -38.016 
L 341.86752 -38.016 
L 341.15328 -38.016 
L 340.43904 -38.016 
L 339.7248 -38.016 
L 339.01056 -38.016 
L 338.29632 -38.016 
L 337.58208 -38.016 
L 336.86784 -38.016 
L 336.1536 -38.016 
L 335.43936 -38.016 
L 334.72512 -38.016 
L 334.01088 -38.016 
L 333.29664 -38.016 
L 332.5824 -38.016 
L 331.86816 -38.016 
L 331.15392 -38.016 
L 330.43968 -38.016001 
L 329.72544 -38.016001 
L 329.0112 -38.016001 
L 328.29696 -38.016001 
L 327.58272 -38.016002 
L 326.86848 -38.016002 
L 326.15424 -38.016003 
L 325.44 -38.016004 
L 324.72576 -38.016005 
L 324.01152 -38.016007 
L 323.29728 -38.016009 
L 322.58304 -38.016012 
L 321.8688 -38.016016 
L 321.15456 -38.016021 
L 320.44032 -38.016027 
L 319.72608 -38.016035 
L 319.01184 -38.016046 
L 318.2976 -38.01606 
L 317.58336 -38.016077 
L 316.86912 -38.0161 
L 316.15488 -38.016128 
L 315.44064 -38.016165 
L 314.7264 -38.016213 
L 314.01216 -38.016273 
L 313.29792 -38.01635 
L 312.58368 -38.016448 
L 311.86944 -38.016572 
L 311.1552 -38.01673 
L 310.44096 -38.01693 
L 309.72672 -38.017182 
L 309.01248 -38.017501 
L 308.29824 -38.017903 
L 307.584 -38.018408 
L 306.86976 -38.019042 
L 306.15552 -38.019836 
L 305.44128 -38.020831 
L 304.72704 -38.022073 
L 304.0128 -38.023621 
L 303.29856 -38.025549 
L 302.58432 -38.027943 
L 301.87008 -38.030912 
L 301.15584 -38.034588 
L 300.4416 -38.039129 
L 299.72736 -38.04473 
L 299.01312 -38.051624 
L 298.29888 -38.060095 
L 297.58464 -38.070482 
L 296.8704 -38.083194 
L 296.15616 -38.098721 
L 295.44192 -38.117649 
L 294.72768 -38.140675 
L 294.01344 -38.168629 
L 293.2992 -38.202496 
L 292.58496 -38.243437 
L 291.87072 -38.292824 
L 291.15648 -38.352267 
L 290.44224 -38.423654 
L 289.728 -38.509187 
L 289.01376 -38.611431 
L 288.29952 -38.733356 
L 287.58528 -38.878396 
L 286.87104 -39.050501 
L 286.1568 -39.254194 
L 285.44256 -39.494637 
L 284.72832 -39.777694 
L 284.01408 -40.109986 
L 283.29984 -40.498961 
L 282.5856 -40.952944 
L 281.87136 -41.481188 
L 281.15712 -42.093914 
L 280.44288 -42.802332 
L 279.72864 -43.618651 
L 279.0144 -44.556059 
L 278.30016 -45.628678 
L 277.58592 -46.851486 
L 276.87168 -48.240198 
L 276.15744 -49.811108 
L 275.4432 -51.580876 
L 274.72896 -53.56628 
L 274.01472 -55.783897 
L 273.30048 -58.249753 
L 272.58624 -60.978917 
L 271.872 -63.985053 
L 271.15776 -67.279955 
L 270.44352 -70.873053 
L 269.72928 -74.770928 
L 269.01504 -78.976845 
L 268.3008 -83.490334 
L 267.58656 -88.306832 
L 266.87232 -93.417424 
L 266.15808 -98.808688 
L 265.44384 -104.462676 
L 264.7296 -110.357039 
L 264.01536 -116.4653 
L 263.30112 -122.757269 
L 262.58688 -129.199603 
L 261.87264 -135.756475 
L 261.1584 -142.390334 
L 260.44416 -149.062726 
L 259.72992 -155.735129 
L 259.01568 -162.369778 
L 258.30144 -168.930432 
L 257.5872 -175.383066 
L 256.87296 -181.696454 
L 256.15872 -187.842625 
L 255.44448 -193.797195 
L 254.73024 -199.539564 
L 254.016 -205.052981 
L 253.30176 -210.324505 
L 252.58752 -215.344861 
L 251.87328 -220.10822 
L 251.15904 -224.611914 
L 250.4448 -228.856118 
L 249.73056 -232.843497 
L 249.01632 -236.578857 
L 248.30208 -240.068788 
L 247.58784 -243.321333 
L 246.8736 -246.345668 
L 246.15936 -249.15182 
L 245.44512 -251.750404 
L 244.73088 -254.152403 
L 244.01664 -256.368969 
L 243.3024 -258.411262 
L 242.58816 -260.290312 
L 241.87392 -262.01691 
L 241.15968 -263.601521 
L 240.44544 -265.054219 
L 239.7312 -266.384637 
L 239.01696 -267.601938 
L 238.30272 -268.714788 
L 237.58848 -269.731355 
L 236.87424 -270.659303 
L 236.16 -271.505797 
L 235.44576 -272.277522 
L 234.73152 -272.980689 
L 234.01728 -273.621061 
L 233.30304 -274.203971 
L 232.5888 -274.734346 
L 231.87456 -275.216728 
L 231.16032 -275.655298 
L 230.44608 -276.053898 
L 229.73184 -276.416057 
L 229.0176 -276.745011 
L 228.30336 -277.043722 
L 227.58912 -277.314903 
L 226.87488 -277.561032 
L 226.16064 -277.784375 
L 225.4464 -277.986998 
L 224.73216 -278.170789 
L 224.01792 -278.337466 
L 223.30368 -278.488598 
L 222.58944 -278.625612 
L 221.8752 -278.749806 
L 221.16096 -278.862364 
L 220.44672 -278.964361 
L 219.73248 -279.056776 
L 219.01824 -279.140496 
L 218.304 -279.216332 
L 217.58976 -279.285015 
L 216.87552 -279.347215 
L 216.16128 -279.403535 
L 215.44704 -279.454525 
L 214.7328 -279.500686 
L 214.01856 -279.542468 
L 213.30432 -279.580284 
L 212.59008 -279.614506 
L 211.87584 -279.645472 
L 211.1616 -279.673489 
L 210.44736 -279.698835 
L 209.73312 -279.721762 
L 209.01888 -279.742498 
L 208.30464 -279.761251 
L 207.5904 -279.778208 
L 206.87616 -279.79354 
L 206.16192 -279.8074 
L 205.44768 -279.819929 
L 204.73344 -279.831253 
L 204.0192 -279.841487 
L 203.30496 -279.850735 
L 202.59072 -279.859089 
L 201.87648 -279.866637 
L 201.16224 -279.873454 
L 200.448 -279.879611 
L 199.73376 -279.885171 
L 199.01952 -279.890191 
L 198.30528 -279.894723 
L 197.59104 -279.898813 
L 196.8768 -279.902505 
L 196.16256 -279.905836 
L 195.44832 -279.908841 
L 194.73408 -279.911553 
L 194.01984 -279.913998 
L 193.3056 -279.916203 
L 192.59136 -279.918191 
L 191.87712 -279.919983 
L 191.16288 -279.921598 
L 190.44864 -279.923054 
L 189.7344 -279.924365 
L 189.02016 -279.925546 
L 188.30592 -279.92661 
L 187.59168 -279.927568 
L 186.87744 -279.92843 
L 186.1632 -279.929206 
L 185.44896 -279.929904 
L 184.73472 -279.930532 
L 184.02048 -279.931097 
L 183.30624 -279.931605 
L 182.592 -279.932062 
L 181.87776 -279.932472 
L 181.16352 -279.932841 
L 180.44928 -279.933172 
L 179.73504 -279.933469 
L 179.0208 -279.933736 
L 178.30656 -279.933976 
L 177.59232 -279.93419 
L 176.87808 -279.934383 
L 176.16384 -279.934556 
L 175.4496 -279.934711 
L 174.73536 -279.934849 
L 174.02112 -279.934974 
L 173.30688 -279.935085 
L 172.59264 -279.935184 
L 171.8784 -279.935274 
L 171.16416 -279.935353 
L 170.44992 -279.935424 
L 169.73568 -279.935488 
L 169.02144 -279.935545 
L 168.3072 -279.935596 
L 167.59296 -279.935641 
L 166.87872 -279.935681 
L 166.16448 -279.935717 
L 165.45024 -279.935749 
L 164.736 -279.935778 
L 164.02176 -279.935803 
L 163.30752 -279.935826 
L 162.59328 -279.935846 
L 161.87904 -279.935864 
L 161.1648 -279.93588 
L 160.45056 -279.935894 
L 159.73632 -279.935906 
L 159.02208 -279.935917 
L 158.30784 -279.935927 
L 157.5936 -279.935936 
L 156.87936 -279.935944 
L 156.16512 -279.93595 
L 155.45088 -279.935956 
L 154.73664 -279.935962 
L 154.0224 -279.935966 
L 153.30816 -279.935971 
L 152.59392 -279.935974 
L 151.87968 -279.935977 
L 151.16544 -279.93598 
L 150.4512 -279.935983 
L 149.73696 -279.935985 
L 149.02272 -279.935987 
L 148.30848 -279.935989 
L 147.59424 -279.93599 
L 146.88 -279.935991 
L 146.16576 -279.935992 
L 145.45152 -279.935993 
L 144.73728 -279.935994 
L 144.02304 -279.935995 
L 143.3088 -279.935996 
L 142.59456 -279.935996 
L 141.88032 -279.935997 
L 141.16608 -279.935997 
L 140.45184 -279.935998 
L 139.7376 -279.935998 
L 139.02336 -279.935998 
L 138.30912 -279.935999 
L 137.59488 -279.935999 
L 136.88064 -279.935999 
L 136.1664 -279.935999 
L 135.45216 -279.935999 
L 134.73792 -279.935999 
L 134.02368 -279.935999 
L 133.30944 -279.936 
L 132.5952 -279.936 
L 131.88096 -279.936 
L 131.16672 -279.936 
L 130.45248 -279.936 
L 129.73824 -279.936 
L 129.024 -279.936 
L 128.30976 -279.936 
L 127.59552 -279.936 
L 126.88128 -279.936 
L 126.16704 -279.936 
L 125.4528 -279.936 
L 124.73856 -279.936 
L 124.02432 -279.936 
L 123.31008 -279.936 
L 122.59584 -279.936 
L 121.8816 -279.936 
L 121.16736 -279.936 
L 120.45312 -279.936 
L 119.73888 -279.936 
L 119.02464 -279.936 
L 118.3104 -279.936 
L 117.59616 -279.936 
L 116.88192 -279.936 
L 116.16768 -279.936 
L 115.45344 -279.936 
L 114.7392 -279.936 
L 114.02496 -279.936 
L 113.31072 -279.936 
L 112.59648 -279.936 
L 111.88224 -279.936 
L 111.168 -279.936 
L 110.45376 -279.936 
L 109.73952 -279.936 
L 109.02528 -279.936 
L 108.31104 -279.936 
L 107.5968 -279.936 
L 106.88256 -279.936 
L 106.16832 -279.936 
L 105.45408 -279.936 
L 104.73984 -279.936 
L 104.0256 -279.936 
L 103.31136 -279.936 
L 102.59712 -279.936 
L 101.88288 -279.936 
L 101.16864 -279.936 
L 100.4544 -279.936 
L 99.74016 -279.936 
L 99.02592 -279.936 
L 98.31168 -279.936 
L 97.59744 -279.936 
L 96.8832 -279.936 
L 96.16896 -279.936 
L 95.45472 -279.936 
L 94.74048 -279.936 
L 94.02624 -279.936 
L 93.312 -279.936 
L 92.59776 -279.936 
L 91.88352 -279.936 
L 91.16928 -279.936 
L 90.45504 -279.936 
L 89.7408 -279.936 
L 89.02656 -279.936 
L 88.31232 -279.936 
L 87.59808 -279.936 
L 86.88384 -279.936 
L 86.1696 -279.936 
L 85.45536 -279.936 
L 84.74112 -279.936 
L 84.02688 -279.936 
L 83.31264 -279.936 
L 82.5984 -279.936 
L 81.88416 -279.936 
L 81.16992 -279.936 
L 80.45568 -279.936 
L 79.74144 -279.936 
L 79.0272 -279.936 
L 78.31296 -279.936 
L 77.59872 -279.936 
L 76.88448 -279.936 
L 76.17024 -279.936 
L 75.456 -279.936 
L 74.74176 -279.936 
L 74.02752 -279.936 
L 73.31328 -279.936 
L 72.59904 -279.936 
L 71.8848 -279.936 
L 71.17056 -279.936 
L 70.45632 -279.936 
L 69.74208 -279.936 
L 69.02784 -279.936 
L 68.3136 -279.936 
L 67.59936 -279.936 
L 66.88512 -279.936 
L 66.17088 -279.936 
L 65.45664 -279.936 
L 64.7424 -279.936 
L 64.02816 -279.936 
L 63.31392 -279.936 
L 62.59968 -279.936 
L 61.88544 -279.936 
L 61.1712 -279.936 
L 60.45696 -279.936 
L 59.74272 -279.936 
L 59.02848 -279.936 
L 58.31424 -279.936 
L 57.6 -279.936 
z
" id="m15088d34c8" style="stroke:#afe88e;"/>
    </defs>
    <g clip-path="url(#p1723b1041c)">
     <use style="fill:#afe88e;stroke:#afe88e;" x="0" xlink:href="#m15088d34c8" y="345.6"/>
    </g>
   </g>
   <g id="line2d_1">
    <path clip-path="url(#p1723b1041c)" d="M 57.6 65.664 
L 204.73344 65.768747 
L 212.59008 65.985494 
L 217.58976 66.314985 
L 221.16096 66.737636 
L 224.01792 67.262534 
L 226.87488 68.038968 
L 229.0176 68.854989 
L 231.16032 69.944702 
L 232.5888 70.865654 
L 234.01728 71.978939 
L 235.44576 73.322478 
L 236.87424 74.940697 
L 238.30272 76.885212 
L 239.7312 79.215363 
L 241.15968 81.998479 
L 242.58816 85.309688 
L 244.01664 89.231031 
L 245.44512 93.849596 
L 246.8736 99.254332 
L 248.30208 105.531212 
L 249.73056 112.756503 
L 251.15904 120.988086 
L 252.58752 130.255139 
L 254.73024 146.060436 
L 256.87296 163.903546 
L 259.72992 189.864871 
L 264.01536 229.1347 
L 266.15808 246.791312 
L 267.58656 257.293168 
L 269.01504 266.623155 
L 270.44352 274.726947 
L 271.872 281.614947 
L 273.30048 287.350247 
L 274.72896 292.03372 
L 276.15744 295.788892 
L 277.58592 298.748514 
L 279.0144 301.043941 
L 280.44288 302.797668 
L 281.87136 304.118812 
L 283.29984 305.101039 
L 284.72832 305.822306 
L 286.1568 306.345806 
L 288.29952 306.866644 
L 291.15648 307.247733 
L 294.72768 307.459325 
L 301.15584 307.565412 
L 326.15424 307.583997 
L 414.72 307.584 
L 414.72 307.584 
" style="fill:none;stroke:#000000;stroke-linecap:square;stroke-width:0.7;"/>
   </g>
   <g id="patch_3">
    <path d="M 57.6 307.584 
L 57.6 41.472 
" style="fill:none;stroke:#000000;stroke-linecap:square;stroke-linejoin:miter;stroke-width:0.8;"/>
   </g>
   <g id="patch_4">
    <path d="M 414.72 307.584 
L 414.72 41.472 
" style="fill:none;stroke:#000000;stroke-linecap:square;stroke-linejoin:miter;stroke-width:0.8;"/>
   </g>
   <g id="patch_5">
    <path d="M 57.6 307.584 
L 414.72 307.584 
" style="fill:none;stroke:#000000;stroke-linecap:square;stroke-linejoin:miter;stroke-width:0.8;"/>
   </g>
   <g id="patch_6">
    <path d="M 57.6 41.472 
L 414.72 41.472 
" style="fill:none;stroke:#000000;stroke-linecap:square;stroke-linejoin:miter;stroke-width:0.8;"/>
   </g>
   <g id="legend_1">
    <g id="patch_7">
     <path d="M 91.90611 34.09119 
L 246.68736 34.09119 
Q 249.08736 34.09119 249.08736 31.69119 
L 249.08736 15.27744 
Q 249.08736 12.87744 246.68736 12.87744 
L 91.90611 12.87744 
Q 89.50611 12.87744 89.50611 15.27744 
L 89.50611 31.69119 
Q 89.50611 34.09119 91.90611 34.09119 
z
" style="fill:#ffffff;opacity:0.8;stroke:#cccccc;stroke-linejoin:miter;"/>
    </g>
    <g id="patch_8">
     <path d="M 94.30611 26.795565 
L 118.30611 26.795565 
L 118.30611 18.395565 
L 94.30611 18.395565 
z
" style="fill:#509369;stroke:#509369;stroke-linejoin:miter;"/>
    </g>
    <g id="text_1">
     <!-- back -->
     <g transform="translate(127.90611 26.795565)scale(0.12 -0.12)">
      <defs>
       <path d="M 11.53125 5.171875 
L 11.53125 70.796875 
L 2.875 70.796875 
L 2.875 75.984375 
L 20.515625 75.984375 
L 20.515625 43.796875 
Q 23.140625 48.6875 27.21875 51 
Q 31.296875 53.328125 37.3125 53.328125 
Q 46.875 53.328125 52.921875 45.75 
Q 58.984375 38.1875 58.984375 25.984375 
Q 58.984375 13.765625 52.921875 6.171875 
Q 46.875 -1.421875 37.3125 -1.421875 
Q 31.296875 -1.421875 27.21875 0.890625 
Q 23.140625 3.21875 20.515625 8.109375 
L 20.515625 0 
L 2.875 0 
L 2.875 5.171875 
z
M 20.515625 23.390625 
Q 20.515625 14.015625 24.09375 9.109375 
Q 27.6875 4.203125 34.515625 4.203125 
Q 41.40625 4.203125 44.9375 9.71875 
Q 48.484375 15.234375 48.484375 25.984375 
Q 48.484375 36.765625 44.9375 42.234375 
Q 41.40625 47.703125 34.515625 47.703125 
Q 27.6875 47.703125 24.09375 42.765625 
Q 20.515625 37.84375 20.515625 28.515625 
z
" id="DejaVuSerif-98"/>
       <path d="M 39.796875 16.3125 
L 39.796875 27.296875 
L 28.21875 27.296875 
Q 21.53125 27.296875 18.25 24.40625 
Q 14.984375 21.53125 14.984375 15.578125 
Q 14.984375 10.15625 18.296875 6.984375 
Q 21.625 3.8125 27.296875 3.8125 
Q 32.90625 3.8125 36.34375 7.28125 
Q 39.796875 10.75 39.796875 16.3125 
z
M 48.78125 32.421875 
L 48.78125 5.171875 
L 56.78125 5.171875 
L 56.78125 0 
L 39.796875 0 
L 39.796875 5.609375 
Q 36.8125 2 32.90625 0.28125 
Q 29 -1.421875 23.78125 -1.421875 
Q 15.140625 -1.421875 10.0625 3.171875 
Q 4.984375 7.765625 4.984375 15.578125 
Q 4.984375 23.640625 10.796875 28.078125 
Q 16.609375 32.515625 27.203125 32.515625 
L 39.796875 32.515625 
L 39.796875 36.078125 
Q 39.796875 42 36.203125 45.234375 
Q 32.625 48.484375 26.125 48.484375 
Q 20.75 48.484375 17.578125 46.046875 
Q 14.40625 43.609375 13.625 38.8125 
L 8.984375 38.8125 
L 8.984375 49.3125 
Q 13.671875 51.3125 18.09375 52.3125 
Q 22.515625 53.328125 26.703125 53.328125 
Q 37.5 53.328125 43.140625 47.96875 
Q 48.78125 42.625 48.78125 32.421875 
z
" id="DejaVuSerif-97"/>
       <path d="M 51.421875 15.578125 
Q 49.515625 7.28125 44.09375 2.921875 
Q 38.671875 -1.421875 30.078125 -1.421875 
Q 18.75 -1.421875 11.859375 6.078125 
Q 4.984375 13.578125 4.984375 25.984375 
Q 4.984375 38.421875 11.859375 45.875 
Q 18.75 53.328125 30.078125 53.328125 
Q 35.015625 53.328125 39.890625 52.171875 
Q 44.78125 51.03125 49.703125 48.6875 
L 49.703125 35.40625 
L 44.484375 35.40625 
Q 43.453125 42.234375 40.015625 45.359375 
Q 36.578125 48.484375 30.171875 48.484375 
Q 22.90625 48.484375 19.1875 42.84375 
Q 15.484375 37.203125 15.484375 25.984375 
Q 15.484375 14.75 19.171875 9.078125 
Q 22.859375 3.421875 30.171875 3.421875 
Q 35.984375 3.421875 39.453125 6.4375 
Q 42.921875 9.46875 44.1875 15.578125 
z
" id="DejaVuSerif-99"/>
       <path d="M 28.609375 0 
L 3.421875 0 
L 3.421875 5.171875 
L 11.53125 5.171875 
L 11.53125 70.796875 
L 2.875 70.796875 
L 2.875 75.984375 
L 20.515625 75.984375 
L 20.515625 26.515625 
L 42.390625 46.6875 
L 34.90625 46.6875 
L 34.90625 51.90625 
L 58.40625 51.90625 
L 58.40625 46.6875 
L 49.515625 46.6875 
L 34.078125 32.421875 
L 53.8125 5.171875 
L 61.28125 5.171875 
L 61.28125 0 
L 35.6875 0 
L 35.6875 5.171875 
L 43.109375 5.171875 
L 27.59375 26.515625 
L 20.515625 19.921875 
L 20.515625 5.171875 
L 28.609375 5.171875 
z
" id="DejaVuSerif-107"/>
      </defs>
      <use xlink:href="#DejaVuSerif-98"/>
      <use x="64.013672" xlink:href="#DejaVuSerif-97"/>
      <use x="123.632812" xlink:href="#DejaVuSerif-99"/>
      <use x="179.638672" xlink:href="#DejaVuSerif-107"/>
     </g>
    </g>
    <g id="patch_9">
     <path d="M 180.734235 26.795565 
L 204.734235 26.795565 
L 204.734235 18.395565 
L 180.734235 18.395565 
z
" style="fill:#afe88e;stroke:#afe88e;stroke-linejoin:miter;"/>
    </g>
    <g id="text_2">
     <!-- front -->
     <g transform="translate(214.334235 26.795565)scale(0.12 -0.12)">
      <defs>
       <path d="M 43.015625 63.71875 
L 38.28125 63.71875 
Q 38.234375 67.390625 36.203125 69.28125 
Q 34.1875 71.1875 30.328125 71.1875 
Q 25.296875 71.1875 23.234375 68.421875 
Q 21.1875 65.671875 21.1875 58.59375 
L 21.1875 51.90625 
L 35.6875 51.90625 
L 35.6875 46.6875 
L 21.1875 46.6875 
L 21.1875 5.171875 
L 32.71875 5.171875 
L 32.71875 0 
L 3.609375 0 
L 3.609375 5.171875 
L 12.203125 5.171875 
L 12.203125 46.6875 
L 3.609375 46.6875 
L 3.609375 51.90625 
L 12.203125 51.90625 
L 12.203125 58.40625 
Q 12.203125 67.09375 16.71875 71.53125 
Q 21.234375 75.984375 29.984375 75.984375 
Q 33.25 75.984375 36.515625 75.390625 
Q 39.796875 74.8125 43.015625 73.578125 
z
" id="DejaVuSerif-102"/>
       <path d="M 47.796875 52 
L 47.796875 39.015625 
L 42.625 39.015625 
Q 42.390625 42.875 40.484375 44.78125 
Q 38.578125 46.6875 34.90625 46.6875 
Q 28.265625 46.6875 24.71875 42.09375 
Q 21.1875 37.5 21.1875 28.90625 
L 21.1875 5.171875 
L 31.59375 5.171875 
L 31.59375 0 
L 4.109375 0 
L 4.109375 5.171875 
L 12.203125 5.171875 
L 12.203125 46.78125 
L 3.609375 46.78125 
L 3.609375 51.90625 
L 21.1875 51.90625 
L 21.1875 42.671875 
Q 23.828125 48.09375 27.96875 50.703125 
Q 32.125 53.328125 38.09375 53.328125 
Q 40.28125 53.328125 42.703125 52.984375 
Q 45.125 52.640625 47.796875 52 
z
" id="DejaVuSerif-114"/>
       <path d="M 30.078125 3.421875 
Q 37.3125 3.421875 40.984375 9.125 
Q 44.671875 14.84375 44.671875 25.984375 
Q 44.671875 37.109375 40.984375 42.796875 
Q 37.3125 48.484375 30.078125 48.484375 
Q 22.859375 48.484375 19.171875 42.796875 
Q 15.484375 37.109375 15.484375 25.984375 
Q 15.484375 14.84375 19.1875 9.125 
Q 22.90625 3.421875 30.078125 3.421875 
z
M 30.078125 -1.421875 
Q 18.75 -1.421875 11.859375 6.078125 
Q 4.984375 13.578125 4.984375 25.984375 
Q 4.984375 38.375 11.84375 45.84375 
Q 18.703125 53.328125 30.078125 53.328125 
Q 41.453125 53.328125 48.3125 45.84375 
Q 55.171875 38.375 55.171875 25.984375 
Q 55.171875 13.578125 48.3125 6.078125 
Q 41.453125 -1.421875 30.078125 -1.421875 
z
" id="DejaVuSerif-111"/>
       <path d="M 4.109375 0 
L 4.109375 5.171875 
L 12.203125 5.171875 
L 12.203125 46.6875 
L 3.609375 46.6875 
L 3.609375 51.90625 
L 21.1875 51.90625 
L 21.1875 42.671875 
Q 23.6875 47.953125 27.65625 50.640625 
Q 31.640625 53.328125 36.921875 53.328125 
Q 45.515625 53.328125 49.5625 48.390625 
Q 53.609375 43.453125 53.609375 33.015625 
L 53.609375 5.171875 
L 61.625 5.171875 
L 61.625 0 
L 36.8125 0 
L 36.8125 5.171875 
L 44.578125 5.171875 
L 44.578125 30.171875 
Q 44.578125 39.703125 42.234375 43.234375 
Q 39.890625 46.78125 33.984375 46.78125 
Q 27.734375 46.78125 24.453125 42.203125 
Q 21.1875 37.640625 21.1875 28.90625 
L 21.1875 5.171875 
L 29 5.171875 
L 29 0 
z
" id="DejaVuSerif-110"/>
       <path d="M 10.796875 46.6875 
L 2.875 46.6875 
L 2.875 51.90625 
L 10.796875 51.90625 
L 10.796875 68.015625 
L 19.828125 68.015625 
L 19.828125 51.90625 
L 36.71875 51.90625 
L 36.71875 46.6875 
L 19.828125 46.6875 
L 19.828125 13.71875 
Q 19.828125 7.125 21.09375 5.265625 
Q 22.359375 3.421875 25.78125 3.421875 
Q 29.296875 3.421875 30.90625 5.484375 
Q 32.515625 7.5625 32.625 12.203125 
L 39.40625 12.203125 
Q 39.015625 5.125 35.546875 1.84375 
Q 32.078125 -1.421875 25 -1.421875 
Q 17.234375 -1.421875 14.015625 2.015625 
Q 10.796875 5.46875 10.796875 13.71875 
z
" id="DejaVuSerif-116"/>
      </defs>
      <use xlink:href="#DejaVuSerif-102"/>
      <use x="37.011719" xlink:href="#DejaVuSerif-114"/>
      <use x="84.814453" xlink:href="#DejaVuSerif-111"/>
      <use x="145.019531" xlink:href="#DejaVuSerif-110"/>
      <use x="209.423828" xlink:href="#DejaVuSerif-116"/>
     </g>
    </g>
   </g>
  </g>
 </g>
 <defs>
  <clipPath id="p1723b1041c">
   <rect height="266.112" width="357.12" x="57.6" y="41.472"/>
  </clipPath>
 </defs>
</svg>
