<?xml version="1.0" encoding="utf-8" standalone="no"?>
<!DOCTYPE svg PUBLIC "-//W3C//DTD SVG 1.1//EN"
  "http://www.w3.org/Graphics/SVG/1.1/DTD/svg11.dtd">
<!-- Created with matplotlib (https://matplotlib.org/) -->
<svg height="345.6pt" version="1.1" viewBox="0 0 460.8 345.6" width="460.8pt" xmlns="http://www.w3.org/2000/svg" xmlns:xlink="http://www.w3.org/1999/xlink">
 <metadata>
  <rdf:RDF xmlns:cc="http://creativecommons.org/ns#" xmlns:dc="http://purl.org/dc/elements/1.1/" xmlns:rdf="http://www.w3.org/1999/02/22-rdf-syntax-ns#">
   <cc:Work>
    <dc:type rdf:resource="http://purl.org/dc/dcmitype/StillImage"/>
    <dc:date>2022-05-25T01:03:00.587387</dc:date>
    <dc:format>image/svg+xml</dc:format>
    <dc:creator>
     <cc:Agent>
      <dc:title>Matplotlib v3.3.4, https://matplotlib.org/</dc:title>
     </cc:Agent>
    </dc:creator>
   </cc:Work>
  </rdf:RDF>
 </metadata>
 <defs>
  <style type="text/css">*{stroke-linecap:butt;stroke-linejoin:round;}</style>
 </defs>
 <g id="figure_1">
  <g id="patch_1">
   <path d="M 0 345.6 
L 460.8 345.6 
L 460.8 0 
L 0 0 
z
" style="fill:#ffffff;"/>
  </g>
  <g id="axes_1">
   <g id="patch_2">
    <path d="M 57.6 307.584 
L 414.72 307.584 
L 414.72 41.472 
L 57.6 41.472 
z
" style="fill:#ffffff;"/>
   </g>
   <g id="PolyCollection_1">
    <defs>
     <path d="M 57.6 -38.016 
L 57.6 -279.936 
L 58.31424 -279.935991 
L 59.02848 -279.935972 
L 59.74272 -279.935944 
L 60.45696 -279.935906 
L 61.1712 -279.935857 
L 61.88544 -279.935796 
L 62.59968 -279.935724 
L 63.31392 -279.935637 
L 64.02816 -279.935536 
L 64.7424 -279.935419 
L 65.45664 -279.935284 
L 66.17088 -279.935129 
L 66.88512 -279.934951 
L 67.59936 -279.934749 
L 68.3136 -279.934519 
L 69.02784 -279.934258 
L 69.74208 -279.933963 
L 70.45632 -279.933629 
L 71.17056 -279.933253 
L 71.8848 -279.932828 
L 72.59904 -279.932349 
L 73.31328 -279.931811 
L 74.02752 -279.931206 
L 74.74176 -279.930527 
L 75.456 -279.929764 
L 76.17024 -279.92891 
L 76.88448 -279.927954 
L 77.59872 -279.926883 
L 78.31296 -279.925687 
L 79.0272 -279.92435 
L 79.74144 -279.922858 
L 80.45568 -279.921194 
L 81.16992 -279.91934 
L 81.88416 -279.917276 
L 82.5984 -279.914979 
L 83.31264 -279.912426 
L 84.02688 -279.90959 
L 84.74112 -279.906442 
L 85.45536 -279.902951 
L 86.1696 -279.899083 
L 86.88384 -279.8948 
L 87.59808 -279.890061 
L 88.31232 -279.884823 
L 89.02656 -279.879037 
L 89.7408 -279.872651 
L 90.45504 -279.865609 
L 91.16928 -279.857848 
L 91.88352 -279.849303 
L 92.59776 -279.839902 
L 93.312 -279.829567 
L 94.02624 -279.818215 
L 94.74048 -279.805755 
L 95.45472 -279.792091 
L 96.16896 -279.777117 
L 96.8832 -279.760722 
L 97.59744 -279.742784 
L 98.31168 -279.723174 
L 99.02592 -279.701754 
L 99.74016 -279.678374 
L 100.4544 -279.652877 
L 101.16864 -279.625092 
L 101.88288 -279.594838 
L 102.59712 -279.561923 
L 103.31136 -279.526139 
L 104.0256 -279.48727 
L 104.73984 -279.445081 
L 105.45408 -279.399326 
L 106.16832 -279.349744 
L 106.88256 -279.296056 
L 107.5968 -279.23797 
L 108.31104 -279.175175 
L 109.02528 -279.107343 
L 109.73952 -279.034129 
L 110.45376 -278.955169 
L 111.168 -278.870079 
L 111.88224 -278.778457 
L 112.59648 -278.679881 
L 113.31072 -278.573906 
L 114.02496 -278.460069 
L 114.7392 -278.337883 
L 115.45344 -278.206841 
L 116.16768 -278.066414 
L 116.88192 -277.916048 
L 117.59616 -277.75517 
L 118.3104 -277.58318 
L 119.02464 -277.399459 
L 119.73888 -277.203363 
L 120.45312 -276.994226 
L 121.16736 -276.771357 
L 121.8816 -276.534045 
L 122.59584 -276.281555 
L 123.31008 -276.013131 
L 124.02432 -275.727996 
L 124.73856 -275.425349 
L 125.4528 -275.104373 
L 126.16704 -274.764228 
L 126.88128 -274.404058 
L 127.59552 -274.022987 
L 128.30976 -273.620125 
L 129.024 -273.194566 
L 129.73824 -272.745388 
L 130.45248 -272.271661 
L 131.16672 -271.77244 
L 131.88096 -271.246774 
L 132.5952 -270.693703 
L 133.30944 -270.112264 
L 134.02368 -269.501488 
L 134.73792 -268.860407 
L 135.45216 -268.188056 
L 136.1664 -267.483471 
L 136.88064 -266.745697 
L 137.59488 -265.973785 
L 138.30912 -265.166802 
L 139.02336 -264.323828 
L 139.7376 -263.443959 
L 140.45184 -262.526314 
L 141.16608 -261.570035 
L 141.88032 -260.57429 
L 142.59456 -259.538279 
L 143.3088 -258.461233 
L 144.02304 -257.34242 
L 144.73728 -256.181148 
L 145.45152 -254.976769 
L 146.16576 -253.728678 
L 146.88 -252.436321 
L 147.59424 -251.099196 
L 148.30848 -249.716856 
L 149.02272 -248.288913 
L 149.73696 -246.81504 
L 150.4512 -245.294973 
L 151.16544 -243.728514 
L 151.87968 -242.115537 
L 152.59392 -240.455985 
L 153.30816 -238.749876 
L 154.0224 -236.997303 
L 154.73664 -235.198436 
L 155.45088 -233.353528 
L 156.16512 -231.462907 
L 156.87936 -229.526988 
L 157.5936 -227.546266 
L 158.30784 -225.521322 
L 159.02208 -223.452819 
L 159.73632 -221.341506 
L 160.45056 -219.188216 
L 161.1648 -216.993865 
L 161.87904 -214.759454 
L 162.59328 -212.486067 
L 163.30752 -210.174867 
L 164.02176 -207.827101 
L 164.736 -205.444091 
L 165.45024 -203.027236 
L 166.16448 -200.57801 
L 166.87872 -198.097959 
L 167.59296 -195.588696 
L 168.3072 -193.051901 
L 169.02144 -190.489316 
L 169.73568 -187.902743 
L 170.44992 -185.294036 
L 171.16416 -182.665105 
L 171.8784 -180.017903 
L 172.59264 -177.354426 
L 173.30688 -174.67671 
L 174.02112 -171.986823 
L 174.73536 -169.286863 
L 175.4496 -166.578949 
L 176.16384 -163.865222 
L 176.87808 -161.147834 
L 177.59232 -158.428947 
L 178.30656 -155.710727 
L 179.0208 -152.995335 
L 179.73504 -150.284929 
L 180.44928 -147.581652 
L 181.16352 -144.88763 
L 181.87776 -142.204969 
L 182.592 -139.535745 
L 183.30624 -136.882003 
L 184.02048 -134.245752 
L 184.73472 -131.628959 
L 185.44896 -129.033545 
L 186.1632 -126.461382 
L 186.87744 -123.914288 
L 187.59168 -121.394021 
L 188.30592 -118.902281 
L 189.02016 -116.440702 
L 189.7344 -114.01085 
L 190.44864 -111.61422 
L 191.16288 -109.252234 
L 191.87712 -106.926239 
L 192.59136 -104.637504 
L 193.3056 -102.387219 
L 194.01984 -100.176491 
L 194.73408 -98.006349 
L 195.44832 -95.877734 
L 196.16256 -93.791508 
L 196.8768 -91.748445 
L 197.59104 -89.749237 
L 198.30528 -87.794492 
L 199.01952 -85.884733 
L 199.73376 -84.020401 
L 200.448 -82.201855 
L 201.16224 -80.429374 
L 201.87648 -78.703154 
L 202.59072 -77.023318 
L 203.30496 -75.38991 
L 204.0192 -73.802899 
L 204.73344 -72.262186 
L 205.44768 -70.767599 
L 206.16192 -69.318899 
L 206.87616 -67.915785 
L 207.5904 -66.557892 
L 208.30464 -65.244797 
L 209.01888 -63.97602 
L 209.73312 -62.751031 
L 210.44736 -61.569246 
L 211.1616 -60.430038 
L 211.87584 -59.332733 
L 212.59008 -58.27662 
L 213.30432 -57.260949 
L 214.01856 -56.284936 
L 214.7328 -55.347765 
L 215.44704 -54.448595 
L 216.16128 -53.586559 
L 216.87552 -52.760768 
L 217.58976 -51.970315 
L 218.304 -51.214277 
L 219.01824 -50.491718 
L 219.73248 -49.801693 
L 220.44672 -49.143247 
L 221.16096 -48.515424 
L 221.8752 -47.917262 
L 222.58944 -47.347802 
L 223.30368 -46.806084 
L 224.01792 -46.291154 
L 224.73216 -45.802066 
L 225.4464 -45.337879 
L 226.16064 -44.897664 
L 226.87488 -44.480502 
L 227.58912 -44.08549 
L 228.30336 -43.711736 
L 229.0176 -43.358366 
L 229.73184 -43.024522 
L 230.44608 -42.709364 
L 231.16032 -42.412073 
L 231.87456 -42.131846 
L 232.5888 -41.867904 
L 233.30304 -41.619486 
L 234.01728 -41.385854 
L 234.73152 -41.166293 
L 235.44576 -40.960108 
L 236.16 -40.766628 
L 236.87424 -40.585205 
L 237.58848 -40.415212 
L 238.30272 -40.256045 
L 239.01696 -40.107124 
L 239.7312 -39.967891 
L 240.44544 -39.837809 
L 241.15968 -39.716364 
L 241.87392 -39.603064 
L 242.58816 -39.497438 
L 243.3024 -39.399035 
L 244.01664 -39.307425 
L 244.73088 -39.222199 
L 245.44512 -39.142967 
L 246.15936 -39.069357 
L 246.8736 -39.001018 
L 247.58784 -38.937613 
L 248.30208 -38.878827 
L 249.01632 -38.824358 
L 249.73056 -38.773922 
L 250.4448 -38.72725 
L 251.15904 -38.684089 
L 251.87328 -38.644199 
L 252.58752 -38.607356 
L 253.30176 -38.573346 
L 254.016 -38.541971 
L 254.73024 -38.513042 
L 255.44448 -38.486385 
L 256.15872 -38.461834 
L 256.87296 -38.439235 
L 257.5872 -38.418444 
L 258.30144 -38.399325 
L 259.01568 -38.381753 
L 259.72992 -38.36561 
L 260.44416 -38.350786 
L 261.1584 -38.337179 
L 261.87264 -38.324694 
L 262.58688 -38.313242 
L 263.30112 -38.302743 
L 264.01536 -38.293119 
L 264.7296 -38.284301 
L 265.44384 -38.276222 
L 266.15808 -38.268822 
L 266.87232 -38.262046 
L 267.58656 -38.255842 
L 268.3008 -38.250161 
L 269.01504 -38.244961 
L 269.72928 -38.240199 
L 270.44352 -38.23584 
L 271.15776 -38.231849 
L 271.872 -38.228194 
L 272.58624 -38.224846 
L 273.30048 -38.221778 
L 274.01472 -38.218966 
L 274.72896 -38.216388 
L 275.4432 -38.214022 
L 276.15744 -38.211851 
L 276.87168 -38.209857 
L 277.58592 -38.208024 
L 278.30016 -38.206339 
L 279.0144 -38.204786 
L 279.72864 -38.203356 
L 280.44288 -38.202036 
L 281.15712 -38.200818 
L 281.87136 -38.199691 
L 282.5856 -38.198648 
L 283.29984 -38.197681 
L 284.01408 -38.196782 
L 284.72832 -38.195947 
L 285.44256 -38.195169 
L 286.1568 -38.194443 
L 286.87104 -38.193765 
L 287.58528 -38.193129 
L 288.29952 -38.192533 
L 289.01376 -38.191973 
L 289.728 -38.191445 
L 290.44224 -38.190946 
L 291.15648 -38.190474 
L 291.87072 -38.190026 
L 292.58496 -38.189601 
L 293.2992 -38.189196 
L 294.01344 -38.188808 
L 294.72768 -38.188438 
L 295.44192 -38.188082 
L 296.15616 -38.187739 
L 296.8704 -38.187408 
L 297.58464 -38.187088 
L 298.29888 -38.186777 
L 299.01312 -38.186475 
L 299.72736 -38.186179 
L 300.4416 -38.18589 
L 301.15584 -38.185606 
L 301.87008 -38.185326 
L 302.58432 -38.185049 
L 303.29856 -38.184774 
L 304.0128 -38.1845 
L 304.72704 -38.184226 
L 305.44128 -38.183951 
L 306.15552 -38.183674 
L 306.86976 -38.183395 
L 307.584 -38.183111 
L 308.29824 -38.182822 
L 309.01248 -38.182526 
L 309.72672 -38.182223 
L 310.44096 -38.18191 
L 311.1552 -38.181587 
L 311.86944 -38.181251 
L 312.58368 -38.180901 
L 313.29792 -38.180536 
L 314.01216 -38.180152 
L 314.7264 -38.179749 
L 315.44064 -38.179324 
L 316.15488 -38.178874 
L 316.86912 -38.178396 
L 317.58336 -38.177889 
L 318.2976 -38.177348 
L 319.01184 -38.176771 
L 319.72608 -38.176154 
L 320.44032 -38.175492 
L 321.15456 -38.174783 
L 321.8688 -38.174022 
L 322.58304 -38.173204 
L 323.29728 -38.172324 
L 324.01152 -38.171377 
L 324.72576 -38.170357 
L 325.44 -38.169259 
L 326.15424 -38.168077 
L 326.86848 -38.166804 
L 327.58272 -38.165434 
L 328.29696 -38.16396 
L 329.0112 -38.162375 
L 329.72544 -38.160673 
L 330.43968 -38.158847 
L 331.15392 -38.15689 
L 331.86816 -38.154796 
L 332.5824 -38.152559 
L 333.29664 -38.150174 
L 334.01088 -38.147635 
L 334.72512 -38.14494 
L 335.43936 -38.142085 
L 336.1536 -38.139069 
L 336.86784 -38.135892 
L 337.58208 -38.132557 
L 338.29632 -38.129067 
L 339.01056 -38.125427 
L 339.7248 -38.121647 
L 340.43904 -38.117735 
L 341.15328 -38.113704 
L 341.86752 -38.10957 
L 342.58176 -38.105349 
L 343.296 -38.10106 
L 344.01024 -38.096722 
L 344.72448 -38.092359 
L 345.43872 -38.087993 
L 346.15296 -38.083647 
L 346.8672 -38.079345 
L 347.58144 -38.075109 
L 348.29568 -38.070961 
L 349.00992 -38.066923 
L 349.72416 -38.063013 
L 350.4384 -38.059248 
L 351.15264 -38.055643 
L 351.86688 -38.052209 
L 352.58112 -38.048957 
L 353.29536 -38.045892 
L 354.0096 -38.043019 
L 354.72384 -38.04034 
L 355.43808 -38.037854 
L 356.15232 -38.035557 
L 356.86656 -38.033447 
L 357.5808 -38.031515 
L 358.29504 -38.029756 
L 359.00928 -38.028159 
L 359.72352 -38.026717 
L 360.43776 -38.02542 
L 361.152 -38.024257 
L 361.86624 -38.023218 
L 362.58048 -38.022294 
L 363.29472 -38.021475 
L 364.00896 -38.02075 
L 364.7232 -38.020112 
L 365.43744 -38.019552 
L 366.15168 -38.019061 
L 366.86592 -38.018632 
L 367.58016 -38.018258 
L 368.2944 -38.017934 
L 369.00864 -38.017653 
L 369.72288 -38.01741 
L 370.43712 -38.017201 
L 371.15136 -38.017021 
L 371.8656 -38.016866 
L 372.57984 -38.016733 
L 373.29408 -38.01662 
L 374.00832 -38.016524 
L 374.72256 -38.016441 
L 375.4368 -38.016371 
L 376.15104 -38.016312 
L 376.86528 -38.016262 
L 377.57952 -38.016219 
L 378.29376 -38.016183 
L 379.008 -38.016153 
L 379.72224 -38.016128 
L 380.43648 -38.016107 
L 381.15072 -38.016089 
L 381.86496 -38.016074 
L 382.5792 -38.016061 
L 383.29344 -38.016051 
L 384.00768 -38.016042 
L 384.72192 -38.016035 
L 385.43616 -38.016029 
L 386.1504 -38.016024 
L 386.86464 -38.016019 
L 387.57888 -38.016016 
L 388.29312 -38.016013 
L 389.00736 -38.016011 
L 389.7216 -38.016009 
L 390.43584 -38.016007 
L 391.15008 -38.016006 
L 391.86432 -38.016005 
L 392.57856 -38.016004 
L 393.2928 -38.016003 
L 394.00704 -38.016003 
L 394.72128 -38.016002 
L 395.43552 -38.016002 
L 396.14976 -38.016001 
L 396.864 -38.016001 
L 397.57824 -38.016001 
L 398.29248 -38.016001 
L 399.00672 -38.016001 
L 399.72096 -38.016 
L 400.4352 -38.016 
L 401.14944 -38.016 
L 401.86368 -38.016 
L 402.57792 -38.016 
L 403.29216 -38.016 
L 404.0064 -38.016 
L 404.72064 -38.016 
L 405.43488 -38.016 
L 406.14912 -38.016 
L 406.86336 -38.016 
L 407.5776 -38.016 
L 408.29184 -38.016 
L 409.00608 -38.016 
L 409.72032 -38.016 
L 410.43456 -38.016 
L 411.1488 -38.016 
L 411.86304 -38.016 
L 412.57728 -38.016 
L 413.29152 -38.016 
L 414.00576 -38.016 
L 414.72 -38.016 
L 414.72 -38.016 
L 414.72 -38.016 
L 414.00576 -38.016 
L 413.29152 -38.016 
L 412.57728 -38.016 
L 411.86304 -38.016 
L 411.1488 -38.016 
L 410.43456 -38.016 
L 409.72032 -38.016 
L 409.00608 -38.016 
L 408.29184 -38.016 
L 407.5776 -38.016 
L 406.86336 -38.016 
L 406.14912 -38.016 
L 405.43488 -38.016 
L 404.72064 -38.016 
L 404.0064 -38.016 
L 403.29216 -38.016 
L 402.57792 -38.016 
L 401.86368 -38.016 
L 401.14944 -38.016 
L 400.4352 -38.016 
L 399.72096 -38.016 
L 399.00672 -38.016 
L 398.29248 -38.016 
L 397.57824 -38.016 
L 396.864 -38.016 
L 396.14976 -38.016 
L 395.43552 -38.016 
L 394.72128 -38.016 
L 394.00704 -38.016 
L 393.2928 -38.016 
L 392.57856 -38.016 
L 391.86432 -38.016 
L 391.15008 -38.016 
L 390.43584 -38.016 
L 389.7216 -38.016 
L 389.00736 -38.016 
L 388.29312 -38.016 
L 387.57888 -38.016 
L 386.86464 -38.016 
L 386.1504 -38.016 
L 385.43616 -38.016 
L 384.72192 -38.016 
L 384.00768 -38.016 
L 383.29344 -38.016 
L 382.5792 -38.016 
L 381.86496 -38.016 
L 381.15072 -38.016 
L 380.43648 -38.016 
L 379.72224 -38.016 
L 379.008 -38.016 
L 378.29376 -38.016 
L 377.57952 -38.016 
L 376.86528 -38.016 
L 376.15104 -38.016 
L 375.4368 -38.016 
L 374.72256 -38.016 
L 374.00832 -38.016 
L 373.29408 -38.016 
L 372.57984 -38.016 
L 371.8656 -38.016 
L 371.15136 -38.016 
L 370.43712 -38.016 
L 369.72288 -38.016 
L 369.00864 -38.016 
L 368.2944 -38.016 
L 367.58016 -38.016 
L 366.86592 -38.016 
L 366.15168 -38.016 
L 365.43744 -38.016 
L 364.7232 -38.016 
L 364.00896 -38.016 
L 363.29472 -38.016 
L 362.58048 -38.016 
L 361.86624 -38.016 
L 361.152 -38.016 
L 360.43776 -38.016 
L 359.72352 -38.016 
L 359.00928 -38.016 
L 358.29504 -38.016 
L 357.5808 -38.016 
L 356.86656 -38.016 
L 356.15232 -38.016 
L 355.43808 -38.016 
L 354.72384 -38.016 
L 354.0096 -38.016 
L 353.29536 -38.016 
L 352.58112 -38.016 
L 351.86688 -38.016 
L 351.15264 -38.016 
L 350.4384 -38.016 
L 349.72416 -38.016 
L 349.00992 -38.016 
L 348.29568 -38.016 
L 347.58144 -38.016 
L 346.8672 -38.016 
L 346.15296 -38.016 
L 345.43872 -38.016 
L 344.72448 -38.016 
L 344.01024 -38.016 
L 343.296 -38.016 
L 342.58176 -38.016 
L 341.86752 -38.016 
L 341.15328 -38.016 
L 340.43904 -38.016 
L 339.7248 -38.016 
L 339.01056 -38.016 
L 338.29632 -38.016 
L 337.58208 -38.016 
L 336.86784 -38.016 
L 336.1536 -38.016 
L 335.43936 -38.016 
L 334.72512 -38.016 
L 334.01088 -38.016 
L 333.29664 -38.016 
L 332.5824 -38.016 
L 331.86816 -38.016 
L 331.15392 -38.016 
L 330.43968 -38.016 
L 329.72544 -38.016 
L 329.0112 -38.016 
L 328.29696 -38.016 
L 327.58272 -38.016 
L 326.86848 -38.016 
L 326.15424 -38.016 
L 325.44 -38.016 
L 324.72576 -38.016 
L 324.01152 -38.016 
L 323.29728 -38.016 
L 322.58304 -38.016 
L 321.8688 -38.016 
L 321.15456 -38.016 
L 320.44032 -38.016 
L 319.72608 -38.016 
L 319.01184 -38.016 
L 318.2976 -38.016 
L 317.58336 -38.016 
L 316.86912 -38.016 
L 316.15488 -38.016 
L 315.44064 -38.016 
L 314.7264 -38.016 
L 314.01216 -38.016 
L 313.29792 -38.016 
L 312.58368 -38.016 
L 311.86944 -38.016 
L 311.1552 -38.016 
L 310.44096 -38.016 
L 309.72672 -38.016 
L 309.01248 -38.016 
L 308.29824 -38.016 
L 307.584 -38.016 
L 306.86976 -38.016 
L 306.15552 -38.016 
L 305.44128 -38.016 
L 304.72704 -38.016 
L 304.0128 -38.016 
L 303.29856 -38.016 
L 302.58432 -38.016 
L 301.87008 -38.016 
L 301.15584 -38.016 
L 300.4416 -38.016 
L 299.72736 -38.016 
L 299.01312 -38.016 
L 298.29888 -38.016 
L 297.58464 -38.016 
L 296.8704 -38.016 
L 296.15616 -38.016 
L 295.44192 -38.016 
L 294.72768 -38.016 
L 294.01344 -38.016 
L 293.2992 -38.016 
L 292.58496 -38.016 
L 291.87072 -38.016 
L 291.15648 -38.016 
L 290.44224 -38.016 
L 289.728 -38.016 
L 289.01376 -38.016 
L 288.29952 -38.016 
L 287.58528 -38.016 
L 286.87104 -38.016 
L 286.1568 -38.016 
L 285.44256 -38.016 
L 284.72832 -38.016 
L 284.01408 -38.016 
L 283.29984 -38.016 
L 282.5856 -38.016 
L 281.87136 -38.016 
L 281.15712 -38.016 
L 280.44288 -38.016 
L 279.72864 -38.016 
L 279.0144 -38.016 
L 278.30016 -38.016 
L 277.58592 -38.016 
L 276.87168 -38.016 
L 276.15744 -38.016 
L 275.4432 -38.016 
L 274.72896 -38.016 
L 274.01472 -38.016 
L 273.30048 -38.016 
L 272.58624 -38.016 
L 271.872 -38.016 
L 271.15776 -38.016 
L 270.44352 -38.016 
L 269.72928 -38.016 
L 269.01504 -38.016 
L 268.3008 -38.016 
L 267.58656 -38.016 
L 266.87232 -38.016 
L 266.15808 -38.016 
L 265.44384 -38.016 
L 264.7296 -38.016 
L 264.01536 -38.016 
L 263.30112 -38.016 
L 262.58688 -38.016 
L 261.87264 -38.016 
L 261.1584 -38.016 
L 260.44416 -38.016 
L 259.72992 -38.016 
L 259.01568 -38.016 
L 258.30144 -38.016 
L 257.5872 -38.016 
L 256.87296 -38.016 
L 256.15872 -38.016 
L 255.44448 -38.016 
L 254.73024 -38.016 
L 254.016 -38.016 
L 253.30176 -38.016 
L 252.58752 -38.016 
L 251.87328 -38.016 
L 251.15904 -38.016 
L 250.4448 -38.016 
L 249.73056 -38.016 
L 249.01632 -38.016 
L 248.30208 -38.016 
L 247.58784 -38.016 
L 246.8736 -38.016 
L 246.15936 -38.016 
L 245.44512 -38.016 
L 244.73088 -38.016 
L 244.01664 -38.016 
L 243.3024 -38.016 
L 242.58816 -38.016 
L 241.87392 -38.016 
L 241.15968 -38.016 
L 240.44544 -38.016 
L 239.7312 -38.016 
L 239.01696 -38.016 
L 238.30272 -38.016 
L 237.58848 -38.016 
L 236.87424 -38.016 
L 236.16 -38.016 
L 235.44576 -38.016 
L 234.73152 -38.016 
L 234.01728 -38.016 
L 233.30304 -38.016 
L 232.5888 -38.016 
L 231.87456 -38.016 
L 231.16032 -38.016 
L 230.44608 -38.016 
L 229.73184 -38.016 
L 229.0176 -38.016 
L 228.30336 -38.016 
L 227.58912 -38.016 
L 226.87488 -38.016 
L 226.16064 -38.016 
L 225.4464 -38.016 
L 224.73216 -38.016 
L 224.01792 -38.016 
L 223.30368 -38.016 
L 222.58944 -38.016 
L 221.8752 -38.016 
L 221.16096 -38.016 
L 220.44672 -38.016 
L 219.73248 -38.016 
L 219.01824 -38.016 
L 218.304 -38.016 
L 217.58976 -38.016 
L 216.87552 -38.016 
L 216.16128 -38.016 
L 215.44704 -38.016 
L 214.7328 -38.016 
L 214.01856 -38.016 
L 213.30432 -38.016 
L 212.59008 -38.016 
L 211.87584 -38.016 
L 211.1616 -38.016 
L 210.44736 -38.016 
L 209.73312 -38.016 
L 209.01888 -38.016 
L 208.30464 -38.016 
L 207.5904 -38.016 
L 206.87616 -38.016 
L 206.16192 -38.016 
L 205.44768 -38.016 
L 204.73344 -38.016 
L 204.0192 -38.016 
L 203.30496 -38.016 
L 202.59072 -38.016 
L 201.87648 -38.016 
L 201.16224 -38.016 
L 200.448 -38.016 
L 199.73376 -38.016 
L 199.01952 -38.016 
L 198.30528 -38.016 
L 197.59104 -38.016 
L 196.8768 -38.016 
L 196.16256 -38.016 
L 195.44832 -38.016 
L 194.73408 -38.016 
L 194.01984 -38.016 
L 193.3056 -38.016 
L 192.59136 -38.016 
L 191.87712 -38.016 
L 191.16288 -38.016 
L 190.44864 -38.016 
L 189.7344 -38.016 
L 189.02016 -38.016 
L 188.30592 -38.016 
L 187.59168 -38.016 
L 186.87744 -38.016 
L 186.1632 -38.016 
L 185.44896 -38.016 
L 184.73472 -38.016 
L 184.02048 -38.016 
L 183.30624 -38.016 
L 182.592 -38.016 
L 181.87776 -38.016 
L 181.16352 -38.016 
L 180.44928 -38.016 
L 179.73504 -38.016 
L 179.0208 -38.016 
L 178.30656 -38.016 
L 177.59232 -38.016 
L 176.87808 -38.016 
L 176.16384 -38.016 
L 175.4496 -38.016 
L 174.73536 -38.016 
L 174.02112 -38.016 
L 173.30688 -38.016 
L 172.59264 -38.016 
L 171.8784 -38.016 
L 171.16416 -38.016 
L 170.44992 -38.016 
L 169.73568 -38.016 
L 169.02144 -38.016 
L 168.3072 -38.016 
L 167.59296 -38.016 
L 166.87872 -38.016 
L 166.16448 -38.016 
L 165.45024 -38.016 
L 164.736 -38.016 
L 164.02176 -38.016 
L 163.30752 -38.016 
L 162.59328 -38.016 
L 161.87904 -38.016 
L 161.1648 -38.016 
L 160.45056 -38.016 
L 159.73632 -38.016 
L 159.02208 -38.016 
L 158.30784 -38.016 
L 157.5936 -38.016 
L 156.87936 -38.016 
L 156.16512 -38.016 
L 155.45088 -38.016 
L 154.73664 -38.016 
L 154.0224 -38.016 
L 153.30816 -38.016 
L 152.59392 -38.016 
L 151.87968 -38.016 
L 151.16544 -38.016 
L 150.4512 -38.016 
L 149.73696 -38.016 
L 149.02272 -38.016 
L 148.30848 -38.016 
L 147.59424 -38.016 
L 146.88 -38.016 
L 146.16576 -38.016 
L 145.45152 -38.016 
L 144.73728 -38.016 
L 144.02304 -38.016 
L 143.3088 -38.016 
L 142.59456 -38.016 
L 141.88032 -38.016 
L 141.16608 -38.016 
L 140.45184 -38.016 
L 139.7376 -38.016 
L 139.02336 -38.016 
L 138.30912 -38.016 
L 137.59488 -38.016 
L 136.88064 -38.016 
L 136.1664 -38.016 
L 135.45216 -38.016 
L 134.73792 -38.016 
L 134.02368 -38.016 
L 133.30944 -38.016 
L 132.5952 -38.016 
L 131.88096 -38.016 
L 131.16672 -38.016 
L 130.45248 -38.016 
L 129.73824 -38.016 
L 129.024 -38.016 
L 128.30976 -38.016 
L 127.59552 -38.016 
L 126.88128 -38.016 
L 126.16704 -38.016 
L 125.4528 -38.016 
L 124.73856 -38.016 
L 124.02432 -38.016 
L 123.31008 -38.016 
L 122.59584 -38.016 
L 121.8816 -38.016 
L 121.16736 -38.016 
L 120.45312 -38.016 
L 119.73888 -38.016 
L 119.02464 -38.016 
L 118.3104 -38.016 
L 117.59616 -38.016 
L 116.88192 -38.016 
L 116.16768 -38.016 
L 115.45344 -38.016 
L 114.7392 -38.016 
L 114.02496 -38.016 
L 113.31072 -38.016 
L 112.59648 -38.016 
L 111.88224 -38.016 
L 111.168 -38.016 
L 110.45376 -38.016 
L 109.73952 -38.016 
L 109.02528 -38.016 
L 108.31104 -38.016 
L 107.5968 -38.016 
L 106.88256 -38.016 
L 106.16832 -38.016 
L 105.45408 -38.016 
L 104.73984 -38.016 
L 104.0256 -38.016 
L 103.31136 -38.016 
L 102.59712 -38.016 
L 101.88288 -38.016 
L 101.16864 -38.016 
L 100.4544 -38.016 
L 99.74016 -38.016 
L 99.02592 -38.016 
L 98.31168 -38.016 
L 97.59744 -38.016 
L 96.8832 -38.016 
L 96.16896 -38.016 
L 95.45472 -38.016 
L 94.74048 -38.016 
L 94.02624 -38.016 
L 93.312 -38.016 
L 92.59776 -38.016 
L 91.88352 -38.016 
L 91.16928 -38.016 
L 90.45504 -38.016 
L 89.7408 -38.016 
L 89.02656 -38.016 
L 88.31232 -38.016 
L 87.59808 -38.016 
L 86.88384 -38.016 
L 86.1696 -38.016 
L 85.45536 -38.016 
L 84.74112 -38.016 
L 84.02688 -38.016 
L 83.31264 -38.016 
L 82.5984 -38.016 
L 81.88416 -38.016 
L 81.16992 -38.016 
L 80.45568 -38.016 
L 79.74144 -38.016 
L 79.0272 -38.016 
L 78.31296 -38.016 
L 77.59872 -38.016 
L 76.88448 -38.016 
L 76.17024 -38.016 
L 75.456 -38.016 
L 74.74176 -38.016 
L 74.02752 -38.016 
L 73.31328 -38.016 
L 72.59904 -38.016 
L 71.8848 -38.016 
L 71.17056 -38.016 
L 70.45632 -38.016 
L 69.74208 -38.016 
L 69.02784 -38.016 
L 68.3136 -38.016 
L 67.59936 -38.016 
L 66.88512 -38.016 
L 66.17088 -38.016 
L 65.45664 -38.016 
L 64.7424 -38.016 
L 64.02816 -38.016 
L 63.31392 -38.016 
L 62.59968 -38.016 
L 61.88544 -38.016 
L 61.1712 -38.016 
L 60.45696 -38.016 
L 59.74272 -38.016 
L 59.02848 -38.016 
L 58.31424 -38.016 
L 57.6 -38.016 
z
" id="m0e15eeb1f2" style="stroke:#509369;"/>
    </defs>
    <g clip-path="url(#pa1197759c4)">
     <use style="fill:#509369;stroke:#509369;" x="0" xlink:href="#m0e15eeb1f2" y="345.6"/>
    </g>
   </g>
   <g id="PolyCollection_2">
    <defs>
     <path d="M 57.6 -279.936492 
L 57.6 -279.936 
L 58.31424 -279.935991 
L 59.02848 -279.935972 
L 59.74272 -279.935944 
L 60.45696 -279.935906 
L 61.1712 -279.935857 
L 61.88544 -279.935796 
L 62.59968 -279.935724 
L 63.31392 -279.935637 
L 64.02816 -279.935536 
L 64.7424 -279.935419 
L 65.45664 -279.935284 
L 66.17088 -279.935129 
L 66.88512 -279.934951 
L 67.59936 -279.934749 
L 68.3136 -279.934519 
L 69.02784 -279.934258 
L 69.74208 -279.933963 
L 70.45632 -279.933629 
L 71.17056 -279.933253 
L 71.8848 -279.932828 
L 72.59904 -279.932349 
L 73.31328 -279.931811 
L 74.02752 -279.931206 
L 74.74176 -279.930527 
L 75.456 -279.929764 
L 76.17024 -279.92891 
L 76.88448 -279.927954 
L 77.59872 -279.926883 
L 78.31296 -279.925687 
L 79.0272 -279.92435 
L 79.74144 -279.922858 
L 80.45568 -279.921194 
L 81.16992 -279.91934 
L 81.88416 -279.917276 
L 82.5984 -279.914979 
L 83.31264 -279.912426 
L 84.02688 -279.90959 
L 84.74112 -279.906442 
L 85.45536 -279.902951 
L 86.1696 -279.899083 
L 86.88384 -279.8948 
L 87.59808 -279.890061 
L 88.31232 -279.884823 
L 89.02656 -279.879037 
L 89.7408 -279.872651 
L 90.45504 -279.865609 
L 91.16928 -279.857848 
L 91.88352 -279.849303 
L 92.59776 -279.839902 
L 93.312 -279.829567 
L 94.02624 -279.818215 
L 94.74048 -279.805755 
L 95.45472 -279.792091 
L 96.16896 -279.777117 
L 96.8832 -279.760722 
L 97.59744 -279.742784 
L 98.31168 -279.723174 
L 99.02592 -279.701754 
L 99.74016 -279.678374 
L 100.4544 -279.652877 
L 101.16864 -279.625092 
L 101.88288 -279.594838 
L 102.59712 -279.561923 
L 103.31136 -279.526139 
L 104.0256 -279.48727 
L 104.73984 -279.445081 
L 105.45408 -279.399326 
L 106.16832 -279.349744 
L 106.88256 -279.296056 
L 107.5968 -279.23797 
L 108.31104 -279.175175 
L 109.02528 -279.107343 
L 109.73952 -279.034129 
L 110.45376 -278.955169 
L 111.168 -278.870079 
L 111.88224 -278.778457 
L 112.59648 -278.679881 
L 113.31072 -278.573906 
L 114.02496 -278.460069 
L 114.7392 -278.337883 
L 115.45344 -278.206841 
L 116.16768 -278.066414 
L 116.88192 -277.916048 
L 117.59616 -277.75517 
L 118.3104 -277.58318 
L 119.02464 -277.399459 
L 119.73888 -277.203363 
L 120.45312 -276.994226 
L 121.16736 -276.771357 
L 121.8816 -276.534045 
L 122.59584 -276.281555 
L 123.31008 -276.013131 
L 124.02432 -275.727996 
L 124.73856 -275.425349 
L 125.4528 -275.104373 
L 126.16704 -274.764228 
L 126.88128 -274.404058 
L 127.59552 -274.022987 
L 128.30976 -273.620125 
L 129.024 -273.194566 
L 129.73824 -272.745388 
L 130.45248 -272.271661 
L 131.16672 -271.77244 
L 131.88096 -271.246774 
L 132.5952 -270.693703 
L 133.30944 -270.112264 
L 134.02368 -269.501488 
L 134.73792 -268.860407 
L 135.45216 -268.188056 
L 136.1664 -267.483471 
L 136.88064 -266.745697 
L 137.59488 -265.973785 
L 138.30912 -265.166802 
L 139.02336 -264.323828 
L 139.7376 -263.443959 
L 140.45184 -262.526314 
L 141.16608 -261.570035 
L 141.88032 -260.57429 
L 142.59456 -259.538279 
L 143.3088 -258.461233 
L 144.02304 -257.34242 
L 144.73728 -256.181148 
L 145.45152 -254.976769 
L 146.16576 -253.728678 
L 146.88 -252.436321 
L 147.59424 -251.099196 
L 148.30848 -249.716856 
L 149.02272 -248.288913 
L 149.73696 -246.81504 
L 150.4512 -245.294973 
L 151.16544 -243.728514 
L 151.87968 -242.115537 
L 152.59392 -240.455985 
L 153.30816 -238.749876 
L 154.0224 -236.997303 
L 154.73664 -235.198436 
L 155.45088 -233.353528 
L 156.16512 -231.462907 
L 156.87936 -229.526988 
L 157.5936 -227.546266 
L 158.30784 -225.521322 
L 159.02208 -223.452819 
L 159.73632 -221.341506 
L 160.45056 -219.188216 
L 161.1648 -216.993865 
L 161.87904 -214.759454 
L 162.59328 -212.486067 
L 163.30752 -210.174867 
L 164.02176 -207.827101 
L 164.736 -205.444091 
L 165.45024 -203.027236 
L 166.16448 -200.57801 
L 166.87872 -198.097959 
L 167.59296 -195.588696 
L 168.3072 -193.051901 
L 169.02144 -190.489316 
L 169.73568 -187.902743 
L 170.44992 -185.294036 
L 171.16416 -182.665105 
L 171.8784 -180.017903 
L 172.59264 -177.354426 
L 173.30688 -174.67671 
L 174.02112 -171.986823 
L 174.73536 -169.286863 
L 175.4496 -166.578949 
L 176.16384 -163.865222 
L 176.87808 -161.147834 
L 177.59232 -158.428947 
L 178.30656 -155.710727 
L 179.0208 -152.995335 
L 179.73504 -150.284929 
L 180.44928 -147.581652 
L 181.16352 -144.88763 
L 181.87776 -142.204969 
L 182.592 -139.535745 
L 183.30624 -136.882003 
L 184.02048 -134.245752 
L 184.73472 -131.628959 
L 185.44896 -129.033545 
L 186.1632 -126.461382 
L 186.87744 -123.914288 
L 187.59168 -121.394021 
L 188.30592 -118.902281 
L 189.02016 -116.440702 
L 189.7344 -114.01085 
L 190.44864 -111.61422 
L 191.16288 -109.252234 
L 191.87712 -106.926239 
L 192.59136 -104.637504 
L 193.3056 -102.387219 
L 194.01984 -100.176491 
L 194.73408 -98.006349 
L 195.44832 -95.877734 
L 196.16256 -93.791508 
L 196.8768 -91.748445 
L 197.59104 -89.749237 
L 198.30528 -87.794492 
L 199.01952 -85.884733 
L 199.73376 -84.020401 
L 200.448 -82.201855 
L 201.16224 -80.429374 
L 201.87648 -78.703154 
L 202.59072 -77.023318 
L 203.30496 -75.38991 
L 204.0192 -73.802899 
L 204.73344 -72.262186 
L 205.44768 -70.767599 
L 206.16192 -69.318899 
L 206.87616 -67.915785 
L 207.5904 -66.557892 
L 208.30464 -65.244797 
L 209.01888 -63.97602 
L 209.73312 -62.751031 
L 210.44736 -61.569246 
L 211.1616 -60.430038 
L 211.87584 -59.332733 
L 212.59008 -58.27662 
L 213.30432 -57.260949 
L 214.01856 -56.284936 
L 214.7328 -55.347765 
L 215.44704 -54.448595 
L 216.16128 -53.586559 
L 216.87552 -52.760768 
L 217.58976 -51.970315 
L 218.304 -51.214277 
L 219.01824 -50.491718 
L 219.73248 -49.801693 
L 220.44672 -49.143247 
L 221.16096 -48.515424 
L 221.8752 -47.917262 
L 222.58944 -47.347802 
L 223.30368 -46.806084 
L 224.01792 -46.291154 
L 224.73216 -45.802066 
L 225.4464 -45.337879 
L 226.16064 -44.897664 
L 226.87488 -44.480502 
L 227.58912 -44.08549 
L 228.30336 -43.711736 
L 229.0176 -43.358366 
L 229.73184 -43.024522 
L 230.44608 -42.709364 
L 231.16032 -42.412073 
L 231.87456 -42.131846 
L 232.5888 -41.867904 
L 233.30304 -41.619486 
L 234.01728 -41.385854 
L 234.73152 -41.166293 
L 235.44576 -40.960108 
L 236.16 -40.766628 
L 236.87424 -40.585205 
L 237.58848 -40.415212 
L 238.30272 -40.256045 
L 239.01696 -40.107124 
L 239.7312 -39.967891 
L 240.44544 -39.837809 
L 241.15968 -39.716364 
L 241.87392 -39.603064 
L 242.58816 -39.497438 
L 243.3024 -39.399035 
L 244.01664 -39.307425 
L 244.73088 -39.222199 
L 245.44512 -39.142967 
L 246.15936 -39.069357 
L 246.8736 -39.001018 
L 247.58784 -38.937613 
L 248.30208 -38.878827 
L 249.01632 -38.824358 
L 249.73056 -38.773922 
L 250.4448 -38.72725 
L 251.15904 -38.684089 
L 251.87328 -38.644199 
L 252.58752 -38.607356 
L 253.30176 -38.573346 
L 254.016 -38.541971 
L 254.73024 -38.513042 
L 255.44448 -38.486385 
L 256.15872 -38.461834 
L 256.87296 -38.439235 
L 257.5872 -38.418444 
L 258.30144 -38.399325 
L 259.01568 -38.381753 
L 259.72992 -38.36561 
L 260.44416 -38.350786 
L 261.1584 -38.337179 
L 261.87264 -38.324694 
L 262.58688 -38.313242 
L 263.30112 -38.302743 
L 264.01536 -38.293119 
L 264.7296 -38.284301 
L 265.44384 -38.276222 
L 266.15808 -38.268822 
L 266.87232 -38.262046 
L 267.58656 -38.255842 
L 268.3008 -38.250161 
L 269.01504 -38.244961 
L 269.72928 -38.240199 
L 270.44352 -38.23584 
L 271.15776 -38.231849 
L 271.872 -38.228194 
L 272.58624 -38.224846 
L 273.30048 -38.221778 
L 274.01472 -38.218966 
L 274.72896 -38.216388 
L 275.4432 -38.214022 
L 276.15744 -38.211851 
L 276.87168 -38.209857 
L 277.58592 -38.208024 
L 278.30016 -38.206339 
L 279.0144 -38.204786 
L 279.72864 -38.203356 
L 280.44288 -38.202036 
L 281.15712 -38.200818 
L 281.87136 -38.199691 
L 282.5856 -38.198648 
L 283.29984 -38.197681 
L 284.01408 -38.196782 
L 284.72832 -38.195947 
L 285.44256 -38.195169 
L 286.1568 -38.194443 
L 286.87104 -38.193765 
L 287.58528 -38.193129 
L 288.29952 -38.192533 
L 289.01376 -38.191973 
L 289.728 -38.191445 
L 290.44224 -38.190946 
L 291.15648 -38.190474 
L 291.87072 -38.190026 
L 292.58496 -38.189601 
L 293.2992 -38.189196 
L 294.01344 -38.188808 
L 294.72768 -38.188438 
L 295.44192 -38.188082 
L 296.15616 -38.187739 
L 296.8704 -38.187408 
L 297.58464 -38.187088 
L 298.29888 -38.186777 
L 299.01312 -38.186475 
L 299.72736 -38.186179 
L 300.4416 -38.18589 
L 301.15584 -38.185606 
L 301.87008 -38.185326 
L 302.58432 -38.185049 
L 303.29856 -38.184774 
L 304.0128 -38.1845 
L 304.72704 -38.184226 
L 305.44128 -38.183951 
L 306.15552 -38.183674 
L 306.86976 -38.183395 
L 307.584 -38.183111 
L 308.29824 -38.182822 
L 309.01248 -38.182526 
L 309.72672 -38.182223 
L 310.44096 -38.18191 
L 311.1552 -38.181587 
L 311.86944 -38.181251 
L 312.58368 -38.180901 
L 313.29792 -38.180536 
L 314.01216 -38.180152 
L 314.7264 -38.179749 
L 315.44064 -38.179324 
L 316.15488 -38.178874 
L 316.86912 -38.178396 
L 317.58336 -38.177889 
L 318.2976 -38.177348 
L 319.01184 -38.176771 
L 319.72608 -38.176154 
L 320.44032 -38.175492 
L 321.15456 -38.174783 
L 321.8688 -38.174022 
L 322.58304 -38.173204 
L 323.29728 -38.172324 
L 324.01152 -38.171377 
L 324.72576 -38.170357 
L 325.44 -38.169259 
L 326.15424 -38.168077 
L 326.86848 -38.166804 
L 327.58272 -38.165434 
L 328.29696 -38.16396 
L 329.0112 -38.162375 
L 329.72544 -38.160673 
L 330.43968 -38.158847 
L 331.15392 -38.15689 
L 331.86816 -38.154796 
L 332.5824 -38.152559 
L 333.29664 -38.150174 
L 334.01088 -38.147635 
L 334.72512 -38.14494 
L 335.43936 -38.142085 
L 336.1536 -38.139069 
L 336.86784 -38.135892 
L 337.58208 -38.132557 
L 338.29632 -38.129067 
L 339.01056 -38.125427 
L 339.7248 -38.121647 
L 340.43904 -38.117735 
L 341.15328 -38.113704 
L 341.86752 -38.10957 
L 342.58176 -38.105349 
L 343.296 -38.10106 
L 344.01024 -38.096722 
L 344.72448 -38.092359 
L 345.43872 -38.087993 
L 346.15296 -38.083647 
L 346.8672 -38.079345 
L 347.58144 -38.075109 
L 348.29568 -38.070961 
L 349.00992 -38.066923 
L 349.72416 -38.063013 
L 350.4384 -38.059248 
L 351.15264 -38.055643 
L 351.86688 -38.052209 
L 352.58112 -38.048957 
L 353.29536 -38.045892 
L 354.0096 -38.043019 
L 354.72384 -38.04034 
L 355.43808 -38.037854 
L 356.15232 -38.035557 
L 356.86656 -38.033447 
L 357.5808 -38.031515 
L 358.29504 -38.029756 
L 359.00928 -38.028159 
L 359.72352 -38.026717 
L 360.43776 -38.02542 
L 361.152 -38.024257 
L 361.86624 -38.023218 
L 362.58048 -38.022294 
L 363.29472 -38.021475 
L 364.00896 -38.02075 
L 364.7232 -38.020112 
L 365.43744 -38.019552 
L 366.15168 -38.019061 
L 366.86592 -38.018632 
L 367.58016 -38.018258 
L 368.2944 -38.017934 
L 369.00864 -38.017653 
L 369.72288 -38.01741 
L 370.43712 -38.017201 
L 371.15136 -38.017021 
L 371.8656 -38.016866 
L 372.57984 -38.016733 
L 373.29408 -38.01662 
L 374.00832 -38.016524 
L 374.72256 -38.016441 
L 375.4368 -38.016371 
L 376.15104 -38.016312 
L 376.86528 -38.016262 
L 377.57952 -38.016219 
L 378.29376 -38.016183 
L 379.008 -38.016153 
L 379.72224 -38.016128 
L 380.43648 -38.016107 
L 381.15072 -38.016089 
L 381.86496 -38.016074 
L 382.5792 -38.016061 
L 383.29344 -38.016051 
L 384.00768 -38.016042 
L 384.72192 -38.016035 
L 385.43616 -38.016029 
L 386.1504 -38.016024 
L 386.86464 -38.016019 
L 387.57888 -38.016016 
L 388.29312 -38.016013 
L 389.00736 -38.016011 
L 389.7216 -38.016009 
L 390.43584 -38.016007 
L 391.15008 -38.016006 
L 391.86432 -38.016005 
L 392.57856 -38.016004 
L 393.2928 -38.016003 
L 394.00704 -38.016003 
L 394.72128 -38.016002 
L 395.43552 -38.016002 
L 396.14976 -38.016001 
L 396.864 -38.016001 
L 397.57824 -38.016001 
L 398.29248 -38.016001 
L 399.00672 -38.016001 
L 399.72096 -38.016 
L 400.4352 -38.016 
L 401.14944 -38.016 
L 401.86368 -38.016 
L 402.57792 -38.016 
L 403.29216 -38.016 
L 404.0064 -38.016 
L 404.72064 -38.016 
L 405.43488 -38.016 
L 406.14912 -38.016 
L 406.86336 -38.016 
L 407.5776 -38.016 
L 408.29184 -38.016 
L 409.00608 -38.016 
L 409.72032 -38.016 
L 410.43456 -38.016 
L 411.1488 -38.016 
L 411.86304 -38.016 
L 412.57728 -38.016 
L 413.29152 -38.016 
L 414.00576 -38.016 
L 414.72 -38.016 
L 414.72 -38.016013 
L 414.72 -38.016013 
L 414.00576 -38.016014 
L 413.29152 -38.016015 
L 412.57728 -38.016018 
L 411.86304 -38.016021 
L 411.1488 -38.016025 
L 410.43456 -38.016031 
L 409.72032 -38.016038 
L 409.00608 -38.016047 
L 408.29184 -38.016058 
L 407.5776 -38.016072 
L 406.86336 -38.01609 
L 406.14912 -38.016112 
L 405.43488 -38.01614 
L 404.72064 -38.016174 
L 404.0064 -38.016217 
L 403.29216 -38.016269 
L 402.57792 -38.016334 
L 401.86368 -38.016415 
L 401.14944 -38.016514 
L 400.4352 -38.016637 
L 399.72096 -38.016788 
L 399.00672 -38.016975 
L 398.29248 -38.017204 
L 397.57824 -38.017485 
L 396.864 -38.01783 
L 396.14976 -38.018252 
L 395.43552 -38.01877 
L 394.72128 -38.019403 
L 394.00704 -38.020176 
L 393.2928 -38.02112 
L 392.57856 -38.02227 
L 391.86432 -38.023671 
L 391.15008 -38.025373 
L 390.43584 -38.027442 
L 389.7216 -38.029951 
L 389.00736 -38.032992 
L 388.29312 -38.036672 
L 387.57888 -38.041121 
L 386.86464 -38.046492 
L 386.1504 -38.052969 
L 385.43616 -38.060769 
L 384.72192 -38.07015 
L 384.00768 -38.081418 
L 383.29344 -38.094935 
L 382.5792 -38.111126 
L 381.86496 -38.130494 
L 381.15072 -38.15363 
L 380.43648 -38.181228 
L 379.72224 -38.214097 
L 379.008 -38.253188 
L 378.29376 -38.299605 
L 377.57952 -38.354635 
L 376.86528 -38.419769 
L 376.15104 -38.496736 
L 375.4368 -38.58753 
L 374.72256 -38.694447 
L 374.00832 -38.820122 
L 373.29408 -38.967572 
L 372.57984 -39.140239 
L 371.8656 -39.342036 
L 371.15136 -39.577394 
L 370.43712 -39.851315 
L 369.72288 -40.169423 
L 369.00864 -40.53801 
L 368.2944 -40.964083 
L 367.58016 -41.455413 
L 366.86592 -42.020567 
L 366.15168 -42.668934 
L 365.43744 -43.410746 
L 364.7232 -44.257076 
L 364.00896 -45.219816 
L 363.29472 -46.311641 
L 362.58048 -47.545934 
L 361.86624 -48.936692 
L 361.152 -50.498388 
L 360.43776 -52.245799 
L 359.72352 -54.193795 
L 359.00928 -56.357087 
L 358.29504 -58.749929 
L 357.5808 -61.38579 
L 356.86656 -64.276986 
L 356.15232 -67.434293 
L 355.43808 -70.866531 
L 354.72384 -74.580162 
L 354.0096 -78.578886 
L 353.29536 -82.86327 
L 352.58112 -87.430427 
L 351.86688 -92.273761 
L 351.15264 -97.382791 
L 350.4384 -102.743087 
L 349.72416 -108.336308 
L 349.00992 -114.14037 
L 348.29568 -120.129732 
L 347.58144 -126.275802 
L 346.8672 -132.547455 
L 346.15296 -138.911627 
L 345.43872 -145.333991 
L 344.72448 -151.779658 
L 344.01024 -158.213893 
L 343.296 -164.602811 
L 342.58176 -170.914015 
L 341.86752 -177.117178 
L 341.15328 -183.184511 
L 340.43904 -189.091152 
L 339.7248 -194.815424 
L 339.01056 -200.338996 
L 338.29632 -205.646937 
L 337.58208 -210.72767 
L 336.86784 -215.572849 
L 336.1536 -220.177174 
L 335.43936 -224.538144 
L 334.72512 -228.655786 
L 334.01088 -232.532357 
L 333.29664 -236.172034 
L 332.5824 -239.58062 
L 331.86816 -242.765243 
L 331.15392 -245.734088 
L 330.43968 -248.496141 
L 329.72544 -251.060965 
L 329.0112 -253.438494 
L 328.29696 -255.63886 
L 327.58272 -257.672245 
L 326.86848 -259.548754 
L 326.15424 -261.278314 
L 325.44 -262.870591 
L 324.72576 -264.334926 
L 324.01152 -265.680287 
L 323.29728 -266.915237 
L 322.58304 -268.047907 
L 321.8688 -269.08599 
L 321.15456 -270.036729 
L 320.44032 -270.906926 
L 319.72608 -271.702945 
L 319.01184 -272.430724 
L 318.2976 -273.095792 
L 317.58336 -273.703285 
L 316.86912 -274.257962 
L 316.15488 -274.764229 
L 315.44064 -275.226153 
L 314.7264 -275.647489 
L 314.01216 -276.031693 
L 313.29792 -276.381948 
L 312.58368 -276.701178 
L 311.86944 -276.992066 
L 311.1552 -277.257077 
L 310.44096 -277.498468 
L 309.72672 -277.718308 
L 309.01248 -277.918489 
L 308.29824 -278.100745 
L 307.584 -278.266658 
L 306.86976 -278.417675 
L 306.15552 -278.55512 
L 305.44128 -278.680199 
L 304.72704 -278.794014 
L 304.0128 -278.89757 
L 303.29856 -278.991784 
L 302.58432 -279.077493 
L 301.87008 -279.155459 
L 301.15584 -279.226378 
L 300.4416 -279.290881 
L 299.72736 -279.349547 
L 299.01312 -279.4029 
L 298.29888 -279.45142 
L 297.58464 -279.495542 
L 296.8704 -279.535663 
L 296.15616 -279.572144 
L 295.44192 -279.605315 
L 294.72768 -279.635474 
L 294.01344 -279.662894 
L 293.2992 -279.687823 
L 292.58496 -279.710487 
L 291.87072 -279.73109 
L 291.15648 -279.74982 
L 290.44224 -279.766846 
L 289.728 -279.782323 
L 289.01376 -279.796391 
L 288.29952 -279.809179 
L 287.58528 -279.820802 
L 286.87104 -279.831367 
L 286.1568 -279.840969 
L 285.44256 -279.849696 
L 284.72832 -279.857627 
L 284.01408 -279.864836 
L 283.29984 -279.871387 
L 282.5856 -279.877341 
L 281.87136 -279.882751 
L 281.15712 -279.887668 
L 280.44288 -279.892136 
L 279.72864 -279.896196 
L 279.0144 -279.899885 
L 278.30016 -279.903237 
L 277.58592 -279.906283 
L 276.87168 -279.909051 
L 276.15744 -279.911566 
L 275.4432 -279.913851 
L 274.72896 -279.915927 
L 274.01472 -279.917813 
L 273.30048 -279.919526 
L 272.58624 -279.921083 
L 271.872 -279.922497 
L 271.15776 -279.923782 
L 270.44352 -279.924949 
L 269.72928 -279.92601 
L 269.01504 -279.926973 
L 268.3008 -279.927848 
L 267.58656 -279.928642 
L 266.87232 -279.929364 
L 266.15808 -279.93002 
L 265.44384 -279.930615 
L 264.7296 -279.931156 
L 264.01536 -279.931647 
L 263.30112 -279.932093 
L 262.58688 -279.932499 
L 261.87264 -279.932867 
L 261.1584 -279.933201 
L 260.44416 -279.933504 
L 259.72992 -279.93378 
L 259.01568 -279.93403 
L 258.30144 -279.934257 
L 257.5872 -279.934464 
L 256.87296 -279.934651 
L 256.15872 -279.934821 
L 255.44448 -279.934975 
L 254.73024 -279.935116 
L 254.016 -279.935243 
L 253.30176 -279.935358 
L 252.58752 -279.935463 
L 251.87328 -279.935559 
L 251.15904 -279.935645 
L 250.4448 -279.935723 
L 249.73056 -279.935795 
L 249.01632 -279.935859 
L 248.30208 -279.935918 
L 247.58784 -279.935971 
L 246.8736 -279.93602 
L 246.15936 -279.936064 
L 245.44512 -279.936103 
L 244.73088 -279.936139 
L 244.01664 -279.936172 
L 243.3024 -279.936202 
L 242.58816 -279.936229 
L 241.87392 -279.936254 
L 241.15968 -279.936276 
L 240.44544 -279.936296 
L 239.7312 -279.936314 
L 239.01696 -279.936331 
L 238.30272 -279.936346 
L 237.58848 -279.93636 
L 236.87424 -279.936372 
L 236.16 -279.936383 
L 235.44576 -279.936393 
L 234.73152 -279.936403 
L 234.01728 -279.936411 
L 233.30304 -279.936419 
L 232.5888 -279.936425 
L 231.87456 -279.936432 
L 231.16032 -279.936437 
L 230.44608 -279.936443 
L 229.73184 -279.936447 
L 229.0176 -279.936451 
L 228.30336 -279.936455 
L 227.58912 -279.936459 
L 226.87488 -279.936462 
L 226.16064 -279.936465 
L 225.4464 -279.936467 
L 224.73216 -279.93647 
L 224.01792 -279.936472 
L 223.30368 -279.936474 
L 222.58944 -279.936475 
L 221.8752 -279.936477 
L 221.16096 -279.936478 
L 220.44672 -279.93648 
L 219.73248 -279.936481 
L 219.01824 -279.936482 
L 218.304 -279.936483 
L 217.58976 -279.936484 
L 216.87552 -279.936485 
L 216.16128 -279.936485 
L 215.44704 -279.936486 
L 214.7328 -279.936487 
L 214.01856 -279.936487 
L 213.30432 -279.936488 
L 212.59008 -279.936488 
L 211.87584 -279.936488 
L 211.1616 -279.936489 
L 210.44736 -279.936489 
L 209.73312 -279.936489 
L 209.01888 -279.93649 
L 208.30464 -279.93649 
L 207.5904 -279.93649 
L 206.87616 -279.93649 
L 206.16192 -279.93649 
L 205.44768 -279.936491 
L 204.73344 -279.936491 
L 204.0192 -279.936491 
L 203.30496 -279.936491 
L 202.59072 -279.936491 
L 201.87648 -279.936491 
L 201.16224 -279.936491 
L 200.448 -279.936491 
L 199.73376 -279.936491 
L 199.01952 -279.936492 
L 198.30528 -279.936492 
L 197.59104 -279.936492 
L 196.8768 -279.936492 
L 196.16256 -279.936492 
L 195.44832 -279.936492 
L 194.73408 -279.936492 
L 194.01984 -279.936492 
L 193.3056 -279.936492 
L 192.59136 -279.936492 
L 191.87712 -279.936492 
L 191.16288 -279.936492 
L 190.44864 -279.936492 
L 189.7344 -279.936492 
L 189.02016 -279.936492 
L 188.30592 -279.936492 
L 187.59168 -279.936492 
L 186.87744 -279.936492 
L 186.1632 -279.936492 
L 185.44896 -279.936492 
L 184.73472 -279.936492 
L 184.02048 -279.936492 
L 183.30624 -279.936492 
L 182.592 -279.936492 
L 181.87776 -279.936492 
L 181.16352 -279.936492 
L 180.44928 -279.936492 
L 179.73504 -279.936492 
L 179.0208 -279.936492 
L 178.30656 -279.936492 
L 177.59232 -279.936492 
L 176.87808 -279.936492 
L 176.16384 -279.936492 
L 175.4496 -279.936492 
L 174.73536 -279.936492 
L 174.02112 -279.936492 
L 173.30688 -279.936492 
L 172.59264 -279.936492 
L 171.8784 -279.936492 
L 171.16416 -279.936492 
L 170.44992 -279.936492 
L 169.73568 -279.936492 
L 169.02144 -279.936492 
L 168.3072 -279.936492 
L 167.59296 -279.936492 
L 166.87872 -279.936492 
L 166.16448 -279.936492 
L 165.45024 -279.936492 
L 164.736 -279.936492 
L 164.02176 -279.936492 
L 163.30752 -279.936492 
L 162.59328 -279.936492 
L 161.87904 -279.936492 
L 161.1648 -279.936492 
L 160.45056 -279.936492 
L 159.73632 -279.936492 
L 159.02208 -279.936492 
L 158.30784 -279.936492 
L 157.5936 -279.936492 
L 156.87936 -279.936492 
L 156.16512 -279.936492 
L 155.45088 -279.936492 
L 154.73664 -279.936492 
L 154.0224 -279.936492 
L 153.30816 -279.936492 
L 152.59392 -279.936492 
L 151.87968 -279.936492 
L 151.16544 -279.936492 
L 150.4512 -279.936492 
L 149.73696 -279.936492 
L 149.02272 -279.936492 
L 148.30848 -279.936492 
L 147.59424 -279.936492 
L 146.88 -279.936492 
L 146.16576 -279.936492 
L 145.45152 -279.936492 
L 144.73728 -279.936492 
L 144.02304 -279.936492 
L 143.3088 -279.936492 
L 142.59456 -279.936492 
L 141.88032 -279.936492 
L 141.16608 -279.936492 
L 140.45184 -279.936492 
L 139.7376 -279.936492 
L 139.02336 -279.936492 
L 138.30912 -279.936492 
L 137.59488 -279.936492 
L 136.88064 -279.936492 
L 136.1664 -279.936492 
L 135.45216 -279.936492 
L 134.73792 -279.936492 
L 134.02368 -279.936492 
L 133.30944 -279.936492 
L 132.5952 -279.936492 
L 131.88096 -279.936492 
L 131.16672 -279.936492 
L 130.45248 -279.936492 
L 129.73824 -279.936492 
L 129.024 -279.936492 
L 128.30976 -279.936492 
L 127.59552 -279.936492 
L 126.88128 -279.936492 
L 126.16704 -279.936492 
L 125.4528 -279.936492 
L 124.73856 -279.936492 
L 124.02432 -279.936492 
L 123.31008 -279.936492 
L 122.59584 -279.936492 
L 121.8816 -279.936492 
L 121.16736 -279.936492 
L 120.45312 -279.936492 
L 119.73888 -279.936492 
L 119.02464 -279.936492 
L 118.3104 -279.936492 
L 117.59616 -279.936492 
L 116.88192 -279.936492 
L 116.16768 -279.936492 
L 115.45344 -279.936492 
L 114.7392 -279.936492 
L 114.02496 -279.936492 
L 113.31072 -279.936492 
L 112.59648 -279.936492 
L 111.88224 -279.936492 
L 111.168 -279.936492 
L 110.45376 -279.936492 
L 109.73952 -279.936492 
L 109.02528 -279.936492 
L 108.31104 -279.936492 
L 107.5968 -279.936492 
L 106.88256 -279.936492 
L 106.16832 -279.936492 
L 105.45408 -279.936492 
L 104.73984 -279.936492 
L 104.0256 -279.936492 
L 103.31136 -279.936492 
L 102.59712 -279.936492 
L 101.88288 -279.936492 
L 101.16864 -279.936492 
L 100.4544 -279.936492 
L 99.74016 -279.936492 
L 99.02592 -279.936492 
L 98.31168 -279.936492 
L 97.59744 -279.936492 
L 96.8832 -279.936492 
L 96.16896 -279.936492 
L 95.45472 -279.936492 
L 94.74048 -279.936492 
L 94.02624 -279.936492 
L 93.312 -279.936492 
L 92.59776 -279.936492 
L 91.88352 -279.936492 
L 91.16928 -279.936492 
L 90.45504 -279.936492 
L 89.7408 -279.936492 
L 89.02656 -279.936492 
L 88.31232 -279.936492 
L 87.59808 -279.936492 
L 86.88384 -279.936492 
L 86.1696 -279.936492 
L 85.45536 -279.936492 
L 84.74112 -279.936492 
L 84.02688 -279.936492 
L 83.31264 -279.936492 
L 82.5984 -279.936492 
L 81.88416 -279.936492 
L 81.16992 -279.936492 
L 80.45568 -279.936492 
L 79.74144 -279.936492 
L 79.0272 -279.936492 
L 78.31296 -279.936492 
L 77.59872 -279.936492 
L 76.88448 -279.936492 
L 76.17024 -279.936492 
L 75.456 -279.936492 
L 74.74176 -279.936492 
L 74.02752 -279.936492 
L 73.31328 -279.936492 
L 72.59904 -279.936492 
L 71.8848 -279.936492 
L 71.17056 -279.936492 
L 70.45632 -279.936492 
L 69.74208 -279.936492 
L 69.02784 -279.936492 
L 68.3136 -279.936492 
L 67.59936 -279.936492 
L 66.88512 -279.936492 
L 66.17088 -279.936492 
L 65.45664 -279.936492 
L 64.7424 -279.936492 
L 64.02816 -279.936492 
L 63.31392 -279.936492 
L 62.59968 -279.936492 
L 61.88544 -279.936492 
L 61.1712 -279.936492 
L 60.45696 -279.936492 
L 59.74272 -279.936492 
L 59.02848 -279.936492 
L 58.31424 -279.936492 
L 57.6 -279.936492 
z
" id="m4bbb1cf8f2" style="stroke:#afe88e;"/>
    </defs>
    <g clip-path="url(#pa1197759c4)">
     <use style="fill:#afe88e;stroke:#afe88e;" x="0" xlink:href="#m4bbb1cf8f2" y="345.6"/>
    </g>
   </g>
   <g id="line2d_1">
    <path clip-path="url(#pa1197759c4)" d="M 57.6 65.663508 
L 286.87104 65.768633 
L 295.44192 65.994685 
L 300.4416 66.309119 
L 304.72704 66.805986 
L 307.584 67.333342 
L 310.44096 68.101532 
L 312.58368 68.898822 
L 314.7264 69.952511 
L 316.86912 71.342038 
L 318.2976 72.504208 
L 319.72608 73.897055 
L 321.15456 75.563271 
L 322.58304 77.552093 
L 324.01152 79.919713 
L 325.44 82.729409 
L 326.86848 86.051246 
L 328.29696 89.96114 
L 329.72544 94.539035 
L 331.15392 99.865912 
L 332.5824 106.01938 
L 334.01088 113.067643 
L 335.43936 121.061856 
L 336.86784 130.027151 
L 339.01056 145.261004 
L 341.15328 162.415489 
L 344.01024 187.386107 
L 349.00992 231.45963 
L 351.15264 248.217209 
L 352.58112 258.169573 
L 354.0096 267.021114 
L 355.43808 274.733469 
L 356.86656 281.323014 
L 358.29504 286.850071 
L 359.72352 291.406205 
L 361.152 295.101612 
L 362.58048 298.054066 
L 364.00896 300.380184 
L 365.43744 302.189254 
L 366.86592 303.579433 
L 368.2944 304.635917 
L 369.72288 305.430577 
L 371.15136 306.022606 
L 373.29408 306.632428 
L 375.4368 307.01247 
L 378.29376 307.300395 
L 382.5792 307.488874 
L 391.15008 307.574627 
L 414.72 307.583987 
L 414.72 307.583987 
" style="fill:none;stroke:#000000;stroke-linecap:square;stroke-width:0.7;"/>
   </g>
   <g id="patch_3">
    <path d="M 57.6 307.584 
L 57.6 41.472 
" style="fill:none;stroke:#000000;stroke-linecap:square;stroke-linejoin:miter;stroke-width:0.8;"/>
   </g>
   <g id="patch_4">
    <path d="M 414.72 307.584 
L 414.72 41.472 
" style="fill:none;stroke:#000000;stroke-linecap:square;stroke-linejoin:miter;stroke-width:0.8;"/>
   </g>
   <g id="patch_5">
    <path d="M 57.6 307.584 
L 414.72 307.584 
" style="fill:none;stroke:#000000;stroke-linecap:square;stroke-linejoin:miter;stroke-width:0.8;"/>
   </g>
   <g id="patch_6">
    <path d="M 57.6 41.472 
L 414.72 41.472 
" style="fill:none;stroke:#000000;stroke-linecap:square;stroke-linejoin:miter;stroke-width:0.8;"/>
   </g>
   <g id="legend_1">
    <g id="patch_7">
     <path d="M 91.90611 34.09119 
L 246.68736 34.09119 
Q 249.08736 34.09119 249.08736 31.69119 
L 249.08736 15.27744 
Q 249.08736 12.87744 246.68736 12.87744 
L 91.90611 12.87744 
Q 89.50611 12.87744 89.50611 15.27744 
L 89.50611 31.69119 
Q 89.50611 34.09119 91.90611 34.09119 
z
" style="fill:#ffffff;opacity:0.8;stroke:#cccccc;stroke-linejoin:miter;"/>
    </g>
    <g id="patch_8">
     <path d="M 94.30611 26.795565 
L 118.30611 26.795565 
L 118.30611 18.395565 
L 94.30611 18.395565 
z
" style="fill:#509369;stroke:#509369;stroke-linejoin:miter;"/>
    </g>
    <g id="text_1">
     <!-- back -->
     <g transform="translate(127.90611 26.795565)scale(0.12 -0.12)">
      <defs>
       <path d="M 11.53125 5.171875 
L 11.53125 70.796875 
L 2.875 70.796875 
L 2.875 75.984375 
L 20.515625 75.984375 
L 20.515625 43.796875 
Q 23.140625 48.6875 27.21875 51 
Q 31.296875 53.328125 37.3125 53.328125 
Q 46.875 53.328125 52.921875 45.75 
Q 58.984375 38.1875 58.984375 25.984375 
Q 58.984375 13.765625 52.921875 6.171875 
Q 46.875 -1.421875 37.3125 -1.421875 
Q 31.296875 -1.421875 27.21875 0.890625 
Q 23.140625 3.21875 20.515625 8.109375 
L 20.515625 0 
L 2.875 0 
L 2.875 5.171875 
z
M 20.515625 23.390625 
Q 20.515625 14.015625 24.09375 9.109375 
Q 27.6875 4.203125 34.515625 4.203125 
Q 41.40625 4.203125 44.9375 9.71875 
Q 48.484375 15.234375 48.484375 25.984375 
Q 48.484375 36.765625 44.9375 42.234375 
Q 41.40625 47.703125 34.515625 47.703125 
Q 27.6875 47.703125 24.09375 42.765625 
Q 20.515625 37.84375 20.515625 28.515625 
z
" id="DejaVuSerif-98"/>
       <path d="M 39.796875 16.3125 
L 39.796875 27.296875 
L 28.21875 27.296875 
Q 21.53125 27.296875 18.25 24.40625 
Q 14.984375 21.53125 14.984375 15.578125 
Q 14.984375 10.15625 18.296875 6.984375 
Q 21.625 3.8125 27.296875 3.8125 
Q 32.90625 3.8125 36.34375 7.28125 
Q 39.796875 10.75 39.796875 16.3125 
z
M 48.78125 32.421875 
L 48.78125 5.171875 
L 56.78125 5.171875 
L 56.78125 0 
L 39.796875 0 
L 39.796875 5.609375 
Q 36.8125 2 32.90625 0.28125 
Q 29 -1.421875 23.78125 -1.421875 
Q 15.140625 -1.421875 10.0625 3.171875 
Q 4.984375 7.765625 4.984375 15.578125 
Q 4.984375 23.640625 10.796875 28.078125 
Q 16.609375 32.515625 27.203125 32.515625 
L 39.796875 32.515625 
L 39.796875 36.078125 
Q 39.796875 42 36.203125 45.234375 
Q 32.625 48.484375 26.125 48.484375 
Q 20.75 48.484375 17.578125 46.046875 
Q 14.40625 43.609375 13.625 38.8125 
L 8.984375 38.8125 
L 8.984375 49.3125 
Q 13.671875 51.3125 18.09375 52.3125 
Q 22.515625 53.328125 26.703125 53.328125 
Q 37.5 53.328125 43.140625 47.96875 
Q 48.78125 42.625 48.78125 32.421875 
z
" id="DejaVuSerif-97"/>
       <path d="M 51.421875 15.578125 
Q 49.515625 7.28125 44.09375 2.921875 
Q 38.671875 -1.421875 30.078125 -1.421875 
Q 18.75 -1.421875 11.859375 6.078125 
Q 4.984375 13.578125 4.984375 25.984375 
Q 4.984375 38.421875 11.859375 45.875 
Q 18.75 53.328125 30.078125 53.328125 
Q 35.015625 53.328125 39.890625 52.171875 
Q 44.78125 51.03125 49.703125 48.6875 
L 49.703125 35.40625 
L 44.484375 35.40625 
Q 43.453125 42.234375 40.015625 45.359375 
Q 36.578125 48.484375 30.171875 48.484375 
Q 22.90625 48.484375 19.1875 42.84375 
Q 15.484375 37.203125 15.484375 25.984375 
Q 15.484375 14.75 19.171875 9.078125 
Q 22.859375 3.421875 30.171875 3.421875 
Q 35.984375 3.421875 39.453125 6.4375 
Q 42.921875 9.46875 44.1875 15.578125 
z
" id="DejaVuSerif-99"/>
       <path d="M 28.609375 0 
L 3.421875 0 
L 3.421875 5.171875 
L 11.53125 5.171875 
L 11.53125 70.796875 
L 2.875 70.796875 
L 2.875 75.984375 
L 20.515625 75.984375 
L 20.515625 26.515625 
L 42.390625 46.6875 
L 34.90625 46.6875 
L 34.90625 51.90625 
L 58.40625 51.90625 
L 58.40625 46.6875 
L 49.515625 46.6875 
L 34.078125 32.421875 
L 53.8125 5.171875 
L 61.28125 5.171875 
L 61.28125 0 
L 35.6875 0 
L 35.6875 5.171875 
L 43.109375 5.171875 
L 27.59375 26.515625 
L 20.515625 19.921875 
L 20.515625 5.171875 
L 28.609375 5.171875 
z
" id="DejaVuSerif-107"/>
      </defs>
      <use xlink:href="#DejaVuSerif-98"/>
      <use x="64.013672" xlink:href="#DejaVuSerif-97"/>
      <use x="123.632812" xlink:href="#DejaVuSerif-99"/>
      <use x="179.638672" xlink:href="#DejaVuSerif-107"/>
     </g>
    </g>
    <g id="patch_9">
     <path d="M 180.734235 26.795565 
L 204.734235 26.795565 
L 204.734235 18.395565 
L 180.734235 18.395565 
z
" style="fill:#afe88e;stroke:#afe88e;stroke-linejoin:miter;"/>
    </g>
    <g id="text_2">
     <!-- front -->
     <g transform="translate(214.334235 26.795565)scale(0.12 -0.12)">
      <defs>
       <path d="M 43.015625 63.71875 
L 38.28125 63.71875 
Q 38.234375 67.390625 36.203125 69.28125 
Q 34.1875 71.1875 30.328125 71.1875 
Q 25.296875 71.1875 23.234375 68.421875 
Q 21.1875 65.671875 21.1875 58.59375 
L 21.1875 51.90625 
L 35.6875 51.90625 
L 35.6875 46.6875 
L 21.1875 46.6875 
L 21.1875 5.171875 
L 32.71875 5.171875 
L 32.71875 0 
L 3.609375 0 
L 3.609375 5.171875 
L 12.203125 5.171875 
L 12.203125 46.6875 
L 3.609375 46.6875 
L 3.609375 51.90625 
L 12.203125 51.90625 
L 12.203125 58.40625 
Q 12.203125 67.09375 16.71875 71.53125 
Q 21.234375 75.984375 29.984375 75.984375 
Q 33.25 75.984375 36.515625 75.390625 
Q 39.796875 74.8125 43.015625 73.578125 
z
" id="DejaVuSerif-102"/>
       <path d="M 47.796875 52 
L 47.796875 39.015625 
L 42.625 39.015625 
Q 42.390625 42.875 40.484375 44.78125 
Q 38.578125 46.6875 34.90625 46.6875 
Q 28.265625 46.6875 24.71875 42.09375 
Q 21.1875 37.5 21.1875 28.90625 
L 21.1875 5.171875 
L 31.59375 5.171875 
L 31.59375 0 
L 4.109375 0 
L 4.109375 5.171875 
L 12.203125 5.171875 
L 12.203125 46.78125 
L 3.609375 46.78125 
L 3.609375 51.90625 
L 21.1875 51.90625 
L 21.1875 42.671875 
Q 23.828125 48.09375 27.96875 50.703125 
Q 32.125 53.328125 38.09375 53.328125 
Q 40.28125 53.328125 42.703125 52.984375 
Q 45.125 52.640625 47.796875 52 
z
" id="DejaVuSerif-114"/>
       <path d="M 30.078125 3.421875 
Q 37.3125 3.421875 40.984375 9.125 
Q 44.671875 14.84375 44.671875 25.984375 
Q 44.671875 37.109375 40.984375 42.796875 
Q 37.3125 48.484375 30.078125 48.484375 
Q 22.859375 48.484375 19.171875 42.796875 
Q 15.484375 37.109375 15.484375 25.984375 
Q 15.484375 14.84375 19.1875 9.125 
Q 22.90625 3.421875 30.078125 3.421875 
z
M 30.078125 -1.421875 
Q 18.75 -1.421875 11.859375 6.078125 
Q 4.984375 13.578125 4.984375 25.984375 
Q 4.984375 38.375 11.84375 45.84375 
Q 18.703125 53.328125 30.078125 53.328125 
Q 41.453125 53.328125 48.3125 45.84375 
Q 55.171875 38.375 55.171875 25.984375 
Q 55.171875 13.578125 48.3125 6.078125 
Q 41.453125 -1.421875 30.078125 -1.421875 
z
" id="DejaVuSerif-111"/>
       <path d="M 4.109375 0 
L 4.109375 5.171875 
L 12.203125 5.171875 
L 12.203125 46.6875 
L 3.609375 46.6875 
L 3.609375 51.90625 
L 21.1875 51.90625 
L 21.1875 42.671875 
Q 23.6875 47.953125 27.65625 50.640625 
Q 31.640625 53.328125 36.921875 53.328125 
Q 45.515625 53.328125 49.5625 48.390625 
Q 53.609375 43.453125 53.609375 33.015625 
L 53.609375 5.171875 
L 61.625 5.171875 
L 61.625 0 
L 36.8125 0 
L 36.8125 5.171875 
L 44.578125 5.171875 
L 44.578125 30.171875 
Q 44.578125 39.703125 42.234375 43.234375 
Q 39.890625 46.78125 33.984375 46.78125 
Q 27.734375 46.78125 24.453125 42.203125 
Q 21.1875 37.640625 21.1875 28.90625 
L 21.1875 5.171875 
L 29 5.171875 
L 29 0 
z
" id="DejaVuSerif-110"/>
       <path d="M 10.796875 46.6875 
L 2.875 46.6875 
L 2.875 51.90625 
L 10.796875 51.90625 
L 10.796875 68.015625 
L 19.828125 68.015625 
L 19.828125 51.90625 
L 36.71875 51.90625 
L 36.71875 46.6875 
L 19.828125 46.6875 
L 19.828125 13.71875 
Q 19.828125 7.125 21.09375 5.265625 
Q 22.359375 3.421875 25.78125 3.421875 
Q 29.296875 3.421875 30.90625 5.484375 
Q 32.515625 7.5625 32.625 12.203125 
L 39.40625 12.203125 
Q 39.015625 5.125 35.546875 1.84375 
Q 32.078125 -1.421875 25 -1.421875 
Q 17.234375 -1.421875 14.015625 2.015625 
Q 10.796875 5.46875 10.796875 13.71875 
z
" id="DejaVuSerif-116"/>
      </defs>
      <use xlink:href="#DejaVuSerif-102"/>
      <use x="37.011719" xlink:href="#DejaVuSerif-114"/>
      <use x="84.814453" xlink:href="#DejaVuSerif-111"/>
      <use x="145.019531" xlink:href="#DejaVuSerif-110"/>
      <use x="209.423828" xlink:href="#DejaVuSerif-116"/>
     </g>
    </g>
   </g>
  </g>
 </g>
 <defs>
  <clipPath id="pa1197759c4">
   <rect height="266.112" width="357.12" x="57.6" y="41.472"/>
  </clipPath>
 </defs>
</svg>
