<?xml version="1.0" encoding="utf-8" standalone="no"?>
<!DOCTYPE svg PUBLIC "-//W3C//DTD SVG 1.1//EN"
  "http://www.w3.org/Graphics/SVG/1.1/DTD/svg11.dtd">
<!-- Created with matplotlib (https://matplotlib.org/) -->
<svg height="345.6pt" version="1.1" viewBox="0 0 460.8 345.6" width="460.8pt" xmlns="http://www.w3.org/2000/svg" xmlns:xlink="http://www.w3.org/1999/xlink">
 <metadata>
  <rdf:RDF xmlns:cc="http://creativecommons.org/ns#" xmlns:dc="http://purl.org/dc/elements/1.1/" xmlns:rdf="http://www.w3.org/1999/02/22-rdf-syntax-ns#">
   <cc:Work>
    <dc:type rdf:resource="http://purl.org/dc/dcmitype/StillImage"/>
    <dc:date>2023-01-13T13:42:12.905052</dc:date>
    <dc:format>image/svg+xml</dc:format>
    <dc:creator>
     <cc:Agent>
      <dc:title>Matplotlib v3.3.4, https://matplotlib.org/</dc:title>
     </cc:Agent>
    </dc:creator>
   </cc:Work>
  </rdf:RDF>
 </metadata>
 <defs>
  <style type="text/css">*{stroke-linecap:butt;stroke-linejoin:round;}</style>
 </defs>
 <g id="figure_1">
  <g id="patch_1">
   <path d="M 0 345.6 
L 460.8 345.6 
L 460.8 0 
L 0 0 
z
" style="fill:#ffffff;"/>
  </g>
  <g id="axes_1">
   <g id="patch_2">
    <path d="M 57.6 307.584 
L 414.72 307.584 
L 414.72 41.472 
L 57.6 41.472 
z
" style="fill:#ffffff;"/>
   </g>
   <g id="matplotlib.axis_1">
    <g id="xtick_1">
     <g id="line2d_1">
      <defs>
       <path d="M 0 0 
L 0 3.5 
" id="mfd9f47b30d" style="stroke:#000000;stroke-width:0.8;"/>
      </defs>
      <g>
       <use style="stroke:#000000;stroke-width:0.8;" x="71.36253" xlink:href="#mfd9f47b30d" y="307.584"/>
      </g>
     </g>
     <g id="text_1">
      <!-- 0 -->
      <g transform="translate(68.18128 322.182437)scale(0.1 -0.1)">
       <defs>
        <path d="M 31.78125 3.421875 
Q 39.265625 3.421875 42.96875 11.625 
Q 46.6875 19.828125 46.6875 36.375 
Q 46.6875 52.984375 42.96875 61.1875 
Q 39.265625 69.390625 31.78125 69.390625 
Q 24.3125 69.390625 20.59375 61.1875 
Q 16.890625 52.984375 16.890625 36.375 
Q 16.890625 19.828125 20.59375 11.625 
Q 24.3125 3.421875 31.78125 3.421875 
z
M 31.78125 -1.421875 
Q 19.921875 -1.421875 13.25 8.53125 
Q 6.59375 18.5 6.59375 36.375 
Q 6.59375 54.296875 13.25 64.25 
Q 19.921875 74.21875 31.78125 74.21875 
Q 43.703125 74.21875 50.34375 64.25 
Q 56.984375 54.296875 56.984375 36.375 
Q 56.984375 18.5 50.34375 8.53125 
Q 43.703125 -1.421875 31.78125 -1.421875 
z
" id="DejaVuSerif-48"/>
       </defs>
       <use xlink:href="#DejaVuSerif-48"/>
      </g>
     </g>
    </g>
    <g id="xtick_2">
     <g id="line2d_2">
      <g>
       <use style="stroke:#000000;stroke-width:0.8;" x="141.939605" xlink:href="#mfd9f47b30d" y="307.584"/>
      </g>
     </g>
     <g id="text_2">
      <!-- 100 -->
      <g transform="translate(132.395855 322.182437)scale(0.1 -0.1)">
       <defs>
        <path d="M 14.203125 0 
L 14.203125 5.171875 
L 26.90625 5.171875 
L 26.90625 65.828125 
L 12.203125 56.296875 
L 12.203125 62.703125 
L 29.984375 74.21875 
L 36.71875 74.21875 
L 36.71875 5.171875 
L 49.421875 5.171875 
L 49.421875 0 
z
" id="DejaVuSerif-49"/>
       </defs>
       <use xlink:href="#DejaVuSerif-49"/>
       <use x="63.623047" xlink:href="#DejaVuSerif-48"/>
       <use x="127.246094" xlink:href="#DejaVuSerif-48"/>
      </g>
     </g>
    </g>
    <g id="xtick_3">
     <g id="line2d_3">
      <g>
       <use style="stroke:#000000;stroke-width:0.8;" x="212.51668" xlink:href="#mfd9f47b30d" y="307.584"/>
      </g>
     </g>
     <g id="text_3">
      <!-- 200 -->
      <g transform="translate(202.97293 322.182437)scale(0.1 -0.1)">
       <defs>
        <path d="M 12.796875 55.515625 
L 7.328125 55.515625 
L 7.328125 68.5 
Q 12.546875 71.296875 17.84375 72.75 
Q 23.140625 74.21875 28.21875 74.21875 
Q 39.59375 74.21875 46.1875 68.703125 
Q 52.78125 63.1875 52.78125 53.71875 
Q 52.78125 43.015625 37.84375 28.125 
Q 36.671875 27 36.078125 26.421875 
L 17.671875 8.015625 
L 48.09375 8.015625 
L 48.09375 17 
L 53.8125 17 
L 53.8125 0 
L 6.78125 0 
L 6.78125 5.328125 
L 28.90625 27.390625 
Q 36.234375 34.71875 39.359375 40.84375 
Q 42.484375 46.96875 42.484375 53.71875 
Q 42.484375 61.078125 38.640625 65.234375 
Q 34.8125 69.390625 28.078125 69.390625 
Q 21.09375 69.390625 17.28125 65.921875 
Q 13.484375 62.453125 12.796875 55.515625 
z
" id="DejaVuSerif-50"/>
       </defs>
       <use xlink:href="#DejaVuSerif-50"/>
       <use x="63.623047" xlink:href="#DejaVuSerif-48"/>
       <use x="127.246094" xlink:href="#DejaVuSerif-48"/>
      </g>
     </g>
    </g>
    <g id="xtick_4">
     <g id="line2d_4">
      <g>
       <use style="stroke:#000000;stroke-width:0.8;" x="283.093755" xlink:href="#mfd9f47b30d" y="307.584"/>
      </g>
     </g>
     <g id="text_4">
      <!-- 300 -->
      <g transform="translate(273.550005 322.182437)scale(0.1 -0.1)">
       <defs>
        <path d="M 9.71875 69.828125 
Q 15.4375 71.96875 20.671875 73.09375 
Q 25.921875 74.21875 30.515625 74.21875 
Q 41.21875 74.21875 47.21875 69.59375 
Q 53.21875 64.984375 53.21875 56.78125 
Q 53.21875 50.203125 49.0625 45.78125 
Q 44.921875 41.359375 37.3125 39.796875 
Q 46.296875 38.53125 51.25 33.28125 
Q 56.203125 28.03125 56.203125 19.671875 
Q 56.203125 9.46875 49.34375 4.015625 
Q 42.484375 -1.421875 29.59375 -1.421875 
Q 23.875 -1.421875 18.421875 -0.1875 
Q 12.984375 1.03125 7.625 3.515625 
L 7.625 17.671875 
L 13.09375 17.671875 
Q 13.578125 10.640625 17.828125 7.03125 
Q 22.078125 3.421875 29.78125 3.421875 
Q 37.25 3.421875 41.578125 7.734375 
Q 45.90625 12.0625 45.90625 19.578125 
Q 45.90625 28.171875 41.453125 32.59375 
Q 37.015625 37.015625 28.421875 37.015625 
L 23.78125 37.015625 
L 23.78125 42 
L 26.21875 42 
Q 34.765625 42 39.03125 45.53125 
Q 43.3125 49.078125 43.3125 56.203125 
Q 43.3125 62.59375 39.796875 65.984375 
Q 36.28125 69.390625 29.6875 69.390625 
Q 23.09375 69.390625 19.453125 66.265625 
Q 15.828125 63.140625 15.1875 56.984375 
L 9.71875 56.984375 
z
" id="DejaVuSerif-51"/>
       </defs>
       <use xlink:href="#DejaVuSerif-51"/>
       <use x="63.623047" xlink:href="#DejaVuSerif-48"/>
       <use x="127.246094" xlink:href="#DejaVuSerif-48"/>
      </g>
     </g>
    </g>
    <g id="xtick_5">
     <g id="line2d_5">
      <g>
       <use style="stroke:#000000;stroke-width:0.8;" x="353.67083" xlink:href="#mfd9f47b30d" y="307.584"/>
      </g>
     </g>
     <g id="text_5">
      <!-- 400 -->
      <g transform="translate(344.12708 322.182437)scale(0.1 -0.1)">
       <defs>
        <path d="M 34.90625 24.703125 
L 34.90625 63.484375 
L 10.015625 24.703125 
z
M 56.390625 0 
L 23.1875 0 
L 23.1875 5.171875 
L 34.90625 5.171875 
L 34.90625 19.484375 
L 3.078125 19.484375 
L 3.078125 24.8125 
L 35.015625 74.21875 
L 44.671875 74.21875 
L 44.671875 24.703125 
L 58.59375 24.703125 
L 58.59375 19.484375 
L 44.671875 19.484375 
L 44.671875 5.171875 
L 56.390625 5.171875 
z
" id="DejaVuSerif-52"/>
       </defs>
       <use xlink:href="#DejaVuSerif-52"/>
       <use x="63.623047" xlink:href="#DejaVuSerif-48"/>
       <use x="127.246094" xlink:href="#DejaVuSerif-48"/>
      </g>
     </g>
    </g>
    <g id="text_6">
     <!-- Time -->
     <g transform="translate(223.524844 335.860562)scale(0.1 -0.1)">
      <defs>
       <path d="M 19.09375 0 
L 19.09375 5.171875 
L 28.421875 5.171875 
L 28.421875 67.09375 
L 6.984375 67.09375 
L 6.984375 55.71875 
L 0.984375 55.71875 
L 0.984375 72.90625 
L 65.71875 72.90625 
L 65.71875 55.71875 
L 59.71875 55.71875 
L 59.71875 67.09375 
L 38.28125 67.09375 
L 38.28125 5.171875 
L 47.609375 5.171875 
L 47.609375 0 
z
" id="DejaVuSerif-84"/>
       <path d="M 9.71875 68.015625 
Q 9.71875 70.265625 11.34375 71.921875 
Q 12.984375 73.578125 15.28125 73.578125 
Q 17.53125 73.578125 19.15625 71.921875 
Q 20.796875 70.265625 20.796875 68.015625 
Q 20.796875 65.71875 19.1875 64.109375 
Q 17.578125 62.5 15.28125 62.5 
Q 12.984375 62.5 11.34375 64.109375 
Q 9.71875 65.71875 9.71875 68.015625 
z
M 21.1875 5.171875 
L 29.6875 5.171875 
L 29.6875 0 
L 3.609375 0 
L 3.609375 5.171875 
L 12.203125 5.171875 
L 12.203125 46.6875 
L 3.609375 46.6875 
L 3.609375 51.90625 
L 21.1875 51.90625 
z
" id="DejaVuSerif-105"/>
       <path d="M 51.8125 41.796875 
Q 54.390625 47.515625 58.421875 50.421875 
Q 62.453125 53.328125 67.828125 53.328125 
Q 75.984375 53.328125 79.984375 48.265625 
Q 83.984375 43.21875 83.984375 33.015625 
L 83.984375 5.171875 
L 92.09375 5.171875 
L 92.09375 0 
L 67.1875 0 
L 67.1875 5.171875 
L 75 5.171875 
L 75 31.984375 
Q 75 39.9375 72.65625 43.3125 
Q 70.3125 46.6875 64.890625 46.6875 
Q 58.890625 46.6875 55.734375 42.140625 
Q 52.59375 37.59375 52.59375 28.90625 
L 52.59375 5.171875 
L 60.40625 5.171875 
L 60.40625 0 
L 35.796875 0 
L 35.796875 5.171875 
L 43.609375 5.171875 
L 43.609375 32.328125 
Q 43.609375 40.09375 41.265625 43.390625 
Q 38.921875 46.6875 33.5 46.6875 
Q 27.484375 46.6875 24.328125 42.140625 
Q 21.1875 37.59375 21.1875 28.90625 
L 21.1875 5.171875 
L 29 5.171875 
L 29 0 
L 4.109375 0 
L 4.109375 5.171875 
L 12.203125 5.171875 
L 12.203125 46.78125 
L 3.609375 46.78125 
L 3.609375 51.90625 
L 21.1875 51.90625 
L 21.1875 42.671875 
Q 23.6875 47.859375 27.53125 50.59375 
Q 31.390625 53.328125 36.28125 53.328125 
Q 42.328125 53.328125 46.375 50.3125 
Q 50.4375 47.3125 51.8125 41.796875 
z
" id="DejaVuSerif-109"/>
       <path d="M 54.203125 25 
L 15.484375 25 
L 15.484375 24.609375 
Q 15.484375 14.109375 19.4375 8.765625 
Q 23.390625 3.421875 31.109375 3.421875 
Q 37.015625 3.421875 40.796875 6.515625 
Q 44.578125 9.625 46.09375 15.71875 
L 53.328125 15.71875 
Q 51.171875 7.171875 45.375 2.875 
Q 39.59375 -1.421875 30.171875 -1.421875 
Q 18.796875 -1.421875 11.890625 6.078125 
Q 4.984375 13.578125 4.984375 25.984375 
Q 4.984375 38.28125 11.765625 45.796875 
Q 18.5625 53.328125 29.59375 53.328125 
Q 41.359375 53.328125 47.65625 46.0625 
Q 53.953125 38.8125 54.203125 25 
z
M 43.609375 30.171875 
Q 43.3125 39.265625 39.765625 43.875 
Q 36.234375 48.484375 29.59375 48.484375 
Q 23.390625 48.484375 19.828125 43.84375 
Q 16.265625 39.203125 15.484375 30.171875 
z
" id="DejaVuSerif-101"/>
      </defs>
      <use xlink:href="#DejaVuSerif-84"/>
      <use x="66.699219" xlink:href="#DejaVuSerif-105"/>
      <use x="98.681641" xlink:href="#DejaVuSerif-109"/>
      <use x="193.505859" xlink:href="#DejaVuSerif-101"/>
     </g>
    </g>
   </g>
   <g id="matplotlib.axis_2">
    <g id="ytick_1">
     <g id="line2d_6">
      <defs>
       <path d="M 0 0 
L -3.5 0 
" id="m84c7bd0ae6" style="stroke:#000000;stroke-width:0.8;"/>
      </defs>
      <g>
       <use style="stroke:#000000;stroke-width:0.8;" x="57.6" xlink:href="#m84c7bd0ae6" y="295.488"/>
      </g>
     </g>
     <g id="text_7">
      <!-- 1.0 -->
      <g transform="translate(34.696875 299.287219)scale(0.1 -0.1)">
       <defs>
        <path d="M 9.421875 5.078125 
Q 9.421875 7.8125 11.28125 9.71875 
Q 13.140625 11.625 15.921875 11.625 
Q 18.609375 11.625 20.5 9.71875 
Q 22.40625 7.8125 22.40625 5.078125 
Q 22.40625 2.390625 20.5 0.484375 
Q 18.609375 -1.421875 15.921875 -1.421875 
Q 13.140625 -1.421875 11.28125 0.453125 
Q 9.421875 2.34375 9.421875 5.078125 
z
" id="DejaVuSerif-46"/>
       </defs>
       <use xlink:href="#DejaVuSerif-49"/>
       <use x="63.623047" xlink:href="#DejaVuSerif-46"/>
       <use x="95.410156" xlink:href="#DejaVuSerif-48"/>
      </g>
     </g>
    </g>
    <g id="ytick_2">
     <g id="line2d_7">
      <g>
       <use style="stroke:#000000;stroke-width:0.8;" x="57.6" xlink:href="#m84c7bd0ae6" y="264.698182"/>
      </g>
     </g>
     <g id="text_8">
      <!-- 1.2 -->
      <g transform="translate(34.696875 268.497401)scale(0.1 -0.1)">
       <use xlink:href="#DejaVuSerif-49"/>
       <use x="63.623047" xlink:href="#DejaVuSerif-46"/>
       <use x="95.410156" xlink:href="#DejaVuSerif-50"/>
      </g>
     </g>
    </g>
    <g id="ytick_3">
     <g id="line2d_8">
      <g>
       <use style="stroke:#000000;stroke-width:0.8;" x="57.6" xlink:href="#m84c7bd0ae6" y="233.908364"/>
      </g>
     </g>
     <g id="text_9">
      <!-- 1.4 -->
      <g transform="translate(34.696875 237.707582)scale(0.1 -0.1)">
       <use xlink:href="#DejaVuSerif-49"/>
       <use x="63.623047" xlink:href="#DejaVuSerif-46"/>
       <use x="95.410156" xlink:href="#DejaVuSerif-52"/>
      </g>
     </g>
    </g>
    <g id="ytick_4">
     <g id="line2d_9">
      <g>
       <use style="stroke:#000000;stroke-width:0.8;" x="57.6" xlink:href="#m84c7bd0ae6" y="203.118545"/>
      </g>
     </g>
     <g id="text_10">
      <!-- 1.6 -->
      <g transform="translate(34.696875 206.917764)scale(0.1 -0.1)">
       <defs>
        <path d="M 32.71875 3.421875 
Q 39.59375 3.421875 43.296875 8.46875 
Q 47.015625 13.53125 47.015625 23 
Q 47.015625 32.46875 43.296875 37.515625 
Q 39.59375 42.578125 32.71875 42.578125 
Q 25.734375 42.578125 22.0625 37.6875 
Q 18.40625 32.8125 18.40625 23.578125 
Q 18.40625 13.875 22.109375 8.640625 
Q 25.828125 3.421875 32.71875 3.421875 
z
M 16.796875 40.140625 
Q 20.125 43.796875 24.3125 45.59375 
Q 28.515625 47.40625 33.796875 47.40625 
Q 44.671875 47.40625 51 40.859375 
Q 57.328125 34.328125 57.328125 23 
Q 57.328125 11.921875 50.515625 5.25 
Q 43.703125 -1.421875 32.328125 -1.421875 
Q 19.96875 -1.421875 13.328125 7.78125 
Q 6.6875 17 6.6875 34.078125 
Q 6.6875 53.21875 14.546875 63.71875 
Q 22.40625 74.21875 36.71875 74.21875 
Q 40.578125 74.21875 44.828125 73.484375 
Q 49.078125 72.75 53.515625 71.296875 
L 53.515625 59.28125 
L 48 59.28125 
Q 47.40625 64.203125 44.234375 66.796875 
Q 41.0625 69.390625 35.6875 69.390625 
Q 26.21875 69.390625 21.578125 62.203125 
Q 16.9375 55.03125 16.796875 40.140625 
z
" id="DejaVuSerif-54"/>
       </defs>
       <use xlink:href="#DejaVuSerif-49"/>
       <use x="63.623047" xlink:href="#DejaVuSerif-46"/>
       <use x="95.410156" xlink:href="#DejaVuSerif-54"/>
      </g>
     </g>
    </g>
    <g id="ytick_5">
     <g id="line2d_10">
      <g>
       <use style="stroke:#000000;stroke-width:0.8;" x="57.6" xlink:href="#m84c7bd0ae6" y="172.328727"/>
      </g>
     </g>
     <g id="text_11">
      <!-- 1.8 -->
      <g transform="translate(34.696875 176.127946)scale(0.1 -0.1)">
       <defs>
        <path d="M 46.578125 19.921875 
Q 46.578125 27.734375 42.6875 32.046875 
Q 38.8125 36.375 31.78125 36.375 
Q 24.75 36.375 20.875 32.046875 
Q 17 27.734375 17 19.921875 
Q 17 12.0625 20.875 7.734375 
Q 24.75 3.421875 31.78125 3.421875 
Q 38.8125 3.421875 42.6875 7.734375 
Q 46.578125 12.0625 46.578125 19.921875 
z
M 44.578125 55.328125 
Q 44.578125 61.96875 41.203125 65.671875 
Q 37.84375 69.390625 31.78125 69.390625 
Q 25.78125 69.390625 22.390625 65.671875 
Q 19 61.96875 19 55.328125 
Q 19 48.640625 22.390625 44.921875 
Q 25.78125 41.21875 31.78125 41.21875 
Q 37.84375 41.21875 41.203125 44.921875 
Q 44.578125 48.640625 44.578125 55.328125 
z
M 39.3125 38.8125 
Q 47.609375 37.703125 52.25 32.6875 
Q 56.890625 27.6875 56.890625 19.921875 
Q 56.890625 9.671875 50.390625 4.125 
Q 43.890625 -1.421875 31.78125 -1.421875 
Q 19.734375 -1.421875 13.203125 4.125 
Q 6.6875 9.671875 6.6875 19.921875 
Q 6.6875 27.6875 11.328125 32.6875 
Q 15.96875 37.703125 24.3125 38.8125 
Q 16.9375 40.140625 13 44.40625 
Q 9.078125 48.6875 9.078125 55.328125 
Q 9.078125 64.109375 15.125 69.15625 
Q 21.1875 74.21875 31.78125 74.21875 
Q 42.390625 74.21875 48.4375 69.15625 
Q 54.5 64.109375 54.5 55.328125 
Q 54.5 48.6875 50.5625 44.40625 
Q 46.625 40.140625 39.3125 38.8125 
z
" id="DejaVuSerif-56"/>
       </defs>
       <use xlink:href="#DejaVuSerif-49"/>
       <use x="63.623047" xlink:href="#DejaVuSerif-46"/>
       <use x="95.410156" xlink:href="#DejaVuSerif-56"/>
      </g>
     </g>
    </g>
    <g id="ytick_6">
     <g id="line2d_11">
      <g>
       <use style="stroke:#000000;stroke-width:0.8;" x="57.6" xlink:href="#m84c7bd0ae6" y="141.538909"/>
      </g>
     </g>
     <g id="text_12">
      <!-- 2.0 -->
      <g transform="translate(34.696875 145.338128)scale(0.1 -0.1)">
       <use xlink:href="#DejaVuSerif-50"/>
       <use x="63.623047" xlink:href="#DejaVuSerif-46"/>
       <use x="95.410156" xlink:href="#DejaVuSerif-48"/>
      </g>
     </g>
    </g>
    <g id="ytick_7">
     <g id="line2d_12">
      <g>
       <use style="stroke:#000000;stroke-width:0.8;" x="57.6" xlink:href="#m84c7bd0ae6" y="110.749091"/>
      </g>
     </g>
     <g id="text_13">
      <!-- 2.2 -->
      <g transform="translate(34.696875 114.54831)scale(0.1 -0.1)">
       <use xlink:href="#DejaVuSerif-50"/>
       <use x="63.623047" xlink:href="#DejaVuSerif-46"/>
       <use x="95.410156" xlink:href="#DejaVuSerif-50"/>
      </g>
     </g>
    </g>
    <g id="ytick_8">
     <g id="line2d_13">
      <g>
       <use style="stroke:#000000;stroke-width:0.8;" x="57.6" xlink:href="#m84c7bd0ae6" y="79.959273"/>
      </g>
     </g>
     <g id="text_14">
      <!-- 2.4 -->
      <g transform="translate(34.696875 83.758491)scale(0.1 -0.1)">
       <use xlink:href="#DejaVuSerif-50"/>
       <use x="63.623047" xlink:href="#DejaVuSerif-46"/>
       <use x="95.410156" xlink:href="#DejaVuSerif-52"/>
      </g>
     </g>
    </g>
    <g id="ytick_9">
     <g id="line2d_14">
      <g>
       <use style="stroke:#000000;stroke-width:0.8;" x="57.6" xlink:href="#m84c7bd0ae6" y="49.169455"/>
      </g>
     </g>
     <g id="text_15">
      <!-- 2.6 -->
      <g transform="translate(34.696875 52.968673)scale(0.1 -0.1)">
       <use xlink:href="#DejaVuSerif-50"/>
       <use x="63.623047" xlink:href="#DejaVuSerif-46"/>
       <use x="95.410156" xlink:href="#DejaVuSerif-54"/>
      </g>
     </g>
    </g>
    <g id="text_16">
     <!-- Speed -->
     <g transform="translate(28.617187 190.273313)rotate(-90)scale(0.1 -0.1)">
      <defs>
       <path d="M 9.28125 3.515625 
L 9.28125 20.125 
L 14.890625 20.0625 
Q 15.140625 11.765625 19.703125 7.78125 
Q 24.265625 3.8125 33.59375 3.8125 
Q 42.28125 3.8125 46.84375 7.25 
Q 51.421875 10.6875 51.421875 17.28125 
Q 51.421875 22.5625 48.65625 25.390625 
Q 45.90625 28.21875 37.015625 30.90625 
L 27.390625 33.796875 
Q 16.9375 36.96875 12.671875 41.703125 
Q 8.40625 46.4375 8.40625 54.6875 
Q 8.40625 63.96875 14.984375 69.09375 
Q 21.578125 74.21875 33.5 74.21875 
Q 38.578125 74.21875 44.625 73.109375 
Q 50.6875 72.015625 57.515625 69.921875 
L 57.515625 54.390625 
L 52 54.390625 
Q 51.171875 62.109375 46.84375 65.546875 
Q 42.53125 69 33.6875 69 
Q 25.984375 69 21.953125 65.84375 
Q 17.921875 62.703125 17.921875 56.6875 
Q 17.921875 51.46875 20.9375 48.484375 
Q 23.96875 45.515625 33.796875 42.578125 
L 42.828125 39.890625 
Q 52.734375 36.921875 56.953125 32.296875 
Q 61.1875 27.6875 61.1875 19.921875 
Q 61.1875 9.328125 54.390625 3.953125 
Q 47.609375 -1.421875 34.1875 -1.421875 
Q 28.171875 -1.421875 21.9375 -0.1875 
Q 15.71875 1.03125 9.28125 3.515625 
z
" id="DejaVuSerif-83"/>
       <path d="M 20.515625 28.515625 
L 20.515625 23.390625 
Q 20.515625 14.015625 24.09375 9.109375 
Q 27.6875 4.203125 34.515625 4.203125 
Q 41.40625 4.203125 44.9375 9.71875 
Q 48.484375 15.234375 48.484375 25.984375 
Q 48.484375 36.765625 44.9375 42.234375 
Q 41.40625 47.703125 34.515625 47.703125 
Q 27.6875 47.703125 24.09375 42.765625 
Q 20.515625 37.84375 20.515625 28.515625 
z
M 11.53125 46.6875 
L 2.875 46.6875 
L 2.875 51.90625 
L 20.515625 51.90625 
L 20.515625 43.796875 
Q 23.140625 48.6875 27.21875 51 
Q 31.296875 53.328125 37.3125 53.328125 
Q 46.875 53.328125 52.921875 45.75 
Q 58.984375 38.1875 58.984375 25.984375 
Q 58.984375 13.765625 52.921875 6.171875 
Q 46.875 -1.421875 37.3125 -1.421875 
Q 31.296875 -1.421875 27.21875 0.890625 
Q 23.140625 3.21875 20.515625 8.109375 
L 20.515625 -15.578125 
L 29 -15.578125 
L 29 -20.796875 
L 2.875 -20.796875 
L 2.875 -15.578125 
L 11.53125 -15.578125 
z
" id="DejaVuSerif-112"/>
       <path d="M 52.484375 5.171875 
L 61.078125 5.171875 
L 61.078125 0 
L 43.5 0 
L 43.5 8.109375 
Q 40.875 3.21875 36.796875 0.890625 
Q 32.71875 -1.421875 26.703125 -1.421875 
Q 17.140625 -1.421875 11.0625 6.171875 
Q 4.984375 13.765625 4.984375 25.984375 
Q 4.984375 38.1875 11.03125 45.75 
Q 17.09375 53.328125 26.703125 53.328125 
Q 32.71875 53.328125 36.796875 51 
Q 40.875 48.6875 43.5 43.796875 
L 43.5 70.796875 
L 35.015625 70.796875 
L 35.015625 75.984375 
L 52.484375 75.984375 
z
M 43.5 23.390625 
L 43.5 28.515625 
Q 43.5 37.84375 39.90625 42.765625 
Q 36.328125 47.703125 29.5 47.703125 
Q 22.5625 47.703125 19.015625 42.234375 
Q 15.484375 36.765625 15.484375 25.984375 
Q 15.484375 15.234375 19.015625 9.71875 
Q 22.5625 4.203125 29.5 4.203125 
Q 36.328125 4.203125 39.90625 9.109375 
Q 43.5 14.015625 43.5 23.390625 
z
" id="DejaVuSerif-100"/>
      </defs>
      <use xlink:href="#DejaVuSerif-83"/>
      <use x="68.505859" xlink:href="#DejaVuSerif-112"/>
      <use x="132.519531" xlink:href="#DejaVuSerif-101"/>
      <use x="191.699219" xlink:href="#DejaVuSerif-101"/>
      <use x="250.878906" xlink:href="#DejaVuSerif-100"/>
     </g>
    </g>
   </g>
   <g id="line2d_15">
    <path clip-path="url(#p48fd9a0783)" d="M 73.832727 218.513455 
L 74.305594 218.513455 
L 74.418517 264.698182 
L 74.538498 264.698182 
L 74.658479 79.959273 
L 74.771402 264.698182 
L 74.891383 264.698182 
L 75.011364 295.488 
L 75.124288 141.538909 
L 75.244269 141.538909 
L 75.36425 295.488 
L 75.477173 141.538909 
L 75.597154 185.524364 
L 75.717135 185.524364 
L 75.830058 53.568 
L 75.95004 185.524364 
L 76.070021 185.524364 
L 76.182944 218.513455 
L 76.302925 103.051636 
L 76.422906 218.513455 
L 76.535829 218.513455 
L 76.65581 103.051636 
L 76.775791 141.538909 
L 76.888715 244.171636 
L 77.008696 141.538909 
L 77.2416 141.538909 
L 77.361581 172.328727 
L 77.834447 172.328727 
L 77.947371 197.520397 
L 78.067352 197.520397 
L 78.187333 113.548165 
L 78.300256 197.520397 
L 78.420237 197.520397 
L 78.540218 141.538909 
L 79.006027 141.538909 
L 79.126008 165.223385 
L 79.245989 94.169958 
L 79.358912 165.223385 
L 79.478893 165.223385 
L 79.598874 94.169958 
L 79.711798 119.546182 
L 79.831779 185.524364 
L 79.95176 185.524364 
L 80.064683 119.546182 
L 80.304645 203.118545 
L 80.417568 141.538909 
L 80.537549 141.538909 
L 80.65753 203.118545 
L 80.770454 141.538909 
L 80.890435 160.782545 
L 81.363301 160.782545 
L 81.476225 123.427251 
L 81.596206 177.762225 
L 81.716187 177.762225 
L 81.82911 123.427251 
L 81.949091 123.427251 
L 82.069072 141.538909 
L 82.534881 141.538909 
L 82.654862 157.744077 
L 82.774843 157.744077 
L 82.887766 109.128574 
L 83.007747 157.744077 
L 83.127728 157.744077 
L 83.240651 126.144 
L 83.360632 126.144 
L 83.480613 172.328727 
L 83.593537 126.144 
L 83.713518 126.144 
L 83.833499 141.538909 
L 84.299308 141.538909 
L 84.419289 155.534281 
L 84.53927 155.534281 
L 84.652193 113.548165 
L 84.772174 155.534281 
L 84.892155 155.534281 
L 85.005078 128.152032 
L 85.125059 128.152032 
L 85.24504 168.312664 
L 85.357964 128.152032 
L 85.477945 128.152032 
L 85.597926 141.538909 
L 86.063734 141.538909 
L 86.183715 153.854836 
L 86.303696 153.854836 
L 86.41662 116.907055 
L 86.536601 153.854836 
L 86.656582 153.854836 
L 86.769505 129.696671 
L 86.889486 129.696671 
L 87.009467 165.223385 
L 87.122391 129.696671 
L 87.242372 129.696671 
L 87.362353 141.538909 
L 87.828161 141.538909 
L 87.948142 152.535273 
L 88.068123 152.535273 
L 88.181047 119.546182 
L 88.301028 152.535273 
L 88.421009 152.535273 
L 88.533932 130.92173 
L 88.653913 130.92173 
L 88.773894 162.773266 
L 88.886817 130.92173 
L 89.006798 130.92173 
L 89.126779 110.749091 
L 89.239703 141.538909 
L 89.359684 141.538909 
L 89.479665 110.749091 
L 89.712569 151.471109 
L 89.83255 121.67451 
L 89.945474 121.67451 
L 90.065455 151.471109 
L 90.185436 121.67451 
L 90.298359 131.917091 
L 90.771225 131.917091 
L 90.891206 113.548165 
L 91.00413 141.538909 
L 91.124111 141.538909 
L 91.244092 113.548165 
L 91.476996 150.594738 
L 91.596977 123.427251 
L 91.7099 123.427251 
L 91.829881 150.594738 
L 91.949862 123.427251 
L 92.062786 132.741818 
L 92.535652 132.741818 
L 92.655633 115.880727 
L 92.768557 141.538909 
L 92.888538 141.538909 
L 93.008519 115.880727 
L 93.241423 149.860482 
L 93.361404 124.895764 
L 93.474327 149.860482 
L 93.594308 149.860482 
L 93.714289 124.895764 
L 93.827213 133.436325 
L 93.947194 157.744077 
L 94.067175 133.436325 
L 94.180098 133.436325 
L 94.300079 157.744077 
L 94.42006 141.538909 
L 94.532983 141.538909 
L 94.652964 117.854434 
L 94.772945 141.538909 
L 94.885869 141.538909 
L 95.00585 126.144 
L 95.125831 126.144 
L 95.238754 149.236364 
L 95.358735 126.144 
L 95.478716 126.144 
L 95.59164 134.029197 
L 96.064506 134.029197 
L 96.184487 141.538909 
L 96.29741 141.538909 
L 96.417391 119.546182 
L 96.537372 141.538909 
L 96.650296 141.538909 
L 96.770277 127.218063 
L 96.890258 127.218063 
L 97.003181 148.699332 
L 97.123162 127.218063 
L 97.243143 127.218063 
L 97.356066 134.541223 
L 97.828933 134.541223 
L 97.948914 141.538909 
L 98.061837 141.538909 
L 98.181818 121.012364 
L 98.301799 141.538909 
L 98.414723 141.538909 
L 98.534704 128.152032 
L 98.654685 128.152032 
L 98.767608 148.232348 
L 98.887589 128.152032 
L 99.00757 128.152032 
L 99.120493 115.334809 
L 99.240474 134.987884 
L 99.360455 134.987884 
L 99.473379 115.334809 
L 99.713341 141.538909 
L 99.826264 122.295273 
L 99.946245 122.295273 
L 100.066226 141.538909 
L 100.179149 122.295273 
L 100.29913 128.971636 
L 100.419111 147.822545 
L 100.532035 128.971636 
L 100.652016 128.971636 
L 100.771997 147.822545 
L 100.88492 135.380945 
L 101.357787 135.380945 
L 101.477768 141.538909 
L 101.590691 123.427251 
L 101.710672 141.538909 
L 101.830653 141.538909 
L 101.943576 123.427251 
L 102.063557 129.696671 
L 102.183538 147.460028 
L 102.296462 129.696671 
L 102.416443 129.696671 
L 102.536424 147.460028 
L 102.649347 135.729509 
L 102.769328 135.729509 
L 102.889309 118.30131 
L 103.002232 135.729509 
L 103.122213 135.729509 
L 103.242194 124.433455 
L 103.355118 124.433455 
L 103.475099 141.538909 
L 103.59508 124.433455 
L 103.708003 124.433455 
L 103.827984 130.342612 
L 104.300851 130.342612 
L 104.413774 136.040727 
L 104.533755 136.040727 
L 104.653736 119.546182 
L 104.766659 136.040727 
L 104.88664 136.040727 
L 105.006621 125.333742 
L 105.119545 125.333742 
L 105.239526 141.538909 
L 105.359507 125.333742 
L 105.47243 125.333742 
L 105.592411 130.92173 
L 105.825315 130.92173 
L 105.945296 146.847498 
L 106.065277 130.92173 
L 106.178201 136.320296 
L 106.298182 120.664456 
L 106.418163 136.320296 
L 106.531086 136.320296 
L 106.651067 120.664456 
L 106.771048 126.144 
L 106.883972 141.538909 
L 107.003953 126.144 
L 107.123934 126.144 
L 107.236857 141.538909 
L 107.356838 131.443887 
L 107.829704 131.443887 
L 107.942628 136.572809 
L 108.062609 121.67451 
L 108.18259 136.572809 
L 108.295513 136.572809 
L 108.415494 121.67451 
L 108.535475 126.877091 
L 108.648398 141.538909 
L 108.768379 126.877091 
L 108.88836 126.877091 
L 109.001284 141.538909 
L 109.121265 131.917091 
L 109.594131 131.917091 
L 109.707055 122.591329 
L 109.827036 122.591329 
L 109.947017 136.802014 
L 110.05994 122.591329 
L 110.179921 122.591329 
L 110.299902 127.543537 
L 110.532806 127.543537 
L 110.652787 141.538909 
L 110.765711 127.543537 
L 110.885692 132.347919 
L 111.358558 132.347919 
L 111.471481 123.427251 
L 111.591462 137.010995 
L 111.711443 137.010995 
L 111.824367 123.427251 
L 112.064329 141.538909 
L 112.177252 128.152032 
L 112.297233 128.152032 
L 112.417214 141.538909 
L 112.530138 128.152032 
L 112.650119 132.741818 
L 113.003004 132.741818 
L 113.122985 119.546182 
L 113.235908 124.192533 
L 113.355889 137.202315 
L 113.47587 124.192533 
L 113.588794 124.192533 
L 113.708775 137.202315 
L 113.828756 128.709818 
L 114.294564 128.709818 
L 114.414545 133.103342 
L 114.534526 120.449993 
L 114.64745 133.103342 
L 114.887412 133.103342 
L 115.000335 137.378123 
L 115.120316 137.378123 
L 115.240297 124.895764 
L 115.353221 137.378123 
L 115.473202 137.378123 
L 115.593183 129.222982 
L 115.706106 129.222982 
L 115.826087 141.538909 
L 115.946068 129.222982 
L 116.058991 129.222982 
L 116.178972 121.28245 
L 116.298953 133.436325 
L 116.411877 133.436325 
L 116.531858 121.28245 
L 116.764762 137.540231 
L 116.884743 125.544198 
L 117.004724 125.544198 
L 117.117647 137.540231 
L 117.237628 125.544198 
L 117.357609 129.696671 
L 117.823418 129.696671 
L 117.943399 122.051682 
L 118.06338 133.744018 
L 118.176304 133.744018 
L 118.296285 122.051682 
L 118.529189 137.690182 
L 118.64917 126.144 
L 118.769151 126.144 
L 118.882074 137.690182 
L 119.002055 126.144 
L 119.122036 130.135273 
L 119.23496 141.538909 
L 119.354941 130.135273 
L 119.587845 130.135273 
L 119.707826 134.029197 
L 119.827807 134.029197 
L 119.94073 122.76463 
L 120.060711 134.029197 
L 120.180692 134.029197 
L 120.293616 126.700442 
L 120.413597 126.700442 
L 120.533578 137.829292 
L 120.646501 126.700442 
L 120.766482 126.700442 
L 120.886463 130.542545 
L 121.352272 130.542545 
L 121.472253 134.294246 
L 121.592234 134.294246 
L 121.705157 123.427251 
L 121.825138 134.294246 
L 121.945119 134.294246 
L 122.058043 127.218063 
L 122.178024 127.218063 
L 122.298005 137.958698 
L 122.410928 127.218063 
L 122.530909 127.218063 
L 122.65089 120.304552 
L 122.763813 130.92173 
L 122.883794 130.92173 
L 123.003775 120.304552 
L 123.23668 134.541223 
L 123.356661 124.044694 
L 123.469584 134.541223 
L 123.589565 134.541223 
L 123.709546 124.044694 
L 123.82247 127.700789 
L 123.942451 138.079379 
L 124.062432 127.700789 
L 124.175355 127.700789 
L 124.295336 138.079379 
L 124.415317 131.275636 
L 124.881126 131.275636 
L 125.001107 134.771916 
L 125.121088 124.621427 
L 125.234011 134.771916 
L 125.353992 124.621427 
L 125.473973 124.621427 
L 125.586896 128.152032 
L 126.059763 128.152032 
L 126.179744 131.60671 
L 126.292667 131.60671 
L 126.412648 121.67451 
L 126.532629 131.60671 
L 126.645553 131.60671 
L 126.765534 125.161346 
L 126.885515 125.161346 
L 126.998438 134.987884 
L 127.118419 125.161346 
L 127.351323 138.297876 
L 127.471304 128.574775 
L 127.591285 128.574775 
L 127.704209 138.297876 
L 127.82419 128.574775 
L 127.944171 131.917091 
L 128.297056 131.917091 
L 128.409979 122.295273 
L 128.52996 125.667869 
L 128.649942 135.190493 
L 128.762865 125.667869 
L 128.882846 125.667869 
L 129.002827 135.190493 
L 129.11575 128.971636 
L 129.588617 128.971636 
L 129.708598 132.208661 
L 129.821521 122.878413 
L 129.941502 132.208661 
L 130.061483 132.208661 
L 130.174406 122.878413 
L 130.294387 126.144 
L 130.414368 135.380945 
L 130.527292 126.144 
L 130.647273 126.144 
L 130.767254 135.380945 
L 130.880177 129.344922 
L 131.353043 129.344922 
L 131.473025 123.427251 
L 131.585948 132.48308 
L 131.705929 132.48308 
L 131.82591 123.427251 
L 132.058814 135.560304 
L 132.178795 126.592395 
L 132.291719 126.592395 
L 132.4117 135.560304 
L 132.531681 126.592395 
L 132.644604 129.696671 
L 133.11747 129.696671 
L 133.237451 123.944727 
L 133.350375 132.741818 
L 133.470356 132.741818 
L 133.590337 123.944727 
L 133.823241 135.729509 
L 133.943222 127.01541 
L 134.296108 127.01541 
L 134.409031 130.028697 
L 134.529012 121.396037 
L 134.648993 130.028697 
L 134.761916 130.028697 
L 134.881897 121.396037 
L 135.001878 124.433455 
L 135.114802 132.986182 
L 135.234783 124.433455 
L 135.354764 132.986182 
L 135.467687 132.986182 
L 135.587668 127.415139 
L 135.707649 127.415139 
L 135.820572 135.889401 
L 135.940553 127.415139 
L 136.060534 127.415139 
L 136.173458 130.342612 
L 136.646324 130.342612 
L 136.766305 133.217337 
L 136.879228 124.895764 
L 136.999209 124.895764 
L 137.119191 133.217337 
L 137.232114 124.895764 
L 137.352095 127.793455 
L 137.824961 127.793455 
L 137.937885 122.46557 
L 138.057866 130.639858 
L 138.177847 130.639858 
L 138.29077 122.46557 
L 138.530732 133.436325 
L 138.643655 125.333742 
L 138.763636 133.436325 
L 138.883617 133.436325 
L 138.996541 125.333742 
L 139.116522 128.152032 
L 139.236503 136.184158 
L 139.349426 128.152032 
L 139.589388 128.152032 
L 139.702311 130.92173 
L 139.822292 130.92173 
L 139.942274 122.958846 
L 140.055197 130.92173 
L 140.175178 130.92173 
L 140.295159 125.749259 
L 140.408082 125.749259 
L 140.528063 133.644084 
L 140.648044 125.749259 
L 140.760968 125.749259 
L 140.880949 128.492376 
L 141.353815 128.492376 
L 141.466738 131.18939 
L 141.586719 131.18939 
L 141.7067 123.427251 
L 141.819624 131.18939 
L 141.939605 123.427251 
L 142.059586 126.144 
L 142.412471 126.144 
L 142.525394 133.841455 
L 142.645375 128.815844 
L 143.118242 128.815844 
L 143.231165 131.443887 
L 143.351146 123.87262 
L 143.471127 131.443887 
L 143.584051 131.443887 
L 143.704032 123.87262 
L 143.824013 126.519486 
L 144.289821 126.519486 
L 144.409802 129.12366 
L 144.529783 129.12366 
L 144.642707 121.67451 
L 144.762688 129.12366 
L 144.882669 129.12366 
L 144.995592 124.296611 
L 145.115573 124.296611 
L 145.235554 131.686167 
L 145.348477 124.296611 
L 145.468458 124.296611 
L 145.58844 126.877091 
L 145.821344 126.877091 
L 145.941325 119.546182 
L 146.174229 129.416933 
L 146.29421 122.143748 
L 146.407134 129.416933 
L 146.527115 129.416933 
L 146.647096 122.143748 
L 146.760019 124.700727 
L 146.88 131.917091 
L 146.999981 124.700727 
L 147.112904 124.700727 
L 147.232885 131.917091 
L 147.352866 127.218063 
L 147.46579 127.218063 
L 147.585771 120.057641 
L 147.705752 127.218063 
L 147.818675 127.218063 
L 147.938656 122.591329 
L 148.058637 122.591329 
L 148.17156 129.696671 
L 148.291542 122.591329 
L 148.411523 122.591329 
L 148.524446 125.086334 
L 148.764408 125.086334 
L 148.877331 118.035231 
L 149.117293 127.543537 
L 149.230217 120.545851 
L 149.350198 120.545851 
L 149.470179 127.543537 
L 149.583102 120.545851 
L 149.703083 123.018718 
L 149.823064 129.963789 
L 149.935987 123.018718 
L 150.055968 123.018718 
L 150.175949 129.963789 
L 150.288873 125.454676 
L 150.408854 125.454676 
L 150.528835 118.561433 
L 150.641758 125.454676 
L 150.761739 125.454676 
L 150.88172 121.012364 
L 150.994643 121.012364 
L 151.114625 127.854545 
L 151.234606 121.012364 
L 151.347529 121.012364 
L 151.46751 123.427251 
L 151.940376 123.427251 
L 152.0533 125.806885 
L 152.173281 119.064589 
L 152.293262 119.064589 
L 152.406185 125.806885 
L 152.526166 119.064589 
L 152.646147 121.458593 
L 152.999032 121.458593 
L 153.111956 128.152032 
L 153.231937 123.81815 
L 153.351918 123.81815 
L 153.464841 117.172866 
L 153.584822 123.81815 
L 153.704803 123.81815 
L 153.817726 119.546182 
L 153.937708 119.546182 
L 154.057689 126.144 
L 154.170612 119.546182 
L 154.290593 119.546182 
L 154.410574 121.885834 
L 154.876383 121.885834 
L 154.996364 124.192533 
L 155.116345 117.687641 
L 155.229268 117.687641 
L 155.349249 124.192533 
L 155.46923 117.687641 
L 155.582153 120.007568 
L 156.05502 120.007568 
L 156.175001 115.880727 
L 156.287924 122.295273 
L 156.407905 115.880727 
L 156.527886 122.295273 
L 156.640809 122.295273 
L 156.760791 118.181116 
L 156.880772 118.181116 
L 156.993695 124.551423 
L 157.113676 118.181116 
L 157.233657 118.181116 
L 157.34658 120.449993 
L 157.819447 120.449993 
L 157.939428 122.688 
L 158.052351 116.404364 
L 158.172332 116.404364 
L 158.292313 122.688 
L 158.405236 116.404364 
L 158.525217 118.654585 
L 158.998084 118.654585 
L 159.111007 114.675309 
L 159.230988 120.874602 
L 159.583874 120.874602 
L 159.703855 116.907055 
L 159.816778 116.907055 
L 159.936759 123.065018 
L 160.05674 116.907055 
L 160.169663 116.907055 
L 160.289644 119.10924 
L 160.762511 119.10924 
L 160.875434 121.28245 
L 160.995415 121.28245 
L 161.115396 115.205512 
L 161.228319 121.28245 
L 161.3483 115.205512 
L 161.468281 117.390032 
L 161.821167 117.390032 
L 161.93409 123.427251 
L 162.054071 119.546182 
L 162.526938 119.546182 
L 162.639861 121.67451 
L 162.759842 115.715191 
L 162.879823 121.67451 
L 162.992746 115.715191 
L 163.112727 115.715191 
L 163.232708 117.854434 
L 163.698517 117.854434 
L 163.818498 119.966425 
L 163.938479 119.966425 
L 164.051402 114.08302 
L 164.171383 119.966425 
L 164.291364 119.966425 
L 164.404288 116.205514 
L 164.524269 122.051682 
L 164.64425 116.205514 
L 164.757173 116.205514 
L 164.877154 122.051682 
L 164.997135 118.30131 
L 165.462944 118.30131 
L 165.582925 120.370909 
L 165.702906 114.597818 
L 165.815829 120.370909 
L 165.93581 120.370909 
L 166.055791 114.597818 
L 166.168715 116.677565 
L 166.408677 116.677565 
L 166.5216 122.414798 
L 166.641581 116.677565 
L 166.761562 118.731636 
L 167.227371 118.731636 
L 167.347352 115.093666 
L 167.467333 120.760504 
L 167.580256 115.093666 
L 167.700237 115.093666 
L 167.820218 120.760504 
L 167.933142 117.132346 
L 168.053123 117.132346 
L 168.173104 122.76463 
L 168.286027 117.132346 
L 168.406008 117.132346 
L 168.525989 119.146314 
L 168.991798 119.146314 
L 169.111779 121.136018 
L 169.23176 115.571593 
L 169.344683 115.571593 
L 169.464664 121.136018 
L 169.584645 115.571593 
L 169.697568 117.570787 
L 170.050454 117.570787 
L 170.170435 123.101892 
L 170.290416 119.546182 
L 170.756225 119.546182 
L 170.876206 116.032551 
L 170.996187 116.032551 
L 171.10911 121.498199 
L 171.229091 116.032551 
L 171.349072 116.032551 
L 171.461995 117.993754 
L 171.934862 117.993754 
L 172.054843 119.932019 
L 172.407728 119.932019 
L 172.520651 114.530297 
L 172.640632 116.477429 
L 172.760613 121.847746 
L 172.873537 116.477429 
L 172.993518 116.477429 
L 173.113499 121.847746 
L 173.226422 118.402051 
L 173.699289 118.402051 
L 173.81927 120.304552 
L 174.052174 120.304552 
L 174.172155 114.995962 
L 174.405059 122.185309 
L 174.52504 116.907055 
L 174.637964 116.907055 
L 174.757945 122.185309 
L 174.877926 116.907055 
L 174.990849 118.79643 
L 175.463715 118.79643 
L 175.583696 115.445843 
L 175.69662 120.664456 
L 175.816601 115.445843 
L 175.936582 120.664456 
L 176.049505 120.664456 
L 176.169486 117.322198 
L 176.289467 117.322198 
L 176.402391 122.511493 
L 176.522372 117.322198 
L 176.642353 117.322198 
L 176.755276 119.177589 
L 177.228142 119.177589 
L 177.348123 121.012364 
L 177.461047 115.880727 
L 177.581028 121.012364 
L 177.701009 121.012364 
L 177.813932 115.880727 
L 177.933913 117.72358 
L 178.053894 122.826865 
L 178.166817 117.72358 
L 178.286798 117.72358 
L 178.406779 122.826865 
L 178.519703 119.546182 
L 178.992569 119.546182 
L 179.11255 116.301353 
L 179.225474 116.301353 
L 179.345455 121.348864 
L 179.465436 116.301353 
L 179.69834 123.131953 
L 179.818321 118.111874 
L 179.931244 118.111874 
L 180.051225 123.131953 
L 180.171206 118.111874 
L 180.28413 119.902821 
L 180.637015 119.902821 
L 180.756996 114.909877 
L 180.876977 116.708411 
L 180.9899 121.67451 
L 181.109881 116.708411 
L 181.229862 116.708411 
L 181.342786 121.67451 
L 181.462767 118.487708 
L 181.582748 118.487708 
L 181.695671 123.427251 
L 181.815652 118.487708 
L 181.935633 118.487708 
L 182.048557 120.248077 
L 182.288519 120.248077 
L 182.401442 115.334809 
L 182.641404 121.989818 
L 182.754327 117.102545 
L 182.874308 117.102545 
L 182.994289 121.989818 
L 183.107213 117.102545 
L 183.227194 118.851675 
L 183.580079 118.851675 
L 183.70006 123.713225 
L 183.812983 120.582488 
L 183.932964 120.582488 
L 184.052945 115.746391 
L 184.165869 120.582488 
L 184.28585 120.582488 
L 184.405831 117.484364 
L 184.518754 117.484364 
L 184.638735 122.295273 
L 184.758716 117.484364 
L 184.87164 117.484364 
L 184.991621 119.204326 
L 185.464487 119.204326 
L 185.57741 120.906557 
L 185.697391 116.145245 
L 185.817372 120.906557 
L 185.930296 120.906557 
L 186.050277 116.145245 
L 186.170258 117.854434 
L 186.283181 122.591329 
L 186.403162 117.854434 
L 186.523143 117.854434 
L 186.636066 122.591329 
L 186.756047 119.546182 
L 187.228914 119.546182 
L 187.341837 116.53195 
L 187.461818 116.53195 
L 187.581799 121.220755 
L 187.694723 116.53195 
L 187.934685 122.878413 
L 188.047608 118.213289 
L 188.167589 118.213289 
L 188.28757 122.878413 
L 188.400493 118.213289 
L 188.520474 119.87773 
L 188.640455 115.236049 
L 188.753379 119.87773 
L 188.87336 119.87773 
L 188.993341 115.236049 
L 189.106264 116.907055 
L 189.226245 121.525527 
L 189.346226 116.907055 
L 189.459149 116.907055 
L 189.57913 121.525527 
L 189.699111 118.561433 
L 190.16492 118.561433 
L 190.284901 115.626686 
L 190.404882 120.199431 
L 190.517806 120.199431 
L 190.637787 115.626686 
L 190.870691 121.821292 
L 190.990672 117.271072 
L 191.343557 117.271072 
L 191.463538 118.899337 
L 191.929347 118.899337 
L 192.049328 120.511716 
L 192.169309 116.005889 
L 192.282232 116.005889 
L 192.402213 120.511716 
L 192.522194 116.005889 
L 192.635118 117.624487 
L 192.755099 113.140533 
L 192.87508 117.624487 
L 192.988003 117.624487 
L 193.107984 113.140533 
L 193.227965 114.765154 
L 193.340889 119.227447 
L 193.46087 114.765154 
L 193.580851 119.227447 
L 193.693774 114.765154 
L 193.813755 116.374154 
L 194.16664 116.374154 
L 194.286621 111.933315 
L 194.399545 113.548165 
L 194.519526 117.967756 
L 194.639507 113.548165 
L 194.872411 113.548165 
L 194.992392 115.147636 
L 195.105315 115.147636 
L 195.225296 110.749091 
L 195.345277 115.147636 
L 195.458201 115.147636 
L 195.578182 112.354247 
L 195.698163 116.731947 
L 195.811086 112.354247 
L 195.931067 112.354247 
L 196.051048 116.731947 
L 196.163972 113.944261 
L 196.283953 113.944261 
L 196.403934 109.587211 
L 196.516857 113.944261 
L 196.636838 113.944261 
L 196.756819 111.18275 
L 197.222628 111.18275 
L 197.342609 108.447048 
L 197.46259 112.763378 
L 197.575513 108.447048 
L 197.695494 112.763378 
L 197.815475 112.763378 
L 197.928398 110.033049 
L 198.401265 110.033049 
L 198.521246 107.328 
L 198.634169 111.604364 
L 198.75415 107.328 
L 198.874131 107.328 
L 198.987055 111.604364 
L 199.107036 108.90454 
L 199.579902 108.90454 
L 199.692825 106.229485 
L 199.812806 110.466616 
L 199.932787 110.466616 
L 200.045711 106.229485 
L 200.165692 110.466616 
L 200.285673 107.796643 
L 200.751481 107.796643 
L 200.871462 105.150942 
L 200.991443 105.150942 
L 201.104367 109.349554 
L 201.224348 105.150942 
L 201.344329 105.150942 
L 201.457252 102.529185 
L 201.577233 106.708798 
L 201.930119 106.708798 
L 202.0501 104.091833 
L 202.163023 104.091833 
L 202.283004 108.252619 
L 202.402985 104.091833 
L 202.515908 104.091833 
L 202.635889 101.498338 
L 202.75587 105.640466 
L 202.868794 105.640466 
L 202.988775 101.498338 
L 203.221679 107.175273 
L 203.34166 103.051636 
L 203.694545 103.051636 
L 203.814526 104.591127 
L 204.047431 104.591127 
L 204.167412 100.485818 
L 204.400316 106.116994 
L 204.520297 102.02985 
L 204.873183 102.02985 
L 204.986106 103.560279 
L 205.106087 99.49114 
L 205.226068 103.560279 
L 205.338991 99.49114 
L 205.458972 99.49114 
L 205.578953 101.02599 
L 206.044762 101.02599 
L 206.164743 102.547436 
L 206.284724 98.513836 
L 206.397647 102.547436 
L 206.517628 98.513836 
L 206.637609 98.513836 
L 206.750533 100.039589 
L 207.223399 100.039589 
L 207.34338 101.552132 
L 207.456304 97.553455 
L 207.576285 97.553455 
L 207.696266 101.552132 
L 207.809189 97.553455 
L 207.92917 99.070194 
L 208.402036 99.070194 
L 208.51496 100.573915 
L 208.634941 96.609561 
L 208.754922 96.609561 
L 208.867845 100.573915 
L 208.987826 96.609561 
L 209.107807 98.117371 
L 209.22073 94.169958 
L 209.340711 98.117371 
L 209.460692 98.117371 
L 209.573616 94.169958 
L 209.693597 95.681733 
L 209.813578 99.612348 
L 209.926501 95.681733 
L 210.046482 99.612348 
L 210.166463 95.681733 
L 210.279387 97.180696 
L 210.632272 97.180696 
L 210.752253 93.266737 
L 210.872234 94.769565 
L 210.985157 98.66701 
L 211.105138 94.769565 
L 211.338043 94.769565 
L 211.458024 96.259765 
L 211.578005 96.259765 
L 211.690928 92.378695 
L 211.810909 96.259765 
L 211.93089 92.378695 
L 212.043813 93.872663 
L 212.163794 97.737494 
L 212.283775 93.872663 
L 212.396699 93.872663 
L 212.51668 97.737494 
L 212.636661 95.354182 
L 212.749584 95.354182 
L 212.869565 91.505455 
L 212.989546 95.354182 
L 213.10247 95.354182 
L 213.222451 92.990648 
L 213.695317 92.990648 
L 213.80824 90.646648 
L 213.928221 94.463567 
L 214.048202 90.646648 
L 214.161126 94.463567 
L 214.281107 94.463567 
L 214.401088 92.123152 
L 214.866896 92.123152 
L 214.986877 89.80192 
L 215.106858 93.587553 
L 215.219782 89.80192 
L 215.339763 89.80192 
L 215.459744 93.587553 
L 215.572667 91.269818 
L 216.045534 91.269818 
L 216.165515 88.970927 
L 216.278438 92.725783 
L 216.398419 92.725783 
L 216.5184 88.970927 
L 216.631323 92.725783 
L 216.751304 90.430304 
L 217.224171 90.430304 
L 217.337094 88.153337 
L 217.457075 88.153337 
L 217.577056 91.877912 
L 217.689979 88.153337 
L 217.80996 91.877912 
L 217.929942 89.604276 
L 218.39575 89.604276 
L 218.515731 91.043607 
L 218.635712 87.348829 
L 218.748636 91.043607 
L 218.868617 87.348829 
L 218.988598 87.348829 
L 219.101521 88.791412 
L 219.574387 88.791412 
L 219.694368 90.222545 
L 219.807292 86.557091 
L 219.927273 90.222545 
L 220.047254 86.557091 
L 220.160177 86.557091 
L 220.280158 87.991399 
L 220.513062 87.991399 
L 220.633043 84.340433 
L 220.865948 89.414414 
L 220.985929 85.777821 
L 221.10591 89.414414 
L 221.218833 89.414414 
L 221.338814 85.777821 
L 221.458795 87.203936 
L 221.924604 87.203936 
L 222.044585 88.618909 
L 222.164566 85.010727 
L 222.277489 88.618909 
L 222.39747 88.618909 
L 222.517451 85.010727 
L 222.630375 86.428729 
L 222.870337 86.428729 
L 222.98326 90.022871 
L 223.103241 86.428729 
L 223.223222 87.835738 
L 223.336145 84.255526 
L 223.456126 87.835738 
L 223.576108 87.835738 
L 223.689031 84.255526 
L 223.809012 85.665494 
L 223.928993 89.231882 
L 224.041916 85.665494 
L 224.161897 89.231882 
L 224.281878 85.665494 
L 224.394802 87.064615 
L 224.867668 87.064615 
L 224.987649 88.453016 
L 225.100572 88.453016 
L 225.220553 84.913956 
L 225.340534 88.453016 
L 225.453458 84.913956 
L 225.573439 86.305266 
L 225.69342 89.830817 
L 225.806343 86.305266 
L 225.926324 86.305266 
L 226.046305 89.830817 
L 226.159228 87.685995 
L 226.279209 87.685995 
L 226.399191 84.173849 
L 226.512114 87.685995 
L 226.632095 87.685995 
L 226.752076 85.557421 
L 226.864999 89.056264 
L 226.98498 85.557421 
L 227.104961 85.557421 
L 227.217885 89.056264 
L 227.337866 86.930552 
L 227.810732 86.930552 
L 227.923655 84.820823 
L 228.043636 88.293359 
L 228.163617 84.820823 
L 228.276541 88.293359 
L 228.396522 88.293359 
L 228.516503 86.186427 
L 228.629426 86.186427 
L 228.749407 89.645957 
L 228.869388 86.186427 
L 228.982311 89.645957 
L 229.102292 87.54184 
L 229.575159 87.54184 
L 229.688082 85.453367 
L 229.808063 88.887175 
L 229.928044 88.887175 
L 230.040968 85.453367 
L 230.160949 88.887175 
L 230.28093 86.801455 
L 230.393853 86.801455 
L 230.513834 90.222545 
L 230.633815 86.801455 
L 230.746738 86.801455 
L 230.866719 84.731126 
L 230.9867 88.139593 
L 231.099624 88.139593 
L 231.219605 84.731126 
L 231.452509 89.467893 
L 231.57249 86.071957 
L 231.692471 89.467893 
L 231.805394 86.071957 
L 231.925375 86.071957 
L 232.045357 87.402965 
L 232.511165 87.402965 
L 232.631146 88.724257 
L 232.751127 85.353109 
L 232.864051 88.724257 
L 232.984032 85.353109 
L 233.216936 90.03594 
L 233.336917 86.677051 
L 233.689802 86.677051 
L 233.809783 87.991399 
L 234.275592 87.991399 
L 234.395573 89.296257 
L 234.515554 85.96162 
L 234.628477 89.296257 
L 234.748458 89.296257 
L 234.86844 85.96162 
L 234.981363 87.269086 
L 235.221325 87.269086 
L 235.334248 90.591728 
L 235.454229 87.269086 
L 235.57421 88.567179 
L 235.687134 85.256446 
L 235.807115 88.567179 
L 235.927096 88.567179 
L 236.040019 85.256446 
L 236.16 86.557091 
L 236.279981 89.856 
L 236.392904 86.557091 
L 236.512885 89.856 
L 236.632866 86.557091 
L 236.74579 87.848479 
L 237.218656 87.848479 
L 237.338637 89.130708 
L 237.45156 89.130708 
L 237.571542 85.855195 
L 237.691523 89.130708 
L 237.804446 85.855195 
L 237.924427 87.139937 
L 238.044408 90.403875 
L 238.157331 87.139937 
L 238.397293 87.139937 
L 238.510217 88.415631 
L 238.983083 88.415631 
L 239.103064 86.44134 
L 239.215987 89.682373 
L 239.335968 86.44134 
L 239.455949 89.682373 
L 239.568873 89.682373 
L 239.688854 87.710556 
L 240.041739 87.710556 
L 240.16172 90.940257 
L 240.274643 88.970927 
L 240.394625 88.970927 
L 240.514606 85.752479 
L 240.627529 88.970927 
L 240.74751 88.970927 
L 240.867491 87.015273 
L 241.220376 87.015273 
L 241.3333 90.222545 
L 241.453281 88.269327 
L 241.926147 88.269327 
L 242.03907 86.32958 
L 242.159051 89.514734 
L 242.279032 89.514734 
L 242.391956 86.32958 
L 242.511937 89.514734 
L 242.631918 87.577372 
L 242.744841 87.577372 
L 242.864822 90.75158 
L 242.984803 87.577372 
L 243.097726 87.577372 
L 243.217708 85.65328 
L 243.337689 88.816618 
L 243.690574 88.816618 
L 243.803497 90.047404 
L 243.923478 86.894863 
L 244.043459 90.047404 
L 244.156383 86.894863 
L 244.276364 86.894863 
L 244.396345 88.128 
L 244.862153 88.128 
L 244.982134 89.352777 
L 245.102115 86.221609 
L 245.215039 89.352777 
L 245.33502 86.221609 
L 245.567924 90.569278 
L 245.687905 87.448688 
L 246.040791 87.448688 
L 246.160772 88.667504 
L 246.62658 88.667504 
L 246.746561 89.87814 
L 246.866542 86.778494 
L 246.979466 89.87814 
L 247.099447 89.87814 
L 247.219428 86.778494 
L 247.332351 87.991399 
L 247.805217 87.991399 
L 247.925198 89.196218 
L 248.038122 86.117236 
L 248.158103 89.196218 
L 248.278084 89.196218 
L 248.391007 86.117236 
L 248.510988 87.324279 
L 248.630969 90.393032 
L 248.743892 87.324279 
L 248.863874 90.393032 
L 248.983855 87.324279 
L 249.096778 88.523328 
L 249.569644 88.523328 
L 249.689625 89.714463 
L 249.802549 89.714463 
L 249.92253 86.665966 
L 250.042511 89.714463 
L 250.155434 86.665966 
L 250.275415 87.859292 
L 250.395396 90.897761 
L 250.508319 87.859292 
L 250.6283 87.859292 
L 250.748281 90.897761 
L 250.861205 89.044793 
L 251.334071 89.044793 
L 251.454052 87.203936 
L 251.566975 90.222545 
L 251.686957 87.203936 
L 251.806938 87.203936 
L 251.919861 90.222545 
L 252.039842 88.383848 
L 252.512708 88.383848 
L 252.625632 86.557091 
L 252.745613 89.556099 
L 252.865594 86.557091 
L 252.978517 89.556099 
L 253.098498 89.556099 
L 253.218479 87.73146 
L 253.331402 87.73146 
L 253.451383 90.720763 
L 253.571364 87.73146 
L 253.684288 90.720763 
L 253.804269 88.898252 
L 254.277135 88.898252 
L 254.390058 87.087462 
L 254.51004 90.057541 
L 254.630021 90.057541 
L 254.742944 87.087462 
L 254.862925 90.057541 
L 254.982906 88.248839 
L 255.448715 88.248839 
L 255.568696 89.402795 
L 255.8016 89.402795 
L 255.921581 86.451694 
L 256.154485 90.549401 
L 256.274466 87.607699 
L 256.394447 90.549401 
L 256.507371 87.607699 
L 256.627352 87.607699 
L 256.747333 88.756364 
L 257.213142 88.756364 
L 257.333123 89.897758 
L 257.453104 86.974674 
L 257.566027 89.897758 
L 257.805989 89.897758 
L 257.918912 91.031952 
L 258.038893 88.118089 
L 258.158874 88.118089 
L 258.271798 91.031952 
L 258.391779 88.118089 
L 258.51176 89.254312 
L 258.624683 86.349612 
L 258.744664 89.254312 
L 258.977568 89.254312 
L 259.097549 90.383412 
L 259.21753 87.487818 
L 259.330454 87.487818 
L 259.450435 90.383412 
L 259.570416 87.487818 
L 259.683339 88.618909 
L 259.80332 91.505455 
L 259.923301 88.618909 
L 260.156206 88.618909 
L 260.276187 89.742953 
L 260.629072 89.742953 
L 260.741995 86.8654 
L 260.861976 87.991399 
L 260.981957 90.860016 
L 261.094881 87.991399 
L 261.214862 90.860016 
L 261.334843 87.991399 
L 261.447766 89.110426 
L 261.800651 89.110426 
L 261.920632 86.250691 
L 262.040613 87.371636 
L 262.153537 90.222545 
L 262.273518 87.371636 
L 262.393499 90.222545 
L 262.506422 90.222545 
L 262.626403 88.485684 
L 262.979289 88.485684 
L 263.09927 91.327821 
L 263.212193 89.592897 
L 263.332174 89.592897 
L 263.452155 86.759478 
L 263.565078 89.592897 
L 263.685059 89.592897 
L 263.80504 87.868584 
L 263.917964 90.693338 
L 264.037945 87.868584 
L 264.157926 87.868584 
L 264.270849 90.693338 
L 264.39083 88.970927 
L 264.863696 88.970927 
L 264.97662 87.258986 
L 265.096601 90.066569 
L 265.216582 90.066569 
L 265.329505 87.258986 
L 265.449486 90.066569 
L 265.569467 88.356496 
L 265.682391 88.356496 
L 265.802372 91.15557 
L 265.922353 88.356496 
L 266.035276 88.356496 
L 266.155257 86.656756 
L 266.275238 89.447374 
L 266.628123 89.447374 
L 266.741047 90.53168 
L 266.861028 87.749468 
L 266.981009 90.53168 
L 267.093932 87.749468 
L 267.333894 91.609474 
L 267.446817 88.835617 
L 267.799703 88.835617 
L 267.919684 89.915262 
L 268.039665 87.149709 
L 268.152588 89.915262 
L 268.272569 87.149709 
L 268.505474 90.988461 
L 268.625455 88.231164 
L 268.745436 88.231164 
L 268.858359 90.988461 
L 268.97834 88.231164 
L 269.098321 89.306182 
L 269.56413 89.306182 
L 269.684111 90.37482 
L 269.804092 87.633886 
L 269.917015 90.37482 
L 270.036996 90.37482 
L 270.156977 87.633886 
L 270.2699 88.70431 
L 270.509862 88.70431 
L 270.622786 91.437134 
L 270.742767 88.70431 
L 270.862748 89.768418 
L 271.215633 89.768418 
L 271.328557 87.043656 
L 271.448538 88.109519 
L 271.568519 90.826267 
L 271.681442 88.109519 
L 271.801423 90.826267 
L 271.921404 88.109519 
L 272.034327 89.16913 
L 272.507194 89.16913 
L 272.627175 90.222545 
L 272.740098 90.222545 
L 272.860079 87.521684 
L 272.98006 90.222545 
L 273.092983 90.222545 
L 273.212964 88.576831 
L 273.332945 91.269818 
L 273.445869 88.576831 
L 273.56585 88.576831 
L 273.685831 91.269818 
L 273.798754 89.625844 
L 274.271621 89.625844 
L 274.391602 87.991399 
L 274.504525 90.668775 
L 274.624506 87.991399 
L 274.744487 87.991399 
L 274.85741 90.668775 
L 274.977391 89.03604 
L 275.450258 89.03604 
L 275.563181 87.412716 
L 275.683162 90.07466 
L 276.036047 90.07466 
L 276.156028 88.453016 
L 276.268952 88.453016 
L 276.388933 91.10731 
L 276.508914 88.453016 
L 276.621837 91.10731 
L 276.741818 89.487354 
L 277.214685 89.487354 
L 277.327608 87.876655 
L 277.447589 87.876655 
L 277.56757 90.515782 
L 277.680493 87.876655 
L 277.920455 91.53835 
L 278.033379 88.906741 
L 278.386264 88.906741 
L 278.506245 89.930975 
L 278.739149 89.930975 
L 278.85913 87.306843 
L 279.092035 90.949406 
L 279.212016 88.332708 
L 279.331997 90.949406 
L 279.44492 88.332708 
L 279.564901 88.332708 
L 279.684882 89.352777 
L 280.150691 89.352777 
L 280.270672 90.367099 
L 280.390653 87.765142 
L 280.503576 90.367099 
L 280.623557 90.367099 
L 280.743538 87.765142 
L 280.856462 88.781075 
L 281.096424 88.781075 
L 281.209347 91.375722 
L 281.329328 88.781075 
L 281.449309 89.791316 
L 281.562232 87.203936 
L 281.682213 89.791316 
L 281.915118 89.791316 
L 282.035099 90.795913 
L 282.15508 88.21576 
L 282.268003 88.21576 
L 282.387984 90.795913 
L 282.507965 88.21576 
L 282.620889 89.221948 
L 283.093755 89.221948 
L 283.213736 90.222545 
L 283.326659 87.656727 
L 283.44664 90.222545 
L 283.566621 90.222545 
L 283.679545 87.656727 
L 283.799526 88.658889 
L 284.272392 88.658889 
L 284.385315 89.655514 
L 284.505296 87.103871 
L 284.625277 89.655514 
L 284.738201 89.655514 
L 284.858182 87.103871 
L 284.978163 88.102035 
L 285.443972 88.102035 
L 285.563953 89.094713 
L 285.683934 86.557091 
L 285.796857 89.094713 
L 285.916838 86.557091 
L 286.149742 90.081953 
L 286.269723 87.551283 
L 286.389704 87.551283 
L 286.502628 90.081953 
L 286.622609 87.551283 
L 286.74259 88.540042 
L 287.208398 88.540042 
L 287.328379 89.523412 
L 287.44836 89.523412 
L 287.561284 87.006534 
L 287.681265 89.523412 
L 287.801246 89.523412 
L 287.914169 87.991399 
L 288.03415 90.501439 
L 288.154131 90.501439 
L 288.267055 87.991399 
L 288.507017 91.474164 
L 288.61994 88.970927 
L 288.739921 91.474164 
L 288.859902 91.474164 
L 288.972825 88.970927 
L 289.092806 89.94516 
L 289.212787 92.441631 
L 289.325711 89.94516 
L 289.445692 92.441631 
L 289.565673 89.94516 
L 289.678596 90.914141 
L 290.151462 90.914141 
L 290.271443 89.394862 
L 290.384367 91.877912 
L 290.737252 91.877912 
L 290.857233 92.836516 
L 290.977214 90.360123 
L 291.090138 92.836516 
L 291.3301 92.836516 
L 291.443023 93.789993 
L 291.563004 93.789993 
L 291.682985 91.320222 
L 291.795908 93.789993 
L 291.915889 91.320222 
L 292.03587 92.2752 
L 292.148794 94.738385 
L 292.268775 92.2752 
L 292.388756 92.2752 
L 292.501679 94.738385 
L 292.62166 93.225099 
L 293.094526 93.225099 
L 293.20745 94.169958 
L 293.680316 94.169958 
L 293.800297 95.109818 
L 294.153183 95.109818 
L 294.266106 92.666182 
L 294.386087 93.60753 
L 294.506068 96.044719 
L 294.618991 93.60753 
L 294.738972 96.044719 
L 294.858953 96.044719 
L 294.971877 94.543923 
L 295.091858 94.543923 
L 295.211839 96.974699 
L 295.324762 94.543923 
L 295.444743 94.543923 
L 295.564724 95.475402 
L 295.797628 95.475402 
L 295.917609 97.899797 
L 296.030533 95.475402 
L 296.150514 96.402003 
L 296.503399 96.402003 
L 296.62338 98.820051 
L 296.736304 97.323765 
L 296.856285 97.323765 
L 296.976266 94.91203 
L 297.089189 97.323765 
L 297.20917 97.323765 
L 297.329151 95.835273 
L 297.442074 98.240727 
L 297.562055 98.240727 
L 297.682036 95.835273 
L 297.914941 99.152926 
L 298.034922 96.753719 
L 298.147845 99.152926 
L 298.267826 99.152926 
L 298.387807 96.753719 
L 298.50073 97.667407 
L 298.620711 100.060398 
L 298.740692 97.667407 
L 298.853616 97.667407 
L 298.973597 100.060398 
L 299.093578 98.576372 
L 299.559387 98.576372 
L 299.679368 97.099996 
L 299.799349 99.480652 
L 300.152234 99.480652 
L 300.265157 100.380283 
L 300.385138 98.005747 
L 300.505119 100.380283 
L 300.738024 100.380283 
L 300.858005 101.275301 
L 300.970928 101.275301 
L 301.090909 98.906853 
L 301.21089 101.275301 
L 301.323813 101.275301 
L 301.443794 99.80335 
L 301.79668 99.80335 
L 301.916661 102.16574 
L 302.029584 100.695273 
L 302.502451 100.695273 
L 302.622432 101.582656 
L 303.08824 101.582656 
L 303.208221 102.465536 
L 303.681088 102.465536 
L 303.794011 101.005478 
L 303.913992 103.343945 
L 304.033973 101.005478 
L 304.146896 101.005478 
L 304.266877 103.343945 
L 304.386858 101.885355 
L 304.499782 101.885355 
L 304.619763 104.217917 
L 304.739744 101.885355 
L 304.852667 101.885355 
L 304.972648 102.760801 
L 305.205553 102.760801 
L 305.325534 105.087487 
L 305.445515 102.760801 
L 305.558438 103.631847 
L 305.911323 103.631847 
L 306.031304 105.952687 
L 306.151285 104.498526 
L 306.617094 104.498526 
L 306.737075 103.051636 
L 306.857056 103.051636 
L 306.969979 105.360873 
L 307.08996 103.051636 
L 307.322865 106.218918 
L 307.442846 103.91544 
L 307.562827 103.91544 
L 307.67575 106.218918 
L 307.795731 103.91544 
L 307.915712 104.774947 
L 308.028636 107.072695 
L 308.148617 104.774947 
L 308.268598 104.774947 
L 308.381521 107.072695 
L 308.501502 105.630188 
L 308.621483 105.630188 
L 308.734406 107.922234 
L 308.854387 105.630188 
L 308.974368 105.630188 
L 309.087292 104.194823 
L 309.207273 106.481195 
L 309.560158 106.481195 
L 309.680139 107.328 
L 309.793062 105.047273 
L 309.913043 107.328 
L 310.033025 107.328 
L 310.145948 105.047273 
L 310.265929 105.895524 
L 310.38591 108.170633 
L 310.498833 105.895524 
L 310.618814 108.170633 
L 310.738795 108.170633 
L 310.851719 106.739606 
L 310.9717 106.739606 
L 311.091681 109.009126 
L 311.204604 106.739606 
L 311.324585 109.009126 
L 311.444566 107.579551 
L 311.910375 107.579551 
L 312.030356 108.415388 
L 312.503222 108.415388 
L 312.616145 109.247149 
L 312.736126 109.247149 
L 312.856108 106.994235 
L 312.969031 109.247149 
L 313.089012 109.247149 
L 313.208993 107.827429 
L 313.321916 110.074861 
L 313.441897 110.074861 
L 313.561878 107.827429 
L 313.674802 110.074861 
L 313.794783 108.656579 
L 313.914764 108.656579 
L 314.027687 110.898556 
L 314.147668 108.656579 
L 314.267649 108.656579 
L 314.380572 109.481713 
L 314.620534 109.481713 
L 314.733458 111.718262 
L 314.853439 109.481713 
L 314.97342 110.302862 
L 315.439228 110.302862 
L 315.559209 108.894283 
L 315.679191 111.120053 
L 316.032076 111.120053 
L 316.144999 111.933315 
L 316.26498 109.712895 
L 316.384961 111.933315 
L 316.497885 109.712895 
L 316.737847 112.742676 
L 316.85077 110.527581 
L 316.970751 110.527581 
L 317.090732 112.742676 
L 317.203655 110.527581 
L 317.323636 111.33837 
L 317.443617 113.548165 
L 317.556541 111.33837 
L 317.676522 111.33837 
L 317.796503 113.548165 
L 317.909426 112.145288 
L 318.382292 112.145288 
L 318.502274 112.948364 
L 318.735178 112.948364 
L 318.855159 110.749091 
L 319.088063 113.747624 
L 319.208044 111.553575 
L 319.320968 113.747624 
L 319.440949 113.747624 
L 319.56093 111.553575 
L 319.673853 112.354247 
L 319.793834 114.543097 
L 319.913815 112.354247 
L 320.026738 114.543097 
L 320.146719 114.543097 
L 320.2667 113.151133 
L 320.379624 113.151133 
L 320.499605 115.334809 
L 320.619586 113.151133 
L 320.732509 113.151133 
L 320.85249 113.944261 
L 321.325357 113.944261 
L 321.43828 114.733656 
L 321.558261 112.560257 
L 321.678242 114.733656 
L 321.911146 114.733656 
L 322.031127 115.519344 
L 322.144051 115.519344 
L 322.264032 113.351047 
L 322.384013 115.519344 
L 322.496936 115.519344 
L 322.616917 114.138134 
L 322.736898 116.301353 
L 322.849821 116.301353 
L 322.969802 114.138134 
L 323.202707 117.079708 
L 323.322688 114.921543 
L 323.675573 114.921543 
L 323.795554 115.701299 
L 324.261363 115.701299 
L 324.381344 116.477429 
L 324.85421 116.477429 
L 324.967134 115.106815 
L 325.087115 117.249957 
L 325.44 117.249957 
L 325.559981 118.018909 
L 325.672904 115.880727 
L 325.792885 118.018909 
L 326.02579 118.018909 
L 326.145771 118.784309 
L 326.265752 116.651065 
L 326.378675 116.651065 
L 326.498656 118.784309 
L 326.618637 116.651065 
L 326.73156 117.417853 
L 327.084446 117.417853 
L 327.204427 119.546182 
L 327.324408 118.181116 
L 327.790217 118.181116 
L 327.910198 118.940877 
L 328.383064 118.940877 
L 328.495987 119.697162 
L 328.615968 117.583444 
L 328.735949 119.697162 
L 328.848873 119.697162 
L 328.968854 117.583444 
L 329.088835 118.341101 
L 329.201758 120.449993 
L 329.321739 118.341101 
L 329.44172 118.341101 
L 329.554643 120.449993 
L 329.674625 119.095306 
L 329.794606 119.095306 
L 329.907529 121.199394 
L 330.02751 119.095306 
L 330.147491 119.095306 
L 330.260414 119.846083 
L 330.500376 119.846083 
L 330.6133 121.945388 
L 330.733281 119.846083 
L 330.853262 120.593455 
L 330.966185 118.498909 
L 331.086166 120.593455 
L 331.31907 120.593455 
L 331.439051 121.337445 
L 331.559032 121.337445 
L 331.671956 119.247638 
L 331.791937 121.337445 
L 331.911918 121.337445 
L 332.024841 119.992987 
L 332.144822 122.078076 
L 332.264803 122.078076 
L 332.377726 119.992987 
L 332.617689 122.815371 
L 332.730612 120.734978 
L 332.850593 120.734978 
L 332.970574 122.815371 
L 333.083497 120.734978 
L 333.203478 121.473634 
L 333.323459 123.549352 
L 333.436383 121.473634 
L 333.676345 121.473634 
L 333.789268 122.208978 
L 334.262134 122.208978 
L 334.382115 120.874602 
L 334.495039 122.941032 
L 334.847924 122.941032 
L 334.967905 123.669818 
L 335.087886 121.608 
L 335.200809 123.669818 
L 335.440772 123.669818 
L 335.553695 124.395358 
L 335.673676 124.395358 
L 335.793657 122.338132 
L 335.90658 124.395358 
L 336.026561 122.338132 
L 336.146542 123.065018 
L 336.259466 125.117673 
L 336.379447 123.065018 
L 336.499428 123.065018 
L 336.612351 125.117673 
L 336.732332 123.788681 
L 336.852313 123.788681 
L 336.965236 125.836785 
L 337.085217 123.788681 
L 337.205198 123.788681 
L 337.318122 124.509142 
L 337.558084 124.509142 
L 337.671007 126.552714 
L 337.790988 124.509142 
L 337.910969 125.226423 
L 338.376778 125.226423 
L 338.496759 125.940543 
L 338.969625 125.940543 
L 339.082549 124.621427 
L 339.20253 126.651524 
L 339.555415 126.651524 
L 339.675396 127.359388 
L 339.788319 125.333742 
L 339.9083 127.359388 
L 340.028281 127.359388 
L 340.141205 125.333742 
L 340.261186 126.042939 
L 340.381167 128.064153 
L 340.49409 126.042939 
L 340.734052 126.042939 
L 340.846975 126.74904 
L 341.319842 126.74904 
L 341.439823 125.439658 
L 341.552746 127.452064 
L 341.672727 127.452064 
L 341.792708 125.439658 
L 342.025613 128.152032 
L 342.145594 126.144 
L 342.258517 126.144 
L 342.378498 128.152032 
L 342.498479 126.144 
L 342.611402 126.845287 
L 343.084269 126.845287 
L 343.20425 125.544198 
L 343.317173 127.543537 
L 343.437154 125.544198 
L 343.557135 125.544198 
L 343.670058 127.543537 
L 343.79004 126.243751 
L 343.910021 126.243751 
L 344.022944 128.238772 
L 344.142925 126.243751 
L 344.262906 126.243751 
L 344.375829 126.940288 
L 344.848696 126.940288 
L 344.968677 127.63383 
L 345.0816 127.63383 
L 345.201581 125.64739 
L 345.321562 127.63383 
L 345.434485 127.63383 
L 345.554466 126.342218 
L 346.027333 126.342218 
L 346.140256 125.056137 
L 346.260237 127.03407 
L 346.380218 127.03407 
L 346.493142 125.056137 
L 346.733104 127.722965 
L 346.846027 125.749259 
L 346.966008 127.722965 
L 347.085989 127.722965 
L 347.198912 125.749259 
L 347.318893 126.439425 
L 347.438874 128.408923 
L 347.551798 126.439425 
L 347.671779 126.439425 
L 347.79176 128.408923 
L 347.904683 127.126654 
L 348.024664 127.126654 
L 348.144645 125.161346 
L 348.257568 127.126654 
L 348.377549 127.126654 
L 348.49753 125.84983 
L 348.610454 125.84983 
L 348.730435 127.810965 
L 348.850416 125.84983 
L 348.963339 125.84983 
L 349.08332 126.535396 
L 349.556187 126.535396 
L 349.66911 127.218063 
L 350.141976 127.218063 
L 350.261957 125.949128 
L 350.374881 127.89785 
L 350.494862 125.949128 
L 350.614843 125.949128 
L 350.727766 127.89785 
L 350.847747 126.630155 
L 351.320613 126.630155 
L 351.433537 127.308321 
L 351.553518 125.367786 
L 351.673499 127.308321 
L 351.786422 127.308321 
L 351.906403 125.367786 
L 352.026384 126.047177 
L 352.139308 127.983643 
L 352.259289 126.047177 
L 352.37927 126.047177 
L 352.492193 127.983643 
L 352.612174 126.723725 
L 353.08504 126.723725 
L 353.197964 125.469067 
L 353.317945 127.397448 
L 353.437926 127.397448 
L 353.550849 125.469067 
L 353.790811 128.068364 
L 353.903734 126.144 
L 354.023715 126.144 
L 354.143696 128.068364 
L 354.25662 126.144 
L 354.376601 126.816127 
L 354.849467 126.816127 
L 354.962391 125.569086 
L 355.082372 127.485465 
L 355.202353 127.485465 
L 355.315276 125.569086 
L 355.435257 127.485465 
L 355.555238 126.239621 
L 356.021047 126.239621 
L 356.141028 126.907384 
L 356.613894 126.907384 
L 356.726817 127.572394 
L 356.846798 127.572394 
L 356.966779 125.667869 
L 357.079703 127.572394 
L 357.199684 127.572394 
L 357.319665 126.334061 
L 357.432588 126.334061 
L 357.552569 128.234667 
L 357.67255 126.334061 
L 357.785474 126.334061 
L 357.905455 125.100813 
L 358.025436 126.997517 
L 358.138359 126.997517 
L 358.25834 125.100813 
L 358.491244 127.658253 
L 358.611225 125.765437 
L 358.731206 125.765437 
L 358.84413 127.658253 
L 358.964111 125.765437 
L 359.084092 126.427342 
L 359.197015 128.316288 
L 359.316996 126.427342 
L 359.436977 126.427342 
L 359.5499 128.316288 
L 359.669881 127.086545 
L 360.142748 127.086545 
L 360.255671 125.861812 
L 360.375652 125.861812 
L 360.495633 127.743064 
L 360.608557 125.861812 
L 360.728538 125.861812 
L 360.961442 126.519486 
L 361.314327 126.519486 
L 361.434308 127.174491 
L 361.554289 127.174491 
L 361.667213 125.300871 
L 361.787194 127.174491 
L 361.907175 127.174491 
L 362.020098 125.957017 
L 362.140079 127.826844 
L 362.26006 127.826844 
L 362.372983 125.957017 
L 362.612945 128.476562 
L 362.725869 126.610512 
L 363.078754 126.610512 
L 363.198735 127.261372 
L 363.318716 125.399085 
L 363.43164 127.261372 
L 363.551621 127.261372 
L 363.671602 125.399085 
L 363.784525 126.051073 
L 363.904506 127.909613 
L 364.024487 126.051073 
L 364.13741 126.051073 
L 364.257391 127.909613 
L 364.377372 126.700442 
L 364.843181 126.700442 
L 364.963162 127.347209 
L 365.083143 125.496118 
L 365.196066 127.347209 
L 365.316047 125.496118 
L 365.548952 127.991389 
L 365.668933 126.144 
L 365.788914 126.144 
L 365.901837 127.991389 
L 366.021818 126.144 
L 366.254723 126.789296 
L 366.607608 126.789296 
L 366.727589 125.591991 
L 366.84757 127.43202 
L 366.960493 127.43202 
L 367.080474 125.591991 
L 367.313379 128.072189 
L 367.43336 126.235819 
L 367.786245 126.235819 
L 367.906226 126.877091 
L 368.019149 125.044364 
L 368.13913 126.877091 
L 368.372035 126.877091 
L 368.492016 127.515824 
L 368.611997 127.515824 
L 368.72492 125.686725 
L 368.844901 127.515824 
L 368.964882 127.515824 
L 369.077806 126.326548 
L 369.197787 126.326548 
L 369.317768 128.152032 
L 369.430691 126.326548 
L 369.550672 126.326548 
L 369.783576 126.963847 
L 369.903557 126.963847 
L 370.023538 125.141964 
L 370.256443 127.598637 
L 370.376424 125.780341 
L 370.489347 125.780341 
L 370.609328 127.598637 
L 370.729309 125.780341 
L 370.842232 126.416209 
L 371.195118 126.416209 
L 371.315099 128.230933 
L 371.43508 127.049583 
L 371.900889 127.049583 
L 372.02087 127.680478 
L 372.140851 125.872857 
L 372.253774 127.680478 
L 372.373755 127.680478 
L 372.493736 125.872857 
L 372.606659 126.504818 
L 373.079526 126.504818 
L 373.31243 127.134316 
L 373.432411 125.333742 
L 373.552392 127.134316 
L 373.665315 127.134316 
L 373.785296 125.964293 
L 373.905277 125.964293 
L 374.018201 127.761364 
L 374.138182 125.964293 
L 374.371086 128.385977 
L 374.491067 126.592395 
L 374.611048 126.592395 
L 374.723972 128.385977 
L 374.843953 126.592395 
L 374.963934 127.218063 
L 375.076857 125.427958 
L 375.196838 127.218063 
L 375.316819 127.218063 
L 375.429742 125.427958 
L 375.549723 126.054668 
L 375.669704 127.841311 
L 375.782628 126.054668 
L 375.902609 126.054668 
L 376.02259 127.841311 
L 376.135513 126.678958 
L 376.608379 126.678958 
L 376.72836 127.300843 
L 376.841284 125.521085 
L 376.961265 127.300843 
L 377.081246 127.300843 
L 377.194169 125.521085 
L 377.31415 126.144 
L 377.547055 126.144 
L 377.667036 127.920336 
L 377.787017 126.144 
L 377.89994 126.764524 
L 378.372806 126.764524 
L 378.492787 125.613141 
L 378.605711 127.382671 
L 378.725692 127.382671 
L 378.845673 125.613141 
L 379.078577 127.998454 
L 379.198558 126.232307 
L 379.311481 126.232307 
L 379.431462 127.998454 
L 379.551443 126.232307 
L 379.664367 126.84911 
L 379.784348 125.086334 
L 379.904329 126.84911 
L 380.017252 126.84911 
L 380.137233 125.086334 
L 380.257214 125.704145 
L 380.370138 127.463564 
L 380.490119 125.704145 
L 380.6101 127.463564 
L 380.723023 127.463564 
L 380.843004 126.319607 
L 380.962985 126.319607 
L 381.075908 128.075681 
L 381.195889 126.319607 
L 381.31587 126.319607 
L 381.428794 126.932733 
L 381.90166 126.932733 
L 382.134564 127.543537 
L 382.254545 125.794116 
L 382.374526 127.543537 
L 382.48745 125.794116 
L 382.607431 126.405917 
L 383.080297 126.405917 
L 383.193221 125.27259 
L 383.313202 127.01541 
L 383.666087 127.01541 
L 383.786068 127.622607 
L 383.898991 125.883069 
L 384.018972 127.622607 
L 384.138953 127.622607 
L 384.251877 125.883069 
L 384.371858 126.491254 
L 384.491839 128.227522 
L 384.604762 126.491254 
L 384.844724 126.491254 
L 384.957647 127.097156 
L 385.077628 127.097156 
L 385.197609 125.364145 
L 385.310533 127.097156 
L 385.430514 127.097156 
L 385.550495 125.971023 
L 385.663418 125.971023 
L 385.783399 127.700789 
L 385.90338 125.971023 
L 386.016304 125.971023 
L 386.136285 126.575633 
L 386.369189 126.575633 
L 386.48917 128.302165 
L 386.609151 126.575633 
L 386.722074 127.177986 
L 387.07496 127.177986 
L 387.194941 125.454676 
L 387.314922 126.057995 
L 387.427845 127.778096 
L 387.547826 126.057995 
L 387.667807 126.057995 
L 387.78073 127.778096 
L 387.900711 126.659071 
L 388.373578 126.659071 
L 388.486501 127.257917 
L 388.606482 125.544198 
L 388.726463 127.257917 
L 388.839387 127.257917 
L 388.959368 125.544198 
L 389.079349 126.144 
L 389.192272 127.854545 
L 389.312253 126.144 
L 389.545157 126.144 
L 389.665138 126.741584 
L 390.138005 126.741584 
L 390.250928 125.63273 
L 390.370909 127.336963 
L 390.49089 127.336963 
L 390.603813 125.63273 
L 390.843775 127.93015 
L 390.956699 126.229055 
L 391.07668 126.229055 
L 391.196661 127.93015 
L 391.309584 126.229055 
L 391.429565 126.823187 
L 391.902432 126.823187 
L 392.015355 125.720287 
L 392.135336 127.415139 
L 392.255317 125.720287 
L 392.36824 125.720287 
L 392.488221 127.415139 
L 392.608202 126.313175 
L 392.721126 126.313175 
L 392.841107 128.004923 
L 392.961088 126.313175 
L 393.074011 126.313175 
L 393.193992 126.903895 
L 393.666858 126.903895 
L 393.779782 127.492459 
L 393.899763 127.492459 
L 394.019744 125.806885 
L 394.132667 127.492459 
L 394.252648 127.492459 
L 394.372629 126.396376 
L 394.838438 126.396376 
L 394.958419 125.304278 
L 395.0784 126.983722 
L 395.191323 126.983722 
L 395.311304 125.304278 
L 395.544209 127.568937 
L 395.66419 125.892541 
L 395.784171 127.568937 
L 395.897094 127.568937 
L 396.017075 125.892541 
L 396.137056 126.478672 
L 396.249979 128.152032 
L 396.36996 126.478672 
L 396.489942 126.478672 
L 396.602865 128.152032 
L 396.722846 127.062684 
L 396.842827 127.062684 
L 396.95575 125.39235 
L 397.075731 127.062684 
L 397.195712 127.062684 
L 397.308636 125.977268 
L 397.428617 125.977268 
L 397.548598 127.644587 
L 397.661521 125.977268 
L 397.781502 125.977268 
L 398.014406 126.560079 
L 398.367292 126.560079 
L 398.487273 127.140793 
L 398.487273 127.140793 
" style="fill:none;stroke:#1f77b4;stroke-linecap:square;stroke-width:1.5;"/>
   </g>
   <g id="patch_3">
    <path d="M 57.6 307.584 
L 57.6 41.472 
" style="fill:none;stroke:#000000;stroke-linecap:square;stroke-linejoin:miter;stroke-width:0.8;"/>
   </g>
   <g id="patch_4">
    <path d="M 414.72 307.584 
L 414.72 41.472 
" style="fill:none;stroke:#000000;stroke-linecap:square;stroke-linejoin:miter;stroke-width:0.8;"/>
   </g>
   <g id="patch_5">
    <path d="M 57.6 307.584 
L 414.72 307.584 
" style="fill:none;stroke:#000000;stroke-linecap:square;stroke-linejoin:miter;stroke-width:0.8;"/>
   </g>
   <g id="patch_6">
    <path d="M 57.6 41.472 
L 414.72 41.472 
" style="fill:none;stroke:#000000;stroke-linecap:square;stroke-linejoin:miter;stroke-width:0.8;"/>
   </g>
   <g id="text_17">
    <!-- Speed function of time -->
    <g transform="translate(167.024063 35.472)scale(0.12 -0.12)">
     <defs>
      <path id="DejaVuSerif-32"/>
      <path d="M 43.015625 63.71875 
L 38.28125 63.71875 
Q 38.234375 67.390625 36.203125 69.28125 
Q 34.1875 71.1875 30.328125 71.1875 
Q 25.296875 71.1875 23.234375 68.421875 
Q 21.1875 65.671875 21.1875 58.59375 
L 21.1875 51.90625 
L 35.6875 51.90625 
L 35.6875 46.6875 
L 21.1875 46.6875 
L 21.1875 5.171875 
L 32.71875 5.171875 
L 32.71875 0 
L 3.609375 0 
L 3.609375 5.171875 
L 12.203125 5.171875 
L 12.203125 46.6875 
L 3.609375 46.6875 
L 3.609375 51.90625 
L 12.203125 51.90625 
L 12.203125 58.40625 
Q 12.203125 67.09375 16.71875 71.53125 
Q 21.234375 75.984375 29.984375 75.984375 
Q 33.25 75.984375 36.515625 75.390625 
Q 39.796875 74.8125 43.015625 73.578125 
z
" id="DejaVuSerif-102"/>
      <path d="M 35.40625 51.90625 
L 52.203125 51.90625 
L 52.203125 5.171875 
L 60.6875 5.171875 
L 60.6875 0 
L 43.21875 0 
L 43.21875 9.1875 
Q 40.71875 4 36.765625 1.28125 
Q 32.8125 -1.421875 27.59375 -1.421875 
Q 18.953125 -1.421875 14.875 3.484375 
Q 10.796875 8.40625 10.796875 18.890625 
L 10.796875 46.6875 
L 2.6875 46.6875 
L 2.6875 51.90625 
L 19.828125 51.90625 
L 19.828125 21.6875 
Q 19.828125 12.203125 22.140625 8.6875 
Q 24.46875 5.171875 30.421875 5.171875 
Q 36.671875 5.171875 39.9375 9.765625 
Q 43.21875 14.359375 43.21875 23.09375 
L 43.21875 46.6875 
L 35.40625 46.6875 
z
" id="DejaVuSerif-117"/>
      <path d="M 4.109375 0 
L 4.109375 5.171875 
L 12.203125 5.171875 
L 12.203125 46.6875 
L 3.609375 46.6875 
L 3.609375 51.90625 
L 21.1875 51.90625 
L 21.1875 42.671875 
Q 23.6875 47.953125 27.65625 50.640625 
Q 31.640625 53.328125 36.921875 53.328125 
Q 45.515625 53.328125 49.5625 48.390625 
Q 53.609375 43.453125 53.609375 33.015625 
L 53.609375 5.171875 
L 61.625 5.171875 
L 61.625 0 
L 36.8125 0 
L 36.8125 5.171875 
L 44.578125 5.171875 
L 44.578125 30.171875 
Q 44.578125 39.703125 42.234375 43.234375 
Q 39.890625 46.78125 33.984375 46.78125 
Q 27.734375 46.78125 24.453125 42.203125 
Q 21.1875 37.640625 21.1875 28.90625 
L 21.1875 5.171875 
L 29 5.171875 
L 29 0 
z
" id="DejaVuSerif-110"/>
      <path d="M 51.421875 15.578125 
Q 49.515625 7.28125 44.09375 2.921875 
Q 38.671875 -1.421875 30.078125 -1.421875 
Q 18.75 -1.421875 11.859375 6.078125 
Q 4.984375 13.578125 4.984375 25.984375 
Q 4.984375 38.421875 11.859375 45.875 
Q 18.75 53.328125 30.078125 53.328125 
Q 35.015625 53.328125 39.890625 52.171875 
Q 44.78125 51.03125 49.703125 48.6875 
L 49.703125 35.40625 
L 44.484375 35.40625 
Q 43.453125 42.234375 40.015625 45.359375 
Q 36.578125 48.484375 30.171875 48.484375 
Q 22.90625 48.484375 19.1875 42.84375 
Q 15.484375 37.203125 15.484375 25.984375 
Q 15.484375 14.75 19.171875 9.078125 
Q 22.859375 3.421875 30.171875 3.421875 
Q 35.984375 3.421875 39.453125 6.4375 
Q 42.921875 9.46875 44.1875 15.578125 
z
" id="DejaVuSerif-99"/>
      <path d="M 10.796875 46.6875 
L 2.875 46.6875 
L 2.875 51.90625 
L 10.796875 51.90625 
L 10.796875 68.015625 
L 19.828125 68.015625 
L 19.828125 51.90625 
L 36.71875 51.90625 
L 36.71875 46.6875 
L 19.828125 46.6875 
L 19.828125 13.71875 
Q 19.828125 7.125 21.09375 5.265625 
Q 22.359375 3.421875 25.78125 3.421875 
Q 29.296875 3.421875 30.90625 5.484375 
Q 32.515625 7.5625 32.625 12.203125 
L 39.40625 12.203125 
Q 39.015625 5.125 35.546875 1.84375 
Q 32.078125 -1.421875 25 -1.421875 
Q 17.234375 -1.421875 14.015625 2.015625 
Q 10.796875 5.46875 10.796875 13.71875 
z
" id="DejaVuSerif-116"/>
      <path d="M 30.078125 3.421875 
Q 37.3125 3.421875 40.984375 9.125 
Q 44.671875 14.84375 44.671875 25.984375 
Q 44.671875 37.109375 40.984375 42.796875 
Q 37.3125 48.484375 30.078125 48.484375 
Q 22.859375 48.484375 19.171875 42.796875 
Q 15.484375 37.109375 15.484375 25.984375 
Q 15.484375 14.84375 19.1875 9.125 
Q 22.90625 3.421875 30.078125 3.421875 
z
M 30.078125 -1.421875 
Q 18.75 -1.421875 11.859375 6.078125 
Q 4.984375 13.578125 4.984375 25.984375 
Q 4.984375 38.375 11.84375 45.84375 
Q 18.703125 53.328125 30.078125 53.328125 
Q 41.453125 53.328125 48.3125 45.84375 
Q 55.171875 38.375 55.171875 25.984375 
Q 55.171875 13.578125 48.3125 6.078125 
Q 41.453125 -1.421875 30.078125 -1.421875 
z
" id="DejaVuSerif-111"/>
     </defs>
     <use xlink:href="#DejaVuSerif-83"/>
     <use x="68.505859" xlink:href="#DejaVuSerif-112"/>
     <use x="132.519531" xlink:href="#DejaVuSerif-101"/>
     <use x="191.699219" xlink:href="#DejaVuSerif-101"/>
     <use x="250.878906" xlink:href="#DejaVuSerif-100"/>
     <use x="314.892578" xlink:href="#DejaVuSerif-32"/>
     <use x="346.679688" xlink:href="#DejaVuSerif-102"/>
     <use x="383.691406" xlink:href="#DejaVuSerif-117"/>
     <use x="448.095703" xlink:href="#DejaVuSerif-110"/>
     <use x="512.5" xlink:href="#DejaVuSerif-99"/>
     <use x="568.505859" xlink:href="#DejaVuSerif-116"/>
     <use x="608.691406" xlink:href="#DejaVuSerif-105"/>
     <use x="640.673828" xlink:href="#DejaVuSerif-111"/>
     <use x="700.878906" xlink:href="#DejaVuSerif-110"/>
     <use x="765.283203" xlink:href="#DejaVuSerif-32"/>
     <use x="797.070312" xlink:href="#DejaVuSerif-111"/>
     <use x="857.275391" xlink:href="#DejaVuSerif-102"/>
     <use x="894.287109" xlink:href="#DejaVuSerif-32"/>
     <use x="926.074219" xlink:href="#DejaVuSerif-116"/>
     <use x="966.259766" xlink:href="#DejaVuSerif-105"/>
     <use x="998.242188" xlink:href="#DejaVuSerif-109"/>
     <use x="1093.066406" xlink:href="#DejaVuSerif-101"/>
    </g>
   </g>
  </g>
 </g>
 <defs>
  <clipPath id="p48fd9a0783">
   <rect height="266.112" width="357.12" x="57.6" y="41.472"/>
  </clipPath>
 </defs>
</svg>
