<?xml version="1.0" encoding="utf-8" standalone="no"?>
<!DOCTYPE svg PUBLIC "-//W3C//DTD SVG 1.1//EN"
  "http://www.w3.org/Graphics/SVG/1.1/DTD/svg11.dtd">
<!-- Created with matplotlib (https://matplotlib.org/) -->
<svg height="345.6pt" version="1.1" viewBox="0 0 460.8 345.6" width="460.8pt" xmlns="http://www.w3.org/2000/svg" xmlns:xlink="http://www.w3.org/1999/xlink">
 <metadata>
  <rdf:RDF xmlns:cc="http://creativecommons.org/ns#" xmlns:dc="http://purl.org/dc/elements/1.1/" xmlns:rdf="http://www.w3.org/1999/02/22-rdf-syntax-ns#">
   <cc:Work>
    <dc:type rdf:resource="http://purl.org/dc/dcmitype/StillImage"/>
    <dc:date>2022-05-25T01:12:08.033567</dc:date>
    <dc:format>image/svg+xml</dc:format>
    <dc:creator>
     <cc:Agent>
      <dc:title>Matplotlib v3.3.4, https://matplotlib.org/</dc:title>
     </cc:Agent>
    </dc:creator>
   </cc:Work>
  </rdf:RDF>
 </metadata>
 <defs>
  <style type="text/css">*{stroke-linecap:butt;stroke-linejoin:round;}</style>
 </defs>
 <g id="figure_1">
  <g id="patch_1">
   <path d="M 0 345.6 
L 460.8 345.6 
L 460.8 0 
L 0 0 
z
" style="fill:#ffffff;"/>
  </g>
  <g id="axes_1">
   <g id="patch_2">
    <path d="M 57.6 307.584 
L 414.72 307.584 
L 414.72 41.472 
L 57.6 41.472 
z
" style="fill:#ffffff;"/>
   </g>
   <g id="PolyCollection_1">
    <defs>
     <path d="M 57.6 -38.016 
L 57.6 -279.936 
L 58.31424 -279.935999 
L 59.02848 -279.935998 
L 59.74272 -279.935995 
L 60.45696 -279.935992 
L 61.1712 -279.935988 
L 61.88544 -279.935982 
L 62.59968 -279.935975 
L 63.31392 -279.935967 
L 64.02816 -279.935958 
L 64.7424 -279.935946 
L 65.45664 -279.935933 
L 66.17088 -279.935917 
L 66.88512 -279.935898 
L 67.59936 -279.935876 
L 68.3136 -279.935851 
L 69.02784 -279.935821 
L 69.74208 -279.935786 
L 70.45632 -279.935746 
L 71.17056 -279.935699 
L 71.8848 -279.935645 
L 72.59904 -279.935582 
L 73.31328 -279.935509 
L 74.02752 -279.935425 
L 74.74176 -279.935328 
L 75.456 -279.935215 
L 76.17024 -279.935086 
L 76.88448 -279.934937 
L 77.59872 -279.934766 
L 78.31296 -279.934569 
L 79.0272 -279.934343 
L 79.74144 -279.934084 
L 80.45568 -279.933787 
L 81.16992 -279.933447 
L 81.88416 -279.933058 
L 82.5984 -279.932614 
L 83.31264 -279.932108 
L 84.02688 -279.93153 
L 84.74112 -279.930872 
L 85.45536 -279.930124 
L 86.1696 -279.929274 
L 86.88384 -279.928308 
L 87.59808 -279.927212 
L 88.31232 -279.92597 
L 89.02656 -279.924565 
L 89.7408 -279.922975 
L 90.45504 -279.921179 
L 91.16928 -279.919151 
L 91.88352 -279.916865 
L 92.59776 -279.91429 
L 93.312 -279.911391 
L 94.02624 -279.908133 
L 94.74048 -279.904473 
L 95.45472 -279.900366 
L 96.16896 -279.895763 
L 96.8832 -279.890609 
L 97.59744 -279.884843 
L 98.31168 -279.878399 
L 99.02592 -279.871204 
L 99.74016 -279.863179 
L 100.4544 -279.854238 
L 101.16864 -279.844285 
L 101.88288 -279.833218 
L 102.59712 -279.820922 
L 103.31136 -279.807277 
L 104.0256 -279.792148 
L 104.73984 -279.775391 
L 105.45408 -279.75685 
L 106.16832 -279.736354 
L 106.88256 -279.713721 
L 107.5968 -279.688753 
L 108.31104 -279.661235 
L 109.02528 -279.630938 
L 109.73952 -279.597615 
L 110.45376 -279.560999 
L 111.168 -279.520806 
L 111.88224 -279.476729 
L 112.59648 -279.428442 
L 113.31072 -279.375596 
L 114.02496 -279.317817 
L 114.7392 -279.254708 
L 115.45344 -279.185847 
L 116.16768 -279.110784 
L 116.88192 -279.029041 
L 117.59616 -278.940114 
L 118.3104 -278.843468 
L 119.02464 -278.738537 
L 119.73888 -278.624724 
L 120.45312 -278.501401 
L 121.16736 -278.367908 
L 121.8816 -278.223548 
L 122.59584 -278.067595 
L 123.31008 -277.899283 
L 124.02432 -277.717817 
L 124.73856 -277.522362 
L 125.4528 -277.312051 
L 126.16704 -277.08598 
L 126.88128 -276.843212 
L 127.59552 -276.582773 
L 128.30976 -276.303655 
L 129.024 -276.004819 
L 129.73824 -275.68519 
L 130.45248 -275.343663 
L 131.16672 -274.979102 
L 131.88096 -274.590342 
L 132.5952 -274.176192 
L 133.30944 -273.735433 
L 134.02368 -273.266824 
L 134.73792 -272.769104 
L 135.45216 -272.240991 
L 136.1664 -271.681189 
L 136.88064 -271.08839 
L 137.59488 -270.461275 
L 138.30912 -269.79852 
L 139.02336 -269.0988 
L 139.7376 -268.36079 
L 140.45184 -267.583172 
L 141.16608 -266.764639 
L 141.88032 -265.903898 
L 142.59456 -264.999677 
L 143.3088 -264.050727 
L 144.02304 -263.055831 
L 144.73728 -262.013804 
L 145.45152 -260.923503 
L 146.16576 -259.783831 
L 146.88 -258.593742 
L 147.59424 -257.352244 
L 148.30848 -256.058409 
L 149.02272 -254.711377 
L 149.73696 -253.310359 
L 150.4512 -251.854645 
L 151.16544 -250.343609 
L 151.87968 -248.776712 
L 152.59392 -247.153509 
L 153.30816 -245.473652 
L 154.0224 -243.736899 
L 154.73664 -241.943111 
L 155.45088 -240.09226 
L 156.16512 -238.184436 
L 156.87936 -236.219841 
L 157.5936 -234.198802 
L 158.30784 -232.121767 
L 159.02208 -229.989309 
L 159.73632 -227.802128 
L 160.45056 -225.561052 
L 161.1648 -223.267035 
L 161.87904 -220.921163 
L 162.59328 -218.524648 
L 163.30752 -216.078828 
L 164.02176 -213.58517 
L 164.736 -211.045262 
L 165.45024 -208.460815 
L 166.16448 -205.833656 
L 166.87872 -203.165729 
L 167.59296 -200.459088 
L 168.3072 -197.715891 
L 169.02144 -194.9384 
L 169.73568 -192.12897 
L 170.44992 -189.290045 
L 171.16416 -186.424154 
L 171.8784 -183.533901 
L 172.59264 -180.621958 
L 173.30688 -177.691059 
L 174.02112 -174.743993 
L 174.73536 -171.783592 
L 175.4496 -168.812727 
L 176.16384 -165.834298 
L 176.87808 -162.851223 
L 177.59232 -159.866433 
L 178.30656 -156.882862 
L 179.0208 -153.903437 
L 179.73504 -150.931072 
L 180.44928 -147.968656 
L 181.16352 -145.019045 
L 181.87776 -142.085059 
L 182.592 -139.169465 
L 183.30624 -136.274976 
L 184.02048 -133.404242 
L 184.73472 -130.55984 
L 185.44896 -127.744271 
L 186.1632 -124.959949 
L 186.87744 -122.209198 
L 187.59168 -119.494248 
L 188.30592 -116.817224 
L 189.02016 -114.180147 
L 189.7344 -111.584925 
L 190.44864 -109.033353 
L 191.16288 -106.527108 
L 191.87712 -104.067748 
L 192.59136 -101.656705 
L 193.3056 -99.29529 
L 194.01984 -96.984687 
L 194.73408 -94.725954 
L 195.44832 -92.520023 
L 196.16256 -90.3677 
L 196.8768 -88.269667 
L 197.59104 -86.226482 
L 198.30528 -84.238581 
L 199.01952 -82.306281 
L 199.73376 -80.429781 
L 200.448 -78.609168 
L 201.16224 -76.844415 
L 201.87648 -75.135393 
L 202.59072 -73.481866 
L 203.30496 -71.883501 
L 204.0192 -70.339871 
L 204.73344 -68.850458 
L 205.44768 -67.414662 
L 206.16192 -66.0318 
L 206.87616 -64.701118 
L 207.5904 -63.421789 
L 208.30464 -62.192924 
L 209.01888 -61.013575 
L 209.73312 -59.88274 
L 210.44736 -58.799369 
L 211.1616 -57.762369 
L 211.87584 -56.770608 
L 212.59008 -55.822922 
L 213.30432 -54.918119 
L 214.01856 -54.054983 
L 214.7328 -53.232281 
L 215.44704 -52.448764 
L 216.16128 -51.703175 
L 216.87552 -50.994249 
L 217.58976 -50.320722 
L 218.304 -49.68133 
L 219.01824 -49.074814 
L 219.73248 -48.499927 
L 220.44672 -47.95543 
L 221.16096 -47.4401 
L 221.8752 -46.952732 
L 222.58944 -46.49214 
L 223.30368 -46.05716 
L 224.01792 -45.64665 
L 224.73216 -45.259497 
L 225.4464 -44.894612 
L 226.16064 -44.550935 
L 226.87488 -44.227436 
L 227.58912 -43.923115 
L 228.30336 -43.637003 
L 229.0176 -43.368163 
L 229.73184 -43.115691 
L 230.44608 -42.878714 
L 231.16032 -42.656392 
L 231.87456 -42.447919 
L 232.5888 -42.252518 
L 233.30304 -42.069449 
L 234.01728 -41.898 
L 234.73152 -41.737492 
L 235.44576 -41.587278 
L 236.16 -41.446739 
L 236.87424 -41.315287 
L 237.58848 -41.192364 
L 238.30272 -41.077438 
L 239.01696 -40.970006 
L 239.7312 -40.869591 
L 240.44544 -40.775742 
L 241.15968 -40.688032 
L 241.87392 -40.606058 
L 242.58816 -40.529441 
L 243.3024 -40.457822 
L 244.01664 -40.390866 
L 244.73088 -40.328255 
L 245.44512 -40.269691 
L 246.15936 -40.214896 
L 246.8736 -40.163607 
L 247.58784 -40.115579 
L 248.30208 -40.070582 
L 249.01632 -40.028401 
L 249.73056 -39.988834 
L 250.4448 -39.951693 
L 251.15904 -39.916803 
L 251.87328 -39.883999 
L 252.58752 -39.853127 
L 253.30176 -39.824045 
L 254.016 -39.796619 
L 254.73024 -39.770724 
L 255.44448 -39.746243 
L 256.15872 -39.723068 
L 256.87296 -39.701096 
L 257.5872 -39.680231 
L 258.30144 -39.660385 
L 259.01568 -39.641473 
L 259.72992 -39.623417 
L 260.44416 -39.606142 
L 261.1584 -39.589577 
L 261.87264 -39.573657 
L 262.58688 -39.558318 
L 263.30112 -39.543499 
L 264.01536 -39.529143 
L 264.7296 -39.515195 
L 265.44384 -39.5016 
L 266.15808 -39.488307 
L 266.87232 -39.475265 
L 267.58656 -39.462422 
L 268.3008 -39.449732 
L 269.01504 -39.437143 
L 269.72928 -39.424608 
L 270.44352 -39.412077 
L 271.15776 -39.3995 
L 271.872 -39.386829 
L 272.58624 -39.374013 
L 273.30048 -39.360999 
L 274.01472 -39.347735 
L 274.72896 -39.334168 
L 275.4432 -39.320242 
L 276.15744 -39.305903 
L 276.87168 -39.291092 
L 277.58592 -39.275752 
L 278.30016 -39.259824 
L 279.0144 -39.243249 
L 279.72864 -39.225968 
L 280.44288 -39.207923 
L 281.15712 -39.189056 
L 281.87136 -39.169311 
L 282.5856 -39.148637 
L 283.29984 -39.126984 
L 284.01408 -39.104309 
L 284.72832 -39.080574 
L 285.44256 -39.055751 
L 286.1568 -39.029818 
L 286.87104 -39.002766 
L 287.58528 -38.974599 
L 288.29952 -38.945333 
L 289.01376 -38.915001 
L 289.728 -38.883651 
L 290.44224 -38.851348 
L 291.15648 -38.818177 
L 291.87072 -38.784238 
L 292.58496 -38.749651 
L 293.2992 -38.71455 
L 294.01344 -38.679086 
L 294.72768 -38.64342 
L 295.44192 -38.607724 
L 296.15616 -38.572177 
L 296.8704 -38.536961 
L 297.58464 -38.502257 
L 298.29888 -38.46824 
L 299.01312 -38.43508 
L 299.72736 -38.402931 
L 300.4416 -38.371935 
L 301.15584 -38.342217 
L 301.87008 -38.313879 
L 302.58432 -38.287006 
L 303.29856 -38.261659 
L 304.0128 -38.237879 
L 304.72704 -38.215687 
L 305.44128 -38.195082 
L 306.15552 -38.176048 
L 306.86976 -38.15855 
L 307.584 -38.142543 
L 308.29824 -38.127966 
L 309.01248 -38.114753 
L 309.72672 -38.102827 
L 310.44096 -38.09211 
L 311.1552 -38.082517 
L 311.86944 -38.073966 
L 312.58368 -38.066372 
L 313.29792 -38.059654 
L 314.01216 -38.053731 
L 314.7264 -38.048527 
L 315.44064 -38.04397 
L 316.15488 -38.039993 
L 316.86912 -38.036532 
L 317.58336 -38.03353 
L 318.2976 -38.030933 
L 319.01184 -38.028693 
L 319.72608 -38.026766 
L 320.44032 -38.025112 
L 321.15456 -38.023697 
L 321.8688 -38.022488 
L 322.58304 -38.021459 
L 323.29728 -38.020585 
L 324.01152 -38.019843 
L 324.72576 -38.019215 
L 325.44 -38.018686 
L 326.15424 -38.018239 
L 326.86848 -38.017864 
L 327.58272 -38.017549 
L 328.29696 -38.017285 
L 329.0112 -38.017064 
L 329.72544 -38.01688 
L 330.43968 -38.016727 
L 331.15392 -38.016599 
L 331.86816 -38.016493 
L 332.5824 -38.016405 
L 333.29664 -38.016333 
L 334.01088 -38.016273 
L 334.72512 -38.016223 
L 335.43936 -38.016182 
L 336.1536 -38.016149 
L 336.86784 -38.016121 
L 337.58208 -38.016099 
L 338.29632 -38.01608 
L 339.01056 -38.016065 
L 339.7248 -38.016053 
L 340.43904 -38.016043 
L 341.15328 -38.016035 
L 341.86752 -38.016028 
L 342.58176 -38.016023 
L 343.296 -38.016018 
L 344.01024 -38.016015 
L 344.72448 -38.016012 
L 345.43872 -38.016009 
L 346.15296 -38.016008 
L 346.8672 -38.016006 
L 347.58144 -38.016005 
L 348.29568 -38.016004 
L 349.00992 -38.016003 
L 349.72416 -38.016002 
L 350.4384 -38.016002 
L 351.15264 -38.016002 
L 351.86688 -38.016001 
L 352.58112 -38.016001 
L 353.29536 -38.016001 
L 354.0096 -38.016001 
L 354.72384 -38.016 
L 355.43808 -38.016 
L 356.15232 -38.016 
L 356.86656 -38.016 
L 357.5808 -38.016 
L 358.29504 -38.016 
L 359.00928 -38.016 
L 359.72352 -38.016 
L 360.43776 -38.016 
L 361.152 -38.016 
L 361.86624 -38.016 
L 362.58048 -38.016 
L 363.29472 -38.016 
L 364.00896 -38.016 
L 364.7232 -38.016 
L 365.43744 -38.016 
L 366.15168 -38.016 
L 366.86592 -38.016 
L 367.58016 -38.016 
L 368.2944 -38.016 
L 369.00864 -38.016 
L 369.72288 -38.016 
L 370.43712 -38.016 
L 371.15136 -38.016 
L 371.8656 -38.016 
L 372.57984 -38.016 
L 373.29408 -38.016 
L 374.00832 -38.016 
L 374.72256 -38.016 
L 375.4368 -38.016 
L 376.15104 -38.016 
L 376.86528 -38.016 
L 377.57952 -38.016 
L 378.29376 -38.016 
L 379.008 -38.016 
L 379.72224 -38.016 
L 380.43648 -38.016 
L 381.15072 -38.016 
L 381.86496 -38.016 
L 382.5792 -38.016 
L 383.29344 -38.016 
L 384.00768 -38.016 
L 384.72192 -38.016 
L 385.43616 -38.016 
L 386.1504 -38.016 
L 386.86464 -38.016 
L 387.57888 -38.016 
L 388.29312 -38.016 
L 389.00736 -38.016 
L 389.7216 -38.016 
L 390.43584 -38.016 
L 391.15008 -38.016 
L 391.86432 -38.016 
L 392.57856 -38.016 
L 393.2928 -38.016 
L 394.00704 -38.016 
L 394.72128 -38.016 
L 395.43552 -38.016 
L 396.14976 -38.016 
L 396.864 -38.016 
L 397.57824 -38.016 
L 398.29248 -38.016 
L 399.00672 -38.016 
L 399.72096 -38.016 
L 400.4352 -38.016 
L 401.14944 -38.016 
L 401.86368 -38.016 
L 402.57792 -38.016 
L 403.29216 -38.016 
L 404.0064 -38.016 
L 404.72064 -38.016 
L 405.43488 -38.016 
L 406.14912 -38.016 
L 406.86336 -38.016 
L 407.5776 -38.016 
L 408.29184 -38.016 
L 409.00608 -38.016 
L 409.72032 -38.016 
L 410.43456 -38.016 
L 411.1488 -38.016 
L 411.86304 -38.016 
L 412.57728 -38.016 
L 413.29152 -38.016 
L 414.00576 -38.016 
L 414.72 -38.016 
L 414.72 -38.016 
L 414.72 -38.016 
L 414.00576 -38.016 
L 413.29152 -38.016 
L 412.57728 -38.016 
L 411.86304 -38.016 
L 411.1488 -38.016 
L 410.43456 -38.016 
L 409.72032 -38.016 
L 409.00608 -38.016 
L 408.29184 -38.016 
L 407.5776 -38.016 
L 406.86336 -38.016 
L 406.14912 -38.016 
L 405.43488 -38.016 
L 404.72064 -38.016 
L 404.0064 -38.016 
L 403.29216 -38.016 
L 402.57792 -38.016 
L 401.86368 -38.016 
L 401.14944 -38.016 
L 400.4352 -38.016 
L 399.72096 -38.016 
L 399.00672 -38.016 
L 398.29248 -38.016 
L 397.57824 -38.016 
L 396.864 -38.016 
L 396.14976 -38.016 
L 395.43552 -38.016 
L 394.72128 -38.016 
L 394.00704 -38.016 
L 393.2928 -38.016 
L 392.57856 -38.016 
L 391.86432 -38.016 
L 391.15008 -38.016 
L 390.43584 -38.016 
L 389.7216 -38.016 
L 389.00736 -38.016 
L 388.29312 -38.016 
L 387.57888 -38.016 
L 386.86464 -38.016 
L 386.1504 -38.016 
L 385.43616 -38.016 
L 384.72192 -38.016 
L 384.00768 -38.016 
L 383.29344 -38.016 
L 382.5792 -38.016 
L 381.86496 -38.016 
L 381.15072 -38.016 
L 380.43648 -38.016 
L 379.72224 -38.016 
L 379.008 -38.016 
L 378.29376 -38.016 
L 377.57952 -38.016 
L 376.86528 -38.016 
L 376.15104 -38.016 
L 375.4368 -38.016 
L 374.72256 -38.016 
L 374.00832 -38.016 
L 373.29408 -38.016 
L 372.57984 -38.016 
L 371.8656 -38.016 
L 371.15136 -38.016 
L 370.43712 -38.016 
L 369.72288 -38.016 
L 369.00864 -38.016 
L 368.2944 -38.016 
L 367.58016 -38.016 
L 366.86592 -38.016 
L 366.15168 -38.016 
L 365.43744 -38.016 
L 364.7232 -38.016 
L 364.00896 -38.016 
L 363.29472 -38.016 
L 362.58048 -38.016 
L 361.86624 -38.016 
L 361.152 -38.016 
L 360.43776 -38.016 
L 359.72352 -38.016 
L 359.00928 -38.016 
L 358.29504 -38.016 
L 357.5808 -38.016 
L 356.86656 -38.016 
L 356.15232 -38.016 
L 355.43808 -38.016 
L 354.72384 -38.016 
L 354.0096 -38.016 
L 353.29536 -38.016 
L 352.58112 -38.016 
L 351.86688 -38.016 
L 351.15264 -38.016 
L 350.4384 -38.016 
L 349.72416 -38.016 
L 349.00992 -38.016 
L 348.29568 -38.016 
L 347.58144 -38.016 
L 346.8672 -38.016 
L 346.15296 -38.016 
L 345.43872 -38.016 
L 344.72448 -38.016 
L 344.01024 -38.016 
L 343.296 -38.016 
L 342.58176 -38.016 
L 341.86752 -38.016 
L 341.15328 -38.016 
L 340.43904 -38.016 
L 339.7248 -38.016 
L 339.01056 -38.016 
L 338.29632 -38.016 
L 337.58208 -38.016 
L 336.86784 -38.016 
L 336.1536 -38.016 
L 335.43936 -38.016 
L 334.72512 -38.016 
L 334.01088 -38.016 
L 333.29664 -38.016 
L 332.5824 -38.016 
L 331.86816 -38.016 
L 331.15392 -38.016 
L 330.43968 -38.016 
L 329.72544 -38.016 
L 329.0112 -38.016 
L 328.29696 -38.016 
L 327.58272 -38.016 
L 326.86848 -38.016 
L 326.15424 -38.016 
L 325.44 -38.016 
L 324.72576 -38.016 
L 324.01152 -38.016 
L 323.29728 -38.016 
L 322.58304 -38.016 
L 321.8688 -38.016 
L 321.15456 -38.016 
L 320.44032 -38.016 
L 319.72608 -38.016 
L 319.01184 -38.016 
L 318.2976 -38.016 
L 317.58336 -38.016 
L 316.86912 -38.016 
L 316.15488 -38.016 
L 315.44064 -38.016 
L 314.7264 -38.016 
L 314.01216 -38.016 
L 313.29792 -38.016 
L 312.58368 -38.016 
L 311.86944 -38.016 
L 311.1552 -38.016 
L 310.44096 -38.016 
L 309.72672 -38.016 
L 309.01248 -38.016 
L 308.29824 -38.016 
L 307.584 -38.016 
L 306.86976 -38.016 
L 306.15552 -38.016 
L 305.44128 -38.016 
L 304.72704 -38.016 
L 304.0128 -38.016 
L 303.29856 -38.016 
L 302.58432 -38.016 
L 301.87008 -38.016 
L 301.15584 -38.016 
L 300.4416 -38.016 
L 299.72736 -38.016 
L 299.01312 -38.016 
L 298.29888 -38.016 
L 297.58464 -38.016 
L 296.8704 -38.016 
L 296.15616 -38.016 
L 295.44192 -38.016 
L 294.72768 -38.016 
L 294.01344 -38.016 
L 293.2992 -38.016 
L 292.58496 -38.016 
L 291.87072 -38.016 
L 291.15648 -38.016 
L 290.44224 -38.016 
L 289.728 -38.016 
L 289.01376 -38.016 
L 288.29952 -38.016 
L 287.58528 -38.016 
L 286.87104 -38.016 
L 286.1568 -38.016 
L 285.44256 -38.016 
L 284.72832 -38.016 
L 284.01408 -38.016 
L 283.29984 -38.016 
L 282.5856 -38.016 
L 281.87136 -38.016 
L 281.15712 -38.016 
L 280.44288 -38.016 
L 279.72864 -38.016 
L 279.0144 -38.016 
L 278.30016 -38.016 
L 277.58592 -38.016 
L 276.87168 -38.016 
L 276.15744 -38.016 
L 275.4432 -38.016 
L 274.72896 -38.016 
L 274.01472 -38.016 
L 273.30048 -38.016 
L 272.58624 -38.016 
L 271.872 -38.016 
L 271.15776 -38.016 
L 270.44352 -38.016 
L 269.72928 -38.016 
L 269.01504 -38.016 
L 268.3008 -38.016 
L 267.58656 -38.016 
L 266.87232 -38.016 
L 266.15808 -38.016 
L 265.44384 -38.016 
L 264.7296 -38.016 
L 264.01536 -38.016 
L 263.30112 -38.016 
L 262.58688 -38.016 
L 261.87264 -38.016 
L 261.1584 -38.016 
L 260.44416 -38.016 
L 259.72992 -38.016 
L 259.01568 -38.016 
L 258.30144 -38.016 
L 257.5872 -38.016 
L 256.87296 -38.016 
L 256.15872 -38.016 
L 255.44448 -38.016 
L 254.73024 -38.016 
L 254.016 -38.016 
L 253.30176 -38.016 
L 252.58752 -38.016 
L 251.87328 -38.016 
L 251.15904 -38.016 
L 250.4448 -38.016 
L 249.73056 -38.016 
L 249.01632 -38.016 
L 248.30208 -38.016 
L 247.58784 -38.016 
L 246.8736 -38.016 
L 246.15936 -38.016 
L 245.44512 -38.016 
L 244.73088 -38.016 
L 244.01664 -38.016 
L 243.3024 -38.016 
L 242.58816 -38.016 
L 241.87392 -38.016 
L 241.15968 -38.016 
L 240.44544 -38.016 
L 239.7312 -38.016 
L 239.01696 -38.016 
L 238.30272 -38.016 
L 237.58848 -38.016 
L 236.87424 -38.016 
L 236.16 -38.016 
L 235.44576 -38.016 
L 234.73152 -38.016 
L 234.01728 -38.016 
L 233.30304 -38.016 
L 232.5888 -38.016 
L 231.87456 -38.016 
L 231.16032 -38.016 
L 230.44608 -38.016 
L 229.73184 -38.016 
L 229.0176 -38.016 
L 228.30336 -38.016 
L 227.58912 -38.016 
L 226.87488 -38.016 
L 226.16064 -38.016 
L 225.4464 -38.016 
L 224.73216 -38.016 
L 224.01792 -38.016 
L 223.30368 -38.016 
L 222.58944 -38.016 
L 221.8752 -38.016 
L 221.16096 -38.016 
L 220.44672 -38.016 
L 219.73248 -38.016 
L 219.01824 -38.016 
L 218.304 -38.016 
L 217.58976 -38.016 
L 216.87552 -38.016 
L 216.16128 -38.016 
L 215.44704 -38.016 
L 214.7328 -38.016 
L 214.01856 -38.016 
L 213.30432 -38.016 
L 212.59008 -38.016 
L 211.87584 -38.016 
L 211.1616 -38.016 
L 210.44736 -38.016 
L 209.73312 -38.016 
L 209.01888 -38.016 
L 208.30464 -38.016 
L 207.5904 -38.016 
L 206.87616 -38.016 
L 206.16192 -38.016 
L 205.44768 -38.016 
L 204.73344 -38.016 
L 204.0192 -38.016 
L 203.30496 -38.016 
L 202.59072 -38.016 
L 201.87648 -38.016 
L 201.16224 -38.016 
L 200.448 -38.016 
L 199.73376 -38.016 
L 199.01952 -38.016 
L 198.30528 -38.016 
L 197.59104 -38.016 
L 196.8768 -38.016 
L 196.16256 -38.016 
L 195.44832 -38.016 
L 194.73408 -38.016 
L 194.01984 -38.016 
L 193.3056 -38.016 
L 192.59136 -38.016 
L 191.87712 -38.016 
L 191.16288 -38.016 
L 190.44864 -38.016 
L 189.7344 -38.016 
L 189.02016 -38.016 
L 188.30592 -38.016 
L 187.59168 -38.016 
L 186.87744 -38.016 
L 186.1632 -38.016 
L 185.44896 -38.016 
L 184.73472 -38.016 
L 184.02048 -38.016 
L 183.30624 -38.016 
L 182.592 -38.016 
L 181.87776 -38.016 
L 181.16352 -38.016 
L 180.44928 -38.016 
L 179.73504 -38.016 
L 179.0208 -38.016 
L 178.30656 -38.016 
L 177.59232 -38.016 
L 176.87808 -38.016 
L 176.16384 -38.016 
L 175.4496 -38.016 
L 174.73536 -38.016 
L 174.02112 -38.016 
L 173.30688 -38.016 
L 172.59264 -38.016 
L 171.8784 -38.016 
L 171.16416 -38.016 
L 170.44992 -38.016 
L 169.73568 -38.016 
L 169.02144 -38.016 
L 168.3072 -38.016 
L 167.59296 -38.016 
L 166.87872 -38.016 
L 166.16448 -38.016 
L 165.45024 -38.016 
L 164.736 -38.016 
L 164.02176 -38.016 
L 163.30752 -38.016 
L 162.59328 -38.016 
L 161.87904 -38.016 
L 161.1648 -38.016 
L 160.45056 -38.016 
L 159.73632 -38.016 
L 159.02208 -38.016 
L 158.30784 -38.016 
L 157.5936 -38.016 
L 156.87936 -38.016 
L 156.16512 -38.016 
L 155.45088 -38.016 
L 154.73664 -38.016 
L 154.0224 -38.016 
L 153.30816 -38.016 
L 152.59392 -38.016 
L 151.87968 -38.016 
L 151.16544 -38.016 
L 150.4512 -38.016 
L 149.73696 -38.016 
L 149.02272 -38.016 
L 148.30848 -38.016 
L 147.59424 -38.016 
L 146.88 -38.016 
L 146.16576 -38.016 
L 145.45152 -38.016 
L 144.73728 -38.016 
L 144.02304 -38.016 
L 143.3088 -38.016 
L 142.59456 -38.016 
L 141.88032 -38.016 
L 141.16608 -38.016 
L 140.45184 -38.016 
L 139.7376 -38.016 
L 139.02336 -38.016 
L 138.30912 -38.016 
L 137.59488 -38.016 
L 136.88064 -38.016 
L 136.1664 -38.016 
L 135.45216 -38.016 
L 134.73792 -38.016 
L 134.02368 -38.016 
L 133.30944 -38.016 
L 132.5952 -38.016 
L 131.88096 -38.016 
L 131.16672 -38.016 
L 130.45248 -38.016 
L 129.73824 -38.016 
L 129.024 -38.016 
L 128.30976 -38.016 
L 127.59552 -38.016 
L 126.88128 -38.016 
L 126.16704 -38.016 
L 125.4528 -38.016 
L 124.73856 -38.016 
L 124.02432 -38.016 
L 123.31008 -38.016 
L 122.59584 -38.016 
L 121.8816 -38.016 
L 121.16736 -38.016 
L 120.45312 -38.016 
L 119.73888 -38.016 
L 119.02464 -38.016 
L 118.3104 -38.016 
L 117.59616 -38.016 
L 116.88192 -38.016 
L 116.16768 -38.016 
L 115.45344 -38.016 
L 114.7392 -38.016 
L 114.02496 -38.016 
L 113.31072 -38.016 
L 112.59648 -38.016 
L 111.88224 -38.016 
L 111.168 -38.016 
L 110.45376 -38.016 
L 109.73952 -38.016 
L 109.02528 -38.016 
L 108.31104 -38.016 
L 107.5968 -38.016 
L 106.88256 -38.016 
L 106.16832 -38.016 
L 105.45408 -38.016 
L 104.73984 -38.016 
L 104.0256 -38.016 
L 103.31136 -38.016 
L 102.59712 -38.016 
L 101.88288 -38.016 
L 101.16864 -38.016 
L 100.4544 -38.016 
L 99.74016 -38.016 
L 99.02592 -38.016 
L 98.31168 -38.016 
L 97.59744 -38.016 
L 96.8832 -38.016 
L 96.16896 -38.016 
L 95.45472 -38.016 
L 94.74048 -38.016 
L 94.02624 -38.016 
L 93.312 -38.016 
L 92.59776 -38.016 
L 91.88352 -38.016 
L 91.16928 -38.016 
L 90.45504 -38.016 
L 89.7408 -38.016 
L 89.02656 -38.016 
L 88.31232 -38.016 
L 87.59808 -38.016 
L 86.88384 -38.016 
L 86.1696 -38.016 
L 85.45536 -38.016 
L 84.74112 -38.016 
L 84.02688 -38.016 
L 83.31264 -38.016 
L 82.5984 -38.016 
L 81.88416 -38.016 
L 81.16992 -38.016 
L 80.45568 -38.016 
L 79.74144 -38.016 
L 79.0272 -38.016 
L 78.31296 -38.016 
L 77.59872 -38.016 
L 76.88448 -38.016 
L 76.17024 -38.016 
L 75.456 -38.016 
L 74.74176 -38.016 
L 74.02752 -38.016 
L 73.31328 -38.016 
L 72.59904 -38.016 
L 71.8848 -38.016 
L 71.17056 -38.016 
L 70.45632 -38.016 
L 69.74208 -38.016 
L 69.02784 -38.016 
L 68.3136 -38.016 
L 67.59936 -38.016 
L 66.88512 -38.016 
L 66.17088 -38.016 
L 65.45664 -38.016 
L 64.7424 -38.016 
L 64.02816 -38.016 
L 63.31392 -38.016 
L 62.59968 -38.016 
L 61.88544 -38.016 
L 61.1712 -38.016 
L 60.45696 -38.016 
L 59.74272 -38.016 
L 59.02848 -38.016 
L 58.31424 -38.016 
L 57.6 -38.016 
z
" id="m6e491b283e" style="stroke:#509369;"/>
    </defs>
    <g clip-path="url(#pa5f29dacdd)">
     <use style="fill:#509369;stroke:#509369;" x="0" xlink:href="#m6e491b283e" y="345.6"/>
    </g>
   </g>
   <g id="PolyCollection_2">
    <defs>
     <path d="M 57.6 -279.936027 
L 57.6 -279.936 
L 58.31424 -279.935999 
L 59.02848 -279.935998 
L 59.74272 -279.935995 
L 60.45696 -279.935992 
L 61.1712 -279.935988 
L 61.88544 -279.935982 
L 62.59968 -279.935975 
L 63.31392 -279.935967 
L 64.02816 -279.935958 
L 64.7424 -279.935946 
L 65.45664 -279.935933 
L 66.17088 -279.935917 
L 66.88512 -279.935898 
L 67.59936 -279.935876 
L 68.3136 -279.935851 
L 69.02784 -279.935821 
L 69.74208 -279.935786 
L 70.45632 -279.935746 
L 71.17056 -279.935699 
L 71.8848 -279.935645 
L 72.59904 -279.935582 
L 73.31328 -279.935509 
L 74.02752 -279.935425 
L 74.74176 -279.935328 
L 75.456 -279.935215 
L 76.17024 -279.935086 
L 76.88448 -279.934937 
L 77.59872 -279.934766 
L 78.31296 -279.934569 
L 79.0272 -279.934343 
L 79.74144 -279.934084 
L 80.45568 -279.933787 
L 81.16992 -279.933447 
L 81.88416 -279.933058 
L 82.5984 -279.932614 
L 83.31264 -279.932108 
L 84.02688 -279.93153 
L 84.74112 -279.930872 
L 85.45536 -279.930124 
L 86.1696 -279.929274 
L 86.88384 -279.928308 
L 87.59808 -279.927212 
L 88.31232 -279.92597 
L 89.02656 -279.924565 
L 89.7408 -279.922975 
L 90.45504 -279.921179 
L 91.16928 -279.919151 
L 91.88352 -279.916865 
L 92.59776 -279.91429 
L 93.312 -279.911391 
L 94.02624 -279.908133 
L 94.74048 -279.904473 
L 95.45472 -279.900366 
L 96.16896 -279.895763 
L 96.8832 -279.890609 
L 97.59744 -279.884843 
L 98.31168 -279.878399 
L 99.02592 -279.871204 
L 99.74016 -279.863179 
L 100.4544 -279.854238 
L 101.16864 -279.844285 
L 101.88288 -279.833218 
L 102.59712 -279.820922 
L 103.31136 -279.807277 
L 104.0256 -279.792148 
L 104.73984 -279.775391 
L 105.45408 -279.75685 
L 106.16832 -279.736354 
L 106.88256 -279.713721 
L 107.5968 -279.688753 
L 108.31104 -279.661235 
L 109.02528 -279.630938 
L 109.73952 -279.597615 
L 110.45376 -279.560999 
L 111.168 -279.520806 
L 111.88224 -279.476729 
L 112.59648 -279.428442 
L 113.31072 -279.375596 
L 114.02496 -279.317817 
L 114.7392 -279.254708 
L 115.45344 -279.185847 
L 116.16768 -279.110784 
L 116.88192 -279.029041 
L 117.59616 -278.940114 
L 118.3104 -278.843468 
L 119.02464 -278.738537 
L 119.73888 -278.624724 
L 120.45312 -278.501401 
L 121.16736 -278.367908 
L 121.8816 -278.223548 
L 122.59584 -278.067595 
L 123.31008 -277.899283 
L 124.02432 -277.717817 
L 124.73856 -277.522362 
L 125.4528 -277.312051 
L 126.16704 -277.08598 
L 126.88128 -276.843212 
L 127.59552 -276.582773 
L 128.30976 -276.303655 
L 129.024 -276.004819 
L 129.73824 -275.68519 
L 130.45248 -275.343663 
L 131.16672 -274.979102 
L 131.88096 -274.590342 
L 132.5952 -274.176192 
L 133.30944 -273.735433 
L 134.02368 -273.266824 
L 134.73792 -272.769104 
L 135.45216 -272.240991 
L 136.1664 -271.681189 
L 136.88064 -271.08839 
L 137.59488 -270.461275 
L 138.30912 -269.79852 
L 139.02336 -269.0988 
L 139.7376 -268.36079 
L 140.45184 -267.583172 
L 141.16608 -266.764639 
L 141.88032 -265.903898 
L 142.59456 -264.999677 
L 143.3088 -264.050727 
L 144.02304 -263.055831 
L 144.73728 -262.013804 
L 145.45152 -260.923503 
L 146.16576 -259.783831 
L 146.88 -258.593742 
L 147.59424 -257.352244 
L 148.30848 -256.058409 
L 149.02272 -254.711377 
L 149.73696 -253.310359 
L 150.4512 -251.854645 
L 151.16544 -250.343609 
L 151.87968 -248.776712 
L 152.59392 -247.153509 
L 153.30816 -245.473652 
L 154.0224 -243.736899 
L 154.73664 -241.943111 
L 155.45088 -240.09226 
L 156.16512 -238.184436 
L 156.87936 -236.219841 
L 157.5936 -234.198802 
L 158.30784 -232.121767 
L 159.02208 -229.989309 
L 159.73632 -227.802128 
L 160.45056 -225.561052 
L 161.1648 -223.267035 
L 161.87904 -220.921163 
L 162.59328 -218.524648 
L 163.30752 -216.078828 
L 164.02176 -213.58517 
L 164.736 -211.045262 
L 165.45024 -208.460815 
L 166.16448 -205.833656 
L 166.87872 -203.165729 
L 167.59296 -200.459088 
L 168.3072 -197.715891 
L 169.02144 -194.9384 
L 169.73568 -192.12897 
L 170.44992 -189.290045 
L 171.16416 -186.424154 
L 171.8784 -183.533901 
L 172.59264 -180.621958 
L 173.30688 -177.691059 
L 174.02112 -174.743993 
L 174.73536 -171.783592 
L 175.4496 -168.812727 
L 176.16384 -165.834298 
L 176.87808 -162.851223 
L 177.59232 -159.866433 
L 178.30656 -156.882862 
L 179.0208 -153.903437 
L 179.73504 -150.931072 
L 180.44928 -147.968656 
L 181.16352 -145.019045 
L 181.87776 -142.085059 
L 182.592 -139.169465 
L 183.30624 -136.274976 
L 184.02048 -133.404242 
L 184.73472 -130.55984 
L 185.44896 -127.744271 
L 186.1632 -124.959949 
L 186.87744 -122.209198 
L 187.59168 -119.494248 
L 188.30592 -116.817224 
L 189.02016 -114.180147 
L 189.7344 -111.584925 
L 190.44864 -109.033353 
L 191.16288 -106.527108 
L 191.87712 -104.067748 
L 192.59136 -101.656705 
L 193.3056 -99.29529 
L 194.01984 -96.984687 
L 194.73408 -94.725954 
L 195.44832 -92.520023 
L 196.16256 -90.3677 
L 196.8768 -88.269667 
L 197.59104 -86.226482 
L 198.30528 -84.238581 
L 199.01952 -82.306281 
L 199.73376 -80.429781 
L 200.448 -78.609168 
L 201.16224 -76.844415 
L 201.87648 -75.135393 
L 202.59072 -73.481866 
L 203.30496 -71.883501 
L 204.0192 -70.339871 
L 204.73344 -68.850458 
L 205.44768 -67.414662 
L 206.16192 -66.0318 
L 206.87616 -64.701118 
L 207.5904 -63.421789 
L 208.30464 -62.192924 
L 209.01888 -61.013575 
L 209.73312 -59.88274 
L 210.44736 -58.799369 
L 211.1616 -57.762369 
L 211.87584 -56.770608 
L 212.59008 -55.822922 
L 213.30432 -54.918119 
L 214.01856 -54.054983 
L 214.7328 -53.232281 
L 215.44704 -52.448764 
L 216.16128 -51.703175 
L 216.87552 -50.994249 
L 217.58976 -50.320722 
L 218.304 -49.68133 
L 219.01824 -49.074814 
L 219.73248 -48.499927 
L 220.44672 -47.95543 
L 221.16096 -47.4401 
L 221.8752 -46.952732 
L 222.58944 -46.49214 
L 223.30368 -46.05716 
L 224.01792 -45.64665 
L 224.73216 -45.259497 
L 225.4464 -44.894612 
L 226.16064 -44.550935 
L 226.87488 -44.227436 
L 227.58912 -43.923115 
L 228.30336 -43.637003 
L 229.0176 -43.368163 
L 229.73184 -43.115691 
L 230.44608 -42.878714 
L 231.16032 -42.656392 
L 231.87456 -42.447919 
L 232.5888 -42.252518 
L 233.30304 -42.069449 
L 234.01728 -41.898 
L 234.73152 -41.737492 
L 235.44576 -41.587278 
L 236.16 -41.446739 
L 236.87424 -41.315287 
L 237.58848 -41.192364 
L 238.30272 -41.077438 
L 239.01696 -40.970006 
L 239.7312 -40.869591 
L 240.44544 -40.775742 
L 241.15968 -40.688032 
L 241.87392 -40.606058 
L 242.58816 -40.529441 
L 243.3024 -40.457822 
L 244.01664 -40.390866 
L 244.73088 -40.328255 
L 245.44512 -40.269691 
L 246.15936 -40.214896 
L 246.8736 -40.163607 
L 247.58784 -40.115579 
L 248.30208 -40.070582 
L 249.01632 -40.028401 
L 249.73056 -39.988834 
L 250.4448 -39.951693 
L 251.15904 -39.916803 
L 251.87328 -39.883999 
L 252.58752 -39.853127 
L 253.30176 -39.824045 
L 254.016 -39.796619 
L 254.73024 -39.770724 
L 255.44448 -39.746243 
L 256.15872 -39.723068 
L 256.87296 -39.701096 
L 257.5872 -39.680231 
L 258.30144 -39.660385 
L 259.01568 -39.641473 
L 259.72992 -39.623417 
L 260.44416 -39.606142 
L 261.1584 -39.589577 
L 261.87264 -39.573657 
L 262.58688 -39.558318 
L 263.30112 -39.543499 
L 264.01536 -39.529143 
L 264.7296 -39.515195 
L 265.44384 -39.5016 
L 266.15808 -39.488307 
L 266.87232 -39.475265 
L 267.58656 -39.462422 
L 268.3008 -39.449732 
L 269.01504 -39.437143 
L 269.72928 -39.424608 
L 270.44352 -39.412077 
L 271.15776 -39.3995 
L 271.872 -39.386829 
L 272.58624 -39.374013 
L 273.30048 -39.360999 
L 274.01472 -39.347735 
L 274.72896 -39.334168 
L 275.4432 -39.320242 
L 276.15744 -39.305903 
L 276.87168 -39.291092 
L 277.58592 -39.275752 
L 278.30016 -39.259824 
L 279.0144 -39.243249 
L 279.72864 -39.225968 
L 280.44288 -39.207923 
L 281.15712 -39.189056 
L 281.87136 -39.169311 
L 282.5856 -39.148637 
L 283.29984 -39.126984 
L 284.01408 -39.104309 
L 284.72832 -39.080574 
L 285.44256 -39.055751 
L 286.1568 -39.029818 
L 286.87104 -39.002766 
L 287.58528 -38.974599 
L 288.29952 -38.945333 
L 289.01376 -38.915001 
L 289.728 -38.883651 
L 290.44224 -38.851348 
L 291.15648 -38.818177 
L 291.87072 -38.784238 
L 292.58496 -38.749651 
L 293.2992 -38.71455 
L 294.01344 -38.679086 
L 294.72768 -38.64342 
L 295.44192 -38.607724 
L 296.15616 -38.572177 
L 296.8704 -38.536961 
L 297.58464 -38.502257 
L 298.29888 -38.46824 
L 299.01312 -38.43508 
L 299.72736 -38.402931 
L 300.4416 -38.371935 
L 301.15584 -38.342217 
L 301.87008 -38.313879 
L 302.58432 -38.287006 
L 303.29856 -38.261659 
L 304.0128 -38.237879 
L 304.72704 -38.215687 
L 305.44128 -38.195082 
L 306.15552 -38.176048 
L 306.86976 -38.15855 
L 307.584 -38.142543 
L 308.29824 -38.127966 
L 309.01248 -38.114753 
L 309.72672 -38.102827 
L 310.44096 -38.09211 
L 311.1552 -38.082517 
L 311.86944 -38.073966 
L 312.58368 -38.066372 
L 313.29792 -38.059654 
L 314.01216 -38.053731 
L 314.7264 -38.048527 
L 315.44064 -38.04397 
L 316.15488 -38.039993 
L 316.86912 -38.036532 
L 317.58336 -38.03353 
L 318.2976 -38.030933 
L 319.01184 -38.028693 
L 319.72608 -38.026766 
L 320.44032 -38.025112 
L 321.15456 -38.023697 
L 321.8688 -38.022488 
L 322.58304 -38.021459 
L 323.29728 -38.020585 
L 324.01152 -38.019843 
L 324.72576 -38.019215 
L 325.44 -38.018686 
L 326.15424 -38.018239 
L 326.86848 -38.017864 
L 327.58272 -38.017549 
L 328.29696 -38.017285 
L 329.0112 -38.017064 
L 329.72544 -38.01688 
L 330.43968 -38.016727 
L 331.15392 -38.016599 
L 331.86816 -38.016493 
L 332.5824 -38.016405 
L 333.29664 -38.016333 
L 334.01088 -38.016273 
L 334.72512 -38.016223 
L 335.43936 -38.016182 
L 336.1536 -38.016149 
L 336.86784 -38.016121 
L 337.58208 -38.016099 
L 338.29632 -38.01608 
L 339.01056 -38.016065 
L 339.7248 -38.016053 
L 340.43904 -38.016043 
L 341.15328 -38.016035 
L 341.86752 -38.016028 
L 342.58176 -38.016023 
L 343.296 -38.016018 
L 344.01024 -38.016015 
L 344.72448 -38.016012 
L 345.43872 -38.016009 
L 346.15296 -38.016008 
L 346.8672 -38.016006 
L 347.58144 -38.016005 
L 348.29568 -38.016004 
L 349.00992 -38.016003 
L 349.72416 -38.016002 
L 350.4384 -38.016002 
L 351.15264 -38.016002 
L 351.86688 -38.016001 
L 352.58112 -38.016001 
L 353.29536 -38.016001 
L 354.0096 -38.016001 
L 354.72384 -38.016 
L 355.43808 -38.016 
L 356.15232 -38.016 
L 356.86656 -38.016 
L 357.5808 -38.016 
L 358.29504 -38.016 
L 359.00928 -38.016 
L 359.72352 -38.016 
L 360.43776 -38.016 
L 361.152 -38.016 
L 361.86624 -38.016 
L 362.58048 -38.016 
L 363.29472 -38.016 
L 364.00896 -38.016 
L 364.7232 -38.016 
L 365.43744 -38.016 
L 366.15168 -38.016 
L 366.86592 -38.016 
L 367.58016 -38.016 
L 368.2944 -38.016 
L 369.00864 -38.016 
L 369.72288 -38.016 
L 370.43712 -38.016 
L 371.15136 -38.016 
L 371.8656 -38.016 
L 372.57984 -38.016 
L 373.29408 -38.016 
L 374.00832 -38.016 
L 374.72256 -38.016 
L 375.4368 -38.016 
L 376.15104 -38.016 
L 376.86528 -38.016 
L 377.57952 -38.016 
L 378.29376 -38.016 
L 379.008 -38.016 
L 379.72224 -38.016 
L 380.43648 -38.016 
L 381.15072 -38.016 
L 381.86496 -38.016 
L 382.5792 -38.016 
L 383.29344 -38.016 
L 384.00768 -38.016 
L 384.72192 -38.016 
L 385.43616 -38.016 
L 386.1504 -38.016 
L 386.86464 -38.016 
L 387.57888 -38.016 
L 388.29312 -38.016 
L 389.00736 -38.016 
L 389.7216 -38.016 
L 390.43584 -38.016 
L 391.15008 -38.016 
L 391.86432 -38.016 
L 392.57856 -38.016 
L 393.2928 -38.016 
L 394.00704 -38.016 
L 394.72128 -38.016 
L 395.43552 -38.016 
L 396.14976 -38.016 
L 396.864 -38.016 
L 397.57824 -38.016 
L 398.29248 -38.016 
L 399.00672 -38.016 
L 399.72096 -38.016 
L 400.4352 -38.016 
L 401.14944 -38.016 
L 401.86368 -38.016 
L 402.57792 -38.016 
L 403.29216 -38.016 
L 404.0064 -38.016 
L 404.72064 -38.016 
L 405.43488 -38.016 
L 406.14912 -38.016 
L 406.86336 -38.016 
L 407.5776 -38.016 
L 408.29184 -38.016 
L 409.00608 -38.016 
L 409.72032 -38.016 
L 410.43456 -38.016 
L 411.1488 -38.016 
L 411.86304 -38.016 
L 412.57728 -38.016 
L 413.29152 -38.016 
L 414.00576 -38.016 
L 414.72 -38.016 
L 414.72 -38.016 
L 414.72 -38.016 
L 414.00576 -38.016 
L 413.29152 -38.016 
L 412.57728 -38.016 
L 411.86304 -38.016 
L 411.1488 -38.016 
L 410.43456 -38.016 
L 409.72032 -38.016 
L 409.00608 -38.016 
L 408.29184 -38.016 
L 407.5776 -38.016 
L 406.86336 -38.016 
L 406.14912 -38.016 
L 405.43488 -38.016 
L 404.72064 -38.016 
L 404.0064 -38.016 
L 403.29216 -38.016 
L 402.57792 -38.016 
L 401.86368 -38.016 
L 401.14944 -38.016 
L 400.4352 -38.016 
L 399.72096 -38.016 
L 399.00672 -38.016 
L 398.29248 -38.016 
L 397.57824 -38.016 
L 396.864 -38.016 
L 396.14976 -38.016 
L 395.43552 -38.016 
L 394.72128 -38.016 
L 394.00704 -38.016 
L 393.2928 -38.016 
L 392.57856 -38.016 
L 391.86432 -38.016 
L 391.15008 -38.016 
L 390.43584 -38.016 
L 389.7216 -38.016 
L 389.00736 -38.016 
L 388.29312 -38.016 
L 387.57888 -38.016 
L 386.86464 -38.016 
L 386.1504 -38.016 
L 385.43616 -38.016 
L 384.72192 -38.016 
L 384.00768 -38.016 
L 383.29344 -38.016 
L 382.5792 -38.016 
L 381.86496 -38.016 
L 381.15072 -38.016 
L 380.43648 -38.016 
L 379.72224 -38.016 
L 379.008 -38.016 
L 378.29376 -38.016 
L 377.57952 -38.016 
L 376.86528 -38.016 
L 376.15104 -38.016 
L 375.4368 -38.016 
L 374.72256 -38.016 
L 374.00832 -38.016 
L 373.29408 -38.016 
L 372.57984 -38.016 
L 371.8656 -38.016 
L 371.15136 -38.016001 
L 370.43712 -38.016001 
L 369.72288 -38.016001 
L 369.00864 -38.016001 
L 368.2944 -38.016001 
L 367.58016 -38.016002 
L 366.86592 -38.016002 
L 366.15168 -38.016003 
L 365.43744 -38.016004 
L 364.7232 -38.016005 
L 364.00896 -38.016006 
L 363.29472 -38.016008 
L 362.58048 -38.01601 
L 361.86624 -38.016013 
L 361.152 -38.016017 
L 360.43776 -38.016021 
L 359.72352 -38.016027 
L 359.00928 -38.016034 
L 358.29504 -38.016044 
L 357.5808 -38.016055 
L 356.86656 -38.01607 
L 356.15232 -38.016088 
L 355.43808 -38.016111 
L 354.72384 -38.016139 
L 354.0096 -38.016175 
L 353.29536 -38.01622 
L 352.58112 -38.016276 
L 351.86688 -38.016346 
L 351.15264 -38.016433 
L 350.4384 -38.016541 
L 349.72416 -38.016676 
L 349.00992 -38.016843 
L 348.29568 -38.017051 
L 347.58144 -38.017307 
L 346.8672 -38.017625 
L 346.15296 -38.018018 
L 345.43872 -38.018502 
L 344.72448 -38.019099 
L 344.01024 -38.019834 
L 343.296 -38.020737 
L 342.58176 -38.021846 
L 341.86752 -38.023205 
L 341.15328 -38.024869 
L 340.43904 -38.026904 
L 339.7248 -38.02939 
L 339.01056 -38.03242 
L 338.29632 -38.036111 
L 337.58208 -38.0406 
L 336.86784 -38.04605 
L 336.1536 -38.05266 
L 335.43936 -38.060665 
L 334.72512 -38.070343 
L 334.01088 -38.082028 
L 333.29664 -38.096114 
L 332.5824 -38.11307 
L 331.86816 -38.133447 
L 331.15392 -38.157897 
L 330.43968 -38.187187 
L 329.72544 -38.222216 
L 329.0112 -38.26404 
L 328.29696 -38.313889 
L 327.58272 -38.373198 
L 326.86848 -38.443638 
L 326.15424 -38.527141 
L 325.44 -38.625944 
L 324.72576 -38.742622 
L 324.01152 -38.880136 
L 323.29728 -39.041872 
L 322.58304 -39.231696 
L 321.8688 -39.454002 
L 321.15456 -39.713765 
L 320.44032 -40.016593 
L 319.72608 -40.368781 
L 319.01184 -40.777363 
L 318.2976 -41.250158 
L 317.58336 -41.795809 
L 316.86912 -42.423817 
L 316.15488 -43.144559 
L 315.44064 -43.969292 
L 314.7264 -44.910137 
L 314.01216 -45.980039 
L 313.29792 -47.1927 
L 312.58368 -48.562476 
L 311.86944 -50.104247 
L 311.1552 -51.833234 
L 310.44096 -53.764785 
L 309.72672 -55.914113 
L 309.01248 -58.295992 
L 308.29824 -60.92441 
L 307.584 -63.812192 
L 306.86976 -66.970588 
L 306.15552 -70.40885 
L 305.44128 -74.133799 
L 304.72704 -78.149409 
L 304.0128 -82.456419 
L 303.29856 -87.051991 
L 302.58432 -91.929445 
L 301.87008 -97.078081 
L 301.15584 -102.483099 
L 300.4416 -108.125657 
L 299.72736 -113.983033 
L 299.01312 -120.028939 
L 298.29888 -126.233941 
L 297.58464 -132.566004 
L 296.8704 -138.991121 
L 296.15616 -145.474013 
L 295.44192 -151.978865 
L 294.72768 -158.47007 
L 294.01344 -164.912952 
L 293.2992 -171.274425 
L 292.58496 -177.523587 
L 291.87072 -183.632207 
L 291.15648 -189.575104 
L 290.44224 -195.330419 
L 289.728 -200.879755 
L 289.01376 -206.208227 
L 288.29952 -211.304404 
L 287.58528 -216.160168 
L 286.87104 -220.770512 
L 286.1568 -225.133278 
L 285.44256 -229.24887 
L 284.72832 -233.119944 
L 284.01408 -236.751083 
L 283.29984 -240.148492 
L 282.5856 -243.319693 
L 281.87136 -246.273246 
L 281.15712 -249.018488 
L 280.44288 -251.565305 
L 279.72864 -253.923929 
L 279.0144 -256.104759 
L 278.30016 -258.118215 
L 277.58592 -259.97461 
L 276.87168 -261.684052 
L 276.15744 -263.256363 
L 275.4432 -264.701013 
L 274.72896 -266.027081 
L 274.01472 -267.243218 
L 273.30048 -268.357627 
L 272.58624 -269.378055 
L 271.872 -270.311787 
L 271.15776 -271.165654 
L 270.44352 -271.946038 
L 269.72928 -272.658888 
L 269.01504 -273.309735 
L 268.3008 -273.90371 
L 267.58656 -274.445564 
L 266.87232 -274.939687 
L 266.15808 -275.390132 
L 265.44384 -275.800631 
L 264.7296 -276.174621 
L 264.01536 -276.515259 
L 263.30112 -276.825446 
L 262.58688 -277.107841 
L 261.87264 -277.364882 
L 261.1584 -277.598802 
L 260.44416 -277.811644 
L 259.72992 -278.005277 
L 259.01568 -278.181409 
L 258.30144 -278.341599 
L 257.5872 -278.487272 
L 256.87296 -278.619729 
L 256.15872 -278.740156 
L 255.44448 -278.849633 
L 254.73024 -278.949148 
L 254.016 -279.039599 
L 253.30176 -279.121805 
L 252.58752 -279.196511 
L 251.87328 -279.264398 
L 251.15904 -279.326082 
L 250.4448 -279.382128 
L 249.73056 -279.433047 
L 249.01632 -279.479306 
L 248.30208 -279.521329 
L 247.58784 -279.559502 
L 246.8736 -279.594175 
L 246.15936 -279.625669 
L 245.44512 -279.654273 
L 244.73088 -279.680251 
L 244.01664 -279.703843 
L 243.3024 -279.725268 
L 242.58816 -279.744723 
L 241.87392 -279.762389 
L 241.15968 -279.77843 
L 240.44544 -279.792995 
L 239.7312 -279.806219 
L 239.01696 -279.818226 
L 238.30272 -279.829125 
L 237.58848 -279.839021 
L 236.87424 -279.848004 
L 236.16 -279.856158 
L 235.44576 -279.86356 
L 234.73152 -279.870278 
L 234.01728 -279.876377 
L 233.30304 -279.881911 
L 232.5888 -279.886935 
L 231.87456 -279.891494 
L 231.16032 -279.895631 
L 230.44608 -279.899386 
L 229.73184 -279.902793 
L 229.0176 -279.905885 
L 228.30336 -279.90869 
L 227.58912 -279.911235 
L 226.87488 -279.913545 
L 226.16064 -279.91564 
L 225.4464 -279.917541 
L 224.73216 -279.919265 
L 224.01792 -279.92083 
L 223.30368 -279.922249 
L 222.58944 -279.923536 
L 221.8752 -279.924703 
L 221.16096 -279.925762 
L 220.44672 -279.926723 
L 219.73248 -279.927594 
L 219.01824 -279.928384 
L 218.304 -279.9291 
L 217.58976 -279.929749 
L 216.87552 -279.930338 
L 216.16128 -279.930872 
L 215.44704 -279.931356 
L 214.7328 -279.931795 
L 214.01856 -279.932193 
L 213.30432 -279.932554 
L 212.59008 -279.932881 
L 211.87584 -279.933177 
L 211.1616 -279.933446 
L 210.44736 -279.93369 
L 209.73312 -279.93391 
L 209.01888 -279.93411 
L 208.30464 -279.934291 
L 207.5904 -279.934456 
L 206.87616 -279.934604 
L 206.16192 -279.934739 
L 205.44768 -279.934861 
L 204.73344 -279.934972 
L 204.0192 -279.935072 
L 203.30496 -279.935163 
L 202.59072 -279.935245 
L 201.87648 -279.935319 
L 201.16224 -279.935387 
L 200.448 -279.935448 
L 199.73376 -279.935503 
L 199.01952 -279.935553 
L 198.30528 -279.935598 
L 197.59104 -279.935639 
L 196.8768 -279.935677 
L 196.16256 -279.93571 
L 195.44832 -279.935741 
L 194.73408 -279.935768 
L 194.01984 -279.935793 
L 193.3056 -279.935816 
L 192.59136 -279.935836 
L 191.87712 -279.935854 
L 191.16288 -279.935871 
L 190.44864 -279.935886 
L 189.7344 -279.9359 
L 189.02016 -279.935912 
L 188.30592 -279.935923 
L 187.59168 -279.935933 
L 186.87744 -279.935942 
L 186.1632 -279.935951 
L 185.44896 -279.935958 
L 184.73472 -279.935965 
L 184.02048 -279.935971 
L 183.30624 -279.935976 
L 182.592 -279.935981 
L 181.87776 -279.935986 
L 181.16352 -279.93599 
L 180.44928 -279.935994 
L 179.73504 -279.935997 
L 179.0208 -279.936 
L 178.30656 -279.936003 
L 177.59232 -279.936005 
L 176.87808 -279.936007 
L 176.16384 -279.936009 
L 175.4496 -279.936011 
L 174.73536 -279.936013 
L 174.02112 -279.936014 
L 173.30688 -279.936015 
L 172.59264 -279.936017 
L 171.8784 -279.936018 
L 171.16416 -279.936019 
L 170.44992 -279.936019 
L 169.73568 -279.93602 
L 169.02144 -279.936021 
L 168.3072 -279.936022 
L 167.59296 -279.936022 
L 166.87872 -279.936023 
L 166.16448 -279.936023 
L 165.45024 -279.936024 
L 164.736 -279.936024 
L 164.02176 -279.936024 
L 163.30752 -279.936025 
L 162.59328 -279.936025 
L 161.87904 -279.936025 
L 161.1648 -279.936025 
L 160.45056 -279.936025 
L 159.73632 -279.936026 
L 159.02208 -279.936026 
L 158.30784 -279.936026 
L 157.5936 -279.936026 
L 156.87936 -279.936026 
L 156.16512 -279.936026 
L 155.45088 -279.936026 
L 154.73664 -279.936026 
L 154.0224 -279.936027 
L 153.30816 -279.936027 
L 152.59392 -279.936027 
L 151.87968 -279.936027 
L 151.16544 -279.936027 
L 150.4512 -279.936027 
L 149.73696 -279.936027 
L 149.02272 -279.936027 
L 148.30848 -279.936027 
L 147.59424 -279.936027 
L 146.88 -279.936027 
L 146.16576 -279.936027 
L 145.45152 -279.936027 
L 144.73728 -279.936027 
L 144.02304 -279.936027 
L 143.3088 -279.936027 
L 142.59456 -279.936027 
L 141.88032 -279.936027 
L 141.16608 -279.936027 
L 140.45184 -279.936027 
L 139.7376 -279.936027 
L 139.02336 -279.936027 
L 138.30912 -279.936027 
L 137.59488 -279.936027 
L 136.88064 -279.936027 
L 136.1664 -279.936027 
L 135.45216 -279.936027 
L 134.73792 -279.936027 
L 134.02368 -279.936027 
L 133.30944 -279.936027 
L 132.5952 -279.936027 
L 131.88096 -279.936027 
L 131.16672 -279.936027 
L 130.45248 -279.936027 
L 129.73824 -279.936027 
L 129.024 -279.936027 
L 128.30976 -279.936027 
L 127.59552 -279.936027 
L 126.88128 -279.936027 
L 126.16704 -279.936027 
L 125.4528 -279.936027 
L 124.73856 -279.936027 
L 124.02432 -279.936027 
L 123.31008 -279.936027 
L 122.59584 -279.936027 
L 121.8816 -279.936027 
L 121.16736 -279.936027 
L 120.45312 -279.936027 
L 119.73888 -279.936027 
L 119.02464 -279.936027 
L 118.3104 -279.936027 
L 117.59616 -279.936027 
L 116.88192 -279.936027 
L 116.16768 -279.936027 
L 115.45344 -279.936027 
L 114.7392 -279.936027 
L 114.02496 -279.936027 
L 113.31072 -279.936027 
L 112.59648 -279.936027 
L 111.88224 -279.936027 
L 111.168 -279.936027 
L 110.45376 -279.936027 
L 109.73952 -279.936027 
L 109.02528 -279.936027 
L 108.31104 -279.936027 
L 107.5968 -279.936027 
L 106.88256 -279.936027 
L 106.16832 -279.936027 
L 105.45408 -279.936027 
L 104.73984 -279.936027 
L 104.0256 -279.936027 
L 103.31136 -279.936027 
L 102.59712 -279.936027 
L 101.88288 -279.936027 
L 101.16864 -279.936027 
L 100.4544 -279.936027 
L 99.74016 -279.936027 
L 99.02592 -279.936027 
L 98.31168 -279.936027 
L 97.59744 -279.936027 
L 96.8832 -279.936027 
L 96.16896 -279.936027 
L 95.45472 -279.936027 
L 94.74048 -279.936027 
L 94.02624 -279.936027 
L 93.312 -279.936027 
L 92.59776 -279.936027 
L 91.88352 -279.936027 
L 91.16928 -279.936027 
L 90.45504 -279.936027 
L 89.7408 -279.936027 
L 89.02656 -279.936027 
L 88.31232 -279.936027 
L 87.59808 -279.936027 
L 86.88384 -279.936027 
L 86.1696 -279.936027 
L 85.45536 -279.936027 
L 84.74112 -279.936027 
L 84.02688 -279.936027 
L 83.31264 -279.936027 
L 82.5984 -279.936027 
L 81.88416 -279.936027 
L 81.16992 -279.936027 
L 80.45568 -279.936027 
L 79.74144 -279.936027 
L 79.0272 -279.936027 
L 78.31296 -279.936027 
L 77.59872 -279.936027 
L 76.88448 -279.936027 
L 76.17024 -279.936027 
L 75.456 -279.936027 
L 74.74176 -279.936027 
L 74.02752 -279.936027 
L 73.31328 -279.936027 
L 72.59904 -279.936027 
L 71.8848 -279.936027 
L 71.17056 -279.936027 
L 70.45632 -279.936027 
L 69.74208 -279.936027 
L 69.02784 -279.936027 
L 68.3136 -279.936027 
L 67.59936 -279.936027 
L 66.88512 -279.936027 
L 66.17088 -279.936027 
L 65.45664 -279.936027 
L 64.7424 -279.936027 
L 64.02816 -279.936027 
L 63.31392 -279.936027 
L 62.59968 -279.936027 
L 61.88544 -279.936027 
L 61.1712 -279.936027 
L 60.45696 -279.936027 
L 59.74272 -279.936027 
L 59.02848 -279.936027 
L 58.31424 -279.936027 
L 57.6 -279.936027 
z
" id="m58d3312a0d" style="stroke:#afe88e;"/>
    </defs>
    <g clip-path="url(#pa5f29dacdd)">
     <use style="fill:#afe88e;stroke:#afe88e;" x="0" xlink:href="#m58d3312a0d" y="345.6"/>
    </g>
   </g>
   <g id="line2d_1">
    <path clip-path="url(#pa5f29dacdd)" d="M 57.6 65.663973 
L 238.30272 65.770875 
L 246.8736 66.005825 
L 251.87328 66.335602 
L 255.44448 66.750367 
L 258.30144 67.258401 
L 261.1584 68.001198 
L 263.30112 68.774554 
L 265.44384 69.799369 
L 267.58656 71.154436 
L 269.01504 72.290265 
L 270.44352 73.653962 
L 271.872 75.288213 
L 273.30048 77.242373 
L 274.72896 79.572919 
L 276.15744 82.343637 
L 277.58592 85.62539 
L 279.0144 89.495241 
L 280.44288 94.034695 
L 281.87136 99.326754 
L 283.29984 105.451508 
L 284.72832 112.480056 
L 286.1568 120.466722 
L 287.58528 129.439832 
L 289.728 144.720245 
L 291.87072 161.967793 
L 294.72768 187.12993 
L 299.72736 231.616967 
L 301.87008 248.521919 
L 303.29856 258.548009 
L 304.72704 267.450591 
L 306.15552 275.19115 
L 307.584 281.787808 
L 309.01248 287.304008 
L 310.44096 291.835215 
L 311.86944 295.495753 
L 313.29792 298.4073 
L 314.7264 300.689863 
L 316.15488 302.455441 
L 317.58336 303.804191 
L 319.01184 304.822637 
L 320.44032 305.583407 
L 321.8688 306.145998 
L 324.01152 306.719864 
L 326.15424 307.072859 
L 329.0112 307.33596 
L 334.01088 307.517972 
L 344.01024 307.580166 
L 414.72 307.584 
L 414.72 307.584 
" style="fill:none;stroke:#000000;stroke-linecap:square;stroke-width:0.7;"/>
   </g>
   <g id="patch_3">
    <path d="M 57.6 307.584 
L 57.6 41.472 
" style="fill:none;stroke:#000000;stroke-linecap:square;stroke-linejoin:miter;stroke-width:0.8;"/>
   </g>
   <g id="patch_4">
    <path d="M 414.72 307.584 
L 414.72 41.472 
" style="fill:none;stroke:#000000;stroke-linecap:square;stroke-linejoin:miter;stroke-width:0.8;"/>
   </g>
   <g id="patch_5">
    <path d="M 57.6 307.584 
L 414.72 307.584 
" style="fill:none;stroke:#000000;stroke-linecap:square;stroke-linejoin:miter;stroke-width:0.8;"/>
   </g>
   <g id="patch_6">
    <path d="M 57.6 41.472 
L 414.72 41.472 
" style="fill:none;stroke:#000000;stroke-linecap:square;stroke-linejoin:miter;stroke-width:0.8;"/>
   </g>
   <g id="legend_1">
    <g id="patch_7">
     <path d="M 91.90611 34.09119 
L 246.68736 34.09119 
Q 249.08736 34.09119 249.08736 31.69119 
L 249.08736 15.27744 
Q 249.08736 12.87744 246.68736 12.87744 
L 91.90611 12.87744 
Q 89.50611 12.87744 89.50611 15.27744 
L 89.50611 31.69119 
Q 89.50611 34.09119 91.90611 34.09119 
z
" style="fill:#ffffff;opacity:0.8;stroke:#cccccc;stroke-linejoin:miter;"/>
    </g>
    <g id="patch_8">
     <path d="M 94.30611 26.795565 
L 118.30611 26.795565 
L 118.30611 18.395565 
L 94.30611 18.395565 
z
" style="fill:#509369;stroke:#509369;stroke-linejoin:miter;"/>
    </g>
    <g id="text_1">
     <!-- back -->
     <g transform="translate(127.90611 26.795565)scale(0.12 -0.12)">
      <defs>
       <path d="M 11.53125 5.171875 
L 11.53125 70.796875 
L 2.875 70.796875 
L 2.875 75.984375 
L 20.515625 75.984375 
L 20.515625 43.796875 
Q 23.140625 48.6875 27.21875 51 
Q 31.296875 53.328125 37.3125 53.328125 
Q 46.875 53.328125 52.921875 45.75 
Q 58.984375 38.1875 58.984375 25.984375 
Q 58.984375 13.765625 52.921875 6.171875 
Q 46.875 -1.421875 37.3125 -1.421875 
Q 31.296875 -1.421875 27.21875 0.890625 
Q 23.140625 3.21875 20.515625 8.109375 
L 20.515625 0 
L 2.875 0 
L 2.875 5.171875 
z
M 20.515625 23.390625 
Q 20.515625 14.015625 24.09375 9.109375 
Q 27.6875 4.203125 34.515625 4.203125 
Q 41.40625 4.203125 44.9375 9.71875 
Q 48.484375 15.234375 48.484375 25.984375 
Q 48.484375 36.765625 44.9375 42.234375 
Q 41.40625 47.703125 34.515625 47.703125 
Q 27.6875 47.703125 24.09375 42.765625 
Q 20.515625 37.84375 20.515625 28.515625 
z
" id="DejaVuSerif-98"/>
       <path d="M 39.796875 16.3125 
L 39.796875 27.296875 
L 28.21875 27.296875 
Q 21.53125 27.296875 18.25 24.40625 
Q 14.984375 21.53125 14.984375 15.578125 
Q 14.984375 10.15625 18.296875 6.984375 
Q 21.625 3.8125 27.296875 3.8125 
Q 32.90625 3.8125 36.34375 7.28125 
Q 39.796875 10.75 39.796875 16.3125 
z
M 48.78125 32.421875 
L 48.78125 5.171875 
L 56.78125 5.171875 
L 56.78125 0 
L 39.796875 0 
L 39.796875 5.609375 
Q 36.8125 2 32.90625 0.28125 
Q 29 -1.421875 23.78125 -1.421875 
Q 15.140625 -1.421875 10.0625 3.171875 
Q 4.984375 7.765625 4.984375 15.578125 
Q 4.984375 23.640625 10.796875 28.078125 
Q 16.609375 32.515625 27.203125 32.515625 
L 39.796875 32.515625 
L 39.796875 36.078125 
Q 39.796875 42 36.203125 45.234375 
Q 32.625 48.484375 26.125 48.484375 
Q 20.75 48.484375 17.578125 46.046875 
Q 14.40625 43.609375 13.625 38.8125 
L 8.984375 38.8125 
L 8.984375 49.3125 
Q 13.671875 51.3125 18.09375 52.3125 
Q 22.515625 53.328125 26.703125 53.328125 
Q 37.5 53.328125 43.140625 47.96875 
Q 48.78125 42.625 48.78125 32.421875 
z
" id="DejaVuSerif-97"/>
       <path d="M 51.421875 15.578125 
Q 49.515625 7.28125 44.09375 2.921875 
Q 38.671875 -1.421875 30.078125 -1.421875 
Q 18.75 -1.421875 11.859375 6.078125 
Q 4.984375 13.578125 4.984375 25.984375 
Q 4.984375 38.421875 11.859375 45.875 
Q 18.75 53.328125 30.078125 53.328125 
Q 35.015625 53.328125 39.890625 52.171875 
Q 44.78125 51.03125 49.703125 48.6875 
L 49.703125 35.40625 
L 44.484375 35.40625 
Q 43.453125 42.234375 40.015625 45.359375 
Q 36.578125 48.484375 30.171875 48.484375 
Q 22.90625 48.484375 19.1875 42.84375 
Q 15.484375 37.203125 15.484375 25.984375 
Q 15.484375 14.75 19.171875 9.078125 
Q 22.859375 3.421875 30.171875 3.421875 
Q 35.984375 3.421875 39.453125 6.4375 
Q 42.921875 9.46875 44.1875 15.578125 
z
" id="DejaVuSerif-99"/>
       <path d="M 28.609375 0 
L 3.421875 0 
L 3.421875 5.171875 
L 11.53125 5.171875 
L 11.53125 70.796875 
L 2.875 70.796875 
L 2.875 75.984375 
L 20.515625 75.984375 
L 20.515625 26.515625 
L 42.390625 46.6875 
L 34.90625 46.6875 
L 34.90625 51.90625 
L 58.40625 51.90625 
L 58.40625 46.6875 
L 49.515625 46.6875 
L 34.078125 32.421875 
L 53.8125 5.171875 
L 61.28125 5.171875 
L 61.28125 0 
L 35.6875 0 
L 35.6875 5.171875 
L 43.109375 5.171875 
L 27.59375 26.515625 
L 20.515625 19.921875 
L 20.515625 5.171875 
L 28.609375 5.171875 
z
" id="DejaVuSerif-107"/>
      </defs>
      <use xlink:href="#DejaVuSerif-98"/>
      <use x="64.013672" xlink:href="#DejaVuSerif-97"/>
      <use x="123.632812" xlink:href="#DejaVuSerif-99"/>
      <use x="179.638672" xlink:href="#DejaVuSerif-107"/>
     </g>
    </g>
    <g id="patch_9">
     <path d="M 180.734235 26.795565 
L 204.734235 26.795565 
L 204.734235 18.395565 
L 180.734235 18.395565 
z
" style="fill:#afe88e;stroke:#afe88e;stroke-linejoin:miter;"/>
    </g>
    <g id="text_2">
     <!-- front -->
     <g transform="translate(214.334235 26.795565)scale(0.12 -0.12)">
      <defs>
       <path d="M 43.015625 63.71875 
L 38.28125 63.71875 
Q 38.234375 67.390625 36.203125 69.28125 
Q 34.1875 71.1875 30.328125 71.1875 
Q 25.296875 71.1875 23.234375 68.421875 
Q 21.1875 65.671875 21.1875 58.59375 
L 21.1875 51.90625 
L 35.6875 51.90625 
L 35.6875 46.6875 
L 21.1875 46.6875 
L 21.1875 5.171875 
L 32.71875 5.171875 
L 32.71875 0 
L 3.609375 0 
L 3.609375 5.171875 
L 12.203125 5.171875 
L 12.203125 46.6875 
L 3.609375 46.6875 
L 3.609375 51.90625 
L 12.203125 51.90625 
L 12.203125 58.40625 
Q 12.203125 67.09375 16.71875 71.53125 
Q 21.234375 75.984375 29.984375 75.984375 
Q 33.25 75.984375 36.515625 75.390625 
Q 39.796875 74.8125 43.015625 73.578125 
z
" id="DejaVuSerif-102"/>
       <path d="M 47.796875 52 
L 47.796875 39.015625 
L 42.625 39.015625 
Q 42.390625 42.875 40.484375 44.78125 
Q 38.578125 46.6875 34.90625 46.6875 
Q 28.265625 46.6875 24.71875 42.09375 
Q 21.1875 37.5 21.1875 28.90625 
L 21.1875 5.171875 
L 31.59375 5.171875 
L 31.59375 0 
L 4.109375 0 
L 4.109375 5.171875 
L 12.203125 5.171875 
L 12.203125 46.78125 
L 3.609375 46.78125 
L 3.609375 51.90625 
L 21.1875 51.90625 
L 21.1875 42.671875 
Q 23.828125 48.09375 27.96875 50.703125 
Q 32.125 53.328125 38.09375 53.328125 
Q 40.28125 53.328125 42.703125 52.984375 
Q 45.125 52.640625 47.796875 52 
z
" id="DejaVuSerif-114"/>
       <path d="M 30.078125 3.421875 
Q 37.3125 3.421875 40.984375 9.125 
Q 44.671875 14.84375 44.671875 25.984375 
Q 44.671875 37.109375 40.984375 42.796875 
Q 37.3125 48.484375 30.078125 48.484375 
Q 22.859375 48.484375 19.171875 42.796875 
Q 15.484375 37.109375 15.484375 25.984375 
Q 15.484375 14.84375 19.1875 9.125 
Q 22.90625 3.421875 30.078125 3.421875 
z
M 30.078125 -1.421875 
Q 18.75 -1.421875 11.859375 6.078125 
Q 4.984375 13.578125 4.984375 25.984375 
Q 4.984375 38.375 11.84375 45.84375 
Q 18.703125 53.328125 30.078125 53.328125 
Q 41.453125 53.328125 48.3125 45.84375 
Q 55.171875 38.375 55.171875 25.984375 
Q 55.171875 13.578125 48.3125 6.078125 
Q 41.453125 -1.421875 30.078125 -1.421875 
z
" id="DejaVuSerif-111"/>
       <path d="M 4.109375 0 
L 4.109375 5.171875 
L 12.203125 5.171875 
L 12.203125 46.6875 
L 3.609375 46.6875 
L 3.609375 51.90625 
L 21.1875 51.90625 
L 21.1875 42.671875 
Q 23.6875 47.953125 27.65625 50.640625 
Q 31.640625 53.328125 36.921875 53.328125 
Q 45.515625 53.328125 49.5625 48.390625 
Q 53.609375 43.453125 53.609375 33.015625 
L 53.609375 5.171875 
L 61.625 5.171875 
L 61.625 0 
L 36.8125 0 
L 36.8125 5.171875 
L 44.578125 5.171875 
L 44.578125 30.171875 
Q 44.578125 39.703125 42.234375 43.234375 
Q 39.890625 46.78125 33.984375 46.78125 
Q 27.734375 46.78125 24.453125 42.203125 
Q 21.1875 37.640625 21.1875 28.90625 
L 21.1875 5.171875 
L 29 5.171875 
L 29 0 
z
" id="DejaVuSerif-110"/>
       <path d="M 10.796875 46.6875 
L 2.875 46.6875 
L 2.875 51.90625 
L 10.796875 51.90625 
L 10.796875 68.015625 
L 19.828125 68.015625 
L 19.828125 51.90625 
L 36.71875 51.90625 
L 36.71875 46.6875 
L 19.828125 46.6875 
L 19.828125 13.71875 
Q 19.828125 7.125 21.09375 5.265625 
Q 22.359375 3.421875 25.78125 3.421875 
Q 29.296875 3.421875 30.90625 5.484375 
Q 32.515625 7.5625 32.625 12.203125 
L 39.40625 12.203125 
Q 39.015625 5.125 35.546875 1.84375 
Q 32.078125 -1.421875 25 -1.421875 
Q 17.234375 -1.421875 14.015625 2.015625 
Q 10.796875 5.46875 10.796875 13.71875 
z
" id="DejaVuSerif-116"/>
      </defs>
      <use xlink:href="#DejaVuSerif-102"/>
      <use x="37.011719" xlink:href="#DejaVuSerif-114"/>
      <use x="84.814453" xlink:href="#DejaVuSerif-111"/>
      <use x="145.019531" xlink:href="#DejaVuSerif-110"/>
      <use x="209.423828" xlink:href="#DejaVuSerif-116"/>
     </g>
    </g>
   </g>
  </g>
 </g>
 <defs>
  <clipPath id="pa5f29dacdd">
   <rect height="266.112" width="357.12" x="57.6" y="41.472"/>
  </clipPath>
 </defs>
</svg>
