<?xml version="1.0" encoding="utf-8" standalone="no"?>
<!DOCTYPE svg PUBLIC "-//W3C//DTD SVG 1.1//EN"
  "http://www.w3.org/Graphics/SVG/1.1/DTD/svg11.dtd">
<!-- Created with matplotlib (https://matplotlib.org/) -->
<svg height="345.6pt" version="1.1" viewBox="0 0 460.8 345.6" width="460.8pt" xmlns="http://www.w3.org/2000/svg" xmlns:xlink="http://www.w3.org/1999/xlink">
 <metadata>
  <rdf:RDF xmlns:cc="http://creativecommons.org/ns#" xmlns:dc="http://purl.org/dc/elements/1.1/" xmlns:rdf="http://www.w3.org/1999/02/22-rdf-syntax-ns#">
   <cc:Work>
    <dc:type rdf:resource="http://purl.org/dc/dcmitype/StillImage"/>
    <dc:date>2023-01-13T14:00:29.670012</dc:date>
    <dc:format>image/svg+xml</dc:format>
    <dc:creator>
     <cc:Agent>
      <dc:title>Matplotlib v3.3.4, https://matplotlib.org/</dc:title>
     </cc:Agent>
    </dc:creator>
   </cc:Work>
  </rdf:RDF>
 </metadata>
 <defs>
  <style type="text/css">*{stroke-linecap:butt;stroke-linejoin:round;}</style>
 </defs>
 <g id="figure_1">
  <g id="patch_1">
   <path d="M 0 345.6 
L 460.8 345.6 
L 460.8 0 
L 0 0 
z
" style="fill:#ffffff;"/>
  </g>
  <g id="axes_1">
   <g id="patch_2">
    <path d="M 57.6 307.584 
L 414.72 307.584 
L 414.72 41.472 
L 57.6 41.472 
z
" style="fill:#ffffff;"/>
   </g>
   <g id="matplotlib.axis_1">
    <g id="xtick_1">
     <g id="line2d_1">
      <defs>
       <path d="M 0 0 
L 0 3.5 
" id="m01cf875c3a" style="stroke:#000000;stroke-width:0.8;"/>
      </defs>
      <g>
       <use style="stroke:#000000;stroke-width:0.8;" x="72.692445" xlink:href="#m01cf875c3a" y="307.584"/>
      </g>
     </g>
     <g id="text_1">
      <!-- 0 -->
      <g transform="translate(69.511195 322.182437)scale(0.1 -0.1)">
       <defs>
        <path d="M 31.78125 3.421875 
Q 39.265625 3.421875 42.96875 11.625 
Q 46.6875 19.828125 46.6875 36.375 
Q 46.6875 52.984375 42.96875 61.1875 
Q 39.265625 69.390625 31.78125 69.390625 
Q 24.3125 69.390625 20.59375 61.1875 
Q 16.890625 52.984375 16.890625 36.375 
Q 16.890625 19.828125 20.59375 11.625 
Q 24.3125 3.421875 31.78125 3.421875 
z
M 31.78125 -1.421875 
Q 19.921875 -1.421875 13.25 8.53125 
Q 6.59375 18.5 6.59375 36.375 
Q 6.59375 54.296875 13.25 64.25 
Q 19.921875 74.21875 31.78125 74.21875 
Q 43.703125 74.21875 50.34375 64.25 
Q 56.984375 54.296875 56.984375 36.375 
Q 56.984375 18.5 50.34375 8.53125 
Q 43.703125 -1.421875 31.78125 -1.421875 
z
" id="DejaVuSerif-48"/>
       </defs>
       <use xlink:href="#DejaVuSerif-48"/>
      </g>
     </g>
    </g>
    <g id="xtick_2">
     <g id="line2d_2">
      <g>
       <use style="stroke:#000000;stroke-width:0.8;" x="137.851411" xlink:href="#m01cf875c3a" y="307.584"/>
      </g>
     </g>
     <g id="text_2">
      <!-- 200 -->
      <g transform="translate(128.307661 322.182437)scale(0.1 -0.1)">
       <defs>
        <path d="M 12.796875 55.515625 
L 7.328125 55.515625 
L 7.328125 68.5 
Q 12.546875 71.296875 17.84375 72.75 
Q 23.140625 74.21875 28.21875 74.21875 
Q 39.59375 74.21875 46.1875 68.703125 
Q 52.78125 63.1875 52.78125 53.71875 
Q 52.78125 43.015625 37.84375 28.125 
Q 36.671875 27 36.078125 26.421875 
L 17.671875 8.015625 
L 48.09375 8.015625 
L 48.09375 17 
L 53.8125 17 
L 53.8125 0 
L 6.78125 0 
L 6.78125 5.328125 
L 28.90625 27.390625 
Q 36.234375 34.71875 39.359375 40.84375 
Q 42.484375 46.96875 42.484375 53.71875 
Q 42.484375 61.078125 38.640625 65.234375 
Q 34.8125 69.390625 28.078125 69.390625 
Q 21.09375 69.390625 17.28125 65.921875 
Q 13.484375 62.453125 12.796875 55.515625 
z
" id="DejaVuSerif-50"/>
       </defs>
       <use xlink:href="#DejaVuSerif-50"/>
       <use x="63.623047" xlink:href="#DejaVuSerif-48"/>
       <use x="127.246094" xlink:href="#DejaVuSerif-48"/>
      </g>
     </g>
    </g>
    <g id="xtick_3">
     <g id="line2d_3">
      <g>
       <use style="stroke:#000000;stroke-width:0.8;" x="203.010376" xlink:href="#m01cf875c3a" y="307.584"/>
      </g>
     </g>
     <g id="text_3">
      <!-- 400 -->
      <g transform="translate(193.466626 322.182437)scale(0.1 -0.1)">
       <defs>
        <path d="M 34.90625 24.703125 
L 34.90625 63.484375 
L 10.015625 24.703125 
z
M 56.390625 0 
L 23.1875 0 
L 23.1875 5.171875 
L 34.90625 5.171875 
L 34.90625 19.484375 
L 3.078125 19.484375 
L 3.078125 24.8125 
L 35.015625 74.21875 
L 44.671875 74.21875 
L 44.671875 24.703125 
L 58.59375 24.703125 
L 58.59375 19.484375 
L 44.671875 19.484375 
L 44.671875 5.171875 
L 56.390625 5.171875 
z
" id="DejaVuSerif-52"/>
       </defs>
       <use xlink:href="#DejaVuSerif-52"/>
       <use x="63.623047" xlink:href="#DejaVuSerif-48"/>
       <use x="127.246094" xlink:href="#DejaVuSerif-48"/>
      </g>
     </g>
    </g>
    <g id="xtick_4">
     <g id="line2d_4">
      <g>
       <use style="stroke:#000000;stroke-width:0.8;" x="268.169342" xlink:href="#m01cf875c3a" y="307.584"/>
      </g>
     </g>
     <g id="text_4">
      <!-- 600 -->
      <g transform="translate(258.625592 322.182437)scale(0.1 -0.1)">
       <defs>
        <path d="M 32.71875 3.421875 
Q 39.59375 3.421875 43.296875 8.46875 
Q 47.015625 13.53125 47.015625 23 
Q 47.015625 32.46875 43.296875 37.515625 
Q 39.59375 42.578125 32.71875 42.578125 
Q 25.734375 42.578125 22.0625 37.6875 
Q 18.40625 32.8125 18.40625 23.578125 
Q 18.40625 13.875 22.109375 8.640625 
Q 25.828125 3.421875 32.71875 3.421875 
z
M 16.796875 40.140625 
Q 20.125 43.796875 24.3125 45.59375 
Q 28.515625 47.40625 33.796875 47.40625 
Q 44.671875 47.40625 51 40.859375 
Q 57.328125 34.328125 57.328125 23 
Q 57.328125 11.921875 50.515625 5.25 
Q 43.703125 -1.421875 32.328125 -1.421875 
Q 19.96875 -1.421875 13.328125 7.78125 
Q 6.6875 17 6.6875 34.078125 
Q 6.6875 53.21875 14.546875 63.71875 
Q 22.40625 74.21875 36.71875 74.21875 
Q 40.578125 74.21875 44.828125 73.484375 
Q 49.078125 72.75 53.515625 71.296875 
L 53.515625 59.28125 
L 48 59.28125 
Q 47.40625 64.203125 44.234375 66.796875 
Q 41.0625 69.390625 35.6875 69.390625 
Q 26.21875 69.390625 21.578125 62.203125 
Q 16.9375 55.03125 16.796875 40.140625 
z
" id="DejaVuSerif-54"/>
       </defs>
       <use xlink:href="#DejaVuSerif-54"/>
       <use x="63.623047" xlink:href="#DejaVuSerif-48"/>
       <use x="127.246094" xlink:href="#DejaVuSerif-48"/>
      </g>
     </g>
    </g>
    <g id="xtick_5">
     <g id="line2d_5">
      <g>
       <use style="stroke:#000000;stroke-width:0.8;" x="333.328307" xlink:href="#m01cf875c3a" y="307.584"/>
      </g>
     </g>
     <g id="text_5">
      <!-- 800 -->
      <g transform="translate(323.784557 322.182437)scale(0.1 -0.1)">
       <defs>
        <path d="M 46.578125 19.921875 
Q 46.578125 27.734375 42.6875 32.046875 
Q 38.8125 36.375 31.78125 36.375 
Q 24.75 36.375 20.875 32.046875 
Q 17 27.734375 17 19.921875 
Q 17 12.0625 20.875 7.734375 
Q 24.75 3.421875 31.78125 3.421875 
Q 38.8125 3.421875 42.6875 7.734375 
Q 46.578125 12.0625 46.578125 19.921875 
z
M 44.578125 55.328125 
Q 44.578125 61.96875 41.203125 65.671875 
Q 37.84375 69.390625 31.78125 69.390625 
Q 25.78125 69.390625 22.390625 65.671875 
Q 19 61.96875 19 55.328125 
Q 19 48.640625 22.390625 44.921875 
Q 25.78125 41.21875 31.78125 41.21875 
Q 37.84375 41.21875 41.203125 44.921875 
Q 44.578125 48.640625 44.578125 55.328125 
z
M 39.3125 38.8125 
Q 47.609375 37.703125 52.25 32.6875 
Q 56.890625 27.6875 56.890625 19.921875 
Q 56.890625 9.671875 50.390625 4.125 
Q 43.890625 -1.421875 31.78125 -1.421875 
Q 19.734375 -1.421875 13.203125 4.125 
Q 6.6875 9.671875 6.6875 19.921875 
Q 6.6875 27.6875 11.328125 32.6875 
Q 15.96875 37.703125 24.3125 38.8125 
Q 16.9375 40.140625 13 44.40625 
Q 9.078125 48.6875 9.078125 55.328125 
Q 9.078125 64.109375 15.125 69.15625 
Q 21.1875 74.21875 31.78125 74.21875 
Q 42.390625 74.21875 48.4375 69.15625 
Q 54.5 64.109375 54.5 55.328125 
Q 54.5 48.6875 50.5625 44.40625 
Q 46.625 40.140625 39.3125 38.8125 
z
" id="DejaVuSerif-56"/>
       </defs>
       <use xlink:href="#DejaVuSerif-56"/>
       <use x="63.623047" xlink:href="#DejaVuSerif-48"/>
       <use x="127.246094" xlink:href="#DejaVuSerif-48"/>
      </g>
     </g>
    </g>
    <g id="xtick_6">
     <g id="line2d_6">
      <g>
       <use style="stroke:#000000;stroke-width:0.8;" x="398.487273" xlink:href="#m01cf875c3a" y="307.584"/>
      </g>
     </g>
     <g id="text_6">
      <!-- 1000 -->
      <g transform="translate(385.762273 322.182437)scale(0.1 -0.1)">
       <defs>
        <path d="M 14.203125 0 
L 14.203125 5.171875 
L 26.90625 5.171875 
L 26.90625 65.828125 
L 12.203125 56.296875 
L 12.203125 62.703125 
L 29.984375 74.21875 
L 36.71875 74.21875 
L 36.71875 5.171875 
L 49.421875 5.171875 
L 49.421875 0 
z
" id="DejaVuSerif-49"/>
       </defs>
       <use xlink:href="#DejaVuSerif-49"/>
       <use x="63.623047" xlink:href="#DejaVuSerif-48"/>
       <use x="127.246094" xlink:href="#DejaVuSerif-48"/>
       <use x="190.869141" xlink:href="#DejaVuSerif-48"/>
      </g>
     </g>
    </g>
    <g id="text_7">
     <!-- Time -->
     <g transform="translate(223.524844 335.860562)scale(0.1 -0.1)">
      <defs>
       <path d="M 19.09375 0 
L 19.09375 5.171875 
L 28.421875 5.171875 
L 28.421875 67.09375 
L 6.984375 67.09375 
L 6.984375 55.71875 
L 0.984375 55.71875 
L 0.984375 72.90625 
L 65.71875 72.90625 
L 65.71875 55.71875 
L 59.71875 55.71875 
L 59.71875 67.09375 
L 38.28125 67.09375 
L 38.28125 5.171875 
L 47.609375 5.171875 
L 47.609375 0 
z
" id="DejaVuSerif-84"/>
       <path d="M 9.71875 68.015625 
Q 9.71875 70.265625 11.34375 71.921875 
Q 12.984375 73.578125 15.28125 73.578125 
Q 17.53125 73.578125 19.15625 71.921875 
Q 20.796875 70.265625 20.796875 68.015625 
Q 20.796875 65.71875 19.1875 64.109375 
Q 17.578125 62.5 15.28125 62.5 
Q 12.984375 62.5 11.34375 64.109375 
Q 9.71875 65.71875 9.71875 68.015625 
z
M 21.1875 5.171875 
L 29.6875 5.171875 
L 29.6875 0 
L 3.609375 0 
L 3.609375 5.171875 
L 12.203125 5.171875 
L 12.203125 46.6875 
L 3.609375 46.6875 
L 3.609375 51.90625 
L 21.1875 51.90625 
z
" id="DejaVuSerif-105"/>
       <path d="M 51.8125 41.796875 
Q 54.390625 47.515625 58.421875 50.421875 
Q 62.453125 53.328125 67.828125 53.328125 
Q 75.984375 53.328125 79.984375 48.265625 
Q 83.984375 43.21875 83.984375 33.015625 
L 83.984375 5.171875 
L 92.09375 5.171875 
L 92.09375 0 
L 67.1875 0 
L 67.1875 5.171875 
L 75 5.171875 
L 75 31.984375 
Q 75 39.9375 72.65625 43.3125 
Q 70.3125 46.6875 64.890625 46.6875 
Q 58.890625 46.6875 55.734375 42.140625 
Q 52.59375 37.59375 52.59375 28.90625 
L 52.59375 5.171875 
L 60.40625 5.171875 
L 60.40625 0 
L 35.796875 0 
L 35.796875 5.171875 
L 43.609375 5.171875 
L 43.609375 32.328125 
Q 43.609375 40.09375 41.265625 43.390625 
Q 38.921875 46.6875 33.5 46.6875 
Q 27.484375 46.6875 24.328125 42.140625 
Q 21.1875 37.59375 21.1875 28.90625 
L 21.1875 5.171875 
L 29 5.171875 
L 29 0 
L 4.109375 0 
L 4.109375 5.171875 
L 12.203125 5.171875 
L 12.203125 46.78125 
L 3.609375 46.78125 
L 3.609375 51.90625 
L 21.1875 51.90625 
L 21.1875 42.671875 
Q 23.6875 47.859375 27.53125 50.59375 
Q 31.390625 53.328125 36.28125 53.328125 
Q 42.328125 53.328125 46.375 50.3125 
Q 50.4375 47.3125 51.8125 41.796875 
z
" id="DejaVuSerif-109"/>
       <path d="M 54.203125 25 
L 15.484375 25 
L 15.484375 24.609375 
Q 15.484375 14.109375 19.4375 8.765625 
Q 23.390625 3.421875 31.109375 3.421875 
Q 37.015625 3.421875 40.796875 6.515625 
Q 44.578125 9.625 46.09375 15.71875 
L 53.328125 15.71875 
Q 51.171875 7.171875 45.375 2.875 
Q 39.59375 -1.421875 30.171875 -1.421875 
Q 18.796875 -1.421875 11.890625 6.078125 
Q 4.984375 13.578125 4.984375 25.984375 
Q 4.984375 38.28125 11.765625 45.796875 
Q 18.5625 53.328125 29.59375 53.328125 
Q 41.359375 53.328125 47.65625 46.0625 
Q 53.953125 38.8125 54.203125 25 
z
M 43.609375 30.171875 
Q 43.3125 39.265625 39.765625 43.875 
Q 36.234375 48.484375 29.59375 48.484375 
Q 23.390625 48.484375 19.828125 43.84375 
Q 16.265625 39.203125 15.484375 30.171875 
z
" id="DejaVuSerif-101"/>
      </defs>
      <use xlink:href="#DejaVuSerif-84"/>
      <use x="66.699219" xlink:href="#DejaVuSerif-105"/>
      <use x="98.681641" xlink:href="#DejaVuSerif-109"/>
      <use x="193.505859" xlink:href="#DejaVuSerif-101"/>
     </g>
    </g>
   </g>
   <g id="matplotlib.axis_2">
    <g id="ytick_1">
     <g id="line2d_7">
      <defs>
       <path d="M 0 0 
L -3.5 0 
" id="mb827806568" style="stroke:#000000;stroke-width:0.8;"/>
      </defs>
      <g>
       <use style="stroke:#000000;stroke-width:0.8;" x="57.6" xlink:href="#mb827806568" y="295.488"/>
      </g>
     </g>
     <g id="text_8">
      <!-- 0.0 -->
      <g transform="translate(34.696875 299.287219)scale(0.1 -0.1)">
       <defs>
        <path d="M 9.421875 5.078125 
Q 9.421875 7.8125 11.28125 9.71875 
Q 13.140625 11.625 15.921875 11.625 
Q 18.609375 11.625 20.5 9.71875 
Q 22.40625 7.8125 22.40625 5.078125 
Q 22.40625 2.390625 20.5 0.484375 
Q 18.609375 -1.421875 15.921875 -1.421875 
Q 13.140625 -1.421875 11.28125 0.453125 
Q 9.421875 2.34375 9.421875 5.078125 
z
" id="DejaVuSerif-46"/>
       </defs>
       <use xlink:href="#DejaVuSerif-48"/>
       <use x="63.623047" xlink:href="#DejaVuSerif-46"/>
       <use x="95.410156" xlink:href="#DejaVuSerif-48"/>
      </g>
     </g>
    </g>
    <g id="ytick_2">
     <g id="line2d_8">
      <g>
       <use style="stroke:#000000;stroke-width:0.8;" x="57.6" xlink:href="#mb827806568" y="263.232"/>
      </g>
     </g>
     <g id="text_9">
      <!-- 0.2 -->
      <g transform="translate(34.696875 267.031219)scale(0.1 -0.1)">
       <use xlink:href="#DejaVuSerif-48"/>
       <use x="63.623047" xlink:href="#DejaVuSerif-46"/>
       <use x="95.410156" xlink:href="#DejaVuSerif-50"/>
      </g>
     </g>
    </g>
    <g id="ytick_3">
     <g id="line2d_9">
      <g>
       <use style="stroke:#000000;stroke-width:0.8;" x="57.6" xlink:href="#mb827806568" y="230.976"/>
      </g>
     </g>
     <g id="text_10">
      <!-- 0.4 -->
      <g transform="translate(34.696875 234.775219)scale(0.1 -0.1)">
       <use xlink:href="#DejaVuSerif-48"/>
       <use x="63.623047" xlink:href="#DejaVuSerif-46"/>
       <use x="95.410156" xlink:href="#DejaVuSerif-52"/>
      </g>
     </g>
    </g>
    <g id="ytick_4">
     <g id="line2d_10">
      <g>
       <use style="stroke:#000000;stroke-width:0.8;" x="57.6" xlink:href="#mb827806568" y="198.72"/>
      </g>
     </g>
     <g id="text_11">
      <!-- 0.6 -->
      <g transform="translate(34.696875 202.519219)scale(0.1 -0.1)">
       <use xlink:href="#DejaVuSerif-48"/>
       <use x="63.623047" xlink:href="#DejaVuSerif-46"/>
       <use x="95.410156" xlink:href="#DejaVuSerif-54"/>
      </g>
     </g>
    </g>
    <g id="ytick_5">
     <g id="line2d_11">
      <g>
       <use style="stroke:#000000;stroke-width:0.8;" x="57.6" xlink:href="#mb827806568" y="166.464"/>
      </g>
     </g>
     <g id="text_12">
      <!-- 0.8 -->
      <g transform="translate(34.696875 170.263219)scale(0.1 -0.1)">
       <use xlink:href="#DejaVuSerif-48"/>
       <use x="63.623047" xlink:href="#DejaVuSerif-46"/>
       <use x="95.410156" xlink:href="#DejaVuSerif-56"/>
      </g>
     </g>
    </g>
    <g id="ytick_6">
     <g id="line2d_12">
      <g>
       <use style="stroke:#000000;stroke-width:0.8;" x="57.6" xlink:href="#mb827806568" y="134.208"/>
      </g>
     </g>
     <g id="text_13">
      <!-- 1.0 -->
      <g transform="translate(34.696875 138.007219)scale(0.1 -0.1)">
       <use xlink:href="#DejaVuSerif-49"/>
       <use x="63.623047" xlink:href="#DejaVuSerif-46"/>
       <use x="95.410156" xlink:href="#DejaVuSerif-48"/>
      </g>
     </g>
    </g>
    <g id="ytick_7">
     <g id="line2d_13">
      <g>
       <use style="stroke:#000000;stroke-width:0.8;" x="57.6" xlink:href="#mb827806568" y="101.952"/>
      </g>
     </g>
     <g id="text_14">
      <!-- 1.2 -->
      <g transform="translate(34.696875 105.751219)scale(0.1 -0.1)">
       <use xlink:href="#DejaVuSerif-49"/>
       <use x="63.623047" xlink:href="#DejaVuSerif-46"/>
       <use x="95.410156" xlink:href="#DejaVuSerif-50"/>
      </g>
     </g>
    </g>
    <g id="ytick_8">
     <g id="line2d_14">
      <g>
       <use style="stroke:#000000;stroke-width:0.8;" x="57.6" xlink:href="#mb827806568" y="69.696"/>
      </g>
     </g>
     <g id="text_15">
      <!-- 1.4 -->
      <g transform="translate(34.696875 73.495219)scale(0.1 -0.1)">
       <use xlink:href="#DejaVuSerif-49"/>
       <use x="63.623047" xlink:href="#DejaVuSerif-46"/>
       <use x="95.410156" xlink:href="#DejaVuSerif-52"/>
      </g>
     </g>
    </g>
    <g id="text_16">
     <!-- Speed -->
     <g transform="translate(28.617187 190.273313)rotate(-90)scale(0.1 -0.1)">
      <defs>
       <path d="M 9.28125 3.515625 
L 9.28125 20.125 
L 14.890625 20.0625 
Q 15.140625 11.765625 19.703125 7.78125 
Q 24.265625 3.8125 33.59375 3.8125 
Q 42.28125 3.8125 46.84375 7.25 
Q 51.421875 10.6875 51.421875 17.28125 
Q 51.421875 22.5625 48.65625 25.390625 
Q 45.90625 28.21875 37.015625 30.90625 
L 27.390625 33.796875 
Q 16.9375 36.96875 12.671875 41.703125 
Q 8.40625 46.4375 8.40625 54.6875 
Q 8.40625 63.96875 14.984375 69.09375 
Q 21.578125 74.21875 33.5 74.21875 
Q 38.578125 74.21875 44.625 73.109375 
Q 50.6875 72.015625 57.515625 69.921875 
L 57.515625 54.390625 
L 52 54.390625 
Q 51.171875 62.109375 46.84375 65.546875 
Q 42.53125 69 33.6875 69 
Q 25.984375 69 21.953125 65.84375 
Q 17.921875 62.703125 17.921875 56.6875 
Q 17.921875 51.46875 20.9375 48.484375 
Q 23.96875 45.515625 33.796875 42.578125 
L 42.828125 39.890625 
Q 52.734375 36.921875 56.953125 32.296875 
Q 61.1875 27.6875 61.1875 19.921875 
Q 61.1875 9.328125 54.390625 3.953125 
Q 47.609375 -1.421875 34.1875 -1.421875 
Q 28.171875 -1.421875 21.9375 -0.1875 
Q 15.71875 1.03125 9.28125 3.515625 
z
" id="DejaVuSerif-83"/>
       <path d="M 20.515625 28.515625 
L 20.515625 23.390625 
Q 20.515625 14.015625 24.09375 9.109375 
Q 27.6875 4.203125 34.515625 4.203125 
Q 41.40625 4.203125 44.9375 9.71875 
Q 48.484375 15.234375 48.484375 25.984375 
Q 48.484375 36.765625 44.9375 42.234375 
Q 41.40625 47.703125 34.515625 47.703125 
Q 27.6875 47.703125 24.09375 42.765625 
Q 20.515625 37.84375 20.515625 28.515625 
z
M 11.53125 46.6875 
L 2.875 46.6875 
L 2.875 51.90625 
L 20.515625 51.90625 
L 20.515625 43.796875 
Q 23.140625 48.6875 27.21875 51 
Q 31.296875 53.328125 37.3125 53.328125 
Q 46.875 53.328125 52.921875 45.75 
Q 58.984375 38.1875 58.984375 25.984375 
Q 58.984375 13.765625 52.921875 6.171875 
Q 46.875 -1.421875 37.3125 -1.421875 
Q 31.296875 -1.421875 27.21875 0.890625 
Q 23.140625 3.21875 20.515625 8.109375 
L 20.515625 -15.578125 
L 29 -15.578125 
L 29 -20.796875 
L 2.875 -20.796875 
L 2.875 -15.578125 
L 11.53125 -15.578125 
z
" id="DejaVuSerif-112"/>
       <path d="M 52.484375 5.171875 
L 61.078125 5.171875 
L 61.078125 0 
L 43.5 0 
L 43.5 8.109375 
Q 40.875 3.21875 36.796875 0.890625 
Q 32.71875 -1.421875 26.703125 -1.421875 
Q 17.140625 -1.421875 11.0625 6.171875 
Q 4.984375 13.765625 4.984375 25.984375 
Q 4.984375 38.1875 11.03125 45.75 
Q 17.09375 53.328125 26.703125 53.328125 
Q 32.71875 53.328125 36.796875 51 
Q 40.875 48.6875 43.5 43.796875 
L 43.5 70.796875 
L 35.015625 70.796875 
L 35.015625 75.984375 
L 52.484375 75.984375 
z
M 43.5 23.390625 
L 43.5 28.515625 
Q 43.5 37.84375 39.90625 42.765625 
Q 36.328125 47.703125 29.5 47.703125 
Q 22.5625 47.703125 19.015625 42.234375 
Q 15.484375 36.765625 15.484375 25.984375 
Q 15.484375 15.234375 19.015625 9.71875 
Q 22.5625 4.203125 29.5 4.203125 
Q 36.328125 4.203125 39.90625 9.109375 
Q 43.5 14.015625 43.5 23.390625 
z
" id="DejaVuSerif-100"/>
      </defs>
      <use xlink:href="#DejaVuSerif-83"/>
      <use x="68.505859" xlink:href="#DejaVuSerif-112"/>
      <use x="132.519531" xlink:href="#DejaVuSerif-101"/>
      <use x="191.699219" xlink:href="#DejaVuSerif-101"/>
      <use x="250.878906" xlink:href="#DejaVuSerif-100"/>
     </g>
    </g>
   </g>
   <g id="line2d_15">
    <path clip-path="url(#pf438149ed4)" d="M 73.832727 295.488 
L 73.888112 295.488 
L 74.05101 53.568 
L 74.376805 295.488 
L 74.428932 295.488 
L 74.591829 134.208 
L 74.754727 157.248 
L 74.810112 157.248 
L 74.917624 295.488 
L 75.080521 174.528 
L 75.135907 174.528 
L 75.298804 187.968 
L 75.406316 187.968 
L 75.461701 101.952 
L 75.624599 198.72 
L 75.679984 198.72 
L 75.842881 207.517091 
L 75.950394 119.546182 
L 76.057906 134.208 
L 76.220803 214.848 
L 76.383701 146.614154 
L 76.494471 146.614154 
L 76.601983 157.248 
L 76.657368 226.368 
L 76.709496 157.248 
L 76.764881 157.248 
L 76.927778 166.464 
L 77.03529 166.464 
L 77.090676 114.048 
L 77.253573 174.528 
L 77.308958 174.528 
L 77.41647 181.643294 
L 77.579368 124.720941 
L 77.634753 134.208 
L 77.79765 187.968 
L 77.849777 134.208 
L 77.905163 142.696421 
L 78.06806 142.696421 
L 78.175572 198.72 
L 78.33847 150.336 
L 78.393855 150.336 
L 78.556752 157.248 
L 78.664265 157.248 
L 78.827162 163.531636 
L 78.882547 163.531636 
L 78.937932 119.546182 
L 78.990059 127.195826 
L 79.045445 127.195826 
L 79.208342 169.26887 
L 79.263727 174.528 
L 79.426624 134.208 
L 79.478752 134.208 
L 79.534137 140.6592 
L 79.589522 179.3664 
L 79.641649 140.6592 
L 79.752419 140.6592 
L 79.915317 146.614154 
L 80.022829 146.614154 
L 80.185726 152.128 
L 80.293239 152.128 
L 80.348624 157.248 
L 80.404009 122.688 
L 80.456136 157.248 
L 80.566906 157.248 
L 80.674419 162.014897 
L 80.837316 128.646621 
L 80.892701 134.208 
L 81.055599 166.464 
L 81.107726 134.208 
L 81.163111 139.410581 
L 81.270623 139.410581 
L 81.381393 170.626065 
L 81.544291 144.288 
L 81.651803 144.288 
L 81.707188 148.869818 
L 81.759315 119.546182 
L 81.814701 148.869818 
L 81.922213 148.869818 
L 82.08511 153.182118 
L 82.19588 124.720941 
L 82.248008 129.6 
L 82.410905 157.248 
L 82.46629 129.6 
L 82.521675 134.208 
L 82.629188 134.208 
L 82.792085 164.720432 
L 82.954982 138.566919 
L 83.010368 138.566919 
L 83.173265 142.696421 
L 83.280777 142.696421 
L 83.443675 146.614154 
L 83.49906 121.801846 
L 83.551187 146.614154 
L 83.714084 150.336 
L 83.824855 150.336 
L 83.932367 130.274341 
L 84.095264 153.876293 
L 84.150649 157.248 
L 84.313547 134.208 
L 84.365674 134.208 
L 84.421059 137.958698 
L 84.476444 160.462884 
L 84.528571 137.958698 
L 84.639342 137.958698 
L 84.802239 141.538909 
L 84.854366 163.531636 
L 84.909751 141.538909 
L 85.072649 144.96 
L 85.180161 144.96 
L 85.290931 127.195826 
L 85.453829 148.232348 
L 85.505956 151.365447 
L 85.668853 130.776511 
L 85.831751 154.368 
L 85.887136 154.368 
L 85.994648 134.208 
L 86.105418 137.499429 
L 86.212931 157.248 
L 86.268316 137.499429 
L 86.320443 140.6592 
L 86.538726 140.6592 
L 86.594111 124.720941 
L 86.757008 143.695059 
L 86.809135 143.695059 
L 86.86452 146.614154 
L 86.972033 128.004923 
L 87.13493 149.423094 
L 87.2457 149.423094 
L 87.353213 131.164981 
L 87.408598 134.208 
L 87.571495 152.128 
L 87.623622 134.208 
L 87.679007 137.140364 
L 87.841905 137.140364 
L 87.89729 154.734545 
L 87.949417 139.968 
L 88.1677 139.968 
L 88.223085 142.696421 
L 88.275212 125.719579 
L 88.330597 142.696421 
L 88.438109 142.696421 
L 88.493495 145.330759 
L 88.656392 128.646621 
L 88.819289 147.875797 
L 88.982187 131.474441 
L 89.145084 134.208 
L 89.252596 134.208 
L 89.415494 136.851934 
L 89.470879 136.851934 
L 89.526264 120.988328 
L 89.578391 123.802839 
L 89.741289 139.410581 
L 89.796674 123.802839 
L 89.852059 126.528 
L 89.959571 126.528 
L 90.067084 141.888 
L 90.229981 129.168 
L 90.340751 129.168 
L 90.392878 116.839385 
L 90.555776 131.726769 
L 90.611161 131.726769 
L 90.666546 134.208 
L 90.829443 119.546182 
L 90.936956 136.615164 
L 91.099853 122.172179 
L 91.155238 122.172179 
L 91.207365 124.720941 
L 91.262751 110.490353 
L 91.318136 124.720941 
L 91.425648 124.720941 
L 91.481033 127.195826 
L 91.64393 113.171478 
L 91.751443 129.6 
L 91.91434 115.776 
L 91.969725 115.776 
L 92.132623 118.307155 
L 92.240135 118.307155 
L 92.347647 120.768 
L 92.403032 107.328 
L 92.458418 120.768 
L 92.510545 120.768 
L 92.621315 123.161425 
L 92.784212 109.905534 
L 92.83634 112.413405 
L 92.891725 125.490162 
L 92.94711 112.413405 
L 93.054622 112.413405 
L 93.162134 114.8544 
L 93.21752 101.952 
L 93.272905 114.8544 
L 93.325032 114.8544 
L 93.435802 117.231158 
L 93.598699 104.498526 
L 93.650827 106.978909 
L 93.706212 119.546182 
L 93.761597 106.978909 
L 93.869109 106.978909 
L 94.032007 109.395692 
L 94.139519 109.395692 
L 94.194904 111.751291 
L 94.357801 99.502177 
L 94.465314 114.048 
L 94.628211 101.952 
L 94.683596 101.952 
L 94.846494 104.341333 
L 94.954006 104.341333 
L 95.009391 106.67239 
L 95.116903 94.871415 
L 95.279801 108.947277 
L 95.442698 97.288482 
L 95.553468 111.168 
L 95.716366 99.648 
L 95.768493 99.648 
L 95.823878 90.567529 
L 95.986776 101.952 
L 96.042161 101.952 
L 96.149673 92.950326 
L 96.31257 104.202419 
L 96.475468 95.278345 
L 96.58298 106.401103 
L 96.745877 97.553455 
L 96.856648 97.553455 
L 96.908775 88.904629 
L 97.071672 99.777438 
L 97.127057 88.904629 
L 97.182443 91.2 
L 97.23457 91.2 
L 97.34534 101.952 
L 97.397467 91.2 
L 97.452852 93.444923 
L 97.560365 93.444923 
L 97.61575 104.078769 
L 97.671135 93.444923 
L 97.834032 95.641043 
L 97.941544 95.641043 
L 98.104442 97.789935 
L 98.159827 97.789935 
L 98.211954 87.384774 
L 98.267339 89.598638 
L 98.374852 99.893106 
L 98.485622 89.598638 
L 98.593134 91.765895 
L 98.648519 101.952 
L 98.700646 91.765895 
L 98.756032 91.765895 
L 98.918929 93.888 
L 99.026441 93.888 
L 99.189339 95.966351 
L 99.244724 85.990268 
L 99.300109 95.966351 
L 99.407621 98.002286 
L 99.515134 88.128 
L 99.678031 99.997091 
L 99.840928 90.222545 
L 99.896313 92.2752 
L 99.951699 101.952 
L 100.003826 92.2752 
L 100.114596 92.2752 
L 100.277493 94.287208 
L 100.385006 94.287208 
L 100.492518 96.259765 
L 100.547903 86.772706 
L 100.603288 96.259765 
L 100.655415 96.259765 
L 100.710801 98.194019 
L 100.873698 88.799068 
L 100.98121 100.091077 
L 101.144108 90.786462 
L 101.199493 90.786462 
L 101.36239 92.736 
L 101.469902 92.736 
L 101.6328 94.648755 
L 101.74357 94.648755 
L 101.795697 96.525757 
L 101.851082 87.482019 
L 101.906468 96.525757 
L 102.01398 96.525757 
L 102.176877 89.408 
L 102.28439 98.368 
L 102.447287 91.298642 
L 102.502672 91.298642 
L 102.558057 100.17644 
L 102.610184 93.154909 
L 102.828467 93.154909 
L 102.883852 86.259892 
L 103.046749 94.97773 
L 103.098877 86.259892 
L 103.154262 88.128 
L 103.317159 96.768 
L 103.372544 88.128 
L 103.424671 89.963044 
L 103.480057 89.963044 
L 103.587569 98.526584 
L 103.642954 89.963044 
L 103.698339 91.765895 
L 103.805851 91.765895 
L 103.861237 100.254316 
L 103.913364 91.765895 
L 104.076261 93.537391 
L 104.187031 93.537391 
L 104.349929 95.278345 
L 104.457441 86.936276 
L 104.512826 88.718769 
L 104.620338 96.989538 
L 104.727851 88.718769 
L 104.783236 90.471051 
L 104.890748 98.671729 
L 105.001518 90.471051 
L 105.109031 92.193882 
L 105.164416 100.325647 
L 105.216543 92.193882 
L 105.271928 92.193882 
L 105.434826 93.888 
L 105.542338 93.888 
L 105.653108 95.554116 
L 105.76062 87.55676 
L 105.923518 97.192918 
L 106.03103 89.261115 
L 106.193927 98.805073 
L 106.356825 90.937756 
L 106.41221 92.587355 
L 106.467595 100.391226 
L 106.519722 92.587355 
L 106.630493 92.587355 
L 106.79339 94.21056 
L 106.900902 94.21056 
L 106.956287 95.808 
L 107.0638 88.128 
L 107.226697 97.380283 
L 107.389594 89.760756 
L 107.497107 98.928 
L 107.660004 91.368 
L 107.770774 100.451721 
L 107.933672 92.950326 
L 107.985799 92.950326 
L 108.041184 87.064615 
L 108.204082 94.508308 
L 108.259467 94.508308 
L 108.366979 88.655634 
L 108.529876 96.042504 
L 108.692774 90.222545 
L 108.800286 97.553455 
L 108.963184 91.765895 
L 109.018569 91.765895 
L 109.073954 99.041684 
L 109.126081 93.286209 
L 109.344363 93.286209 
L 109.507261 94.784 
L 109.562646 94.784 
L 109.614773 87.616 
L 109.670158 89.144471 
L 109.833056 96.259765 
L 109.888441 89.144471 
L 109.940568 90.650628 
L 109.995953 90.650628 
L 110.103465 97.713985 
L 110.158851 90.650628 
L 110.214236 92.134957 
L 110.321748 92.134957 
L 110.377133 99.14713 
L 110.42926 92.134957 
L 110.592158 93.597928 
L 110.702928 93.597928 
L 110.865825 95.04 
L 110.917952 88.128 
L 110.973338 95.04 
L 111.136235 96.461617 
L 111.243747 89.598638 
L 111.299132 91.048563 
L 111.406645 97.863211 
L 111.517415 91.048563 
L 111.680312 92.47821 
L 111.787825 92.47821 
L 111.895337 93.888 
L 111.950722 87.168 
L 112.006107 93.888 
L 112.058234 93.888 
L 112.113619 95.278345 
L 112.221132 88.60469 
L 112.384029 96.649644 
L 112.546927 90.021699 
L 112.602312 96.649644 
L 112.657697 91.419429 
L 112.872721 91.419429 
L 112.928107 86.259892 
L 113.091004 92.79827 
L 113.146389 86.259892 
L 113.198516 87.664107 
L 113.416799 87.664107 
L 113.472184 89.0496 
L 113.579696 82.5984 
L 113.687209 89.0496 
L 113.850106 84.008265 
L 113.960876 84.008265 
L 114.175901 72.666947 
L 114.338798 80.448 
L 114.501696 74.123294 
L 114.557081 75.560727 
L 114.719978 81.844364 
L 114.775363 81.844364 
L 114.882876 83.22271 
L 115.045773 89.465806 
L 115.101158 90.786462 
L 115.20867 84.583385 
L 115.316183 90.786462 
L 115.47908 85.926726 
L 115.641977 93.37762 
L 115.804875 93.37762 
L 115.967772 100.734792 
L 116.13067 100.734792 
L 116.186055 95.904 
L 116.348952 101.952 
L 116.404337 95.904 
L 116.456465 97.143652 
L 116.51185 97.143652 
L 116.674747 103.154087 
L 116.782259 104.341333 
L 116.945157 110.314667 
L 117.108054 111.450699 
L 117.163439 117.387387 
L 117.218824 111.450699 
L 117.381722 112.572878 
L 117.433849 106.67239 
L 117.489234 112.572878 
L 117.652132 113.681455 
L 117.759644 113.681455 
L 117.815029 114.776675 
L 117.977926 120.606072 
L 118.033311 120.606072 
L 118.140824 121.653269 
L 118.196209 127.44776 
L 118.248336 121.653269 
L 118.303721 121.653269 
L 118.466619 122.688 
L 118.574131 122.688 
L 118.737028 123.710485 
L 118.899926 130.413176 
L 119.062823 130.413176 
L 119.225721 137.037474 
L 119.388618 131.378526 
L 119.551515 132.332651 
L 119.662286 132.332651 
L 119.769798 133.275746 
L 119.932695 138.869272 
L 120.040208 139.769379 
L 120.203105 145.330759 
L 120.25849 146.1888 
L 120.366002 140.6592 
L 120.476773 146.1888 
L 120.63967 141.538909 
L 120.691797 141.538909 
L 120.854695 147.875797 
L 121.017592 147.875797 
L 121.072977 148.705079 
L 121.235875 154.141483 
L 121.29126 154.141483 
L 121.454157 154.931128 
L 121.561669 154.931128 
L 121.669182 150.336 
L 121.832079 155.712 
L 121.942849 156.484243 
L 122.105747 161.830541 
L 122.268644 162.564923 
L 122.376157 167.881846 
L 122.539054 163.291279 
L 122.594439 168.579148 
L 122.646566 163.291279 
L 122.809464 164.009739 
L 122.864849 164.009739 
L 123.027746 169.951135 
L 123.135258 169.951135 
L 123.298156 175.828645 
L 123.353541 175.828645 
L 123.461053 181.031226 
L 123.623951 176.468535 
L 123.679336 181.643294 
L 123.734721 176.468535 
L 123.897618 177.101617 
L 124.060516 182.848 
L 124.112643 182.848 
L 124.330926 193.626947 
L 124.438438 193.626947 
L 124.493823 198.72 
L 124.549208 193.626947 
L 124.712105 194.160251 
L 124.819618 194.160251 
L 124.982515 194.688 
L 125.090027 194.688 
L 125.252925 195.21028 
L 125.363695 195.21028 
L 125.526593 195.727175 
L 125.57872 195.727175 
L 125.634105 190.739134 
L 125.68949 191.276308 
L 125.797002 196.238769 
L 125.904515 191.276308 
L 125.9599 191.808 
L 126.122797 196.745143 
L 126.178182 196.745143 
L 126.34108 197.246376 
L 126.448592 197.246376 
L 126.611489 197.742545 
L 126.666874 197.742545 
L 126.719002 192.855273 
L 126.774387 193.371015 
L 126.881899 193.371015 
L 126.937284 188.508302 
L 126.992669 193.371015 
L 127.155567 193.8816 
L 127.207694 193.8816 
L 127.370591 199.201433 
L 127.533489 199.201433 
L 127.696386 199.678099 
L 127.751771 199.678099 
L 127.807156 194.887604 
L 127.859283 195.383172 
L 127.970054 195.383172 
L 128.077566 190.616276 
L 128.240463 191.130353 
L 128.403361 196.359805 
L 128.510873 196.359805 
L 128.673771 201.538485 
L 128.836668 201.538485 
L 128.892053 196.84101 
L 128.947438 197.317565 
L 129.054951 197.317565 
L 129.162463 192.642783 
L 129.32536 193.137231 
L 129.43613 193.137231 
L 129.543643 193.626947 
L 129.70654 198.256995 
L 129.814052 198.72 
L 129.97695 203.328 
L 130.139847 199.178616 
L 130.195232 199.178616 
L 130.250618 194.592455 
L 130.302745 195.068377 
L 130.521027 195.068377 
L 130.683925 195.539831 
L 130.791437 195.539831 
L 130.846822 196.006879 
L 131.009719 200.528748 
L 131.065105 200.528748 
L 131.117232 196.469581 
L 131.280129 200.970419 
L 131.335514 196.469581 
L 131.390899 196.928 
L 131.605924 196.928 
L 131.768821 197.382194 
L 131.879592 197.382194 
L 132.042489 197.83222 
L 132.094616 197.83222 
L 132.150001 202.271119 
L 132.205386 198.278137 
L 132.420411 198.278137 
L 132.583308 198.72 
L 132.694079 198.72 
L 132.856976 199.157864 
L 132.964488 199.157864 
L 133.127386 199.591784 
L 133.234898 199.591784 
L 133.290283 200.021812 
L 133.453181 195.682439 
L 133.508566 200.021812 
L 133.560693 196.128 
L 133.72359 196.128 
L 133.886488 200.8704 
L 134.049385 200.8704 
L 134.212283 201.289062 
L 134.323053 201.289062 
L 134.37518 201.704035 
L 134.538077 197.441128 
L 134.593463 197.441128 
L 134.75636 193.626947 
L 134.919257 198.297432 
L 135.02677 198.297432 
L 135.189667 202.927304 
L 135.40795 202.927304 
L 135.515462 203.328 
L 135.678359 199.138909 
L 135.733744 199.554207 
L 135.896642 195.383172 
L 135.952027 195.383172 
L 136.114924 195.812807 
L 136.277822 200.374154 
L 136.385334 200.374154 
L 136.548232 204.896681 
L 136.655744 204.896681 
L 136.766514 200.778894 
L 136.874026 201.180203 
L 137.036924 197.079864 
L 137.199821 197.495089 
L 137.307333 197.495089 
L 137.418104 197.906824 
L 137.581001 201.972706 
L 137.688513 202.363983 
L 137.796026 206.412854 
L 137.851411 202.363983 
L 137.906796 202.752 
L 138.014308 202.752 
L 138.121821 198.72 
L 138.284718 199.121527 
L 138.395488 199.121527 
L 138.558386 199.519736 
L 138.665898 199.519736 
L 138.77341 199.914667 
L 138.936308 203.896889 
L 139.047078 200.306361 
L 139.15459 204.272262 
L 139.209975 200.306361 
L 139.262102 200.694857 
L 139.480385 200.694857 
L 139.643282 201.080195 
L 139.750795 201.080195 
L 139.913692 201.462413 
L 140.024462 201.462413 
L 140.07659 201.841548 
L 140.131975 197.939613 
L 140.18736 201.841548 
L 140.294872 201.841548 
L 140.402384 198.331373 
L 140.565282 202.217639 
L 140.728179 202.59072 
L 140.838949 202.59072 
L 141.001847 202.960829 
L 141.109359 202.960829 
L 141.216871 203.328 
L 141.379769 199.488 
L 141.435154 199.867447 
L 141.490539 196.042625 
L 141.542666 199.867447 
L 141.653436 199.867447 
L 141.760949 200.243906 
L 141.923846 204.053669 
L 142.086744 204.412235 
L 142.194256 204.412235 
L 142.357153 204.768 
L 142.467924 200.988 
L 142.575436 201.355704 
L 142.738333 197.590412 
L 142.845846 197.96986 
L 143.008743 201.720558 
L 143.119513 202.082595 
L 143.282411 205.818811 
L 143.445308 206.163692 
L 143.497435 206.163692 
L 143.55282 202.441846 
L 143.608205 202.798345 
L 143.715718 202.798345 
L 143.82323 199.090759 
L 143.986127 199.458687 
L 144.096898 199.458687 
L 144.259795 199.823817 
L 144.422693 203.851636 
L 144.530205 203.851636 
L 144.693102 207.849057 
L 144.856 204.197434 
L 144.911385 204.197434 
L 145.074282 200.902737 
L 145.181794 200.902737 
L 145.344692 201.256989 
L 145.452204 201.256989 
L 145.615102 201.608597 
L 145.777999 205.554914 
L 145.833384 205.554914 
L 145.888769 201.957591 
L 145.940896 205.554914 
L 145.996282 205.554914 
L 146.051667 205.888 
L 146.214564 202.304 
L 146.266691 202.304 
L 146.429589 202.647852 
L 146.540359 202.647852 
L 146.703256 202.989176 
L 146.810769 202.989176 
L 146.973666 203.328 
L 147.029051 206.872615 
L 147.081178 203.328 
L 147.244076 203.66435 
L 147.354846 203.66435 
L 147.517743 203.998255 
L 147.625256 203.998255 
L 147.788153 204.329739 
L 147.895665 204.329739 
L 148.058563 204.65883 
L 148.169333 204.65883 
L 148.33223 201.504691 
L 148.439743 201.504691 
L 148.60264 201.841548 
L 148.658025 201.841548 
L 148.820923 205.632 
L 148.98382 205.632 
L 149.146718 205.951772 
L 149.25423 205.951772 
L 149.361742 206.269277 
L 149.52464 202.837787 
L 149.580025 203.165173 
L 149.742922 199.745809 
L 149.905819 203.490254 
L 150.013332 203.490254 
L 150.176229 207.208421 
L 150.339127 207.208421 
L 150.502024 207.517091 
L 150.557409 207.517091 
L 150.612794 204.133594 
L 150.664921 204.451902 
L 150.775692 204.451902 
L 150.883204 201.080195 
L 151.046101 201.408 
L 151.153614 201.408 
L 151.208999 201.733536 
L 151.371896 205.08191 
L 151.427281 205.08191 
L 151.479408 205.393655 
L 151.642306 208.730483 
L 151.697691 208.730483 
L 151.860588 205.703258 
L 151.968101 205.703258 
L 152.130998 202.696767 
L 152.241768 202.696767 
L 152.404666 203.013461 
L 152.512178 203.013461 
L 152.61969 203.328 
L 152.782588 206.619429 
L 152.945485 206.920678 
L 153.056255 206.920678 
L 153.163768 207.219892 
L 153.326665 203.950703 
L 153.489563 204.258909 
L 153.597075 204.258909 
L 153.759972 204.565047 
L 153.870743 204.565047 
L 154.03364 204.869137 
L 154.085767 208.105525 
L 154.141152 204.869137 
L 154.30405 205.1712 
L 154.411562 208.3968 
L 154.574459 205.471256 
L 154.68523 205.471256 
L 154.848127 205.769325 
L 154.955639 205.769325 
L 155.118537 206.065426 
L 155.226049 206.065426 
L 155.281434 206.359579 
L 155.444332 203.176421 
L 155.607229 206.651803 
L 155.714741 203.479082 
L 155.877639 206.942118 
L 156.040536 206.942118 
L 156.203433 207.230541 
L 156.314204 207.230541 
L 156.477101 207.517091 
L 156.584613 204.375273 
L 156.747511 204.670136 
L 156.855023 204.670136 
L 156.910408 201.841548 
L 157.073306 204.963097 
L 157.128691 204.963097 
L 157.180818 202.142662 
L 157.343715 205.254174 
L 157.3991 205.254174 
L 157.561998 205.543385 
L 157.66951 205.543385 
L 157.832408 205.830748 
L 157.943178 205.830748 
L 158.106075 206.11628 
L 158.213588 206.11628 
L 158.268973 206.4 
L 158.3211 203.328 
L 158.376485 206.4 
L 158.483997 206.4 
L 158.594768 206.681924 
L 158.646895 209.744203 
L 158.70228 206.681924 
L 158.757665 206.681924 
L 158.920562 206.962069 
L 159.028075 203.909451 
L 159.190972 204.197434 
L 159.298484 204.197434 
L 159.461382 204.483611 
L 159.572152 204.483611 
L 159.735049 204.768 
L 159.897947 208.065196 
L 160.005459 208.065196 
L 160.112971 211.079776 
L 160.275869 208.336696 
L 160.386639 208.336696 
L 160.494151 208.606514 
L 160.657049 205.610601 
L 160.764561 205.888 
L 160.927458 202.901333 
L 161.090356 203.186215 
L 161.145741 203.186215 
L 161.308638 206.437693 
L 161.416151 206.437693 
L 161.579048 209.669284 
L 161.741946 209.669284 
L 161.904843 209.930927 
L 162.015613 206.980683 
L 162.178511 207.249702 
L 162.286023 207.249702 
L 162.44892 204.584727 
L 162.556433 204.584727 
L 162.667203 201.935855 
L 162.8301 204.85936 
L 162.937613 205.132337 
L 163.10051 208.047036 
L 163.263407 208.309622 
L 163.37092 208.309622 
L 163.533817 208.570635 
L 163.644587 208.570635 
L 163.7521 208.83009 
L 163.914997 205.941493 
L 164.077894 206.208 
L 164.13328 209.088 
L 164.185407 206.208 
L 164.348304 206.472926 
L 164.403689 209.34438 
L 164.459074 206.472926 
L 164.621972 206.736284 
L 164.729484 206.736284 
L 164.892382 206.998088 
L 164.999894 206.998088 
L 165.162791 207.258353 
L 165.273561 207.258353 
L 165.436459 207.517091 
L 165.543971 207.517091 
L 165.599356 204.944842 
L 165.762254 207.774316 
L 165.814381 207.774316 
L 165.869766 208.030041 
L 166.032663 210.851265 
L 166.088049 208.030041 
L 166.140176 208.284279 
L 166.250946 208.284279 
L 166.358458 205.471256 
L 166.521356 205.732174 
L 166.628868 205.732174 
L 166.791765 205.991584 
L 166.902536 205.991584 
L 167.010048 206.249499 
L 167.172945 209.038202 
L 167.280458 209.286621 
L 167.391228 212.06731 
L 167.443355 209.286621 
L 167.49874 209.533616 
L 167.717023 209.533616 
L 167.824535 209.7792 
L 167.987432 207.0144 
L 168.15033 207.266462 
L 168.257842 207.266462 
L 168.420739 207.517091 
L 168.476125 207.517091 
L 168.639022 210.507603 
L 168.746534 207.7663 
L 168.909432 210.747661 
L 169.072329 210.747661 
L 169.235227 208.260507 
L 169.345997 208.260507 
L 169.508894 208.505528 
L 169.616407 208.505528 
L 169.779304 208.749176 
L 169.834689 208.749176 
L 169.886816 206.038588 
L 169.942201 206.288447 
L 169.997586 206.288447 
L 170.160484 208.991464 
L 170.267996 209.232401 
L 170.323381 211.927889 
L 170.375508 209.232401 
L 170.430894 209.232401 
L 170.593791 209.472 
L 170.701303 209.472 
L 170.864201 209.710271 
L 170.974971 209.710271 
L 171.082483 209.947227 
L 171.245381 207.274077 
L 171.408278 207.517091 
L 171.571175 210.417231 
L 171.734073 207.758769 
L 171.789458 210.417231 
L 171.841585 207.999123 
L 172.059868 207.999123 
L 172.222765 208.238164 
L 172.330277 208.238164 
L 172.493175 208.475902 
L 172.603945 208.475902 
L 172.766842 208.712348 
L 172.874355 208.712348 
L 173.037252 208.947512 
L 173.144764 208.947512 
L 173.255535 209.181405 
L 173.418432 211.796757 
L 173.470559 212.02234 
L 173.633457 209.414038 
L 173.688842 209.414038 
L 173.851739 207.044129 
L 173.959252 207.044129 
L 174.122149 207.281244 
L 174.232919 207.281244 
L 174.395817 207.517091 
L 174.558714 210.33216 
L 174.773739 210.33216 
L 174.829124 207.985021 
L 174.992021 210.558638 
L 175.047406 210.558638 
L 175.210304 210.783915 
L 175.317816 210.783915 
L 175.480713 208.448 
L 175.536099 208.448 
L 175.588226 205.888 
L 175.643611 206.124412 
L 175.861893 206.124412 
L 175.914021 206.359579 
L 176.076918 208.906105 
L 176.132303 208.906105 
L 176.2952 209.133354 
L 176.458098 211.892607 
L 176.620995 211.892607 
L 176.67638 209.359414 
L 176.728508 209.584292 
L 176.94679 209.584292 
L 177.109688 209.808 
L 177.2172 209.808 
L 177.272585 210.030545 
L 177.380097 207.517091 
L 177.490867 210.030545 
L 177.653765 207.744995 
L 177.761277 207.744995 
L 177.868789 207.971721 
L 178.031687 210.472186 
L 178.194584 210.691299 
L 178.357482 213.396895 
L 178.520379 213.396895 
L 178.575764 210.909285 
L 178.631149 211.126154 
L 178.846174 211.126154 
L 179.009071 211.341913 
L 179.119842 211.341913 
L 179.282739 209.088 
L 179.390251 209.088 
L 179.553149 209.307847 
L 179.608534 209.307847 
L 179.771431 211.982619 
L 179.934329 209.526579 
L 180.097226 209.744203 
L 180.260124 212.404364 
L 180.367636 212.404364 
L 180.423021 209.960727 
L 180.475148 212.404364 
L 180.585918 212.613642 
L 180.748816 210.176161 
L 180.911713 210.390513 
L 181.019225 210.390513 
L 181.182123 210.603789 
L 181.289635 210.603789 
L 181.452533 210.816 
L 181.563303 210.816 
L 181.61543 211.027152 
L 181.778327 208.613985 
L 181.833713 208.613985 
L 181.941225 208.83009 
L 182.104122 211.237254 
L 182.26702 211.446313 
L 182.37779 209.045122 
L 182.429917 209.259089 
L 182.485302 211.654337 
L 182.540687 209.259089 
L 182.6482 209.259089 
L 182.755712 209.472 
L 182.918609 211.861333 
L 183.081507 212.06731 
L 183.192277 212.06731 
L 183.355174 212.272275 
L 183.462687 212.272275 
L 183.518072 212.476235 
L 183.680969 210.104471 
L 183.733096 210.104471 
L 183.895994 210.313232 
L 184.006764 210.313232 
L 184.169661 210.520976 
L 184.277174 210.520976 
L 184.384686 210.727708 
L 184.547583 208.373255 
L 184.658354 208.584699 
L 184.821251 210.933437 
L 184.984149 211.138169 
L 185.147046 213.679304 
L 185.362071 213.679304 
L 185.417456 213.876434 
L 185.580353 211.544675 
L 185.635738 211.544675 
L 185.798636 211.746462 
L 185.906148 211.746462 
L 186.069045 211.947281 
L 186.176558 209.626705 
L 186.339455 209.832115 
L 186.450225 209.832115 
L 186.502352 210.036544 
L 186.66525 212.346043 
L 186.720635 212.346043 
L 186.883532 210.24 
L 186.938917 210.24 
L 187.101815 212.741017 
L 187.264712 212.741017 
L 187.42761 212.9371 
L 187.535122 212.9371 
L 187.698019 213.132255 
L 187.805532 213.132255 
L 187.916302 213.326491 
L 188.079199 211.044226 
L 188.242097 211.242918 
L 188.349609 211.242918 
L 188.512507 211.440676 
L 188.620019 211.440676 
L 188.730789 209.371279 
L 188.893686 211.637508 
L 189.056584 211.833421 
L 189.164096 211.833421 
L 189.271608 212.02842 
L 189.326994 209.772755 
L 189.382379 212.02842 
L 189.434506 212.02842 
L 189.597403 212.222512 
L 189.760301 214.6609 
L 189.871071 214.6609 
L 189.978583 212.415703 
L 190.141481 212.608 
L 190.248993 212.608 
L 190.41189 212.799409 
L 190.522661 212.799409 
L 190.685558 210.760258 
L 190.79307 210.760258 
L 190.955968 210.955034 
L 191.011353 210.955034 
L 191.17425 213.368367 
L 191.337148 211.148917 
L 191.500045 211.341913 
L 191.552172 211.341913 
L 191.71507 213.743342 
L 191.770455 213.743342 
L 191.877967 211.534027 
L 192.040864 211.725267 
L 192.151635 211.725267 
L 192.314532 211.915636 
L 192.422044 211.915636 
L 192.584942 209.910857 
L 192.747839 212.293792 
L 192.966122 212.293792 
L 193.073634 212.481589 
L 193.129019 210.29721 
L 193.181146 212.481589 
L 193.236531 212.481589 
L 193.399429 212.668541 
L 193.506941 212.668541 
L 193.669839 212.854652 
L 193.725224 212.854652 
L 193.780609 210.68009 
L 193.832736 210.870242 
L 194.051019 210.870242 
L 194.106404 211.059544 
L 194.269301 213.224376 
L 194.321428 213.224376 
L 194.376813 213.408 
L 194.539711 211.248 
L 194.595096 211.248 
L 194.702608 211.435617 
L 194.865506 213.590806 
L 195.028403 213.7728 
L 195.135915 211.6224 
L 195.298813 211.808355 
L 195.409583 211.808355 
L 195.57248 211.993487 
L 195.624608 211.993487 
L 195.679993 214.134372 
L 195.735378 212.177801 
L 195.950402 212.177801 
L 196.1133 212.361304 
L 196.22407 212.361304 
L 196.276197 212.544 
L 196.331582 214.670769 
L 196.386967 212.544 
L 196.49448 212.544 
L 196.549865 212.725895 
L 196.712762 214.848 
L 196.764889 214.848 
L 196.927787 215.024455 
L 196.983172 215.024455 
L 197.038557 212.906993 
L 197.090684 213.087301 
L 197.308967 213.087301 
L 197.471864 213.266824 
L 197.579377 213.266824 
L 197.634762 213.445565 
L 197.797659 211.341913 
L 197.853044 211.341913 
L 197.960556 211.524443 
L 198.123454 213.623531 
L 198.230966 213.800727 
L 198.393864 211.706182 
L 198.556761 211.887136 
L 198.612146 211.887136 
L 198.775044 214.152828 
L 198.937941 214.152828 
L 199.100838 214.327742 
L 199.208351 214.327742 
L 199.371248 214.501906 
L 199.482018 214.501906 
L 199.534146 214.675323 
L 199.697043 212.603203 
L 199.752428 212.603203 
L 199.915325 212.780308 
L 200.022838 212.780308 
L 200.185735 212.956657 
L 200.24112 210.893373 
L 200.296505 212.956657 
L 200.459403 213.132255 
L 200.566915 213.132255 
L 200.729813 213.307108 
L 200.837325 213.307108 
L 200.948095 211.431051 
L 201.110992 213.48122 
L 201.218505 213.654596 
L 201.381402 215.700431 
L 201.488914 215.868759 
L 201.651812 213.827241 
L 201.814709 213.999158 
L 201.92548 213.999158 
L 202.088377 214.170353 
L 202.140504 214.170353 
L 202.195889 212.137412 
L 202.251274 212.312151 
L 202.466299 212.312151 
L 202.577069 212.486159 
L 202.739967 214.510594 
L 202.902864 212.659441 
L 203.010376 212.659441 
L 203.173274 212.832 
L 203.280786 212.832 
L 203.443683 213.003842 
L 203.554454 213.003842 
L 203.661966 213.174971 
L 203.824863 215.182606 
L 203.987761 215.34887 
L 204.043146 215.34887 
L 204.095273 213.345391 
L 204.150658 213.515107 
L 204.368941 213.515107 
L 204.531838 213.684124 
L 204.63935 213.684124 
L 204.694736 213.852444 
L 204.857633 211.861333 
L 204.90976 211.861333 
L 204.965145 212.033051 
L 205.128043 214.020074 
L 205.183428 214.020074 
L 205.346325 214.187016 
L 205.453838 212.204066 
L 205.616735 212.37438 
L 205.67212 212.37438 
L 205.835017 214.518857 
L 205.997915 214.518857 
L 206.160812 212.712929 
L 206.268325 212.712929 
L 206.431222 212.881171 
L 206.486607 212.881171 
L 206.649505 215.01157 
L 206.812402 213.04873 
L 206.975299 213.215611 
L 207.082812 213.215611 
L 207.245709 213.381818 
L 207.301094 215.336727 
L 207.353221 213.381818 
L 207.516119 213.547355 
L 207.679016 215.659268 
L 207.897299 215.659268 
L 207.952684 215.819566 
L 208.115581 213.876434 
L 208.167708 213.876434 
L 208.330606 214.039984 
L 208.441376 214.039984 
L 208.604274 214.20288 
L 208.711786 212.26752 
L 208.819298 212.433629 
L 208.982196 214.365126 
L 209.145093 214.526725 
L 209.200478 214.526725 
L 209.255863 212.599076 
L 209.30799 212.763865 
L 209.526273 212.763865 
L 209.633785 212.928 
L 209.796683 214.848 
L 209.852068 215.007683 
L 209.907453 213.091485 
L 209.95958 215.007683 
L 210.07035 215.007683 
L 210.233248 215.166735 
L 210.34076 215.166735 
L 210.503657 215.32516 
L 210.61117 213.416521 
L 210.774067 213.578079 
L 210.884837 213.578079 
L 211.047735 213.739002 
L 211.155247 213.739002 
L 211.210632 212.001882 
L 211.37353 213.899294 
L 211.425657 213.899294 
L 211.588554 214.058959 
L 211.699324 214.058959 
L 211.806837 214.218 
L 211.969734 212.328 
L 212.025119 212.490105 
L 212.188017 214.376421 
L 212.240144 214.376421 
L 212.295529 214.534226 
L 212.458426 216.416872 
L 212.513811 214.534226 
L 212.565939 214.691417 
L 212.784221 214.691417 
L 212.947119 214.848 
L 213.054631 214.848 
L 213.110016 215.003977 
L 213.272913 213.132255 
L 213.328298 213.132255 
L 213.491196 213.291243 
L 213.543323 213.291243 
L 213.70622 215.314127 
L 213.761606 215.314127 
L 213.869118 213.449618 
L 214.032015 213.607385 
L 214.142786 213.607385 
L 214.305683 213.764545 
L 214.35781 213.764545 
L 214.413195 215.621896 
L 214.46858 213.921103 
L 214.683605 213.921103 
L 214.846502 214.077063 
L 214.957273 214.077063 
L 215.064785 214.232427 
L 215.172297 212.38571 
L 215.335195 214.3872 
L 215.498092 214.3872 
L 215.660989 214.541384 
L 215.716375 214.541384 
L 215.77176 212.701688 
L 215.823887 212.858778 
L 215.934657 212.858778 
L 216.097555 214.848 
L 216.312579 214.848 
L 216.367964 215.000439 
L 216.530862 213.171176 
L 216.586247 213.171176 
L 216.693759 213.326491 
L 216.856656 215.152302 
L 217.019554 215.303593 
L 217.127066 213.48122 
L 217.289964 213.635368 
L 217.400734 213.635368 
L 217.563631 213.788938 
L 217.671144 215.604473 
L 217.834041 213.941933 
L 217.941553 213.941933 
L 218.104451 214.094355 
L 218.215221 214.094355 
L 218.322733 214.246209 
L 218.378118 212.440836 
L 218.430245 214.246209 
L 218.485631 214.246209 
L 218.648528 214.397497 
L 218.75604 214.397497 
L 218.918938 214.548223 
L 218.974323 214.548223 
L 219.029708 212.749561 
L 219.081835 212.903065 
L 219.13722 212.903065 
L 219.300118 214.69839 
L 219.463015 214.848 
L 219.570527 214.848 
L 219.625913 214.997057 
L 219.78881 213.20837 
L 219.844195 213.20837 
L 219.951707 213.360177 
L 220.114605 215.145565 
L 220.277502 215.293525 
L 220.385014 213.511425 
L 220.547912 213.662118 
L 220.658682 213.662118 
L 220.766194 213.812257 
L 220.929092 215.587817 
L 221.091989 213.961846 
L 221.199502 213.961846 
L 221.362399 214.110888 
L 221.473169 214.110888 
L 221.525296 214.259387 
L 221.636067 216.025226 
L 221.743579 214.259387 
L 221.906476 214.407344 
L 222.013989 214.407344 
L 222.176886 214.554764 
L 222.287656 214.554764 
L 222.339783 212.945423 
L 222.502681 214.701648 
L 222.558066 214.701648 
L 222.720963 214.848 
L 222.828476 214.848 
L 222.939246 214.993823 
L 223.102143 213.243949 
L 223.15427 213.392404 
L 223.317168 215.139119 
L 223.372553 215.139119 
L 223.53545 215.283892 
L 223.590836 215.283892 
L 223.642963 213.540324 
L 223.698348 213.687712 
L 223.91663 213.687712 
L 223.968758 213.834571 
L 224.131655 215.571878 
L 224.18704 215.571878 
L 224.242425 215.715097 
L 224.405323 213.980903 
L 224.45745 213.980903 
L 224.620347 214.126712 
L 224.731117 214.126712 
L 224.783245 214.272 
L 224.894015 216 
L 225.001527 214.272 
L 225.164425 214.41677 
L 225.271937 214.41677 
L 225.434834 214.561025 
L 225.545605 214.561025 
L 225.597732 212.985975 
L 225.760629 214.704767 
L 225.816014 214.704767 
L 225.978912 214.848 
L 226.086424 214.848 
L 226.197194 214.990726 
L 226.360092 213.278018 
L 226.412219 213.423265 
L 226.575116 215.132947 
L 226.630501 215.132947 
L 226.793399 215.274667 
L 226.848784 215.274667 
L 226.900911 213.568 
L 226.956296 213.712225 
L 227.174579 213.712225 
L 227.226706 213.855944 
L 227.389603 215.556612 
L 227.444988 215.556612 
L 227.500373 215.696842 
L 227.663271 213.999158 
L 227.715398 213.999158 
L 227.878295 214.14187 
L 227.989066 214.14187 
L 228.041193 214.284084 
L 228.151963 215.975832 
L 228.259475 214.284084 
L 228.422373 214.425801 
L 228.529885 214.425801 
L 228.692783 214.567024 
L 228.803553 214.567024 
L 228.96645 214.707757 
L 229.073963 214.707757 
L 229.23686 214.848 
L 229.344372 214.848 
L 229.50727 214.987757 
L 229.562655 213.310669 
L 229.61804 214.987757 
L 229.780937 215.127031 
L 229.88845 215.127031 
L 230.051347 215.265824 
L 230.158859 215.265824 
L 230.321757 213.735724 
L 230.377142 213.735724 
L 230.540039 215.541976 
L 230.702937 215.541976 
L 230.810449 215.67934 
L 230.973346 214.01666 
L 231.136244 214.156405 
L 231.191629 214.156405 
L 231.354526 215.952658 
L 231.462039 215.952658 
L 231.517424 214.295671 
L 231.572809 214.434462 
L 231.787833 214.434462 
L 231.950731 214.572778 
L 232.006116 214.572778 
L 232.113628 216.359141 
L 232.276526 214.710624 
L 232.331911 214.710624 
L 232.494808 214.848 
L 232.60232 214.848 
L 232.765218 214.98491 
L 232.820603 213.34199 
L 232.875988 214.98491 
L 233.038886 215.121356 
L 233.146398 215.121356 
L 233.309295 215.25734 
L 233.416808 215.25734 
L 233.579705 213.75827 
L 233.63509 213.75827 
L 233.797988 215.527933 
L 233.960885 215.527933 
L 234.123782 215.662545 
L 234.231295 214.033455 
L 234.394192 214.170353 
L 234.449577 214.170353 
L 234.612475 215.930416 
L 234.775372 215.930416 
L 234.938269 214.442774 
L 235.045782 214.442774 
L 235.208679 214.578301 
L 235.371577 216.328868 
L 235.426962 216.328868 
L 235.589859 214.713376 
L 235.752756 214.848 
L 235.860269 214.848 
L 236.023166 214.982176 
L 236.078551 216.592293 
L 236.133936 214.982176 
L 236.296834 215.115907 
L 236.404346 215.115907 
L 236.567244 215.249194 
L 236.674756 215.249194 
L 236.730141 215.38204 
L 236.837653 213.779921 
L 237.000551 215.514446 
L 237.218833 215.514446 
L 237.381731 215.646416 
L 237.437116 215.646416 
L 237.489243 214.049584 
L 237.544628 214.18375 
L 237.65214 214.18375 
L 237.815038 215.909053 
L 238.03332 215.909053 
L 238.088705 216.039724 
L 238.251603 214.450759 
L 238.30373 214.450759 
L 238.466627 214.583607 
L 238.629525 216.299784 
L 238.740295 216.299784 
L 238.847807 214.71602 
L 239.010705 214.848 
L 239.118217 214.848 
L 239.281114 214.97955 
L 239.391885 216.558147 
L 239.554782 215.110671 
L 239.662294 215.110671 
L 239.825192 215.241366 
L 239.932704 215.241366 
L 240.043474 215.371636 
L 240.095602 213.800727 
L 240.150987 215.371636 
L 240.206372 215.371636 
L 240.369269 215.501485 
L 240.476781 215.501485 
L 240.639679 215.630913 
L 240.695064 215.630913 
L 240.747191 214.065087 
L 240.802576 214.196627 
L 240.910089 214.196627 
L 241.072986 215.888516 
L 241.291269 215.888516 
L 241.398781 216.016696 
L 241.561678 214.458435 
L 241.724576 214.588707 
L 241.887473 216.27182 
L 242.05037 216.27182 
L 242.105756 214.718562 
L 242.161141 214.848 
L 242.376165 214.848 
L 242.539063 214.977024 
L 242.70196 216.65145 
L 242.864858 215.105636 
L 242.920243 215.105636 
L 243.08314 215.233837 
L 243.190652 215.233837 
L 243.301423 215.361631 
L 243.35355 216.902522 
L 243.408935 215.361631 
L 243.46432 215.361631 
L 243.627217 215.489017 
L 243.73473 215.489017 
L 243.897627 215.616 
L 244.005139 215.616 
L 244.060525 215.74258 
L 244.11591 214.209014 
L 244.168037 215.74258 
L 244.278807 215.74258 
L 244.441705 215.868759 
L 244.549217 215.868759 
L 244.712114 215.99454 
L 244.819627 214.46582 
L 244.930397 214.593615 
L 245.093294 216.119924 
L 245.256192 216.244913 
L 245.363704 216.244913 
L 245.526601 214.848 
L 245.634114 214.848 
L 245.744884 214.974593 
L 245.907781 216.493714 
L 246.015294 216.61753 
L 246.178191 215.10079 
L 246.341088 215.226592 
L 246.448601 215.226592 
L 246.559371 215.352 
L 246.722268 216.864 
L 246.885166 215.477017 
L 246.992678 215.477017 
L 247.155575 215.601645 
L 247.263088 215.601645 
L 247.425985 215.725885 
L 247.536755 215.725885 
L 247.699653 215.849739 
L 247.807165 215.849739 
L 247.970062 215.973209 
L 248.025448 215.973209 
L 248.077575 214.47293 
L 248.13296 214.598341 
L 248.188345 214.598341 
L 248.351242 216.096297 
L 248.51414 216.219005 
L 248.621652 216.219005 
L 248.677037 216.341333 
L 248.839935 214.848 
L 248.892062 214.848 
L 249.002832 214.972253 
L 249.16573 216.463285 
L 249.328627 216.584862 
L 249.380754 216.584862 
L 249.436139 215.096123 
L 249.491524 215.219613 
L 249.706549 215.219613 
L 249.817319 215.342724 
L 249.980217 216.826896 
L 250.032344 216.947357 
L 250.195241 215.465458 
L 250.250626 215.465458 
L 250.413524 215.587817 
L 250.521036 215.587817 
L 250.631806 215.709802 
L 250.683933 217.187176 
L 250.739319 215.709802 
L 250.794704 215.709802 
L 250.957601 215.831415 
L 251.065113 215.831415 
L 251.228011 215.952658 
L 251.335523 215.952658 
L 251.446293 214.602894 
L 251.609191 216.073532 
L 251.772088 216.194039 
L 251.8796 216.194039 
L 252.042498 216.314182 
L 252.15001 214.848 
L 252.26078 214.969997 
L 252.423678 216.433961 
L 252.586575 216.553378 
L 252.694087 216.553378 
L 252.856985 215.212887 
L 252.964497 215.212887 
L 253.075267 215.333783 
L 253.238165 216.791133 
L 253.345677 216.909474 
L 253.508575 215.454316 
L 253.671472 215.574486 
L 253.778984 215.574486 
L 253.889755 215.694297 
L 253.997267 217.145091 
L 254.052652 215.694297 
L 254.104779 215.813749 
L 254.323062 215.813749 
L 254.485959 215.932843 
L 254.593471 215.932843 
L 254.756369 216.051582 
L 254.867139 216.051582 
L 255.030036 216.169967 
L 255.137549 216.169967 
L 255.300446 216.288 
L 255.355831 216.288 
L 255.407958 214.848 
L 255.463344 214.967822 
L 255.518729 214.967822 
L 255.681626 216.405682 
L 255.844523 216.523015 
L 255.952036 216.523015 
L 256.007421 216.64 
L 256.170318 215.2064 
L 256.222445 215.2064 
L 256.333216 215.32516 
L 256.496113 216.756639 
L 256.659011 216.872934 
L 256.711138 216.872934 
L 256.766523 215.443569 
L 256.821908 215.561628 
L 257.036933 215.561628 
L 257.147703 215.67934 
L 257.3106 217.104495 
L 257.362727 217.219765 
L 257.525625 215.796706 
L 257.58101 215.796706 
L 257.743907 215.913727 
L 257.85142 215.913727 
L 257.96219 216.030405 
L 258.014317 217.44929 
L 258.069702 216.030405 
L 258.125087 216.030405 
L 258.287985 216.146741 
L 258.395497 216.146741 
L 258.558394 216.262737 
L 258.665907 216.262737 
L 258.721292 216.378394 
L 258.828804 214.965723 
L 258.991702 216.493714 
L 259.209984 216.493714 
L 259.372881 216.608699 
L 259.480394 215.20014 
L 259.643291 215.316837 
L 259.806189 216.837666 
L 260.024471 216.837666 
L 260.187369 215.549217 
L 260.294881 215.549217 
L 260.457778 215.664903 
L 260.620676 217.178636 
L 260.731446 217.178636 
L 260.838958 215.780254 
L 261.001856 215.895273 
L 261.109368 215.895273 
L 261.272265 216.00996 
L 261.383036 217.404311 
L 261.545933 216.124317 
L 261.653445 216.124317 
L 261.816343 216.238345 
L 261.923855 216.238345 
L 262.034625 216.352046 
L 262.086752 214.963696 
L 262.142137 216.352046 
L 262.197523 216.352046 
L 262.36042 216.465421 
L 262.467932 216.465421 
L 262.63083 216.578472 
L 262.738342 216.578472 
L 262.901239 215.3088 
L 263.064137 216.803606 
L 263.282419 216.803606 
L 263.389932 216.915692 
L 263.552829 215.537231 
L 263.715726 215.650959 
L 263.878624 217.138909 
L 264.041521 217.138909 
L 264.096906 215.764364 
L 264.152292 215.877447 
L 264.367316 215.877447 
L 264.530214 215.99021 
L 264.693111 217.471366 
L 264.748496 217.471366 
L 264.911394 216.102653 
L 265.074291 216.21478 
L 265.181803 216.21478 
L 265.344701 216.32659 
L 265.400086 217.691441 
L 265.455471 216.32659 
L 265.618368 216.438085 
L 265.725881 216.438085 
L 265.888778 216.549266 
L 266.051675 216.660135 
L 266.159188 215.301034 
L 266.322085 216.770693 
L 266.75865 216.880941 
L 266.810777 215.525647 
L 266.866162 215.637483 
L 266.973675 215.637483 
L 267.136572 217.100514 
L 267.41024 217.209841 
L 267.573137 215.860218 
L 267.843547 215.97112 
L 268.006444 217.427583 
L 268.061829 217.427583 
L 268.169342 216.081713 
L 268.332239 216.192 
L 268.658034 216.301981 
L 268.765546 217.751934 
L 268.928444 216.411657 
L 269.254239 216.521029 
L 269.417136 216.630099 
L 269.472521 215.293525 
L 269.527906 216.630099 
L 269.690804 216.738869 
L 270.068726 216.847339 
L 270.231623 215.624451 
L 270.287008 215.624451 
L 270.449906 217.063385 
L 270.7757 217.170963 
L 270.883213 215.843556 
L 271.04611 215.952658 
L 271.101495 215.952658 
L 271.264393 217.385237 
L 271.42729 217.385237 
L 271.590187 216.169967 
L 271.915982 216.278177 
L 272.07888 217.704458 
L 272.134265 217.704458 
L 272.241777 216.386093 
L 272.404675 216.493714 
L 272.730469 216.601043 
L 272.785854 217.915826 
L 272.837982 216.708081 
L 273.326674 216.814829 
L 273.437444 216.921288 
L 273.544956 215.611843 
L 273.707854 217.027459 
L 274.141161 217.133344 
L 274.304058 215.934792 
L 274.466956 216.041863 
L 274.629853 217.344258 
L 274.792751 217.44929 
L 274.955648 216.148645 
L 275.118545 216.255141 
L 275.281443 216.361351 
L 275.44434 217.658509 
L 275.499725 216.361351 
L 275.555111 216.467277 
L 276.043803 216.57292 
L 276.09593 216.67828 
L 276.151315 217.970243 
L 276.2067 216.67828 
L 276.584622 216.78336 
L 276.74752 216.88816 
L 276.802905 216.88816 
L 276.85829 215.599638 
L 276.910417 215.705872 
L 277.073314 216.992681 
L 277.399109 217.096924 
L 277.509879 217.200891 
L 277.672777 215.917496 
L 277.724904 216.022887 
L 277.887801 217.304583 
L 278.161469 217.408 
L 278.213596 216.128 
L 278.268981 216.232835 
L 278.594776 216.337393 
L 278.757674 217.614016 
L 278.865186 217.716617 
L 279.028083 216.441676 
L 279.190981 216.545684 
L 279.409263 216.649419 
L 279.516776 217.921009 
L 279.572161 216.649419 
L 279.627546 216.752882 
L 280.116238 216.856073 
L 280.168365 216.958995 
L 280.22375 215.692398 
L 280.279136 216.958995 
L 280.657058 217.061647 
L 280.819955 217.164031 
L 280.87534 217.164031 
L 280.930725 215.900742 
L 280.982852 216.004506 
L 281.038237 216.004506 
L 281.201135 217.266149 
L 281.364032 217.368 
L 281.52693 217.469586 
L 281.689827 216.211225 
L 281.852725 216.314182 
L 282.015622 217.570909 
L 282.178519 217.671969 
L 282.233904 217.671969 
L 282.286032 216.416872 
L 282.341417 216.519295 
L 282.667212 216.621454 
L 282.830109 217.873304 
L 282.885494 217.973581 
L 283.048392 216.723349 
L 283.374186 216.824981 
L 283.537084 216.926351 
L 283.915006 217.027459 
L 284.077903 217.128308 
L 284.240801 217.228899 
L 284.351571 215.986691 
L 284.514468 217.329231 
L 284.89239 217.429306 
L 285.003161 216.190279 
L 285.166058 216.291683 
L 285.328955 217.62869 
L 285.599365 217.728 
L 285.762262 216.493714 
L 285.980545 216.594344 
L 286.143442 217.925863 
L 286.250955 217.925863 
L 286.358467 216.694718 
L 286.521364 216.794836 
L 286.847159 216.894701 
L 286.957929 218.220776 
L 287.120827 216.994312 
L 287.446622 217.093671 
L 287.609519 217.192779 
L 287.661646 215.969416 
L 287.717031 217.192779 
L 287.879929 217.291636 
L 288.261109 217.390245 
L 288.313236 217.488605 
L 288.476133 216.269864 
L 288.639031 217.586717 
L 288.964826 217.684583 
L 289.075596 216.468905 
L 289.238493 216.56805 
L 289.29062 216.56805 
L 289.453518 217.879579 
L 289.616415 217.879579 
L 289.779313 216.765597 
L 290.160493 216.864 
L 290.215878 216.962157 
L 290.32339 218.170247 
L 290.430902 216.962157 
L 290.5938 217.06007 
L 290.97498 217.157738 
L 291.030365 216.051582 
L 291.193262 217.255164 
L 291.519057 217.352348 
L 291.681954 217.44929 
L 291.789467 216.248695 
L 291.844852 216.346885 
L 292.007749 217.545993 
L 292.333544 217.642455 
L 292.496442 216.542536 
L 292.659339 216.64 
L 292.822236 217.834667 
L 293.037261 217.930417 
L 293.148031 216.737223 
L 293.310929 216.834207 
L 293.525953 216.930952 
L 293.688851 218.12121 
L 293.851748 217.027459 
L 294.232928 217.12373 
L 294.34044 217.219765 
L 294.395825 218.405647 
L 294.451211 217.219765 
L 294.777005 217.315564 
L 294.939903 217.41113 
L 295.047415 217.41113 
L 295.154927 216.324923 
L 295.317825 217.506462 
L 295.480722 217.601561 
L 295.75439 217.696429 
L 295.861902 216.517769 
L 295.969414 216.613839 
L 296.132312 217.791066 
L 296.295209 217.885473 
L 296.405979 217.885473 
L 296.568877 216.805282 
L 296.839287 216.900655 
L 297.002184 218.167322 
L 297.109696 218.167322 
L 297.220467 216.995797 
L 297.383364 217.090709 
L 297.653774 217.185391 
L 297.761286 218.354087 
L 297.924183 217.279846 
L 298.305363 217.374072 
L 298.468261 217.468072 
L 298.849441 217.561846 
L 299.012338 217.655395 
L 299.11985 217.655395 
L 299.282748 216.588432 
L 299.445645 217.84182 
L 299.826825 217.934699 
L 299.934337 216.777187 
L 300.097235 216.871226 
L 300.15262 216.871226 
L 300.315517 218.11979 
L 300.478415 218.11979 
L 300.641312 217.058632 
L 300.967107 217.152 
L 301.130004 218.395776 
L 301.182132 218.395776 
L 301.292902 217.245146 
L 301.455799 217.338071 
L 301.781594 217.430776 
L 301.833721 218.578676 
L 301.889106 217.523261 
L 302.377799 217.615527 
L 302.540696 217.707574 
L 302.648208 216.563745 
L 302.703593 216.656926 
L 302.866491 217.799405 
L 303.192286 217.891019 
L 303.355183 216.842629 
L 303.518081 216.935153 
L 303.680978 218.0736 
L 303.899261 218.164569 
L 304.006773 217.027459 
L 304.16967 217.119549 
L 304.332568 217.211423 
L 304.495465 218.345866 
L 304.55085 218.345866 
L 304.713748 217.303082 
L 305.09167 217.394526 
L 305.20244 217.485757 
L 305.254567 218.616224 
L 305.309952 217.485757 
L 305.635747 217.576775 
L 305.798644 217.66758 
L 305.906157 217.66758 
L 306.016927 216.631655 
L 306.179824 217.758175 
L 306.342722 217.848558 
L 306.613131 217.938732 
L 306.720644 216.814829 
L 306.831414 216.906097 
L 306.994311 218.028696 
L 307.157209 218.118452 
L 307.264721 218.118452 
L 307.427618 217.088 
L 307.698028 217.178636 
L 307.860926 218.386476 
L 307.971696 218.386476 
L 308.079208 217.269062 
L 308.242106 217.35928 
L 308.512515 217.44929 
L 308.623285 218.564129 
L 308.786183 217.539093 
L 309.164105 217.62869 
L 309.327002 217.71808 
L 309.708182 217.807266 
L 309.87108 217.896247 
L 309.978592 217.896247 
L 310.141489 216.87784 
L 310.196875 216.87784 
L 310.359772 218.0736 
L 310.685567 218.161973 
L 310.793079 217.057315 
L 310.955976 217.146746 
L 311.011362 217.146746 
L 311.174259 218.338114 
L 311.337156 218.338114 
L 311.500054 217.324997 
L 311.825849 217.413818 
L 311.988746 218.600826 
L 312.044131 218.600826 
L 312.151643 217.502438 
L 312.314541 217.590857 
L 312.695721 217.679076 
L 312.747848 216.672434 
L 312.910745 217.767095 
L 313.23654 217.854915 
L 313.399438 217.942537 
L 313.510208 216.850348 
L 313.562335 216.939003 
L 313.725232 218.029962 
L 314.051027 218.117189 
L 314.213925 217.115717 
L 314.376822 217.203775 
L 314.53972 218.291056 
L 314.758002 218.377697 
L 314.865514 217.291636 
L 315.028412 217.3793 
L 315.246694 217.466768 
L 315.409592 218.550396 
L 315.572489 217.55404 
L 315.953669 217.641117 
L 316.061181 217.728 
L 316.116567 218.808 
L 316.168694 217.728 
L 316.494489 217.814689 
L 316.657386 217.901185 
L 316.820283 217.987488 
L 316.875668 216.911092 
L 316.931054 217.987488 
L 317.308976 218.0736 
L 317.471873 218.159521 
L 317.582643 217.085514 
L 317.745541 217.172435 
L 317.908438 218.330791 
L 318.178848 218.416142 
L 318.341745 217.345699 
L 318.560028 217.432044 
L 318.722925 218.586278 
L 318.830437 218.586278 
L 318.93795 217.518199 
L 319.100847 217.604163 
L 319.374515 217.689938 
L 319.537412 218.840079 
L 319.70031 217.775525 
L 320.026104 217.860923 
L 320.189002 217.946134 
L 320.241129 216.883917 
L 320.296514 217.946134 
L 320.459412 218.031158 
L 320.840592 218.115996 
L 320.892719 218.200648 
L 321.055616 217.141917 
L 321.218514 218.285115 
L 321.544308 218.369397 
L 321.655079 217.312978 
L 321.817976 217.398229 
L 321.980873 217.483294 
L 322.143771 218.537412 
L 322.251283 218.621145 
L 322.414181 217.568174 
L 322.739975 217.65287 
L 322.79536 217.737381 
L 322.958258 218.788065 
L 323.010385 217.737381 
L 323.06577 217.821709 
L 323.554462 217.905855 
L 323.71736 217.989818 
L 324.09854 218.0736 
L 324.261437 218.157201 
L 324.313564 218.157201 
L 324.36895 217.11219 
L 324.424335 217.196738 
L 324.476462 217.196738 
L 324.639359 218.240621 
L 324.802257 218.323862 
L 324.965154 218.406924 
L 325.128051 217.365287 
L 325.290949 217.44929 
L 325.453846 218.489806 
L 325.616744 218.572511 
L 325.672129 218.572511 
L 325.727514 217.533113 
L 325.779641 217.616755 
L 326.105436 217.700219 
L 326.268333 218.737389 
L 326.323718 218.819563 
L 326.486616 217.783503 
L 326.812411 217.86661 
L 326.975308 217.949538 
L 327.030693 218.983385 
L 327.08282 217.949538 
L 327.245718 218.03229 
L 327.626898 218.114866 
L 327.73441 218.197265 
L 327.789795 217.166722 
L 327.84518 218.197265 
L 328.170975 218.279489 
L 328.333873 218.361539 
L 328.386 218.361539 
L 328.441385 217.333186 
L 328.49677 217.416153 
L 328.659667 217.416153 
L 328.822565 218.525116 
L 329.092975 218.606644 
L 329.255872 217.581559 
L 329.418769 217.664 
L 329.474154 217.664 
L 329.637052 218.769184 
L 329.744564 218.769184 
L 329.799949 217.746266 
L 329.852076 217.828359 
L 330.340769 217.910278 
L 330.396154 217.992025 
L 330.451539 219.011709 
L 330.503666 217.992025 
L 330.884846 218.0736 
L 331.047743 218.155003 
L 331.103129 218.155003 
L 331.155256 217.137464 
L 331.210641 217.219765 
L 331.373538 218.236235 
L 331.699333 218.317297 
L 331.806845 218.398189 
L 331.969743 217.383849 
L 332.025128 217.465634 
L 332.188025 218.478911 
L 332.51382 218.559464 
L 332.676718 217.62869 
L 332.895 217.709962 
L 333.057898 218.720067 
L 333.16541 218.800117 
L 333.328307 217.791066 
L 333.491205 217.872 
L 333.709487 217.952766 
L 333.872385 218.959717 
L 334.035282 218.033364 
L 334.413204 218.113794 
L 334.523974 218.194058 
L 334.576101 217.190241 
L 334.631487 218.194058 
L 334.957281 218.274155 
L 335.120179 218.354087 
L 335.227691 218.354087 
L 335.390589 217.43315 
L 335.553486 218.513455 
L 335.934666 218.592892 
L 336.042178 217.594254 
L 336.205076 217.674557 
L 336.367973 218.751275 
L 336.586256 218.751275 
L 336.749153 217.834667 
L 337.074948 217.914475 
L 337.237845 218.98763 
L 337.29323 218.98763 
L 337.400743 217.994119 
L 337.56364 218.0736 
L 337.889435 218.152918 
L 337.94482 219.144393 
L 337.996947 218.232074 
L 338.485639 218.311067 
L 338.648537 218.3899 
L 338.759307 217.401463 
L 338.811434 217.481143 
L 338.974332 218.468571 
L 339.300126 218.547083 
L 339.355512 218.625434 
L 339.518409 217.640016 
L 339.625921 217.719211 
L 339.788819 218.703626 
L 340.007101 218.781659 
L 340.114614 217.798244 
L 340.277511 217.877117 
L 340.495793 217.95583 
L 340.658691 218.937249 
L 340.714076 219.014809 
L 340.876973 218.034383 
L 341.202768 218.112777 
L 341.310281 218.191013 
L 341.365666 219.169456 
L 341.417793 218.191013 
L 341.743588 218.269091 
L 341.906485 218.347011 
L 342.069382 218.424774 
L 342.180153 217.44929 
L 342.34305 218.502381 
L 342.776357 218.579831 
L 342.831742 217.60631 
L 342.88387 217.684583 
L 342.99464 217.684583 
L 343.157537 218.734265 
L 343.427947 218.81125 
L 343.590844 217.840658 
L 343.809127 217.918461 
L 343.972024 218.964757 
L 344.134922 218.964757 
L 344.187049 217.996108 
L 344.242434 218.0736 
L 344.675741 218.150937 
L 344.838639 219.193868 
L 345.001536 218.22812 
L 345.164433 218.305149 
L 345.545613 218.382024 
L 345.708511 218.458746 
L 346.089691 218.535316 
L 346.197203 218.611734 
L 346.3601 217.650781 
L 346.415485 217.728 
L 346.578383 218.688 
L 346.848793 218.764115 
L 346.904178 217.805066 
L 346.956305 217.88198 
L 347.229973 217.958742 
L 347.39287 218.915893 
L 347.555767 218.991557 
L 347.718665 218.035352 
L 347.881562 218.11181 
L 348.096587 218.188118 
L 348.259484 219.142438 
L 348.422382 218.264276 
L 348.803562 218.340283 
L 348.966459 218.416142 
L 349.347639 218.491851 
L 349.510536 218.567411 
L 349.618049 218.567411 
L 349.780946 217.694118 
L 349.943843 218.718088 
L 350.325023 218.793205 
L 350.432536 217.846356 
L 350.595433 217.922252 
L 350.758331 218.943 
L 350.976613 218.943 
L 351.13951 218.0736 
L 351.465305 218.149053 
L 351.628203 219.166598 
L 351.68033 219.166598 
L 351.7911 218.224358 
L 351.953998 218.299518 
L 352.279792 218.374531 
L 352.33192 219.314939 
L 352.387305 218.449398 
L 352.875997 218.52412 
L 353.038894 218.598698 
L 353.146407 217.661023 
L 353.201792 217.736364 
L 353.364689 218.673131 
L 353.690484 218.74742 
L 353.745869 218.821565 
L 353.908767 217.886609 
L 354.016279 217.961514 
L 354.179176 218.895568 
L 354.397459 218.969427 
L 354.504971 218.036274 
L 354.667868 218.11089 
L 354.886151 218.185363 
L 355.049048 219.11672 
L 355.101176 219.190154 
L 355.264073 218.259692 
L 355.589868 218.333879 
L 355.700638 218.407923 
L 355.80815 219.336599 
L 355.863535 218.407923 
L 355.915663 218.481826 
L 356.404355 218.555586 
L 356.45974 218.629206 
L 356.567252 217.703196 
L 356.73015 218.702685 
L 357.166715 218.776023 
L 357.218842 217.851782 
L 357.274227 217.925863 
L 357.381739 217.925863 
L 357.544637 218.92228 
L 357.870432 218.9952 
L 358.033329 218.0736 
L 358.196226 218.147258 
L 358.251612 218.147258 
L 358.414509 219.140624 
L 358.522021 219.140624 
L 358.577406 218.220776 
L 358.632791 218.294154 
L 359.066099 218.367393 
L 359.228996 219.357725 
L 359.391893 218.440493 
L 359.554791 218.513455 
L 359.880586 218.586278 
L 359.935971 217.670781 
L 359.988098 217.744333 
L 360.150995 218.658964 
L 360.47679 218.731513 
L 360.58756 218.803925 
L 360.750458 217.891019 
L 360.802585 217.964155 
L 360.965482 218.8762 
L 361.291277 218.948339 
L 361.454175 218.110013 
L 361.672457 218.182737 
L 361.835355 219.092211 
L 361.942867 219.163944 
L 362.105764 218.255324 
L 362.268662 218.327775 
L 362.486944 218.40009 
L 362.649842 219.307007 
L 362.812739 218.47227 
L 363.193919 218.544314 
L 363.356816 218.616224 
L 363.734738 218.688 
L 363.897636 218.759642 
L 364.008406 218.759642 
L 364.171304 217.929305 
L 364.334201 218.902525 
L 364.712123 218.973767 
L 364.822893 218.0736 
L 364.985791 218.145546 
L 365.037918 218.145546 
L 365.200815 219.115855 
L 365.419098 219.186701 
L 365.581995 218.289039 
L 365.852405 218.360586 
L 366.015302 219.328 
L 366.070687 219.328 
L 366.1782 218.432 
L 366.341097 218.503282 
L 366.722277 218.574433 
L 366.885174 218.645452 
L 367.266354 218.716339 
L 367.429252 218.787097 
L 367.481379 218.787097 
L 367.536764 217.895226 
L 367.592149 217.966674 
L 367.755047 218.857724 
L 368.080841 218.928221 
L 368.132969 218.998588 
L 368.295866 218.109176 
L 368.458763 218.180231 
L 368.621661 219.068826 
L 368.784558 219.138936 
L 368.839943 219.138936 
L 368.895329 218.251156 
L 368.947456 218.321951 
L 369.273251 218.392615 
L 369.436148 219.278769 
L 369.546918 219.348494 
L 369.709816 218.463151 
L 369.872713 218.533558 
L 370.143123 218.603836 
L 370.198508 219.487562 
L 370.250635 218.603836 
L 370.413532 218.673985 
L 370.794712 218.744007 
L 370.902225 218.813902 
L 370.95761 217.93259 
L 371.012995 218.813902 
L 371.33879 218.883669 
L 371.501687 218.953309 
L 371.609199 218.953309 
L 371.772097 218.143913 
L 371.827482 218.143913 
L 371.990379 219.092211 
L 372.260789 219.161472 
L 372.423687 218.284156 
L 372.586584 218.354087 
L 372.641969 218.354087 
L 372.804866 219.29962 
L 372.967764 219.29962 
L 373.130661 218.49357 
L 373.508583 218.563122 
L 373.563968 218.632549 
L 373.671481 219.505906 
L 373.782251 218.632549 
L 373.945148 218.70185 
L 374.32307 218.771027 
L 374.378456 217.96908 
L 374.541353 218.840079 
L 374.867148 218.909007 
L 375.030045 218.977811 
L 375.137557 218.108377 
L 375.248328 218.177838 
L 375.411225 219.046492 
L 375.574123 219.115049 
L 375.73702 219.183484 
L 375.899917 218.316387 
L 376.062815 218.385475 
L 376.225712 219.251796 
L 376.38861 219.319986 
L 376.496122 218.45444 
L 376.659019 218.523282 
L 376.929429 218.592 
L 377.092326 219.523825 
L 377.255224 218.660596 
L 377.581019 218.72907 
L 377.743916 218.797421 
L 378.125096 218.865651 
L 378.287993 218.93376 
L 378.450891 219.001748 
L 378.613788 218.142352 
L 378.776686 219.069615 
L 379.157866 219.137362 
L 379.209993 218.279489 
L 379.265378 218.347876 
L 379.535788 218.416142 
L 379.698685 219.272496 
L 379.861582 219.339883 
L 380.02448 218.484286 
L 380.187377 218.552311 
L 380.350275 218.620215 
L 380.513172 219.474302 
L 380.568557 219.474302 
L 380.731455 218.688 
L 381.112635 218.755665 
L 381.275532 218.823211 
L 381.653454 218.890639 
L 381.816351 218.957947 
L 381.927122 218.957947 
L 382.034634 218.17555 
L 382.197531 219.025138 
L 382.360429 219.092211 
L 382.630838 219.159166 
L 382.741609 218.311067 
L 382.904506 218.378648 
L 383.067404 219.292724 
L 383.282428 219.292724 
L 383.445326 218.513455 
L 383.718993 218.580681 
L 383.881891 219.492188 
L 383.989403 219.492188 
L 384.096915 218.647791 
L 384.259813 218.714783 
L 384.585607 218.781659 
L 384.696378 219.690611 
L 384.859275 218.848418 
L 385.18507 218.915061 
L 385.347967 218.981588 
L 385.45548 218.140858 
L 385.510865 218.208 
L 385.673762 219.048 
L 385.999557 219.114297 
L 386.051684 219.180478 
L 386.214582 218.341934 
L 386.325352 218.408727 
L 386.488249 219.246545 
L 386.758659 219.312498 
L 386.814044 218.475405 
L 386.866171 218.541967 
L 387.191966 218.608415 
L 387.354863 219.444062 
L 387.410249 219.509674 
L 387.573146 218.674747 
L 387.898941 218.740966 
L 388.006453 218.80707 
L 388.117223 219.640558 
L 388.169351 218.80707 
L 388.224736 218.87306 
L 388.713428 218.938937 
L 388.82094 219.004701 
L 388.876325 218.173361 
L 388.93171 219.004701 
L 389.257505 219.070352 
L 389.420403 219.13589 
L 389.527915 219.13589 
L 389.690812 218.372113 
L 389.85371 219.26663 
L 390.179505 219.331832 
L 390.342402 218.504048 
L 390.505299 218.569846 
L 390.560685 218.569846 
L 390.723582 219.461903 
L 390.886479 219.461903 
L 391.049377 218.701106 
L 391.427299 218.766568 
L 391.482684 218.831918 
L 391.590196 219.656177 
L 391.700966 218.831918 
L 391.863864 218.897157 
L 392.241786 218.962286 
L 392.297171 218.205145 
L 392.460068 219.027303 
L 392.785863 219.092211 
L 392.948761 219.157008 
L 393.056273 218.336244 
L 393.167043 218.401627 
L 393.329941 219.221695 
L 393.492838 219.286273 
L 393.655735 219.350741 
L 393.818633 218.532061 
L 393.98153 218.597112 
L 394.144428 219.415101 
L 394.307325 219.479351 
L 394.414837 218.662054 
L 394.577735 218.726886 
L 394.848145 218.791609 
L 395.011042 219.671454 
L 395.173939 218.856222 
L 395.499734 218.920727 
L 395.662632 218.985124 
L 395.718017 219.798984 
L 395.773402 218.985124 
L 395.936299 219.049412 
L 396.314221 219.113592 
L 396.424991 219.177664 
L 396.532504 218.365852 
L 396.695401 219.24163 
L 397.076581 219.305487 
L 397.128708 218.495035 
L 397.184093 218.559464 
L 397.454503 218.623786 
L 397.617401 219.432883 
L 397.780298 219.496421 
L 397.943195 218.688 
L 398.106093 218.752107 
L 398.26899 218.816107 
L 398.431888 219.623179 
L 398.487273 219.623179 
L 398.487273 219.623179 
" style="fill:none;stroke:#1f77b4;stroke-linecap:square;stroke-width:1.5;"/>
   </g>
   <g id="patch_3">
    <path d="M 57.6 307.584 
L 57.6 41.472 
" style="fill:none;stroke:#000000;stroke-linecap:square;stroke-linejoin:miter;stroke-width:0.8;"/>
   </g>
   <g id="patch_4">
    <path d="M 414.72 307.584 
L 414.72 41.472 
" style="fill:none;stroke:#000000;stroke-linecap:square;stroke-linejoin:miter;stroke-width:0.8;"/>
   </g>
   <g id="patch_5">
    <path d="M 57.6 307.584 
L 414.72 307.584 
" style="fill:none;stroke:#000000;stroke-linecap:square;stroke-linejoin:miter;stroke-width:0.8;"/>
   </g>
   <g id="patch_6">
    <path d="M 57.6 41.472 
L 414.72 41.472 
" style="fill:none;stroke:#000000;stroke-linecap:square;stroke-linejoin:miter;stroke-width:0.8;"/>
   </g>
   <g id="text_17">
    <!-- Speed function of time -->
    <g transform="translate(167.024063 35.472)scale(0.12 -0.12)">
     <defs>
      <path id="DejaVuSerif-32"/>
      <path d="M 43.015625 63.71875 
L 38.28125 63.71875 
Q 38.234375 67.390625 36.203125 69.28125 
Q 34.1875 71.1875 30.328125 71.1875 
Q 25.296875 71.1875 23.234375 68.421875 
Q 21.1875 65.671875 21.1875 58.59375 
L 21.1875 51.90625 
L 35.6875 51.90625 
L 35.6875 46.6875 
L 21.1875 46.6875 
L 21.1875 5.171875 
L 32.71875 5.171875 
L 32.71875 0 
L 3.609375 0 
L 3.609375 5.171875 
L 12.203125 5.171875 
L 12.203125 46.6875 
L 3.609375 46.6875 
L 3.609375 51.90625 
L 12.203125 51.90625 
L 12.203125 58.40625 
Q 12.203125 67.09375 16.71875 71.53125 
Q 21.234375 75.984375 29.984375 75.984375 
Q 33.25 75.984375 36.515625 75.390625 
Q 39.796875 74.8125 43.015625 73.578125 
z
" id="DejaVuSerif-102"/>
      <path d="M 35.40625 51.90625 
L 52.203125 51.90625 
L 52.203125 5.171875 
L 60.6875 5.171875 
L 60.6875 0 
L 43.21875 0 
L 43.21875 9.1875 
Q 40.71875 4 36.765625 1.28125 
Q 32.8125 -1.421875 27.59375 -1.421875 
Q 18.953125 -1.421875 14.875 3.484375 
Q 10.796875 8.40625 10.796875 18.890625 
L 10.796875 46.6875 
L 2.6875 46.6875 
L 2.6875 51.90625 
L 19.828125 51.90625 
L 19.828125 21.6875 
Q 19.828125 12.203125 22.140625 8.6875 
Q 24.46875 5.171875 30.421875 5.171875 
Q 36.671875 5.171875 39.9375 9.765625 
Q 43.21875 14.359375 43.21875 23.09375 
L 43.21875 46.6875 
L 35.40625 46.6875 
z
" id="DejaVuSerif-117"/>
      <path d="M 4.109375 0 
L 4.109375 5.171875 
L 12.203125 5.171875 
L 12.203125 46.6875 
L 3.609375 46.6875 
L 3.609375 51.90625 
L 21.1875 51.90625 
L 21.1875 42.671875 
Q 23.6875 47.953125 27.65625 50.640625 
Q 31.640625 53.328125 36.921875 53.328125 
Q 45.515625 53.328125 49.5625 48.390625 
Q 53.609375 43.453125 53.609375 33.015625 
L 53.609375 5.171875 
L 61.625 5.171875 
L 61.625 0 
L 36.8125 0 
L 36.8125 5.171875 
L 44.578125 5.171875 
L 44.578125 30.171875 
Q 44.578125 39.703125 42.234375 43.234375 
Q 39.890625 46.78125 33.984375 46.78125 
Q 27.734375 46.78125 24.453125 42.203125 
Q 21.1875 37.640625 21.1875 28.90625 
L 21.1875 5.171875 
L 29 5.171875 
L 29 0 
z
" id="DejaVuSerif-110"/>
      <path d="M 51.421875 15.578125 
Q 49.515625 7.28125 44.09375 2.921875 
Q 38.671875 -1.421875 30.078125 -1.421875 
Q 18.75 -1.421875 11.859375 6.078125 
Q 4.984375 13.578125 4.984375 25.984375 
Q 4.984375 38.421875 11.859375 45.875 
Q 18.75 53.328125 30.078125 53.328125 
Q 35.015625 53.328125 39.890625 52.171875 
Q 44.78125 51.03125 49.703125 48.6875 
L 49.703125 35.40625 
L 44.484375 35.40625 
Q 43.453125 42.234375 40.015625 45.359375 
Q 36.578125 48.484375 30.171875 48.484375 
Q 22.90625 48.484375 19.1875 42.84375 
Q 15.484375 37.203125 15.484375 25.984375 
Q 15.484375 14.75 19.171875 9.078125 
Q 22.859375 3.421875 30.171875 3.421875 
Q 35.984375 3.421875 39.453125 6.4375 
Q 42.921875 9.46875 44.1875 15.578125 
z
" id="DejaVuSerif-99"/>
      <path d="M 10.796875 46.6875 
L 2.875 46.6875 
L 2.875 51.90625 
L 10.796875 51.90625 
L 10.796875 68.015625 
L 19.828125 68.015625 
L 19.828125 51.90625 
L 36.71875 51.90625 
L 36.71875 46.6875 
L 19.828125 46.6875 
L 19.828125 13.71875 
Q 19.828125 7.125 21.09375 5.265625 
Q 22.359375 3.421875 25.78125 3.421875 
Q 29.296875 3.421875 30.90625 5.484375 
Q 32.515625 7.5625 32.625 12.203125 
L 39.40625 12.203125 
Q 39.015625 5.125 35.546875 1.84375 
Q 32.078125 -1.421875 25 -1.421875 
Q 17.234375 -1.421875 14.015625 2.015625 
Q 10.796875 5.46875 10.796875 13.71875 
z
" id="DejaVuSerif-116"/>
      <path d="M 30.078125 3.421875 
Q 37.3125 3.421875 40.984375 9.125 
Q 44.671875 14.84375 44.671875 25.984375 
Q 44.671875 37.109375 40.984375 42.796875 
Q 37.3125 48.484375 30.078125 48.484375 
Q 22.859375 48.484375 19.171875 42.796875 
Q 15.484375 37.109375 15.484375 25.984375 
Q 15.484375 14.84375 19.1875 9.125 
Q 22.90625 3.421875 30.078125 3.421875 
z
M 30.078125 -1.421875 
Q 18.75 -1.421875 11.859375 6.078125 
Q 4.984375 13.578125 4.984375 25.984375 
Q 4.984375 38.375 11.84375 45.84375 
Q 18.703125 53.328125 30.078125 53.328125 
Q 41.453125 53.328125 48.3125 45.84375 
Q 55.171875 38.375 55.171875 25.984375 
Q 55.171875 13.578125 48.3125 6.078125 
Q 41.453125 -1.421875 30.078125 -1.421875 
z
" id="DejaVuSerif-111"/>
     </defs>
     <use xlink:href="#DejaVuSerif-83"/>
     <use x="68.505859" xlink:href="#DejaVuSerif-112"/>
     <use x="132.519531" xlink:href="#DejaVuSerif-101"/>
     <use x="191.699219" xlink:href="#DejaVuSerif-101"/>
     <use x="250.878906" xlink:href="#DejaVuSerif-100"/>
     <use x="314.892578" xlink:href="#DejaVuSerif-32"/>
     <use x="346.679688" xlink:href="#DejaVuSerif-102"/>
     <use x="383.691406" xlink:href="#DejaVuSerif-117"/>
     <use x="448.095703" xlink:href="#DejaVuSerif-110"/>
     <use x="512.5" xlink:href="#DejaVuSerif-99"/>
     <use x="568.505859" xlink:href="#DejaVuSerif-116"/>
     <use x="608.691406" xlink:href="#DejaVuSerif-105"/>
     <use x="640.673828" xlink:href="#DejaVuSerif-111"/>
     <use x="700.878906" xlink:href="#DejaVuSerif-110"/>
     <use x="765.283203" xlink:href="#DejaVuSerif-32"/>
     <use x="797.070312" xlink:href="#DejaVuSerif-111"/>
     <use x="857.275391" xlink:href="#DejaVuSerif-102"/>
     <use x="894.287109" xlink:href="#DejaVuSerif-32"/>
     <use x="926.074219" xlink:href="#DejaVuSerif-116"/>
     <use x="966.259766" xlink:href="#DejaVuSerif-105"/>
     <use x="998.242188" xlink:href="#DejaVuSerif-109"/>
     <use x="1093.066406" xlink:href="#DejaVuSerif-101"/>
    </g>
   </g>
  </g>
 </g>
 <defs>
  <clipPath id="pf438149ed4">
   <rect height="266.112" width="357.12" x="57.6" y="41.472"/>
  </clipPath>
 </defs>
</svg>
