<?xml version="1.0" encoding="UTF-8" standalone="no"?>
<!-- Created with matplotlib (https://matplotlib.org/) -->

<svg
   height="325pt"
   version="1.1"
   viewBox="0 0 390.8 324.99999"
   width="390.79999pt"
   id="svg522"
   sodipodi:docname="zygote_c_0.75.svg"
   inkscape:version="1.2.1 (0f2f062aeb, 2022-09-21, custom)"
   inkscape:export-filename="../218b2c5e/zygote_c_0.75.png"
   inkscape:export-xdpi="150"
   inkscape:export-ydpi="150"
   xmlns:inkscape="http://www.inkscape.org/namespaces/inkscape"
   xmlns:sodipodi="http://sodipodi.sourceforge.net/DTD/sodipodi-0.dtd"
   xmlns:xlink="http://www.w3.org/1999/xlink"
   xmlns="http://www.w3.org/2000/svg"
   xmlns:svg="http://www.w3.org/2000/svg"
   xmlns:rdf="http://www.w3.org/1999/02/22-rdf-syntax-ns#"
   xmlns:cc="http://creativecommons.org/ns#"
   xmlns:dc="http://purl.org/dc/elements/1.1/">
  <sodipodi:namedview
     id="namedview524"
     pagecolor="#ffffff"
     bordercolor="#666666"
     borderopacity="1.0"
     inkscape:showpageshadow="2"
     inkscape:pageopacity="0.0"
     inkscape:pagecheckerboard="0"
     inkscape:deskcolor="#d1d1d1"
     inkscape:document-units="pt"
     showgrid="false"
     inkscape:zoom="1.8222318"
     inkscape:cx="334.20556"
     inkscape:cy="194.54166"
     inkscape:window-width="1853"
     inkscape:window-height="1018"
     inkscape:window-x="67"
     inkscape:window-y="34"
     inkscape:window-maximized="1"
     inkscape:current-layer="g8412" />
  <metadata
     id="metadata148">
    <rdf:RDF>
      <cc:Work>
        <dc:type
           rdf:resource="http://purl.org/dc/dcmitype/StillImage" />
        <dc:date>2022-10-05T21:03:43.548715</dc:date>
        <dc:format>image/svg+xml</dc:format>
        <dc:creator>
          <cc:Agent>
            <dc:title>Matplotlib v3.3.4, https://matplotlib.org/</dc:title>
          </cc:Agent>
        </dc:creator>
      </cc:Work>
    </rdf:RDF>
  </metadata>
  <defs
     id="defs152">
    <style
       type="text/css"
       id="style150">*{stroke-linecap:butt;stroke-linejoin:round;}</style>
    <clipPath
       clipPathUnits="userSpaceOnUse"
       id="clipPath8406">
      <g
         id="g8410"
         transform="scale(0.99999998,-0.99999998)">
        <rect
           height="275.32001"
           width="275.32001"
           x="92.739998"
           y="26.16"
           id="rect8408" />
      </g>
    </clipPath>
  </defs>
  <g
     id="patch_1" />
  <g
     id="axes_1"
     transform="translate(-19.5,-19.5)">
    <g
       id="patch_2">
      <path
         d="M 92.74,301.48 H 368.06 V 26.16 H 92.74 Z"
         style="fill:#ffffff"
         id="path157" />
    </g>
    <g
       id="g8412">
      <path
         style="fill:#7ab552;fill-opacity:0.63529414;stroke:#000000;stroke-width:0.72;stroke-opacity:1"
         d="m 211.13621,30.570873 c 0.20956,2.673 0.70236,10.368 1.09512,17.1 0.39276,6.732 1.02498,16.938 1.40493,22.68001 0.37995,5.742 1.17803,17.892 1.77351,27 0.59547,9.107987 1.42338,21.419987 1.83979,27.359987 0.41641,5.94 1.22259,17.604 1.7915,25.92 1.73746,25.39736 3.18138,45.61347 3.95977,55.44001 0.40778,5.148 1.21582,15.678 1.79563,23.4 0.5798,7.722 1.39378,18.252 1.80883,23.4 1.09818,13.6209 2.84798,35.80014 3.36561,42.66 l 0.44822,5.94 h 35.36661 35.36661 l 3.14188,-16.38 c 16.48532,-85.94531 37.72052,-171.52867 59.80261,-241.020007 2.39089,-7.524 4.34736,-14.733 4.34774,-16.02 l 6.7e-4,-2.34 h -78.84503 -78.84503 z"
         id="path8420" />
      <path
         style="fill:#bacefe;stroke:#000000;stroke-width:0.72;stroke-opacity:1"
         d="m 363.52253,46.060001 c -22.19832,70.486519 -41.56744,148.590419 -58.77251,236.993779 -1.76551,9.07157 -3.21001,16.92857 -3.21001,17.46 0,0.79445 5.95207,0.96623 33.48,0.96623 h 33.48 v -135 c 0,-74.250008 -0.0868,-135.00001 -0.1929,-135.00001 -0.1061,0 -2.25916,6.561 -4.78458,14.580001 z"
         id="path8418" />
      <path
         style="fill:#fe8a8a;stroke:#000000;stroke-width:0.72;stroke-opacity:1"
         d="M 92.739998,163.6 V 301.48001 H 161.593 230.446 l -0.45154,-4.14 c -0.24834,-2.277 -0.94494,-10.458 -1.54799,-18.18 -0.60305,-7.722 -1.42148,-18.09 -1.81875,-23.04 -0.39727,-4.95 -1.19669,-15.318 -1.77649,-23.04 -0.57981,-7.722 -1.38792,-18.252 -1.7958,-23.4 -0.75213,-9.49283 -2.01158,-27.02902 -3.95587,-55.08001 -0.59012,-8.514 -1.39663,-20.016 -1.79224,-25.56 -0.3956,-5.544 -1.20876,-17.694 -1.80702,-27 -0.59825,-9.305998 -1.41582,-21.617998 -1.81681,-27.359998 C 212.80436,62.091449 210.84712,29.605408 210.83131,27.34 L 210.82,25.72 H 151.78 92.739998 Z"
         id="path8416" />
    </g>
    <g
       id="matplotlib.axis_1">
      <g
         id="xtick_1">
        <g
           id="line2d_1">
          <defs
             id="defs164">
            <path
               d="M 0,0 V 3.5"
               id="m251e2c3cca"
               style="stroke:#000000;stroke-width:0.8" />
          </defs>
          <g
             id="g168">
            <use
               style="stroke:#000000;stroke-width:0.8"
               x="92.877594"
               xlink:href="#m251e2c3cca"
               y="301.48001"
               id="use166" />
          </g>
        </g>
        <g
           id="text_1">
          <!-- 0.0 -->
          <g
             transform="matrix(0.1,0,0,-0.1,84.926029,316.07844)"
             id="g181">
            <defs
               id="defs173">
              <path
                 d="m 31.78125,3.421875 q 7.484375,0 11.1875,8.203125 3.71875,8.203125 3.71875,24.75 0,16.609375 -3.71875,24.8125 -3.703125,8.203125 -11.1875,8.203125 -7.46875,0 -11.1875,-8.203125 -3.703125,-8.203125 -3.703125,-24.8125 0,-16.546875 3.703125,-24.75 3.71875,-8.203125 11.1875,-8.203125 z m 0,-4.84375 Q 19.921875,-1.421875 13.25,8.53125 6.59375,18.5 6.59375,36.375 q 0,17.921875 6.65625,27.875 6.671875,9.96875 18.53125,9.96875 11.921875,0 18.5625,-9.96875 6.640625,-9.953125 6.640625,-27.875 0,-17.875 -6.640625,-27.84375 -6.640625,-9.953125 -18.5625,-9.953125 z"
                 id="DejaVuSerif-48" />
              <path
                 d="m 9.421875,5.078125 q 0,2.734375 1.859375,4.640625 1.859375,1.90625 4.640625,1.90625 2.6875,0 4.578125,-1.90625 1.90625,-1.90625 1.90625,-4.640625 0,-2.6875 -1.90625,-4.59375 -1.890625,-1.90625 -4.578125,-1.90625 -2.78125,0 -4.640625,1.875 -1.859375,1.890625 -1.859375,4.625 z"
                 id="DejaVuSerif-46" />
            </defs>
            <use
               xlink:href="#DejaVuSerif-48"
               id="use175" />
            <use
               x="63.623047"
               xlink:href="#DejaVuSerif-46"
               id="use177" />
            <use
               x="95.410156"
               xlink:href="#DejaVuSerif-48"
               id="use179" />
          </g>
        </g>
      </g>
      <g
         id="xtick_2">
        <g
           id="line2d_2">
          <g
             id="g187">
            <use
               style="stroke:#000000;stroke-width:0.8"
               x="161.67319"
               xlink:href="#m251e2c3cca"
               y="301.48001"
               id="use185" />
          </g>
        </g>
        <g
           id="text_2">
          <!-- 0.25 -->
          <g
             transform="matrix(0.1,0,0,-0.1,150.54038,316.07844)"
             id="g202">
            <defs
               id="defs192">
              <path
                 d="M 12.796875,55.515625 H 7.328125 V 68.5 q 5.21875,2.796875 10.515625,4.25 5.296875,1.46875 10.375,1.46875 11.375,0 17.96875,-5.515625 6.59375,-5.515625 6.59375,-14.984375 0,-10.703125 -14.9375,-25.59375 Q 36.671875,27 36.078125,26.421875 L 17.671875,8.015625 H 48.09375 V 17 H 53.8125 V 0 H 6.78125 v 5.328125 l 22.125,22.0625 q 7.328125,7.328125 10.453125,13.453125 3.125,6.125 3.125,12.875 0,7.359375 -3.84375,11.515625 -3.828125,4.15625 -10.5625,4.15625 -6.984375,0 -10.796875,-3.46875 -3.796875,-3.46875 -4.484375,-10.40625 z"
                 id="DejaVuSerif-50" />
              <path
                 d="M 50.296875,72.90625 V 64.890625 H 16.890625 V 44 q 2.546875,1.75 5.9375,2.625 3.390625,0.890625 7.59375,0.890625 11.8125,0 18.640625,-6.546875 6.84375,-6.546875 6.84375,-17.875 0,-11.5625 -6.90625,-18.046875 -6.90625,-6.46875 -19.40625,-6.46875 -5.03125,0 -10.3125,1.234375 Q 14.015625,1.03125 8.5,3.515625 v 14.15625 h 5.515625 q 0.4375,-6.921875 4.40625,-10.59375 3.984375,-3.65625 11.171875,-3.65625 7.71875,0 11.859375,5.078125 4.15625,5.078125 4.15625,14.59375 0,9.46875 -4.125,14.515625 -4.125,5.0625 -11.890625,5.0625 -4.390625,0 -7.75,-1.5625 Q 18.5,39.546875 15.921875,36.28125 H 11.71875 v 36.625 z"
                 id="DejaVuSerif-53" />
            </defs>
            <use
               xlink:href="#DejaVuSerif-48"
               id="use194" />
            <use
               x="63.623047"
               xlink:href="#DejaVuSerif-46"
               id="use196" />
            <use
               x="95.410156"
               xlink:href="#DejaVuSerif-50"
               id="use198" />
            <use
               x="159.0332"
               xlink:href="#DejaVuSerif-53"
               id="use200" />
          </g>
        </g>
      </g>
      <g
         id="xtick_3">
        <g
           id="line2d_3">
          <g
             id="g208">
            <use
               style="stroke:#000000;stroke-width:0.8"
               x="230.4688"
               xlink:href="#m251e2c3cca"
               y="301.48001"
               id="use206" />
          </g>
        </g>
        <g
           id="text_3">
          <!-- 0.5 -->
          <g
             transform="matrix(0.1,0,0,-0.1,222.51723,316.07844)"
             id="g217">
            <use
               xlink:href="#DejaVuSerif-48"
               id="use211" />
            <use
               x="63.623047"
               xlink:href="#DejaVuSerif-46"
               id="use213" />
            <use
               x="95.410156"
               xlink:href="#DejaVuSerif-53"
               id="use215" />
          </g>
        </g>
      </g>
      <g
         id="xtick_4">
        <g
           id="line2d_4">
          <g
             id="g223">
            <use
               style="stroke:#000000;stroke-width:0.8"
               x="299.2644"
               xlink:href="#m251e2c3cca"
               y="301.48001"
               id="use221" />
          </g>
        </g>
        <g
           id="text_4">
          <!-- 0.75 -->
          <g
             transform="matrix(0.1,0,0,-0.1,288.13158,316.07844)"
             id="g237">
            <defs
               id="defs227">
              <path
                 d="M 56.390625,67.921875 27.875,0 h -7.265625 l 27.1875,64.890625 h -33.6875 V 55.90625 H 8.40625 v 17 h 47.984375 z"
                 id="DejaVuSerif-55" />
            </defs>
            <use
               xlink:href="#DejaVuSerif-48"
               id="use229" />
            <use
               x="63.623047"
               xlink:href="#DejaVuSerif-46"
               id="use231" />
            <use
               x="95.410156"
               xlink:href="#DejaVuSerif-55"
               id="use233" />
            <use
               x="159.0332"
               xlink:href="#DejaVuSerif-53"
               id="use235" />
          </g>
        </g>
      </g>
      <g
         id="xtick_5">
        <g
           id="line2d_5">
          <g
             id="g243">
            <use
               style="stroke:#000000;stroke-width:0.8"
               x="368.06"
               xlink:href="#m251e2c3cca"
               y="301.48001"
               id="use241" />
          </g>
        </g>
        <g
           id="text_5">
          <!-- 1.0 -->
          <g
             transform="matrix(0.1,0,0,-0.1,360.10844,316.07844)"
             id="g255">
            <defs
               id="defs247">
              <path
                 d="M 14.203125,0 V 5.171875 H 26.90625 v 60.65625 l -14.703125,-9.53125 v 6.40625 L 29.984375,74.21875 H 36.71875 V 5.171875 H 49.421875 V 0 Z"
                 id="DejaVuSerif-49" />
            </defs>
            <use
               xlink:href="#DejaVuSerif-49"
               id="use249" />
            <use
               x="63.623047"
               xlink:href="#DejaVuSerif-46"
               id="use251" />
            <use
               x="95.410156"
               xlink:href="#DejaVuSerif-48"
               id="use253" />
          </g>
        </g>
      </g>
      <g
         id="text_6">
        <!-- s (fitness disadvantage for drive) -->
      </g>
    </g>
    <g
       id="matplotlib.axis_2">
      <g
         id="ytick_1">
        <g
           id="line2d_6">
          <defs
             id="defs349">
            <path
               d="M 0,0 H -3.5"
               id="m2055af13f5"
               style="stroke:#000000;stroke-width:0.8" />
          </defs>
          <g
             id="g353">
            <use
               style="stroke:#000000;stroke-width:0.8"
               x="92.739998"
               xlink:href="#m2055af13f5"
               y="301.34241"
               id="use351" />
          </g>
        </g>
        <g
           id="text_7">
          <!-- 0.0 -->
          <g
             transform="matrix(0.1,0,0,-0.1,69.836875,305.14163)"
             id="g362">
            <use
               xlink:href="#DejaVuSerif-48"
               id="use356" />
            <use
               x="63.623047"
               xlink:href="#DejaVuSerif-46"
               id="use358" />
            <use
               x="95.410156"
               xlink:href="#DejaVuSerif-48"
               id="use360" />
          </g>
        </g>
      </g>
      <g
         id="ytick_2">
        <g
           id="line2d_7">
          <g
             id="g368">
            <use
               style="stroke:#000000;stroke-width:0.8"
               x="92.739998"
               xlink:href="#m2055af13f5"
               y="232.54681"
               id="use366" />
          </g>
        </g>
        <g
           id="text_8">
          <!-- 0.25 -->
          <g
             transform="matrix(0.1,0,0,-0.1,63.474375,236.34602)"
             id="g379">
            <use
               xlink:href="#DejaVuSerif-48"
               id="use371" />
            <use
               x="63.623047"
               xlink:href="#DejaVuSerif-46"
               id="use373" />
            <use
               x="95.410156"
               xlink:href="#DejaVuSerif-50"
               id="use375" />
            <use
               x="159.0332"
               xlink:href="#DejaVuSerif-53"
               id="use377" />
          </g>
        </g>
      </g>
      <g
         id="ytick_3">
        <g
           id="line2d_8">
          <g
             id="g385">
            <use
               style="stroke:#000000;stroke-width:0.8"
               x="92.739998"
               xlink:href="#m2055af13f5"
               y="163.75121"
               id="use383" />
          </g>
        </g>
        <g
           id="text_9">
          <!-- 0.5 -->
          <g
             transform="matrix(0.1,0,0,-0.1,69.836875,167.55042)"
             id="g394">
            <use
               xlink:href="#DejaVuSerif-48"
               id="use388" />
            <use
               x="63.623047"
               xlink:href="#DejaVuSerif-46"
               id="use390" />
            <use
               x="95.410156"
               xlink:href="#DejaVuSerif-53"
               id="use392" />
          </g>
        </g>
      </g>
      <g
         id="ytick_4">
        <g
           id="line2d_9">
          <g
             id="g400">
            <use
               style="stroke:#000000;stroke-width:0.8"
               x="92.739998"
               xlink:href="#m2055af13f5"
               y="94.955605"
               id="use398" />
          </g>
        </g>
        <g
           id="text_10">
          <!-- 0.75 -->
          <g
             transform="matrix(0.1,0,0,-0.1,63.474375,98.754821)"
             id="g411">
            <use
               xlink:href="#DejaVuSerif-48"
               id="use403" />
            <use
               x="63.623047"
               xlink:href="#DejaVuSerif-46"
               id="use405" />
            <use
               x="95.410156"
               xlink:href="#DejaVuSerif-55"
               id="use407" />
            <use
               x="159.0332"
               xlink:href="#DejaVuSerif-53"
               id="use409" />
          </g>
        </g>
      </g>
      <g
         id="ytick_5">
        <g
           id="line2d_10">
          <g
             id="g417">
            <use
               style="stroke:#000000;stroke-width:0.8"
               x="92.739998"
               xlink:href="#m2055af13f5"
               y="26.16"
               id="use415" />
          </g>
        </g>
        <g
           id="text_11">
          <!-- 1.0 -->
          <g
             transform="matrix(0.1,0,0,-0.1,69.836875,29.959219)"
             id="g426">
            <use
               xlink:href="#DejaVuSerif-49"
               id="use420" />
            <use
               x="63.623047"
               xlink:href="#DejaVuSerif-46"
               id="use422" />
            <use
               x="95.410156"
               xlink:href="#DejaVuSerif-48"
               id="use424" />
          </g>
        </g>
      </g>
      <g
         id="text_12">
        <!-- h (dominance) -->
      </g>
    </g>
    <g
       id="patch_3">
      <path
         d="M 92.74,301.48 V 26.16"
         style="fill:none;stroke:#000000;stroke-width:0.8;stroke-linecap:square;stroke-linejoin:miter"
         id="path465" />
    </g>
    <g
       id="patch_4"
       transform="translate(0.05684137,0.03785441)">
      <path
         d="M 368.40216,301.48 V 26.16"
         style="fill:none;stroke:#000000;stroke-width:0.8;stroke-linecap:square;stroke-linejoin:miter"
         id="path468" />
    </g>
    <g
       id="patch_5">
      <path
         d="M 92.74,301.48 H 368.06"
         style="fill:none;stroke:#000000;stroke-width:0.8;stroke-linecap:square;stroke-linejoin:miter"
         id="path471" />
    </g>
    <g
       id="patch_6">
      <path
         d="M 92.74,26.16 H 368.06"
         style="fill:none;stroke:#000000;stroke-width:0.8;stroke-linecap:square;stroke-linejoin:miter"
         id="path474" />
    </g>
    <g
       id="text_13">
      <!-- zygote c = 0.75 -->
    </g>
  </g>
  <text
     xml:space="preserve"
     style="font-size:14px;line-height:1.25;font-family:Sawasdee;-inkscape-font-specification:Sawasdee;stroke-width:0.75;stroke-linecap:butt;stroke-linejoin:round"
     x="318.12393"
     y="232.74844"
     id="text14384-0-3-7-3-7-3"><tspan
       sodipodi:role="line"
       style="font-size:14px;text-align:center;text-anchor:middle;stroke-width:0.75"
       x="318.12393"
       y="232.74844"
       id="tspan45328">Mono-</tspan><tspan
       sodipodi:role="line"
       style="font-size:14px;text-align:center;text-anchor:middle;stroke-width:0.75"
       x="318.12393"
       y="250.24844"
       id="tspan46108">stable</tspan><tspan
       sodipodi:role="line"
       style="font-size:14px;text-align:center;text-anchor:middle;stroke-width:0.75"
       x="318.12393"
       y="267.74844"
       id="tspan2381-6">Wild-type</tspan></text>
  <defs
     id="defs520" />
  <text
     xml:space="preserve"
     style="font-size:16px;line-height:1.25;font-family:Sawasdee;-inkscape-font-specification:Sawasdee;stroke-width:0.75;stroke-linecap:butt;stroke-linejoin:round"
     x="259.85461"
     y="108.80995"
     id="text14384-0-3-7-3-7-27"><tspan
       sodipodi:role="line"
       style="font-size:16px;text-align:center;text-anchor:middle;stroke-width:0.75"
       x="259.85461"
       y="108.80995"
       id="tspan2381-9">Bistability</tspan></text>
  <text
     xml:space="preserve"
     style="font-size:16px;line-height:1.25;font-family:Sawasdee;-inkscape-font-specification:Sawasdee;stroke-width:0.75;stroke-linecap:butt;stroke-linejoin:round"
     x="133.58766"
     y="146.13321"
     id="text14384-0-3-7-3-7"><tspan
       sodipodi:role="line"
       id="tspan14382-6-5-5-6-5"
       style="font-size:16px;text-align:center;text-anchor:middle;stroke-width:0.75"
       x="133.58766"
       y="146.13321">Monostable</tspan><tspan
       sodipodi:role="line"
       style="font-size:16px;text-align:center;text-anchor:middle;stroke-width:0.75"
       x="133.58766"
       y="166.13321"
       id="tspan2381">Drive</tspan></text>
  <text
     xml:space="preserve"
     style="font-size:16px;line-height:1.25;font-family:Sawasdee;-inkscape-font-specification:Sawasdee;stroke-width:0.75;stroke-linecap:butt;stroke-linejoin:round"
     x="-196.12015"
     y="35.975029"
     id="text14384-0-3-7"
     transform="rotate(-90)"
     inkscape:transform-center-x="26.29847"
     inkscape:transform-center-y="1.1101773"><tspan
       sodipodi:role="line"
       id="tspan14382-6-5-5"
       style="font-size:16px;stroke-width:0.75"
       x="-196.12015"
       y="35.975029">h (dominance)</tspan></text>
  <text
     xml:space="preserve"
     style="font-size:16px;line-height:1.25;font-family:Sawasdee;-inkscape-font-specification:Sawasdee;stroke-width:0.75;stroke-linecap:butt;stroke-linejoin:round"
     x="98.225067"
     y="318.14682"
     id="text14384-0-3-7-3"><tspan
       sodipodi:role="line"
       id="tspan14382-6-5-5-6"
       style="font-size:16px;stroke-width:0.75"
       x="98.225067"
       y="318.14682">s (fitness disadvantage for drive)</tspan></text>
  <path
     style="fill:none;stroke:#000000;stroke-width:0.75px;stroke-linecap:butt;stroke-linejoin:miter;stroke-dasharray:2.25, 2.25;stroke-dashoffset:0;stroke-opacity:1"
     d="M 74.331656,254.9668 349.94538,254.60554"
     id="path4201" />
  <text
     xml:space="preserve"
     style="font-size:8px;line-height:1.25;font-family:serif;-inkscape-font-specification:serif;stroke-width:0.75;stroke-linecap:butt;stroke-linejoin:round"
     x="57.257492"
     y="257.8511"
     id="text1491"><tspan
       sodipodi:role="line"
       id="tspan1489"
       style="font-size:8px;stroke-width:0.75"
       x="57.257492"
       y="257.8511">0.1</tspan></text>
</svg>
