<?xml version="1.0" encoding="utf-8" standalone="no"?>
<!DOCTYPE svg PUBLIC "-//W3C//DTD SVG 1.1//EN"
  "http://www.w3.org/Graphics/SVG/1.1/DTD/svg11.dtd">
<!-- Created with matplotlib (https://matplotlib.org/) -->
<svg height="345.6pt" version="1.1" viewBox="0 0 460.8 345.6" width="460.8pt" xmlns="http://www.w3.org/2000/svg" xmlns:xlink="http://www.w3.org/1999/xlink">
 <metadata>
  <rdf:RDF xmlns:cc="http://creativecommons.org/ns#" xmlns:dc="http://purl.org/dc/elements/1.1/" xmlns:rdf="http://www.w3.org/1999/02/22-rdf-syntax-ns#">
   <cc:Work>
    <dc:type rdf:resource="http://purl.org/dc/dcmitype/StillImage"/>
    <dc:date>2023-01-11T04:27:31.497214</dc:date>
    <dc:format>image/svg+xml</dc:format>
    <dc:creator>
     <cc:Agent>
      <dc:title>Matplotlib v3.3.4, https://matplotlib.org/</dc:title>
     </cc:Agent>
    </dc:creator>
   </cc:Work>
  </rdf:RDF>
 </metadata>
 <defs>
  <style type="text/css">*{stroke-linecap:butt;stroke-linejoin:round;}</style>
 </defs>
 <g id="figure_1">
  <g id="patch_1">
   <path d="M 0 345.6 
L 460.8 345.6 
L 460.8 0 
L 0 0 
z
" style="fill:#ffffff;"/>
  </g>
  <g id="axes_1">
   <g id="patch_2">
    <path d="M 57.6 307.584 
L 414.72 307.584 
L 414.72 41.472 
L 57.6 41.472 
z
" style="fill:#ffffff;"/>
   </g>
   <g id="matplotlib.axis_1">
    <g id="xtick_1">
     <g id="line2d_1">
      <defs>
       <path d="M 0 0 
L 0 3.5 
" id="md676965357" style="stroke:#000000;stroke-width:0.8;"/>
      </defs>
      <g>
       <use style="stroke:#000000;stroke-width:0.8;" x="71.544125" xlink:href="#md676965357" y="307.584"/>
      </g>
     </g>
     <g id="text_1">
      <!-- 0 -->
      <g transform="translate(68.362875 322.182437)scale(0.1 -0.1)">
       <defs>
        <path d="M 31.78125 3.421875 
Q 39.265625 3.421875 42.96875 11.625 
Q 46.6875 19.828125 46.6875 36.375 
Q 46.6875 52.984375 42.96875 61.1875 
Q 39.265625 69.390625 31.78125 69.390625 
Q 24.3125 69.390625 20.59375 61.1875 
Q 16.890625 52.984375 16.890625 36.375 
Q 16.890625 19.828125 20.59375 11.625 
Q 24.3125 3.421875 31.78125 3.421875 
z
M 31.78125 -1.421875 
Q 19.921875 -1.421875 13.25 8.53125 
Q 6.59375 18.5 6.59375 36.375 
Q 6.59375 54.296875 13.25 64.25 
Q 19.921875 74.21875 31.78125 74.21875 
Q 43.703125 74.21875 50.34375 64.25 
Q 56.984375 54.296875 56.984375 36.375 
Q 56.984375 18.5 50.34375 8.53125 
Q 43.703125 -1.421875 31.78125 -1.421875 
z
" id="DejaVuSerif-48"/>
       </defs>
       <use xlink:href="#DejaVuSerif-48"/>
      </g>
     </g>
    </g>
    <g id="xtick_2">
     <g id="line2d_2">
      <g>
       <use style="stroke:#000000;stroke-width:0.8;" x="136.932755" xlink:href="#md676965357" y="307.584"/>
      </g>
     </g>
     <g id="text_2">
      <!-- 100 -->
      <g transform="translate(127.389005 322.182437)scale(0.1 -0.1)">
       <defs>
        <path d="M 14.203125 0 
L 14.203125 5.171875 
L 26.90625 5.171875 
L 26.90625 65.828125 
L 12.203125 56.296875 
L 12.203125 62.703125 
L 29.984375 74.21875 
L 36.71875 74.21875 
L 36.71875 5.171875 
L 49.421875 5.171875 
L 49.421875 0 
z
" id="DejaVuSerif-49"/>
       </defs>
       <use xlink:href="#DejaVuSerif-49"/>
       <use x="63.623047" xlink:href="#DejaVuSerif-48"/>
       <use x="127.246094" xlink:href="#DejaVuSerif-48"/>
      </g>
     </g>
    </g>
    <g id="xtick_3">
     <g id="line2d_3">
      <g>
       <use style="stroke:#000000;stroke-width:0.8;" x="202.321384" xlink:href="#md676965357" y="307.584"/>
      </g>
     </g>
     <g id="text_3">
      <!-- 200 -->
      <g transform="translate(192.777634 322.182437)scale(0.1 -0.1)">
       <defs>
        <path d="M 12.796875 55.515625 
L 7.328125 55.515625 
L 7.328125 68.5 
Q 12.546875 71.296875 17.84375 72.75 
Q 23.140625 74.21875 28.21875 74.21875 
Q 39.59375 74.21875 46.1875 68.703125 
Q 52.78125 63.1875 52.78125 53.71875 
Q 52.78125 43.015625 37.84375 28.125 
Q 36.671875 27 36.078125 26.421875 
L 17.671875 8.015625 
L 48.09375 8.015625 
L 48.09375 17 
L 53.8125 17 
L 53.8125 0 
L 6.78125 0 
L 6.78125 5.328125 
L 28.90625 27.390625 
Q 36.234375 34.71875 39.359375 40.84375 
Q 42.484375 46.96875 42.484375 53.71875 
Q 42.484375 61.078125 38.640625 65.234375 
Q 34.8125 69.390625 28.078125 69.390625 
Q 21.09375 69.390625 17.28125 65.921875 
Q 13.484375 62.453125 12.796875 55.515625 
z
" id="DejaVuSerif-50"/>
       </defs>
       <use xlink:href="#DejaVuSerif-50"/>
       <use x="63.623047" xlink:href="#DejaVuSerif-48"/>
       <use x="127.246094" xlink:href="#DejaVuSerif-48"/>
      </g>
     </g>
    </g>
    <g id="xtick_4">
     <g id="line2d_4">
      <g>
       <use style="stroke:#000000;stroke-width:0.8;" x="267.710014" xlink:href="#md676965357" y="307.584"/>
      </g>
     </g>
     <g id="text_4">
      <!-- 300 -->
      <g transform="translate(258.166264 322.182437)scale(0.1 -0.1)">
       <defs>
        <path d="M 9.71875 69.828125 
Q 15.4375 71.96875 20.671875 73.09375 
Q 25.921875 74.21875 30.515625 74.21875 
Q 41.21875 74.21875 47.21875 69.59375 
Q 53.21875 64.984375 53.21875 56.78125 
Q 53.21875 50.203125 49.0625 45.78125 
Q 44.921875 41.359375 37.3125 39.796875 
Q 46.296875 38.53125 51.25 33.28125 
Q 56.203125 28.03125 56.203125 19.671875 
Q 56.203125 9.46875 49.34375 4.015625 
Q 42.484375 -1.421875 29.59375 -1.421875 
Q 23.875 -1.421875 18.421875 -0.1875 
Q 12.984375 1.03125 7.625 3.515625 
L 7.625 17.671875 
L 13.09375 17.671875 
Q 13.578125 10.640625 17.828125 7.03125 
Q 22.078125 3.421875 29.78125 3.421875 
Q 37.25 3.421875 41.578125 7.734375 
Q 45.90625 12.0625 45.90625 19.578125 
Q 45.90625 28.171875 41.453125 32.59375 
Q 37.015625 37.015625 28.421875 37.015625 
L 23.78125 37.015625 
L 23.78125 42 
L 26.21875 42 
Q 34.765625 42 39.03125 45.53125 
Q 43.3125 49.078125 43.3125 56.203125 
Q 43.3125 62.59375 39.796875 65.984375 
Q 36.28125 69.390625 29.6875 69.390625 
Q 23.09375 69.390625 19.453125 66.265625 
Q 15.828125 63.140625 15.1875 56.984375 
L 9.71875 56.984375 
z
" id="DejaVuSerif-51"/>
       </defs>
       <use xlink:href="#DejaVuSerif-51"/>
       <use x="63.623047" xlink:href="#DejaVuSerif-48"/>
       <use x="127.246094" xlink:href="#DejaVuSerif-48"/>
      </g>
     </g>
    </g>
    <g id="xtick_5">
     <g id="line2d_5">
      <g>
       <use style="stroke:#000000;stroke-width:0.8;" x="333.098643" xlink:href="#md676965357" y="307.584"/>
      </g>
     </g>
     <g id="text_5">
      <!-- 400 -->
      <g transform="translate(323.554893 322.182437)scale(0.1 -0.1)">
       <defs>
        <path d="M 34.90625 24.703125 
L 34.90625 63.484375 
L 10.015625 24.703125 
z
M 56.390625 0 
L 23.1875 0 
L 23.1875 5.171875 
L 34.90625 5.171875 
L 34.90625 19.484375 
L 3.078125 19.484375 
L 3.078125 24.8125 
L 35.015625 74.21875 
L 44.671875 74.21875 
L 44.671875 24.703125 
L 58.59375 24.703125 
L 58.59375 19.484375 
L 44.671875 19.484375 
L 44.671875 5.171875 
L 56.390625 5.171875 
z
" id="DejaVuSerif-52"/>
       </defs>
       <use xlink:href="#DejaVuSerif-52"/>
       <use x="63.623047" xlink:href="#DejaVuSerif-48"/>
       <use x="127.246094" xlink:href="#DejaVuSerif-48"/>
      </g>
     </g>
    </g>
    <g id="xtick_6">
     <g id="line2d_6">
      <g>
       <use style="stroke:#000000;stroke-width:0.8;" x="398.487273" xlink:href="#md676965357" y="307.584"/>
      </g>
     </g>
     <g id="text_6">
      <!-- 500 -->
      <g transform="translate(388.943523 322.182437)scale(0.1 -0.1)">
       <defs>
        <path d="M 50.296875 72.90625 
L 50.296875 64.890625 
L 16.890625 64.890625 
L 16.890625 44 
Q 19.4375 45.75 22.828125 46.625 
Q 26.21875 47.515625 30.421875 47.515625 
Q 42.234375 47.515625 49.0625 40.96875 
Q 55.90625 34.421875 55.90625 23.09375 
Q 55.90625 11.53125 49 5.046875 
Q 42.09375 -1.421875 29.59375 -1.421875 
Q 24.5625 -1.421875 19.28125 -0.1875 
Q 14.015625 1.03125 8.5 3.515625 
L 8.5 17.671875 
L 14.015625 17.671875 
Q 14.453125 10.75 18.421875 7.078125 
Q 22.40625 3.421875 29.59375 3.421875 
Q 37.3125 3.421875 41.453125 8.5 
Q 45.609375 13.578125 45.609375 23.09375 
Q 45.609375 32.5625 41.484375 37.609375 
Q 37.359375 42.671875 29.59375 42.671875 
Q 25.203125 42.671875 21.84375 41.109375 
Q 18.5 39.546875 15.921875 36.28125 
L 11.71875 36.28125 
L 11.71875 72.90625 
z
" id="DejaVuSerif-53"/>
       </defs>
       <use xlink:href="#DejaVuSerif-53"/>
       <use x="63.623047" xlink:href="#DejaVuSerif-48"/>
       <use x="127.246094" xlink:href="#DejaVuSerif-48"/>
      </g>
     </g>
    </g>
    <g id="text_7">
     <!-- Time -->
     <g transform="translate(223.524844 335.860562)scale(0.1 -0.1)">
      <defs>
       <path d="M 19.09375 0 
L 19.09375 5.171875 
L 28.421875 5.171875 
L 28.421875 67.09375 
L 6.984375 67.09375 
L 6.984375 55.71875 
L 0.984375 55.71875 
L 0.984375 72.90625 
L 65.71875 72.90625 
L 65.71875 55.71875 
L 59.71875 55.71875 
L 59.71875 67.09375 
L 38.28125 67.09375 
L 38.28125 5.171875 
L 47.609375 5.171875 
L 47.609375 0 
z
" id="DejaVuSerif-84"/>
       <path d="M 9.71875 68.015625 
Q 9.71875 70.265625 11.34375 71.921875 
Q 12.984375 73.578125 15.28125 73.578125 
Q 17.53125 73.578125 19.15625 71.921875 
Q 20.796875 70.265625 20.796875 68.015625 
Q 20.796875 65.71875 19.1875 64.109375 
Q 17.578125 62.5 15.28125 62.5 
Q 12.984375 62.5 11.34375 64.109375 
Q 9.71875 65.71875 9.71875 68.015625 
z
M 21.1875 5.171875 
L 29.6875 5.171875 
L 29.6875 0 
L 3.609375 0 
L 3.609375 5.171875 
L 12.203125 5.171875 
L 12.203125 46.6875 
L 3.609375 46.6875 
L 3.609375 51.90625 
L 21.1875 51.90625 
z
" id="DejaVuSerif-105"/>
       <path d="M 51.8125 41.796875 
Q 54.390625 47.515625 58.421875 50.421875 
Q 62.453125 53.328125 67.828125 53.328125 
Q 75.984375 53.328125 79.984375 48.265625 
Q 83.984375 43.21875 83.984375 33.015625 
L 83.984375 5.171875 
L 92.09375 5.171875 
L 92.09375 0 
L 67.1875 0 
L 67.1875 5.171875 
L 75 5.171875 
L 75 31.984375 
Q 75 39.9375 72.65625 43.3125 
Q 70.3125 46.6875 64.890625 46.6875 
Q 58.890625 46.6875 55.734375 42.140625 
Q 52.59375 37.59375 52.59375 28.90625 
L 52.59375 5.171875 
L 60.40625 5.171875 
L 60.40625 0 
L 35.796875 0 
L 35.796875 5.171875 
L 43.609375 5.171875 
L 43.609375 32.328125 
Q 43.609375 40.09375 41.265625 43.390625 
Q 38.921875 46.6875 33.5 46.6875 
Q 27.484375 46.6875 24.328125 42.140625 
Q 21.1875 37.59375 21.1875 28.90625 
L 21.1875 5.171875 
L 29 5.171875 
L 29 0 
L 4.109375 0 
L 4.109375 5.171875 
L 12.203125 5.171875 
L 12.203125 46.78125 
L 3.609375 46.78125 
L 3.609375 51.90625 
L 21.1875 51.90625 
L 21.1875 42.671875 
Q 23.6875 47.859375 27.53125 50.59375 
Q 31.390625 53.328125 36.28125 53.328125 
Q 42.328125 53.328125 46.375 50.3125 
Q 50.4375 47.3125 51.8125 41.796875 
z
" id="DejaVuSerif-109"/>
       <path d="M 54.203125 25 
L 15.484375 25 
L 15.484375 24.609375 
Q 15.484375 14.109375 19.4375 8.765625 
Q 23.390625 3.421875 31.109375 3.421875 
Q 37.015625 3.421875 40.796875 6.515625 
Q 44.578125 9.625 46.09375 15.71875 
L 53.328125 15.71875 
Q 51.171875 7.171875 45.375 2.875 
Q 39.59375 -1.421875 30.171875 -1.421875 
Q 18.796875 -1.421875 11.890625 6.078125 
Q 4.984375 13.578125 4.984375 25.984375 
Q 4.984375 38.28125 11.765625 45.796875 
Q 18.5625 53.328125 29.59375 53.328125 
Q 41.359375 53.328125 47.65625 46.0625 
Q 53.953125 38.8125 54.203125 25 
z
M 43.609375 30.171875 
Q 43.3125 39.265625 39.765625 43.875 
Q 36.234375 48.484375 29.59375 48.484375 
Q 23.390625 48.484375 19.828125 43.84375 
Q 16.265625 39.203125 15.484375 30.171875 
z
" id="DejaVuSerif-101"/>
      </defs>
      <use xlink:href="#DejaVuSerif-84"/>
      <use x="66.699219" xlink:href="#DejaVuSerif-105"/>
      <use x="98.681641" xlink:href="#DejaVuSerif-109"/>
      <use x="193.505859" xlink:href="#DejaVuSerif-101"/>
     </g>
    </g>
   </g>
   <g id="matplotlib.axis_2">
    <g id="ytick_1">
     <g id="line2d_7">
      <defs>
       <path d="M 0 0 
L -3.5 0 
" id="mb9a1ef0811" style="stroke:#000000;stroke-width:0.8;"/>
      </defs>
      <g>
       <use style="stroke:#000000;stroke-width:0.8;" x="57.6" xlink:href="#mb9a1ef0811" y="276.606439"/>
      </g>
     </g>
     <g id="text_8">
      <!-- −0.6 -->
      <g transform="translate(26.317187 280.405658)scale(0.1 -0.1)">
       <defs>
        <path d="M 10.59375 35.296875 
L 73.1875 35.296875 
L 73.1875 27.390625 
L 10.59375 27.390625 
z
" id="DejaVuSerif-8722"/>
        <path d="M 9.421875 5.078125 
Q 9.421875 7.8125 11.28125 9.71875 
Q 13.140625 11.625 15.921875 11.625 
Q 18.609375 11.625 20.5 9.71875 
Q 22.40625 7.8125 22.40625 5.078125 
Q 22.40625 2.390625 20.5 0.484375 
Q 18.609375 -1.421875 15.921875 -1.421875 
Q 13.140625 -1.421875 11.28125 0.453125 
Q 9.421875 2.34375 9.421875 5.078125 
z
" id="DejaVuSerif-46"/>
        <path d="M 32.71875 3.421875 
Q 39.59375 3.421875 43.296875 8.46875 
Q 47.015625 13.53125 47.015625 23 
Q 47.015625 32.46875 43.296875 37.515625 
Q 39.59375 42.578125 32.71875 42.578125 
Q 25.734375 42.578125 22.0625 37.6875 
Q 18.40625 32.8125 18.40625 23.578125 
Q 18.40625 13.875 22.109375 8.640625 
Q 25.828125 3.421875 32.71875 3.421875 
z
M 16.796875 40.140625 
Q 20.125 43.796875 24.3125 45.59375 
Q 28.515625 47.40625 33.796875 47.40625 
Q 44.671875 47.40625 51 40.859375 
Q 57.328125 34.328125 57.328125 23 
Q 57.328125 11.921875 50.515625 5.25 
Q 43.703125 -1.421875 32.328125 -1.421875 
Q 19.96875 -1.421875 13.328125 7.78125 
Q 6.6875 17 6.6875 34.078125 
Q 6.6875 53.21875 14.546875 63.71875 
Q 22.40625 74.21875 36.71875 74.21875 
Q 40.578125 74.21875 44.828125 73.484375 
Q 49.078125 72.75 53.515625 71.296875 
L 53.515625 59.28125 
L 48 59.28125 
Q 47.40625 64.203125 44.234375 66.796875 
Q 41.0625 69.390625 35.6875 69.390625 
Q 26.21875 69.390625 21.578125 62.203125 
Q 16.9375 55.03125 16.796875 40.140625 
z
" id="DejaVuSerif-54"/>
       </defs>
       <use xlink:href="#DejaVuSerif-8722"/>
       <use x="83.789062" xlink:href="#DejaVuSerif-48"/>
       <use x="147.412109" xlink:href="#DejaVuSerif-46"/>
       <use x="179.199219" xlink:href="#DejaVuSerif-54"/>
      </g>
     </g>
    </g>
    <g id="ytick_2">
     <g id="line2d_8">
      <g>
       <use style="stroke:#000000;stroke-width:0.8;" x="57.6" xlink:href="#mb9a1ef0811" y="219.961756"/>
      </g>
     </g>
     <g id="text_9">
      <!-- −0.4 -->
      <g transform="translate(26.317187 223.760975)scale(0.1 -0.1)">
       <use xlink:href="#DejaVuSerif-8722"/>
       <use x="83.789062" xlink:href="#DejaVuSerif-48"/>
       <use x="147.412109" xlink:href="#DejaVuSerif-46"/>
       <use x="179.199219" xlink:href="#DejaVuSerif-52"/>
      </g>
     </g>
    </g>
    <g id="ytick_3">
     <g id="line2d_9">
      <g>
       <use style="stroke:#000000;stroke-width:0.8;" x="57.6" xlink:href="#mb9a1ef0811" y="163.317073"/>
      </g>
     </g>
     <g id="text_10">
      <!-- −0.2 -->
      <g transform="translate(26.317187 167.116292)scale(0.1 -0.1)">
       <use xlink:href="#DejaVuSerif-8722"/>
       <use x="83.789062" xlink:href="#DejaVuSerif-48"/>
       <use x="147.412109" xlink:href="#DejaVuSerif-46"/>
       <use x="179.199219" xlink:href="#DejaVuSerif-50"/>
      </g>
     </g>
    </g>
    <g id="ytick_4">
     <g id="line2d_10">
      <g>
       <use style="stroke:#000000;stroke-width:0.8;" x="57.6" xlink:href="#mb9a1ef0811" y="106.67239"/>
      </g>
     </g>
     <g id="text_11">
      <!-- 0.0 -->
      <g transform="translate(34.696875 110.471609)scale(0.1 -0.1)">
       <use xlink:href="#DejaVuSerif-48"/>
       <use x="63.623047" xlink:href="#DejaVuSerif-46"/>
       <use x="95.410156" xlink:href="#DejaVuSerif-48"/>
      </g>
     </g>
    </g>
    <g id="ytick_5">
     <g id="line2d_11">
      <g>
       <use style="stroke:#000000;stroke-width:0.8;" x="57.6" xlink:href="#mb9a1ef0811" y="50.027707"/>
      </g>
     </g>
     <g id="text_12">
      <!-- 0.2 -->
      <g transform="translate(34.696875 53.826926)scale(0.1 -0.1)">
       <use xlink:href="#DejaVuSerif-48"/>
       <use x="63.623047" xlink:href="#DejaVuSerif-46"/>
       <use x="95.410156" xlink:href="#DejaVuSerif-50"/>
      </g>
     </g>
    </g>
    <g id="text_13">
     <!-- Speed -->
     <g transform="translate(20.2375 190.273313)rotate(-90)scale(0.1 -0.1)">
      <defs>
       <path d="M 9.28125 3.515625 
L 9.28125 20.125 
L 14.890625 20.0625 
Q 15.140625 11.765625 19.703125 7.78125 
Q 24.265625 3.8125 33.59375 3.8125 
Q 42.28125 3.8125 46.84375 7.25 
Q 51.421875 10.6875 51.421875 17.28125 
Q 51.421875 22.5625 48.65625 25.390625 
Q 45.90625 28.21875 37.015625 30.90625 
L 27.390625 33.796875 
Q 16.9375 36.96875 12.671875 41.703125 
Q 8.40625 46.4375 8.40625 54.6875 
Q 8.40625 63.96875 14.984375 69.09375 
Q 21.578125 74.21875 33.5 74.21875 
Q 38.578125 74.21875 44.625 73.109375 
Q 50.6875 72.015625 57.515625 69.921875 
L 57.515625 54.390625 
L 52 54.390625 
Q 51.171875 62.109375 46.84375 65.546875 
Q 42.53125 69 33.6875 69 
Q 25.984375 69 21.953125 65.84375 
Q 17.921875 62.703125 17.921875 56.6875 
Q 17.921875 51.46875 20.9375 48.484375 
Q 23.96875 45.515625 33.796875 42.578125 
L 42.828125 39.890625 
Q 52.734375 36.921875 56.953125 32.296875 
Q 61.1875 27.6875 61.1875 19.921875 
Q 61.1875 9.328125 54.390625 3.953125 
Q 47.609375 -1.421875 34.1875 -1.421875 
Q 28.171875 -1.421875 21.9375 -0.1875 
Q 15.71875 1.03125 9.28125 3.515625 
z
" id="DejaVuSerif-83"/>
       <path d="M 20.515625 28.515625 
L 20.515625 23.390625 
Q 20.515625 14.015625 24.09375 9.109375 
Q 27.6875 4.203125 34.515625 4.203125 
Q 41.40625 4.203125 44.9375 9.71875 
Q 48.484375 15.234375 48.484375 25.984375 
Q 48.484375 36.765625 44.9375 42.234375 
Q 41.40625 47.703125 34.515625 47.703125 
Q 27.6875 47.703125 24.09375 42.765625 
Q 20.515625 37.84375 20.515625 28.515625 
z
M 11.53125 46.6875 
L 2.875 46.6875 
L 2.875 51.90625 
L 20.515625 51.90625 
L 20.515625 43.796875 
Q 23.140625 48.6875 27.21875 51 
Q 31.296875 53.328125 37.3125 53.328125 
Q 46.875 53.328125 52.921875 45.75 
Q 58.984375 38.1875 58.984375 25.984375 
Q 58.984375 13.765625 52.921875 6.171875 
Q 46.875 -1.421875 37.3125 -1.421875 
Q 31.296875 -1.421875 27.21875 0.890625 
Q 23.140625 3.21875 20.515625 8.109375 
L 20.515625 -15.578125 
L 29 -15.578125 
L 29 -20.796875 
L 2.875 -20.796875 
L 2.875 -15.578125 
L 11.53125 -15.578125 
z
" id="DejaVuSerif-112"/>
       <path d="M 52.484375 5.171875 
L 61.078125 5.171875 
L 61.078125 0 
L 43.5 0 
L 43.5 8.109375 
Q 40.875 3.21875 36.796875 0.890625 
Q 32.71875 -1.421875 26.703125 -1.421875 
Q 17.140625 -1.421875 11.0625 6.171875 
Q 4.984375 13.765625 4.984375 25.984375 
Q 4.984375 38.1875 11.03125 45.75 
Q 17.09375 53.328125 26.703125 53.328125 
Q 32.71875 53.328125 36.796875 51 
Q 40.875 48.6875 43.5 43.796875 
L 43.5 70.796875 
L 35.015625 70.796875 
L 35.015625 75.984375 
L 52.484375 75.984375 
z
M 43.5 23.390625 
L 43.5 28.515625 
Q 43.5 37.84375 39.90625 42.765625 
Q 36.328125 47.703125 29.5 47.703125 
Q 22.5625 47.703125 19.015625 42.234375 
Q 15.484375 36.765625 15.484375 25.984375 
Q 15.484375 15.234375 19.015625 9.71875 
Q 22.5625 4.203125 29.5 4.203125 
Q 36.328125 4.203125 39.90625 9.109375 
Q 43.5 14.015625 43.5 23.390625 
z
" id="DejaVuSerif-100"/>
      </defs>
      <use xlink:href="#DejaVuSerif-83"/>
      <use x="68.505859" xlink:href="#DejaVuSerif-112"/>
      <use x="132.519531" xlink:href="#DejaVuSerif-101"/>
      <use x="191.699219" xlink:href="#DejaVuSerif-101"/>
      <use x="250.878906" xlink:href="#DejaVuSerif-100"/>
     </g>
    </g>
   </g>
   <g id="line2d_12">
    <path clip-path="url(#p75128756bb)" d="M 73.832727 106.67239 
L 76.448272 106.67239 
L 76.664055 295.488 
L 76.990998 295.488 
L 77.102159 276.606439 
L 77.540263 276.606439 
L 77.644884 261.157889 
L 77.756045 106.67239 
L 89.414838 106.67239 
L 89.525998 53.568 
L 89.741781 55.177224 
L 90.068724 55.177224 
L 90.291045 56.691788 
L 90.617988 56.691788 
L 90.833771 58.119805 
L 91.160714 58.119805 
L 91.376497 59.468488 
L 91.70344 59.468488 
L 91.925761 60.744269 
L 92.252704 60.744269 
L 92.468487 61.952904 
L 92.79543 61.952904 
L 93.011212 63.099557 
L 93.338155 63.099557 
L 93.560477 64.188878 
L 93.776259 64.188878 
L 93.992042 106.67239 
L 98.353463 106.67239 
L 98.569246 71.991972 
L 98.791567 71.991972 
L 99.00735 72.68558 
L 99.334293 72.68558 
L 99.550075 73.351989 
L 99.877018 73.351989 
L 100.09934 73.992765 
L 100.426283 73.992765 
L 100.642065 74.609362 
L 100.969009 74.609362 
L 101.184791 75.203122 
L 101.511734 75.203122 
L 101.734055 75.77529 
L 102.060999 75.77529 
L 102.276781 76.327024 
L 102.603724 76.327024 
L 102.819507 76.859399 
L 103.14645 76.859399 
L 103.368771 77.373416 
L 103.695714 77.373416 
L 103.911497 77.870009 
L 104.23844 77.870009 
L 104.454222 78.350049 
L 104.781166 78.350049 
L 105.003487 78.814349 
L 105.108109 106.67239 
L 105.984316 106.67239 
L 106.088938 79.698732 
L 106.415881 79.698732 
L 106.638203 80.120195 
L 106.965146 80.120195 
L 107.180928 80.52869 
L 107.507871 80.52869 
L 107.723654 80.924807 
L 108.050597 80.924807 
L 108.272918 81.309099 
L 108.599862 81.309099 
L 108.815644 81.682089 
L 109.142587 81.682089 
L 109.35837 82.044267 
L 109.685313 82.044267 
L 109.907634 82.396098 
L 110.234577 82.396098 
L 110.45036 82.738017 
L 110.777303 82.738017 
L 110.993085 83.070439 
L 111.320029 83.070439 
L 111.54235 83.393753 
L 111.869293 83.393753 
L 112.085076 83.70833 
L 112.412019 83.70833 
L 112.627801 84.014517 
L 112.954744 84.014517 
L 113.177066 84.312647 
L 113.504009 84.312647 
L 113.608631 62.533676 
L 114.046734 62.533676 
L 114.262517 63.099557 
L 114.484838 63.099557 
L 114.700621 85.161751 
L 115.138725 85.161751 
L 115.354507 85.430634 
L 115.68145 85.430634 
L 115.897233 85.692878 
L 116.224176 85.692878 
L 116.446497 85.948726 
L 116.77344 85.948726 
L 116.989223 86.198408 
L 117.316166 86.198408 
L 117.531948 86.442146 
L 117.858892 86.442146 
L 118.081213 86.680149 
L 118.408156 86.680149 
L 118.623938 86.912617 
L 118.950882 86.912617 
L 119.166664 87.139741 
L 119.493607 87.139741 
L 119.715929 87.361703 
L 120.042872 87.361703 
L 120.258654 87.578677 
L 120.585597 87.578677 
L 120.80138 87.790829 
L 121.128323 87.790829 
L 121.239484 69.324248 
L 121.677587 69.324248 
L 121.89337 69.730206 
L 122.220313 69.730206 
L 122.436096 70.127434 
L 122.763039 70.127434 
L 122.98536 70.51621 
L 123.312303 70.51621 
L 123.528086 70.896801 
L 123.855029 70.896801 
L 123.96619 71.269463 
L 124.070811 88.970927 
L 124.397754 88.970927 
L 124.620076 89.153416 
L 124.947019 89.153416 
L 125.162801 89.332181 
L 125.489745 89.332181 
L 125.705527 89.507335 
L 126.03247 89.507335 
L 126.254792 89.678985 
L 126.581735 89.678985 
L 126.797517 89.847237 
L 127.12446 89.847237 
L 127.340243 90.012189 
L 127.667186 90.012189 
L 127.889507 90.173939 
L 128.21645 90.173939 
L 128.432233 90.332578 
L 128.759176 90.332578 
L 128.974959 90.488195 
L 129.086119 90.488195 
L 129.301902 74.304 
L 129.524223 74.609362 
L 129.851166 74.609362 
L 130.066949 74.909017 
L 130.393892 74.909017 
L 130.609674 75.203122 
L 130.936617 75.203122 
L 131.158939 75.491831 
L 131.485882 75.491831 
L 131.701664 75.77529 
L 132.028608 75.77529 
L 132.24439 76.053643 
L 132.571333 76.053643 
L 132.793654 76.327024 
L 133.120598 76.327024 
L 133.33638 76.595567 
L 133.447541 76.595567 
L 133.552163 91.633979 
L 133.663323 91.633979 
L 133.879106 91.765895 
L 134.206049 91.765895 
L 134.42837 91.895516 
L 134.755313 91.895516 
L 134.971096 92.022903 
L 135.298039 92.022903 
L 135.513821 92.148113 
L 135.840765 92.148113 
L 136.063086 92.2712 
L 136.390029 92.2712 
L 136.605812 92.392218 
L 136.932755 92.392218 
L 137.148537 92.51122 
L 137.259698 92.51122 
L 137.47548 78.350049 
L 137.697802 78.584118 
L 138.024745 78.584118 
L 138.240527 78.814349 
L 138.56747 78.814349 
L 138.783253 79.040838 
L 139.110196 79.040838 
L 139.332517 79.263673 
L 139.659461 79.263673 
L 139.875243 79.482942 
L 140.202186 79.482942 
L 140.417969 79.698732 
L 140.744912 79.698732 
L 140.967233 79.911123 
L 141.294176 79.911123 
L 141.509959 80.120195 
L 141.836902 80.120195 
L 142.052684 80.326026 
L 142.379628 80.326026 
L 142.601949 80.52869 
L 142.928892 80.52869 
L 143.144675 80.728261 
L 143.360457 80.728261 
L 143.582778 93.798599 
L 144.563608 93.895394 
L 144.77939 93.990745 
L 145.649059 94.084683 
L 145.76022 81.682089 
L 146.198324 81.682089 
L 146.414106 81.8645 
L 146.741049 81.8645 
L 146.956832 82.044267 
L 147.283775 82.044267 
L 147.506096 82.221448 
L 147.833039 82.221448 
L 148.048822 82.396098 
L 148.375765 82.396098 
L 148.591547 82.56827 
L 148.918491 82.56827 
L 149.140812 82.738017 
L 149.467755 82.738017 
L 149.683537 82.90539 
L 150.010481 82.90539 
L 150.226263 83.070439 
L 150.553206 83.070439 
L 150.775528 83.233211 
L 151.102471 83.233211 
L 151.318253 83.393753 
L 151.645196 83.393753 
L 151.860979 83.552111 
L 152.187922 83.552111 
L 152.410243 83.70833 
L 152.737186 83.70833 
L 152.952969 83.862451 
L 153.279912 83.862451 
L 153.495695 84.014517 
L 153.606855 84.014517 
L 153.822638 95.343454 
L 154.044959 95.41848 
L 154.476524 95.492519 
L 154.587685 84.312647 
L 154.914628 84.312647 
L 155.13041 84.458789 
L 155.457353 84.458789 
L 155.679675 84.603033 
L 156.006618 84.603033 
L 156.2224 84.745416 
L 156.549344 84.745416 
L 156.765126 84.885974 
L 157.092069 84.885974 
L 157.314391 85.024741 
L 157.641334 85.024741 
L 157.857116 85.161751 
L 158.184059 85.161751 
L 158.399842 85.297038 
L 158.726785 85.297038 
L 158.949106 85.430634 
L 159.276049 85.430634 
L 159.491832 85.562571 
L 159.818775 85.562571 
L 160.034558 85.692878 
L 160.361501 85.692878 
L 160.583822 85.821587 
L 160.910765 85.821587 
L 161.126548 85.948726 
L 161.453491 85.948726 
L 161.669273 86.074324 
L 161.996216 86.074324 
L 162.218538 86.198408 
L 162.545481 86.198408 
L 162.761263 86.321007 
L 163.088207 86.321007 
L 163.303989 86.442146 
L 163.41515 86.442146 
L 163.630932 76.327024 
L 163.853254 76.506583 
L 164.069036 76.506583 
L 164.284818 86.680149 
L 164.722922 86.680149 
L 164.938705 86.797063 
L 165.265648 86.797063 
L 165.487969 86.912617 
L 165.814912 86.912617 
L 166.030695 87.026835 
L 166.357638 87.026835 
L 166.57342 87.139741 
L 166.900364 87.139741 
L 167.122685 87.251356 
L 167.992354 87.361703 
L 168.208136 87.470803 
L 169.084344 87.578677 
L 169.300126 87.685346 
L 170.169795 87.790829 
L 170.392116 87.895147 
L 171.261785 87.998319 
L 171.477568 88.100363 
L 172.353775 88.201298 
L 172.569558 88.301142 
L 172.78534 88.301142 
L 172.896501 79.115517 
L 173.112283 79.263673 
L 173.439227 79.263673 
L 173.661548 79.410243 
L 173.988491 79.410243 
L 174.204274 79.555255 
L 174.531217 79.555255 
L 174.746999 79.698732 
L 175.073942 79.698732 
L 175.185103 79.840698 
L 175.400885 88.784596 
L 176.165932 88.878249 
L 176.381715 88.970927 
L 177.257923 89.062644 
L 177.473705 89.153416 
L 178.343374 89.243257 
L 178.565695 89.332181 
L 179.435364 89.420203 
L 179.651146 89.507335 
L 180.527354 89.593591 
L 180.743137 89.678985 
L 181.612805 89.76353 
L 181.835127 89.847237 
L 182.266692 89.930119 
L 182.377852 81.558984 
L 182.704795 81.558984 
L 182.920578 81.682089 
L 183.247521 81.682089 
L 183.469842 81.803993 
L 183.796785 81.803993 
L 184.012568 81.924713 
L 184.339511 81.924713 
L 184.555294 82.044267 
L 184.882237 82.044267 
L 185.104558 82.162672 
L 185.431501 82.162672 
L 185.647284 82.279943 
L 185.974227 82.279943 
L 186.190009 82.396098 
L 186.30117 82.396098 
L 186.516952 90.488195 
L 186.739274 90.564897 
L 187.608943 90.640876 
L 187.824725 90.716142 
L 188.700933 90.790703 
L 188.916715 90.864572 
L 189.786384 90.937756 
L 190.008705 91.010266 
L 190.878374 91.082111 
L 191.094157 91.153299 
L 191.970364 91.22384 
L 192.074986 91.293743 
L 192.186147 83.60442 
L 193.055815 83.70833 
L 193.278137 83.811307 
L 194.147806 83.913366 
L 194.363588 84.014517 
L 195.239796 84.114773 
L 195.455578 84.214146 
L 196.325247 84.312647 
L 196.547568 84.410288 
L 197.417237 84.50708 
L 197.63302 84.603033 
L 198.071123 84.69816 
L 198.286906 92.022903 
L 199.051953 92.085777 
L 199.378896 92.148113 
L 200.143943 92.209918 
L 200.359725 92.2712 
L 201.229394 92.331964 
L 201.556337 92.392218 
L 201.994441 92.451968 
L 202.210224 85.341757 
L 202.86411 85.430634 
L 203.086431 85.518774 
L 203.9561 85.606186 
L 204.171882 85.692878 
L 205.04809 85.77886 
L 205.263873 85.864139 
L 206.133541 85.948726 
L 206.355863 86.032627 
L 207.225531 86.115852 
L 207.441314 86.198408 
L 208.317522 86.280304 
L 208.533304 86.361548 
L 209.402973 86.442146 
L 209.625294 86.522108 
L 209.841077 86.522108 
L 210.056859 93.291756 
L 211.586953 93.396293 
L 211.913896 93.447951 
L 212.240839 93.499208 
L 212.345461 86.912617 
L 213.221669 86.98891 
L 213.437451 87.064615 
L 214.30712 87.139741 
L 214.529441 87.214293 
L 215.39911 87.288278 
L 215.614893 87.361703 
L 216.4911 87.434573 
L 216.706883 87.506896 
L 217.576551 87.578677 
L 217.798873 87.649922 
L 218.668542 87.720638 
L 218.884324 87.790829 
L 219.760532 87.860503 
L 219.976314 87.929664 
L 220.845983 87.998319 
L 221.068304 88.066472 
L 221.937973 88.13413 
L 222.153756 88.201298 
L 222.264916 94.358329 
L 222.591859 94.402784 
L 222.807642 88.267981 
L 223.572689 88.334184 
L 223.899632 88.399912 
L 224.664679 88.465171 
L 224.880461 88.529965 
L 225.75013 88.5943 
L 226.077073 88.65818 
L 226.84212 88.72161 
L 227.169063 88.784596 
L 227.93411 88.84714 
L 228.149893 88.909249 
L 229.019562 88.970927 
L 229.346505 89.032178 
L 230.111552 89.093006 
L 230.438495 89.153416 
L 231.203542 89.213413 
L 231.530485 89.273 
L 232.288993 89.332181 
L 232.615936 89.390962 
L 233.165201 89.449345 
L 233.269823 83.70833 
L 233.923709 83.78565 
L 234.14603 83.862451 
L 234.577595 83.938738 
L 234.688756 89.622151 
L 235.558425 89.678985 
L 235.885368 89.735442 
L 236.650415 89.791524 
L 236.977358 89.847237 
L 238.28513 89.957566 
L 238.612074 90.012189 
L 239.919846 90.120373 
L 240.246789 90.173939 
L 241.554562 90.280038 
L 241.881505 90.332578 
L 243.189278 90.436653 
L 243.516221 90.488195 
L 243.843164 90.539411 
L 244.058946 85.161751 
L 244.823993 85.229608 
L 245.039776 85.297038 
L 245.915984 85.364046 
L 246.131766 85.430634 
L 247.001435 85.496808 
L 247.328378 85.562571 
L 247.439539 90.840025 
L 248.636151 90.937756 
L 248.963094 90.98617 
L 250.270866 91.082111 
L 250.597809 91.129642 
L 251.905582 91.22384 
L 252.232525 91.270513 
L 253.540298 91.363016 
L 253.867241 91.408853 
L 254.743449 91.499707 
L 254.84807 86.442146 
L 255.724278 86.502177 
L 256.051221 86.561852 
L 256.809729 86.621175 
L 257.136672 86.680149 
L 257.901719 86.738777 
L 258.228662 86.797063 
L 258.993709 86.855008 
L 259.320653 86.912617 
L 260.079161 86.969892 
L 260.301482 87.026835 
L 260.406104 91.938224 
L 261.713876 92.022903 
L 262.04082 92.064879 
L 263.348592 92.148113 
L 263.675535 92.189375 
L 264.983308 92.2712 
L 265.310251 92.311766 
L 265.748355 92.352105 
L 265.964137 87.578677 
L 267.167288 87.685346 
L 267.494231 87.738234 
L 268.802004 87.843133 
L 269.128947 87.895147 
L 270.43672 87.998319 
L 270.763663 88.049481 
L 272.071435 88.150968 
L 272.398378 88.201298 
L 273.48383 88.301142 
L 273.59499 92.893954 
L 275.340867 93.004772 
L 275.772432 93.041317 
L 276.975583 93.113823 
L 277.080204 88.642252 
L 278.610298 88.737398 
L 278.937241 88.784596 
L 280.245014 88.878249 
L 280.571957 88.924709 
L 281.87973 89.016905 
L 282.206673 89.062644 
L 283.514445 89.153416 
L 283.841389 89.198452 
L 285.149161 89.287833 
L 285.476104 89.332181 
L 286.783877 89.420203 
L 286.888499 89.463879 
L 286.999659 93.766007 
L 288.196271 93.831026 
L 288.307432 89.550572 
L 289.504044 89.636395 
L 289.830987 89.678985 
L 291.13876 89.76353 
L 291.465703 89.805487 
L 292.773475 89.88878 
L 293.100419 89.930119 
L 294.408191 90.012189 
L 294.735134 90.052923 
L 296.042907 90.133797 
L 296.481011 90.173939 
L 297.677623 90.253642 
L 298.115726 90.293205 
L 299.312338 90.371762 
L 299.639282 90.410759 
L 299.750442 86.345351 
L 300.515489 86.442146 
L 300.620111 90.488195 
L 302.039044 90.564897 
L 302.477148 90.602977 
L 303.67376 90.678597 
L 304.111864 90.716142 
L 305.308476 90.790703 
L 305.74658 90.827724 
L 307.485917 90.937756 
L 307.924021 90.974095 
L 309.669897 91.082111 
L 310.101462 91.117786 
L 311.082292 91.18865 
L 311.193452 87.317715 
L 312.390064 87.405491 
L 312.717007 87.449082 
L 314.02478 87.535673 
L 314.247101 87.578677 
L 314.351723 91.39742 
L 316.20876 91.499707 
L 316.640325 91.533499 
L 318.386202 91.633979 
L 318.824305 91.667176 
L 320.563643 91.765895 
L 321.001747 91.798513 
L 322.525302 91.895516 
L 322.747623 88.201298 
L 323.074566 88.241365 
L 324.382339 88.320981 
L 324.709282 88.360532 
L 326.017055 88.439123 
L 326.343998 88.478167 
L 327.65177 88.555754 
L 327.978714 88.5943 
L 328.305657 88.632682 
L 328.410278 92.240624 
L 330.371937 92.331964 
L 330.810041 92.362155 
L 332.555918 92.451968 
L 332.987483 92.481655 
L 333.536747 92.51122 
L 333.641369 88.970927 
L 334.079473 89.007728 
L 335.825349 89.11722 
L 336.256914 89.153416 
L 338.00279 89.261115 
L 338.440894 89.296721 
L 340.180232 89.40267 
L 340.618336 89.4377 
L 342.253051 89.541942 
L 342.468834 92.995606 
L 343.345041 93.023069 
L 343.449663 89.610739 
L 343.887767 89.64493 
L 345.633644 89.746688 
L 346.065208 89.780338 
L 347.811085 89.880488 
L 348.249189 89.913608 
L 349.988526 90.012189 
L 350.42663 90.044793 
L 351.296299 90.109617 
L 351.51862 86.797063 
L 352.715232 86.874249 
L 353.153336 86.912617 
L 354.349948 86.98891 
L 354.788052 87.026835 
L 355.984664 87.10225 
L 356.422767 87.139741 
L 356.63855 87.177088 
L 356.854332 90.426305 
L 357.076654 87.177088 
L 357.508219 87.214293 
L 359.254095 87.32506 
L 359.692199 87.361703 
L 361.431536 87.470803 
L 361.653858 87.506896 
L 361.86964 84.312647 
L 363.066252 84.396391 
L 363.393195 84.438029 
L 364.700968 84.520838 
L 365.027911 84.562012 
L 366.119901 84.643902 
L 366.335684 81.496976 
L 366.662627 81.543511 
L 367.643456 81.636066 
L 367.865778 78.506526 
L 369.062389 78.609887 
L 369.389333 78.661283 
L 370.697105 78.763514 
L 370.912888 78.814349 
L 371.135209 81.909687 
L 372.331821 81.99957 
L 372.658764 82.044267 
L 373.966537 82.133177 
L 374.29348 82.177392 
L 375.601252 82.265346 
L 375.928196 82.309086 
L 377.235968 82.396098 
L 377.562911 82.439371 
L 378.870684 82.525456 
L 379.197627 82.56827 
L 380.5054 82.653443 
L 380.832343 82.695805 
L 382.140115 82.780081 
L 382.467059 82.821997 
L 383.774831 82.90539 
L 384.101774 82.946869 
L 385.193764 83.029392 
L 385.409547 85.984767 
L 385.847651 86.020683 
L 387.586988 86.127687 
L 388.025092 86.163108 
L 389.770968 86.268645 
L 390.202533 86.303583 
L 391.94841 86.407683 
L 392.386514 86.442146 
L 394.125851 86.544838 
L 394.563955 86.578837 
L 396.309831 86.680149 
L 396.741396 86.713693 
L 398.487273 86.813653 
L 398.487273 86.813653 
" style="fill:none;stroke:#1f77b4;stroke-linecap:square;stroke-width:1.5;"/>
   </g>
   <g id="patch_3">
    <path d="M 57.6 307.584 
L 57.6 41.472 
" style="fill:none;stroke:#000000;stroke-linecap:square;stroke-linejoin:miter;stroke-width:0.8;"/>
   </g>
   <g id="patch_4">
    <path d="M 414.72 307.584 
L 414.72 41.472 
" style="fill:none;stroke:#000000;stroke-linecap:square;stroke-linejoin:miter;stroke-width:0.8;"/>
   </g>
   <g id="patch_5">
    <path d="M 57.6 307.584 
L 414.72 307.584 
" style="fill:none;stroke:#000000;stroke-linecap:square;stroke-linejoin:miter;stroke-width:0.8;"/>
   </g>
   <g id="patch_6">
    <path d="M 57.6 41.472 
L 414.72 41.472 
" style="fill:none;stroke:#000000;stroke-linecap:square;stroke-linejoin:miter;stroke-width:0.8;"/>
   </g>
   <g id="text_14">
    <!-- Speed function of time -->
    <g transform="translate(167.024063 35.472)scale(0.12 -0.12)">
     <defs>
      <path id="DejaVuSerif-32"/>
      <path d="M 43.015625 63.71875 
L 38.28125 63.71875 
Q 38.234375 67.390625 36.203125 69.28125 
Q 34.1875 71.1875 30.328125 71.1875 
Q 25.296875 71.1875 23.234375 68.421875 
Q 21.1875 65.671875 21.1875 58.59375 
L 21.1875 51.90625 
L 35.6875 51.90625 
L 35.6875 46.6875 
L 21.1875 46.6875 
L 21.1875 5.171875 
L 32.71875 5.171875 
L 32.71875 0 
L 3.609375 0 
L 3.609375 5.171875 
L 12.203125 5.171875 
L 12.203125 46.6875 
L 3.609375 46.6875 
L 3.609375 51.90625 
L 12.203125 51.90625 
L 12.203125 58.40625 
Q 12.203125 67.09375 16.71875 71.53125 
Q 21.234375 75.984375 29.984375 75.984375 
Q 33.25 75.984375 36.515625 75.390625 
Q 39.796875 74.8125 43.015625 73.578125 
z
" id="DejaVuSerif-102"/>
      <path d="M 35.40625 51.90625 
L 52.203125 51.90625 
L 52.203125 5.171875 
L 60.6875 5.171875 
L 60.6875 0 
L 43.21875 0 
L 43.21875 9.1875 
Q 40.71875 4 36.765625 1.28125 
Q 32.8125 -1.421875 27.59375 -1.421875 
Q 18.953125 -1.421875 14.875 3.484375 
Q 10.796875 8.40625 10.796875 18.890625 
L 10.796875 46.6875 
L 2.6875 46.6875 
L 2.6875 51.90625 
L 19.828125 51.90625 
L 19.828125 21.6875 
Q 19.828125 12.203125 22.140625 8.6875 
Q 24.46875 5.171875 30.421875 5.171875 
Q 36.671875 5.171875 39.9375 9.765625 
Q 43.21875 14.359375 43.21875 23.09375 
L 43.21875 46.6875 
L 35.40625 46.6875 
z
" id="DejaVuSerif-117"/>
      <path d="M 4.109375 0 
L 4.109375 5.171875 
L 12.203125 5.171875 
L 12.203125 46.6875 
L 3.609375 46.6875 
L 3.609375 51.90625 
L 21.1875 51.90625 
L 21.1875 42.671875 
Q 23.6875 47.953125 27.65625 50.640625 
Q 31.640625 53.328125 36.921875 53.328125 
Q 45.515625 53.328125 49.5625 48.390625 
Q 53.609375 43.453125 53.609375 33.015625 
L 53.609375 5.171875 
L 61.625 5.171875 
L 61.625 0 
L 36.8125 0 
L 36.8125 5.171875 
L 44.578125 5.171875 
L 44.578125 30.171875 
Q 44.578125 39.703125 42.234375 43.234375 
Q 39.890625 46.78125 33.984375 46.78125 
Q 27.734375 46.78125 24.453125 42.203125 
Q 21.1875 37.640625 21.1875 28.90625 
L 21.1875 5.171875 
L 29 5.171875 
L 29 0 
z
" id="DejaVuSerif-110"/>
      <path d="M 51.421875 15.578125 
Q 49.515625 7.28125 44.09375 2.921875 
Q 38.671875 -1.421875 30.078125 -1.421875 
Q 18.75 -1.421875 11.859375 6.078125 
Q 4.984375 13.578125 4.984375 25.984375 
Q 4.984375 38.421875 11.859375 45.875 
Q 18.75 53.328125 30.078125 53.328125 
Q 35.015625 53.328125 39.890625 52.171875 
Q 44.78125 51.03125 49.703125 48.6875 
L 49.703125 35.40625 
L 44.484375 35.40625 
Q 43.453125 42.234375 40.015625 45.359375 
Q 36.578125 48.484375 30.171875 48.484375 
Q 22.90625 48.484375 19.1875 42.84375 
Q 15.484375 37.203125 15.484375 25.984375 
Q 15.484375 14.75 19.171875 9.078125 
Q 22.859375 3.421875 30.171875 3.421875 
Q 35.984375 3.421875 39.453125 6.4375 
Q 42.921875 9.46875 44.1875 15.578125 
z
" id="DejaVuSerif-99"/>
      <path d="M 10.796875 46.6875 
L 2.875 46.6875 
L 2.875 51.90625 
L 10.796875 51.90625 
L 10.796875 68.015625 
L 19.828125 68.015625 
L 19.828125 51.90625 
L 36.71875 51.90625 
L 36.71875 46.6875 
L 19.828125 46.6875 
L 19.828125 13.71875 
Q 19.828125 7.125 21.09375 5.265625 
Q 22.359375 3.421875 25.78125 3.421875 
Q 29.296875 3.421875 30.90625 5.484375 
Q 32.515625 7.5625 32.625 12.203125 
L 39.40625 12.203125 
Q 39.015625 5.125 35.546875 1.84375 
Q 32.078125 -1.421875 25 -1.421875 
Q 17.234375 -1.421875 14.015625 2.015625 
Q 10.796875 5.46875 10.796875 13.71875 
z
" id="DejaVuSerif-116"/>
      <path d="M 30.078125 3.421875 
Q 37.3125 3.421875 40.984375 9.125 
Q 44.671875 14.84375 44.671875 25.984375 
Q 44.671875 37.109375 40.984375 42.796875 
Q 37.3125 48.484375 30.078125 48.484375 
Q 22.859375 48.484375 19.171875 42.796875 
Q 15.484375 37.109375 15.484375 25.984375 
Q 15.484375 14.84375 19.1875 9.125 
Q 22.90625 3.421875 30.078125 3.421875 
z
M 30.078125 -1.421875 
Q 18.75 -1.421875 11.859375 6.078125 
Q 4.984375 13.578125 4.984375 25.984375 
Q 4.984375 38.375 11.84375 45.84375 
Q 18.703125 53.328125 30.078125 53.328125 
Q 41.453125 53.328125 48.3125 45.84375 
Q 55.171875 38.375 55.171875 25.984375 
Q 55.171875 13.578125 48.3125 6.078125 
Q 41.453125 -1.421875 30.078125 -1.421875 
z
" id="DejaVuSerif-111"/>
     </defs>
     <use xlink:href="#DejaVuSerif-83"/>
     <use x="68.505859" xlink:href="#DejaVuSerif-112"/>
     <use x="132.519531" xlink:href="#DejaVuSerif-101"/>
     <use x="191.699219" xlink:href="#DejaVuSerif-101"/>
     <use x="250.878906" xlink:href="#DejaVuSerif-100"/>
     <use x="314.892578" xlink:href="#DejaVuSerif-32"/>
     <use x="346.679688" xlink:href="#DejaVuSerif-102"/>
     <use x="383.691406" xlink:href="#DejaVuSerif-117"/>
     <use x="448.095703" xlink:href="#DejaVuSerif-110"/>
     <use x="512.5" xlink:href="#DejaVuSerif-99"/>
     <use x="568.505859" xlink:href="#DejaVuSerif-116"/>
     <use x="608.691406" xlink:href="#DejaVuSerif-105"/>
     <use x="640.673828" xlink:href="#DejaVuSerif-111"/>
     <use x="700.878906" xlink:href="#DejaVuSerif-110"/>
     <use x="765.283203" xlink:href="#DejaVuSerif-32"/>
     <use x="797.070312" xlink:href="#DejaVuSerif-111"/>
     <use x="857.275391" xlink:href="#DejaVuSerif-102"/>
     <use x="894.287109" xlink:href="#DejaVuSerif-32"/>
     <use x="926.074219" xlink:href="#DejaVuSerif-116"/>
     <use x="966.259766" xlink:href="#DejaVuSerif-105"/>
     <use x="998.242188" xlink:href="#DejaVuSerif-109"/>
     <use x="1093.066406" xlink:href="#DejaVuSerif-101"/>
    </g>
   </g>
  </g>
 </g>
 <defs>
  <clipPath id="p75128756bb">
   <rect height="266.112" width="357.12" x="57.6" y="41.472"/>
  </clipPath>
 </defs>
</svg>
