<?xml version="1.0" encoding="utf-8" standalone="no"?>
<!DOCTYPE svg PUBLIC "-//W3C//DTD SVG 1.1//EN"
  "http://www.w3.org/Graphics/SVG/1.1/DTD/svg11.dtd">
<!-- Created with matplotlib (https://matplotlib.org/) -->
<svg height="345.6pt" version="1.1" viewBox="0 0 460.8 345.6" width="460.8pt" xmlns="http://www.w3.org/2000/svg" xmlns:xlink="http://www.w3.org/1999/xlink">
 <metadata>
  <rdf:RDF xmlns:cc="http://creativecommons.org/ns#" xmlns:dc="http://purl.org/dc/elements/1.1/" xmlns:rdf="http://www.w3.org/1999/02/22-rdf-syntax-ns#">
   <cc:Work>
    <dc:type rdf:resource="http://purl.org/dc/dcmitype/StillImage"/>
    <dc:date>2023-01-07T16:21:46.903506</dc:date>
    <dc:format>image/svg+xml</dc:format>
    <dc:creator>
     <cc:Agent>
      <dc:title>Matplotlib v3.3.4, https://matplotlib.org/</dc:title>
     </cc:Agent>
    </dc:creator>
   </cc:Work>
  </rdf:RDF>
 </metadata>
 <defs>
  <style type="text/css">*{stroke-linecap:butt;stroke-linejoin:round;}</style>
 </defs>
 <g id="figure_1">
  <g id="patch_1">
   <path d="M 0 345.6 
L 460.8 345.6 
L 460.8 0 
L 0 0 
z
" style="fill:#ffffff;"/>
  </g>
  <g id="axes_1">
   <g id="patch_2">
    <path d="M 57.6 307.584 
L 414.72 307.584 
L 414.72 41.472 
L 57.6 41.472 
z
" style="fill:#ffffff;"/>
   </g>
   <g id="matplotlib.axis_1">
    <g id="xtick_1">
     <g id="line2d_1">
      <defs>
       <path d="M 0 0 
L 0 3.5 
" id="mbd8214ca2b" style="stroke:#000000;stroke-width:0.8;"/>
      </defs>
      <g>
       <use style="stroke:#000000;stroke-width:0.8;" x="103.1327" xlink:href="#mbd8214ca2b" y="307.584"/>
      </g>
     </g>
     <g id="text_1">
      <!-- 250 -->
      <g transform="translate(93.58895 322.182437)scale(0.1 -0.1)">
       <defs>
        <path d="M 12.796875 55.515625 
L 7.328125 55.515625 
L 7.328125 68.5 
Q 12.546875 71.296875 17.84375 72.75 
Q 23.140625 74.21875 28.21875 74.21875 
Q 39.59375 74.21875 46.1875 68.703125 
Q 52.78125 63.1875 52.78125 53.71875 
Q 52.78125 43.015625 37.84375 28.125 
Q 36.671875 27 36.078125 26.421875 
L 17.671875 8.015625 
L 48.09375 8.015625 
L 48.09375 17 
L 53.8125 17 
L 53.8125 0 
L 6.78125 0 
L 6.78125 5.328125 
L 28.90625 27.390625 
Q 36.234375 34.71875 39.359375 40.84375 
Q 42.484375 46.96875 42.484375 53.71875 
Q 42.484375 61.078125 38.640625 65.234375 
Q 34.8125 69.390625 28.078125 69.390625 
Q 21.09375 69.390625 17.28125 65.921875 
Q 13.484375 62.453125 12.796875 55.515625 
z
" id="DejaVuSerif-50"/>
        <path d="M 50.296875 72.90625 
L 50.296875 64.890625 
L 16.890625 64.890625 
L 16.890625 44 
Q 19.4375 45.75 22.828125 46.625 
Q 26.21875 47.515625 30.421875 47.515625 
Q 42.234375 47.515625 49.0625 40.96875 
Q 55.90625 34.421875 55.90625 23.09375 
Q 55.90625 11.53125 49 5.046875 
Q 42.09375 -1.421875 29.59375 -1.421875 
Q 24.5625 -1.421875 19.28125 -0.1875 
Q 14.015625 1.03125 8.5 3.515625 
L 8.5 17.671875 
L 14.015625 17.671875 
Q 14.453125 10.75 18.421875 7.078125 
Q 22.40625 3.421875 29.59375 3.421875 
Q 37.3125 3.421875 41.453125 8.5 
Q 45.609375 13.578125 45.609375 23.09375 
Q 45.609375 32.5625 41.484375 37.609375 
Q 37.359375 42.671875 29.59375 42.671875 
Q 25.203125 42.671875 21.84375 41.109375 
Q 18.5 39.546875 15.921875 36.28125 
L 11.71875 36.28125 
L 11.71875 72.90625 
z
" id="DejaVuSerif-53"/>
        <path d="M 31.78125 3.421875 
Q 39.265625 3.421875 42.96875 11.625 
Q 46.6875 19.828125 46.6875 36.375 
Q 46.6875 52.984375 42.96875 61.1875 
Q 39.265625 69.390625 31.78125 69.390625 
Q 24.3125 69.390625 20.59375 61.1875 
Q 16.890625 52.984375 16.890625 36.375 
Q 16.890625 19.828125 20.59375 11.625 
Q 24.3125 3.421875 31.78125 3.421875 
z
M 31.78125 -1.421875 
Q 19.921875 -1.421875 13.25 8.53125 
Q 6.59375 18.5 6.59375 36.375 
Q 6.59375 54.296875 13.25 64.25 
Q 19.921875 74.21875 31.78125 74.21875 
Q 43.703125 74.21875 50.34375 64.25 
Q 56.984375 54.296875 56.984375 36.375 
Q 56.984375 18.5 50.34375 8.53125 
Q 43.703125 -1.421875 31.78125 -1.421875 
z
" id="DejaVuSerif-48"/>
       </defs>
       <use xlink:href="#DejaVuSerif-50"/>
       <use x="63.623047" xlink:href="#DejaVuSerif-53"/>
       <use x="127.246094" xlink:href="#DejaVuSerif-48"/>
      </g>
     </g>
    </g>
    <g id="xtick_2">
     <g id="line2d_2">
      <g>
       <use style="stroke:#000000;stroke-width:0.8;" x="157.391908" xlink:href="#mbd8214ca2b" y="307.584"/>
      </g>
     </g>
     <g id="text_2">
      <!-- 300 -->
      <g transform="translate(147.848158 322.182437)scale(0.1 -0.1)">
       <defs>
        <path d="M 9.71875 69.828125 
Q 15.4375 71.96875 20.671875 73.09375 
Q 25.921875 74.21875 30.515625 74.21875 
Q 41.21875 74.21875 47.21875 69.59375 
Q 53.21875 64.984375 53.21875 56.78125 
Q 53.21875 50.203125 49.0625 45.78125 
Q 44.921875 41.359375 37.3125 39.796875 
Q 46.296875 38.53125 51.25 33.28125 
Q 56.203125 28.03125 56.203125 19.671875 
Q 56.203125 9.46875 49.34375 4.015625 
Q 42.484375 -1.421875 29.59375 -1.421875 
Q 23.875 -1.421875 18.421875 -0.1875 
Q 12.984375 1.03125 7.625 3.515625 
L 7.625 17.671875 
L 13.09375 17.671875 
Q 13.578125 10.640625 17.828125 7.03125 
Q 22.078125 3.421875 29.78125 3.421875 
Q 37.25 3.421875 41.578125 7.734375 
Q 45.90625 12.0625 45.90625 19.578125 
Q 45.90625 28.171875 41.453125 32.59375 
Q 37.015625 37.015625 28.421875 37.015625 
L 23.78125 37.015625 
L 23.78125 42 
L 26.21875 42 
Q 34.765625 42 39.03125 45.53125 
Q 43.3125 49.078125 43.3125 56.203125 
Q 43.3125 62.59375 39.796875 65.984375 
Q 36.28125 69.390625 29.6875 69.390625 
Q 23.09375 69.390625 19.453125 66.265625 
Q 15.828125 63.140625 15.1875 56.984375 
L 9.71875 56.984375 
z
" id="DejaVuSerif-51"/>
       </defs>
       <use xlink:href="#DejaVuSerif-51"/>
       <use x="63.623047" xlink:href="#DejaVuSerif-48"/>
       <use x="127.246094" xlink:href="#DejaVuSerif-48"/>
      </g>
     </g>
    </g>
    <g id="xtick_3">
     <g id="line2d_3">
      <g>
       <use style="stroke:#000000;stroke-width:0.8;" x="211.651116" xlink:href="#mbd8214ca2b" y="307.584"/>
      </g>
     </g>
     <g id="text_3">
      <!-- 350 -->
      <g transform="translate(202.107366 322.182437)scale(0.1 -0.1)">
       <use xlink:href="#DejaVuSerif-51"/>
       <use x="63.623047" xlink:href="#DejaVuSerif-53"/>
       <use x="127.246094" xlink:href="#DejaVuSerif-48"/>
      </g>
     </g>
    </g>
    <g id="xtick_4">
     <g id="line2d_4">
      <g>
       <use style="stroke:#000000;stroke-width:0.8;" x="265.910324" xlink:href="#mbd8214ca2b" y="307.584"/>
      </g>
     </g>
     <g id="text_4">
      <!-- 400 -->
      <g transform="translate(256.366574 322.182437)scale(0.1 -0.1)">
       <defs>
        <path d="M 34.90625 24.703125 
L 34.90625 63.484375 
L 10.015625 24.703125 
z
M 56.390625 0 
L 23.1875 0 
L 23.1875 5.171875 
L 34.90625 5.171875 
L 34.90625 19.484375 
L 3.078125 19.484375 
L 3.078125 24.8125 
L 35.015625 74.21875 
L 44.671875 74.21875 
L 44.671875 24.703125 
L 58.59375 24.703125 
L 58.59375 19.484375 
L 44.671875 19.484375 
L 44.671875 5.171875 
L 56.390625 5.171875 
z
" id="DejaVuSerif-52"/>
       </defs>
       <use xlink:href="#DejaVuSerif-52"/>
       <use x="63.623047" xlink:href="#DejaVuSerif-48"/>
       <use x="127.246094" xlink:href="#DejaVuSerif-48"/>
      </g>
     </g>
    </g>
    <g id="xtick_5">
     <g id="line2d_5">
      <g>
       <use style="stroke:#000000;stroke-width:0.8;" x="320.169532" xlink:href="#mbd8214ca2b" y="307.584"/>
      </g>
     </g>
     <g id="text_5">
      <!-- 450 -->
      <g transform="translate(310.625782 322.182437)scale(0.1 -0.1)">
       <use xlink:href="#DejaVuSerif-52"/>
       <use x="63.623047" xlink:href="#DejaVuSerif-53"/>
       <use x="127.246094" xlink:href="#DejaVuSerif-48"/>
      </g>
     </g>
    </g>
    <g id="xtick_6">
     <g id="line2d_6">
      <g>
       <use style="stroke:#000000;stroke-width:0.8;" x="374.42874" xlink:href="#mbd8214ca2b" y="307.584"/>
      </g>
     </g>
     <g id="text_6">
      <!-- 500 -->
      <g transform="translate(364.88499 322.182437)scale(0.1 -0.1)">
       <use xlink:href="#DejaVuSerif-53"/>
       <use x="63.623047" xlink:href="#DejaVuSerif-48"/>
       <use x="127.246094" xlink:href="#DejaVuSerif-48"/>
      </g>
     </g>
    </g>
    <g id="text_7">
     <!-- Time -->
     <g transform="translate(223.524844 335.860562)scale(0.1 -0.1)">
      <defs>
       <path d="M 19.09375 0 
L 19.09375 5.171875 
L 28.421875 5.171875 
L 28.421875 67.09375 
L 6.984375 67.09375 
L 6.984375 55.71875 
L 0.984375 55.71875 
L 0.984375 72.90625 
L 65.71875 72.90625 
L 65.71875 55.71875 
L 59.71875 55.71875 
L 59.71875 67.09375 
L 38.28125 67.09375 
L 38.28125 5.171875 
L 47.609375 5.171875 
L 47.609375 0 
z
" id="DejaVuSerif-84"/>
       <path d="M 9.71875 68.015625 
Q 9.71875 70.265625 11.34375 71.921875 
Q 12.984375 73.578125 15.28125 73.578125 
Q 17.53125 73.578125 19.15625 71.921875 
Q 20.796875 70.265625 20.796875 68.015625 
Q 20.796875 65.71875 19.1875 64.109375 
Q 17.578125 62.5 15.28125 62.5 
Q 12.984375 62.5 11.34375 64.109375 
Q 9.71875 65.71875 9.71875 68.015625 
z
M 21.1875 5.171875 
L 29.6875 5.171875 
L 29.6875 0 
L 3.609375 0 
L 3.609375 5.171875 
L 12.203125 5.171875 
L 12.203125 46.6875 
L 3.609375 46.6875 
L 3.609375 51.90625 
L 21.1875 51.90625 
z
" id="DejaVuSerif-105"/>
       <path d="M 51.8125 41.796875 
Q 54.390625 47.515625 58.421875 50.421875 
Q 62.453125 53.328125 67.828125 53.328125 
Q 75.984375 53.328125 79.984375 48.265625 
Q 83.984375 43.21875 83.984375 33.015625 
L 83.984375 5.171875 
L 92.09375 5.171875 
L 92.09375 0 
L 67.1875 0 
L 67.1875 5.171875 
L 75 5.171875 
L 75 31.984375 
Q 75 39.9375 72.65625 43.3125 
Q 70.3125 46.6875 64.890625 46.6875 
Q 58.890625 46.6875 55.734375 42.140625 
Q 52.59375 37.59375 52.59375 28.90625 
L 52.59375 5.171875 
L 60.40625 5.171875 
L 60.40625 0 
L 35.796875 0 
L 35.796875 5.171875 
L 43.609375 5.171875 
L 43.609375 32.328125 
Q 43.609375 40.09375 41.265625 43.390625 
Q 38.921875 46.6875 33.5 46.6875 
Q 27.484375 46.6875 24.328125 42.140625 
Q 21.1875 37.59375 21.1875 28.90625 
L 21.1875 5.171875 
L 29 5.171875 
L 29 0 
L 4.109375 0 
L 4.109375 5.171875 
L 12.203125 5.171875 
L 12.203125 46.78125 
L 3.609375 46.78125 
L 3.609375 51.90625 
L 21.1875 51.90625 
L 21.1875 42.671875 
Q 23.6875 47.859375 27.53125 50.59375 
Q 31.390625 53.328125 36.28125 53.328125 
Q 42.328125 53.328125 46.375 50.3125 
Q 50.4375 47.3125 51.8125 41.796875 
z
" id="DejaVuSerif-109"/>
       <path d="M 54.203125 25 
L 15.484375 25 
L 15.484375 24.609375 
Q 15.484375 14.109375 19.4375 8.765625 
Q 23.390625 3.421875 31.109375 3.421875 
Q 37.015625 3.421875 40.796875 6.515625 
Q 44.578125 9.625 46.09375 15.71875 
L 53.328125 15.71875 
Q 51.171875 7.171875 45.375 2.875 
Q 39.59375 -1.421875 30.171875 -1.421875 
Q 18.796875 -1.421875 11.890625 6.078125 
Q 4.984375 13.578125 4.984375 25.984375 
Q 4.984375 38.28125 11.765625 45.796875 
Q 18.5625 53.328125 29.59375 53.328125 
Q 41.359375 53.328125 47.65625 46.0625 
Q 53.953125 38.8125 54.203125 25 
z
M 43.609375 30.171875 
Q 43.3125 39.265625 39.765625 43.875 
Q 36.234375 48.484375 29.59375 48.484375 
Q 23.390625 48.484375 19.828125 43.84375 
Q 16.265625 39.203125 15.484375 30.171875 
z
" id="DejaVuSerif-101"/>
      </defs>
      <use xlink:href="#DejaVuSerif-84"/>
      <use x="66.699219" xlink:href="#DejaVuSerif-105"/>
      <use x="98.681641" xlink:href="#DejaVuSerif-109"/>
      <use x="193.505859" xlink:href="#DejaVuSerif-101"/>
     </g>
    </g>
   </g>
   <g id="matplotlib.axis_2">
    <g id="ytick_1">
     <g id="line2d_7">
      <defs>
       <path d="M 0 0 
L -3.5 0 
" id="m6bcf12cb8e" style="stroke:#000000;stroke-width:0.8;"/>
      </defs>
      <g>
       <use style="stroke:#000000;stroke-width:0.8;" x="57.6" xlink:href="#m6bcf12cb8e" y="295.488"/>
      </g>
     </g>
     <g id="text_8">
      <!-- −6.00 -->
      <g transform="translate(19.954687 299.287219)scale(0.1 -0.1)">
       <defs>
        <path d="M 10.59375 35.296875 
L 73.1875 35.296875 
L 73.1875 27.390625 
L 10.59375 27.390625 
z
" id="DejaVuSerif-8722"/>
        <path d="M 32.71875 3.421875 
Q 39.59375 3.421875 43.296875 8.46875 
Q 47.015625 13.53125 47.015625 23 
Q 47.015625 32.46875 43.296875 37.515625 
Q 39.59375 42.578125 32.71875 42.578125 
Q 25.734375 42.578125 22.0625 37.6875 
Q 18.40625 32.8125 18.40625 23.578125 
Q 18.40625 13.875 22.109375 8.640625 
Q 25.828125 3.421875 32.71875 3.421875 
z
M 16.796875 40.140625 
Q 20.125 43.796875 24.3125 45.59375 
Q 28.515625 47.40625 33.796875 47.40625 
Q 44.671875 47.40625 51 40.859375 
Q 57.328125 34.328125 57.328125 23 
Q 57.328125 11.921875 50.515625 5.25 
Q 43.703125 -1.421875 32.328125 -1.421875 
Q 19.96875 -1.421875 13.328125 7.78125 
Q 6.6875 17 6.6875 34.078125 
Q 6.6875 53.21875 14.546875 63.71875 
Q 22.40625 74.21875 36.71875 74.21875 
Q 40.578125 74.21875 44.828125 73.484375 
Q 49.078125 72.75 53.515625 71.296875 
L 53.515625 59.28125 
L 48 59.28125 
Q 47.40625 64.203125 44.234375 66.796875 
Q 41.0625 69.390625 35.6875 69.390625 
Q 26.21875 69.390625 21.578125 62.203125 
Q 16.9375 55.03125 16.796875 40.140625 
z
" id="DejaVuSerif-54"/>
        <path d="M 9.421875 5.078125 
Q 9.421875 7.8125 11.28125 9.71875 
Q 13.140625 11.625 15.921875 11.625 
Q 18.609375 11.625 20.5 9.71875 
Q 22.40625 7.8125 22.40625 5.078125 
Q 22.40625 2.390625 20.5 0.484375 
Q 18.609375 -1.421875 15.921875 -1.421875 
Q 13.140625 -1.421875 11.28125 0.453125 
Q 9.421875 2.34375 9.421875 5.078125 
z
" id="DejaVuSerif-46"/>
       </defs>
       <use xlink:href="#DejaVuSerif-8722"/>
       <use x="83.789062" xlink:href="#DejaVuSerif-54"/>
       <use x="147.412109" xlink:href="#DejaVuSerif-46"/>
       <use x="179.199219" xlink:href="#DejaVuSerif-48"/>
       <use x="242.822266" xlink:href="#DejaVuSerif-48"/>
      </g>
     </g>
    </g>
    <g id="ytick_2">
     <g id="line2d_8">
      <g>
       <use style="stroke:#000000;stroke-width:0.8;" x="57.6" xlink:href="#m6bcf12cb8e" y="265.248"/>
      </g>
     </g>
     <g id="text_9">
      <!-- −5.75 -->
      <g transform="translate(19.954687 269.047219)scale(0.1 -0.1)">
       <defs>
        <path d="M 56.390625 67.921875 
L 27.875 0 
L 20.609375 0 
L 47.796875 64.890625 
L 14.109375 64.890625 
L 14.109375 55.90625 
L 8.40625 55.90625 
L 8.40625 72.90625 
L 56.390625 72.90625 
z
" id="DejaVuSerif-55"/>
       </defs>
       <use xlink:href="#DejaVuSerif-8722"/>
       <use x="83.789062" xlink:href="#DejaVuSerif-53"/>
       <use x="147.412109" xlink:href="#DejaVuSerif-46"/>
       <use x="179.199219" xlink:href="#DejaVuSerif-55"/>
       <use x="242.822266" xlink:href="#DejaVuSerif-53"/>
      </g>
     </g>
    </g>
    <g id="ytick_3">
     <g id="line2d_9">
      <g>
       <use style="stroke:#000000;stroke-width:0.8;" x="57.6" xlink:href="#m6bcf12cb8e" y="235.008"/>
      </g>
     </g>
     <g id="text_10">
      <!-- −5.50 -->
      <g transform="translate(19.954687 238.807219)scale(0.1 -0.1)">
       <use xlink:href="#DejaVuSerif-8722"/>
       <use x="83.789062" xlink:href="#DejaVuSerif-53"/>
       <use x="147.412109" xlink:href="#DejaVuSerif-46"/>
       <use x="179.199219" xlink:href="#DejaVuSerif-53"/>
       <use x="242.822266" xlink:href="#DejaVuSerif-48"/>
      </g>
     </g>
    </g>
    <g id="ytick_4">
     <g id="line2d_10">
      <g>
       <use style="stroke:#000000;stroke-width:0.8;" x="57.6" xlink:href="#m6bcf12cb8e" y="204.768"/>
      </g>
     </g>
     <g id="text_11">
      <!-- −5.25 -->
      <g transform="translate(19.954687 208.567219)scale(0.1 -0.1)">
       <use xlink:href="#DejaVuSerif-8722"/>
       <use x="83.789062" xlink:href="#DejaVuSerif-53"/>
       <use x="147.412109" xlink:href="#DejaVuSerif-46"/>
       <use x="179.199219" xlink:href="#DejaVuSerif-50"/>
       <use x="242.822266" xlink:href="#DejaVuSerif-53"/>
      </g>
     </g>
    </g>
    <g id="ytick_5">
     <g id="line2d_11">
      <g>
       <use style="stroke:#000000;stroke-width:0.8;" x="57.6" xlink:href="#m6bcf12cb8e" y="174.528"/>
      </g>
     </g>
     <g id="text_12">
      <!-- −5.00 -->
      <g transform="translate(19.954687 178.327219)scale(0.1 -0.1)">
       <use xlink:href="#DejaVuSerif-8722"/>
       <use x="83.789062" xlink:href="#DejaVuSerif-53"/>
       <use x="147.412109" xlink:href="#DejaVuSerif-46"/>
       <use x="179.199219" xlink:href="#DejaVuSerif-48"/>
       <use x="242.822266" xlink:href="#DejaVuSerif-48"/>
      </g>
     </g>
    </g>
    <g id="ytick_6">
     <g id="line2d_12">
      <g>
       <use style="stroke:#000000;stroke-width:0.8;" x="57.6" xlink:href="#m6bcf12cb8e" y="144.288"/>
      </g>
     </g>
     <g id="text_13">
      <!-- −4.75 -->
      <g transform="translate(19.954687 148.087219)scale(0.1 -0.1)">
       <use xlink:href="#DejaVuSerif-8722"/>
       <use x="83.789062" xlink:href="#DejaVuSerif-52"/>
       <use x="147.412109" xlink:href="#DejaVuSerif-46"/>
       <use x="179.199219" xlink:href="#DejaVuSerif-55"/>
       <use x="242.822266" xlink:href="#DejaVuSerif-53"/>
      </g>
     </g>
    </g>
    <g id="ytick_7">
     <g id="line2d_13">
      <g>
       <use style="stroke:#000000;stroke-width:0.8;" x="57.6" xlink:href="#m6bcf12cb8e" y="114.048"/>
      </g>
     </g>
     <g id="text_14">
      <!-- −4.50 -->
      <g transform="translate(19.954687 117.847219)scale(0.1 -0.1)">
       <use xlink:href="#DejaVuSerif-8722"/>
       <use x="83.789062" xlink:href="#DejaVuSerif-52"/>
       <use x="147.412109" xlink:href="#DejaVuSerif-46"/>
       <use x="179.199219" xlink:href="#DejaVuSerif-53"/>
       <use x="242.822266" xlink:href="#DejaVuSerif-48"/>
      </g>
     </g>
    </g>
    <g id="ytick_8">
     <g id="line2d_14">
      <g>
       <use style="stroke:#000000;stroke-width:0.8;" x="57.6" xlink:href="#m6bcf12cb8e" y="83.808"/>
      </g>
     </g>
     <g id="text_15">
      <!-- −4.25 -->
      <g transform="translate(19.954687 87.607219)scale(0.1 -0.1)">
       <use xlink:href="#DejaVuSerif-8722"/>
       <use x="83.789062" xlink:href="#DejaVuSerif-52"/>
       <use x="147.412109" xlink:href="#DejaVuSerif-46"/>
       <use x="179.199219" xlink:href="#DejaVuSerif-50"/>
       <use x="242.822266" xlink:href="#DejaVuSerif-53"/>
      </g>
     </g>
    </g>
    <g id="ytick_9">
     <g id="line2d_15">
      <g>
       <use style="stroke:#000000;stroke-width:0.8;" x="57.6" xlink:href="#m6bcf12cb8e" y="53.568"/>
      </g>
     </g>
     <g id="text_16">
      <!-- −4.00 -->
      <g transform="translate(19.954687 57.367219)scale(0.1 -0.1)">
       <use xlink:href="#DejaVuSerif-8722"/>
       <use x="83.789062" xlink:href="#DejaVuSerif-52"/>
       <use x="147.412109" xlink:href="#DejaVuSerif-46"/>
       <use x="179.199219" xlink:href="#DejaVuSerif-48"/>
       <use x="242.822266" xlink:href="#DejaVuSerif-48"/>
      </g>
     </g>
    </g>
    <g id="text_17">
     <!-- Speed -->
     <g transform="translate(13.875 190.273313)rotate(-90)scale(0.1 -0.1)">
      <defs>
       <path d="M 9.28125 3.515625 
L 9.28125 20.125 
L 14.890625 20.0625 
Q 15.140625 11.765625 19.703125 7.78125 
Q 24.265625 3.8125 33.59375 3.8125 
Q 42.28125 3.8125 46.84375 7.25 
Q 51.421875 10.6875 51.421875 17.28125 
Q 51.421875 22.5625 48.65625 25.390625 
Q 45.90625 28.21875 37.015625 30.90625 
L 27.390625 33.796875 
Q 16.9375 36.96875 12.671875 41.703125 
Q 8.40625 46.4375 8.40625 54.6875 
Q 8.40625 63.96875 14.984375 69.09375 
Q 21.578125 74.21875 33.5 74.21875 
Q 38.578125 74.21875 44.625 73.109375 
Q 50.6875 72.015625 57.515625 69.921875 
L 57.515625 54.390625 
L 52 54.390625 
Q 51.171875 62.109375 46.84375 65.546875 
Q 42.53125 69 33.6875 69 
Q 25.984375 69 21.953125 65.84375 
Q 17.921875 62.703125 17.921875 56.6875 
Q 17.921875 51.46875 20.9375 48.484375 
Q 23.96875 45.515625 33.796875 42.578125 
L 42.828125 39.890625 
Q 52.734375 36.921875 56.953125 32.296875 
Q 61.1875 27.6875 61.1875 19.921875 
Q 61.1875 9.328125 54.390625 3.953125 
Q 47.609375 -1.421875 34.1875 -1.421875 
Q 28.171875 -1.421875 21.9375 -0.1875 
Q 15.71875 1.03125 9.28125 3.515625 
z
" id="DejaVuSerif-83"/>
       <path d="M 20.515625 28.515625 
L 20.515625 23.390625 
Q 20.515625 14.015625 24.09375 9.109375 
Q 27.6875 4.203125 34.515625 4.203125 
Q 41.40625 4.203125 44.9375 9.71875 
Q 48.484375 15.234375 48.484375 25.984375 
Q 48.484375 36.765625 44.9375 42.234375 
Q 41.40625 47.703125 34.515625 47.703125 
Q 27.6875 47.703125 24.09375 42.765625 
Q 20.515625 37.84375 20.515625 28.515625 
z
M 11.53125 46.6875 
L 2.875 46.6875 
L 2.875 51.90625 
L 20.515625 51.90625 
L 20.515625 43.796875 
Q 23.140625 48.6875 27.21875 51 
Q 31.296875 53.328125 37.3125 53.328125 
Q 46.875 53.328125 52.921875 45.75 
Q 58.984375 38.1875 58.984375 25.984375 
Q 58.984375 13.765625 52.921875 6.171875 
Q 46.875 -1.421875 37.3125 -1.421875 
Q 31.296875 -1.421875 27.21875 0.890625 
Q 23.140625 3.21875 20.515625 8.109375 
L 20.515625 -15.578125 
L 29 -15.578125 
L 29 -20.796875 
L 2.875 -20.796875 
L 2.875 -15.578125 
L 11.53125 -15.578125 
z
" id="DejaVuSerif-112"/>
       <path d="M 52.484375 5.171875 
L 61.078125 5.171875 
L 61.078125 0 
L 43.5 0 
L 43.5 8.109375 
Q 40.875 3.21875 36.796875 0.890625 
Q 32.71875 -1.421875 26.703125 -1.421875 
Q 17.140625 -1.421875 11.0625 6.171875 
Q 4.984375 13.765625 4.984375 25.984375 
Q 4.984375 38.1875 11.03125 45.75 
Q 17.09375 53.328125 26.703125 53.328125 
Q 32.71875 53.328125 36.796875 51 
Q 40.875 48.6875 43.5 43.796875 
L 43.5 70.796875 
L 35.015625 70.796875 
L 35.015625 75.984375 
L 52.484375 75.984375 
z
M 43.5 23.390625 
L 43.5 28.515625 
Q 43.5 37.84375 39.90625 42.765625 
Q 36.328125 47.703125 29.5 47.703125 
Q 22.5625 47.703125 19.015625 42.234375 
Q 15.484375 36.765625 15.484375 25.984375 
Q 15.484375 15.234375 19.015625 9.71875 
Q 22.5625 4.203125 29.5 4.203125 
Q 36.328125 4.203125 39.90625 9.109375 
Q 43.5 14.015625 43.5 23.390625 
z
" id="DejaVuSerif-100"/>
      </defs>
      <use xlink:href="#DejaVuSerif-83"/>
      <use x="68.505859" xlink:href="#DejaVuSerif-112"/>
      <use x="132.519531" xlink:href="#DejaVuSerif-101"/>
      <use x="191.699219" xlink:href="#DejaVuSerif-101"/>
      <use x="250.878906" xlink:href="#DejaVuSerif-100"/>
     </g>
    </g>
   </g>
   <g id="line2d_16">
    <path clip-path="url(#p8a3bd51934)" d="M 73.832727 114.048 
L 74.017209 295.488 
L 74.190838 114.048 
L 74.559801 114.048 
L 74.73343 150.336 
L 75.460504 150.336 
L 75.644985 174.528 
L 75.818614 174.528 
L 76.003096 53.568 
L 76.187577 174.528 
L 76.361206 174.528 
L 76.545688 191.808 
L 76.730169 191.808 
L 76.903798 88.128 
L 77.08828 88.128 
L 77.272761 191.808 
L 77.446391 204.768 
L 77.815353 204.768 
L 77.988983 114.048 
L 78.173464 114.048 
L 78.357945 134.208 
L 78.531575 214.848 
L 78.716056 214.848 
L 78.900537 134.208 
L 79.074167 134.208 
L 79.258648 150.336 
L 79.985721 150.336 
L 80.159351 163.531636 
L 80.528314 163.531636 
L 80.701943 97.553455 
L 80.886424 163.531636 
L 81.070906 174.528 
L 81.429016 174.528 
L 81.613498 114.048 
L 81.787127 114.048 
L 81.971608 128.004923 
L 82.15609 183.832615 
L 82.514201 183.832615 
L 82.698682 128.004923 
L 82.872311 139.968 
L 83.056793 139.968 
L 83.241274 191.808 
L 83.414903 191.808 
L 83.599385 139.968 
L 83.783866 150.336 
L 84.141977 150.336 
L 84.326458 198.72 
L 84.500088 150.336 
L 84.684569 159.408 
L 85.411642 159.408 
L 85.585272 124.720941 
L 85.769753 167.412706 
L 86.312345 167.412706 
L 86.496826 134.208 
L 86.670456 134.208 
L 86.854937 174.528 
L 87.213048 174.528 
L 87.397529 180.894316 
L 87.582011 142.696421 
L 87.75564 142.696421 
L 87.940121 180.894316 
L 88.124603 180.894316 
L 88.298232 186.624 
L 88.482713 150.336 
L 89.025306 150.336 
L 89.209787 157.248 
L 89.383416 191.808 
L 89.567898 157.248 
L 89.926008 157.248 
L 90.11049 163.531636 
L 90.837563 163.531636 
L 91.011193 169.26887 
L 91.380155 169.26887 
L 91.553785 137.714087 
L 91.738266 169.26887 
L 91.922747 174.528 
L 92.280858 174.528 
L 92.465339 144.288 
L 92.638969 144.288 
L 92.82345 150.336 
L 93.007931 179.3664 
L 93.366042 179.3664 
L 93.550523 150.336 
L 93.724153 155.918769 
L 94.093116 155.918769 
L 94.266745 183.832615 
L 94.451226 183.832615 
L 94.635708 161.088 
L 95.1783 161.088 
L 95.351929 187.968 
L 95.53641 165.888 
L 96.263484 165.888 
L 96.437113 170.356966 
L 96.621595 145.330759 
L 96.806076 170.356966 
L 97.164187 170.356966 
L 97.348668 174.528 
L 97.522298 174.528 
L 97.706779 150.336 
L 97.89126 174.528 
L 98.06489 174.528 
L 98.249371 178.429935 
L 98.607482 178.429935 
L 98.791963 155.018323 
L 98.976444 155.018323 
L 99.150074 159.408 
L 99.334555 182.088 
L 99.519036 182.088 
L 99.692666 159.408 
L 99.877147 159.408 
L 100.061628 163.531636 
L 100.419739 163.531636 
L 100.604221 185.524364 
L 100.77785 163.531636 
L 100.962331 167.412706 
L 101.504923 167.412706 
L 101.689405 188.758588 
L 101.863034 171.072 
L 102.590108 171.072 
L 102.774589 174.528 
L 102.948218 154.368 
L 103.1327 174.528 
L 103.49081 174.528 
L 103.675292 177.797189 
L 103.859773 158.182054 
L 104.217884 158.182054 
L 104.402365 177.797189 
L 104.575995 180.894316 
L 104.760476 180.894316 
L 104.944957 161.795368 
L 105.303068 161.795368 
L 105.487549 165.223385 
L 105.661179 165.223385 
L 105.84566 183.832615 
L 106.030141 165.223385 
L 106.203771 165.223385 
L 106.388252 168.48 
L 106.746363 168.48 
L 106.930844 186.624 
L 107.115325 168.48 
L 107.288955 171.577756 
L 108.016028 171.577756 
L 108.20051 157.248 
L 108.374139 174.528 
L 108.916731 174.528 
L 109.101213 177.341023 
L 109.285694 160.462884 
L 109.459323 160.462884 
L 109.643805 177.341023 
L 109.828286 177.341023 
L 110.001915 180.026182 
L 110.186397 180.026182 
L 110.370878 163.531636 
L 110.728989 163.531636 
L 110.91347 166.464 
L 111.0871 182.592 
L 111.271581 182.592 
L 111.456062 166.464 
L 111.629692 166.464 
L 111.814173 169.26887 
L 111.998654 169.26887 
L 112.172284 185.046261 
L 112.356765 185.046261 
L 112.541246 169.26887 
L 112.714876 171.954383 
L 113.257468 171.954383 
L 113.441949 187.396085 
L 113.62643 174.528 
L 114.342652 174.528 
L 114.527133 176.996571 
L 114.711615 162.185143 
L 114.885244 176.996571 
L 115.254207 176.996571 
L 115.427836 179.3664 
L 115.612317 179.3664 
L 115.796799 164.8512 
L 115.970428 164.8512 
L 116.15491 179.3664 
L 116.339391 181.643294 
L 116.697502 181.643294 
L 116.881983 167.412706 
L 117.055612 167.412706 
L 117.240094 169.875692 
L 117.424575 169.875692 
L 117.598204 183.832615 
L 117.782686 183.832615 
L 117.967167 169.875692 
L 118.140797 172.245736 
L 118.683389 172.245736 
L 118.86787 185.939321 
L 119.052351 174.528 
L 119.768573 174.528 
L 119.953054 176.727273 
L 120.137535 163.531636 
L 120.311165 176.727273 
L 120.680128 176.727273 
L 120.853757 178.848 
L 121.038238 178.848 
L 121.22272 165.888 
L 121.396349 165.888 
L 121.58083 178.848 
L 121.765312 180.894316 
L 122.123422 180.894316 
L 122.307904 168.161684 
L 122.481533 168.161684 
L 122.666015 170.356966 
L 122.850496 170.356966 
L 123.024125 182.870069 
L 123.208607 182.870069 
L 123.393088 170.356966 
L 123.566717 172.477831 
L 124.109309 172.477831 
L 124.293791 184.778847 
L 124.478272 174.528 
L 125.194494 174.528 
L 125.378975 176.510951 
L 125.563456 164.613246 
L 125.737086 176.510951 
L 126.106048 176.510951 
L 126.279678 178.429935 
L 126.464159 178.429935 
L 126.64864 166.724129 
L 126.82227 166.724129 
L 127.006751 178.429935 
L 127.191232 180.288 
L 127.549343 180.288 
L 127.733825 168.768 
L 127.907454 168.768 
L 128.091935 170.748 
L 128.276417 170.748 
L 128.450046 182.088 
L 128.634527 182.088 
L 128.819009 170.748 
L 128.992638 172.667077 
L 129.53523 172.667077 
L 129.719712 183.832615 
L 129.904193 174.528 
L 130.620414 174.528 
L 130.804896 176.333373 
L 130.989377 165.501134 
L 131.163006 176.333373 
L 131.531969 176.333373 
L 131.705599 178.085647 
L 131.89008 178.085647 
L 132.074561 167.412706 
L 132.248191 167.412706 
L 132.432672 178.085647 
L 132.617153 179.78713 
L 133.159745 179.78713 
L 133.333375 169.26887 
L 133.517856 171.072 
L 133.702337 171.072 
L 133.875967 181.44 
L 134.24493 181.44 
L 134.418559 172.824338 
L 134.961151 172.824338 
L 135.145632 183.04631 
L 135.330114 184.608 
L 135.503743 174.528 
L 136.046335 174.528 
L 136.230817 176.184986 
L 136.95789 176.184986 
L 137.131519 177.797189 
L 137.500482 177.797189 
L 137.674111 167.989622 
L 137.858593 177.797189 
L 138.043074 179.3664 
L 138.585666 179.3664 
L 138.759296 169.6896 
L 138.943777 171.344842 
L 139.128258 171.344842 
L 139.301888 180.894316 
L 139.67085 180.894316 
L 139.84448 182.382545 
L 140.028961 172.957091 
L 140.387072 172.957091 
L 140.571553 182.382545 
L 140.756034 183.832615 
L 140.929664 183.832615 
L 141.114145 174.528 
L 141.472256 174.528 
L 141.656737 176.059139 
L 141.841219 176.059139 
L 142.014848 185.245975 
L 142.199329 176.059139 
L 142.383811 176.059139 
L 142.55744 177.552 
L 143.284514 177.552 
L 143.468995 179.008 
L 144.185216 179.008 
L 144.369698 171.577756 
L 144.554179 171.577756 
L 144.727809 180.428488 
L 145.096771 180.428488 
L 145.270401 181.814747 
L 145.454882 181.814747 
L 145.639363 173.070651 
L 145.812993 173.070651 
L 145.997474 181.814747 
L 146.181955 183.168 
L 146.540066 183.168 
L 146.724547 174.528 
L 146.898177 174.528 
L 147.082658 175.951059 
L 147.267139 175.951059 
L 147.440769 184.489412 
L 147.62525 184.489412 
L 147.809732 175.951059 
L 147.983361 177.341023 
L 148.710434 177.341023 
L 148.894916 170.356966 
L 149.068545 178.699034 
L 149.611137 178.699034 
L 149.795619 180.026182 
L 149.9801 171.778909 
L 150.153729 171.778909 
L 150.338211 180.026182 
L 150.522692 180.026182 
L 150.696321 181.323506 
L 151.065284 181.323506 
L 151.238913 173.168899 
L 151.423395 173.168899 
L 151.607876 174.528 
L 151.781506 182.592 
L 152.150468 182.592 
L 152.324098 174.528 
L 152.508579 175.857231 
L 152.86669 175.857231 
L 153.051171 183.832615 
L 153.235652 183.832615 
L 153.409282 177.157565 
L 154.136355 177.157565 
L 154.320836 178.429935 
L 155.037058 178.429935 
L 155.221539 179.675234 
L 155.948613 179.675234 
L 156.122242 180.894316 
L 156.664834 180.894316 
L 156.849316 173.254737 
L 157.033797 174.528 
L 157.207426 174.528 
L 157.391908 182.088 
L 157.750018 182.088 
L 157.9345 175.77501 
L 158.477092 175.77501 
L 158.661573 183.257072 
L 158.835203 184.402286 
L 159.019684 176.996571 
L 159.562276 176.996571 
L 159.746757 178.193455 
L 159.920387 178.193455 
L 160.104868 185.524364 
L 160.289349 178.193455 
L 160.462979 178.193455 
L 160.64746 179.3664 
L 161.374534 179.3664 
L 161.548163 180.516119 
L 162.275236 180.516119 
L 162.459718 174.528 
L 162.633347 174.528 
L 162.817828 181.643294 
L 163.175939 181.643294 
L 163.360421 182.748583 
L 163.544902 182.748583 
L 163.718531 175.702369 
L 164.087494 175.702369 
L 164.261123 176.854154 
L 164.445605 183.832615 
L 164.630086 183.832615 
L 164.803715 176.854154 
L 164.988197 176.854154 
L 165.172678 177.984 
L 165.530789 177.984 
L 165.71527 184.896 
L 165.8889 177.984 
L 166.073381 179.092528 
L 166.800454 179.092528 
L 166.974084 173.397533 
L 167.158565 180.180336 
L 167.701157 180.180336 
L 167.885639 181.248 
L 168.059268 181.248 
L 168.243749 174.528 
L 168.428231 181.248 
L 168.60186 181.248 
L 168.786341 182.296073 
L 169.144452 182.296073 
L 169.328933 175.637725 
L 169.513415 175.637725 
L 169.687044 176.727273 
L 169.871526 183.325091 
L 170.229636 183.325091 
L 170.414118 176.727273 
L 170.598599 177.797189 
L 171.141191 177.797189 
L 171.31482 184.335568 
L 171.499302 185.328 
L 171.683783 178.848 
L 172.226375 178.848 
L 172.400005 179.880212 
L 173.127078 179.880212 
L 173.311559 180.894316 
L 173.66967 180.894316 
L 173.854151 174.528 
L 174.027781 180.894316 
L 174.212262 181.890783 
L 174.939336 181.890783 
L 175.112965 176.613517 
L 175.297446 176.613517 
L 175.481928 182.870069 
L 175.840038 182.870069 
L 176.02452 183.832615 
L 176.198149 177.629538 
L 176.740741 177.629538 
L 176.925223 178.628339 
L 177.109704 184.778847 
L 177.283333 178.628339 
L 177.652296 178.628339 
L 177.825925 179.610353 
L 178.194888 179.610353 
L 178.368518 185.709176 
L 178.552999 179.610353 
L 178.73748 180.576 
L 179.453702 180.576 
L 179.638183 175.527669 
L 179.822664 181.525686 
L 180.365256 181.525686 
L 180.538886 182.459803 
L 180.723367 176.510951 
L 180.907848 176.510951 
L 181.081478 182.459803 
L 181.265959 182.459803 
L 181.450441 183.378732 
L 181.808551 183.378732 
L 181.993033 177.478244 
L 182.166662 177.478244 
L 182.351143 178.429935 
L 182.535625 178.429935 
L 182.709254 184.282839 
L 182.893735 184.282839 
L 183.078217 178.429935 
L 183.251846 179.3664 
L 183.794438 179.3664 
L 183.97892 185.17248 
L 184.163401 180.288 
L 184.879622 180.288 
L 185.064104 181.195087 
L 185.791177 181.195087 
L 185.964807 182.088 
L 186.333769 182.088 
L 186.507399 176.418 
L 186.69188 176.418 
L 186.876361 177.341023 
L 187.049991 182.96707 
L 187.592583 182.96707 
L 187.777064 178.249846 
L 188.135175 178.249846 
L 188.319656 183.832615 
L 188.504138 183.832615 
L 188.677767 184.684947 
L 188.862248 179.144794 
L 189.40484 179.144794 
L 189.589322 180.026182 
L 189.762951 185.524364 
L 189.947433 180.026182 
L 190.305543 180.026182 
L 190.490025 180.894316 
L 190.848135 180.894316 
L 191.032617 186.351158 
L 191.217098 180.894316 
L 191.390727 181.749493 
L 192.117801 181.749493 
L 192.302282 177.216 
L 192.475912 177.216 
L 192.660393 182.592 
L 193.018504 182.592 
L 193.202985 183.422118 
L 193.387466 178.085647 
L 193.745577 178.085647 
L 193.930058 183.422118 
L 194.103688 184.240117 
L 194.47265 184.240117 
L 194.64628 178.942599 
L 194.830761 178.942599 
L 195.015243 179.78713 
L 195.188872 179.78713 
L 195.373353 185.046261 
L 195.557835 185.046261 
L 195.731464 179.78713 
L 195.915945 180.619511 
L 196.643019 180.619511 
L 196.816648 181.44 
L 197.543722 181.44 
L 197.728203 182.248851 
L 197.901832 182.248851 
L 198.086314 177.101617 
L 198.270795 182.248851 
L 198.444424 182.248851 
L 198.628906 183.04631 
L 198.987017 183.04631 
L 199.171498 177.935324 
L 199.355979 177.935324 
L 199.529609 178.757371 
L 199.71409 183.832615 
L 200.256682 183.832615 
L 200.441163 179.568 
L 200.983755 179.568 
L 201.157385 184.608 
L 201.341866 185.37269 
L 201.526348 180.367448 
L 202.06894 180.367448 
L 202.242569 181.155945 
L 202.42705 181.155945 
L 202.611532 186.126904 
L 202.785161 181.155945 
L 202.969642 181.155945 
L 203.154124 181.933714 
L 203.870345 181.933714 
L 204.054827 182.700973 
L 204.7819 182.700973 
L 204.955529 178.58706 
L 205.324492 178.58706 
L 205.498122 183.457933 
L 205.682603 183.457933 
L 205.867084 184.2048 
L 206.040714 184.2048 
L 206.225195 179.3664 
L 206.583306 179.3664 
L 206.767787 180.135417 
L 206.952268 184.941775 
L 207.125898 184.941775 
L 207.310379 180.135417 
L 207.49486 180.135417 
L 207.66849 180.894316 
L 208.037452 180.894316 
L 208.211082 185.669053 
L 208.395563 185.669053 
L 208.580045 181.643294 
L 209.296266 181.643294 
L 209.480747 182.382545 
L 209.665229 177.669818 
L 209.838858 182.382545 
L 210.207821 182.382545 
L 210.38145 183.112258 
L 210.750413 183.112258 
L 210.924042 178.429935 
L 211.108524 183.112258 
L 211.293005 183.832615 
L 211.835597 183.832615 
L 212.009226 179.180308 
L 212.193708 179.921121 
L 212.378189 179.921121 
L 212.551819 184.543796 
L 212.920781 184.543796 
L 213.094411 180.652557 
L 213.821484 180.652557 
L 214.005965 181.374792 
L 214.179595 185.939321 
L 214.364076 181.374792 
L 214.722187 181.374792 
L 214.906668 182.088 
L 215.633742 182.088 
L 215.807371 182.792348 
L 216.534444 182.792348 
L 216.718926 179.008 
L 216.892555 179.008 
L 217.077037 183.488 
L 217.435147 183.488 
L 217.619629 184.175117 
L 217.80411 179.722601 
L 218.162221 179.722601 
L 218.346702 184.175117 
L 218.520331 184.853854 
L 218.889294 184.853854 
L 219.062924 180.428488 
L 219.247405 180.428488 
L 219.431886 181.125818 
L 219.605516 181.125818 
L 219.789997 185.524364 
L 219.974478 185.524364 
L 220.148108 181.125818 
L 220.332589 181.814747 
L 221.059662 181.814747 
L 221.233292 182.495425 
L 221.960365 182.495425 
L 222.144847 183.168 
L 222.318476 183.168 
L 222.502957 178.848 
L 222.687439 183.168 
L 222.861068 183.168 
L 223.045549 183.832615 
L 223.40366 183.832615 
L 223.588141 179.538178 
L 223.772623 179.538178 
L 223.946252 180.220235 
L 224.130734 184.489412 
L 224.673326 184.489412 
L 224.857807 180.894316 
L 225.400399 180.894316 
L 225.574029 185.138526 
L 225.75851 185.780093 
L 225.942991 181.560558 
L 226.485583 181.560558 
L 226.659213 182.219098 
L 226.843694 182.219098 
L 227.028175 186.414243 
L 227.201805 182.219098 
L 227.386286 182.219098 
L 227.570767 182.870069 
L 228.113359 182.870069 
L 228.286989 178.699034 
L 228.47147 179.3664 
L 228.655952 183.5136 
L 229.198544 183.5136 
L 229.372173 184.149818 
L 229.556654 180.026182 
L 229.741136 180.026182 
L 229.914765 184.149818 
L 230.099246 184.149818 
L 230.283728 184.778847 
L 230.457357 184.778847 
L 230.641839 180.678508 
L 230.999949 180.678508 
L 231.184431 181.323506 
L 231.368912 185.400809 
L 231.727023 185.400809 
L 231.911504 181.323506 
L 232.085133 181.961296 
L 232.627726 181.961296 
L 232.812207 186.015821 
L 232.996688 182.592 
L 233.71291 182.592 
L 233.897391 183.215735 
L 234.624464 183.215735 
L 234.798094 183.832615 
L 235.167056 183.832615 
L 235.340686 179.844923 
L 235.525167 179.844923 
L 235.709649 180.476852 
L 235.883278 184.442754 
L 236.42587 184.442754 
L 236.610351 181.101913 
L 236.968462 181.101913 
L 237.152944 185.046261 
L 237.337425 185.046261 
L 237.511054 185.643243 
L 237.695536 181.720216 
L 238.238128 181.720216 
L 238.422609 182.331871 
L 238.596238 186.233806 
L 238.78072 186.233806 
L 238.965201 182.331871 
L 239.138831 182.331871 
L 239.323312 182.936984 
L 240.050385 182.936984 
L 240.224015 183.53566 
L 240.951088 183.53566 
L 241.135569 184.128 
L 241.309199 180.288 
L 241.49368 184.128 
L 241.851791 184.128 
L 242.036272 184.714105 
L 242.220754 184.714105 
L 242.394383 180.894316 
L 242.763346 180.894316 
L 242.936975 181.494283 
L 243.121456 185.294073 
L 243.479567 185.294073 
L 243.664048 181.494283 
L 243.84853 182.088 
L 244.206641 182.088 
L 244.391122 185.868 
L 244.564751 185.868 
L 244.749233 182.675565 
L 245.476306 182.675565 
L 245.649935 183.257072 
L 246.377009 183.257072 
L 246.56149 183.832615 
L 246.919601 183.832615 
L 247.104082 180.110769 
L 247.277712 183.832615 
L 247.462193 184.402286 
L 248.189266 184.402286 
L 248.362896 181.282112 
L 248.547377 181.282112 
L 248.731859 184.966173 
L 249.089969 184.966173 
L 249.274451 185.524364 
L 249.44808 181.858909 
L 249.990672 181.858909 
L 250.175153 182.42991 
L 250.359635 186.076945 
L 250.533264 186.076945 
L 250.717746 182.42991 
L 250.902227 182.42991 
L 251.075856 182.9952 
L 251.444819 182.9952 
L 251.618448 186.624 
L 251.80293 182.9952 
L 251.987411 183.554866 
L 252.703633 183.554866 
L 252.888114 184.10899 
L 253.072595 180.516119 
L 253.246225 184.10899 
L 253.615187 184.10899 
L 253.788817 184.657655 
L 253.973298 184.657655 
L 254.157779 181.082483 
L 254.331409 181.082483 
L 254.51589 184.657655 
L 254.700371 185.200941 
L 255.242963 185.200941 
L 255.416593 181.643294 
L 255.601074 182.198634 
L 255.959185 182.198634 
L 256.143666 185.738927 
L 256.328148 185.738927 
L 256.501777 182.748583 
L 257.22885 182.748583 
L 257.413332 183.293217 
L 257.586961 186.799304 
L 257.771443 183.293217 
L 258.129553 183.293217 
L 258.314035 183.832615 
L 258.672145 183.832615 
L 258.856627 180.343385 
L 259.041108 183.832615 
L 259.214738 184.366852 
L 259.941811 184.366852 
L 260.126292 181.44 
L 260.299922 181.44 
L 260.484403 184.896 
L 260.842514 184.896 
L 261.026995 185.420133 
L 261.211476 181.980512 
L 261.569587 181.980512 
L 261.754068 185.420133 
L 261.927698 185.939321 
L 262.296661 185.939321 
L 262.47029 182.515925 
L 262.654771 182.515925 
L 262.839253 183.04631 
L 263.197363 183.04631 
L 263.381845 186.453634 
L 263.555474 183.04631 
L 263.739955 183.571738 
L 264.467029 183.571738 
L 264.640658 184.092279 
L 265.367732 184.092279 
L 265.552213 184.608 
L 265.725842 184.608 
L 265.910324 181.248 
L 266.094805 181.248 
L 266.268435 184.608 
L 266.452916 185.118968 
L 266.995508 185.118968 
L 267.179989 181.774452 
L 267.353619 182.296073 
L 267.5381 182.296073 
L 267.722581 185.625248 
L 268.080692 185.625248 
L 268.265173 182.812932 
L 268.981395 182.812932 
L 269.165876 183.325091 
L 269.350358 186.624 
L 269.523987 183.325091 
L 269.89295 183.325091 
L 270.066579 183.832615 
L 270.435542 183.832615 
L 270.609171 187.116597 
L 270.793652 183.832615 
L 270.978134 184.335568 
L 271.694355 184.335568 
L 271.878837 181.57948 
L 272.063318 181.57948 
L 272.236947 184.834009 
L 272.60591 184.834009 
L 272.77954 185.328 
L 272.964021 185.328 
L 273.148502 182.088 
L 273.322132 182.088 
L 273.506613 185.328 
L 273.691094 185.8176 
L 274.049205 185.8176 
L 274.233686 182.592 
L 274.407316 182.592 
L 274.591797 183.09154 
L 274.949908 183.09154 
L 275.134389 186.302867 
L 275.31887 186.302867 
L 275.4925 183.586678 
L 276.219573 183.586678 
L 276.404055 184.077474 
L 277.120276 184.077474 
L 277.304757 184.563983 
L 277.662868 184.563983 
L 277.84735 181.394725 
L 278.031831 184.563983 
L 278.20546 185.046261 
L 278.748052 185.046261 
L 278.932534 181.890783 
L 279.117015 182.382545 
L 279.290644 182.382545 
L 279.475126 185.524364 
L 279.833237 185.524364 
L 280.017718 185.998345 
L 280.202199 182.870069 
L 280.744791 182.870069 
L 280.918421 183.353408 
L 281.102902 186.468258 
L 281.287383 183.353408 
L 281.645494 183.353408 
L 281.829975 183.832615 
L 282.188086 183.832615 
L 282.372567 186.934154 
L 282.546197 183.832615 
L 282.730678 184.307745 
L 283.457752 184.307745 
L 283.631381 184.778847 
L 283.815862 181.703593 
L 284.000344 184.778847 
L 284.358455 184.778847 
L 284.542936 185.245975 
L 284.716565 185.245975 
L 284.901047 182.183696 
L 285.085528 182.183696 
L 285.259157 185.245975 
L 285.443639 185.709176 
L 285.986231 185.709176 
L 286.170712 182.659765 
L 286.344342 183.131849 
L 286.713304 183.131849 
L 286.886934 186.168502 
L 287.071415 186.168502 
L 287.255896 183.6 
L 287.972118 183.6 
L 288.156599 184.064266 
L 288.34108 187.075718 
L 288.51471 184.064266 
L 288.883672 184.064266 
L 289.057302 184.524694 
L 289.426265 184.524694 
L 289.599894 181.525686 
L 289.784375 184.524694 
L 289.968857 184.981333 
L 290.685078 184.981333 
L 290.869559 182.459803 
L 291.054041 182.459803 
L 291.22767 185.43423 
L 291.596633 185.43423 
L 291.770262 185.883429 
L 291.954744 182.921143 
L 292.497336 182.921143 
L 292.681817 183.378732 
L 292.855446 186.328976 
L 293.039928 186.328976 
L 293.224409 183.378732 
L 293.398039 183.378732 
L 293.58252 183.832615 
L 293.940631 183.832615 
L 294.125112 186.770915 
L 294.309593 186.770915 
L 294.483223 184.282839 
L 295.210296 184.282839 
L 295.394777 184.729446 
L 295.568407 181.814747 
L 295.752888 184.729446 
L 296.110999 184.729446 
L 296.29548 185.17248 
L 296.653591 185.17248 
L 296.838072 182.26944 
L 297.022554 185.17248 
L 297.196183 185.611984 
L 297.738775 185.611984 
L 297.923257 182.72051 
L 298.107738 183.168 
L 298.465849 183.168 
L 298.65033 186.048 
L 298.823959 186.048 
L 299.008441 186.480569 
L 299.192922 183.611953 
L 299.735514 183.611953 
L 299.909144 184.052409 
L 300.093625 186.909732 
L 300.278106 184.052409 
L 300.636217 184.052409 
L 300.820698 184.489412 
L 301.53692 184.489412 
L 301.721401 184.923 
L 302.448474 184.923 
L 302.622104 185.353214 
L 302.806585 182.529245 
L 302.991067 185.353214 
L 303.349177 185.353214 
L 303.533659 185.780093 
L 303.707288 185.780093 
L 303.891769 182.96707 
L 304.24988 182.96707 
L 304.434361 183.401514 
L 304.618843 186.203676 
L 304.976954 186.203676 
L 305.161435 183.401514 
L 305.335064 183.832615 
L 305.704027 183.832615 
L 305.877656 186.624 
L 306.062138 186.624 
L 306.246619 184.260414 
L 306.962841 184.260414 
L 307.147322 184.684947 
L 307.874395 184.684947 
L 308.048025 185.106251 
L 308.775098 185.106251 
L 308.959579 185.524364 
L 309.675801 185.524364 
L 309.860282 183.200604 
L 310.218393 183.200604 
L 310.402874 185.939321 
L 310.587356 185.939321 
L 310.760985 186.351158 
L 310.945466 186.351158 
L 311.129948 183.622737 
L 311.488059 183.622737 
L 311.67254 184.041708 
L 311.846169 186.75991 
L 312.030651 186.75991 
L 312.215132 184.041708 
L 312.388761 184.041708 
L 312.573243 184.457552 
L 313.115835 184.457552 
L 313.300316 187.165612 
L 313.473946 184.870305 
L 314.201019 184.870305 
L 314.3855 185.28 
L 314.55913 182.592 
L 314.743611 185.28 
L 315.101722 185.28 
L 315.286203 185.686672 
L 315.644314 185.686672 
L 315.828795 183.00859 
L 316.013276 183.00859 
L 316.186906 183.422118 
L 316.371387 186.090353 
L 316.913979 186.090353 
L 317.098461 183.832615 
L 317.456571 183.832615 
L 317.641053 186.491077 
L 317.814682 186.491077 
L 317.999164 186.888876 
L 318.183645 184.240117 
L 318.726237 184.240117 
L 318.899866 184.644655 
L 319.084348 184.644655 
L 319.268829 187.283782 
L 319.442458 184.644655 
L 319.62694 184.644655 
L 319.811421 185.046261 
L 320.354013 185.046261 
L 320.527643 182.416696 
L 320.712124 182.824895 
L 320.896605 185.444968 
L 321.439197 185.444968 
L 321.612827 185.840806 
L 321.797308 183.230158 
L 321.981789 183.230158 
L 322.155419 185.840806 
L 322.3399 185.840806 
L 322.524381 186.233806 
L 322.882492 186.233806 
L 323.066974 183.632516 
L 323.240603 183.632516 
L 323.425084 184.032 
L 323.609566 184.032 
L 323.783195 186.624 
L 323.967676 186.624 
L 324.152158 184.032 
L 324.325787 184.428641 
L 324.868379 184.428641 
L 325.052861 187.011416 
L 325.237342 187.396085 
L 325.410971 184.822468 
L 325.953563 184.822468 
L 326.138045 185.213512 
L 326.322526 185.213512 
L 326.496155 182.648989 
L 326.680637 185.213512 
L 326.865118 185.213512 
L 327.038748 185.601803 
L 327.58134 185.601803 
L 327.765821 183.04631 
L 327.950302 183.440842 
L 328.123932 185.987368 
L 328.666524 185.987368 
L 328.851005 186.370238 
L 329.035486 183.832615 
L 329.393597 183.832615 
L 329.578079 186.370238 
L 329.751708 186.750439 
L 329.936189 186.750439 
L 330.120671 184.221659 
L 330.478781 184.221659 
L 330.663263 184.608 
L 330.836892 184.608 
L 331.021373 187.128 
L 331.205855 187.128 
L 331.379484 184.608 
L 331.563966 184.991668 
L 332.291039 184.991668 
L 332.464668 182.870069 
L 332.64915 185.37269 
L 333.191742 185.37269 
L 333.376223 185.751093 
L 333.549853 185.751093 
L 333.734334 183.257072 
L 333.918815 185.751093 
L 334.092445 185.751093 
L 334.276926 186.126904 
L 334.819518 186.126904 
L 335.003999 183.641425 
L 335.177629 184.023154 
L 335.36211 184.023154 
L 335.546591 186.50015 
L 335.904702 186.50015 
L 336.089183 184.402286 
L 336.805405 184.402286 
L 336.989886 184.778847 
L 337.174368 187.239051 
L 337.347997 184.778847 
L 337.71696 184.778847 
L 337.890589 185.152865 
L 338.259552 185.152865 
L 338.433181 187.604757 
L 338.617663 185.152865 
L 338.802144 185.524364 
L 339.518365 185.524364 
L 339.702847 183.457933 
L 339.887328 183.457933 
L 340.060957 185.893369 
L 340.42992 185.893369 
L 340.60355 186.259906 
L 340.788031 186.259906 
L 340.972512 183.832615 
L 341.146142 183.832615 
L 341.330623 186.259906 
L 341.515104 186.624 
L 341.873215 186.624 
L 342.057696 184.2048 
L 342.231326 184.2048 
L 342.415807 184.574512 
L 342.773918 184.574512 
L 342.958399 186.985674 
L 343.142881 186.985674 
L 343.31651 184.941775 
L 344.043583 184.941775 
L 344.228065 185.306614 
L 344.401694 187.701861 
L 344.586175 185.306614 
L 344.944286 185.306614 
L 345.128768 185.669053 
L 345.486878 185.669053 
L 345.67136 183.281684 
L 345.855841 185.669053 
L 346.02947 186.029115 
L 346.756544 186.029115 
L 346.941025 184.015059 
L 347.114655 184.015059 
L 347.299136 186.386824 
L 347.657247 186.386824 
L 347.841728 186.742202 
L 348.026209 184.378163 
L 348.568801 184.378163 
L 348.742431 184.738909 
L 348.926912 187.095273 
L 349.111393 187.095273 
L 349.285023 184.738909 
L 349.469504 184.738909 
L 349.653985 185.09732 
L 350.196578 185.09732 
L 350.370207 187.446058 
L 350.554688 185.453419 
L 351.281762 185.453419 
L 351.455391 185.807228 
L 351.639872 183.473595 
L 351.824354 185.807228 
L 352.182465 185.807228 
L 352.366946 186.158769 
L 352.725057 186.158769 
L 352.909538 183.832615 
L 353.083167 183.832615 
L 353.267649 184.189342 
L 353.45213 186.508064 
L 353.994722 186.508064 
L 354.168352 184.543796 
L 354.537314 184.543796 
L 354.710944 186.855134 
L 354.895425 186.855134 
L 355.079906 187.2 
L 355.253536 184.896 
L 355.796128 184.896 
L 355.980609 185.245975 
L 356.16509 185.245975 
L 356.33872 187.542684 
L 356.523201 185.245975 
L 356.707683 185.245975 
L 356.881312 185.593741 
L 357.608385 185.593741 
L 357.792867 185.939321 
L 358.509088 185.939321 
L 358.69357 186.282734 
L 358.878051 184.007624 
L 359.05168 184.007624 
L 359.236162 186.282734 
L 359.420643 186.282734 
L 359.594272 186.624 
L 359.963235 186.624 
L 360.136864 184.356 
L 360.321346 184.356 
L 360.505827 184.702206 
L 360.679457 184.702206 
L 360.863938 186.96314 
L 361.048419 186.96314 
L 361.222049 184.702206 
L 361.40653 185.046261 
L 361.949122 185.046261 
L 362.133603 187.300174 
L 362.307233 187.635121 
L 362.491714 185.388186 
L 363.034306 185.388186 
L 363.218787 185.728 
L 363.935009 185.728 
L 364.11949 186.065723 
L 364.662082 186.065723 
L 364.846564 183.832615 
L 365.020193 184.175117 
L 365.204675 186.401374 
L 365.747267 186.401374 
L 365.931748 186.734972 
L 366.105377 184.515523 
L 366.47434 184.515523 
L 366.647969 186.734972 
L 366.832451 187.066537 
L 367.190562 187.066537 
L 367.375043 184.853854 
L 367.559524 184.853854 
L 367.733154 185.190128 
L 368.102116 185.190128 
L 368.275746 187.396085 
L 368.460227 185.190128 
L 368.644708 185.524364 
L 369.36093 185.524364 
L 369.545411 185.85658 
L 370.272485 185.85658 
L 370.446114 186.186795 
L 370.630595 186.186795 
L 370.815077 184.000771 
L 370.988706 184.000771 
L 371.173187 186.186795 
L 371.357669 186.515027 
L 371.900261 186.515027 
L 372.07389 184.335568 
L 372.258372 184.668359 
L 372.442853 184.668359 
L 372.616482 186.841293 
L 372.985445 186.841293 
L 373.159074 187.165612 
L 373.343556 184.999164 
L 373.886148 184.999164 
L 374.070629 185.328 
L 374.244259 187.488 
L 374.42874 185.328 
L 374.786851 185.328 
L 374.971332 185.654884 
L 375.329443 185.654884 
L 375.513924 187.808475 
L 375.698405 185.654884 
L 375.872035 185.979834 
L 376.599108 185.979834 
L 376.78359 186.302867 
L 376.957219 184.161982 
L 377.1417 186.302867 
L 377.499811 186.302867 
L 377.684292 186.624 
L 377.868774 186.624 
L 378.042403 184.489412 
L 378.411366 184.489412 
L 378.584995 184.814921 
L 378.769477 186.943249 
L 379.127587 186.943249 
L 379.312069 184.814921 
L 379.49655 185.138526 
L 379.854661 185.138526 
L 380.039142 187.260632 
L 380.212771 187.260632 
L 380.397253 187.576163 
L 380.581734 185.460245 
L 381.124326 185.460245 
L 381.297956 185.780093 
L 382.025029 185.780093 
L 382.20951 186.098087 
L 382.925732 186.098087 
L 383.110213 186.414243 
L 383.837287 186.414243 
L 384.010916 184.637049 
L 384.379879 184.637049 
L 384.553508 186.728576 
L 384.737989 186.728576 
L 384.922471 187.041103 
L 385.0961 187.041103 
L 385.280581 184.955586 
L 385.638692 184.955586 
L 385.823174 185.272298 
L 386.007655 185.272298 
L 386.181284 187.35184 
L 386.365766 187.35184 
L 386.550247 185.272298 
L 386.723876 185.5872 
L 387.266469 185.5872 
L 387.45095 187.6608 
L 387.635431 185.900308 
L 388.351653 185.900308 
L 388.536134 186.211636 
L 388.720615 186.211636 
L 388.894245 184.149818 
L 389.078726 186.211636 
L 389.263207 186.211636 
L 389.436837 186.521201 
L 389.979429 186.521201 
L 390.16391 184.465224 
L 390.348392 184.778847 
L 390.522021 186.829017 
L 391.064613 186.829017 
L 391.249094 185.090704 
L 391.791686 185.090704 
L 391.976168 187.135099 
L 392.149797 187.439461 
L 392.334279 187.439461 
L 392.51876 185.400809 
L 392.876871 185.400809 
L 393.061352 185.709176 
L 393.419463 185.709176 
L 393.603944 187.742118 
L 393.777573 185.709176 
L 393.962055 186.015821 
L 394.689128 186.015821 
L 394.862758 184.299142 
L 395.047239 186.320758 
L 395.589831 186.320758 
L 395.774312 186.624 
L 395.947942 186.624 
L 396.132423 184.608 
L 396.316904 184.608 
L 396.490534 186.624 
L 396.675015 186.925562 
L 397.217607 186.925562 
L 397.402089 184.915147 
L 397.575718 185.220597 
L 397.760199 185.220597 
L 397.944681 187.225459 
L 398.302791 187.225459 
L 398.487273 185.524364 
L 398.487273 185.524364 
" style="fill:none;stroke:#1f77b4;stroke-linecap:square;stroke-width:1.5;"/>
   </g>
   <g id="patch_3">
    <path d="M 57.6 307.584 
L 57.6 41.472 
" style="fill:none;stroke:#000000;stroke-linecap:square;stroke-linejoin:miter;stroke-width:0.8;"/>
   </g>
   <g id="patch_4">
    <path d="M 414.72 307.584 
L 414.72 41.472 
" style="fill:none;stroke:#000000;stroke-linecap:square;stroke-linejoin:miter;stroke-width:0.8;"/>
   </g>
   <g id="patch_5">
    <path d="M 57.6 307.584 
L 414.72 307.584 
" style="fill:none;stroke:#000000;stroke-linecap:square;stroke-linejoin:miter;stroke-width:0.8;"/>
   </g>
   <g id="patch_6">
    <path d="M 57.6 41.472 
L 414.72 41.472 
" style="fill:none;stroke:#000000;stroke-linecap:square;stroke-linejoin:miter;stroke-width:0.8;"/>
   </g>
   <g id="text_18">
    <!-- Speed function of time -->
    <g transform="translate(167.024063 35.472)scale(0.12 -0.12)">
     <defs>
      <path id="DejaVuSerif-32"/>
      <path d="M 43.015625 63.71875 
L 38.28125 63.71875 
Q 38.234375 67.390625 36.203125 69.28125 
Q 34.1875 71.1875 30.328125 71.1875 
Q 25.296875 71.1875 23.234375 68.421875 
Q 21.1875 65.671875 21.1875 58.59375 
L 21.1875 51.90625 
L 35.6875 51.90625 
L 35.6875 46.6875 
L 21.1875 46.6875 
L 21.1875 5.171875 
L 32.71875 5.171875 
L 32.71875 0 
L 3.609375 0 
L 3.609375 5.171875 
L 12.203125 5.171875 
L 12.203125 46.6875 
L 3.609375 46.6875 
L 3.609375 51.90625 
L 12.203125 51.90625 
L 12.203125 58.40625 
Q 12.203125 67.09375 16.71875 71.53125 
Q 21.234375 75.984375 29.984375 75.984375 
Q 33.25 75.984375 36.515625 75.390625 
Q 39.796875 74.8125 43.015625 73.578125 
z
" id="DejaVuSerif-102"/>
      <path d="M 35.40625 51.90625 
L 52.203125 51.90625 
L 52.203125 5.171875 
L 60.6875 5.171875 
L 60.6875 0 
L 43.21875 0 
L 43.21875 9.1875 
Q 40.71875 4 36.765625 1.28125 
Q 32.8125 -1.421875 27.59375 -1.421875 
Q 18.953125 -1.421875 14.875 3.484375 
Q 10.796875 8.40625 10.796875 18.890625 
L 10.796875 46.6875 
L 2.6875 46.6875 
L 2.6875 51.90625 
L 19.828125 51.90625 
L 19.828125 21.6875 
Q 19.828125 12.203125 22.140625 8.6875 
Q 24.46875 5.171875 30.421875 5.171875 
Q 36.671875 5.171875 39.9375 9.765625 
Q 43.21875 14.359375 43.21875 23.09375 
L 43.21875 46.6875 
L 35.40625 46.6875 
z
" id="DejaVuSerif-117"/>
      <path d="M 4.109375 0 
L 4.109375 5.171875 
L 12.203125 5.171875 
L 12.203125 46.6875 
L 3.609375 46.6875 
L 3.609375 51.90625 
L 21.1875 51.90625 
L 21.1875 42.671875 
Q 23.6875 47.953125 27.65625 50.640625 
Q 31.640625 53.328125 36.921875 53.328125 
Q 45.515625 53.328125 49.5625 48.390625 
Q 53.609375 43.453125 53.609375 33.015625 
L 53.609375 5.171875 
L 61.625 5.171875 
L 61.625 0 
L 36.8125 0 
L 36.8125 5.171875 
L 44.578125 5.171875 
L 44.578125 30.171875 
Q 44.578125 39.703125 42.234375 43.234375 
Q 39.890625 46.78125 33.984375 46.78125 
Q 27.734375 46.78125 24.453125 42.203125 
Q 21.1875 37.640625 21.1875 28.90625 
L 21.1875 5.171875 
L 29 5.171875 
L 29 0 
z
" id="DejaVuSerif-110"/>
      <path d="M 51.421875 15.578125 
Q 49.515625 7.28125 44.09375 2.921875 
Q 38.671875 -1.421875 30.078125 -1.421875 
Q 18.75 -1.421875 11.859375 6.078125 
Q 4.984375 13.578125 4.984375 25.984375 
Q 4.984375 38.421875 11.859375 45.875 
Q 18.75 53.328125 30.078125 53.328125 
Q 35.015625 53.328125 39.890625 52.171875 
Q 44.78125 51.03125 49.703125 48.6875 
L 49.703125 35.40625 
L 44.484375 35.40625 
Q 43.453125 42.234375 40.015625 45.359375 
Q 36.578125 48.484375 30.171875 48.484375 
Q 22.90625 48.484375 19.1875 42.84375 
Q 15.484375 37.203125 15.484375 25.984375 
Q 15.484375 14.75 19.171875 9.078125 
Q 22.859375 3.421875 30.171875 3.421875 
Q 35.984375 3.421875 39.453125 6.4375 
Q 42.921875 9.46875 44.1875 15.578125 
z
" id="DejaVuSerif-99"/>
      <path d="M 10.796875 46.6875 
L 2.875 46.6875 
L 2.875 51.90625 
L 10.796875 51.90625 
L 10.796875 68.015625 
L 19.828125 68.015625 
L 19.828125 51.90625 
L 36.71875 51.90625 
L 36.71875 46.6875 
L 19.828125 46.6875 
L 19.828125 13.71875 
Q 19.828125 7.125 21.09375 5.265625 
Q 22.359375 3.421875 25.78125 3.421875 
Q 29.296875 3.421875 30.90625 5.484375 
Q 32.515625 7.5625 32.625 12.203125 
L 39.40625 12.203125 
Q 39.015625 5.125 35.546875 1.84375 
Q 32.078125 -1.421875 25 -1.421875 
Q 17.234375 -1.421875 14.015625 2.015625 
Q 10.796875 5.46875 10.796875 13.71875 
z
" id="DejaVuSerif-116"/>
      <path d="M 30.078125 3.421875 
Q 37.3125 3.421875 40.984375 9.125 
Q 44.671875 14.84375 44.671875 25.984375 
Q 44.671875 37.109375 40.984375 42.796875 
Q 37.3125 48.484375 30.078125 48.484375 
Q 22.859375 48.484375 19.171875 42.796875 
Q 15.484375 37.109375 15.484375 25.984375 
Q 15.484375 14.84375 19.1875 9.125 
Q 22.90625 3.421875 30.078125 3.421875 
z
M 30.078125 -1.421875 
Q 18.75 -1.421875 11.859375 6.078125 
Q 4.984375 13.578125 4.984375 25.984375 
Q 4.984375 38.375 11.84375 45.84375 
Q 18.703125 53.328125 30.078125 53.328125 
Q 41.453125 53.328125 48.3125 45.84375 
Q 55.171875 38.375 55.171875 25.984375 
Q 55.171875 13.578125 48.3125 6.078125 
Q 41.453125 -1.421875 30.078125 -1.421875 
z
" id="DejaVuSerif-111"/>
     </defs>
     <use xlink:href="#DejaVuSerif-83"/>
     <use x="68.505859" xlink:href="#DejaVuSerif-112"/>
     <use x="132.519531" xlink:href="#DejaVuSerif-101"/>
     <use x="191.699219" xlink:href="#DejaVuSerif-101"/>
     <use x="250.878906" xlink:href="#DejaVuSerif-100"/>
     <use x="314.892578" xlink:href="#DejaVuSerif-32"/>
     <use x="346.679688" xlink:href="#DejaVuSerif-102"/>
     <use x="383.691406" xlink:href="#DejaVuSerif-117"/>
     <use x="448.095703" xlink:href="#DejaVuSerif-110"/>
     <use x="512.5" xlink:href="#DejaVuSerif-99"/>
     <use x="568.505859" xlink:href="#DejaVuSerif-116"/>
     <use x="608.691406" xlink:href="#DejaVuSerif-105"/>
     <use x="640.673828" xlink:href="#DejaVuSerif-111"/>
     <use x="700.878906" xlink:href="#DejaVuSerif-110"/>
     <use x="765.283203" xlink:href="#DejaVuSerif-32"/>
     <use x="797.070312" xlink:href="#DejaVuSerif-111"/>
     <use x="857.275391" xlink:href="#DejaVuSerif-102"/>
     <use x="894.287109" xlink:href="#DejaVuSerif-32"/>
     <use x="926.074219" xlink:href="#DejaVuSerif-116"/>
     <use x="966.259766" xlink:href="#DejaVuSerif-105"/>
     <use x="998.242188" xlink:href="#DejaVuSerif-109"/>
     <use x="1093.066406" xlink:href="#DejaVuSerif-101"/>
    </g>
   </g>
  </g>
 </g>
 <defs>
  <clipPath id="p8a3bd51934">
   <rect height="266.112" width="357.12" x="57.6" y="41.472"/>
  </clipPath>
 </defs>
</svg>
