<?xml version="1.0" encoding="utf-8" standalone="no"?>
<!DOCTYPE svg PUBLIC "-//W3C//DTD SVG 1.1//EN"
  "http://www.w3.org/Graphics/SVG/1.1/DTD/svg11.dtd">
<!-- Created with matplotlib (https://matplotlib.org/) -->
<svg height="345.6pt" version="1.1" viewBox="0 0 460.8 345.6" width="460.8pt" xmlns="http://www.w3.org/2000/svg" xmlns:xlink="http://www.w3.org/1999/xlink">
 <metadata>
  <rdf:RDF xmlns:cc="http://creativecommons.org/ns#" xmlns:dc="http://purl.org/dc/elements/1.1/" xmlns:rdf="http://www.w3.org/1999/02/22-rdf-syntax-ns#">
   <cc:Work>
    <dc:type rdf:resource="http://purl.org/dc/dcmitype/StillImage"/>
    <dc:date>2022-07-17T16:40:15.902375</dc:date>
    <dc:format>image/svg+xml</dc:format>
    <dc:creator>
     <cc:Agent>
      <dc:title>Matplotlib v3.3.4, https://matplotlib.org/</dc:title>
     </cc:Agent>
    </dc:creator>
   </cc:Work>
  </rdf:RDF>
 </metadata>
 <defs>
  <style type="text/css">*{stroke-linecap:butt;stroke-linejoin:round;}</style>
 </defs>
 <g id="figure_1">
  <g id="patch_1">
   <path d="M 0 345.6 
L 460.8 345.6 
L 460.8 0 
L 0 0 
z
" style="fill:#ffffff;"/>
  </g>
  <g id="axes_1">
   <g id="patch_2">
    <path d="M 57.6 307.584 
L 414.72 307.584 
L 414.72 41.472 
L 57.6 41.472 
z
" style="fill:#ffffff;"/>
   </g>
   <g id="matplotlib.axis_1">
    <g id="xtick_1">
     <g id="line2d_1">
      <defs>
       <path d="M 0 0 
L 0 3.5 
" id="me9e0383716" style="stroke:#000000;stroke-width:0.8;"/>
      </defs>
      <g>
       <use style="stroke:#000000;stroke-width:0.8;" x="68.050076" xlink:href="#me9e0383716" y="307.584"/>
      </g>
     </g>
     <g id="text_1">
      <!-- 0 -->
      <g transform="translate(64.868826 322.182437)scale(0.1 -0.1)">
       <defs>
        <path d="M 31.78125 3.421875 
Q 39.265625 3.421875 42.96875 11.625 
Q 46.6875 19.828125 46.6875 36.375 
Q 46.6875 52.984375 42.96875 61.1875 
Q 39.265625 69.390625 31.78125 69.390625 
Q 24.3125 69.390625 20.59375 61.1875 
Q 16.890625 52.984375 16.890625 36.375 
Q 16.890625 19.828125 20.59375 11.625 
Q 24.3125 3.421875 31.78125 3.421875 
z
M 31.78125 -1.421875 
Q 19.921875 -1.421875 13.25 8.53125 
Q 6.59375 18.5 6.59375 36.375 
Q 6.59375 54.296875 13.25 64.25 
Q 19.921875 74.21875 31.78125 74.21875 
Q 43.703125 74.21875 50.34375 64.25 
Q 56.984375 54.296875 56.984375 36.375 
Q 56.984375 18.5 50.34375 8.53125 
Q 43.703125 -1.421875 31.78125 -1.421875 
z
" id="DejaVuSerif-48"/>
       </defs>
       <use xlink:href="#DejaVuSerif-48"/>
      </g>
     </g>
    </g>
    <g id="xtick_2">
     <g id="line2d_2">
      <g>
       <use style="stroke:#000000;stroke-width:0.8;" x="109.354726" xlink:href="#me9e0383716" y="307.584"/>
      </g>
     </g>
     <g id="text_2">
      <!-- 25 -->
      <g transform="translate(102.992226 322.182437)scale(0.1 -0.1)">
       <defs>
        <path d="M 12.796875 55.515625 
L 7.328125 55.515625 
L 7.328125 68.5 
Q 12.546875 71.296875 17.84375 72.75 
Q 23.140625 74.21875 28.21875 74.21875 
Q 39.59375 74.21875 46.1875 68.703125 
Q 52.78125 63.1875 52.78125 53.71875 
Q 52.78125 43.015625 37.84375 28.125 
Q 36.671875 27 36.078125 26.421875 
L 17.671875 8.015625 
L 48.09375 8.015625 
L 48.09375 17 
L 53.8125 17 
L 53.8125 0 
L 6.78125 0 
L 6.78125 5.328125 
L 28.90625 27.390625 
Q 36.234375 34.71875 39.359375 40.84375 
Q 42.484375 46.96875 42.484375 53.71875 
Q 42.484375 61.078125 38.640625 65.234375 
Q 34.8125 69.390625 28.078125 69.390625 
Q 21.09375 69.390625 17.28125 65.921875 
Q 13.484375 62.453125 12.796875 55.515625 
z
" id="DejaVuSerif-50"/>
        <path d="M 50.296875 72.90625 
L 50.296875 64.890625 
L 16.890625 64.890625 
L 16.890625 44 
Q 19.4375 45.75 22.828125 46.625 
Q 26.21875 47.515625 30.421875 47.515625 
Q 42.234375 47.515625 49.0625 40.96875 
Q 55.90625 34.421875 55.90625 23.09375 
Q 55.90625 11.53125 49 5.046875 
Q 42.09375 -1.421875 29.59375 -1.421875 
Q 24.5625 -1.421875 19.28125 -0.1875 
Q 14.015625 1.03125 8.5 3.515625 
L 8.5 17.671875 
L 14.015625 17.671875 
Q 14.453125 10.75 18.421875 7.078125 
Q 22.40625 3.421875 29.59375 3.421875 
Q 37.3125 3.421875 41.453125 8.5 
Q 45.609375 13.578125 45.609375 23.09375 
Q 45.609375 32.5625 41.484375 37.609375 
Q 37.359375 42.671875 29.59375 42.671875 
Q 25.203125 42.671875 21.84375 41.109375 
Q 18.5 39.546875 15.921875 36.28125 
L 11.71875 36.28125 
L 11.71875 72.90625 
z
" id="DejaVuSerif-53"/>
       </defs>
       <use xlink:href="#DejaVuSerif-50"/>
       <use x="63.623047" xlink:href="#DejaVuSerif-53"/>
      </g>
     </g>
    </g>
    <g id="xtick_3">
     <g id="line2d_3">
      <g>
       <use style="stroke:#000000;stroke-width:0.8;" x="150.659375" xlink:href="#me9e0383716" y="307.584"/>
      </g>
     </g>
     <g id="text_3">
      <!-- 50 -->
      <g transform="translate(144.296875 322.182437)scale(0.1 -0.1)">
       <use xlink:href="#DejaVuSerif-53"/>
       <use x="63.623047" xlink:href="#DejaVuSerif-48"/>
      </g>
     </g>
    </g>
    <g id="xtick_4">
     <g id="line2d_4">
      <g>
       <use style="stroke:#000000;stroke-width:0.8;" x="191.964025" xlink:href="#me9e0383716" y="307.584"/>
      </g>
     </g>
     <g id="text_4">
      <!-- 75 -->
      <g transform="translate(185.601525 322.182437)scale(0.1 -0.1)">
       <defs>
        <path d="M 56.390625 67.921875 
L 27.875 0 
L 20.609375 0 
L 47.796875 64.890625 
L 14.109375 64.890625 
L 14.109375 55.90625 
L 8.40625 55.90625 
L 8.40625 72.90625 
L 56.390625 72.90625 
z
" id="DejaVuSerif-55"/>
       </defs>
       <use xlink:href="#DejaVuSerif-55"/>
       <use x="63.623047" xlink:href="#DejaVuSerif-53"/>
      </g>
     </g>
    </g>
    <g id="xtick_5">
     <g id="line2d_5">
      <g>
       <use style="stroke:#000000;stroke-width:0.8;" x="233.268675" xlink:href="#me9e0383716" y="307.584"/>
      </g>
     </g>
     <g id="text_5">
      <!-- 100 -->
      <g transform="translate(223.724925 322.182437)scale(0.1 -0.1)">
       <defs>
        <path d="M 14.203125 0 
L 14.203125 5.171875 
L 26.90625 5.171875 
L 26.90625 65.828125 
L 12.203125 56.296875 
L 12.203125 62.703125 
L 29.984375 74.21875 
L 36.71875 74.21875 
L 36.71875 5.171875 
L 49.421875 5.171875 
L 49.421875 0 
z
" id="DejaVuSerif-49"/>
       </defs>
       <use xlink:href="#DejaVuSerif-49"/>
       <use x="63.623047" xlink:href="#DejaVuSerif-48"/>
       <use x="127.246094" xlink:href="#DejaVuSerif-48"/>
      </g>
     </g>
    </g>
    <g id="xtick_6">
     <g id="line2d_6">
      <g>
       <use style="stroke:#000000;stroke-width:0.8;" x="274.573324" xlink:href="#me9e0383716" y="307.584"/>
      </g>
     </g>
     <g id="text_6">
      <!-- 125 -->
      <g transform="translate(265.029574 322.182437)scale(0.1 -0.1)">
       <use xlink:href="#DejaVuSerif-49"/>
       <use x="63.623047" xlink:href="#DejaVuSerif-50"/>
       <use x="127.246094" xlink:href="#DejaVuSerif-53"/>
      </g>
     </g>
    </g>
    <g id="xtick_7">
     <g id="line2d_7">
      <g>
       <use style="stroke:#000000;stroke-width:0.8;" x="315.877974" xlink:href="#me9e0383716" y="307.584"/>
      </g>
     </g>
     <g id="text_7">
      <!-- 150 -->
      <g transform="translate(306.334224 322.182437)scale(0.1 -0.1)">
       <use xlink:href="#DejaVuSerif-49"/>
       <use x="63.623047" xlink:href="#DejaVuSerif-53"/>
       <use x="127.246094" xlink:href="#DejaVuSerif-48"/>
      </g>
     </g>
    </g>
    <g id="xtick_8">
     <g id="line2d_8">
      <g>
       <use style="stroke:#000000;stroke-width:0.8;" x="357.182623" xlink:href="#me9e0383716" y="307.584"/>
      </g>
     </g>
     <g id="text_8">
      <!-- 175 -->
      <g transform="translate(347.638873 322.182437)scale(0.1 -0.1)">
       <use xlink:href="#DejaVuSerif-49"/>
       <use x="63.623047" xlink:href="#DejaVuSerif-55"/>
       <use x="127.246094" xlink:href="#DejaVuSerif-53"/>
      </g>
     </g>
    </g>
    <g id="xtick_9">
     <g id="line2d_9">
      <g>
       <use style="stroke:#000000;stroke-width:0.8;" x="398.487273" xlink:href="#me9e0383716" y="307.584"/>
      </g>
     </g>
     <g id="text_9">
      <!-- 200 -->
      <g transform="translate(388.943523 322.182437)scale(0.1 -0.1)">
       <use xlink:href="#DejaVuSerif-50"/>
       <use x="63.623047" xlink:href="#DejaVuSerif-48"/>
       <use x="127.246094" xlink:href="#DejaVuSerif-48"/>
      </g>
     </g>
    </g>
    <g id="text_10">
     <!-- Time -->
     <g transform="translate(223.524844 335.860562)scale(0.1 -0.1)">
      <defs>
       <path d="M 19.09375 0 
L 19.09375 5.171875 
L 28.421875 5.171875 
L 28.421875 67.09375 
L 6.984375 67.09375 
L 6.984375 55.71875 
L 0.984375 55.71875 
L 0.984375 72.90625 
L 65.71875 72.90625 
L 65.71875 55.71875 
L 59.71875 55.71875 
L 59.71875 67.09375 
L 38.28125 67.09375 
L 38.28125 5.171875 
L 47.609375 5.171875 
L 47.609375 0 
z
" id="DejaVuSerif-84"/>
       <path d="M 9.71875 68.015625 
Q 9.71875 70.265625 11.34375 71.921875 
Q 12.984375 73.578125 15.28125 73.578125 
Q 17.53125 73.578125 19.15625 71.921875 
Q 20.796875 70.265625 20.796875 68.015625 
Q 20.796875 65.71875 19.1875 64.109375 
Q 17.578125 62.5 15.28125 62.5 
Q 12.984375 62.5 11.34375 64.109375 
Q 9.71875 65.71875 9.71875 68.015625 
z
M 21.1875 5.171875 
L 29.6875 5.171875 
L 29.6875 0 
L 3.609375 0 
L 3.609375 5.171875 
L 12.203125 5.171875 
L 12.203125 46.6875 
L 3.609375 46.6875 
L 3.609375 51.90625 
L 21.1875 51.90625 
z
" id="DejaVuSerif-105"/>
       <path d="M 51.8125 41.796875 
Q 54.390625 47.515625 58.421875 50.421875 
Q 62.453125 53.328125 67.828125 53.328125 
Q 75.984375 53.328125 79.984375 48.265625 
Q 83.984375 43.21875 83.984375 33.015625 
L 83.984375 5.171875 
L 92.09375 5.171875 
L 92.09375 0 
L 67.1875 0 
L 67.1875 5.171875 
L 75 5.171875 
L 75 31.984375 
Q 75 39.9375 72.65625 43.3125 
Q 70.3125 46.6875 64.890625 46.6875 
Q 58.890625 46.6875 55.734375 42.140625 
Q 52.59375 37.59375 52.59375 28.90625 
L 52.59375 5.171875 
L 60.40625 5.171875 
L 60.40625 0 
L 35.796875 0 
L 35.796875 5.171875 
L 43.609375 5.171875 
L 43.609375 32.328125 
Q 43.609375 40.09375 41.265625 43.390625 
Q 38.921875 46.6875 33.5 46.6875 
Q 27.484375 46.6875 24.328125 42.140625 
Q 21.1875 37.59375 21.1875 28.90625 
L 21.1875 5.171875 
L 29 5.171875 
L 29 0 
L 4.109375 0 
L 4.109375 5.171875 
L 12.203125 5.171875 
L 12.203125 46.78125 
L 3.609375 46.78125 
L 3.609375 51.90625 
L 21.1875 51.90625 
L 21.1875 42.671875 
Q 23.6875 47.859375 27.53125 50.59375 
Q 31.390625 53.328125 36.28125 53.328125 
Q 42.328125 53.328125 46.375 50.3125 
Q 50.4375 47.3125 51.8125 41.796875 
z
" id="DejaVuSerif-109"/>
       <path d="M 54.203125 25 
L 15.484375 25 
L 15.484375 24.609375 
Q 15.484375 14.109375 19.4375 8.765625 
Q 23.390625 3.421875 31.109375 3.421875 
Q 37.015625 3.421875 40.796875 6.515625 
Q 44.578125 9.625 46.09375 15.71875 
L 53.328125 15.71875 
Q 51.171875 7.171875 45.375 2.875 
Q 39.59375 -1.421875 30.171875 -1.421875 
Q 18.796875 -1.421875 11.890625 6.078125 
Q 4.984375 13.578125 4.984375 25.984375 
Q 4.984375 38.28125 11.765625 45.796875 
Q 18.5625 53.328125 29.59375 53.328125 
Q 41.359375 53.328125 47.65625 46.0625 
Q 53.953125 38.8125 54.203125 25 
z
M 43.609375 30.171875 
Q 43.3125 39.265625 39.765625 43.875 
Q 36.234375 48.484375 29.59375 48.484375 
Q 23.390625 48.484375 19.828125 43.84375 
Q 16.265625 39.203125 15.484375 30.171875 
z
" id="DejaVuSerif-101"/>
      </defs>
      <use xlink:href="#DejaVuSerif-84"/>
      <use x="66.699219" xlink:href="#DejaVuSerif-105"/>
      <use x="98.681641" xlink:href="#DejaVuSerif-109"/>
      <use x="193.505859" xlink:href="#DejaVuSerif-101"/>
     </g>
    </g>
   </g>
   <g id="matplotlib.axis_2">
    <g id="ytick_1">
     <g id="line2d_10">
      <defs>
       <path d="M 0 0 
L -3.5 0 
" id="m322e7f5054" style="stroke:#000000;stroke-width:0.8;"/>
      </defs>
      <g>
       <use style="stroke:#000000;stroke-width:0.8;" x="57.6" xlink:href="#m322e7f5054" y="295.488"/>
      </g>
     </g>
     <g id="text_11">
      <!-- 0.0 -->
      <g transform="translate(34.696875 299.287219)scale(0.1 -0.1)">
       <defs>
        <path d="M 9.421875 5.078125 
Q 9.421875 7.8125 11.28125 9.71875 
Q 13.140625 11.625 15.921875 11.625 
Q 18.609375 11.625 20.5 9.71875 
Q 22.40625 7.8125 22.40625 5.078125 
Q 22.40625 2.390625 20.5 0.484375 
Q 18.609375 -1.421875 15.921875 -1.421875 
Q 13.140625 -1.421875 11.28125 0.453125 
Q 9.421875 2.34375 9.421875 5.078125 
z
" id="DejaVuSerif-46"/>
       </defs>
       <use xlink:href="#DejaVuSerif-48"/>
       <use x="63.623047" xlink:href="#DejaVuSerif-46"/>
       <use x="95.410156" xlink:href="#DejaVuSerif-48"/>
      </g>
     </g>
    </g>
    <g id="ytick_2">
     <g id="line2d_11">
      <g>
       <use style="stroke:#000000;stroke-width:0.8;" x="57.6" xlink:href="#m322e7f5054" y="255.168"/>
      </g>
     </g>
     <g id="text_12">
      <!-- 0.2 -->
      <g transform="translate(34.696875 258.967219)scale(0.1 -0.1)">
       <use xlink:href="#DejaVuSerif-48"/>
       <use x="63.623047" xlink:href="#DejaVuSerif-46"/>
       <use x="95.410156" xlink:href="#DejaVuSerif-50"/>
      </g>
     </g>
    </g>
    <g id="ytick_3">
     <g id="line2d_12">
      <g>
       <use style="stroke:#000000;stroke-width:0.8;" x="57.6" xlink:href="#m322e7f5054" y="214.848"/>
      </g>
     </g>
     <g id="text_13">
      <!-- 0.4 -->
      <g transform="translate(34.696875 218.647219)scale(0.1 -0.1)">
       <defs>
        <path d="M 34.90625 24.703125 
L 34.90625 63.484375 
L 10.015625 24.703125 
z
M 56.390625 0 
L 23.1875 0 
L 23.1875 5.171875 
L 34.90625 5.171875 
L 34.90625 19.484375 
L 3.078125 19.484375 
L 3.078125 24.8125 
L 35.015625 74.21875 
L 44.671875 74.21875 
L 44.671875 24.703125 
L 58.59375 24.703125 
L 58.59375 19.484375 
L 44.671875 19.484375 
L 44.671875 5.171875 
L 56.390625 5.171875 
z
" id="DejaVuSerif-52"/>
       </defs>
       <use xlink:href="#DejaVuSerif-48"/>
       <use x="63.623047" xlink:href="#DejaVuSerif-46"/>
       <use x="95.410156" xlink:href="#DejaVuSerif-52"/>
      </g>
     </g>
    </g>
    <g id="ytick_4">
     <g id="line2d_13">
      <g>
       <use style="stroke:#000000;stroke-width:0.8;" x="57.6" xlink:href="#m322e7f5054" y="174.528"/>
      </g>
     </g>
     <g id="text_14">
      <!-- 0.6 -->
      <g transform="translate(34.696875 178.327219)scale(0.1 -0.1)">
       <defs>
        <path d="M 32.71875 3.421875 
Q 39.59375 3.421875 43.296875 8.46875 
Q 47.015625 13.53125 47.015625 23 
Q 47.015625 32.46875 43.296875 37.515625 
Q 39.59375 42.578125 32.71875 42.578125 
Q 25.734375 42.578125 22.0625 37.6875 
Q 18.40625 32.8125 18.40625 23.578125 
Q 18.40625 13.875 22.109375 8.640625 
Q 25.828125 3.421875 32.71875 3.421875 
z
M 16.796875 40.140625 
Q 20.125 43.796875 24.3125 45.59375 
Q 28.515625 47.40625 33.796875 47.40625 
Q 44.671875 47.40625 51 40.859375 
Q 57.328125 34.328125 57.328125 23 
Q 57.328125 11.921875 50.515625 5.25 
Q 43.703125 -1.421875 32.328125 -1.421875 
Q 19.96875 -1.421875 13.328125 7.78125 
Q 6.6875 17 6.6875 34.078125 
Q 6.6875 53.21875 14.546875 63.71875 
Q 22.40625 74.21875 36.71875 74.21875 
Q 40.578125 74.21875 44.828125 73.484375 
Q 49.078125 72.75 53.515625 71.296875 
L 53.515625 59.28125 
L 48 59.28125 
Q 47.40625 64.203125 44.234375 66.796875 
Q 41.0625 69.390625 35.6875 69.390625 
Q 26.21875 69.390625 21.578125 62.203125 
Q 16.9375 55.03125 16.796875 40.140625 
z
" id="DejaVuSerif-54"/>
       </defs>
       <use xlink:href="#DejaVuSerif-48"/>
       <use x="63.623047" xlink:href="#DejaVuSerif-46"/>
       <use x="95.410156" xlink:href="#DejaVuSerif-54"/>
      </g>
     </g>
    </g>
    <g id="ytick_5">
     <g id="line2d_14">
      <g>
       <use style="stroke:#000000;stroke-width:0.8;" x="57.6" xlink:href="#m322e7f5054" y="134.208"/>
      </g>
     </g>
     <g id="text_15">
      <!-- 0.8 -->
      <g transform="translate(34.696875 138.007219)scale(0.1 -0.1)">
       <defs>
        <path d="M 46.578125 19.921875 
Q 46.578125 27.734375 42.6875 32.046875 
Q 38.8125 36.375 31.78125 36.375 
Q 24.75 36.375 20.875 32.046875 
Q 17 27.734375 17 19.921875 
Q 17 12.0625 20.875 7.734375 
Q 24.75 3.421875 31.78125 3.421875 
Q 38.8125 3.421875 42.6875 7.734375 
Q 46.578125 12.0625 46.578125 19.921875 
z
M 44.578125 55.328125 
Q 44.578125 61.96875 41.203125 65.671875 
Q 37.84375 69.390625 31.78125 69.390625 
Q 25.78125 69.390625 22.390625 65.671875 
Q 19 61.96875 19 55.328125 
Q 19 48.640625 22.390625 44.921875 
Q 25.78125 41.21875 31.78125 41.21875 
Q 37.84375 41.21875 41.203125 44.921875 
Q 44.578125 48.640625 44.578125 55.328125 
z
M 39.3125 38.8125 
Q 47.609375 37.703125 52.25 32.6875 
Q 56.890625 27.6875 56.890625 19.921875 
Q 56.890625 9.671875 50.390625 4.125 
Q 43.890625 -1.421875 31.78125 -1.421875 
Q 19.734375 -1.421875 13.203125 4.125 
Q 6.6875 9.671875 6.6875 19.921875 
Q 6.6875 27.6875 11.328125 32.6875 
Q 15.96875 37.703125 24.3125 38.8125 
Q 16.9375 40.140625 13 44.40625 
Q 9.078125 48.6875 9.078125 55.328125 
Q 9.078125 64.109375 15.125 69.15625 
Q 21.1875 74.21875 31.78125 74.21875 
Q 42.390625 74.21875 48.4375 69.15625 
Q 54.5 64.109375 54.5 55.328125 
Q 54.5 48.6875 50.5625 44.40625 
Q 46.625 40.140625 39.3125 38.8125 
z
" id="DejaVuSerif-56"/>
       </defs>
       <use xlink:href="#DejaVuSerif-48"/>
       <use x="63.623047" xlink:href="#DejaVuSerif-46"/>
       <use x="95.410156" xlink:href="#DejaVuSerif-56"/>
      </g>
     </g>
    </g>
    <g id="ytick_6">
     <g id="line2d_15">
      <g>
       <use style="stroke:#000000;stroke-width:0.8;" x="57.6" xlink:href="#m322e7f5054" y="93.888"/>
      </g>
     </g>
     <g id="text_16">
      <!-- 1.0 -->
      <g transform="translate(34.696875 97.687219)scale(0.1 -0.1)">
       <use xlink:href="#DejaVuSerif-49"/>
       <use x="63.623047" xlink:href="#DejaVuSerif-46"/>
       <use x="95.410156" xlink:href="#DejaVuSerif-48"/>
      </g>
     </g>
    </g>
    <g id="ytick_7">
     <g id="line2d_16">
      <g>
       <use style="stroke:#000000;stroke-width:0.8;" x="57.6" xlink:href="#m322e7f5054" y="53.568"/>
      </g>
     </g>
     <g id="text_17">
      <!-- 1.2 -->
      <g transform="translate(34.696875 57.367219)scale(0.1 -0.1)">
       <use xlink:href="#DejaVuSerif-49"/>
       <use x="63.623047" xlink:href="#DejaVuSerif-46"/>
       <use x="95.410156" xlink:href="#DejaVuSerif-50"/>
      </g>
     </g>
    </g>
    <g id="text_18">
     <!-- Speed -->
     <g transform="translate(28.617187 190.273313)rotate(-90)scale(0.1 -0.1)">
      <defs>
       <path d="M 9.28125 3.515625 
L 9.28125 20.125 
L 14.890625 20.0625 
Q 15.140625 11.765625 19.703125 7.78125 
Q 24.265625 3.8125 33.59375 3.8125 
Q 42.28125 3.8125 46.84375 7.25 
Q 51.421875 10.6875 51.421875 17.28125 
Q 51.421875 22.5625 48.65625 25.390625 
Q 45.90625 28.21875 37.015625 30.90625 
L 27.390625 33.796875 
Q 16.9375 36.96875 12.671875 41.703125 
Q 8.40625 46.4375 8.40625 54.6875 
Q 8.40625 63.96875 14.984375 69.09375 
Q 21.578125 74.21875 33.5 74.21875 
Q 38.578125 74.21875 44.625 73.109375 
Q 50.6875 72.015625 57.515625 69.921875 
L 57.515625 54.390625 
L 52 54.390625 
Q 51.171875 62.109375 46.84375 65.546875 
Q 42.53125 69 33.6875 69 
Q 25.984375 69 21.953125 65.84375 
Q 17.921875 62.703125 17.921875 56.6875 
Q 17.921875 51.46875 20.9375 48.484375 
Q 23.96875 45.515625 33.796875 42.578125 
L 42.828125 39.890625 
Q 52.734375 36.921875 56.953125 32.296875 
Q 61.1875 27.6875 61.1875 19.921875 
Q 61.1875 9.328125 54.390625 3.953125 
Q 47.609375 -1.421875 34.1875 -1.421875 
Q 28.171875 -1.421875 21.9375 -0.1875 
Q 15.71875 1.03125 9.28125 3.515625 
z
" id="DejaVuSerif-83"/>
       <path d="M 20.515625 28.515625 
L 20.515625 23.390625 
Q 20.515625 14.015625 24.09375 9.109375 
Q 27.6875 4.203125 34.515625 4.203125 
Q 41.40625 4.203125 44.9375 9.71875 
Q 48.484375 15.234375 48.484375 25.984375 
Q 48.484375 36.765625 44.9375 42.234375 
Q 41.40625 47.703125 34.515625 47.703125 
Q 27.6875 47.703125 24.09375 42.765625 
Q 20.515625 37.84375 20.515625 28.515625 
z
M 11.53125 46.6875 
L 2.875 46.6875 
L 2.875 51.90625 
L 20.515625 51.90625 
L 20.515625 43.796875 
Q 23.140625 48.6875 27.21875 51 
Q 31.296875 53.328125 37.3125 53.328125 
Q 46.875 53.328125 52.921875 45.75 
Q 58.984375 38.1875 58.984375 25.984375 
Q 58.984375 13.765625 52.921875 6.171875 
Q 46.875 -1.421875 37.3125 -1.421875 
Q 31.296875 -1.421875 27.21875 0.890625 
Q 23.140625 3.21875 20.515625 8.109375 
L 20.515625 -15.578125 
L 29 -15.578125 
L 29 -20.796875 
L 2.875 -20.796875 
L 2.875 -15.578125 
L 11.53125 -15.578125 
z
" id="DejaVuSerif-112"/>
       <path d="M 52.484375 5.171875 
L 61.078125 5.171875 
L 61.078125 0 
L 43.5 0 
L 43.5 8.109375 
Q 40.875 3.21875 36.796875 0.890625 
Q 32.71875 -1.421875 26.703125 -1.421875 
Q 17.140625 -1.421875 11.0625 6.171875 
Q 4.984375 13.765625 4.984375 25.984375 
Q 4.984375 38.1875 11.03125 45.75 
Q 17.09375 53.328125 26.703125 53.328125 
Q 32.71875 53.328125 36.796875 51 
Q 40.875 48.6875 43.5 43.796875 
L 43.5 70.796875 
L 35.015625 70.796875 
L 35.015625 75.984375 
L 52.484375 75.984375 
z
M 43.5 23.390625 
L 43.5 28.515625 
Q 43.5 37.84375 39.90625 42.765625 
Q 36.328125 47.703125 29.5 47.703125 
Q 22.5625 47.703125 19.015625 42.234375 
Q 15.484375 36.765625 15.484375 25.984375 
Q 15.484375 15.234375 19.015625 9.71875 
Q 22.5625 4.203125 29.5 4.203125 
Q 36.328125 4.203125 39.90625 9.109375 
Q 43.5 14.015625 43.5 23.390625 
z
" id="DejaVuSerif-100"/>
      </defs>
      <use xlink:href="#DejaVuSerif-83"/>
      <use x="68.505859" xlink:href="#DejaVuSerif-112"/>
      <use x="132.519531" xlink:href="#DejaVuSerif-101"/>
      <use x="191.699219" xlink:href="#DejaVuSerif-101"/>
      <use x="250.878906" xlink:href="#DejaVuSerif-100"/>
     </g>
    </g>
   </g>
   <g id="line2d_17">
    <path clip-path="url(#p0b891f69f0)" d="M 73.832727 295.488 
L 75.765785 295.488 
L 76.030135 53.568 
L 76.311006 53.568 
L 76.591878 93.888 
L 77.417971 93.888 
L 77.682321 295.488 
L 78.789285 295.488 
L 79.070157 122.688 
L 79.334507 144.288 
L 80.441471 144.288 
L 80.722343 161.088 
L 81.812786 161.088 
L 82.093657 174.528 
L 83.200622 174.528 
L 83.464972 185.524364 
L 83.745843 185.524364 
L 84.026715 75.560727 
L 84.291065 75.560727 
L 84.571936 185.524364 
L 84.852808 194.688 
L 85.943251 194.688 
L 86.224122 202.441846 
L 86.504994 109.395692 
L 87.331087 109.395692 
L 87.595437 122.688 
L 87.876308 209.088 
L 88.421529 209.088 
L 88.702401 122.688 
L 88.983273 134.208 
L 90.073715 134.208 
L 90.354587 144.288 
L 91.461552 144.288 
L 91.725901 153.182118 
L 92.832866 153.182118 
L 93.113738 93.888 
L 93.378087 93.888 
L 93.658959 161.088 
L 94.20418 161.088 
L 94.485052 168.161684 
L 95.030273 168.161684 
L 95.311145 104.498526 
L 95.592017 104.498526 
L 95.856366 114.048 
L 96.137238 114.048 
L 96.41811 174.528 
L 96.963331 174.528 
L 97.244203 180.288 
L 97.508552 122.688 
L 98.334645 122.688 
L 98.615517 130.542545 
L 98.896389 130.542545 
L 99.160738 185.524364 
L 99.44161 130.542545 
L 99.722482 130.542545 
L 99.986831 137.714087 
L 101.093796 137.714087 
L 101.374668 144.288 
L 101.639017 93.888 
L 101.919889 144.288 
L 102.46511 144.288 
L 102.745982 150.336 
L 103.291203 150.336 
L 103.572075 101.952 
L 103.852947 101.952 
L 104.117296 109.395692 
L 104.398168 109.395692 
L 104.67904 155.918769 
L 105.224261 155.918769 
L 105.505133 161.088 
L 105.769482 116.288 
L 106.595575 116.288 
L 106.876447 122.688 
L 107.157319 165.888 
L 107.421668 165.888 
L 107.70254 122.688 
L 107.983412 122.688 
L 108.247761 128.646621 
L 109.354726 128.646621 
L 109.635598 134.208 
L 110.72604 134.208 
L 111.006912 139.410581 
L 111.552133 139.410581 
L 111.833005 100.391226 
L 112.113876 139.410581 
L 112.378226 144.288 
L 113.485191 144.288 
L 113.766062 112.215273 
L 114.592155 112.215273 
L 114.856505 148.869818 
L 115.137377 153.182118 
L 115.682598 153.182118 
L 115.96347 117.605647 
L 116.244341 117.605647 
L 116.508691 122.688 
L 117.070434 122.688 
L 117.334784 157.248 
L 117.615656 157.248 
L 117.896527 127.488 
L 118.98697 127.488 
L 119.267842 132.028541 
L 119.548713 132.028541 
L 119.813063 99.336649 
L 120.093935 132.028541 
L 120.374806 132.028541 
L 120.639156 136.330105 
L 121.465249 136.330105 
L 121.746121 104.498526 
L 122.026992 109.395692 
L 122.291342 109.395692 
L 122.572214 140.411077 
L 123.117435 140.411077 
L 123.398307 144.288 
L 123.679178 114.048 
L 124.505271 114.048 
L 124.769621 118.473366 
L 125.050493 147.975805 
L 125.595714 147.975805 
L 125.876586 118.473366 
L 126.157457 122.688 
L 127.2479 122.688 
L 127.528772 126.706605 
L 128.635736 126.706605 
L 128.900086 130.542545 
L 129.461829 130.542545 
L 129.726179 103.051636 
L 130.007051 130.542545 
L 130.287922 134.208 
L 131.378365 134.208 
L 131.659237 111.418435 
L 132.204458 111.418435 
L 132.48533 137.714087 
L 132.766201 137.714087 
L 133.030551 141.070979 
L 133.311423 141.070979 
L 133.592294 115.334809 
L 134.137516 115.334809 
L 134.418387 119.088 
L 134.682737 119.088 
L 134.963609 144.288 
L 135.24448 144.288 
L 135.50883 119.088 
L 135.789702 122.688 
L 136.896666 122.688 
L 137.161016 126.144 
L 138.267981 126.144 
L 138.548852 129.464471 
L 139.094074 129.464471 
L 139.374945 105.746824 
L 139.639295 105.746824 
L 139.920167 109.395692 
L 140.201038 132.657231 
L 141.027131 132.657231 
L 141.291481 135.729509 
L 141.572353 112.906868 
L 142.117574 112.906868 
L 142.398446 135.729509 
L 142.679317 138.688 
L 143.224539 138.688 
L 143.50541 116.288 
L 143.76976 116.288 
L 144.050632 119.546182 
L 144.595853 119.546182 
L 144.876724 141.538909 
L 145.157596 141.538909 
L 145.421946 122.688 
L 146.52891 122.688 
L 146.809782 125.719579 
L 147.900225 125.719579 
L 148.181096 128.646621 
L 149.007189 128.646621 
L 149.288061 107.791448 
L 149.552411 110.972746 
L 149.833282 131.474441 
L 150.659375 131.474441 
L 150.940247 134.208 
L 151.204597 114.048 
L 151.76634 114.048 
L 152.03069 134.208 
L 152.311561 136.851934 
L 152.856783 136.851934 
L 153.137654 117.022426 
L 153.418526 117.022426 
L 153.682876 119.900903 
L 154.244619 119.900903 
L 154.508969 139.410581 
L 154.78984 139.410581 
L 155.070712 122.688 
L 156.161155 122.688 
L 156.442026 125.388 
L 157.548991 125.388 
L 157.813341 128.004923 
L 158.639434 128.004923 
L 158.920305 109.395692 
L 159.201177 112.215273 
L 159.465527 112.215273 
L 159.746398 130.542545 
L 160.29162 130.542545 
L 160.572491 133.004418 
L 160.853363 114.950687 
L 161.679456 114.950687 
L 161.943806 117.605647 
L 162.224677 135.393882 
L 162.505549 135.393882 
L 162.769899 117.605647 
L 163.05077 117.605647 
L 163.331642 120.183652 
L 164.157735 120.183652 
L 164.422085 137.714087 
L 164.702956 122.688 
L 165.809921 122.688 
L 166.074271 125.121803 
L 166.355142 125.121803 
L 166.636014 108.085183 
L 166.900364 125.121803 
L 167.181235 125.121803 
L 167.462107 127.488 
L 168.2882 127.488 
L 168.55255 110.688 
L 168.833421 113.219507 
L 169.114293 113.219507 
L 169.378643 129.78937 
L 169.940386 129.78937 
L 170.204736 132.028541 
L 170.485607 115.682595 
L 171.3117 115.682595 
L 171.592572 118.08 
L 171.856922 134.208 
L 172.137793 134.208 
L 172.418665 118.08 
L 172.683015 118.08 
L 172.963886 120.414316 
L 173.789979 120.414316 
L 174.070851 136.330105 
L 174.335201 122.688 
L 175.442165 122.688 
L 175.723037 124.903385 
L 175.987387 124.903385 
L 176.268258 109.395692 
L 176.54913 124.903385 
L 176.81348 124.903385 
L 177.094351 127.062684 
L 177.920444 127.062684 
L 178.201316 111.751291 
L 178.465666 114.048 
L 178.746537 114.048 
L 179.027409 129.168 
L 179.57263 129.168 
L 179.853502 131.221333 
L 180.117851 116.288 
L 180.943944 116.288 
L 181.224816 118.473366 
L 181.505688 133.224585 
L 181.770037 133.224585 
L 182.050909 118.473366 
L 182.331781 118.473366 
L 182.59613 120.606072 
L 183.422223 120.606072 
L 183.703095 135.179566 
L 183.983967 122.688 
L 185.074409 122.688 
L 185.355281 124.720941 
L 185.636153 124.720941 
L 185.900502 110.490353 
L 186.181374 124.720941 
L 186.462246 124.720941 
L 186.726595 126.706605 
L 187.552688 126.706605 
L 187.83356 112.641488 
L 188.114432 114.743172 
L 188.378781 114.743172 
L 188.659653 128.646621 
L 189.204874 128.646621 
L 189.485746 130.542545 
L 189.766618 116.797091 
L 190.592711 116.797091 
L 190.85706 118.804854 
L 191.137932 132.395865 
L 191.418804 132.395865 
L 191.683153 118.804854 
L 191.964025 118.804854 
L 192.244897 120.768 
L 193.335339 120.768 
L 193.616211 122.688 
L 194.723176 122.688 
L 194.987525 124.566261 
L 195.268397 111.418435 
L 195.549269 111.418435 
L 195.813618 124.566261 
L 196.09449 124.566261 
L 196.375362 126.404129 
L 196.920583 126.404129 
L 197.201455 113.397677 
L 197.465804 113.397677 
L 197.746676 115.334809 
L 198.027548 115.334809 
L 198.291897 128.202894 
L 198.853641 128.202894 
L 199.11799 117.231158 
L 200.224955 117.231158 
L 200.505827 119.088 
L 200.770176 131.688 
L 201.051048 119.088 
L 201.596269 119.088 
L 201.877141 120.906557 
L 202.984105 120.906557 
L 203.248455 122.688 
L 204.35542 122.688 
L 204.636291 124.433455 
L 204.900641 112.215273 
L 205.181513 112.215273 
L 205.462384 124.433455 
L 205.726734 124.433455 
L 206.007606 126.144 
L 206.552827 126.144 
L 206.833699 114.048 
L 207.11457 114.048 
L 207.37892 115.844436 
L 207.659792 115.844436 
L 207.940663 127.820673 
L 208.485885 127.820673 
L 208.766756 117.605647 
L 209.857199 117.605647 
L 210.138071 119.33266 
L 210.418942 131.07635 
L 210.683292 119.33266 
L 211.245035 119.33266 
L 211.509385 121.026462 
L 212.61635 121.026462 
L 212.897221 122.688 
L 213.987664 122.688 
L 214.268536 124.318189 
L 214.549407 112.906868 
L 214.813757 112.906868 
L 215.094629 124.318189 
L 215.3755 124.318189 
L 215.63985 125.917907 
L 216.201593 125.917907 
L 216.465943 114.613234 
L 216.746815 114.613234 
L 217.027686 116.288 
L 217.292036 116.288 
L 217.572908 127.488 
L 218.118129 127.488 
L 218.399001 117.932037 
L 219.505965 117.932037 
L 219.770315 119.546182 
L 220.87728 119.546182 
L 221.158151 121.131243 
L 221.703373 121.131243 
L 221.984244 110.233946 
L 222.248594 121.131243 
L 222.529466 122.688 
L 223.63643 122.688 
L 223.90078 113.512779 
L 224.181652 113.512779 
L 224.462523 124.217204 
L 225.007745 124.217204 
L 225.288616 125.719579 
L 225.552966 125.719579 
L 225.833838 115.109053 
L 226.379059 115.109053 
L 226.659931 116.677565 
L 226.940802 127.195826 
L 227.486024 127.195826 
L 227.766895 116.677565 
L 228.031245 118.219034 
L 228.857338 118.219034 
L 229.13821 128.646621 
L 229.419081 130.072615 
L 229.683431 119.734154 
L 230.509524 119.734154 
L 230.790396 121.223593 
L 231.89736 121.223593 
L 232.16171 122.688 
L 233.268675 122.688 
L 233.549546 114.048 
L 233.813896 114.048 
L 234.094768 124.128 
L 234.639989 124.128 
L 234.920861 125.544198 
L 235.201732 125.544198 
L 235.466082 115.547504 
L 236.027825 115.547504 
L 236.292175 117.022426 
L 236.573046 126.93718 
L 237.118268 126.93718 
L 237.399139 117.022426 
L 237.680011 118.473366 
L 238.506104 118.473366 
L 238.770454 128.307512 
L 239.051325 129.655742 
L 239.332197 119.900903 
L 240.15829 119.900903 
L 240.42264 121.3056 
L 240.703511 121.3056 
L 240.984383 111.6288 
L 241.248733 121.3056 
L 241.529604 121.3056 
L 241.810476 122.688 
L 242.636569 122.688 
L 242.900919 113.088 
L 243.18179 114.52422 
L 243.462662 114.52422 
L 243.727012 124.04863 
L 244.288755 124.04863 
L 244.553105 125.388 
L 244.833976 115.938 
L 245.660069 115.938 
L 245.940941 117.32986 
L 246.205291 126.706605 
L 246.486162 126.706605 
L 246.767034 117.32986 
L 247.031384 117.32986 
L 247.312255 118.700308 
L 248.138348 118.700308 
L 248.41922 128.004923 
L 248.68357 120.049832 
L 249.790534 120.049832 
L 250.071406 121.378909 
L 250.335756 121.378909 
L 250.616627 112.215273 
L 250.897499 121.378909 
L 251.161849 121.378909 
L 251.44272 122.688 
L 252.268813 122.688 
L 252.549685 113.593263 
L 252.814035 114.950687 
L 253.094906 114.950687 
L 253.375778 123.977552 
L 253.920999 123.977552 
L 254.201871 125.248 
L 254.466221 116.288 
L 255.292314 116.288 
L 255.573185 117.605647 
L 255.854057 126.499765 
L 256.118407 126.499765 
L 256.399278 117.605647 
L 256.68015 117.605647 
L 256.9445 118.904058 
L 257.506243 118.904058 
L 257.770593 127.733255 
L 258.051464 118.904058 
L 258.332336 120.183652 
L 259.422779 120.183652 
L 259.70365 121.444835 
L 259.984522 112.742676 
L 260.248872 121.444835 
L 260.810615 121.444835 
L 261.074965 122.688 
L 261.636708 122.688 
L 261.901058 114.048 
L 262.181929 114.048 
L 262.462801 115.334809 
L 262.727151 123.913532 
L 263.553244 123.913532 
L 263.834115 116.603493 
L 264.660208 116.603493 
L 264.94108 125.121803 
L 265.20543 126.313175 
L 265.486301 126.313175 
L 265.767173 117.854434 
L 266.312394 117.854434 
L 266.593266 119.088 
L 267.138487 119.088 
L 267.419359 127.488 
L 267.683709 119.088 
L 267.96458 120.304552 
L 269.071545 120.304552 
L 269.335895 121.504438 
L 269.616766 113.219507 
L 269.897638 121.504438 
L 270.442859 121.504438 
L 270.723731 122.688 
L 271.268952 122.688 
L 271.549824 114.459429 
L 271.814173 114.459429 
L 272.095045 115.682595 
L 272.375917 123.855568 
L 272.921138 123.855568 
L 273.20201 115.682595 
L 273.466359 116.889342 
L 274.292452 116.889342 
L 274.573324 125.007463 
L 274.854196 126.144 
L 275.118545 118.08 
L 275.944638 118.08 
L 276.22551 119.254887 
L 277.332475 119.254887 
L 277.596824 120.414316 
L 278.703789 120.414316 
L 278.984661 113.652706 
L 279.24901 113.652706 
L 279.529882 121.558588 
L 280.075103 121.558588 
L 280.355975 122.688 
L 280.636847 122.688 
L 280.901196 114.833455 
L 281.46294 114.833455 
L 281.727289 115.998968 
L 282.008161 123.802839 
L 282.553382 123.802839 
L 282.834254 115.998968 
L 283.115126 117.149538 
L 283.660347 117.149538 
L 283.941219 124.903385 
L 284.205568 124.903385 
L 284.48644 125.989911 
L 284.767312 118.285452 
L 285.593405 118.285452 
L 285.857754 119.406987 
L 286.138626 119.406987 
L 286.419498 127.062684 
L 286.683847 119.406987 
L 286.964719 119.406987 
L 287.245591 120.514415 
L 288.071684 120.514415 
L 288.336033 112.906868 
L 288.616905 114.048 
L 288.897777 121.608 
L 289.72387 121.608 
L 289.988219 122.688 
L 290.269091 115.174957 
L 290.814312 115.174957 
L 291.095184 122.688 
L 291.376056 123.754667 
L 291.921277 123.754667 
L 292.202149 116.288 
L 292.466498 116.288 
L 292.74737 117.387387 
L 293.292591 117.387387 
L 293.573463 124.808245 
L 293.854334 124.808245 
L 294.118684 118.473366 
L 295.225649 118.473366 
L 295.50652 119.546182 
L 296.596963 119.546182 
L 296.877835 120.606072 
L 297.703928 120.606072 
L 297.984799 113.319325 
L 298.249149 114.410156 
L 298.530021 121.653269 
L 299.356114 121.653269 
L 299.636985 122.688 
L 299.901335 115.488 
L 300.463078 115.488 
L 300.727428 122.688 
L 301.0083 123.710485 
L 301.553521 123.710485 
L 301.834393 116.553089 
L 302.115264 116.553089 
L 302.379614 117.605647 
L 302.941357 117.605647 
L 303.205707 124.720941 
L 303.486579 117.605647 
L 303.76745 118.645895 
L 304.857893 118.645895 
L 305.138765 119.674047 
L 306.245729 119.674047 
L 306.510079 120.690312 
L 307.071822 120.690312 
L 307.336172 113.698405 
L 307.617044 120.690312 
L 307.897915 121.694897 
L 308.988358 121.694897 
L 309.26923 115.776 
L 309.814451 115.776 
L 310.095323 122.688 
L 310.376194 122.688 
L 310.640544 123.669818 
L 310.921416 123.669818 
L 311.202287 116.797091 
L 311.747509 116.797091 
L 312.02838 117.806644 
L 312.29273 117.806644 
L 312.573602 124.640542 
L 312.854473 124.640542 
L 313.118823 117.806644 
L 313.399695 118.804854 
L 314.506659 118.804854 
L 314.771009 119.791911 
L 315.877974 119.791911 
L 316.158845 120.768 
L 316.423195 120.768 
L 316.704067 114.048 
L 316.984938 114.048 
L 317.249288 120.768 
L 317.53016 121.733304 
L 318.356253 121.733304 
L 318.637124 115.050431 
L 318.901474 116.041846 
L 319.463217 116.041846 
L 319.727567 122.688 
L 320.008439 122.688 
L 320.28931 123.632262 
L 320.55366 117.022426 
L 321.379753 117.022426 
L 321.660625 117.992348 
L 321.941496 117.992348 
L 322.205846 124.566261 
L 322.486718 117.992348 
L 322.767589 117.992348 
L 323.031939 118.951784 
L 323.858032 118.951784 
L 324.138904 125.490162 
L 324.419775 119.900903 
L 325.510218 119.900903 
L 325.79109 120.839872 
L 326.071961 120.839872 
L 326.336311 114.371422 
L 326.617183 120.839872 
L 326.898054 120.839872 
L 327.162404 121.768851 
L 327.988497 121.768851 
L 328.269368 115.334809 
L 328.55024 116.288 
L 328.81459 116.288 
L 329.095461 122.688 
L 329.640683 122.688 
L 329.921554 117.231158 
L 331.028519 117.231158 
L 331.292869 118.16444 
L 331.57374 124.497424 
L 331.854612 118.16444 
L 332.399833 118.16444 
L 332.680705 119.088 
L 333.771148 119.088 
L 334.052019 120.00199 
L 335.158984 120.00199 
L 335.423334 120.906557 
L 335.704205 114.671505 
L 335.985077 114.671505 
L 336.249427 120.906557 
L 336.530298 120.906557 
L 336.81117 121.801846 
L 337.356391 121.801846 
L 337.637263 115.598769 
L 337.901613 115.598769 
L 338.182484 116.516571 
L 338.463356 116.516571 
L 338.727706 122.688 
L 339.289449 122.688 
L 339.553799 117.425056 
L 340.660763 117.425056 
L 340.941635 118.324364 
L 341.205985 124.433455 
L 341.486856 118.324364 
L 342.032078 118.324364 
L 342.312949 119.214633 
L 343.419914 119.214633 
L 343.684264 120.096 
L 344.791228 120.096 
L 345.0721 114.950687 
L 345.33645 114.950687 
L 345.617321 120.968597 
L 346.162543 120.968597 
L 346.443414 121.832554 
L 346.724286 121.832554 
L 346.988636 115.844436 
L 347.550379 115.844436 
L 347.814729 116.729379 
L 348.0956 122.688 
L 348.640822 122.688 
L 348.921693 116.729379 
L 349.202565 117.605647 
L 350.028658 117.605647 
L 350.293008 123.535059 
L 350.573879 124.373854 
L 350.854751 118.473366 
L 351.680844 118.473366 
L 351.945194 119.33266 
L 353.052158 119.33266 
L 353.33303 120.183652 
L 354.159123 120.183652 
L 354.423473 114.340174 
L 354.704344 115.211077 
L 354.985216 115.211077 
L 355.249566 121.026462 
L 355.811309 121.026462 
L 356.075659 121.861206 
L 356.35653 116.073646 
L 357.182623 116.073646 
L 357.463495 116.928 
L 357.727845 122.688 
L 358.008716 122.688 
L 358.289588 116.928 
L 358.553938 116.928 
L 358.834809 117.774256 
L 359.660902 117.774256 
L 359.941774 123.506957 
L 360.206124 118.612528 
L 361.313088 118.612528 
L 361.59396 119.44293 
L 362.684402 119.44293 
L 362.965274 120.26557 
L 363.791367 120.26557 
L 364.072239 114.613234 
L 364.336588 115.454512 
L 364.61746 121.080558 
L 365.443553 121.080558 
L 365.724425 121.888 
L 365.988774 116.288 
L 366.550518 116.288 
L 366.814867 121.888 
L 367.095739 122.688 
L 367.376611 122.688 
L 367.64096 117.113806 
L 368.202704 117.113806 
L 368.467053 117.932037 
L 369.028797 117.932037 
L 369.293146 123.480661 
L 369.574018 117.932037 
L 369.85489 118.742795 
L 370.945332 118.742795 
L 371.226204 119.546182 
L 371.507076 114.048 
L 371.771425 119.546182 
L 372.333169 119.546182 
L 372.597518 120.342299 
L 373.159262 120.342299 
L 373.423611 114.868995 
L 373.704483 114.868995 
L 373.985355 115.682595 
L 374.249704 121.131243 
L 375.075797 121.131243 
L 375.356669 116.488897 
L 376.182762 116.488897 
L 376.463634 121.913112 
L 376.727983 122.688 
L 377.008855 122.688 
L 377.289727 117.288 
L 377.834948 117.288 
L 378.11582 118.08 
L 378.380169 118.08 
L 378.661041 123.456 
L 378.941913 118.08 
L 379.206262 118.08 
L 379.487134 118.864991 
L 380.594099 118.864991 
L 380.858448 114.314432 
L 381.13932 119.643066 
L 381.965413 119.643066 
L 382.246285 120.414316 
L 382.510634 120.414316 
L 382.791506 115.109053 
L 383.072378 115.109053 
L 383.336727 120.414316 
L 383.617599 121.17883 
L 384.443692 121.17883 
L 384.724563 115.896734 
L 384.988913 116.677565 
L 385.550656 116.677565 
L 385.815006 121.936696 
L 386.095878 121.936696 
L 386.376749 122.688 
L 386.641099 117.451636 
L 387.467192 117.451636 
L 387.748064 118.219034 
L 388.028935 118.219034 
L 388.293285 123.432828 
L 388.574157 118.219034 
L 388.855028 118.219034 
L 389.119378 118.979845 
L 390.226343 118.979845 
L 390.507214 114.564923 
L 390.771564 119.734154 
L 391.597657 119.734154 
L 391.878529 120.482043 
L 392.1594 115.334809 
L 392.704622 115.334809 
L 392.985493 120.482043 
L 393.249843 121.223593 
L 393.811586 121.223593 
L 394.075936 116.098169 
L 394.356808 116.098169 
L 394.637679 116.855089 
L 394.902029 116.855089 
L 395.182901 121.958886 
L 395.728122 121.958886 
L 396.008994 117.605647 
L 397.115958 117.605647 
L 397.380308 118.349925 
L 397.66118 123.411013 
L 397.942051 118.349925 
L 398.487273 118.349925 
L 398.487273 118.349925 
" style="fill:none;stroke:#1f77b4;stroke-linecap:square;stroke-width:1.5;"/>
   </g>
   <g id="patch_3">
    <path d="M 57.6 307.584 
L 57.6 41.472 
" style="fill:none;stroke:#000000;stroke-linecap:square;stroke-linejoin:miter;stroke-width:0.8;"/>
   </g>
   <g id="patch_4">
    <path d="M 414.72 307.584 
L 414.72 41.472 
" style="fill:none;stroke:#000000;stroke-linecap:square;stroke-linejoin:miter;stroke-width:0.8;"/>
   </g>
   <g id="patch_5">
    <path d="M 57.6 307.584 
L 414.72 307.584 
" style="fill:none;stroke:#000000;stroke-linecap:square;stroke-linejoin:miter;stroke-width:0.8;"/>
   </g>
   <g id="patch_6">
    <path d="M 57.6 41.472 
L 414.72 41.472 
" style="fill:none;stroke:#000000;stroke-linecap:square;stroke-linejoin:miter;stroke-width:0.8;"/>
   </g>
   <g id="text_19">
    <!-- Speed function of time -->
    <g transform="translate(167.024063 35.472)scale(0.12 -0.12)">
     <defs>
      <path id="DejaVuSerif-32"/>
      <path d="M 43.015625 63.71875 
L 38.28125 63.71875 
Q 38.234375 67.390625 36.203125 69.28125 
Q 34.1875 71.1875 30.328125 71.1875 
Q 25.296875 71.1875 23.234375 68.421875 
Q 21.1875 65.671875 21.1875 58.59375 
L 21.1875 51.90625 
L 35.6875 51.90625 
L 35.6875 46.6875 
L 21.1875 46.6875 
L 21.1875 5.171875 
L 32.71875 5.171875 
L 32.71875 0 
L 3.609375 0 
L 3.609375 5.171875 
L 12.203125 5.171875 
L 12.203125 46.6875 
L 3.609375 46.6875 
L 3.609375 51.90625 
L 12.203125 51.90625 
L 12.203125 58.40625 
Q 12.203125 67.09375 16.71875 71.53125 
Q 21.234375 75.984375 29.984375 75.984375 
Q 33.25 75.984375 36.515625 75.390625 
Q 39.796875 74.8125 43.015625 73.578125 
z
" id="DejaVuSerif-102"/>
      <path d="M 35.40625 51.90625 
L 52.203125 51.90625 
L 52.203125 5.171875 
L 60.6875 5.171875 
L 60.6875 0 
L 43.21875 0 
L 43.21875 9.1875 
Q 40.71875 4 36.765625 1.28125 
Q 32.8125 -1.421875 27.59375 -1.421875 
Q 18.953125 -1.421875 14.875 3.484375 
Q 10.796875 8.40625 10.796875 18.890625 
L 10.796875 46.6875 
L 2.6875 46.6875 
L 2.6875 51.90625 
L 19.828125 51.90625 
L 19.828125 21.6875 
Q 19.828125 12.203125 22.140625 8.6875 
Q 24.46875 5.171875 30.421875 5.171875 
Q 36.671875 5.171875 39.9375 9.765625 
Q 43.21875 14.359375 43.21875 23.09375 
L 43.21875 46.6875 
L 35.40625 46.6875 
z
" id="DejaVuSerif-117"/>
      <path d="M 4.109375 0 
L 4.109375 5.171875 
L 12.203125 5.171875 
L 12.203125 46.6875 
L 3.609375 46.6875 
L 3.609375 51.90625 
L 21.1875 51.90625 
L 21.1875 42.671875 
Q 23.6875 47.953125 27.65625 50.640625 
Q 31.640625 53.328125 36.921875 53.328125 
Q 45.515625 53.328125 49.5625 48.390625 
Q 53.609375 43.453125 53.609375 33.015625 
L 53.609375 5.171875 
L 61.625 5.171875 
L 61.625 0 
L 36.8125 0 
L 36.8125 5.171875 
L 44.578125 5.171875 
L 44.578125 30.171875 
Q 44.578125 39.703125 42.234375 43.234375 
Q 39.890625 46.78125 33.984375 46.78125 
Q 27.734375 46.78125 24.453125 42.203125 
Q 21.1875 37.640625 21.1875 28.90625 
L 21.1875 5.171875 
L 29 5.171875 
L 29 0 
z
" id="DejaVuSerif-110"/>
      <path d="M 51.421875 15.578125 
Q 49.515625 7.28125 44.09375 2.921875 
Q 38.671875 -1.421875 30.078125 -1.421875 
Q 18.75 -1.421875 11.859375 6.078125 
Q 4.984375 13.578125 4.984375 25.984375 
Q 4.984375 38.421875 11.859375 45.875 
Q 18.75 53.328125 30.078125 53.328125 
Q 35.015625 53.328125 39.890625 52.171875 
Q 44.78125 51.03125 49.703125 48.6875 
L 49.703125 35.40625 
L 44.484375 35.40625 
Q 43.453125 42.234375 40.015625 45.359375 
Q 36.578125 48.484375 30.171875 48.484375 
Q 22.90625 48.484375 19.1875 42.84375 
Q 15.484375 37.203125 15.484375 25.984375 
Q 15.484375 14.75 19.171875 9.078125 
Q 22.859375 3.421875 30.171875 3.421875 
Q 35.984375 3.421875 39.453125 6.4375 
Q 42.921875 9.46875 44.1875 15.578125 
z
" id="DejaVuSerif-99"/>
      <path d="M 10.796875 46.6875 
L 2.875 46.6875 
L 2.875 51.90625 
L 10.796875 51.90625 
L 10.796875 68.015625 
L 19.828125 68.015625 
L 19.828125 51.90625 
L 36.71875 51.90625 
L 36.71875 46.6875 
L 19.828125 46.6875 
L 19.828125 13.71875 
Q 19.828125 7.125 21.09375 5.265625 
Q 22.359375 3.421875 25.78125 3.421875 
Q 29.296875 3.421875 30.90625 5.484375 
Q 32.515625 7.5625 32.625 12.203125 
L 39.40625 12.203125 
Q 39.015625 5.125 35.546875 1.84375 
Q 32.078125 -1.421875 25 -1.421875 
Q 17.234375 -1.421875 14.015625 2.015625 
Q 10.796875 5.46875 10.796875 13.71875 
z
" id="DejaVuSerif-116"/>
      <path d="M 30.078125 3.421875 
Q 37.3125 3.421875 40.984375 9.125 
Q 44.671875 14.84375 44.671875 25.984375 
Q 44.671875 37.109375 40.984375 42.796875 
Q 37.3125 48.484375 30.078125 48.484375 
Q 22.859375 48.484375 19.171875 42.796875 
Q 15.484375 37.109375 15.484375 25.984375 
Q 15.484375 14.84375 19.1875 9.125 
Q 22.90625 3.421875 30.078125 3.421875 
z
M 30.078125 -1.421875 
Q 18.75 -1.421875 11.859375 6.078125 
Q 4.984375 13.578125 4.984375 25.984375 
Q 4.984375 38.375 11.84375 45.84375 
Q 18.703125 53.328125 30.078125 53.328125 
Q 41.453125 53.328125 48.3125 45.84375 
Q 55.171875 38.375 55.171875 25.984375 
Q 55.171875 13.578125 48.3125 6.078125 
Q 41.453125 -1.421875 30.078125 -1.421875 
z
" id="DejaVuSerif-111"/>
     </defs>
     <use xlink:href="#DejaVuSerif-83"/>
     <use x="68.505859" xlink:href="#DejaVuSerif-112"/>
     <use x="132.519531" xlink:href="#DejaVuSerif-101"/>
     <use x="191.699219" xlink:href="#DejaVuSerif-101"/>
     <use x="250.878906" xlink:href="#DejaVuSerif-100"/>
     <use x="314.892578" xlink:href="#DejaVuSerif-32"/>
     <use x="346.679688" xlink:href="#DejaVuSerif-102"/>
     <use x="383.691406" xlink:href="#DejaVuSerif-117"/>
     <use x="448.095703" xlink:href="#DejaVuSerif-110"/>
     <use x="512.5" xlink:href="#DejaVuSerif-99"/>
     <use x="568.505859" xlink:href="#DejaVuSerif-116"/>
     <use x="608.691406" xlink:href="#DejaVuSerif-105"/>
     <use x="640.673828" xlink:href="#DejaVuSerif-111"/>
     <use x="700.878906" xlink:href="#DejaVuSerif-110"/>
     <use x="765.283203" xlink:href="#DejaVuSerif-32"/>
     <use x="797.070312" xlink:href="#DejaVuSerif-111"/>
     <use x="857.275391" xlink:href="#DejaVuSerif-102"/>
     <use x="894.287109" xlink:href="#DejaVuSerif-32"/>
     <use x="926.074219" xlink:href="#DejaVuSerif-116"/>
     <use x="966.259766" xlink:href="#DejaVuSerif-105"/>
     <use x="998.242188" xlink:href="#DejaVuSerif-109"/>
     <use x="1093.066406" xlink:href="#DejaVuSerif-101"/>
    </g>
   </g>
  </g>
 </g>
 <defs>
  <clipPath id="p0b891f69f0">
   <rect height="266.112" width="357.12" x="57.6" y="41.472"/>
  </clipPath>
 </defs>
</svg>
