<?xml version="1.0" encoding="utf-8" standalone="no"?>
<!DOCTYPE svg PUBLIC "-//W3C//DTD SVG 1.1//EN"
  "http://www.w3.org/Graphics/SVG/1.1/DTD/svg11.dtd">
<!-- Created with matplotlib (https://matplotlib.org/) -->
<svg height="345.6pt" version="1.1" viewBox="0 0 460.8 345.6" width="460.8pt" xmlns="http://www.w3.org/2000/svg" xmlns:xlink="http://www.w3.org/1999/xlink">
 <metadata>
  <rdf:RDF xmlns:cc="http://creativecommons.org/ns#" xmlns:dc="http://purl.org/dc/elements/1.1/" xmlns:rdf="http://www.w3.org/1999/02/22-rdf-syntax-ns#">
   <cc:Work>
    <dc:type rdf:resource="http://purl.org/dc/dcmitype/StillImage"/>
    <dc:date>2023-03-20T14:31:33.421175</dc:date>
    <dc:format>image/svg+xml</dc:format>
    <dc:creator>
     <cc:Agent>
      <dc:title>Matplotlib v3.3.4, https://matplotlib.org/</dc:title>
     </cc:Agent>
    </dc:creator>
   </cc:Work>
  </rdf:RDF>
 </metadata>
 <defs>
  <style type="text/css">*{stroke-linecap:butt;stroke-linejoin:round;}</style>
 </defs>
 <g id="figure_1">
  <g id="patch_1">
   <path d="M 0 345.6 
L 460.8 345.6 
L 460.8 0 
L 0 0 
z
" style="fill:#ffffff;"/>
  </g>
  <g id="axes_1">
   <g id="patch_2">
    <path d="M 57.6 307.584 
L 414.72 307.584 
L 414.72 41.472 
L 57.6 41.472 
z
" style="fill:#ffffff;"/>
   </g>
   <g id="matplotlib.axis_1">
    <g id="xtick_1">
     <g id="line2d_1">
      <defs>
       <path d="M 0 0 
L 0 3.5 
" id="m8752f58ef7" style="stroke:#000000;stroke-width:0.8;"/>
      </defs>
      <g>
       <use style="stroke:#000000;stroke-width:0.8;" x="67.082752" xlink:href="#m8752f58ef7" y="307.584"/>
      </g>
     </g>
     <g id="text_1">
      <!-- 0 -->
      <g transform="translate(63.901502 322.182437)scale(0.1 -0.1)">
       <defs>
        <path d="M 31.78125 3.421875 
Q 39.265625 3.421875 42.96875 11.625 
Q 46.6875 19.828125 46.6875 36.375 
Q 46.6875 52.984375 42.96875 61.1875 
Q 39.265625 69.390625 31.78125 69.390625 
Q 24.3125 69.390625 20.59375 61.1875 
Q 16.890625 52.984375 16.890625 36.375 
Q 16.890625 19.828125 20.59375 11.625 
Q 24.3125 3.421875 31.78125 3.421875 
z
M 31.78125 -1.421875 
Q 19.921875 -1.421875 13.25 8.53125 
Q 6.59375 18.5 6.59375 36.375 
Q 6.59375 54.296875 13.25 64.25 
Q 19.921875 74.21875 31.78125 74.21875 
Q 43.703125 74.21875 50.34375 64.25 
Q 56.984375 54.296875 56.984375 36.375 
Q 56.984375 18.5 50.34375 8.53125 
Q 43.703125 -1.421875 31.78125 -1.421875 
z
" id="DejaVuSerif-48"/>
       </defs>
       <use xlink:href="#DejaVuSerif-48"/>
      </g>
     </g>
    </g>
    <g id="xtick_2">
     <g id="line2d_2">
      <g>
       <use style="stroke:#000000;stroke-width:0.8;" x="144.225331" xlink:href="#m8752f58ef7" y="307.584"/>
      </g>
     </g>
     <g id="text_2">
      <!-- 20 -->
      <g transform="translate(137.862831 322.182437)scale(0.1 -0.1)">
       <defs>
        <path d="M 12.796875 55.515625 
L 7.328125 55.515625 
L 7.328125 68.5 
Q 12.546875 71.296875 17.84375 72.75 
Q 23.140625 74.21875 28.21875 74.21875 
Q 39.59375 74.21875 46.1875 68.703125 
Q 52.78125 63.1875 52.78125 53.71875 
Q 52.78125 43.015625 37.84375 28.125 
Q 36.671875 27 36.078125 26.421875 
L 17.671875 8.015625 
L 48.09375 8.015625 
L 48.09375 17 
L 53.8125 17 
L 53.8125 0 
L 6.78125 0 
L 6.78125 5.328125 
L 28.90625 27.390625 
Q 36.234375 34.71875 39.359375 40.84375 
Q 42.484375 46.96875 42.484375 53.71875 
Q 42.484375 61.078125 38.640625 65.234375 
Q 34.8125 69.390625 28.078125 69.390625 
Q 21.09375 69.390625 17.28125 65.921875 
Q 13.484375 62.453125 12.796875 55.515625 
z
" id="DejaVuSerif-50"/>
       </defs>
       <use xlink:href="#DejaVuSerif-50"/>
       <use x="63.623047" xlink:href="#DejaVuSerif-48"/>
      </g>
     </g>
    </g>
    <g id="xtick_3">
     <g id="line2d_3">
      <g>
       <use style="stroke:#000000;stroke-width:0.8;" x="221.36791" xlink:href="#m8752f58ef7" y="307.584"/>
      </g>
     </g>
     <g id="text_3">
      <!-- 40 -->
      <g transform="translate(215.00541 322.182437)scale(0.1 -0.1)">
       <defs>
        <path d="M 34.90625 24.703125 
L 34.90625 63.484375 
L 10.015625 24.703125 
z
M 56.390625 0 
L 23.1875 0 
L 23.1875 5.171875 
L 34.90625 5.171875 
L 34.90625 19.484375 
L 3.078125 19.484375 
L 3.078125 24.8125 
L 35.015625 74.21875 
L 44.671875 74.21875 
L 44.671875 24.703125 
L 58.59375 24.703125 
L 58.59375 19.484375 
L 44.671875 19.484375 
L 44.671875 5.171875 
L 56.390625 5.171875 
z
" id="DejaVuSerif-52"/>
       </defs>
       <use xlink:href="#DejaVuSerif-52"/>
       <use x="63.623047" xlink:href="#DejaVuSerif-48"/>
      </g>
     </g>
    </g>
    <g id="xtick_4">
     <g id="line2d_4">
      <g>
       <use style="stroke:#000000;stroke-width:0.8;" x="298.51049" xlink:href="#m8752f58ef7" y="307.584"/>
      </g>
     </g>
     <g id="text_4">
      <!-- 60 -->
      <g transform="translate(292.14799 322.182437)scale(0.1 -0.1)">
       <defs>
        <path d="M 32.71875 3.421875 
Q 39.59375 3.421875 43.296875 8.46875 
Q 47.015625 13.53125 47.015625 23 
Q 47.015625 32.46875 43.296875 37.515625 
Q 39.59375 42.578125 32.71875 42.578125 
Q 25.734375 42.578125 22.0625 37.6875 
Q 18.40625 32.8125 18.40625 23.578125 
Q 18.40625 13.875 22.109375 8.640625 
Q 25.828125 3.421875 32.71875 3.421875 
z
M 16.796875 40.140625 
Q 20.125 43.796875 24.3125 45.59375 
Q 28.515625 47.40625 33.796875 47.40625 
Q 44.671875 47.40625 51 40.859375 
Q 57.328125 34.328125 57.328125 23 
Q 57.328125 11.921875 50.515625 5.25 
Q 43.703125 -1.421875 32.328125 -1.421875 
Q 19.96875 -1.421875 13.328125 7.78125 
Q 6.6875 17 6.6875 34.078125 
Q 6.6875 53.21875 14.546875 63.71875 
Q 22.40625 74.21875 36.71875 74.21875 
Q 40.578125 74.21875 44.828125 73.484375 
Q 49.078125 72.75 53.515625 71.296875 
L 53.515625 59.28125 
L 48 59.28125 
Q 47.40625 64.203125 44.234375 66.796875 
Q 41.0625 69.390625 35.6875 69.390625 
Q 26.21875 69.390625 21.578125 62.203125 
Q 16.9375 55.03125 16.796875 40.140625 
z
" id="DejaVuSerif-54"/>
       </defs>
       <use xlink:href="#DejaVuSerif-54"/>
       <use x="63.623047" xlink:href="#DejaVuSerif-48"/>
      </g>
     </g>
    </g>
    <g id="xtick_5">
     <g id="line2d_5">
      <g>
       <use style="stroke:#000000;stroke-width:0.8;" x="375.653069" xlink:href="#m8752f58ef7" y="307.584"/>
      </g>
     </g>
     <g id="text_5">
      <!-- 80 -->
      <g transform="translate(369.290569 322.182437)scale(0.1 -0.1)">
       <defs>
        <path d="M 46.578125 19.921875 
Q 46.578125 27.734375 42.6875 32.046875 
Q 38.8125 36.375 31.78125 36.375 
Q 24.75 36.375 20.875 32.046875 
Q 17 27.734375 17 19.921875 
Q 17 12.0625 20.875 7.734375 
Q 24.75 3.421875 31.78125 3.421875 
Q 38.8125 3.421875 42.6875 7.734375 
Q 46.578125 12.0625 46.578125 19.921875 
z
M 44.578125 55.328125 
Q 44.578125 61.96875 41.203125 65.671875 
Q 37.84375 69.390625 31.78125 69.390625 
Q 25.78125 69.390625 22.390625 65.671875 
Q 19 61.96875 19 55.328125 
Q 19 48.640625 22.390625 44.921875 
Q 25.78125 41.21875 31.78125 41.21875 
Q 37.84375 41.21875 41.203125 44.921875 
Q 44.578125 48.640625 44.578125 55.328125 
z
M 39.3125 38.8125 
Q 47.609375 37.703125 52.25 32.6875 
Q 56.890625 27.6875 56.890625 19.921875 
Q 56.890625 9.671875 50.390625 4.125 
Q 43.890625 -1.421875 31.78125 -1.421875 
Q 19.734375 -1.421875 13.203125 4.125 
Q 6.6875 9.671875 6.6875 19.921875 
Q 6.6875 27.6875 11.328125 32.6875 
Q 15.96875 37.703125 24.3125 38.8125 
Q 16.9375 40.140625 13 44.40625 
Q 9.078125 48.6875 9.078125 55.328125 
Q 9.078125 64.109375 15.125 69.15625 
Q 21.1875 74.21875 31.78125 74.21875 
Q 42.390625 74.21875 48.4375 69.15625 
Q 54.5 64.109375 54.5 55.328125 
Q 54.5 48.6875 50.5625 44.40625 
Q 46.625 40.140625 39.3125 38.8125 
z
" id="DejaVuSerif-56"/>
       </defs>
       <use xlink:href="#DejaVuSerif-56"/>
       <use x="63.623047" xlink:href="#DejaVuSerif-48"/>
      </g>
     </g>
    </g>
    <g id="text_6">
     <!-- Time -->
     <g transform="translate(223.524844 335.860562)scale(0.1 -0.1)">
      <defs>
       <path d="M 19.09375 0 
L 19.09375 5.171875 
L 28.421875 5.171875 
L 28.421875 67.09375 
L 6.984375 67.09375 
L 6.984375 55.71875 
L 0.984375 55.71875 
L 0.984375 72.90625 
L 65.71875 72.90625 
L 65.71875 55.71875 
L 59.71875 55.71875 
L 59.71875 67.09375 
L 38.28125 67.09375 
L 38.28125 5.171875 
L 47.609375 5.171875 
L 47.609375 0 
z
" id="DejaVuSerif-84"/>
       <path d="M 9.71875 68.015625 
Q 9.71875 70.265625 11.34375 71.921875 
Q 12.984375 73.578125 15.28125 73.578125 
Q 17.53125 73.578125 19.15625 71.921875 
Q 20.796875 70.265625 20.796875 68.015625 
Q 20.796875 65.71875 19.1875 64.109375 
Q 17.578125 62.5 15.28125 62.5 
Q 12.984375 62.5 11.34375 64.109375 
Q 9.71875 65.71875 9.71875 68.015625 
z
M 21.1875 5.171875 
L 29.6875 5.171875 
L 29.6875 0 
L 3.609375 0 
L 3.609375 5.171875 
L 12.203125 5.171875 
L 12.203125 46.6875 
L 3.609375 46.6875 
L 3.609375 51.90625 
L 21.1875 51.90625 
z
" id="DejaVuSerif-105"/>
       <path d="M 51.8125 41.796875 
Q 54.390625 47.515625 58.421875 50.421875 
Q 62.453125 53.328125 67.828125 53.328125 
Q 75.984375 53.328125 79.984375 48.265625 
Q 83.984375 43.21875 83.984375 33.015625 
L 83.984375 5.171875 
L 92.09375 5.171875 
L 92.09375 0 
L 67.1875 0 
L 67.1875 5.171875 
L 75 5.171875 
L 75 31.984375 
Q 75 39.9375 72.65625 43.3125 
Q 70.3125 46.6875 64.890625 46.6875 
Q 58.890625 46.6875 55.734375 42.140625 
Q 52.59375 37.59375 52.59375 28.90625 
L 52.59375 5.171875 
L 60.40625 5.171875 
L 60.40625 0 
L 35.796875 0 
L 35.796875 5.171875 
L 43.609375 5.171875 
L 43.609375 32.328125 
Q 43.609375 40.09375 41.265625 43.390625 
Q 38.921875 46.6875 33.5 46.6875 
Q 27.484375 46.6875 24.328125 42.140625 
Q 21.1875 37.59375 21.1875 28.90625 
L 21.1875 5.171875 
L 29 5.171875 
L 29 0 
L 4.109375 0 
L 4.109375 5.171875 
L 12.203125 5.171875 
L 12.203125 46.78125 
L 3.609375 46.78125 
L 3.609375 51.90625 
L 21.1875 51.90625 
L 21.1875 42.671875 
Q 23.6875 47.859375 27.53125 50.59375 
Q 31.390625 53.328125 36.28125 53.328125 
Q 42.328125 53.328125 46.375 50.3125 
Q 50.4375 47.3125 51.8125 41.796875 
z
" id="DejaVuSerif-109"/>
       <path d="M 54.203125 25 
L 15.484375 25 
L 15.484375 24.609375 
Q 15.484375 14.109375 19.4375 8.765625 
Q 23.390625 3.421875 31.109375 3.421875 
Q 37.015625 3.421875 40.796875 6.515625 
Q 44.578125 9.625 46.09375 15.71875 
L 53.328125 15.71875 
Q 51.171875 7.171875 45.375 2.875 
Q 39.59375 -1.421875 30.171875 -1.421875 
Q 18.796875 -1.421875 11.890625 6.078125 
Q 4.984375 13.578125 4.984375 25.984375 
Q 4.984375 38.28125 11.765625 45.796875 
Q 18.5625 53.328125 29.59375 53.328125 
Q 41.359375 53.328125 47.65625 46.0625 
Q 53.953125 38.8125 54.203125 25 
z
M 43.609375 30.171875 
Q 43.3125 39.265625 39.765625 43.875 
Q 36.234375 48.484375 29.59375 48.484375 
Q 23.390625 48.484375 19.828125 43.84375 
Q 16.265625 39.203125 15.484375 30.171875 
z
" id="DejaVuSerif-101"/>
      </defs>
      <use xlink:href="#DejaVuSerif-84"/>
      <use x="66.699219" xlink:href="#DejaVuSerif-105"/>
      <use x="98.681641" xlink:href="#DejaVuSerif-109"/>
      <use x="193.505859" xlink:href="#DejaVuSerif-101"/>
     </g>
    </g>
   </g>
   <g id="matplotlib.axis_2">
    <g id="ytick_1">
     <g id="line2d_6">
      <defs>
       <path d="M 0 0 
L -3.5 0 
" id="m8f4766e45b" style="stroke:#000000;stroke-width:0.8;"/>
      </defs>
      <g>
       <use style="stroke:#000000;stroke-width:0.8;" x="57.6" xlink:href="#m8f4766e45b" y="305.568"/>
      </g>
     </g>
     <g id="text_7">
      <!-- 3.5 -->
      <g transform="translate(34.696875 309.367219)scale(0.1 -0.1)">
       <defs>
        <path d="M 9.71875 69.828125 
Q 15.4375 71.96875 20.671875 73.09375 
Q 25.921875 74.21875 30.515625 74.21875 
Q 41.21875 74.21875 47.21875 69.59375 
Q 53.21875 64.984375 53.21875 56.78125 
Q 53.21875 50.203125 49.0625 45.78125 
Q 44.921875 41.359375 37.3125 39.796875 
Q 46.296875 38.53125 51.25 33.28125 
Q 56.203125 28.03125 56.203125 19.671875 
Q 56.203125 9.46875 49.34375 4.015625 
Q 42.484375 -1.421875 29.59375 -1.421875 
Q 23.875 -1.421875 18.421875 -0.1875 
Q 12.984375 1.03125 7.625 3.515625 
L 7.625 17.671875 
L 13.09375 17.671875 
Q 13.578125 10.640625 17.828125 7.03125 
Q 22.078125 3.421875 29.78125 3.421875 
Q 37.25 3.421875 41.578125 7.734375 
Q 45.90625 12.0625 45.90625 19.578125 
Q 45.90625 28.171875 41.453125 32.59375 
Q 37.015625 37.015625 28.421875 37.015625 
L 23.78125 37.015625 
L 23.78125 42 
L 26.21875 42 
Q 34.765625 42 39.03125 45.53125 
Q 43.3125 49.078125 43.3125 56.203125 
Q 43.3125 62.59375 39.796875 65.984375 
Q 36.28125 69.390625 29.6875 69.390625 
Q 23.09375 69.390625 19.453125 66.265625 
Q 15.828125 63.140625 15.1875 56.984375 
L 9.71875 56.984375 
z
" id="DejaVuSerif-51"/>
        <path d="M 9.421875 5.078125 
Q 9.421875 7.8125 11.28125 9.71875 
Q 13.140625 11.625 15.921875 11.625 
Q 18.609375 11.625 20.5 9.71875 
Q 22.40625 7.8125 22.40625 5.078125 
Q 22.40625 2.390625 20.5 0.484375 
Q 18.609375 -1.421875 15.921875 -1.421875 
Q 13.140625 -1.421875 11.28125 0.453125 
Q 9.421875 2.34375 9.421875 5.078125 
z
" id="DejaVuSerif-46"/>
        <path d="M 50.296875 72.90625 
L 50.296875 64.890625 
L 16.890625 64.890625 
L 16.890625 44 
Q 19.4375 45.75 22.828125 46.625 
Q 26.21875 47.515625 30.421875 47.515625 
Q 42.234375 47.515625 49.0625 40.96875 
Q 55.90625 34.421875 55.90625 23.09375 
Q 55.90625 11.53125 49 5.046875 
Q 42.09375 -1.421875 29.59375 -1.421875 
Q 24.5625 -1.421875 19.28125 -0.1875 
Q 14.015625 1.03125 8.5 3.515625 
L 8.5 17.671875 
L 14.015625 17.671875 
Q 14.453125 10.75 18.421875 7.078125 
Q 22.40625 3.421875 29.59375 3.421875 
Q 37.3125 3.421875 41.453125 8.5 
Q 45.609375 13.578125 45.609375 23.09375 
Q 45.609375 32.5625 41.484375 37.609375 
Q 37.359375 42.671875 29.59375 42.671875 
Q 25.203125 42.671875 21.84375 41.109375 
Q 18.5 39.546875 15.921875 36.28125 
L 11.71875 36.28125 
L 11.71875 72.90625 
z
" id="DejaVuSerif-53"/>
       </defs>
       <use xlink:href="#DejaVuSerif-51"/>
       <use x="63.623047" xlink:href="#DejaVuSerif-46"/>
       <use x="95.410156" xlink:href="#DejaVuSerif-53"/>
      </g>
     </g>
    </g>
    <g id="ytick_2">
     <g id="line2d_7">
      <g>
       <use style="stroke:#000000;stroke-width:0.8;" x="57.6" xlink:href="#m8f4766e45b" y="255.168"/>
      </g>
     </g>
     <g id="text_8">
      <!-- 4.0 -->
      <g transform="translate(34.696875 258.967219)scale(0.1 -0.1)">
       <use xlink:href="#DejaVuSerif-52"/>
       <use x="63.623047" xlink:href="#DejaVuSerif-46"/>
       <use x="95.410156" xlink:href="#DejaVuSerif-48"/>
      </g>
     </g>
    </g>
    <g id="ytick_3">
     <g id="line2d_8">
      <g>
       <use style="stroke:#000000;stroke-width:0.8;" x="57.6" xlink:href="#m8f4766e45b" y="204.768"/>
      </g>
     </g>
     <g id="text_9">
      <!-- 4.5 -->
      <g transform="translate(34.696875 208.567219)scale(0.1 -0.1)">
       <use xlink:href="#DejaVuSerif-52"/>
       <use x="63.623047" xlink:href="#DejaVuSerif-46"/>
       <use x="95.410156" xlink:href="#DejaVuSerif-53"/>
      </g>
     </g>
    </g>
    <g id="ytick_4">
     <g id="line2d_9">
      <g>
       <use style="stroke:#000000;stroke-width:0.8;" x="57.6" xlink:href="#m8f4766e45b" y="154.368"/>
      </g>
     </g>
     <g id="text_10">
      <!-- 5.0 -->
      <g transform="translate(34.696875 158.167219)scale(0.1 -0.1)">
       <use xlink:href="#DejaVuSerif-53"/>
       <use x="63.623047" xlink:href="#DejaVuSerif-46"/>
       <use x="95.410156" xlink:href="#DejaVuSerif-48"/>
      </g>
     </g>
    </g>
    <g id="ytick_5">
     <g id="line2d_10">
      <g>
       <use style="stroke:#000000;stroke-width:0.8;" x="57.6" xlink:href="#m8f4766e45b" y="103.968"/>
      </g>
     </g>
     <g id="text_11">
      <!-- 5.5 -->
      <g transform="translate(34.696875 107.767219)scale(0.1 -0.1)">
       <use xlink:href="#DejaVuSerif-53"/>
       <use x="63.623047" xlink:href="#DejaVuSerif-46"/>
       <use x="95.410156" xlink:href="#DejaVuSerif-53"/>
      </g>
     </g>
    </g>
    <g id="ytick_6">
     <g id="line2d_11">
      <g>
       <use style="stroke:#000000;stroke-width:0.8;" x="57.6" xlink:href="#m8f4766e45b" y="53.568"/>
      </g>
     </g>
     <g id="text_12">
      <!-- 6.0 -->
      <g transform="translate(34.696875 57.367219)scale(0.1 -0.1)">
       <use xlink:href="#DejaVuSerif-54"/>
       <use x="63.623047" xlink:href="#DejaVuSerif-46"/>
       <use x="95.410156" xlink:href="#DejaVuSerif-48"/>
      </g>
     </g>
    </g>
    <g id="text_13">
     <!-- Speed -->
     <g transform="translate(28.617187 190.273313)rotate(-90)scale(0.1 -0.1)">
      <defs>
       <path d="M 9.28125 3.515625 
L 9.28125 20.125 
L 14.890625 20.0625 
Q 15.140625 11.765625 19.703125 7.78125 
Q 24.265625 3.8125 33.59375 3.8125 
Q 42.28125 3.8125 46.84375 7.25 
Q 51.421875 10.6875 51.421875 17.28125 
Q 51.421875 22.5625 48.65625 25.390625 
Q 45.90625 28.21875 37.015625 30.90625 
L 27.390625 33.796875 
Q 16.9375 36.96875 12.671875 41.703125 
Q 8.40625 46.4375 8.40625 54.6875 
Q 8.40625 63.96875 14.984375 69.09375 
Q 21.578125 74.21875 33.5 74.21875 
Q 38.578125 74.21875 44.625 73.109375 
Q 50.6875 72.015625 57.515625 69.921875 
L 57.515625 54.390625 
L 52 54.390625 
Q 51.171875 62.109375 46.84375 65.546875 
Q 42.53125 69 33.6875 69 
Q 25.984375 69 21.953125 65.84375 
Q 17.921875 62.703125 17.921875 56.6875 
Q 17.921875 51.46875 20.9375 48.484375 
Q 23.96875 45.515625 33.796875 42.578125 
L 42.828125 39.890625 
Q 52.734375 36.921875 56.953125 32.296875 
Q 61.1875 27.6875 61.1875 19.921875 
Q 61.1875 9.328125 54.390625 3.953125 
Q 47.609375 -1.421875 34.1875 -1.421875 
Q 28.171875 -1.421875 21.9375 -0.1875 
Q 15.71875 1.03125 9.28125 3.515625 
z
" id="DejaVuSerif-83"/>
       <path d="M 20.515625 28.515625 
L 20.515625 23.390625 
Q 20.515625 14.015625 24.09375 9.109375 
Q 27.6875 4.203125 34.515625 4.203125 
Q 41.40625 4.203125 44.9375 9.71875 
Q 48.484375 15.234375 48.484375 25.984375 
Q 48.484375 36.765625 44.9375 42.234375 
Q 41.40625 47.703125 34.515625 47.703125 
Q 27.6875 47.703125 24.09375 42.765625 
Q 20.515625 37.84375 20.515625 28.515625 
z
M 11.53125 46.6875 
L 2.875 46.6875 
L 2.875 51.90625 
L 20.515625 51.90625 
L 20.515625 43.796875 
Q 23.140625 48.6875 27.21875 51 
Q 31.296875 53.328125 37.3125 53.328125 
Q 46.875 53.328125 52.921875 45.75 
Q 58.984375 38.1875 58.984375 25.984375 
Q 58.984375 13.765625 52.921875 6.171875 
Q 46.875 -1.421875 37.3125 -1.421875 
Q 31.296875 -1.421875 27.21875 0.890625 
Q 23.140625 3.21875 20.515625 8.109375 
L 20.515625 -15.578125 
L 29 -15.578125 
L 29 -20.796875 
L 2.875 -20.796875 
L 2.875 -15.578125 
L 11.53125 -15.578125 
z
" id="DejaVuSerif-112"/>
       <path d="M 52.484375 5.171875 
L 61.078125 5.171875 
L 61.078125 0 
L 43.5 0 
L 43.5 8.109375 
Q 40.875 3.21875 36.796875 0.890625 
Q 32.71875 -1.421875 26.703125 -1.421875 
Q 17.140625 -1.421875 11.0625 6.171875 
Q 4.984375 13.765625 4.984375 25.984375 
Q 4.984375 38.1875 11.03125 45.75 
Q 17.09375 53.328125 26.703125 53.328125 
Q 32.71875 53.328125 36.796875 51 
Q 40.875 48.6875 43.5 43.796875 
L 43.5 70.796875 
L 35.015625 70.796875 
L 35.015625 75.984375 
L 52.484375 75.984375 
z
M 43.5 23.390625 
L 43.5 28.515625 
Q 43.5 37.84375 39.90625 42.765625 
Q 36.328125 47.703125 29.5 47.703125 
Q 22.5625 47.703125 19.015625 42.234375 
Q 15.484375 36.765625 15.484375 25.984375 
Q 15.484375 15.234375 19.015625 9.71875 
Q 22.5625 4.203125 29.5 4.203125 
Q 36.328125 4.203125 39.90625 9.109375 
Q 43.5 14.015625 43.5 23.390625 
z
" id="DejaVuSerif-100"/>
      </defs>
      <use xlink:href="#DejaVuSerif-83"/>
      <use x="68.505859" xlink:href="#DejaVuSerif-112"/>
      <use x="132.519531" xlink:href="#DejaVuSerif-101"/>
      <use x="191.699219" xlink:href="#DejaVuSerif-101"/>
      <use x="250.878906" xlink:href="#DejaVuSerif-100"/>
     </g>
    </g>
   </g>
   <g id="line2d_12">
    <path clip-path="url(#p48a2ca2817)" d="M 73.832727 204.768 
L 74.488439 204.768 
L 74.79701 53.568 
L 75.10558 204.768 
L 75.452721 174.528 
L 76.069862 174.528 
L 76.417004 295.488 
L 76.725574 174.528 
L 77.034144 154.368 
L 78.345568 154.368 
L 78.654138 139.968 
L 79.618421 139.968 
L 79.926991 226.368 
L 80.274133 204.768 
L 80.582703 204.768 
L 80.891273 129.168 
L 81.238415 129.168 
L 81.546985 204.768 
L 81.855556 187.968 
L 82.511267 187.968 
L 82.819838 120.768 
L 83.166979 120.768 
L 83.47555 174.528 
L 84.439832 174.528 
L 84.748402 114.048 
L 85.095544 163.531636 
L 86.368396 163.531636 
L 86.676967 154.368 
L 87.024108 204.768 
L 87.332679 154.368 
L 87.988391 154.368 
L 88.296961 146.614154 
L 88.605531 193.137231 
L 88.952673 193.137231 
L 89.261243 146.614154 
L 89.569813 146.614154 
L 89.916955 139.968 
L 90.225525 139.968 
L 90.534096 183.168 
L 91.189808 183.168 
L 91.498378 174.528 
L 91.84552 134.208 
L 92.15409 134.208 
L 92.46266 174.528 
L 92.809802 174.528 
L 93.118372 166.968 
L 93.426942 166.968 
L 93.774084 129.168 
L 94.082654 129.168 
L 94.391225 166.968 
L 94.738366 160.297412 
L 95.702649 160.297412 
L 96.011219 124.720941 
L 96.319789 154.368 
L 97.631213 154.368 
L 97.939783 149.062737 
L 98.248354 180.894316 
L 98.595495 149.062737 
L 99.212636 149.062737 
L 99.559778 144.288 
L 99.868348 174.528 
L 100.52406 174.528 
L 100.83263 144.288 
L 101.1412 139.968 
L 101.488342 139.968 
L 101.796912 168.768 
L 102.452624 168.768 
L 102.761195 163.531636 
L 103.069765 163.531636 
L 103.416906 136.040727 
L 103.725477 163.531636 
L 104.034047 163.531636 
L 104.381189 158.750609 
L 105.654041 158.750609 
L 105.962612 154.368 
L 107.274035 154.368 
L 107.582606 174.528 
L 107.891176 150.336 
L 108.855458 150.336 
L 109.2026 146.614154 
L 109.51117 169.875692 
L 109.819741 169.875692 
L 110.166882 146.614154 
L 110.475452 146.614154 
L 110.784023 143.168 
L 111.439735 143.168 
L 111.748305 165.568 
L 112.095447 165.568 
L 112.404017 161.568 
L 112.712587 139.968 
L 113.368299 139.968 
L 113.67687 161.568 
L 114.024011 157.843862 
L 114.641152 157.843862 
L 114.988293 136.98869 
L 115.296864 136.98869 
L 115.605434 154.368 
L 116.916858 154.368 
L 117.225428 151.116387 
L 118.498281 151.116387 
L 118.845422 148.068 
L 119.153993 148.068 
L 119.462563 166.968 
L 119.809705 148.068 
L 120.118275 148.068 
L 120.426845 145.204364 
L 121.082557 145.204364 
L 121.391127 163.531636 
L 121.738269 163.531636 
L 122.046839 160.297412 
L 122.35541 160.297412 
L 122.702551 142.509176 
L 123.011122 142.509176 
L 123.319692 160.297412 
L 123.666834 157.248 
L 124.631116 157.248 
L 124.939686 139.968 
L 125.248256 154.368 
L 126.55968 154.368 
L 126.868251 151.643676 
L 127.176821 167.989622 
L 127.523963 151.643676 
L 128.141103 151.643676 
L 128.488245 149.062737 
L 129.105385 149.062737 
L 129.452527 164.978526 
L 129.761097 149.062737 
L 130.069668 146.614154 
L 131.03395 146.614154 
L 131.381092 162.121846 
L 131.689662 159.408 
L 131.998232 159.408 
L 132.345374 144.288 
L 132.962514 144.288 
L 133.309656 156.826537 
L 134.273938 156.826537 
L 134.582509 142.075317 
L 134.891079 139.968 
L 135.23822 154.368 
L 136.202503 154.368 
L 136.511073 152.023814 
L 137.783926 152.023814 
L 138.131067 149.786182 
L 138.748208 149.786182 
L 139.095349 163.531636 
L 139.40392 149.786182 
L 139.71249 147.648 
L 141.023914 147.648 
L 141.332484 158.750609 
L 141.641055 158.750609 
L 141.988196 145.602783 
L 142.605337 145.602783 
L 142.952478 143.644596 
L 143.261049 156.512681 
L 144.225331 156.512681 
L 144.533901 154.368 
L 144.881043 141.768 
L 145.189613 154.368 
L 145.845325 154.368 
L 146.153895 152.310857 
L 147.426748 152.310857 
L 147.77389 150.336 
L 148.738172 150.336 
L 149.046742 162.432 
L 149.355313 160.297412 
L 149.702454 148.438588 
L 150.666736 148.438588 
L 150.975307 146.614154 
L 151.283877 158.244923 
L 151.631019 158.244923 
L 151.939589 146.614154 
L 152.248159 146.614154 
L 152.595301 144.858566 
L 152.903871 144.858566 
L 153.212441 156.269887 
L 153.868153 156.269887 
L 154.176724 154.368 
L 154.523865 143.168 
L 154.832436 143.168 
L 155.141006 154.368 
L 155.488148 154.368 
L 155.796718 152.535273 
L 156.45243 152.535273 
L 156.761 141.538909 
L 157.06957 152.535273 
L 157.416712 150.768 
L 158.689565 150.768 
L 158.998135 149.062737 
L 159.345277 159.673263 
L 159.653847 149.062737 
L 160.309559 149.062737 
L 160.618129 147.416276 
L 160.926699 147.416276 
L 161.273841 157.843862 
L 161.582411 157.843862 
L 161.890982 147.416276 
L 162.238123 145.825627 
L 162.855264 145.825627 
L 163.202406 156.076475 
L 163.510976 156.076475 
L 163.819546 154.368 
L 164.166688 154.368 
L 164.475258 144.288 
L 164.783828 144.288 
L 165.13097 154.368 
L 165.43954 152.715541 
L 166.403823 152.715541 
L 166.712393 142.800787 
L 167.059534 141.361548 
L 167.368105 151.116387 
L 168.332387 151.116387 
L 168.640957 149.568 
L 169.952381 149.568 
L 170.260952 148.068 
L 170.916663 148.068 
L 171.225234 157.518 
L 171.533804 157.518 
L 171.880946 155.918769 
L 172.189516 146.614154 
L 172.845228 146.614154 
L 173.153798 155.918769 
L 173.462369 154.368 
L 174.118081 154.368 
L 174.426651 145.204364 
L 174.773792 145.204364 
L 175.082363 143.836657 
L 175.390933 152.863522 
L 176.355215 152.863522 
L 176.702357 151.403294 
L 177.010927 142.509176 
L 177.319498 151.403294 
L 177.975209 151.403294 
L 178.28378 149.985391 
L 179.595204 149.985391 
L 179.903774 148.608 
L 180.868056 148.608 
L 181.176627 157.248 
L 181.523768 155.787718 
L 181.832338 155.787718 
L 182.140909 147.269408 
L 182.796621 147.269408 
L 183.105191 145.968 
L 183.452333 154.368 
L 184.069473 154.368 
L 184.416615 145.968 
L 184.725185 144.702247 
L 185.033755 144.702247 
L 185.380897 152.987178 
L 185.998038 152.987178 
L 186.345179 151.643676 
L 186.65375 151.643676 
L 186.96232 143.470703 
L 187.309462 151.643676 
L 187.618032 151.643676 
L 187.926602 150.336 
L 189.238026 150.336 
L 189.546596 149.062737 
L 190.819449 149.062737 
L 191.166591 147.822545 
L 191.475161 155.677091 
L 191.783731 155.677091 
L 192.130873 147.822545 
L 192.439443 147.822545 
L 192.748013 146.614154 
L 193.095155 146.614154 
L 193.403725 154.368 
L 194.059437 154.368 
L 194.368008 153.092051 
L 194.676578 145.436354 
L 195.02372 145.436354 
L 195.33229 153.092051 
L 195.64086 153.092051 
L 195.988002 151.848 
L 196.605142 151.848 
L 196.952284 144.288 
L 197.260854 144.288 
L 197.569425 150.634667 
L 198.880848 150.634667 
L 199.189419 149.450927 
L 200.462271 149.450927 
L 200.809413 148.295711 
L 201.117983 148.295711 
L 201.426554 155.582458 
L 201.773695 155.582458 
L 202.082266 148.295711 
L 202.390836 147.168 
L 203.046548 147.168 
L 203.355118 154.368 
L 203.70226 154.368 
L 204.01083 153.182118 
L 204.3194 153.182118 
L 204.666542 146.066824 
L 205.283683 146.066824 
L 205.630824 152.023814 
L 206.595106 152.023814 
L 206.903677 144.991256 
L 207.212247 143.940414 
L 207.559389 150.892138 
L 208.523671 150.892138 
L 208.832241 149.786182 
L 210.105094 149.786182 
L 210.452235 148.705079 
L 211.416518 148.705079 
L 211.725088 155.500584 
L 212.033658 154.368 
L 212.3808 147.648 
L 213.345082 147.648 
L 213.653652 153.260308 
L 214.309364 153.260308 
L 214.617935 146.614154 
L 214.926505 146.614154 
L 215.273647 145.602783 
L 215.582217 152.176696 
L 216.546499 152.176696 
L 216.85507 151.116387 
L 217.202211 144.613161 
L 217.510781 151.116387 
L 218.166493 151.116387 
L 218.475064 150.078638 
L 219.130776 150.078638 
L 219.439346 143.644596 
L 219.747916 150.078638 
L 220.095058 149.062737 
L 221.36791 149.062737 
L 221.676481 154.368 
L 222.023622 154.368 
L 222.332193 148.068 
L 222.987905 148.068 
L 223.296475 147.093773 
L 223.605045 153.328825 
L 224.260757 153.328825 
L 224.569327 147.093773 
L 224.916469 146.139429 
L 225.53361 146.139429 
L 225.880751 152.310857 
L 226.189322 152.310857 
L 226.497892 151.313455 
L 226.845034 151.313455 
L 227.153604 145.204364 
L 227.462174 145.204364 
L 227.809316 151.313455 
L 228.117886 150.336 
L 229.390739 150.336 
L 229.73788 155.36602 
L 230.046451 149.377901 
L 231.010733 149.377901 
L 231.319303 148.438588 
L 231.666445 148.438588 
L 231.975015 154.368 
L 232.283585 148.438588 
L 232.630727 148.438588 
L 232.939297 147.517515 
L 233.595009 147.517515 
L 233.90358 153.389359 
L 234.21215 153.389359 
L 234.559291 152.429538 
L 234.867862 146.614154 
L 235.523574 146.614154 
L 235.832144 152.429538 
L 236.140714 151.488 
L 236.796426 151.488 
L 237.104997 145.728 
L 237.452138 145.728 
L 237.760709 144.858566 
L 238.069279 150.564226 
L 239.033561 150.564226 
L 239.380703 149.65772 
L 240.653555 149.65772 
L 240.962126 148.768 
L 241.617837 148.768 
L 241.926408 154.368 
L 242.273549 148.768 
L 242.58212 147.894606 
L 243.854972 147.894606 
L 244.202114 152.535273 
L 244.510684 152.535273 
L 244.819255 147.037091 
L 245.474966 147.037091 
L 245.783537 146.195027 
L 246.130678 151.643676 
L 247.094961 151.643676 
L 247.403531 150.768 
L 247.712101 145.368 
L 248.059243 150.768 
L 248.676384 150.768 
L 249.023525 149.907823 
L 250.296378 149.907823 
L 250.604948 149.062737 
L 251.916372 149.062737 
L 252.224942 153.491478 
L 252.533512 148.232348 
L 253.497795 148.232348 
L 253.844936 147.416276 
L 254.153507 152.630069 
L 254.462077 152.630069 
L 254.809219 147.416276 
L 255.117789 147.416276 
L 255.426359 146.614154 
L 255.773501 146.614154 
L 256.082071 151.783385 
L 256.737783 151.783385 
L 257.046353 150.951051 
L 257.354924 150.951051 
L 257.702065 145.825627 
L 258.010636 145.825627 
L 258.319206 150.951051 
L 258.666348 150.132706 
L 259.63063 150.132706 
L 259.9392 145.050353 
L 260.24777 149.328 
L 261.559194 149.328 
L 261.867765 148.536595 
L 262.176335 153.534942 
L 262.523477 148.536595 
L 263.140617 148.536595 
L 263.487759 147.758164 
L 264.104899 147.758164 
L 264.452041 152.715541 
L 264.760611 152.715541 
L 265.069182 151.909463 
L 265.416323 146.99239 
L 266.033464 146.99239 
L 266.380605 151.909463 
L 266.689176 151.116387 
L 267.344888 151.116387 
L 267.653458 146.238968 
L 267.962028 146.238968 
L 268.30917 150.336 
L 269.582023 150.336 
L 269.890593 149.568 
L 270.237734 144.768 
L 270.546305 149.568 
L 271.202017 149.568 
L 271.510587 148.812094 
L 272.166299 148.812094 
L 272.474869 153.574299 
L 272.78344 148.812094 
L 273.130581 148.068 
L 274.094863 148.068 
L 274.403434 152.793 
L 274.712004 152.023814 
L 275.059146 152.023814 
L 275.367716 147.335442 
L 276.023428 147.335442 
L 276.331998 146.614154 
L 276.640569 151.266462 
L 277.29628 151.266462 
L 277.604851 146.614154 
L 277.951992 145.903878 
L 278.260563 145.903878 
L 278.569133 150.520672 
L 279.224845 150.520672 
L 279.533415 149.786182 
L 280.844839 149.786182 
L 281.153409 149.062737 
L 282.426262 149.062737 
L 282.773404 152.863522 
L 283.081974 148.35009 
L 284.046256 148.35009 
L 284.354826 147.648 
L 284.701968 152.128 
L 285.010538 152.128 
L 285.319109 147.648 
L 285.66625 147.648 
L 285.974821 146.956235 
L 286.283391 146.956235 
L 286.630533 151.403294 
L 287.247673 151.403294 
L 287.594815 150.689168 
L 287.903385 150.689168 
L 288.211955 146.274569 
L 288.559097 146.274569 
L 288.867667 150.689168 
L 289.176238 149.985391 
L 290.14052 149.985391 
L 290.487662 145.602783 
L 290.796232 149.291741 
L 292.069084 149.291741 
L 292.416226 148.608 
L 292.724796 152.928 
L 293.033367 148.608 
L 293.689079 148.608 
L 293.997649 147.933957 
L 294.653361 147.933957 
L 294.961931 152.223319 
L 295.309073 147.933957 
L 295.617643 147.269408 
L 296.581925 147.269408 
L 296.890496 151.528563 
L 297.237637 150.843524 
L 297.854778 150.843524 
L 298.201919 146.614154 
L 298.51049 146.614154 
L 298.81906 150.168 
L 300.130484 150.168 
L 300.439054 149.501793 
L 300.747625 145.330759 
L 301.094766 149.501793 
L 301.711907 149.501793 
L 302.059048 148.844712 
L 303.331901 148.844712 
L 303.640471 148.196571 
L 304.604754 148.196571 
L 304.951895 152.310857 
L 305.260466 151.643676 
L 305.569036 151.643676 
L 305.916177 147.557189 
L 306.533318 147.557189 
L 306.88046 146.926389 
L 307.18903 150.98545 
L 307.844742 150.98545 
L 308.153312 146.926389 
L 308.461883 146.304 
L 308.809024 146.304 
L 309.117594 150.336 
L 309.773306 150.336 
L 310.081877 149.695152 
L 310.390447 149.695152 
L 310.737589 145.689854 
L 311.046159 149.695152 
L 311.354729 149.695152 
L 311.701871 149.062737 
L 312.974723 149.062737 
L 313.283294 152.391529 
L 313.630435 148.438588 
L 314.594718 148.438588 
L 314.903288 147.822545 
L 315.211858 151.749818 
L 315.559 151.749818 
L 315.86757 147.822545 
L 316.17614 147.822545 
L 316.523282 147.214452 
L 316.831852 147.214452 
L 317.140423 151.116387 
L 317.796135 151.116387 
L 318.104705 150.491077 
L 318.451847 146.614154 
L 319.068987 146.614154 
L 319.416129 150.491077 
L 319.724699 149.873732 
L 320.688981 149.873732 
L 320.997552 146.021503 
L 321.344693 149.264203 
L 322.617546 149.264203 
L 322.926116 148.66234 
L 324.23754 148.66234 
L 324.54611 148.068 
L 325.201822 148.068 
L 325.510393 151.848 
L 325.818963 148.068 
L 326.166105 147.481043 
L 327.130387 147.481043 
L 327.438957 151.237565 
L 327.747527 150.634667 
L 328.403239 150.634667 
L 328.71181 146.901333 
L 329.058951 146.901333 
L 329.367522 146.328736 
L 329.676092 150.039166 
L 330.640374 150.039166 
L 330.987516 149.450927 
L 331.296086 145.763122 
L 331.604656 149.450927 
L 332.260368 149.450927 
L 332.568939 148.869818 
L 333.880362 148.869818 
L 334.188933 148.295711 
L 335.461785 148.295711 
L 335.808927 151.350036 
L 336.117497 151.350036 
L 336.426068 147.728479 
L 337.08178 147.728479 
L 337.39035 147.168 
L 337.737491 150.768 
L 338.354632 150.768 
L 338.701774 147.168 
L 339.010344 146.614154 
L 339.318914 146.614154 
L 339.666056 150.192852 
L 340.283197 150.192852 
L 340.630338 149.624471 
L 340.938908 149.624471 
L 341.247479 146.066824 
L 341.59462 146.066824 
L 341.903191 149.624471 
L 342.211761 149.062737 
L 343.523185 149.062737 
L 343.831755 152.023814 
L 344.140326 148.507535 
L 345.104608 148.507535 
L 345.451749 147.958751 
L 345.76032 151.454705 
L 346.06889 151.454705 
L 346.416032 147.958751 
L 346.724602 147.958751 
L 347.033172 147.416276 
L 347.688884 147.416276 
L 347.997455 150.892138 
L 348.344596 150.892138 
L 348.653166 150.336 
L 348.961737 146.88 
L 349.617449 146.88 
L 349.926019 150.336 
L 350.273161 149.786182 
L 351.237443 149.786182 
L 351.546013 146.349818 
L 351.854583 149.242576 
L 353.166007 149.242576 
L 353.474578 148.705079 
L 354.74743 148.705079 
L 355.094572 148.173587 
L 355.711712 148.173587 
L 356.058854 151.552358 
L 356.367424 148.173587 
L 356.675995 147.648 
L 357.640277 147.648 
L 357.987419 151.008 
L 358.295989 150.469657 
L 358.951701 150.469657 
L 359.260271 147.128221 
L 359.568841 147.128221 
L 359.915983 146.614154 
L 360.224553 149.937231 
L 361.188836 149.937231 
L 361.497406 149.410623 
L 361.844548 146.105705 
L 362.153118 149.410623 
L 362.80883 149.410623 
L 363.1174 148.889739 
L 363.773112 148.889739 
L 364.081682 145.602783 
L 364.390253 148.889739 
L 364.737394 148.374486 
L 366.010247 148.374486 
L 366.318817 151.116387 
L 366.665959 151.116387 
L 366.974529 147.864774 
L 367.630241 147.864774 
L 367.938811 147.360513 
L 368.247382 150.594738 
L 368.903094 150.594738 
L 369.211664 147.360513 
L 369.558805 146.861617 
L 370.175946 146.861617 
L 370.523088 150.078638 
L 370.831658 150.078638 
L 371.140228 149.568 
L 371.48737 149.568 
L 371.79594 146.368 
L 372.104511 146.368 
L 372.451652 149.568 
L 372.760222 149.062737 
L 374.033075 149.062737 
L 374.380217 151.729257 
L 374.688787 148.562764 
L 375.653069 148.562764 
L 375.96164 148.068 
L 376.308781 148.068 
L 376.617351 151.218 
L 376.925922 148.068 
L 377.273063 148.068 
L 377.581634 147.578363 
L 378.237346 147.578363 
L 378.545916 150.712041 
L 378.854486 150.712041 
L 379.201628 150.211299 
L 379.510198 147.093773 
L 380.16591 147.093773 
L 380.47448 150.211299 
L 380.783051 149.715692 
L 381.747333 149.715692 
L 382.094475 146.614154 
L 382.403045 146.139429 
L 382.711615 149.225143 
L 383.675897 149.225143 
L 384.023039 148.739574 
L 385.295892 148.739574 
L 385.604462 148.258909 
L 386.260174 148.258909 
L 386.568744 151.313455 
L 386.915886 151.313455 
L 387.224456 150.822271 
L 387.533026 147.783075 
L 388.497309 147.783075 
L 388.84445 150.336 
L 389.461591 150.336 
L 389.808733 147.312 
L 390.117303 147.312 
L 390.425873 146.845612 
L 390.773015 149.854567 
L 391.737297 149.854567 
L 392.045867 149.377901 
L 392.354438 146.383842 
L 392.701579 146.383842 
L 393.01015 149.377901 
L 393.31872 149.377901 
L 393.665862 148.905931 
L 394.938714 148.905931 
L 395.247284 148.438588 
L 396.558708 148.438588 
L 396.867279 150.926049 
L 397.175849 150.926049 
L 397.52299 147.975805 
L 398.140131 147.975805 
L 398.487273 147.517515 
L 398.487273 147.517515 
" style="fill:none;stroke:#1f77b4;stroke-linecap:square;stroke-width:1.5;"/>
   </g>
   <g id="patch_3">
    <path d="M 57.6 307.584 
L 57.6 41.472 
" style="fill:none;stroke:#000000;stroke-linecap:square;stroke-linejoin:miter;stroke-width:0.8;"/>
   </g>
   <g id="patch_4">
    <path d="M 414.72 307.584 
L 414.72 41.472 
" style="fill:none;stroke:#000000;stroke-linecap:square;stroke-linejoin:miter;stroke-width:0.8;"/>
   </g>
   <g id="patch_5">
    <path d="M 57.6 307.584 
L 414.72 307.584 
" style="fill:none;stroke:#000000;stroke-linecap:square;stroke-linejoin:miter;stroke-width:0.8;"/>
   </g>
   <g id="patch_6">
    <path d="M 57.6 41.472 
L 414.72 41.472 
" style="fill:none;stroke:#000000;stroke-linecap:square;stroke-linejoin:miter;stroke-width:0.8;"/>
   </g>
   <g id="text_14">
    <!-- Speed function of time -->
    <g transform="translate(167.024063 35.472)scale(0.12 -0.12)">
     <defs>
      <path id="DejaVuSerif-32"/>
      <path d="M 43.015625 63.71875 
L 38.28125 63.71875 
Q 38.234375 67.390625 36.203125 69.28125 
Q 34.1875 71.1875 30.328125 71.1875 
Q 25.296875 71.1875 23.234375 68.421875 
Q 21.1875 65.671875 21.1875 58.59375 
L 21.1875 51.90625 
L 35.6875 51.90625 
L 35.6875 46.6875 
L 21.1875 46.6875 
L 21.1875 5.171875 
L 32.71875 5.171875 
L 32.71875 0 
L 3.609375 0 
L 3.609375 5.171875 
L 12.203125 5.171875 
L 12.203125 46.6875 
L 3.609375 46.6875 
L 3.609375 51.90625 
L 12.203125 51.90625 
L 12.203125 58.40625 
Q 12.203125 67.09375 16.71875 71.53125 
Q 21.234375 75.984375 29.984375 75.984375 
Q 33.25 75.984375 36.515625 75.390625 
Q 39.796875 74.8125 43.015625 73.578125 
z
" id="DejaVuSerif-102"/>
      <path d="M 35.40625 51.90625 
L 52.203125 51.90625 
L 52.203125 5.171875 
L 60.6875 5.171875 
L 60.6875 0 
L 43.21875 0 
L 43.21875 9.1875 
Q 40.71875 4 36.765625 1.28125 
Q 32.8125 -1.421875 27.59375 -1.421875 
Q 18.953125 -1.421875 14.875 3.484375 
Q 10.796875 8.40625 10.796875 18.890625 
L 10.796875 46.6875 
L 2.6875 46.6875 
L 2.6875 51.90625 
L 19.828125 51.90625 
L 19.828125 21.6875 
Q 19.828125 12.203125 22.140625 8.6875 
Q 24.46875 5.171875 30.421875 5.171875 
Q 36.671875 5.171875 39.9375 9.765625 
Q 43.21875 14.359375 43.21875 23.09375 
L 43.21875 46.6875 
L 35.40625 46.6875 
z
" id="DejaVuSerif-117"/>
      <path d="M 4.109375 0 
L 4.109375 5.171875 
L 12.203125 5.171875 
L 12.203125 46.6875 
L 3.609375 46.6875 
L 3.609375 51.90625 
L 21.1875 51.90625 
L 21.1875 42.671875 
Q 23.6875 47.953125 27.65625 50.640625 
Q 31.640625 53.328125 36.921875 53.328125 
Q 45.515625 53.328125 49.5625 48.390625 
Q 53.609375 43.453125 53.609375 33.015625 
L 53.609375 5.171875 
L 61.625 5.171875 
L 61.625 0 
L 36.8125 0 
L 36.8125 5.171875 
L 44.578125 5.171875 
L 44.578125 30.171875 
Q 44.578125 39.703125 42.234375 43.234375 
Q 39.890625 46.78125 33.984375 46.78125 
Q 27.734375 46.78125 24.453125 42.203125 
Q 21.1875 37.640625 21.1875 28.90625 
L 21.1875 5.171875 
L 29 5.171875 
L 29 0 
z
" id="DejaVuSerif-110"/>
      <path d="M 51.421875 15.578125 
Q 49.515625 7.28125 44.09375 2.921875 
Q 38.671875 -1.421875 30.078125 -1.421875 
Q 18.75 -1.421875 11.859375 6.078125 
Q 4.984375 13.578125 4.984375 25.984375 
Q 4.984375 38.421875 11.859375 45.875 
Q 18.75 53.328125 30.078125 53.328125 
Q 35.015625 53.328125 39.890625 52.171875 
Q 44.78125 51.03125 49.703125 48.6875 
L 49.703125 35.40625 
L 44.484375 35.40625 
Q 43.453125 42.234375 40.015625 45.359375 
Q 36.578125 48.484375 30.171875 48.484375 
Q 22.90625 48.484375 19.1875 42.84375 
Q 15.484375 37.203125 15.484375 25.984375 
Q 15.484375 14.75 19.171875 9.078125 
Q 22.859375 3.421875 30.171875 3.421875 
Q 35.984375 3.421875 39.453125 6.4375 
Q 42.921875 9.46875 44.1875 15.578125 
z
" id="DejaVuSerif-99"/>
      <path d="M 10.796875 46.6875 
L 2.875 46.6875 
L 2.875 51.90625 
L 10.796875 51.90625 
L 10.796875 68.015625 
L 19.828125 68.015625 
L 19.828125 51.90625 
L 36.71875 51.90625 
L 36.71875 46.6875 
L 19.828125 46.6875 
L 19.828125 13.71875 
Q 19.828125 7.125 21.09375 5.265625 
Q 22.359375 3.421875 25.78125 3.421875 
Q 29.296875 3.421875 30.90625 5.484375 
Q 32.515625 7.5625 32.625 12.203125 
L 39.40625 12.203125 
Q 39.015625 5.125 35.546875 1.84375 
Q 32.078125 -1.421875 25 -1.421875 
Q 17.234375 -1.421875 14.015625 2.015625 
Q 10.796875 5.46875 10.796875 13.71875 
z
" id="DejaVuSerif-116"/>
      <path d="M 30.078125 3.421875 
Q 37.3125 3.421875 40.984375 9.125 
Q 44.671875 14.84375 44.671875 25.984375 
Q 44.671875 37.109375 40.984375 42.796875 
Q 37.3125 48.484375 30.078125 48.484375 
Q 22.859375 48.484375 19.171875 42.796875 
Q 15.484375 37.109375 15.484375 25.984375 
Q 15.484375 14.84375 19.1875 9.125 
Q 22.90625 3.421875 30.078125 3.421875 
z
M 30.078125 -1.421875 
Q 18.75 -1.421875 11.859375 6.078125 
Q 4.984375 13.578125 4.984375 25.984375 
Q 4.984375 38.375 11.84375 45.84375 
Q 18.703125 53.328125 30.078125 53.328125 
Q 41.453125 53.328125 48.3125 45.84375 
Q 55.171875 38.375 55.171875 25.984375 
Q 55.171875 13.578125 48.3125 6.078125 
Q 41.453125 -1.421875 30.078125 -1.421875 
z
" id="DejaVuSerif-111"/>
     </defs>
     <use xlink:href="#DejaVuSerif-83"/>
     <use x="68.505859" xlink:href="#DejaVuSerif-112"/>
     <use x="132.519531" xlink:href="#DejaVuSerif-101"/>
     <use x="191.699219" xlink:href="#DejaVuSerif-101"/>
     <use x="250.878906" xlink:href="#DejaVuSerif-100"/>
     <use x="314.892578" xlink:href="#DejaVuSerif-32"/>
     <use x="346.679688" xlink:href="#DejaVuSerif-102"/>
     <use x="383.691406" xlink:href="#DejaVuSerif-117"/>
     <use x="448.095703" xlink:href="#DejaVuSerif-110"/>
     <use x="512.5" xlink:href="#DejaVuSerif-99"/>
     <use x="568.505859" xlink:href="#DejaVuSerif-116"/>
     <use x="608.691406" xlink:href="#DejaVuSerif-105"/>
     <use x="640.673828" xlink:href="#DejaVuSerif-111"/>
     <use x="700.878906" xlink:href="#DejaVuSerif-110"/>
     <use x="765.283203" xlink:href="#DejaVuSerif-32"/>
     <use x="797.070312" xlink:href="#DejaVuSerif-111"/>
     <use x="857.275391" xlink:href="#DejaVuSerif-102"/>
     <use x="894.287109" xlink:href="#DejaVuSerif-32"/>
     <use x="926.074219" xlink:href="#DejaVuSerif-116"/>
     <use x="966.259766" xlink:href="#DejaVuSerif-105"/>
     <use x="998.242188" xlink:href="#DejaVuSerif-109"/>
     <use x="1093.066406" xlink:href="#DejaVuSerif-101"/>
    </g>
   </g>
  </g>
 </g>
 <defs>
  <clipPath id="p48a2ca2817">
   <rect height="266.112" width="357.12" x="57.6" y="41.472"/>
  </clipPath>
 </defs>
</svg>
