<?xml version="1.0" encoding="utf-8" standalone="no"?>
<!DOCTYPE svg PUBLIC "-//W3C//DTD SVG 1.1//EN"
  "http://www.w3.org/Graphics/SVG/1.1/DTD/svg11.dtd">
<!-- Created with matplotlib (https://matplotlib.org/) -->
<svg height="345.6pt" version="1.1" viewBox="0 0 460.8 345.6" width="460.8pt" xmlns="http://www.w3.org/2000/svg" xmlns:xlink="http://www.w3.org/1999/xlink">
 <metadata>
  <rdf:RDF xmlns:cc="http://creativecommons.org/ns#" xmlns:dc="http://purl.org/dc/elements/1.1/" xmlns:rdf="http://www.w3.org/1999/02/22-rdf-syntax-ns#">
   <cc:Work>
    <dc:type rdf:resource="http://purl.org/dc/dcmitype/StillImage"/>
    <dc:date>2022-12-07T15:49:45.388837</dc:date>
    <dc:format>image/svg+xml</dc:format>
    <dc:creator>
     <cc:Agent>
      <dc:title>Matplotlib v3.3.4, https://matplotlib.org/</dc:title>
     </cc:Agent>
    </dc:creator>
   </cc:Work>
  </rdf:RDF>
 </metadata>
 <defs>
  <style type="text/css">*{stroke-linecap:butt;stroke-linejoin:round;}</style>
 </defs>
 <g id="figure_1">
  <g id="patch_1">
   <path d="M 0 345.6 
L 460.8 345.6 
L 460.8 0 
L 0 0 
z
" style="fill:#ffffff;"/>
  </g>
  <g id="axes_1">
   <g id="patch_2">
    <path d="M 57.6 307.584 
L 414.72 307.584 
L 414.72 41.472 
L 57.6 41.472 
z
" style="fill:#ffffff;"/>
   </g>
   <g id="matplotlib.axis_1">
    <g id="xtick_1">
     <g id="line2d_1">
      <defs>
       <path d="M 0 0 
L 0 3.5 
" id="ma7450ab6a0" style="stroke:#000000;stroke-width:0.8;"/>
      </defs>
      <g>
       <use style="stroke:#000000;stroke-width:0.8;" x="70.161351" xlink:href="#ma7450ab6a0" y="307.584"/>
      </g>
     </g>
     <g id="text_1">
      <!-- 0 -->
      <g transform="translate(66.980101 322.182437)scale(0.1 -0.1)">
       <defs>
        <path d="M 31.78125 3.421875 
Q 39.265625 3.421875 42.96875 11.625 
Q 46.6875 19.828125 46.6875 36.375 
Q 46.6875 52.984375 42.96875 61.1875 
Q 39.265625 69.390625 31.78125 69.390625 
Q 24.3125 69.390625 20.59375 61.1875 
Q 16.890625 52.984375 16.890625 36.375 
Q 16.890625 19.828125 20.59375 11.625 
Q 24.3125 3.421875 31.78125 3.421875 
z
M 31.78125 -1.421875 
Q 19.921875 -1.421875 13.25 8.53125 
Q 6.59375 18.5 6.59375 36.375 
Q 6.59375 54.296875 13.25 64.25 
Q 19.921875 74.21875 31.78125 74.21875 
Q 43.703125 74.21875 50.34375 64.25 
Q 56.984375 54.296875 56.984375 36.375 
Q 56.984375 18.5 50.34375 8.53125 
Q 43.703125 -1.421875 31.78125 -1.421875 
z
" id="DejaVuSerif-48"/>
       </defs>
       <use xlink:href="#DejaVuSerif-48"/>
      </g>
     </g>
    </g>
    <g id="xtick_2">
     <g id="line2d_2">
      <g>
       <use style="stroke:#000000;stroke-width:0.8;" x="122.609581" xlink:href="#ma7450ab6a0" y="307.584"/>
      </g>
     </g>
     <g id="text_2">
      <!-- 50 -->
      <g transform="translate(116.247081 322.182437)scale(0.1 -0.1)">
       <defs>
        <path d="M 50.296875 72.90625 
L 50.296875 64.890625 
L 16.890625 64.890625 
L 16.890625 44 
Q 19.4375 45.75 22.828125 46.625 
Q 26.21875 47.515625 30.421875 47.515625 
Q 42.234375 47.515625 49.0625 40.96875 
Q 55.90625 34.421875 55.90625 23.09375 
Q 55.90625 11.53125 49 5.046875 
Q 42.09375 -1.421875 29.59375 -1.421875 
Q 24.5625 -1.421875 19.28125 -0.1875 
Q 14.015625 1.03125 8.5 3.515625 
L 8.5 17.671875 
L 14.015625 17.671875 
Q 14.453125 10.75 18.421875 7.078125 
Q 22.40625 3.421875 29.59375 3.421875 
Q 37.3125 3.421875 41.453125 8.5 
Q 45.609375 13.578125 45.609375 23.09375 
Q 45.609375 32.5625 41.484375 37.609375 
Q 37.359375 42.671875 29.59375 42.671875 
Q 25.203125 42.671875 21.84375 41.109375 
Q 18.5 39.546875 15.921875 36.28125 
L 11.71875 36.28125 
L 11.71875 72.90625 
z
" id="DejaVuSerif-53"/>
       </defs>
       <use xlink:href="#DejaVuSerif-53"/>
       <use x="63.623047" xlink:href="#DejaVuSerif-48"/>
      </g>
     </g>
    </g>
    <g id="xtick_3">
     <g id="line2d_3">
      <g>
       <use style="stroke:#000000;stroke-width:0.8;" x="175.057812" xlink:href="#ma7450ab6a0" y="307.584"/>
      </g>
     </g>
     <g id="text_3">
      <!-- 100 -->
      <g transform="translate(165.514062 322.182437)scale(0.1 -0.1)">
       <defs>
        <path d="M 14.203125 0 
L 14.203125 5.171875 
L 26.90625 5.171875 
L 26.90625 65.828125 
L 12.203125 56.296875 
L 12.203125 62.703125 
L 29.984375 74.21875 
L 36.71875 74.21875 
L 36.71875 5.171875 
L 49.421875 5.171875 
L 49.421875 0 
z
" id="DejaVuSerif-49"/>
       </defs>
       <use xlink:href="#DejaVuSerif-49"/>
       <use x="63.623047" xlink:href="#DejaVuSerif-48"/>
       <use x="127.246094" xlink:href="#DejaVuSerif-48"/>
      </g>
     </g>
    </g>
    <g id="xtick_4">
     <g id="line2d_4">
      <g>
       <use style="stroke:#000000;stroke-width:0.8;" x="227.506042" xlink:href="#ma7450ab6a0" y="307.584"/>
      </g>
     </g>
     <g id="text_4">
      <!-- 150 -->
      <g transform="translate(217.962292 322.182437)scale(0.1 -0.1)">
       <use xlink:href="#DejaVuSerif-49"/>
       <use x="63.623047" xlink:href="#DejaVuSerif-53"/>
       <use x="127.246094" xlink:href="#DejaVuSerif-48"/>
      </g>
     </g>
    </g>
    <g id="xtick_5">
     <g id="line2d_5">
      <g>
       <use style="stroke:#000000;stroke-width:0.8;" x="279.954272" xlink:href="#ma7450ab6a0" y="307.584"/>
      </g>
     </g>
     <g id="text_5">
      <!-- 200 -->
      <g transform="translate(270.410522 322.182437)scale(0.1 -0.1)">
       <defs>
        <path d="M 12.796875 55.515625 
L 7.328125 55.515625 
L 7.328125 68.5 
Q 12.546875 71.296875 17.84375 72.75 
Q 23.140625 74.21875 28.21875 74.21875 
Q 39.59375 74.21875 46.1875 68.703125 
Q 52.78125 63.1875 52.78125 53.71875 
Q 52.78125 43.015625 37.84375 28.125 
Q 36.671875 27 36.078125 26.421875 
L 17.671875 8.015625 
L 48.09375 8.015625 
L 48.09375 17 
L 53.8125 17 
L 53.8125 0 
L 6.78125 0 
L 6.78125 5.328125 
L 28.90625 27.390625 
Q 36.234375 34.71875 39.359375 40.84375 
Q 42.484375 46.96875 42.484375 53.71875 
Q 42.484375 61.078125 38.640625 65.234375 
Q 34.8125 69.390625 28.078125 69.390625 
Q 21.09375 69.390625 17.28125 65.921875 
Q 13.484375 62.453125 12.796875 55.515625 
z
" id="DejaVuSerif-50"/>
       </defs>
       <use xlink:href="#DejaVuSerif-50"/>
       <use x="63.623047" xlink:href="#DejaVuSerif-48"/>
       <use x="127.246094" xlink:href="#DejaVuSerif-48"/>
      </g>
     </g>
    </g>
    <g id="xtick_6">
     <g id="line2d_6">
      <g>
       <use style="stroke:#000000;stroke-width:0.8;" x="332.402503" xlink:href="#ma7450ab6a0" y="307.584"/>
      </g>
     </g>
     <g id="text_6">
      <!-- 250 -->
      <g transform="translate(322.858753 322.182437)scale(0.1 -0.1)">
       <use xlink:href="#DejaVuSerif-50"/>
       <use x="63.623047" xlink:href="#DejaVuSerif-53"/>
       <use x="127.246094" xlink:href="#DejaVuSerif-48"/>
      </g>
     </g>
    </g>
    <g id="xtick_7">
     <g id="line2d_7">
      <g>
       <use style="stroke:#000000;stroke-width:0.8;" x="384.850733" xlink:href="#ma7450ab6a0" y="307.584"/>
      </g>
     </g>
     <g id="text_7">
      <!-- 300 -->
      <g transform="translate(375.306983 322.182437)scale(0.1 -0.1)">
       <defs>
        <path d="M 9.71875 69.828125 
Q 15.4375 71.96875 20.671875 73.09375 
Q 25.921875 74.21875 30.515625 74.21875 
Q 41.21875 74.21875 47.21875 69.59375 
Q 53.21875 64.984375 53.21875 56.78125 
Q 53.21875 50.203125 49.0625 45.78125 
Q 44.921875 41.359375 37.3125 39.796875 
Q 46.296875 38.53125 51.25 33.28125 
Q 56.203125 28.03125 56.203125 19.671875 
Q 56.203125 9.46875 49.34375 4.015625 
Q 42.484375 -1.421875 29.59375 -1.421875 
Q 23.875 -1.421875 18.421875 -0.1875 
Q 12.984375 1.03125 7.625 3.515625 
L 7.625 17.671875 
L 13.09375 17.671875 
Q 13.578125 10.640625 17.828125 7.03125 
Q 22.078125 3.421875 29.78125 3.421875 
Q 37.25 3.421875 41.578125 7.734375 
Q 45.90625 12.0625 45.90625 19.578125 
Q 45.90625 28.171875 41.453125 32.59375 
Q 37.015625 37.015625 28.421875 37.015625 
L 23.78125 37.015625 
L 23.78125 42 
L 26.21875 42 
Q 34.765625 42 39.03125 45.53125 
Q 43.3125 49.078125 43.3125 56.203125 
Q 43.3125 62.59375 39.796875 65.984375 
Q 36.28125 69.390625 29.6875 69.390625 
Q 23.09375 69.390625 19.453125 66.265625 
Q 15.828125 63.140625 15.1875 56.984375 
L 9.71875 56.984375 
z
" id="DejaVuSerif-51"/>
       </defs>
       <use xlink:href="#DejaVuSerif-51"/>
       <use x="63.623047" xlink:href="#DejaVuSerif-48"/>
       <use x="127.246094" xlink:href="#DejaVuSerif-48"/>
      </g>
     </g>
    </g>
    <g id="text_8">
     <!-- Time -->
     <g transform="translate(223.524844 335.860562)scale(0.1 -0.1)">
      <defs>
       <path d="M 19.09375 0 
L 19.09375 5.171875 
L 28.421875 5.171875 
L 28.421875 67.09375 
L 6.984375 67.09375 
L 6.984375 55.71875 
L 0.984375 55.71875 
L 0.984375 72.90625 
L 65.71875 72.90625 
L 65.71875 55.71875 
L 59.71875 55.71875 
L 59.71875 67.09375 
L 38.28125 67.09375 
L 38.28125 5.171875 
L 47.609375 5.171875 
L 47.609375 0 
z
" id="DejaVuSerif-84"/>
       <path d="M 9.71875 68.015625 
Q 9.71875 70.265625 11.34375 71.921875 
Q 12.984375 73.578125 15.28125 73.578125 
Q 17.53125 73.578125 19.15625 71.921875 
Q 20.796875 70.265625 20.796875 68.015625 
Q 20.796875 65.71875 19.1875 64.109375 
Q 17.578125 62.5 15.28125 62.5 
Q 12.984375 62.5 11.34375 64.109375 
Q 9.71875 65.71875 9.71875 68.015625 
z
M 21.1875 5.171875 
L 29.6875 5.171875 
L 29.6875 0 
L 3.609375 0 
L 3.609375 5.171875 
L 12.203125 5.171875 
L 12.203125 46.6875 
L 3.609375 46.6875 
L 3.609375 51.90625 
L 21.1875 51.90625 
z
" id="DejaVuSerif-105"/>
       <path d="M 51.8125 41.796875 
Q 54.390625 47.515625 58.421875 50.421875 
Q 62.453125 53.328125 67.828125 53.328125 
Q 75.984375 53.328125 79.984375 48.265625 
Q 83.984375 43.21875 83.984375 33.015625 
L 83.984375 5.171875 
L 92.09375 5.171875 
L 92.09375 0 
L 67.1875 0 
L 67.1875 5.171875 
L 75 5.171875 
L 75 31.984375 
Q 75 39.9375 72.65625 43.3125 
Q 70.3125 46.6875 64.890625 46.6875 
Q 58.890625 46.6875 55.734375 42.140625 
Q 52.59375 37.59375 52.59375 28.90625 
L 52.59375 5.171875 
L 60.40625 5.171875 
L 60.40625 0 
L 35.796875 0 
L 35.796875 5.171875 
L 43.609375 5.171875 
L 43.609375 32.328125 
Q 43.609375 40.09375 41.265625 43.390625 
Q 38.921875 46.6875 33.5 46.6875 
Q 27.484375 46.6875 24.328125 42.140625 
Q 21.1875 37.59375 21.1875 28.90625 
L 21.1875 5.171875 
L 29 5.171875 
L 29 0 
L 4.109375 0 
L 4.109375 5.171875 
L 12.203125 5.171875 
L 12.203125 46.78125 
L 3.609375 46.78125 
L 3.609375 51.90625 
L 21.1875 51.90625 
L 21.1875 42.671875 
Q 23.6875 47.859375 27.53125 50.59375 
Q 31.390625 53.328125 36.28125 53.328125 
Q 42.328125 53.328125 46.375 50.3125 
Q 50.4375 47.3125 51.8125 41.796875 
z
" id="DejaVuSerif-109"/>
       <path d="M 54.203125 25 
L 15.484375 25 
L 15.484375 24.609375 
Q 15.484375 14.109375 19.4375 8.765625 
Q 23.390625 3.421875 31.109375 3.421875 
Q 37.015625 3.421875 40.796875 6.515625 
Q 44.578125 9.625 46.09375 15.71875 
L 53.328125 15.71875 
Q 51.171875 7.171875 45.375 2.875 
Q 39.59375 -1.421875 30.171875 -1.421875 
Q 18.796875 -1.421875 11.890625 6.078125 
Q 4.984375 13.578125 4.984375 25.984375 
Q 4.984375 38.28125 11.765625 45.796875 
Q 18.5625 53.328125 29.59375 53.328125 
Q 41.359375 53.328125 47.65625 46.0625 
Q 53.953125 38.8125 54.203125 25 
z
M 43.609375 30.171875 
Q 43.3125 39.265625 39.765625 43.875 
Q 36.234375 48.484375 29.59375 48.484375 
Q 23.390625 48.484375 19.828125 43.84375 
Q 16.265625 39.203125 15.484375 30.171875 
z
" id="DejaVuSerif-101"/>
      </defs>
      <use xlink:href="#DejaVuSerif-84"/>
      <use x="66.699219" xlink:href="#DejaVuSerif-105"/>
      <use x="98.681641" xlink:href="#DejaVuSerif-109"/>
      <use x="193.505859" xlink:href="#DejaVuSerif-101"/>
     </g>
    </g>
   </g>
   <g id="matplotlib.axis_2">
    <g id="ytick_1">
     <g id="line2d_8">
      <defs>
       <path d="M 0 0 
L -3.5 0 
" id="m16e78d290c" style="stroke:#000000;stroke-width:0.8;"/>
      </defs>
      <g>
       <use style="stroke:#000000;stroke-width:0.8;" x="57.6" xlink:href="#m16e78d290c" y="288.768"/>
      </g>
     </g>
     <g id="text_9">
      <!-- −4.75 -->
      <g transform="translate(19.954687 292.567219)scale(0.1 -0.1)">
       <defs>
        <path d="M 10.59375 35.296875 
L 73.1875 35.296875 
L 73.1875 27.390625 
L 10.59375 27.390625 
z
" id="DejaVuSerif-8722"/>
        <path d="M 34.90625 24.703125 
L 34.90625 63.484375 
L 10.015625 24.703125 
z
M 56.390625 0 
L 23.1875 0 
L 23.1875 5.171875 
L 34.90625 5.171875 
L 34.90625 19.484375 
L 3.078125 19.484375 
L 3.078125 24.8125 
L 35.015625 74.21875 
L 44.671875 74.21875 
L 44.671875 24.703125 
L 58.59375 24.703125 
L 58.59375 19.484375 
L 44.671875 19.484375 
L 44.671875 5.171875 
L 56.390625 5.171875 
z
" id="DejaVuSerif-52"/>
        <path d="M 9.421875 5.078125 
Q 9.421875 7.8125 11.28125 9.71875 
Q 13.140625 11.625 15.921875 11.625 
Q 18.609375 11.625 20.5 9.71875 
Q 22.40625 7.8125 22.40625 5.078125 
Q 22.40625 2.390625 20.5 0.484375 
Q 18.609375 -1.421875 15.921875 -1.421875 
Q 13.140625 -1.421875 11.28125 0.453125 
Q 9.421875 2.34375 9.421875 5.078125 
z
" id="DejaVuSerif-46"/>
        <path d="M 56.390625 67.921875 
L 27.875 0 
L 20.609375 0 
L 47.796875 64.890625 
L 14.109375 64.890625 
L 14.109375 55.90625 
L 8.40625 55.90625 
L 8.40625 72.90625 
L 56.390625 72.90625 
z
" id="DejaVuSerif-55"/>
       </defs>
       <use xlink:href="#DejaVuSerif-8722"/>
       <use x="83.789062" xlink:href="#DejaVuSerif-52"/>
       <use x="147.412109" xlink:href="#DejaVuSerif-46"/>
       <use x="179.199219" xlink:href="#DejaVuSerif-55"/>
       <use x="242.822266" xlink:href="#DejaVuSerif-53"/>
      </g>
     </g>
    </g>
    <g id="ytick_2">
     <g id="line2d_9">
      <g>
       <use style="stroke:#000000;stroke-width:0.8;" x="57.6" xlink:href="#m16e78d290c" y="255.168"/>
      </g>
     </g>
     <g id="text_10">
      <!-- −4.50 -->
      <g transform="translate(19.954687 258.967219)scale(0.1 -0.1)">
       <use xlink:href="#DejaVuSerif-8722"/>
       <use x="83.789062" xlink:href="#DejaVuSerif-52"/>
       <use x="147.412109" xlink:href="#DejaVuSerif-46"/>
       <use x="179.199219" xlink:href="#DejaVuSerif-53"/>
       <use x="242.822266" xlink:href="#DejaVuSerif-48"/>
      </g>
     </g>
    </g>
    <g id="ytick_3">
     <g id="line2d_10">
      <g>
       <use style="stroke:#000000;stroke-width:0.8;" x="57.6" xlink:href="#m16e78d290c" y="221.568"/>
      </g>
     </g>
     <g id="text_11">
      <!-- −4.25 -->
      <g transform="translate(19.954687 225.367219)scale(0.1 -0.1)">
       <use xlink:href="#DejaVuSerif-8722"/>
       <use x="83.789062" xlink:href="#DejaVuSerif-52"/>
       <use x="147.412109" xlink:href="#DejaVuSerif-46"/>
       <use x="179.199219" xlink:href="#DejaVuSerif-50"/>
       <use x="242.822266" xlink:href="#DejaVuSerif-53"/>
      </g>
     </g>
    </g>
    <g id="ytick_4">
     <g id="line2d_11">
      <g>
       <use style="stroke:#000000;stroke-width:0.8;" x="57.6" xlink:href="#m16e78d290c" y="187.968"/>
      </g>
     </g>
     <g id="text_12">
      <!-- −4.00 -->
      <g transform="translate(19.954687 191.767219)scale(0.1 -0.1)">
       <use xlink:href="#DejaVuSerif-8722"/>
       <use x="83.789062" xlink:href="#DejaVuSerif-52"/>
       <use x="147.412109" xlink:href="#DejaVuSerif-46"/>
       <use x="179.199219" xlink:href="#DejaVuSerif-48"/>
       <use x="242.822266" xlink:href="#DejaVuSerif-48"/>
      </g>
     </g>
    </g>
    <g id="ytick_5">
     <g id="line2d_12">
      <g>
       <use style="stroke:#000000;stroke-width:0.8;" x="57.6" xlink:href="#m16e78d290c" y="154.368"/>
      </g>
     </g>
     <g id="text_13">
      <!-- −3.75 -->
      <g transform="translate(19.954687 158.167219)scale(0.1 -0.1)">
       <use xlink:href="#DejaVuSerif-8722"/>
       <use x="83.789062" xlink:href="#DejaVuSerif-51"/>
       <use x="147.412109" xlink:href="#DejaVuSerif-46"/>
       <use x="179.199219" xlink:href="#DejaVuSerif-55"/>
       <use x="242.822266" xlink:href="#DejaVuSerif-53"/>
      </g>
     </g>
    </g>
    <g id="ytick_6">
     <g id="line2d_13">
      <g>
       <use style="stroke:#000000;stroke-width:0.8;" x="57.6" xlink:href="#m16e78d290c" y="120.768"/>
      </g>
     </g>
     <g id="text_14">
      <!-- −3.50 -->
      <g transform="translate(19.954687 124.567219)scale(0.1 -0.1)">
       <use xlink:href="#DejaVuSerif-8722"/>
       <use x="83.789062" xlink:href="#DejaVuSerif-51"/>
       <use x="147.412109" xlink:href="#DejaVuSerif-46"/>
       <use x="179.199219" xlink:href="#DejaVuSerif-53"/>
       <use x="242.822266" xlink:href="#DejaVuSerif-48"/>
      </g>
     </g>
    </g>
    <g id="ytick_7">
     <g id="line2d_14">
      <g>
       <use style="stroke:#000000;stroke-width:0.8;" x="57.6" xlink:href="#m16e78d290c" y="87.168"/>
      </g>
     </g>
     <g id="text_15">
      <!-- −3.25 -->
      <g transform="translate(19.954687 90.967219)scale(0.1 -0.1)">
       <use xlink:href="#DejaVuSerif-8722"/>
       <use x="83.789062" xlink:href="#DejaVuSerif-51"/>
       <use x="147.412109" xlink:href="#DejaVuSerif-46"/>
       <use x="179.199219" xlink:href="#DejaVuSerif-50"/>
       <use x="242.822266" xlink:href="#DejaVuSerif-53"/>
      </g>
     </g>
    </g>
    <g id="ytick_8">
     <g id="line2d_15">
      <g>
       <use style="stroke:#000000;stroke-width:0.8;" x="57.6" xlink:href="#m16e78d290c" y="53.568"/>
      </g>
     </g>
     <g id="text_16">
      <!-- −3.00 -->
      <g transform="translate(19.954687 57.367219)scale(0.1 -0.1)">
       <use xlink:href="#DejaVuSerif-8722"/>
       <use x="83.789062" xlink:href="#DejaVuSerif-51"/>
       <use x="147.412109" xlink:href="#DejaVuSerif-46"/>
       <use x="179.199219" xlink:href="#DejaVuSerif-48"/>
       <use x="242.822266" xlink:href="#DejaVuSerif-48"/>
      </g>
     </g>
    </g>
    <g id="text_17">
     <!-- Speed -->
     <g transform="translate(13.875 190.273313)rotate(-90)scale(0.1 -0.1)">
      <defs>
       <path d="M 9.28125 3.515625 
L 9.28125 20.125 
L 14.890625 20.0625 
Q 15.140625 11.765625 19.703125 7.78125 
Q 24.265625 3.8125 33.59375 3.8125 
Q 42.28125 3.8125 46.84375 7.25 
Q 51.421875 10.6875 51.421875 17.28125 
Q 51.421875 22.5625 48.65625 25.390625 
Q 45.90625 28.21875 37.015625 30.90625 
L 27.390625 33.796875 
Q 16.9375 36.96875 12.671875 41.703125 
Q 8.40625 46.4375 8.40625 54.6875 
Q 8.40625 63.96875 14.984375 69.09375 
Q 21.578125 74.21875 33.5 74.21875 
Q 38.578125 74.21875 44.625 73.109375 
Q 50.6875 72.015625 57.515625 69.921875 
L 57.515625 54.390625 
L 52 54.390625 
Q 51.171875 62.109375 46.84375 65.546875 
Q 42.53125 69 33.6875 69 
Q 25.984375 69 21.953125 65.84375 
Q 17.921875 62.703125 17.921875 56.6875 
Q 17.921875 51.46875 20.9375 48.484375 
Q 23.96875 45.515625 33.796875 42.578125 
L 42.828125 39.890625 
Q 52.734375 36.921875 56.953125 32.296875 
Q 61.1875 27.6875 61.1875 19.921875 
Q 61.1875 9.328125 54.390625 3.953125 
Q 47.609375 -1.421875 34.1875 -1.421875 
Q 28.171875 -1.421875 21.9375 -0.1875 
Q 15.71875 1.03125 9.28125 3.515625 
z
" id="DejaVuSerif-83"/>
       <path d="M 20.515625 28.515625 
L 20.515625 23.390625 
Q 20.515625 14.015625 24.09375 9.109375 
Q 27.6875 4.203125 34.515625 4.203125 
Q 41.40625 4.203125 44.9375 9.71875 
Q 48.484375 15.234375 48.484375 25.984375 
Q 48.484375 36.765625 44.9375 42.234375 
Q 41.40625 47.703125 34.515625 47.703125 
Q 27.6875 47.703125 24.09375 42.765625 
Q 20.515625 37.84375 20.515625 28.515625 
z
M 11.53125 46.6875 
L 2.875 46.6875 
L 2.875 51.90625 
L 20.515625 51.90625 
L 20.515625 43.796875 
Q 23.140625 48.6875 27.21875 51 
Q 31.296875 53.328125 37.3125 53.328125 
Q 46.875 53.328125 52.921875 45.75 
Q 58.984375 38.1875 58.984375 25.984375 
Q 58.984375 13.765625 52.921875 6.171875 
Q 46.875 -1.421875 37.3125 -1.421875 
Q 31.296875 -1.421875 27.21875 0.890625 
Q 23.140625 3.21875 20.515625 8.109375 
L 20.515625 -15.578125 
L 29 -15.578125 
L 29 -20.796875 
L 2.875 -20.796875 
L 2.875 -15.578125 
L 11.53125 -15.578125 
z
" id="DejaVuSerif-112"/>
       <path d="M 52.484375 5.171875 
L 61.078125 5.171875 
L 61.078125 0 
L 43.5 0 
L 43.5 8.109375 
Q 40.875 3.21875 36.796875 0.890625 
Q 32.71875 -1.421875 26.703125 -1.421875 
Q 17.140625 -1.421875 11.0625 6.171875 
Q 4.984375 13.765625 4.984375 25.984375 
Q 4.984375 38.1875 11.03125 45.75 
Q 17.09375 53.328125 26.703125 53.328125 
Q 32.71875 53.328125 36.796875 51 
Q 40.875 48.6875 43.5 43.796875 
L 43.5 70.796875 
L 35.015625 70.796875 
L 35.015625 75.984375 
L 52.484375 75.984375 
z
M 43.5 23.390625 
L 43.5 28.515625 
Q 43.5 37.84375 39.90625 42.765625 
Q 36.328125 47.703125 29.5 47.703125 
Q 22.5625 47.703125 19.015625 42.234375 
Q 15.484375 36.765625 15.484375 25.984375 
Q 15.484375 15.234375 19.015625 9.71875 
Q 22.5625 4.203125 29.5 4.203125 
Q 36.328125 4.203125 39.90625 9.109375 
Q 43.5 14.015625 43.5 23.390625 
z
" id="DejaVuSerif-100"/>
      </defs>
      <use xlink:href="#DejaVuSerif-83"/>
      <use x="68.505859" xlink:href="#DejaVuSerif-112"/>
      <use x="132.519531" xlink:href="#DejaVuSerif-101"/>
      <use x="191.699219" xlink:href="#DejaVuSerif-101"/>
      <use x="250.878906" xlink:href="#DejaVuSerif-100"/>
     </g>
    </g>
   </g>
   <g id="line2d_16">
    <path clip-path="url(#p26f9e8c183)" d="M 73.832727 255.168 
L 74.011051 53.568 
L 74.178886 255.168 
L 74.35721 255.168 
L 74.535534 53.568 
L 74.703368 134.208 
L 74.881692 295.488 
L 75.060016 134.208 
L 75.22785 134.208 
L 75.406174 295.488 
L 75.584498 187.968 
L 76.276815 187.968 
L 76.455139 111.168 
L 76.633463 111.168 
L 76.801297 226.368 
L 76.979621 111.168 
L 77.157945 111.168 
L 77.325779 53.568 
L 77.504103 154.368 
L 78.028586 154.368 
L 78.20691 98.368 
L 78.374744 98.368 
L 78.553068 187.968 
L 78.731392 98.368 
L 78.899226 187.968 
L 79.07755 134.208 
L 79.255874 134.208 
L 79.423709 53.568 
L 79.602033 134.208 
L 79.780357 134.208 
L 79.948191 90.222545 
L 80.126515 163.531636 
L 80.304839 90.222545 
L 80.650997 90.222545 
L 80.829321 120.768 
L 81.521638 120.768 
L 81.699962 146.614154 
L 81.878286 84.583385 
L 82.04612 84.583385 
L 82.224444 146.614154 
L 82.402768 84.583385 
L 82.570602 111.168 
L 83.273409 111.168 
L 83.451733 80.448 
L 83.619567 80.448 
L 83.797891 134.208 
L 83.976215 80.448 
L 84.144049 134.208 
L 84.322373 103.968 
L 85.02518 103.968 
L 85.193014 77.285647 
L 85.371338 124.720941 
L 85.549662 77.285647 
L 85.717496 124.720941 
L 85.89582 77.285647 
L 86.074144 98.368 
L 86.420303 98.368 
L 86.598627 143.168 
L 86.766461 98.368 
L 86.944785 117.231158 
L 87.123109 74.789053 
L 87.290943 117.231158 
L 87.469267 74.789053 
L 87.647591 117.231158 
L 87.815425 93.888 
L 87.993749 93.888 
L 88.172073 134.208 
L 88.339908 93.888 
L 88.518232 93.888 
L 88.696556 72.768 
L 88.86439 111.168 
L 89.042714 72.768 
L 89.221038 111.168 
L 89.388872 72.768 
L 89.567196 90.222545 
L 89.74552 126.877091 
L 89.913355 90.222545 
L 90.091679 126.877091 
L 90.270003 90.222545 
L 90.437837 106.159304 
L 90.616161 71.098435 
L 90.794485 106.159304 
L 90.962319 71.098435 
L 91.318967 120.768 
L 91.486802 87.168 
L 91.665126 120.768 
L 91.84345 87.168 
L 92.011284 120.768 
L 92.189608 101.952 
L 92.367932 101.952 
L 92.535766 69.696 
L 92.71409 101.952 
L 92.892414 69.696 
L 93.060248 84.583385 
L 93.238572 115.598769 
L 93.416896 84.583385 
L 93.584731 115.598769 
L 93.763055 84.583385 
L 93.941379 98.368 
L 94.287537 98.368 
L 94.465861 68.501333 
L 94.812019 111.168 
L 94.990343 82.368 
L 95.158178 111.168 
L 95.336502 82.368 
L 95.514826 111.168 
L 95.68266 95.278345 
L 96.207142 95.278345 
L 96.385466 67.471448 
L 96.56379 80.448 
L 96.731625 107.328 
L 96.909949 80.448 
L 97.088273 107.328 
L 97.256107 80.448 
L 97.434431 92.587355 
L 98.137237 92.587355 
L 98.305072 78.768 
L 98.483396 103.968 
L 98.661719 78.768 
L 98.829554 78.768 
L 99.007878 103.968 
L 99.186202 90.222545 
L 99.878518 90.222545 
L 100.056842 101.003294 
L 100.235166 77.285647 
L 100.403001 101.003294 
L 100.581325 77.285647 
L 100.759649 77.285647 
L 100.927483 88.128 
L 101.630289 88.128 
L 101.808613 75.968 
L 101.976448 98.368 
L 102.154772 75.968 
L 102.333096 98.368 
L 102.50093 75.968 
L 102.679254 86.259892 
L 103.38206 86.259892 
L 103.549895 96.010105 
L 103.728219 74.789053 
L 103.906543 96.010105 
L 104.074377 74.789053 
L 104.252701 96.010105 
L 104.431025 84.583385 
L 105.123341 84.583385 
L 105.301665 93.888 
L 105.826148 93.888 
L 106.004472 73.728 
L 106.172306 83.070439 
L 106.875112 83.070439 
L 107.053436 72.768 
L 107.221271 91.968 
L 107.399595 72.768 
L 107.577919 91.968 
L 107.745753 91.968 
L 107.924077 81.698233 
L 108.102401 100.451721 
L 108.270235 81.698233 
L 108.626883 81.698233 
L 108.794718 90.222545 
L 108.973042 71.895273 
L 109.151366 90.222545 
L 109.3192 71.895273 
L 109.497524 90.222545 
L 109.675848 80.448 
L 110.20033 80.448 
L 110.368164 98.368 
L 110.546488 88.62887 
L 111.070971 88.62887 
L 111.249295 71.098435 
L 111.417129 79.30417 
L 112.119935 79.30417 
L 112.298259 70.368 
L 112.466094 87.168 
L 112.644418 70.368 
L 112.822742 87.168 
L 112.990576 70.368 
L 113.1689 78.253714 
L 113.347224 94.710857 
L 113.515058 78.253714 
L 113.693382 94.710857 
L 113.871706 78.253714 
L 114.039541 85.824 
L 114.217865 69.696 
L 114.396189 85.824 
L 114.564023 69.696 
L 114.742347 85.824 
L 114.920671 77.285647 
L 115.612988 77.285647 
L 115.791311 84.583385 
L 116.494118 84.583385 
L 116.661952 91.605736 
L 116.840276 76.390642 
L 117.364758 76.390642 
L 117.543082 68.501333 
L 117.710917 83.434667 
L 117.889241 68.501333 
L 118.067565 83.434667 
L 118.235399 68.501333 
L 118.413723 75.560727 
L 119.116529 75.560727 
L 119.284364 82.368 
L 119.98717 82.368 
L 120.165494 74.789053 
L 120.857811 74.789053 
L 121.036135 81.374897 
L 121.214459 67.471448 
L 121.382293 81.374897 
L 121.560617 67.471448 
L 121.738941 81.374897 
L 121.906775 74.069695 
L 122.085099 74.069695 
L 122.263423 87.737492 
L 122.431257 74.069695 
L 122.609581 87.737492 
L 122.787905 80.448 
L 123.480222 80.448 
L 123.658546 86.61718 
L 123.83687 73.397508 
L 124.361352 73.397508 
L 124.529187 66.574452 
L 124.707511 79.580903 
L 124.885835 66.574452 
L 125.053669 79.580903 
L 125.231993 66.574452 
L 125.410317 72.768 
L 125.578151 85.568 
L 125.756475 72.768 
L 125.934799 85.568 
L 126.102634 72.768 
L 126.280958 78.768 
L 126.983764 78.768 
L 127.151598 72.177231 
L 127.854404 72.177231 
L 128.032728 78.004364 
L 128.200563 65.786182 
L 128.378887 78.004364 
L 128.557211 65.786182 
L 128.903369 83.657552 
L 129.081693 71.621731 
L 129.249527 83.657552 
L 129.427851 71.621731 
L 129.606175 83.657552 
L 129.77401 77.285647 
L 130.476816 77.285647 
L 130.65514 82.785391 
L 130.822974 71.098435 
L 131.001298 82.785391 
L 131.179622 71.098435 
L 131.347457 71.098435 
L 131.525781 65.088 
L 131.704105 76.608 
L 131.871939 65.088 
L 132.050263 76.608 
L 132.228587 65.088 
L 132.396421 70.60462 
L 132.574745 81.962366 
L 132.753069 70.60462 
L 132.920904 81.962366 
L 133.099227 70.60462 
L 133.277551 75.968 
L 133.969868 75.968 
L 134.148192 70.137863 
L 134.326516 81.184438 
L 134.49435 70.137863 
L 134.672674 81.184438 
L 134.850998 70.137863 
L 135.018833 75.362595 
L 135.197157 64.465297 
L 135.375481 75.362595 
L 135.543315 64.465297 
L 135.721639 75.362595 
L 135.899963 69.696 
L 136.067797 69.696 
L 136.246121 80.448 
L 136.424445 69.696 
L 136.59228 80.448 
L 136.770604 74.789053 
L 137.47341 74.789053 
L 137.641244 79.749818 
L 137.819568 69.277091 
L 137.997892 79.749818 
L 138.165727 69.277091 
L 138.344051 79.749818 
L 138.522375 74.244923 
L 139.046857 74.244923 
L 139.214691 63.906462 
L 139.393015 68.879392 
L 139.739173 68.879392 
L 139.917497 79.086987 
L 140.095821 68.879392 
L 140.263656 73.728 
L 140.966462 73.728 
L 141.144786 68.501333 
L 141.31262 78.456889 
L 141.490944 68.501333 
L 141.669268 78.456889 
L 141.837103 68.501333 
L 142.015427 73.236293 
L 142.718233 73.236293 
L 142.886067 68.141494 
L 143.064391 77.857157 
L 143.242715 68.141494 
L 143.41055 68.141494 
L 143.588874 77.857157 
L 143.767198 72.768 
L 144.459514 72.768 
L 144.637838 77.285647 
L 144.816162 67.798588 
L 144.983996 77.285647 
L 145.16232 67.798588 
L 145.340644 77.285647 
L 145.508479 72.321488 
L 146.211285 72.321488 
L 146.389609 76.740414 
L 146.557443 67.471448 
L 146.735767 76.740414 
L 146.914091 67.471448 
L 147.26025 81.058909 
L 147.438574 71.895273 
L 147.606408 81.058909 
L 147.784732 71.895273 
L 147.963056 71.895273 
L 148.13089 67.159011 
L 148.309214 76.219685 
L 148.487538 67.159011 
L 148.655373 76.219685 
L 148.833697 67.159011 
L 149.012021 71.488 
L 149.704337 71.488 
L 149.882661 66.860308 
L 150.060985 75.721846 
L 150.22882 66.860308 
L 150.407143 75.721846 
L 150.585467 66.860308 
L 150.753302 71.098435 
L 150.931626 79.863652 
L 151.10995 71.098435 
L 151.277784 79.863652 
L 151.456108 71.098435 
L 151.634432 75.245419 
L 152.326749 75.245419 
L 152.505073 70.725447 
L 153.207879 70.725447 
L 153.375713 74.789053 
L 153.554037 66.300632 
L 153.732361 74.789053 
L 153.900196 66.300632 
L 154.07852 74.789053 
L 154.256844 70.368 
L 154.424678 70.368 
L 154.603002 78.768 
L 154.781326 70.368 
L 154.94916 78.768 
L 155.127484 74.351505 
L 155.83029 74.351505 
L 155.998125 78.253714 
L 156.176449 70.025143 
L 156.354773 78.253714 
L 156.522607 70.025143 
L 156.700931 78.253714 
L 156.879255 73.931636 
L 157.047089 73.931636 
L 157.225413 65.786182 
L 157.403737 73.931636 
L 157.571572 65.786182 
L 157.749896 69.696 
L 158.096054 69.696 
L 158.274378 77.76 
L 158.452702 69.696 
L 158.620536 73.528396 
L 159.323343 73.528396 
L 159.501667 69.379765 
L 159.669501 77.285647 
L 159.847825 69.379765 
L 160.026149 77.285647 
L 160.193983 69.379765 
L 160.372307 73.140816 
L 161.075114 73.140816 
L 161.242948 69.075692 
L 161.421272 76.829538 
L 161.599596 69.075692 
L 161.945754 69.075692 
L 162.124078 72.768 
L 162.816395 72.768 
L 162.994719 76.390642 
L 163.173043 68.783094 
L 163.340877 76.390642 
L 163.519201 68.783094 
L 163.697525 76.390642 
L 163.865359 72.409121 
L 164.568166 72.409121 
L 164.74649 75.968 
L 164.914324 68.501333 
L 165.092648 75.968 
L 165.270972 68.501333 
L 165.438806 75.968 
L 165.61713 72.063413 
L 165.795454 72.063413 
L 165.963289 79.461578 
L 166.141613 72.063413 
L 166.319937 72.063413 
L 166.487771 68.229818 
L 166.666095 75.560727 
L 166.844419 68.229818 
L 167.012253 75.560727 
L 167.190577 68.229818 
L 167.368901 71.730162 
L 168.061218 71.730162 
L 168.239542 67.968 
L 168.417866 75.168 
L 168.5857 67.968 
L 168.764024 75.168 
L 168.942348 67.968 
L 169.110182 71.408708 
L 169.46683 71.408708 
L 169.634665 78.544991 
L 169.812989 71.408708 
L 169.991313 74.789053 
L 170.683629 74.789053 
L 170.861953 71.098435 
L 171.56476 71.098435 
L 171.732594 74.423172 
L 171.910918 67.471448 
L 172.089242 74.423172 
L 172.257076 67.471448 
L 172.4354 74.423172 
L 172.613724 70.798769 
L 173.306041 70.798769 
L 173.484365 74.069695 
L 174.187171 74.069695 
L 174.355005 77.285647 
L 174.533329 70.509176 
L 174.711653 77.285647 
L 174.879488 70.509176 
L 175.057812 77.285647 
L 175.236136 73.728 
L 175.40397 73.728 
L 175.582294 67.008 
L 175.760618 73.728 
L 175.928452 67.008 
L 176.106776 70.229157 
L 176.809583 70.229157 
L 176.977417 66.787672 
L 177.155741 73.397508 
L 177.680223 73.397508 
L 177.858547 69.958244 
L 178.026382 76.514341 
L 178.204706 69.958244 
L 178.38303 76.514341 
L 178.550864 69.958244 
L 178.729188 73.077677 
L 179.431994 73.077677 
L 179.599828 69.696 
L 179.778152 76.1472 
L 179.956476 69.696 
L 180.302635 69.696 
L 180.480959 72.768 
L 180.648793 66.368 
L 180.827117 72.768 
L 181.005441 66.368 
L 181.351599 75.791622 
L 181.529923 69.442016 
L 181.697758 75.791622 
L 181.876082 69.442016 
L 182.054406 75.791622 
L 182.22224 72.468 
L 182.925046 72.468 
L 183.10337 75.44707 
L 183.271205 69.195907 
L 183.449529 75.44707 
L 183.627853 69.195907 
L 183.795687 75.44707 
L 183.974011 72.177231 
L 184.676817 72.177231 
L 184.844651 75.113038 
L 185.022975 75.113038 
L 185.201299 68.957313 
L 185.369134 75.113038 
L 185.547458 68.957313 
L 185.725782 71.895273 
L 186.418098 71.895273 
L 186.596422 68.725895 
L 186.774746 74.789053 
L 186.942581 68.725895 
L 187.120905 74.789053 
L 187.299229 68.725895 
L 187.467063 71.621731 
L 188.169869 71.621731 
L 188.348193 68.501333 
L 188.516028 74.474667 
L 189.04051 74.474667 
L 189.218834 71.356235 
L 189.397158 77.285647 
L 189.564992 71.356235 
L 189.92164 71.356235 
L 190.089475 74.16946 
L 190.267799 68.283328 
L 190.446122 74.16946 
L 190.613957 68.283328 
L 190.792281 74.16946 
L 190.970605 71.098435 
L 191.662921 71.098435 
L 191.841245 73.873036 
L 192.019569 68.071597 
L 192.187404 73.873036 
L 192.365728 68.071597 
L 192.711886 76.608 
L 192.89021 70.848 
L 193.068534 76.608 
L 193.236368 70.848 
L 193.414692 76.608 
L 193.593016 73.585021 
L 194.117499 73.585021 
L 194.285333 67.865872 
L 194.463657 70.60462 
L 195.166463 70.60462 
L 195.334298 67.665902 
L 195.512622 73.305063 
L 195.690946 67.665902 
L 195.85878 73.305063 
L 196.037104 67.665902 
L 196.215428 70.368 
L 196.383262 75.968 
L 196.561586 70.368 
L 196.73991 75.968 
L 196.907744 70.368 
L 197.086068 73.032828 
L 197.788875 73.032828 
L 197.956709 70.137863 
L 198.135033 75.661151 
L 198.313357 70.137863 
L 198.481191 75.661151 
L 198.659515 70.137863 
L 198.837839 72.768 
L 199.183998 72.768 
L 199.362322 67.282286 
L 199.530156 72.768 
L 199.70848 69.913946 
L 199.886804 69.913946 
L 200.054638 75.362595 
L 200.232962 69.913946 
L 200.411286 75.362595 
L 200.579121 72.510282 
L 201.281927 72.510282 
L 201.460251 75.072 
L 201.628085 69.696 
L 201.806409 75.072 
L 201.984733 69.696 
L 202.152567 75.072 
L 202.330891 72.259391 
L 203.033698 72.259391 
L 203.201532 74.789053 
L 203.379856 69.483789 
L 203.55818 74.789053 
L 203.726014 69.483789 
L 203.904338 69.483789 
L 204.082662 72.015059 
L 204.774979 72.015059 
L 204.953303 69.277091 
L 205.131627 74.513455 
L 205.299461 69.277091 
L 205.477785 74.513455 
L 205.656109 69.277091 
L 205.823944 71.777032 
L 206.52675 71.777032 
L 206.705074 69.075692 
L 206.872908 74.244923 
L 207.051232 69.075692 
L 207.229556 74.244923 
L 207.397391 69.075692 
L 207.575714 71.54507 
L 207.754038 76.681376 
L 207.921873 71.54507 
L 208.100197 76.681376 
L 208.278521 71.54507 
L 208.446355 73.98319 
L 208.803003 73.98319 
L 208.970837 68.879392 
L 209.149161 73.98319 
L 209.327485 71.318943 
L 210.019802 71.318943 
L 210.198126 73.728 
L 210.37645 68.688 
L 210.544284 73.728 
L 210.722608 68.688 
L 210.900932 73.728 
L 211.068767 71.098435 
L 211.593249 71.098435 
L 211.771573 76.10713 
L 211.949897 73.479111 
L 212.642214 73.479111 
L 212.820538 75.830577 
L 212.998862 70.883337 
L 213.166696 75.830577 
L 213.34502 70.883337 
L 213.523344 70.883337 
L 213.691178 68.31922 
L 213.869502 73.236293 
L 214.047826 68.31922 
L 214.21566 73.236293 
L 214.393984 68.31922 
L 214.572308 70.673455 
L 215.264625 70.673455 
L 215.442949 72.999325 
L 216.145755 72.999325 
L 216.31359 70.468599 
L 216.491914 75.297341 
L 216.670238 70.468599 
L 216.838072 75.297341 
L 217.016396 70.468599 
L 217.19472 72.768 
L 217.887037 72.768 
L 218.065361 70.268592 
L 218.768167 70.268592 
L 218.936001 72.542118 
L 219.638807 72.542118 
L 219.817131 74.789053 
L 219.984966 70.073263 
L 220.16329 74.789053 
L 220.341614 70.073263 
L 220.509448 74.789053 
L 220.687772 72.321488 
L 221.390578 72.321488 
L 221.558413 74.543723 
L 221.736737 69.882451 
L 221.915061 74.543723 
L 222.082895 69.882451 
L 222.261219 74.543723 
L 222.439543 72.105931 
L 223.13186 72.105931 
L 223.310184 69.696 
L 223.488508 74.304 
L 223.656342 69.696 
L 223.834666 74.304 
L 224.01299 69.696 
L 224.180824 71.895273 
L 224.88363 71.895273 
L 225.061954 69.513763 
L 225.229789 74.069695 
L 225.408113 69.513763 
L 225.586437 74.069695 
L 225.754271 69.513763 
L 225.932595 71.689348 
L 226.635401 71.689348 
L 226.803236 73.840626 
L 227.506042 73.840626 
L 227.684366 71.488 
L 228.376683 71.488 
L 228.555007 73.616619 
L 228.733331 69.16137 
L 228.901165 73.616619 
L 229.079489 69.16137 
L 229.257813 73.616619 
L 229.425647 71.291077 
L 230.128454 71.291077 
L 230.306778 73.397508 
L 230.474612 68.990951 
L 230.652936 73.397508 
L 230.999094 73.397508 
L 231.177418 75.481043 
L 231.355742 71.098435 
L 231.523576 75.481043 
L 231.7019 71.098435 
L 231.880224 75.481043 
L 232.048059 73.183135 
L 232.226383 73.183135 
L 232.404707 68.824216 
L 232.572541 73.183135 
L 232.750865 68.824216 
L 232.929189 70.909935 
L 233.621506 70.909935 
L 233.79983 68.661048 
L 233.978154 72.973348 
L 234.145988 68.661048 
L 234.324312 72.973348 
L 234.502636 72.973348 
L 234.67047 70.725447 
L 234.848794 75.014809 
L 235.027118 70.725447 
L 235.194953 75.014809 
L 235.373277 70.725447 
L 235.551601 72.768 
L 236.243917 72.768 
L 236.422241 70.544842 
L 236.600565 74.789053 
L 236.768399 70.544842 
L 236.946723 74.789053 
L 237.125047 70.544842 
L 237.292882 72.566953 
L 237.471206 68.344963 
L 237.64953 72.566953 
L 237.817364 68.344963 
L 238.174012 74.568 
L 238.341846 70.368 
L 238.52017 74.568 
L 238.698494 70.368 
L 238.866329 74.568 
L 239.044653 72.370073 
L 239.747459 72.370073 
L 239.915293 74.351505 
L 240.093617 70.194804 
L 240.271941 74.351505 
L 240.439776 70.194804 
L 240.6181 74.351505 
L 240.796424 72.177231 
L 241.48874 72.177231 
L 241.667064 74.139429 
L 241.845388 70.025143 
L 242.013222 70.025143 
L 242.191546 74.139429 
L 242.36987 70.025143 
L 242.537705 71.988305 
L 243.240511 71.988305 
L 243.418835 69.858909 
L 243.586669 73.931636 
L 243.764993 69.858909 
L 243.943317 73.931636 
L 244.111152 69.858909 
L 244.289476 71.803176 
L 244.992282 71.803176 
L 245.160116 69.696 
L 245.33844 73.728 
L 245.516764 69.696 
L 245.684599 73.728 
L 245.862923 73.728 
L 246.041247 71.621731 
L 246.209081 75.633672 
L 246.387405 71.621731 
L 246.565729 75.633672 
L 246.733563 71.621731 
L 246.911887 73.528396 
L 247.090211 69.536317 
L 247.258046 73.528396 
L 247.43637 69.536317 
L 247.614693 73.528396 
L 247.782528 71.443862 
L 248.485334 71.443862 
L 248.663658 73.332706 
L 248.831492 69.379765 
L 249.009816 73.332706 
L 249.18814 69.379765 
L 249.534299 75.203122 
L 249.712623 71.269463 
L 249.880457 75.203122 
L 250.058781 71.269463 
L 250.237105 75.203122 
L 250.404939 73.140816 
L 251.107746 73.140816 
L 251.28607 74.994087 
L 251.453904 71.098435 
L 251.978386 71.098435 
L 252.15671 69.075692 
L 252.335034 72.952615 
L 252.502869 69.075692 
L 252.681193 72.952615 
L 252.859517 69.075692 
L 253.027351 70.930679 
L 253.383999 70.930679 
L 253.551833 74.789053 
L 253.730157 70.930679 
L 253.908481 72.768 
L 254.600798 72.768 
L 254.779122 70.766104 
L 254.957446 74.587905 
L 255.12528 70.766104 
L 255.303604 74.587905 
L 255.481928 70.766104 
L 255.649762 72.586868 
L 256.00641 72.586868 
L 256.174245 68.783094 
L 256.352569 72.586868 
L 256.530893 70.60462 
L 257.055375 70.60462 
L 257.223209 74.390535 
L 257.401533 72.409121 
L 258.10434 72.409121 
L 258.272174 74.196837 
L 258.450498 70.44614 
L 258.628822 74.196837 
L 258.796656 70.44614 
L 258.97498 74.196837 
L 259.153304 72.234667 
L 259.845621 72.234667 
L 260.023945 74.00671 
L 260.202269 70.290581 
L 260.370103 74.00671 
L 260.548427 70.290581 
L 260.726751 74.00671 
L 260.894585 72.063413 
L 261.597392 72.063413 
L 261.775716 70.137863 
L 261.94355 73.820055 
L 262.121874 70.137863 
L 262.300198 73.820055 
L 262.468032 70.137863 
L 262.646356 71.895273 
L 263.349163 71.895273 
L 263.516997 69.98791 
L 263.695321 73.636778 
L 263.873645 69.98791 
L 264.041479 73.636778 
L 264.219803 69.98791 
L 264.398127 71.730162 
L 264.744286 71.730162 
L 264.922609 75.362595 
L 265.090444 71.730162 
L 265.268768 73.456789 
L 265.614926 73.456789 
L 265.79325 69.840646 
L 265.971574 73.456789 
L 266.139408 71.568 
L 266.842215 71.568 
L 267.020539 73.28 
L 267.188373 69.696 
L 267.366697 73.28 
L 267.545021 69.696 
L 267.712855 73.28 
L 267.891179 71.408708 
L 268.415662 71.408708 
L 268.593986 74.97685 
L 268.76182 73.106326 
L 269.464626 73.106326 
L 269.64295 74.789053 
L 269.810785 71.252211 
L 269.989109 74.789053 
L 270.167433 71.252211 
L 270.335267 74.789053 
L 270.513591 72.935686 
L 270.691915 72.935686 
L 270.859749 69.414288 
L 271.038073 72.935686 
L 271.216397 69.414288 
L 271.384231 71.098435 
L 272.087038 71.098435 
L 272.265362 69.277091 
L 272.433196 72.768 
L 272.957678 72.768 
L 273.136002 70.94731 
L 273.314326 74.423172 
L 273.482161 70.94731 
L 273.660485 74.423172 
L 273.838809 70.94731 
L 274.006643 72.603193 
L 274.709449 72.603193 
L 274.887773 70.798769 
L 275.055608 74.244923 
L 275.233932 70.798769 
L 275.58009 70.798769 
L 275.758414 72.441191 
L 275.936738 69.009702 
L 276.104572 72.441191 
L 276.46122 72.441191 
L 276.629054 74.069695 
L 276.807378 70.652746 
L 276.985702 74.069695 
L 277.153537 70.652746 
L 277.331861 74.069695 
L 277.510185 72.281924 
L 278.202501 72.281924 
L 278.380825 73.897412 
L 278.559149 70.509176 
L 278.726984 73.897412 
L 278.905308 70.509176 
L 279.083632 73.897412 
L 279.251466 72.125322 
L 279.954272 72.125322 
L 280.132596 70.368 
L 280.300431 73.728 
L 280.478755 70.368 
L 280.657079 73.728 
L 280.824913 70.368 
L 281.003237 71.97132 
L 281.706043 71.97132 
L 281.873878 70.229157 
L 282.052201 73.561388 
L 282.230525 70.229157 
L 282.39836 73.561388 
L 282.576684 70.229157 
L 282.755008 71.819852 
L 283.447324 71.819852 
L 283.625648 70.09259 
L 283.803972 73.397508 
L 284.328455 73.397508 
L 284.496289 71.670857 
L 284.674613 74.962286 
L 284.852937 71.670857 
L 285.199095 71.670857 
L 285.377419 73.236293 
L 285.545254 69.958244 
L 285.723578 73.236293 
L 285.901902 69.958244 
L 286.069736 73.236293 
L 286.24806 71.524275 
L 286.950866 71.524275 
L 287.118701 73.077677 
L 287.297025 69.826065 
L 287.475349 73.077677 
L 287.821507 73.077677 
L 287.999831 74.618602 
L 288.167665 71.380048 
L 288.345989 74.618602 
L 288.524313 71.380048 
L 288.692147 74.618602 
L 288.870471 72.9216 
L 289.394954 72.9216 
L 289.573278 69.696 
L 289.741112 71.23812 
L 290.443918 71.23812 
L 290.622242 69.568 
L 290.790077 72.768 
L 290.968401 69.568 
L 291.146725 72.768 
L 291.314559 69.568 
L 291.492883 71.098435 
L 291.671207 74.285787 
L 291.839041 71.098435 
L 292.017365 74.285787 
L 292.195689 71.098435 
L 292.363524 72.616819 
L 293.06633 72.616819 
L 293.244654 70.960941 
L 293.412488 74.123294 
L 293.590812 70.960941 
L 293.769136 74.123294 
L 293.93697 70.960941 
L 294.115294 72.468 
L 294.293618 69.318 
L 294.461453 72.468 
L 294.639777 69.318 
L 294.818101 72.468 
L 294.985935 70.825588 
L 295.164259 70.825588 
L 295.342583 73.963331 
L 295.510417 70.825588 
L 295.688741 73.963331 
L 295.867065 72.321488 
L 296.559382 72.321488 
L 296.737706 73.805838 
L 296.91603 70.692324 
L 297.083864 73.805838 
L 297.262188 70.692324 
L 297.440512 73.805838 
L 297.608347 72.177231 
L 298.311153 72.177231 
L 298.489477 73.650759 
L 298.657311 70.561103 
L 298.835635 73.650759 
L 299.013959 73.650759 
L 299.181794 70.561103 
L 299.360117 72.035176 
L 300.062924 72.035176 
L 300.230758 70.431878 
L 300.409082 73.498038 
L 300.587406 70.431878 
L 300.75524 73.498038 
L 300.933564 70.431878 
L 301.111888 71.895273 
L 301.804205 71.895273 
L 301.982529 70.304604 
L 302.160853 73.347623 
L 302.328687 70.304604 
L 302.507011 73.347623 
L 302.685335 70.304604 
L 302.85317 71.757474 
L 303.031494 74.789053 
L 303.209818 71.757474 
L 303.377652 74.789053 
L 303.555976 71.757474 
L 303.7343 73.199461 
L 303.902134 70.179236 
L 304.080458 73.199461 
L 304.258782 70.179236 
L 304.426617 73.199461 
L 304.604941 71.621731 
L 305.307747 71.621731 
L 305.475581 73.053502 
L 305.653905 70.055732 
L 305.832229 73.053502 
L 306.000063 70.055732 
L 306.178387 73.053502 
L 306.356711 71.488 
L 306.524546 71.488 
L 306.70287 74.474667 
L 306.881194 71.488 
L 307.049028 74.474667 
L 307.227352 72.909697 
L 307.930158 72.909697 
L 308.097993 74.320941 
L 308.276317 71.356235 
L 308.454641 74.320941 
L 308.622475 71.356235 
L 308.800799 71.356235 
L 308.979123 69.814154 
L 309.146957 72.768 
L 309.325281 69.814154 
L 309.503605 72.768 
L 309.67144 69.814154 
L 309.849764 71.226394 
L 310.55257 71.226394 
L 310.720404 72.628364 
L 311.42321 72.628364 
L 311.601534 71.098435 
L 311.769369 74.020174 
L 311.947693 71.098435 
L 312.126017 74.020174 
L 312.293851 71.098435 
L 312.472175 72.490744 
L 313.174981 72.490744 
L 313.342816 70.972317 
L 314.045622 70.972317 
L 314.223946 72.355097 
L 314.916263 72.355097 
L 315.094587 73.728 
L 315.272911 70.848 
L 315.440745 73.728 
L 315.619069 70.848 
L 315.797393 73.728 
L 315.965227 72.221381 
L 316.668033 72.221381 
L 316.846357 73.585021 
L 317.014192 70.725447 
L 317.192516 73.585021 
L 317.37084 70.725447 
L 317.538674 73.585021 
L 317.716998 72.089555 
L 318.419804 72.089555 
L 318.587639 70.60462 
L 318.765963 73.444056 
L 318.944287 70.60462 
L 319.112121 73.444056 
L 319.290445 70.60462 
L 319.468769 71.959579 
L 320.161086 71.959579 
L 320.33941 70.485483 
L 320.517734 73.305063 
L 320.685568 70.485483 
L 320.863892 73.305063 
L 321.042216 70.485483 
L 321.21005 71.831415 
L 321.912857 71.831415 
L 322.09118 73.168 
L 322.783497 73.168 
L 322.961821 71.705024 
L 323.664627 71.705024 
L 323.832462 73.032828 
L 324.010786 70.252138 
L 324.18911 73.032828 
L 324.356944 70.252138 
L 324.535268 73.032828 
L 324.713592 71.580371 
L 325.405909 71.580371 
L 325.584233 72.899507 
L 326.287039 72.899507 
L 326.454873 74.209638 
L 326.633197 71.45742 
L 326.811521 74.209638 
L 326.979356 71.45742 
L 327.15768 74.209638 
L 327.336004 72.768 
L 327.503838 72.768 
L 327.682162 70.025143 
L 327.860486 72.768 
L 328.02832 70.025143 
L 328.206644 71.336136 
L 328.90945 71.336136 
L 329.077285 69.913946 
L 329.255609 72.63827 
L 329.780091 72.63827 
L 329.958415 71.216485 
L 330.126249 73.931636 
L 330.304573 71.216485 
L 330.482897 73.931636 
L 330.650732 71.216485 
L 330.829056 72.510282 
L 331.531862 72.510282 
L 331.699696 71.098435 
L 331.87802 73.795425 
L 332.056344 71.098435 
L 332.402503 71.098435 
L 332.580827 72.384 
L 332.748661 69.696 
L 332.926985 72.384 
L 333.105309 69.696 
L 333.451467 73.661023 
L 333.629791 70.981953 
L 333.797625 73.661023 
L 333.975949 70.981953 
L 334.154273 73.661023 
L 334.322108 72.259391 
L 335.024914 72.259391 
L 335.203238 73.528396 
L 335.371072 70.86701 
L 335.549396 73.528396 
L 335.72772 70.86701 
L 335.895555 73.528396 
L 336.073879 72.136421 
L 336.776685 72.136421 
L 336.944519 73.397508 
L 337.122843 73.397508 
L 337.301167 70.753574 
L 337.469002 73.397508 
L 337.647326 70.753574 
L 337.82565 72.015059 
L 338.517966 72.015059 
L 338.69629 70.641616 
L 338.874614 73.268326 
L 339.042449 70.641616 
L 339.220773 73.268326 
L 339.399096 70.641616 
L 339.566931 71.895273 
L 340.269737 71.895273 
L 340.448061 70.531107 
L 340.615895 73.140816 
L 340.794219 70.531107 
L 340.972543 73.140816 
L 341.140378 73.140816 
L 341.318702 71.777032 
L 341.497026 74.378323 
L 341.66486 71.777032 
L 342.021508 71.777032 
L 342.189342 73.014945 
L 342.367666 70.422019 
L 342.54599 73.014945 
L 342.713825 70.422019 
L 342.892149 73.014945 
L 343.070473 71.660308 
L 343.762789 71.660308 
L 343.941113 72.890684 
L 344.119437 70.314326 
L 344.287272 72.890684 
L 344.465596 70.314326 
L 344.811754 74.113223 
L 344.990078 71.54507 
L 345.168402 74.113223 
L 345.336236 71.54507 
L 345.51456 74.113223 
L 345.692884 72.768 
L 346.385201 72.768 
L 346.563525 73.98319 
L 346.741849 71.431291 
L 347.266331 71.431291 
L 347.434165 70.103016 
L 347.612489 72.646864 
L 347.790813 70.103016 
L 347.958648 72.646864 
L 348.136972 70.103016 
L 348.315296 71.318943 
L 348.48313 73.854792 
L 348.661454 71.318943 
L 348.839778 73.854792 
L 349.007612 71.318943 
L 349.185936 72.527248 
L 349.888743 72.527248 
L 350.056577 71.208 
L 350.234901 73.728 
L 350.413225 71.208 
L 350.581059 73.728 
L 350.759383 71.208 
L 350.937707 72.409121 
L 351.283865 72.409121 
L 351.462189 69.896972 
L 351.630024 72.409121 
L 351.808348 71.098435 
L 352.33283 71.098435 
L 352.511154 73.602783 
L 352.678988 72.292458 
L 353.381795 72.292458 
L 353.560119 73.479111 
L 353.727953 70.990222 
L 353.906277 73.479111 
L 354.084601 70.990222 
L 354.252435 73.479111 
L 354.430759 72.177231 
L 355.133566 72.177231 
L 355.3014 73.356957 
L 355.479724 70.883337 
L 355.658048 73.356957 
L 355.825882 70.883337 
L 356.004206 70.883337 
L 356.18253 72.063413 
L 356.874847 72.063413 
L 357.053171 70.777756 
L 357.231495 73.236293 
L 357.399329 70.777756 
L 357.577653 73.236293 
L 357.755977 70.777756 
L 357.923811 71.950979 
L 358.626618 71.950979 
L 358.804942 70.673455 
L 358.972776 73.117091 
L 359.1511 70.673455 
L 359.329424 73.117091 
L 359.497258 70.673455 
L 359.675582 71.839903 
L 360.021741 71.839903 
L 360.200065 74.276157 
L 360.378389 71.839903 
L 360.546223 72.999325 
L 360.902871 72.999325 
L 361.070705 70.57041 
L 361.249029 72.999325 
L 361.427353 71.730162 
L 362.11967 71.730162 
L 362.297994 72.88297 
L 362.476318 70.468599 
L 362.644152 72.88297 
L 362.822476 70.468599 
L 363.0008 72.88297 
L 363.168634 71.621731 
L 363.693117 71.621731 
L 363.871441 74.028896 
L 364.049765 72.768 
L 364.742081 72.768 
L 364.920405 73.907466 
L 365.098729 71.514588 
L 365.266564 73.907466 
L 365.444888 71.514588 
L 365.623212 71.514588 
L 365.791046 70.268592 
L 365.96937 72.654391 
L 366.147694 70.268592 
L 366.315528 72.654391 
L 366.493852 70.268592 
L 366.672176 71.408708 
L 367.364493 71.408708 
L 367.542817 72.542118 
L 368.245623 72.542118 
L 368.413457 71.30407 
L 368.591781 73.66888 
L 368.770105 71.30407 
L 368.93794 73.66888 
L 369.116264 71.30407 
L 369.294588 72.431158 
L 369.986904 72.431158 
L 370.165228 71.200653 
L 370.343552 73.551673 
L 370.511387 71.200653 
L 370.868035 71.200653 
L 371.035869 72.321488 
L 371.214193 69.977302 
L 371.392517 72.321488 
L 371.738675 72.321488 
L 371.916999 73.435826 
L 372.084834 71.098435 
L 372.263158 73.435826 
L 372.441482 71.098435 
L 372.609316 73.435826 
L 372.78764 72.213087 
L 373.490446 72.213087 
L 373.658281 73.321314 
L 373.836604 70.997395 
L 374.014928 73.321314 
L 374.182763 70.997395 
L 374.361087 73.321314 
L 374.539411 72.105931 
L 375.231727 72.105931 
L 375.410051 70.897513 
L 375.588375 73.208115 
L 375.75621 70.897513 
L 375.934534 73.208115 
L 376.112858 70.897513 
L 376.280692 72 
L 376.983498 72 
L 377.161822 70.798769 
L 377.329657 73.096205 
L 377.507981 70.798769 
L 377.686305 73.096205 
L 377.854139 70.798769 
L 378.032463 71.895273 
L 378.735269 71.895273 
L 378.903104 72.985564 
L 379.60591 72.985564 
L 379.784234 71.791729 
L 380.47655 71.791729 
L 380.654874 72.876169 
L 380.833198 70.60462 
L 381.001033 72.876169 
L 381.179357 70.60462 
L 381.357681 72.876169 
L 381.525515 71.689348 
L 382.228321 71.689348 
L 382.406645 72.768 
L 382.57448 70.509176 
L 382.752804 72.768 
L 383.098962 72.768 
L 383.277286 73.840626 
L 383.45561 71.588112 
L 383.623444 73.840626 
L 383.801768 71.588112 
L 383.980092 73.840626 
L 384.147927 72.661036 
L 384.672409 72.661036 
L 384.850733 70.414797 
L 385.029057 71.488 
L 385.721373 71.488 
L 385.899697 70.321463 
L 386.078021 72.555258 
L 386.245856 70.321463 
L 386.42418 72.555258 
L 386.602504 72.555258 
L 386.770338 71.388994 
L 386.948662 73.616619 
L 387.126986 71.388994 
L 387.29482 73.616619 
L 387.473144 71.388994 
L 387.651468 72.450645 
L 388.343785 72.450645 
L 388.522109 71.291077 
L 388.700433 73.506462 
L 388.868267 71.291077 
L 389.046591 73.506462 
L 389.224915 71.291077 
L 389.39275 72.347178 
L 389.571074 70.137863 
L 389.749398 72.347178 
L 389.917232 70.137863 
L 390.095556 72.347178 
L 390.27388 71.19423 
L 390.441714 71.19423 
L 390.620038 73.397508 
L 390.798362 71.19423 
L 390.966197 73.397508 
L 391.14452 72.244839 
L 391.847327 72.244839 
L 392.015161 73.289739 
L 392.193485 71.098435 
L 392.371809 73.289739 
L 392.539643 71.098435 
L 392.717967 73.289739 
L 392.896291 72.14361 
L 393.588608 72.14361 
L 393.766932 73.183135 
L 393.945256 71.003676 
L 394.11309 71.003676 
L 394.291414 73.183135 
L 394.469738 71.003676 
L 394.637573 72.043472 
L 395.340379 72.043472 
L 395.518703 70.909935 
L 395.686537 73.077677 
L 395.864861 70.909935 
L 396.043185 73.077677 
L 396.21102 70.909935 
L 396.389344 71.944408 
L 397.09215 71.944408 
L 397.259984 72.973348 
L 397.96279 72.973348 
L 398.141114 71.8464 
L 398.308949 73.9968 
L 398.487273 73.9968 
L 398.487273 73.9968 
" style="fill:none;stroke:#1f77b4;stroke-linecap:square;stroke-width:1.5;"/>
   </g>
   <g id="patch_3">
    <path d="M 57.6 307.584 
L 57.6 41.472 
" style="fill:none;stroke:#000000;stroke-linecap:square;stroke-linejoin:miter;stroke-width:0.8;"/>
   </g>
   <g id="patch_4">
    <path d="M 414.72 307.584 
L 414.72 41.472 
" style="fill:none;stroke:#000000;stroke-linecap:square;stroke-linejoin:miter;stroke-width:0.8;"/>
   </g>
   <g id="patch_5">
    <path d="M 57.6 307.584 
L 414.72 307.584 
" style="fill:none;stroke:#000000;stroke-linecap:square;stroke-linejoin:miter;stroke-width:0.8;"/>
   </g>
   <g id="patch_6">
    <path d="M 57.6 41.472 
L 414.72 41.472 
" style="fill:none;stroke:#000000;stroke-linecap:square;stroke-linejoin:miter;stroke-width:0.8;"/>
   </g>
   <g id="text_18">
    <!-- Speed function of time -->
    <g transform="translate(167.024063 35.472)scale(0.12 -0.12)">
     <defs>
      <path id="DejaVuSerif-32"/>
      <path d="M 43.015625 63.71875 
L 38.28125 63.71875 
Q 38.234375 67.390625 36.203125 69.28125 
Q 34.1875 71.1875 30.328125 71.1875 
Q 25.296875 71.1875 23.234375 68.421875 
Q 21.1875 65.671875 21.1875 58.59375 
L 21.1875 51.90625 
L 35.6875 51.90625 
L 35.6875 46.6875 
L 21.1875 46.6875 
L 21.1875 5.171875 
L 32.71875 5.171875 
L 32.71875 0 
L 3.609375 0 
L 3.609375 5.171875 
L 12.203125 5.171875 
L 12.203125 46.6875 
L 3.609375 46.6875 
L 3.609375 51.90625 
L 12.203125 51.90625 
L 12.203125 58.40625 
Q 12.203125 67.09375 16.71875 71.53125 
Q 21.234375 75.984375 29.984375 75.984375 
Q 33.25 75.984375 36.515625 75.390625 
Q 39.796875 74.8125 43.015625 73.578125 
z
" id="DejaVuSerif-102"/>
      <path d="M 35.40625 51.90625 
L 52.203125 51.90625 
L 52.203125 5.171875 
L 60.6875 5.171875 
L 60.6875 0 
L 43.21875 0 
L 43.21875 9.1875 
Q 40.71875 4 36.765625 1.28125 
Q 32.8125 -1.421875 27.59375 -1.421875 
Q 18.953125 -1.421875 14.875 3.484375 
Q 10.796875 8.40625 10.796875 18.890625 
L 10.796875 46.6875 
L 2.6875 46.6875 
L 2.6875 51.90625 
L 19.828125 51.90625 
L 19.828125 21.6875 
Q 19.828125 12.203125 22.140625 8.6875 
Q 24.46875 5.171875 30.421875 5.171875 
Q 36.671875 5.171875 39.9375 9.765625 
Q 43.21875 14.359375 43.21875 23.09375 
L 43.21875 46.6875 
L 35.40625 46.6875 
z
" id="DejaVuSerif-117"/>
      <path d="M 4.109375 0 
L 4.109375 5.171875 
L 12.203125 5.171875 
L 12.203125 46.6875 
L 3.609375 46.6875 
L 3.609375 51.90625 
L 21.1875 51.90625 
L 21.1875 42.671875 
Q 23.6875 47.953125 27.65625 50.640625 
Q 31.640625 53.328125 36.921875 53.328125 
Q 45.515625 53.328125 49.5625 48.390625 
Q 53.609375 43.453125 53.609375 33.015625 
L 53.609375 5.171875 
L 61.625 5.171875 
L 61.625 0 
L 36.8125 0 
L 36.8125 5.171875 
L 44.578125 5.171875 
L 44.578125 30.171875 
Q 44.578125 39.703125 42.234375 43.234375 
Q 39.890625 46.78125 33.984375 46.78125 
Q 27.734375 46.78125 24.453125 42.203125 
Q 21.1875 37.640625 21.1875 28.90625 
L 21.1875 5.171875 
L 29 5.171875 
L 29 0 
z
" id="DejaVuSerif-110"/>
      <path d="M 51.421875 15.578125 
Q 49.515625 7.28125 44.09375 2.921875 
Q 38.671875 -1.421875 30.078125 -1.421875 
Q 18.75 -1.421875 11.859375 6.078125 
Q 4.984375 13.578125 4.984375 25.984375 
Q 4.984375 38.421875 11.859375 45.875 
Q 18.75 53.328125 30.078125 53.328125 
Q 35.015625 53.328125 39.890625 52.171875 
Q 44.78125 51.03125 49.703125 48.6875 
L 49.703125 35.40625 
L 44.484375 35.40625 
Q 43.453125 42.234375 40.015625 45.359375 
Q 36.578125 48.484375 30.171875 48.484375 
Q 22.90625 48.484375 19.1875 42.84375 
Q 15.484375 37.203125 15.484375 25.984375 
Q 15.484375 14.75 19.171875 9.078125 
Q 22.859375 3.421875 30.171875 3.421875 
Q 35.984375 3.421875 39.453125 6.4375 
Q 42.921875 9.46875 44.1875 15.578125 
z
" id="DejaVuSerif-99"/>
      <path d="M 10.796875 46.6875 
L 2.875 46.6875 
L 2.875 51.90625 
L 10.796875 51.90625 
L 10.796875 68.015625 
L 19.828125 68.015625 
L 19.828125 51.90625 
L 36.71875 51.90625 
L 36.71875 46.6875 
L 19.828125 46.6875 
L 19.828125 13.71875 
Q 19.828125 7.125 21.09375 5.265625 
Q 22.359375 3.421875 25.78125 3.421875 
Q 29.296875 3.421875 30.90625 5.484375 
Q 32.515625 7.5625 32.625 12.203125 
L 39.40625 12.203125 
Q 39.015625 5.125 35.546875 1.84375 
Q 32.078125 -1.421875 25 -1.421875 
Q 17.234375 -1.421875 14.015625 2.015625 
Q 10.796875 5.46875 10.796875 13.71875 
z
" id="DejaVuSerif-116"/>
      <path d="M 30.078125 3.421875 
Q 37.3125 3.421875 40.984375 9.125 
Q 44.671875 14.84375 44.671875 25.984375 
Q 44.671875 37.109375 40.984375 42.796875 
Q 37.3125 48.484375 30.078125 48.484375 
Q 22.859375 48.484375 19.171875 42.796875 
Q 15.484375 37.109375 15.484375 25.984375 
Q 15.484375 14.84375 19.1875 9.125 
Q 22.90625 3.421875 30.078125 3.421875 
z
M 30.078125 -1.421875 
Q 18.75 -1.421875 11.859375 6.078125 
Q 4.984375 13.578125 4.984375 25.984375 
Q 4.984375 38.375 11.84375 45.84375 
Q 18.703125 53.328125 30.078125 53.328125 
Q 41.453125 53.328125 48.3125 45.84375 
Q 55.171875 38.375 55.171875 25.984375 
Q 55.171875 13.578125 48.3125 6.078125 
Q 41.453125 -1.421875 30.078125 -1.421875 
z
" id="DejaVuSerif-111"/>
     </defs>
     <use xlink:href="#DejaVuSerif-83"/>
     <use x="68.505859" xlink:href="#DejaVuSerif-112"/>
     <use x="132.519531" xlink:href="#DejaVuSerif-101"/>
     <use x="191.699219" xlink:href="#DejaVuSerif-101"/>
     <use x="250.878906" xlink:href="#DejaVuSerif-100"/>
     <use x="314.892578" xlink:href="#DejaVuSerif-32"/>
     <use x="346.679688" xlink:href="#DejaVuSerif-102"/>
     <use x="383.691406" xlink:href="#DejaVuSerif-117"/>
     <use x="448.095703" xlink:href="#DejaVuSerif-110"/>
     <use x="512.5" xlink:href="#DejaVuSerif-99"/>
     <use x="568.505859" xlink:href="#DejaVuSerif-116"/>
     <use x="608.691406" xlink:href="#DejaVuSerif-105"/>
     <use x="640.673828" xlink:href="#DejaVuSerif-111"/>
     <use x="700.878906" xlink:href="#DejaVuSerif-110"/>
     <use x="765.283203" xlink:href="#DejaVuSerif-32"/>
     <use x="797.070312" xlink:href="#DejaVuSerif-111"/>
     <use x="857.275391" xlink:href="#DejaVuSerif-102"/>
     <use x="894.287109" xlink:href="#DejaVuSerif-32"/>
     <use x="926.074219" xlink:href="#DejaVuSerif-116"/>
     <use x="966.259766" xlink:href="#DejaVuSerif-105"/>
     <use x="998.242188" xlink:href="#DejaVuSerif-109"/>
     <use x="1093.066406" xlink:href="#DejaVuSerif-101"/>
    </g>
   </g>
  </g>
 </g>
 <defs>
  <clipPath id="p26f9e8c183">
   <rect height="266.112" width="357.12" x="57.6" y="41.472"/>
  </clipPath>
 </defs>
</svg>
