<?xml version="1.0" encoding="utf-8" standalone="no"?>
<!DOCTYPE svg PUBLIC "-//W3C//DTD SVG 1.1//EN"
  "http://www.w3.org/Graphics/SVG/1.1/DTD/svg11.dtd">
<!-- Created with matplotlib (https://matplotlib.org/) -->
<svg height="345.6pt" version="1.1" viewBox="0 0 460.8 345.6" width="460.8pt" xmlns="http://www.w3.org/2000/svg" xmlns:xlink="http://www.w3.org/1999/xlink">
 <metadata>
  <rdf:RDF xmlns:cc="http://creativecommons.org/ns#" xmlns:dc="http://purl.org/dc/elements/1.1/" xmlns:rdf="http://www.w3.org/1999/02/22-rdf-syntax-ns#">
   <cc:Work>
    <dc:type rdf:resource="http://purl.org/dc/dcmitype/StillImage"/>
    <dc:date>2023-01-04T23:41:33.346529</dc:date>
    <dc:format>image/svg+xml</dc:format>
    <dc:creator>
     <cc:Agent>
      <dc:title>Matplotlib v3.3.4, https://matplotlib.org/</dc:title>
     </cc:Agent>
    </dc:creator>
   </cc:Work>
  </rdf:RDF>
 </metadata>
 <defs>
  <style type="text/css">*{stroke-linecap:butt;stroke-linejoin:round;}</style>
 </defs>
 <g id="figure_1">
  <g id="patch_1">
   <path d="M 0 345.6 
L 460.8 345.6 
L 460.8 0 
L 0 0 
z
" style="fill:#ffffff;"/>
  </g>
  <g id="axes_1">
   <g id="patch_2">
    <path d="M 57.6 307.584 
L 414.72 307.584 
L 414.72 41.472 
L 57.6 41.472 
z
" style="fill:#ffffff;"/>
   </g>
   <g id="matplotlib.axis_1">
    <g id="xtick_1">
     <g id="line2d_1">
      <defs>
       <path d="M 0 0 
L 0 3.5 
" id="m1c3398807f" style="stroke:#000000;stroke-width:0.8;"/>
      </defs>
      <g>
       <use style="stroke:#000000;stroke-width:0.8;" x="72.406122" xlink:href="#m1c3398807f" y="307.584"/>
      </g>
     </g>
     <g id="text_1">
      <!-- 0 -->
      <g transform="translate(69.224872 322.182437)scale(0.1 -0.1)">
       <defs>
        <path d="M 31.78125 3.421875 
Q 39.265625 3.421875 42.96875 11.625 
Q 46.6875 19.828125 46.6875 36.375 
Q 46.6875 52.984375 42.96875 61.1875 
Q 39.265625 69.390625 31.78125 69.390625 
Q 24.3125 69.390625 20.59375 61.1875 
Q 16.890625 52.984375 16.890625 36.375 
Q 16.890625 19.828125 20.59375 11.625 
Q 24.3125 3.421875 31.78125 3.421875 
z
M 31.78125 -1.421875 
Q 19.921875 -1.421875 13.25 8.53125 
Q 6.59375 18.5 6.59375 36.375 
Q 6.59375 54.296875 13.25 64.25 
Q 19.921875 74.21875 31.78125 74.21875 
Q 43.703125 74.21875 50.34375 64.25 
Q 56.984375 54.296875 56.984375 36.375 
Q 56.984375 18.5 50.34375 8.53125 
Q 43.703125 -1.421875 31.78125 -1.421875 
z
" id="DejaVuSerif-48"/>
       </defs>
       <use xlink:href="#DejaVuSerif-48"/>
      </g>
     </g>
    </g>
    <g id="xtick_2">
     <g id="line2d_2">
      <g>
       <use style="stroke:#000000;stroke-width:0.8;" x="113.166266" xlink:href="#m1c3398807f" y="307.584"/>
      </g>
     </g>
     <g id="text_2">
      <!-- 50 -->
      <g transform="translate(106.803766 322.182437)scale(0.1 -0.1)">
       <defs>
        <path d="M 50.296875 72.90625 
L 50.296875 64.890625 
L 16.890625 64.890625 
L 16.890625 44 
Q 19.4375 45.75 22.828125 46.625 
Q 26.21875 47.515625 30.421875 47.515625 
Q 42.234375 47.515625 49.0625 40.96875 
Q 55.90625 34.421875 55.90625 23.09375 
Q 55.90625 11.53125 49 5.046875 
Q 42.09375 -1.421875 29.59375 -1.421875 
Q 24.5625 -1.421875 19.28125 -0.1875 
Q 14.015625 1.03125 8.5 3.515625 
L 8.5 17.671875 
L 14.015625 17.671875 
Q 14.453125 10.75 18.421875 7.078125 
Q 22.40625 3.421875 29.59375 3.421875 
Q 37.3125 3.421875 41.453125 8.5 
Q 45.609375 13.578125 45.609375 23.09375 
Q 45.609375 32.5625 41.484375 37.609375 
Q 37.359375 42.671875 29.59375 42.671875 
Q 25.203125 42.671875 21.84375 41.109375 
Q 18.5 39.546875 15.921875 36.28125 
L 11.71875 36.28125 
L 11.71875 72.90625 
z
" id="DejaVuSerif-53"/>
       </defs>
       <use xlink:href="#DejaVuSerif-53"/>
       <use x="63.623047" xlink:href="#DejaVuSerif-48"/>
      </g>
     </g>
    </g>
    <g id="xtick_3">
     <g id="line2d_3">
      <g>
       <use style="stroke:#000000;stroke-width:0.8;" x="153.92641" xlink:href="#m1c3398807f" y="307.584"/>
      </g>
     </g>
     <g id="text_3">
      <!-- 100 -->
      <g transform="translate(144.38266 322.182437)scale(0.1 -0.1)">
       <defs>
        <path d="M 14.203125 0 
L 14.203125 5.171875 
L 26.90625 5.171875 
L 26.90625 65.828125 
L 12.203125 56.296875 
L 12.203125 62.703125 
L 29.984375 74.21875 
L 36.71875 74.21875 
L 36.71875 5.171875 
L 49.421875 5.171875 
L 49.421875 0 
z
" id="DejaVuSerif-49"/>
       </defs>
       <use xlink:href="#DejaVuSerif-49"/>
       <use x="63.623047" xlink:href="#DejaVuSerif-48"/>
       <use x="127.246094" xlink:href="#DejaVuSerif-48"/>
      </g>
     </g>
    </g>
    <g id="xtick_4">
     <g id="line2d_4">
      <g>
       <use style="stroke:#000000;stroke-width:0.8;" x="194.686554" xlink:href="#m1c3398807f" y="307.584"/>
      </g>
     </g>
     <g id="text_4">
      <!-- 150 -->
      <g transform="translate(185.142804 322.182437)scale(0.1 -0.1)">
       <use xlink:href="#DejaVuSerif-49"/>
       <use x="63.623047" xlink:href="#DejaVuSerif-53"/>
       <use x="127.246094" xlink:href="#DejaVuSerif-48"/>
      </g>
     </g>
    </g>
    <g id="xtick_5">
     <g id="line2d_5">
      <g>
       <use style="stroke:#000000;stroke-width:0.8;" x="235.446697" xlink:href="#m1c3398807f" y="307.584"/>
      </g>
     </g>
     <g id="text_5">
      <!-- 200 -->
      <g transform="translate(225.902947 322.182437)scale(0.1 -0.1)">
       <defs>
        <path d="M 12.796875 55.515625 
L 7.328125 55.515625 
L 7.328125 68.5 
Q 12.546875 71.296875 17.84375 72.75 
Q 23.140625 74.21875 28.21875 74.21875 
Q 39.59375 74.21875 46.1875 68.703125 
Q 52.78125 63.1875 52.78125 53.71875 
Q 52.78125 43.015625 37.84375 28.125 
Q 36.671875 27 36.078125 26.421875 
L 17.671875 8.015625 
L 48.09375 8.015625 
L 48.09375 17 
L 53.8125 17 
L 53.8125 0 
L 6.78125 0 
L 6.78125 5.328125 
L 28.90625 27.390625 
Q 36.234375 34.71875 39.359375 40.84375 
Q 42.484375 46.96875 42.484375 53.71875 
Q 42.484375 61.078125 38.640625 65.234375 
Q 34.8125 69.390625 28.078125 69.390625 
Q 21.09375 69.390625 17.28125 65.921875 
Q 13.484375 62.453125 12.796875 55.515625 
z
" id="DejaVuSerif-50"/>
       </defs>
       <use xlink:href="#DejaVuSerif-50"/>
       <use x="63.623047" xlink:href="#DejaVuSerif-48"/>
       <use x="127.246094" xlink:href="#DejaVuSerif-48"/>
      </g>
     </g>
    </g>
    <g id="xtick_6">
     <g id="line2d_6">
      <g>
       <use style="stroke:#000000;stroke-width:0.8;" x="276.206841" xlink:href="#m1c3398807f" y="307.584"/>
      </g>
     </g>
     <g id="text_6">
      <!-- 250 -->
      <g transform="translate(266.663091 322.182437)scale(0.1 -0.1)">
       <use xlink:href="#DejaVuSerif-50"/>
       <use x="63.623047" xlink:href="#DejaVuSerif-53"/>
       <use x="127.246094" xlink:href="#DejaVuSerif-48"/>
      </g>
     </g>
    </g>
    <g id="xtick_7">
     <g id="line2d_7">
      <g>
       <use style="stroke:#000000;stroke-width:0.8;" x="316.966985" xlink:href="#m1c3398807f" y="307.584"/>
      </g>
     </g>
     <g id="text_7">
      <!-- 300 -->
      <g transform="translate(307.423235 322.182437)scale(0.1 -0.1)">
       <defs>
        <path d="M 9.71875 69.828125 
Q 15.4375 71.96875 20.671875 73.09375 
Q 25.921875 74.21875 30.515625 74.21875 
Q 41.21875 74.21875 47.21875 69.59375 
Q 53.21875 64.984375 53.21875 56.78125 
Q 53.21875 50.203125 49.0625 45.78125 
Q 44.921875 41.359375 37.3125 39.796875 
Q 46.296875 38.53125 51.25 33.28125 
Q 56.203125 28.03125 56.203125 19.671875 
Q 56.203125 9.46875 49.34375 4.015625 
Q 42.484375 -1.421875 29.59375 -1.421875 
Q 23.875 -1.421875 18.421875 -0.1875 
Q 12.984375 1.03125 7.625 3.515625 
L 7.625 17.671875 
L 13.09375 17.671875 
Q 13.578125 10.640625 17.828125 7.03125 
Q 22.078125 3.421875 29.78125 3.421875 
Q 37.25 3.421875 41.578125 7.734375 
Q 45.90625 12.0625 45.90625 19.578125 
Q 45.90625 28.171875 41.453125 32.59375 
Q 37.015625 37.015625 28.421875 37.015625 
L 23.78125 37.015625 
L 23.78125 42 
L 26.21875 42 
Q 34.765625 42 39.03125 45.53125 
Q 43.3125 49.078125 43.3125 56.203125 
Q 43.3125 62.59375 39.796875 65.984375 
Q 36.28125 69.390625 29.6875 69.390625 
Q 23.09375 69.390625 19.453125 66.265625 
Q 15.828125 63.140625 15.1875 56.984375 
L 9.71875 56.984375 
z
" id="DejaVuSerif-51"/>
       </defs>
       <use xlink:href="#DejaVuSerif-51"/>
       <use x="63.623047" xlink:href="#DejaVuSerif-48"/>
       <use x="127.246094" xlink:href="#DejaVuSerif-48"/>
      </g>
     </g>
    </g>
    <g id="xtick_8">
     <g id="line2d_8">
      <g>
       <use style="stroke:#000000;stroke-width:0.8;" x="357.727129" xlink:href="#m1c3398807f" y="307.584"/>
      </g>
     </g>
     <g id="text_8">
      <!-- 350 -->
      <g transform="translate(348.183379 322.182437)scale(0.1 -0.1)">
       <use xlink:href="#DejaVuSerif-51"/>
       <use x="63.623047" xlink:href="#DejaVuSerif-53"/>
       <use x="127.246094" xlink:href="#DejaVuSerif-48"/>
      </g>
     </g>
    </g>
    <g id="xtick_9">
     <g id="line2d_9">
      <g>
       <use style="stroke:#000000;stroke-width:0.8;" x="398.487273" xlink:href="#m1c3398807f" y="307.584"/>
      </g>
     </g>
     <g id="text_9">
      <!-- 400 -->
      <g transform="translate(388.943523 322.182437)scale(0.1 -0.1)">
       <defs>
        <path d="M 34.90625 24.703125 
L 34.90625 63.484375 
L 10.015625 24.703125 
z
M 56.390625 0 
L 23.1875 0 
L 23.1875 5.171875 
L 34.90625 5.171875 
L 34.90625 19.484375 
L 3.078125 19.484375 
L 3.078125 24.8125 
L 35.015625 74.21875 
L 44.671875 74.21875 
L 44.671875 24.703125 
L 58.59375 24.703125 
L 58.59375 19.484375 
L 44.671875 19.484375 
L 44.671875 5.171875 
L 56.390625 5.171875 
z
" id="DejaVuSerif-52"/>
       </defs>
       <use xlink:href="#DejaVuSerif-52"/>
       <use x="63.623047" xlink:href="#DejaVuSerif-48"/>
       <use x="127.246094" xlink:href="#DejaVuSerif-48"/>
      </g>
     </g>
    </g>
    <g id="text_10">
     <!-- Time -->
     <g transform="translate(223.524844 335.860562)scale(0.1 -0.1)">
      <defs>
       <path d="M 19.09375 0 
L 19.09375 5.171875 
L 28.421875 5.171875 
L 28.421875 67.09375 
L 6.984375 67.09375 
L 6.984375 55.71875 
L 0.984375 55.71875 
L 0.984375 72.90625 
L 65.71875 72.90625 
L 65.71875 55.71875 
L 59.71875 55.71875 
L 59.71875 67.09375 
L 38.28125 67.09375 
L 38.28125 5.171875 
L 47.609375 5.171875 
L 47.609375 0 
z
" id="DejaVuSerif-84"/>
       <path d="M 9.71875 68.015625 
Q 9.71875 70.265625 11.34375 71.921875 
Q 12.984375 73.578125 15.28125 73.578125 
Q 17.53125 73.578125 19.15625 71.921875 
Q 20.796875 70.265625 20.796875 68.015625 
Q 20.796875 65.71875 19.1875 64.109375 
Q 17.578125 62.5 15.28125 62.5 
Q 12.984375 62.5 11.34375 64.109375 
Q 9.71875 65.71875 9.71875 68.015625 
z
M 21.1875 5.171875 
L 29.6875 5.171875 
L 29.6875 0 
L 3.609375 0 
L 3.609375 5.171875 
L 12.203125 5.171875 
L 12.203125 46.6875 
L 3.609375 46.6875 
L 3.609375 51.90625 
L 21.1875 51.90625 
z
" id="DejaVuSerif-105"/>
       <path d="M 51.8125 41.796875 
Q 54.390625 47.515625 58.421875 50.421875 
Q 62.453125 53.328125 67.828125 53.328125 
Q 75.984375 53.328125 79.984375 48.265625 
Q 83.984375 43.21875 83.984375 33.015625 
L 83.984375 5.171875 
L 92.09375 5.171875 
L 92.09375 0 
L 67.1875 0 
L 67.1875 5.171875 
L 75 5.171875 
L 75 31.984375 
Q 75 39.9375 72.65625 43.3125 
Q 70.3125 46.6875 64.890625 46.6875 
Q 58.890625 46.6875 55.734375 42.140625 
Q 52.59375 37.59375 52.59375 28.90625 
L 52.59375 5.171875 
L 60.40625 5.171875 
L 60.40625 0 
L 35.796875 0 
L 35.796875 5.171875 
L 43.609375 5.171875 
L 43.609375 32.328125 
Q 43.609375 40.09375 41.265625 43.390625 
Q 38.921875 46.6875 33.5 46.6875 
Q 27.484375 46.6875 24.328125 42.140625 
Q 21.1875 37.59375 21.1875 28.90625 
L 21.1875 5.171875 
L 29 5.171875 
L 29 0 
L 4.109375 0 
L 4.109375 5.171875 
L 12.203125 5.171875 
L 12.203125 46.78125 
L 3.609375 46.78125 
L 3.609375 51.90625 
L 21.1875 51.90625 
L 21.1875 42.671875 
Q 23.6875 47.859375 27.53125 50.59375 
Q 31.390625 53.328125 36.28125 53.328125 
Q 42.328125 53.328125 46.375 50.3125 
Q 50.4375 47.3125 51.8125 41.796875 
z
" id="DejaVuSerif-109"/>
       <path d="M 54.203125 25 
L 15.484375 25 
L 15.484375 24.609375 
Q 15.484375 14.109375 19.4375 8.765625 
Q 23.390625 3.421875 31.109375 3.421875 
Q 37.015625 3.421875 40.796875 6.515625 
Q 44.578125 9.625 46.09375 15.71875 
L 53.328125 15.71875 
Q 51.171875 7.171875 45.375 2.875 
Q 39.59375 -1.421875 30.171875 -1.421875 
Q 18.796875 -1.421875 11.890625 6.078125 
Q 4.984375 13.578125 4.984375 25.984375 
Q 4.984375 38.28125 11.765625 45.796875 
Q 18.5625 53.328125 29.59375 53.328125 
Q 41.359375 53.328125 47.65625 46.0625 
Q 53.953125 38.8125 54.203125 25 
z
M 43.609375 30.171875 
Q 43.3125 39.265625 39.765625 43.875 
Q 36.234375 48.484375 29.59375 48.484375 
Q 23.390625 48.484375 19.828125 43.84375 
Q 16.265625 39.203125 15.484375 30.171875 
z
" id="DejaVuSerif-101"/>
      </defs>
      <use xlink:href="#DejaVuSerif-84"/>
      <use x="66.699219" xlink:href="#DejaVuSerif-105"/>
      <use x="98.681641" xlink:href="#DejaVuSerif-109"/>
      <use x="193.505859" xlink:href="#DejaVuSerif-101"/>
     </g>
    </g>
   </g>
   <g id="matplotlib.axis_2">
    <g id="ytick_1">
     <g id="line2d_10">
      <defs>
       <path d="M 0 0 
L -3.5 0 
" id="m35b50032a0" style="stroke:#000000;stroke-width:0.8;"/>
      </defs>
      <g>
       <use style="stroke:#000000;stroke-width:0.8;" x="57.6" xlink:href="#m35b50032a0" y="273.495273"/>
      </g>
     </g>
     <g id="text_11">
      <!-- −1.0 -->
      <g transform="translate(26.317187 277.294491)scale(0.1 -0.1)">
       <defs>
        <path d="M 10.59375 35.296875 
L 73.1875 35.296875 
L 73.1875 27.390625 
L 10.59375 27.390625 
z
" id="DejaVuSerif-8722"/>
        <path d="M 9.421875 5.078125 
Q 9.421875 7.8125 11.28125 9.71875 
Q 13.140625 11.625 15.921875 11.625 
Q 18.609375 11.625 20.5 9.71875 
Q 22.40625 7.8125 22.40625 5.078125 
Q 22.40625 2.390625 20.5 0.484375 
Q 18.609375 -1.421875 15.921875 -1.421875 
Q 13.140625 -1.421875 11.28125 0.453125 
Q 9.421875 2.34375 9.421875 5.078125 
z
" id="DejaVuSerif-46"/>
       </defs>
       <use xlink:href="#DejaVuSerif-8722"/>
       <use x="83.789062" xlink:href="#DejaVuSerif-49"/>
       <use x="147.412109" xlink:href="#DejaVuSerif-46"/>
       <use x="179.199219" xlink:href="#DejaVuSerif-48"/>
      </g>
     </g>
    </g>
    <g id="ytick_2">
     <g id="line2d_11">
      <g>
       <use style="stroke:#000000;stroke-width:0.8;" x="57.6" xlink:href="#m35b50032a0" y="218.513455"/>
      </g>
     </g>
     <g id="text_12">
      <!-- −0.5 -->
      <g transform="translate(26.317187 222.312673)scale(0.1 -0.1)">
       <use xlink:href="#DejaVuSerif-8722"/>
       <use x="83.789062" xlink:href="#DejaVuSerif-48"/>
       <use x="147.412109" xlink:href="#DejaVuSerif-46"/>
       <use x="179.199219" xlink:href="#DejaVuSerif-53"/>
      </g>
     </g>
    </g>
    <g id="ytick_3">
     <g id="line2d_12">
      <g>
       <use style="stroke:#000000;stroke-width:0.8;" x="57.6" xlink:href="#m35b50032a0" y="163.531636"/>
      </g>
     </g>
     <g id="text_13">
      <!-- 0.0 -->
      <g transform="translate(34.696875 167.330855)scale(0.1 -0.1)">
       <use xlink:href="#DejaVuSerif-48"/>
       <use x="63.623047" xlink:href="#DejaVuSerif-46"/>
       <use x="95.410156" xlink:href="#DejaVuSerif-48"/>
      </g>
     </g>
    </g>
    <g id="ytick_4">
     <g id="line2d_13">
      <g>
       <use style="stroke:#000000;stroke-width:0.8;" x="57.6" xlink:href="#m35b50032a0" y="108.549818"/>
      </g>
     </g>
     <g id="text_14">
      <!-- 0.5 -->
      <g transform="translate(34.696875 112.349037)scale(0.1 -0.1)">
       <use xlink:href="#DejaVuSerif-48"/>
       <use x="63.623047" xlink:href="#DejaVuSerif-46"/>
       <use x="95.410156" xlink:href="#DejaVuSerif-53"/>
      </g>
     </g>
    </g>
    <g id="ytick_5">
     <g id="line2d_14">
      <g>
       <use style="stroke:#000000;stroke-width:0.8;" x="57.6" xlink:href="#m35b50032a0" y="53.568"/>
      </g>
     </g>
     <g id="text_15">
      <!-- 1.0 -->
      <g transform="translate(34.696875 57.367219)scale(0.1 -0.1)">
       <use xlink:href="#DejaVuSerif-49"/>
       <use x="63.623047" xlink:href="#DejaVuSerif-46"/>
       <use x="95.410156" xlink:href="#DejaVuSerif-48"/>
      </g>
     </g>
    </g>
    <g id="text_16">
     <!-- Speed -->
     <g transform="translate(20.2375 190.273313)rotate(-90)scale(0.1 -0.1)">
      <defs>
       <path d="M 9.28125 3.515625 
L 9.28125 20.125 
L 14.890625 20.0625 
Q 15.140625 11.765625 19.703125 7.78125 
Q 24.265625 3.8125 33.59375 3.8125 
Q 42.28125 3.8125 46.84375 7.25 
Q 51.421875 10.6875 51.421875 17.28125 
Q 51.421875 22.5625 48.65625 25.390625 
Q 45.90625 28.21875 37.015625 30.90625 
L 27.390625 33.796875 
Q 16.9375 36.96875 12.671875 41.703125 
Q 8.40625 46.4375 8.40625 54.6875 
Q 8.40625 63.96875 14.984375 69.09375 
Q 21.578125 74.21875 33.5 74.21875 
Q 38.578125 74.21875 44.625 73.109375 
Q 50.6875 72.015625 57.515625 69.921875 
L 57.515625 54.390625 
L 52 54.390625 
Q 51.171875 62.109375 46.84375 65.546875 
Q 42.53125 69 33.6875 69 
Q 25.984375 69 21.953125 65.84375 
Q 17.921875 62.703125 17.921875 56.6875 
Q 17.921875 51.46875 20.9375 48.484375 
Q 23.96875 45.515625 33.796875 42.578125 
L 42.828125 39.890625 
Q 52.734375 36.921875 56.953125 32.296875 
Q 61.1875 27.6875 61.1875 19.921875 
Q 61.1875 9.328125 54.390625 3.953125 
Q 47.609375 -1.421875 34.1875 -1.421875 
Q 28.171875 -1.421875 21.9375 -0.1875 
Q 15.71875 1.03125 9.28125 3.515625 
z
" id="DejaVuSerif-83"/>
       <path d="M 20.515625 28.515625 
L 20.515625 23.390625 
Q 20.515625 14.015625 24.09375 9.109375 
Q 27.6875 4.203125 34.515625 4.203125 
Q 41.40625 4.203125 44.9375 9.71875 
Q 48.484375 15.234375 48.484375 25.984375 
Q 48.484375 36.765625 44.9375 42.234375 
Q 41.40625 47.703125 34.515625 47.703125 
Q 27.6875 47.703125 24.09375 42.765625 
Q 20.515625 37.84375 20.515625 28.515625 
z
M 11.53125 46.6875 
L 2.875 46.6875 
L 2.875 51.90625 
L 20.515625 51.90625 
L 20.515625 43.796875 
Q 23.140625 48.6875 27.21875 51 
Q 31.296875 53.328125 37.3125 53.328125 
Q 46.875 53.328125 52.921875 45.75 
Q 58.984375 38.1875 58.984375 25.984375 
Q 58.984375 13.765625 52.921875 6.171875 
Q 46.875 -1.421875 37.3125 -1.421875 
Q 31.296875 -1.421875 27.21875 0.890625 
Q 23.140625 3.21875 20.515625 8.109375 
L 20.515625 -15.578125 
L 29 -15.578125 
L 29 -20.796875 
L 2.875 -20.796875 
L 2.875 -15.578125 
L 11.53125 -15.578125 
z
" id="DejaVuSerif-112"/>
       <path d="M 52.484375 5.171875 
L 61.078125 5.171875 
L 61.078125 0 
L 43.5 0 
L 43.5 8.109375 
Q 40.875 3.21875 36.796875 0.890625 
Q 32.71875 -1.421875 26.703125 -1.421875 
Q 17.140625 -1.421875 11.0625 6.171875 
Q 4.984375 13.765625 4.984375 25.984375 
Q 4.984375 38.1875 11.03125 45.75 
Q 17.09375 53.328125 26.703125 53.328125 
Q 32.71875 53.328125 36.796875 51 
Q 40.875 48.6875 43.5 43.796875 
L 43.5 70.796875 
L 35.015625 70.796875 
L 35.015625 75.984375 
L 52.484375 75.984375 
z
M 43.5 23.390625 
L 43.5 28.515625 
Q 43.5 37.84375 39.90625 42.765625 
Q 36.328125 47.703125 29.5 47.703125 
Q 22.5625 47.703125 19.015625 42.234375 
Q 15.484375 36.765625 15.484375 25.984375 
Q 15.484375 15.234375 19.015625 9.71875 
Q 22.5625 4.203125 29.5 4.203125 
Q 36.328125 4.203125 39.90625 9.109375 
Q 43.5 14.015625 43.5 23.390625 
z
" id="DejaVuSerif-100"/>
      </defs>
      <use xlink:href="#DejaVuSerif-83"/>
      <use x="68.505859" xlink:href="#DejaVuSerif-112"/>
      <use x="132.519531" xlink:href="#DejaVuSerif-101"/>
      <use x="191.699219" xlink:href="#DejaVuSerif-101"/>
      <use x="250.878906" xlink:href="#DejaVuSerif-100"/>
     </g>
    </g>
   </g>
   <g id="line2d_15">
    <path clip-path="url(#p64f66b3576)" d="M 73.832727 163.531636 
L 74.305545 163.531636 
L 74.444129 295.488 
L 74.582714 163.531636 
L 74.713146 163.531636 
L 74.786515 53.568 
L 74.851731 69.277091 
L 74.916947 69.277091 
L 75.055532 163.531636 
L 76.074535 163.531636 
L 76.139751 97.553455 
L 76.21312 103.551471 
L 76.482137 103.551471 
L 76.620721 108.549818 
L 76.824522 108.549818 
L 76.889738 112.779189 
L 76.954954 62.026741 
L 77.093539 112.779189 
L 77.158755 112.779189 
L 77.297339 116.404364 
L 77.50114 116.404364 
L 77.639725 119.546182 
L 77.770157 75.560727 
L 77.843525 75.560727 
L 77.973958 81.058909 
L 78.112542 122.295273 
L 78.177759 122.295273 
L 78.316343 124.720941 
L 78.454928 85.910246 
L 78.520144 85.910246 
L 78.658728 90.222545 
L 78.862529 90.222545 
L 78.927745 94.080919 
L 78.992961 128.806278 
L 79.131546 94.080919 
L 79.196762 94.080919 
L 79.335347 97.553455 
L 79.539147 97.553455 
L 79.604364 100.695273 
L 79.742948 69.277091 
L 79.881533 100.695273 
L 80.011965 103.551471 
L 80.215766 103.551471 
L 80.289134 106.159304 
L 80.419567 77.473138 
L 80.558151 77.473138 
L 80.623367 81.058909 
L 80.761952 108.549818 
L 80.900536 108.549818 
L 81.030969 84.357818 
L 81.234769 84.357818 
L 81.373354 87.402965 
L 81.511938 112.779189 
L 81.577155 87.402965 
L 81.642371 90.222545 
L 81.91954 90.222545 
L 82.049972 92.840727 
L 82.123341 92.840727 
L 82.188557 69.277091 
L 82.327141 95.278345 
L 82.596158 95.278345 
L 82.734743 97.553455 
L 82.865175 75.560727 
L 82.938543 75.560727 
L 83.00376 78.398499 
L 83.142344 99.681783 
L 83.272777 99.681783 
L 83.346145 101.677091 
L 83.476577 81.058909 
L 83.615162 81.058909 
L 83.753746 83.558083 
L 83.884179 103.551471 
L 83.957547 103.551471 
L 84.087979 85.910246 
L 84.29178 85.910246 
L 84.430365 88.128 
L 84.495581 88.128 
L 84.568949 106.978909 
L 84.634165 88.128 
L 84.699382 90.222545 
L 84.976551 90.222545 
L 85.106983 92.203872 
L 85.180351 92.203872 
L 85.245568 74.371931 
L 85.384152 94.080919 
L 85.653169 94.080919 
L 85.718385 95.861706 
L 85.85697 78.944224 
L 85.995554 78.944224 
L 86.06077 81.058909 
L 86.199355 97.553455 
L 86.329787 97.553455 
L 86.468372 83.070439 
L 86.672173 83.070439 
L 86.810757 84.986182 
L 86.94119 100.695273 
L 87.014558 84.986182 
L 87.079774 86.81282 
L 87.348791 86.81282 
L 87.487375 88.55643 
L 87.691176 88.55643 
L 87.829761 90.222545 
L 88.033561 90.222545 
L 88.163994 91.816221 
L 88.302578 77.473138 
L 88.441163 93.342081 
L 88.71018 93.342081 
L 88.775396 94.804364 
L 88.91398 81.058909 
L 88.979197 81.058909 
L 89.117781 96.206961 
L 89.321582 96.206961 
L 89.386798 82.742026 
L 89.460166 84.357818 
L 89.729183 84.357818 
L 89.7944 85.910246 
L 89.932984 98.847144 
L 90.071569 85.910246 
L 90.202001 87.402965 
L 90.405802 87.402965 
L 90.544386 88.839355 
L 90.748187 88.839355 
L 90.886771 90.222545 
L 91.090572 90.222545 
L 91.155788 91.555438 
L 91.294373 79.559405 
L 91.424805 91.555438 
L 91.56339 92.840727 
L 91.767191 92.840727 
L 91.905775 82.505799 
L 92.036207 82.505799 
L 92.174792 95.278345 
L 92.313376 95.278345 
L 92.443809 83.902796 
L 92.582393 85.252438 
L 92.786194 85.252438 
L 92.85141 86.557091 
L 92.924779 97.553455 
L 93.055211 86.557091 
L 93.128579 86.557091 
L 93.259012 87.818969 
L 93.462813 87.818969 
L 93.601397 89.040141 
L 93.805198 89.040141 
L 93.943782 90.222545 
L 94.147583 90.222545 
L 94.278015 81.058909 
L 94.4166 91.368 
L 94.481816 91.368 
L 94.620401 92.47821 
L 94.758985 92.47821 
L 94.824201 82.32772 
L 94.889418 83.558083 
L 95.028002 83.558083 
L 95.166587 93.554777 
L 95.297019 94.599208 
L 95.435603 84.751718 
L 95.50082 84.751718 
L 95.639404 85.910246 
L 95.777989 85.910246 
L 95.908421 96.597249 
L 96.047006 87.035194 
L 96.18559 87.035194 
L 96.316023 88.128 
L 96.519823 88.128 
L 96.593192 79.897321 
L 96.723624 89.190023 
L 96.862209 89.190023 
L 97.000793 90.222545 
L 97.131225 90.222545 
L 97.204594 81.058909 
L 97.26981 82.188672 
L 97.408394 91.22678 
L 97.538827 91.22678 
L 97.677411 92.203872 
L 97.815996 83.287902 
L 97.881212 83.287902 
L 98.019797 84.357818 
L 98.150229 93.154909 
L 98.223597 93.154909 
L 98.288814 94.080919 
L 98.427398 85.399579 
L 98.557831 85.399579 
L 98.696415 86.414281 
L 98.761631 86.414281 
L 98.900216 94.982876 
L 99.0388 87.402965 
L 99.242601 87.402965 
L 99.373033 88.366619 
L 99.576834 88.366619 
L 99.715419 89.306182 
L 99.919219 89.306182 
L 100.057804 90.222545 
L 100.12302 90.222545 
L 100.261605 82.077091 
L 100.326821 83.070439 
L 100.465405 91.116559 
L 100.595838 91.116559 
L 100.669206 91.98903 
L 100.799638 84.039851 
L 100.938223 84.039851 
L 101.003439 84.986182 
L 101.142024 92.840727 
L 101.280608 92.840727 
L 101.411041 85.910246 
L 101.614841 85.910246 
L 101.753426 86.81282 
L 101.89201 94.484702 
L 101.957227 86.81282 
L 102.022443 87.694646 
L 102.299612 87.694646 
L 102.430044 88.55643 
L 102.633845 88.55643 
L 102.772429 89.398848 
L 102.97623 89.398848 
L 103.114815 90.222545 
L 103.245247 82.891636 
L 103.383832 91.02814 
L 103.652848 91.02814 
L 103.791433 84.64468 
L 103.930017 84.64468 
L 104.06045 92.587355 
L 104.264251 92.587355 
L 104.337619 85.492927 
L 104.402835 86.323126 
L 104.671852 86.323126 
L 104.74522 87.135847 
L 104.875653 94.080919 
L 105.014237 87.135847 
L 105.152822 87.931636 
L 105.356622 87.931636 
L 105.487055 88.711018 
L 105.690856 88.711018 
L 105.82944 89.474494 
L 106.033241 89.474494 
L 106.098457 90.222545 
L 106.237042 83.558083 
L 106.375626 90.222545 
L 106.506059 90.955636 
L 106.644643 90.955636 
L 106.709859 84.357818 
L 106.783228 85.141717 
L 106.987028 85.141717 
L 107.117461 92.378695 
L 107.256045 92.378695 
L 107.39463 85.910246 
L 107.525062 86.663852 
L 107.663647 86.663852 
L 107.802231 93.747021 
L 107.867447 93.747021 
L 108.006032 87.402965 
L 108.071248 87.402965 
L 108.209833 88.128 
L 108.413633 88.128 
L 108.544066 88.839355 
L 108.747866 88.839355 
L 108.886451 89.537414 
L 109.025035 89.537414 
L 109.090252 83.371229 
L 109.155468 84.113455 
L 109.228836 84.113455 
L 109.359269 90.222545 
L 109.432637 90.222545 
L 109.563069 90.895106 
L 109.636438 90.895106 
L 109.76687 84.842062 
L 109.905455 85.557421 
L 109.970671 85.557421 
L 110.109255 91.555438 
L 110.24784 92.203872 
L 110.378272 86.259892 
L 110.45164 86.259892 
L 110.582073 86.949818 
L 110.720657 86.949818 
L 110.859242 93.466311 
L 110.989674 87.627533 
L 111.128259 87.627533 
L 111.266843 88.293359 
L 111.397276 88.293359 
L 111.470644 94.080919 
L 111.601077 88.947605 
L 111.804877 88.947605 
L 111.943462 89.590571 
L 112.008678 89.590571 
L 112.147262 83.902796 
L 112.212479 84.583385 
L 112.351063 90.222545 
L 112.489648 90.222545 
L 112.62008 90.843809 
L 112.758665 85.252438 
L 112.823881 85.252438 
L 112.962465 85.910246 
L 113.10105 91.454631 
L 113.166266 91.454631 
L 113.231482 92.055273 
L 113.370067 86.557091 
L 113.508651 86.557091 
L 113.639084 87.193244 
L 113.712452 87.193244 
L 113.842884 92.645986 
L 113.981469 87.818969 
L 114.18527 87.818969 
L 114.323854 88.434519 
L 114.527655 88.434519 
L 114.658087 89.040141 
L 114.861888 89.040141 
L 115.000473 89.636073 
L 115.139057 84.357818 
L 115.269489 90.222545 
L 115.546658 90.222545 
L 115.611875 90.799782 
L 115.750459 85.60465 
L 115.880892 85.60465 
L 115.95426 86.213455 
L 116.084692 91.368 
L 116.223277 91.368 
L 116.361861 86.81282 
L 116.565662 86.81282 
L 116.696095 87.402965 
L 116.834679 92.47821 
L 116.899895 87.402965 
L 116.973263 87.9841 
L 117.24228 87.9841 
L 117.380865 88.55643 
L 117.446081 83.558083 
L 117.584666 88.55643 
L 117.715098 89.120153 
L 117.918899 89.120153 
L 117.992267 89.675463 
L 118.1227 84.751718 
L 118.261284 89.675463 
L 118.399869 90.222545 
L 118.603669 90.222545 
L 118.734102 85.910246 
L 118.872686 85.910246 
L 119.011271 91.292751 
L 119.215071 91.292751 
L 119.280288 86.476825 
L 119.345504 87.035194 
L 119.622673 87.035194 
L 119.687889 87.585528 
L 119.826474 92.33216 
L 119.956906 87.585528 
L 120.09549 88.128 
L 120.299291 88.128 
L 120.364507 88.662778 
L 120.437876 83.983474 
L 120.568308 88.662778 
L 120.641676 88.662778 
L 120.772109 89.190023 
L 120.97591 89.190023 
L 121.114494 85.096036 
L 121.17971 85.096036 
L 121.318295 89.709894 
L 121.456879 90.222545 
L 121.587312 90.222545 
L 121.66068 85.640727 
L 121.725896 86.177906 
L 121.864481 86.177906 
L 121.994913 90.728125 
L 122.133498 91.22678 
L 122.198714 91.22678 
L 122.337298 86.707726 
L 122.475883 87.230338 
L 122.606315 87.230338 
L 122.7449 92.203872 
L 122.810116 92.203872 
L 122.948701 87.745887 
L 123.013917 87.745887 
L 123.152501 88.254516 
L 123.356302 88.254516 
L 123.421518 84.357818 
L 123.560103 88.756364 
L 123.698687 88.756364 
L 123.82912 89.251564 
L 123.967704 89.251564 
L 124.03292 84.882148 
L 124.106289 85.399579 
L 124.171505 85.399579 
L 124.310089 89.740249 
L 124.375306 89.740249 
L 124.51389 90.222545 
L 124.579106 90.222545 
L 124.717691 85.910246 
L 124.848123 86.414281 
L 124.921492 86.414281 
L 125.051924 90.698579 
L 125.190508 91.168469 
L 125.329093 86.911812 
L 125.394309 86.911812 
L 125.532894 87.402965 
L 125.59811 87.402965 
L 125.736694 91.632336 
L 125.867127 87.887861 
L 126.070928 87.887861 
L 126.209512 88.366619 
L 126.413313 88.366619 
L 126.551897 88.839355 
L 126.755698 88.839355 
L 126.88613 89.306182 
L 126.959499 89.306182 
L 127.089931 85.182545 
L 127.163299 85.669186 
L 127.293732 89.767209 
L 127.432316 89.767209 
L 127.570901 90.222545 
L 127.701333 86.149818 
L 127.774702 86.149818 
L 127.905134 86.624553 
L 128.043719 90.672294 
L 128.108935 90.672294 
L 128.182303 91.116559 
L 128.312735 87.093499 
L 128.45132 87.093499 
L 128.589904 87.55676 
L 128.720337 91.555438 
L 128.793705 87.55676 
L 128.858921 88.01444 
L 129.127938 88.01444 
L 129.266523 88.466639 
L 129.470324 88.466639 
L 129.608908 88.913455 
L 129.812709 88.913455 
L 129.943141 89.354982 
L 130.081726 85.450948 
L 130.22031 89.791316 
L 130.489327 89.791316 
L 130.554543 90.222545 
L 130.693128 86.364172 
L 130.831712 86.364172 
L 130.896929 86.81282 
L 131.035513 90.648761 
L 131.165946 90.648761 
L 131.30453 87.256282 
L 131.508331 87.256282 
L 131.646915 87.694646 
L 131.712131 91.486495 
L 131.850716 87.694646 
L 131.981148 88.128 
L 132.184949 88.128 
L 132.323534 88.55643 
L 132.527334 88.55643 
L 132.665919 88.980018 
L 132.86972 88.980018 
L 132.934936 89.398848 
L 133.07352 85.692208 
L 133.203953 89.398848 
L 133.342537 89.812997 
L 133.546338 89.812997 
L 133.684922 86.557091 
L 133.815355 86.557091 
L 133.953939 90.627568 
L 134.092524 90.627568 
L 134.222956 86.982365 
L 134.361541 87.402965 
L 134.565342 87.402965 
L 134.630558 87.818969 
L 134.703926 91.424334 
L 134.834359 87.818969 
L 134.907727 87.818969 
L 135.038159 88.230451 
L 135.24196 88.230451 
L 135.315328 88.637484 
L 135.380544 85.071096 
L 135.519129 88.637484 
L 135.584345 88.637484 
L 135.72293 89.040141 
L 135.92673 89.040141 
L 136.057163 85.910246 
L 136.195747 89.438491 
L 136.260964 89.438491 
L 136.399548 89.832603 
L 136.538133 89.832603 
L 136.603349 86.323126 
L 136.668565 86.731636 
L 136.807149 86.731636 
L 136.945734 90.222545 
L 137.076166 90.608383 
L 137.214751 87.135847 
L 137.279967 87.135847 
L 137.418552 87.535825 
L 137.557136 87.535825 
L 137.687569 91.368 
L 137.826153 87.931636 
L 137.964738 87.931636 
L 138.09517 88.323346 
L 138.298971 88.323346 
L 138.372339 85.310081 
L 138.502771 88.711018 
L 138.641356 88.711018 
L 138.77994 89.094713 
L 138.910373 89.094713 
L 138.983741 85.711217 
L 139.048957 86.10826 
L 139.187542 89.474494 
L 139.317974 89.474494 
L 139.456559 89.850418 
L 139.521775 89.850418 
L 139.66036 86.501272 
L 139.798944 86.890314 
L 139.929376 90.222545 
L 140.002745 90.222545 
L 140.067961 90.590933 
L 140.206545 87.275446 
L 140.336978 87.275446 
L 140.475562 87.656727 
L 140.540779 87.656727 
L 140.679363 90.955636 
L 140.817948 88.034214 
L 141.021748 88.034214 
L 141.152181 88.407964 
L 141.355982 88.407964 
L 141.494566 88.778031 
L 141.698367 88.778031 
L 141.836951 89.144471 
L 141.902167 89.144471 
L 142.040752 85.910246 
L 142.105968 86.288887 
L 142.244553 89.507335 
L 142.374985 89.507335 
L 142.51357 89.866676 
L 142.652154 86.663852 
L 142.71737 86.663852 
L 142.782587 87.035194 
L 142.921171 90.222545 
L 143.059756 90.222545 
L 143.190188 87.402965 
L 143.393989 87.402965 
L 143.532573 87.767217 
L 143.671158 90.924068 
L 143.736374 87.767217 
L 143.80159 88.128 
L 144.078759 88.128 
L 144.209192 88.485363 
L 144.412992 88.485363 
L 144.551577 88.839355 
L 144.755378 88.839355 
L 144.893962 89.190023 
L 145.024394 86.092456 
L 145.162979 89.537414 
L 145.431996 89.537414 
L 145.57058 86.81282 
L 145.774381 86.81282 
L 145.839597 87.168 
L 145.978182 90.222545 
L 146.043398 90.222545 
L 146.116766 87.168 
L 146.181983 87.519906 
L 146.450999 87.519906 
L 146.524368 87.868584 
L 146.6548 90.895106 
L 146.793385 87.868584 
L 146.931969 88.214077 
L 147.13577 88.214077 
L 147.266202 88.55643 
L 147.470003 88.55643 
L 147.608588 88.895684 
L 147.812388 88.895684 
L 147.877605 89.231882 
L 148.016189 86.259892 
L 148.154773 89.231882 
L 148.285206 89.565065 
L 148.42379 89.565065 
L 148.489007 86.606402 
L 148.562375 86.949818 
L 148.766176 86.949818 
L 148.896608 90.222545 
L 149.035193 90.222545 
L 149.173777 87.290182 
L 149.30421 87.627533 
L 149.442794 87.627533 
L 149.581379 90.868441 
L 149.646595 90.868441 
L 149.785179 87.961913 
L 149.850395 87.961913 
L 149.98898 88.293359 
L 150.192781 88.293359 
L 150.323213 88.62191 
L 150.527014 88.62191 
L 150.665598 88.947605 
L 150.869399 88.947605 
L 151.007984 86.414281 
L 151.138416 89.270479 
L 151.211784 89.270479 
L 151.342217 89.590571 
L 151.415585 89.590571 
L 151.546017 86.746683 
L 151.684602 87.076233 
L 151.749818 87.076233 
L 151.888403 89.907914 
L 152.026987 90.222545 
L 152.15742 87.402965 
L 152.230788 87.402965 
L 152.36122 87.726917 
L 152.499805 87.726917 
L 152.638389 90.843809 
L 152.768822 88.048123 
L 152.907406 88.048123 
L 153.045991 88.366619 
L 153.176423 88.366619 
L 153.249791 91.150509 
L 153.380224 88.682439 
L 153.584025 88.682439 
L 153.722609 88.995615 
L 153.787825 88.995615 
L 153.92641 86.235022 
L 153.991626 86.557091 
L 154.130211 89.306182 
L 154.268795 89.306182 
L 154.399228 89.614171 
L 154.537812 86.876487 
L 154.603028 86.876487 
L 154.741613 87.193244 
L 154.880197 89.919615 
L 154.945413 89.919615 
L 155.01063 90.222545 
L 155.149214 87.507394 
L 155.287799 87.507394 
L 155.418231 87.818969 
L 155.491599 87.818969 
L 155.622032 90.522993 
L 155.760616 88.128 
L 155.964417 88.128 
L 156.103002 88.434519 
L 156.306802 88.434519 
L 156.437235 88.738556 
L 156.641035 88.738556 
L 156.77962 89.040141 
L 156.918204 86.37973 
L 157.048637 89.339303 
L 157.325806 89.339303 
L 157.391022 89.636073 
L 157.529607 86.996945 
L 157.660039 86.996945 
L 157.733407 87.301865 
L 157.86384 89.930477 
L 158.002424 89.930477 
L 158.141009 87.604364 
L 158.344809 87.604364 
L 158.475242 87.904471 
L 158.613826 90.512305 
L 158.679043 87.904471 
L 158.752411 88.202216 
L 159.021428 88.202216 
L 159.160012 88.497626 
L 159.363813 88.497626 
L 159.494246 88.790727 
L 159.698046 88.790727 
L 159.771414 89.081548 
L 159.901847 86.514304 
L 159.975215 86.514304 
L 160.105648 89.370114 
L 160.382817 89.370114 
L 160.513249 87.109032 
L 160.651834 87.109032 
L 160.790418 89.940587 
L 160.994219 89.940587 
L 161.059435 87.402965 
L 161.124651 87.694646 
L 161.40182 87.694646 
L 161.467036 87.9841 
L 161.605621 90.502351 
L 161.736053 87.9841 
L 161.874638 88.271353 
L 162.078439 88.271353 
L 162.143655 88.55643 
L 162.217023 86.057256 
L 162.347456 88.55643 
L 162.420824 88.55643 
L 162.551256 88.839355 
L 162.755057 88.839355 
L 162.893641 86.63977 
L 162.958858 86.63977 
L 163.097442 89.120153 
L 163.236027 89.398848 
L 163.366459 89.398848 
L 163.439827 86.927755 
L 163.505044 87.21359 
L 163.643628 87.21359 
L 163.774061 89.675463 
L 163.912645 89.950021 
L 163.977861 89.950021 
L 164.116446 87.4973 
L 164.25503 87.778909 
L 164.385463 87.778909 
L 164.524047 90.493059 
L 164.589263 90.493059 
L 164.727848 88.058439 
L 164.793064 88.058439 
L 164.931649 88.335914 
L 165.135449 88.335914 
L 165.200666 86.194573 
L 165.33925 88.611357 
L 165.477835 88.611357 
L 165.608267 88.884788 
L 165.746852 88.884788 
L 165.812068 86.476825 
L 165.885436 86.757025 
L 165.950652 86.757025 
L 166.089237 89.156231 
L 166.154453 89.156231 
L 166.293037 89.425708 
L 166.358254 89.425708 
L 166.496838 87.035194 
L 166.627271 87.311354 
L 166.700639 87.311354 
L 166.831071 89.693238 
L 166.969656 89.958844 
L 167.10824 87.585528 
L 167.173457 87.585528 
L 167.312041 87.857736 
L 167.377257 87.857736 
L 167.515842 90.222545 
L 167.581058 90.484364 
L 167.719643 88.128 
L 167.850075 88.128 
L 167.988659 88.39634 
L 168.19246 88.39634 
L 168.331045 88.662778 
L 168.534845 88.662778 
L 168.665278 88.927332 
L 168.738646 88.927332 
L 168.869079 86.595947 
L 168.942447 86.866848 
L 169.072879 89.190023 
L 169.211464 89.190023 
L 169.350048 89.450871 
L 169.480481 87.135847 
L 169.553849 87.135847 
L 169.684281 87.402965 
L 169.822866 89.709894 
L 169.888082 89.709894 
L 169.96145 89.967113 
L 170.091883 87.668222 
L 170.230467 87.668222 
L 170.369052 87.931636 
L 170.434268 87.931636 
L 170.499484 90.222545 
L 170.572853 87.931636 
L 170.638069 88.193228 
L 170.907086 88.193228 
L 171.04567 88.453016 
L 171.249471 88.453016 
L 171.388055 88.711018 
L 171.591856 88.711018 
L 171.722289 88.967253 
L 171.860873 86.707726 
L 171.999458 89.221739 
L 172.268475 89.221739 
L 172.333691 89.474494 
L 172.472275 87.230338 
L 172.61086 87.230338 
L 172.676076 87.488986 
L 172.814661 89.725535 
L 172.945093 89.725535 
L 173.083677 87.745887 
L 173.287478 87.745887 
L 173.426063 88.001058 
L 173.491279 90.222545 
L 173.629863 88.001058 
L 173.760296 88.254516 
L 173.964097 88.254516 
L 174.102681 88.506279 
L 174.306482 88.506279 
L 174.445066 88.756364 
L 174.648867 88.756364 
L 174.714083 89.004786 
L 174.852668 86.81282 
L 174.9831 89.004786 
L 175.121685 89.251564 
L 175.325485 89.251564 
L 175.46407 87.319215 
L 175.594502 87.319215 
L 175.733087 89.740249 
L 175.936888 89.740249 
L 176.002104 87.569914 
L 176.075472 87.818969 
L 176.344489 87.818969 
L 176.409705 88.066396 
L 176.483073 90.222545 
L 176.613506 88.066396 
L 176.686874 88.066396 
L 176.817307 88.312211 
L 177.021107 88.312211 
L 177.094476 88.55643 
L 177.159692 86.414281 
L 177.298276 88.55643 
L 177.363493 88.55643 
L 177.502077 88.799068 
L 177.705878 88.799068 
L 177.83631 86.911812 
L 177.974895 89.040141 
L 178.040111 89.040141 
L 178.178695 89.279663 
L 178.31728 89.279663 
L 178.382496 87.158178 
L 178.447712 87.402965 
L 178.586297 87.402965 
L 178.724881 89.51765 
L 178.855314 89.754117 
L 178.993898 87.646188 
L 179.059115 87.646188 
L 179.197699 87.887861 
L 179.336284 87.887861 
L 179.466716 90.222545 
L 179.6053 88.128 
L 179.743885 88.128 
L 179.874317 88.366619 
L 180.078118 88.366619 
L 180.151486 86.522402 
L 180.281919 88.603733 
L 180.420503 88.603733 
L 180.559088 88.839355 
L 180.68952 88.839355 
L 180.762889 86.764569 
L 180.828105 87.005219 
L 180.893321 87.005219 
L 181.031905 89.0735 
L 181.097122 89.0735 
L 181.235706 89.306182 
L 181.300922 89.306182 
L 181.439507 87.244364 
L 181.578091 87.482019 
L 181.708524 89.537414 
L 181.781892 89.537414 
L 181.847108 89.767209 
L 181.985693 87.718198 
L 182.116125 87.718198 
L 182.25471 87.952914 
L 182.319926 87.952914 
L 182.458511 89.995582 
L 182.597095 88.186182 
L 182.800896 88.186182 
L 182.931328 88.418014 
L 183.135129 88.418014 
L 183.273713 88.648424 
L 183.477514 88.648424 
L 183.616099 88.877425 
L 183.681315 88.877425 
L 183.819899 86.859743 
L 183.885116 87.093499 
L 184.0237 89.105029 
L 184.154133 89.105029 
L 184.292717 89.33125 
L 184.431301 87.325834 
L 184.496518 87.325834 
L 184.561734 87.55676 
L 184.700318 89.556099 
L 184.838903 89.556099 
L 184.969335 87.786292 
L 185.173136 87.786292 
L 185.311721 88.01444 
L 185.450305 90.001735 
L 185.515521 88.01444 
L 185.580738 88.241219 
L 185.857907 88.241219 
L 185.988339 88.466639 
L 186.19214 88.466639 
L 186.330724 88.690714 
L 186.534525 88.690714 
L 186.673109 88.913455 
L 186.803542 86.949818 
L 186.942126 89.134873 
L 187.211143 89.134873 
L 187.349728 87.402965 
L 187.553529 87.402965 
L 187.618745 87.627533 
L 187.757329 89.573792 
L 187.822545 89.573792 
L 187.895914 87.627533 
L 187.96113 87.850781 
L 188.230147 87.850781 
L 188.303515 88.072719 
L 188.433948 90.007563 
L 188.572532 88.072719 
L 188.711117 88.293359 
L 188.914917 88.293359 
L 189.04535 88.512712 
L 189.24915 88.512712 
L 189.387735 88.730791 
L 189.591536 88.730791 
L 189.656752 88.947605 
L 189.795336 87.035194 
L 189.933921 88.947605 
L 190.064353 89.163166 
L 190.202938 89.163166 
L 190.268154 87.256282 
L 190.341522 87.476095 
L 190.545323 87.476095 
L 190.675756 89.590571 
L 190.81434 89.590571 
L 190.952924 87.694646 
L 191.083357 87.911944 
L 191.287158 87.911944 
L 191.360526 88.128 
L 191.425742 90.013091 
L 191.564327 88.128 
L 191.629543 88.128 
L 191.768127 88.342825 
L 191.971928 88.342825 
L 192.102361 88.55643 
L 192.306161 88.55643 
L 192.444746 88.768824 
L 192.648546 88.768824 
L 192.787131 87.116228 
L 192.917563 88.980018 
L 192.990932 88.980018 
L 193.121364 89.190023 
L 193.194732 89.190023 
L 193.325165 87.331483 
L 193.463749 87.545528 
L 193.528966 87.545528 
L 193.66755 89.398848 
L 193.806135 89.606503 
L 193.936567 87.758374 
L 194.009935 87.758374 
L 194.140368 87.970031 
L 194.278952 87.970031 
L 194.417537 90.018342 
L 194.547969 88.180509 
L 194.686554 88.180509 
L 194.825138 88.389818 
L 194.955571 88.389818 
L 195.028939 90.222545 
L 195.159371 88.597967 
L 195.363172 88.597967 
L 195.501757 88.804966 
L 195.640341 88.804966 
L 195.705557 86.982365 
L 195.770773 87.193244 
L 195.909358 89.010825 
L 196.047942 89.010825 
L 196.178375 89.215552 
L 196.316959 87.402965 
L 196.382176 87.402965 
L 196.52076 87.611537 
L 196.659345 89.419158 
L 196.724561 89.419158 
L 196.789777 89.621651 
L 196.928362 87.818969 
L 197.066946 87.818969 
L 197.197379 88.02527 
L 197.270747 88.02527 
L 197.401179 89.823041 
L 197.539764 88.230451 
L 197.743564 88.230451 
L 197.882149 88.434519 
L 198.08595 88.434519 
L 198.216382 88.637484 
L 198.420183 88.637484 
L 198.558767 88.839355 
L 198.697352 87.060967 
L 198.827784 89.040141 
L 199.104953 89.040141 
L 199.170169 89.23985 
L 199.308754 87.470998 
L 199.439186 87.470998 
L 199.512555 87.674368 
L 199.642987 89.438491 
L 199.781572 89.438491 
L 199.920156 87.876655 
L 200.123957 87.876655 
L 200.254389 88.077865 
L 200.392974 89.832603 
L 200.45819 88.077865 
L 200.531558 88.278007 
L 200.800575 88.278007 
L 200.93916 88.477091 
L 201.14296 88.477091 
L 201.273393 88.675124 
L 201.477194 88.675124 
L 201.550562 88.872115 
L 201.680994 87.135847 
L 201.754363 87.135847 
L 201.884795 89.068072 
L 202.161964 89.068072 
L 202.292397 87.535825 
L 202.430981 87.535825 
L 202.569565 89.456915 
L 202.773366 89.456915 
L 202.838582 87.734247 
L 202.903799 87.931636 
L 203.180968 87.931636 
L 203.246184 88.128 
L 203.384768 89.841719 
L 203.515201 88.128 
L 203.653785 88.323346 
L 203.857586 88.323346 
L 203.996171 88.517683 
L 204.199971 88.517683 
L 204.330404 88.711018 
L 204.534204 88.711018 
L 204.672789 87.207262 
L 204.738005 87.207262 
L 204.87659 88.903359 
L 205.015174 89.094713 
L 205.145607 89.094713 
L 205.218975 87.402965 
L 205.284191 87.597668 
L 205.422776 87.597668 
L 205.553208 89.285089 
L 205.691793 89.474494 
L 205.757009 89.474494 
L 205.895593 87.791377 
L 206.034178 87.9841 
L 206.16461 87.9841 
L 206.303195 89.850418 
L 206.368411 89.850418 
L 206.506995 88.175845 
L 206.572212 88.175845 
L 206.710796 88.366619 
L 206.914597 88.366619 
L 206.979813 86.890314 
L 207.118398 88.55643 
L 207.256982 88.55643 
L 207.387414 88.745284 
L 207.525999 88.745284 
L 207.591215 87.083365 
L 207.664583 87.275446 
L 207.7298 87.275446 
L 207.868384 88.93319 
L 207.9336 88.93319 
L 208.072185 89.120153 
L 208.137401 89.120153 
L 208.275986 87.466565 
L 208.406418 87.656727 
L 208.479786 87.656727 
L 208.610219 89.306182 
L 208.748803 89.491283 
L 208.887388 87.845942 
L 208.952604 87.845942 
L 209.091188 88.034214 
L 209.156405 88.034214 
L 209.294989 89.675463 
L 209.360205 89.858729 
L 209.49879 88.221553 
L 209.629222 88.221553 
L 209.767807 88.407964 
L 209.971608 88.407964 
L 210.110192 88.593455 
L 210.313993 88.593455 
L 210.444425 88.778031 
L 210.517794 88.778031 
L 210.648226 87.152953 
L 210.721594 87.340616 
L 210.852027 88.961701 
L 210.990611 88.961701 
L 211.129196 89.144471 
L 211.259628 87.527358 
L 211.332996 87.527358 
L 211.463429 87.713188 
L 211.602013 89.326346 
L 211.66723 89.326346 
L 211.740598 89.507335 
L 211.87103 87.898111 
L 212.009615 87.898111 
L 212.148199 88.082134 
L 212.213416 88.082134 
L 212.352 89.687443 
L 212.482432 88.265264 
L 212.686233 88.265264 
L 212.824818 88.447507 
L 213.028618 88.447507 
L 213.167203 88.62887 
L 213.371004 88.62887 
L 213.501436 88.809358 
L 213.640021 87.219522 
L 213.778605 88.988979 
L 214.047622 88.988979 
L 214.112838 89.167738 
L 214.251423 87.585528 
L 214.390007 87.585528 
L 214.455223 87.767217 
L 214.593808 89.345642 
L 214.72424 89.345642 
L 214.862825 87.948039 
L 215.066626 87.948039 
L 215.20521 88.128 
L 215.270426 89.698909 
L 215.409011 88.128 
L 215.539443 88.307106 
L 215.743244 88.307106 
L 215.881828 88.485363 
L 216.085629 88.485363 
L 216.224214 88.662778 
L 216.428014 88.662778 
L 216.493231 88.839355 
L 216.631815 87.283266 
L 216.762248 88.839355 
L 216.900832 89.015102 
L 217.104633 89.015102 
L 217.243217 87.641239 
L 217.37365 87.641239 
L 217.512234 89.364125 
L 217.716035 89.364125 
L 217.781251 87.818969 
L 217.854619 87.995867 
L 218.123636 87.995867 
L 218.188853 88.171942 
L 218.262221 89.709894 
L 218.392653 88.171942 
L 218.466022 88.171942 
L 218.596454 88.347197 
L 218.800255 88.347197 
L 218.873623 88.521638 
L 218.938839 86.990822 
L 219.077424 88.521638 
L 219.14264 88.521638 
L 219.281224 88.695273 
L 219.485025 88.695273 
L 219.615458 87.344359 
L 219.754042 88.868105 
L 219.819258 88.868105 
L 219.957843 89.040141 
L 220.096427 89.040141 
L 220.161644 87.519906 
L 220.22686 87.694646 
L 220.365444 87.694646 
L 220.504029 89.211386 
L 220.634461 89.381845 
L 220.707829 89.381845 
L 220.838262 87.868584 
L 220.976846 88.041726 
L 221.115431 88.041726 
L 221.245863 89.720428 
L 221.384448 88.214077 
L 221.523032 88.214077 
L 221.653465 88.385643 
L 221.857266 88.385643 
L 221.930634 87.056926 
L 222.061066 88.55643 
L 222.199651 88.55643 
L 222.338235 88.726442 
L 222.468668 88.726442 
L 222.542036 87.230338 
L 222.607252 87.402965 
L 222.672468 87.402965 
L 222.811053 88.895684 
L 222.876269 88.895684 
L 223.014854 89.064163 
L 223.08007 89.064163 
L 223.218654 87.574813 
L 223.357239 87.745887 
L 223.487671 89.231882 
L 223.56104 89.231882 
L 223.626256 89.398848 
L 223.76484 87.916192 
L 223.895273 87.916192 
L 224.033857 88.085733 
L 224.099073 88.085733 
L 224.237658 89.565065 
L 224.376242 88.254516 
L 224.580043 88.254516 
L 224.710476 88.422545 
L 224.914276 88.422545 
L 225.052861 88.589826 
L 225.256662 88.589826 
L 225.395246 88.756364 
L 225.460462 88.756364 
L 225.599047 87.290182 
L 225.664263 87.459232 
L 225.802847 88.922162 
L 225.93328 88.922162 
L 226.071864 89.087228 
L 226.210449 87.627533 
L 226.275665 87.627533 
L 226.41425 87.795092 
L 226.544682 89.251564 
L 226.61805 89.251564 
L 226.748483 87.961913 
L 226.952284 87.961913 
L 227.090868 88.128 
L 227.229452 89.57807 
L 227.294669 88.128 
L 227.359885 88.293359 
L 227.637054 88.293359 
L 227.767486 88.457994 
L 227.971287 88.457994 
L 228.109872 88.62191 
L 228.313672 88.62191 
L 228.452257 88.785112 
L 228.582689 87.347679 
L 228.721274 88.947605 
L 228.990291 88.947605 
L 229.063659 89.109392 
L 229.194091 87.678195 
L 229.332676 87.678195 
L 229.397892 87.84238 
L 229.536477 89.270479 
L 229.601693 89.270479 
L 229.675061 87.84238 
L 229.740277 88.005856 
L 230.009294 88.005856 
L 230.082663 88.168627 
L 230.213095 89.590571 
L 230.35168 88.168627 
L 230.490264 88.330698 
L 230.694065 88.330698 
L 230.824497 88.492073 
L 231.028298 88.492073 
L 231.166882 88.652758 
L 231.370683 88.652758 
L 231.435899 88.812755 
L 231.574484 87.402965 
L 231.713068 88.812755 
L 231.843501 88.972071 
L 231.982085 88.972071 
L 232.047301 87.565286 
L 232.12067 87.726917 
L 232.32447 87.726917 
L 232.454903 89.288672 
L 232.593487 89.288672 
L 232.732072 87.887861 
L 232.862504 88.048123 
L 233.066305 88.048123 
L 233.139673 88.207708 
L 233.20489 89.602595 
L 233.343474 88.207708 
L 233.40869 88.207708 
L 233.547275 88.366619 
L 233.751076 88.366619 
L 233.881508 88.524861 
L 234.085309 88.524861 
L 234.223893 88.682439 
L 234.427694 88.682439 
L 234.566278 87.456165 
L 234.696711 88.839355 
L 234.770079 88.839355 
L 234.900512 88.995615 
L 234.97388 88.995615 
L 235.104312 87.615318 
L 235.242897 87.773808 
L 235.308113 87.773808 
L 235.446697 89.151223 
L 235.585282 89.306182 
L 235.715714 87.931636 
L 235.789083 87.931636 
L 235.919515 88.088809 
L 236.0581 88.088809 
L 236.196684 89.614171 
L 236.327117 88.245329 
L 236.465701 88.245329 
L 236.604286 88.401202 
L 236.808086 88.401202 
L 236.873303 87.193244 
L 237.011887 88.55643 
L 237.142319 88.55643 
L 237.280904 88.711018 
L 237.419488 88.711018 
L 237.484705 87.350643 
L 237.549921 87.507394 
L 237.688505 88.86497 
L 237.82709 88.86497 
L 237.957522 89.018289 
L 238.096107 87.663501 
L 238.161323 87.663501 
L 238.299908 87.818969 
L 238.438492 89.170981 
L 238.503708 89.170981 
L 238.568924 89.323047 
L 238.707509 87.9738 
L 238.846093 87.9738 
L 238.976526 88.128 
L 239.049894 88.128 
L 239.180327 89.474494 
L 239.318911 88.281572 
L 239.522712 88.281572 
L 239.661296 88.434519 
L 239.865097 88.434519 
L 239.99553 88.586846 
L 240.19933 88.586846 
L 240.337915 88.738556 
L 240.403131 88.738556 
L 240.476499 87.402965 
L 240.606932 88.889653 
L 240.884101 88.889653 
L 240.949317 89.040141 
L 241.087901 87.709935 
L 241.218334 87.709935 
L 241.291702 87.862494 
L 241.422135 89.190023 
L 241.560719 89.190023 
L 241.699304 88.01444 
L 241.903104 88.01444 
L 242.033537 88.165777 
L 242.172121 89.487985 
L 242.237337 88.165777 
L 242.310706 88.316509 
L 242.579723 88.316509 
L 242.718307 88.466639 
L 242.922108 88.466639 
L 243.05254 88.616171 
L 243.256341 88.616171 
L 243.329709 88.765108 
L 243.460142 87.453415 
L 243.53351 87.453415 
L 243.663942 88.913455 
L 243.941111 88.913455 
L 244.071544 87.754715 
L 244.210128 87.754715 
L 244.348713 89.208388 
L 244.552514 89.208388 
L 244.61773 87.904471 
L 244.682946 88.053637 
L 244.960115 88.053637 
L 245.025331 88.202216 
L 245.163916 89.500999 
L 245.294348 88.202216 
L 245.432933 88.350211 
L 245.636733 88.350211 
L 245.775318 88.497626 
L 245.979119 88.497626 
L 246.109551 88.644463 
L 246.313352 88.644463 
L 246.451936 87.502091 
L 246.517153 87.502091 
L 246.655737 88.790727 
L 246.794322 88.936421 
L 246.924754 88.936421 
L 246.998122 87.650297 
L 247.063338 87.797926 
L 247.267139 87.797926 
L 247.405724 89.226111 
L 247.536156 89.226111 
L 247.674741 87.944981 
L 247.813325 88.091467 
L 247.943758 88.091467 
L 248.082342 89.51356 
L 248.147558 89.51356 
L 248.286143 88.237386 
L 248.351359 88.237386 
L 248.489944 88.382742 
L 248.693744 88.382742 
L 248.832329 88.527538 
L 249.036129 88.527538 
L 249.166562 88.671776 
L 249.305146 88.671776 
L 249.370363 87.402965 
L 249.443731 87.549085 
L 249.508947 87.549085 
L 249.647532 88.815461 
L 249.712748 88.815461 
L 249.851332 88.958596 
L 249.916549 88.958596 
L 250.055133 87.694646 
L 250.185565 87.83965 
L 250.258934 87.83965 
L 250.389366 89.101183 
L 250.527951 89.243226 
L 250.666535 87.9841 
L 250.731751 87.9841 
L 250.870336 88.128 
L 250.935552 88.128 
L 251.074137 89.384727 
L 251.139353 89.525691 
L 251.277937 88.271353 
L 251.40837 88.271353 
L 251.546954 88.414162 
L 251.750755 88.414162 
L 251.889339 88.55643 
L 252.09314 88.55643 
L 252.223573 88.69816 
L 252.296941 88.69816 
L 252.427373 87.450935 
L 252.500742 87.594484 
L 252.631174 88.839355 
L 252.769759 88.839355 
L 252.908343 88.980018 
L 253.038776 87.737492 
L 253.112144 87.737492 
L 253.242576 87.879962 
L 253.381161 89.120153 
L 253.446377 89.120153 
L 253.519745 89.259762 
L 253.650178 88.021897 
L 253.788762 88.021897 
L 253.927347 88.163301 
L 253.992563 88.163301 
L 254.131147 89.398848 
L 254.26158 88.304177 
L 254.465381 88.304177 
L 254.603965 88.444526 
L 254.807766 88.444526 
L 254.94635 88.584353 
L 255.150151 88.584353 
L 255.280583 88.723661 
L 255.419168 87.4973 
L 255.557752 88.862451 
L 255.826769 88.862451 
L 255.891986 89.000727 
L 256.03057 87.778909 
L 256.169155 87.778909 
L 256.234371 87.918933 
L 256.372955 89.138492 
L 256.503388 89.138492 
L 256.641972 88.058439 
L 256.845773 88.058439 
L 256.984357 88.197432 
L 257.11479 89.4125 
L 257.188158 88.197432 
L 257.253374 88.335914 
L 257.522391 88.335914 
L 257.660976 88.473888 
L 257.726192 87.263279 
L 257.864777 88.473888 
L 258.003361 88.611357 
L 258.207162 88.611357 
L 258.272378 88.748322 
L 258.410963 87.54214 
L 258.541395 88.748322 
L 258.679979 88.884788 
L 258.88378 88.884788 
L 259.022365 87.818969 
L 259.152797 87.818969 
L 259.291382 89.156231 
L 259.495182 89.156231 
L 259.560399 87.956628 
L 259.633767 88.093788 
L 259.902784 88.093788 
L 259.968 88.230451 
L 260.041368 89.425708 
L 260.171801 88.230451 
L 260.245169 88.230451 
L 260.375601 88.366619 
L 260.579402 88.366619 
L 260.65277 88.502296 
L 260.717987 87.311354 
L 260.856571 88.502296 
L 260.921787 88.502296 
L 261.060372 88.637484 
L 261.264173 88.637484 
L 261.394605 87.585528 
L 261.53319 88.772186 
L 261.598406 88.772186 
L 261.73699 88.906404 
L 261.875575 88.906404 
L 261.940791 87.721876 
L 262.006007 87.857736 
L 262.144592 87.857736 
L 262.283176 89.040141 
L 262.413609 89.173399 
L 262.486977 89.173399 
L 262.617409 87.99311 
L 262.755994 88.128 
L 262.894578 88.128 
L 263.025011 89.438491 
L 263.163595 88.262409 
L 263.30218 88.262409 
L 263.432612 88.39634 
L 263.636413 88.39634 
L 263.709781 87.357892 
L 263.840214 88.529796 
L 263.978798 88.529796 
L 264.117383 88.662778 
L 264.247815 88.662778 
L 264.321183 87.492952 
L 264.3864 87.627533 
L 264.451616 87.627533 
L 264.5902 88.795289 
L 264.655417 88.795289 
L 264.794001 88.927332 
L 264.859217 88.927332 
L 264.997802 87.76164 
L 265.136386 87.895273 
L 265.266819 89.058909 
L 265.340187 89.058909 
L 265.470619 89.190023 
L 265.609204 88.028435 
L 265.67442 88.028435 
L 265.813005 88.16113 
L 265.878221 88.16113 
L 266.016805 89.320676 
L 266.15539 88.293359 
L 266.359191 88.293359 
L 266.489623 88.425125 
L 266.693424 88.425125 
L 266.832008 88.55643 
L 267.035809 88.55643 
L 267.174393 88.687277 
L 267.23961 88.687277 
L 267.378194 87.535825 
L 267.44341 87.668222 
L 267.581995 88.817667 
L 267.712427 88.817667 
L 267.851012 88.947605 
L 267.989596 87.800158 
L 268.054813 87.800158 
L 268.193397 87.931636 
L 268.323829 89.077091 
L 268.397198 89.077091 
L 268.52763 88.062659 
L 268.731431 88.062659 
L 268.870015 88.193228 
L 269.0086 89.334719 
L 269.073816 88.193228 
L 269.139032 88.323346 
L 269.416201 88.323346 
L 269.546634 88.453016 
L 269.750435 88.453016 
L 269.889019 88.582239 
L 270.09282 88.582239 
L 270.231404 88.711018 
L 270.361837 87.577372 
L 270.500421 88.839355 
L 270.769438 88.839355 
L 270.842806 88.967253 
L 270.973239 87.837489 
L 271.111823 87.837489 
L 271.17704 87.966881 
L 271.315624 89.094713 
L 271.38084 89.094713 
L 271.454209 87.966881 
L 271.519425 88.095831 
L 271.788442 88.095831 
L 271.86181 88.224342 
L 271.992242 89.348331 
L 272.130827 88.224342 
L 272.269411 88.352416 
L 272.473212 88.352416 
L 272.603645 88.480054 
L 272.807445 88.480054 
L 272.94603 88.60726 
L 273.149831 88.60726 
L 273.215047 88.734036 
L 273.353631 87.617654 
L 273.492216 88.734036 
L 273.622648 88.860383 
L 273.826449 88.860383 
L 273.965033 87.873688 
L 274.103618 87.873688 
L 274.23405 89.111802 
L 274.372635 89.111802 
L 274.511219 88.001058 
L 274.641652 88.128 
L 274.845452 88.128 
L 274.918821 88.254516 
L 274.984037 89.361533 
L 275.122621 88.254516 
L 275.187838 88.254516 
L 275.326422 88.380608 
L 275.530223 88.380608 
L 275.660655 88.506279 
L 275.864456 88.506279 
L 276.003041 88.63153 
L 276.206841 88.63153 
L 276.345426 87.656727 
L 276.475858 88.756364 
L 276.549227 88.756364 
L 276.679659 88.880782 
L 276.753027 88.880782 
L 276.88346 87.782975 
L 277.022044 87.908803 
L 277.08726 87.908803 
L 277.225845 89.004786 
L 277.364429 89.12838 
L 277.494862 88.034214 
L 277.56823 88.034214 
L 277.698663 88.15921 
L 277.837247 88.15921 
L 277.975832 89.374341 
L 278.106264 88.283793 
L 278.244848 88.283793 
L 278.383433 88.407964 
L 278.587234 88.407964 
L 278.65245 87.444771 
L 278.791034 88.531726 
L 278.921467 88.531726 
L 279.060051 88.655081 
L 279.198636 88.655081 
L 279.263852 87.569914 
L 279.329068 87.694646 
L 279.467653 88.778031 
L 279.606237 88.778031 
L 279.73667 88.900578 
L 279.875254 87.818969 
L 279.94047 87.818969 
L 280.079055 87.942885 
L 280.217639 89.022724 
L 280.282856 89.022724 
L 280.348072 89.144471 
L 280.486656 88.066396 
L 280.625241 88.066396 
L 280.755673 88.189504 
L 280.829042 88.189504 
L 280.959474 89.26582 
L 281.098059 88.312211 
L 281.301859 88.312211 
L 281.440444 88.434519 
L 281.644244 88.434519 
L 281.774677 88.55643 
L 281.978478 88.55643 
L 282.117062 88.677945 
L 282.182278 88.677945 
L 282.320863 87.608607 
L 282.386079 87.73146 
L 282.524664 88.799068 
L 282.663248 88.799068 
L 282.728464 88.919799 
L 282.867049 87.853916 
L 282.997481 87.853916 
L 283.07085 87.975977 
L 283.201282 89.040141 
L 283.339866 89.040141 
L 283.478451 88.097644 
L 283.682252 88.097644 
L 283.812684 88.218921 
L 283.951269 89.279663 
L 284.016485 88.218921 
L 284.089853 88.339808 
L 284.35887 88.339808 
L 284.497455 88.460308 
L 284.701255 88.460308 
L 284.831688 88.580422 
L 285.035488 88.580422 
L 285.174073 88.700152 
L 285.312657 87.646188 
L 285.44309 88.819501 
L 285.720259 88.819501 
L 285.850691 87.887861 
L 285.989276 87.887861 
L 286.12786 89.057059 
L 286.331661 89.057059 
L 286.396877 88.008121 
L 286.462093 88.128 
L 286.739262 88.128 
L 286.804479 88.247499 
L 286.943063 89.293112 
L 287.073496 88.247499 
L 287.277296 88.366619 
L 287.415881 88.366619 
L 287.554465 88.485363 
L 287.758266 88.485363 
L 287.888699 88.603733 
L 288.092499 88.603733 
L 288.231084 87.682703 
L 288.2963 87.682703 
L 288.434884 88.721729 
L 288.573469 88.839355 
L 288.703901 88.839355 
L 288.77727 87.801962 
L 288.842486 87.920847 
L 289.046287 87.920847 
L 289.184871 89.0735 
L 289.315304 89.0735 
L 289.453888 88.039359 
L 289.592473 88.157501 
L 289.722905 88.157501 
L 289.861489 89.306182 
L 289.926706 89.306182 
L 290.06529 88.275273 
L 290.130506 88.275273 
L 290.334307 88.392677 
L 290.472892 88.392677 
L 290.611476 88.509716 
L 290.815277 88.509716 
L 290.945709 88.626391 
L 291.084294 88.626391 
L 291.14951 87.600292 
L 291.222878 87.718198 
L 291.288095 87.718198 
L 291.426679 88.742704 
L 291.491895 88.742704 
L 291.63048 88.858655 
L 291.695696 88.858655 
L 291.83428 87.835738 
L 291.964713 87.952914 
L 292.038081 87.952914 
L 292.168514 88.974248 
L 292.307098 89.089484 
L 292.445683 88.069728 
L 292.510899 88.069728 
L 292.649483 88.186182 
L 292.779916 88.186182 
L 292.9185 89.318889 
L 293.057085 88.302277 
L 293.187517 88.302277 
L 293.391318 88.418014 
L 293.464686 88.418014 
L 293.529902 89.433063 
L 293.668487 88.533396 
L 293.872288 88.533396 
L 294.00272 88.648424 
L 294.076088 88.648424 
L 294.206521 87.636489 
L 294.279889 87.752714 
L 294.410322 88.7631 
L 294.548906 88.7631 
L 294.68749 88.877425 
L 294.817923 87.868584 
L 294.891291 87.868584 
L 295.021724 87.9841 
L 295.160308 88.9914 
L 295.225524 88.9914 
L 295.298893 89.105029 
L 295.429325 88.099264 
L 295.56791 88.099264 
L 295.706494 88.214077 
L 295.77171 88.214077 
L 295.910295 89.218311 
L 296.040727 88.328542 
L 296.244528 88.328542 
L 296.448329 88.442659 
L 296.586913 88.442659 
L 296.725498 88.55643 
L 296.929298 88.55643 
L 297.059731 88.669857 
L 297.198315 87.6717 
L 297.3369 88.782941 
L 297.605917 88.782941 
L 297.671133 88.895684 
L 297.809718 87.900538 
L 297.948302 87.900538 
L 298.013518 88.01444 
L 298.152103 89.008088 
L 298.282535 89.008088 
L 298.42112 88.128 
L 298.62492 88.128 
L 298.763505 88.241219 
L 298.893937 89.231882 
L 298.967306 88.241219 
L 299.032522 88.354098 
L 299.301539 88.354098 
L 299.440123 88.466639 
L 299.505339 87.478942 
L 299.643924 88.466639 
L 299.782508 88.578844 
L 299.986309 88.578844 
L 300.051525 88.690714 
L 300.19011 87.705965 
L 300.320542 88.690714 
L 300.524343 88.80225 
L 300.662928 88.80225 
L 300.801512 87.931636 
L 300.931945 87.931636 
L 301.070529 89.024329 
L 301.27433 89.024329 
L 301.339546 88.043969 
L 301.412914 88.155969 
L 301.681931 88.155969 
L 301.747147 88.267636 
L 301.885732 89.245091 
L 302.024316 88.267636 
L 302.154749 88.378974 
L 302.431918 88.489982 
L 302.497134 87.515415 
L 302.635719 88.489982 
L 303.04332 88.600663 
L 303.173752 87.739321 
L 303.247121 87.739321 
L 303.377553 88.711018 
L 303.581354 88.821048 
L 303.654722 88.821048 
L 303.719938 87.850781 
L 303.785155 87.961913 
L 303.923739 87.961913 
L 304.062324 88.930755 
L 304.192756 89.040141 
L 304.266124 89.040141 
L 304.396557 88.072719 
L 304.600357 88.1832 
L 304.673726 88.1832 
L 304.804158 89.257952 
L 304.942743 88.293359 
L 305.41556 88.403196 
L 305.488929 87.550931 
L 305.619361 88.512712 
L 306.026963 88.62191 
L 306.100331 87.661529 
L 306.165547 87.771805 
L 306.230763 87.771805 
L 306.369348 88.730791 
L 306.638365 88.839355 
L 306.776949 87.881762 
L 306.915534 87.991399 
L 307.045966 88.947605 
L 307.249767 89.055541 
L 307.388351 88.100719 
L 307.657368 88.209724 
L 307.795953 89.163166 
L 307.934537 88.318413 
L 308.472571 88.42679 
L 308.676372 88.534854 
L 309.018757 88.642608 
L 309.157342 87.694646 
L 309.222558 87.803451 
L 309.361142 88.750053 
L 309.630159 88.85719 
L 309.768744 87.911944 
L 309.972544 88.020126 
L 310.102977 88.96402 
L 310.241561 89.070545 
L 310.380146 88.128 
L 310.649163 88.235566 
L 310.787747 89.176767 
L 310.852964 88.235566 
L 310.91818 88.342825 
L 311.529582 88.449779 
L 311.733383 88.55643 
L 312.010552 88.662778 
L 312.140984 87.726917 
L 312.279569 88.768824 
L 312.621954 88.874571 
L 312.752386 87.941357 
L 312.956187 88.048123 
L 313.094771 88.980018 
L 313.159988 88.980018 
L 313.233356 88.048123 
L 313.298572 88.154588 
L 313.706174 88.260753 
L 313.77139 89.190023 
L 313.909974 88.260753 
L 314.048559 88.366619 
L 314.586593 88.472188 
L 314.790393 88.577461 
L 314.994194 88.682439 
L 315.132779 87.758374 
L 315.271363 88.682439 
L 315.401796 88.787123 
L 315.605596 88.787123 
L 315.744181 87.970031 
L 315.882765 87.970031 
L 316.013198 88.995615 
L 316.151782 88.995615 
L 316.290367 88.075417 
L 316.420799 88.180509 
L 316.697968 88.285309 
L 316.763184 89.202948 
L 316.901769 88.285309 
L 317.30937 88.389818 
L 317.439803 88.494037 
L 317.985989 88.597967 
L 318.124573 87.789049 
L 318.255006 88.70161 
L 318.597391 88.804966 
L 318.662607 87.893665 
L 318.735975 87.997994 
L 318.866408 87.997994 
L 319.004992 88.908038 
L 319.143577 89.010825 
L 319.274009 88.102035 
L 319.616394 88.205789 
L 319.754979 89.215552 
L 319.885411 88.309259 
L 320.366381 88.412444 
L 320.431597 87.611537 
L 320.570182 88.515347 
L 320.977783 88.617969 
L 321.042999 87.715395 
L 321.108216 87.818969 
L 321.2468 88.72031 
L 321.515817 88.822372 
L 321.654402 87.92226 
L 321.858202 88.02527 
L 321.996787 88.924156 
L 322.127219 89.025662 
L 322.265804 88.128 
L 322.608189 88.230451 
L 322.738621 89.126893 
L 322.877206 88.332623 
L 323.423392 88.434519 
L 323.553824 88.536139 
L 323.961426 88.637484 
L 324.10001 87.745887 
L 324.165227 87.848162 
L 324.303811 88.738556 
L 324.507612 88.839355 
L 324.646196 87.950161 
L 324.849997 88.051886 
L 324.980429 88.939883 
L 325.119014 88.939883 
L 325.257598 88.153337 
L 325.591832 88.254516 
L 325.730416 89.140129 
L 325.795632 88.254516 
L 325.869001 88.355424 
L 326.480403 88.456061 
L 326.610835 88.55643 
L 326.95322 88.65653 
L 327.091805 87.775647 
L 327.222237 88.756364 
L 327.499406 88.756364 
L 327.629839 87.977394 
L 327.768423 87.977394 
L 327.907008 88.955234 
L 328.110808 88.955234 
L 328.176025 88.077865 
L 328.241241 88.178069 
L 328.583626 88.278007 
L 328.722211 89.153049 
L 328.852643 88.278007 
L 329.056444 88.377681 
L 329.537413 88.477091 
L 329.667846 88.576238 
L 329.871647 88.576238 
L 330.010231 87.804699 
L 330.075447 87.804699 
L 330.214032 88.675124 
L 330.352616 88.773749 
L 330.483049 88.773749 
L 330.556417 87.904471 
L 330.621633 88.003981 
L 330.825434 88.003981 
L 330.964018 88.970222 
L 331.094451 88.970222 
L 331.233035 88.103229 
L 331.37162 88.202216 
L 331.502052 88.202216 
L 331.640637 89.165665 
L 331.705853 89.165665 
L 331.844438 88.300944 
L 332.252039 88.399414 
L 332.390624 88.497626 
L 332.863441 88.595581 
L 332.928657 87.734247 
L 333.002026 87.833071 
L 333.067242 87.833071 
L 333.205826 88.693281 
L 333.474843 88.790727 
L 333.613428 87.931636 
L 333.74386 88.029946 
L 333.817229 88.029946 
L 333.947661 88.88792 
L 334.086246 88.98486 
L 334.22483 88.128 
L 334.559063 88.2258 
L 334.697648 89.177986 
L 334.836232 88.323346 
L 335.243834 88.42064 
L 335.30905 89.274174 
L 335.447634 88.517683 
L 335.855236 88.614475 
L 335.985668 87.763144 
L 336.059036 87.860784 
L 336.189469 88.711018 
L 336.466638 88.807312 
L 336.59707 87.958172 
L 336.800871 88.05531 
L 336.939456 88.903359 
L 337.07804 88.999159 
L 337.208473 88.152199 
L 337.550858 88.248839 
L 337.689442 89.094713 
L 337.819875 88.345232 
L 338.366061 88.441378 
L 338.504645 88.537279 
L 338.838878 88.632935 
L 338.977463 87.791377 
L 339.116047 88.728347 
L 339.45028 88.823517 
L 339.588865 87.9841 
L 339.792666 88.080094 
L 339.93125 88.918445 
L 340.061683 88.918445 
L 340.200267 88.175845 
L 340.542652 88.271353 
L 340.673085 89.107578 
L 340.746453 88.271353 
L 340.811669 88.366619 
L 341.219271 88.461644 
L 341.284487 87.627533 
L 341.423071 88.461644 
L 341.561656 88.55643 
L 341.830673 88.650976 
L 341.969257 87.818969 
L 342.09969 88.650976 
L 342.30349 88.745284 
L 342.442075 88.745284 
L 342.580659 88.009441 
L 342.711092 88.009441 
L 342.849676 88.93319 
L 343.053477 88.93319 
L 343.118693 88.104318 
L 343.192062 88.198957 
L 343.526295 88.293359 
L 343.664879 89.120153 
L 343.803464 88.293359 
L 343.933896 88.387524 
L 344.211065 88.481455 
L 344.276281 87.656727 
L 344.414866 88.481455 
L 344.822467 88.57515 
L 344.9529 87.845942 
L 345.026268 87.845942 
L 345.156701 88.668612 
L 345.360501 88.761841 
L 345.43387 88.761841 
L 345.499086 87.940195 
L 345.564302 88.034214 
L 345.702886 88.034214 
L 345.841471 88.854839 
L 345.971903 88.947605 
L 346.045272 88.947605 
L 346.175704 88.128 
L 346.379505 88.221553 
L 346.452873 88.221553 
L 346.583306 89.132447 
L 346.656674 89.132447 
L 346.787106 88.314874 
L 347.194708 88.407964 
L 347.268076 87.685272 
L 347.398508 88.500824 
L 347.80611 88.593455 
L 347.879478 87.778909 
L 347.944694 87.872316 
L 348.009911 87.872316 
L 348.148495 88.685857 
L 348.417512 88.778031 
L 348.556097 87.965492 
L 348.694681 88.058439 
L 348.759897 88.058439 
L 348.898482 88.869979 
L 349.028914 88.961701 
L 349.167499 88.151158 
L 349.436516 88.24365 
L 349.5751 89.053198 
L 349.713685 88.335914 
L 350.251719 88.427953 
L 350.455519 88.519767 
L 350.797904 88.611357 
L 350.936489 87.805762 
L 351.001705 87.898111 
L 351.14029 88.702723 
L 351.409307 88.793866 
L 351.547891 87.990235 
L 351.751692 88.082134 
L 351.882124 88.884788 
L 352.020709 88.975489 
L 352.159293 88.17381 
L 352.42831 88.265264 
L 352.566895 89.06597 
L 352.632111 88.265264 
L 352.697327 88.356496 
L 353.308729 88.447507 
L 353.51253 88.538298 
L 353.789699 88.62887 
L 353.920131 87.832032 
L 354.058716 88.719223 
L 354.401101 88.809358 
L 354.531534 88.01444 
L 354.735334 88.105315 
L 354.873919 88.899277 
L 355.012503 88.899277 
L 355.142936 88.195972 
L 355.485321 88.286411 
L 355.550537 89.078466 
L 355.689122 88.286411 
L 355.827706 88.376633 
L 356.36574 88.466639 
L 356.569541 88.55643 
L 356.773342 88.646006 
L 356.911926 87.857736 
L 357.050511 88.646006 
L 357.180943 88.735368 
L 357.384744 88.735368 
L 357.523328 88.038127 
L 357.661913 88.038127 
L 357.792345 88.913455 
L 357.93093 88.913455 
L 358.069514 88.128 
L 358.199947 88.217659 
L 358.477116 88.307106 
L 358.542332 89.090695 
L 358.680916 88.307106 
L 359.088518 88.39634 
L 359.153734 88.485363 
L 359.21895 87.703631 
L 359.357535 88.485363 
L 359.765136 88.574175 
L 359.903721 87.882894 
L 360.034153 88.662778 
L 360.376538 88.751171 
L 360.441754 87.972207 
L 360.515123 88.06131 
L 360.645555 88.06131 
L 360.78414 88.839355 
L 360.922724 88.927332 
L 361.053157 88.150204 
L 361.395542 88.238888 
L 361.534126 89.102665 
L 361.664559 88.327363 
L 362.145529 88.415631 
L 362.210745 87.730208 
L 362.349329 88.503692 
L 362.756931 88.591547 
L 362.822147 87.818969 
L 362.887363 87.907522 
L 363.025948 88.679196 
L 363.368333 88.766641 
L 363.498765 87.995867 
L 363.63735 88.084007 
L 363.775934 88.853881 
L 363.906367 88.940918 
L 364.044951 88.171942 
L 364.387336 88.259671 
L 364.517769 89.027752 
L 364.656353 88.347197 
L 365.202539 88.434519 
L 365.40634 88.521638 
L 365.740573 88.608556 
L 365.879158 87.844035 
L 365.944374 87.931636 
L 366.082958 88.695273 
L 366.286759 88.781789 
L 366.425344 88.019035 
L 366.629144 88.106232 
L 366.759577 88.868105 
L 366.898161 88.868105 
L 367.036746 88.193228 
L 367.370979 88.280023 
L 367.509563 89.040141 
L 367.57478 88.280023 
L 367.648148 88.366619 
L 368.25955 88.453016 
L 368.463351 88.539214 
L 368.732368 88.625214 
L 368.870952 87.868584 
L 369.001385 88.711018 
L 369.278554 88.711018 
L 369.408986 88.041726 
L 369.686155 88.128 
L 369.816588 88.882036 
L 369.889956 88.882036 
L 369.955172 88.128 
L 370.020388 88.214077 
L 370.362773 88.299958 
L 370.501358 89.052275 
L 370.63179 88.299958 
L 370.835591 88.385643 
L 371.316561 88.471134 
L 371.520362 88.55643 
L 371.724162 88.641532 
L 371.854595 87.892631 
L 371.993179 88.641532 
L 372.19698 88.726442 
L 372.262196 88.726442 
L 372.335564 87.97839 
L 372.400781 88.063954 
L 372.604581 88.063954 
L 372.743166 88.895684 
L 372.873598 88.895684 
L 373.012183 88.149325 
L 373.215984 88.234502 
L 373.2812 88.234502 
L 373.419784 89.064163 
L 373.485001 89.064163 
L 373.623585 88.319488 
L 374.031186 88.404282 
L 374.234987 88.488885 
L 374.642589 88.573297 
L 374.707805 87.831135 
L 374.781173 87.916192 
L 374.846389 87.916192 
L 374.984974 88.65752 
L 375.253991 88.741554 
L 375.392575 88.001058 
L 375.596376 88.085733 
L 375.726808 88.825399 
L 375.865393 88.909057 
L 376.003977 88.170219 
L 376.338211 88.254516 
L 376.476795 89.075811 
L 376.61538 88.338625 
L 377.022981 88.422545 
L 377.088197 89.158909 
L 377.226782 88.506279 
L 377.634383 88.589826 
L 377.764816 87.855103 
L 377.838184 87.939281 
L 377.968616 88.673188 
L 378.245785 88.756364 
L 378.376218 88.023273 
L 378.580018 88.107078 
L 378.718603 88.839355 
L 378.857187 88.922162 
L 378.98762 88.190697 
L 379.330005 88.274131 
L 379.46859 89.004786 
L 379.599022 88.357381 
L 380.145208 88.440446 
L 380.349009 88.523328 
L 380.618026 88.606027 
L 380.75661 87.878594 
L 380.895195 88.688545 
L 381.229428 88.77088 
L 381.368012 88.045048 
L 381.571813 88.128 
L 381.710398 88.853035 
L 381.84083 88.853035 
L 381.979414 88.21077 
L 382.3218 88.293359 
L 382.452232 89.016804 
L 382.5256 88.293359 
L 382.590817 88.375767 
L 383.202219 88.457994 
L 383.40602 88.540042 
L 383.60982 88.62191 
L 383.748405 87.901624 
L 383.878837 88.62191 
L 384.082638 88.7036 
L 384.221222 88.7036 
L 384.359807 88.066396 
L 384.490239 88.066396 
L 384.628824 88.866447 
L 384.832625 88.866447 
L 384.897841 88.148512 
L 384.971209 88.230451 
L 385.305442 88.312211 
L 385.444027 89.028586 
L 385.582611 88.312211 
L 385.786412 88.393794 
L 385.990213 88.4752 
L 386.055429 87.760377 
L 386.194013 88.4752 
L 386.601615 88.55643 
L 386.732047 87.924206 
L 386.805416 87.924206 
L 386.935848 88.637484 
L 387.139649 88.718363 
L 387.213017 88.718363 
L 387.278233 88.005856 
L 387.343449 88.087329 
L 387.482034 88.087329 
L 387.620618 88.799068 
L 387.824419 88.879599 
L 387.954852 88.168627 
L 388.158652 88.24975 
L 388.232021 88.24975 
L 388.362453 89.040141 
L 388.435821 89.040141 
L 388.566254 88.330698 
L 388.973855 88.411472 
L 389.047223 87.784153 
L 389.177656 88.492073 
L 389.585257 88.572502 
L 389.658626 87.86534 
L 389.723842 87.946353 
L 389.789058 87.946353 
L 389.927643 88.652758 
L 390.196659 88.732842 
L 390.335244 88.027193 
L 390.539045 88.10786 
L 390.677629 88.812755 
L 390.808062 88.892498 
L 390.946646 88.188355 
L 391.215663 88.268678 
L 391.354248 88.972071 
L 391.419464 89.051474 
L 391.558048 88.348831 
L 392.030866 88.428812 
L 392.234667 88.508624 
L 392.577052 88.588266 
L 392.715636 87.887861 
L 392.780853 87.968077 
L 392.919437 88.66774 
L 393.188454 88.747045 
L 393.327039 88.048123 
L 393.530839 88.128 
L 393.661272 88.826182 
L 393.799856 88.905152 
L 393.938441 88.207708 
L 394.207458 88.287247 
L 394.346042 88.983955 
L 394.411258 88.287247 
L 394.476475 88.366619 
L 395.087877 88.445824 
L 395.291677 88.524861 
L 395.568846 88.603733 
L 395.699279 87.909956 
L 395.837863 88.682439 
L 396.180249 88.760979 
L 396.310681 88.068658 
L 396.514482 88.14776 
L 396.653066 88.839355 
L 396.791651 88.839355 
L 396.922083 88.226696 
L 397.264468 88.305467 
L 397.329685 88.995615 
L 397.468269 88.305467 
L 397.67207 88.384073 
L 398.144888 88.462515 
L 398.348688 88.540794 
L 398.487273 88.540794 
L 398.487273 88.540794 
" style="fill:none;stroke:#1f77b4;stroke-linecap:square;stroke-width:1.5;"/>
   </g>
   <g id="patch_3">
    <path d="M 57.6 307.584 
L 57.6 41.472 
" style="fill:none;stroke:#000000;stroke-linecap:square;stroke-linejoin:miter;stroke-width:0.8;"/>
   </g>
   <g id="patch_4">
    <path d="M 414.72 307.584 
L 414.72 41.472 
" style="fill:none;stroke:#000000;stroke-linecap:square;stroke-linejoin:miter;stroke-width:0.8;"/>
   </g>
   <g id="patch_5">
    <path d="M 57.6 307.584 
L 414.72 307.584 
" style="fill:none;stroke:#000000;stroke-linecap:square;stroke-linejoin:miter;stroke-width:0.8;"/>
   </g>
   <g id="patch_6">
    <path d="M 57.6 41.472 
L 414.72 41.472 
" style="fill:none;stroke:#000000;stroke-linecap:square;stroke-linejoin:miter;stroke-width:0.8;"/>
   </g>
   <g id="text_17">
    <!-- Speed function of time -->
    <g transform="translate(167.024063 35.472)scale(0.12 -0.12)">
     <defs>
      <path id="DejaVuSerif-32"/>
      <path d="M 43.015625 63.71875 
L 38.28125 63.71875 
Q 38.234375 67.390625 36.203125 69.28125 
Q 34.1875 71.1875 30.328125 71.1875 
Q 25.296875 71.1875 23.234375 68.421875 
Q 21.1875 65.671875 21.1875 58.59375 
L 21.1875 51.90625 
L 35.6875 51.90625 
L 35.6875 46.6875 
L 21.1875 46.6875 
L 21.1875 5.171875 
L 32.71875 5.171875 
L 32.71875 0 
L 3.609375 0 
L 3.609375 5.171875 
L 12.203125 5.171875 
L 12.203125 46.6875 
L 3.609375 46.6875 
L 3.609375 51.90625 
L 12.203125 51.90625 
L 12.203125 58.40625 
Q 12.203125 67.09375 16.71875 71.53125 
Q 21.234375 75.984375 29.984375 75.984375 
Q 33.25 75.984375 36.515625 75.390625 
Q 39.796875 74.8125 43.015625 73.578125 
z
" id="DejaVuSerif-102"/>
      <path d="M 35.40625 51.90625 
L 52.203125 51.90625 
L 52.203125 5.171875 
L 60.6875 5.171875 
L 60.6875 0 
L 43.21875 0 
L 43.21875 9.1875 
Q 40.71875 4 36.765625 1.28125 
Q 32.8125 -1.421875 27.59375 -1.421875 
Q 18.953125 -1.421875 14.875 3.484375 
Q 10.796875 8.40625 10.796875 18.890625 
L 10.796875 46.6875 
L 2.6875 46.6875 
L 2.6875 51.90625 
L 19.828125 51.90625 
L 19.828125 21.6875 
Q 19.828125 12.203125 22.140625 8.6875 
Q 24.46875 5.171875 30.421875 5.171875 
Q 36.671875 5.171875 39.9375 9.765625 
Q 43.21875 14.359375 43.21875 23.09375 
L 43.21875 46.6875 
L 35.40625 46.6875 
z
" id="DejaVuSerif-117"/>
      <path d="M 4.109375 0 
L 4.109375 5.171875 
L 12.203125 5.171875 
L 12.203125 46.6875 
L 3.609375 46.6875 
L 3.609375 51.90625 
L 21.1875 51.90625 
L 21.1875 42.671875 
Q 23.6875 47.953125 27.65625 50.640625 
Q 31.640625 53.328125 36.921875 53.328125 
Q 45.515625 53.328125 49.5625 48.390625 
Q 53.609375 43.453125 53.609375 33.015625 
L 53.609375 5.171875 
L 61.625 5.171875 
L 61.625 0 
L 36.8125 0 
L 36.8125 5.171875 
L 44.578125 5.171875 
L 44.578125 30.171875 
Q 44.578125 39.703125 42.234375 43.234375 
Q 39.890625 46.78125 33.984375 46.78125 
Q 27.734375 46.78125 24.453125 42.203125 
Q 21.1875 37.640625 21.1875 28.90625 
L 21.1875 5.171875 
L 29 5.171875 
L 29 0 
z
" id="DejaVuSerif-110"/>
      <path d="M 51.421875 15.578125 
Q 49.515625 7.28125 44.09375 2.921875 
Q 38.671875 -1.421875 30.078125 -1.421875 
Q 18.75 -1.421875 11.859375 6.078125 
Q 4.984375 13.578125 4.984375 25.984375 
Q 4.984375 38.421875 11.859375 45.875 
Q 18.75 53.328125 30.078125 53.328125 
Q 35.015625 53.328125 39.890625 52.171875 
Q 44.78125 51.03125 49.703125 48.6875 
L 49.703125 35.40625 
L 44.484375 35.40625 
Q 43.453125 42.234375 40.015625 45.359375 
Q 36.578125 48.484375 30.171875 48.484375 
Q 22.90625 48.484375 19.1875 42.84375 
Q 15.484375 37.203125 15.484375 25.984375 
Q 15.484375 14.75 19.171875 9.078125 
Q 22.859375 3.421875 30.171875 3.421875 
Q 35.984375 3.421875 39.453125 6.4375 
Q 42.921875 9.46875 44.1875 15.578125 
z
" id="DejaVuSerif-99"/>
      <path d="M 10.796875 46.6875 
L 2.875 46.6875 
L 2.875 51.90625 
L 10.796875 51.90625 
L 10.796875 68.015625 
L 19.828125 68.015625 
L 19.828125 51.90625 
L 36.71875 51.90625 
L 36.71875 46.6875 
L 19.828125 46.6875 
L 19.828125 13.71875 
Q 19.828125 7.125 21.09375 5.265625 
Q 22.359375 3.421875 25.78125 3.421875 
Q 29.296875 3.421875 30.90625 5.484375 
Q 32.515625 7.5625 32.625 12.203125 
L 39.40625 12.203125 
Q 39.015625 5.125 35.546875 1.84375 
Q 32.078125 -1.421875 25 -1.421875 
Q 17.234375 -1.421875 14.015625 2.015625 
Q 10.796875 5.46875 10.796875 13.71875 
z
" id="DejaVuSerif-116"/>
      <path d="M 30.078125 3.421875 
Q 37.3125 3.421875 40.984375 9.125 
Q 44.671875 14.84375 44.671875 25.984375 
Q 44.671875 37.109375 40.984375 42.796875 
Q 37.3125 48.484375 30.078125 48.484375 
Q 22.859375 48.484375 19.171875 42.796875 
Q 15.484375 37.109375 15.484375 25.984375 
Q 15.484375 14.84375 19.1875 9.125 
Q 22.90625 3.421875 30.078125 3.421875 
z
M 30.078125 -1.421875 
Q 18.75 -1.421875 11.859375 6.078125 
Q 4.984375 13.578125 4.984375 25.984375 
Q 4.984375 38.375 11.84375 45.84375 
Q 18.703125 53.328125 30.078125 53.328125 
Q 41.453125 53.328125 48.3125 45.84375 
Q 55.171875 38.375 55.171875 25.984375 
Q 55.171875 13.578125 48.3125 6.078125 
Q 41.453125 -1.421875 30.078125 -1.421875 
z
" id="DejaVuSerif-111"/>
     </defs>
     <use xlink:href="#DejaVuSerif-83"/>
     <use x="68.505859" xlink:href="#DejaVuSerif-112"/>
     <use x="132.519531" xlink:href="#DejaVuSerif-101"/>
     <use x="191.699219" xlink:href="#DejaVuSerif-101"/>
     <use x="250.878906" xlink:href="#DejaVuSerif-100"/>
     <use x="314.892578" xlink:href="#DejaVuSerif-32"/>
     <use x="346.679688" xlink:href="#DejaVuSerif-102"/>
     <use x="383.691406" xlink:href="#DejaVuSerif-117"/>
     <use x="448.095703" xlink:href="#DejaVuSerif-110"/>
     <use x="512.5" xlink:href="#DejaVuSerif-99"/>
     <use x="568.505859" xlink:href="#DejaVuSerif-116"/>
     <use x="608.691406" xlink:href="#DejaVuSerif-105"/>
     <use x="640.673828" xlink:href="#DejaVuSerif-111"/>
     <use x="700.878906" xlink:href="#DejaVuSerif-110"/>
     <use x="765.283203" xlink:href="#DejaVuSerif-32"/>
     <use x="797.070312" xlink:href="#DejaVuSerif-111"/>
     <use x="857.275391" xlink:href="#DejaVuSerif-102"/>
     <use x="894.287109" xlink:href="#DejaVuSerif-32"/>
     <use x="926.074219" xlink:href="#DejaVuSerif-116"/>
     <use x="966.259766" xlink:href="#DejaVuSerif-105"/>
     <use x="998.242188" xlink:href="#DejaVuSerif-109"/>
     <use x="1093.066406" xlink:href="#DejaVuSerif-101"/>
    </g>
   </g>
  </g>
 </g>
 <defs>
  <clipPath id="p64f66b3576">
   <rect height="266.112" width="357.12" x="57.6" y="41.472"/>
  </clipPath>
 </defs>
</svg>
