<?xml version="1.0" encoding="utf-8" standalone="no"?>
<!DOCTYPE svg PUBLIC "-//W3C//DTD SVG 1.1//EN"
  "http://www.w3.org/Graphics/SVG/1.1/DTD/svg11.dtd">
<!-- Created with matplotlib (https://matplotlib.org/) -->
<svg height="345.6pt" version="1.1" viewBox="0 0 460.8 345.6" width="460.8pt" xmlns="http://www.w3.org/2000/svg" xmlns:xlink="http://www.w3.org/1999/xlink">
 <metadata>
  <rdf:RDF xmlns:cc="http://creativecommons.org/ns#" xmlns:dc="http://purl.org/dc/elements/1.1/" xmlns:rdf="http://www.w3.org/1999/02/22-rdf-syntax-ns#">
   <cc:Work>
    <dc:type rdf:resource="http://purl.org/dc/dcmitype/StillImage"/>
    <dc:date>2023-01-24T13:49:35.767380</dc:date>
    <dc:format>image/svg+xml</dc:format>
    <dc:creator>
     <cc:Agent>
      <dc:title>Matplotlib v3.3.4, https://matplotlib.org/</dc:title>
     </cc:Agent>
    </dc:creator>
   </cc:Work>
  </rdf:RDF>
 </metadata>
 <defs>
  <style type="text/css">*{stroke-linecap:butt;stroke-linejoin:round;}</style>
 </defs>
 <g id="figure_1">
  <g id="patch_1">
   <path d="M 0 345.6 
L 460.8 345.6 
L 460.8 0 
L 0 0 
z
" style="fill:#ffffff;"/>
  </g>
  <g id="axes_1">
   <g id="patch_2">
    <path d="M 57.6 307.584 
L 414.72 307.584 
L 414.72 41.472 
L 57.6 41.472 
z
" style="fill:#ffffff;"/>
   </g>
   <g id="matplotlib.axis_1">
    <g id="xtick_1">
     <g id="line2d_1">
      <defs>
       <path d="M 0 0 
L 0 3.5 
" id="m0d307cf397" style="stroke:#000000;stroke-width:0.8;"/>
      </defs>
      <g>
       <use style="stroke:#000000;stroke-width:0.8;" x="70.830973" xlink:href="#m0d307cf397" y="307.584"/>
      </g>
     </g>
     <g id="text_1">
      <!-- 60 -->
      <g transform="translate(64.468473 322.182437)scale(0.1 -0.1)">
       <defs>
        <path d="M 32.71875 3.421875 
Q 39.59375 3.421875 43.296875 8.46875 
Q 47.015625 13.53125 47.015625 23 
Q 47.015625 32.46875 43.296875 37.515625 
Q 39.59375 42.578125 32.71875 42.578125 
Q 25.734375 42.578125 22.0625 37.6875 
Q 18.40625 32.8125 18.40625 23.578125 
Q 18.40625 13.875 22.109375 8.640625 
Q 25.828125 3.421875 32.71875 3.421875 
z
M 16.796875 40.140625 
Q 20.125 43.796875 24.3125 45.59375 
Q 28.515625 47.40625 33.796875 47.40625 
Q 44.671875 47.40625 51 40.859375 
Q 57.328125 34.328125 57.328125 23 
Q 57.328125 11.921875 50.515625 5.25 
Q 43.703125 -1.421875 32.328125 -1.421875 
Q 19.96875 -1.421875 13.328125 7.78125 
Q 6.6875 17 6.6875 34.078125 
Q 6.6875 53.21875 14.546875 63.71875 
Q 22.40625 74.21875 36.71875 74.21875 
Q 40.578125 74.21875 44.828125 73.484375 
Q 49.078125 72.75 53.515625 71.296875 
L 53.515625 59.28125 
L 48 59.28125 
Q 47.40625 64.203125 44.234375 66.796875 
Q 41.0625 69.390625 35.6875 69.390625 
Q 26.21875 69.390625 21.578125 62.203125 
Q 16.9375 55.03125 16.796875 40.140625 
z
" id="DejaVuSerif-54"/>
        <path d="M 31.78125 3.421875 
Q 39.265625 3.421875 42.96875 11.625 
Q 46.6875 19.828125 46.6875 36.375 
Q 46.6875 52.984375 42.96875 61.1875 
Q 39.265625 69.390625 31.78125 69.390625 
Q 24.3125 69.390625 20.59375 61.1875 
Q 16.890625 52.984375 16.890625 36.375 
Q 16.890625 19.828125 20.59375 11.625 
Q 24.3125 3.421875 31.78125 3.421875 
z
M 31.78125 -1.421875 
Q 19.921875 -1.421875 13.25 8.53125 
Q 6.59375 18.5 6.59375 36.375 
Q 6.59375 54.296875 13.25 64.25 
Q 19.921875 74.21875 31.78125 74.21875 
Q 43.703125 74.21875 50.34375 64.25 
Q 56.984375 54.296875 56.984375 36.375 
Q 56.984375 18.5 50.34375 8.53125 
Q 43.703125 -1.421875 31.78125 -1.421875 
z
" id="DejaVuSerif-48"/>
       </defs>
       <use xlink:href="#DejaVuSerif-54"/>
       <use x="63.623047" xlink:href="#DejaVuSerif-48"/>
      </g>
     </g>
    </g>
    <g id="xtick_2">
     <g id="line2d_2">
      <g>
       <use style="stroke:#000000;stroke-width:0.8;" x="113.109205" xlink:href="#m0d307cf397" y="307.584"/>
      </g>
     </g>
     <g id="text_2">
      <!-- 80 -->
      <g transform="translate(106.746705 322.182437)scale(0.1 -0.1)">
       <defs>
        <path d="M 46.578125 19.921875 
Q 46.578125 27.734375 42.6875 32.046875 
Q 38.8125 36.375 31.78125 36.375 
Q 24.75 36.375 20.875 32.046875 
Q 17 27.734375 17 19.921875 
Q 17 12.0625 20.875 7.734375 
Q 24.75 3.421875 31.78125 3.421875 
Q 38.8125 3.421875 42.6875 7.734375 
Q 46.578125 12.0625 46.578125 19.921875 
z
M 44.578125 55.328125 
Q 44.578125 61.96875 41.203125 65.671875 
Q 37.84375 69.390625 31.78125 69.390625 
Q 25.78125 69.390625 22.390625 65.671875 
Q 19 61.96875 19 55.328125 
Q 19 48.640625 22.390625 44.921875 
Q 25.78125 41.21875 31.78125 41.21875 
Q 37.84375 41.21875 41.203125 44.921875 
Q 44.578125 48.640625 44.578125 55.328125 
z
M 39.3125 38.8125 
Q 47.609375 37.703125 52.25 32.6875 
Q 56.890625 27.6875 56.890625 19.921875 
Q 56.890625 9.671875 50.390625 4.125 
Q 43.890625 -1.421875 31.78125 -1.421875 
Q 19.734375 -1.421875 13.203125 4.125 
Q 6.6875 9.671875 6.6875 19.921875 
Q 6.6875 27.6875 11.328125 32.6875 
Q 15.96875 37.703125 24.3125 38.8125 
Q 16.9375 40.140625 13 44.40625 
Q 9.078125 48.6875 9.078125 55.328125 
Q 9.078125 64.109375 15.125 69.15625 
Q 21.1875 74.21875 31.78125 74.21875 
Q 42.390625 74.21875 48.4375 69.15625 
Q 54.5 64.109375 54.5 55.328125 
Q 54.5 48.6875 50.5625 44.40625 
Q 46.625 40.140625 39.3125 38.8125 
z
" id="DejaVuSerif-56"/>
       </defs>
       <use xlink:href="#DejaVuSerif-56"/>
       <use x="63.623047" xlink:href="#DejaVuSerif-48"/>
      </g>
     </g>
    </g>
    <g id="xtick_3">
     <g id="line2d_3">
      <g>
       <use style="stroke:#000000;stroke-width:0.8;" x="155.387437" xlink:href="#m0d307cf397" y="307.584"/>
      </g>
     </g>
     <g id="text_3">
      <!-- 100 -->
      <g transform="translate(145.843687 322.182437)scale(0.1 -0.1)">
       <defs>
        <path d="M 14.203125 0 
L 14.203125 5.171875 
L 26.90625 5.171875 
L 26.90625 65.828125 
L 12.203125 56.296875 
L 12.203125 62.703125 
L 29.984375 74.21875 
L 36.71875 74.21875 
L 36.71875 5.171875 
L 49.421875 5.171875 
L 49.421875 0 
z
" id="DejaVuSerif-49"/>
       </defs>
       <use xlink:href="#DejaVuSerif-49"/>
       <use x="63.623047" xlink:href="#DejaVuSerif-48"/>
       <use x="127.246094" xlink:href="#DejaVuSerif-48"/>
      </g>
     </g>
    </g>
    <g id="xtick_4">
     <g id="line2d_4">
      <g>
       <use style="stroke:#000000;stroke-width:0.8;" x="197.66567" xlink:href="#m0d307cf397" y="307.584"/>
      </g>
     </g>
     <g id="text_4">
      <!-- 120 -->
      <g transform="translate(188.12192 322.182437)scale(0.1 -0.1)">
       <defs>
        <path d="M 12.796875 55.515625 
L 7.328125 55.515625 
L 7.328125 68.5 
Q 12.546875 71.296875 17.84375 72.75 
Q 23.140625 74.21875 28.21875 74.21875 
Q 39.59375 74.21875 46.1875 68.703125 
Q 52.78125 63.1875 52.78125 53.71875 
Q 52.78125 43.015625 37.84375 28.125 
Q 36.671875 27 36.078125 26.421875 
L 17.671875 8.015625 
L 48.09375 8.015625 
L 48.09375 17 
L 53.8125 17 
L 53.8125 0 
L 6.78125 0 
L 6.78125 5.328125 
L 28.90625 27.390625 
Q 36.234375 34.71875 39.359375 40.84375 
Q 42.484375 46.96875 42.484375 53.71875 
Q 42.484375 61.078125 38.640625 65.234375 
Q 34.8125 69.390625 28.078125 69.390625 
Q 21.09375 69.390625 17.28125 65.921875 
Q 13.484375 62.453125 12.796875 55.515625 
z
" id="DejaVuSerif-50"/>
       </defs>
       <use xlink:href="#DejaVuSerif-49"/>
       <use x="63.623047" xlink:href="#DejaVuSerif-50"/>
       <use x="127.246094" xlink:href="#DejaVuSerif-48"/>
      </g>
     </g>
    </g>
    <g id="xtick_5">
     <g id="line2d_5">
      <g>
       <use style="stroke:#000000;stroke-width:0.8;" x="239.943902" xlink:href="#m0d307cf397" y="307.584"/>
      </g>
     </g>
     <g id="text_5">
      <!-- 140 -->
      <g transform="translate(230.400152 322.182437)scale(0.1 -0.1)">
       <defs>
        <path d="M 34.90625 24.703125 
L 34.90625 63.484375 
L 10.015625 24.703125 
z
M 56.390625 0 
L 23.1875 0 
L 23.1875 5.171875 
L 34.90625 5.171875 
L 34.90625 19.484375 
L 3.078125 19.484375 
L 3.078125 24.8125 
L 35.015625 74.21875 
L 44.671875 74.21875 
L 44.671875 24.703125 
L 58.59375 24.703125 
L 58.59375 19.484375 
L 44.671875 19.484375 
L 44.671875 5.171875 
L 56.390625 5.171875 
z
" id="DejaVuSerif-52"/>
       </defs>
       <use xlink:href="#DejaVuSerif-49"/>
       <use x="63.623047" xlink:href="#DejaVuSerif-52"/>
       <use x="127.246094" xlink:href="#DejaVuSerif-48"/>
      </g>
     </g>
    </g>
    <g id="xtick_6">
     <g id="line2d_6">
      <g>
       <use style="stroke:#000000;stroke-width:0.8;" x="282.222134" xlink:href="#m0d307cf397" y="307.584"/>
      </g>
     </g>
     <g id="text_6">
      <!-- 160 -->
      <g transform="translate(272.678384 322.182437)scale(0.1 -0.1)">
       <use xlink:href="#DejaVuSerif-49"/>
       <use x="63.623047" xlink:href="#DejaVuSerif-54"/>
       <use x="127.246094" xlink:href="#DejaVuSerif-48"/>
      </g>
     </g>
    </g>
    <g id="xtick_7">
     <g id="line2d_7">
      <g>
       <use style="stroke:#000000;stroke-width:0.8;" x="324.500366" xlink:href="#m0d307cf397" y="307.584"/>
      </g>
     </g>
     <g id="text_7">
      <!-- 180 -->
      <g transform="translate(314.956616 322.182437)scale(0.1 -0.1)">
       <use xlink:href="#DejaVuSerif-49"/>
       <use x="63.623047" xlink:href="#DejaVuSerif-56"/>
       <use x="127.246094" xlink:href="#DejaVuSerif-48"/>
      </g>
     </g>
    </g>
    <g id="xtick_8">
     <g id="line2d_8">
      <g>
       <use style="stroke:#000000;stroke-width:0.8;" x="366.778599" xlink:href="#m0d307cf397" y="307.584"/>
      </g>
     </g>
     <g id="text_8">
      <!-- 200 -->
      <g transform="translate(357.234849 322.182437)scale(0.1 -0.1)">
       <use xlink:href="#DejaVuSerif-50"/>
       <use x="63.623047" xlink:href="#DejaVuSerif-48"/>
       <use x="127.246094" xlink:href="#DejaVuSerif-48"/>
      </g>
     </g>
    </g>
    <g id="xtick_9">
     <g id="line2d_9">
      <g>
       <use style="stroke:#000000;stroke-width:0.8;" x="409.056831" xlink:href="#m0d307cf397" y="307.584"/>
      </g>
     </g>
     <g id="text_9">
      <!-- 220 -->
      <g transform="translate(399.513081 322.182437)scale(0.1 -0.1)">
       <use xlink:href="#DejaVuSerif-50"/>
       <use x="63.623047" xlink:href="#DejaVuSerif-50"/>
       <use x="127.246094" xlink:href="#DejaVuSerif-48"/>
      </g>
     </g>
    </g>
    <g id="text_10">
     <!-- Time -->
     <g transform="translate(223.524844 335.860562)scale(0.1 -0.1)">
      <defs>
       <path d="M 19.09375 0 
L 19.09375 5.171875 
L 28.421875 5.171875 
L 28.421875 67.09375 
L 6.984375 67.09375 
L 6.984375 55.71875 
L 0.984375 55.71875 
L 0.984375 72.90625 
L 65.71875 72.90625 
L 65.71875 55.71875 
L 59.71875 55.71875 
L 59.71875 67.09375 
L 38.28125 67.09375 
L 38.28125 5.171875 
L 47.609375 5.171875 
L 47.609375 0 
z
" id="DejaVuSerif-84"/>
       <path d="M 9.71875 68.015625 
Q 9.71875 70.265625 11.34375 71.921875 
Q 12.984375 73.578125 15.28125 73.578125 
Q 17.53125 73.578125 19.15625 71.921875 
Q 20.796875 70.265625 20.796875 68.015625 
Q 20.796875 65.71875 19.1875 64.109375 
Q 17.578125 62.5 15.28125 62.5 
Q 12.984375 62.5 11.34375 64.109375 
Q 9.71875 65.71875 9.71875 68.015625 
z
M 21.1875 5.171875 
L 29.6875 5.171875 
L 29.6875 0 
L 3.609375 0 
L 3.609375 5.171875 
L 12.203125 5.171875 
L 12.203125 46.6875 
L 3.609375 46.6875 
L 3.609375 51.90625 
L 21.1875 51.90625 
z
" id="DejaVuSerif-105"/>
       <path d="M 51.8125 41.796875 
Q 54.390625 47.515625 58.421875 50.421875 
Q 62.453125 53.328125 67.828125 53.328125 
Q 75.984375 53.328125 79.984375 48.265625 
Q 83.984375 43.21875 83.984375 33.015625 
L 83.984375 5.171875 
L 92.09375 5.171875 
L 92.09375 0 
L 67.1875 0 
L 67.1875 5.171875 
L 75 5.171875 
L 75 31.984375 
Q 75 39.9375 72.65625 43.3125 
Q 70.3125 46.6875 64.890625 46.6875 
Q 58.890625 46.6875 55.734375 42.140625 
Q 52.59375 37.59375 52.59375 28.90625 
L 52.59375 5.171875 
L 60.40625 5.171875 
L 60.40625 0 
L 35.796875 0 
L 35.796875 5.171875 
L 43.609375 5.171875 
L 43.609375 32.328125 
Q 43.609375 40.09375 41.265625 43.390625 
Q 38.921875 46.6875 33.5 46.6875 
Q 27.484375 46.6875 24.328125 42.140625 
Q 21.1875 37.59375 21.1875 28.90625 
L 21.1875 5.171875 
L 29 5.171875 
L 29 0 
L 4.109375 0 
L 4.109375 5.171875 
L 12.203125 5.171875 
L 12.203125 46.78125 
L 3.609375 46.78125 
L 3.609375 51.90625 
L 21.1875 51.90625 
L 21.1875 42.671875 
Q 23.6875 47.859375 27.53125 50.59375 
Q 31.390625 53.328125 36.28125 53.328125 
Q 42.328125 53.328125 46.375 50.3125 
Q 50.4375 47.3125 51.8125 41.796875 
z
" id="DejaVuSerif-109"/>
       <path d="M 54.203125 25 
L 15.484375 25 
L 15.484375 24.609375 
Q 15.484375 14.109375 19.4375 8.765625 
Q 23.390625 3.421875 31.109375 3.421875 
Q 37.015625 3.421875 40.796875 6.515625 
Q 44.578125 9.625 46.09375 15.71875 
L 53.328125 15.71875 
Q 51.171875 7.171875 45.375 2.875 
Q 39.59375 -1.421875 30.171875 -1.421875 
Q 18.796875 -1.421875 11.890625 6.078125 
Q 4.984375 13.578125 4.984375 25.984375 
Q 4.984375 38.28125 11.765625 45.796875 
Q 18.5625 53.328125 29.59375 53.328125 
Q 41.359375 53.328125 47.65625 46.0625 
Q 53.953125 38.8125 54.203125 25 
z
M 43.609375 30.171875 
Q 43.3125 39.265625 39.765625 43.875 
Q 36.234375 48.484375 29.59375 48.484375 
Q 23.390625 48.484375 19.828125 43.84375 
Q 16.265625 39.203125 15.484375 30.171875 
z
" id="DejaVuSerif-101"/>
      </defs>
      <use xlink:href="#DejaVuSerif-84"/>
      <use x="66.699219" xlink:href="#DejaVuSerif-105"/>
      <use x="98.681641" xlink:href="#DejaVuSerif-109"/>
      <use x="193.505859" xlink:href="#DejaVuSerif-101"/>
     </g>
    </g>
   </g>
   <g id="matplotlib.axis_2">
    <g id="ytick_1">
     <g id="line2d_10">
      <defs>
       <path d="M 0 0 
L -3.5 0 
" id="med0b91d01f" style="stroke:#000000;stroke-width:0.8;"/>
      </defs>
      <g>
       <use style="stroke:#000000;stroke-width:0.8;" x="57.6" xlink:href="#med0b91d01f" y="305.568"/>
      </g>
     </g>
     <g id="text_11">
      <!-- 3.5 -->
      <g transform="translate(34.696875 309.367219)scale(0.1 -0.1)">
       <defs>
        <path d="M 9.71875 69.828125 
Q 15.4375 71.96875 20.671875 73.09375 
Q 25.921875 74.21875 30.515625 74.21875 
Q 41.21875 74.21875 47.21875 69.59375 
Q 53.21875 64.984375 53.21875 56.78125 
Q 53.21875 50.203125 49.0625 45.78125 
Q 44.921875 41.359375 37.3125 39.796875 
Q 46.296875 38.53125 51.25 33.28125 
Q 56.203125 28.03125 56.203125 19.671875 
Q 56.203125 9.46875 49.34375 4.015625 
Q 42.484375 -1.421875 29.59375 -1.421875 
Q 23.875 -1.421875 18.421875 -0.1875 
Q 12.984375 1.03125 7.625 3.515625 
L 7.625 17.671875 
L 13.09375 17.671875 
Q 13.578125 10.640625 17.828125 7.03125 
Q 22.078125 3.421875 29.78125 3.421875 
Q 37.25 3.421875 41.578125 7.734375 
Q 45.90625 12.0625 45.90625 19.578125 
Q 45.90625 28.171875 41.453125 32.59375 
Q 37.015625 37.015625 28.421875 37.015625 
L 23.78125 37.015625 
L 23.78125 42 
L 26.21875 42 
Q 34.765625 42 39.03125 45.53125 
Q 43.3125 49.078125 43.3125 56.203125 
Q 43.3125 62.59375 39.796875 65.984375 
Q 36.28125 69.390625 29.6875 69.390625 
Q 23.09375 69.390625 19.453125 66.265625 
Q 15.828125 63.140625 15.1875 56.984375 
L 9.71875 56.984375 
z
" id="DejaVuSerif-51"/>
        <path d="M 9.421875 5.078125 
Q 9.421875 7.8125 11.28125 9.71875 
Q 13.140625 11.625 15.921875 11.625 
Q 18.609375 11.625 20.5 9.71875 
Q 22.40625 7.8125 22.40625 5.078125 
Q 22.40625 2.390625 20.5 0.484375 
Q 18.609375 -1.421875 15.921875 -1.421875 
Q 13.140625 -1.421875 11.28125 0.453125 
Q 9.421875 2.34375 9.421875 5.078125 
z
" id="DejaVuSerif-46"/>
        <path d="M 50.296875 72.90625 
L 50.296875 64.890625 
L 16.890625 64.890625 
L 16.890625 44 
Q 19.4375 45.75 22.828125 46.625 
Q 26.21875 47.515625 30.421875 47.515625 
Q 42.234375 47.515625 49.0625 40.96875 
Q 55.90625 34.421875 55.90625 23.09375 
Q 55.90625 11.53125 49 5.046875 
Q 42.09375 -1.421875 29.59375 -1.421875 
Q 24.5625 -1.421875 19.28125 -0.1875 
Q 14.015625 1.03125 8.5 3.515625 
L 8.5 17.671875 
L 14.015625 17.671875 
Q 14.453125 10.75 18.421875 7.078125 
Q 22.40625 3.421875 29.59375 3.421875 
Q 37.3125 3.421875 41.453125 8.5 
Q 45.609375 13.578125 45.609375 23.09375 
Q 45.609375 32.5625 41.484375 37.609375 
Q 37.359375 42.671875 29.59375 42.671875 
Q 25.203125 42.671875 21.84375 41.109375 
Q 18.5 39.546875 15.921875 36.28125 
L 11.71875 36.28125 
L 11.71875 72.90625 
z
" id="DejaVuSerif-53"/>
       </defs>
       <use xlink:href="#DejaVuSerif-51"/>
       <use x="63.623047" xlink:href="#DejaVuSerif-46"/>
       <use x="95.410156" xlink:href="#DejaVuSerif-53"/>
      </g>
     </g>
    </g>
    <g id="ytick_2">
     <g id="line2d_11">
      <g>
       <use style="stroke:#000000;stroke-width:0.8;" x="57.6" xlink:href="#med0b91d01f" y="255.168"/>
      </g>
     </g>
     <g id="text_12">
      <!-- 4.0 -->
      <g transform="translate(34.696875 258.967219)scale(0.1 -0.1)">
       <use xlink:href="#DejaVuSerif-52"/>
       <use x="63.623047" xlink:href="#DejaVuSerif-46"/>
       <use x="95.410156" xlink:href="#DejaVuSerif-48"/>
      </g>
     </g>
    </g>
    <g id="ytick_3">
     <g id="line2d_12">
      <g>
       <use style="stroke:#000000;stroke-width:0.8;" x="57.6" xlink:href="#med0b91d01f" y="204.768"/>
      </g>
     </g>
     <g id="text_13">
      <!-- 4.5 -->
      <g transform="translate(34.696875 208.567219)scale(0.1 -0.1)">
       <use xlink:href="#DejaVuSerif-52"/>
       <use x="63.623047" xlink:href="#DejaVuSerif-46"/>
       <use x="95.410156" xlink:href="#DejaVuSerif-53"/>
      </g>
     </g>
    </g>
    <g id="ytick_4">
     <g id="line2d_13">
      <g>
       <use style="stroke:#000000;stroke-width:0.8;" x="57.6" xlink:href="#med0b91d01f" y="154.368"/>
      </g>
     </g>
     <g id="text_14">
      <!-- 5.0 -->
      <g transform="translate(34.696875 158.167219)scale(0.1 -0.1)">
       <use xlink:href="#DejaVuSerif-53"/>
       <use x="63.623047" xlink:href="#DejaVuSerif-46"/>
       <use x="95.410156" xlink:href="#DejaVuSerif-48"/>
      </g>
     </g>
    </g>
    <g id="ytick_5">
     <g id="line2d_14">
      <g>
       <use style="stroke:#000000;stroke-width:0.8;" x="57.6" xlink:href="#med0b91d01f" y="103.968"/>
      </g>
     </g>
     <g id="text_15">
      <!-- 5.5 -->
      <g transform="translate(34.696875 107.767219)scale(0.1 -0.1)">
       <use xlink:href="#DejaVuSerif-53"/>
       <use x="63.623047" xlink:href="#DejaVuSerif-46"/>
       <use x="95.410156" xlink:href="#DejaVuSerif-53"/>
      </g>
     </g>
    </g>
    <g id="ytick_6">
     <g id="line2d_15">
      <g>
       <use style="stroke:#000000;stroke-width:0.8;" x="57.6" xlink:href="#med0b91d01f" y="53.568"/>
      </g>
     </g>
     <g id="text_16">
      <!-- 6.0 -->
      <g transform="translate(34.696875 57.367219)scale(0.1 -0.1)">
       <use xlink:href="#DejaVuSerif-54"/>
       <use x="63.623047" xlink:href="#DejaVuSerif-46"/>
       <use x="95.410156" xlink:href="#DejaVuSerif-48"/>
      </g>
     </g>
    </g>
    <g id="text_17">
     <!-- Speed -->
     <g transform="translate(28.617187 190.273313)rotate(-90)scale(0.1 -0.1)">
      <defs>
       <path d="M 9.28125 3.515625 
L 9.28125 20.125 
L 14.890625 20.0625 
Q 15.140625 11.765625 19.703125 7.78125 
Q 24.265625 3.8125 33.59375 3.8125 
Q 42.28125 3.8125 46.84375 7.25 
Q 51.421875 10.6875 51.421875 17.28125 
Q 51.421875 22.5625 48.65625 25.390625 
Q 45.90625 28.21875 37.015625 30.90625 
L 27.390625 33.796875 
Q 16.9375 36.96875 12.671875 41.703125 
Q 8.40625 46.4375 8.40625 54.6875 
Q 8.40625 63.96875 14.984375 69.09375 
Q 21.578125 74.21875 33.5 74.21875 
Q 38.578125 74.21875 44.625 73.109375 
Q 50.6875 72.015625 57.515625 69.921875 
L 57.515625 54.390625 
L 52 54.390625 
Q 51.171875 62.109375 46.84375 65.546875 
Q 42.53125 69 33.6875 69 
Q 25.984375 69 21.953125 65.84375 
Q 17.921875 62.703125 17.921875 56.6875 
Q 17.921875 51.46875 20.9375 48.484375 
Q 23.96875 45.515625 33.796875 42.578125 
L 42.828125 39.890625 
Q 52.734375 36.921875 56.953125 32.296875 
Q 61.1875 27.6875 61.1875 19.921875 
Q 61.1875 9.328125 54.390625 3.953125 
Q 47.609375 -1.421875 34.1875 -1.421875 
Q 28.171875 -1.421875 21.9375 -0.1875 
Q 15.71875 1.03125 9.28125 3.515625 
z
" id="DejaVuSerif-83"/>
       <path d="M 20.515625 28.515625 
L 20.515625 23.390625 
Q 20.515625 14.015625 24.09375 9.109375 
Q 27.6875 4.203125 34.515625 4.203125 
Q 41.40625 4.203125 44.9375 9.71875 
Q 48.484375 15.234375 48.484375 25.984375 
Q 48.484375 36.765625 44.9375 42.234375 
Q 41.40625 47.703125 34.515625 47.703125 
Q 27.6875 47.703125 24.09375 42.765625 
Q 20.515625 37.84375 20.515625 28.515625 
z
M 11.53125 46.6875 
L 2.875 46.6875 
L 2.875 51.90625 
L 20.515625 51.90625 
L 20.515625 43.796875 
Q 23.140625 48.6875 27.21875 51 
Q 31.296875 53.328125 37.3125 53.328125 
Q 46.875 53.328125 52.921875 45.75 
Q 58.984375 38.1875 58.984375 25.984375 
Q 58.984375 13.765625 52.921875 6.171875 
Q 46.875 -1.421875 37.3125 -1.421875 
Q 31.296875 -1.421875 27.21875 0.890625 
Q 23.140625 3.21875 20.515625 8.109375 
L 20.515625 -15.578125 
L 29 -15.578125 
L 29 -20.796875 
L 2.875 -20.796875 
L 2.875 -15.578125 
L 11.53125 -15.578125 
z
" id="DejaVuSerif-112"/>
       <path d="M 52.484375 5.171875 
L 61.078125 5.171875 
L 61.078125 0 
L 43.5 0 
L 43.5 8.109375 
Q 40.875 3.21875 36.796875 0.890625 
Q 32.71875 -1.421875 26.703125 -1.421875 
Q 17.140625 -1.421875 11.0625 6.171875 
Q 4.984375 13.765625 4.984375 25.984375 
Q 4.984375 38.1875 11.03125 45.75 
Q 17.09375 53.328125 26.703125 53.328125 
Q 32.71875 53.328125 36.796875 51 
Q 40.875 48.6875 43.5 43.796875 
L 43.5 70.796875 
L 35.015625 70.796875 
L 35.015625 75.984375 
L 52.484375 75.984375 
z
M 43.5 23.390625 
L 43.5 28.515625 
Q 43.5 37.84375 39.90625 42.765625 
Q 36.328125 47.703125 29.5 47.703125 
Q 22.5625 47.703125 19.015625 42.234375 
Q 15.484375 36.765625 15.484375 25.984375 
Q 15.484375 15.234375 19.015625 9.71875 
Q 22.5625 4.203125 29.5 4.203125 
Q 36.328125 4.203125 39.90625 9.109375 
Q 43.5 14.015625 43.5 23.390625 
z
" id="DejaVuSerif-100"/>
      </defs>
      <use xlink:href="#DejaVuSerif-83"/>
      <use x="68.505859" xlink:href="#DejaVuSerif-112"/>
      <use x="132.519531" xlink:href="#DejaVuSerif-101"/>
      <use x="191.699219" xlink:href="#DejaVuSerif-101"/>
      <use x="250.878906" xlink:href="#DejaVuSerif-100"/>
     </g>
    </g>
   </g>
   <g id="line2d_16">
    <path clip-path="url(#p1b80bdca6c)" d="M 73.832727 204.768 
L 74.170953 204.768 
L 74.361205 53.568 
L 74.530318 204.768 
L 74.699431 174.528 
L 75.058796 174.528 
L 75.227909 295.488 
L 75.418161 174.528 
L 75.587274 154.368 
L 75.946639 154.368 
L 76.115752 255.168 
L 76.284865 154.368 
L 76.475117 139.968 
L 76.64423 139.968 
L 76.813343 226.368 
L 77.172708 226.368 
L 77.341821 204.768 
L 77.532073 129.168 
L 77.701186 204.768 
L 78.06055 204.768 
L 78.229663 187.968 
L 78.927254 187.968 
L 79.117506 174.528 
L 79.286619 235.008 
L 79.455732 174.528 
L 79.815097 174.528 
L 79.98421 218.513455 
L 80.174462 218.513455 
L 80.343575 163.531636 
L 80.70294 163.531636 
L 80.872053 204.768 
L 81.231418 204.768 
L 81.400531 154.368 
L 81.569644 204.768 
L 81.759896 193.137231 
L 82.098122 193.137231 
L 82.288374 146.614154 
L 82.457487 193.137231 
L 82.6266 183.168 
L 82.985965 183.168 
L 83.155077 226.368 
L 83.34533 183.168 
L 83.514442 174.528 
L 83.873807 174.528 
L 84.04292 214.848 
L 84.212033 174.528 
L 84.402285 166.968 
L 84.571398 166.968 
L 84.740511 204.768 
L 85.099876 204.768 
L 85.268989 195.873882 
L 85.459241 160.297412 
L 85.628354 195.873882 
L 85.987719 195.873882 
L 86.156832 187.968 
L 86.854423 187.968 
L 87.044675 180.894316 
L 87.213788 212.725895 
L 87.382901 180.894316 
L 87.742266 180.894316 
L 87.911379 204.768 
L 88.101631 204.768 
L 88.270744 174.528 
L 88.630109 174.528 
L 88.799221 197.568 
L 89.158586 197.568 
L 89.327699 168.768 
L 89.496812 197.568 
L 89.687064 191.022545 
L 90.02529 191.022545 
L 90.215542 163.531636 
L 90.384655 191.022545 
L 90.553768 185.046261 
L 90.913133 185.046261 
L 91.082246 211.341913 
L 91.272498 185.046261 
L 91.441611 179.568 
L 91.800976 179.568 
L 91.970089 204.768 
L 92.139202 179.568 
L 92.329454 174.528 
L 92.498567 174.528 
L 92.66768 198.72 
L 93.027045 198.72 
L 93.196158 193.137231 
L 93.38641 169.875692 
L 93.555523 193.137231 
L 93.914888 193.137231 
L 94.084001 187.968 
L 94.781591 187.968 
L 94.971843 183.168 
L 95.140956 204.768 
L 95.310069 183.168 
L 95.669434 183.168 
L 95.838547 199.554207 
L 96.028799 199.554207 
L 96.197912 178.699034 
L 96.557277 178.699034 
L 96.72639 194.688 
L 97.085755 194.688 
L 97.254868 174.528 
L 97.423981 194.688 
L 97.614233 190.135742 
L 97.952459 190.135742 
L 98.142711 170.626065 
L 98.311824 190.135742 
L 98.480937 185.868 
L 98.840302 185.868 
L 99.009415 204.768 
L 99.199667 185.868 
L 99.36878 181.858909 
L 99.728145 181.858909 
L 99.897257 200.186182 
L 100.06637 181.858909 
L 100.256622 178.085647 
L 100.425735 178.085647 
L 100.594848 195.873882 
L 100.954213 195.873882 
L 101.123326 191.808 
L 101.313578 174.528 
L 101.482691 191.808 
L 101.842056 191.808 
L 102.011169 187.968 
L 102.70876 187.968 
L 102.899012 184.335568 
L 103.068125 200.681514 
L 103.237238 184.335568 
L 103.596603 184.335568 
L 103.765716 196.810105 
L 103.955968 196.810105 
L 104.125081 180.894316 
L 104.484446 180.894316 
L 104.653559 193.137231 
L 105.012924 193.137231 
L 105.182036 177.629538 
L 105.351149 193.137231 
L 105.541401 189.648 
L 105.879627 189.648 
L 106.069879 174.528 
L 106.238992 189.648 
L 106.408105 186.328976 
L 106.76747 186.328976 
L 106.936583 201.080195 
L 107.126835 186.328976 
L 107.295948 183.168 
L 107.655313 183.168 
L 107.824426 197.568 
L 107.993539 183.168 
L 108.183791 180.154047 
L 108.352904 180.154047 
L 108.522017 194.219163 
L 108.881382 194.219163 
L 109.050495 191.022545 
L 109.240747 177.277091 
L 109.40986 191.022545 
L 109.769225 191.022545 
L 109.938338 187.968 
L 110.635928 187.968 
L 110.82618 185.046261 
L 110.995293 198.194087 
L 111.164406 185.046261 
L 111.523771 185.046261 
L 111.692884 195.116936 
L 111.883136 195.116936 
L 112.052249 182.248851 
L 112.411614 182.248851 
L 112.580727 192.168 
L 112.940092 192.168 
L 113.109205 179.568 
L 113.278318 192.168 
L 113.46857 189.339429 
L 113.806796 189.339429 
L 113.997048 176.996571 
L 114.166161 189.339429 
L 114.335274 186.624 
L 114.694639 186.624 
L 114.863752 198.72 
L 115.054004 186.624 
L 115.223117 184.015059 
L 115.582482 184.015059 
L 115.751595 195.873882 
L 115.920707 184.015059 
L 116.11096 181.506462 
L 116.280072 181.506462 
L 116.449185 193.137231 
L 116.80855 193.137231 
L 116.977663 190.503849 
L 117.167915 179.092528 
L 117.337028 190.503849 
L 117.696393 190.503849 
L 117.865506 187.968 
L 118.563097 187.968 
L 118.753349 185.524364 
L 118.922462 196.520727 
L 119.091575 185.524364 
L 119.45094 185.524364 
L 119.620053 193.968 
L 119.810305 193.968 
L 119.979418 183.168 
L 120.338783 183.168 
L 120.507896 191.504842 
L 120.867261 191.504842 
L 121.036374 180.894316 
L 121.205487 191.504842 
L 121.395739 189.126621 
L 121.733964 189.126621 
L 121.924216 178.699034 
L 122.093329 189.126621 
L 122.262442 186.829017 
L 122.621807 186.829017 
L 122.79092 197.079864 
L 122.981172 186.829017 
L 123.150285 184.608 
L 123.50965 184.608 
L 123.678763 194.688 
L 123.847876 184.608 
L 124.038128 182.459803 
L 124.207241 182.459803 
L 124.376354 192.374557 
L 124.735719 192.374557 
L 124.904832 190.135742 
L 125.095084 180.380903 
L 125.264197 190.135742 
L 125.623562 190.135742 
L 125.792675 187.968 
L 126.490266 187.968 
L 126.680518 185.868 
L 126.849631 195.318 
L 127.018743 185.868 
L 127.378108 185.868 
L 127.547221 193.137231 
L 127.737473 193.137231 
L 127.906586 183.832615 
L 128.265951 183.832615 
L 128.435064 191.022545 
L 128.794429 191.022545 
L 128.963542 181.858909 
L 129.132655 191.022545 
L 129.322907 188.970985 
L 129.661133 188.970985 
L 129.851385 179.944119 
L 130.020498 188.970985 
L 130.189611 186.979765 
L 130.548976 186.979765 
L 130.718089 195.873882 
L 130.908341 186.979765 
L 131.077454 185.046261 
L 131.436819 185.046261 
L 131.605932 193.811478 
L 131.775045 185.046261 
L 131.965297 183.168 
L 132.13441 183.168 
L 132.303522 191.808 
L 132.662887 191.808 
L 132.832 189.860958 
L 133.022252 181.342648 
L 133.191365 189.860958 
L 133.55073 189.860958 
L 133.719843 187.968 
L 134.417434 187.968 
L 134.607686 186.126904 
L 134.776799 194.411836 
L 134.945912 186.126904 
L 135.305277 186.126904 
L 135.47439 192.508541 
L 135.664642 192.508541 
L 135.833755 184.335568 
L 136.19312 184.335568 
L 136.362233 190.656 
L 136.721598 190.656 
L 136.890711 182.592 
L 137.059824 190.656 
L 137.250076 188.852211 
L 137.588302 188.852211 
L 137.778554 180.894316 
L 137.947666 188.852211 
L 138.116779 187.095273 
L 138.476144 187.095273 
L 138.645257 194.949818 
L 138.835509 187.095273 
L 139.004622 185.383385 
L 139.363987 185.383385 
L 139.5331 193.137231 
L 139.702213 185.383385 
L 139.892465 183.714835 
L 140.061578 183.714835 
L 140.230691 191.370532 
L 140.590056 191.370532 
L 140.759169 189.648 
L 140.949421 182.088 
L 141.118534 189.648 
L 141.477899 189.648 
L 141.647012 187.968 
L 142.344603 187.968 
L 142.534855 186.328976 
L 142.703968 193.704585 
L 142.873081 186.328976 
L 143.232446 186.328976 
L 143.401558 192.016193 
L 143.59181 192.016193 
L 143.760923 184.729446 
L 144.120288 184.729446 
L 144.289401 190.368 
L 144.648766 190.368 
L 144.817879 183.168 
L 144.986992 190.368 
L 145.177244 188.758588 
L 145.51547 188.758588 
L 145.705722 181.643294 
L 145.874835 188.758588 
L 146.043948 187.186605 
L 146.403313 187.186605 
L 146.572426 194.219163 
L 146.762678 187.186605 
L 146.931791 185.650759 
L 147.291156 185.650759 
L 147.460269 192.602483 
L 147.629382 185.650759 
L 147.819634 184.149818 
L 147.988747 184.149818 
L 148.15786 191.022545 
L 148.517225 191.022545 
L 148.686337 189.478112 
L 148.87659 182.682607 
L 149.045702 189.478112 
L 149.405067 189.478112 
L 149.57418 187.968 
L 149.743293 181.248 
L 149.933545 187.968 
L 150.271771 187.968 
L 150.462023 186.491077 
L 150.631136 193.137231 
L 150.800249 186.491077 
L 151.159614 186.491077 
L 151.328727 185.046261 
L 151.518979 191.620174 
L 151.688092 185.046261 
L 152.047457 185.046261 
L 152.21657 190.135742 
L 152.575935 190.135742 
L 152.745048 183.632516 
L 152.914161 183.632516 
L 153.104413 188.682894 
L 153.442639 188.682894 
L 153.632891 182.248851 
L 153.802004 188.682894 
L 153.971117 187.260632 
L 154.689846 187.260632 
L 154.858959 185.868 
L 155.218324 185.868 
L 155.387437 192.168 
L 155.55655 185.868 
L 155.746802 184.504082 
L 156.085028 184.504082 
L 156.27528 190.739134 
L 156.444393 190.739134 
L 156.613506 189.339429 
L 156.803758 183.168 
L 156.972871 189.339429 
L 157.332236 189.339429 
L 157.501349 187.968 
L 157.670462 181.858909 
L 157.860714 187.968 
L 158.19894 187.968 
L 158.389192 186.624 
L 158.558305 192.672 
L 158.727418 186.624 
L 159.086783 186.624 
L 159.255896 185.306614 
L 159.446148 191.294733 
L 159.615261 185.306614 
L 159.974625 185.306614 
L 160.143738 189.944471 
L 160.503103 189.944471 
L 160.672216 184.015059 
L 160.841329 184.015059 
L 161.031581 188.620427 
L 161.369807 188.620427 
L 161.560059 182.748583 
L 161.729172 188.620427 
L 161.898285 187.321846 
L 162.617015 187.321846 
L 162.786128 186.048 
L 163.145493 186.048 
L 163.314606 191.808 
L 163.483719 186.048 
L 163.673971 184.798189 
L 164.012197 184.798189 
L 164.202449 190.503849 
L 164.371562 190.503849 
L 164.540675 189.224075 
L 164.730927 183.571738 
L 164.90004 189.224075 
L 165.259405 189.224075 
L 165.428517 187.968 
L 165.59763 182.368 
L 165.787882 187.968 
L 166.126108 187.968 
L 166.31636 186.734972 
L 166.485473 192.283596 
L 166.654586 186.734972 
L 167.013951 186.734972 
L 167.183064 185.524364 
L 167.373316 191.022545 
L 167.542429 185.524364 
L 167.901794 185.524364 
L 168.070907 189.784216 
L 168.430272 189.784216 
L 168.599385 184.335568 
L 168.768498 184.335568 
L 168.95875 188.568 
L 169.656341 188.568 
L 169.825454 187.37331 
L 170.544184 187.37331 
L 170.713296 186.199579 
L 171.072661 186.199579 
L 171.241774 191.504842 
L 171.410887 191.504842 
L 171.601139 190.305391 
L 171.770252 185.046261 
L 171.939365 185.046261 
L 172.129617 190.305391 
L 172.29873 190.305391 
L 172.467843 189.126621 
L 172.658095 183.912828 
L 172.827208 189.126621 
L 173.186573 189.126621 
L 173.355686 187.968 
L 174.053277 187.968 
L 174.243529 186.829017 
L 174.412642 191.954441 
L 174.581755 186.829017 
L 174.94112 186.829017 
L 175.110233 185.709176 
L 175.300485 190.791529 
L 175.469598 190.791529 
L 175.638711 185.709176 
L 175.828963 185.709176 
L 175.998076 189.648 
L 176.35744 189.648 
L 176.526553 184.608 
L 176.695666 184.608 
L 176.885918 188.523372 
L 177.583509 188.523372 
L 177.752622 187.41718 
L 178.471352 187.41718 
L 178.640465 186.328976 
L 178.99983 186.328976 
L 179.168943 191.246049 
L 179.338056 191.246049 
L 179.528308 190.135742 
L 179.697421 185.258323 
L 179.866534 185.258323 
L 180.056786 190.135742 
L 180.225899 190.135742 
L 180.395012 189.0432 
L 180.585264 184.2048 
L 180.754377 189.0432 
L 181.113742 189.0432 
L 181.282855 187.968 
L 181.980445 187.968 
L 182.170697 186.909732 
L 182.33981 191.671937 
L 182.508923 186.909732 
L 182.868288 186.909732 
L 183.037401 185.868 
L 183.227653 190.593 
L 183.396766 190.593 
L 183.565879 185.868 
L 183.756131 185.868 
L 183.925244 189.530791 
L 184.284609 189.530791 
L 184.453722 184.842419 
L 184.622835 184.842419 
L 184.813087 188.484923 
L 185.510678 188.484923 
L 185.679791 187.455023 
L 186.398521 187.455023 
L 186.567634 186.440727 
L 186.926999 186.440727 
L 187.096111 191.022545 
L 187.265224 191.022545 
L 187.455476 189.989053 
L 187.624589 185.441684 
L 187.793702 185.441684 
L 187.983954 189.989053 
L 188.153067 189.989053 
L 188.32218 188.970985 
L 188.512432 184.457552 
L 188.681545 188.970985 
L 189.04091 188.970985 
L 189.210023 187.968 
L 189.907614 187.968 
L 190.097866 186.979765 
L 190.266979 191.426824 
L 190.436092 186.979765 
L 190.795457 186.979765 
L 190.96457 186.005956 
L 191.154822 190.420555 
L 191.323935 190.420555 
L 191.493048 186.005956 
L 191.6833 186.005956 
L 191.852413 185.046261 
L 192.021526 189.42887 
L 192.211778 189.42887 
L 192.380891 185.046261 
L 192.550003 185.046261 
L 192.740255 188.451453 
L 193.268733 188.451453 
L 193.437846 184.100374 
L 193.606959 187.488 
L 194.325689 187.488 
L 194.494802 186.538213 
L 195.02328 186.538213 
L 195.192393 190.827574 
L 195.382645 189.860958 
L 195.551758 185.601803 
L 195.720871 185.601803 
L 195.911123 189.860958 
L 196.080236 189.860958 
L 196.249349 188.90786 
L 196.439601 184.67849 
L 196.608714 184.67849 
L 196.777827 188.90786 
L 196.968079 188.90786 
L 197.137192 187.968 
L 197.834782 187.968 
L 198.025035 187.041103 
L 198.722625 187.041103 
L 198.891738 186.126904 
L 199.08199 190.26937 
L 199.251103 190.26937 
L 199.420216 186.126904 
L 199.610468 186.126904 
L 199.779581 185.225143 
L 199.948694 189.339429 
L 200.138946 189.339429 
L 200.308059 185.225143 
L 200.477172 185.225143 
L 200.667424 188.422054 
L 201.195902 188.422054 
L 201.365015 184.335568 
L 201.534128 187.516993 
L 202.252858 187.516993 
L 202.421971 186.624 
L 202.950449 186.624 
L 203.119561 190.656 
L 203.309814 189.748132 
L 203.478926 185.742834 
L 203.648039 185.742834 
L 203.838291 189.748132 
L 204.007404 189.748132 
L 204.176517 188.852211 
L 204.366769 184.873263 
L 204.535882 184.873263 
L 204.704995 188.852211 
L 204.895247 188.852211 
L 205.06436 187.968 
L 205.761951 187.968 
L 205.952203 187.095273 
L 206.649794 187.095273 
L 206.818907 186.233806 
L 207.009159 190.135742 
L 207.178272 190.135742 
L 207.347385 186.233806 
L 207.537637 186.233806 
L 207.70675 185.383385 
L 207.875863 189.260308 
L 208.066115 189.260308 
L 208.235228 185.383385 
L 208.404341 185.383385 
L 208.594593 188.396025 
L 209.12307 188.396025 
L 209.292183 184.543796 
L 209.461296 187.542684 
L 210.180026 187.542684 
L 210.349139 186.700075 
L 210.877617 186.700075 
L 211.04673 190.503849 
L 211.236982 189.648 
L 211.406095 185.868 
L 211.575208 185.868 
L 211.76546 189.648 
L 211.934573 189.648 
L 212.103686 188.802783 
L 212.293938 185.046261 
L 212.463051 185.046261 
L 212.632164 188.802783 
L 212.822416 188.802783 
L 212.991529 187.968 
L 213.68912 187.968 
L 213.879372 187.14346 
L 214.576962 187.14346 
L 214.746075 186.328976 
L 214.936327 190.01678 
L 215.10544 190.01678 
L 215.274553 186.328976 
L 215.464805 186.328976 
L 215.633918 185.524364 
L 215.803031 189.189818 
L 215.993283 189.189818 
L 216.162396 185.524364 
L 216.331509 185.524364 
L 216.521761 188.372819 
L 217.050239 188.372819 
L 217.219352 184.729446 
L 217.388465 187.565605 
L 218.107195 187.565605 
L 218.276308 186.768 
L 218.804786 186.768 
L 218.973899 190.368 
L 219.164151 189.558533 
L 219.333264 185.979834 
L 219.502376 185.979834 
L 219.692629 189.558533 
L 219.861741 189.558533 
L 220.030854 188.758588 
L 220.221106 185.200941 
L 220.390219 185.200941 
L 220.559332 188.758588 
L 220.749584 188.758588 
L 220.918697 187.968 
L 221.616288 187.968 
L 221.80654 187.186605 
L 221.975653 187.186605 
L 222.144766 190.702884 
L 222.335018 187.186605 
L 222.504131 187.186605 
L 222.673244 186.414243 
L 222.863496 189.910197 
L 223.032609 189.910197 
L 223.201722 186.414243 
L 223.391974 186.414243 
L 223.561087 185.650759 
L 223.7302 189.126621 
L 224.089565 189.126621 
L 224.258678 185.650759 
L 224.44893 184.896 
L 224.618043 188.352 
L 224.977408 188.352 
L 225.14652 184.896 
L 225.315633 187.586182 
L 226.034363 187.586182 
L 226.203476 190.245966 
L 226.372589 186.829017 
L 226.731954 186.829017 
L 226.901067 190.245966 
L 227.091319 189.478112 
L 227.260432 186.08036 
L 227.619797 186.08036 
L 227.78891 189.478112 
L 227.958023 188.718838 
L 228.148275 188.718838 
L 228.317388 185.340067 
L 228.486501 188.718838 
L 228.676753 188.718838 
L 228.845866 187.968 
L 229.014979 187.968 
L 229.205231 184.608 
L 229.374344 187.968 
L 229.543457 187.968 
L 229.733709 187.225459 
L 229.902822 187.225459 
L 230.071935 190.566895 
L 230.262187 187.225459 
L 230.4313 187.225459 
L 230.600412 186.491077 
L 230.790665 186.491077 
L 230.959777 189.814154 
L 231.12889 186.491077 
L 231.319142 186.491077 
L 231.488255 185.764721 
L 231.657368 189.069639 
L 232.016733 189.069639 
L 232.185846 185.764721 
L 232.376098 185.046261 
L 232.545211 188.333217 
L 232.904576 188.333217 
L 233.073689 185.046261 
L 233.242802 187.604757 
L 233.961532 187.604757 
L 234.130645 190.135742 
L 234.299758 186.884129 
L 234.659123 186.884129 
L 234.828236 190.135742 
L 235.018488 189.405433 
L 235.187601 186.171209 
L 235.546966 186.171209 
L 235.716079 189.405433 
L 235.885191 188.682894 
L 236.075444 188.682894 
L 236.244556 185.465872 
L 236.413669 188.682894 
L 236.603921 188.682894 
L 236.773034 187.968 
L 236.942147 187.968 
L 237.132399 184.768 
L 237.301512 187.968 
L 237.470625 187.968 
L 237.660877 187.260632 
L 237.82999 187.260632 
L 237.999103 190.443789 
L 238.189355 187.260632 
L 238.358468 187.260632 
L 238.527581 186.56067 
L 238.717833 186.56067 
L 238.886946 189.727162 
L 239.056059 186.56067 
L 239.246311 186.56067 
L 239.415424 185.868 
L 239.584537 189.018 
L 239.943902 189.018 
L 240.113015 185.868 
L 240.303267 185.182508 
L 240.47238 188.316187 
L 240.831745 188.316187 
L 241.000858 185.182508 
L 241.169971 187.621608 
L 241.8887 187.621608 
L 242.057813 190.035692 
L 242.226926 186.934154 
L 242.586291 186.934154 
L 242.755404 190.035692 
L 242.945656 189.339429 
L 243.114769 186.253714 
L 243.474134 186.253714 
L 243.643247 189.339429 
L 243.81236 188.650234 
L 244.002612 188.650234 
L 244.171725 185.580183 
L 244.340838 188.650234 
L 244.53109 188.650234 
L 244.700203 187.968 
L 244.869316 187.968 
L 245.059568 184.913455 
L 245.228681 187.968 
L 245.397794 187.968 
L 245.588046 187.292623 
L 245.757159 187.292623 
L 245.926272 190.331819 
L 246.116524 187.292623 
L 246.285637 187.292623 
L 246.45475 186.624 
L 246.645002 186.624 
L 246.814115 189.648 
L 246.983227 186.624 
L 247.17348 186.624 
L 247.342592 185.96203 
L 247.511705 188.970985 
L 247.87107 188.970985 
L 248.040183 185.96203 
L 248.230435 185.306614 
L 248.399548 188.300673 
L 248.758913 188.300673 
L 248.928026 185.306614 
L 249.097139 187.636966 
L 249.815869 187.636966 
L 249.984982 189.944471 
L 250.154095 186.979765 
L 250.51346 186.979765 
L 250.682573 189.944471 
L 250.872825 189.27922 
L 251.041938 186.328976 
L 251.401303 186.328976 
L 251.570416 189.27922 
L 251.739529 188.620427 
L 251.929781 188.620427 
L 252.098894 185.684505 
L 252.268006 185.684505 
L 252.458259 188.620427 
L 252.627371 187.968 
L 252.796484 187.968 
L 252.986736 185.046261 
L 253.155849 187.968 
L 253.324962 187.968 
L 253.515214 187.321846 
L 254.212805 187.321846 
L 254.381918 186.681876 
L 254.57217 186.681876 
L 254.741283 189.575656 
L 254.910396 186.681876 
L 255.100648 186.681876 
L 255.269761 186.048 
L 255.438874 186.048 
L 255.629126 188.928 
L 255.798239 188.928 
L 255.967352 186.048 
L 256.157604 185.420133 
L 256.326717 188.286483 
L 256.686082 188.286483 
L 256.855195 185.420133 
L 257.024308 184.798189 
L 257.21456 187.651019 
L 257.743038 187.651019 
L 257.91215 189.860958 
L 258.081263 187.021521 
L 258.609741 187.021521 
L 258.799993 189.224075 
L 258.969106 186.397907 
L 259.328471 186.397907 
L 259.497584 189.224075 
L 259.666697 188.593116 
L 259.856949 188.593116 
L 260.026062 185.780093 
L 260.195175 185.780093 
L 260.385427 188.593116 
L 260.55454 187.968 
L 260.723653 187.968 
L 260.913905 185.168 
L 261.083018 187.968 
L 261.252131 187.968 
L 261.442383 187.348645 
L 262.139974 187.348645 
L 262.309087 186.734972 
L 262.499339 186.734972 
L 262.668452 189.509284 
L 262.837565 189.509284 
L 263.027817 186.734972 
L 263.19693 186.126904 
L 263.366042 186.126904 
L 263.556294 188.888548 
L 263.725407 188.888548 
L 263.89452 186.126904 
L 264.084772 185.524364 
L 264.253885 188.273455 
L 264.782363 188.273455 
L 264.951476 187.663928 
L 265.670206 187.663928 
L 265.839319 189.784216 
L 266.008432 187.059892 
L 266.53691 187.059892 
L 266.727162 189.173381 
L 266.896275 189.173381 
L 267.065388 186.461274 
L 267.25564 186.461274 
L 267.424753 189.173381 
L 267.593866 188.568 
L 267.784118 188.568 
L 267.953231 185.868 
L 268.122344 185.868 
L 268.312596 188.568 
L 268.481709 187.968 
L 269.179299 187.968 
L 269.369551 187.37331 
L 270.067142 187.37331 
L 270.236255 186.783859 
L 270.426507 186.783859 
L 270.59562 189.448176 
L 270.764733 189.448176 
L 270.954985 186.783859 
L 271.124098 186.199579 
L 271.293211 186.199579 
L 271.483463 188.852211 
L 271.652576 188.852211 
L 271.821689 186.199579 
L 272.011941 185.620402 
L 272.181054 188.26145 
L 272.709532 188.26145 
L 272.878645 187.675826 
L 273.597375 187.675826 
L 273.766488 189.713455 
L 273.935601 187.095273 
L 274.464078 187.095273 
L 274.65433 189.126621 
L 274.823443 189.126621 
L 274.992556 186.519724 
L 275.182808 186.519724 
L 275.351921 189.126621 
L 275.521034 188.544824 
L 275.711286 188.544824 
L 275.880399 185.949116 
L 276.049512 185.949116 
L 276.239764 188.544824 
L 276.408877 187.968 
L 276.768242 187.968 
L 276.937355 185.383385 
L 277.106468 187.968 
L 277.29672 187.396085 
L 277.994311 187.396085 
L 278.163424 186.829017 
L 278.522789 186.829017 
L 278.691902 189.391729 
L 278.882154 186.829017 
L 279.051267 186.266734 
L 279.22038 186.266734 
L 279.410632 188.818633 
L 279.579745 188.818633 
L 279.748857 186.266734 
L 279.939109 185.709176 
L 280.108222 185.709176 
L 280.277335 188.250353 
L 280.6367 188.250353 
L 280.805813 187.686828 
L 281.524543 187.686828 
L 281.693656 187.128 
L 282.391247 187.128 
L 282.581499 189.083353 
L 282.750612 189.083353 
L 282.919725 186.573809 
L 283.27909 186.573809 
L 283.448203 188.523372 
L 283.638455 188.523372 
L 283.807568 186.024198 
L 283.976681 186.024198 
L 284.166933 188.523372 
L 284.336046 187.968 
L 284.695411 187.968 
L 284.864524 185.479111 
L 285.033636 187.968 
L 285.223889 187.41718 
L 285.921479 187.41718 
L 286.090592 186.870857 
L 286.449957 186.870857 
L 286.61907 189.339429 
L 286.809322 186.870857 
L 286.978435 186.328976 
L 287.147548 186.328976 
L 287.3378 188.787512 
L 287.506913 188.787512 
L 287.676026 186.328976 
L 287.866278 185.791482 
L 288.035391 185.791482 
L 288.204504 188.240065 
L 288.563869 188.240065 
L 288.732982 187.697032 
L 289.451712 187.697032 
L 289.620825 187.158361 
L 290.318416 187.158361 
L 290.508668 189.0432 
L 290.67778 189.0432 
L 290.846893 186.624 
L 291.206258 186.624 
L 291.375371 188.503458 
L 291.565623 188.503458 
L 291.734736 186.093896 
L 291.903849 186.093896 
L 292.094101 188.503458 
L 292.263214 187.968 
L 292.622579 187.968 
L 292.791692 185.568 
L 292.960805 187.968 
L 293.151057 187.436775 
L 293.848648 187.436775 
L 294.017761 186.909732 
L 294.377126 186.909732 
L 294.546239 189.290835 
L 294.736491 186.909732 
L 294.905604 186.386824 
L 295.074717 186.386824 
L 295.264969 188.758588 
L 295.434082 188.758588 
L 295.603195 186.386824 
L 295.793447 185.868 
L 295.96256 185.868 
L 296.131672 188.2305 
L 296.491037 188.2305 
L 296.66015 187.706521 
L 297.37888 187.706521 
L 297.547993 187.186605 
L 297.717106 189.530791 
L 297.907358 187.186605 
L 298.245584 187.186605 
L 298.435836 189.005838 
L 298.604949 189.005838 
L 298.774062 186.670703 
L 299.133427 186.670703 
L 299.30254 188.484923 
L 299.661905 188.484923 
L 299.831018 186.158769 
L 300.02127 188.484923 
L 300.190383 187.968 
L 300.549748 187.968 
L 300.718861 185.650759 
L 300.887974 187.968 
L 301.078226 187.455023 
L 301.775816 187.455023 
L 301.944929 186.945947 
L 302.304294 186.945947 
L 302.473407 189.245567 
L 302.663659 186.945947 
L 302.832772 186.440727 
L 303.192137 186.440727 
L 303.36125 188.731636 
L 303.530363 188.731636 
L 303.720615 188.221585 
L 303.889728 185.939321 
L 304.058841 188.221585 
L 304.418206 188.221585 
L 304.587319 187.715368 
L 304.777571 185.441684 
L 304.946684 187.715368 
L 305.306049 187.715368 
L 305.475162 187.212944 
L 305.644275 189.478112 
L 305.834527 187.212944 
L 306.172753 187.212944 
L 306.363005 186.714269 
L 306.532118 188.970985 
L 306.701231 186.714269 
L 307.060595 186.714269 
L 307.229708 188.467628 
L 307.589073 188.467628 
L 307.758186 186.219301 
L 307.948438 186.219301 
L 308.117551 187.968 
L 308.476916 187.968 
L 308.646029 185.728 
L 308.815142 187.968 
L 309.005394 187.472059 
L 309.702985 187.472059 
L 309.872098 186.979765 
L 310.231463 186.979765 
L 310.400576 189.203294 
L 310.590828 186.979765 
L 310.759941 186.491077 
L 311.119306 186.491077 
L 311.288419 188.706462 
L 311.457532 188.706462 
L 311.647784 188.213255 
L 311.816897 186.005956 
L 311.98601 188.213255 
L 312.345375 188.213255 
L 312.514487 187.723636 
L 312.704739 185.524364 
L 312.873852 187.723636 
L 313.233217 187.723636 
L 313.40233 187.237565 
L 313.571443 189.42887 
L 313.761695 187.237565 
L 314.099921 187.237565 
L 314.290173 186.755004 
L 314.459286 188.938397 
L 314.628399 186.755004 
L 314.987764 186.755004 
L 315.156877 188.451453 
L 315.516242 188.451453 
L 315.685355 186.275914 
L 315.875607 186.275914 
L 316.04472 187.968 
L 316.404085 187.968 
L 316.573198 185.800258 
L 316.742311 187.968 
L 316.932563 187.488 
L 317.630154 187.488 
L 317.799266 187.011416 
L 318.158631 187.011416 
L 318.327744 189.16373 
L 318.517996 187.011416 
L 318.687109 186.538213 
L 319.046474 186.538213 
L 319.215587 188.682894 
L 319.3847 188.682894 
L 319.574952 188.205456 
L 319.744065 186.068353 
L 319.913178 188.205456 
L 320.272543 188.205456 
L 320.441656 187.73138 
L 320.631908 185.601803 
L 320.801021 187.73138 
L 321.160386 187.73138 
L 321.329499 187.260632 
L 321.498612 189.382737 
L 321.688864 187.260632 
L 322.02709 187.260632 
L 322.217342 186.793175 
L 322.386455 188.90786 
L 322.555568 186.793175 
L 322.914933 186.793175 
L 323.084046 186.328976 
L 323.274298 188.436293 
L 323.44341 188.436293 
L 323.612523 186.328976 
L 323.802775 186.328976 
L 323.971888 187.968 
L 324.331253 187.968 
L 324.500366 185.868 
L 324.669479 185.868 
L 324.859731 187.502948 
L 325.557322 187.502948 
L 325.726435 187.041103 
L 326.445165 187.041103 
L 326.614278 186.582433 
L 326.973643 186.582433 
L 327.142756 188.660784 
L 327.311869 188.660784 
L 327.502121 188.198137 
L 327.671234 186.126904 
L 327.840347 186.126904 
L 328.030599 188.198137 
L 328.199712 188.198137 
L 328.368825 187.738648 
L 329.087554 187.738648 
L 329.256667 187.282286 
L 329.954258 187.282286 
L 330.14451 186.829017 
L 330.313623 188.879186 
L 330.482736 188.879186 
L 330.672988 186.829017 
L 330.842101 186.829017 
L 331.011214 186.378811 
L 331.201466 188.422054 
L 331.370579 188.422054 
L 331.539692 186.378811 
L 331.729944 186.378811 
L 331.899057 187.968 
L 332.427535 187.968 
L 332.596648 185.931636 
L 332.7869 187.516993 
L 333.484491 187.516993 
L 333.653604 187.069003 
L 334.182081 187.069003 
L 334.372334 189.091746 
L 334.541446 188.64 
L 334.710559 186.624 
L 334.900811 186.624 
L 335.069924 188.64 
L 335.239037 188.64 
L 335.429289 188.191256 
L 335.598402 186.181953 
L 335.767515 186.181953 
L 335.957767 188.191256 
L 336.12688 188.191256 
L 336.295993 187.745483 
L 337.014723 187.745483 
L 337.183836 187.302653 
L 337.881427 187.302653 
L 338.071679 186.862737 
L 338.240792 188.852211 
L 338.409905 188.852211 
L 338.600157 186.862737 
L 338.76927 186.862737 
L 338.938383 186.425705 
L 339.128635 188.408656 
L 339.297748 188.408656 
L 339.466861 186.425705 
L 339.657113 186.425705 
L 339.826225 187.968 
L 340.354703 187.968 
L 340.523816 185.991529 
L 340.714068 187.530215 
L 341.411659 187.530215 
L 341.580772 187.095273 
L 342.10925 187.095273 
L 342.299502 189.058909 
L 342.468615 188.620427 
L 342.637728 186.663146 
L 342.82798 186.663146 
L 342.997093 188.620427 
L 343.166206 188.620427 
L 343.356458 188.184774 
L 343.525571 186.233806 
L 343.694684 186.233806 
L 343.884936 188.184774 
L 344.054049 188.184774 
L 344.223162 187.751923 
L 344.941892 187.751923 
L 345.111005 187.321846 
L 345.808595 187.321846 
L 345.998847 186.894518 
L 346.16796 186.894518 
L 346.337073 188.826786 
L 346.527325 186.894518 
L 346.696438 186.894518 
L 346.865551 186.469911 
L 347.055803 188.396025 
L 347.224916 188.396025 
L 347.394029 186.469911 
L 347.584281 186.469911 
L 347.753394 186.048 
L 347.922507 187.968 
L 348.281872 187.968 
L 348.450985 186.048 
L 348.641237 187.542684 
L 349.169715 187.542684 
L 349.338828 185.628759 
L 349.507941 187.12005 
L 350.036419 187.12005 
L 350.226671 189.027937 
L 350.395784 188.601962 
L 350.564896 186.700075 
L 350.924261 186.700075 
L 351.093374 188.601962 
L 351.283626 188.178658 
L 351.452739 186.282734 
L 351.621852 186.282734 
L 351.812104 188.178658 
L 351.981217 188.178658 
L 352.15033 187.758 
L 352.340582 187.758 
L 352.509695 185.868 
L 352.678808 187.758 
L 352.86906 187.758 
L 353.038173 187.339963 
L 353.735764 187.339963 
L 353.926016 186.924522 
L 354.095129 186.924522 
L 354.264242 188.802783 
L 354.454494 186.924522 
L 354.623607 186.924522 
L 354.79272 186.511653 
L 354.982972 188.384099 
L 355.152085 188.384099 
L 355.321198 186.511653 
L 355.51145 186.511653 
L 355.680563 186.101333 
L 355.849676 187.968 
L 356.20904 187.968 
L 356.378153 186.101333 
L 356.568405 187.554462 
L 357.096883 187.554462 
L 357.265996 185.693538 
L 357.435109 187.14346 
L 357.963587 187.14346 
L 358.153839 188.998675 
L 358.322952 188.584514 
L 358.492065 186.734972 
L 358.85143 186.734972 
L 359.020543 188.584514 
L 359.210795 188.172878 
L 359.379908 188.172878 
L 359.549021 186.328976 
L 359.739273 188.172878 
L 359.908386 188.172878 
L 360.077499 187.763745 
L 360.267751 187.763745 
L 360.436864 185.925447 
L 360.605977 187.763745 
L 360.796229 187.763745 
L 360.965342 187.357091 
L 361.134455 187.357091 
L 361.324707 189.189818 
L 361.49382 187.357091 
L 361.662932 187.357091 
L 361.853184 186.952894 
L 362.022297 186.952894 
L 362.19141 188.780085 
L 362.381662 186.952894 
L 362.550775 186.952894 
L 362.719888 186.551133 
L 362.91014 188.372819 
L 363.248366 188.372819 
L 363.438618 186.551133 
L 363.607731 186.151784 
L 363.776844 187.968 
L 364.136209 187.968 
L 364.305322 186.151784 
L 364.495574 187.565605 
L 365.193165 187.565605 
L 365.362278 188.970985 
L 365.55253 187.165612 
L 366.081008 187.165612 
L 366.250121 188.568 
L 366.419234 186.768 
L 366.778599 186.768 
L 366.947711 188.568 
L 367.137964 188.167407 
L 367.307076 188.167407 
L 367.476189 186.372748 
L 367.666441 186.372748 
L 367.835554 188.167407 
L 368.004667 187.769183 
L 368.194919 187.769183 
L 368.364032 185.979834 
L 368.533145 187.769183 
L 368.723397 187.769183 
L 368.89251 187.37331 
L 369.590101 187.37331 
L 369.780353 186.979765 
L 369.949466 186.979765 
L 370.118579 188.758588 
L 370.308831 186.979765 
L 370.477944 186.979765 
L 370.647057 186.588528 
L 370.837309 186.588528 
L 371.006422 188.362135 
L 371.175535 188.362135 
L 371.365787 186.588528 
L 371.5349 186.199579 
L 371.704013 187.968 
L 372.063378 187.968 
L 372.23249 186.199579 
L 372.422743 185.812898 
L 372.591855 187.576163 
L 373.120333 187.576163 
L 373.289446 188.944744 
L 373.479698 187.186605 
L 374.008176 187.186605 
L 374.177289 188.552348 
L 374.346402 186.799304 
L 374.705767 186.799304 
L 374.87488 188.552348 
L 375.065132 188.16222 
L 375.234245 188.16222 
L 375.403358 186.414243 
L 375.59361 186.414243 
L 375.762723 188.16222 
L 375.931836 187.77434 
L 376.122088 187.77434 
L 376.291201 186.031401 
L 376.460314 187.77434 
L 376.650566 187.77434 
L 376.819679 187.38869 
L 377.51727 187.38869 
L 377.707522 187.005249 
L 377.876635 187.005249 
L 378.045747 188.738201 
L 378.235999 187.005249 
L 378.405112 187.005249 
L 378.574225 186.624 
L 378.764477 186.624 
L 378.93359 188.352 
L 379.102703 188.352 
L 379.292955 186.624 
L 379.462068 186.244923 
L 379.631181 187.968 
L 379.990546 187.968 
L 380.159659 186.244923 
L 380.349911 185.868 
L 380.519024 187.586182 
L 381.047502 187.586182 
L 381.216615 188.919841 
L 381.406867 187.206527 
L 381.935345 187.206527 
L 382.104458 188.537492 
L 382.273571 186.829017 
L 382.632936 186.829017 
L 382.802049 188.537492 
L 382.992301 188.157296 
L 383.161414 188.157296 
L 383.330526 186.453634 
L 383.520779 186.453634 
L 383.689891 188.157296 
L 383.859004 187.779236 
L 384.049256 187.779236 
L 384.218369 186.08036 
L 384.387482 187.779236 
L 384.577734 187.779236 
L 384.746847 187.403294 
L 385.444438 187.403294 
L 385.63469 187.029453 
L 385.803803 187.029453 
L 385.972916 188.718838 
L 386.163168 188.718838 
L 386.332281 187.029453 
L 386.501394 186.657694 
L 386.691646 186.657694 
L 386.860759 188.342373 
L 387.029872 188.342373 
L 387.220124 186.657694 
L 387.389237 186.288 
L 387.55835 186.288 
L 387.748602 187.968 
L 388.086828 187.968 
L 388.27708 187.595701 
L 388.97467 187.595701 
L 389.143783 187.225459 
L 389.862513 187.225459 
L 390.031626 188.523372 
L 390.200739 188.523372 
L 390.390991 186.857256 
L 390.729217 186.857256 
L 390.919469 188.152615 
L 391.088582 188.152615 
L 391.257695 186.491077 
L 391.447947 186.491077 
L 391.61706 188.152615 
L 391.786173 187.78389 
L 392.145538 187.78389 
L 392.314651 186.126904 
L 392.504903 187.78389 
L 392.674016 187.41718 
L 393.371607 187.41718 
L 393.561859 187.052469 
L 393.900085 187.052469 
L 394.090337 188.700425 
L 394.25945 187.052469 
L 394.428562 186.689739 
L 394.618814 186.689739 
L 394.787927 188.333217 
L 394.95704 188.333217 
L 395.147292 186.689739 
L 395.316405 186.328976 
L 395.485518 186.328976 
L 395.67577 187.968 
L 396.013996 187.968 
L 396.204248 187.604757 
L 396.901839 187.604757 
L 397.070952 187.243472 
L 397.789682 187.243472 
L 397.958795 188.509935 
L 398.127908 188.509935 
L 398.31816 186.884129 
L 398.487273 186.884129 
L 398.487273 186.884129 
" style="fill:none;stroke:#1f77b4;stroke-linecap:square;stroke-width:1.5;"/>
   </g>
   <g id="patch_3">
    <path d="M 57.6 307.584 
L 57.6 41.472 
" style="fill:none;stroke:#000000;stroke-linecap:square;stroke-linejoin:miter;stroke-width:0.8;"/>
   </g>
   <g id="patch_4">
    <path d="M 414.72 307.584 
L 414.72 41.472 
" style="fill:none;stroke:#000000;stroke-linecap:square;stroke-linejoin:miter;stroke-width:0.8;"/>
   </g>
   <g id="patch_5">
    <path d="M 57.6 307.584 
L 414.72 307.584 
" style="fill:none;stroke:#000000;stroke-linecap:square;stroke-linejoin:miter;stroke-width:0.8;"/>
   </g>
   <g id="patch_6">
    <path d="M 57.6 41.472 
L 414.72 41.472 
" style="fill:none;stroke:#000000;stroke-linecap:square;stroke-linejoin:miter;stroke-width:0.8;"/>
   </g>
   <g id="text_18">
    <!-- Speed function of time -->
    <g transform="translate(167.024063 35.472)scale(0.12 -0.12)">
     <defs>
      <path id="DejaVuSerif-32"/>
      <path d="M 43.015625 63.71875 
L 38.28125 63.71875 
Q 38.234375 67.390625 36.203125 69.28125 
Q 34.1875 71.1875 30.328125 71.1875 
Q 25.296875 71.1875 23.234375 68.421875 
Q 21.1875 65.671875 21.1875 58.59375 
L 21.1875 51.90625 
L 35.6875 51.90625 
L 35.6875 46.6875 
L 21.1875 46.6875 
L 21.1875 5.171875 
L 32.71875 5.171875 
L 32.71875 0 
L 3.609375 0 
L 3.609375 5.171875 
L 12.203125 5.171875 
L 12.203125 46.6875 
L 3.609375 46.6875 
L 3.609375 51.90625 
L 12.203125 51.90625 
L 12.203125 58.40625 
Q 12.203125 67.09375 16.71875 71.53125 
Q 21.234375 75.984375 29.984375 75.984375 
Q 33.25 75.984375 36.515625 75.390625 
Q 39.796875 74.8125 43.015625 73.578125 
z
" id="DejaVuSerif-102"/>
      <path d="M 35.40625 51.90625 
L 52.203125 51.90625 
L 52.203125 5.171875 
L 60.6875 5.171875 
L 60.6875 0 
L 43.21875 0 
L 43.21875 9.1875 
Q 40.71875 4 36.765625 1.28125 
Q 32.8125 -1.421875 27.59375 -1.421875 
Q 18.953125 -1.421875 14.875 3.484375 
Q 10.796875 8.40625 10.796875 18.890625 
L 10.796875 46.6875 
L 2.6875 46.6875 
L 2.6875 51.90625 
L 19.828125 51.90625 
L 19.828125 21.6875 
Q 19.828125 12.203125 22.140625 8.6875 
Q 24.46875 5.171875 30.421875 5.171875 
Q 36.671875 5.171875 39.9375 9.765625 
Q 43.21875 14.359375 43.21875 23.09375 
L 43.21875 46.6875 
L 35.40625 46.6875 
z
" id="DejaVuSerif-117"/>
      <path d="M 4.109375 0 
L 4.109375 5.171875 
L 12.203125 5.171875 
L 12.203125 46.6875 
L 3.609375 46.6875 
L 3.609375 51.90625 
L 21.1875 51.90625 
L 21.1875 42.671875 
Q 23.6875 47.953125 27.65625 50.640625 
Q 31.640625 53.328125 36.921875 53.328125 
Q 45.515625 53.328125 49.5625 48.390625 
Q 53.609375 43.453125 53.609375 33.015625 
L 53.609375 5.171875 
L 61.625 5.171875 
L 61.625 0 
L 36.8125 0 
L 36.8125 5.171875 
L 44.578125 5.171875 
L 44.578125 30.171875 
Q 44.578125 39.703125 42.234375 43.234375 
Q 39.890625 46.78125 33.984375 46.78125 
Q 27.734375 46.78125 24.453125 42.203125 
Q 21.1875 37.640625 21.1875 28.90625 
L 21.1875 5.171875 
L 29 5.171875 
L 29 0 
z
" id="DejaVuSerif-110"/>
      <path d="M 51.421875 15.578125 
Q 49.515625 7.28125 44.09375 2.921875 
Q 38.671875 -1.421875 30.078125 -1.421875 
Q 18.75 -1.421875 11.859375 6.078125 
Q 4.984375 13.578125 4.984375 25.984375 
Q 4.984375 38.421875 11.859375 45.875 
Q 18.75 53.328125 30.078125 53.328125 
Q 35.015625 53.328125 39.890625 52.171875 
Q 44.78125 51.03125 49.703125 48.6875 
L 49.703125 35.40625 
L 44.484375 35.40625 
Q 43.453125 42.234375 40.015625 45.359375 
Q 36.578125 48.484375 30.171875 48.484375 
Q 22.90625 48.484375 19.1875 42.84375 
Q 15.484375 37.203125 15.484375 25.984375 
Q 15.484375 14.75 19.171875 9.078125 
Q 22.859375 3.421875 30.171875 3.421875 
Q 35.984375 3.421875 39.453125 6.4375 
Q 42.921875 9.46875 44.1875 15.578125 
z
" id="DejaVuSerif-99"/>
      <path d="M 10.796875 46.6875 
L 2.875 46.6875 
L 2.875 51.90625 
L 10.796875 51.90625 
L 10.796875 68.015625 
L 19.828125 68.015625 
L 19.828125 51.90625 
L 36.71875 51.90625 
L 36.71875 46.6875 
L 19.828125 46.6875 
L 19.828125 13.71875 
Q 19.828125 7.125 21.09375 5.265625 
Q 22.359375 3.421875 25.78125 3.421875 
Q 29.296875 3.421875 30.90625 5.484375 
Q 32.515625 7.5625 32.625 12.203125 
L 39.40625 12.203125 
Q 39.015625 5.125 35.546875 1.84375 
Q 32.078125 -1.421875 25 -1.421875 
Q 17.234375 -1.421875 14.015625 2.015625 
Q 10.796875 5.46875 10.796875 13.71875 
z
" id="DejaVuSerif-116"/>
      <path d="M 30.078125 3.421875 
Q 37.3125 3.421875 40.984375 9.125 
Q 44.671875 14.84375 44.671875 25.984375 
Q 44.671875 37.109375 40.984375 42.796875 
Q 37.3125 48.484375 30.078125 48.484375 
Q 22.859375 48.484375 19.171875 42.796875 
Q 15.484375 37.109375 15.484375 25.984375 
Q 15.484375 14.84375 19.1875 9.125 
Q 22.90625 3.421875 30.078125 3.421875 
z
M 30.078125 -1.421875 
Q 18.75 -1.421875 11.859375 6.078125 
Q 4.984375 13.578125 4.984375 25.984375 
Q 4.984375 38.375 11.84375 45.84375 
Q 18.703125 53.328125 30.078125 53.328125 
Q 41.453125 53.328125 48.3125 45.84375 
Q 55.171875 38.375 55.171875 25.984375 
Q 55.171875 13.578125 48.3125 6.078125 
Q 41.453125 -1.421875 30.078125 -1.421875 
z
" id="DejaVuSerif-111"/>
     </defs>
     <use xlink:href="#DejaVuSerif-83"/>
     <use x="68.505859" xlink:href="#DejaVuSerif-112"/>
     <use x="132.519531" xlink:href="#DejaVuSerif-101"/>
     <use x="191.699219" xlink:href="#DejaVuSerif-101"/>
     <use x="250.878906" xlink:href="#DejaVuSerif-100"/>
     <use x="314.892578" xlink:href="#DejaVuSerif-32"/>
     <use x="346.679688" xlink:href="#DejaVuSerif-102"/>
     <use x="383.691406" xlink:href="#DejaVuSerif-117"/>
     <use x="448.095703" xlink:href="#DejaVuSerif-110"/>
     <use x="512.5" xlink:href="#DejaVuSerif-99"/>
     <use x="568.505859" xlink:href="#DejaVuSerif-116"/>
     <use x="608.691406" xlink:href="#DejaVuSerif-105"/>
     <use x="640.673828" xlink:href="#DejaVuSerif-111"/>
     <use x="700.878906" xlink:href="#DejaVuSerif-110"/>
     <use x="765.283203" xlink:href="#DejaVuSerif-32"/>
     <use x="797.070312" xlink:href="#DejaVuSerif-111"/>
     <use x="857.275391" xlink:href="#DejaVuSerif-102"/>
     <use x="894.287109" xlink:href="#DejaVuSerif-32"/>
     <use x="926.074219" xlink:href="#DejaVuSerif-116"/>
     <use x="966.259766" xlink:href="#DejaVuSerif-105"/>
     <use x="998.242188" xlink:href="#DejaVuSerif-109"/>
     <use x="1093.066406" xlink:href="#DejaVuSerif-101"/>
    </g>
   </g>
  </g>
 </g>
 <defs>
  <clipPath id="p1b80bdca6c">
   <rect height="266.112" width="357.12" x="57.6" y="41.472"/>
  </clipPath>
 </defs>
</svg>
