<?xml version="1.0" encoding="utf-8" standalone="no"?>
<!DOCTYPE svg PUBLIC "-//W3C//DTD SVG 1.1//EN"
  "http://www.w3.org/Graphics/SVG/1.1/DTD/svg11.dtd">
<!-- Created with matplotlib (https://matplotlib.org/) -->
<svg height="345.6pt" version="1.1" viewBox="0 0 460.8 345.6" width="460.8pt" xmlns="http://www.w3.org/2000/svg" xmlns:xlink="http://www.w3.org/1999/xlink">
 <metadata>
  <rdf:RDF xmlns:cc="http://creativecommons.org/ns#" xmlns:dc="http://purl.org/dc/elements/1.1/" xmlns:rdf="http://www.w3.org/1999/02/22-rdf-syntax-ns#">
   <cc:Work>
    <dc:type rdf:resource="http://purl.org/dc/dcmitype/StillImage"/>
    <dc:date>2022-07-18T02:12:17.672144</dc:date>
    <dc:format>image/svg+xml</dc:format>
    <dc:creator>
     <cc:Agent>
      <dc:title>Matplotlib v3.3.4, https://matplotlib.org/</dc:title>
     </cc:Agent>
    </dc:creator>
   </cc:Work>
  </rdf:RDF>
 </metadata>
 <defs>
  <style type="text/css">*{stroke-linecap:butt;stroke-linejoin:round;}</style>
 </defs>
 <g id="figure_1">
  <g id="patch_1">
   <path d="M 0 345.6 
L 460.8 345.6 
L 460.8 0 
L 0 0 
z
" style="fill:#ffffff;"/>
  </g>
  <g id="axes_1">
   <g id="patch_2">
    <path d="M 57.6 307.584 
L 414.72 307.584 
L 414.72 41.472 
L 57.6 41.472 
z
" style="fill:#ffffff;"/>
   </g>
   <g id="matplotlib.axis_1">
    <g id="xtick_1">
     <g id="line2d_1">
      <defs>
       <path d="M 0 0 
L 0 3.5 
" id="m525ee08a16" style="stroke:#000000;stroke-width:0.8;"/>
      </defs>
      <g>
       <use style="stroke:#000000;stroke-width:0.8;" x="68.050076" xlink:href="#m525ee08a16" y="307.584"/>
      </g>
     </g>
     <g id="text_1">
      <!-- 0 -->
      <g transform="translate(64.868826 322.182437)scale(0.1 -0.1)">
       <defs>
        <path d="M 31.78125 3.421875 
Q 39.265625 3.421875 42.96875 11.625 
Q 46.6875 19.828125 46.6875 36.375 
Q 46.6875 52.984375 42.96875 61.1875 
Q 39.265625 69.390625 31.78125 69.390625 
Q 24.3125 69.390625 20.59375 61.1875 
Q 16.890625 52.984375 16.890625 36.375 
Q 16.890625 19.828125 20.59375 11.625 
Q 24.3125 3.421875 31.78125 3.421875 
z
M 31.78125 -1.421875 
Q 19.921875 -1.421875 13.25 8.53125 
Q 6.59375 18.5 6.59375 36.375 
Q 6.59375 54.296875 13.25 64.25 
Q 19.921875 74.21875 31.78125 74.21875 
Q 43.703125 74.21875 50.34375 64.25 
Q 56.984375 54.296875 56.984375 36.375 
Q 56.984375 18.5 50.34375 8.53125 
Q 43.703125 -1.421875 31.78125 -1.421875 
z
" id="DejaVuSerif-48"/>
       </defs>
       <use xlink:href="#DejaVuSerif-48"/>
      </g>
     </g>
    </g>
    <g id="xtick_2">
     <g id="line2d_2">
      <g>
       <use style="stroke:#000000;stroke-width:0.8;" x="109.354726" xlink:href="#m525ee08a16" y="307.584"/>
      </g>
     </g>
     <g id="text_2">
      <!-- 25 -->
      <g transform="translate(102.992226 322.182437)scale(0.1 -0.1)">
       <defs>
        <path d="M 12.796875 55.515625 
L 7.328125 55.515625 
L 7.328125 68.5 
Q 12.546875 71.296875 17.84375 72.75 
Q 23.140625 74.21875 28.21875 74.21875 
Q 39.59375 74.21875 46.1875 68.703125 
Q 52.78125 63.1875 52.78125 53.71875 
Q 52.78125 43.015625 37.84375 28.125 
Q 36.671875 27 36.078125 26.421875 
L 17.671875 8.015625 
L 48.09375 8.015625 
L 48.09375 17 
L 53.8125 17 
L 53.8125 0 
L 6.78125 0 
L 6.78125 5.328125 
L 28.90625 27.390625 
Q 36.234375 34.71875 39.359375 40.84375 
Q 42.484375 46.96875 42.484375 53.71875 
Q 42.484375 61.078125 38.640625 65.234375 
Q 34.8125 69.390625 28.078125 69.390625 
Q 21.09375 69.390625 17.28125 65.921875 
Q 13.484375 62.453125 12.796875 55.515625 
z
" id="DejaVuSerif-50"/>
        <path d="M 50.296875 72.90625 
L 50.296875 64.890625 
L 16.890625 64.890625 
L 16.890625 44 
Q 19.4375 45.75 22.828125 46.625 
Q 26.21875 47.515625 30.421875 47.515625 
Q 42.234375 47.515625 49.0625 40.96875 
Q 55.90625 34.421875 55.90625 23.09375 
Q 55.90625 11.53125 49 5.046875 
Q 42.09375 -1.421875 29.59375 -1.421875 
Q 24.5625 -1.421875 19.28125 -0.1875 
Q 14.015625 1.03125 8.5 3.515625 
L 8.5 17.671875 
L 14.015625 17.671875 
Q 14.453125 10.75 18.421875 7.078125 
Q 22.40625 3.421875 29.59375 3.421875 
Q 37.3125 3.421875 41.453125 8.5 
Q 45.609375 13.578125 45.609375 23.09375 
Q 45.609375 32.5625 41.484375 37.609375 
Q 37.359375 42.671875 29.59375 42.671875 
Q 25.203125 42.671875 21.84375 41.109375 
Q 18.5 39.546875 15.921875 36.28125 
L 11.71875 36.28125 
L 11.71875 72.90625 
z
" id="DejaVuSerif-53"/>
       </defs>
       <use xlink:href="#DejaVuSerif-50"/>
       <use x="63.623047" xlink:href="#DejaVuSerif-53"/>
      </g>
     </g>
    </g>
    <g id="xtick_3">
     <g id="line2d_3">
      <g>
       <use style="stroke:#000000;stroke-width:0.8;" x="150.659375" xlink:href="#m525ee08a16" y="307.584"/>
      </g>
     </g>
     <g id="text_3">
      <!-- 50 -->
      <g transform="translate(144.296875 322.182437)scale(0.1 -0.1)">
       <use xlink:href="#DejaVuSerif-53"/>
       <use x="63.623047" xlink:href="#DejaVuSerif-48"/>
      </g>
     </g>
    </g>
    <g id="xtick_4">
     <g id="line2d_4">
      <g>
       <use style="stroke:#000000;stroke-width:0.8;" x="191.964025" xlink:href="#m525ee08a16" y="307.584"/>
      </g>
     </g>
     <g id="text_4">
      <!-- 75 -->
      <g transform="translate(185.601525 322.182437)scale(0.1 -0.1)">
       <defs>
        <path d="M 56.390625 67.921875 
L 27.875 0 
L 20.609375 0 
L 47.796875 64.890625 
L 14.109375 64.890625 
L 14.109375 55.90625 
L 8.40625 55.90625 
L 8.40625 72.90625 
L 56.390625 72.90625 
z
" id="DejaVuSerif-55"/>
       </defs>
       <use xlink:href="#DejaVuSerif-55"/>
       <use x="63.623047" xlink:href="#DejaVuSerif-53"/>
      </g>
     </g>
    </g>
    <g id="xtick_5">
     <g id="line2d_5">
      <g>
       <use style="stroke:#000000;stroke-width:0.8;" x="233.268675" xlink:href="#m525ee08a16" y="307.584"/>
      </g>
     </g>
     <g id="text_5">
      <!-- 100 -->
      <g transform="translate(223.724925 322.182437)scale(0.1 -0.1)">
       <defs>
        <path d="M 14.203125 0 
L 14.203125 5.171875 
L 26.90625 5.171875 
L 26.90625 65.828125 
L 12.203125 56.296875 
L 12.203125 62.703125 
L 29.984375 74.21875 
L 36.71875 74.21875 
L 36.71875 5.171875 
L 49.421875 5.171875 
L 49.421875 0 
z
" id="DejaVuSerif-49"/>
       </defs>
       <use xlink:href="#DejaVuSerif-49"/>
       <use x="63.623047" xlink:href="#DejaVuSerif-48"/>
       <use x="127.246094" xlink:href="#DejaVuSerif-48"/>
      </g>
     </g>
    </g>
    <g id="xtick_6">
     <g id="line2d_6">
      <g>
       <use style="stroke:#000000;stroke-width:0.8;" x="274.573324" xlink:href="#m525ee08a16" y="307.584"/>
      </g>
     </g>
     <g id="text_6">
      <!-- 125 -->
      <g transform="translate(265.029574 322.182437)scale(0.1 -0.1)">
       <use xlink:href="#DejaVuSerif-49"/>
       <use x="63.623047" xlink:href="#DejaVuSerif-50"/>
       <use x="127.246094" xlink:href="#DejaVuSerif-53"/>
      </g>
     </g>
    </g>
    <g id="xtick_7">
     <g id="line2d_7">
      <g>
       <use style="stroke:#000000;stroke-width:0.8;" x="315.877974" xlink:href="#m525ee08a16" y="307.584"/>
      </g>
     </g>
     <g id="text_7">
      <!-- 150 -->
      <g transform="translate(306.334224 322.182437)scale(0.1 -0.1)">
       <use xlink:href="#DejaVuSerif-49"/>
       <use x="63.623047" xlink:href="#DejaVuSerif-53"/>
       <use x="127.246094" xlink:href="#DejaVuSerif-48"/>
      </g>
     </g>
    </g>
    <g id="xtick_8">
     <g id="line2d_8">
      <g>
       <use style="stroke:#000000;stroke-width:0.8;" x="357.182623" xlink:href="#m525ee08a16" y="307.584"/>
      </g>
     </g>
     <g id="text_8">
      <!-- 175 -->
      <g transform="translate(347.638873 322.182437)scale(0.1 -0.1)">
       <use xlink:href="#DejaVuSerif-49"/>
       <use x="63.623047" xlink:href="#DejaVuSerif-55"/>
       <use x="127.246094" xlink:href="#DejaVuSerif-53"/>
      </g>
     </g>
    </g>
    <g id="xtick_9">
     <g id="line2d_9">
      <g>
       <use style="stroke:#000000;stroke-width:0.8;" x="398.487273" xlink:href="#m525ee08a16" y="307.584"/>
      </g>
     </g>
     <g id="text_9">
      <!-- 200 -->
      <g transform="translate(388.943523 322.182437)scale(0.1 -0.1)">
       <use xlink:href="#DejaVuSerif-50"/>
       <use x="63.623047" xlink:href="#DejaVuSerif-48"/>
       <use x="127.246094" xlink:href="#DejaVuSerif-48"/>
      </g>
     </g>
    </g>
    <g id="text_10">
     <!-- Time -->
     <g transform="translate(223.524844 335.860562)scale(0.1 -0.1)">
      <defs>
       <path d="M 19.09375 0 
L 19.09375 5.171875 
L 28.421875 5.171875 
L 28.421875 67.09375 
L 6.984375 67.09375 
L 6.984375 55.71875 
L 0.984375 55.71875 
L 0.984375 72.90625 
L 65.71875 72.90625 
L 65.71875 55.71875 
L 59.71875 55.71875 
L 59.71875 67.09375 
L 38.28125 67.09375 
L 38.28125 5.171875 
L 47.609375 5.171875 
L 47.609375 0 
z
" id="DejaVuSerif-84"/>
       <path d="M 9.71875 68.015625 
Q 9.71875 70.265625 11.34375 71.921875 
Q 12.984375 73.578125 15.28125 73.578125 
Q 17.53125 73.578125 19.15625 71.921875 
Q 20.796875 70.265625 20.796875 68.015625 
Q 20.796875 65.71875 19.1875 64.109375 
Q 17.578125 62.5 15.28125 62.5 
Q 12.984375 62.5 11.34375 64.109375 
Q 9.71875 65.71875 9.71875 68.015625 
z
M 21.1875 5.171875 
L 29.6875 5.171875 
L 29.6875 0 
L 3.609375 0 
L 3.609375 5.171875 
L 12.203125 5.171875 
L 12.203125 46.6875 
L 3.609375 46.6875 
L 3.609375 51.90625 
L 21.1875 51.90625 
z
" id="DejaVuSerif-105"/>
       <path d="M 51.8125 41.796875 
Q 54.390625 47.515625 58.421875 50.421875 
Q 62.453125 53.328125 67.828125 53.328125 
Q 75.984375 53.328125 79.984375 48.265625 
Q 83.984375 43.21875 83.984375 33.015625 
L 83.984375 5.171875 
L 92.09375 5.171875 
L 92.09375 0 
L 67.1875 0 
L 67.1875 5.171875 
L 75 5.171875 
L 75 31.984375 
Q 75 39.9375 72.65625 43.3125 
Q 70.3125 46.6875 64.890625 46.6875 
Q 58.890625 46.6875 55.734375 42.140625 
Q 52.59375 37.59375 52.59375 28.90625 
L 52.59375 5.171875 
L 60.40625 5.171875 
L 60.40625 0 
L 35.796875 0 
L 35.796875 5.171875 
L 43.609375 5.171875 
L 43.609375 32.328125 
Q 43.609375 40.09375 41.265625 43.390625 
Q 38.921875 46.6875 33.5 46.6875 
Q 27.484375 46.6875 24.328125 42.140625 
Q 21.1875 37.59375 21.1875 28.90625 
L 21.1875 5.171875 
L 29 5.171875 
L 29 0 
L 4.109375 0 
L 4.109375 5.171875 
L 12.203125 5.171875 
L 12.203125 46.78125 
L 3.609375 46.78125 
L 3.609375 51.90625 
L 21.1875 51.90625 
L 21.1875 42.671875 
Q 23.6875 47.859375 27.53125 50.59375 
Q 31.390625 53.328125 36.28125 53.328125 
Q 42.328125 53.328125 46.375 50.3125 
Q 50.4375 47.3125 51.8125 41.796875 
z
" id="DejaVuSerif-109"/>
       <path d="M 54.203125 25 
L 15.484375 25 
L 15.484375 24.609375 
Q 15.484375 14.109375 19.4375 8.765625 
Q 23.390625 3.421875 31.109375 3.421875 
Q 37.015625 3.421875 40.796875 6.515625 
Q 44.578125 9.625 46.09375 15.71875 
L 53.328125 15.71875 
Q 51.171875 7.171875 45.375 2.875 
Q 39.59375 -1.421875 30.171875 -1.421875 
Q 18.796875 -1.421875 11.890625 6.078125 
Q 4.984375 13.578125 4.984375 25.984375 
Q 4.984375 38.28125 11.765625 45.796875 
Q 18.5625 53.328125 29.59375 53.328125 
Q 41.359375 53.328125 47.65625 46.0625 
Q 53.953125 38.8125 54.203125 25 
z
M 43.609375 30.171875 
Q 43.3125 39.265625 39.765625 43.875 
Q 36.234375 48.484375 29.59375 48.484375 
Q 23.390625 48.484375 19.828125 43.84375 
Q 16.265625 39.203125 15.484375 30.171875 
z
" id="DejaVuSerif-101"/>
      </defs>
      <use xlink:href="#DejaVuSerif-84"/>
      <use x="66.699219" xlink:href="#DejaVuSerif-105"/>
      <use x="98.681641" xlink:href="#DejaVuSerif-109"/>
      <use x="193.505859" xlink:href="#DejaVuSerif-101"/>
     </g>
    </g>
   </g>
   <g id="matplotlib.axis_2">
    <g id="ytick_1">
     <g id="line2d_10">
      <defs>
       <path d="M 0 0 
L -3.5 0 
" id="m9b39a1914c" style="stroke:#000000;stroke-width:0.8;"/>
      </defs>
      <g>
       <use style="stroke:#000000;stroke-width:0.8;" x="57.6" xlink:href="#m9b39a1914c" y="295.488"/>
      </g>
     </g>
     <g id="text_11">
      <!-- 0.0 -->
      <g transform="translate(34.696875 299.287219)scale(0.1 -0.1)">
       <defs>
        <path d="M 9.421875 5.078125 
Q 9.421875 7.8125 11.28125 9.71875 
Q 13.140625 11.625 15.921875 11.625 
Q 18.609375 11.625 20.5 9.71875 
Q 22.40625 7.8125 22.40625 5.078125 
Q 22.40625 2.390625 20.5 0.484375 
Q 18.609375 -1.421875 15.921875 -1.421875 
Q 13.140625 -1.421875 11.28125 0.453125 
Q 9.421875 2.34375 9.421875 5.078125 
z
" id="DejaVuSerif-46"/>
       </defs>
       <use xlink:href="#DejaVuSerif-48"/>
       <use x="63.623047" xlink:href="#DejaVuSerif-46"/>
       <use x="95.410156" xlink:href="#DejaVuSerif-48"/>
      </g>
     </g>
    </g>
    <g id="ytick_2">
     <g id="line2d_11">
      <g>
       <use style="stroke:#000000;stroke-width:0.8;" x="57.6" xlink:href="#m9b39a1914c" y="239.04"/>
      </g>
     </g>
     <g id="text_12">
      <!-- 0.2 -->
      <g transform="translate(34.696875 242.839219)scale(0.1 -0.1)">
       <use xlink:href="#DejaVuSerif-48"/>
       <use x="63.623047" xlink:href="#DejaVuSerif-46"/>
       <use x="95.410156" xlink:href="#DejaVuSerif-50"/>
      </g>
     </g>
    </g>
    <g id="ytick_3">
     <g id="line2d_12">
      <g>
       <use style="stroke:#000000;stroke-width:0.8;" x="57.6" xlink:href="#m9b39a1914c" y="182.592"/>
      </g>
     </g>
     <g id="text_13">
      <!-- 0.4 -->
      <g transform="translate(34.696875 186.391219)scale(0.1 -0.1)">
       <defs>
        <path d="M 34.90625 24.703125 
L 34.90625 63.484375 
L 10.015625 24.703125 
z
M 56.390625 0 
L 23.1875 0 
L 23.1875 5.171875 
L 34.90625 5.171875 
L 34.90625 19.484375 
L 3.078125 19.484375 
L 3.078125 24.8125 
L 35.015625 74.21875 
L 44.671875 74.21875 
L 44.671875 24.703125 
L 58.59375 24.703125 
L 58.59375 19.484375 
L 44.671875 19.484375 
L 44.671875 5.171875 
L 56.390625 5.171875 
z
" id="DejaVuSerif-52"/>
       </defs>
       <use xlink:href="#DejaVuSerif-48"/>
       <use x="63.623047" xlink:href="#DejaVuSerif-46"/>
       <use x="95.410156" xlink:href="#DejaVuSerif-52"/>
      </g>
     </g>
    </g>
    <g id="ytick_4">
     <g id="line2d_13">
      <g>
       <use style="stroke:#000000;stroke-width:0.8;" x="57.6" xlink:href="#m9b39a1914c" y="126.144"/>
      </g>
     </g>
     <g id="text_14">
      <!-- 0.6 -->
      <g transform="translate(34.696875 129.943219)scale(0.1 -0.1)">
       <defs>
        <path d="M 32.71875 3.421875 
Q 39.59375 3.421875 43.296875 8.46875 
Q 47.015625 13.53125 47.015625 23 
Q 47.015625 32.46875 43.296875 37.515625 
Q 39.59375 42.578125 32.71875 42.578125 
Q 25.734375 42.578125 22.0625 37.6875 
Q 18.40625 32.8125 18.40625 23.578125 
Q 18.40625 13.875 22.109375 8.640625 
Q 25.828125 3.421875 32.71875 3.421875 
z
M 16.796875 40.140625 
Q 20.125 43.796875 24.3125 45.59375 
Q 28.515625 47.40625 33.796875 47.40625 
Q 44.671875 47.40625 51 40.859375 
Q 57.328125 34.328125 57.328125 23 
Q 57.328125 11.921875 50.515625 5.25 
Q 43.703125 -1.421875 32.328125 -1.421875 
Q 19.96875 -1.421875 13.328125 7.78125 
Q 6.6875 17 6.6875 34.078125 
Q 6.6875 53.21875 14.546875 63.71875 
Q 22.40625 74.21875 36.71875 74.21875 
Q 40.578125 74.21875 44.828125 73.484375 
Q 49.078125 72.75 53.515625 71.296875 
L 53.515625 59.28125 
L 48 59.28125 
Q 47.40625 64.203125 44.234375 66.796875 
Q 41.0625 69.390625 35.6875 69.390625 
Q 26.21875 69.390625 21.578125 62.203125 
Q 16.9375 55.03125 16.796875 40.140625 
z
" id="DejaVuSerif-54"/>
       </defs>
       <use xlink:href="#DejaVuSerif-48"/>
       <use x="63.623047" xlink:href="#DejaVuSerif-46"/>
       <use x="95.410156" xlink:href="#DejaVuSerif-54"/>
      </g>
     </g>
    </g>
    <g id="ytick_5">
     <g id="line2d_14">
      <g>
       <use style="stroke:#000000;stroke-width:0.8;" x="57.6" xlink:href="#m9b39a1914c" y="69.696"/>
      </g>
     </g>
     <g id="text_15">
      <!-- 0.8 -->
      <g transform="translate(34.696875 73.495219)scale(0.1 -0.1)">
       <defs>
        <path d="M 46.578125 19.921875 
Q 46.578125 27.734375 42.6875 32.046875 
Q 38.8125 36.375 31.78125 36.375 
Q 24.75 36.375 20.875 32.046875 
Q 17 27.734375 17 19.921875 
Q 17 12.0625 20.875 7.734375 
Q 24.75 3.421875 31.78125 3.421875 
Q 38.8125 3.421875 42.6875 7.734375 
Q 46.578125 12.0625 46.578125 19.921875 
z
M 44.578125 55.328125 
Q 44.578125 61.96875 41.203125 65.671875 
Q 37.84375 69.390625 31.78125 69.390625 
Q 25.78125 69.390625 22.390625 65.671875 
Q 19 61.96875 19 55.328125 
Q 19 48.640625 22.390625 44.921875 
Q 25.78125 41.21875 31.78125 41.21875 
Q 37.84375 41.21875 41.203125 44.921875 
Q 44.578125 48.640625 44.578125 55.328125 
z
M 39.3125 38.8125 
Q 47.609375 37.703125 52.25 32.6875 
Q 56.890625 27.6875 56.890625 19.921875 
Q 56.890625 9.671875 50.390625 4.125 
Q 43.890625 -1.421875 31.78125 -1.421875 
Q 19.734375 -1.421875 13.203125 4.125 
Q 6.6875 9.671875 6.6875 19.921875 
Q 6.6875 27.6875 11.328125 32.6875 
Q 15.96875 37.703125 24.3125 38.8125 
Q 16.9375 40.140625 13 44.40625 
Q 9.078125 48.6875 9.078125 55.328125 
Q 9.078125 64.109375 15.125 69.15625 
Q 21.1875 74.21875 31.78125 74.21875 
Q 42.390625 74.21875 48.4375 69.15625 
Q 54.5 64.109375 54.5 55.328125 
Q 54.5 48.6875 50.5625 44.40625 
Q 46.625 40.140625 39.3125 38.8125 
z
" id="DejaVuSerif-56"/>
       </defs>
       <use xlink:href="#DejaVuSerif-48"/>
       <use x="63.623047" xlink:href="#DejaVuSerif-46"/>
       <use x="95.410156" xlink:href="#DejaVuSerif-56"/>
      </g>
     </g>
    </g>
    <g id="text_16">
     <!-- Speed -->
     <g transform="translate(28.617187 190.273313)rotate(-90)scale(0.1 -0.1)">
      <defs>
       <path d="M 9.28125 3.515625 
L 9.28125 20.125 
L 14.890625 20.0625 
Q 15.140625 11.765625 19.703125 7.78125 
Q 24.265625 3.8125 33.59375 3.8125 
Q 42.28125 3.8125 46.84375 7.25 
Q 51.421875 10.6875 51.421875 17.28125 
Q 51.421875 22.5625 48.65625 25.390625 
Q 45.90625 28.21875 37.015625 30.90625 
L 27.390625 33.796875 
Q 16.9375 36.96875 12.671875 41.703125 
Q 8.40625 46.4375 8.40625 54.6875 
Q 8.40625 63.96875 14.984375 69.09375 
Q 21.578125 74.21875 33.5 74.21875 
Q 38.578125 74.21875 44.625 73.109375 
Q 50.6875 72.015625 57.515625 69.921875 
L 57.515625 54.390625 
L 52 54.390625 
Q 51.171875 62.109375 46.84375 65.546875 
Q 42.53125 69 33.6875 69 
Q 25.984375 69 21.953125 65.84375 
Q 17.921875 62.703125 17.921875 56.6875 
Q 17.921875 51.46875 20.9375 48.484375 
Q 23.96875 45.515625 33.796875 42.578125 
L 42.828125 39.890625 
Q 52.734375 36.921875 56.953125 32.296875 
Q 61.1875 27.6875 61.1875 19.921875 
Q 61.1875 9.328125 54.390625 3.953125 
Q 47.609375 -1.421875 34.1875 -1.421875 
Q 28.171875 -1.421875 21.9375 -0.1875 
Q 15.71875 1.03125 9.28125 3.515625 
z
" id="DejaVuSerif-83"/>
       <path d="M 20.515625 28.515625 
L 20.515625 23.390625 
Q 20.515625 14.015625 24.09375 9.109375 
Q 27.6875 4.203125 34.515625 4.203125 
Q 41.40625 4.203125 44.9375 9.71875 
Q 48.484375 15.234375 48.484375 25.984375 
Q 48.484375 36.765625 44.9375 42.234375 
Q 41.40625 47.703125 34.515625 47.703125 
Q 27.6875 47.703125 24.09375 42.765625 
Q 20.515625 37.84375 20.515625 28.515625 
z
M 11.53125 46.6875 
L 2.875 46.6875 
L 2.875 51.90625 
L 20.515625 51.90625 
L 20.515625 43.796875 
Q 23.140625 48.6875 27.21875 51 
Q 31.296875 53.328125 37.3125 53.328125 
Q 46.875 53.328125 52.921875 45.75 
Q 58.984375 38.1875 58.984375 25.984375 
Q 58.984375 13.765625 52.921875 6.171875 
Q 46.875 -1.421875 37.3125 -1.421875 
Q 31.296875 -1.421875 27.21875 0.890625 
Q 23.140625 3.21875 20.515625 8.109375 
L 20.515625 -15.578125 
L 29 -15.578125 
L 29 -20.796875 
L 2.875 -20.796875 
L 2.875 -15.578125 
L 11.53125 -15.578125 
z
" id="DejaVuSerif-112"/>
       <path d="M 52.484375 5.171875 
L 61.078125 5.171875 
L 61.078125 0 
L 43.5 0 
L 43.5 8.109375 
Q 40.875 3.21875 36.796875 0.890625 
Q 32.71875 -1.421875 26.703125 -1.421875 
Q 17.140625 -1.421875 11.0625 6.171875 
Q 4.984375 13.765625 4.984375 25.984375 
Q 4.984375 38.1875 11.03125 45.75 
Q 17.09375 53.328125 26.703125 53.328125 
Q 32.71875 53.328125 36.796875 51 
Q 40.875 48.6875 43.5 43.796875 
L 43.5 70.796875 
L 35.015625 70.796875 
L 35.015625 75.984375 
L 52.484375 75.984375 
z
M 43.5 23.390625 
L 43.5 28.515625 
Q 43.5 37.84375 39.90625 42.765625 
Q 36.328125 47.703125 29.5 47.703125 
Q 22.5625 47.703125 19.015625 42.234375 
Q 15.484375 36.765625 15.484375 25.984375 
Q 15.484375 15.234375 19.015625 9.71875 
Q 22.5625 4.203125 29.5 4.203125 
Q 36.328125 4.203125 39.90625 9.109375 
Q 43.5 14.015625 43.5 23.390625 
z
" id="DejaVuSerif-100"/>
      </defs>
      <use xlink:href="#DejaVuSerif-83"/>
      <use x="68.505859" xlink:href="#DejaVuSerif-112"/>
      <use x="132.519531" xlink:href="#DejaVuSerif-101"/>
      <use x="191.699219" xlink:href="#DejaVuSerif-101"/>
      <use x="250.878906" xlink:href="#DejaVuSerif-100"/>
     </g>
    </g>
   </g>
   <g id="line2d_15">
    <path clip-path="url(#pa15771b6b7)" d="M 73.832727 295.488 
L 77.963192 295.488 
L 78.244064 53.568 
L 79.070157 53.568 
L 79.334507 83.808 
L 80.1606 83.808 
L 80.441471 295.488 
L 85.117158 295.488 
L 85.398029 154.368 
L 85.943251 154.368 
L 86.224122 165.223385 
L 87.331087 165.223385 
L 87.595437 174.528 
L 88.702401 174.528 
L 88.983273 182.592 
L 89.247622 182.592 
L 89.528494 295.488 
L 91.725901 295.488 
L 92.006773 195.873882 
L 92.832866 195.873882 
L 93.113738 201.408 
L 94.20418 201.408 
L 94.485052 206.359579 
L 95.592017 206.359579 
L 95.856366 210.816 
L 96.963331 210.816 
L 97.244203 214.848 
L 97.508552 214.848 
L 97.789424 295.488 
L 98.334645 295.488 
L 98.615517 218.513455 
L 99.722482 218.513455 
L 99.986831 221.860174 
L 101.093796 221.860174 
L 101.374668 224.928 
L 102.46511 224.928 
L 102.745982 227.7504 
L 103.852947 227.7504 
L 104.117296 230.355692 
L 104.67904 230.355692 
L 104.943389 165.223385 
L 105.224261 165.223385 
L 105.505133 170.048 
L 105.769482 170.048 
L 106.050354 232.768 
L 106.595575 232.768 
L 106.876447 235.008 
L 107.983412 235.008 
L 108.247761 237.093517 
L 109.354726 237.093517 
L 109.635598 239.04 
L 110.72604 239.04 
L 111.006912 240.860903 
L 111.287783 240.860903 
L 111.552133 186.233806 
L 112.113876 186.233806 
L 112.378226 189.648 
L 113.485191 189.648 
L 113.766062 192.855273 
L 114.030412 244.171636 
L 114.856505 244.171636 
L 115.137377 245.680941 
L 116.244341 245.680941 
L 116.508691 247.104 
L 117.615656 247.104 
L 117.896527 248.448 
L 118.160877 201.408 
L 118.98697 201.408 
L 119.267842 203.950703 
L 120.374806 203.950703 
L 120.639156 206.359579 
L 121.746121 206.359579 
L 122.026992 208.644923 
L 122.291342 252.066462 
L 123.117435 252.066462 
L 123.398307 253.152 
L 124.2244 253.152 
L 124.505271 210.816 
L 124.769621 212.881171 
L 125.876586 212.881171 
L 126.157457 214.848 
L 127.2479 214.848 
L 127.528772 216.723349 
L 128.635736 216.723349 
L 128.900086 218.513455 
L 130.007051 218.513455 
L 130.287922 220.224 
L 130.552272 257.856 
L 130.833144 257.856 
L 131.114015 220.224 
L 131.378365 220.224 
L 131.659237 221.860174 
L 132.766201 221.860174 
L 133.030551 223.426723 
L 134.137516 223.426723 
L 134.418387 224.928 
L 135.50883 224.928 
L 135.789702 226.368 
L 136.896666 226.368 
L 137.161016 227.7504 
L 137.441888 193.8816 
L 137.987109 193.8816 
L 138.267981 227.7504 
L 138.548852 229.078588 
L 139.639295 229.078588 
L 139.920167 230.355692 
L 141.027131 230.355692 
L 141.291481 231.584604 
L 142.398446 231.584604 
L 142.679317 232.768 
L 143.76976 232.768 
L 144.050632 203.118545 
L 145.157596 203.118545 
L 145.421946 204.768 
L 146.248039 204.768 
L 146.52891 235.008 
L 146.809782 236.069053 
L 147.900225 236.069053 
L 148.181096 237.093517 
L 149.288061 237.093517 
L 149.552411 238.083254 
L 150.114154 238.083254 
L 150.378504 209.380881 
L 150.659375 209.380881 
L 150.940247 210.816 
L 152.03069 210.816 
L 152.311561 212.204066 
L 153.418526 212.204066 
L 153.682876 213.547355 
L 154.244619 213.547355 
L 154.508969 240.860903 
L 154.78984 240.860903 
L 155.070712 241.728 
L 156.161155 241.728 
L 156.442026 242.568 
L 156.722898 242.568 
L 156.987248 216.108 
L 157.548991 216.108 
L 157.813341 217.329231 
L 158.920305 217.329231 
L 159.201177 218.513455 
L 160.29162 218.513455 
L 160.572491 219.662328 
L 161.679456 219.662328 
L 161.943806 220.777412 
L 162.505549 220.777412 
L 162.769899 245.680941 
L 163.05077 245.680941 
L 163.331642 221.860174 
L 164.422085 221.860174 
L 164.702956 222.912 
L 165.809921 222.912 
L 166.074271 223.934197 
L 167.181235 223.934197 
L 167.462107 224.928 
L 168.55255 224.928 
L 168.833421 225.894575 
L 169.659514 225.894575 
L 169.940386 202.696767 
L 170.204736 203.950703 
L 170.485607 203.950703 
L 170.766479 226.835027 
L 171.3117 226.835027 
L 171.592572 227.7504 
L 172.683015 227.7504 
L 172.963886 228.641684 
L 174.070851 228.641684 
L 174.335201 229.509818 
L 175.442165 229.509818 
L 175.723037 230.355692 
L 176.268258 230.355692 
L 176.54913 208.644923 
L 176.81348 208.644923 
L 177.094351 209.744203 
L 178.201316 209.744203 
L 178.465666 210.816 
L 178.746537 210.816 
L 179.027409 231.984 
L 179.57263 231.984 
L 179.853502 232.768 
L 180.943944 232.768 
L 181.224816 233.532878 
L 182.331781 233.532878 
L 182.59613 234.279325 
L 182.877002 213.876434 
L 183.703095 213.876434 
L 183.983967 214.848 
L 185.074409 214.848 
L 185.355281 215.796706 
L 186.462246 215.796706 
L 186.726595 216.723349 
L 187.007467 236.414512 
L 187.83356 236.414512 
L 188.114432 237.093517 
L 189.204874 237.093517 
L 189.485746 218.513455 
L 190.592711 218.513455 
L 190.85706 219.378337 
L 191.964025 219.378337 
L 192.244897 220.224 
L 193.335339 220.224 
L 193.616211 221.051077 
L 194.723176 221.051077 
L 194.987525 221.860174 
L 195.268397 240.26713 
L 195.549269 240.26713 
L 195.813618 221.860174 
L 196.09449 221.860174 
L 196.375362 222.651871 
L 197.465804 222.651871 
L 197.746676 223.426723 
L 198.853641 223.426723 
L 199.11799 224.185263 
L 200.224955 224.185263 
L 200.505827 224.928 
L 201.596269 224.928 
L 201.877141 225.655423 
L 202.158012 225.655423 
L 202.422362 208.197278 
L 202.984105 208.197278 
L 203.248455 209.088 
L 203.529327 226.368 
L 204.35542 226.368 
L 204.636291 227.066182 
L 205.726734 227.066182 
L 206.007606 227.7504 
L 207.11457 227.7504 
L 207.37892 228.421069 
L 208.485885 228.421069 
L 208.766756 212.476235 
L 209.857199 212.476235 
L 210.138071 213.282175 
L 210.964164 213.282175 
L 211.245035 229.72334 
L 211.509385 230.355692 
L 212.61635 230.355692 
L 212.897221 230.976 
L 213.987664 230.976 
L 214.268536 231.584604 
L 215.094629 231.584604 
L 215.3755 215.608755 
L 215.63985 216.35529 
L 216.746815 216.35529 
L 217.027686 217.088 
L 218.118129 217.088 
L 218.399001 217.807266 
L 219.225094 217.807266 
L 219.505965 233.343413 
L 219.770315 233.908364 
L 220.87728 233.908364 
L 221.158151 234.463135 
L 221.422501 234.463135 
L 221.703373 219.206919 
L 222.248594 219.206919 
L 222.529466 219.888 
L 223.63643 219.888 
L 223.90078 220.557027 
L 225.007745 220.557027 
L 225.288616 221.214316 
L 226.379059 221.214316 
L 226.659931 221.860174 
L 227.205152 221.860174 
L 227.486024 236.585739 
L 227.766895 236.585739 
L 228.031245 237.093517 
L 228.312117 222.494897 
L 229.13821 222.494897 
L 229.419081 223.118769 
L 230.509524 223.118769 
L 230.790396 223.732068 
L 231.89736 223.732068 
L 232.16171 224.335059 
L 233.268675 224.335059 
L 233.549546 224.928 
L 234.639989 224.928 
L 234.920861 211.515769 
L 235.466082 211.515769 
L 235.746954 225.51114 
L 236.027825 225.51114 
L 236.292175 226.084721 
L 237.399139 226.084721 
L 237.680011 226.648976 
L 238.770454 226.648976 
L 239.051325 227.204129 
L 240.15829 227.204129 
L 240.42264 227.7504 
L 240.984383 227.7504 
L 241.248733 214.20288 
L 241.529604 214.20288 
L 241.810476 214.848 
L 242.900919 214.848 
L 243.18179 215.482961 
L 243.462662 215.482961 
L 243.727012 228.817134 
L 244.288755 228.817134 
L 244.553105 229.338 
L 245.660069 229.338 
L 245.940941 229.850791 
L 247.031384 229.850791 
L 247.312255 230.355692 
L 247.593127 230.355692 
L 247.857477 217.329231 
L 248.41922 217.329231 
L 248.68357 217.925863 
L 249.790534 217.925863 
L 250.071406 218.513455 
L 251.161849 218.513455 
L 251.44272 219.092211 
L 251.723592 219.092211 
L 251.987942 231.824842 
L 252.549685 231.824842 
L 252.814035 232.29994 
L 253.920999 232.29994 
L 254.201871 220.224 
L 255.292314 220.224 
L 255.573185 220.777412 
L 256.68015 220.777412 
L 256.9445 221.322745 
L 258.051464 221.322745 
L 258.332336 221.860174 
L 259.422779 221.860174 
L 259.70365 222.389871 
L 259.984522 234.572892 
L 260.529743 234.572892 
L 260.810615 222.389871 
L 261.074965 222.912 
L 262.181929 222.912 
L 262.462801 223.426723 
L 263.553244 223.426723 
L 263.834115 223.934197 
L 264.94108 223.934197 
L 265.20543 224.434573 
L 266.312394 224.434573 
L 266.593266 224.928 
L 266.857616 224.928 
L 267.138487 213.168 
L 267.683709 213.168 
L 267.96458 213.735724 
L 268.245452 225.414621 
L 269.071545 225.414621 
L 269.335895 225.894575 
L 270.442859 225.894575 
L 270.723731 226.368 
L 271.814173 226.368 
L 272.095045 226.835027 
L 273.20201 226.835027 
L 273.466359 227.295785 
L 273.747231 215.930416 
L 274.573324 215.930416 
L 274.854196 216.4608 
L 275.944638 216.4608 
L 276.22551 216.984159 
L 276.506382 228.198993 
L 277.332475 228.198993 
L 277.596824 228.641684 
L 278.703789 228.641684 
L 278.984661 229.078588 
L 279.810754 229.078588 
L 280.075103 218.010353 
L 280.355975 218.513455 
L 281.46294 218.513455 
L 281.727289 219.010065 
L 282.834254 219.010065 
L 283.115126 219.500308 
L 283.941219 219.500308 
L 284.205568 230.355692 
L 284.48644 230.770548 
L 285.593405 230.770548 
L 285.857754 231.180152 
L 286.419498 231.180152 
L 286.683847 220.462177 
L 286.964719 220.462177 
L 287.245591 220.934038 
L 288.336033 220.934038 
L 288.616905 221.4 
L 289.72387 221.4 
L 289.988219 221.860174 
L 291.095184 221.860174 
L 291.376056 222.314667 
L 292.202149 222.314667 
L 292.466498 232.768 
L 292.74737 233.152785 
L 293.028241 222.763583 
L 293.854334 222.763583 
L 294.118684 223.207024 
L 295.225649 223.207024 
L 295.50652 223.645091 
L 296.596963 223.645091 
L 296.877835 224.07788 
L 297.984799 224.07788 
L 298.249149 224.505485 
L 299.356114 224.505485 
L 299.636985 214.848 
L 300.182207 214.848 
L 300.463078 224.928 
L 300.727428 224.928 
L 301.0083 225.345515 
L 302.115264 225.345515 
L 302.379614 225.758118 
L 303.486579 225.758118 
L 303.76745 226.165895 
L 304.857893 226.165895 
L 305.138765 226.56893 
L 305.964858 226.56893 
L 306.245729 216.723349 
L 306.510079 217.178636 
L 307.617044 217.178636 
L 307.897915 217.62869 
L 308.443137 217.62869 
L 308.724008 227.361103 
L 308.988358 227.361103 
L 309.26923 227.7504 
L 310.376194 227.7504 
L 310.640544 228.135273 
L 311.747509 228.135273 
L 312.02838 228.515797 
L 312.29273 228.515797 
L 312.573602 218.948339 
L 313.118823 218.948339 
L 313.399695 219.378337 
L 314.506659 219.378337 
L 314.771009 219.803531 
L 315.877974 219.803531 
L 316.158845 220.224 
L 316.423195 220.224 
L 316.704067 229.632 
L 317.249288 229.632 
L 317.53016 229.995845 
L 318.637124 229.995845 
L 318.901474 230.355692 
L 319.182346 221.051077 
L 320.008439 221.051077 
L 320.28931 221.457836 
L 321.379753 221.457836 
L 321.660625 221.860174 
L 322.767589 221.860174 
L 323.031939 222.258162 
L 324.138904 222.258162 
L 324.419775 222.651871 
L 324.684125 222.651871 
L 324.964997 231.756387 
L 325.245868 231.756387 
L 325.510218 222.651871 
L 325.79109 223.041369 
L 326.898054 223.041369 
L 327.162404 223.426723 
L 328.269368 223.426723 
L 328.55024 223.808 
L 329.640683 223.808 
L 329.921554 224.185263 
L 331.028519 224.185263 
L 331.292869 224.558576 
L 331.854612 224.558576 
L 332.118962 215.692398 
L 332.399833 215.692398 
L 332.680705 216.108 
L 332.945055 224.928 
L 333.771148 224.928 
L 334.052019 225.293596 
L 335.158984 225.293596 
L 335.423334 225.655423 
L 336.530298 225.655423 
L 336.81117 226.013538 
L 337.901613 226.013538 
L 338.182484 226.368 
L 338.463356 217.728 
L 339.289449 217.728 
L 339.553799 218.122721 
L 340.660763 218.122721 
L 340.941635 218.513455 
L 341.205985 227.066182 
L 342.032078 227.066182 
L 342.312949 227.41001 
L 343.419914 227.41001 
L 343.684264 227.7504 
L 344.791228 227.7504 
L 345.0721 219.662328 
L 346.162543 219.662328 
L 346.443414 220.037703 
L 347.550379 220.037703 
L 347.814729 220.409379 
L 348.640822 220.409379 
L 348.921693 228.751448 
L 349.202565 229.078588 
L 350.293008 229.078588 
L 350.573879 229.402537 
L 351.119101 229.402537 
L 351.399972 221.141854 
L 351.680844 221.141854 
L 351.945194 221.502757 
L 353.052158 221.502757 
L 353.33303 221.860174 
L 354.423473 221.860174 
L 354.704344 222.214154 
L 355.811309 222.214154 
L 356.075659 222.564746 
L 356.901752 222.564746 
L 357.182623 230.66733 
L 357.463495 230.976 
L 357.727845 230.976 
L 358.008716 222.912 
L 358.553938 222.912 
L 358.834809 223.255962 
L 359.941774 223.255962 
L 360.206124 223.596679 
L 361.313088 223.596679 
L 361.59396 223.934197 
L 362.684402 223.934197 
L 362.965274 224.268561 
L 364.072239 224.268561 
L 364.336588 224.599814 
L 364.61746 216.723349 
L 365.162681 216.723349 
L 365.443553 224.599814 
L 365.724425 224.928 
L 366.814867 224.928 
L 367.095739 225.253161 
L 368.202704 225.253161 
L 368.467053 225.575339 
L 369.574018 225.575339 
L 369.85489 225.894575 
L 370.680983 225.894575 
L 370.945332 218.161973 
L 371.226204 218.513455 
L 372.333169 218.513455 
L 372.597518 218.861756 
L 373.159262 218.861756 
L 373.423611 226.52438 
L 373.704483 226.52438 
L 373.985355 226.835027 
L 375.075797 226.835027 
L 375.356669 227.142888 
L 376.463634 227.142888 
L 376.727983 227.448 
L 377.289727 227.448 
L 377.554076 219.888 
L 377.834948 219.888 
L 378.11582 220.224 
L 379.206262 220.224 
L 379.487134 220.557027 
L 380.594099 220.557027 
L 380.858448 220.887119 
L 381.420192 220.887119 
L 381.684541 228.347207 
L 381.965413 228.347207 
L 382.246285 228.641684 
L 383.336727 228.641684 
L 383.617599 228.93359 
L 383.898471 221.538655 
L 384.724563 221.538655 
L 384.988913 221.860174 
L 386.095878 221.860174 
L 386.376749 222.178909 
L 387.467192 222.178909 
L 387.748064 222.494897 
L 388.855028 222.494897 
L 389.119378 222.808172 
L 389.40025 222.808172 
L 389.681121 230.076155 
L 390.226343 230.076155 
L 390.507214 223.118769 
L 391.597657 223.118769 
L 391.878529 223.426723 
L 392.985493 223.426723 
L 393.249843 223.732068 
L 394.356808 223.732068 
L 394.637679 224.034835 
L 395.728122 224.034835 
L 396.008994 224.335059 
L 396.554215 224.335059 
L 396.835087 217.219765 
L 397.115958 217.219765 
L 397.380308 217.547247 
L 397.66118 217.547247 
L 397.942051 224.63277 
L 398.487273 224.63277 
L 398.487273 224.63277 
" style="fill:none;stroke:#1f77b4;stroke-linecap:square;stroke-width:1.5;"/>
   </g>
   <g id="patch_3">
    <path d="M 57.6 307.584 
L 57.6 41.472 
" style="fill:none;stroke:#000000;stroke-linecap:square;stroke-linejoin:miter;stroke-width:0.8;"/>
   </g>
   <g id="patch_4">
    <path d="M 414.72 307.584 
L 414.72 41.472 
" style="fill:none;stroke:#000000;stroke-linecap:square;stroke-linejoin:miter;stroke-width:0.8;"/>
   </g>
   <g id="patch_5">
    <path d="M 57.6 307.584 
L 414.72 307.584 
" style="fill:none;stroke:#000000;stroke-linecap:square;stroke-linejoin:miter;stroke-width:0.8;"/>
   </g>
   <g id="patch_6">
    <path d="M 57.6 41.472 
L 414.72 41.472 
" style="fill:none;stroke:#000000;stroke-linecap:square;stroke-linejoin:miter;stroke-width:0.8;"/>
   </g>
   <g id="text_17">
    <!-- Speed function of time -->
    <g transform="translate(167.024063 35.472)scale(0.12 -0.12)">
     <defs>
      <path id="DejaVuSerif-32"/>
      <path d="M 43.015625 63.71875 
L 38.28125 63.71875 
Q 38.234375 67.390625 36.203125 69.28125 
Q 34.1875 71.1875 30.328125 71.1875 
Q 25.296875 71.1875 23.234375 68.421875 
Q 21.1875 65.671875 21.1875 58.59375 
L 21.1875 51.90625 
L 35.6875 51.90625 
L 35.6875 46.6875 
L 21.1875 46.6875 
L 21.1875 5.171875 
L 32.71875 5.171875 
L 32.71875 0 
L 3.609375 0 
L 3.609375 5.171875 
L 12.203125 5.171875 
L 12.203125 46.6875 
L 3.609375 46.6875 
L 3.609375 51.90625 
L 12.203125 51.90625 
L 12.203125 58.40625 
Q 12.203125 67.09375 16.71875 71.53125 
Q 21.234375 75.984375 29.984375 75.984375 
Q 33.25 75.984375 36.515625 75.390625 
Q 39.796875 74.8125 43.015625 73.578125 
z
" id="DejaVuSerif-102"/>
      <path d="M 35.40625 51.90625 
L 52.203125 51.90625 
L 52.203125 5.171875 
L 60.6875 5.171875 
L 60.6875 0 
L 43.21875 0 
L 43.21875 9.1875 
Q 40.71875 4 36.765625 1.28125 
Q 32.8125 -1.421875 27.59375 -1.421875 
Q 18.953125 -1.421875 14.875 3.484375 
Q 10.796875 8.40625 10.796875 18.890625 
L 10.796875 46.6875 
L 2.6875 46.6875 
L 2.6875 51.90625 
L 19.828125 51.90625 
L 19.828125 21.6875 
Q 19.828125 12.203125 22.140625 8.6875 
Q 24.46875 5.171875 30.421875 5.171875 
Q 36.671875 5.171875 39.9375 9.765625 
Q 43.21875 14.359375 43.21875 23.09375 
L 43.21875 46.6875 
L 35.40625 46.6875 
z
" id="DejaVuSerif-117"/>
      <path d="M 4.109375 0 
L 4.109375 5.171875 
L 12.203125 5.171875 
L 12.203125 46.6875 
L 3.609375 46.6875 
L 3.609375 51.90625 
L 21.1875 51.90625 
L 21.1875 42.671875 
Q 23.6875 47.953125 27.65625 50.640625 
Q 31.640625 53.328125 36.921875 53.328125 
Q 45.515625 53.328125 49.5625 48.390625 
Q 53.609375 43.453125 53.609375 33.015625 
L 53.609375 5.171875 
L 61.625 5.171875 
L 61.625 0 
L 36.8125 0 
L 36.8125 5.171875 
L 44.578125 5.171875 
L 44.578125 30.171875 
Q 44.578125 39.703125 42.234375 43.234375 
Q 39.890625 46.78125 33.984375 46.78125 
Q 27.734375 46.78125 24.453125 42.203125 
Q 21.1875 37.640625 21.1875 28.90625 
L 21.1875 5.171875 
L 29 5.171875 
L 29 0 
z
" id="DejaVuSerif-110"/>
      <path d="M 51.421875 15.578125 
Q 49.515625 7.28125 44.09375 2.921875 
Q 38.671875 -1.421875 30.078125 -1.421875 
Q 18.75 -1.421875 11.859375 6.078125 
Q 4.984375 13.578125 4.984375 25.984375 
Q 4.984375 38.421875 11.859375 45.875 
Q 18.75 53.328125 30.078125 53.328125 
Q 35.015625 53.328125 39.890625 52.171875 
Q 44.78125 51.03125 49.703125 48.6875 
L 49.703125 35.40625 
L 44.484375 35.40625 
Q 43.453125 42.234375 40.015625 45.359375 
Q 36.578125 48.484375 30.171875 48.484375 
Q 22.90625 48.484375 19.1875 42.84375 
Q 15.484375 37.203125 15.484375 25.984375 
Q 15.484375 14.75 19.171875 9.078125 
Q 22.859375 3.421875 30.171875 3.421875 
Q 35.984375 3.421875 39.453125 6.4375 
Q 42.921875 9.46875 44.1875 15.578125 
z
" id="DejaVuSerif-99"/>
      <path d="M 10.796875 46.6875 
L 2.875 46.6875 
L 2.875 51.90625 
L 10.796875 51.90625 
L 10.796875 68.015625 
L 19.828125 68.015625 
L 19.828125 51.90625 
L 36.71875 51.90625 
L 36.71875 46.6875 
L 19.828125 46.6875 
L 19.828125 13.71875 
Q 19.828125 7.125 21.09375 5.265625 
Q 22.359375 3.421875 25.78125 3.421875 
Q 29.296875 3.421875 30.90625 5.484375 
Q 32.515625 7.5625 32.625 12.203125 
L 39.40625 12.203125 
Q 39.015625 5.125 35.546875 1.84375 
Q 32.078125 -1.421875 25 -1.421875 
Q 17.234375 -1.421875 14.015625 2.015625 
Q 10.796875 5.46875 10.796875 13.71875 
z
" id="DejaVuSerif-116"/>
      <path d="M 30.078125 3.421875 
Q 37.3125 3.421875 40.984375 9.125 
Q 44.671875 14.84375 44.671875 25.984375 
Q 44.671875 37.109375 40.984375 42.796875 
Q 37.3125 48.484375 30.078125 48.484375 
Q 22.859375 48.484375 19.171875 42.796875 
Q 15.484375 37.109375 15.484375 25.984375 
Q 15.484375 14.84375 19.1875 9.125 
Q 22.90625 3.421875 30.078125 3.421875 
z
M 30.078125 -1.421875 
Q 18.75 -1.421875 11.859375 6.078125 
Q 4.984375 13.578125 4.984375 25.984375 
Q 4.984375 38.375 11.84375 45.84375 
Q 18.703125 53.328125 30.078125 53.328125 
Q 41.453125 53.328125 48.3125 45.84375 
Q 55.171875 38.375 55.171875 25.984375 
Q 55.171875 13.578125 48.3125 6.078125 
Q 41.453125 -1.421875 30.078125 -1.421875 
z
" id="DejaVuSerif-111"/>
     </defs>
     <use xlink:href="#DejaVuSerif-83"/>
     <use x="68.505859" xlink:href="#DejaVuSerif-112"/>
     <use x="132.519531" xlink:href="#DejaVuSerif-101"/>
     <use x="191.699219" xlink:href="#DejaVuSerif-101"/>
     <use x="250.878906" xlink:href="#DejaVuSerif-100"/>
     <use x="314.892578" xlink:href="#DejaVuSerif-32"/>
     <use x="346.679688" xlink:href="#DejaVuSerif-102"/>
     <use x="383.691406" xlink:href="#DejaVuSerif-117"/>
     <use x="448.095703" xlink:href="#DejaVuSerif-110"/>
     <use x="512.5" xlink:href="#DejaVuSerif-99"/>
     <use x="568.505859" xlink:href="#DejaVuSerif-116"/>
     <use x="608.691406" xlink:href="#DejaVuSerif-105"/>
     <use x="640.673828" xlink:href="#DejaVuSerif-111"/>
     <use x="700.878906" xlink:href="#DejaVuSerif-110"/>
     <use x="765.283203" xlink:href="#DejaVuSerif-32"/>
     <use x="797.070312" xlink:href="#DejaVuSerif-111"/>
     <use x="857.275391" xlink:href="#DejaVuSerif-102"/>
     <use x="894.287109" xlink:href="#DejaVuSerif-32"/>
     <use x="926.074219" xlink:href="#DejaVuSerif-116"/>
     <use x="966.259766" xlink:href="#DejaVuSerif-105"/>
     <use x="998.242188" xlink:href="#DejaVuSerif-109"/>
     <use x="1093.066406" xlink:href="#DejaVuSerif-101"/>
    </g>
   </g>
  </g>
 </g>
 <defs>
  <clipPath id="pa15771b6b7">
   <rect height="266.112" width="357.12" x="57.6" y="41.472"/>
  </clipPath>
 </defs>
</svg>
