<?xml version="1.0" encoding="utf-8" standalone="no"?>
<!DOCTYPE svg PUBLIC "-//W3C//DTD SVG 1.1//EN"
  "http://www.w3.org/Graphics/SVG/1.1/DTD/svg11.dtd">
<!-- Created with matplotlib (https://matplotlib.org/) -->
<svg height="345.6pt" version="1.1" viewBox="0 0 460.8 345.6" width="460.8pt" xmlns="http://www.w3.org/2000/svg" xmlns:xlink="http://www.w3.org/1999/xlink">
 <metadata>
  <rdf:RDF xmlns:cc="http://creativecommons.org/ns#" xmlns:dc="http://purl.org/dc/elements/1.1/" xmlns:rdf="http://www.w3.org/1999/02/22-rdf-syntax-ns#">
   <cc:Work>
    <dc:type rdf:resource="http://purl.org/dc/dcmitype/StillImage"/>
    <dc:date>2022-05-24T01:13:14.552421</dc:date>
    <dc:format>image/svg+xml</dc:format>
    <dc:creator>
     <cc:Agent>
      <dc:title>Matplotlib v3.3.4, https://matplotlib.org/</dc:title>
     </cc:Agent>
    </dc:creator>
   </cc:Work>
  </rdf:RDF>
 </metadata>
 <defs>
  <style type="text/css">*{stroke-linecap:butt;stroke-linejoin:round;}</style>
 </defs>
 <g id="figure_1">
  <g id="patch_1">
   <path d="M 0 345.6 
L 460.8 345.6 
L 460.8 0 
L 0 0 
z
" style="fill:#ffffff;"/>
  </g>
  <g id="axes_1">
   <g id="patch_2">
    <path d="M 57.6 307.584 
L 414.72 307.584 
L 414.72 41.472 
L 57.6 41.472 
z
" style="fill:#ffffff;"/>
   </g>
   <g id="matplotlib.axis_1">
    <g id="xtick_1">
     <g id="line2d_1">
      <defs>
       <path d="M 0 0 
L 0 3.5 
" id="m6418d7fa34" style="stroke:#000000;stroke-width:0.8;"/>
      </defs>
      <g>
       <use style="stroke:#000000;stroke-width:0.8;" x="68.050076" xlink:href="#m6418d7fa34" y="307.584"/>
      </g>
     </g>
     <g id="text_1">
      <!-- 0 -->
      <g transform="translate(64.868826 322.182437)scale(0.1 -0.1)">
       <defs>
        <path d="M 31.78125 3.421875 
Q 39.265625 3.421875 42.96875 11.625 
Q 46.6875 19.828125 46.6875 36.375 
Q 46.6875 52.984375 42.96875 61.1875 
Q 39.265625 69.390625 31.78125 69.390625 
Q 24.3125 69.390625 20.59375 61.1875 
Q 16.890625 52.984375 16.890625 36.375 
Q 16.890625 19.828125 20.59375 11.625 
Q 24.3125 3.421875 31.78125 3.421875 
z
M 31.78125 -1.421875 
Q 19.921875 -1.421875 13.25 8.53125 
Q 6.59375 18.5 6.59375 36.375 
Q 6.59375 54.296875 13.25 64.25 
Q 19.921875 74.21875 31.78125 74.21875 
Q 43.703125 74.21875 50.34375 64.25 
Q 56.984375 54.296875 56.984375 36.375 
Q 56.984375 18.5 50.34375 8.53125 
Q 43.703125 -1.421875 31.78125 -1.421875 
z
" id="DejaVuSerif-48"/>
       </defs>
       <use xlink:href="#DejaVuSerif-48"/>
      </g>
     </g>
    </g>
    <g id="xtick_2">
     <g id="line2d_2">
      <g>
       <use style="stroke:#000000;stroke-width:0.8;" x="109.354726" xlink:href="#m6418d7fa34" y="307.584"/>
      </g>
     </g>
     <g id="text_2">
      <!-- 25 -->
      <g transform="translate(102.992226 322.182437)scale(0.1 -0.1)">
       <defs>
        <path d="M 12.796875 55.515625 
L 7.328125 55.515625 
L 7.328125 68.5 
Q 12.546875 71.296875 17.84375 72.75 
Q 23.140625 74.21875 28.21875 74.21875 
Q 39.59375 74.21875 46.1875 68.703125 
Q 52.78125 63.1875 52.78125 53.71875 
Q 52.78125 43.015625 37.84375 28.125 
Q 36.671875 27 36.078125 26.421875 
L 17.671875 8.015625 
L 48.09375 8.015625 
L 48.09375 17 
L 53.8125 17 
L 53.8125 0 
L 6.78125 0 
L 6.78125 5.328125 
L 28.90625 27.390625 
Q 36.234375 34.71875 39.359375 40.84375 
Q 42.484375 46.96875 42.484375 53.71875 
Q 42.484375 61.078125 38.640625 65.234375 
Q 34.8125 69.390625 28.078125 69.390625 
Q 21.09375 69.390625 17.28125 65.921875 
Q 13.484375 62.453125 12.796875 55.515625 
z
" id="DejaVuSerif-50"/>
        <path d="M 50.296875 72.90625 
L 50.296875 64.890625 
L 16.890625 64.890625 
L 16.890625 44 
Q 19.4375 45.75 22.828125 46.625 
Q 26.21875 47.515625 30.421875 47.515625 
Q 42.234375 47.515625 49.0625 40.96875 
Q 55.90625 34.421875 55.90625 23.09375 
Q 55.90625 11.53125 49 5.046875 
Q 42.09375 -1.421875 29.59375 -1.421875 
Q 24.5625 -1.421875 19.28125 -0.1875 
Q 14.015625 1.03125 8.5 3.515625 
L 8.5 17.671875 
L 14.015625 17.671875 
Q 14.453125 10.75 18.421875 7.078125 
Q 22.40625 3.421875 29.59375 3.421875 
Q 37.3125 3.421875 41.453125 8.5 
Q 45.609375 13.578125 45.609375 23.09375 
Q 45.609375 32.5625 41.484375 37.609375 
Q 37.359375 42.671875 29.59375 42.671875 
Q 25.203125 42.671875 21.84375 41.109375 
Q 18.5 39.546875 15.921875 36.28125 
L 11.71875 36.28125 
L 11.71875 72.90625 
z
" id="DejaVuSerif-53"/>
       </defs>
       <use xlink:href="#DejaVuSerif-50"/>
       <use x="63.623047" xlink:href="#DejaVuSerif-53"/>
      </g>
     </g>
    </g>
    <g id="xtick_3">
     <g id="line2d_3">
      <g>
       <use style="stroke:#000000;stroke-width:0.8;" x="150.659375" xlink:href="#m6418d7fa34" y="307.584"/>
      </g>
     </g>
     <g id="text_3">
      <!-- 50 -->
      <g transform="translate(144.296875 322.182437)scale(0.1 -0.1)">
       <use xlink:href="#DejaVuSerif-53"/>
       <use x="63.623047" xlink:href="#DejaVuSerif-48"/>
      </g>
     </g>
    </g>
    <g id="xtick_4">
     <g id="line2d_4">
      <g>
       <use style="stroke:#000000;stroke-width:0.8;" x="191.964025" xlink:href="#m6418d7fa34" y="307.584"/>
      </g>
     </g>
     <g id="text_4">
      <!-- 75 -->
      <g transform="translate(185.601525 322.182437)scale(0.1 -0.1)">
       <defs>
        <path d="M 56.390625 67.921875 
L 27.875 0 
L 20.609375 0 
L 47.796875 64.890625 
L 14.109375 64.890625 
L 14.109375 55.90625 
L 8.40625 55.90625 
L 8.40625 72.90625 
L 56.390625 72.90625 
z
" id="DejaVuSerif-55"/>
       </defs>
       <use xlink:href="#DejaVuSerif-55"/>
       <use x="63.623047" xlink:href="#DejaVuSerif-53"/>
      </g>
     </g>
    </g>
    <g id="xtick_5">
     <g id="line2d_5">
      <g>
       <use style="stroke:#000000;stroke-width:0.8;" x="233.268675" xlink:href="#m6418d7fa34" y="307.584"/>
      </g>
     </g>
     <g id="text_5">
      <!-- 100 -->
      <g transform="translate(223.724925 322.182437)scale(0.1 -0.1)">
       <defs>
        <path d="M 14.203125 0 
L 14.203125 5.171875 
L 26.90625 5.171875 
L 26.90625 65.828125 
L 12.203125 56.296875 
L 12.203125 62.703125 
L 29.984375 74.21875 
L 36.71875 74.21875 
L 36.71875 5.171875 
L 49.421875 5.171875 
L 49.421875 0 
z
" id="DejaVuSerif-49"/>
       </defs>
       <use xlink:href="#DejaVuSerif-49"/>
       <use x="63.623047" xlink:href="#DejaVuSerif-48"/>
       <use x="127.246094" xlink:href="#DejaVuSerif-48"/>
      </g>
     </g>
    </g>
    <g id="xtick_6">
     <g id="line2d_6">
      <g>
       <use style="stroke:#000000;stroke-width:0.8;" x="274.573324" xlink:href="#m6418d7fa34" y="307.584"/>
      </g>
     </g>
     <g id="text_6">
      <!-- 125 -->
      <g transform="translate(265.029574 322.182437)scale(0.1 -0.1)">
       <use xlink:href="#DejaVuSerif-49"/>
       <use x="63.623047" xlink:href="#DejaVuSerif-50"/>
       <use x="127.246094" xlink:href="#DejaVuSerif-53"/>
      </g>
     </g>
    </g>
    <g id="xtick_7">
     <g id="line2d_7">
      <g>
       <use style="stroke:#000000;stroke-width:0.8;" x="315.877974" xlink:href="#m6418d7fa34" y="307.584"/>
      </g>
     </g>
     <g id="text_7">
      <!-- 150 -->
      <g transform="translate(306.334224 322.182437)scale(0.1 -0.1)">
       <use xlink:href="#DejaVuSerif-49"/>
       <use x="63.623047" xlink:href="#DejaVuSerif-53"/>
       <use x="127.246094" xlink:href="#DejaVuSerif-48"/>
      </g>
     </g>
    </g>
    <g id="xtick_8">
     <g id="line2d_8">
      <g>
       <use style="stroke:#000000;stroke-width:0.8;" x="357.182623" xlink:href="#m6418d7fa34" y="307.584"/>
      </g>
     </g>
     <g id="text_8">
      <!-- 175 -->
      <g transform="translate(347.638873 322.182437)scale(0.1 -0.1)">
       <use xlink:href="#DejaVuSerif-49"/>
       <use x="63.623047" xlink:href="#DejaVuSerif-55"/>
       <use x="127.246094" xlink:href="#DejaVuSerif-53"/>
      </g>
     </g>
    </g>
    <g id="xtick_9">
     <g id="line2d_9">
      <g>
       <use style="stroke:#000000;stroke-width:0.8;" x="398.487273" xlink:href="#m6418d7fa34" y="307.584"/>
      </g>
     </g>
     <g id="text_9">
      <!-- 200 -->
      <g transform="translate(388.943523 322.182437)scale(0.1 -0.1)">
       <use xlink:href="#DejaVuSerif-50"/>
       <use x="63.623047" xlink:href="#DejaVuSerif-48"/>
       <use x="127.246094" xlink:href="#DejaVuSerif-48"/>
      </g>
     </g>
    </g>
    <g id="text_10">
     <!-- Time -->
     <g transform="translate(223.524844 335.860562)scale(0.1 -0.1)">
      <defs>
       <path d="M 19.09375 0 
L 19.09375 5.171875 
L 28.421875 5.171875 
L 28.421875 67.09375 
L 6.984375 67.09375 
L 6.984375 55.71875 
L 0.984375 55.71875 
L 0.984375 72.90625 
L 65.71875 72.90625 
L 65.71875 55.71875 
L 59.71875 55.71875 
L 59.71875 67.09375 
L 38.28125 67.09375 
L 38.28125 5.171875 
L 47.609375 5.171875 
L 47.609375 0 
z
" id="DejaVuSerif-84"/>
       <path d="M 9.71875 68.015625 
Q 9.71875 70.265625 11.34375 71.921875 
Q 12.984375 73.578125 15.28125 73.578125 
Q 17.53125 73.578125 19.15625 71.921875 
Q 20.796875 70.265625 20.796875 68.015625 
Q 20.796875 65.71875 19.1875 64.109375 
Q 17.578125 62.5 15.28125 62.5 
Q 12.984375 62.5 11.34375 64.109375 
Q 9.71875 65.71875 9.71875 68.015625 
z
M 21.1875 5.171875 
L 29.6875 5.171875 
L 29.6875 0 
L 3.609375 0 
L 3.609375 5.171875 
L 12.203125 5.171875 
L 12.203125 46.6875 
L 3.609375 46.6875 
L 3.609375 51.90625 
L 21.1875 51.90625 
z
" id="DejaVuSerif-105"/>
       <path d="M 51.8125 41.796875 
Q 54.390625 47.515625 58.421875 50.421875 
Q 62.453125 53.328125 67.828125 53.328125 
Q 75.984375 53.328125 79.984375 48.265625 
Q 83.984375 43.21875 83.984375 33.015625 
L 83.984375 5.171875 
L 92.09375 5.171875 
L 92.09375 0 
L 67.1875 0 
L 67.1875 5.171875 
L 75 5.171875 
L 75 31.984375 
Q 75 39.9375 72.65625 43.3125 
Q 70.3125 46.6875 64.890625 46.6875 
Q 58.890625 46.6875 55.734375 42.140625 
Q 52.59375 37.59375 52.59375 28.90625 
L 52.59375 5.171875 
L 60.40625 5.171875 
L 60.40625 0 
L 35.796875 0 
L 35.796875 5.171875 
L 43.609375 5.171875 
L 43.609375 32.328125 
Q 43.609375 40.09375 41.265625 43.390625 
Q 38.921875 46.6875 33.5 46.6875 
Q 27.484375 46.6875 24.328125 42.140625 
Q 21.1875 37.59375 21.1875 28.90625 
L 21.1875 5.171875 
L 29 5.171875 
L 29 0 
L 4.109375 0 
L 4.109375 5.171875 
L 12.203125 5.171875 
L 12.203125 46.78125 
L 3.609375 46.78125 
L 3.609375 51.90625 
L 21.1875 51.90625 
L 21.1875 42.671875 
Q 23.6875 47.859375 27.53125 50.59375 
Q 31.390625 53.328125 36.28125 53.328125 
Q 42.328125 53.328125 46.375 50.3125 
Q 50.4375 47.3125 51.8125 41.796875 
z
" id="DejaVuSerif-109"/>
       <path d="M 54.203125 25 
L 15.484375 25 
L 15.484375 24.609375 
Q 15.484375 14.109375 19.4375 8.765625 
Q 23.390625 3.421875 31.109375 3.421875 
Q 37.015625 3.421875 40.796875 6.515625 
Q 44.578125 9.625 46.09375 15.71875 
L 53.328125 15.71875 
Q 51.171875 7.171875 45.375 2.875 
Q 39.59375 -1.421875 30.171875 -1.421875 
Q 18.796875 -1.421875 11.890625 6.078125 
Q 4.984375 13.578125 4.984375 25.984375 
Q 4.984375 38.28125 11.765625 45.796875 
Q 18.5625 53.328125 29.59375 53.328125 
Q 41.359375 53.328125 47.65625 46.0625 
Q 53.953125 38.8125 54.203125 25 
z
M 43.609375 30.171875 
Q 43.3125 39.265625 39.765625 43.875 
Q 36.234375 48.484375 29.59375 48.484375 
Q 23.390625 48.484375 19.828125 43.84375 
Q 16.265625 39.203125 15.484375 30.171875 
z
" id="DejaVuSerif-101"/>
      </defs>
      <use xlink:href="#DejaVuSerif-84"/>
      <use x="66.699219" xlink:href="#DejaVuSerif-105"/>
      <use x="98.681641" xlink:href="#DejaVuSerif-109"/>
      <use x="193.505859" xlink:href="#DejaVuSerif-101"/>
     </g>
    </g>
   </g>
   <g id="matplotlib.axis_2">
    <g id="ytick_1">
     <g id="line2d_10">
      <defs>
       <path d="M 0 0 
L -3.5 0 
" id="mfc518b5c3b" style="stroke:#000000;stroke-width:0.8;"/>
      </defs>
      <g>
       <use style="stroke:#000000;stroke-width:0.8;" x="57.6" xlink:href="#mfc518b5c3b" y="295.488"/>
      </g>
     </g>
     <g id="text_11">
      <!-- 0.00 -->
      <g transform="translate(28.334375 299.287219)scale(0.1 -0.1)">
       <defs>
        <path d="M 9.421875 5.078125 
Q 9.421875 7.8125 11.28125 9.71875 
Q 13.140625 11.625 15.921875 11.625 
Q 18.609375 11.625 20.5 9.71875 
Q 22.40625 7.8125 22.40625 5.078125 
Q 22.40625 2.390625 20.5 0.484375 
Q 18.609375 -1.421875 15.921875 -1.421875 
Q 13.140625 -1.421875 11.28125 0.453125 
Q 9.421875 2.34375 9.421875 5.078125 
z
" id="DejaVuSerif-46"/>
       </defs>
       <use xlink:href="#DejaVuSerif-48"/>
       <use x="63.623047" xlink:href="#DejaVuSerif-46"/>
       <use x="95.410156" xlink:href="#DejaVuSerif-48"/>
       <use x="159.033203" xlink:href="#DejaVuSerif-48"/>
      </g>
     </g>
    </g>
    <g id="ytick_2">
     <g id="line2d_11">
      <g>
       <use style="stroke:#000000;stroke-width:0.8;" x="57.6" xlink:href="#mfc518b5c3b" y="260.208"/>
      </g>
     </g>
     <g id="text_12">
      <!-- 0.25 -->
      <g transform="translate(28.334375 264.007219)scale(0.1 -0.1)">
       <use xlink:href="#DejaVuSerif-48"/>
       <use x="63.623047" xlink:href="#DejaVuSerif-46"/>
       <use x="95.410156" xlink:href="#DejaVuSerif-50"/>
       <use x="159.033203" xlink:href="#DejaVuSerif-53"/>
      </g>
     </g>
    </g>
    <g id="ytick_3">
     <g id="line2d_12">
      <g>
       <use style="stroke:#000000;stroke-width:0.8;" x="57.6" xlink:href="#mfc518b5c3b" y="224.928"/>
      </g>
     </g>
     <g id="text_13">
      <!-- 0.50 -->
      <g transform="translate(28.334375 228.727219)scale(0.1 -0.1)">
       <use xlink:href="#DejaVuSerif-48"/>
       <use x="63.623047" xlink:href="#DejaVuSerif-46"/>
       <use x="95.410156" xlink:href="#DejaVuSerif-53"/>
       <use x="159.033203" xlink:href="#DejaVuSerif-48"/>
      </g>
     </g>
    </g>
    <g id="ytick_4">
     <g id="line2d_13">
      <g>
       <use style="stroke:#000000;stroke-width:0.8;" x="57.6" xlink:href="#mfc518b5c3b" y="189.648"/>
      </g>
     </g>
     <g id="text_14">
      <!-- 0.75 -->
      <g transform="translate(28.334375 193.447219)scale(0.1 -0.1)">
       <use xlink:href="#DejaVuSerif-48"/>
       <use x="63.623047" xlink:href="#DejaVuSerif-46"/>
       <use x="95.410156" xlink:href="#DejaVuSerif-55"/>
       <use x="159.033203" xlink:href="#DejaVuSerif-53"/>
      </g>
     </g>
    </g>
    <g id="ytick_5">
     <g id="line2d_14">
      <g>
       <use style="stroke:#000000;stroke-width:0.8;" x="57.6" xlink:href="#mfc518b5c3b" y="154.368"/>
      </g>
     </g>
     <g id="text_15">
      <!-- 1.00 -->
      <g transform="translate(28.334375 158.167219)scale(0.1 -0.1)">
       <use xlink:href="#DejaVuSerif-49"/>
       <use x="63.623047" xlink:href="#DejaVuSerif-46"/>
       <use x="95.410156" xlink:href="#DejaVuSerif-48"/>
       <use x="159.033203" xlink:href="#DejaVuSerif-48"/>
      </g>
     </g>
    </g>
    <g id="ytick_6">
     <g id="line2d_15">
      <g>
       <use style="stroke:#000000;stroke-width:0.8;" x="57.6" xlink:href="#mfc518b5c3b" y="119.088"/>
      </g>
     </g>
     <g id="text_16">
      <!-- 1.25 -->
      <g transform="translate(28.334375 122.887219)scale(0.1 -0.1)">
       <use xlink:href="#DejaVuSerif-49"/>
       <use x="63.623047" xlink:href="#DejaVuSerif-46"/>
       <use x="95.410156" xlink:href="#DejaVuSerif-50"/>
       <use x="159.033203" xlink:href="#DejaVuSerif-53"/>
      </g>
     </g>
    </g>
    <g id="ytick_7">
     <g id="line2d_16">
      <g>
       <use style="stroke:#000000;stroke-width:0.8;" x="57.6" xlink:href="#mfc518b5c3b" y="83.808"/>
      </g>
     </g>
     <g id="text_17">
      <!-- 1.50 -->
      <g transform="translate(28.334375 87.607219)scale(0.1 -0.1)">
       <use xlink:href="#DejaVuSerif-49"/>
       <use x="63.623047" xlink:href="#DejaVuSerif-46"/>
       <use x="95.410156" xlink:href="#DejaVuSerif-53"/>
       <use x="159.033203" xlink:href="#DejaVuSerif-48"/>
      </g>
     </g>
    </g>
    <g id="ytick_8">
     <g id="line2d_17">
      <g>
       <use style="stroke:#000000;stroke-width:0.8;" x="57.6" xlink:href="#mfc518b5c3b" y="48.528"/>
      </g>
     </g>
     <g id="text_18">
      <!-- 1.75 -->
      <g transform="translate(28.334375 52.327219)scale(0.1 -0.1)">
       <use xlink:href="#DejaVuSerif-49"/>
       <use x="63.623047" xlink:href="#DejaVuSerif-46"/>
       <use x="95.410156" xlink:href="#DejaVuSerif-55"/>
       <use x="159.033203" xlink:href="#DejaVuSerif-53"/>
      </g>
     </g>
    </g>
    <g id="text_19">
     <!-- Speed -->
     <g transform="translate(22.254687 190.273313)rotate(-90)scale(0.1 -0.1)">
      <defs>
       <path d="M 9.28125 3.515625 
L 9.28125 20.125 
L 14.890625 20.0625 
Q 15.140625 11.765625 19.703125 7.78125 
Q 24.265625 3.8125 33.59375 3.8125 
Q 42.28125 3.8125 46.84375 7.25 
Q 51.421875 10.6875 51.421875 17.28125 
Q 51.421875 22.5625 48.65625 25.390625 
Q 45.90625 28.21875 37.015625 30.90625 
L 27.390625 33.796875 
Q 16.9375 36.96875 12.671875 41.703125 
Q 8.40625 46.4375 8.40625 54.6875 
Q 8.40625 63.96875 14.984375 69.09375 
Q 21.578125 74.21875 33.5 74.21875 
Q 38.578125 74.21875 44.625 73.109375 
Q 50.6875 72.015625 57.515625 69.921875 
L 57.515625 54.390625 
L 52 54.390625 
Q 51.171875 62.109375 46.84375 65.546875 
Q 42.53125 69 33.6875 69 
Q 25.984375 69 21.953125 65.84375 
Q 17.921875 62.703125 17.921875 56.6875 
Q 17.921875 51.46875 20.9375 48.484375 
Q 23.96875 45.515625 33.796875 42.578125 
L 42.828125 39.890625 
Q 52.734375 36.921875 56.953125 32.296875 
Q 61.1875 27.6875 61.1875 19.921875 
Q 61.1875 9.328125 54.390625 3.953125 
Q 47.609375 -1.421875 34.1875 -1.421875 
Q 28.171875 -1.421875 21.9375 -0.1875 
Q 15.71875 1.03125 9.28125 3.515625 
z
" id="DejaVuSerif-83"/>
       <path d="M 20.515625 28.515625 
L 20.515625 23.390625 
Q 20.515625 14.015625 24.09375 9.109375 
Q 27.6875 4.203125 34.515625 4.203125 
Q 41.40625 4.203125 44.9375 9.71875 
Q 48.484375 15.234375 48.484375 25.984375 
Q 48.484375 36.765625 44.9375 42.234375 
Q 41.40625 47.703125 34.515625 47.703125 
Q 27.6875 47.703125 24.09375 42.765625 
Q 20.515625 37.84375 20.515625 28.515625 
z
M 11.53125 46.6875 
L 2.875 46.6875 
L 2.875 51.90625 
L 20.515625 51.90625 
L 20.515625 43.796875 
Q 23.140625 48.6875 27.21875 51 
Q 31.296875 53.328125 37.3125 53.328125 
Q 46.875 53.328125 52.921875 45.75 
Q 58.984375 38.1875 58.984375 25.984375 
Q 58.984375 13.765625 52.921875 6.171875 
Q 46.875 -1.421875 37.3125 -1.421875 
Q 31.296875 -1.421875 27.21875 0.890625 
Q 23.140625 3.21875 20.515625 8.109375 
L 20.515625 -15.578125 
L 29 -15.578125 
L 29 -20.796875 
L 2.875 -20.796875 
L 2.875 -15.578125 
L 11.53125 -15.578125 
z
" id="DejaVuSerif-112"/>
       <path d="M 52.484375 5.171875 
L 61.078125 5.171875 
L 61.078125 0 
L 43.5 0 
L 43.5 8.109375 
Q 40.875 3.21875 36.796875 0.890625 
Q 32.71875 -1.421875 26.703125 -1.421875 
Q 17.140625 -1.421875 11.0625 6.171875 
Q 4.984375 13.765625 4.984375 25.984375 
Q 4.984375 38.1875 11.03125 45.75 
Q 17.09375 53.328125 26.703125 53.328125 
Q 32.71875 53.328125 36.796875 51 
Q 40.875 48.6875 43.5 43.796875 
L 43.5 70.796875 
L 35.015625 70.796875 
L 35.015625 75.984375 
L 52.484375 75.984375 
z
M 43.5 23.390625 
L 43.5 28.515625 
Q 43.5 37.84375 39.90625 42.765625 
Q 36.328125 47.703125 29.5 47.703125 
Q 22.5625 47.703125 19.015625 42.234375 
Q 15.484375 36.765625 15.484375 25.984375 
Q 15.484375 15.234375 19.015625 9.71875 
Q 22.5625 4.203125 29.5 4.203125 
Q 36.328125 4.203125 39.90625 9.109375 
Q 43.5 14.015625 43.5 23.390625 
z
" id="DejaVuSerif-100"/>
      </defs>
      <use xlink:href="#DejaVuSerif-83"/>
      <use x="68.505859" xlink:href="#DejaVuSerif-112"/>
      <use x="132.519531" xlink:href="#DejaVuSerif-101"/>
      <use x="191.699219" xlink:href="#DejaVuSerif-101"/>
      <use x="250.878906" xlink:href="#DejaVuSerif-100"/>
     </g>
    </g>
   </g>
   <g id="line2d_18">
    <path clip-path="url(#p9d41217ba1)" d="M 73.832727 83.808 
L 74.377949 83.808 
L 74.65882 295.488 
L 75.204042 295.488 
L 75.484913 126.144 
L 76.311006 126.144 
L 76.591878 154.368 
L 77.682321 154.368 
L 77.963192 174.528 
L 78.244064 174.528 
L 78.508414 53.568 
L 78.789285 53.568 
L 79.070157 174.528 
L 79.334507 189.648 
L 79.615378 189.648 
L 79.89625 83.808 
L 80.441471 83.808 
L 80.722343 107.328 
L 80.986693 201.408 
L 81.267564 107.328 
L 81.812786 107.328 
L 82.093657 126.144 
L 83.200622 126.144 
L 83.464972 141.538909 
L 83.745843 141.538909 
L 84.026715 64.564364 
L 84.291065 141.538909 
L 84.571936 141.538909 
L 84.852808 154.368 
L 85.117158 154.368 
L 85.398029 83.808 
L 85.678901 83.808 
L 85.943251 154.368 
L 86.224122 165.223385 
L 86.504994 100.091077 
L 87.331087 100.091077 
L 87.595437 114.048 
L 88.702401 114.048 
L 88.983273 69.696 
L 89.247622 69.696 
L 89.528494 126.144 
L 90.073715 126.144 
L 90.354587 83.808 
L 90.635459 83.808 
L 90.899808 136.728 
L 91.18068 136.728 
L 91.461552 83.808 
L 91.725901 96.259765 
L 92.832866 96.259765 
L 93.113738 107.328 
L 94.20418 107.328 
L 94.485052 117.231158 
L 94.765924 117.231158 
L 95.030273 72.666947 
L 95.311145 72.666947 
L 95.592017 117.231158 
L 95.856366 126.144 
L 96.137238 126.144 
L 96.41811 83.808 
L 96.682459 83.808 
L 96.963331 126.144 
L 97.244203 134.208 
L 97.508552 93.888 
L 98.070296 93.888 
L 98.334645 134.208 
L 98.615517 103.051636 
L 99.44161 103.051636 
L 99.722482 64.564364 
L 99.986831 74.604522 
L 100.267703 111.418435 
L 100.812924 111.418435 
L 101.093796 74.604522 
L 101.374668 83.808 
L 101.639017 119.088 
L 101.919889 119.088 
L 102.200761 83.808 
L 102.46511 83.808 
L 102.745982 92.2752 
L 103.852947 92.2752 
L 104.117296 100.091077 
L 104.398168 67.524923 
L 104.67904 100.091077 
L 105.224261 100.091077 
L 105.505133 107.328 
L 105.769482 75.968 
L 106.050354 107.328 
L 106.595575 107.328 
L 106.876447 83.808 
L 107.157319 83.808 
L 107.421668 114.048 
L 107.70254 114.048 
L 107.983412 83.808 
L 108.247761 91.10731 
L 109.354726 91.10731 
L 109.635598 97.92 
L 109.899947 97.92 
L 110.180819 69.696 
L 110.46169 97.92 
L 110.72604 97.92 
L 111.006912 104.293161 
L 111.287783 104.293161 
L 111.552133 76.979613 
L 111.833005 104.293161 
L 112.113876 104.293161 
L 112.378226 110.268 
L 112.659098 83.808 
L 112.939969 83.808 
L 113.204319 110.268 
L 113.485191 110.268 
L 113.766062 90.222545 
L 114.856505 90.222545 
L 115.137377 96.259765 
L 115.682598 96.259765 
L 115.96347 71.356235 
L 116.244341 96.259765 
L 116.508691 101.952 
L 116.789563 101.952 
L 117.070434 77.76 
L 117.334784 77.76 
L 117.615656 101.952 
L 117.896527 107.328 
L 118.160877 107.328 
L 118.441749 83.808 
L 118.72262 83.808 
L 118.98697 107.328 
L 119.267842 112.413405 
L 119.548713 89.529081 
L 120.093935 89.529081 
L 120.374806 112.413405 
L 120.639156 94.949053 
L 121.465249 94.949053 
L 121.746121 72.666947 
L 122.026992 78.380308 
L 122.291342 100.091077 
L 122.572214 100.091077 
L 122.853085 78.380308 
L 123.117435 78.380308 
L 123.398307 83.808 
L 123.679178 104.976 
L 123.943528 83.808 
L 124.505271 83.808 
L 124.769621 88.970927 
L 125.876586 88.970927 
L 126.157457 93.888 
L 127.2479 93.888 
L 127.528772 78.885209 
L 127.809643 98.576372 
L 128.354865 98.576372 
L 128.635736 78.885209 
L 128.900086 83.808 
L 129.180958 103.051636 
L 129.461829 103.051636 
L 129.726179 83.808 
L 130.007051 83.808 
L 130.287922 88.512 
L 131.378365 88.512 
L 131.659237 93.011478 
L 131.940108 74.604522 
L 132.204458 93.011478 
L 132.766201 93.011478 
L 133.030551 79.30417 
L 133.311423 79.30417 
L 133.592294 97.319489 
L 133.856644 97.319489 
L 134.137516 79.30417 
L 134.418387 83.808 
L 134.682737 83.808 
L 134.963609 101.448 
L 135.24448 83.808 
L 135.50883 83.808 
L 135.789702 88.128 
L 136.896666 88.128 
L 137.161016 92.2752 
L 138.267981 92.2752 
L 138.548852 96.259765 
L 138.813202 79.657412 
L 139.094074 96.259765 
L 139.639295 96.259765 
L 139.920167 83.808 
L 140.465388 83.808 
L 140.74626 100.091077 
L 141.027131 83.808 
L 141.291481 87.801962 
L 142.398446 87.801962 
L 142.679317 91.648 
L 142.943667 91.648 
L 143.224539 75.968 
L 143.50541 91.648 
L 143.76976 91.648 
L 144.050632 95.354182 
L 144.331503 79.959273 
L 144.595853 79.959273 
L 144.876724 95.354182 
L 145.157596 95.354182 
L 145.421946 83.808 
L 145.983689 83.808 
L 146.248039 98.928 
L 146.52891 83.808 
L 146.809782 87.521684 
L 147.900225 87.521684 
L 148.181096 91.10731 
L 148.461968 91.10731 
L 148.726318 76.50869 
L 149.007189 91.10731 
L 149.288061 91.10731 
L 149.552411 94.57139 
L 149.833282 80.220203 
L 150.114154 80.220203 
L 150.378504 94.57139 
L 150.659375 94.57139 
L 150.940247 97.92 
L 151.204597 83.808 
L 151.485468 83.808 
L 151.76634 97.92 
L 152.03069 97.92 
L 152.311561 87.278164 
L 152.856783 87.278164 
L 153.137654 101.15882 
L 153.418526 87.278164 
L 153.682876 90.636387 
L 154.244619 90.636387 
L 154.508969 76.979613 
L 154.78984 90.636387 
L 155.070712 93.888 
L 155.335062 93.888 
L 155.615933 80.448 
L 155.896805 80.448 
L 156.161155 93.888 
L 156.442026 97.038 
L 156.722898 83.808 
L 157.268119 83.808 
L 157.548991 97.038 
L 157.813341 87.064615 
L 158.920305 87.064615 
L 159.201177 90.222545 
L 159.746398 90.222545 
L 160.02727 77.393455 
L 160.29162 90.222545 
L 160.572491 93.286209 
L 160.853363 93.286209 
L 161.117713 80.648597 
L 161.398584 80.648597 
L 161.679456 93.286209 
L 161.943806 96.259765 
L 162.224677 83.808 
L 162.769899 83.808 
L 163.05077 96.259765 
L 163.331642 86.875826 
L 164.422085 86.875826 
L 164.702956 89.856 
L 165.248178 89.856 
L 165.529049 77.76 
L 165.809921 89.856 
L 166.074271 92.752225 
L 166.355142 92.752225 
L 166.636014 80.826592 
L 166.900364 80.826592 
L 167.181235 92.752225 
L 167.462107 95.568 
L 167.726457 83.808 
L 168.2882 83.808 
L 168.55255 95.568 
L 168.833421 86.707726 
L 169.659514 86.707726 
L 169.940386 98.30663 
L 170.204736 89.529081 
L 171.030829 89.529081 
L 171.3117 78.086919 
L 171.592572 80.9856 
L 171.856922 92.2752 
L 172.137793 92.2752 
L 172.418665 80.9856 
L 172.683015 80.9856 
L 172.963886 83.808 
L 173.244758 94.949053 
L 173.509108 83.808 
L 174.070851 83.808 
L 174.335201 86.557091 
L 175.442165 86.557091 
L 175.723037 78.380308 
L 175.987387 89.235692 
L 176.54913 89.235692 
L 176.81348 78.380308 
L 177.094351 81.128506 
L 177.375223 91.846481 
L 177.639573 91.846481 
L 177.920444 81.128506 
L 178.201316 81.128506 
L 178.465666 83.808 
L 178.746537 94.392 
L 179.027409 83.808 
L 179.57263 83.808 
L 179.853502 86.421333 
L 180.943944 86.421333 
L 181.224816 78.645073 
L 181.505688 88.970927 
L 182.050909 88.970927 
L 182.331781 78.645073 
L 182.59613 81.257639 
L 182.877002 91.459084 
L 183.157874 91.459084 
L 183.422223 81.257639 
L 183.703095 81.257639 
L 183.983967 83.808 
L 184.248316 93.888 
L 184.529188 83.808 
L 185.074409 83.808 
L 185.355281 86.298353 
L 186.462246 86.298353 
L 186.726595 78.885209 
L 187.007467 88.730791 
L 187.552688 88.730791 
L 187.83356 78.885209 
L 188.114432 81.374897 
L 188.378781 91.10731 
L 188.659653 91.10731 
L 188.940525 81.374897 
L 189.204874 81.374897 
L 189.485746 83.808 
L 189.766618 93.429818 
L 190.030967 83.808 
L 190.592711 83.808 
L 190.85706 86.186427 
L 191.964025 86.186427 
L 192.244897 79.104 
L 192.509246 88.512 
L 193.07099 88.512 
L 193.335339 79.104 
L 193.616211 81.481846 
L 193.897083 90.786462 
L 194.161432 90.786462 
L 194.442304 81.481846 
L 194.723176 81.481846 
L 194.987525 83.808 
L 196.09449 83.808 
L 196.375362 86.084129 
L 196.639711 76.979613 
L 196.920583 86.084129 
L 197.465804 86.084129 
L 197.746676 79.30417 
L 198.027548 79.30417 
L 198.291897 88.31183 
L 198.572769 88.31183 
L 198.853641 79.30417 
L 199.11799 81.579789 
L 199.398862 81.579789 
L 199.679734 90.492632 
L 199.944083 90.492632 
L 200.224955 81.579789 
L 200.505827 83.808 
L 200.770176 83.808 
L 201.051048 92.628 
L 201.33192 83.808 
L 201.596269 83.808 
L 201.877141 85.990268 
L 202.984105 85.990268 
L 203.248455 88.128 
L 203.529327 79.488 
L 203.810198 88.128 
L 204.35542 88.128 
L 204.636291 81.669818 
L 204.900641 81.669818 
L 205.181513 90.222545 
L 205.462384 90.222545 
L 205.726734 81.669818 
L 206.007606 83.808 
L 206.288477 83.808 
L 206.552827 92.2752 
L 206.833699 83.808 
L 207.11457 83.808 
L 207.37892 85.903842 
L 208.485885 85.903842 
L 208.766756 87.958588 
L 209.031106 79.657412 
L 209.311978 87.958588 
L 209.857199 87.958588 
L 210.138071 81.752854 
L 210.418942 81.752854 
L 210.683292 89.973437 
L 210.964164 89.973437 
L 211.245035 81.752854 
L 211.509385 83.808 
L 211.790257 83.808 
L 212.071128 91.949538 
L 212.335478 83.808 
L 212.61635 83.808 
L 212.897221 85.824 
L 213.987664 85.824 
L 214.268536 87.801962 
L 214.549407 79.814038 
L 214.813757 87.801962 
L 215.3755 87.801962 
L 215.63985 81.829682 
L 215.920722 81.829682 
L 216.201593 89.742953 
L 216.465943 89.742953 
L 216.746815 81.829682 
L 217.027686 83.808 
L 217.292036 83.808 
L 217.572908 91.648 
L 217.853779 83.808 
L 218.118129 83.808 
L 218.399001 85.750018 
L 219.505965 85.750018 
L 219.770315 87.656727 
L 220.051187 79.959273 
L 220.332058 87.656727 
L 220.87728 87.656727 
L 221.158151 81.900973 
L 221.422501 81.900973 
L 221.703373 89.529081 
L 221.984244 89.529081 
L 222.248594 81.900973 
L 222.529466 83.808 
L 222.810337 83.808 
L 223.074687 91.368 
L 223.355559 83.808 
L 223.63643 83.808 
L 223.90078 85.681274 
L 225.007745 85.681274 
L 225.288616 87.521684 
L 225.552966 80.094316 
L 225.833838 87.521684 
L 226.379059 87.521684 
L 226.659931 81.967304 
L 226.940802 81.967304 
L 227.205152 89.330087 
L 227.486024 89.330087 
L 227.766895 81.967304 
L 228.031245 83.808 
L 228.312117 83.808 
L 228.592988 91.10731 
L 228.857338 83.808 
L 229.13821 83.808 
L 229.419081 85.617231 
L 230.509524 85.617231 
L 230.790396 87.395797 
L 231.071267 80.220203 
L 231.335617 87.395797 
L 231.89736 87.395797 
L 232.16171 82.029176 
L 232.723453 82.029176 
L 232.987803 89.144471 
L 233.268675 82.029176 
L 233.549546 83.808 
L 234.639989 83.808 
L 234.920861 85.557421 
L 235.201732 85.557421 
L 235.466082 78.559736 
L 235.746954 85.557421 
L 236.027825 85.557421 
L 236.292175 87.278164 
L 236.573046 80.337836 
L 236.853918 80.337836 
L 237.118268 87.278164 
L 237.399139 87.278164 
L 237.680011 82.087024 
L 238.225232 82.087024 
L 238.506104 88.970927 
L 238.770454 82.087024 
L 239.051325 83.808 
L 240.15829 83.808 
L 240.42264 85.50144 
L 240.703511 85.50144 
L 240.984383 78.72768 
L 241.248733 85.50144 
L 241.529604 85.50144 
L 241.810476 87.168 
L 242.074826 80.448 
L 242.355697 80.448 
L 242.636569 87.168 
L 242.900919 87.168 
L 243.18179 82.141228 
L 243.727012 82.141228 
L 244.007883 88.808315 
L 244.288755 82.141228 
L 244.553105 83.808 
L 245.660069 83.808 
L 245.940941 85.44893 
L 246.205291 85.44893 
L 246.486162 78.885209 
L 246.767034 85.44893 
L 247.031384 85.44893 
L 247.312255 87.064615 
L 247.593127 80.551385 
L 247.857477 80.551385 
L 248.138348 87.064615 
L 248.41922 87.064615 
L 248.68357 82.192122 
L 249.245313 82.192122 
L 249.509663 88.655634 
L 249.790534 82.192122 
L 250.071406 83.808 
L 251.161849 83.808 
L 251.44272 85.399579 
L 251.723592 85.399579 
L 251.987942 79.033263 
L 252.268813 85.399579 
L 252.549685 85.399579 
L 252.814035 86.967403 
L 253.094906 80.648597 
L 253.375778 80.648597 
L 253.640128 86.967403 
L 253.920999 86.967403 
L 254.201871 82.24 
L 254.747092 82.24 
L 255.027964 88.512 
L 255.292314 82.24 
L 255.573185 83.808 
L 256.68015 83.808 
L 256.9445 85.353109 
L 257.225371 85.353109 
L 257.506243 79.172672 
L 257.770593 85.353109 
L 258.051464 85.353109 
L 258.332336 86.875826 
L 258.596686 80.740174 
L 258.877557 80.740174 
L 259.158429 86.875826 
L 259.422779 86.875826 
L 259.70365 82.285122 
L 260.248872 82.285122 
L 260.529743 88.376633 
L 260.810615 82.285122 
L 261.074965 83.808 
L 262.181929 83.808 
L 262.462801 85.309277 
L 262.727151 85.309277 
L 263.008022 79.30417 
L 263.288894 85.309277 
L 263.553244 85.309277 
L 263.834115 86.789408 
L 264.114987 80.826592 
L 264.379337 80.826592 
L 264.660208 86.789408 
L 264.94108 86.789408 
L 265.20543 82.32772 
L 265.767173 82.32772 
L 266.031523 88.248839 
L 266.312394 82.32772 
L 266.593266 83.808 
L 267.683709 83.808 
L 267.96458 85.267862 
L 268.245452 85.267862 
L 268.509802 79.428414 
L 268.790673 85.267862 
L 269.071545 85.267862 
L 269.335895 86.707726 
L 269.616766 80.908274 
L 269.897638 80.908274 
L 270.161988 86.707726 
L 270.442859 86.707726 
L 270.723731 82.368 
L 271.268952 82.368 
L 271.549824 88.128 
L 271.814173 82.368 
L 272.095045 83.808 
L 272.640266 83.808 
L 272.921138 89.529081 
L 273.20201 83.808 
L 273.466359 85.228671 
L 274.573324 85.228671 
L 274.854196 86.6304 
L 275.118545 86.6304 
L 275.399417 80.9856 
L 275.680289 86.6304 
L 275.944638 86.6304 
L 276.22551 88.013563 
L 276.506382 82.406146 
L 276.770731 82.406146 
L 277.051603 88.013563 
L 277.332475 88.013563 
L 277.596824 83.808 
L 278.158568 83.808 
L 278.422917 89.378526 
L 278.703789 83.808 
L 278.984661 85.191529 
L 280.075103 85.191529 
L 280.355975 86.557091 
L 280.636847 86.557091 
L 280.901196 81.058909 
L 281.182068 86.557091 
L 281.46294 86.557091 
L 281.727289 87.905032 
L 282.008161 82.442323 
L 282.289033 82.442323 
L 282.553382 87.905032 
L 282.834254 87.905032 
L 283.115126 83.808 
L 283.660347 83.808 
L 283.941219 89.235692 
L 284.205568 83.808 
L 284.48644 85.15628 
L 285.593405 85.15628 
L 285.857754 86.487494 
L 286.138626 86.487494 
L 286.419498 81.128506 
L 286.683847 86.487494 
L 286.964719 86.487494 
L 287.245591 87.801962 
L 287.50994 82.476679 
L 287.790812 82.476679 
L 288.071684 87.801962 
L 288.336033 87.801962 
L 288.616905 83.808 
L 289.162126 83.808 
L 289.442998 89.1 
L 289.72387 83.808 
L 289.988219 85.122783 
L 291.095184 85.122783 
L 291.376056 86.421333 
L 291.640405 86.421333 
L 291.921277 81.194667 
L 292.202149 86.421333 
L 292.466498 86.421333 
L 292.74737 87.703951 
L 293.028241 82.50935 
L 293.292591 82.50935 
L 293.573463 87.703951 
L 293.854334 87.703951 
L 294.118684 83.808 
L 294.680427 83.808 
L 294.944777 88.970927 
L 295.225649 83.808 
L 295.50652 85.090909 
L 296.596963 85.090909 
L 296.877835 86.358361 
L 297.158706 86.358361 
L 297.423056 81.257639 
L 297.703928 86.358361 
L 297.984799 86.358361 
L 298.249149 87.610635 
L 298.530021 82.540455 
L 298.810892 82.540455 
L 299.075242 87.610635 
L 299.356114 87.610635 
L 299.636985 83.808 
L 300.182207 83.808 
L 300.463078 88.848 
L 300.727428 83.808 
L 301.0083 85.060544 
L 302.115264 85.060544 
L 302.379614 86.298353 
L 302.660486 86.298353 
L 302.941357 81.317647 
L 303.205707 86.298353 
L 303.486579 86.298353 
L 303.76745 87.521684 
L 304.0318 82.570105 
L 304.312672 82.570105 
L 304.593543 87.521684 
L 304.857893 87.521684 
L 305.138765 83.808 
L 305.683986 83.808 
L 305.964858 88.730791 
L 306.245729 83.808 
L 306.510079 85.031584 
L 307.617044 85.031584 
L 307.897915 86.241103 
L 308.162265 86.241103 
L 308.443137 81.374897 
L 308.724008 86.241103 
L 308.988358 86.241103 
L 309.26923 87.4368 
L 309.550101 82.5984 
L 309.814451 82.5984 
L 310.095323 87.4368 
L 310.376194 87.4368 
L 310.640544 83.808 
L 311.202287 83.808 
L 311.466637 88.618909 
L 311.747509 83.808 
L 312.02838 85.003932 
L 313.118823 85.003932 
L 313.399695 86.186427 
L 313.680566 86.186427 
L 313.944916 81.429573 
L 314.225788 86.186427 
L 314.506659 86.186427 
L 314.771009 87.355709 
L 315.051881 82.62543 
L 315.332752 82.62543 
L 315.597102 87.355709 
L 315.877974 87.355709 
L 316.158845 83.808 
L 316.704067 83.808 
L 316.984938 88.512 
L 317.249288 83.808 
L 317.53016 84.977503 
L 318.637124 84.977503 
L 318.901474 86.134154 
L 319.182346 86.134154 
L 319.463217 81.481846 
L 319.727567 86.134154 
L 320.008439 86.134154 
L 320.28931 87.278164 
L 320.55366 82.651279 
L 320.834532 82.651279 
L 321.115403 87.278164 
L 321.379753 87.278164 
L 321.660625 83.808 
L 322.205846 83.808 
L 322.486718 88.409739 
L 322.767589 83.808 
L 323.031939 84.952216 
L 323.593682 84.952216 
L 323.858032 80.375351 
L 324.138904 84.952216 
L 324.419775 86.084129 
L 324.684125 86.084129 
L 324.964997 81.531871 
L 325.245868 81.531871 
L 325.510218 86.084129 
L 325.79109 87.203936 
L 326.071961 82.676021 
L 326.617183 82.676021 
L 326.898054 87.203936 
L 327.162404 83.808 
L 328.269368 83.808 
L 328.55024 84.928 
L 329.095461 84.928 
L 329.376333 80.448 
L 329.640683 84.928 
L 329.921554 86.036211 
L 330.202426 86.036211 
L 330.466776 81.579789 
L 330.747647 81.579789 
L 331.028519 86.036211 
L 331.292869 87.132817 
L 331.57374 82.699728 
L 332.399833 82.699728 
L 332.680705 83.808 
L 333.225926 83.808 
L 333.506798 79.398 
L 333.771148 83.808 
L 334.052019 84.904788 
L 334.332891 84.904788 
L 334.597241 80.517637 
L 334.878112 80.517637 
L 335.158984 84.904788 
L 335.423334 85.990268 
L 335.704205 81.625732 
L 336.249427 81.625732 
L 336.530298 85.990268 
L 336.81117 82.722462 
L 337.901613 82.722462 
L 338.182484 83.808 
L 338.727706 83.808 
L 339.008577 79.488 
L 339.289449 83.808 
L 339.553799 84.882518 
L 339.83467 84.882518 
L 340.115542 80.584447 
L 340.379892 80.584447 
L 340.660763 84.882518 
L 340.941635 85.946182 
L 341.205985 81.669818 
L 341.767728 81.669818 
L 342.032078 85.946182 
L 342.312949 82.744281 
L 343.419914 82.744281 
L 343.684264 83.808 
L 344.246007 83.808 
L 344.510357 79.5744 
L 344.791228 83.808 
L 345.0721 84.861134 
L 345.33645 84.861134 
L 345.617321 80.648597 
L 345.898193 80.648597 
L 346.162543 84.861134 
L 346.443414 85.903842 
L 346.724286 81.712158 
L 347.269507 81.712158 
L 347.550379 85.903842 
L 347.814729 82.765241 
L 348.921693 82.765241 
L 349.202565 83.808 
L 349.747786 83.808 
L 350.028658 79.657412 
L 350.293008 83.808 
L 350.573879 84.840585 
L 350.854751 84.840585 
L 351.119101 80.710244 
L 351.399972 80.710244 
L 351.680844 84.840585 
L 351.945194 85.863146 
L 352.226065 81.752854 
L 352.771287 81.752854 
L 353.052158 85.863146 
L 353.33303 82.785391 
L 354.423473 82.785391 
L 354.704344 83.808 
L 355.249566 83.808 
L 355.530437 79.737231 
L 355.811309 83.808 
L 356.075659 84.820823 
L 356.35653 84.820823 
L 356.637402 80.769531 
L 356.901752 80.769531 
L 357.182623 84.820823 
L 357.463495 85.824 
L 357.727845 81.792 
L 358.289588 81.792 
L 358.553938 85.824 
L 358.834809 82.804777 
L 359.941774 82.804777 
L 360.206124 83.808 
L 360.767867 83.808 
L 361.032217 79.814038 
L 361.313088 83.808 
L 361.59396 84.801803 
L 361.85831 84.801803 
L 362.139181 80.826592 
L 362.420053 80.826592 
L 362.684402 84.801803 
L 362.965274 85.786318 
L 363.246146 81.829682 
L 363.791367 81.829682 
L 364.072239 85.786318 
L 364.336588 82.823442 
L 365.443553 82.823442 
L 365.724425 83.808 
L 366.269646 83.808 
L 366.550518 79.888 
L 366.814867 83.808 
L 367.095739 84.783484 
L 367.376611 84.783484 
L 367.64096 80.881548 
L 367.921832 80.881548 
L 368.202704 84.783484 
L 368.467053 85.750018 
L 368.747925 81.865982 
L 369.293146 81.865982 
L 369.574018 85.750018 
L 369.85489 82.841425 
L 370.945332 82.841425 
L 371.226204 83.808 
L 371.771425 83.808 
L 372.052297 79.959273 
L 372.333169 83.808 
L 372.597518 84.765828 
L 372.87839 84.765828 
L 373.159262 80.934516 
L 373.423611 80.934516 
L 373.704483 84.765828 
L 373.985355 85.715027 
L 374.249704 81.900973 
L 374.811448 81.900973 
L 375.075797 85.715027 
L 375.356669 82.858762 
L 376.463634 82.858762 
L 376.727983 83.808 
L 377.289727 83.808 
L 377.554076 80.028 
L 377.834948 83.808 
L 378.11582 84.7488 
L 378.380169 84.7488 
L 378.661041 80.9856 
L 378.941913 80.9856 
L 379.206262 84.7488 
L 379.487134 85.681274 
L 379.768006 81.934726 
L 380.313227 81.934726 
L 380.594099 85.681274 
L 380.858448 82.875489 
L 381.965413 82.875489 
L 382.246285 83.808 
L 382.791506 83.808 
L 383.072378 80.094316 
L 383.336727 83.808 
L 383.617599 84.732367 
L 383.898471 84.732367 
L 384.16282 81.0349 
L 384.443692 81.0349 
L 384.724563 84.732367 
L 384.988913 85.648696 
L 385.269785 81.967304 
L 385.815006 81.967304 
L 386.095878 85.648696 
L 386.376749 82.891636 
L 387.467192 82.891636 
L 387.748064 83.808 
L 388.293285 83.808 
L 388.574157 80.158345 
L 388.855028 83.808 
L 389.119378 84.716498 
L 389.40025 84.716498 
L 389.681121 81.082506 
L 389.945471 81.082506 
L 390.226343 84.716498 
L 390.507214 85.617231 
L 390.771564 81.998769 
L 391.333307 81.998769 
L 391.597657 85.617231 
L 391.878529 82.907234 
L 392.985493 82.907234 
L 393.249843 83.808 
L 393.811586 83.808 
L 394.075936 80.220203 
L 394.356808 83.808 
L 394.637679 84.701165 
L 394.902029 84.701165 
L 395.182901 81.128506 
L 395.463772 81.128506 
L 395.728122 84.701165 
L 396.008994 85.586824 
L 396.289865 82.029176 
L 396.835087 82.029176 
L 397.115958 85.586824 
L 397.380308 82.92231 
L 397.942051 82.92231 
L 398.206401 86.465071 
L 398.487273 82.92231 
L 398.487273 82.92231 
" style="fill:none;stroke:#1f77b4;stroke-linecap:square;stroke-width:1.5;"/>
   </g>
   <g id="patch_3">
    <path d="M 57.6 307.584 
L 57.6 41.472 
" style="fill:none;stroke:#000000;stroke-linecap:square;stroke-linejoin:miter;stroke-width:0.8;"/>
   </g>
   <g id="patch_4">
    <path d="M 414.72 307.584 
L 414.72 41.472 
" style="fill:none;stroke:#000000;stroke-linecap:square;stroke-linejoin:miter;stroke-width:0.8;"/>
   </g>
   <g id="patch_5">
    <path d="M 57.6 307.584 
L 414.72 307.584 
" style="fill:none;stroke:#000000;stroke-linecap:square;stroke-linejoin:miter;stroke-width:0.8;"/>
   </g>
   <g id="patch_6">
    <path d="M 57.6 41.472 
L 414.72 41.472 
" style="fill:none;stroke:#000000;stroke-linecap:square;stroke-linejoin:miter;stroke-width:0.8;"/>
   </g>
   <g id="text_20">
    <!-- Speed function of time -->
    <g transform="translate(167.024063 35.472)scale(0.12 -0.12)">
     <defs>
      <path id="DejaVuSerif-32"/>
      <path d="M 43.015625 63.71875 
L 38.28125 63.71875 
Q 38.234375 67.390625 36.203125 69.28125 
Q 34.1875 71.1875 30.328125 71.1875 
Q 25.296875 71.1875 23.234375 68.421875 
Q 21.1875 65.671875 21.1875 58.59375 
L 21.1875 51.90625 
L 35.6875 51.90625 
L 35.6875 46.6875 
L 21.1875 46.6875 
L 21.1875 5.171875 
L 32.71875 5.171875 
L 32.71875 0 
L 3.609375 0 
L 3.609375 5.171875 
L 12.203125 5.171875 
L 12.203125 46.6875 
L 3.609375 46.6875 
L 3.609375 51.90625 
L 12.203125 51.90625 
L 12.203125 58.40625 
Q 12.203125 67.09375 16.71875 71.53125 
Q 21.234375 75.984375 29.984375 75.984375 
Q 33.25 75.984375 36.515625 75.390625 
Q 39.796875 74.8125 43.015625 73.578125 
z
" id="DejaVuSerif-102"/>
      <path d="M 35.40625 51.90625 
L 52.203125 51.90625 
L 52.203125 5.171875 
L 60.6875 5.171875 
L 60.6875 0 
L 43.21875 0 
L 43.21875 9.1875 
Q 40.71875 4 36.765625 1.28125 
Q 32.8125 -1.421875 27.59375 -1.421875 
Q 18.953125 -1.421875 14.875 3.484375 
Q 10.796875 8.40625 10.796875 18.890625 
L 10.796875 46.6875 
L 2.6875 46.6875 
L 2.6875 51.90625 
L 19.828125 51.90625 
L 19.828125 21.6875 
Q 19.828125 12.203125 22.140625 8.6875 
Q 24.46875 5.171875 30.421875 5.171875 
Q 36.671875 5.171875 39.9375 9.765625 
Q 43.21875 14.359375 43.21875 23.09375 
L 43.21875 46.6875 
L 35.40625 46.6875 
z
" id="DejaVuSerif-117"/>
      <path d="M 4.109375 0 
L 4.109375 5.171875 
L 12.203125 5.171875 
L 12.203125 46.6875 
L 3.609375 46.6875 
L 3.609375 51.90625 
L 21.1875 51.90625 
L 21.1875 42.671875 
Q 23.6875 47.953125 27.65625 50.640625 
Q 31.640625 53.328125 36.921875 53.328125 
Q 45.515625 53.328125 49.5625 48.390625 
Q 53.609375 43.453125 53.609375 33.015625 
L 53.609375 5.171875 
L 61.625 5.171875 
L 61.625 0 
L 36.8125 0 
L 36.8125 5.171875 
L 44.578125 5.171875 
L 44.578125 30.171875 
Q 44.578125 39.703125 42.234375 43.234375 
Q 39.890625 46.78125 33.984375 46.78125 
Q 27.734375 46.78125 24.453125 42.203125 
Q 21.1875 37.640625 21.1875 28.90625 
L 21.1875 5.171875 
L 29 5.171875 
L 29 0 
z
" id="DejaVuSerif-110"/>
      <path d="M 51.421875 15.578125 
Q 49.515625 7.28125 44.09375 2.921875 
Q 38.671875 -1.421875 30.078125 -1.421875 
Q 18.75 -1.421875 11.859375 6.078125 
Q 4.984375 13.578125 4.984375 25.984375 
Q 4.984375 38.421875 11.859375 45.875 
Q 18.75 53.328125 30.078125 53.328125 
Q 35.015625 53.328125 39.890625 52.171875 
Q 44.78125 51.03125 49.703125 48.6875 
L 49.703125 35.40625 
L 44.484375 35.40625 
Q 43.453125 42.234375 40.015625 45.359375 
Q 36.578125 48.484375 30.171875 48.484375 
Q 22.90625 48.484375 19.1875 42.84375 
Q 15.484375 37.203125 15.484375 25.984375 
Q 15.484375 14.75 19.171875 9.078125 
Q 22.859375 3.421875 30.171875 3.421875 
Q 35.984375 3.421875 39.453125 6.4375 
Q 42.921875 9.46875 44.1875 15.578125 
z
" id="DejaVuSerif-99"/>
      <path d="M 10.796875 46.6875 
L 2.875 46.6875 
L 2.875 51.90625 
L 10.796875 51.90625 
L 10.796875 68.015625 
L 19.828125 68.015625 
L 19.828125 51.90625 
L 36.71875 51.90625 
L 36.71875 46.6875 
L 19.828125 46.6875 
L 19.828125 13.71875 
Q 19.828125 7.125 21.09375 5.265625 
Q 22.359375 3.421875 25.78125 3.421875 
Q 29.296875 3.421875 30.90625 5.484375 
Q 32.515625 7.5625 32.625 12.203125 
L 39.40625 12.203125 
Q 39.015625 5.125 35.546875 1.84375 
Q 32.078125 -1.421875 25 -1.421875 
Q 17.234375 -1.421875 14.015625 2.015625 
Q 10.796875 5.46875 10.796875 13.71875 
z
" id="DejaVuSerif-116"/>
      <path d="M 30.078125 3.421875 
Q 37.3125 3.421875 40.984375 9.125 
Q 44.671875 14.84375 44.671875 25.984375 
Q 44.671875 37.109375 40.984375 42.796875 
Q 37.3125 48.484375 30.078125 48.484375 
Q 22.859375 48.484375 19.171875 42.796875 
Q 15.484375 37.109375 15.484375 25.984375 
Q 15.484375 14.84375 19.1875 9.125 
Q 22.90625 3.421875 30.078125 3.421875 
z
M 30.078125 -1.421875 
Q 18.75 -1.421875 11.859375 6.078125 
Q 4.984375 13.578125 4.984375 25.984375 
Q 4.984375 38.375 11.84375 45.84375 
Q 18.703125 53.328125 30.078125 53.328125 
Q 41.453125 53.328125 48.3125 45.84375 
Q 55.171875 38.375 55.171875 25.984375 
Q 55.171875 13.578125 48.3125 6.078125 
Q 41.453125 -1.421875 30.078125 -1.421875 
z
" id="DejaVuSerif-111"/>
     </defs>
     <use xlink:href="#DejaVuSerif-83"/>
     <use x="68.505859" xlink:href="#DejaVuSerif-112"/>
     <use x="132.519531" xlink:href="#DejaVuSerif-101"/>
     <use x="191.699219" xlink:href="#DejaVuSerif-101"/>
     <use x="250.878906" xlink:href="#DejaVuSerif-100"/>
     <use x="314.892578" xlink:href="#DejaVuSerif-32"/>
     <use x="346.679688" xlink:href="#DejaVuSerif-102"/>
     <use x="383.691406" xlink:href="#DejaVuSerif-117"/>
     <use x="448.095703" xlink:href="#DejaVuSerif-110"/>
     <use x="512.5" xlink:href="#DejaVuSerif-99"/>
     <use x="568.505859" xlink:href="#DejaVuSerif-116"/>
     <use x="608.691406" xlink:href="#DejaVuSerif-105"/>
     <use x="640.673828" xlink:href="#DejaVuSerif-111"/>
     <use x="700.878906" xlink:href="#DejaVuSerif-110"/>
     <use x="765.283203" xlink:href="#DejaVuSerif-32"/>
     <use x="797.070312" xlink:href="#DejaVuSerif-111"/>
     <use x="857.275391" xlink:href="#DejaVuSerif-102"/>
     <use x="894.287109" xlink:href="#DejaVuSerif-32"/>
     <use x="926.074219" xlink:href="#DejaVuSerif-116"/>
     <use x="966.259766" xlink:href="#DejaVuSerif-105"/>
     <use x="998.242188" xlink:href="#DejaVuSerif-109"/>
     <use x="1093.066406" xlink:href="#DejaVuSerif-101"/>
    </g>
   </g>
  </g>
 </g>
 <defs>
  <clipPath id="p9d41217ba1">
   <rect height="266.112" width="357.12" x="57.6" y="41.472"/>
  </clipPath>
 </defs>
</svg>
