<?xml version="1.0" encoding="utf-8" standalone="no"?>
<!DOCTYPE svg PUBLIC "-//W3C//DTD SVG 1.1//EN"
  "http://www.w3.org/Graphics/SVG/1.1/DTD/svg11.dtd">
<!-- Created with matplotlib (https://matplotlib.org/) -->
<svg height="345.6pt" version="1.1" viewBox="0 0 460.8 345.6" width="460.8pt" xmlns="http://www.w3.org/2000/svg" xmlns:xlink="http://www.w3.org/1999/xlink">
 <metadata>
  <rdf:RDF xmlns:cc="http://creativecommons.org/ns#" xmlns:dc="http://purl.org/dc/elements/1.1/" xmlns:rdf="http://www.w3.org/1999/02/22-rdf-syntax-ns#">
   <cc:Work>
    <dc:type rdf:resource="http://purl.org/dc/dcmitype/StillImage"/>
    <dc:date>2023-03-20T14:19:09.776286</dc:date>
    <dc:format>image/svg+xml</dc:format>
    <dc:creator>
     <cc:Agent>
      <dc:title>Matplotlib v3.3.4, https://matplotlib.org/</dc:title>
     </cc:Agent>
    </dc:creator>
   </cc:Work>
  </rdf:RDF>
 </metadata>
 <defs>
  <style type="text/css">*{stroke-linecap:butt;stroke-linejoin:round;}</style>
 </defs>
 <g id="figure_1">
  <g id="patch_1">
   <path d="M 0 345.6 
L 460.8 345.6 
L 460.8 0 
L 0 0 
z
" style="fill:#ffffff;"/>
  </g>
  <g id="axes_1">
   <g id="patch_2">
    <path d="M 57.6 307.584 
L 414.72 307.584 
L 414.72 41.472 
L 57.6 41.472 
z
" style="fill:#ffffff;"/>
   </g>
   <g id="matplotlib.axis_1">
    <g id="xtick_1">
     <g id="line2d_1">
      <defs>
       <path d="M 0 0 
L 0 3.5 
" id="m03fdc58548" style="stroke:#000000;stroke-width:0.8;"/>
      </defs>
      <g>
       <use style="stroke:#000000;stroke-width:0.8;" x="74.157057" xlink:href="#m03fdc58548" y="307.584"/>
      </g>
     </g>
     <g id="text_1">
      <!-- 250 -->
      <g transform="translate(64.613307 322.182437)scale(0.1 -0.1)">
       <defs>
        <path d="M 12.796875 55.515625 
L 7.328125 55.515625 
L 7.328125 68.5 
Q 12.546875 71.296875 17.84375 72.75 
Q 23.140625 74.21875 28.21875 74.21875 
Q 39.59375 74.21875 46.1875 68.703125 
Q 52.78125 63.1875 52.78125 53.71875 
Q 52.78125 43.015625 37.84375 28.125 
Q 36.671875 27 36.078125 26.421875 
L 17.671875 8.015625 
L 48.09375 8.015625 
L 48.09375 17 
L 53.8125 17 
L 53.8125 0 
L 6.78125 0 
L 6.78125 5.328125 
L 28.90625 27.390625 
Q 36.234375 34.71875 39.359375 40.84375 
Q 42.484375 46.96875 42.484375 53.71875 
Q 42.484375 61.078125 38.640625 65.234375 
Q 34.8125 69.390625 28.078125 69.390625 
Q 21.09375 69.390625 17.28125 65.921875 
Q 13.484375 62.453125 12.796875 55.515625 
z
" id="DejaVuSerif-50"/>
        <path d="M 50.296875 72.90625 
L 50.296875 64.890625 
L 16.890625 64.890625 
L 16.890625 44 
Q 19.4375 45.75 22.828125 46.625 
Q 26.21875 47.515625 30.421875 47.515625 
Q 42.234375 47.515625 49.0625 40.96875 
Q 55.90625 34.421875 55.90625 23.09375 
Q 55.90625 11.53125 49 5.046875 
Q 42.09375 -1.421875 29.59375 -1.421875 
Q 24.5625 -1.421875 19.28125 -0.1875 
Q 14.015625 1.03125 8.5 3.515625 
L 8.5 17.671875 
L 14.015625 17.671875 
Q 14.453125 10.75 18.421875 7.078125 
Q 22.40625 3.421875 29.59375 3.421875 
Q 37.3125 3.421875 41.453125 8.5 
Q 45.609375 13.578125 45.609375 23.09375 
Q 45.609375 32.5625 41.484375 37.609375 
Q 37.359375 42.671875 29.59375 42.671875 
Q 25.203125 42.671875 21.84375 41.109375 
Q 18.5 39.546875 15.921875 36.28125 
L 11.71875 36.28125 
L 11.71875 72.90625 
z
" id="DejaVuSerif-53"/>
        <path d="M 31.78125 3.421875 
Q 39.265625 3.421875 42.96875 11.625 
Q 46.6875 19.828125 46.6875 36.375 
Q 46.6875 52.984375 42.96875 61.1875 
Q 39.265625 69.390625 31.78125 69.390625 
Q 24.3125 69.390625 20.59375 61.1875 
Q 16.890625 52.984375 16.890625 36.375 
Q 16.890625 19.828125 20.59375 11.625 
Q 24.3125 3.421875 31.78125 3.421875 
z
M 31.78125 -1.421875 
Q 19.921875 -1.421875 13.25 8.53125 
Q 6.59375 18.5 6.59375 36.375 
Q 6.59375 54.296875 13.25 64.25 
Q 19.921875 74.21875 31.78125 74.21875 
Q 43.703125 74.21875 50.34375 64.25 
Q 56.984375 54.296875 56.984375 36.375 
Q 56.984375 18.5 50.34375 8.53125 
Q 43.703125 -1.421875 31.78125 -1.421875 
z
" id="DejaVuSerif-48"/>
       </defs>
       <use xlink:href="#DejaVuSerif-50"/>
       <use x="63.623047" xlink:href="#DejaVuSerif-53"/>
       <use x="127.246094" xlink:href="#DejaVuSerif-48"/>
      </g>
     </g>
    </g>
    <g id="xtick_2">
     <g id="line2d_2">
      <g>
       <use style="stroke:#000000;stroke-width:0.8;" x="139.023101" xlink:href="#m03fdc58548" y="307.584"/>
      </g>
     </g>
     <g id="text_2">
      <!-- 300 -->
      <g transform="translate(129.479351 322.182437)scale(0.1 -0.1)">
       <defs>
        <path d="M 9.71875 69.828125 
Q 15.4375 71.96875 20.671875 73.09375 
Q 25.921875 74.21875 30.515625 74.21875 
Q 41.21875 74.21875 47.21875 69.59375 
Q 53.21875 64.984375 53.21875 56.78125 
Q 53.21875 50.203125 49.0625 45.78125 
Q 44.921875 41.359375 37.3125 39.796875 
Q 46.296875 38.53125 51.25 33.28125 
Q 56.203125 28.03125 56.203125 19.671875 
Q 56.203125 9.46875 49.34375 4.015625 
Q 42.484375 -1.421875 29.59375 -1.421875 
Q 23.875 -1.421875 18.421875 -0.1875 
Q 12.984375 1.03125 7.625 3.515625 
L 7.625 17.671875 
L 13.09375 17.671875 
Q 13.578125 10.640625 17.828125 7.03125 
Q 22.078125 3.421875 29.78125 3.421875 
Q 37.25 3.421875 41.578125 7.734375 
Q 45.90625 12.0625 45.90625 19.578125 
Q 45.90625 28.171875 41.453125 32.59375 
Q 37.015625 37.015625 28.421875 37.015625 
L 23.78125 37.015625 
L 23.78125 42 
L 26.21875 42 
Q 34.765625 42 39.03125 45.53125 
Q 43.3125 49.078125 43.3125 56.203125 
Q 43.3125 62.59375 39.796875 65.984375 
Q 36.28125 69.390625 29.6875 69.390625 
Q 23.09375 69.390625 19.453125 66.265625 
Q 15.828125 63.140625 15.1875 56.984375 
L 9.71875 56.984375 
z
" id="DejaVuSerif-51"/>
       </defs>
       <use xlink:href="#DejaVuSerif-51"/>
       <use x="63.623047" xlink:href="#DejaVuSerif-48"/>
       <use x="127.246094" xlink:href="#DejaVuSerif-48"/>
      </g>
     </g>
    </g>
    <g id="xtick_3">
     <g id="line2d_3">
      <g>
       <use style="stroke:#000000;stroke-width:0.8;" x="203.889144" xlink:href="#m03fdc58548" y="307.584"/>
      </g>
     </g>
     <g id="text_3">
      <!-- 350 -->
      <g transform="translate(194.345394 322.182437)scale(0.1 -0.1)">
       <use xlink:href="#DejaVuSerif-51"/>
       <use x="63.623047" xlink:href="#DejaVuSerif-53"/>
       <use x="127.246094" xlink:href="#DejaVuSerif-48"/>
      </g>
     </g>
    </g>
    <g id="xtick_4">
     <g id="line2d_4">
      <g>
       <use style="stroke:#000000;stroke-width:0.8;" x="268.755187" xlink:href="#m03fdc58548" y="307.584"/>
      </g>
     </g>
     <g id="text_4">
      <!-- 400 -->
      <g transform="translate(259.211437 322.182437)scale(0.1 -0.1)">
       <defs>
        <path d="M 34.90625 24.703125 
L 34.90625 63.484375 
L 10.015625 24.703125 
z
M 56.390625 0 
L 23.1875 0 
L 23.1875 5.171875 
L 34.90625 5.171875 
L 34.90625 19.484375 
L 3.078125 19.484375 
L 3.078125 24.8125 
L 35.015625 74.21875 
L 44.671875 74.21875 
L 44.671875 24.703125 
L 58.59375 24.703125 
L 58.59375 19.484375 
L 44.671875 19.484375 
L 44.671875 5.171875 
L 56.390625 5.171875 
z
" id="DejaVuSerif-52"/>
       </defs>
       <use xlink:href="#DejaVuSerif-52"/>
       <use x="63.623047" xlink:href="#DejaVuSerif-48"/>
       <use x="127.246094" xlink:href="#DejaVuSerif-48"/>
      </g>
     </g>
    </g>
    <g id="xtick_5">
     <g id="line2d_5">
      <g>
       <use style="stroke:#000000;stroke-width:0.8;" x="333.62123" xlink:href="#m03fdc58548" y="307.584"/>
      </g>
     </g>
     <g id="text_5">
      <!-- 450 -->
      <g transform="translate(324.07748 322.182437)scale(0.1 -0.1)">
       <use xlink:href="#DejaVuSerif-52"/>
       <use x="63.623047" xlink:href="#DejaVuSerif-53"/>
       <use x="127.246094" xlink:href="#DejaVuSerif-48"/>
      </g>
     </g>
    </g>
    <g id="xtick_6">
     <g id="line2d_6">
      <g>
       <use style="stroke:#000000;stroke-width:0.8;" x="398.487273" xlink:href="#m03fdc58548" y="307.584"/>
      </g>
     </g>
     <g id="text_6">
      <!-- 500 -->
      <g transform="translate(388.943523 322.182437)scale(0.1 -0.1)">
       <use xlink:href="#DejaVuSerif-53"/>
       <use x="63.623047" xlink:href="#DejaVuSerif-48"/>
       <use x="127.246094" xlink:href="#DejaVuSerif-48"/>
      </g>
     </g>
    </g>
    <g id="text_7">
     <!-- Time -->
     <g transform="translate(223.524844 335.860562)scale(0.1 -0.1)">
      <defs>
       <path d="M 19.09375 0 
L 19.09375 5.171875 
L 28.421875 5.171875 
L 28.421875 67.09375 
L 6.984375 67.09375 
L 6.984375 55.71875 
L 0.984375 55.71875 
L 0.984375 72.90625 
L 65.71875 72.90625 
L 65.71875 55.71875 
L 59.71875 55.71875 
L 59.71875 67.09375 
L 38.28125 67.09375 
L 38.28125 5.171875 
L 47.609375 5.171875 
L 47.609375 0 
z
" id="DejaVuSerif-84"/>
       <path d="M 9.71875 68.015625 
Q 9.71875 70.265625 11.34375 71.921875 
Q 12.984375 73.578125 15.28125 73.578125 
Q 17.53125 73.578125 19.15625 71.921875 
Q 20.796875 70.265625 20.796875 68.015625 
Q 20.796875 65.71875 19.1875 64.109375 
Q 17.578125 62.5 15.28125 62.5 
Q 12.984375 62.5 11.34375 64.109375 
Q 9.71875 65.71875 9.71875 68.015625 
z
M 21.1875 5.171875 
L 29.6875 5.171875 
L 29.6875 0 
L 3.609375 0 
L 3.609375 5.171875 
L 12.203125 5.171875 
L 12.203125 46.6875 
L 3.609375 46.6875 
L 3.609375 51.90625 
L 21.1875 51.90625 
z
" id="DejaVuSerif-105"/>
       <path d="M 51.8125 41.796875 
Q 54.390625 47.515625 58.421875 50.421875 
Q 62.453125 53.328125 67.828125 53.328125 
Q 75.984375 53.328125 79.984375 48.265625 
Q 83.984375 43.21875 83.984375 33.015625 
L 83.984375 5.171875 
L 92.09375 5.171875 
L 92.09375 0 
L 67.1875 0 
L 67.1875 5.171875 
L 75 5.171875 
L 75 31.984375 
Q 75 39.9375 72.65625 43.3125 
Q 70.3125 46.6875 64.890625 46.6875 
Q 58.890625 46.6875 55.734375 42.140625 
Q 52.59375 37.59375 52.59375 28.90625 
L 52.59375 5.171875 
L 60.40625 5.171875 
L 60.40625 0 
L 35.796875 0 
L 35.796875 5.171875 
L 43.609375 5.171875 
L 43.609375 32.328125 
Q 43.609375 40.09375 41.265625 43.390625 
Q 38.921875 46.6875 33.5 46.6875 
Q 27.484375 46.6875 24.328125 42.140625 
Q 21.1875 37.59375 21.1875 28.90625 
L 21.1875 5.171875 
L 29 5.171875 
L 29 0 
L 4.109375 0 
L 4.109375 5.171875 
L 12.203125 5.171875 
L 12.203125 46.78125 
L 3.609375 46.78125 
L 3.609375 51.90625 
L 21.1875 51.90625 
L 21.1875 42.671875 
Q 23.6875 47.859375 27.53125 50.59375 
Q 31.390625 53.328125 36.28125 53.328125 
Q 42.328125 53.328125 46.375 50.3125 
Q 50.4375 47.3125 51.8125 41.796875 
z
" id="DejaVuSerif-109"/>
       <path d="M 54.203125 25 
L 15.484375 25 
L 15.484375 24.609375 
Q 15.484375 14.109375 19.4375 8.765625 
Q 23.390625 3.421875 31.109375 3.421875 
Q 37.015625 3.421875 40.796875 6.515625 
Q 44.578125 9.625 46.09375 15.71875 
L 53.328125 15.71875 
Q 51.171875 7.171875 45.375 2.875 
Q 39.59375 -1.421875 30.171875 -1.421875 
Q 18.796875 -1.421875 11.890625 6.078125 
Q 4.984375 13.578125 4.984375 25.984375 
Q 4.984375 38.28125 11.765625 45.796875 
Q 18.5625 53.328125 29.59375 53.328125 
Q 41.359375 53.328125 47.65625 46.0625 
Q 53.953125 38.8125 54.203125 25 
z
M 43.609375 30.171875 
Q 43.3125 39.265625 39.765625 43.875 
Q 36.234375 48.484375 29.59375 48.484375 
Q 23.390625 48.484375 19.828125 43.84375 
Q 16.265625 39.203125 15.484375 30.171875 
z
" id="DejaVuSerif-101"/>
      </defs>
      <use xlink:href="#DejaVuSerif-84"/>
      <use x="66.699219" xlink:href="#DejaVuSerif-105"/>
      <use x="98.681641" xlink:href="#DejaVuSerif-109"/>
      <use x="193.505859" xlink:href="#DejaVuSerif-101"/>
     </g>
    </g>
   </g>
   <g id="matplotlib.axis_2">
    <g id="ytick_1">
     <g id="line2d_7">
      <defs>
       <path d="M 0 0 
L -3.5 0 
" id="me4711ed7ca" style="stroke:#000000;stroke-width:0.8;"/>
      </defs>
      <g>
       <use style="stroke:#000000;stroke-width:0.8;" x="57.6" xlink:href="#me4711ed7ca" y="295.488"/>
      </g>
     </g>
     <g id="text_8">
      <!-- 1.00 -->
      <g transform="translate(28.334375 299.287219)scale(0.1 -0.1)">
       <defs>
        <path d="M 14.203125 0 
L 14.203125 5.171875 
L 26.90625 5.171875 
L 26.90625 65.828125 
L 12.203125 56.296875 
L 12.203125 62.703125 
L 29.984375 74.21875 
L 36.71875 74.21875 
L 36.71875 5.171875 
L 49.421875 5.171875 
L 49.421875 0 
z
" id="DejaVuSerif-49"/>
        <path d="M 9.421875 5.078125 
Q 9.421875 7.8125 11.28125 9.71875 
Q 13.140625 11.625 15.921875 11.625 
Q 18.609375 11.625 20.5 9.71875 
Q 22.40625 7.8125 22.40625 5.078125 
Q 22.40625 2.390625 20.5 0.484375 
Q 18.609375 -1.421875 15.921875 -1.421875 
Q 13.140625 -1.421875 11.28125 0.453125 
Q 9.421875 2.34375 9.421875 5.078125 
z
" id="DejaVuSerif-46"/>
       </defs>
       <use xlink:href="#DejaVuSerif-49"/>
       <use x="63.623047" xlink:href="#DejaVuSerif-46"/>
       <use x="95.410156" xlink:href="#DejaVuSerif-48"/>
       <use x="159.033203" xlink:href="#DejaVuSerif-48"/>
      </g>
     </g>
    </g>
    <g id="ytick_2">
     <g id="line2d_8">
      <g>
       <use style="stroke:#000000;stroke-width:0.8;" x="57.6" xlink:href="#me4711ed7ca" y="265.248"/>
      </g>
     </g>
     <g id="text_9">
      <!-- 1.25 -->
      <g transform="translate(28.334375 269.047219)scale(0.1 -0.1)">
       <use xlink:href="#DejaVuSerif-49"/>
       <use x="63.623047" xlink:href="#DejaVuSerif-46"/>
       <use x="95.410156" xlink:href="#DejaVuSerif-50"/>
       <use x="159.033203" xlink:href="#DejaVuSerif-53"/>
      </g>
     </g>
    </g>
    <g id="ytick_3">
     <g id="line2d_9">
      <g>
       <use style="stroke:#000000;stroke-width:0.8;" x="57.6" xlink:href="#me4711ed7ca" y="235.008"/>
      </g>
     </g>
     <g id="text_10">
      <!-- 1.50 -->
      <g transform="translate(28.334375 238.807219)scale(0.1 -0.1)">
       <use xlink:href="#DejaVuSerif-49"/>
       <use x="63.623047" xlink:href="#DejaVuSerif-46"/>
       <use x="95.410156" xlink:href="#DejaVuSerif-53"/>
       <use x="159.033203" xlink:href="#DejaVuSerif-48"/>
      </g>
     </g>
    </g>
    <g id="ytick_4">
     <g id="line2d_10">
      <g>
       <use style="stroke:#000000;stroke-width:0.8;" x="57.6" xlink:href="#me4711ed7ca" y="204.768"/>
      </g>
     </g>
     <g id="text_11">
      <!-- 1.75 -->
      <g transform="translate(28.334375 208.567219)scale(0.1 -0.1)">
       <defs>
        <path d="M 56.390625 67.921875 
L 27.875 0 
L 20.609375 0 
L 47.796875 64.890625 
L 14.109375 64.890625 
L 14.109375 55.90625 
L 8.40625 55.90625 
L 8.40625 72.90625 
L 56.390625 72.90625 
z
" id="DejaVuSerif-55"/>
       </defs>
       <use xlink:href="#DejaVuSerif-49"/>
       <use x="63.623047" xlink:href="#DejaVuSerif-46"/>
       <use x="95.410156" xlink:href="#DejaVuSerif-55"/>
       <use x="159.033203" xlink:href="#DejaVuSerif-53"/>
      </g>
     </g>
    </g>
    <g id="ytick_5">
     <g id="line2d_11">
      <g>
       <use style="stroke:#000000;stroke-width:0.8;" x="57.6" xlink:href="#me4711ed7ca" y="174.528"/>
      </g>
     </g>
     <g id="text_12">
      <!-- 2.00 -->
      <g transform="translate(28.334375 178.327219)scale(0.1 -0.1)">
       <use xlink:href="#DejaVuSerif-50"/>
       <use x="63.623047" xlink:href="#DejaVuSerif-46"/>
       <use x="95.410156" xlink:href="#DejaVuSerif-48"/>
       <use x="159.033203" xlink:href="#DejaVuSerif-48"/>
      </g>
     </g>
    </g>
    <g id="ytick_6">
     <g id="line2d_12">
      <g>
       <use style="stroke:#000000;stroke-width:0.8;" x="57.6" xlink:href="#me4711ed7ca" y="144.288"/>
      </g>
     </g>
     <g id="text_13">
      <!-- 2.25 -->
      <g transform="translate(28.334375 148.087219)scale(0.1 -0.1)">
       <use xlink:href="#DejaVuSerif-50"/>
       <use x="63.623047" xlink:href="#DejaVuSerif-46"/>
       <use x="95.410156" xlink:href="#DejaVuSerif-50"/>
       <use x="159.033203" xlink:href="#DejaVuSerif-53"/>
      </g>
     </g>
    </g>
    <g id="ytick_7">
     <g id="line2d_13">
      <g>
       <use style="stroke:#000000;stroke-width:0.8;" x="57.6" xlink:href="#me4711ed7ca" y="114.048"/>
      </g>
     </g>
     <g id="text_14">
      <!-- 2.50 -->
      <g transform="translate(28.334375 117.847219)scale(0.1 -0.1)">
       <use xlink:href="#DejaVuSerif-50"/>
       <use x="63.623047" xlink:href="#DejaVuSerif-46"/>
       <use x="95.410156" xlink:href="#DejaVuSerif-53"/>
       <use x="159.033203" xlink:href="#DejaVuSerif-48"/>
      </g>
     </g>
    </g>
    <g id="ytick_8">
     <g id="line2d_14">
      <g>
       <use style="stroke:#000000;stroke-width:0.8;" x="57.6" xlink:href="#me4711ed7ca" y="83.808"/>
      </g>
     </g>
     <g id="text_15">
      <!-- 2.75 -->
      <g transform="translate(28.334375 87.607219)scale(0.1 -0.1)">
       <use xlink:href="#DejaVuSerif-50"/>
       <use x="63.623047" xlink:href="#DejaVuSerif-46"/>
       <use x="95.410156" xlink:href="#DejaVuSerif-55"/>
       <use x="159.033203" xlink:href="#DejaVuSerif-53"/>
      </g>
     </g>
    </g>
    <g id="ytick_9">
     <g id="line2d_15">
      <g>
       <use style="stroke:#000000;stroke-width:0.8;" x="57.6" xlink:href="#me4711ed7ca" y="53.568"/>
      </g>
     </g>
     <g id="text_16">
      <!-- 3.00 -->
      <g transform="translate(28.334375 57.367219)scale(0.1 -0.1)">
       <use xlink:href="#DejaVuSerif-51"/>
       <use x="63.623047" xlink:href="#DejaVuSerif-46"/>
       <use x="95.410156" xlink:href="#DejaVuSerif-48"/>
       <use x="159.033203" xlink:href="#DejaVuSerif-48"/>
      </g>
     </g>
    </g>
    <g id="text_17">
     <!-- Speed -->
     <g transform="translate(22.254687 190.273313)rotate(-90)scale(0.1 -0.1)">
      <defs>
       <path d="M 9.28125 3.515625 
L 9.28125 20.125 
L 14.890625 20.0625 
Q 15.140625 11.765625 19.703125 7.78125 
Q 24.265625 3.8125 33.59375 3.8125 
Q 42.28125 3.8125 46.84375 7.25 
Q 51.421875 10.6875 51.421875 17.28125 
Q 51.421875 22.5625 48.65625 25.390625 
Q 45.90625 28.21875 37.015625 30.90625 
L 27.390625 33.796875 
Q 16.9375 36.96875 12.671875 41.703125 
Q 8.40625 46.4375 8.40625 54.6875 
Q 8.40625 63.96875 14.984375 69.09375 
Q 21.578125 74.21875 33.5 74.21875 
Q 38.578125 74.21875 44.625 73.109375 
Q 50.6875 72.015625 57.515625 69.921875 
L 57.515625 54.390625 
L 52 54.390625 
Q 51.171875 62.109375 46.84375 65.546875 
Q 42.53125 69 33.6875 69 
Q 25.984375 69 21.953125 65.84375 
Q 17.921875 62.703125 17.921875 56.6875 
Q 17.921875 51.46875 20.9375 48.484375 
Q 23.96875 45.515625 33.796875 42.578125 
L 42.828125 39.890625 
Q 52.734375 36.921875 56.953125 32.296875 
Q 61.1875 27.6875 61.1875 19.921875 
Q 61.1875 9.328125 54.390625 3.953125 
Q 47.609375 -1.421875 34.1875 -1.421875 
Q 28.171875 -1.421875 21.9375 -0.1875 
Q 15.71875 1.03125 9.28125 3.515625 
z
" id="DejaVuSerif-83"/>
       <path d="M 20.515625 28.515625 
L 20.515625 23.390625 
Q 20.515625 14.015625 24.09375 9.109375 
Q 27.6875 4.203125 34.515625 4.203125 
Q 41.40625 4.203125 44.9375 9.71875 
Q 48.484375 15.234375 48.484375 25.984375 
Q 48.484375 36.765625 44.9375 42.234375 
Q 41.40625 47.703125 34.515625 47.703125 
Q 27.6875 47.703125 24.09375 42.765625 
Q 20.515625 37.84375 20.515625 28.515625 
z
M 11.53125 46.6875 
L 2.875 46.6875 
L 2.875 51.90625 
L 20.515625 51.90625 
L 20.515625 43.796875 
Q 23.140625 48.6875 27.21875 51 
Q 31.296875 53.328125 37.3125 53.328125 
Q 46.875 53.328125 52.921875 45.75 
Q 58.984375 38.1875 58.984375 25.984375 
Q 58.984375 13.765625 52.921875 6.171875 
Q 46.875 -1.421875 37.3125 -1.421875 
Q 31.296875 -1.421875 27.21875 0.890625 
Q 23.140625 3.21875 20.515625 8.109375 
L 20.515625 -15.578125 
L 29 -15.578125 
L 29 -20.796875 
L 2.875 -20.796875 
L 2.875 -15.578125 
L 11.53125 -15.578125 
z
" id="DejaVuSerif-112"/>
       <path d="M 52.484375 5.171875 
L 61.078125 5.171875 
L 61.078125 0 
L 43.5 0 
L 43.5 8.109375 
Q 40.875 3.21875 36.796875 0.890625 
Q 32.71875 -1.421875 26.703125 -1.421875 
Q 17.140625 -1.421875 11.0625 6.171875 
Q 4.984375 13.765625 4.984375 25.984375 
Q 4.984375 38.1875 11.03125 45.75 
Q 17.09375 53.328125 26.703125 53.328125 
Q 32.71875 53.328125 36.796875 51 
Q 40.875 48.6875 43.5 43.796875 
L 43.5 70.796875 
L 35.015625 70.796875 
L 35.015625 75.984375 
L 52.484375 75.984375 
z
M 43.5 23.390625 
L 43.5 28.515625 
Q 43.5 37.84375 39.90625 42.765625 
Q 36.328125 47.703125 29.5 47.703125 
Q 22.5625 47.703125 19.015625 42.234375 
Q 15.484375 36.765625 15.484375 25.984375 
Q 15.484375 15.234375 19.015625 9.71875 
Q 22.5625 4.203125 29.5 4.203125 
Q 36.328125 4.203125 39.90625 9.109375 
Q 43.5 14.015625 43.5 23.390625 
z
" id="DejaVuSerif-100"/>
      </defs>
      <use xlink:href="#DejaVuSerif-83"/>
      <use x="68.505859" xlink:href="#DejaVuSerif-112"/>
      <use x="132.519531" xlink:href="#DejaVuSerif-101"/>
      <use x="191.699219" xlink:href="#DejaVuSerif-101"/>
      <use x="250.878906" xlink:href="#DejaVuSerif-100"/>
     </g>
    </g>
   </g>
   <g id="line2d_16">
    <path clip-path="url(#p599fabd3e5)" d="M 73.832727 235.008 
L 73.936513 53.568 
L 74.157057 235.008 
L 74.260843 235.008 
L 74.377602 126.144 
L 74.585173 271.296 
L 74.701932 271.296 
L 74.805718 126.144 
L 74.909504 174.528 
L 75.130048 295.488 
L 75.233834 174.528 
L 75.350593 174.528 
L 75.558164 209.088 
L 75.882494 209.088 
L 75.999253 144.288 
L 76.206824 235.008 
L 76.427369 235.008 
L 76.531155 255.168 
L 76.647914 255.168 
L 76.855485 174.528 
L 77.076029 271.296 
L 77.179815 198.72 
L 77.40036 198.72 
L 77.504145 271.296 
L 77.72469 218.513455 
L 78.04902 218.513455 
L 78.152806 235.008 
L 78.269565 235.008 
L 78.37335 174.528 
L 78.477136 235.008 
L 78.593895 235.008 
L 78.697681 248.964923 
L 78.801466 193.137231 
L 78.918225 193.137231 
L 79.125796 248.964923 
L 79.346341 209.088 
L 79.450127 260.928 
L 79.670671 209.088 
L 79.774457 222.912 
L 80.215546 222.912 
L 80.319332 235.008 
L 80.423117 189.648 
L 80.643662 235.008 
L 80.747447 189.648 
L 80.967992 202.989176 
L 81.071778 245.680941 
L 81.292322 202.989176 
L 81.396108 214.848 
L 81.512867 255.168 
L 81.720438 214.848 
L 81.837197 214.848 
L 81.940983 187.260632 
L 82.044768 225.458526 
L 82.265313 225.458526 
L 82.369099 187.260632 
L 82.485857 198.72 
L 82.693429 235.008 
L 82.810188 198.72 
L 83.017759 243.648 
L 83.134518 243.648 
L 83.342089 209.088 
L 83.458848 243.648 
L 83.666419 218.513455 
L 83.99075 218.513455 
L 84.211294 227.119304 
L 84.535624 227.119304 
L 84.63941 235.008 
L 84.859955 204.768 
L 84.96374 235.008 
L 85.080499 235.008 
L 85.28807 213.2352 
L 85.404829 213.2352 
L 85.508615 242.2656 
L 85.612401 213.2352 
L 85.832945 221.051077 
L 85.936731 193.137231 
L 86.157275 221.051077 
L 86.261061 228.288 
L 86.37782 201.408 
L 86.585391 228.288 
L 86.70215 228.288 
L 86.909722 209.088 
L 87.130266 235.008 
L 87.234052 209.088 
L 87.454596 216.238345 
L 87.778927 216.238345 
L 87.882712 222.912 
L 88.323801 222.912 
L 88.427587 205.743484 
L 88.531373 229.155097 
L 88.648132 229.155097 
L 88.855703 205.743484 
L 88.972462 212.328 
L 89.076247 235.008 
L 89.180033 212.328 
L 89.296792 212.328 
L 89.504363 240.506182 
L 89.724908 218.513455 
L 89.945452 218.513455 
L 90.153024 224.335059 
L 90.269783 224.335059 
L 90.373568 202.989176 
L 90.594113 229.824 
L 90.697898 229.824 
L 90.801684 209.088 
L 90.918443 209.088 
L 91.126014 235.008 
L 91.346559 214.848 
L 91.450345 235.008 
L 91.567103 214.848 
L 91.774675 220.296649 
L 92.099005 220.296649 
L 92.31955 225.458526 
L 92.423335 206.359579 
L 92.64388 225.458526 
L 92.747665 211.746462 
L 92.864424 211.746462 
L 93.071996 230.355692 
L 93.188755 211.746462 
L 93.396326 216.864 
L 93.513085 235.008 
L 93.720656 216.864 
L 93.837415 221.731902 
L 93.941201 204.030439 
L 94.044986 221.731902 
L 94.265531 221.731902 
L 94.369317 209.088 
L 94.589861 226.368 
L 94.693647 226.368 
L 94.810406 209.088 
L 94.914191 213.910326 
L 95.017977 230.788465 
L 95.134736 230.788465 
L 95.342307 213.910326 
L 95.562852 218.513455 
L 95.887182 218.513455 
L 95.990968 206.784 
L 96.211512 222.912 
L 96.432057 222.912 
L 96.639628 227.119304 
L 96.860173 211.341913 
L 97.080717 231.147574 
L 97.288288 215.705872 
L 97.405047 215.705872 
L 97.508833 231.147574 
L 97.612619 219.888 
L 98.053708 219.888 
L 98.261279 223.899429 
L 98.378038 209.088 
L 98.585609 223.899429 
L 98.702368 227.7504 
L 98.90994 213.2352 
L 99.130484 227.7504 
L 99.23427 217.219765 
L 99.351029 217.219765 
L 99.454814 231.450353 
L 99.5586 217.219765 
L 99.675359 217.219765 
L 99.88293 221.051077 
L 100.20726 221.051077 
L 100.324019 224.737811 
L 100.427805 211.044226 
L 100.531591 224.737811 
L 100.648349 224.737811 
L 100.752135 211.044226 
L 100.855921 214.848 
L 100.97268 214.848 
L 101.076465 228.288 
L 101.180251 214.848 
L 101.29701 214.848 
L 101.400796 218.513455 
L 101.504581 231.709091 
L 101.725126 218.513455 
L 101.828911 218.513455 
L 101.94567 209.088 
L 102.153242 222.048 
L 102.270001 222.048 
L 102.373786 209.088 
L 102.477572 212.725895 
L 102.698116 225.458526 
L 102.801902 212.725895 
L 103.022447 228.751448 
L 103.126232 228.751448 
L 103.346777 216.238345 
L 103.450563 228.751448 
L 103.671107 219.631729 
L 103.995437 219.631729 
L 104.099223 222.912 
L 104.540312 222.912 
L 104.644098 226.084721 
L 104.747883 214.187016 
L 104.864642 214.187016 
L 105.072214 226.084721 
L 105.292758 217.44929 
L 105.396544 217.44929 
L 105.513303 229.155097 
L 105.617088 217.44929 
L 105.720874 220.608 
L 105.837633 220.608 
L 105.941419 209.088 
L 106.045204 220.608 
L 106.161963 220.608 
L 106.265749 223.668 
L 106.369534 212.328 
L 106.590079 223.668 
L 106.693865 223.668 
L 106.914409 215.468308 
L 107.018195 226.633846 
L 107.134954 226.633846 
L 107.238739 215.468308 
L 107.342525 218.513455 
L 107.783614 218.513455 
L 107.991186 221.467701 
L 108.315516 221.467701 
L 108.432275 213.662118 
L 108.639846 224.335059 
L 108.860391 213.662118 
L 108.964176 216.601043 
L 109.080935 227.119304 
L 109.288506 216.601043 
L 109.509051 229.824 
L 109.612837 219.456 
L 109.937167 219.456 
L 110.157711 222.230535 
L 110.261497 222.230535 
L 110.378256 212.008563 
L 110.585827 224.928 
L 110.702586 224.928 
L 110.910157 214.848 
L 111.130702 227.551562 
L 111.234488 217.609644 
L 111.351247 217.609644 
L 111.455032 227.551562 
L 111.558818 217.609644 
L 111.779362 220.296649 
L 112.103693 220.296649 
L 112.207478 222.912 
L 112.324237 222.912 
L 112.428023 213.2352 
L 112.531809 222.912 
L 112.648567 222.912 
L 112.856139 215.909053 
L 113.076683 225.458526 
L 113.180469 215.909053 
L 113.401014 218.513455 
L 113.504799 227.938909 
L 113.725344 218.513455 
L 113.829129 221.051077 
L 113.945888 211.746462 
L 114.15346 221.051077 
L 114.270219 221.051077 
L 114.374004 214.33762 
L 114.47779 223.524456 
L 114.698334 223.524456 
L 114.80212 214.33762 
L 114.918879 216.864 
L 115.12645 225.936 
L 115.346995 216.864 
L 115.45078 219.328 
L 115.89187 219.328 
L 115.995655 212.881171 
L 116.099441 221.731902 
L 116.423771 221.731902 
L 116.644316 224.07788 
L 116.748101 215.333783 
L 116.86486 215.333783 
L 117.072432 226.368 
L 117.292976 217.728 
L 117.396762 217.728 
L 117.513521 226.368 
L 117.721092 220.065882 
L 118.045422 220.065882 
L 118.265967 222.349395 
L 118.369752 213.910326 
L 118.590297 222.349395 
L 118.694083 224.580414 
L 118.914627 216.238345 
L 119.018413 224.580414 
L 119.135172 224.580414 
L 119.342743 218.513455 
L 119.459502 226.760727 
L 119.667073 218.513455 
L 119.887618 220.737438 
L 120.211948 220.737438 
L 120.315734 222.912 
L 120.432493 214.848 
L 120.640064 222.912 
L 120.756823 214.848 
L 120.964394 217.063385 
L 121.081153 225.038769 
L 121.288724 217.063385 
L 121.405483 219.230609 
L 121.509269 227.119304 
L 121.613055 219.230609 
L 121.833599 219.230609 
L 121.937385 213.547355 
L 122.157929 221.351226 
L 122.261715 221.351226 
L 122.378474 213.547355 
L 122.48226 215.705872 
L 122.586045 223.426723 
L 122.702804 223.426723 
L 122.80659 215.705872 
L 123.027134 225.458526 
L 123.13092 225.458526 
L 123.234706 217.818947 
L 123.351465 217.818947 
L 123.45525 225.458526 
L 123.559036 219.888 
L 124.000125 219.888 
L 124.207696 221.914392 
L 124.532027 221.914392 
L 124.648785 223.899429 
L 124.856357 216.493714 
L 125.076901 223.899429 
L 125.180687 218.513455 
L 125.401231 218.513455 
L 125.505017 225.844364 
L 125.621776 218.513455 
L 125.829347 220.4928 
L 125.946106 213.2352 
L 126.153678 220.4928 
L 126.270436 222.43295 
L 126.374222 215.247208 
L 126.478008 222.43295 
L 126.698552 222.43295 
L 126.802338 217.219765 
L 126.919097 217.219765 
L 127.126668 224.335059 
L 127.243427 217.219765 
L 127.450998 219.154019 
L 127.775329 219.154019 
L 127.995873 221.051077 
L 128.320203 221.051077 
L 128.423989 216 
L 128.644534 222.912 
L 128.748319 216 
L 128.865078 216 
L 128.968864 217.891019 
L 129.07265 224.737811 
L 129.293194 217.891019 
L 129.513739 226.529495 
L 129.72131 219.746692 
L 129.941855 219.746692 
L 130.04564 221.568 
L 130.266185 221.568 
L 130.36997 214.848 
L 130.590515 223.35589 
L 130.694301 223.35589 
L 130.914845 216.697541 
L 131.018631 223.35589 
L 131.239175 218.513455 
L 131.342961 218.513455 
L 131.45972 225.111273 
L 131.563506 218.513455 
L 131.667291 220.296649 
L 132.10838 220.296649 
L 132.315952 222.048 
L 132.432711 215.568 
L 132.640282 222.048 
L 132.860826 217.345699 
L 132.964612 223.768354 
L 133.081371 223.768354 
L 133.185157 217.345699 
L 133.288942 219.092211 
L 133.405701 219.092211 
L 133.509487 225.458526 
L 133.613273 219.092211 
L 133.730031 219.092211 
L 133.833817 220.808348 
L 133.937603 214.497391 
L 134.158147 220.808348 
L 134.261933 220.808348 
L 134.378692 216.238345 
L 134.586263 222.494897 
L 134.703022 222.494897 
L 134.806808 216.238345 
L 134.910593 217.949538 
L 135.027352 224.152615 
L 135.234924 217.949538 
L 135.351682 217.949538 
L 135.559254 219.631729 
L 135.883584 219.631729 
L 136.000343 215.186824 
L 136.207914 221.285647 
L 136.428459 221.285647 
L 136.532244 222.912 
L 136.649003 222.912 
L 136.856575 216.864 
L 137.077119 224.511471 
L 137.180905 218.513455 
L 137.401449 218.513455 
L 137.505235 224.511471 
L 137.72578 220.135869 
L 138.05011 220.135869 
L 138.153896 221.731902 
L 138.270654 221.731902 
L 138.37444 215.831415 
L 138.478226 221.731902 
L 138.594985 221.731902 
L 138.69877 223.302194 
L 138.802556 217.44929 
L 138.919315 217.44929 
L 139.023101 223.302194 
L 139.126886 217.44929 
L 139.347431 219.04128 
L 139.451216 224.84736 
L 139.671761 219.04128 
L 139.775547 220.608 
L 140.216636 220.608 
L 140.320421 222.150047 
L 140.424207 216.435402 
L 140.644752 222.150047 
L 140.748537 216.435402 
L 140.969082 217.998 
L 141.072867 223.668 
L 141.293412 217.998 
L 141.397198 219.536372 
L 141.513957 225.162419 
L 141.721528 219.536372 
L 141.838287 219.536372 
L 141.942072 215.468308 
L 142.045858 221.051077 
L 142.266403 221.051077 
L 142.370188 215.468308 
L 142.486947 217.002504 
L 142.694519 222.542656 
L 142.811277 217.002504 
L 143.018849 224.011636 
L 143.239393 218.513455 
L 143.343179 218.513455 
L 143.459938 224.011636 
L 143.667509 220.001684 
L 143.991839 220.001684 
L 144.212384 221.467701 
L 144.536714 221.467701 
L 144.6405 222.912 
L 144.861044 217.536 
L 144.96483 222.912 
L 145.081589 222.912 
L 145.28916 218.998588 
L 145.405919 218.998588 
L 145.509705 224.335059 
L 145.613491 218.998588 
L 145.834035 220.439825 
L 146.158365 220.439825 
L 146.262151 221.860174 
L 146.37891 216.601043 
L 146.586481 221.860174 
L 146.70324 221.860174 
L 146.910811 218.038791 
L 147.02757 223.260086 
L 147.235142 218.038791 
L 147.455686 219.456 
L 147.780016 219.456 
L 147.883802 220.853106 
L 148.324891 220.853106 
L 148.428677 217.119549 
L 148.532462 222.230535 
L 148.649221 222.230535 
L 148.856793 217.119549 
L 148.973552 218.513455 
L 149.077337 223.588699 
L 149.181123 218.513455 
L 149.297882 218.513455 
L 149.505453 224.928 
L 149.725998 219.888 
L 149.946542 219.888 
L 150.154114 221.243586 
L 150.270872 221.243586 
L 150.374658 216.238345 
L 150.595203 222.580603 
L 150.698988 222.580603 
L 150.802774 217.609644 
L 151.023318 222.580603 
L 151.127104 218.962286 
L 151.347649 218.962286 
L 151.451434 223.899429 
L 151.568193 218.962286 
L 151.775765 220.296649 
L 152.100095 220.296649 
L 152.216854 221.613101 
L 152.424425 216.742228 
L 152.64497 221.613101 
L 152.748755 218.0736 
L 152.865514 218.0736 
L 153.073085 222.912 
L 153.189844 218.0736 
L 153.397416 219.387338 
L 153.514175 224.193695 
L 153.721746 219.387338 
L 153.838505 220.683789 
L 153.94229 215.909053 
L 154.046076 220.683789 
L 154.266621 220.683789 
L 154.370406 217.219765 
L 154.590951 221.963294 
L 154.694737 221.963294 
L 154.811495 217.219765 
L 154.915281 218.513455 
L 155.019067 223.226182 
L 155.239611 218.513455 
L 155.343397 218.513455 
L 155.563942 219.790452 
L 155.784486 219.790452 
L 155.888272 224.472774 
L 155.992057 221.051077 
L 156.212602 221.051077 
L 156.316388 216.398769 
L 156.536932 222.295643 
L 156.640718 222.295643 
L 156.861262 217.672968 
L 157.081807 223.524456 
L 157.289378 218.931038 
L 157.406137 218.931038 
L 157.509923 223.524456 
L 157.613708 220.173283 
L 158.054798 220.173283 
L 158.262369 221.4 
L 158.379128 216.864 
L 158.586699 221.4 
L 158.703458 222.611478 
L 158.911029 218.103652 
L 159.027788 222.611478 
L 159.131574 218.103652 
L 159.23536 219.328 
L 159.352118 219.328 
L 159.455904 223.808 
L 159.55969 219.328 
L 159.676449 219.328 
L 159.88402 220.537325 
L 160.20835 220.537325 
L 160.428895 217.306537 
L 160.53268 221.731902 
L 160.649439 221.731902 
L 160.753225 217.306537 
L 160.857011 218.513455 
L 161.077555 222.912 
L 161.181341 218.513455 
L 161.2981 218.513455 
L 161.401885 219.705831 
L 161.505671 224.07788 
L 161.726216 219.705831 
L 161.830001 219.705831 
L 161.94676 216.53806 
L 162.154331 220.883928 
L 162.27109 220.883928 
L 162.374876 216.53806 
L 162.478662 217.728 
L 162.699206 222.048 
L 162.802992 217.728 
L 163.023536 223.198296 
L 163.127322 218.903858 
L 163.347867 218.903858 
L 163.451652 223.198296 
L 163.672197 220.065882 
L 163.996527 220.065882 
L 164.100313 221.214316 
L 164.217072 221.214316 
L 164.320857 216.970105 
L 164.424643 221.214316 
L 164.541402 221.214316 
L 164.645188 222.349395 
L 164.748973 218.12986 
L 164.865732 218.12986 
L 165.073303 222.349395 
L 165.293848 219.276208 
L 165.397634 219.276208 
L 165.514393 223.471353 
L 165.618178 219.276208 
L 165.721964 220.409379 
L 166.163053 220.409379 
L 166.266839 221.5296 
L 166.370624 217.3824 
L 166.591169 221.5296 
L 166.694955 221.5296 
L 166.915499 218.513455 
L 167.019285 222.637091 
L 167.239829 218.513455 
L 167.343615 219.631729 
L 167.784704 219.631729 
L 167.992275 220.737438 
L 168.21282 220.737438 
L 168.316606 216.660135 
L 168.433364 217.776268 
L 168.640936 221.830793 
L 168.86148 217.776268 
L 168.965266 218.88 
L 169.082025 222.912 
L 169.289596 218.88 
L 169.406355 222.912 
L 169.613926 219.971536 
L 169.938257 219.971536 
L 170.158801 221.051077 
L 170.262587 221.051077 
L 170.379346 217.063385 
L 170.586917 222.11882 
L 170.703676 222.11882 
L 170.807462 218.152918 
L 170.911247 222.11882 
L 171.028006 222.11882 
L 171.235578 219.230609 
L 171.352336 219.230609 
L 171.456122 223.174957 
L 171.559908 219.230609 
L 171.780452 220.296649 
L 172.104782 220.296649 
L 172.208568 221.351226 
L 172.325327 217.44929 
L 172.532898 221.351226 
L 172.649657 221.351226 
L 172.857229 218.513455 
L 173.077773 222.394524 
L 173.181559 218.513455 
L 173.402103 219.566298 
L 173.726434 219.566298 
L 173.830219 220.608 
L 173.946978 216.768 
L 174.154549 220.608 
L 174.271308 220.608 
L 174.375094 217.818947 
L 174.47888 221.638737 
L 174.699424 221.638737 
L 174.80321 217.818947 
L 174.919969 218.85889 
L 175.023754 222.658681 
L 175.12754 218.85889 
L 175.348085 218.85889 
L 175.45187 219.888 
L 175.776201 219.888 
L 175.892959 223.668 
L 176.100531 220.906446 
L 176.21729 220.906446 
L 176.321075 217.146031 
L 176.54162 221.914392 
L 176.645406 221.914392 
L 176.749191 218.173361 
L 176.86595 218.173361 
L 177.073521 222.912 
L 177.294066 219.190154 
L 177.397852 222.912 
L 177.51461 219.190154 
L 177.722182 220.196571 
L 178.046512 220.196571 
L 178.267057 221.192772 
L 178.370842 217.508711 
L 178.591387 221.192772 
L 178.695172 222.178909 
L 178.915717 218.513455 
L 179.019503 222.178909 
L 179.136262 218.513455 
L 179.343833 219.508101 
L 179.460592 223.155136 
L 179.668163 219.508101 
L 179.888708 220.4928 
L 180.213038 220.4928 
L 180.316824 217.856955 
L 180.433582 217.856955 
L 180.641154 221.467701 
L 180.757913 217.856955 
L 180.861698 218.840079 
L 180.965484 222.43295 
L 181.082243 222.43295 
L 181.289814 218.840079 
L 181.510359 219.813517 
L 181.834689 219.813517 
L 181.938475 217.219765 
L 182.159019 220.777412 
L 182.379564 220.777412 
L 182.587135 221.731902 
L 182.80768 218.19161 
L 183.028224 222.677126 
L 183.235795 219.154019 
L 183.352554 219.154019 
L 183.45634 222.677126 
L 183.560126 220.10713 
L 184.001215 220.10713 
L 184.208786 221.051077 
L 184.325545 217.561846 
L 184.533116 221.051077 
L 184.649875 221.98599 
L 184.857447 218.513455 
L 185.077991 221.98599 
L 185.181777 219.456 
L 185.622866 219.456 
L 185.830437 220.389611 
L 186.154767 220.389611 
L 186.271526 221.314415 
L 186.375312 217.891019 
L 186.479098 221.314415 
L 186.595857 221.314415 
L 186.699642 217.891019 
L 186.803428 218.823211 
L 186.920187 218.823211 
L 187.023972 222.230535 
L 187.127758 218.823211 
L 187.244517 218.823211 
L 187.348303 219.746692 
L 187.452088 223.138093 
L 187.672633 219.746692 
L 187.776418 219.746692 
L 187.996963 220.661581 
L 188.217508 220.661581 
L 188.321293 217.285953 
L 188.425079 218.208 
L 188.645623 221.568 
L 188.749409 218.208 
L 188.866168 218.208 
L 188.969954 219.121548 
L 189.073739 222.466065 
L 189.294284 219.121548 
L 189.39807 222.466065 
L 189.618614 220.026716 
L 189.942944 220.026716 
L 190.04673 220.923616 
L 190.267275 220.923616 
L 190.37106 217.609644 
L 190.591605 221.812364 
L 190.69539 218.513455 
L 190.812149 218.513455 
L 191.019721 221.812364 
L 191.240265 219.409086 
L 191.344051 219.409086 
L 191.46081 222.693068 
L 191.564595 219.409086 
L 191.668381 220.296649 
L 192.10947 220.296649 
L 192.213256 221.176251 
L 192.317042 217.921722 
L 192.537586 221.176251 
L 192.641372 221.176251 
L 192.861916 218.808 
L 192.965702 222.048 
L 193.082461 222.048 
L 193.186246 218.808 
L 193.290032 219.6864 
L 193.731121 219.6864 
L 193.938693 220.557027 
L 194.263023 220.557027 
L 194.379782 218.222802 
L 194.587353 221.419982 
L 194.807898 218.222802 
L 194.911683 219.092211 
L 195.028442 222.275368 
L 195.236013 219.092211 
L 195.352772 219.092211 
L 195.560344 219.954026 
L 195.884674 219.954026 
L 196.105218 220.808348 
L 196.209004 220.808348 
L 196.325763 217.65287 
L 196.533334 221.655273 
L 196.650093 221.655273 
L 196.857665 218.513455 
L 197.078209 222.494897 
L 197.181995 219.366621 
L 197.298754 219.366621 
L 197.402539 222.494897 
L 197.506325 219.366621 
L 197.726869 220.212464 
L 198.0512 220.212464 
L 198.154985 221.051077 
L 198.271744 221.051077 
L 198.37553 217.949538 
L 198.479316 221.051077 
L 198.596074 221.051077 
L 198.803646 218.794213 
L 199.02419 221.882553 
L 199.127976 218.794213 
L 199.348521 219.631729 
L 199.452306 222.706983 
L 199.672851 219.631729 
L 199.776636 220.462177 
L 199.893395 217.399899 
L 200.100967 220.462177 
L 200.217726 220.462177 
L 200.425297 218.236235 
L 200.645841 221.285647 
L 200.749627 218.236235 
L 200.866386 219.065573 
L 201.073957 222.102226 
L 201.294502 219.065573 
L 201.398288 219.888 
L 201.839377 219.888 
L 201.943162 217.692149 
L 202.046948 220.703602 
L 202.371278 220.703602 
L 202.591823 221.512463 
L 202.695608 218.513455 
L 202.812367 218.513455 
L 203.019939 222.314667 
L 203.240483 219.328 
L 203.344269 219.328 
L 203.461028 222.314667 
L 203.668599 220.135869 
L 203.992929 220.135869 
L 204.213474 220.937143 
L 204.317259 217.974857 
L 204.537804 220.937143 
L 204.64159 221.731902 
L 204.862134 218.781659 
L 204.96592 221.731902 
L 205.082679 218.781659 
L 205.29025 219.581927 
L 205.61458 219.581927 
L 205.835125 220.375742 
L 206.159455 220.375742 
L 206.263241 221.163181 
L 206.38 218.248482 
L 206.587571 221.163181 
L 206.70433 218.248482 
L 206.911901 219.04128 
L 207.02866 221.94432 
L 207.236231 219.04128 
L 207.35299 219.827761 
L 207.456776 222.719235 
L 207.560562 219.827761 
L 207.781106 219.827761 
L 207.884892 217.728 
L 208.105436 220.608 
L 208.209222 220.608 
L 208.325981 217.728 
L 208.429767 218.513455 
L 208.533552 221.382071 
L 208.650311 221.382071 
L 208.754097 218.513455 
L 208.974641 222.150047 
L 209.182213 219.292724 
L 209.298972 219.292724 
L 209.402757 222.150047 
L 209.506543 220.065882 
L 209.947632 220.065882 
L 210.155203 220.833 
L 210.479534 220.833 
L 210.596292 221.594148 
L 210.803864 218.770179 
L 211.024408 221.594148 
L 211.128194 219.536372 
L 211.348739 219.536372 
L 211.452524 222.349395 
L 211.569283 219.536372 
L 211.776854 220.296649 
L 211.893613 217.494486 
L 212.101185 220.296649 
L 212.217944 221.051077 
L 212.321729 218.259692 
L 212.425515 221.051077 
L 212.646059 221.051077 
L 212.749845 219.019034 
L 212.866604 219.019034 
L 212.97039 221.799724 
L 213.074175 219.019034 
L 213.190934 219.019034 
L 213.398505 219.77258 
L 213.722836 219.77258 
L 213.94338 220.520395 
L 214.26771 220.520395 
L 214.371496 218.513455 
L 214.592041 221.262545 
L 214.695826 218.513455 
L 214.812585 218.513455 
L 214.916371 219.260377 
L 215.020157 221.999094 
L 215.240701 219.260377 
L 215.461246 222.730105 
L 215.668817 220.001684 
L 215.889362 220.001684 
L 215.993147 220.737438 
L 216.213692 220.737438 
L 216.317477 218.019236 
L 216.538022 221.467701 
L 216.641808 221.467701 
L 216.862352 218.759642 
L 216.966138 221.467701 
L 217.186682 219.494543 
L 217.290468 219.494543 
L 217.407227 222.192535 
L 217.511013 219.494543 
L 217.614798 220.224 
L 218.055887 220.224 
L 218.159673 220.948074 
L 218.263459 218.269993 
L 218.380218 218.269993 
L 218.587789 220.948074 
L 218.808333 218.998588 
L 218.912119 221.666824 
L 219.028878 221.666824 
L 219.132664 218.998588 
L 219.236449 219.721846 
L 219.353208 219.721846 
L 219.456994 222.380308 
L 219.56078 219.721846 
L 219.677538 219.721846 
L 219.781324 220.439825 
L 219.88511 217.791066 
L 220.105654 220.439825 
L 220.20944 220.439825 
L 220.326199 218.513455 
L 220.53377 221.152582 
L 220.650529 221.152582 
L 220.754315 218.513455 
L 220.8581 219.230609 
L 220.974859 221.860174 
L 221.182431 219.230609 
L 221.29919 219.230609 
L 221.506761 219.942585 
L 221.831091 219.942585 
L 221.94785 218.038791 
L 222.155421 220.649439 
L 222.27218 218.038791 
L 222.479752 221.351226 
L 222.59651 221.351226 
L 222.804082 218.749935 
L 223.024626 222.048 
L 223.128412 219.456 
L 223.348956 219.456 
L 223.452742 222.048 
L 223.673287 220.157039 
L 223.997617 220.157039 
L 224.101403 220.853106 
L 224.218161 220.853106 
L 224.321947 218.279489 
L 224.425733 220.853106 
L 224.542492 220.853106 
L 224.646277 221.544254 
L 224.750063 218.979731 
L 224.866822 218.979731 
L 224.970608 221.544254 
L 225.074393 218.979731 
L 225.294938 219.675042 
L 225.398723 222.230535 
L 225.619268 219.675042 
L 225.723054 220.365474 
L 226.164143 220.365474 
L 226.371714 218.513455 
L 226.592259 221.051077 
L 226.696044 218.513455 
L 226.812803 219.203122 
L 227.020375 221.731902 
L 227.240919 219.203122 
L 227.344705 219.888 
L 227.785794 219.888 
L 227.88958 218.056858 
L 227.993365 220.568138 
L 228.21391 220.568138 
L 228.317695 218.056858 
L 228.434454 218.740966 
L 228.642026 221.243586 
L 228.758784 218.740966 
L 228.966356 221.914392 
L 229.1869 219.420371 
L 229.290686 219.420371 
L 229.407445 221.914392 
L 229.615016 220.095123 
L 229.939346 220.095123 
L 230.159891 220.76527 
L 230.263677 218.288273 
L 230.484221 220.76527 
L 230.588007 221.430857 
L 230.808551 218.962286 
L 230.912337 221.430857 
L 231.029096 221.430857 
L 231.236667 219.631729 
L 231.560998 219.631729 
L 231.781542 220.296649 
L 232.105872 220.296649 
L 232.209658 220.957091 
L 232.326417 218.513455 
L 232.533988 220.957091 
L 232.650747 220.957091 
L 232.858318 219.177664 
L 232.975077 221.613101 
L 233.182649 219.177664 
L 233.403193 219.837431 
L 233.727523 219.837431 
L 233.831309 220.4928 
L 234.155639 220.4928 
L 234.272398 218.0736 
L 234.376184 218.732651 
L 234.479969 221.143814 
L 234.596728 221.143814 
L 234.8043 218.732651 
L 234.921059 219.387338 
L 235.024844 221.790517 
L 235.12863 219.387338 
L 235.245389 219.387338 
L 235.349174 221.790517 
L 235.45296 220.037703 
L 235.894049 220.037703 
L 236.101621 220.683789 
L 236.218379 220.683789 
L 236.322165 218.296421 
L 236.54271 221.325639 
L 236.750281 218.946098 
L 236.970826 221.325639 
L 237.074611 219.591529 
L 237.295156 219.591529 
L 237.398941 221.963294 
L 237.5157 219.591529 
L 237.723272 220.232756 
L 238.047602 220.232756 
L 238.164361 220.869818 
L 238.268146 218.513455 
L 238.371932 220.869818 
L 238.592477 220.869818 
L 238.696262 219.154019 
L 238.813021 219.154019 
L 239.020592 221.502757 
L 239.137351 219.154019 
L 239.344923 219.790452 
L 239.669253 219.790452 
L 239.786012 220.422791 
L 239.889797 218.089158 
L 239.993583 220.422791 
L 240.214128 220.422791 
L 240.317913 218.724923 
L 240.538458 221.051077 
L 240.642244 218.724923 
L 240.759002 218.724923 
L 240.862788 219.356626 
L 240.966574 221.675348 
L 241.187118 219.356626 
L 241.290904 219.356626 
L 241.511449 219.984306 
L 241.731993 219.984306 
L 241.835779 222.295643 
L 241.939564 220.608 
L 242.160109 220.608 
L 242.263895 218.304 
L 242.484439 221.227747 
L 242.588225 221.227747 
L 242.808769 218.931038 
L 243.029314 221.843584 
L 243.236885 219.55412 
L 243.353644 221.843584 
L 243.45743 219.55412 
L 243.561216 220.173283 
L 244.002305 220.173283 
L 244.209876 220.788564 
L 244.326635 218.513455 
L 244.534206 220.788564 
L 244.754751 219.132 
L 244.858536 219.132 
L 244.975295 221.4 
L 245.079081 219.132 
L 245.182867 219.746692 
L 245.299625 219.746692 
L 245.403411 222.007626 
L 245.507197 219.746692 
L 245.623956 219.746692 
L 245.727741 220.357565 
L 245.831527 218.103652 
L 246.052072 220.357565 
L 246.155857 220.357565 
L 246.376402 218.717721 
L 246.480187 220.964656 
L 246.596946 220.964656 
L 246.700732 218.717721 
L 246.804518 219.328 
L 247.025062 221.568 
L 247.128848 219.328 
L 247.245607 219.328 
L 247.453178 219.934523 
L 247.777508 219.934523 
L 247.894267 218.311067 
L 248.101839 220.537325 
L 248.322383 220.537325 
L 248.426169 221.13644 
L 248.542928 221.13644 
L 248.750499 218.916991 
L 248.971044 221.731902 
L 249.074829 219.51922 
L 249.295374 219.51922 
L 249.399159 221.731902 
L 249.619704 220.117787 
L 249.72349 220.117787 
L 249.840248 217.91183 
L 250.04782 220.712727 
L 250.164579 220.712727 
L 250.268364 218.513455 
L 250.37215 220.712727 
L 250.488909 220.712727 
L 250.592695 221.304073 
L 250.69648 219.111444 
L 250.813239 219.111444 
L 250.917025 221.304073 
L 251.02081 219.111444 
L 251.241355 219.705831 
L 251.565685 219.705831 
L 251.669471 220.296649 
L 252.11056 220.296649 
L 252.214346 220.883928 
L 252.318131 218.710994 
L 252.538676 220.883928 
L 252.642462 218.710994 
L 252.863006 219.301254 
L 252.966792 221.467701 
L 253.187336 219.301254 
L 253.291122 219.888 
L 253.407881 222.048 
L 253.615452 219.888 
L 253.732211 219.888 
L 253.835997 218.317674 
L 253.939782 220.471264 
L 254.160327 220.471264 
L 254.264113 218.317674 
L 254.380871 218.903858 
L 254.588443 221.051077 
L 254.705202 218.903858 
L 254.912773 221.627469 
L 255.133318 219.486584 
L 255.237103 219.486584 
L 255.353862 221.627469 
L 255.561433 220.065882 
L 255.885764 220.065882 
L 256.106308 220.641783 
L 256.210094 220.641783 
L 256.326853 218.513455 
L 256.534424 221.214316 
L 256.754969 219.092211 
L 256.858754 221.214316 
L 256.975513 221.214316 
L 257.183085 219.667592 
L 257.299843 219.667592 
L 257.403629 221.78351 
L 257.507415 219.667592 
L 257.727959 220.239628 
L 257.831745 218.12986 
L 258.05229 220.239628 
L 258.156075 220.808348 
L 258.272834 218.704696 
L 258.480405 220.808348 
L 258.597164 220.808348 
L 258.804736 219.276208 
L 258.921495 221.37378 
L 259.129066 219.276208 
L 259.34961 219.844427 
L 259.673941 219.844427 
L 259.777726 220.409379 
L 260.102056 220.409379 
L 260.218815 218.323862 
L 260.322601 218.891553 
L 260.426387 220.971095 
L 260.543146 220.971095 
L 260.750717 218.891553 
L 260.867476 219.456 
L 260.971261 221.5296 
L 261.075047 219.456 
L 261.295592 219.456 
L 261.399377 220.017231 
L 261.840466 220.017231 
L 262.048038 220.575273 
L 262.164797 220.575273 
L 262.268582 218.513455 
L 262.489127 221.130153 
L 262.592913 221.130153 
L 262.696698 219.074176 
L 262.813457 219.074176 
L 262.917243 221.130153 
L 263.021028 219.631729 
L 263.241573 219.631729 
L 263.345359 221.681898 
L 263.462118 219.631729 
L 263.669689 220.186141 
L 263.994019 220.186141 
L 264.110778 220.737438 
L 264.318349 218.698787 
L 264.538894 220.737438 
L 264.64268 219.252706 
L 264.759438 219.252706 
L 264.96701 221.285647 
L 265.083769 219.252706 
L 265.29134 219.803531 
L 265.408099 221.830793 
L 265.61567 219.803531 
L 265.732429 220.351287 
L 265.836215 218.329671 
L 265.94 220.351287 
L 266.160545 220.351287 
L 266.264331 218.88 
L 266.484875 220.896 
L 266.588661 220.896 
L 266.70542 218.88 
L 266.809205 219.42728 
L 266.912991 221.437695 
L 267.133536 219.42728 
L 267.237321 219.42728 
L 267.457866 219.971536 
L 267.782196 219.971536 
L 267.885982 218.513455 
L 268.106526 220.512793 
L 268.210312 218.513455 
L 268.430856 221.051077 
L 268.534642 221.051077 
L 268.755187 219.057231 
L 268.975731 221.586411 
L 269.183303 219.598027 
L 269.403847 219.598027 
L 269.507633 220.135869 
L 269.948722 220.135869 
L 270.156293 220.670779 
L 270.273052 218.693232 
L 270.480623 220.670779 
L 270.597382 221.202783 
L 270.804954 219.230609 
L 270.921712 221.202783 
L 271.025498 219.230609 
L 271.129284 219.765073 
L 271.246043 219.765073 
L 271.349828 221.731902 
L 271.453614 219.765073 
L 271.570373 219.765073 
L 271.777944 220.296649 
L 272.102274 220.296649 
L 272.322819 218.869132 
L 272.426605 220.825358 
L 272.543364 220.825358 
L 272.647149 218.869132 
L 272.750935 219.400258 
L 272.867694 219.400258 
L 272.971479 221.351226 
L 273.075265 219.400258 
L 273.192024 219.400258 
L 273.399595 219.928536 
L 273.723926 219.928536 
L 273.840684 218.513455 
L 274.048256 220.453989 
L 274.165015 220.453989 
L 274.2688 218.513455 
L 274.372586 219.04128 
L 274.593131 220.97664 
L 274.696916 219.04128 
L 274.917461 221.496511 
L 275.021246 219.566298 
L 275.241791 219.566298 
L 275.345577 221.496511 
L 275.566121 220.088531 
L 275.890451 220.088531 
L 275.994237 220.608 
L 276.110996 220.608 
L 276.214782 218.688 
L 276.318567 220.608 
L 276.435326 220.608 
L 276.539112 221.124728 
L 276.642897 219.209794 
L 276.759656 219.209794 
L 276.967228 221.124728 
L 277.187772 219.728842 
L 277.512102 219.728842 
L 277.615888 220.245165 
L 278.056977 220.245165 
L 278.160763 220.758785 
L 278.264549 218.85889 
L 278.485093 220.758785 
L 278.588879 218.85889 
L 278.809423 219.374789 
L 278.913209 221.269723 
L 279.133754 219.374789 
L 279.237539 219.888 
L 279.678628 219.888 
L 279.8862 220.398545 
L 280.106744 220.398545 
L 280.21053 218.513455 
L 280.327289 219.026238 
L 280.53486 220.906446 
L 280.755405 219.026238 
L 280.85919 219.536372 
L 280.975949 221.411721 
L 281.18352 219.536372 
L 281.300279 221.411721 
L 281.507851 220.043876 
L 281.832181 220.043876 
L 282.052725 220.548771 
L 282.156511 220.548771 
L 282.27327 218.683064 
L 282.480841 221.051077 
L 282.701386 219.190154 
L 282.805172 221.051077 
L 282.92193 221.051077 
L 283.129502 219.69465 
L 283.246261 219.69465 
L 283.350046 221.550813 
L 283.453832 219.69465 
L 283.674377 220.196571 
L 283.778162 218.345143 
L 283.998707 220.196571 
L 284.102492 220.695939 
L 284.323037 218.849221 
L 284.426823 220.695939 
L 284.543582 220.695939 
L 284.751153 219.350741 
L 284.971697 221.192772 
L 285.075483 219.350741 
L 285.296028 219.849722 
L 285.620358 219.849722 
L 285.724143 220.346182 
L 285.840902 218.513455 
L 286.048474 220.346182 
L 286.165233 220.346182 
L 286.269018 219.01203 
L 286.372804 220.840141 
L 286.489563 220.840141 
L 286.697134 219.01203 
L 286.813893 219.508101 
L 286.917679 221.331618 
L 287.021464 219.508101 
L 287.242009 219.508101 
L 287.345795 220.001684 
L 287.786884 220.001684 
L 287.994455 220.4928 
L 288.111214 220.4928 
L 288.215 218.6784 
L 288.435544 220.981466 
L 288.53933 220.981466 
L 288.643115 219.171591 
L 288.759874 219.171591 
L 288.967446 221.467701 
L 289.18799 219.662328 
L 289.291776 221.467701 
L 289.408535 219.662328 
L 289.616106 220.15063 
L 289.940436 220.15063 
L 290.160981 220.636515 
L 290.264767 218.840079 
L 290.485311 220.636515 
L 290.589097 219.328 
L 290.809641 219.328 
L 290.913427 221.12 
L 291.030186 219.328 
L 291.237757 219.813517 
L 291.354516 221.601103 
L 291.562087 219.813517 
L 291.678846 220.296649 
L 291.782632 218.513455 
L 291.886418 220.296649 
L 292.106962 220.296649 
L 292.210748 218.998588 
L 292.327507 218.998588 
L 292.535078 220.777412 
L 292.651837 218.998588 
L 292.755623 219.48135 
L 292.859408 221.255824 
L 293.079953 219.48135 
L 293.183738 219.48135 
L 293.404283 219.961756 
L 293.728613 219.961756 
L 293.832399 218.673985 
L 294.052943 220.439825 
L 294.273488 220.439825 
L 294.481059 220.915573 
L 294.701604 219.154019 
L 294.922148 221.389017 
L 295.12972 219.631729 
L 295.246479 219.631729 
L 295.350264 221.389017 
L 295.45405 220.10713 
L 295.895139 220.10713 
L 296.10271 220.580241 
L 296.219469 218.831422 
L 296.427041 220.580241 
L 296.543799 221.051077 
L 296.751371 219.306462 
L 296.86813 221.051077 
L 296.971915 219.306462 
L 297.075701 219.779223 
L 297.51679 219.779223 
L 297.724361 220.249722 
L 298.048692 220.249722 
L 298.269236 218.985852 
L 298.373022 220.717976 
L 298.489781 220.717976 
L 298.593566 218.985852 
L 298.697352 219.456 
L 298.814111 219.456 
L 298.917897 221.184 
L 299.021682 219.456 
L 299.138441 219.456 
L 299.242227 219.923914 
L 299.346013 221.64781 
L 299.566557 219.923914 
L 299.670343 219.923914 
L 299.787102 218.669801 
L 299.994673 220.389611 
L 300.111432 220.389611 
L 300.215218 218.669801 
L 300.319003 219.137362 
L 300.539548 220.853106 
L 300.643333 219.137362 
L 300.863878 221.314415 
L 300.967664 219.602717 
L 301.188208 219.602717 
L 301.291994 221.314415 
L 301.512538 220.065882 
L 301.836869 220.065882 
L 301.940654 220.526873 
L 302.057413 220.526873 
L 302.264984 218.823211 
L 302.485529 220.985705 
L 302.589315 219.286033 
L 302.706074 219.286033 
L 302.913645 220.985705 
L 303.134189 219.746692 
L 303.237975 219.746692 
L 303.354734 221.442393 
L 303.45852 219.746692 
L 303.562305 220.205203 
L 303.679064 220.205203 
L 303.78285 218.513455 
L 303.886636 220.205203 
L 304.003394 220.205203 
L 304.10718 220.661581 
L 304.210966 218.973767 
L 304.43151 220.661581 
L 304.535296 220.661581 
L 304.755841 219.431944 
L 304.859626 221.115842 
L 305.080171 219.431944 
L 305.183956 219.888 
L 305.625045 219.888 
L 305.832617 220.341949 
L 306.053161 220.341949 
L 306.156947 218.665829 
L 306.273706 219.121548 
L 306.481277 220.793806 
L 306.701822 219.121548 
L 306.805607 219.575172 
L 306.922366 221.243586 
L 307.129938 219.575172 
L 307.246697 221.243586 
L 307.454268 220.026716 
L 307.778598 220.026716 
L 307.999143 220.476192 
L 308.102928 220.476192 
L 308.219687 218.815414 
L 308.427259 220.923616 
L 308.544017 220.923616 
L 308.751589 219.26663 
L 308.868348 220.923616 
L 309.075919 219.71579 
L 309.192678 219.71579 
L 309.296464 221.369002 
L 309.400249 219.71579 
L 309.620794 220.162909 
L 309.945124 220.162909 
L 310.04891 220.608 
L 310.269454 218.962286 
L 310.37324 220.608 
L 310.489999 220.608 
L 310.69757 219.409086 
L 310.918115 221.051077 
L 311.0219 219.409086 
L 311.242445 219.853869 
L 311.566775 219.853869 
L 311.670561 220.296649 
L 311.78732 218.662054 
L 311.994891 220.296649 
L 312.11165 220.296649 
L 312.215435 219.106517 
L 312.319221 220.737438 
L 312.43598 220.737438 
L 312.643551 219.106517 
L 312.76031 219.548987 
L 312.864096 221.176251 
L 312.967882 219.548987 
L 313.188426 219.548987 
L 313.292212 219.989477 
L 313.733301 219.989477 
L 313.837087 218.808 
L 313.940872 220.428 
L 314.057631 220.428 
L 314.161417 218.808 
L 314.381961 220.86457 
L 314.485747 220.86457 
L 314.589533 219.248178 
L 314.706292 219.248178 
L 314.913863 221.2992 
L 315.134407 219.6864 
L 315.354952 219.6864 
L 315.562523 220.122678 
L 315.886854 220.122678 
L 316.107398 220.557027 
L 316.211184 218.951363 
L 316.431728 220.557027 
L 316.535514 219.387338 
L 316.756058 219.387338 
L 316.859844 220.989457 
L 316.976603 219.387338 
L 317.184174 219.821392 
L 317.300933 221.419982 
L 317.508505 219.821392 
L 317.625263 220.253538 
L 317.729049 218.658462 
L 317.832835 220.253538 
L 318.053379 220.253538 
L 318.157165 219.092211 
L 318.273924 219.092211 
L 318.481495 220.683789 
L 318.598254 219.092211 
L 318.70204 219.524061 
L 318.805825 221.112158 
L 318.922584 221.112158 
L 319.130156 219.524061 
L 319.3507 219.954026 
L 319.67503 219.954026 
L 319.778816 218.800941 
L 319.999361 220.382118 
L 320.103146 220.382118 
L 320.219905 218.800941 
L 320.323691 219.230609 
L 320.427477 220.808348 
L 320.648021 219.230609 
L 320.868566 221.232729 
L 321.076137 219.658412 
L 321.192896 219.658412 
L 321.296682 221.232729 
L 321.400467 220.084364 
L 321.621012 220.084364 
L 321.724797 218.513455 
L 321.945342 220.508475 
L 322.049128 220.508475 
L 322.165886 218.940959 
L 322.373458 220.508475 
L 322.490217 220.930759 
L 322.697788 219.366621 
L 322.918333 220.930759 
L 323.022118 219.790452 
L 323.463207 219.790452 
L 323.670779 220.212464 
L 323.995109 220.212464 
L 324.111868 220.632668 
L 324.215653 219.078578 
L 324.319439 220.632668 
L 324.436198 220.632668 
L 324.539984 219.078578 
L 324.643769 219.500308 
L 324.760528 219.500308 
L 324.864314 221.051077 
L 324.9681 219.500308 
L 325.084858 219.500308 
L 325.29243 219.920239 
L 325.61676 219.920239 
L 325.733519 218.794213 
L 325.94109 220.338383 
L 326.057849 220.338383 
L 326.161635 218.794213 
L 326.26542 219.21386 
L 326.485965 220.754752 
L 326.589751 219.21386 
L 326.706509 219.21386 
L 326.914081 219.631729 
L 327.134625 219.631729 
L 327.238411 221.169356 
L 327.458956 220.047831 
L 327.783286 220.047831 
L 327.887071 220.462177 
L 328.107616 220.462177 
L 328.211402 218.931038 
L 328.431946 220.874779 
L 328.535732 219.346863 
L 328.652491 219.346863 
L 328.860062 220.874779 
L 329.080607 219.760941 
L 329.184392 219.760941 
L 329.301151 221.285647 
L 329.404937 219.760941 
L 329.508723 220.173283 
L 329.625481 220.173283 
L 329.729267 218.651774 
L 329.833053 220.173283 
L 329.949812 220.173283 
L 330.053597 220.5839 
L 330.157383 219.065573 
L 330.377928 220.5839 
L 330.481713 220.5839 
L 330.702258 219.477645 
L 330.806043 220.992802 
L 331.026588 219.477645 
L 331.130374 219.888 
L 331.571463 219.888 
L 331.675248 220.296649 
L 331.779034 218.787792 
L 331.999579 220.296649 
L 332.103364 218.787792 
L 332.220123 219.197876 
L 332.427694 220.703602 
L 332.648239 219.197876 
L 332.752025 219.606261 
L 332.868784 221.10887 
L 333.076355 219.606261 
L 333.193114 219.606261 
L 333.400685 220.012959 
L 333.725015 220.012959 
L 333.94556 220.417979 
L 334.049346 220.417979 
L 334.166104 218.921567 
L 334.373676 220.821333 
L 334.490435 220.821333 
L 334.698006 219.328 
L 334.814765 220.821333 
L 335.022336 219.732764 
L 335.139095 219.732764 
L 335.242881 221.223031 
L 335.346666 219.732764 
L 335.567211 220.135869 
L 335.891541 220.135869 
L 335.995327 220.537325 
L 336.215871 219.053153 
L 336.319657 220.537325 
L 336.436416 220.537325 
L 336.643987 219.456 
L 336.864532 220.937143 
L 336.968318 219.456 
L 337.188862 219.857206 
L 337.513192 219.857206 
L 337.616978 220.25678 
L 337.733737 218.781659 
L 337.941308 220.25678 
L 338.058067 220.25678 
L 338.265638 219.182604 
L 338.486183 220.654734 
L 338.589969 219.182604 
L 338.706727 219.581927 
L 338.810513 221.051077 
L 338.914299 219.581927 
L 339.134843 219.581927 
L 339.238629 219.979636 
L 339.679718 219.979636 
L 339.783504 218.912516 
L 339.887289 220.375742 
L 340.004048 220.375742 
L 340.107834 218.912516 
L 340.328379 220.770254 
L 340.432164 220.770254 
L 340.53595 219.309972 
L 340.652709 219.309972 
L 340.86028 221.163181 
L 341.080825 219.705831 
L 341.301369 219.705831 
L 341.508941 220.100104 
L 341.833271 220.100104 
L 342.053815 220.4928 
L 342.157601 219.04128 
L 342.378145 220.4928 
L 342.481931 220.883928 
L 342.702476 219.435305 
L 342.806261 220.883928 
L 342.92302 219.435305 
L 343.130592 219.827761 
L 343.454922 219.827761 
L 343.675466 220.218656 
L 343.999797 220.218656 
L 344.103582 219.168 
L 344.220341 219.168 
L 344.427912 220.608 
L 344.544671 219.168 
L 344.752243 219.558653 
L 344.869002 220.995802 
L 345.076573 219.558653 
L 345.297117 219.947763 
L 345.621448 219.947763 
L 345.725233 218.903858 
L 345.945778 220.335337 
L 346.049564 220.335337 
L 346.166322 218.903858 
L 346.270108 219.292724 
L 346.373894 220.721386 
L 346.594438 219.292724 
L 346.814983 221.105917 
L 347.022554 219.680063 
L 347.139313 219.680063 
L 347.243099 221.105917 
L 347.346884 220.065882 
L 347.787973 220.065882 
L 347.995545 220.450192 
L 348.112304 219.029918 
L 348.319875 220.450192 
L 348.436634 220.833 
L 348.644205 219.4155 
L 348.86475 220.833 
L 348.968535 219.799579 
L 349.409625 219.799579 
L 349.617196 220.182163 
L 349.733955 218.770179 
L 349.941526 220.182163 
L 350.058285 220.563262 
L 350.162071 219.154019 
L 350.265856 220.563262 
L 350.382615 220.563262 
L 350.486401 219.154019 
L 350.590187 219.536372 
L 350.706945 219.536372 
L 350.810731 220.942884 
L 350.914517 219.536372 
L 351.031276 219.536372 
L 351.238847 219.917246 
L 351.563177 219.917246 
L 351.679936 218.895568 
L 351.887507 220.296649 
L 352.004266 220.296649 
L 352.108052 218.895568 
L 352.211838 219.276208 
L 352.432382 220.67459 
L 352.536168 219.276208 
L 352.652927 219.276208 
L 352.756712 219.655385 
L 352.860498 221.051077 
L 353.081043 219.655385 
L 353.184828 221.051077 
L 353.405373 220.033106 
L 353.729703 220.033106 
L 353.833489 220.409379 
L 354.054033 220.409379 
L 354.157819 219.019034 
L 354.378363 220.784214 
L 354.482149 219.396528 
L 354.598908 219.396528 
L 354.806479 220.784214 
L 355.027024 219.77258 
L 355.13081 219.77258 
L 355.247568 221.157618 
L 355.351354 219.77258 
L 355.45514 220.1472 
L 355.571899 220.1472 
L 355.675684 218.7648 
L 355.77947 220.1472 
L 355.896229 220.1472 
L 356.000015 220.520395 
L 356.1038 219.140624 
L 356.220559 219.140624 
L 356.42813 220.520395 
L 356.648675 219.515021 
L 356.752461 220.892175 
L 356.973005 219.515021 
L 357.076791 219.888 
L 357.51788 219.888 
L 357.621666 220.259569 
L 357.725451 218.887622 
L 357.945996 220.259569 
L 358.049781 220.259569 
L 358.16654 219.260377 
L 358.374112 220.629736 
L 358.594656 219.260377 
L 358.698442 219.631729 
L 358.815201 220.998508 
L 359.022772 219.631729 
L 359.139531 219.631729 
L 359.347102 220.001684 
L 359.671433 220.001684 
L 359.891977 220.370251 
L 359.995763 220.370251 
L 360.112522 219.0086 
L 360.320093 220.737438 
L 360.436852 220.737438 
L 360.644423 219.378337 
L 360.761182 220.737438 
L 360.968753 219.746692 
L 361.293084 219.746692 
L 361.513628 220.113672 
L 361.837958 220.113672 
L 361.941744 220.479285 
L 362.162289 219.127777 
L 362.266074 220.479285 
L 362.382833 220.479285 
L 362.590405 219.494543 
L 362.707163 219.494543 
L 362.810949 220.843539 
L 362.914735 219.494543 
L 363.135279 219.859948 
L 363.239065 221.206442 
L 363.459609 219.859948 
L 363.563395 220.224 
L 363.680154 218.88 
L 363.887725 220.224 
L 364.004484 220.224 
L 364.212056 219.24519 
L 364.4326 220.586706 
L 364.536386 219.24519 
L 364.653145 219.609033 
L 364.75693 220.948074 
L 364.860716 219.609033 
L 365.081261 219.609033 
L 365.185046 219.971536 
L 365.626135 219.971536 
L 365.729921 218.998588 
L 365.833707 220.332706 
L 365.950466 220.332706 
L 366.054251 218.998588 
L 366.274796 220.69255 
L 366.378581 220.69255 
L 366.482367 219.360881 
L 366.599126 219.360881 
L 366.806697 221.051077 
L 367.027242 219.721846 
L 367.131028 219.721846 
L 367.247786 221.051077 
L 367.455358 220.081492 
L 367.572117 220.081492 
L 367.675902 218.754691 
L 367.896447 220.439825 
L 368.000232 220.439825 
L 368.104018 219.115445 
L 368.324563 220.439825 
L 368.428348 220.796852 
L 368.648893 219.474885 
L 368.752679 220.796852 
L 368.869437 219.474885 
L 369.077009 219.833018 
L 369.401339 219.833018 
L 369.621884 220.189851 
L 369.946214 220.189851 
L 370.049999 219.230609 
L 370.166758 219.230609 
L 370.37433 220.545391 
L 370.491089 219.230609 
L 370.69866 219.587241 
L 370.815419 220.899646 
L 371.02299 219.587241 
L 371.243535 219.942585 
L 371.567865 219.942585 
L 371.671651 218.988973 
L 371.892195 220.296649 
L 371.995981 220.296649 
L 372.11274 218.988973 
L 372.216525 219.344115 
L 372.320311 220.649439 
L 372.43707 220.649439 
L 372.540856 219.344115 
L 372.7614 221.000962 
L 372.968971 219.697982 
L 373.08573 219.697982 
L 373.189516 221.000962 
L 373.293302 220.050581 
L 373.734391 220.050581 
L 373.941962 220.401918 
L 374.162507 219.103599 
L 374.383051 220.752 
L 374.590622 219.456 
L 374.811167 220.752 
L 374.914953 219.807144 
L 375.356042 219.807144 
L 375.563613 220.157039 
L 375.680372 218.865651 
L 375.887943 220.157039 
L 376.004702 220.505691 
L 376.108488 219.216597 
L 376.212274 220.505691 
L 376.329032 220.505691 
L 376.432818 219.216597 
L 376.536604 219.566298 
L 376.653363 219.566298 
L 376.757148 220.853106 
L 376.860934 219.566298 
L 376.977693 219.566298 
L 377.185264 219.914761 
L 377.509594 219.914761 
L 377.730139 220.261993 
L 377.950683 220.261993 
L 378.054469 218.979731 
L 378.158255 219.328 
L 378.378799 220.608 
L 378.482585 219.328 
L 378.599344 219.328 
L 378.70313 219.675042 
L 378.806915 220.952789 
L 379.02746 219.675042 
L 379.131245 220.952789 
L 379.35179 220.020865 
L 379.67612 220.020865 
L 379.779906 220.365474 
L 380.00045 220.365474 
L 380.104236 219.092211 
L 380.324781 220.708876 
L 380.428566 219.437842 
L 380.649111 219.437842 
L 380.752897 220.708876 
L 380.973441 219.782266 
L 381.077227 219.782266 
L 381.193986 221.051077 
L 381.297771 219.782266 
L 381.401557 220.125487 
L 381.518316 220.125487 
L 381.622102 218.85889 
L 381.725887 220.125487 
L 381.842646 220.125487 
L 381.946432 220.467512 
L 382.050217 219.203122 
L 382.166976 219.203122 
L 382.374548 220.467512 
L 382.595092 219.546157 
L 382.698878 220.808348 
L 382.815637 220.808348 
L 382.919422 219.546157 
L 383.023208 219.888 
L 383.464297 219.888 
L 383.568083 220.228659 
L 383.671868 218.970842 
L 383.892413 220.228659 
L 383.996199 220.228659 
L 384.112958 219.312498 
L 384.320529 220.568138 
L 384.541073 219.312498 
L 384.644859 219.652974 
L 384.761618 220.906446 
L 384.969189 219.652974 
L 385.085948 219.652974 
L 385.29352 219.992276 
L 385.514064 219.992276 
L 385.61785 218.740966 
L 385.734609 219.081253 
L 385.94218 220.33041 
L 386.058939 219.081253 
L 386.26651 220.667381 
L 386.383269 220.667381 
L 386.59084 219.420371 
L 386.707599 220.667381 
L 386.915171 219.758326 
L 387.239501 219.758326 
L 387.460045 220.095123 
L 387.784376 220.095123 
L 387.888161 220.430769 
L 388.00492 220.430769 
L 388.108706 219.190154 
L 388.212492 220.430769 
L 388.32925 220.430769 
L 388.536822 219.526771 
L 388.653581 219.526771 
L 388.757366 220.76527 
L 388.861152 219.526771 
L 389.081696 219.862242 
L 389.185482 221.09863 
L 389.406027 219.862242 
L 389.509812 220.196571 
L 389.626571 218.962286 
L 389.834143 220.196571 
L 389.950901 220.196571 
L 390.158473 219.297576 
L 390.379017 220.529766 
L 390.482803 219.297576 
L 390.599562 219.631729 
L 390.703348 220.861831 
L 390.807133 219.631729 
L 391.027678 219.631729 
L 391.131463 219.964751 
L 391.572553 219.964751 
L 391.676338 219.070703 
L 391.780124 220.296649 
L 391.896883 220.296649 
L 392.104454 219.070703 
L 392.221213 219.403548 
L 392.324999 220.627427 
L 392.428784 219.403548 
L 392.545543 219.403548 
L 392.753115 220.957091 
L 392.973659 219.735273 
L 393.077445 219.735273 
L 393.194204 220.957091 
L 393.401775 220.065882 
L 393.518534 220.065882 
L 393.622319 218.846118 
L 393.842864 220.395383 
L 393.94665 220.395383 
L 394.050435 219.177664 
L 394.27098 220.395383 
L 394.374766 220.723779 
L 394.59531 219.508101 
L 394.699096 220.723779 
L 394.815855 219.508101 
L 395.023426 219.837431 
L 395.347756 219.837431 
L 395.568301 220.165663 
L 395.892631 220.165663 
L 395.996417 219.2832 
L 396.113176 219.2832 
L 396.320747 220.4928 
L 396.437506 219.2832 
L 396.645077 219.611261 
L 396.761836 220.818849 
L 396.969407 219.611261 
L 397.189952 219.938233 
L 397.514282 219.938233 
L 397.618068 219.060537 
L 397.838612 220.264119 
L 397.942398 220.264119 
L 398.059157 219.060537 
L 398.162943 219.387338 
L 398.266728 220.588927 
L 398.383487 220.588927 
L 398.487273 219.387338 
L 398.487273 219.387338 
" style="fill:none;stroke:#1f77b4;stroke-linecap:square;stroke-width:1.5;"/>
   </g>
   <g id="patch_3">
    <path d="M 57.6 307.584 
L 57.6 41.472 
" style="fill:none;stroke:#000000;stroke-linecap:square;stroke-linejoin:miter;stroke-width:0.8;"/>
   </g>
   <g id="patch_4">
    <path d="M 414.72 307.584 
L 414.72 41.472 
" style="fill:none;stroke:#000000;stroke-linecap:square;stroke-linejoin:miter;stroke-width:0.8;"/>
   </g>
   <g id="patch_5">
    <path d="M 57.6 307.584 
L 414.72 307.584 
" style="fill:none;stroke:#000000;stroke-linecap:square;stroke-linejoin:miter;stroke-width:0.8;"/>
   </g>
   <g id="patch_6">
    <path d="M 57.6 41.472 
L 414.72 41.472 
" style="fill:none;stroke:#000000;stroke-linecap:square;stroke-linejoin:miter;stroke-width:0.8;"/>
   </g>
   <g id="text_18">
    <!-- Speed function of time -->
    <g transform="translate(167.024063 35.472)scale(0.12 -0.12)">
     <defs>
      <path id="DejaVuSerif-32"/>
      <path d="M 43.015625 63.71875 
L 38.28125 63.71875 
Q 38.234375 67.390625 36.203125 69.28125 
Q 34.1875 71.1875 30.328125 71.1875 
Q 25.296875 71.1875 23.234375 68.421875 
Q 21.1875 65.671875 21.1875 58.59375 
L 21.1875 51.90625 
L 35.6875 51.90625 
L 35.6875 46.6875 
L 21.1875 46.6875 
L 21.1875 5.171875 
L 32.71875 5.171875 
L 32.71875 0 
L 3.609375 0 
L 3.609375 5.171875 
L 12.203125 5.171875 
L 12.203125 46.6875 
L 3.609375 46.6875 
L 3.609375 51.90625 
L 12.203125 51.90625 
L 12.203125 58.40625 
Q 12.203125 67.09375 16.71875 71.53125 
Q 21.234375 75.984375 29.984375 75.984375 
Q 33.25 75.984375 36.515625 75.390625 
Q 39.796875 74.8125 43.015625 73.578125 
z
" id="DejaVuSerif-102"/>
      <path d="M 35.40625 51.90625 
L 52.203125 51.90625 
L 52.203125 5.171875 
L 60.6875 5.171875 
L 60.6875 0 
L 43.21875 0 
L 43.21875 9.1875 
Q 40.71875 4 36.765625 1.28125 
Q 32.8125 -1.421875 27.59375 -1.421875 
Q 18.953125 -1.421875 14.875 3.484375 
Q 10.796875 8.40625 10.796875 18.890625 
L 10.796875 46.6875 
L 2.6875 46.6875 
L 2.6875 51.90625 
L 19.828125 51.90625 
L 19.828125 21.6875 
Q 19.828125 12.203125 22.140625 8.6875 
Q 24.46875 5.171875 30.421875 5.171875 
Q 36.671875 5.171875 39.9375 9.765625 
Q 43.21875 14.359375 43.21875 23.09375 
L 43.21875 46.6875 
L 35.40625 46.6875 
z
" id="DejaVuSerif-117"/>
      <path d="M 4.109375 0 
L 4.109375 5.171875 
L 12.203125 5.171875 
L 12.203125 46.6875 
L 3.609375 46.6875 
L 3.609375 51.90625 
L 21.1875 51.90625 
L 21.1875 42.671875 
Q 23.6875 47.953125 27.65625 50.640625 
Q 31.640625 53.328125 36.921875 53.328125 
Q 45.515625 53.328125 49.5625 48.390625 
Q 53.609375 43.453125 53.609375 33.015625 
L 53.609375 5.171875 
L 61.625 5.171875 
L 61.625 0 
L 36.8125 0 
L 36.8125 5.171875 
L 44.578125 5.171875 
L 44.578125 30.171875 
Q 44.578125 39.703125 42.234375 43.234375 
Q 39.890625 46.78125 33.984375 46.78125 
Q 27.734375 46.78125 24.453125 42.203125 
Q 21.1875 37.640625 21.1875 28.90625 
L 21.1875 5.171875 
L 29 5.171875 
L 29 0 
z
" id="DejaVuSerif-110"/>
      <path d="M 51.421875 15.578125 
Q 49.515625 7.28125 44.09375 2.921875 
Q 38.671875 -1.421875 30.078125 -1.421875 
Q 18.75 -1.421875 11.859375 6.078125 
Q 4.984375 13.578125 4.984375 25.984375 
Q 4.984375 38.421875 11.859375 45.875 
Q 18.75 53.328125 30.078125 53.328125 
Q 35.015625 53.328125 39.890625 52.171875 
Q 44.78125 51.03125 49.703125 48.6875 
L 49.703125 35.40625 
L 44.484375 35.40625 
Q 43.453125 42.234375 40.015625 45.359375 
Q 36.578125 48.484375 30.171875 48.484375 
Q 22.90625 48.484375 19.1875 42.84375 
Q 15.484375 37.203125 15.484375 25.984375 
Q 15.484375 14.75 19.171875 9.078125 
Q 22.859375 3.421875 30.171875 3.421875 
Q 35.984375 3.421875 39.453125 6.4375 
Q 42.921875 9.46875 44.1875 15.578125 
z
" id="DejaVuSerif-99"/>
      <path d="M 10.796875 46.6875 
L 2.875 46.6875 
L 2.875 51.90625 
L 10.796875 51.90625 
L 10.796875 68.015625 
L 19.828125 68.015625 
L 19.828125 51.90625 
L 36.71875 51.90625 
L 36.71875 46.6875 
L 19.828125 46.6875 
L 19.828125 13.71875 
Q 19.828125 7.125 21.09375 5.265625 
Q 22.359375 3.421875 25.78125 3.421875 
Q 29.296875 3.421875 30.90625 5.484375 
Q 32.515625 7.5625 32.625 12.203125 
L 39.40625 12.203125 
Q 39.015625 5.125 35.546875 1.84375 
Q 32.078125 -1.421875 25 -1.421875 
Q 17.234375 -1.421875 14.015625 2.015625 
Q 10.796875 5.46875 10.796875 13.71875 
z
" id="DejaVuSerif-116"/>
      <path d="M 30.078125 3.421875 
Q 37.3125 3.421875 40.984375 9.125 
Q 44.671875 14.84375 44.671875 25.984375 
Q 44.671875 37.109375 40.984375 42.796875 
Q 37.3125 48.484375 30.078125 48.484375 
Q 22.859375 48.484375 19.171875 42.796875 
Q 15.484375 37.109375 15.484375 25.984375 
Q 15.484375 14.84375 19.1875 9.125 
Q 22.90625 3.421875 30.078125 3.421875 
z
M 30.078125 -1.421875 
Q 18.75 -1.421875 11.859375 6.078125 
Q 4.984375 13.578125 4.984375 25.984375 
Q 4.984375 38.375 11.84375 45.84375 
Q 18.703125 53.328125 30.078125 53.328125 
Q 41.453125 53.328125 48.3125 45.84375 
Q 55.171875 38.375 55.171875 25.984375 
Q 55.171875 13.578125 48.3125 6.078125 
Q 41.453125 -1.421875 30.078125 -1.421875 
z
" id="DejaVuSerif-111"/>
     </defs>
     <use xlink:href="#DejaVuSerif-83"/>
     <use x="68.505859" xlink:href="#DejaVuSerif-112"/>
     <use x="132.519531" xlink:href="#DejaVuSerif-101"/>
     <use x="191.699219" xlink:href="#DejaVuSerif-101"/>
     <use x="250.878906" xlink:href="#DejaVuSerif-100"/>
     <use x="314.892578" xlink:href="#DejaVuSerif-32"/>
     <use x="346.679688" xlink:href="#DejaVuSerif-102"/>
     <use x="383.691406" xlink:href="#DejaVuSerif-117"/>
     <use x="448.095703" xlink:href="#DejaVuSerif-110"/>
     <use x="512.5" xlink:href="#DejaVuSerif-99"/>
     <use x="568.505859" xlink:href="#DejaVuSerif-116"/>
     <use x="608.691406" xlink:href="#DejaVuSerif-105"/>
     <use x="640.673828" xlink:href="#DejaVuSerif-111"/>
     <use x="700.878906" xlink:href="#DejaVuSerif-110"/>
     <use x="765.283203" xlink:href="#DejaVuSerif-32"/>
     <use x="797.070312" xlink:href="#DejaVuSerif-111"/>
     <use x="857.275391" xlink:href="#DejaVuSerif-102"/>
     <use x="894.287109" xlink:href="#DejaVuSerif-32"/>
     <use x="926.074219" xlink:href="#DejaVuSerif-116"/>
     <use x="966.259766" xlink:href="#DejaVuSerif-105"/>
     <use x="998.242188" xlink:href="#DejaVuSerif-109"/>
     <use x="1093.066406" xlink:href="#DejaVuSerif-101"/>
    </g>
   </g>
  </g>
 </g>
 <defs>
  <clipPath id="p599fabd3e5">
   <rect height="266.112" width="357.12" x="57.6" y="41.472"/>
  </clipPath>
 </defs>
</svg>
