<?xml version="1.0" encoding="utf-8" standalone="no"?>
<!DOCTYPE svg PUBLIC "-//W3C//DTD SVG 1.1//EN"
  "http://www.w3.org/Graphics/SVG/1.1/DTD/svg11.dtd">
<!-- Created with matplotlib (https://matplotlib.org/) -->
<svg height="345.6pt" version="1.1" viewBox="0 0 460.8 345.6" width="460.8pt" xmlns="http://www.w3.org/2000/svg" xmlns:xlink="http://www.w3.org/1999/xlink">
 <metadata>
  <rdf:RDF xmlns:cc="http://creativecommons.org/ns#" xmlns:dc="http://purl.org/dc/elements/1.1/" xmlns:rdf="http://www.w3.org/1999/02/22-rdf-syntax-ns#">
   <cc:Work>
    <dc:type rdf:resource="http://purl.org/dc/dcmitype/StillImage"/>
    <dc:date>2022-12-08T09:40:04.222276</dc:date>
    <dc:format>image/svg+xml</dc:format>
    <dc:creator>
     <cc:Agent>
      <dc:title>Matplotlib v3.3.4, https://matplotlib.org/</dc:title>
     </cc:Agent>
    </dc:creator>
   </cc:Work>
  </rdf:RDF>
 </metadata>
 <defs>
  <style type="text/css">*{stroke-linecap:butt;stroke-linejoin:round;}</style>
 </defs>
 <g id="figure_1">
  <g id="patch_1">
   <path d="M 0 345.6 
L 460.8 345.6 
L 460.8 0 
L 0 0 
z
" style="fill:#ffffff;"/>
  </g>
  <g id="axes_1">
   <g id="patch_2">
    <path d="M 57.6 307.584 
L 414.72 307.584 
L 414.72 41.472 
L 57.6 41.472 
z
" style="fill:#ffffff;"/>
   </g>
   <g id="matplotlib.axis_1">
    <g id="xtick_1">
     <g id="line2d_1">
      <defs>
       <path d="M 0 0 
L 0 3.5 
" id="mb661560b6e" style="stroke:#000000;stroke-width:0.8;"/>
      </defs>
      <g>
       <use style="stroke:#000000;stroke-width:0.8;" x="78.366439" xlink:href="#mb661560b6e" y="307.584"/>
      </g>
     </g>
     <g id="text_1">
      <!-- 200 -->
      <g transform="translate(68.822689 322.182437)scale(0.1 -0.1)">
       <defs>
        <path d="M 12.796875 55.515625 
L 7.328125 55.515625 
L 7.328125 68.5 
Q 12.546875 71.296875 17.84375 72.75 
Q 23.140625 74.21875 28.21875 74.21875 
Q 39.59375 74.21875 46.1875 68.703125 
Q 52.78125 63.1875 52.78125 53.71875 
Q 52.78125 43.015625 37.84375 28.125 
Q 36.671875 27 36.078125 26.421875 
L 17.671875 8.015625 
L 48.09375 8.015625 
L 48.09375 17 
L 53.8125 17 
L 53.8125 0 
L 6.78125 0 
L 6.78125 5.328125 
L 28.90625 27.390625 
Q 36.234375 34.71875 39.359375 40.84375 
Q 42.484375 46.96875 42.484375 53.71875 
Q 42.484375 61.078125 38.640625 65.234375 
Q 34.8125 69.390625 28.078125 69.390625 
Q 21.09375 69.390625 17.28125 65.921875 
Q 13.484375 62.453125 12.796875 55.515625 
z
" id="DejaVuSerif-50"/>
        <path d="M 31.78125 3.421875 
Q 39.265625 3.421875 42.96875 11.625 
Q 46.6875 19.828125 46.6875 36.375 
Q 46.6875 52.984375 42.96875 61.1875 
Q 39.265625 69.390625 31.78125 69.390625 
Q 24.3125 69.390625 20.59375 61.1875 
Q 16.890625 52.984375 16.890625 36.375 
Q 16.890625 19.828125 20.59375 11.625 
Q 24.3125 3.421875 31.78125 3.421875 
z
M 31.78125 -1.421875 
Q 19.921875 -1.421875 13.25 8.53125 
Q 6.59375 18.5 6.59375 36.375 
Q 6.59375 54.296875 13.25 64.25 
Q 19.921875 74.21875 31.78125 74.21875 
Q 43.703125 74.21875 50.34375 64.25 
Q 56.984375 54.296875 56.984375 36.375 
Q 56.984375 18.5 50.34375 8.53125 
Q 43.703125 -1.421875 31.78125 -1.421875 
z
" id="DejaVuSerif-48"/>
       </defs>
       <use xlink:href="#DejaVuSerif-50"/>
       <use x="63.623047" xlink:href="#DejaVuSerif-48"/>
       <use x="127.246094" xlink:href="#DejaVuSerif-48"/>
      </g>
     </g>
    </g>
    <g id="xtick_2">
     <g id="line2d_2">
      <g>
       <use style="stroke:#000000;stroke-width:0.8;" x="118.381543" xlink:href="#mb661560b6e" y="307.584"/>
      </g>
     </g>
     <g id="text_2">
      <!-- 300 -->
      <g transform="translate(108.837793 322.182437)scale(0.1 -0.1)">
       <defs>
        <path d="M 9.71875 69.828125 
Q 15.4375 71.96875 20.671875 73.09375 
Q 25.921875 74.21875 30.515625 74.21875 
Q 41.21875 74.21875 47.21875 69.59375 
Q 53.21875 64.984375 53.21875 56.78125 
Q 53.21875 50.203125 49.0625 45.78125 
Q 44.921875 41.359375 37.3125 39.796875 
Q 46.296875 38.53125 51.25 33.28125 
Q 56.203125 28.03125 56.203125 19.671875 
Q 56.203125 9.46875 49.34375 4.015625 
Q 42.484375 -1.421875 29.59375 -1.421875 
Q 23.875 -1.421875 18.421875 -0.1875 
Q 12.984375 1.03125 7.625 3.515625 
L 7.625 17.671875 
L 13.09375 17.671875 
Q 13.578125 10.640625 17.828125 7.03125 
Q 22.078125 3.421875 29.78125 3.421875 
Q 37.25 3.421875 41.578125 7.734375 
Q 45.90625 12.0625 45.90625 19.578125 
Q 45.90625 28.171875 41.453125 32.59375 
Q 37.015625 37.015625 28.421875 37.015625 
L 23.78125 37.015625 
L 23.78125 42 
L 26.21875 42 
Q 34.765625 42 39.03125 45.53125 
Q 43.3125 49.078125 43.3125 56.203125 
Q 43.3125 62.59375 39.796875 65.984375 
Q 36.28125 69.390625 29.6875 69.390625 
Q 23.09375 69.390625 19.453125 66.265625 
Q 15.828125 63.140625 15.1875 56.984375 
L 9.71875 56.984375 
z
" id="DejaVuSerif-51"/>
       </defs>
       <use xlink:href="#DejaVuSerif-51"/>
       <use x="63.623047" xlink:href="#DejaVuSerif-48"/>
       <use x="127.246094" xlink:href="#DejaVuSerif-48"/>
      </g>
     </g>
    </g>
    <g id="xtick_3">
     <g id="line2d_3">
      <g>
       <use style="stroke:#000000;stroke-width:0.8;" x="158.396647" xlink:href="#mb661560b6e" y="307.584"/>
      </g>
     </g>
     <g id="text_3">
      <!-- 400 -->
      <g transform="translate(148.852897 322.182437)scale(0.1 -0.1)">
       <defs>
        <path d="M 34.90625 24.703125 
L 34.90625 63.484375 
L 10.015625 24.703125 
z
M 56.390625 0 
L 23.1875 0 
L 23.1875 5.171875 
L 34.90625 5.171875 
L 34.90625 19.484375 
L 3.078125 19.484375 
L 3.078125 24.8125 
L 35.015625 74.21875 
L 44.671875 74.21875 
L 44.671875 24.703125 
L 58.59375 24.703125 
L 58.59375 19.484375 
L 44.671875 19.484375 
L 44.671875 5.171875 
L 56.390625 5.171875 
z
" id="DejaVuSerif-52"/>
       </defs>
       <use xlink:href="#DejaVuSerif-52"/>
       <use x="63.623047" xlink:href="#DejaVuSerif-48"/>
       <use x="127.246094" xlink:href="#DejaVuSerif-48"/>
      </g>
     </g>
    </g>
    <g id="xtick_4">
     <g id="line2d_4">
      <g>
       <use style="stroke:#000000;stroke-width:0.8;" x="198.411751" xlink:href="#mb661560b6e" y="307.584"/>
      </g>
     </g>
     <g id="text_4">
      <!-- 500 -->
      <g transform="translate(188.868001 322.182437)scale(0.1 -0.1)">
       <defs>
        <path d="M 50.296875 72.90625 
L 50.296875 64.890625 
L 16.890625 64.890625 
L 16.890625 44 
Q 19.4375 45.75 22.828125 46.625 
Q 26.21875 47.515625 30.421875 47.515625 
Q 42.234375 47.515625 49.0625 40.96875 
Q 55.90625 34.421875 55.90625 23.09375 
Q 55.90625 11.53125 49 5.046875 
Q 42.09375 -1.421875 29.59375 -1.421875 
Q 24.5625 -1.421875 19.28125 -0.1875 
Q 14.015625 1.03125 8.5 3.515625 
L 8.5 17.671875 
L 14.015625 17.671875 
Q 14.453125 10.75 18.421875 7.078125 
Q 22.40625 3.421875 29.59375 3.421875 
Q 37.3125 3.421875 41.453125 8.5 
Q 45.609375 13.578125 45.609375 23.09375 
Q 45.609375 32.5625 41.484375 37.609375 
Q 37.359375 42.671875 29.59375 42.671875 
Q 25.203125 42.671875 21.84375 41.109375 
Q 18.5 39.546875 15.921875 36.28125 
L 11.71875 36.28125 
L 11.71875 72.90625 
z
" id="DejaVuSerif-53"/>
       </defs>
       <use xlink:href="#DejaVuSerif-53"/>
       <use x="63.623047" xlink:href="#DejaVuSerif-48"/>
       <use x="127.246094" xlink:href="#DejaVuSerif-48"/>
      </g>
     </g>
    </g>
    <g id="xtick_5">
     <g id="line2d_5">
      <g>
       <use style="stroke:#000000;stroke-width:0.8;" x="238.426856" xlink:href="#mb661560b6e" y="307.584"/>
      </g>
     </g>
     <g id="text_5">
      <!-- 600 -->
      <g transform="translate(228.883106 322.182437)scale(0.1 -0.1)">
       <defs>
        <path d="M 32.71875 3.421875 
Q 39.59375 3.421875 43.296875 8.46875 
Q 47.015625 13.53125 47.015625 23 
Q 47.015625 32.46875 43.296875 37.515625 
Q 39.59375 42.578125 32.71875 42.578125 
Q 25.734375 42.578125 22.0625 37.6875 
Q 18.40625 32.8125 18.40625 23.578125 
Q 18.40625 13.875 22.109375 8.640625 
Q 25.828125 3.421875 32.71875 3.421875 
z
M 16.796875 40.140625 
Q 20.125 43.796875 24.3125 45.59375 
Q 28.515625 47.40625 33.796875 47.40625 
Q 44.671875 47.40625 51 40.859375 
Q 57.328125 34.328125 57.328125 23 
Q 57.328125 11.921875 50.515625 5.25 
Q 43.703125 -1.421875 32.328125 -1.421875 
Q 19.96875 -1.421875 13.328125 7.78125 
Q 6.6875 17 6.6875 34.078125 
Q 6.6875 53.21875 14.546875 63.71875 
Q 22.40625 74.21875 36.71875 74.21875 
Q 40.578125 74.21875 44.828125 73.484375 
Q 49.078125 72.75 53.515625 71.296875 
L 53.515625 59.28125 
L 48 59.28125 
Q 47.40625 64.203125 44.234375 66.796875 
Q 41.0625 69.390625 35.6875 69.390625 
Q 26.21875 69.390625 21.578125 62.203125 
Q 16.9375 55.03125 16.796875 40.140625 
z
" id="DejaVuSerif-54"/>
       </defs>
       <use xlink:href="#DejaVuSerif-54"/>
       <use x="63.623047" xlink:href="#DejaVuSerif-48"/>
       <use x="127.246094" xlink:href="#DejaVuSerif-48"/>
      </g>
     </g>
    </g>
    <g id="xtick_6">
     <g id="line2d_6">
      <g>
       <use style="stroke:#000000;stroke-width:0.8;" x="278.44196" xlink:href="#mb661560b6e" y="307.584"/>
      </g>
     </g>
     <g id="text_6">
      <!-- 700 -->
      <g transform="translate(268.89821 322.182437)scale(0.1 -0.1)">
       <defs>
        <path d="M 56.390625 67.921875 
L 27.875 0 
L 20.609375 0 
L 47.796875 64.890625 
L 14.109375 64.890625 
L 14.109375 55.90625 
L 8.40625 55.90625 
L 8.40625 72.90625 
L 56.390625 72.90625 
z
" id="DejaVuSerif-55"/>
       </defs>
       <use xlink:href="#DejaVuSerif-55"/>
       <use x="63.623047" xlink:href="#DejaVuSerif-48"/>
       <use x="127.246094" xlink:href="#DejaVuSerif-48"/>
      </g>
     </g>
    </g>
    <g id="xtick_7">
     <g id="line2d_7">
      <g>
       <use style="stroke:#000000;stroke-width:0.8;" x="318.457064" xlink:href="#mb661560b6e" y="307.584"/>
      </g>
     </g>
     <g id="text_7">
      <!-- 800 -->
      <g transform="translate(308.913314 322.182437)scale(0.1 -0.1)">
       <defs>
        <path d="M 46.578125 19.921875 
Q 46.578125 27.734375 42.6875 32.046875 
Q 38.8125 36.375 31.78125 36.375 
Q 24.75 36.375 20.875 32.046875 
Q 17 27.734375 17 19.921875 
Q 17 12.0625 20.875 7.734375 
Q 24.75 3.421875 31.78125 3.421875 
Q 38.8125 3.421875 42.6875 7.734375 
Q 46.578125 12.0625 46.578125 19.921875 
z
M 44.578125 55.328125 
Q 44.578125 61.96875 41.203125 65.671875 
Q 37.84375 69.390625 31.78125 69.390625 
Q 25.78125 69.390625 22.390625 65.671875 
Q 19 61.96875 19 55.328125 
Q 19 48.640625 22.390625 44.921875 
Q 25.78125 41.21875 31.78125 41.21875 
Q 37.84375 41.21875 41.203125 44.921875 
Q 44.578125 48.640625 44.578125 55.328125 
z
M 39.3125 38.8125 
Q 47.609375 37.703125 52.25 32.6875 
Q 56.890625 27.6875 56.890625 19.921875 
Q 56.890625 9.671875 50.390625 4.125 
Q 43.890625 -1.421875 31.78125 -1.421875 
Q 19.734375 -1.421875 13.203125 4.125 
Q 6.6875 9.671875 6.6875 19.921875 
Q 6.6875 27.6875 11.328125 32.6875 
Q 15.96875 37.703125 24.3125 38.8125 
Q 16.9375 40.140625 13 44.40625 
Q 9.078125 48.6875 9.078125 55.328125 
Q 9.078125 64.109375 15.125 69.15625 
Q 21.1875 74.21875 31.78125 74.21875 
Q 42.390625 74.21875 48.4375 69.15625 
Q 54.5 64.109375 54.5 55.328125 
Q 54.5 48.6875 50.5625 44.40625 
Q 46.625 40.140625 39.3125 38.8125 
z
" id="DejaVuSerif-56"/>
       </defs>
       <use xlink:href="#DejaVuSerif-56"/>
       <use x="63.623047" xlink:href="#DejaVuSerif-48"/>
       <use x="127.246094" xlink:href="#DejaVuSerif-48"/>
      </g>
     </g>
    </g>
    <g id="xtick_8">
     <g id="line2d_8">
      <g>
       <use style="stroke:#000000;stroke-width:0.8;" x="358.472168" xlink:href="#mb661560b6e" y="307.584"/>
      </g>
     </g>
     <g id="text_8">
      <!-- 900 -->
      <g transform="translate(348.928418 322.182437)scale(0.1 -0.1)">
       <defs>
        <path d="M 46.78125 32.671875 
Q 43.5 29 39.25 27.1875 
Q 35.015625 25.390625 29.6875 25.390625 
Q 18.84375 25.390625 12.5625 31.9375 
Q 6.296875 38.484375 6.296875 49.8125 
Q 6.296875 60.890625 13.109375 67.546875 
Q 19.921875 74.21875 31.296875 74.21875 
Q 43.65625 74.21875 50.265625 65.015625 
Q 56.890625 55.8125 56.890625 38.71875 
Q 56.890625 19.578125 49.015625 9.078125 
Q 41.15625 -1.421875 26.90625 -1.421875 
Q 23.046875 -1.421875 18.796875 -0.6875 
Q 14.546875 0.046875 10.109375 1.515625 
L 10.109375 13.625 
L 15.578125 13.625 
Q 16.21875 8.6875 19.390625 6.046875 
Q 22.5625 3.421875 27.875 3.421875 
Q 37.359375 3.421875 41.984375 10.5625 
Q 46.625 17.71875 46.78125 32.671875 
z
M 30.90625 69.390625 
Q 23.96875 69.390625 20.28125 64.328125 
Q 16.609375 59.28125 16.609375 49.8125 
Q 16.609375 40.328125 20.28125 35.25 
Q 23.96875 30.171875 30.90625 30.171875 
Q 37.84375 30.171875 41.53125 35.078125 
Q 45.21875 39.984375 45.21875 49.21875 
Q 45.21875 58.9375 41.5 64.15625 
Q 37.796875 69.390625 30.90625 69.390625 
z
" id="DejaVuSerif-57"/>
       </defs>
       <use xlink:href="#DejaVuSerif-57"/>
       <use x="63.623047" xlink:href="#DejaVuSerif-48"/>
       <use x="127.246094" xlink:href="#DejaVuSerif-48"/>
      </g>
     </g>
    </g>
    <g id="xtick_9">
     <g id="line2d_9">
      <g>
       <use style="stroke:#000000;stroke-width:0.8;" x="398.487273" xlink:href="#mb661560b6e" y="307.584"/>
      </g>
     </g>
     <g id="text_9">
      <!-- 1000 -->
      <g transform="translate(385.762273 322.182437)scale(0.1 -0.1)">
       <defs>
        <path d="M 14.203125 0 
L 14.203125 5.171875 
L 26.90625 5.171875 
L 26.90625 65.828125 
L 12.203125 56.296875 
L 12.203125 62.703125 
L 29.984375 74.21875 
L 36.71875 74.21875 
L 36.71875 5.171875 
L 49.421875 5.171875 
L 49.421875 0 
z
" id="DejaVuSerif-49"/>
       </defs>
       <use xlink:href="#DejaVuSerif-49"/>
       <use x="63.623047" xlink:href="#DejaVuSerif-48"/>
       <use x="127.246094" xlink:href="#DejaVuSerif-48"/>
       <use x="190.869141" xlink:href="#DejaVuSerif-48"/>
      </g>
     </g>
    </g>
    <g id="text_10">
     <!-- Time -->
     <g transform="translate(223.524844 335.860562)scale(0.1 -0.1)">
      <defs>
       <path d="M 19.09375 0 
L 19.09375 5.171875 
L 28.421875 5.171875 
L 28.421875 67.09375 
L 6.984375 67.09375 
L 6.984375 55.71875 
L 0.984375 55.71875 
L 0.984375 72.90625 
L 65.71875 72.90625 
L 65.71875 55.71875 
L 59.71875 55.71875 
L 59.71875 67.09375 
L 38.28125 67.09375 
L 38.28125 5.171875 
L 47.609375 5.171875 
L 47.609375 0 
z
" id="DejaVuSerif-84"/>
       <path d="M 9.71875 68.015625 
Q 9.71875 70.265625 11.34375 71.921875 
Q 12.984375 73.578125 15.28125 73.578125 
Q 17.53125 73.578125 19.15625 71.921875 
Q 20.796875 70.265625 20.796875 68.015625 
Q 20.796875 65.71875 19.1875 64.109375 
Q 17.578125 62.5 15.28125 62.5 
Q 12.984375 62.5 11.34375 64.109375 
Q 9.71875 65.71875 9.71875 68.015625 
z
M 21.1875 5.171875 
L 29.6875 5.171875 
L 29.6875 0 
L 3.609375 0 
L 3.609375 5.171875 
L 12.203125 5.171875 
L 12.203125 46.6875 
L 3.609375 46.6875 
L 3.609375 51.90625 
L 21.1875 51.90625 
z
" id="DejaVuSerif-105"/>
       <path d="M 51.8125 41.796875 
Q 54.390625 47.515625 58.421875 50.421875 
Q 62.453125 53.328125 67.828125 53.328125 
Q 75.984375 53.328125 79.984375 48.265625 
Q 83.984375 43.21875 83.984375 33.015625 
L 83.984375 5.171875 
L 92.09375 5.171875 
L 92.09375 0 
L 67.1875 0 
L 67.1875 5.171875 
L 75 5.171875 
L 75 31.984375 
Q 75 39.9375 72.65625 43.3125 
Q 70.3125 46.6875 64.890625 46.6875 
Q 58.890625 46.6875 55.734375 42.140625 
Q 52.59375 37.59375 52.59375 28.90625 
L 52.59375 5.171875 
L 60.40625 5.171875 
L 60.40625 0 
L 35.796875 0 
L 35.796875 5.171875 
L 43.609375 5.171875 
L 43.609375 32.328125 
Q 43.609375 40.09375 41.265625 43.390625 
Q 38.921875 46.6875 33.5 46.6875 
Q 27.484375 46.6875 24.328125 42.140625 
Q 21.1875 37.59375 21.1875 28.90625 
L 21.1875 5.171875 
L 29 5.171875 
L 29 0 
L 4.109375 0 
L 4.109375 5.171875 
L 12.203125 5.171875 
L 12.203125 46.78125 
L 3.609375 46.78125 
L 3.609375 51.90625 
L 21.1875 51.90625 
L 21.1875 42.671875 
Q 23.6875 47.859375 27.53125 50.59375 
Q 31.390625 53.328125 36.28125 53.328125 
Q 42.328125 53.328125 46.375 50.3125 
Q 50.4375 47.3125 51.8125 41.796875 
z
" id="DejaVuSerif-109"/>
       <path d="M 54.203125 25 
L 15.484375 25 
L 15.484375 24.609375 
Q 15.484375 14.109375 19.4375 8.765625 
Q 23.390625 3.421875 31.109375 3.421875 
Q 37.015625 3.421875 40.796875 6.515625 
Q 44.578125 9.625 46.09375 15.71875 
L 53.328125 15.71875 
Q 51.171875 7.171875 45.375 2.875 
Q 39.59375 -1.421875 30.171875 -1.421875 
Q 18.796875 -1.421875 11.890625 6.078125 
Q 4.984375 13.578125 4.984375 25.984375 
Q 4.984375 38.28125 11.765625 45.796875 
Q 18.5625 53.328125 29.59375 53.328125 
Q 41.359375 53.328125 47.65625 46.0625 
Q 53.953125 38.8125 54.203125 25 
z
M 43.609375 30.171875 
Q 43.3125 39.265625 39.765625 43.875 
Q 36.234375 48.484375 29.59375 48.484375 
Q 23.390625 48.484375 19.828125 43.84375 
Q 16.265625 39.203125 15.484375 30.171875 
z
" id="DejaVuSerif-101"/>
      </defs>
      <use xlink:href="#DejaVuSerif-84"/>
      <use x="66.699219" xlink:href="#DejaVuSerif-105"/>
      <use x="98.681641" xlink:href="#DejaVuSerif-109"/>
      <use x="193.505859" xlink:href="#DejaVuSerif-101"/>
     </g>
    </g>
   </g>
   <g id="matplotlib.axis_2">
    <g id="ytick_1">
     <g id="line2d_10">
      <defs>
       <path d="M 0 0 
L -3.5 0 
" id="m325f64757c" style="stroke:#000000;stroke-width:0.8;"/>
      </defs>
      <g>
       <use style="stroke:#000000;stroke-width:0.8;" x="57.6" xlink:href="#m325f64757c" y="295.488"/>
      </g>
     </g>
     <g id="text_11">
      <!-- 0.0 -->
      <g transform="translate(34.696875 299.287219)scale(0.1 -0.1)">
       <defs>
        <path d="M 9.421875 5.078125 
Q 9.421875 7.8125 11.28125 9.71875 
Q 13.140625 11.625 15.921875 11.625 
Q 18.609375 11.625 20.5 9.71875 
Q 22.40625 7.8125 22.40625 5.078125 
Q 22.40625 2.390625 20.5 0.484375 
Q 18.609375 -1.421875 15.921875 -1.421875 
Q 13.140625 -1.421875 11.28125 0.453125 
Q 9.421875 2.34375 9.421875 5.078125 
z
" id="DejaVuSerif-46"/>
       </defs>
       <use xlink:href="#DejaVuSerif-48"/>
       <use x="63.623047" xlink:href="#DejaVuSerif-46"/>
       <use x="95.410156" xlink:href="#DejaVuSerif-48"/>
      </g>
     </g>
    </g>
    <g id="ytick_2">
     <g id="line2d_11">
      <g>
       <use style="stroke:#000000;stroke-width:0.8;" x="57.6" xlink:href="#m325f64757c" y="263.232"/>
      </g>
     </g>
     <g id="text_12">
      <!-- 0.2 -->
      <g transform="translate(34.696875 267.031219)scale(0.1 -0.1)">
       <use xlink:href="#DejaVuSerif-48"/>
       <use x="63.623047" xlink:href="#DejaVuSerif-46"/>
       <use x="95.410156" xlink:href="#DejaVuSerif-50"/>
      </g>
     </g>
    </g>
    <g id="ytick_3">
     <g id="line2d_12">
      <g>
       <use style="stroke:#000000;stroke-width:0.8;" x="57.6" xlink:href="#m325f64757c" y="230.976"/>
      </g>
     </g>
     <g id="text_13">
      <!-- 0.4 -->
      <g transform="translate(34.696875 234.775219)scale(0.1 -0.1)">
       <use xlink:href="#DejaVuSerif-48"/>
       <use x="63.623047" xlink:href="#DejaVuSerif-46"/>
       <use x="95.410156" xlink:href="#DejaVuSerif-52"/>
      </g>
     </g>
    </g>
    <g id="ytick_4">
     <g id="line2d_13">
      <g>
       <use style="stroke:#000000;stroke-width:0.8;" x="57.6" xlink:href="#m325f64757c" y="198.72"/>
      </g>
     </g>
     <g id="text_14">
      <!-- 0.6 -->
      <g transform="translate(34.696875 202.519219)scale(0.1 -0.1)">
       <use xlink:href="#DejaVuSerif-48"/>
       <use x="63.623047" xlink:href="#DejaVuSerif-46"/>
       <use x="95.410156" xlink:href="#DejaVuSerif-54"/>
      </g>
     </g>
    </g>
    <g id="ytick_5">
     <g id="line2d_14">
      <g>
       <use style="stroke:#000000;stroke-width:0.8;" x="57.6" xlink:href="#m325f64757c" y="166.464"/>
      </g>
     </g>
     <g id="text_15">
      <!-- 0.8 -->
      <g transform="translate(34.696875 170.263219)scale(0.1 -0.1)">
       <use xlink:href="#DejaVuSerif-48"/>
       <use x="63.623047" xlink:href="#DejaVuSerif-46"/>
       <use x="95.410156" xlink:href="#DejaVuSerif-56"/>
      </g>
     </g>
    </g>
    <g id="ytick_6">
     <g id="line2d_15">
      <g>
       <use style="stroke:#000000;stroke-width:0.8;" x="57.6" xlink:href="#m325f64757c" y="134.208"/>
      </g>
     </g>
     <g id="text_16">
      <!-- 1.0 -->
      <g transform="translate(34.696875 138.007219)scale(0.1 -0.1)">
       <use xlink:href="#DejaVuSerif-49"/>
       <use x="63.623047" xlink:href="#DejaVuSerif-46"/>
       <use x="95.410156" xlink:href="#DejaVuSerif-48"/>
      </g>
     </g>
    </g>
    <g id="ytick_7">
     <g id="line2d_16">
      <g>
       <use style="stroke:#000000;stroke-width:0.8;" x="57.6" xlink:href="#m325f64757c" y="101.952"/>
      </g>
     </g>
     <g id="text_17">
      <!-- 1.2 -->
      <g transform="translate(34.696875 105.751219)scale(0.1 -0.1)">
       <use xlink:href="#DejaVuSerif-49"/>
       <use x="63.623047" xlink:href="#DejaVuSerif-46"/>
       <use x="95.410156" xlink:href="#DejaVuSerif-50"/>
      </g>
     </g>
    </g>
    <g id="ytick_8">
     <g id="line2d_17">
      <g>
       <use style="stroke:#000000;stroke-width:0.8;" x="57.6" xlink:href="#m325f64757c" y="69.696"/>
      </g>
     </g>
     <g id="text_18">
      <!-- 1.4 -->
      <g transform="translate(34.696875 73.495219)scale(0.1 -0.1)">
       <use xlink:href="#DejaVuSerif-49"/>
       <use x="63.623047" xlink:href="#DejaVuSerif-46"/>
       <use x="95.410156" xlink:href="#DejaVuSerif-52"/>
      </g>
     </g>
    </g>
    <g id="text_19">
     <!-- Speed -->
     <g transform="translate(28.617187 190.273313)rotate(-90)scale(0.1 -0.1)">
      <defs>
       <path d="M 9.28125 3.515625 
L 9.28125 20.125 
L 14.890625 20.0625 
Q 15.140625 11.765625 19.703125 7.78125 
Q 24.265625 3.8125 33.59375 3.8125 
Q 42.28125 3.8125 46.84375 7.25 
Q 51.421875 10.6875 51.421875 17.28125 
Q 51.421875 22.5625 48.65625 25.390625 
Q 45.90625 28.21875 37.015625 30.90625 
L 27.390625 33.796875 
Q 16.9375 36.96875 12.671875 41.703125 
Q 8.40625 46.4375 8.40625 54.6875 
Q 8.40625 63.96875 14.984375 69.09375 
Q 21.578125 74.21875 33.5 74.21875 
Q 38.578125 74.21875 44.625 73.109375 
Q 50.6875 72.015625 57.515625 69.921875 
L 57.515625 54.390625 
L 52 54.390625 
Q 51.171875 62.109375 46.84375 65.546875 
Q 42.53125 69 33.6875 69 
Q 25.984375 69 21.953125 65.84375 
Q 17.921875 62.703125 17.921875 56.6875 
Q 17.921875 51.46875 20.9375 48.484375 
Q 23.96875 45.515625 33.796875 42.578125 
L 42.828125 39.890625 
Q 52.734375 36.921875 56.953125 32.296875 
Q 61.1875 27.6875 61.1875 19.921875 
Q 61.1875 9.328125 54.390625 3.953125 
Q 47.609375 -1.421875 34.1875 -1.421875 
Q 28.171875 -1.421875 21.9375 -0.1875 
Q 15.71875 1.03125 9.28125 3.515625 
z
" id="DejaVuSerif-83"/>
       <path d="M 20.515625 28.515625 
L 20.515625 23.390625 
Q 20.515625 14.015625 24.09375 9.109375 
Q 27.6875 4.203125 34.515625 4.203125 
Q 41.40625 4.203125 44.9375 9.71875 
Q 48.484375 15.234375 48.484375 25.984375 
Q 48.484375 36.765625 44.9375 42.234375 
Q 41.40625 47.703125 34.515625 47.703125 
Q 27.6875 47.703125 24.09375 42.765625 
Q 20.515625 37.84375 20.515625 28.515625 
z
M 11.53125 46.6875 
L 2.875 46.6875 
L 2.875 51.90625 
L 20.515625 51.90625 
L 20.515625 43.796875 
Q 23.140625 48.6875 27.21875 51 
Q 31.296875 53.328125 37.3125 53.328125 
Q 46.875 53.328125 52.921875 45.75 
Q 58.984375 38.1875 58.984375 25.984375 
Q 58.984375 13.765625 52.921875 6.171875 
Q 46.875 -1.421875 37.3125 -1.421875 
Q 31.296875 -1.421875 27.21875 0.890625 
Q 23.140625 3.21875 20.515625 8.109375 
L 20.515625 -15.578125 
L 29 -15.578125 
L 29 -20.796875 
L 2.875 -20.796875 
L 2.875 -15.578125 
L 11.53125 -15.578125 
z
" id="DejaVuSerif-112"/>
       <path d="M 52.484375 5.171875 
L 61.078125 5.171875 
L 61.078125 0 
L 43.5 0 
L 43.5 8.109375 
Q 40.875 3.21875 36.796875 0.890625 
Q 32.71875 -1.421875 26.703125 -1.421875 
Q 17.140625 -1.421875 11.0625 6.171875 
Q 4.984375 13.765625 4.984375 25.984375 
Q 4.984375 38.1875 11.03125 45.75 
Q 17.09375 53.328125 26.703125 53.328125 
Q 32.71875 53.328125 36.796875 51 
Q 40.875 48.6875 43.5 43.796875 
L 43.5 70.796875 
L 35.015625 70.796875 
L 35.015625 75.984375 
L 52.484375 75.984375 
z
M 43.5 23.390625 
L 43.5 28.515625 
Q 43.5 37.84375 39.90625 42.765625 
Q 36.328125 47.703125 29.5 47.703125 
Q 22.5625 47.703125 19.015625 42.234375 
Q 15.484375 36.765625 15.484375 25.984375 
Q 15.484375 15.234375 19.015625 9.71875 
Q 22.5625 4.203125 29.5 4.203125 
Q 36.328125 4.203125 39.90625 9.109375 
Q 43.5 14.015625 43.5 23.390625 
z
" id="DejaVuSerif-100"/>
      </defs>
      <use xlink:href="#DejaVuSerif-83"/>
      <use x="68.505859" xlink:href="#DejaVuSerif-112"/>
      <use x="132.519531" xlink:href="#DejaVuSerif-101"/>
      <use x="191.699219" xlink:href="#DejaVuSerif-101"/>
      <use x="250.878906" xlink:href="#DejaVuSerif-100"/>
     </g>
    </g>
   </g>
   <g id="line2d_18">
    <path clip-path="url(#p0f7a54dd67)" d="M 73.832727 295.488 
L 73.964777 53.568 
L 74.096827 53.568 
L 74.164853 101.952 
L 74.296902 295.488 
L 74.432954 295.488 
L 74.565004 134.208 
L 74.765079 134.208 
L 74.897129 157.248 
L 75.03318 295.488 
L 75.097205 295.488 
L 75.233256 174.528 
L 75.433331 174.528 
L 75.565381 187.968 
L 75.765457 187.968 
L 75.897507 198.72 
L 76.097582 198.72 
L 76.233634 207.517091 
L 76.365683 207.517091 
L 76.433709 119.546182 
L 76.497733 134.208 
L 76.633785 214.848 
L 76.765834 214.848 
L 76.897884 221.051077 
L 76.96591 221.051077 
L 77.09796 146.614154 
L 77.234011 157.248 
L 77.298035 157.248 
L 77.434087 226.368 
L 77.566137 230.976 
L 77.698186 166.464 
L 77.766212 166.464 
L 77.898262 174.528 
L 78.034313 174.528 
L 78.166363 238.565647 
L 78.234389 238.565647 
L 78.366439 181.643294 
L 78.434464 181.643294 
L 78.566514 187.968 
L 78.76659 187.968 
L 78.898639 193.626947 
L 79.098715 193.626947 
L 79.234766 198.72 
L 79.434842 198.72 
L 79.498866 203.328 
L 79.634917 157.248 
L 79.766967 203.328 
L 79.899017 207.517091 
L 80.099093 207.517091 
L 80.235144 169.26887 
L 80.367194 169.26887 
L 80.499244 214.848 
L 80.767345 214.848 
L 80.899395 179.3664 
L 81.09947 179.3664 
L 81.235522 183.832615 
L 81.367571 221.051077 
L 81.435597 183.832615 
L 81.499621 187.968 
L 81.767722 187.968 
L 81.899772 191.808 
L 82.099848 191.808 
L 82.235899 195.383172 
L 82.435975 195.383172 
L 82.568025 198.72 
L 82.63605 198.72 
L 82.7681 166.464 
L 82.836126 170.626065 
L 82.968176 201.841548 
L 83.100225 201.841548 
L 83.236277 204.768 
L 83.368327 174.528 
L 83.436352 174.528 
L 83.568402 178.193455 
L 83.700452 207.517091 
L 83.768478 207.517091 
L 83.900528 210.104471 
L 84.036579 181.643294 
L 84.100603 181.643294 
L 84.236654 184.896 
L 84.300679 184.896 
L 84.43673 212.544 
L 84.500754 214.848 
L 84.636805 187.968 
L 84.768855 187.968 
L 84.900905 190.873946 
L 85.100981 190.873946 
L 85.169006 168.161684 
L 85.301056 193.626947 
L 85.437108 193.626947 
L 85.569157 196.238769 
L 85.769233 196.238769 
L 85.901283 174.528 
L 86.037334 198.72 
L 86.101358 198.72 
L 86.23741 201.080195 
L 86.369459 201.080195 
L 86.437485 177.478244 
L 86.501509 180.288 
L 86.701585 180.288 
L 86.837636 205.471256 
L 87.037712 205.471256 
L 87.101736 182.96707 
L 87.169762 185.524364 
L 87.437863 185.524364 
L 87.501887 187.968 
L 87.637938 209.472 
L 87.769988 187.968 
L 87.902038 190.305391 
L 88.102113 190.305391 
L 88.238165 192.543319 
L 88.43824 192.543319 
L 88.57029 194.688 
L 88.770366 194.688 
L 88.902416 196.745143 
L 89.038467 176.996571 
L 89.170517 198.72 
L 89.438618 198.72 
L 89.502642 200.617412 
L 89.638693 181.643294 
L 89.770743 181.643294 
L 89.838769 183.832615 
L 89.970819 202.441846 
L 90.102869 202.441846 
L 90.23892 185.939321 
L 90.438996 185.939321 
L 90.571045 187.968 
L 90.639071 187.968 
L 90.771121 205.888 
L 90.903171 189.922909 
L 91.103246 189.922909 
L 91.239298 191.808 
L 91.439373 191.808 
L 91.571423 193.626947 
L 91.771499 193.626947 
L 91.903548 195.383172 
L 92.0396 195.383172 
L 92.103624 178.699034 
L 92.17165 180.678508 
L 92.303699 197.079864 
L 92.439751 197.079864 
L 92.571801 198.72 
L 92.639826 198.72 
L 92.771876 182.592 
L 92.903926 184.442754 
L 92.971952 184.442754 
L 93.104001 200.306361 
L 93.240053 201.841548 
L 93.372103 186.233806 
L 93.440128 186.233806 
L 93.572178 187.968 
L 93.704228 187.968 
L 93.840279 204.768 
L 93.904304 204.768 
L 94.040355 189.648 
L 94.104379 189.648 
L 94.24043 191.276308 
L 94.440506 191.276308 
L 94.572556 192.855273 
L 94.772631 192.855273 
L 94.904681 194.387104 
L 95.104757 194.387104 
L 95.240808 181.643294 
L 95.304832 181.643294 
L 95.440884 195.873882 
L 95.572933 197.317565 
L 95.773009 197.317565 
L 95.905059 184.896 
L 96.04111 184.896 
L 96.17316 200.08293 
L 96.373236 200.08293 
L 96.441261 186.453634 
L 96.505285 187.968 
L 96.773387 187.968 
L 96.905436 189.440877 
L 96.973462 202.696767 
L 97.105512 189.440877 
L 97.241563 190.873946 
L 97.441639 190.873946 
L 97.573689 192.2688 
L 97.773764 192.2688 
L 97.905814 193.626947 
L 98.10589 193.626947 
L 98.241941 194.949818 
L 98.373991 182.382545 
L 98.506041 196.238769 
L 98.774142 196.238769 
L 98.842167 197.495089 
L 98.974217 185.245975 
L 99.106267 185.245975 
L 99.242318 186.624 
L 99.374368 198.72 
L 99.442394 198.72 
L 99.506418 199.914667 
L 99.64247 187.968 
L 99.774519 187.968 
L 99.906569 189.27922 
L 99.974595 189.27922 
L 100.106645 201.080195 
L 100.242696 190.558843 
L 100.442772 190.558843 
L 100.574821 191.808 
L 100.774897 191.808 
L 100.906947 193.027765 
L 101.107022 193.027765 
L 101.243074 194.219163 
L 101.375124 194.219163 
L 101.443149 182.96707 
L 101.507173 184.260414 
L 101.575199 184.260414 
L 101.707249 195.383172 
L 101.775275 195.383172 
L 101.907324 196.520727 
L 101.97535 196.520727 
L 102.1074 185.524364 
L 102.243451 186.75991 
L 102.307475 186.75991 
L 102.443527 197.632719 
L 102.575577 198.72 
L 102.707627 187.968 
L 102.775652 187.968 
L 102.907702 189.149538 
L 103.043753 189.149538 
L 103.175803 200.823652 
L 103.243829 200.823652 
L 103.375879 190.305391 
L 103.443904 190.305391 
L 103.575954 191.436387 
L 103.77603 191.436387 
L 103.844055 192.543319 
L 103.90808 182.248851 
L 104.044131 192.543319 
L 104.108155 192.543319 
L 104.244207 193.626947 
L 104.444282 193.626947 
L 104.576332 184.608 
L 104.644358 184.608 
L 104.776407 194.688 
L 104.908457 195.727175 
L 105.108533 195.727175 
L 105.244584 186.870857 
L 105.376634 186.870857 
L 105.508684 197.742545 
L 105.708759 197.742545 
L 105.776785 187.968 
L 105.844811 189.0432 
L 106.10891 189.0432 
L 106.244962 190.097109 
L 106.308986 199.678099 
L 106.445037 190.097109 
L 106.577087 191.130353 
L 106.777163 191.130353 
L 106.909212 192.143534 
L 107.109288 192.143534 
L 107.245339 193.137231 
L 107.445415 193.137231 
L 107.577465 194.112 
L 107.709515 184.896 
L 107.845566 195.068377 
L 108.109666 195.068377 
L 108.177691 196.006879 
L 108.309741 186.96314 
L 108.445792 186.96314 
L 108.577842 187.968 
L 108.709892 196.928 
L 108.777918 196.928 
L 108.845944 197.83222 
L 108.977993 188.954422 
L 109.110043 188.954422 
L 109.246095 189.922909 
L 109.310119 189.922909 
L 109.44617 198.72 
L 109.57822 190.873946 
L 109.778295 190.873946 
L 109.910345 191.808 
L 110.110421 191.808 
L 110.246472 192.725522 
L 110.446548 192.725522 
L 110.578598 193.626947 
L 110.710647 193.626947 
L 110.778673 185.138526 
L 110.846699 186.098087 
L 110.910723 186.098087 
L 111.046774 194.512696 
L 111.110798 194.512696 
L 111.24685 195.383172 
L 111.310874 195.383172 
L 111.446925 187.041103 
L 111.578975 187.968 
L 111.647001 187.968 
L 111.779051 196.238769 
L 111.9111 197.079864 
L 112.047152 188.879186 
L 112.111176 188.879186 
L 112.247227 189.775059 
L 112.379277 189.775059 
L 112.511327 198.72 
L 112.579353 198.72 
L 112.711403 190.656 
L 112.779428 190.656 
L 112.911478 191.52238 
L 113.111554 191.52238 
L 113.179579 192.374557 
L 113.247605 184.442754 
L 113.379655 192.374557 
L 113.44768 192.374557 
L 113.57973 193.212878 
L 113.779806 193.212878 
L 113.911856 186.233806 
L 113.979881 186.233806 
L 114.111931 194.037677 
L 114.247983 194.84928 
L 114.448058 194.84928 
L 114.580108 187.968 
L 114.712158 187.968 
L 114.848209 196.434142 
L 115.048285 196.434142 
L 115.112309 188.814614 
L 115.180335 189.648 
L 115.448436 189.648 
L 115.580486 190.468465 
L 115.648511 197.96986 
L 115.780561 190.468465 
L 115.912611 191.276308 
L 116.112686 191.276308 
L 116.248738 192.071817 
L 116.312762 184.684947 
L 116.448813 192.071817 
L 116.580863 192.855273 
L 116.780939 192.855273 
L 116.912989 193.626947 
L 117.04904 186.351158 
L 117.18109 194.387104 
L 117.449191 194.387104 
L 117.513215 195.136 
L 117.649266 187.968 
L 117.781316 187.968 
L 117.913366 188.758588 
L 118.049417 195.873882 
L 118.113442 195.873882 
L 118.249493 189.537635 
L 118.449569 189.537635 
L 118.581618 190.305391 
L 118.649644 190.305391 
L 118.781694 197.317565 
L 118.913744 191.062101 
L 119.113819 191.062101 
L 119.249871 191.808 
L 119.449946 191.808 
L 119.581996 192.543319 
L 119.782072 192.543319 
L 119.914121 193.268282 
L 119.982147 193.268282 
L 120.114197 186.453634 
L 120.250248 187.216112 
L 120.382298 193.983105 
L 120.450324 193.983105 
L 120.582374 194.688 
L 120.650399 194.688 
L 120.782449 187.968 
L 120.914499 188.709517 
L 120.982525 188.709517 
L 121.114574 195.383172 
L 121.250626 196.068822 
L 121.382676 189.440877 
L 121.450701 189.440877 
L 121.582751 190.162286 
L 121.714801 190.162286 
L 121.850852 197.412324 
L 121.982902 190.873946 
L 122.114952 190.873946 
L 122.251003 191.576054 
L 122.451079 191.576054 
L 122.583129 185.8176 
L 122.715179 192.2688 
L 122.783204 192.2688 
L 122.915254 192.952371 
L 123.11533 192.952371 
L 123.251381 187.260632 
L 123.315405 187.260632 
L 123.451457 193.626947 
L 123.583506 194.292706 
L 123.715556 194.292706 
L 123.783582 187.968 
L 123.851608 188.666182 
L 124.051683 188.666182 
L 124.183733 195.598452 
L 124.315783 195.598452 
L 124.451834 189.355355 
L 124.583884 190.035692 
L 124.78396 190.035692 
L 124.916009 190.707363 
L 124.984035 196.87093 
L 125.116085 190.707363 
L 125.252136 191.370532 
L 125.452212 191.370532 
L 125.584262 192.025358 
L 125.652287 185.939321 
L 125.784337 192.025358 
L 125.916387 192.672 
L 126.116463 192.672 
L 126.184488 193.310609 
L 126.316538 187.300174 
L 126.384564 187.300174 
L 126.516614 193.941333 
L 126.784715 193.941333 
L 126.916765 188.627632 
L 127.11684 188.627632 
L 127.184866 189.27922 
L 127.316916 195.179707 
L 127.452967 195.179707 
L 127.585017 189.922909 
L 127.785092 189.922909 
L 127.917142 190.558843 
L 127.985168 190.558843 
L 128.053194 196.388241 
L 128.117218 190.558843 
L 128.185243 191.187162 
L 128.453345 191.187162 
L 128.585394 191.808 
L 128.65342 191.808 
L 128.717444 186.048 
L 128.853496 192.421491 
L 129.117595 192.421491 
L 129.253647 193.027765 
L 129.317671 193.027765 
L 129.453722 187.335529 
L 129.517746 187.968 
L 129.653798 193.626947 
L 129.785848 193.626947 
L 129.917897 194.219163 
L 130.053949 188.593116 
L 130.117973 188.593116 
L 130.254024 189.211006 
L 130.318048 189.211006 
L 130.4541 194.804532 
L 130.518124 195.383172 
L 130.654175 189.821793 
L 130.786225 189.821793 
L 130.918275 190.4256 
L 131.054326 190.4256 
L 131.118351 195.9552 
L 131.254402 191.022545 
L 131.454477 191.022545 
L 131.586527 191.612746 
L 131.786603 191.612746 
L 131.854628 186.75991 
L 131.986678 192.196315 
L 132.118728 192.196315 
L 132.25478 192.773363 
L 132.386829 192.773363 
L 132.454855 187.36733 
L 132.518879 187.968 
L 132.654931 187.968 
L 132.78698 193.344 
L 132.91903 193.908331 
L 132.987056 193.908331 
L 133.119106 188.562033 
L 133.255157 189.149538 
L 133.387207 189.149538 
L 133.519257 195.018492 
L 133.587282 195.018492 
L 133.719332 189.730623 
L 133.787358 189.730623 
L 133.919408 190.305391 
L 134.119483 190.305391 
L 134.187509 190.873946 
L 134.255535 196.104649 
L 134.387585 190.873946 
L 134.45561 190.873946 
L 134.58766 191.436387 
L 134.787736 191.436387 
L 134.855761 191.992813 
L 134.919785 186.818053 
L 135.055837 191.992813 
L 135.119861 191.992813 
L 135.255912 192.543319 
L 135.455988 192.543319 
L 135.588038 187.968 
L 135.720088 187.968 
L 135.856139 193.626947 
L 136.120239 193.626947 
L 136.25629 189.093864 
L 136.456365 189.093864 
L 136.52039 189.648 
L 136.656441 194.688 
L 136.720465 194.688 
L 136.788491 189.648 
L 136.856516 190.196394 
L 137.120616 190.196394 
L 137.256668 190.739134 
L 137.320692 195.727175 
L 137.456743 190.739134 
L 137.588793 191.276308 
L 137.788868 191.276308 
L 137.920918 191.808 
L 138.05697 186.870857 
L 138.189019 192.334294 
L 138.457121 192.334294 
L 138.589171 192.855273 
L 138.72122 187.968 
L 138.789246 187.968 
L 138.857272 188.508302 
L 138.989322 193.371015 
L 139.121371 193.371015 
L 139.189397 193.8816 
L 139.321447 189.0432 
L 139.457498 189.0432 
L 139.589548 189.572776 
L 139.721598 194.387104 
L 139.789624 194.387104 
L 139.921673 190.097109 
L 140.121749 190.097109 
L 140.2578 190.616276 
L 140.321825 190.616276 
L 140.38985 195.383172 
L 140.457876 190.616276 
L 140.5219 191.130353 
L 140.790001 191.130353 
L 140.922051 191.639415 
L 141.058102 191.639415 
L 141.122127 186.919024 
L 141.190152 187.446058 
L 141.322202 192.143534 
L 141.458253 192.143534 
L 141.590303 192.642783 
L 141.658329 192.642783 
L 141.790379 187.968 
L 141.922429 188.484923 
L 142.05848 193.137231 
L 142.122504 193.137231 
L 142.258556 193.626947 
L 142.390605 188.9969 
L 142.458631 188.9969 
L 142.590681 189.504 
L 142.658707 189.504 
L 142.790756 194.112 
L 142.858782 194.592455 
L 142.990832 190.006294 
L 143.122882 190.006294 
L 143.258933 190.503849 
L 143.459009 190.503849 
L 143.591059 190.996732 
L 143.791134 190.996732 
L 143.923184 191.485009 
L 144.123259 191.485009 
L 144.259311 187.467907 
L 144.391361 191.968744 
L 144.459386 191.968744 
L 144.591436 192.448 
L 144.723486 192.448 
L 144.791512 187.968 
L 144.859537 188.463484 
L 144.991587 188.463484 
L 145.123637 192.922839 
L 145.259688 193.393321 
L 145.391738 193.393321 
L 145.459764 188.954422 
L 145.523788 189.440877 
L 145.723864 189.440877 
L 145.859915 194.321455 
L 145.991965 194.321455 
L 146.124015 189.922909 
L 146.260066 190.400579 
L 146.460142 190.400579 
L 146.592191 190.873946 
L 146.792267 190.873946 
L 146.924317 191.343067 
L 147.124392 191.343067 
L 147.192418 191.808 
L 147.324468 187.488 
L 147.460519 191.808 
L 147.592569 192.2688 
L 147.792644 192.2688 
L 147.86067 192.725522 
L 147.99272 188.443752 
L 148.060746 188.443752 
L 148.192796 193.17822 
L 148.460897 193.17822 
L 148.592947 189.382737 
L 148.793022 189.382737 
L 148.861048 189.846079 
L 148.993098 194.071755 
L 149.061123 194.071755 
L 149.125147 189.846079 
L 149.193173 190.305391 
L 149.461274 190.305391 
L 149.593324 190.760727 
L 149.7934 190.760727 
L 149.92545 191.212138 
L 150.125525 191.212138 
L 150.261576 191.659674 
L 150.325601 191.659674 
L 150.393626 187.506541 
L 150.525676 192.103385 
L 150.793777 192.103385 
L 150.925827 192.543319 
L 151.061879 188.425532 
L 151.125903 188.425532 
L 151.193928 188.879186 
L 151.325978 192.979525 
L 151.46203 192.979525 
L 151.526054 193.412051 
L 151.662105 189.329013 
L 151.794155 189.329013 
L 151.926205 189.775059 
L 151.99423 189.775059 
L 152.12628 193.840941 
L 152.262332 190.217372 
L 152.462407 190.217372 
L 152.594457 190.656 
L 152.726507 190.656 
L 152.794533 194.688 
L 152.926582 191.090988 
L 153.126658 191.090988 
L 153.262709 191.52238 
L 153.394759 191.52238 
L 153.462785 187.523702 
L 153.526809 187.968 
L 153.66286 191.950222 
L 153.79491 191.950222 
L 153.92696 192.374557 
L 153.994986 192.374557 
L 154.127035 188.408656 
L 154.263087 188.845714 
L 154.395137 192.795429 
L 154.463162 192.795429 
L 154.595212 193.212878 
L 154.727262 189.27922 
L 154.795288 189.27922 
L 154.927338 189.709215 
L 155.063389 189.709215 
L 155.195439 194.037677 
L 155.263464 194.037677 
L 155.395514 190.135742 
L 155.46354 190.135742 
L 155.59559 190.558843 
L 155.795665 190.558843 
L 155.927715 190.97856 
L 156.127791 190.97856 
L 156.263842 191.394932 
L 156.463918 191.394932 
L 156.595967 187.968 
L 156.728017 191.808 
L 156.796043 191.808 
L 156.928093 192.217802 
L 157.064144 192.217802 
L 157.128168 188.39298 
L 157.196194 188.814614 
L 157.328244 188.814614 
L 157.464295 192.624378 
L 157.596345 193.027765 
L 157.664371 193.027765 
L 157.796421 189.232941 
L 157.92847 189.648 
L 158.128546 189.648 
L 158.196572 190.059829 
L 158.328621 193.825121 
L 158.464673 190.059829 
L 158.596723 190.468465 
L 158.796798 190.468465 
L 158.928848 190.873946 
L 159.128924 190.873946 
L 159.264975 191.276308 
L 159.46505 191.276308 
L 159.529075 191.675586 
L 159.665126 187.968 
L 159.797176 191.675586 
L 159.929226 192.071817 
L 160.129301 192.071817 
L 160.265352 188.785643 
L 160.397402 188.785643 
L 160.529452 192.855273 
L 160.797553 192.855273 
L 160.929603 189.590943 
L 161.129679 189.590943 
L 161.26573 189.989053 
L 161.39778 193.626947 
L 161.465806 189.989053 
L 161.52983 190.38418 
L 161.797931 190.38418 
L 161.929981 190.776358 
L 162.130056 190.776358 
L 162.266108 191.165621 
L 162.466183 191.165621 
L 162.598233 191.552 
L 162.730283 187.968 
L 162.866334 191.935528 
L 163.130434 191.935528 
L 163.266485 192.316235 
L 163.398535 188.758588 
L 163.466561 188.758588 
L 163.598611 189.149538 
L 163.730661 192.694154 
L 163.798686 192.694154 
L 163.866712 193.069314 
L 163.998762 189.537635 
L 164.130812 189.537635 
L 164.266863 189.922909 
L 164.330887 189.922909 
L 164.466938 193.441745 
L 164.598988 190.305391 
L 164.799064 190.305391 
L 164.931114 190.685112 
L 165.131189 190.685112 
L 165.267241 191.062101 
L 165.467316 191.062101 
L 165.599366 191.436387 
L 165.731416 191.436387 
L 165.799441 187.968 
L 165.867467 188.352 
L 165.999517 191.808 
L 166.131567 191.808 
L 166.267618 192.176968 
L 166.331642 192.176968 
L 166.467694 188.733267 
L 166.599743 189.11183 
L 166.667769 189.11183 
L 166.799819 192.543319 
L 166.931869 192.907081 
L 167.06792 189.487717 
L 167.131944 189.487717 
L 167.267996 189.860958 
L 167.400046 189.860958 
L 167.532095 193.626947 
L 167.668147 190.231579 
L 167.800197 190.231579 
L 167.932246 190.599608 
L 168.132322 190.599608 
L 168.268373 190.965073 
L 168.468449 190.965073 
L 168.600499 191.328 
L 168.800574 191.328 
L 168.932624 188.340042 
L 169.068675 191.688415 
L 169.1327 191.688415 
L 169.268751 192.046345 
L 169.400801 192.046345 
L 169.468826 188.709517 
L 169.532851 189.076454 
L 169.732926 189.076454 
L 169.868978 192.754849 
L 170.001027 192.754849 
L 170.133077 189.440877 
L 170.269129 189.802812 
L 170.469204 189.802812 
L 170.533228 190.162286 
L 170.601254 193.453714 
L 170.733304 190.162286 
L 170.801329 190.162286 
L 170.933379 190.519322 
L 171.133455 190.519322 
L 171.269506 190.873946 
L 171.469582 190.873946 
L 171.601632 191.226182 
L 171.801707 191.226182 
L 171.869733 191.576054 
L 172.001783 188.328805 
L 172.133832 191.576054 
L 172.269884 191.923585 
L 172.469959 191.923585 
L 172.602009 189.0432 
L 172.802085 189.0432 
L 172.87011 189.396837 
L 173.00216 192.611721 
L 173.070186 192.611721 
L 173.13421 189.396837 
L 173.202236 189.748132 
L 173.470337 189.748132 
L 173.602387 190.097109 
L 173.734437 193.290772 
L 173.802462 190.097109 
L 173.870488 190.443789 
L 174.134588 190.443789 
L 174.270639 190.788197 
L 174.470715 190.788197 
L 174.602764 191.130353 
L 174.80284 191.130353 
L 174.93489 191.47028 
L 175.070941 188.318228 
L 175.202991 191.808 
L 175.471092 191.808 
L 175.535116 192.143534 
L 175.671168 189.011883 
L 175.803217 189.011883 
L 175.935267 189.355355 
L 176.071319 192.476903 
L 176.135343 192.476903 
L 176.271394 189.696617 
L 176.47147 189.696617 
L 176.60352 190.035692 
L 176.671545 190.035692 
L 176.803595 193.137231 
L 176.935645 190.372601 
L 177.13572 190.372601 
L 177.271772 190.707363 
L 177.471847 190.707363 
L 177.603897 191.04 
L 177.803973 191.04 
L 177.936023 191.370532 
L 178.004048 191.370532 
L 178.136098 188.308253 
L 178.204124 188.64636 
L 178.336174 191.698978 
L 178.472225 191.698978 
L 178.604275 192.025358 
L 178.736325 188.98234 
L 178.80435 188.98234 
L 178.9364 189.316213 
L 179.072451 192.349693 
L 179.136476 192.349693 
L 179.272527 192.672 
L 179.404577 189.648 
L 179.472603 189.648 
L 179.604652 189.97772 
L 179.736702 189.97772 
L 179.872754 193.310609 
L 180.004803 190.305391 
L 180.136853 190.305391 
L 180.272905 190.631034 
L 180.47298 190.631034 
L 180.537004 187.968 
L 180.673056 190.954667 
L 180.805106 190.954667 
L 180.937155 191.276308 
L 181.073207 191.276308 
L 181.137231 188.298831 
L 181.205257 188.627632 
L 181.273282 188.627632 
L 181.405332 191.595975 
L 181.473358 191.595975 
L 181.605408 191.913688 
L 181.673433 191.913688 
L 181.805483 188.954422 
L 181.937533 189.27922 
L 182.005559 189.27922 
L 182.137608 192.229463 
L 182.27366 192.543319 
L 182.337684 192.543319 
L 182.473735 189.602043 
L 182.605785 189.922909 
L 182.805861 189.922909 
L 182.873886 190.241837 
L 182.937911 193.165341 
L 183.073962 190.241837 
L 183.137986 190.241837 
L 183.274037 190.558843 
L 183.474113 190.558843 
L 183.538137 190.873946 
L 183.606163 187.968 
L 183.738213 190.873946 
L 183.806238 190.873946 
L 183.938288 191.187162 
L 184.138364 191.187162 
L 184.274415 188.60991 
L 184.338439 188.60991 
L 184.474491 191.498507 
L 184.60654 191.808 
L 184.806616 191.808 
L 184.938666 189.244202 
L 185.074717 189.244202 
L 185.206767 192.421491 
L 185.406843 192.421491 
L 185.474868 189.558533 
L 185.538892 189.871009 
L 185.806994 189.871009 
L 185.939043 190.181647 
L 186.007069 193.027765 
L 186.139119 190.181647 
L 186.27517 190.490463 
L 186.475246 190.490463 
L 186.607296 190.797474 
L 186.675321 187.968 
L 186.807371 190.797474 
L 186.939421 191.102694 
L 187.139497 191.102694 
L 187.207522 191.40614 
L 187.339572 188.593116 
L 187.407598 188.593116 
L 187.539648 191.707826 
L 187.807749 191.707826 
L 187.875774 192.007769 
L 188.007824 189.211006 
L 188.139874 189.211006 
L 188.2079 189.51728 
L 188.33995 192.305983 
L 188.476001 192.305983 
L 188.608051 189.821793 
L 188.808126 189.821793 
L 188.940176 190.124562 
L 189.008202 190.124562 
L 189.076228 192.897284 
L 189.140252 190.124562 
L 189.208277 190.4256 
L 189.476379 190.4256 
L 189.608428 190.724923 
L 189.676454 190.724923 
L 189.740478 187.968 
L 189.87653 191.022545 
L 190.140629 191.022545 
L 190.276681 191.318482 
L 190.340705 191.318482 
L 190.476756 188.577178 
L 190.54078 188.879186 
L 190.676832 191.612746 
L 190.808882 191.612746 
L 190.940931 191.905352 
L 191.076983 189.179493 
L 191.141007 189.179493 
L 191.277058 189.478112 
L 191.409108 192.196315 
L 191.477134 192.196315 
L 191.541158 192.485647 
L 191.677209 189.775059 
L 191.809259 189.775059 
L 191.941309 190.070346 
L 192.07736 190.070346 
L 192.141385 192.773363 
L 192.277436 190.363989 
L 192.477511 190.363989 
L 192.609561 190.656 
L 192.741611 190.656 
L 192.809637 187.968 
L 192.877662 188.265839 
L 193.009712 190.946393 
L 193.141762 190.946393 
L 193.277814 191.235182 
L 193.409863 191.235182 
L 193.477889 188.562033 
L 193.541913 188.856595 
L 193.609939 188.856595 
L 193.741989 191.52238 
L 193.810014 191.52238 
L 193.942064 191.808 
L 194.01009 191.808 
L 194.14214 189.149538 
L 194.278191 189.440877 
L 194.342215 189.440877 
L 194.478267 192.092055 
L 194.610316 192.374557 
L 194.742366 189.730623 
L 194.810392 189.730623 
L 194.942442 190.01879 
L 195.078493 190.01879 
L 195.210543 192.934957 
L 195.342593 190.305391 
L 195.478644 190.305391 
L 195.610694 190.590439 
L 195.81077 190.590439 
L 195.942819 188.258595 
L 196.078871 190.873946 
L 196.142895 190.873946 
L 196.278946 191.155925 
L 196.479022 191.155925 
L 196.611072 188.835097 
L 196.679097 188.835097 
L 196.811147 191.436387 
L 196.943197 191.715346 
L 197.079248 191.715346 
L 197.143273 189.121029 
L 197.211298 189.405433 
L 197.411374 189.405433 
L 197.543424 192.2688 
L 197.679475 192.2688 
L 197.811525 189.68832 
L 197.943575 189.969702 
L 198.14365 189.969702 
L 198.211676 190.249592 
L 198.279702 192.816382 
L 198.411751 190.249592 
L 198.479777 190.249592 
L 198.611827 190.528 
L 198.811902 190.528 
L 198.879928 190.804939 
L 199.011978 188.251694 
L 199.144028 190.804939 
L 199.280079 191.080421 
L 199.480155 191.080421 
L 199.544179 191.354457 
L 199.68023 188.814614 
L 199.744254 188.814614 
L 199.880306 191.627058 
L 200.144405 191.627058 
L 200.280457 189.371655 
L 200.480532 189.371655 
L 200.544556 189.648 
L 200.680608 192.168 
L 200.744632 192.168 
L 200.812658 189.648 
L 200.880683 189.922909 
L 201.144783 189.922909 
L 201.280834 190.196394 
L 201.344859 192.703337 
L 201.48091 190.196394 
L 201.61296 190.468465 
L 201.813035 190.468465 
L 201.945085 190.739134 
L 202.145161 190.739134 
L 202.281212 191.008411 
L 202.481287 191.008411 
L 202.613337 191.276308 
L 202.745387 188.795077 
L 202.813413 188.795077 
L 202.881439 189.067949 
L 203.013488 191.542834 
L 203.145538 191.542834 
L 203.213564 191.808 
L 203.345614 189.339429 
L 203.481665 189.339429 
L 203.613715 189.609527 
L 203.745765 192.071817 
L 203.81379 192.071817 
L 203.94584 189.878254 
L 204.145916 189.878254 
L 204.281967 190.14562 
L 204.345991 190.14562 
L 204.414017 192.595443 
L 204.482043 190.14562 
L 204.546067 190.411636 
L 204.814168 190.411636 
L 204.946218 190.676312 
L 205.146293 190.676312 
L 205.282345 190.939658 
L 205.48242 190.939658 
L 205.61447 191.201684 
L 205.682496 191.201684 
L 205.814546 188.776421 
L 205.946596 189.0432 
L 206.082647 191.4624 
L 206.146671 191.4624 
L 206.282722 191.721815 
L 206.414772 189.308648 
L 206.482798 189.308648 
L 206.614848 189.572776 
L 206.682873 189.572776 
L 206.814923 191.97994 
L 206.882949 192.236784 
L 207.014999 189.835593 
L 207.147049 189.835593 
L 207.2831 190.097109 
L 207.41515 190.097109 
L 207.483176 192.492356 
L 207.615225 190.357333 
L 207.815301 190.357333 
L 207.947351 190.616276 
L 208.147426 190.616276 
L 208.215452 188.496354 
L 208.347502 190.873946 
L 208.483553 190.873946 
L 208.615603 191.130353 
L 208.747653 191.130353 
L 208.815678 188.758588 
L 208.883704 189.01954 
L 208.947728 189.01954 
L 209.08378 191.385506 
L 209.147804 191.385506 
L 209.283855 191.639415 
L 209.347879 191.639415 
L 209.483931 189.27922 
L 209.615981 189.537635 
L 209.74803 189.537635 
L 209.884082 192.143534 
L 209.948106 192.143534 
L 210.084157 189.794796 
L 210.148181 189.794796 
L 210.284233 190.050712 
L 210.484308 190.050712 
L 210.616358 190.305391 
L 210.816434 190.305391 
L 210.948484 190.558843 
L 211.148559 190.558843 
L 211.216585 190.811077 
L 211.28461 188.484923 
L 211.41666 190.811077 
L 211.484686 190.811077 
L 211.616736 191.062101 
L 211.816811 191.062101 
L 211.948861 188.9969 
L 212.016887 188.9969 
L 212.148937 191.311923 
L 212.284988 191.560554 
L 212.417038 191.560554 
L 212.485064 189.251055 
L 212.549088 189.504 
L 212.817189 189.504 
L 212.885215 189.755743 
L 213.017264 192.054271 
L 213.149314 189.755743 
L 213.285366 190.006294 
L 213.485441 190.006294 
L 213.617491 190.25566 
L 213.817567 190.25566 
L 213.949616 190.503849 
L 214.149692 190.503849 
L 214.285743 190.750871 
L 214.349767 188.473976 
L 214.485819 190.750871 
L 214.617869 190.996732 
L 214.817944 190.996732 
L 214.88597 191.241443 
L 215.01802 188.975213 
L 215.086045 188.975213 
L 215.218095 191.485009 
L 215.486196 191.485009 
L 215.618246 189.471776 
L 215.818322 189.471776 
L 215.886347 189.718326 
L 216.018397 191.968744 
L 216.086423 191.968744 
L 216.150447 189.718326 
L 216.218473 189.963731 
L 216.486574 189.963731 
L 216.618624 190.208 
L 216.818699 190.208 
L 216.950749 190.451141 
L 217.150825 190.451141 
L 217.286876 190.693161 
L 217.3509 190.693161 
L 217.418926 188.463484 
L 217.550976 190.934069 
L 217.819077 190.934069 
L 217.951127 191.173872 
L 218.087178 188.954422 
L 218.151202 188.954422 
L 218.219228 189.198206 
L 218.351278 191.412577 
L 218.487329 191.412577 
L 218.551353 191.650192 
L 218.687405 189.440877 
L 218.819455 189.440877 
L 218.951504 189.682442 
L 219.087556 191.886724 
L 219.15158 191.886724 
L 219.287631 189.922909 
L 219.487707 189.922909 
L 219.619757 190.162286 
L 219.819832 190.162286 
L 219.951882 190.400579 
L 220.151958 190.400579 
L 220.288009 190.637797 
L 220.420059 190.637797 
L 220.488084 188.453418 
L 220.552109 188.694486 
L 220.68816 190.873946 
L 220.82021 190.873946 
L 220.95226 191.109034 
L 221.020285 191.109034 
L 221.152335 188.934472 
L 221.288386 189.173381 
L 221.420436 191.343067 
L 221.488462 191.343067 
L 221.620512 191.576054 
L 221.752562 189.411221 
L 221.820587 189.411221 
L 221.952637 189.648 
L 222.020663 189.648 
L 222.152713 191.808 
L 222.220738 192.038913 
L 222.352788 189.883724 
L 222.48884 189.883724 
L 222.620889 190.1184 
L 222.752939 190.1184 
L 222.820965 192.2688 
L 222.953015 190.352035 
L 223.15309 190.352035 
L 223.289142 190.584637 
L 223.489217 190.584637 
L 223.621267 188.680053 
L 223.753317 190.816212 
L 223.821343 190.816212 
L 223.953392 191.046767 
L 224.089444 191.046767 
L 224.153468 188.915313 
L 224.221494 189.149538 
L 224.353543 189.149538 
L 224.489595 191.276308 
L 224.621645 191.504842 
L 224.68967 191.504842 
L 224.82172 189.382737 
L 224.95377 189.614915 
L 225.089821 189.614915 
L 225.221871 191.958917 
L 225.289897 191.958917 
L 225.421947 189.846079 
L 225.489972 189.846079 
L 225.622022 190.076235 
L 225.822098 190.076235 
L 225.954148 190.305391 
L 226.154223 190.305391 
L 226.290275 190.533553 
L 226.49035 190.533553 
L 226.6224 188.666182 
L 226.75445 190.760727 
L 226.822475 190.760727 
L 226.954525 190.98692 
L 227.154601 190.98692 
L 227.290652 189.126621 
L 227.422702 189.126621 
L 227.554752 191.436387 
L 227.754827 191.436387 
L 227.822853 189.355355 
L 227.890879 189.583107 
L 228.154978 189.583107 
L 228.223004 189.809884 
L 228.355054 191.882004 
L 228.491105 189.809884 
L 228.623155 190.035692 
L 228.823231 190.035692 
L 228.95528 190.260537 
L 229.155356 190.260537 
L 229.291407 190.484426 
L 229.491483 190.484426 
L 229.555507 190.707363 
L 229.691558 188.652841 
L 229.823608 190.707363 
L 229.955658 190.929356 
L 230.155734 190.929356 
L 230.223759 191.15041 
L 230.355809 189.104575 
L 230.423835 189.104575 
L 230.555885 191.370532 
L 230.823986 191.370532 
L 230.956036 189.552505 
L 231.156111 189.552505 
L 231.292163 189.775059 
L 231.424212 191.808 
L 231.492238 189.775059 
L 231.556262 189.996679 
L 231.824363 189.996679 
L 231.956413 190.217372 
L 232.156489 190.217372 
L 232.29254 190.437144 
L 232.492616 190.437144 
L 232.624666 190.656 
L 232.756715 188.64 
L 232.892767 190.873946 
L 233.156866 190.873946 
L 233.292918 191.090988 
L 233.424968 189.083353 
L 233.492993 189.083353 
L 233.557017 189.303652 
L 233.693069 191.30713 
L 233.825119 191.30713 
L 233.893144 191.52238 
L 234.025194 189.523041 
L 234.157244 189.523041 
L 234.293295 189.741526 
L 234.35732 189.741526 
L 234.493371 191.736742 
L 234.625421 189.959111 
L 234.825496 189.959111 
L 234.957546 190.175803 
L 235.157622 190.175803 
L 235.293673 190.391607 
L 235.493749 190.391607 
L 235.625798 190.606528 
L 235.693824 190.606528 
L 235.825874 188.627632 
L 235.8939 188.845714 
L 236.025949 190.820571 
L 236.157999 190.820571 
L 236.294051 191.033743 
L 236.358075 191.033743 
L 236.494126 189.062908 
L 236.626176 189.27922 
L 236.758226 191.246049 
L 236.826251 191.246049 
L 236.958301 191.457493 
L 237.094353 189.494653 
L 237.158377 189.494653 
L 237.294428 189.709215 
L 237.358452 189.709215 
L 237.494504 191.668081 
L 237.558528 191.877818 
L 237.694579 189.922909 
L 237.826629 189.922909 
L 237.958679 190.135742 
L 238.158754 190.135742 
L 238.22678 188.400676 
L 238.35883 190.347718 
L 238.494881 190.347718 
L 238.626931 190.558843 
L 238.758981 190.558843 
L 238.827007 188.615711 
L 238.895032 188.829884 
L 238.959057 188.829884 
L 239.095108 190.769122 
L 239.159132 190.769122 
L 239.295183 190.97856 
L 239.359208 190.97856 
L 239.495259 189.0432 
L 239.627309 189.255665 
L 239.695334 189.255665 
L 239.827384 191.187162 
L 239.959434 191.394932 
L 240.02746 191.394932 
L 240.15951 189.467283 
L 240.295561 189.67806 
L 240.427611 189.67806 
L 240.559661 191.808 
L 240.627686 191.808 
L 240.759736 189.888 
L 240.827762 189.888 
L 240.959812 190.097109 
L 241.159887 190.097109 
L 241.295939 190.305391 
L 241.496014 190.305391 
L 241.628064 190.512852 
L 241.82814 190.512852 
L 241.960189 188.814614 
L 242.028215 188.814614 
L 242.160265 190.719496 
L 242.296316 190.925328 
L 242.428366 190.925328 
L 242.496392 189.024189 
L 242.560416 189.232941 
L 242.760491 189.232941 
L 242.896543 191.334575 
L 243.096618 191.334575 
L 243.160642 189.440877 
L 243.228668 189.648 
L 243.496769 189.648 
L 243.560794 189.854316 
L 243.696845 191.740632 
L 243.828895 189.854316 
L 243.960945 190.059829 
L 244.16102 190.059829 
L 244.297071 190.264544 
L 244.497147 190.264544 
L 244.629197 190.468465 
L 244.829272 190.468465 
L 244.897298 190.671598 
L 245.029348 188.799876 
L 245.161398 190.671598 
L 245.297449 190.873946 
L 245.497525 190.873946 
L 245.629574 189.211006 
L 245.82965 189.211006 
L 245.897676 189.415385 
L 246.029725 191.276308 
L 246.097751 191.276308 
L 246.161775 189.415385 
L 246.229801 189.618979 
L 246.497902 189.618979 
L 246.629952 189.821793 
L 246.762002 191.675586 
L 246.830028 189.821793 
L 246.898053 190.023832 
L 247.162153 190.023832 
L 247.298204 190.225099 
L 247.49828 190.225099 
L 247.63033 190.4256 
L 247.830405 190.4256 
L 247.962455 190.625338 
L 248.098506 188.785643 
L 248.230556 190.824319 
L 248.498657 190.824319 
L 248.562682 191.022545 
L 248.698733 189.189818 
L 248.830783 189.189818 
L 248.898808 189.39076 
L 249.030858 191.220023 
L 249.162908 191.220023 
L 249.298959 189.590943 
L 249.499035 189.590943 
L 249.631085 189.790373 
L 249.699111 189.790373 
L 249.83116 191.612746 
L 249.96321 189.989053 
L 250.163286 189.989053 
L 250.299337 190.186987 
L 250.499413 190.186987 
L 250.631462 190.38418 
L 250.831538 190.38418 
L 250.963588 190.580636 
L 251.031614 190.580636 
L 251.163663 188.771888 
L 251.231689 188.970985 
L 251.363739 190.776358 
L 251.49979 190.776358 
L 251.63184 190.971352 
L 251.76389 189.169341 
L 251.831916 189.169341 
L 251.963965 189.366959 
L 252.100017 191.165621 
L 252.164041 191.165621 
L 252.232067 191.359169 
L 252.364116 189.563844 
L 252.500168 189.563844 
L 252.632218 189.76 
L 252.700243 189.76 
L 252.832293 191.552 
L 252.900319 191.744118 
L 253.032369 189.955431 
L 253.164419 189.955431 
L 253.30047 190.15014 
L 253.500545 190.15014 
L 253.56457 188.562033 
L 253.700621 190.344133 
L 253.832671 190.344133 
L 253.964721 190.537412 
L 254.100772 190.537412 
L 254.164796 188.758588 
L 254.232822 188.954422 
L 254.300848 188.954422 
L 254.432897 190.729982 
L 254.500923 190.729982 
L 254.632973 190.921846 
L 254.700999 190.921846 
L 254.833048 189.149538 
L 254.965098 189.343941 
L 255.033124 189.343941 
L 255.165174 191.113009 
L 255.301225 191.303474 
L 255.433275 189.537635 
L 255.501301 189.537635 
L 255.63335 189.730623 
L 255.7654 189.730623 
L 255.901452 191.682327 
L 256.033502 189.922909 
L 256.165551 189.922909 
L 256.301603 190.114497 
L 256.501678 190.114497 
L 256.633728 190.305391 
L 256.833804 190.305391 
L 256.965853 190.495595 
L 257.165929 190.495595 
L 257.30198 188.938397 
L 257.366005 188.938397 
L 257.502056 190.685112 
L 257.634106 190.873946 
L 257.766156 190.873946 
L 257.834181 189.130378 
L 257.902207 189.321669 
L 258.102282 189.321669 
L 258.234332 191.24958 
L 258.366382 191.24958 
L 258.502433 189.512273 
L 258.634483 189.702194 
L 258.834559 189.702194 
L 258.902585 189.891435 
L 258.966609 191.622526 
L 259.10266 189.891435 
L 259.166684 189.891435 
L 259.302736 190.08 
L 259.502811 190.08 
L 259.566835 190.267893 
L 259.634861 188.542973 
L 259.766911 190.267893 
L 259.834936 190.267893 
L 259.966986 190.455117 
L 260.167062 190.455117 
L 260.235087 190.641677 
L 260.367137 188.922885 
L 260.503189 190.641677 
L 260.635239 190.827574 
L 260.835314 190.827574 
L 260.967364 189.300106 
L 261.167439 189.300106 
L 261.235465 189.487717 
L 261.367515 191.197399 
L 261.435541 191.197399 
L 261.503566 189.487717 
L 261.56759 189.674667 
L 261.835692 189.674667 
L 261.967741 189.860958 
L 262.035767 191.56462 
L 262.167817 189.860958 
L 262.303868 190.046594 
L 262.503944 190.046594 
L 262.635994 190.231579 
L 262.704019 188.533895 
L 262.836069 190.231579 
L 262.968119 190.415916 
L 263.168195 190.415916 
L 263.304246 190.599608 
L 263.436296 188.90786 
L 263.568346 190.78266 
L 263.836447 190.78266 
L 263.904473 190.965073 
L 264.036522 189.27922 
L 264.168572 189.27922 
L 264.236598 189.46393 
L 264.368648 191.146852 
L 264.504699 191.146852 
L 264.636749 189.648 
L 264.836824 189.648 
L 264.968874 189.831432 
L 265.104926 191.50852 
L 265.16895 189.831432 
L 265.236976 190.014228 
L 265.505077 190.014228 
L 265.637127 190.196394 
L 265.705152 190.196394 
L 265.769176 188.525098 
L 265.905228 190.377931 
L 266.169327 190.377931 
L 266.305379 190.558843 
L 266.437429 188.893301 
L 266.505454 188.893301 
L 266.569478 189.076454 
L 266.70553 190.739134 
L 266.83758 190.739134 
L 266.96963 190.918806 
L 267.105681 189.258978 
L 267.169705 189.258978 
L 267.305756 189.440877 
L 267.437806 191.097863 
L 267.505832 191.097863 
L 267.569856 191.276308 
L 267.705907 189.622154 
L 267.837957 189.622154 
L 267.970007 189.802812 
L 268.038033 189.802812 
L 268.170083 191.454143 
L 268.306134 189.982855 
L 268.50621 189.982855 
L 268.638259 190.162286 
L 268.838335 190.162286 
L 268.970385 190.341107 
L 269.17046 190.341107 
L 269.306512 190.519322 
L 269.370536 190.519322 
L 269.506587 188.879186 
L 269.638637 189.059574 
L 269.770687 190.696934 
L 269.838713 190.696934 
L 269.970762 190.873946 
L 270.106814 189.239351 
L 270.170838 189.239351 
L 270.306889 189.418523 
L 270.370913 189.418523 
L 270.506965 191.050361 
L 270.639015 191.226182 
L 270.771064 189.597091 
L 270.83909 189.597091 
L 270.97114 189.775059 
L 271.107191 189.775059 
L 271.239241 191.576054 
L 271.371291 189.95243 
L 271.507342 189.95243 
L 271.639392 190.129206 
L 271.839468 190.129206 
L 271.907493 188.687197 
L 272.039543 190.305391 
L 272.171593 190.305391 
L 272.307644 190.480988 
L 272.439694 190.480988 
L 272.50772 188.865496 
L 272.571744 189.0432 
L 272.63977 189.0432 
L 272.77182 190.656 
L 272.839845 190.656 
L 272.971895 190.830429 
L 273.039921 190.830429 
L 273.171971 189.220313 
L 273.308022 189.396837 
L 273.440072 189.396837 
L 273.572122 191.177552 
L 273.708173 191.177552 
L 273.840223 189.572776 
L 273.972273 189.748132 
L 274.172348 189.748132 
L 274.240374 189.922909 
L 274.3084 191.52238 
L 274.440449 189.922909 
L 274.508475 189.922909 
L 274.640525 190.097109 
L 274.840601 190.097109 
L 274.908626 190.270735 
L 274.97265 188.676534 
L 275.108702 190.270735 
L 275.172726 190.270735 
L 275.308777 190.443789 
L 275.508853 190.443789 
L 275.640903 189.02731 
L 275.708928 189.02731 
L 275.840978 190.616276 
L 275.973028 190.788197 
L 276.109079 190.788197 
L 276.173104 189.201836 
L 276.241129 189.375791 
L 276.441205 189.375791 
L 276.573255 191.130353 
L 276.709306 191.130353 
L 276.841356 189.549176 
L 276.973406 189.721997 
L 277.173481 189.721997 
L 277.309532 189.894254 
L 277.373557 191.47028 
L 277.509608 189.894254 
L 277.641658 190.065951 
L 277.841733 190.065951 
L 277.973783 190.237091 
L 278.041809 188.666182 
L 278.173859 190.237091 
L 278.30991 190.407676 
L 278.509986 190.407676 
L 278.57401 190.577709 
L 278.710061 189.011883 
L 278.774085 189.011883 
L 278.910137 190.747192 
L 279.174236 190.747192 
L 279.310288 189.355355 
L 279.510363 189.355355 
L 279.574387 189.526261 
L 279.710439 191.084522 
L 279.774463 191.084522 
L 279.842489 189.526261 
L 279.910514 189.696617 
L 280.174614 189.696617 
L 280.310665 189.866427 
L 280.374689 191.419685 
L 280.510741 189.866427 
L 280.642791 190.035692 
L 280.842866 190.035692 
L 280.974916 190.204416 
L 281.174992 190.204416 
L 281.311043 190.372601 
L 281.511118 190.372601 
L 281.643168 190.540249 
L 281.775218 188.9969 
L 281.843244 188.9969 
L 281.911269 189.166471 
L 282.043319 190.707363 
L 282.175369 190.707363 
L 282.243395 190.873946 
L 282.375445 189.335504 
L 282.511496 189.335504 
L 282.643546 189.504 
L 282.775596 191.04 
L 282.843621 191.04 
L 282.975671 189.671962 
L 283.175747 189.671962 
L 283.311798 189.839392 
L 283.375822 189.839392 
L 283.443848 191.370532 
L 283.511874 189.839392 
L 283.575898 190.006294 
L 283.843999 190.006294 
L 283.976049 190.172669 
L 284.044075 190.172669 
L 284.1121 188.64636 
L 284.24415 190.33852 
L 284.512251 190.33852 
L 284.644301 190.503849 
L 284.712327 190.503849 
L 284.844377 188.98234 
L 284.912402 189.149538 
L 285.044452 190.668659 
L 285.176502 190.668659 
L 285.312553 190.832953 
L 285.444603 189.316213 
L 285.512629 189.316213 
L 285.644679 189.482366 
L 285.712704 189.482366 
L 285.844754 190.996732 
L 285.91278 191.16 
L 286.04483 189.648 
L 286.17688 189.648 
L 286.312931 189.813117 
L 286.444981 189.813117 
L 286.513006 191.322758 
L 286.645056 189.97772 
L 286.845132 189.97772 
L 286.977182 190.14181 
L 287.113233 190.14181 
L 287.177257 188.636865 
L 287.245283 188.802783 
L 287.377333 190.305391 
L 287.513384 190.305391 
L 287.645434 190.468465 
L 287.71346 190.468465 
L 287.845509 188.968186 
L 287.977559 189.133077 
L 288.113611 190.631034 
L 288.177635 190.631034 
L 288.313686 190.7931 
L 288.37771 190.7931 
L 288.513762 189.297459 
L 288.645812 189.461333 
L 288.713837 189.461333 
L 288.845887 190.954667 
L 288.977937 191.115735 
L 289.113988 189.624703 
L 289.178012 189.624703 
L 289.314064 189.787569 
L 289.446114 189.787569 
L 289.578163 191.436387 
L 289.714215 189.949935 
L 289.846265 189.949935 
L 289.978314 190.111804 
L 290.17839 190.111804 
L 290.314441 188.791277 
L 290.446491 190.273176 
L 290.514517 190.273176 
L 290.646567 190.434055 
L 290.778617 190.434055 
L 290.846642 188.954422 
L 290.914668 189.117069 
L 291.046718 189.117069 
L 291.178768 190.594443 
L 291.314819 190.754341 
L 291.378843 190.754341 
L 291.514894 189.27922 
L 291.646944 189.440877 
L 291.778994 189.440877 
L 291.915046 191.072681 
L 292.047095 191.072681 
L 292.179145 189.602043 
L 292.315197 189.762719 
L 292.515272 189.762719 
L 292.579296 189.922909 
L 292.647322 191.389091 
L 292.779372 189.922909 
L 292.847397 189.922909 
L 292.979447 190.082614 
L 293.179523 190.082614 
L 293.247549 190.241837 
L 293.315574 188.780085 
L 293.447624 190.241837 
L 293.51565 190.241837 
L 293.6477 190.400579 
L 293.847775 190.400579 
L 293.979825 189.101494 
L 294.115876 189.101494 
L 294.247926 190.716632 
L 294.448002 190.716632 
L 294.516027 189.261474 
L 294.580051 189.420973 
L 294.848153 189.420973 
L 294.916178 189.579994 
L 295.048228 191.030789 
L 295.116254 191.030789 
L 295.180278 189.579994 
L 295.248304 189.738539 
L 295.516405 189.738539 
L 295.648455 189.89661 
L 295.71648 191.343067 
L 295.84853 189.89661 
L 295.98058 190.054209 
L 296.180656 190.054209 
L 296.316707 190.211338 
L 296.380731 188.769192 
L 296.516783 190.211338 
L 296.648832 190.368 
L 296.848908 190.368 
L 296.916934 190.524196 
L 297.048983 189.086336 
L 297.117009 189.086336 
L 297.249059 190.679929 
L 297.51716 190.679929 
L 297.64921 189.4016 
L 297.849285 189.4016 
L 297.981335 189.558533 
L 298.117387 190.990012 
L 298.181411 189.558533 
L 298.249437 189.715001 
L 298.517538 189.715001 
L 298.649588 189.871009 
L 298.717613 189.871009 
L 298.781637 191.298265 
L 298.849663 189.871009 
L 298.917689 190.026557 
L 299.181788 190.026557 
L 299.31784 190.181647 
L 299.381864 190.181647 
L 299.44989 188.758588 
L 299.58194 190.336282 
L 299.850041 190.336282 
L 299.982091 190.490463 
L 300.118142 189.071578 
L 300.182166 189.071578 
L 300.250192 189.227385 
L 300.382242 190.644193 
L 300.518293 190.644193 
L 300.582317 190.797474 
L 300.718368 189.382737 
L 300.850418 189.382737 
L 300.982468 189.537635 
L 301.11852 190.950307 
L 301.182544 190.950307 
L 301.318595 189.692082 
L 301.518671 189.692082 
L 301.65072 189.846079 
L 301.718746 189.846079 
L 301.78277 191.254638 
L 301.850796 189.846079 
L 301.918822 189.999628 
L 302.182921 189.999628 
L 302.318973 190.152731 
L 302.382997 190.152731 
L 302.519048 188.748261 
L 302.583072 188.902957 
L 302.719124 190.305391 
L 302.851174 190.305391 
L 302.983223 190.457609 
L 303.051249 190.457609 
L 303.183299 189.057204 
L 303.31935 189.211006 
L 303.4514 190.609387 
L 303.519426 190.609387 
L 303.651476 190.760727 
L 303.783525 189.364364 
L 303.851551 189.364364 
L 303.983601 189.51728 
L 304.051627 189.51728 
L 304.183676 190.911631 
L 304.251702 191.062101 
L 304.383752 189.669755 
L 304.519803 189.669755 
L 304.651853 189.821793 
L 304.783903 189.821793 
L 304.851929 191.212138 
L 304.983979 189.973395 
L 305.184054 189.973395 
L 305.320105 190.124562 
L 305.452155 190.124562 
L 305.520181 188.738201 
L 305.584205 188.890918 
L 305.720257 190.275296 
L 305.852306 190.275296 
L 305.984356 190.4256 
L 306.052382 190.4256 
L 306.184432 189.0432 
L 306.320483 189.195047 
L 306.452533 190.575475 
L 306.520559 190.575475 
L 306.652608 190.724923 
L 306.720634 190.724923 
L 306.852684 189.346462 
L 306.984734 189.497445 
L 307.120785 189.497445 
L 307.252835 191.022545 
L 307.320861 191.022545 
L 307.452911 189.648 
L 307.520936 189.648 
L 307.652986 189.798128 
L 307.853062 189.798128 
L 307.985111 189.94783 
L 308.185187 189.94783 
L 308.321238 190.097109 
L 308.521314 190.097109 
L 308.653364 188.879186 
L 308.785413 190.245966 
L 308.853439 190.245966 
L 308.985489 190.394403 
L 309.12154 190.394403 
L 309.185565 189.029551 
L 309.25359 189.179493 
L 309.38564 189.179493 
L 309.521691 190.542423 
L 309.653741 190.690025 
L 309.721767 190.690025 
L 309.853817 189.329013 
L 309.985867 189.478112 
L 310.121918 189.478112 
L 310.253968 190.983989 
L 310.386018 190.983989 
L 310.522069 189.626794 
L 310.654119 189.775059 
L 310.854194 189.775059 
L 310.986244 189.922909 
L 311.18632 189.922909 
L 311.322371 190.070346 
L 311.522447 190.070346 
L 311.586471 190.217372 
L 311.722522 188.867749 
L 311.854572 190.217372 
L 311.986622 190.363989 
L 312.186697 190.363989 
L 312.322749 189.164328 
L 312.454799 189.164328 
L 312.586848 190.656 
L 312.786924 190.656 
L 312.85495 189.312 
L 312.922975 189.459262 
L 313.187075 189.459262 
L 313.255101 189.606116 
L 313.38715 190.946393 
L 313.523202 189.606116 
L 313.655252 189.752564 
L 313.855327 189.752564 
L 313.987377 189.898608 
L 314.055403 191.235182 
L 314.187453 189.898608 
L 314.323504 190.044248 
L 314.523579 190.044248 
L 314.655629 190.189488 
L 314.723655 188.856595 
L 314.855705 190.189488 
L 314.987755 190.334327 
L 315.18783 190.334327 
L 315.255856 190.478769 
L 315.387906 189.149538 
L 315.523957 189.149538 
L 315.587981 189.295407 
L 315.724033 190.622815 
L 315.856082 190.622815 
L 315.988132 189.440877 
L 316.188208 189.440877 
L 316.324259 189.585948 
L 316.456309 190.909724 
L 316.524335 189.585948 
L 316.588359 189.730623 
L 316.85646 189.730623 
L 316.98851 189.874903 
L 317.188585 189.874903 
L 317.324637 190.01879 
L 317.524712 190.01879 
L 317.656762 190.162286 
L 317.724788 190.162286 
L 317.788812 188.845714 
L 317.924863 190.305391 
L 318.188963 190.305391 
L 318.325014 190.448109 
L 318.457064 189.13511 
L 318.52509 189.13511 
L 318.589114 189.27922 
L 318.725165 190.590439 
L 318.857215 190.590439 
L 318.925241 190.732384 
L 319.057291 189.422939 
L 319.189341 189.422939 
L 319.325392 189.56627 
L 319.457442 190.873946 
L 319.525467 190.873946 
L 319.657517 189.709215 
L 319.857593 189.709215 
L 319.989643 189.851774 
L 320.189718 189.851774 
L 320.32577 189.993949 
L 320.525845 189.993949 
L 320.657895 190.135742 
L 320.725921 190.135742 
L 320.85797 188.835097 
L 320.925996 188.978255 
L 321.058046 190.277154 
L 321.190096 190.277154 
L 321.326147 190.418188 
L 321.390171 190.418188 
L 321.526223 189.121029 
L 321.658273 189.263422 
L 321.790322 190.558843 
L 321.858348 190.558843 
L 321.990398 190.699123 
L 322.126449 189.405433 
L 322.190473 189.405433 
L 322.326525 189.547065 
L 322.390549 189.547065 
L 322.5266 190.839028 
L 322.590624 190.97856 
L 322.726676 189.68832 
L 322.858726 189.68832 
L 322.990776 189.829198 
L 323.126827 189.829198 
L 323.190851 191.11772 
L 323.326902 189.969702 
L 323.526978 189.969702 
L 323.659028 190.109833 
L 323.791078 190.109833 
L 323.859103 188.824733 
L 323.927129 188.966196 
L 323.991153 188.966196 
L 324.127204 190.249592 
L 324.191229 190.249592 
L 324.32728 190.38898 
L 324.391304 190.38898 
L 324.527356 189.107285 
L 324.659405 189.248 
L 324.727431 189.248 
L 324.859481 190.528 
L 324.991531 190.666653 
L 325.059556 190.666653 
L 325.191606 189.388343 
L 325.327658 189.528317 
L 325.459707 189.528317 
L 325.591757 190.942862 
L 325.659783 190.942862 
L 325.791833 189.667921 
L 325.859858 189.667921 
L 325.991908 189.807158 
L 326.191984 189.807158 
L 326.328035 189.946029 
L 326.528111 189.946029 
L 326.660161 190.084535 
L 326.860236 190.084535 
L 326.992286 188.954422 
L 327.128337 190.222679 
L 327.192361 190.222679 
L 327.328413 190.360461 
L 327.460463 190.360461 
L 327.528488 189.093864 
L 327.592512 189.232941 
L 327.728564 189.232941 
L 327.860614 190.497882 
L 327.992664 190.634945 
L 328.060689 190.634945 
L 328.192739 189.371655 
L 328.32879 189.510008 
L 328.528866 189.510008 
L 328.59289 189.648 
L 328.660916 190.908 
L 328.792966 189.648 
L 328.860991 189.648 
L 328.993041 189.785633 
L 329.193117 189.785633 
L 329.329168 189.922909 
L 329.529244 189.922909 
L 329.661293 190.059829 
L 329.861369 190.059829 
L 329.929395 190.196394 
L 330.061444 188.942922 
L 330.193494 190.196394 
L 330.329546 190.332605 
L 330.529621 190.332605 
L 330.661671 189.218233 
L 330.793721 189.218233 
L 330.929772 190.603974 
L 331.129848 190.603974 
L 331.193872 189.355355 
L 331.261898 189.492124 
L 331.529999 189.492124 
L 331.594023 189.628541 
L 331.730074 190.873946 
L 331.862124 189.628541 
L 331.994174 189.764607 
L 332.194249 189.764607 
L 332.330301 189.900323 
L 332.530376 189.900323 
L 332.662426 190.035692 
L 332.862502 190.035692 
L 332.994552 190.170714 
L 333.130603 188.931688 
L 333.262653 190.305391 
L 333.530754 190.305391 
L 333.594778 190.439724 
L 333.730829 189.203862 
L 333.862879 189.203862 
L 333.930905 189.339429 
L 334.062955 190.573714 
L 334.195005 190.573714 
L 334.331056 189.47465 
L 334.531132 189.47465 
L 334.663181 189.609527 
L 334.795231 190.840672 
L 334.863257 189.609527 
L 334.931283 189.744061 
L 335.195382 189.744061 
L 335.331434 189.878254 
L 335.531509 189.878254 
L 335.663559 190.012106 
L 335.863635 190.012106 
L 335.995684 190.14562 
L 336.131736 188.920709 
L 336.263786 190.278796 
L 336.531887 190.278796 
L 336.663937 190.411636 
L 336.795986 189.189818 
L 336.864012 189.189818 
L 336.932038 189.323864 
L 337.064088 190.544141 
L 337.196138 190.544141 
L 337.264163 190.676312 
L 337.396213 189.457572 
L 337.532264 189.457572 
L 337.664314 189.590943 
L 337.73234 189.590943 
L 337.86439 190.808151 
L 337.99644 189.72398 
L 338.196515 189.72398 
L 338.332566 189.856683 
L 338.532642 189.856683 
L 338.664692 189.989053 
L 338.864767 189.989053 
L 338.996817 190.121091 
L 339.064843 190.121091 
L 339.196893 188.909977 
L 339.264918 189.0432 
L 339.396968 190.2528 
L 339.53302 190.2528 
L 339.665069 190.38418 
L 339.797119 189.17609 
L 339.865145 189.17609 
L 339.997195 189.308648 
L 340.133246 190.515232 
L 340.19727 190.515232 
L 340.265296 190.645958 
L 340.397346 189.440877 
L 340.533397 189.440877 
L 340.665447 189.572776 
L 340.733473 189.572776 
L 340.865523 190.776358 
L 340.933548 190.906435 
L 341.065598 189.704348 
L 341.197648 189.704348 
L 341.333699 189.835593 
L 341.465749 189.835593 
L 341.533775 191.036189 
L 341.665825 189.966513 
L 341.8659 189.966513 
L 341.99795 190.097109 
L 342.134001 190.097109 
L 342.198026 188.899485 
L 342.266051 189.031239 
L 342.334077 189.031239 
L 342.466127 190.227382 
L 342.534152 190.227382 
L 342.666202 190.357333 
L 342.734228 190.357333 
L 342.866278 189.162667 
L 342.998328 189.293771 
L 343.066353 189.293771 
L 343.198403 190.486964 
L 343.334455 190.616276 
L 343.466504 189.424552 
L 343.53453 189.424552 
L 343.66658 189.555011 
L 343.79863 189.555011 
L 343.934681 190.873946 
L 344.066731 189.68515 
L 344.198781 189.68515 
L 344.334832 189.814969 
L 344.534908 189.814969 
L 344.666957 189.944471 
L 344.867033 189.944471 
L 344.999083 190.073655 
L 345.199158 190.073655 
L 345.33521 189.01954 
L 345.46726 190.202523 
L 345.535285 190.202523 
L 345.667335 190.331077 
L 345.799385 190.331077 
L 345.867411 189.149538 
L 345.935436 189.27922 
L 346.067486 189.27922 
L 346.199536 190.459317 
L 346.335587 190.587245 
L 346.399612 190.587245 
L 346.535663 189.408585 
L 346.667713 189.537635 
L 346.867788 189.537635 
L 346.935814 189.666372 
L 346.999838 190.842168 
L 347.135889 189.666372 
L 347.199914 189.666372 
L 347.335965 189.794796 
L 347.53604 189.794796 
L 347.600065 189.922909 
L 347.66809 188.749964 
L 347.80014 189.922909 
L 347.868166 189.922909 
L 348.000216 190.050712 
L 348.200291 190.050712 
L 348.336343 189.008097 
L 348.400367 189.008097 
L 348.536418 190.178206 
L 348.668468 190.305391 
L 348.868543 190.305391 
L 349.000593 189.264984 
L 349.136645 189.264984 
L 349.268694 190.558843 
L 349.46877 190.558843 
L 349.536796 189.392964 
L 349.60082 189.520635 
L 349.868921 189.520635 
L 349.936947 189.648 
L 350.068997 190.811077 
L 350.201046 189.648 
L 350.337098 189.775059 
L 350.537173 189.775059 
L 350.669223 189.901813 
L 350.737249 188.741525 
L 350.869299 189.901813 
L 351.001348 190.028263 
L 351.201424 190.028263 
L 351.26945 190.154411 
L 351.4015 188.9969 
L 351.469525 188.9969 
L 351.601575 190.280258 
L 351.869676 190.280258 
L 352.001726 189.251055 
L 352.201802 189.251055 
L 352.269827 189.377678 
L 352.401877 190.531051 
L 352.537928 190.531051 
L 352.669978 189.504 
L 352.870054 189.504 
L 353.002104 189.630021 
L 353.138155 190.780652 
L 353.202179 189.630021 
L 353.270205 189.755743 
L 353.538306 189.755743 
L 353.670356 189.881167 
L 353.870431 189.881167 
L 354.002481 190.006294 
L 354.202557 190.006294 
L 354.338608 190.131124 
L 354.470658 188.985941 
L 354.602708 190.25566 
L 354.870809 190.25566 
L 354.938835 190.379901 
L 355.070885 189.237421 
L 355.202934 189.237421 
L 355.338986 189.362717 
L 355.471036 190.503849 
L 355.539061 190.503849 
L 355.671111 189.487717 
L 355.871187 189.487717 
L 356.003237 189.612424 
L 356.071262 189.612424 
L 356.139288 190.750871 
L 356.203312 189.612424 
L 356.271338 189.736837 
L 356.539439 189.736837 
L 356.671489 189.860958 
L 356.871564 189.860958 
L 357.003614 189.984788 
L 357.20369 189.984788 
L 357.339741 190.108328 
L 357.403765 190.108328 
L 357.539817 188.975213 
L 357.603841 189.099789 
L 357.739892 190.231579 
L 357.871942 190.231579 
L 358.003992 190.354542 
L 358.140043 189.224075 
L 358.204067 189.224075 
L 358.340119 189.34807 
L 358.472168 190.477218 
L 358.540194 190.477218 
L 358.604218 190.599608 
L 358.74027 189.471776 
L 358.87232 189.471776 
L 359.004369 189.595194 
L 359.072395 189.595194 
L 359.204445 190.721714 
L 359.340496 189.718326 
L 359.540572 189.718326 
L 359.672622 189.841171 
L 359.872697 189.841171 
L 360.004747 189.963731 
L 360.204822 189.963731 
L 360.340874 190.086007 
L 360.472924 190.086007 
L 360.540949 188.964709 
L 360.604974 189.088 
L 360.672999 189.088 
L 360.805049 190.208 
L 360.873075 190.208 
L 361.005125 190.329711 
L 361.07315 190.329711 
L 361.2052 189.211006 
L 361.341251 189.333727 
L 361.405276 189.333727 
L 361.541327 190.451141 
L 361.673377 190.572291 
L 361.805427 189.456166 
L 361.873452 189.456166 
L 362.005502 189.578323 
L 362.141554 189.578323 
L 362.273603 190.813754 
L 362.405653 189.700198 
L 362.541705 189.700198 
L 362.673754 189.821793 
L 362.87383 189.821793 
L 362.941856 188.83211 
L 363.073905 189.943109 
L 363.205955 189.943109 
L 363.342007 190.064147 
L 363.474056 190.064147 
L 363.542082 188.954422 
L 363.606106 189.076454 
L 363.674132 189.076454 
L 363.806182 190.184907 
L 363.874208 190.184907 
L 364.006257 190.305391 
L 364.074283 190.305391 
L 364.206333 189.198206 
L 364.342384 189.31968 
L 364.406408 189.31968 
L 364.54246 190.4256 
L 364.67451 190.545534 
L 364.742535 190.545534 
L 364.874585 189.440877 
L 365.006635 189.561797 
L 365.206711 189.561797 
L 365.274736 189.682442 
L 365.342762 190.784583 
L 365.474812 189.682442 
L 365.542837 189.682442 
L 365.674887 189.802812 
L 365.874963 189.802812 
L 365.942988 189.922909 
L 366.007013 188.823273 
L 366.143064 189.922909 
L 366.207088 189.922909 
L 366.343139 190.042733 
L 366.543215 190.042733 
L 366.675265 189.065143 
L 366.743291 189.065143 
L 366.87534 190.162286 
L 367.00739 190.281567 
L 367.143442 190.281567 
L 367.207466 189.185667 
L 367.275491 189.305919 
L 367.475567 189.305919 
L 367.607617 190.519322 
L 367.743668 190.519322 
L 367.875718 189.425898 
L 368.007768 189.545607 
L 368.207843 189.545607 
L 368.275869 189.665046 
L 368.407919 190.756005 
L 368.54397 189.665046 
L 368.67602 189.784216 
L 368.876096 189.784216 
L 369.008145 189.903118 
L 369.208221 189.903118 
L 369.344272 190.021753 
L 369.544348 190.021753 
L 369.608372 190.140121 
L 369.744423 189.054061 
L 369.808447 189.054061 
L 369.944499 190.258224 
L 370.208599 190.258224 
L 370.34465 189.292434 
L 370.544725 189.292434 
L 370.60875 189.411221 
L 370.744801 190.493638 
L 370.808825 190.493638 
L 370.876851 189.411221 
L 370.944876 189.529743 
L 371.208976 189.529743 
L 371.345028 189.648 
L 371.409052 190.728 
L 371.545103 189.648 
L 371.677153 189.765993 
L 371.877228 189.765993 
L 372.009278 189.883724 
L 372.077304 188.806129 
L 372.209354 189.883724 
L 372.345405 190.001192 
L 372.545481 190.001192 
L 372.67753 190.1184 
L 372.80958 189.0432 
L 372.945632 190.235347 
L 373.209731 190.235347 
L 373.277757 190.352035 
L 373.409807 189.27922 
L 373.545858 189.27922 
L 373.609882 189.396837 
L 373.745934 190.468465 
L 373.877984 190.468465 
L 374.010033 189.514195 
L 374.210109 189.514195 
L 374.34616 189.631293 
L 374.410184 189.631293 
L 374.47821 190.700552 
L 374.546236 189.631293 
L 374.61026 189.748132 
L 374.878361 189.748132 
L 375.010411 189.864714 
L 375.078437 189.864714 
L 375.146462 188.797813 
L 375.278512 189.98104 
L 375.546613 189.98104 
L 375.678663 190.097109 
L 375.810713 189.032554 
L 375.878739 189.032554 
L 375.946764 189.149538 
L 376.078814 190.212923 
L 376.210864 190.212923 
L 376.27889 190.328483 
L 376.41094 189.266266 
L 376.546991 189.266266 
L 376.679041 189.382737 
L 376.811091 190.443789 
L 376.879116 190.443789 
L 376.947142 190.558843 
L 377.079192 189.498953 
L 377.211242 189.498953 
L 377.347293 189.614915 
L 377.411317 189.614915 
L 377.547369 190.673646 
L 377.679419 189.730623 
L 377.879494 189.730623 
L 378.011544 189.846079 
L 378.211619 189.846079 
L 378.347671 189.961282 
L 378.547746 189.961282 
L 378.679796 190.076235 
L 378.747822 190.076235 
L 378.879872 189.022118 
L 379.011921 189.137967 
L 379.147973 190.190938 
L 379.211997 190.190938 
L 379.348048 190.305391 
L 379.480098 189.253565 
L 379.548124 189.253565 
L 379.680174 189.368912 
L 379.748199 189.368912 
L 379.880249 190.419596 
L 379.948275 190.533553 
L 380.080325 189.484009 
L 380.212375 189.484009 
L 380.348426 189.598856 
L 380.480476 189.598856 
L 380.612526 190.760727 
L 380.748577 189.713455 
L 380.880627 189.713455 
L 381.012677 189.827805 
L 381.212752 189.827805 
L 381.280778 188.896898 
L 381.412828 189.941909 
L 381.548879 189.941909 
L 381.680929 190.055767 
L 381.812979 190.055767 
L 381.881004 189.011883 
L 381.94903 189.126621 
L 382.013054 189.126621 
L 382.149106 190.169379 
L 382.21313 190.169379 
L 382.349181 190.282747 
L 382.413205 190.282747 
L 382.549257 189.241111 
L 382.681307 189.355355 
L 382.749332 189.355355 
L 382.881382 190.395871 
L 383.013432 190.508752 
L 383.149483 189.469353 
L 383.213507 189.469353 
L 383.349559 189.583107 
L 383.549634 189.583107 
L 383.681684 189.696617 
L 383.88176 189.696617 
L 384.01381 189.809884 
L 384.213885 189.809884 
L 384.349936 188.887957 
L 384.481986 189.922909 
L 384.550012 189.922909 
L 384.682062 190.035692 
L 384.882137 190.035692 
L 385.014187 189.115492 
L 385.082213 189.115492 
L 385.214263 190.148235 
L 385.350314 190.260537 
L 385.482364 190.260537 
L 385.55039 189.228896 
L 385.614414 189.342058 
L 385.814489 189.342058 
L 385.950541 190.484426 
L 386.08259 190.484426 
L 386.21464 189.454979 
L 386.350692 189.56766 
L 386.550767 189.56766 
L 386.614791 189.680102 
L 386.682817 190.707363 
L 386.814867 189.680102 
L 386.882892 189.680102 
L 387.014942 189.792305 
L 387.215018 189.792305 
L 387.283044 189.904271 
L 387.351069 188.879186 
L 387.483119 189.904271 
L 387.551145 189.904271 
L 387.683195 190.016 
L 387.88327 190.016 
L 388.01532 189.104575 
L 388.151371 189.104575 
L 388.283421 190.23875 
L 388.483497 190.23875 
L 388.551522 189.216912 
L 388.615547 189.329013 
L 388.883648 189.329013 
L 388.951673 189.440877 
L 389.083723 190.460561 
L 389.151749 190.460561 
L 389.215773 189.440877 
L 389.283799 189.552505 
L 389.5519 189.552505 
L 389.68395 189.663899 
L 389.751975 190.681438 
L 389.884025 189.663899 
L 390.016075 189.775059 
L 390.352202 189.885985 
L 390.416226 188.870581 
L 390.552278 189.885985 
L 390.684327 189.996679 
L 390.952429 190.107141 
L 391.084478 189.093864 
L 391.152504 189.093864 
L 391.284554 190.217372 
L 391.552655 190.217372 
L 391.684705 189.316213 
L 391.952806 189.42704 
L 392.084856 190.437144 
L 392.152882 190.437144 
L 392.216906 189.42704 
L 392.284932 189.537635 
L 392.685083 189.648 
L 392.753108 190.656 
L 392.885158 189.648 
L 393.017208 189.758135 
L 393.417359 189.868042 
L 393.485385 188.862137 
L 393.617435 189.97772 
L 394.017586 190.08717 
L 394.153637 189.083353 
L 394.285687 189.193617 
L 394.417737 190.196394 
L 394.617812 190.305391 
L 394.753863 189.303652 
L 395.017963 189.41346 
L 395.154015 190.414163 
L 395.218039 190.414163 
L 395.35409 189.523041 
L 395.754241 189.632396 
L 395.818265 190.631034 
L 395.886291 189.632396 
L 395.954317 189.741526 
L 396.418492 189.85043 
L 396.486518 188.85385 
L 396.618567 189.959111 
L 397.018718 190.067568 
L 397.15477 189.073036 
L 397.28682 189.182292 
L 397.418869 190.175803 
L 397.686971 190.283815 
L 397.81902 189.291323 
L 398.087122 189.400131 
L 398.219172 190.391607 
L 398.287197 190.499177 
L 398.419247 189.508716 
L 398.487273 189.508716 
L 398.487273 189.508716 
" style="fill:none;stroke:#1f77b4;stroke-linecap:square;stroke-width:1.5;"/>
   </g>
   <g id="patch_3">
    <path d="M 57.6 307.584 
L 57.6 41.472 
" style="fill:none;stroke:#000000;stroke-linecap:square;stroke-linejoin:miter;stroke-width:0.8;"/>
   </g>
   <g id="patch_4">
    <path d="M 414.72 307.584 
L 414.72 41.472 
" style="fill:none;stroke:#000000;stroke-linecap:square;stroke-linejoin:miter;stroke-width:0.8;"/>
   </g>
   <g id="patch_5">
    <path d="M 57.6 307.584 
L 414.72 307.584 
" style="fill:none;stroke:#000000;stroke-linecap:square;stroke-linejoin:miter;stroke-width:0.8;"/>
   </g>
   <g id="patch_6">
    <path d="M 57.6 41.472 
L 414.72 41.472 
" style="fill:none;stroke:#000000;stroke-linecap:square;stroke-linejoin:miter;stroke-width:0.8;"/>
   </g>
   <g id="text_20">
    <!-- Speed function of time -->
    <g transform="translate(167.024063 35.472)scale(0.12 -0.12)">
     <defs>
      <path id="DejaVuSerif-32"/>
      <path d="M 43.015625 63.71875 
L 38.28125 63.71875 
Q 38.234375 67.390625 36.203125 69.28125 
Q 34.1875 71.1875 30.328125 71.1875 
Q 25.296875 71.1875 23.234375 68.421875 
Q 21.1875 65.671875 21.1875 58.59375 
L 21.1875 51.90625 
L 35.6875 51.90625 
L 35.6875 46.6875 
L 21.1875 46.6875 
L 21.1875 5.171875 
L 32.71875 5.171875 
L 32.71875 0 
L 3.609375 0 
L 3.609375 5.171875 
L 12.203125 5.171875 
L 12.203125 46.6875 
L 3.609375 46.6875 
L 3.609375 51.90625 
L 12.203125 51.90625 
L 12.203125 58.40625 
Q 12.203125 67.09375 16.71875 71.53125 
Q 21.234375 75.984375 29.984375 75.984375 
Q 33.25 75.984375 36.515625 75.390625 
Q 39.796875 74.8125 43.015625 73.578125 
z
" id="DejaVuSerif-102"/>
      <path d="M 35.40625 51.90625 
L 52.203125 51.90625 
L 52.203125 5.171875 
L 60.6875 5.171875 
L 60.6875 0 
L 43.21875 0 
L 43.21875 9.1875 
Q 40.71875 4 36.765625 1.28125 
Q 32.8125 -1.421875 27.59375 -1.421875 
Q 18.953125 -1.421875 14.875 3.484375 
Q 10.796875 8.40625 10.796875 18.890625 
L 10.796875 46.6875 
L 2.6875 46.6875 
L 2.6875 51.90625 
L 19.828125 51.90625 
L 19.828125 21.6875 
Q 19.828125 12.203125 22.140625 8.6875 
Q 24.46875 5.171875 30.421875 5.171875 
Q 36.671875 5.171875 39.9375 9.765625 
Q 43.21875 14.359375 43.21875 23.09375 
L 43.21875 46.6875 
L 35.40625 46.6875 
z
" id="DejaVuSerif-117"/>
      <path d="M 4.109375 0 
L 4.109375 5.171875 
L 12.203125 5.171875 
L 12.203125 46.6875 
L 3.609375 46.6875 
L 3.609375 51.90625 
L 21.1875 51.90625 
L 21.1875 42.671875 
Q 23.6875 47.953125 27.65625 50.640625 
Q 31.640625 53.328125 36.921875 53.328125 
Q 45.515625 53.328125 49.5625 48.390625 
Q 53.609375 43.453125 53.609375 33.015625 
L 53.609375 5.171875 
L 61.625 5.171875 
L 61.625 0 
L 36.8125 0 
L 36.8125 5.171875 
L 44.578125 5.171875 
L 44.578125 30.171875 
Q 44.578125 39.703125 42.234375 43.234375 
Q 39.890625 46.78125 33.984375 46.78125 
Q 27.734375 46.78125 24.453125 42.203125 
Q 21.1875 37.640625 21.1875 28.90625 
L 21.1875 5.171875 
L 29 5.171875 
L 29 0 
z
" id="DejaVuSerif-110"/>
      <path d="M 51.421875 15.578125 
Q 49.515625 7.28125 44.09375 2.921875 
Q 38.671875 -1.421875 30.078125 -1.421875 
Q 18.75 -1.421875 11.859375 6.078125 
Q 4.984375 13.578125 4.984375 25.984375 
Q 4.984375 38.421875 11.859375 45.875 
Q 18.75 53.328125 30.078125 53.328125 
Q 35.015625 53.328125 39.890625 52.171875 
Q 44.78125 51.03125 49.703125 48.6875 
L 49.703125 35.40625 
L 44.484375 35.40625 
Q 43.453125 42.234375 40.015625 45.359375 
Q 36.578125 48.484375 30.171875 48.484375 
Q 22.90625 48.484375 19.1875 42.84375 
Q 15.484375 37.203125 15.484375 25.984375 
Q 15.484375 14.75 19.171875 9.078125 
Q 22.859375 3.421875 30.171875 3.421875 
Q 35.984375 3.421875 39.453125 6.4375 
Q 42.921875 9.46875 44.1875 15.578125 
z
" id="DejaVuSerif-99"/>
      <path d="M 10.796875 46.6875 
L 2.875 46.6875 
L 2.875 51.90625 
L 10.796875 51.90625 
L 10.796875 68.015625 
L 19.828125 68.015625 
L 19.828125 51.90625 
L 36.71875 51.90625 
L 36.71875 46.6875 
L 19.828125 46.6875 
L 19.828125 13.71875 
Q 19.828125 7.125 21.09375 5.265625 
Q 22.359375 3.421875 25.78125 3.421875 
Q 29.296875 3.421875 30.90625 5.484375 
Q 32.515625 7.5625 32.625 12.203125 
L 39.40625 12.203125 
Q 39.015625 5.125 35.546875 1.84375 
Q 32.078125 -1.421875 25 -1.421875 
Q 17.234375 -1.421875 14.015625 2.015625 
Q 10.796875 5.46875 10.796875 13.71875 
z
" id="DejaVuSerif-116"/>
      <path d="M 30.078125 3.421875 
Q 37.3125 3.421875 40.984375 9.125 
Q 44.671875 14.84375 44.671875 25.984375 
Q 44.671875 37.109375 40.984375 42.796875 
Q 37.3125 48.484375 30.078125 48.484375 
Q 22.859375 48.484375 19.171875 42.796875 
Q 15.484375 37.109375 15.484375 25.984375 
Q 15.484375 14.84375 19.1875 9.125 
Q 22.90625 3.421875 30.078125 3.421875 
z
M 30.078125 -1.421875 
Q 18.75 -1.421875 11.859375 6.078125 
Q 4.984375 13.578125 4.984375 25.984375 
Q 4.984375 38.375 11.84375 45.84375 
Q 18.703125 53.328125 30.078125 53.328125 
Q 41.453125 53.328125 48.3125 45.84375 
Q 55.171875 38.375 55.171875 25.984375 
Q 55.171875 13.578125 48.3125 6.078125 
Q 41.453125 -1.421875 30.078125 -1.421875 
z
" id="DejaVuSerif-111"/>
     </defs>
     <use xlink:href="#DejaVuSerif-83"/>
     <use x="68.505859" xlink:href="#DejaVuSerif-112"/>
     <use x="132.519531" xlink:href="#DejaVuSerif-101"/>
     <use x="191.699219" xlink:href="#DejaVuSerif-101"/>
     <use x="250.878906" xlink:href="#DejaVuSerif-100"/>
     <use x="314.892578" xlink:href="#DejaVuSerif-32"/>
     <use x="346.679688" xlink:href="#DejaVuSerif-102"/>
     <use x="383.691406" xlink:href="#DejaVuSerif-117"/>
     <use x="448.095703" xlink:href="#DejaVuSerif-110"/>
     <use x="512.5" xlink:href="#DejaVuSerif-99"/>
     <use x="568.505859" xlink:href="#DejaVuSerif-116"/>
     <use x="608.691406" xlink:href="#DejaVuSerif-105"/>
     <use x="640.673828" xlink:href="#DejaVuSerif-111"/>
     <use x="700.878906" xlink:href="#DejaVuSerif-110"/>
     <use x="765.283203" xlink:href="#DejaVuSerif-32"/>
     <use x="797.070312" xlink:href="#DejaVuSerif-111"/>
     <use x="857.275391" xlink:href="#DejaVuSerif-102"/>
     <use x="894.287109" xlink:href="#DejaVuSerif-32"/>
     <use x="926.074219" xlink:href="#DejaVuSerif-116"/>
     <use x="966.259766" xlink:href="#DejaVuSerif-105"/>
     <use x="998.242188" xlink:href="#DejaVuSerif-109"/>
     <use x="1093.066406" xlink:href="#DejaVuSerif-101"/>
    </g>
   </g>
  </g>
 </g>
 <defs>
  <clipPath id="p0f7a54dd67">
   <rect height="266.112" width="357.12" x="57.6" y="41.472"/>
  </clipPath>
 </defs>
</svg>
