<?xml version="1.0" encoding="UTF-8" standalone="no"?>
<!-- Created with Inkscape (http://www.inkscape.org/) -->

<svg
   width="75mm"
   height="62mm"
   viewBox="0 0 75 62"
   version="1.1"
   id="svg14443"
   inkscape:version="1.2.1 (0f2f062aeb, 2022-09-21, custom)"
   sodipodi:docname="ci.svg"
   inkscape:export-filename="../a84b736b/coex2.png"
   inkscape:export-xdpi="200"
   inkscape:export-ydpi="200"
   xmlns:inkscape="http://www.inkscape.org/namespaces/inkscape"
   xmlns:sodipodi="http://sodipodi.sourceforge.net/DTD/sodipodi-0.dtd"
   xmlns="http://www.w3.org/2000/svg"
   xmlns:svg="http://www.w3.org/2000/svg">
  <sodipodi:namedview
     id="namedview14445"
     pagecolor="#ffffff"
     bordercolor="#666666"
     borderopacity="1.0"
     inkscape:showpageshadow="2"
     inkscape:pageopacity="0.0"
     inkscape:pagecheckerboard="0"
     inkscape:deskcolor="#d1d1d1"
     inkscape:document-units="mm"
     showgrid="false"
     showguides="true"
     inkscape:zoom="3.2404348"
     inkscape:cx="122.82302"
     inkscape:cy="124.82893"
     inkscape:window-width="1853"
     inkscape:window-height="1018"
     inkscape:window-x="67"
     inkscape:window-y="34"
     inkscape:window-maximized="1"
     inkscape:current-layer="line2d_14" />
  <defs
     id="defs14440">
    <clipPath
       id="p840022f3ac">
      <rect
         id="rect6186"
         y="41.472"
         x="57.599998"
         width="357.12"
         height="266.112" />
    </clipPath>
    <clipPath
       id="clipPath14303">
      <rect
         id="rect14301"
         y="41.472"
         x="57.599998"
         width="357.12"
         height="266.112" />
    </clipPath>
    <clipPath
       id="clipPath14307">
      <rect
         id="rect14305"
         y="41.472"
         x="57.599998"
         width="357.12"
         height="266.112" />
    </clipPath>
    <clipPath
       id="clipPath14311">
      <rect
         id="rect14309"
         y="41.472"
         x="57.599998"
         width="357.12"
         height="266.112" />
    </clipPath>
    <clipPath
       id="clipPath14315">
      <rect
         id="rect14313"
         y="41.472"
         x="57.599998"
         width="357.12"
         height="266.112" />
    </clipPath>
    <clipPath
       id="clipPath14319">
      <rect
         id="rect14317"
         y="41.472"
         x="57.599998"
         width="357.12"
         height="266.112" />
    </clipPath>
    <clipPath
       id="clipPath14323">
      <rect
         id="rect14321"
         y="41.472"
         x="57.599998"
         width="357.12"
         height="266.112" />
    </clipPath>
    <clipPath
       id="clipPath14327">
      <rect
         id="rect14325"
         y="41.472"
         x="57.599998"
         width="357.12"
         height="266.112" />
    </clipPath>
    <clipPath
       id="clipPath14331">
      <rect
         id="rect14329"
         y="41.472"
         x="57.599998"
         width="357.12"
         height="266.112" />
    </clipPath>
    <clipPath
       id="clipPath14335">
      <rect
         id="rect14333"
         y="41.472"
         x="57.599998"
         width="357.12"
         height="266.112" />
    </clipPath>
    <clipPath
       id="clipPath14339">
      <rect
         id="rect14337"
         y="41.472"
         x="57.599998"
         width="357.12"
         height="266.112" />
    </clipPath>
    <clipPath
       id="clipPath14343">
      <rect
         id="rect14341"
         y="41.472"
         x="57.599998"
         width="357.12"
         height="266.112" />
    </clipPath>
    <clipPath
       id="clipPath14347">
      <rect
         id="rect14345"
         y="41.472"
         x="57.599998"
         width="357.12"
         height="266.112" />
    </clipPath>
    <path
       style="stroke:#000000;stroke-width:0.8;stroke-linecap:butt;stroke-linejoin:round"
       id="path6276"
       d="M 0,0 H -3.5"
       inkscape:connector-curvature="0" />
    <path
       id="path6282"
       d="m 31.78125,3.421875 q 7.484375,0 11.1875,8.203125 3.71875,8.203125 3.71875,24.75 0,16.609375 -3.71875,24.8125 -3.703125,8.203125 -11.1875,8.203125 -7.46875,0 -11.1875,-8.203125 -3.703125,-8.203125 -3.703125,-24.8125 0,-16.546875 3.703125,-24.75 3.71875,-8.203125 11.1875,-8.203125 z m 0,-4.84375 Q 19.921875,-1.421875 13.25,8.53125 6.59375,18.5 6.59375,36.375 q 0,17.921875 6.65625,27.875 6.671875,9.96875 18.53125,9.96875 11.921875,0 18.5625,-9.96875 6.640625,-9.953125 6.640625,-27.875 0,-17.875 -6.640625,-27.84375 -6.640625,-9.953125 -18.5625,-9.953125 z"
       inkscape:connector-curvature="0"
       style="stroke-linecap:butt;stroke-linejoin:round" />
    <path
       id="path6294"
       d="M 14.203125,0 V 5.171875 H 26.90625 v 60.65625 l -14.703125,-9.53125 v 6.40625 L 29.984375,74.21875 H 36.71875 V 5.171875 H 49.421875 V 0 Z"
       inkscape:connector-curvature="0"
       style="stroke-linecap:butt;stroke-linejoin:round" />
    <clipPath
       id="p840022f3ac-1">
      <rect
         id="rect6186-2"
         y="41.472"
         x="57.599998"
         width="357.12"
         height="266.112" />
    </clipPath>
    <clipPath
       id="clipPath14303-7">
      <rect
         id="rect14301-0"
         y="41.472"
         x="57.599998"
         width="357.12"
         height="266.112" />
    </clipPath>
    <clipPath
       id="clipPath14307-9">
      <rect
         id="rect14305-3"
         y="41.472"
         x="57.599998"
         width="357.12"
         height="266.112" />
    </clipPath>
    <clipPath
       id="clipPath14311-6">
      <rect
         id="rect14309-0"
         y="41.472"
         x="57.599998"
         width="357.12"
         height="266.112" />
    </clipPath>
    <clipPath
       id="clipPath14315-6">
      <rect
         id="rect14313-2"
         y="41.472"
         x="57.599998"
         width="357.12"
         height="266.112" />
    </clipPath>
    <clipPath
       id="clipPath14319-6">
      <rect
         id="rect14317-1"
         y="41.472"
         x="57.599998"
         width="357.12"
         height="266.112" />
    </clipPath>
    <clipPath
       id="clipPath14323-8">
      <rect
         id="rect14321-7"
         y="41.472"
         x="57.599998"
         width="357.12"
         height="266.112" />
    </clipPath>
    <clipPath
       id="clipPath14327-9">
      <rect
         id="rect14325-2"
         y="41.472"
         x="57.599998"
         width="357.12"
         height="266.112" />
    </clipPath>
    <clipPath
       id="clipPath14331-0">
      <rect
         id="rect14329-2"
         y="41.472"
         x="57.599998"
         width="357.12"
         height="266.112" />
    </clipPath>
    <clipPath
       id="clipPath14335-3">
      <rect
         id="rect14333-7"
         y="41.472"
         x="57.599998"
         width="357.12"
         height="266.112" />
    </clipPath>
    <clipPath
       id="clipPath14339-5">
      <rect
         id="rect14337-9"
         y="41.472"
         x="57.599998"
         width="357.12"
         height="266.112" />
    </clipPath>
    <clipPath
       id="clipPath14343-2">
      <rect
         id="rect14341-2"
         y="41.472"
         x="57.599998"
         width="357.12"
         height="266.112" />
    </clipPath>
    <clipPath
       id="clipPath14347-8">
      <rect
         id="rect14345-9"
         y="41.472"
         x="57.599998"
         width="357.12"
         height="266.112" />
    </clipPath>
    <path
       style="stroke:#000000;stroke-width:0.8;stroke-linecap:butt;stroke-linejoin:round"
       id="path6276-8"
       d="M 0,0 H -3.5"
       inkscape:connector-curvature="0" />
    <path
       id="path6282-2"
       d="m 31.78125,3.421875 q 7.484375,0 11.1875,8.203125 3.71875,8.203125 3.71875,24.75 0,16.609375 -3.71875,24.8125 -3.703125,8.203125 -11.1875,8.203125 -7.46875,0 -11.1875,-8.203125 -3.703125,-8.203125 -3.703125,-24.8125 0,-16.546875 3.703125,-24.75 3.71875,-8.203125 11.1875,-8.203125 z m 0,-4.84375 Q 19.921875,-1.421875 13.25,8.53125 6.59375,18.5 6.59375,36.375 q 0,17.921875 6.65625,27.875 6.671875,9.96875 18.53125,9.96875 11.921875,0 18.5625,-9.96875 6.640625,-9.953125 6.640625,-27.875 0,-17.875 -6.640625,-27.84375 -6.640625,-9.953125 -18.5625,-9.953125 z"
       inkscape:connector-curvature="0"
       style="stroke-linecap:butt;stroke-linejoin:round" />
    <path
       id="path6294-0"
       d="M 14.203125,0 V 5.171875 H 26.90625 v 60.65625 l -14.703125,-9.53125 v 6.40625 L 29.984375,74.21875 H 36.71875 V 5.171875 H 49.421875 V 0 Z"
       inkscape:connector-curvature="0"
       style="stroke-linecap:butt;stroke-linejoin:round" />
    <clipPath
       id="pc11f1cbaab">
      <rect
         height="266.112"
         width="357.12"
         x="57.599998"
         y="41.472"
         id="rect40516" />
    </clipPath>
    <clipPath
       id="pc11f1cbaab-1">
      <rect
         height="266.112"
         width="357.12"
         x="57.599998"
         y="41.472"
         id="rect40516-1" />
    </clipPath>
    <clipPath
       id="pc11f1cbaab-5">
      <rect
         height="266.112"
         width="357.12"
         x="57.599998"
         y="41.472"
         id="rect40516-9" />
    </clipPath>
    <clipPath
       id="p2b3fe4730a">
      <rect
         height="266.112"
         width="357.12"
         x="57.599998"
         y="41.472"
         id="rect40135" />
    </clipPath>
    <clipPath
       id="p2b3fe4730a-7">
      <rect
         height="266.112"
         width="357.12"
         x="57.599998"
         y="41.472"
         id="rect40135-7" />
    </clipPath>
  </defs>
  <g
     inkscape:label="Layer 1"
     inkscape:groupmode="layer"
     id="layer1">
    <text
       xml:space="preserve"
       style="font-size:4.93889px;line-height:1.25;font-family:Sawasdee;-inkscape-font-specification:Sawasdee;stroke-width:0.264583;stroke-linecap:butt;stroke-linejoin:round"
       x="-49.315277"
       y="11.844478"
       id="text14384-0-9"
       transform="rotate(-90)"><tspan
         sodipodi:role="line"
         id="tspan14382-6-4"
         style="font-size:4.93889px;stroke-width:0.264583"
         x="-49.315277"
         y="11.844478">Allele densities</tspan></text>
    <g
       id="patch_7-2-9"
       style="stroke-linecap:butt;stroke-linejoin:round"
       transform="matrix(0.25148958,0,0,0.22007518,2.0170078,3.4686737)">
      <path
         id="path5417-1"
         style="opacity:0.8;fill:#ffffff;stroke:#cccccc;stroke-width:1.11111;stroke-linecap:butt;stroke-linejoin:miter"
         d="M 59.715047,36.448128 H 246.65842 q 2.39926,0 2.39926,-2.963873 V 13.003433 q 0,-2.963872 -2.39926,-2.963872 H 59.715047 q -2.399257,0 -2.399257,2.963872 v 20.480822 q 0,2.963873 2.399257,2.963873 z"
         inkscape:connector-curvature="0" />
    </g>
    <g
       id="line2d_16-6-2"
       style="stroke-width:14.728;stroke-linecap:butt;stroke-linejoin:round;stroke-miterlimit:4;stroke-dasharray:none"
       transform="matrix(0.13579575,0,0,0.13579575,29.144188,5.4846997)">
      <path
         id="path5420-7"
         style="fill:none;stroke:#6495ed;stroke-width:14.728;stroke-linecap:square;stroke-linejoin:round;stroke-miterlimit:4;stroke-dasharray:none"
         d="m 62.08611,22.595565 h 24"
         inkscape:connector-curvature="0" />
    </g>
    <g
       id="line2d_18-8-0"
       style="stroke-linecap:butt;stroke-linejoin:round"
       transform="matrix(0.13579575,0,0,0.13579575,-5.6441888,5.5402747)">
      <path
         id="path5450-9"
         style="fill:none;stroke:#dc143c;stroke-width:14.728;stroke-linecap:square;stroke-linejoin:round;stroke-miterlimit:4;stroke-dasharray:none"
         d="m 177.61048,22.595565 h 24"
         inkscape:connector-curvature="0" />
    </g>
    <text
       xml:space="preserve"
       style="font-size:4.23333px;line-height:1.25;font-family:Sawasdee;-inkscape-font-specification:Sawasdee;stroke-width:0.264583;stroke-linecap:butt;stroke-linejoin:round"
       x="42.738148"
       y="10.115115"
       id="text14384-3"><tspan
         sodipodi:role="line"
         id="tspan14382-60"
         style="font-size:4.23333px;stroke-width:0.264583"
         x="42.738148"
         y="10.115115">Wild-type</tspan></text>
    <text
       xml:space="preserve"
       style="font-size:4.23333px;line-height:1.25;font-family:Sawasdee;-inkscape-font-specification:Sawasdee;stroke-width:0.264583;stroke-linecap:butt;stroke-linejoin:round"
       x="23.570133"
       y="10.093966"
       id="text14384-0-6"><tspan
         sodipodi:role="line"
         id="tspan14382-6-2"
         style="font-size:4.23333px;stroke-width:0.264583"
         x="23.570133"
         y="10.093966">Drive</tspan></text>
    <g
       id="figure_1-8"
       transform="matrix(0.13615599,0,0,0.13615599,56.47835,89.190355)"
       style="stroke-linecap:butt;stroke-linejoin:round">
      <g
         id="patch_2-4"
         style="stroke-linecap:butt;stroke-linejoin:round"
         transform="translate(-350.34925,-579.99028)">
        <path
           id="path5940"
           style="fill:#ffffff;stroke-linecap:butt;stroke-linejoin:round"
           d="M 57.6,307.584 H 414.72 V 41.472 H 57.6 Z"
           inkscape:connector-curvature="0" />
      </g>
      <g
         id="matplotlib.axis_1-51"
         style="stroke-linecap:butt;stroke-linejoin:round"
         transform="translate(-350.34925,-579.99028)">
        <g
           id="xtick_1-75"
           style="stroke-linecap:butt;stroke-linejoin:round">
          <g
             id="line2d_1-71"
             style="stroke-linecap:butt;stroke-linejoin:round">
            <path
               id="path5943"
               style="fill:none;stroke:#b0b0b0;stroke-width:0.8;stroke-linecap:square;stroke-linejoin:round"
               d="M 73.832727,307.584 V 41.472"
               clip-path="url(#p840022f3ac)"
               inkscape:connector-curvature="0" />
          </g>
        </g>
        <g
           id="xtick_2-6"
           style="stroke-linecap:butt;stroke-linejoin:round">
          <g
             id="line2d_2-9"
             style="stroke-linecap:butt;stroke-linejoin:round">
            <path
               id="path5947"
               style="fill:none;stroke:#b0b0b0;stroke-width:0.8;stroke-linecap:square;stroke-linejoin:round"
               d="M 114.41455,307.584 V 41.472"
               clip-path="url(#p840022f3ac)"
               inkscape:connector-curvature="0" />
          </g>
        </g>
        <g
           id="xtick_3-8"
           style="stroke-linecap:butt;stroke-linejoin:round">
          <g
             id="line2d_3-1"
             style="stroke-linecap:butt;stroke-linejoin:round">
            <path
               id="path5951"
               style="fill:none;stroke:#b0b0b0;stroke-width:0.8;stroke-linecap:square;stroke-linejoin:round"
               d="M 154.99636,307.584 V 41.472"
               clip-path="url(#p840022f3ac)"
               inkscape:connector-curvature="0" />
          </g>
        </g>
        <g
           id="xtick_4-33"
           style="stroke-linecap:butt;stroke-linejoin:round">
          <g
             id="line2d_4-37"
             style="stroke-linecap:butt;stroke-linejoin:round">
            <path
               id="path5955"
               style="fill:none;stroke:#b0b0b0;stroke-width:0.8;stroke-linecap:square;stroke-linejoin:round"
               d="M 195.57818,307.584 V 41.472"
               clip-path="url(#p840022f3ac)"
               inkscape:connector-curvature="0" />
          </g>
        </g>
        <g
           id="xtick_5-9"
           style="stroke-linecap:butt;stroke-linejoin:round">
          <g
             id="line2d_5-86"
             style="stroke-linecap:butt;stroke-linejoin:round">
            <path
               id="path5959"
               style="fill:none;stroke:#b0b0b0;stroke-width:0.8;stroke-linecap:square;stroke-linejoin:round"
               d="M 236.16,307.584 V 41.472"
               clip-path="url(#p840022f3ac)"
               inkscape:connector-curvature="0" />
          </g>
        </g>
        <g
           id="xtick_6-70"
           style="stroke-linecap:butt;stroke-linejoin:round">
          <g
             id="line2d_6-48"
             style="stroke-linecap:butt;stroke-linejoin:round">
            <path
               id="path5963"
               style="fill:none;stroke:#b0b0b0;stroke-width:0.8;stroke-linecap:square;stroke-linejoin:round"
               d="M 276.74182,307.584 V 41.472"
               clip-path="url(#p840022f3ac)"
               inkscape:connector-curvature="0" />
          </g>
        </g>
        <g
           id="xtick_7-4"
           style="stroke-linecap:butt;stroke-linejoin:round">
          <g
             id="line2d_7-81"
             style="stroke-linecap:butt;stroke-linejoin:round">
            <path
               id="path5967"
               style="fill:none;stroke:#b0b0b0;stroke-width:0.8;stroke-linecap:square;stroke-linejoin:round"
               d="M 317.32364,307.584 V 41.472"
               clip-path="url(#p840022f3ac)"
               inkscape:connector-curvature="0" />
          </g>
        </g>
        <g
           id="xtick_8-68"
           style="stroke-linecap:butt;stroke-linejoin:round">
          <g
             id="line2d_8-52"
             style="stroke-linecap:butt;stroke-linejoin:round">
            <path
               id="path5971"
               style="fill:none;stroke:#b0b0b0;stroke-width:0.8;stroke-linecap:square;stroke-linejoin:round"
               d="M 357.90546,307.584 V 41.472"
               clip-path="url(#p840022f3ac)"
               inkscape:connector-curvature="0" />
          </g>
        </g>
        <g
           id="xtick_9-19"
           style="stroke-linecap:butt;stroke-linejoin:round">
          <g
             id="line2d_9-96"
             style="stroke-linecap:butt;stroke-linejoin:round">
            <path
               id="path5975"
               style="fill:none;stroke:#b0b0b0;stroke-width:0.8;stroke-linecap:square;stroke-linejoin:round"
               d="M 398.48727,307.584 V 41.472"
               clip-path="url(#p840022f3ac)"
               inkscape:connector-curvature="0" />
          </g>
        </g>
      </g>
      <g
         id="matplotlib.axis_2-93"
         style="stroke-linecap:butt;stroke-linejoin:round"
         transform="translate(-350.34925,-579.99028)">
        <g
           id="ytick_1-14"
           style="stroke-linecap:butt;stroke-linejoin:round">
          <g
             id="line2d_10-8"
             style="stroke-linecap:butt;stroke-linejoin:round">
            <path
               id="path6000"
               style="fill:none;stroke:#b0b0b0;stroke-width:0.8;stroke-linecap:square;stroke-linejoin:round"
               d="M 57.6,300.05253 H 414.72"
               clip-path="url(#p840022f3ac)"
               inkscape:connector-curvature="0" />
          </g>
          <g
             id="line2d_11-96"
             style="stroke-linecap:butt;stroke-linejoin:round">
            <defs
               id="defs6004">
              <path
                 style="stroke:#000000;stroke-width:0.8;stroke-linecap:butt;stroke-linejoin:round"
                 id="path14872"
                 d="M 0,0 H -3.5"
                 inkscape:connector-curvature="0" />
            </defs>
            <g
               id="g6008"
               style="stroke-linecap:butt;stroke-linejoin:round">
              <path
                 style="stroke:#000000;stroke-width:0.8;stroke-linecap:butt;stroke-linejoin:round"
                 id="use6006"
                 d="m 57.599998,300.05252 h -3.5" />
            </g>
          </g>
          <g
             id="text_2-7"
             style="stroke-linecap:butt;stroke-linejoin:round">
            <!-- 0 -->
            <g
               id="g6016"
               transform="matrix(0.2,0,0,-0.2,37.875,307.65097)"
               style="stroke-linecap:butt;stroke-linejoin:round">
              <defs
                 id="defs6012">
                <path
                   id="path14878"
                   d="m 31.78125,3.421875 q 7.484375,0 11.1875,8.203125 3.71875,8.203125 3.71875,24.75 0,16.609375 -3.71875,24.8125 -3.703125,8.203125 -11.1875,8.203125 -7.46875,0 -11.1875,-8.203125 -3.703125,-8.203125 -3.703125,-24.8125 0,-16.546875 3.703125,-24.75 3.71875,-8.203125 11.1875,-8.203125 z m 0,-4.84375 Q 19.921875,-1.421875 13.25,8.53125 6.59375,18.5 6.59375,36.375 q 0,17.921875 6.65625,27.875 6.671875,9.96875 18.53125,9.96875 11.921875,0 18.5625,-9.96875 6.640625,-9.953125 6.640625,-27.875 0,-17.875 -6.640625,-27.84375 -6.640625,-9.953125 -18.5625,-9.953125 z"
                   inkscape:connector-curvature="0"
                   style="stroke-linecap:butt;stroke-linejoin:round" />
              </defs>
              <path
                 id="use6014"
                 d="m 31.78125,3.421875 q 7.484375,0 11.1875,8.203125 3.71875,8.203125 3.71875,24.75 0,16.609375 -3.71875,24.8125 -3.703125,8.203125 -11.1875,8.203125 -7.46875,0 -11.1875,-8.203125 -3.703125,-8.203125 -3.703125,-24.8125 0,-16.546875 3.703125,-24.75 3.71875,-8.203125 11.1875,-8.203125 z m 0,-4.84375 Q 19.921875,-1.421875 13.25,8.53125 6.59375,18.5 6.59375,36.375 q 0,17.921875 6.65625,27.875 6.671875,9.96875 18.53125,9.96875 11.921875,0 18.5625,-9.96875 6.640625,-9.953125 6.640625,-27.875 0,-17.875 -6.640625,-27.84375 -6.640625,-9.953125 -18.5625,-9.953125 z"
                 style="stroke-linecap:butt;stroke-linejoin:round" />
            </g>
          </g>
        </g>
        <g
           id="ytick_2-71"
           style="stroke-linecap:butt;stroke-linejoin:round">
          <g
             id="line2d_12-22"
             style="stroke-linecap:butt;stroke-linejoin:round">
            <path
               id="path6020"
               style="fill:none;stroke:#b0b0b0;stroke-width:0.8;stroke-linecap:square;stroke-linejoin:round"
               d="M 57.6,49.003472 H 414.72"
               clip-path="url(#p840022f3ac)"
               inkscape:connector-curvature="0" />
          </g>
          <g
             id="line2d_13-15"
             style="stroke-linecap:butt;stroke-linejoin:round">
            <g
               id="g6025"
               style="stroke-linecap:butt;stroke-linejoin:round">
              <path
                 style="stroke:#000000;stroke-width:0.8;stroke-linecap:butt;stroke-linejoin:round"
                 id="use6023"
                 d="m 57.599998,49.003471 h -3.5" />
            </g>
          </g>
          <g
             id="text_3-0"
             style="stroke-linecap:butt;stroke-linejoin:round">
            <!-- 1 -->
            <g
               id="g6033"
               transform="matrix(0.2,0,0,-0.2,37.875,56.601909)"
               style="stroke-linecap:butt;stroke-linejoin:round">
              <defs
                 id="defs6029">
                <path
                   id="path14890"
                   d="M 14.203125,0 V 5.171875 H 26.90625 v 60.65625 l -14.703125,-9.53125 v 6.40625 L 29.984375,74.21875 H 36.71875 V 5.171875 H 49.421875 V 0 Z"
                   inkscape:connector-curvature="0"
                   style="stroke-linecap:butt;stroke-linejoin:round" />
              </defs>
              <path
                 id="use6031"
                 d="M 14.203125,0 V 5.171875 H 26.90625 v 60.65625 l -14.703125,-9.53125 v 6.40625 L 29.984375,74.21875 H 36.71875 V 5.171875 H 49.421875 V 0 Z"
                 style="stroke-linecap:butt;stroke-linejoin:round" />
            </g>
          </g>
        </g>
        <g
           id="text_4-0"
           style="stroke-linecap:butt;stroke-linejoin:round">
          <!-- Allele densities -->
        </g>
      </g>
      <g
         id="line2d_14-1"
         style="stroke-linecap:butt;stroke-linejoin:round"
         transform="matrix(1.0001893,0,0,0.98846523,-350.39454,-577.64069)">
        <g
           id="line2d_15"
           style="stroke-width:10.80620583;stroke-linecap:butt;stroke-linejoin:round;stroke-dasharray:none"
           transform="matrix(1.0401028,0,0,1.0107475,-9.7029845,-2.3521004)">
          <path
             clip-path="url(#p2b3fe4730a)"
             d="m 73.832727,300.05253 53.405673,-0.10092 0.32466,-0.20863 0.24349,-0.38257 0.24349,-0.79436 0.24349,-1.54835 0.32465,-4.08693 0.32466,-7.48797 0.48698,-18.13461 1.46094,-61.10973 0.64931,-16.78777 0.64931,-11.22747 0.64931,-7.46538 0.64931,-4.99033 0.64931,-3.36056 0.64931,-2.27812 0.64931,-1.55244 0.73047,-1.16879 0.73047,-0.76519 0.81164,-0.54603 0.97396,-0.394 1.29862,-0.27689 1.94793,-0.16904 3.97702,-0.0744 24.9984,-0.009 125.23549,-0.10484 1.46094,-0.23713 0.8928,-0.36173 0.64931,-0.48469 0.56815,-0.6894 0.56814,-1.08485 0.48698,-1.40859 0.48699,-2.0611 0.48698,-2.99458 0.48698,-4.30295 0.56814,-7.29617 0.56815,-10.47722 0.64931,-16.31856 1.70444,-46.15363 0.48698,-6.518572 0.40582,-2.945966 0.40581,-1.497844 0.40582,-0.694115 0.40582,-0.299387 0.64931,-0.156221 1.62327,-0.0418 68.01513,-6.97e-4 h 20.37207 v 0"
             style="fill:none;stroke:#6495ed;stroke-width:10.80620583;stroke-linecap:square;stroke-linejoin:round;stroke-dasharray:none"
             id="path40034" />
        </g>
        <g
           id="line2d_14"
           style="stroke-width:9.61767;stroke-linecap:butt;stroke-linejoin:round;stroke-dasharray:none"
           transform="matrix(1.0432286,0,0,1.2282724,-10.552065,-68.053382)">
          <path
             clip-path="url(#p2b3fe4730a-7)"
             d="m 73.832727,94.063559 53.568003,0.102448 0.32465,0.204193 0.24349,0.36324 0.24349,0.72965 0.2435,1.369326 0.32465,3.443354 0.32465,5.99696 0.48698,13.82816 1.46095,45.12488 0.64931,12.58384 0.64931,8.53523 0.64931,5.73931 0.64931,3.86842 0.64931,2.6205 0.6493,1.78382 0.73048,1.34159 0.73047,0.87753 0.81164,0.62578 0.97396,0.45132 1.21745,0.30337 1.7856,0.19304 3.32771,0.0927 13.96015,0.0163 137.89702,0.11073 1.37978,0.22745 0.8928,0.35773 0.64931,0.47934 0.56814,0.68182 0.56815,1.07294 0.48698,1.39311 0.48698,2.0381 0.48698,2.95968 0.48699,4.2474 0.56814,7.17789 0.56815,10.22293 0.73047,17.79803 1.29862,32.92592 0.48698,7.23123 0.40582,3.47438 0.40582,1.84743 0.40581,0.88668 0.40582,0.39281 0.56815,0.19719 1.13629,0.0669 11.68756,0.004 h 77.43011 v 0"
             style="fill:none;stroke:#dc143c;stroke-width:9.78803734;stroke-linecap:square;stroke-linejoin:round;stroke-dasharray:none"
             id="path40031" />
        </g>
      </g>
      <g
         id="line2d_15-7"
         style="stroke-linecap:butt;stroke-linejoin:round"
         transform="translate(-350.42432,-579.60511)" />
      <g
         id="patch_3-56"
         style="stroke-linecap:butt;stroke-linejoin:round"
         transform="translate(-350.34925,-579.99028)">
        <path
           id="path6089"
           style="fill:none;stroke:#000000;stroke-width:0.8;stroke-linecap:square;stroke-linejoin:miter"
           d="M 57.6,307.584 V 41.472"
           inkscape:connector-curvature="0" />
      </g>
      <g
         id="patch_4-54"
         style="stroke-linecap:butt;stroke-linejoin:round"
         transform="translate(-350.34925,-579.99028)">
        <path
           id="path6092"
           style="fill:none;stroke:#000000;stroke-width:0.8;stroke-linecap:square;stroke-linejoin:miter"
           d="M 414.72,307.584 V 41.472"
           inkscape:connector-curvature="0" />
      </g>
      <g
         id="patch_5-2"
         style="stroke-linecap:butt;stroke-linejoin:round"
         transform="translate(-350.34925,-579.99028)">
        <path
           id="path6095"
           style="fill:none;stroke:#000000;stroke-width:0.8;stroke-linecap:square;stroke-linejoin:miter"
           d="M 57.6,307.584 H 414.72"
           inkscape:connector-curvature="0" />
      </g>
      <g
         id="patch_6-2"
         style="stroke-linecap:butt;stroke-linejoin:round"
         transform="translate(-350.34925,-579.99028)">
        <path
           id="path6098"
           style="fill:none;stroke:#000000;stroke-width:0.8;stroke-linecap:square;stroke-linejoin:miter"
           d="M 57.6,41.472 H 414.72"
           inkscape:connector-curvature="0" />
      </g>
      <g
         id="g14438"
         transform="translate(-772.26294,-130.18597)" />
    </g>
    <text
       xml:space="preserve"
       style="font-size:4.93889px;line-height:1.25;font-family:Sawasdee;-inkscape-font-specification:Sawasdee;stroke-width:0.264583;stroke-linecap:butt;stroke-linejoin:round"
       x="33.310692"
       y="57.462864"
       id="text14384-0-0"><tspan
         sodipodi:role="line"
         id="tspan14382-6-9"
         style="font-size:4.93889px;stroke-width:0.264583"
         x="33.310692"
         y="57.462864">Space</tspan></text>
  </g>
</svg>
