<?xml version="1.0" encoding="UTF-8" standalone="no"?>
<!-- Created with Inkscape (http://www.inkscape.org/) -->

<svg
   width="75mm"
   height="54mm"
   viewBox="0 0 75 54"
   version="1.1"
   id="svg14443"
   inkscape:version="1.2.1 (0f2f062aeb, 2022-09-21, custom)"
   sodipodi:docname="coexistance_prop.svg"
   inkscape:export-filename="../48796d0b/gene_drive_clearance_density.png"
   inkscape:export-xdpi="200"
   inkscape:export-ydpi="200"
   xmlns:inkscape="http://www.inkscape.org/namespaces/inkscape"
   xmlns:sodipodi="http://sodipodi.sourceforge.net/DTD/sodipodi-0.dtd"
   xmlns="http://www.w3.org/2000/svg"
   xmlns:svg="http://www.w3.org/2000/svg">
  <sodipodi:namedview
     id="namedview14445"
     pagecolor="#ffffff"
     bordercolor="#666666"
     borderopacity="1.0"
     inkscape:showpageshadow="2"
     inkscape:pageopacity="0.0"
     inkscape:pagecheckerboard="0"
     inkscape:deskcolor="#d1d1d1"
     inkscape:document-units="mm"
     showgrid="false"
     showguides="true"
     inkscape:zoom="2.0916641"
     inkscape:cx="152.51015"
     inkscape:cy="150.35875"
     inkscape:window-width="1853"
     inkscape:window-height="1018"
     inkscape:window-x="67"
     inkscape:window-y="34"
     inkscape:window-maximized="1"
     inkscape:current-layer="layer1" />
  <defs
     id="defs14440">
    <clipPath
       id="p840022f3ac">
      <rect
         id="rect6186"
         y="41.472"
         x="57.599998"
         width="357.12"
         height="266.112" />
    </clipPath>
    <clipPath
       id="clipPath14303">
      <rect
         id="rect14301"
         y="41.472"
         x="57.599998"
         width="357.12"
         height="266.112" />
    </clipPath>
    <clipPath
       id="clipPath14307">
      <rect
         id="rect14305"
         y="41.472"
         x="57.599998"
         width="357.12"
         height="266.112" />
    </clipPath>
    <clipPath
       id="clipPath14311">
      <rect
         id="rect14309"
         y="41.472"
         x="57.599998"
         width="357.12"
         height="266.112" />
    </clipPath>
    <clipPath
       id="clipPath14315">
      <rect
         id="rect14313"
         y="41.472"
         x="57.599998"
         width="357.12"
         height="266.112" />
    </clipPath>
    <clipPath
       id="clipPath14319">
      <rect
         id="rect14317"
         y="41.472"
         x="57.599998"
         width="357.12"
         height="266.112" />
    </clipPath>
    <clipPath
       id="clipPath14323">
      <rect
         id="rect14321"
         y="41.472"
         x="57.599998"
         width="357.12"
         height="266.112" />
    </clipPath>
    <clipPath
       id="clipPath14327">
      <rect
         id="rect14325"
         y="41.472"
         x="57.599998"
         width="357.12"
         height="266.112" />
    </clipPath>
    <clipPath
       id="clipPath14331">
      <rect
         id="rect14329"
         y="41.472"
         x="57.599998"
         width="357.12"
         height="266.112" />
    </clipPath>
    <clipPath
       id="clipPath14335">
      <rect
         id="rect14333"
         y="41.472"
         x="57.599998"
         width="357.12"
         height="266.112" />
    </clipPath>
    <clipPath
       id="clipPath14339">
      <rect
         id="rect14337"
         y="41.472"
         x="57.599998"
         width="357.12"
         height="266.112" />
    </clipPath>
    <clipPath
       id="clipPath14343">
      <rect
         id="rect14341"
         y="41.472"
         x="57.599998"
         width="357.12"
         height="266.112" />
    </clipPath>
    <clipPath
       id="clipPath14347">
      <rect
         id="rect14345"
         y="41.472"
         x="57.599998"
         width="357.12"
         height="266.112" />
    </clipPath>
    <path
       style="stroke:#000000;stroke-width:0.8;stroke-linecap:butt;stroke-linejoin:round"
       id="path6276"
       d="M 0,0 H -3.5"
       inkscape:connector-curvature="0" />
    <path
       id="path6282"
       d="m 31.78125,3.421875 q 7.484375,0 11.1875,8.203125 3.71875,8.203125 3.71875,24.75 0,16.609375 -3.71875,24.8125 -3.703125,8.203125 -11.1875,8.203125 -7.46875,0 -11.1875,-8.203125 -3.703125,-8.203125 -3.703125,-24.8125 0,-16.546875 3.703125,-24.75 3.71875,-8.203125 11.1875,-8.203125 z m 0,-4.84375 Q 19.921875,-1.421875 13.25,8.53125 6.59375,18.5 6.59375,36.375 q 0,17.921875 6.65625,27.875 6.671875,9.96875 18.53125,9.96875 11.921875,0 18.5625,-9.96875 6.640625,-9.953125 6.640625,-27.875 0,-17.875 -6.640625,-27.84375 -6.640625,-9.953125 -18.5625,-9.953125 z"
       inkscape:connector-curvature="0"
       style="stroke-linecap:butt;stroke-linejoin:round" />
    <path
       id="path6294"
       d="M 14.203125,0 V 5.171875 H 26.90625 v 60.65625 l -14.703125,-9.53125 v 6.40625 L 29.984375,74.21875 H 36.71875 V 5.171875 H 49.421875 V 0 Z"
       inkscape:connector-curvature="0"
       style="stroke-linecap:butt;stroke-linejoin:round" />
    <clipPath
       id="p840022f3ac-1">
      <rect
         id="rect6186-2"
         y="41.472"
         x="57.599998"
         width="357.12"
         height="266.112" />
    </clipPath>
    <clipPath
       id="clipPath14303-7">
      <rect
         id="rect14301-0"
         y="41.472"
         x="57.599998"
         width="357.12"
         height="266.112" />
    </clipPath>
    <clipPath
       id="clipPath14307-9">
      <rect
         id="rect14305-3"
         y="41.472"
         x="57.599998"
         width="357.12"
         height="266.112" />
    </clipPath>
    <clipPath
       id="clipPath14311-6">
      <rect
         id="rect14309-0"
         y="41.472"
         x="57.599998"
         width="357.12"
         height="266.112" />
    </clipPath>
    <clipPath
       id="clipPath14315-6">
      <rect
         id="rect14313-2"
         y="41.472"
         x="57.599998"
         width="357.12"
         height="266.112" />
    </clipPath>
    <clipPath
       id="clipPath14319-6">
      <rect
         id="rect14317-1"
         y="41.472"
         x="57.599998"
         width="357.12"
         height="266.112" />
    </clipPath>
    <clipPath
       id="clipPath14323-8">
      <rect
         id="rect14321-7"
         y="41.472"
         x="57.599998"
         width="357.12"
         height="266.112" />
    </clipPath>
    <clipPath
       id="clipPath14327-9">
      <rect
         id="rect14325-2"
         y="41.472"
         x="57.599998"
         width="357.12"
         height="266.112" />
    </clipPath>
    <clipPath
       id="clipPath14331-0">
      <rect
         id="rect14329-2"
         y="41.472"
         x="57.599998"
         width="357.12"
         height="266.112" />
    </clipPath>
    <clipPath
       id="clipPath14335-3">
      <rect
         id="rect14333-7"
         y="41.472"
         x="57.599998"
         width="357.12"
         height="266.112" />
    </clipPath>
    <clipPath
       id="clipPath14339-5">
      <rect
         id="rect14337-9"
         y="41.472"
         x="57.599998"
         width="357.12"
         height="266.112" />
    </clipPath>
    <clipPath
       id="clipPath14343-2">
      <rect
         id="rect14341-2"
         y="41.472"
         x="57.599998"
         width="357.12"
         height="266.112" />
    </clipPath>
    <clipPath
       id="clipPath14347-8">
      <rect
         id="rect14345-9"
         y="41.472"
         x="57.599998"
         width="357.12"
         height="266.112" />
    </clipPath>
    <path
       style="stroke:#000000;stroke-width:0.8;stroke-linecap:butt;stroke-linejoin:round"
       id="path6276-8"
       d="M 0,0 H -3.5"
       inkscape:connector-curvature="0" />
    <path
       id="path6282-2"
       d="m 31.78125,3.421875 q 7.484375,0 11.1875,8.203125 3.71875,8.203125 3.71875,24.75 0,16.609375 -3.71875,24.8125 -3.703125,8.203125 -11.1875,8.203125 -7.46875,0 -11.1875,-8.203125 -3.703125,-8.203125 -3.703125,-24.8125 0,-16.546875 3.703125,-24.75 3.71875,-8.203125 11.1875,-8.203125 z m 0,-4.84375 Q 19.921875,-1.421875 13.25,8.53125 6.59375,18.5 6.59375,36.375 q 0,17.921875 6.65625,27.875 6.671875,9.96875 18.53125,9.96875 11.921875,0 18.5625,-9.96875 6.640625,-9.953125 6.640625,-27.875 0,-17.875 -6.640625,-27.84375 -6.640625,-9.953125 -18.5625,-9.953125 z"
       inkscape:connector-curvature="0"
       style="stroke-linecap:butt;stroke-linejoin:round" />
    <path
       id="path6294-0"
       d="M 14.203125,0 V 5.171875 H 26.90625 v 60.65625 l -14.703125,-9.53125 v 6.40625 L 29.984375,74.21875 H 36.71875 V 5.171875 H 49.421875 V 0 Z"
       inkscape:connector-curvature="0"
       style="stroke-linecap:butt;stroke-linejoin:round" />
    <clipPath
       id="pf0e568b632-5">
      <rect
         id="rect5227-6"
         y="41.472"
         x="57.599998"
         width="357.12"
         height="266.112" />
    </clipPath>
    <clipPath
       id="p840022f3ac-17">
      <rect
         id="rect6186-7"
         y="41.472"
         x="57.599998"
         width="357.12"
         height="266.112" />
    </clipPath>
    <clipPath
       id="paa5418faf9-3">
      <rect
         height="266.112"
         width="357.12"
         x="57.599998"
         y="41.472"
         id="rect381-6" />
    </clipPath>
    <clipPath
       id="pa073f7bf6b">
      <rect
         id="rect3319"
         y="41.472"
         x="57.599998"
         width="357.12"
         height="266.112" />
    </clipPath>
    <clipPath
       id="clipPath2272">
      <rect
         id="rect2270"
         y="41.472"
         x="57.599998"
         width="357.12"
         height="266.112" />
    </clipPath>
    <clipPath
       id="clipPath2276">
      <rect
         id="rect2274"
         y="41.472"
         x="57.599998"
         width="357.12"
         height="266.112" />
    </clipPath>
    <clipPath
       id="clipPath2280">
      <rect
         id="rect2278"
         y="41.472"
         x="57.599998"
         width="357.12"
         height="266.112" />
    </clipPath>
    <clipPath
       id="clipPath2284">
      <rect
         id="rect2282"
         y="41.472"
         x="57.599998"
         width="357.12"
         height="266.112" />
    </clipPath>
    <clipPath
       id="clipPath2288">
      <rect
         id="rect2286"
         y="41.472"
         x="57.599998"
         width="357.12"
         height="266.112" />
    </clipPath>
    <clipPath
       id="clipPath2292">
      <rect
         id="rect2290"
         y="41.472"
         x="57.599998"
         width="357.12"
         height="266.112" />
    </clipPath>
    <clipPath
       id="clipPath2296">
      <rect
         id="rect2294"
         y="41.472"
         x="57.599998"
         width="357.12"
         height="266.112" />
    </clipPath>
    <clipPath
       id="clipPath2300">
      <rect
         id="rect2298"
         y="41.472"
         x="57.599998"
         width="357.12"
         height="266.112" />
    </clipPath>
    <clipPath
       id="clipPath2304">
      <rect
         id="rect2302"
         y="41.472"
         x="57.599998"
         width="357.12"
         height="266.112" />
    </clipPath>
    <clipPath
       id="clipPath2308">
      <rect
         id="rect2306"
         y="41.472"
         x="57.599998"
         width="357.12"
         height="266.112" />
    </clipPath>
    <clipPath
       id="clipPath2312">
      <rect
         id="rect2310"
         y="41.472"
         x="57.599998"
         width="357.12"
         height="266.112" />
    </clipPath>
    <clipPath
       id="clipPath2316">
      <rect
         id="rect2314"
         y="41.472"
         x="57.599998"
         width="357.12"
         height="266.112" />
    </clipPath>
    <path
       id="path3388"
       d="M 9.28125,3.515625 V 20.125 l 5.609375,-0.0625 q 0.25,-8.296875 4.8125,-12.28125 4.5625,-3.96875 13.890625,-3.96875 8.6875,0 13.25,3.4375 4.578125,3.4375 4.578125,10.03125 0,5.28125 -2.765625,8.109375 -2.75,2.828125 -11.640625,5.515625 l -9.625,2.890625 Q 16.9375,36.96875 12.671875,41.703125 8.40625,46.4375 8.40625,54.6875 q 0,9.28125 6.578125,14.40625 6.59375,5.125 18.515625,5.125 5.078125,0 11.125,-1.109375 6.0625,-1.09375 12.890625,-3.1875 V 54.390625 H 52 q -0.828125,7.71875 -5.15625,11.15625 Q 42.53125,69 33.6875,69 q -7.703125,0 -11.734375,-3.15625 -4.03125,-3.140625 -4.03125,-9.15625 0,-5.21875 3.015625,-8.203125 3.03125,-2.96875 12.859375,-5.90625 l 9.03125,-2.6875 q 9.90625,-2.96875 14.125,-7.59375 4.234375,-4.609375 4.234375,-12.375 0,-10.59375 -6.796875,-15.96875 -6.78125,-5.375 -20.203125,-5.375 -6.015625,0 -12.25,1.234375 -6.21875,1.21875 -12.65625,3.703125 z"
       inkscape:connector-curvature="0"
       style="stroke-linecap:butt;stroke-linejoin:round" />
    <path
       id="path3390"
       d="m 20.515625,28.515625 v -5.125 q 0,-9.375 3.578125,-14.28125 3.59375,-4.90625 10.421875,-4.90625 6.890625,0 10.421875,5.515625 3.546875,5.515625 3.546875,16.265625 0,10.78125 -3.546875,16.25 -3.53125,5.46875 -10.421875,5.46875 -6.828125,0 -10.421875,-4.9375 -3.578125,-4.921875 -3.578125,-14.25 z M 11.53125,46.6875 H 2.875 v 5.21875 H 20.515625 V 43.796875 Q 23.140625,48.6875 27.21875,51 q 4.078125,2.328125 10.09375,2.328125 9.5625,0 15.609375,-7.578125 6.0625,-7.5625 6.0625,-19.765625 0,-12.21875 -6.0625,-19.8125 -6.046875,-7.59375 -15.609375,-7.59375 -6.015625,0 -10.09375,2.3125 -4.078125,2.328125 -6.703125,7.21875 v -23.6875 H 29 v -5.21875 H 2.875 v 5.21875 h 8.65625 z"
       inkscape:connector-curvature="0"
       style="stroke-linecap:butt;stroke-linejoin:round" />
    <path
       id="path3392"
       d="M 39.796875,16.3125 V 27.296875 H 28.21875 q -6.6875,0 -9.96875,-2.890625 -3.265625,-2.875 -3.265625,-8.828125 0,-5.421875 3.3125,-8.59375 3.328125,-3.171875 9,-3.171875 5.609375,0 9.046875,3.46875 3.453125,3.46875 3.453125,9.03125 z m 8.984375,16.109375 v -27.25 h 8 V 0 H 39.796875 V 5.609375 Q 36.8125,2 32.90625,0.28125 29,-1.421875 23.78125,-1.421875 q -8.640625,0 -13.71875,4.59375 -5.078125,4.59375 -5.078125,12.40625 0,8.0625 5.8125,12.5 5.8125,4.4375 16.40625,4.4375 h 12.59375 v 3.5625 q 0,5.921875 -3.59375,9.15625 -3.578125,3.25 -10.078125,3.25 -5.375,0 -8.546875,-2.4375 Q 14.40625,43.609375 13.625,38.8125 H 8.984375 v 10.5 q 4.6875,2 9.109375,3 4.421875,1.015625 8.609375,1.015625 10.796875,0 16.4375,-5.359375 Q 48.78125,42.625 48.78125,32.421875 Z"
       inkscape:connector-curvature="0"
       style="stroke-linecap:butt;stroke-linejoin:round" />
    <path
       id="path3394"
       d="M 51.421875,15.578125 Q 49.515625,7.28125 44.09375,2.921875 q -5.421875,-4.34375 -14.015625,-4.34375 -11.328125,0 -18.21875,7.5 -6.875,7.5 -6.875,19.90625 0,12.4375 6.875,19.890625 6.890625,7.453125 18.21875,7.453125 4.9375,0 9.8125,-1.15625 4.890625,-1.140625 9.8125,-3.484375 V 35.40625 h -5.21875 q -1.03125,6.828125 -4.46875,9.953125 -3.4375,3.125 -9.84375,3.125 -7.265625,0 -10.984375,-5.640625 -3.703125,-5.640625 -3.703125,-16.859375 0,-11.234375 3.6875,-16.90625 3.6875,-5.65625 11,-5.65625 5.8125,0 9.28125,3.015625 3.46875,3.03125 4.734375,9.140625 z"
       inkscape:connector-curvature="0"
       style="stroke-linecap:butt;stroke-linejoin:round" />
    <path
       id="path3396"
       d="m 54.203125,25 h -38.71875 v -0.390625 q 0,-10.5 3.953125,-15.84375 3.953125,-5.34375 11.671875,-5.34375 5.90625,0 9.6875,3.09375 3.78125,3.109375 5.296875,9.203125 h 7.234375 Q 51.171875,7.171875 45.375,2.875 39.59375,-1.421875 30.171875,-1.421875 q -11.375,0 -18.28125,7.5 -6.90625,7.5 -6.90625,19.90625 0,12.296875 6.78125,19.8125 6.796875,7.53125 17.828125,7.53125 11.765625,0 18.0625,-7.265625 6.296875,-7.25 6.546875,-21.0625 z m -10.59375,5.171875 q -0.296875,9.09375 -3.84375,13.703125 -3.53125,4.609375 -10.171875,4.609375 -6.203125,0 -9.765625,-4.640625 -3.5625,-4.640625 -4.34375,-13.671875 z"
       inkscape:connector-curvature="0"
       style="stroke-linecap:butt;stroke-linejoin:round" />
    <path
       style="stroke:#000000;stroke-width:0.8;stroke-linecap:butt;stroke-linejoin:round"
       id="path3409"
       d="M 0,0 H -3.5"
       inkscape:connector-curvature="0" />
    <path
       id="path3415"
       d="m 31.78125,3.421875 q 7.484375,0 11.1875,8.203125 3.71875,8.203125 3.71875,24.75 0,16.609375 -3.71875,24.8125 -3.703125,8.203125 -11.1875,8.203125 -7.46875,0 -11.1875,-8.203125 -3.703125,-8.203125 -3.703125,-24.8125 0,-16.546875 3.703125,-24.75 3.71875,-8.203125 11.1875,-8.203125 z m 0,-4.84375 Q 19.921875,-1.421875 13.25,8.53125 6.59375,18.5 6.59375,36.375 q 0,17.921875 6.65625,27.875 6.671875,9.96875 18.53125,9.96875 11.921875,0 18.5625,-9.96875 6.640625,-9.953125 6.640625,-27.875 0,-17.875 -6.640625,-27.84375 -6.640625,-9.953125 -18.5625,-9.953125 z"
       inkscape:connector-curvature="0"
       style="stroke-linecap:butt;stroke-linejoin:round" />
    <path
       id="path3427"
       d="M 14.203125,0 V 5.171875 H 26.90625 v 60.65625 l -14.703125,-9.53125 v 6.40625 L 29.984375,74.21875 H 36.71875 V 5.171875 H 49.421875 V 0 Z"
       inkscape:connector-curvature="0"
       style="stroke-linecap:butt;stroke-linejoin:round" />
    <clipPath
       id="p19b9f9fd55">
      <rect
         id="rect5705"
         y="41.472"
         x="57.599998"
         width="357.12"
         height="266.112" />
    </clipPath>
    <clipPath
       id="clipPath3834">
      <rect
         id="rect3832"
         y="41.472"
         x="57.599998"
         width="357.12"
         height="266.112" />
    </clipPath>
    <clipPath
       id="clipPath3838">
      <rect
         id="rect3836"
         y="41.472"
         x="57.599998"
         width="357.12"
         height="266.112" />
    </clipPath>
    <clipPath
       id="clipPath3842">
      <rect
         id="rect3840"
         y="41.472"
         x="57.599998"
         width="357.12"
         height="266.112" />
    </clipPath>
    <clipPath
       id="clipPath3846">
      <rect
         id="rect3844"
         y="41.472"
         x="57.599998"
         width="357.12"
         height="266.112" />
    </clipPath>
    <clipPath
       id="clipPath3850">
      <rect
         id="rect3848"
         y="41.472"
         x="57.599998"
         width="357.12"
         height="266.112" />
    </clipPath>
    <clipPath
       id="clipPath3854">
      <rect
         id="rect3852"
         y="41.472"
         x="57.599998"
         width="357.12"
         height="266.112" />
    </clipPath>
    <clipPath
       id="clipPath3858">
      <rect
         id="rect3856"
         y="41.472"
         x="57.599998"
         width="357.12"
         height="266.112" />
    </clipPath>
    <clipPath
       id="clipPath3862">
      <rect
         id="rect3860"
         y="41.472"
         x="57.599998"
         width="357.12"
         height="266.112" />
    </clipPath>
    <clipPath
       id="clipPath3866">
      <rect
         id="rect3864"
         y="41.472"
         x="57.599998"
         width="357.12"
         height="266.112" />
    </clipPath>
    <clipPath
       id="clipPath3870">
      <rect
         id="rect3868"
         y="41.472"
         x="57.599998"
         width="357.12"
         height="266.112" />
    </clipPath>
    <clipPath
       id="clipPath3874">
      <rect
         id="rect3872"
         y="41.472"
         x="57.599998"
         width="357.12"
         height="266.112" />
    </clipPath>
    <clipPath
       id="clipPath3878">
      <rect
         id="rect3876"
         y="41.472"
         x="57.599998"
         width="357.12"
         height="266.112" />
    </clipPath>
    <path
       style="stroke:#000000;stroke-width:0.8;stroke-linecap:butt;stroke-linejoin:round"
       id="path5795"
       d="M 0,0 H -3.5"
       inkscape:connector-curvature="0" />
    <path
       id="path5801"
       d="m 31.78125,3.421875 q 7.484375,0 11.1875,8.203125 3.71875,8.203125 3.71875,24.75 0,16.609375 -3.71875,24.8125 -3.703125,8.203125 -11.1875,8.203125 -7.46875,0 -11.1875,-8.203125 -3.703125,-8.203125 -3.703125,-24.8125 0,-16.546875 3.703125,-24.75 3.71875,-8.203125 11.1875,-8.203125 z m 0,-4.84375 Q 19.921875,-1.421875 13.25,8.53125 6.59375,18.5 6.59375,36.375 q 0,17.921875 6.65625,27.875 6.671875,9.96875 18.53125,9.96875 11.921875,0 18.5625,-9.96875 6.640625,-9.953125 6.640625,-27.875 0,-17.875 -6.640625,-27.84375 -6.640625,-9.953125 -18.5625,-9.953125 z"
       inkscape:connector-curvature="0"
       style="stroke-linecap:butt;stroke-linejoin:round" />
    <path
       id="path5813"
       d="M 14.203125,0 V 5.171875 H 26.90625 v 60.65625 l -14.703125,-9.53125 v 6.40625 L 29.984375,74.21875 H 36.71875 V 5.171875 H 49.421875 V 0 Z"
       inkscape:connector-curvature="0"
       style="stroke-linecap:butt;stroke-linejoin:round" />
    <clipPath
       id="p23a2f8d1fb">
      <rect
         height="266.112"
         width="357.12"
         x="57.599998"
         y="41.472"
         id="rect4659" />
    </clipPath>
    <clipPath
       id="clipPath4795">
      <rect
         height="266.112"
         width="357.12"
         x="57.599998"
         y="41.472"
         id="rect4793" />
    </clipPath>
    <clipPath
       id="clipPath4799">
      <rect
         height="266.112"
         width="357.12"
         x="57.599998"
         y="41.472"
         id="rect4797" />
    </clipPath>
    <clipPath
       id="clipPath4803">
      <rect
         height="266.112"
         width="357.12"
         x="57.599998"
         y="41.472"
         id="rect4801" />
    </clipPath>
    <clipPath
       id="clipPath4807">
      <rect
         height="266.112"
         width="357.12"
         x="57.599998"
         y="41.472"
         id="rect4805" />
    </clipPath>
    <clipPath
       id="clipPath4811">
      <rect
         height="266.112"
         width="357.12"
         x="57.599998"
         y="41.472"
         id="rect4809" />
    </clipPath>
    <clipPath
       id="clipPath4815">
      <rect
         height="266.112"
         width="357.12"
         x="57.599998"
         y="41.472"
         id="rect4813" />
    </clipPath>
    <clipPath
       id="clipPath4819">
      <rect
         height="266.112"
         width="357.12"
         x="57.599998"
         y="41.472"
         id="rect4817" />
    </clipPath>
    <clipPath
       id="clipPath4823">
      <rect
         height="266.112"
         width="357.12"
         x="57.599998"
         y="41.472"
         id="rect4821" />
    </clipPath>
    <clipPath
       id="clipPath4827">
      <rect
         height="266.112"
         width="357.12"
         x="57.599998"
         y="41.472"
         id="rect4825" />
    </clipPath>
    <clipPath
       id="clipPath4831">
      <rect
         height="266.112"
         width="357.12"
         x="57.599998"
         y="41.472"
         id="rect4829" />
    </clipPath>
    <clipPath
       id="clipPath4835">
      <rect
         height="266.112"
         width="357.12"
         x="57.599998"
         y="41.472"
         id="rect4833" />
    </clipPath>
    <clipPath
       id="clipPath4839">
      <rect
         height="266.112"
         width="357.12"
         x="57.599998"
         y="41.472"
         id="rect4837" />
    </clipPath>
    <path
       d="M 9.28125,3.515625 V 20.125 l 5.609375,-0.0625 q 0.25,-8.296875 4.8125,-12.28125 4.5625,-3.96875 13.890625,-3.96875 8.6875,0 13.25,3.4375 4.578125,3.4375 4.578125,10.03125 0,5.28125 -2.765625,8.109375 -2.75,2.828125 -11.640625,5.515625 l -9.625,2.890625 Q 16.9375,36.96875 12.671875,41.703125 8.40625,46.4375 8.40625,54.6875 q 0,9.28125 6.578125,14.40625 6.59375,5.125 18.515625,5.125 5.078125,0 11.125,-1.109375 6.0625,-1.09375 12.890625,-3.1875 V 54.390625 H 52 q -0.828125,7.71875 -5.15625,11.15625 Q 42.53125,69 33.6875,69 q -7.703125,0 -11.734375,-3.15625 -4.03125,-3.140625 -4.03125,-9.15625 0,-5.21875 3.015625,-8.203125 3.03125,-2.96875 12.859375,-5.90625 l 9.03125,-2.6875 q 9.90625,-2.96875 14.125,-7.59375 4.234375,-4.609375 4.234375,-12.375 0,-10.59375 -6.796875,-15.96875 -6.78125,-5.375 -20.203125,-5.375 -6.015625,0 -12.25,1.234375 -6.21875,1.21875 -12.65625,3.703125 z"
       id="DejaVuSerif-83" />
    <path
       d="m 20.515625,28.515625 v -5.125 q 0,-9.375 3.578125,-14.28125 3.59375,-4.90625 10.421875,-4.90625 6.890625,0 10.421875,5.515625 3.546875,5.515625 3.546875,16.265625 0,10.78125 -3.546875,16.25 -3.53125,5.46875 -10.421875,5.46875 -6.828125,0 -10.421875,-4.9375 -3.578125,-4.921875 -3.578125,-14.25 z M 11.53125,46.6875 H 2.875 v 5.21875 H 20.515625 V 43.796875 Q 23.140625,48.6875 27.21875,51 q 4.078125,2.328125 10.09375,2.328125 9.5625,0 15.609375,-7.578125 6.0625,-7.5625 6.0625,-19.765625 0,-12.21875 -6.0625,-19.8125 -6.046875,-7.59375 -15.609375,-7.59375 -6.015625,0 -10.09375,2.3125 -4.078125,2.328125 -6.703125,7.21875 v -23.6875 H 29 v -5.21875 H 2.875 v 5.21875 h 8.65625 z"
       id="DejaVuSerif-112" />
    <path
       d="M 39.796875,16.3125 V 27.296875 H 28.21875 q -6.6875,0 -9.96875,-2.890625 -3.265625,-2.875 -3.265625,-8.828125 0,-5.421875 3.3125,-8.59375 3.328125,-3.171875 9,-3.171875 5.609375,0 9.046875,3.46875 3.453125,3.46875 3.453125,9.03125 z m 8.984375,16.109375 v -27.25 h 8 V 0 H 39.796875 V 5.609375 Q 36.8125,2 32.90625,0.28125 29,-1.421875 23.78125,-1.421875 q -8.640625,0 -13.71875,4.59375 -5.078125,4.59375 -5.078125,12.40625 0,8.0625 5.8125,12.5 5.8125,4.4375 16.40625,4.4375 h 12.59375 v 3.5625 q 0,5.921875 -3.59375,9.15625 -3.578125,3.25 -10.078125,3.25 -5.375,0 -8.546875,-2.4375 Q 14.40625,43.609375 13.625,38.8125 H 8.984375 v 10.5 q 4.6875,2 9.109375,3 4.421875,1.015625 8.609375,1.015625 10.796875,0 16.4375,-5.359375 Q 48.78125,42.625 48.78125,32.421875 Z"
       id="DejaVuSerif-97" />
    <path
       d="M 51.421875,15.578125 Q 49.515625,7.28125 44.09375,2.921875 q -5.421875,-4.34375 -14.015625,-4.34375 -11.328125,0 -18.21875,7.5 -6.875,7.5 -6.875,19.90625 0,12.4375 6.875,19.890625 6.890625,7.453125 18.21875,7.453125 4.9375,0 9.8125,-1.15625 4.890625,-1.140625 9.8125,-3.484375 V 35.40625 h -5.21875 q -1.03125,6.828125 -4.46875,9.953125 -3.4375,3.125 -9.84375,3.125 -7.265625,0 -10.984375,-5.640625 -3.703125,-5.640625 -3.703125,-16.859375 0,-11.234375 3.6875,-16.90625 3.6875,-5.65625 11,-5.65625 5.8125,0 9.28125,3.015625 3.46875,3.03125 4.734375,9.140625 z"
       id="DejaVuSerif-99" />
    <path
       d="m 54.203125,25 h -38.71875 v -0.390625 q 0,-10.5 3.953125,-15.84375 3.953125,-5.34375 11.671875,-5.34375 5.90625,0 9.6875,3.09375 3.78125,3.109375 5.296875,9.203125 h 7.234375 Q 51.171875,7.171875 45.375,2.875 39.59375,-1.421875 30.171875,-1.421875 q -11.375,0 -18.28125,7.5 -6.90625,7.5 -6.90625,19.90625 0,12.296875 6.78125,19.8125 6.796875,7.53125 17.828125,7.53125 11.765625,0 18.0625,-7.265625 6.296875,-7.25 6.546875,-21.0625 z m -10.59375,5.171875 q -0.296875,9.09375 -3.84375,13.703125 -3.53125,4.609375 -10.171875,4.609375 -6.203125,0 -9.765625,-4.640625 -3.5625,-4.640625 -4.34375,-13.671875 z"
       id="DejaVuSerif-101" />
    <path
       d="M 0,0 H -3.5"
       id="mfeedf84190"
       style="stroke:#000000;stroke-width:0.8" />
    <path
       d="m 31.78125,3.421875 q 7.484375,0 11.1875,8.203125 3.71875,8.203125 3.71875,24.75 0,16.609375 -3.71875,24.8125 -3.703125,8.203125 -11.1875,8.203125 -7.46875,0 -11.1875,-8.203125 -3.703125,-8.203125 -3.703125,-24.8125 0,-16.546875 3.703125,-24.75 3.71875,-8.203125 11.1875,-8.203125 z m 0,-4.84375 Q 19.921875,-1.421875 13.25,8.53125 6.59375,18.5 6.59375,36.375 q 0,17.921875 6.65625,27.875 6.671875,9.96875 18.53125,9.96875 11.921875,0 18.5625,-9.96875 6.640625,-9.953125 6.640625,-27.875 0,-17.875 -6.640625,-27.84375 -6.640625,-9.953125 -18.5625,-9.953125 z"
       id="DejaVuSerif-48" />
    <path
       d="M 14.203125,0 V 5.171875 H 26.90625 v 60.65625 l -14.703125,-9.53125 v 6.40625 L 29.984375,74.21875 H 36.71875 V 5.171875 H 49.421875 V 0 Z"
       id="DejaVuSerif-49" />
    <path
       d="M 20.015625,26.421875 H 46.78125 l -13.375,34.65625 z M -0.59375,0 V 5.171875 H 5.8125 L 31.78125,72.90625 h 8.203125 L 66.015625,5.171875 H 73.1875 V 0 h -26.5 v 5.171875 h 8.09375 L 48.6875,21.1875 H 18.015625 L 11.921875,5.171875 h 8 V 0 Z"
       id="DejaVuSerif-65" />
    <path
       d="M 20.515625,5.171875 H 29 V 0 H 2.875 v 5.171875 h 8.65625 v 65.625 H 2.875 v 5.1875 h 17.640625 z"
       id="DejaVuSerif-108" />
    <path
       id="DejaVuSerif-32"
       d="" />
    <path
       d="m 52.484375,5.171875 h 8.59375 V 0 H 43.5 v 8.109375 q -2.625,-4.890625 -6.703125,-7.21875 -4.078125,-2.3125 -10.09375,-2.3125 -9.5625,0 -15.640625,7.59375 -6.078125,7.59375 -6.078125,19.8125 0,12.203125 6.046875,19.765625 6.0625,7.578125 15.671875,7.578125 6.015625,0 10.09375,-2.328125 Q 40.875,48.6875 43.5,43.796875 v 27 h -8.484375 v 5.1875 h 17.46875 z M 43.5,23.390625 v 5.125 q 0,9.328125 -3.59375,14.25 -3.578125,4.9375 -10.40625,4.9375 -6.9375,0 -10.484375,-5.46875 -3.53125,-5.46875 -3.53125,-16.25 0,-10.75 3.53125,-16.265625 Q 22.5625,4.203125 29.5,4.203125 q 6.828125,0 10.40625,4.90625 Q 43.5,14.015625 43.5,23.390625 Z"
       id="DejaVuSerif-100" />
    <path
       d="m 4.109375,0 v 5.171875 h 8.09375 V 46.6875 h -8.59375 v 5.21875 H 21.1875 v -9.234375 q 2.5,5.28125 6.46875,7.96875 3.984375,2.6875 9.265625,2.6875 8.59375,0 12.640625,-4.9375 4.046875,-4.9375 4.046875,-15.375 V 5.171875 H 61.625 V 0 H 36.8125 v 5.171875 h 7.765625 v 25 q 0,9.53125 -2.34375,13.0625 -2.34375,3.546875 -8.25,3.546875 -6.25,0 -9.53125,-4.578125 Q 21.1875,37.640625 21.1875,28.90625 V 5.171875 H 29 V 0 Z"
       id="DejaVuSerif-110" />
    <path
       d="m 5.609375,2.875 v 12.109375 h 5.1875 q 0.1875,-5.796875 3.625,-8.6875 3.453125,-2.875 10.1875,-2.875 6.0625,0 9.234375,2.265625 3.171875,2.265625 3.171875,6.625 0,3.40625 -2.328125,5.5 -2.3125,2.109375 -9.78125,4.5 l -6.5,2.203125 q -6.6875,2.140625 -9.6875,5.359375 -3,3.234375 -3,8.21875 0,7.125 5.21875,11.171875 5.21875,4.0625 14.453125,4.0625 4.109375,0 8.640625,-1.078125 4.546875,-1.078125 9.375,-3.125 V 37.796875 h -5.171875 q -0.203125,5.03125 -3.53125,7.859375 -3.3125,2.828125 -9.015625,2.828125 -5.671875,0 -8.578125,-2 -2.90625,-2 -2.90625,-6 0,-3.28125 2.203125,-5.265625 2.203125,-1.96875 8.796875,-4.015625 L 32.328125,29 q 7.375,-2.296875 10.609375,-5.734375 3.25,-3.4375 3.25,-8.859375 0,-7.375 -5.640625,-11.609375 Q 34.90625,-1.421875 25,-1.421875 q -5.03125,0 -9.8125,1.078125 Q 10.40625,0.734375 5.609375,2.875 Z"
       id="DejaVuSerif-115" />
    <path
       d="m 9.71875,68.015625 q 0,2.25 1.625,3.90625 1.640625,1.65625 3.9375,1.65625 2.25,0 3.875,-1.65625 1.640625,-1.65625 1.640625,-3.90625 0,-2.296875 -1.609375,-3.90625 Q 17.578125,62.5 15.28125,62.5 q -2.296875,0 -3.9375,1.609375 -1.625,1.609375 -1.625,3.90625 z M 21.1875,5.171875 h 8.5 V 0 H 3.609375 v 5.171875 h 8.59375 V 46.6875 h -8.59375 v 5.21875 H 21.1875 Z"
       id="DejaVuSerif-105" />
    <path
       d="M 10.796875,46.6875 H 2.875 v 5.21875 h 7.921875 v 16.109375 h 9.03125 V 51.90625 H 36.71875 V 46.6875 H 19.828125 V 13.71875 q 0,-6.59375 1.265625,-8.453125 1.265625,-1.84375 4.6875,-1.84375 3.515625,0 5.125,2.0625 1.609375,2.078125 1.71875,6.71875 h 6.78125 Q 39.015625,5.125 35.546875,1.84375 32.078125,-1.421875 25,-1.421875 q -7.765625,0 -10.984375,3.4375 -3.21875,3.453125 -3.21875,11.703125 z"
       id="DejaVuSerif-116" />
    <path
       d="m 76.21875,0 h -8 L 51.515625,59.28125 34.8125,0 h -8 L 7.71875,67.671875 H 0.484375 V 72.90625 H 27.09375 V 67.671875 H 18.015625 L 33.203125,13.8125 49.8125,72.90625 h 7.90625 L 74.609375,13.1875 89.890625,67.671875 H 81.5 v 5.234375 h 20.98438 V 67.671875 H 95.3125 Z"
       id="DejaVuSerif-87" />
    <path
       d="m 4.390625,30.609375 h 25 V 23 h -25 z"
       id="DejaVuSerif-45" />
    <path
       d="M 21.578125,-9.515625 25,-0.875 5.609375,46.6875 h -5.90625 v 5.21875 h 23.875 V 46.6875 H 15.28125 L 29.890625,10.984375 44.484375,46.6875 H 36.71875 v 5.21875 H 56.203125 V 46.6875 h -5.8125 L 26.609375,-11.71875 Q 24.171875,-17.78125 21.1875,-20 q -2.96875,-2.21875 -8.390625,-2.21875 -2.296875,0 -4.71875,0.390625 -2.40625,0.390625 -4.859375,1.125 v 9.90625 H 7.8125 q 0.296875,-3.3125 1.6875,-4.75 Q 10.890625,-17 13.8125,-17 q 2.6875,0 4.328125,1.5 1.640625,1.484375 3.4375,5.984375 z"
       id="DejaVuSerif-121" />
    <path
       d="m 24.703125,5.171875 h 9.09375 q 14.203125,0 21.796875,8.109375 7.59375,8.109375 7.59375,23.25 0,15.125 -7.578125,23.125 -7.5625,8.015625 -21.8125,8.015625 h -9.09375 z M 5.515625,0 v 5.171875 h 9.28125 v 62.5 h -9.28125 v 5.234375 h 29 q 18.859375,0 29.375,-9.625 10.53125,-9.625 10.53125,-26.75 0,-17.1875 -10.546875,-26.859375 Q 53.328125,0 34.515625,0 Z"
       id="DejaVuSerif-68" />
    <path
       d="M 47.796875,52 V 39.015625 H 42.625 q -0.234375,3.859375 -2.140625,5.765625 -1.90625,1.90625 -5.578125,1.90625 -6.640625,0 -10.1875,-4.59375 Q 21.1875,37.5 21.1875,28.90625 V 5.171875 H 31.59375 V 0 H 4.109375 v 5.171875 h 8.09375 V 46.78125 h -8.59375 v 5.125 H 21.1875 v -9.234375 q 2.640625,5.421875 6.78125,8.03125 4.15625,2.625 10.125,2.625 2.1875,0 4.609375,-0.34375 Q 45.125,52.640625 47.796875,52 Z"
       id="DejaVuSerif-114" />
    <path
       d="M 24.703125,0 5.609375,46.6875 h -5.90625 v 5.21875 h 23.875 V 46.6875 H 15.28125 L 29.890625,10.984375 44.484375,46.6875 H 36.71875 v 5.21875 H 56.203125 V 46.6875 h -5.8125 L 31.296875,0 Z"
       id="DejaVuSerif-118" />
  </defs>
  <g
     inkscape:label="Layer 1"
     inkscape:groupmode="layer"
     id="layer1">
    <text
       xml:space="preserve"
       style="font-size:4.93889px;line-height:1.25;font-family:Sawasdee;-inkscape-font-specification:Sawasdee;stroke-width:0.264583;stroke-linecap:butt;stroke-linejoin:round"
       x="-44.216175"
       y="11.489296"
       id="text14384-0-9"
       transform="rotate(-90)"><tspan
         sodipodi:role="line"
         id="tspan14382-6-4"
         style="font-size:4.93889px;stroke-width:0.264583"
         x="-44.216175"
         y="11.489296">Allele densities</tspan></text>
    <text
       xml:space="preserve"
       style="font-size:4.93889px;line-height:1.25;font-family:Sawasdee;-inkscape-font-specification:Sawasdee;stroke-width:0.264583;stroke-linecap:butt;stroke-linejoin:round"
       x="33.310692"
       y="52.171192"
       id="text14384-0-0"><tspan
         sodipodi:role="line"
         id="tspan14382-6-9"
         style="font-size:4.93889px;stroke-width:0.264583"
         x="33.310692"
         y="52.171192">Space</tspan></text>
    <g
       id="patch_7-2-9"
       style="stroke-linecap:butt;stroke-linejoin:round"
       transform="matrix(0.25148958,0,0,0.22007518,2.5001546,0.40991351)">
      <path
         id="path5417-1"
         style="opacity:0.8;fill:#ffffff;stroke:#cccccc;stroke-width:1.11111;stroke-linecap:butt;stroke-linejoin:miter"
         d="M 59.715047,36.448128 H 246.65842 q 2.39926,0 2.39926,-2.963873 V 13.003433 q 0,-2.963872 -2.39926,-2.963872 H 59.715047 q -2.399257,0 -2.399257,2.963872 v 20.480822 q 0,2.963873 2.399257,2.963873 z"
         inkscape:connector-curvature="0" />
    </g>
    <g
       id="line2d_16-6-2"
       style="stroke-width:14.728;stroke-linecap:butt;stroke-linejoin:round;stroke-miterlimit:4;stroke-dasharray:none"
       transform="matrix(0.13579575,0,0,0.13579575,29.62734,2.4259396)">
      <path
         id="path5420-7"
         style="fill:none;stroke:#6495ed;stroke-width:14.728;stroke-linecap:square;stroke-linejoin:round;stroke-miterlimit:4;stroke-dasharray:none"
         d="m 62.08611,22.595565 h 24"
         inkscape:connector-curvature="0" />
    </g>
    <g
       id="line2d_18-8-0"
       style="stroke-linecap:butt;stroke-linejoin:round"
       transform="matrix(0.13579575,0,0,0.13579575,-5.1610464,2.4815146)">
      <path
         id="path5450-9"
         style="fill:none;stroke:#dc143c;stroke-width:14.728;stroke-linecap:square;stroke-linejoin:round;stroke-miterlimit:4;stroke-dasharray:none"
         d="m 177.61048,22.595565 h 24"
         inkscape:connector-curvature="0" />
    </g>
    <text
       xml:space="preserve"
       style="font-size:4.9389px;line-height:1.25;font-family:Sawasdee;-inkscape-font-specification:Sawasdee;stroke-width:0.264583;stroke-linecap:butt;stroke-linejoin:round"
       x="43.221306"
       y="7.0563555"
       id="text14384-3"><tspan
         sodipodi:role="line"
         id="tspan14382-60"
         style="font-size:4.9389px;stroke-width:0.264583"
         x="43.221306"
         y="7.0563555">Wild-type</tspan></text>
    <text
       xml:space="preserve"
       style="font-size:4.9389px;line-height:1.25;font-family:Sawasdee;-inkscape-font-specification:Sawasdee;stroke-width:0.264583;stroke-linecap:butt;stroke-linejoin:round"
       x="24.053291"
       y="7.035203"
       id="text14384-0-6"><tspan
         sodipodi:role="line"
         id="tspan14382-6-2"
         style="font-size:4.9389px;stroke-width:0.264583"
         x="24.053291"
         y="7.035203">Drive</tspan></text>
    <g
       id="axes_1-5"
       style="stroke-linecap:butt;stroke-linejoin:round"
       transform="matrix(0.13615599,0,0,0.13615599,8.6143612,4.5604789)">
      <g
         id="patch_2-8"
         style="stroke-linecap:butt;stroke-linejoin:round">
        <path
           id="path5459"
           style="fill:#ffffff;stroke-linecap:butt;stroke-linejoin:round"
           d="M 57.6,307.584 H 414.72 V 41.472 H 57.6 Z"
           inkscape:connector-curvature="0" />
      </g>
      <g
         id="matplotlib.axis_1-9"
         style="stroke-linecap:butt;stroke-linejoin:round">
        <g
           id="xtick_1-0"
           style="stroke-linecap:butt;stroke-linejoin:round">
          <g
             id="line2d_1-24"
             style="stroke-linecap:butt;stroke-linejoin:round">
            <path
               id="path5462"
               style="fill:none;stroke:#b0b0b0;stroke-width:0.8;stroke-linecap:square;stroke-linejoin:round"
               d="M 73.832727,307.584 V 41.472"
               clip-path="url(#p19b9f9fd55)"
               inkscape:connector-curvature="0" />
          </g>
        </g>
        <g
           id="xtick_2-7"
           style="stroke-linecap:butt;stroke-linejoin:round">
          <g
             id="line2d_2-6"
             style="stroke-linecap:butt;stroke-linejoin:round">
            <path
               id="path5466"
               style="fill:none;stroke:#b0b0b0;stroke-width:0.8;stroke-linecap:square;stroke-linejoin:round"
               d="M 114.41455,307.584 V 41.472"
               clip-path="url(#p19b9f9fd55)"
               inkscape:connector-curvature="0" />
          </g>
        </g>
        <g
           id="xtick_3-5"
           style="stroke-linecap:butt;stroke-linejoin:round">
          <g
             id="line2d_3-7"
             style="stroke-linecap:butt;stroke-linejoin:round">
            <path
               id="path5470"
               style="fill:none;stroke:#b0b0b0;stroke-width:0.8;stroke-linecap:square;stroke-linejoin:round"
               d="M 154.99636,307.584 V 41.472"
               clip-path="url(#p19b9f9fd55)"
               inkscape:connector-curvature="0" />
          </g>
        </g>
        <g
           id="xtick_4-13"
           style="stroke-linecap:butt;stroke-linejoin:round">
          <g
             id="line2d_4-3"
             style="stroke-linecap:butt;stroke-linejoin:round">
            <path
               id="path5474"
               style="fill:none;stroke:#b0b0b0;stroke-width:0.8;stroke-linecap:square;stroke-linejoin:round"
               d="M 195.57818,307.584 V 41.472"
               clip-path="url(#p19b9f9fd55)"
               inkscape:connector-curvature="0" />
          </g>
        </g>
        <g
           id="xtick_5-3"
           style="stroke-linecap:butt;stroke-linejoin:round">
          <g
             id="line2d_5-85"
             style="stroke-linecap:butt;stroke-linejoin:round">
            <path
               id="path5478"
               style="fill:none;stroke:#b0b0b0;stroke-width:0.8;stroke-linecap:square;stroke-linejoin:round"
               d="M 236.16,307.584 V 41.472"
               clip-path="url(#p19b9f9fd55)"
               inkscape:connector-curvature="0" />
          </g>
        </g>
        <g
           id="xtick_6-1"
           style="stroke-linecap:butt;stroke-linejoin:round">
          <g
             id="line2d_6-0"
             style="stroke-linecap:butt;stroke-linejoin:round">
            <path
               id="path5482"
               style="fill:none;stroke:#b0b0b0;stroke-width:0.8;stroke-linecap:square;stroke-linejoin:round"
               d="M 276.74182,307.584 V 41.472"
               clip-path="url(#p19b9f9fd55)"
               inkscape:connector-curvature="0" />
          </g>
        </g>
        <g
           id="xtick_7-8"
           style="stroke-linecap:butt;stroke-linejoin:round">
          <g
             id="line2d_7-7"
             style="stroke-linecap:butt;stroke-linejoin:round">
            <path
               id="path5486"
               style="fill:none;stroke:#b0b0b0;stroke-width:0.8;stroke-linecap:square;stroke-linejoin:round"
               d="M 317.32364,307.584 V 41.472"
               clip-path="url(#p19b9f9fd55)"
               inkscape:connector-curvature="0" />
          </g>
        </g>
        <g
           id="xtick_8-63"
           style="stroke-linecap:butt;stroke-linejoin:round">
          <g
             id="line2d_8-50"
             style="stroke-linecap:butt;stroke-linejoin:round">
            <path
               id="path5490"
               style="fill:none;stroke:#b0b0b0;stroke-width:0.8;stroke-linecap:square;stroke-linejoin:round"
               d="M 357.90546,307.584 V 41.472"
               clip-path="url(#p19b9f9fd55)"
               inkscape:connector-curvature="0" />
          </g>
        </g>
        <g
           id="xtick_9-8"
           style="stroke-linecap:butt;stroke-linejoin:round">
          <g
             id="line2d_9-0"
             style="stroke-linecap:butt;stroke-linejoin:round">
            <path
               id="path5494"
               style="fill:none;stroke:#b0b0b0;stroke-width:0.8;stroke-linecap:square;stroke-linejoin:round"
               d="M 398.48727,307.584 V 41.472"
               clip-path="url(#p19b9f9fd55)"
               inkscape:connector-curvature="0" />
          </g>
        </g>
      </g>
      <g
         id="matplotlib.axis_2-4"
         style="stroke-linecap:butt;stroke-linejoin:round">
        <g
           id="ytick_1-1"
           style="stroke-linecap:butt;stroke-linejoin:round">
          <g
             id="line2d_10-5"
             style="stroke-linecap:butt;stroke-linejoin:round">
            <path
               id="path5519"
               style="fill:none;stroke:#b0b0b0;stroke-width:0.8;stroke-linecap:square;stroke-linejoin:round"
               d="M 57.6,300.05253 H 414.72"
               clip-path="url(#p19b9f9fd55)"
               inkscape:connector-curvature="0" />
          </g>
          <g
             id="line2d_11-0"
             style="stroke-linecap:butt;stroke-linejoin:round">
            <defs
               id="defs5523">
              <path
                 style="stroke:#000000;stroke-width:0.8;stroke-linecap:butt;stroke-linejoin:round"
                 id="path4225"
                 d="M 0,0 H -3.5"
                 inkscape:connector-curvature="0" />
            </defs>
            <g
               id="g5527"
               style="stroke-linecap:butt;stroke-linejoin:round">
              <path
                 style="stroke:#000000;stroke-width:0.8;stroke-linecap:butt;stroke-linejoin:round"
                 id="use5525"
                 d="m 57.599998,300.05252 h -3.5" />
            </g>
          </g>
          <g
             id="text_2-8"
             style="stroke-linecap:butt;stroke-linejoin:round">
            <!-- 0 -->
            <g
               id="g5535"
               transform="matrix(0.2,0,0,-0.2,37.875,307.65097)"
               style="stroke-linecap:butt;stroke-linejoin:round">
              <defs
                 id="defs5531">
                <path
                   id="path4231"
                   d="m 31.78125,3.421875 q 7.484375,0 11.1875,8.203125 3.71875,8.203125 3.71875,24.75 0,16.609375 -3.71875,24.8125 -3.703125,8.203125 -11.1875,8.203125 -7.46875,0 -11.1875,-8.203125 -3.703125,-8.203125 -3.703125,-24.8125 0,-16.546875 3.703125,-24.75 3.71875,-8.203125 11.1875,-8.203125 z m 0,-4.84375 Q 19.921875,-1.421875 13.25,8.53125 6.59375,18.5 6.59375,36.375 q 0,17.921875 6.65625,27.875 6.671875,9.96875 18.53125,9.96875 11.921875,0 18.5625,-9.96875 6.640625,-9.953125 6.640625,-27.875 0,-17.875 -6.640625,-27.84375 -6.640625,-9.953125 -18.5625,-9.953125 z"
                   inkscape:connector-curvature="0"
                   style="stroke-linecap:butt;stroke-linejoin:round" />
              </defs>
              <path
                 id="use5533"
                 d="m 31.78125,3.421875 q 7.484375,0 11.1875,8.203125 3.71875,8.203125 3.71875,24.75 0,16.609375 -3.71875,24.8125 -3.703125,8.203125 -11.1875,8.203125 -7.46875,0 -11.1875,-8.203125 -3.703125,-8.203125 -3.703125,-24.8125 0,-16.546875 3.703125,-24.75 3.71875,-8.203125 11.1875,-8.203125 z m 0,-4.84375 Q 19.921875,-1.421875 13.25,8.53125 6.59375,18.5 6.59375,36.375 q 0,17.921875 6.65625,27.875 6.671875,9.96875 18.53125,9.96875 11.921875,0 18.5625,-9.96875 6.640625,-9.953125 6.640625,-27.875 0,-17.875 -6.640625,-27.84375 -6.640625,-9.953125 -18.5625,-9.953125 z"
                 style="stroke-linecap:butt;stroke-linejoin:round" />
            </g>
          </g>
        </g>
        <g
           id="ytick_2-5"
           style="stroke-linecap:butt;stroke-linejoin:round">
          <g
             id="line2d_12-6"
             style="stroke-linecap:butt;stroke-linejoin:round">
            <path
               id="path5539"
               style="fill:none;stroke:#b0b0b0;stroke-width:0.8;stroke-linecap:square;stroke-linejoin:round"
               d="M 57.6,49.003472 H 414.72"
               clip-path="url(#p19b9f9fd55)"
               inkscape:connector-curvature="0" />
          </g>
          <g
             id="line2d_13-5"
             style="stroke-linecap:butt;stroke-linejoin:round">
            <g
               id="g5544"
               style="stroke-linecap:butt;stroke-linejoin:round">
              <path
                 style="stroke:#000000;stroke-width:0.8;stroke-linecap:butt;stroke-linejoin:round"
                 id="use5542"
                 d="m 57.599998,49.003471 h -3.5" />
            </g>
          </g>
          <g
             id="text_3-99"
             style="stroke-linecap:butt;stroke-linejoin:round">
            <!-- 1 -->
            <g
               id="g5552"
               transform="matrix(0.2,0,0,-0.2,37.875,56.601909)"
               style="stroke-linecap:butt;stroke-linejoin:round">
              <defs
                 id="defs5548">
                <path
                   id="path4243"
                   d="M 14.203125,0 V 5.171875 H 26.90625 v 60.65625 l -14.703125,-9.53125 v 6.40625 L 29.984375,74.21875 H 36.71875 V 5.171875 H 49.421875 V 0 Z"
                   inkscape:connector-curvature="0"
                   style="stroke-linecap:butt;stroke-linejoin:round" />
              </defs>
              <path
                 id="use5550"
                 d="M 14.203125,0 V 5.171875 H 26.90625 v 60.65625 l -14.703125,-9.53125 v 6.40625 L 29.984375,74.21875 H 36.71875 V 5.171875 H 49.421875 V 0 Z"
                 style="stroke-linecap:butt;stroke-linejoin:round" />
            </g>
          </g>
        </g>
        <g
           id="text_4-76"
           style="stroke-linecap:butt;stroke-linejoin:round">
          <!-- Allele densities -->
        </g>
      </g>
      <g
         id="line2d_14-6"
         style="stroke-linecap:butt;stroke-linejoin:round" />
      <g
         id="line2d_15-91"
         style="stroke-linecap:butt;stroke-linejoin:round">
        <path
           id="path5605"
           style="fill:none;stroke:#dc143c;stroke-width:11.0168;stroke-linecap:square;stroke-linejoin:round;stroke-miterlimit:4;stroke-dasharray:none"
           d="M 73.832727,300.05253 H 398.48727 v 0"
           clip-path="url(#p19b9f9fd55)"
           inkscape:connector-curvature="0" />
      </g>
      <g
         id="patch_3-0"
         style="stroke-linecap:butt;stroke-linejoin:round">
        <path
           id="path5608"
           style="fill:none;stroke:#000000;stroke-width:0.8;stroke-linecap:square;stroke-linejoin:miter"
           d="M 57.6,307.584 V 41.472"
           inkscape:connector-curvature="0" />
      </g>
      <g
         id="patch_4-42"
         style="stroke-linecap:butt;stroke-linejoin:round">
        <path
           id="path5611"
           style="fill:none;stroke:#000000;stroke-width:0.8;stroke-linecap:square;stroke-linejoin:miter"
           d="M 414.72,307.584 V 41.472"
           inkscape:connector-curvature="0" />
      </g>
      <g
         id="patch_5-74"
         style="stroke-linecap:butt;stroke-linejoin:round">
        <path
           id="path5614"
           style="fill:none;stroke:#000000;stroke-width:0.8;stroke-linecap:square;stroke-linejoin:miter"
           d="M 57.6,307.584 H 414.72"
           inkscape:connector-curvature="0" />
      </g>
      <g
         id="patch_6-0"
         style="stroke-linecap:butt;stroke-linejoin:round">
        <path
           id="path5617"
           style="fill:none;stroke:#000000;stroke-width:0.8;stroke-linecap:square;stroke-linejoin:miter"
           d="M 57.6,41.472 H 414.72"
           inkscape:connector-curvature="0" />
      </g>
    </g>
    <path
       inkscape:connector-curvature="0"
       style="fill:#666666;fill-opacity:1;stroke:#888888;stroke-width:0.403473;stroke-linecap:butt;stroke-linejoin:round;stroke-miterlimit:4;stroke-dasharray:none;stroke-opacity:1"
       d="m 20.589736,31.341076 c 4e-5,0.20688 0.0791,0.41357 0.23771,0.57205 l 0.18448,0.18449 c 0.31714,0.31697 0.82767,0.31661 1.14464,-5.3e-4 l 1.21439,-1.21492 v 6.23218 c 0,0.40571 0.32655,0.73226 0.73226,0.73226 h 0.23616 c 0.40571,0 0.73225,-0.32655 0.73225,-0.73226 v -6.27972 l 1.26194,1.26142 c 0.31714,0.31697 0.82767,0.31714 1.14463,0 l 0.18501,-0.185 c 0.31697,-0.31713 0.31609,-0.82766 -10e-4,-1.14463 l -2.66082,-2.65927 v -5.3e-4 l -0.18501,-0.185 c -0.31712,-0.31697 -0.82766,-0.3161 -1.14463,0.001 l -0.18444,0.18392 -2.66031,2.66186 c -0.15848,0.15856 -0.23724,0.36569 -0.23719,0.57257 z"
       id="rect30238-8-4" />
    <path
       inkscape:connector-curvature="0"
       style="fill:#666666;fill-opacity:1;stroke:#888888;stroke-width:0.403473;stroke-linecap:butt;stroke-linejoin:round;stroke-miterlimit:4;stroke-dasharray:none;stroke-opacity:1"
       d="m 61.039621,25.981918 c -4e-5,-0.20688 -0.0791,-0.41357 -0.23771,-0.57205 l -0.18448,-0.18449 c -0.31714,-0.31697 -0.82767,-0.31661 -1.14464,5.3e-4 l -1.21439,1.21492 v -6.23218 c 0,-0.40571 -0.32655,-0.73226 -0.73226,-0.73226 h -0.23616 c -0.40571,0 -0.73225,0.32655 -0.73225,0.73226 v 6.27972 l -1.26194,-1.26142 c -0.31714,-0.31697 -0.82767,-0.31714 -1.14463,0 l -0.18501,0.185 c -0.31697,0.31713 -0.31609,0.82766 10e-4,1.14463 l 2.66082,2.65927 v 5.3e-4 l 0.18501,0.185 c 0.31712,0.31697 0.82766,0.3161 1.14463,-0.001 l 0.18444,-0.18392 2.66031,-2.66186 c 0.15848,-0.15856 0.23724,-0.36569 0.23719,-0.57257 z"
       id="rect30238-8-4-3" />
    <g
       id="figure_1"
       transform="matrix(0.35277777,0,0,0.35277777,57.333791,-13.893468)"
       style="stroke-linecap:butt;stroke-linejoin:round">
      <g
         id="axes_1"
         style="stroke-linecap:butt;stroke-linejoin:round"
         transform="matrix(0.38524497,0,0,0.38524497,7.3290917,52.311065)">
        <g
           id="line2d_14"
           style="stroke-linecap:butt;stroke-linejoin:round"
           transform="translate(-377.68203)">
          <path
             clip-path="url(#p23a2f8d1fb)"
             d="m 73.832727,272.58102 4.869818,-0.0668 4.869819,-0.26732 4.869818,-0.46751 4.869818,-0.66724 4.869818,-0.86628 4.869822,-1.06438 4.86981,-1.26134 4.86982,-1.45685 4.86982,-1.65065 4.86982,-1.84241 4.86982,-2.0318 4.86981,-2.21845 6.4931,-3.24281 6.49309,-3.56042 6.49309,-3.86803 6.49309,-4.16408 6.49309,-4.44701 6.49309,-4.71515 6.49309,-4.96682 8.11636,-6.53464 8.11637,-6.86033 8.11636,-7.14315 9.73964,-8.87952 11.36291,-10.6745 19.47927,-18.68331 16.23273,-15.46983 11.36291,-10.52147 9.73963,-8.69059 8.11637,-6.94562 8.11636,-6.62694 6.49309,-5.04351 6.49309,-4.79243 6.49309,-4.52301 6.49309,-4.2369 6.4931,-3.93574 6.49309,-3.621151 6.49309,-3.294713 4.86982,-2.250536 4.86981,-2.057244 4.86982,-1.860559 4.86982,-1.660901 4.86982,-1.45866 4.86982,-1.254215 4.86981,-1.047916 4.86982,-0.840106 4.86982,-0.631103 4.86982,-0.421221 4.86982,-0.210754 3.24654,-0.02342 v 0"
             style="fill:none;stroke:#6495ed;stroke-width:10;stroke-linecap:square;stroke-linejoin:round"
             id="path4583" />
        </g>
      </g>
    </g>
  </g>
</svg>
