<?xml version="1.0" encoding="utf-8" standalone="no"?>
<!DOCTYPE svg PUBLIC "-//W3C//DTD SVG 1.1//EN"
  "http://www.w3.org/Graphics/SVG/1.1/DTD/svg11.dtd">
<!-- Created with matplotlib (https://matplotlib.org/) -->
<svg height="345.6pt" version="1.1" viewBox="0 0 460.8 345.6" width="460.8pt" xmlns="http://www.w3.org/2000/svg" xmlns:xlink="http://www.w3.org/1999/xlink">
 <metadata>
  <rdf:RDF xmlns:cc="http://creativecommons.org/ns#" xmlns:dc="http://purl.org/dc/elements/1.1/" xmlns:rdf="http://www.w3.org/1999/02/22-rdf-syntax-ns#">
   <cc:Work>
    <dc:type rdf:resource="http://purl.org/dc/dcmitype/StillImage"/>
    <dc:date>2022-05-25T01:06:03.291106</dc:date>
    <dc:format>image/svg+xml</dc:format>
    <dc:creator>
     <cc:Agent>
      <dc:title>Matplotlib v3.3.4, https://matplotlib.org/</dc:title>
     </cc:Agent>
    </dc:creator>
   </cc:Work>
  </rdf:RDF>
 </metadata>
 <defs>
  <style type="text/css">*{stroke-linecap:butt;stroke-linejoin:round;}</style>
 </defs>
 <g id="figure_1">
  <g id="patch_1">
   <path d="M 0 345.6 
L 460.8 345.6 
L 460.8 0 
L 0 0 
z
" style="fill:#ffffff;"/>
  </g>
  <g id="axes_1">
   <g id="patch_2">
    <path d="M 57.6 307.584 
L 414.72 307.584 
L 414.72 41.472 
L 57.6 41.472 
z
" style="fill:#ffffff;"/>
   </g>
   <g id="PolyCollection_1">
    <defs>
     <path d="M 57.6 -38.016 
L 57.6 -279.936 
L 58.31424 -279.936 
L 59.02848 -279.935999 
L 59.74272 -279.935998 
L 60.45696 -279.935997 
L 61.1712 -279.935996 
L 61.88544 -279.935994 
L 62.59968 -279.935992 
L 63.31392 -279.935989 
L 64.02816 -279.935986 
L 64.7424 -279.935983 
L 65.45664 -279.935978 
L 66.17088 -279.935973 
L 66.88512 -279.935967 
L 67.59936 -279.935961 
L 68.3136 -279.935953 
L 69.02784 -279.935944 
L 69.74208 -279.935933 
L 70.45632 -279.935921 
L 71.17056 -279.935907 
L 71.8848 -279.935891 
L 72.59904 -279.935873 
L 73.31328 -279.935852 
L 74.02752 -279.935828 
L 74.74176 -279.9358 
L 75.456 -279.935769 
L 76.17024 -279.935733 
L 76.88448 -279.935692 
L 77.59872 -279.935645 
L 78.31296 -279.935592 
L 79.0272 -279.935531 
L 79.74144 -279.935462 
L 80.45568 -279.935384 
L 81.16992 -279.935295 
L 81.88416 -279.935194 
L 82.5984 -279.935079 
L 83.31264 -279.93495 
L 84.02688 -279.934804 
L 84.74112 -279.934639 
L 85.45536 -279.934452 
L 86.1696 -279.934242 
L 86.88384 -279.934006 
L 87.59808 -279.93374 
L 88.31232 -279.93344 
L 89.02656 -279.933104 
L 89.7408 -279.932727 
L 90.45504 -279.932304 
L 91.16928 -279.931831 
L 91.88352 -279.931301 
L 92.59776 -279.930708 
L 93.312 -279.930047 
L 94.02624 -279.929309 
L 94.74048 -279.928486 
L 95.45472 -279.92757 
L 96.16896 -279.92655 
L 96.8832 -279.925417 
L 97.59744 -279.924159 
L 98.31168 -279.922762 
L 99.02592 -279.921215 
L 99.74016 -279.919501 
L 100.4544 -279.917605 
L 101.16864 -279.915509 
L 101.88288 -279.913195 
L 102.59712 -279.910642 
L 103.31136 -279.907828 
L 104.0256 -279.904729 
L 104.73984 -279.90132 
L 105.45408 -279.897573 
L 106.16832 -279.893458 
L 106.88256 -279.888945 
L 107.5968 -279.883998 
L 108.31104 -279.878581 
L 109.02528 -279.872655 
L 109.73952 -279.866179 
L 110.45376 -279.859107 
L 111.168 -279.851393 
L 111.88224 -279.842986 
L 112.59648 -279.833832 
L 113.31072 -279.823874 
L 114.02496 -279.813052 
L 114.7392 -279.801301 
L 115.45344 -279.788555 
L 116.16768 -279.774741 
L 116.88192 -279.759785 
L 117.59616 -279.743606 
L 118.3104 -279.726122 
L 119.02464 -279.707245 
L 119.73888 -279.686882 
L 120.45312 -279.664937 
L 121.16736 -279.641311 
L 121.8816 -279.615896 
L 122.59584 -279.588585 
L 123.31008 -279.559261 
L 124.02432 -279.527808 
L 124.73856 -279.4941 
L 125.4528 -279.458011 
L 126.16704 -279.419409 
L 126.88128 -279.378155 
L 127.59552 -279.334111 
L 128.30976 -279.28713 
L 129.024 -279.237063 
L 129.73824 -279.183758 
L 130.45248 -279.127057 
L 131.16672 -279.0668 
L 131.88096 -279.002823 
L 132.5952 -278.934961 
L 133.30944 -278.863043 
L 134.02368 -278.786898 
L 134.73792 -278.706351 
L 135.45216 -278.621228 
L 136.1664 -278.531352 
L 136.88064 -278.436543 
L 137.59488 -278.336626 
L 138.30912 -278.23142 
L 139.02336 -278.120748 
L 139.7376 -278.004433 
L 140.45184 -277.8823 
L 141.16608 -277.754176 
L 141.88032 -277.61989 
L 142.59456 -277.479275 
L 143.3088 -277.332168 
L 144.02304 -277.178408 
L 144.73728 -277.017844 
L 145.45152 -276.850326 
L 146.16576 -276.675712 
L 146.88 -276.493869 
L 147.59424 -276.304668 
L 148.30848 -276.107991 
L 149.02272 -275.903729 
L 149.73696 -275.691779 
L 150.4512 -275.472053 
L 151.16544 -275.24447 
L 151.87968 -275.008963 
L 152.59392 -274.765474 
L 153.30816 -274.51396 
L 154.0224 -274.254388 
L 154.73664 -273.986741 
L 155.45088 -273.711013 
L 156.16512 -273.427215 
L 156.87936 -273.13537 
L 157.5936 -272.835516 
L 158.30784 -272.527707 
L 159.02208 -272.21201 
L 159.73632 -271.888509 
L 160.45056 -271.557303 
L 161.1648 -271.218505 
L 161.87904 -270.872244 
L 162.59328 -270.518665 
L 163.30752 -270.157926 
L 164.02176 -269.790201 
L 164.736 -269.415679 
L 165.45024 -269.034561 
L 166.16448 -268.647064 
L 166.87872 -268.253417 
L 167.59296 -267.853862 
L 168.3072 -267.448653 
L 169.02144 -267.038055 
L 169.73568 -266.622345 
L 170.44992 -266.201809 
L 171.16416 -265.776743 
L 171.8784 -265.347451 
L 172.59264 -264.914244 
L 173.30688 -264.477439 
L 174.02112 -264.037362 
L 174.73536 -263.594339 
L 175.4496 -263.148701 
L 176.16384 -262.700782 
L 176.87808 -262.250917 
L 177.59232 -261.799439 
L 178.30656 -261.346681 
L 179.0208 -260.892973 
L 179.73504 -260.438641 
L 180.44928 -259.984005 
L 181.16352 -259.529377 
L 181.87776 -259.075061 
L 182.592 -258.621352 
L 183.30624 -258.168532 
L 184.02048 -257.716869 
L 184.73472 -257.266616 
L 185.44896 -256.818007 
L 186.1632 -256.371259 
L 186.87744 -255.926564 
L 187.59168 -255.484092 
L 188.30592 -255.043985 
L 189.02016 -254.606355 
L 189.7344 -254.171281 
L 190.44864 -253.738806 
L 191.16288 -253.308931 
L 191.87712 -252.881614 
L 192.59136 -252.456762 
L 193.3056 -252.03423 
L 194.01984 -251.61381 
L 194.73408 -251.195228 
L 195.44832 -250.778133 
L 196.16256 -250.362094 
L 196.8768 -249.946586 
L 197.59104 -249.53098 
L 198.30528 -249.114532 
L 199.01952 -248.696371 
L 199.73376 -248.275478 
L 200.448 -247.850675 
L 201.16224 -247.420603 
L 201.87648 -246.983699 
L 202.59072 -246.538173 
L 203.30496 -246.081982 
L 204.0192 -245.612795 
L 204.73344 -245.127963 
L 205.44768 -244.624483 
L 206.16192 -244.098948 
L 206.87616 -243.547513 
L 207.5904 -242.965836 
L 208.30464 -242.34903 
L 209.01888 -241.691603 
L 209.73312 -240.987398 
L 210.44736 -240.229531 
L 211.1616 -239.410326 
L 211.87584 -238.521247 
L 212.59008 -237.552845 
L 213.30432 -236.494692 
L 214.01856 -235.335344 
L 214.7328 -234.062302 
L 215.44704 -232.662007 
L 216.16128 -231.119857 
L 216.87552 -229.42026 
L 217.58976 -227.546744 
L 218.304 -225.482112 
L 219.01824 -223.208685 
L 219.73248 -220.70861 
L 220.44672 -217.964277 
L 221.16096 -214.958825 
L 221.8752 -211.676753 
L 222.58944 -208.10463 
L 223.30368 -204.231886 
L 224.01792 -200.05165 
L 224.73216 -195.561609 
L 225.4464 -190.764819 
L 226.16064 -185.670407 
L 226.87488 -180.294088 
L 227.58912 -174.65843 
L 228.30336 -168.792795 
L 229.0176 -162.732926 
L 229.73184 -156.52016 
L 230.44608 -150.200295 
L 231.16032 -143.822178 
L 231.87456 -137.436108 
L 232.5888 -131.092161 
L 233.30304 -124.838568 
L 234.01728 -118.720257 
L 234.73152 -112.777645 
L 235.44576 -107.045735 
L 236.16 -101.553556 
L 236.87424 -96.323921 
L 237.58848 -91.373483 
L 238.30272 -86.713031 
L 239.01696 -82.347972 
L 239.7312 -78.278937 
L 240.44544 -74.502451 
L 241.15968 -71.011628 
L 241.87392 -67.796853 
L 242.58816 -64.846413 
L 243.3024 -62.147077 
L 244.01664 -59.684602 
L 244.73088 -57.444162 
L 245.44512 -55.41071 
L 246.15936 -53.569273 
L 246.8736 -51.905178 
L 247.58784 -50.40423 
L 248.30208 -49.052843 
L 249.01632 -47.838125 
L 249.73056 -46.747939 
L 250.4448 -45.770931 
L 251.15904 -44.896539 
L 251.87328 -44.114985 
L 252.58752 -43.417258 
L 253.30176 -42.795084 
L 254.016 -42.240891 
L 254.73024 -41.747771 
L 255.44448 -41.309438 
L 256.15872 -40.920187 
L 256.87296 -40.574849 
L 257.5872 -40.268753 
L 258.30144 -39.997684 
L 259.01568 -39.757846 
L 259.72992 -39.545825 
L 260.44416 -39.358554 
L 261.1584 -39.193283 
L 261.87264 -39.047549 
L 262.58688 -38.919149 
L 263.30112 -38.806113 
L 264.01536 -38.706685 
L 264.7296 -38.619298 
L 265.44384 -38.542554 
L 266.15808 -38.475213 
L 266.87232 -38.416169 
L 267.58656 -38.364443 
L 268.3008 -38.319164 
L 269.01504 -38.27956 
L 269.72928 -38.244948 
L 270.44352 -38.214724 
L 271.15776 -38.188352 
L 271.872 -38.16536 
L 272.58624 -38.145332 
L 273.30048 -38.127899 
L 274.01472 -38.112738 
L 274.72896 -38.099563 
L 275.4432 -38.088125 
L 276.15744 -38.078201 
L 276.87168 -38.069599 
L 277.58592 -38.062148 
L 278.30016 -38.055701 
L 279.0144 -38.050127 
L 279.72864 -38.04531 
L 280.44288 -38.041153 
L 281.15712 -38.037568 
L 281.87136 -38.034478 
L 282.5856 -38.031818 
L 283.29984 -38.029529 
L 284.01408 -38.027562 
L 284.72832 -38.025872 
L 285.44256 -38.024423 
L 286.1568 -38.02318 
L 286.87104 -38.022115 
L 287.58528 -38.021204 
L 288.29952 -38.020425 
L 289.01376 -38.019759 
L 289.728 -38.019191 
L 290.44224 -38.018706 
L 291.15648 -38.018293 
L 291.87072 -38.017942 
L 292.58496 -38.017642 
L 293.2992 -38.017388 
L 294.01344 -38.017172 
L 294.72768 -38.016989 
L 295.44192 -38.016834 
L 296.15616 -38.016702 
L 296.8704 -38.016591 
L 297.58464 -38.016497 
L 298.29888 -38.016418 
L 299.01312 -38.01635 
L 299.72736 -38.016294 
L 300.4416 -38.016246 
L 301.15584 -38.016206 
L 301.87008 -38.016172 
L 302.58432 -38.016144 
L 303.29856 -38.01612 
L 304.0128 -38.0161 
L 304.72704 -38.016084 
L 305.44128 -38.01607 
L 306.15552 -38.016058 
L 306.86976 -38.016048 
L 307.584 -38.01604 
L 308.29824 -38.016033 
L 309.01248 -38.016028 
L 309.72672 -38.016023 
L 310.44096 -38.016019 
L 311.1552 -38.016016 
L 311.86944 -38.016013 
L 312.58368 -38.016011 
L 313.29792 -38.016009 
L 314.01216 -38.016007 
L 314.7264 -38.016006 
L 315.44064 -38.016005 
L 316.15488 -38.016004 
L 316.86912 -38.016003 
L 317.58336 -38.016003 
L 318.2976 -38.016002 
L 319.01184 -38.016002 
L 319.72608 -38.016001 
L 320.44032 -38.016001 
L 321.15456 -38.016001 
L 321.8688 -38.016001 
L 322.58304 -38.016001 
L 323.29728 -38.016001 
L 324.01152 -38.016 
L 324.72576 -38.016 
L 325.44 -38.016 
L 326.15424 -38.016 
L 326.86848 -38.016 
L 327.58272 -38.016 
L 328.29696 -38.016 
L 329.0112 -38.016 
L 329.72544 -38.016 
L 330.43968 -38.016 
L 331.15392 -38.016 
L 331.86816 -38.016 
L 332.5824 -38.016 
L 333.29664 -38.016 
L 334.01088 -38.016 
L 334.72512 -38.016 
L 335.43936 -38.016 
L 336.1536 -38.016 
L 336.86784 -38.016 
L 337.58208 -38.016 
L 338.29632 -38.016 
L 339.01056 -38.016 
L 339.7248 -38.016 
L 340.43904 -38.016 
L 341.15328 -38.016 
L 341.86752 -38.016 
L 342.58176 -38.016 
L 343.296 -38.016 
L 344.01024 -38.016 
L 344.72448 -38.016 
L 345.43872 -38.016 
L 346.15296 -38.016 
L 346.8672 -38.016 
L 347.58144 -38.016 
L 348.29568 -38.016 
L 349.00992 -38.016 
L 349.72416 -38.016 
L 350.4384 -38.016 
L 351.15264 -38.016 
L 351.86688 -38.016 
L 352.58112 -38.016 
L 353.29536 -38.016 
L 354.0096 -38.016 
L 354.72384 -38.016 
L 355.43808 -38.016 
L 356.15232 -38.016 
L 356.86656 -38.016 
L 357.5808 -38.016 
L 358.29504 -38.016 
L 359.00928 -38.016 
L 359.72352 -38.016 
L 360.43776 -38.016 
L 361.152 -38.016 
L 361.86624 -38.016 
L 362.58048 -38.016 
L 363.29472 -38.016 
L 364.00896 -38.016 
L 364.7232 -38.016 
L 365.43744 -38.016 
L 366.15168 -38.016 
L 366.86592 -38.016 
L 367.58016 -38.016 
L 368.2944 -38.016 
L 369.00864 -38.016 
L 369.72288 -38.016 
L 370.43712 -38.016 
L 371.15136 -38.016 
L 371.8656 -38.016 
L 372.57984 -38.016 
L 373.29408 -38.016 
L 374.00832 -38.016 
L 374.72256 -38.016 
L 375.4368 -38.016 
L 376.15104 -38.016 
L 376.86528 -38.016 
L 377.57952 -38.016 
L 378.29376 -38.016 
L 379.008 -38.016 
L 379.72224 -38.016 
L 380.43648 -38.016 
L 381.15072 -38.016 
L 381.86496 -38.016 
L 382.5792 -38.016 
L 383.29344 -38.016 
L 384.00768 -38.016 
L 384.72192 -38.016 
L 385.43616 -38.016 
L 386.1504 -38.016 
L 386.86464 -38.016 
L 387.57888 -38.016 
L 388.29312 -38.016 
L 389.00736 -38.016 
L 389.7216 -38.016 
L 390.43584 -38.016 
L 391.15008 -38.016 
L 391.86432 -38.016 
L 392.57856 -38.016 
L 393.2928 -38.016 
L 394.00704 -38.016 
L 394.72128 -38.016 
L 395.43552 -38.016 
L 396.14976 -38.016 
L 396.864 -38.016 
L 397.57824 -38.016 
L 398.29248 -38.016 
L 399.00672 -38.016 
L 399.72096 -38.016 
L 400.4352 -38.016 
L 401.14944 -38.016 
L 401.86368 -38.016 
L 402.57792 -38.016 
L 403.29216 -38.016 
L 404.0064 -38.016 
L 404.72064 -38.016 
L 405.43488 -38.016 
L 406.14912 -38.016 
L 406.86336 -38.016 
L 407.5776 -38.016 
L 408.29184 -38.016 
L 409.00608 -38.016 
L 409.72032 -38.016 
L 410.43456 -38.016 
L 411.1488 -38.016 
L 411.86304 -38.016 
L 412.57728 -38.016 
L 413.29152 -38.016 
L 414.00576 -38.016 
L 414.72 -38.016 
L 414.72 -38.016 
L 414.72 -38.016 
L 414.00576 -38.016 
L 413.29152 -38.016 
L 412.57728 -38.016 
L 411.86304 -38.016 
L 411.1488 -38.016 
L 410.43456 -38.016 
L 409.72032 -38.016 
L 409.00608 -38.016 
L 408.29184 -38.016 
L 407.5776 -38.016 
L 406.86336 -38.016 
L 406.14912 -38.016 
L 405.43488 -38.016 
L 404.72064 -38.016 
L 404.0064 -38.016 
L 403.29216 -38.016 
L 402.57792 -38.016 
L 401.86368 -38.016 
L 401.14944 -38.016 
L 400.4352 -38.016 
L 399.72096 -38.016 
L 399.00672 -38.016 
L 398.29248 -38.016 
L 397.57824 -38.016 
L 396.864 -38.016 
L 396.14976 -38.016 
L 395.43552 -38.016 
L 394.72128 -38.016 
L 394.00704 -38.016 
L 393.2928 -38.016 
L 392.57856 -38.016 
L 391.86432 -38.016 
L 391.15008 -38.016 
L 390.43584 -38.016 
L 389.7216 -38.016 
L 389.00736 -38.016 
L 388.29312 -38.016 
L 387.57888 -38.016 
L 386.86464 -38.016 
L 386.1504 -38.016 
L 385.43616 -38.016 
L 384.72192 -38.016 
L 384.00768 -38.016 
L 383.29344 -38.016 
L 382.5792 -38.016 
L 381.86496 -38.016 
L 381.15072 -38.016 
L 380.43648 -38.016 
L 379.72224 -38.016 
L 379.008 -38.016 
L 378.29376 -38.016 
L 377.57952 -38.016 
L 376.86528 -38.016 
L 376.15104 -38.016 
L 375.4368 -38.016 
L 374.72256 -38.016 
L 374.00832 -38.016 
L 373.29408 -38.016 
L 372.57984 -38.016 
L 371.8656 -38.016 
L 371.15136 -38.016 
L 370.43712 -38.016 
L 369.72288 -38.016 
L 369.00864 -38.016 
L 368.2944 -38.016 
L 367.58016 -38.016 
L 366.86592 -38.016 
L 366.15168 -38.016 
L 365.43744 -38.016 
L 364.7232 -38.016 
L 364.00896 -38.016 
L 363.29472 -38.016 
L 362.58048 -38.016 
L 361.86624 -38.016 
L 361.152 -38.016 
L 360.43776 -38.016 
L 359.72352 -38.016 
L 359.00928 -38.016 
L 358.29504 -38.016 
L 357.5808 -38.016 
L 356.86656 -38.016 
L 356.15232 -38.016 
L 355.43808 -38.016 
L 354.72384 -38.016 
L 354.0096 -38.016 
L 353.29536 -38.016 
L 352.58112 -38.016 
L 351.86688 -38.016 
L 351.15264 -38.016 
L 350.4384 -38.016 
L 349.72416 -38.016 
L 349.00992 -38.016 
L 348.29568 -38.016 
L 347.58144 -38.016 
L 346.8672 -38.016 
L 346.15296 -38.016 
L 345.43872 -38.016 
L 344.72448 -38.016 
L 344.01024 -38.016 
L 343.296 -38.016 
L 342.58176 -38.016 
L 341.86752 -38.016 
L 341.15328 -38.016 
L 340.43904 -38.016 
L 339.7248 -38.016 
L 339.01056 -38.016 
L 338.29632 -38.016 
L 337.58208 -38.016 
L 336.86784 -38.016 
L 336.1536 -38.016 
L 335.43936 -38.016 
L 334.72512 -38.016 
L 334.01088 -38.016 
L 333.29664 -38.016 
L 332.5824 -38.016 
L 331.86816 -38.016 
L 331.15392 -38.016 
L 330.43968 -38.016 
L 329.72544 -38.016 
L 329.0112 -38.016 
L 328.29696 -38.016 
L 327.58272 -38.016 
L 326.86848 -38.016 
L 326.15424 -38.016 
L 325.44 -38.016 
L 324.72576 -38.016 
L 324.01152 -38.016 
L 323.29728 -38.016 
L 322.58304 -38.016 
L 321.8688 -38.016 
L 321.15456 -38.016 
L 320.44032 -38.016 
L 319.72608 -38.016 
L 319.01184 -38.016 
L 318.2976 -38.016 
L 317.58336 -38.016 
L 316.86912 -38.016 
L 316.15488 -38.016 
L 315.44064 -38.016 
L 314.7264 -38.016 
L 314.01216 -38.016 
L 313.29792 -38.016 
L 312.58368 -38.016 
L 311.86944 -38.016 
L 311.1552 -38.016 
L 310.44096 -38.016 
L 309.72672 -38.016 
L 309.01248 -38.016 
L 308.29824 -38.016 
L 307.584 -38.016 
L 306.86976 -38.016 
L 306.15552 -38.016 
L 305.44128 -38.016 
L 304.72704 -38.016 
L 304.0128 -38.016 
L 303.29856 -38.016 
L 302.58432 -38.016 
L 301.87008 -38.016 
L 301.15584 -38.016 
L 300.4416 -38.016 
L 299.72736 -38.016 
L 299.01312 -38.016 
L 298.29888 -38.016 
L 297.58464 -38.016 
L 296.8704 -38.016 
L 296.15616 -38.016 
L 295.44192 -38.016 
L 294.72768 -38.016 
L 294.01344 -38.016 
L 293.2992 -38.016 
L 292.58496 -38.016 
L 291.87072 -38.016 
L 291.15648 -38.016 
L 290.44224 -38.016 
L 289.728 -38.016 
L 289.01376 -38.016 
L 288.29952 -38.016 
L 287.58528 -38.016 
L 286.87104 -38.016 
L 286.1568 -38.016 
L 285.44256 -38.016 
L 284.72832 -38.016 
L 284.01408 -38.016 
L 283.29984 -38.016 
L 282.5856 -38.016 
L 281.87136 -38.016 
L 281.15712 -38.016 
L 280.44288 -38.016 
L 279.72864 -38.016 
L 279.0144 -38.016 
L 278.30016 -38.016 
L 277.58592 -38.016 
L 276.87168 -38.016 
L 276.15744 -38.016 
L 275.4432 -38.016 
L 274.72896 -38.016 
L 274.01472 -38.016 
L 273.30048 -38.016 
L 272.58624 -38.016 
L 271.872 -38.016 
L 271.15776 -38.016 
L 270.44352 -38.016 
L 269.72928 -38.016 
L 269.01504 -38.016 
L 268.3008 -38.016 
L 267.58656 -38.016 
L 266.87232 -38.016 
L 266.15808 -38.016 
L 265.44384 -38.016 
L 264.7296 -38.016 
L 264.01536 -38.016 
L 263.30112 -38.016 
L 262.58688 -38.016 
L 261.87264 -38.016 
L 261.1584 -38.016 
L 260.44416 -38.016 
L 259.72992 -38.016 
L 259.01568 -38.016 
L 258.30144 -38.016 
L 257.5872 -38.016 
L 256.87296 -38.016 
L 256.15872 -38.016 
L 255.44448 -38.016 
L 254.73024 -38.016 
L 254.016 -38.016 
L 253.30176 -38.016 
L 252.58752 -38.016 
L 251.87328 -38.016 
L 251.15904 -38.016 
L 250.4448 -38.016 
L 249.73056 -38.016 
L 249.01632 -38.016 
L 248.30208 -38.016 
L 247.58784 -38.016 
L 246.8736 -38.016 
L 246.15936 -38.016 
L 245.44512 -38.016 
L 244.73088 -38.016 
L 244.01664 -38.016 
L 243.3024 -38.016 
L 242.58816 -38.016 
L 241.87392 -38.016 
L 241.15968 -38.016 
L 240.44544 -38.016 
L 239.7312 -38.016 
L 239.01696 -38.016 
L 238.30272 -38.016 
L 237.58848 -38.016 
L 236.87424 -38.016 
L 236.16 -38.016 
L 235.44576 -38.016 
L 234.73152 -38.016 
L 234.01728 -38.016 
L 233.30304 -38.016 
L 232.5888 -38.016 
L 231.87456 -38.016 
L 231.16032 -38.016 
L 230.44608 -38.016 
L 229.73184 -38.016 
L 229.0176 -38.016 
L 228.30336 -38.016 
L 227.58912 -38.016 
L 226.87488 -38.016 
L 226.16064 -38.016 
L 225.4464 -38.016 
L 224.73216 -38.016 
L 224.01792 -38.016 
L 223.30368 -38.016 
L 222.58944 -38.016 
L 221.8752 -38.016 
L 221.16096 -38.016 
L 220.44672 -38.016 
L 219.73248 -38.016 
L 219.01824 -38.016 
L 218.304 -38.016 
L 217.58976 -38.016 
L 216.87552 -38.016 
L 216.16128 -38.016 
L 215.44704 -38.016 
L 214.7328 -38.016 
L 214.01856 -38.016 
L 213.30432 -38.016 
L 212.59008 -38.016 
L 211.87584 -38.016 
L 211.1616 -38.016 
L 210.44736 -38.016 
L 209.73312 -38.016 
L 209.01888 -38.016 
L 208.30464 -38.016 
L 207.5904 -38.016 
L 206.87616 -38.016 
L 206.16192 -38.016 
L 205.44768 -38.016 
L 204.73344 -38.016 
L 204.0192 -38.016 
L 203.30496 -38.016 
L 202.59072 -38.016 
L 201.87648 -38.016 
L 201.16224 -38.016 
L 200.448 -38.016 
L 199.73376 -38.016 
L 199.01952 -38.016 
L 198.30528 -38.016 
L 197.59104 -38.016 
L 196.8768 -38.016 
L 196.16256 -38.016 
L 195.44832 -38.016 
L 194.73408 -38.016 
L 194.01984 -38.016 
L 193.3056 -38.016 
L 192.59136 -38.016 
L 191.87712 -38.016 
L 191.16288 -38.016 
L 190.44864 -38.016 
L 189.7344 -38.016 
L 189.02016 -38.016 
L 188.30592 -38.016 
L 187.59168 -38.016 
L 186.87744 -38.016 
L 186.1632 -38.016 
L 185.44896 -38.016 
L 184.73472 -38.016 
L 184.02048 -38.016 
L 183.30624 -38.016 
L 182.592 -38.016 
L 181.87776 -38.016 
L 181.16352 -38.016 
L 180.44928 -38.016 
L 179.73504 -38.016 
L 179.0208 -38.016 
L 178.30656 -38.016 
L 177.59232 -38.016 
L 176.87808 -38.016 
L 176.16384 -38.016 
L 175.4496 -38.016 
L 174.73536 -38.016 
L 174.02112 -38.016 
L 173.30688 -38.016 
L 172.59264 -38.016 
L 171.8784 -38.016 
L 171.16416 -38.016 
L 170.44992 -38.016 
L 169.73568 -38.016 
L 169.02144 -38.016 
L 168.3072 -38.016 
L 167.59296 -38.016 
L 166.87872 -38.016 
L 166.16448 -38.016 
L 165.45024 -38.016 
L 164.736 -38.016 
L 164.02176 -38.016 
L 163.30752 -38.016 
L 162.59328 -38.016 
L 161.87904 -38.016 
L 161.1648 -38.016 
L 160.45056 -38.016 
L 159.73632 -38.016 
L 159.02208 -38.016 
L 158.30784 -38.016 
L 157.5936 -38.016 
L 156.87936 -38.016 
L 156.16512 -38.016 
L 155.45088 -38.016 
L 154.73664 -38.016 
L 154.0224 -38.016 
L 153.30816 -38.016 
L 152.59392 -38.016 
L 151.87968 -38.016 
L 151.16544 -38.016 
L 150.4512 -38.016 
L 149.73696 -38.016 
L 149.02272 -38.016 
L 148.30848 -38.016 
L 147.59424 -38.016 
L 146.88 -38.016 
L 146.16576 -38.016 
L 145.45152 -38.016 
L 144.73728 -38.016 
L 144.02304 -38.016 
L 143.3088 -38.016 
L 142.59456 -38.016 
L 141.88032 -38.016 
L 141.16608 -38.016 
L 140.45184 -38.016 
L 139.7376 -38.016 
L 139.02336 -38.016 
L 138.30912 -38.016 
L 137.59488 -38.016 
L 136.88064 -38.016 
L 136.1664 -38.016 
L 135.45216 -38.016 
L 134.73792 -38.016 
L 134.02368 -38.016 
L 133.30944 -38.016 
L 132.5952 -38.016 
L 131.88096 -38.016 
L 131.16672 -38.016 
L 130.45248 -38.016 
L 129.73824 -38.016 
L 129.024 -38.016 
L 128.30976 -38.016 
L 127.59552 -38.016 
L 126.88128 -38.016 
L 126.16704 -38.016 
L 125.4528 -38.016 
L 124.73856 -38.016 
L 124.02432 -38.016 
L 123.31008 -38.016 
L 122.59584 -38.016 
L 121.8816 -38.016 
L 121.16736 -38.016 
L 120.45312 -38.016 
L 119.73888 -38.016 
L 119.02464 -38.016 
L 118.3104 -38.016 
L 117.59616 -38.016 
L 116.88192 -38.016 
L 116.16768 -38.016 
L 115.45344 -38.016 
L 114.7392 -38.016 
L 114.02496 -38.016 
L 113.31072 -38.016 
L 112.59648 -38.016 
L 111.88224 -38.016 
L 111.168 -38.016 
L 110.45376 -38.016 
L 109.73952 -38.016 
L 109.02528 -38.016 
L 108.31104 -38.016 
L 107.5968 -38.016 
L 106.88256 -38.016 
L 106.16832 -38.016 
L 105.45408 -38.016 
L 104.73984 -38.016 
L 104.0256 -38.016 
L 103.31136 -38.016 
L 102.59712 -38.016 
L 101.88288 -38.016 
L 101.16864 -38.016 
L 100.4544 -38.016 
L 99.74016 -38.016 
L 99.02592 -38.016 
L 98.31168 -38.016 
L 97.59744 -38.016 
L 96.8832 -38.016 
L 96.16896 -38.016 
L 95.45472 -38.016 
L 94.74048 -38.016 
L 94.02624 -38.016 
L 93.312 -38.016 
L 92.59776 -38.016 
L 91.88352 -38.016 
L 91.16928 -38.016 
L 90.45504 -38.016 
L 89.7408 -38.016 
L 89.02656 -38.016 
L 88.31232 -38.016 
L 87.59808 -38.016 
L 86.88384 -38.016 
L 86.1696 -38.016 
L 85.45536 -38.016 
L 84.74112 -38.016 
L 84.02688 -38.016 
L 83.31264 -38.016 
L 82.5984 -38.016 
L 81.88416 -38.016 
L 81.16992 -38.016 
L 80.45568 -38.016 
L 79.74144 -38.016 
L 79.0272 -38.016 
L 78.31296 -38.016 
L 77.59872 -38.016 
L 76.88448 -38.016 
L 76.17024 -38.016 
L 75.456 -38.016 
L 74.74176 -38.016 
L 74.02752 -38.016 
L 73.31328 -38.016 
L 72.59904 -38.016 
L 71.8848 -38.016 
L 71.17056 -38.016 
L 70.45632 -38.016 
L 69.74208 -38.016 
L 69.02784 -38.016 
L 68.3136 -38.016 
L 67.59936 -38.016 
L 66.88512 -38.016 
L 66.17088 -38.016 
L 65.45664 -38.016 
L 64.7424 -38.016 
L 64.02816 -38.016 
L 63.31392 -38.016 
L 62.59968 -38.016 
L 61.88544 -38.016 
L 61.1712 -38.016 
L 60.45696 -38.016 
L 59.74272 -38.016 
L 59.02848 -38.016 
L 58.31424 -38.016 
L 57.6 -38.016 
z
" id="m2fa28f206c" style="stroke:#509369;"/>
    </defs>
    <g clip-path="url(#pab07505ed5)">
     <use style="fill:#509369;stroke:#509369;" x="0" xlink:href="#m2fa28f206c" y="345.6"/>
    </g>
   </g>
   <g id="PolyCollection_2">
    <defs>
     <path d="M 57.6 -279.93601 
L 57.6 -279.936 
L 58.31424 -279.936 
L 59.02848 -279.935999 
L 59.74272 -279.935998 
L 60.45696 -279.935997 
L 61.1712 -279.935996 
L 61.88544 -279.935994 
L 62.59968 -279.935992 
L 63.31392 -279.935989 
L 64.02816 -279.935986 
L 64.7424 -279.935983 
L 65.45664 -279.935978 
L 66.17088 -279.935973 
L 66.88512 -279.935967 
L 67.59936 -279.935961 
L 68.3136 -279.935953 
L 69.02784 -279.935944 
L 69.74208 -279.935933 
L 70.45632 -279.935921 
L 71.17056 -279.935907 
L 71.8848 -279.935891 
L 72.59904 -279.935873 
L 73.31328 -279.935852 
L 74.02752 -279.935828 
L 74.74176 -279.9358 
L 75.456 -279.935769 
L 76.17024 -279.935733 
L 76.88448 -279.935692 
L 77.59872 -279.935645 
L 78.31296 -279.935592 
L 79.0272 -279.935531 
L 79.74144 -279.935462 
L 80.45568 -279.935384 
L 81.16992 -279.935295 
L 81.88416 -279.935194 
L 82.5984 -279.935079 
L 83.31264 -279.93495 
L 84.02688 -279.934804 
L 84.74112 -279.934639 
L 85.45536 -279.934452 
L 86.1696 -279.934242 
L 86.88384 -279.934006 
L 87.59808 -279.93374 
L 88.31232 -279.93344 
L 89.02656 -279.933104 
L 89.7408 -279.932727 
L 90.45504 -279.932304 
L 91.16928 -279.931831 
L 91.88352 -279.931301 
L 92.59776 -279.930708 
L 93.312 -279.930047 
L 94.02624 -279.929309 
L 94.74048 -279.928486 
L 95.45472 -279.92757 
L 96.16896 -279.92655 
L 96.8832 -279.925417 
L 97.59744 -279.924159 
L 98.31168 -279.922762 
L 99.02592 -279.921215 
L 99.74016 -279.919501 
L 100.4544 -279.917605 
L 101.16864 -279.915509 
L 101.88288 -279.913195 
L 102.59712 -279.910642 
L 103.31136 -279.907828 
L 104.0256 -279.904729 
L 104.73984 -279.90132 
L 105.45408 -279.897573 
L 106.16832 -279.893458 
L 106.88256 -279.888945 
L 107.5968 -279.883998 
L 108.31104 -279.878581 
L 109.02528 -279.872655 
L 109.73952 -279.866179 
L 110.45376 -279.859107 
L 111.168 -279.851393 
L 111.88224 -279.842986 
L 112.59648 -279.833832 
L 113.31072 -279.823874 
L 114.02496 -279.813052 
L 114.7392 -279.801301 
L 115.45344 -279.788555 
L 116.16768 -279.774741 
L 116.88192 -279.759785 
L 117.59616 -279.743606 
L 118.3104 -279.726122 
L 119.02464 -279.707245 
L 119.73888 -279.686882 
L 120.45312 -279.664937 
L 121.16736 -279.641311 
L 121.8816 -279.615896 
L 122.59584 -279.588585 
L 123.31008 -279.559261 
L 124.02432 -279.527808 
L 124.73856 -279.4941 
L 125.4528 -279.458011 
L 126.16704 -279.419409 
L 126.88128 -279.378155 
L 127.59552 -279.334111 
L 128.30976 -279.28713 
L 129.024 -279.237063 
L 129.73824 -279.183758 
L 130.45248 -279.127057 
L 131.16672 -279.0668 
L 131.88096 -279.002823 
L 132.5952 -278.934961 
L 133.30944 -278.863043 
L 134.02368 -278.786898 
L 134.73792 -278.706351 
L 135.45216 -278.621228 
L 136.1664 -278.531352 
L 136.88064 -278.436543 
L 137.59488 -278.336626 
L 138.30912 -278.23142 
L 139.02336 -278.120748 
L 139.7376 -278.004433 
L 140.45184 -277.8823 
L 141.16608 -277.754176 
L 141.88032 -277.61989 
L 142.59456 -277.479275 
L 143.3088 -277.332168 
L 144.02304 -277.178408 
L 144.73728 -277.017844 
L 145.45152 -276.850326 
L 146.16576 -276.675712 
L 146.88 -276.493869 
L 147.59424 -276.304668 
L 148.30848 -276.107991 
L 149.02272 -275.903729 
L 149.73696 -275.691779 
L 150.4512 -275.472053 
L 151.16544 -275.24447 
L 151.87968 -275.008963 
L 152.59392 -274.765474 
L 153.30816 -274.51396 
L 154.0224 -274.254388 
L 154.73664 -273.986741 
L 155.45088 -273.711013 
L 156.16512 -273.427215 
L 156.87936 -273.13537 
L 157.5936 -272.835516 
L 158.30784 -272.527707 
L 159.02208 -272.21201 
L 159.73632 -271.888509 
L 160.45056 -271.557303 
L 161.1648 -271.218505 
L 161.87904 -270.872244 
L 162.59328 -270.518665 
L 163.30752 -270.157926 
L 164.02176 -269.790201 
L 164.736 -269.415679 
L 165.45024 -269.034561 
L 166.16448 -268.647064 
L 166.87872 -268.253417 
L 167.59296 -267.853862 
L 168.3072 -267.448653 
L 169.02144 -267.038055 
L 169.73568 -266.622345 
L 170.44992 -266.201809 
L 171.16416 -265.776743 
L 171.8784 -265.347451 
L 172.59264 -264.914244 
L 173.30688 -264.477439 
L 174.02112 -264.037362 
L 174.73536 -263.594339 
L 175.4496 -263.148701 
L 176.16384 -262.700782 
L 176.87808 -262.250917 
L 177.59232 -261.799439 
L 178.30656 -261.346681 
L 179.0208 -260.892973 
L 179.73504 -260.438641 
L 180.44928 -259.984005 
L 181.16352 -259.529377 
L 181.87776 -259.075061 
L 182.592 -258.621352 
L 183.30624 -258.168532 
L 184.02048 -257.716869 
L 184.73472 -257.266616 
L 185.44896 -256.818007 
L 186.1632 -256.371259 
L 186.87744 -255.926564 
L 187.59168 -255.484092 
L 188.30592 -255.043985 
L 189.02016 -254.606355 
L 189.7344 -254.171281 
L 190.44864 -253.738806 
L 191.16288 -253.308931 
L 191.87712 -252.881614 
L 192.59136 -252.456762 
L 193.3056 -252.03423 
L 194.01984 -251.61381 
L 194.73408 -251.195228 
L 195.44832 -250.778133 
L 196.16256 -250.362094 
L 196.8768 -249.946586 
L 197.59104 -249.53098 
L 198.30528 -249.114532 
L 199.01952 -248.696371 
L 199.73376 -248.275478 
L 200.448 -247.850675 
L 201.16224 -247.420603 
L 201.87648 -246.983699 
L 202.59072 -246.538173 
L 203.30496 -246.081982 
L 204.0192 -245.612795 
L 204.73344 -245.127963 
L 205.44768 -244.624483 
L 206.16192 -244.098948 
L 206.87616 -243.547513 
L 207.5904 -242.965836 
L 208.30464 -242.34903 
L 209.01888 -241.691603 
L 209.73312 -240.987398 
L 210.44736 -240.229531 
L 211.1616 -239.410326 
L 211.87584 -238.521247 
L 212.59008 -237.552845 
L 213.30432 -236.494692 
L 214.01856 -235.335344 
L 214.7328 -234.062302 
L 215.44704 -232.662007 
L 216.16128 -231.119857 
L 216.87552 -229.42026 
L 217.58976 -227.546744 
L 218.304 -225.482112 
L 219.01824 -223.208685 
L 219.73248 -220.70861 
L 220.44672 -217.964277 
L 221.16096 -214.958825 
L 221.8752 -211.676753 
L 222.58944 -208.10463 
L 223.30368 -204.231886 
L 224.01792 -200.05165 
L 224.73216 -195.561609 
L 225.4464 -190.764819 
L 226.16064 -185.670407 
L 226.87488 -180.294088 
L 227.58912 -174.65843 
L 228.30336 -168.792795 
L 229.0176 -162.732926 
L 229.73184 -156.52016 
L 230.44608 -150.200295 
L 231.16032 -143.822178 
L 231.87456 -137.436108 
L 232.5888 -131.092161 
L 233.30304 -124.838568 
L 234.01728 -118.720257 
L 234.73152 -112.777645 
L 235.44576 -107.045735 
L 236.16 -101.553556 
L 236.87424 -96.323921 
L 237.58848 -91.373483 
L 238.30272 -86.713031 
L 239.01696 -82.347972 
L 239.7312 -78.278937 
L 240.44544 -74.502451 
L 241.15968 -71.011628 
L 241.87392 -67.796853 
L 242.58816 -64.846413 
L 243.3024 -62.147077 
L 244.01664 -59.684602 
L 244.73088 -57.444162 
L 245.44512 -55.41071 
L 246.15936 -53.569273 
L 246.8736 -51.905178 
L 247.58784 -50.40423 
L 248.30208 -49.052843 
L 249.01632 -47.838125 
L 249.73056 -46.747939 
L 250.4448 -45.770931 
L 251.15904 -44.896539 
L 251.87328 -44.114985 
L 252.58752 -43.417258 
L 253.30176 -42.795084 
L 254.016 -42.240891 
L 254.73024 -41.747771 
L 255.44448 -41.309438 
L 256.15872 -40.920187 
L 256.87296 -40.574849 
L 257.5872 -40.268753 
L 258.30144 -39.997684 
L 259.01568 -39.757846 
L 259.72992 -39.545825 
L 260.44416 -39.358554 
L 261.1584 -39.193283 
L 261.87264 -39.047549 
L 262.58688 -38.919149 
L 263.30112 -38.806113 
L 264.01536 -38.706685 
L 264.7296 -38.619298 
L 265.44384 -38.542554 
L 266.15808 -38.475213 
L 266.87232 -38.416169 
L 267.58656 -38.364443 
L 268.3008 -38.319164 
L 269.01504 -38.27956 
L 269.72928 -38.244948 
L 270.44352 -38.214724 
L 271.15776 -38.188352 
L 271.872 -38.16536 
L 272.58624 -38.145332 
L 273.30048 -38.127899 
L 274.01472 -38.112738 
L 274.72896 -38.099563 
L 275.4432 -38.088125 
L 276.15744 -38.078201 
L 276.87168 -38.069599 
L 277.58592 -38.062148 
L 278.30016 -38.055701 
L 279.0144 -38.050127 
L 279.72864 -38.04531 
L 280.44288 -38.041153 
L 281.15712 -38.037568 
L 281.87136 -38.034478 
L 282.5856 -38.031818 
L 283.29984 -38.029529 
L 284.01408 -38.027562 
L 284.72832 -38.025872 
L 285.44256 -38.024423 
L 286.1568 -38.02318 
L 286.87104 -38.022115 
L 287.58528 -38.021204 
L 288.29952 -38.020425 
L 289.01376 -38.019759 
L 289.728 -38.019191 
L 290.44224 -38.018706 
L 291.15648 -38.018293 
L 291.87072 -38.017942 
L 292.58496 -38.017642 
L 293.2992 -38.017388 
L 294.01344 -38.017172 
L 294.72768 -38.016989 
L 295.44192 -38.016834 
L 296.15616 -38.016702 
L 296.8704 -38.016591 
L 297.58464 -38.016497 
L 298.29888 -38.016418 
L 299.01312 -38.01635 
L 299.72736 -38.016294 
L 300.4416 -38.016246 
L 301.15584 -38.016206 
L 301.87008 -38.016172 
L 302.58432 -38.016144 
L 303.29856 -38.01612 
L 304.0128 -38.0161 
L 304.72704 -38.016084 
L 305.44128 -38.01607 
L 306.15552 -38.016058 
L 306.86976 -38.016048 
L 307.584 -38.01604 
L 308.29824 -38.016033 
L 309.01248 -38.016028 
L 309.72672 -38.016023 
L 310.44096 -38.016019 
L 311.1552 -38.016016 
L 311.86944 -38.016013 
L 312.58368 -38.016011 
L 313.29792 -38.016009 
L 314.01216 -38.016007 
L 314.7264 -38.016006 
L 315.44064 -38.016005 
L 316.15488 -38.016004 
L 316.86912 -38.016003 
L 317.58336 -38.016003 
L 318.2976 -38.016002 
L 319.01184 -38.016002 
L 319.72608 -38.016001 
L 320.44032 -38.016001 
L 321.15456 -38.016001 
L 321.8688 -38.016001 
L 322.58304 -38.016001 
L 323.29728 -38.016001 
L 324.01152 -38.016 
L 324.72576 -38.016 
L 325.44 -38.016 
L 326.15424 -38.016 
L 326.86848 -38.016 
L 327.58272 -38.016 
L 328.29696 -38.016 
L 329.0112 -38.016 
L 329.72544 -38.016 
L 330.43968 -38.016 
L 331.15392 -38.016 
L 331.86816 -38.016 
L 332.5824 -38.016 
L 333.29664 -38.016 
L 334.01088 -38.016 
L 334.72512 -38.016 
L 335.43936 -38.016 
L 336.1536 -38.016 
L 336.86784 -38.016 
L 337.58208 -38.016 
L 338.29632 -38.016 
L 339.01056 -38.016 
L 339.7248 -38.016 
L 340.43904 -38.016 
L 341.15328 -38.016 
L 341.86752 -38.016 
L 342.58176 -38.016 
L 343.296 -38.016 
L 344.01024 -38.016 
L 344.72448 -38.016 
L 345.43872 -38.016 
L 346.15296 -38.016 
L 346.8672 -38.016 
L 347.58144 -38.016 
L 348.29568 -38.016 
L 349.00992 -38.016 
L 349.72416 -38.016 
L 350.4384 -38.016 
L 351.15264 -38.016 
L 351.86688 -38.016 
L 352.58112 -38.016 
L 353.29536 -38.016 
L 354.0096 -38.016 
L 354.72384 -38.016 
L 355.43808 -38.016 
L 356.15232 -38.016 
L 356.86656 -38.016 
L 357.5808 -38.016 
L 358.29504 -38.016 
L 359.00928 -38.016 
L 359.72352 -38.016 
L 360.43776 -38.016 
L 361.152 -38.016 
L 361.86624 -38.016 
L 362.58048 -38.016 
L 363.29472 -38.016 
L 364.00896 -38.016 
L 364.7232 -38.016 
L 365.43744 -38.016 
L 366.15168 -38.016 
L 366.86592 -38.016 
L 367.58016 -38.016 
L 368.2944 -38.016 
L 369.00864 -38.016 
L 369.72288 -38.016 
L 370.43712 -38.016 
L 371.15136 -38.016 
L 371.8656 -38.016 
L 372.57984 -38.016 
L 373.29408 -38.016 
L 374.00832 -38.016 
L 374.72256 -38.016 
L 375.4368 -38.016 
L 376.15104 -38.016 
L 376.86528 -38.016 
L 377.57952 -38.016 
L 378.29376 -38.016 
L 379.008 -38.016 
L 379.72224 -38.016 
L 380.43648 -38.016 
L 381.15072 -38.016 
L 381.86496 -38.016 
L 382.5792 -38.016 
L 383.29344 -38.016 
L 384.00768 -38.016 
L 384.72192 -38.016 
L 385.43616 -38.016 
L 386.1504 -38.016 
L 386.86464 -38.016 
L 387.57888 -38.016 
L 388.29312 -38.016 
L 389.00736 -38.016 
L 389.7216 -38.016 
L 390.43584 -38.016 
L 391.15008 -38.016 
L 391.86432 -38.016 
L 392.57856 -38.016 
L 393.2928 -38.016 
L 394.00704 -38.016 
L 394.72128 -38.016 
L 395.43552 -38.016 
L 396.14976 -38.016 
L 396.864 -38.016 
L 397.57824 -38.016 
L 398.29248 -38.016 
L 399.00672 -38.016 
L 399.72096 -38.016 
L 400.4352 -38.016 
L 401.14944 -38.016 
L 401.86368 -38.016 
L 402.57792 -38.016 
L 403.29216 -38.016 
L 404.0064 -38.016 
L 404.72064 -38.016 
L 405.43488 -38.016 
L 406.14912 -38.016 
L 406.86336 -38.016 
L 407.5776 -38.016 
L 408.29184 -38.016 
L 409.00608 -38.016 
L 409.72032 -38.016 
L 410.43456 -38.016 
L 411.1488 -38.016 
L 411.86304 -38.016 
L 412.57728 -38.016 
L 413.29152 -38.016 
L 414.00576 -38.016 
L 414.72 -38.016 
L 414.72 -38.016 
L 414.72 -38.016 
L 414.00576 -38.016 
L 413.29152 -38.016 
L 412.57728 -38.016 
L 411.86304 -38.016 
L 411.1488 -38.016 
L 410.43456 -38.016 
L 409.72032 -38.016 
L 409.00608 -38.016 
L 408.29184 -38.016 
L 407.5776 -38.016 
L 406.86336 -38.016 
L 406.14912 -38.016 
L 405.43488 -38.016 
L 404.72064 -38.016 
L 404.0064 -38.016 
L 403.29216 -38.016 
L 402.57792 -38.016 
L 401.86368 -38.016 
L 401.14944 -38.016 
L 400.4352 -38.016 
L 399.72096 -38.016 
L 399.00672 -38.016 
L 398.29248 -38.016 
L 397.57824 -38.016 
L 396.864 -38.016 
L 396.14976 -38.016 
L 395.43552 -38.016 
L 394.72128 -38.016 
L 394.00704 -38.016 
L 393.2928 -38.016 
L 392.57856 -38.016 
L 391.86432 -38.016 
L 391.15008 -38.016 
L 390.43584 -38.016 
L 389.7216 -38.016 
L 389.00736 -38.016 
L 388.29312 -38.016 
L 387.57888 -38.016 
L 386.86464 -38.016 
L 386.1504 -38.016 
L 385.43616 -38.016 
L 384.72192 -38.016 
L 384.00768 -38.016 
L 383.29344 -38.016 
L 382.5792 -38.016 
L 381.86496 -38.016 
L 381.15072 -38.016 
L 380.43648 -38.016 
L 379.72224 -38.016 
L 379.008 -38.016 
L 378.29376 -38.016 
L 377.57952 -38.016 
L 376.86528 -38.016 
L 376.15104 -38.016 
L 375.4368 -38.016 
L 374.72256 -38.016 
L 374.00832 -38.016 
L 373.29408 -38.016 
L 372.57984 -38.016 
L 371.8656 -38.016 
L 371.15136 -38.016 
L 370.43712 -38.016 
L 369.72288 -38.016 
L 369.00864 -38.016 
L 368.2944 -38.016 
L 367.58016 -38.016 
L 366.86592 -38.016 
L 366.15168 -38.016 
L 365.43744 -38.016 
L 364.7232 -38.016 
L 364.00896 -38.016 
L 363.29472 -38.016 
L 362.58048 -38.016 
L 361.86624 -38.016 
L 361.152 -38.016 
L 360.43776 -38.016 
L 359.72352 -38.016 
L 359.00928 -38.016 
L 358.29504 -38.016 
L 357.5808 -38.016 
L 356.86656 -38.016 
L 356.15232 -38.016 
L 355.43808 -38.016 
L 354.72384 -38.016 
L 354.0096 -38.016 
L 353.29536 -38.016 
L 352.58112 -38.016 
L 351.86688 -38.016 
L 351.15264 -38.016 
L 350.4384 -38.016 
L 349.72416 -38.016 
L 349.00992 -38.016 
L 348.29568 -38.016 
L 347.58144 -38.016 
L 346.8672 -38.016 
L 346.15296 -38.016 
L 345.43872 -38.016 
L 344.72448 -38.016 
L 344.01024 -38.016 
L 343.296 -38.016 
L 342.58176 -38.016 
L 341.86752 -38.016 
L 341.15328 -38.016 
L 340.43904 -38.016 
L 339.7248 -38.016 
L 339.01056 -38.016 
L 338.29632 -38.016 
L 337.58208 -38.016 
L 336.86784 -38.016 
L 336.1536 -38.016 
L 335.43936 -38.016 
L 334.72512 -38.016 
L 334.01088 -38.016 
L 333.29664 -38.016 
L 332.5824 -38.016 
L 331.86816 -38.016 
L 331.15392 -38.016 
L 330.43968 -38.016 
L 329.72544 -38.016 
L 329.0112 -38.016 
L 328.29696 -38.016 
L 327.58272 -38.016 
L 326.86848 -38.016 
L 326.15424 -38.016 
L 325.44 -38.016001 
L 324.72576 -38.016001 
L 324.01152 -38.016001 
L 323.29728 -38.016001 
L 322.58304 -38.016001 
L 321.8688 -38.016002 
L 321.15456 -38.016002 
L 320.44032 -38.016002 
L 319.72608 -38.016003 
L 319.01184 -38.016004 
L 318.2976 -38.016004 
L 317.58336 -38.016005 
L 316.86912 -38.016006 
L 316.15488 -38.016008 
L 315.44064 -38.016009 
L 314.7264 -38.016011 
L 314.01216 -38.016013 
L 313.29792 -38.016016 
L 312.58368 -38.016019 
L 311.86944 -38.016023 
L 311.1552 -38.016028 
L 310.44096 -38.016034 
L 309.72672 -38.01604 
L 309.01248 -38.016048 
L 308.29824 -38.016058 
L 307.584 -38.01607 
L 306.86976 -38.016083 
L 306.15552 -38.0161 
L 305.44128 -38.016119 
L 304.72704 -38.016142 
L 304.0128 -38.016169 
L 303.29856 -38.016202 
L 302.58432 -38.016241 
L 301.87008 -38.016286 
L 301.15584 -38.01634 
L 300.4416 -38.016404 
L 299.72736 -38.01648 
L 299.01312 -38.016569 
L 298.29888 -38.016674 
L 297.58464 -38.016798 
L 296.8704 -38.016944 
L 296.15616 -38.017116 
L 295.44192 -38.017318 
L 294.72768 -38.017555 
L 294.01344 -38.017834 
L 293.2992 -38.01816 
L 292.58496 -38.018543 
L 291.87072 -38.018991 
L 291.15648 -38.019515 
L 290.44224 -38.020128 
L 289.728 -38.020843 
L 289.01376 -38.021678 
L 288.29952 -38.022652 
L 287.58528 -38.023786 
L 286.87104 -38.025106 
L 286.1568 -38.026642 
L 285.44256 -38.028426 
L 284.72832 -38.030499 
L 284.01408 -38.032903 
L 283.29984 -38.035691 
L 282.5856 -38.038921 
L 281.87136 -38.042659 
L 281.15712 -38.046982 
L 280.44288 -38.051978 
L 279.72864 -38.057747 
L 279.0144 -38.064404 
L 278.30016 -38.072078 
L 277.58592 -38.080918 
L 276.87168 -38.091095 
L 276.15744 -38.1028 
L 275.4432 -38.116252 
L 274.72896 -38.1317 
L 274.01472 -38.149428 
L 273.30048 -38.169754 
L 272.58624 -38.193044 
L 271.872 -38.219707 
L 271.15776 -38.25021 
L 270.44352 -38.285079 
L 269.72928 -38.324909 
L 269.01504 -38.370371 
L 268.3008 -38.422222 
L 267.58656 -38.481316 
L 266.87232 -38.548615 
L 266.15808 -38.6252 
L 265.44384 -38.712288 
L 264.7296 -38.811243 
L 264.01536 -38.923601 
L 263.30112 -39.051079 
L 262.58688 -39.195604 
L 261.87264 -39.359332 
L 261.1584 -39.544674 
L 260.44416 -39.754321 
L 259.72992 -39.991279 
L 259.01568 -40.258895 
L 258.30144 -40.560896 
L 257.5872 -40.901425 
L 256.87296 -41.285083 
L 256.15872 -41.716967 
L 255.44448 -42.20272 
L 254.73024 -42.748575 
L 254.016 -43.361405 
L 253.30176 -44.04877 
L 252.58752 -44.818969 
L 251.87328 -45.681084 
L 251.15904 -46.645029 
L 250.4448 -47.721585 
L 249.73056 -48.922436 
L 249.01632 -50.260187 
L 248.30208 -51.748369 
L 247.58784 -53.401428 
L 246.8736 -55.234681 
L 246.15936 -57.26425 
L 245.44512 -59.506945 
L 244.73088 -61.980109 
L 244.01664 -64.701401 
L 243.3024 -67.688517 
L 242.58816 -70.958835 
L 241.87392 -74.52898 
L 241.15968 -78.414301 
L 240.44544 -82.628264 
L 239.7312 -87.181765 
L 239.01696 -92.082361 
L 238.30272 -97.333469 
L 237.58848 -102.933535 
L 236.87424 -108.875238 
L 236.16 -115.144783 
L 235.44576 -121.721334 
L 234.73152 -128.576686 
L 234.01728 -135.675215 
L 233.30304 -142.974195 
L 232.5888 -150.424497 
L 231.87456 -157.971689 
L 231.16032 -165.557505 
L 230.44608 -173.121612 
L 229.73184 -180.603563 
L 229.0176 -187.944798 
L 228.30336 -195.090558 
L 227.58912 -201.991565 
L 226.87488 -208.605361 
L 226.16064 -214.897222 
L 225.4464 -220.840632 
L 224.73216 -226.417327 
L 224.01792 -231.616954 
L 223.30368 -236.436424 
L 222.58944 -240.879059 
L 221.8752 -244.953599 
L 221.16096 -248.673168 
L 220.44672 -252.054259 
L 219.73248 -255.115785 
L 219.01824 -257.878226 
L 218.304 -260.362904 
L 217.58976 -262.591369 
L 216.87552 -264.58492 
L 216.16128 -266.364225 
L 215.44704 -267.949048 
L 214.7328 -269.35806 
L 214.01856 -270.60872 
L 213.30432 -271.717213 
L 212.59008 -272.698432 
L 211.87584 -273.565995 
L 211.1616 -274.332289 
L 210.44736 -275.008527 
L 209.73312 -275.604816 
L 209.01888 -276.130238 
L 208.30464 -276.592927 
L 207.5904 -277.000148 
L 206.87616 -277.358376 
L 206.16192 -277.673371 
L 205.44768 -277.950243 
L 204.73344 -278.193525 
L 204.0192 -278.407229 
L 203.30496 -278.594901 
L 202.59072 -278.759673 
L 201.87648 -278.90431 
L 201.16224 -279.031249 
L 200.448 -279.142638 
L 199.73376 -279.240366 
L 199.01952 -279.326099 
L 198.30528 -279.4013 
L 197.59104 -279.467256 
L 196.8768 -279.525098 
L 196.16256 -279.57582 
L 195.44832 -279.620295 
L 194.73408 -279.65929 
L 194.01984 -279.693479 
L 193.3056 -279.723451 
L 192.59136 -279.749725 
L 191.87712 -279.772758 
L 191.16288 -279.792946 
L 190.44864 -279.810642 
L 189.7344 -279.826153 
L 189.02016 -279.839747 
L 188.30592 -279.851661 
L 187.59168 -279.862102 
L 186.87744 -279.871253 
L 186.1632 -279.879272 
L 185.44896 -279.8863 
L 184.73472 -279.892458 
L 184.02048 -279.897854 
L 183.30624 -279.902582 
L 182.592 -279.906725 
L 181.87776 -279.910356 
L 181.16352 -279.913536 
L 180.44928 -279.916323 
L 179.73504 -279.918765 
L 179.0208 -279.920904 
L 178.30656 -279.922779 
L 177.59232 -279.924421 
L 176.87808 -279.925859 
L 176.16384 -279.927119 
L 175.4496 -279.928223 
L 174.73536 -279.92919 
L 174.02112 -279.930037 
L 173.30688 -279.930779 
L 172.59264 -279.931429 
L 171.8784 -279.931999 
L 171.16416 -279.932497 
L 170.44992 -279.932934 
L 169.73568 -279.933317 
L 169.02144 -279.933652 
L 168.3072 -279.933945 
L 167.59296 -279.934202 
L 166.87872 -279.934427 
L 166.16448 -279.934624 
L 165.45024 -279.934797 
L 164.736 -279.934948 
L 164.02176 -279.93508 
L 163.30752 -279.935196 
L 162.59328 -279.935298 
L 161.87904 -279.935387 
L 161.1648 -279.935464 
L 160.45056 -279.935532 
L 159.73632 -279.935592 
L 159.02208 -279.935644 
L 158.30784 -279.93569 
L 157.5936 -279.93573 
L 156.87936 -279.935765 
L 156.16512 -279.935796 
L 155.45088 -279.935822 
L 154.73664 -279.935846 
L 154.0224 -279.935866 
L 153.30816 -279.935884 
L 152.59392 -279.9359 
L 151.87968 -279.935914 
L 151.16544 -279.935926 
L 150.4512 -279.935937 
L 149.73696 -279.935946 
L 149.02272 -279.935954 
L 148.30848 -279.935961 
L 147.59424 -279.935967 
L 146.88 -279.935973 
L 146.16576 -279.935977 
L 145.45152 -279.935981 
L 144.73728 -279.935985 
L 144.02304 -279.935988 
L 143.3088 -279.935991 
L 142.59456 -279.935993 
L 141.88032 -279.935996 
L 141.16608 -279.935997 
L 140.45184 -279.935999 
L 139.7376 -279.936 
L 139.02336 -279.936002 
L 138.30912 -279.936003 
L 137.59488 -279.936004 
L 136.88064 -279.936005 
L 136.1664 -279.936005 
L 135.45216 -279.936006 
L 134.73792 -279.936006 
L 134.02368 -279.936007 
L 133.30944 -279.936007 
L 132.5952 -279.936008 
L 131.88096 -279.936008 
L 131.16672 -279.936008 
L 130.45248 -279.936009 
L 129.73824 -279.936009 
L 129.024 -279.936009 
L 128.30976 -279.936009 
L 127.59552 -279.936009 
L 126.88128 -279.936009 
L 126.16704 -279.93601 
L 125.4528 -279.93601 
L 124.73856 -279.93601 
L 124.02432 -279.93601 
L 123.31008 -279.93601 
L 122.59584 -279.93601 
L 121.8816 -279.93601 
L 121.16736 -279.93601 
L 120.45312 -279.93601 
L 119.73888 -279.93601 
L 119.02464 -279.93601 
L 118.3104 -279.93601 
L 117.59616 -279.93601 
L 116.88192 -279.93601 
L 116.16768 -279.93601 
L 115.45344 -279.93601 
L 114.7392 -279.93601 
L 114.02496 -279.93601 
L 113.31072 -279.93601 
L 112.59648 -279.93601 
L 111.88224 -279.93601 
L 111.168 -279.93601 
L 110.45376 -279.93601 
L 109.73952 -279.93601 
L 109.02528 -279.93601 
L 108.31104 -279.93601 
L 107.5968 -279.93601 
L 106.88256 -279.93601 
L 106.16832 -279.93601 
L 105.45408 -279.93601 
L 104.73984 -279.93601 
L 104.0256 -279.93601 
L 103.31136 -279.93601 
L 102.59712 -279.93601 
L 101.88288 -279.93601 
L 101.16864 -279.93601 
L 100.4544 -279.93601 
L 99.74016 -279.93601 
L 99.02592 -279.93601 
L 98.31168 -279.93601 
L 97.59744 -279.93601 
L 96.8832 -279.93601 
L 96.16896 -279.93601 
L 95.45472 -279.93601 
L 94.74048 -279.93601 
L 94.02624 -279.93601 
L 93.312 -279.93601 
L 92.59776 -279.93601 
L 91.88352 -279.93601 
L 91.16928 -279.93601 
L 90.45504 -279.93601 
L 89.7408 -279.93601 
L 89.02656 -279.93601 
L 88.31232 -279.93601 
L 87.59808 -279.93601 
L 86.88384 -279.93601 
L 86.1696 -279.93601 
L 85.45536 -279.93601 
L 84.74112 -279.93601 
L 84.02688 -279.93601 
L 83.31264 -279.93601 
L 82.5984 -279.93601 
L 81.88416 -279.93601 
L 81.16992 -279.93601 
L 80.45568 -279.93601 
L 79.74144 -279.93601 
L 79.0272 -279.93601 
L 78.31296 -279.93601 
L 77.59872 -279.93601 
L 76.88448 -279.93601 
L 76.17024 -279.93601 
L 75.456 -279.93601 
L 74.74176 -279.93601 
L 74.02752 -279.93601 
L 73.31328 -279.93601 
L 72.59904 -279.93601 
L 71.8848 -279.93601 
L 71.17056 -279.93601 
L 70.45632 -279.93601 
L 69.74208 -279.93601 
L 69.02784 -279.93601 
L 68.3136 -279.93601 
L 67.59936 -279.93601 
L 66.88512 -279.93601 
L 66.17088 -279.93601 
L 65.45664 -279.93601 
L 64.7424 -279.93601 
L 64.02816 -279.93601 
L 63.31392 -279.93601 
L 62.59968 -279.93601 
L 61.88544 -279.93601 
L 61.1712 -279.93601 
L 60.45696 -279.93601 
L 59.74272 -279.93601 
L 59.02848 -279.93601 
L 58.31424 -279.93601 
L 57.6 -279.93601 
z
" id="m523b25eeac" style="stroke:#afe88e;"/>
    </defs>
    <g clip-path="url(#pab07505ed5)">
     <use style="fill:#afe88e;stroke:#afe88e;" x="0" xlink:href="#m523b25eeac" y="345.6"/>
    </g>
   </g>
   <g id="line2d_1">
    <path clip-path="url(#pab07505ed5)" d="M 57.6 65.66399 
L 189.7344 65.773847 
L 196.16256 66.02418 
L 199.73376 66.359634 
L 202.59072 66.840327 
L 204.73344 67.406475 
L 206.87616 68.241624 
L 208.30464 69.007073 
L 209.73312 69.995184 
L 211.1616 71.267711 
L 212.59008 72.901568 
L 214.01856 74.99128 
L 215.44704 77.650952 
L 216.87552 81.01508 
L 218.304 85.237096 
L 219.73248 90.484215 
L 221.16096 96.926832 
L 222.58944 104.720941 
L 224.01792 113.983046 
L 225.4464 124.759368 
L 226.87488 136.994639 
L 229.0176 157.655202 
L 236.16 230.455217 
L 237.58848 242.666465 
L 239.01696 253.517639 
L 240.44544 262.971736 
L 241.87392 271.07102 
L 243.3024 277.911483 
L 244.73088 283.619891 
L 246.15936 288.33575 
L 247.58784 292.198572 
L 249.01632 295.339813 
L 250.4448 297.878415 
L 251.87328 299.918916 
L 253.30176 301.55123 
L 254.73024 302.851425 
L 256.15872 303.883033 
L 257.5872 304.698575 
L 259.72992 305.608721 
L 261.87264 306.240668 
L 264.7296 306.788757 
L 268.3008 307.177778 
L 273.30048 307.430246 
L 281.15712 307.553018 
L 304.0128 307.583831 
L 414.72 307.584 
L 414.72 307.584 
" style="fill:none;stroke:#000000;stroke-linecap:square;stroke-width:0.7;"/>
   </g>
   <g id="patch_3">
    <path d="M 57.6 307.584 
L 57.6 41.472 
" style="fill:none;stroke:#000000;stroke-linecap:square;stroke-linejoin:miter;stroke-width:0.8;"/>
   </g>
   <g id="patch_4">
    <path d="M 414.72 307.584 
L 414.72 41.472 
" style="fill:none;stroke:#000000;stroke-linecap:square;stroke-linejoin:miter;stroke-width:0.8;"/>
   </g>
   <g id="patch_5">
    <path d="M 57.6 307.584 
L 414.72 307.584 
" style="fill:none;stroke:#000000;stroke-linecap:square;stroke-linejoin:miter;stroke-width:0.8;"/>
   </g>
   <g id="patch_6">
    <path d="M 57.6 41.472 
L 414.72 41.472 
" style="fill:none;stroke:#000000;stroke-linecap:square;stroke-linejoin:miter;stroke-width:0.8;"/>
   </g>
   <g id="legend_1">
    <g id="patch_7">
     <path d="M 91.90611 34.09119 
L 246.68736 34.09119 
Q 249.08736 34.09119 249.08736 31.69119 
L 249.08736 15.27744 
Q 249.08736 12.87744 246.68736 12.87744 
L 91.90611 12.87744 
Q 89.50611 12.87744 89.50611 15.27744 
L 89.50611 31.69119 
Q 89.50611 34.09119 91.90611 34.09119 
z
" style="fill:#ffffff;opacity:0.8;stroke:#cccccc;stroke-linejoin:miter;"/>
    </g>
    <g id="patch_8">
     <path d="M 94.30611 26.795565 
L 118.30611 26.795565 
L 118.30611 18.395565 
L 94.30611 18.395565 
z
" style="fill:#509369;stroke:#509369;stroke-linejoin:miter;"/>
    </g>
    <g id="text_1">
     <!-- back -->
     <g transform="translate(127.90611 26.795565)scale(0.12 -0.12)">
      <defs>
       <path d="M 11.53125 5.171875 
L 11.53125 70.796875 
L 2.875 70.796875 
L 2.875 75.984375 
L 20.515625 75.984375 
L 20.515625 43.796875 
Q 23.140625 48.6875 27.21875 51 
Q 31.296875 53.328125 37.3125 53.328125 
Q 46.875 53.328125 52.921875 45.75 
Q 58.984375 38.1875 58.984375 25.984375 
Q 58.984375 13.765625 52.921875 6.171875 
Q 46.875 -1.421875 37.3125 -1.421875 
Q 31.296875 -1.421875 27.21875 0.890625 
Q 23.140625 3.21875 20.515625 8.109375 
L 20.515625 0 
L 2.875 0 
L 2.875 5.171875 
z
M 20.515625 23.390625 
Q 20.515625 14.015625 24.09375 9.109375 
Q 27.6875 4.203125 34.515625 4.203125 
Q 41.40625 4.203125 44.9375 9.71875 
Q 48.484375 15.234375 48.484375 25.984375 
Q 48.484375 36.765625 44.9375 42.234375 
Q 41.40625 47.703125 34.515625 47.703125 
Q 27.6875 47.703125 24.09375 42.765625 
Q 20.515625 37.84375 20.515625 28.515625 
z
" id="DejaVuSerif-98"/>
       <path d="M 39.796875 16.3125 
L 39.796875 27.296875 
L 28.21875 27.296875 
Q 21.53125 27.296875 18.25 24.40625 
Q 14.984375 21.53125 14.984375 15.578125 
Q 14.984375 10.15625 18.296875 6.984375 
Q 21.625 3.8125 27.296875 3.8125 
Q 32.90625 3.8125 36.34375 7.28125 
Q 39.796875 10.75 39.796875 16.3125 
z
M 48.78125 32.421875 
L 48.78125 5.171875 
L 56.78125 5.171875 
L 56.78125 0 
L 39.796875 0 
L 39.796875 5.609375 
Q 36.8125 2 32.90625 0.28125 
Q 29 -1.421875 23.78125 -1.421875 
Q 15.140625 -1.421875 10.0625 3.171875 
Q 4.984375 7.765625 4.984375 15.578125 
Q 4.984375 23.640625 10.796875 28.078125 
Q 16.609375 32.515625 27.203125 32.515625 
L 39.796875 32.515625 
L 39.796875 36.078125 
Q 39.796875 42 36.203125 45.234375 
Q 32.625 48.484375 26.125 48.484375 
Q 20.75 48.484375 17.578125 46.046875 
Q 14.40625 43.609375 13.625 38.8125 
L 8.984375 38.8125 
L 8.984375 49.3125 
Q 13.671875 51.3125 18.09375 52.3125 
Q 22.515625 53.328125 26.703125 53.328125 
Q 37.5 53.328125 43.140625 47.96875 
Q 48.78125 42.625 48.78125 32.421875 
z
" id="DejaVuSerif-97"/>
       <path d="M 51.421875 15.578125 
Q 49.515625 7.28125 44.09375 2.921875 
Q 38.671875 -1.421875 30.078125 -1.421875 
Q 18.75 -1.421875 11.859375 6.078125 
Q 4.984375 13.578125 4.984375 25.984375 
Q 4.984375 38.421875 11.859375 45.875 
Q 18.75 53.328125 30.078125 53.328125 
Q 35.015625 53.328125 39.890625 52.171875 
Q 44.78125 51.03125 49.703125 48.6875 
L 49.703125 35.40625 
L 44.484375 35.40625 
Q 43.453125 42.234375 40.015625 45.359375 
Q 36.578125 48.484375 30.171875 48.484375 
Q 22.90625 48.484375 19.1875 42.84375 
Q 15.484375 37.203125 15.484375 25.984375 
Q 15.484375 14.75 19.171875 9.078125 
Q 22.859375 3.421875 30.171875 3.421875 
Q 35.984375 3.421875 39.453125 6.4375 
Q 42.921875 9.46875 44.1875 15.578125 
z
" id="DejaVuSerif-99"/>
       <path d="M 28.609375 0 
L 3.421875 0 
L 3.421875 5.171875 
L 11.53125 5.171875 
L 11.53125 70.796875 
L 2.875 70.796875 
L 2.875 75.984375 
L 20.515625 75.984375 
L 20.515625 26.515625 
L 42.390625 46.6875 
L 34.90625 46.6875 
L 34.90625 51.90625 
L 58.40625 51.90625 
L 58.40625 46.6875 
L 49.515625 46.6875 
L 34.078125 32.421875 
L 53.8125 5.171875 
L 61.28125 5.171875 
L 61.28125 0 
L 35.6875 0 
L 35.6875 5.171875 
L 43.109375 5.171875 
L 27.59375 26.515625 
L 20.515625 19.921875 
L 20.515625 5.171875 
L 28.609375 5.171875 
z
" id="DejaVuSerif-107"/>
      </defs>
      <use xlink:href="#DejaVuSerif-98"/>
      <use x="64.013672" xlink:href="#DejaVuSerif-97"/>
      <use x="123.632812" xlink:href="#DejaVuSerif-99"/>
      <use x="179.638672" xlink:href="#DejaVuSerif-107"/>
     </g>
    </g>
    <g id="patch_9">
     <path d="M 180.734235 26.795565 
L 204.734235 26.795565 
L 204.734235 18.395565 
L 180.734235 18.395565 
z
" style="fill:#afe88e;stroke:#afe88e;stroke-linejoin:miter;"/>
    </g>
    <g id="text_2">
     <!-- front -->
     <g transform="translate(214.334235 26.795565)scale(0.12 -0.12)">
      <defs>
       <path d="M 43.015625 63.71875 
L 38.28125 63.71875 
Q 38.234375 67.390625 36.203125 69.28125 
Q 34.1875 71.1875 30.328125 71.1875 
Q 25.296875 71.1875 23.234375 68.421875 
Q 21.1875 65.671875 21.1875 58.59375 
L 21.1875 51.90625 
L 35.6875 51.90625 
L 35.6875 46.6875 
L 21.1875 46.6875 
L 21.1875 5.171875 
L 32.71875 5.171875 
L 32.71875 0 
L 3.609375 0 
L 3.609375 5.171875 
L 12.203125 5.171875 
L 12.203125 46.6875 
L 3.609375 46.6875 
L 3.609375 51.90625 
L 12.203125 51.90625 
L 12.203125 58.40625 
Q 12.203125 67.09375 16.71875 71.53125 
Q 21.234375 75.984375 29.984375 75.984375 
Q 33.25 75.984375 36.515625 75.390625 
Q 39.796875 74.8125 43.015625 73.578125 
z
" id="DejaVuSerif-102"/>
       <path d="M 47.796875 52 
L 47.796875 39.015625 
L 42.625 39.015625 
Q 42.390625 42.875 40.484375 44.78125 
Q 38.578125 46.6875 34.90625 46.6875 
Q 28.265625 46.6875 24.71875 42.09375 
Q 21.1875 37.5 21.1875 28.90625 
L 21.1875 5.171875 
L 31.59375 5.171875 
L 31.59375 0 
L 4.109375 0 
L 4.109375 5.171875 
L 12.203125 5.171875 
L 12.203125 46.78125 
L 3.609375 46.78125 
L 3.609375 51.90625 
L 21.1875 51.90625 
L 21.1875 42.671875 
Q 23.828125 48.09375 27.96875 50.703125 
Q 32.125 53.328125 38.09375 53.328125 
Q 40.28125 53.328125 42.703125 52.984375 
Q 45.125 52.640625 47.796875 52 
z
" id="DejaVuSerif-114"/>
       <path d="M 30.078125 3.421875 
Q 37.3125 3.421875 40.984375 9.125 
Q 44.671875 14.84375 44.671875 25.984375 
Q 44.671875 37.109375 40.984375 42.796875 
Q 37.3125 48.484375 30.078125 48.484375 
Q 22.859375 48.484375 19.171875 42.796875 
Q 15.484375 37.109375 15.484375 25.984375 
Q 15.484375 14.84375 19.1875 9.125 
Q 22.90625 3.421875 30.078125 3.421875 
z
M 30.078125 -1.421875 
Q 18.75 -1.421875 11.859375 6.078125 
Q 4.984375 13.578125 4.984375 25.984375 
Q 4.984375 38.375 11.84375 45.84375 
Q 18.703125 53.328125 30.078125 53.328125 
Q 41.453125 53.328125 48.3125 45.84375 
Q 55.171875 38.375 55.171875 25.984375 
Q 55.171875 13.578125 48.3125 6.078125 
Q 41.453125 -1.421875 30.078125 -1.421875 
z
" id="DejaVuSerif-111"/>
       <path d="M 4.109375 0 
L 4.109375 5.171875 
L 12.203125 5.171875 
L 12.203125 46.6875 
L 3.609375 46.6875 
L 3.609375 51.90625 
L 21.1875 51.90625 
L 21.1875 42.671875 
Q 23.6875 47.953125 27.65625 50.640625 
Q 31.640625 53.328125 36.921875 53.328125 
Q 45.515625 53.328125 49.5625 48.390625 
Q 53.609375 43.453125 53.609375 33.015625 
L 53.609375 5.171875 
L 61.625 5.171875 
L 61.625 0 
L 36.8125 0 
L 36.8125 5.171875 
L 44.578125 5.171875 
L 44.578125 30.171875 
Q 44.578125 39.703125 42.234375 43.234375 
Q 39.890625 46.78125 33.984375 46.78125 
Q 27.734375 46.78125 24.453125 42.203125 
Q 21.1875 37.640625 21.1875 28.90625 
L 21.1875 5.171875 
L 29 5.171875 
L 29 0 
z
" id="DejaVuSerif-110"/>
       <path d="M 10.796875 46.6875 
L 2.875 46.6875 
L 2.875 51.90625 
L 10.796875 51.90625 
L 10.796875 68.015625 
L 19.828125 68.015625 
L 19.828125 51.90625 
L 36.71875 51.90625 
L 36.71875 46.6875 
L 19.828125 46.6875 
L 19.828125 13.71875 
Q 19.828125 7.125 21.09375 5.265625 
Q 22.359375 3.421875 25.78125 3.421875 
Q 29.296875 3.421875 30.90625 5.484375 
Q 32.515625 7.5625 32.625 12.203125 
L 39.40625 12.203125 
Q 39.015625 5.125 35.546875 1.84375 
Q 32.078125 -1.421875 25 -1.421875 
Q 17.234375 -1.421875 14.015625 2.015625 
Q 10.796875 5.46875 10.796875 13.71875 
z
" id="DejaVuSerif-116"/>
      </defs>
      <use xlink:href="#DejaVuSerif-102"/>
      <use x="37.011719" xlink:href="#DejaVuSerif-114"/>
      <use x="84.814453" xlink:href="#DejaVuSerif-111"/>
      <use x="145.019531" xlink:href="#DejaVuSerif-110"/>
      <use x="209.423828" xlink:href="#DejaVuSerif-116"/>
     </g>
    </g>
   </g>
  </g>
 </g>
 <defs>
  <clipPath id="pab07505ed5">
   <rect height="266.112" width="357.12" x="57.6" y="41.472"/>
  </clipPath>
 </defs>
</svg>
