<?xml version="1.0" encoding="utf-8" standalone="no"?>
<!DOCTYPE svg PUBLIC "-//W3C//DTD SVG 1.1//EN"
  "http://www.w3.org/Graphics/SVG/1.1/DTD/svg11.dtd">
<!-- Created with matplotlib (https://matplotlib.org/) -->
<svg height="345.6pt" version="1.1" viewBox="0 0 460.8 345.6" width="460.8pt" xmlns="http://www.w3.org/2000/svg" xmlns:xlink="http://www.w3.org/1999/xlink">
 <metadata>
  <rdf:RDF xmlns:cc="http://creativecommons.org/ns#" xmlns:dc="http://purl.org/dc/elements/1.1/" xmlns:rdf="http://www.w3.org/1999/02/22-rdf-syntax-ns#">
   <cc:Work>
    <dc:type rdf:resource="http://purl.org/dc/dcmitype/StillImage"/>
    <dc:date>2022-05-25T01:03:40.024771</dc:date>
    <dc:format>image/svg+xml</dc:format>
    <dc:creator>
     <cc:Agent>
      <dc:title>Matplotlib v3.3.4, https://matplotlib.org/</dc:title>
     </cc:Agent>
    </dc:creator>
   </cc:Work>
  </rdf:RDF>
 </metadata>
 <defs>
  <style type="text/css">*{stroke-linecap:butt;stroke-linejoin:round;}</style>
 </defs>
 <g id="figure_1">
  <g id="patch_1">
   <path d="M 0 345.6 
L 460.8 345.6 
L 460.8 0 
L 0 0 
z
" style="fill:#ffffff;"/>
  </g>
  <g id="axes_1">
   <g id="patch_2">
    <path d="M 57.6 307.584 
L 414.72 307.584 
L 414.72 41.472 
L 57.6 41.472 
z
" style="fill:#ffffff;"/>
   </g>
   <g id="PolyCollection_1">
    <defs>
     <path d="M 57.6 -38.016 
L 57.6 -279.936 
L 58.31424 -279.935992 
L 59.02848 -279.935977 
L 59.74272 -279.935954 
L 60.45696 -279.935922 
L 61.1712 -279.935883 
L 61.88544 -279.935834 
L 62.59968 -279.935776 
L 63.31392 -279.935709 
L 64.02816 -279.93563 
L 64.7424 -279.935541 
L 65.45664 -279.935439 
L 66.17088 -279.935324 
L 66.88512 -279.935195 
L 67.59936 -279.93505 
L 68.3136 -279.934888 
L 69.02784 -279.934708 
L 69.74208 -279.934508 
L 70.45632 -279.934287 
L 71.17056 -279.934041 
L 71.8848 -279.93377 
L 72.59904 -279.93347 
L 73.31328 -279.933139 
L 74.02752 -279.932775 
L 74.74176 -279.932374 
L 75.456 -279.931932 
L 76.17024 -279.931448 
L 76.88448 -279.930915 
L 77.59872 -279.930331 
L 78.31296 -279.929691 
L 79.0272 -279.92899 
L 79.74144 -279.928222 
L 80.45568 -279.927383 
L 81.16992 -279.926465 
L 81.88416 -279.925462 
L 82.5984 -279.924368 
L 83.31264 -279.923174 
L 84.02688 -279.921872 
L 84.74112 -279.920454 
L 85.45536 -279.918911 
L 86.1696 -279.917231 
L 86.88384 -279.915405 
L 87.59808 -279.913422 
L 88.31232 -279.911268 
L 89.02656 -279.90893 
L 89.7408 -279.906396 
L 90.45504 -279.90365 
L 91.16928 -279.900676 
L 91.88352 -279.897457 
L 92.59776 -279.893976 
L 93.312 -279.890214 
L 94.02624 -279.886151 
L 94.74048 -279.881766 
L 95.45472 -279.877035 
L 96.16896 -279.871936 
L 96.8832 -279.866443 
L 97.59744 -279.860529 
L 98.31168 -279.854168 
L 99.02592 -279.847328 
L 99.74016 -279.839979 
L 100.4544 -279.832089 
L 101.16864 -279.823623 
L 101.88288 -279.814545 
L 102.59712 -279.804816 
L 103.31136 -279.794398 
L 104.0256 -279.783249 
L 104.73984 -279.771325 
L 105.45408 -279.758581 
L 106.16832 -279.744969 
L 106.88256 -279.73044 
L 107.5968 -279.714941 
L 108.31104 -279.69842 
L 109.02528 -279.68082 
L 109.73952 -279.662083 
L 110.45376 -279.642148 
L 111.168 -279.620954 
L 111.88224 -279.598434 
L 112.59648 -279.574522 
L 113.31072 -279.549148 
L 114.02496 -279.52224 
L 114.7392 -279.493724 
L 115.45344 -279.463525 
L 116.16768 -279.431562 
L 116.88192 -279.397756 
L 117.59616 -279.362023 
L 118.3104 -279.324279 
L 119.02464 -279.284435 
L 119.73888 -279.242402 
L 120.45312 -279.198089 
L 121.16736 -279.151402 
L 121.8816 -279.102247 
L 122.59584 -279.050525 
L 123.31008 -278.99614 
L 124.02432 -278.93899 
L 124.73856 -278.878974 
L 125.4528 -278.815988 
L 126.16704 -278.74993 
L 126.88128 -278.680692 
L 127.59552 -278.608171 
L 128.30976 -278.532258 
L 129.024 -278.452847 
L 129.73824 -278.36983 
L 130.45248 -278.283098 
L 131.16672 -278.192545 
L 131.88096 -278.098063 
L 132.5952 -277.999544 
L 133.30944 -277.896883 
L 134.02368 -277.789973 
L 134.73792 -277.678711 
L 135.45216 -277.562993 
L 136.1664 -277.442719 
L 136.88064 -277.317788 
L 137.59488 -277.188104 
L 138.30912 -277.053571 
L 139.02336 -276.914098 
L 139.7376 -276.769595 
L 140.45184 -276.619977 
L 141.16608 -276.46516 
L 141.88032 -276.305067 
L 142.59456 -276.139623 
L 143.3088 -275.968757 
L 144.02304 -275.792403 
L 144.73728 -275.610501 
L 145.45152 -275.422995 
L 146.16576 -275.229833 
L 146.88 -275.030972 
L 147.59424 -274.826372 
L 148.30848 -274.616 
L 149.02272 -274.399829 
L 149.73696 -274.177838 
L 150.4512 -273.950015 
L 151.16544 -273.716351 
L 151.87968 -273.476848 
L 152.59392 -273.231512 
L 153.30816 -272.980358 
L 154.0224 -272.723407 
L 154.73664 -272.460691 
L 155.45088 -272.192245 
L 156.16512 -271.918114 
L 156.87936 -271.638352 
L 157.5936 -271.353017 
L 158.30784 -271.06218 
L 159.02208 -270.765915 
L 159.73632 -270.464306 
L 160.45056 -270.157444 
L 161.1648 -269.84543 
L 161.87904 -269.528369 
L 162.59328 -269.206375 
L 163.30752 -268.879571 
L 164.02176 -268.548084 
L 164.736 -268.212051 
L 165.45024 -267.871614 
L 166.16448 -267.526923 
L 166.87872 -267.178132 
L 167.59296 -266.825405 
L 168.3072 -266.468908 
L 169.02144 -266.108815 
L 169.73568 -265.745306 
L 170.44992 -265.378563 
L 171.16416 -265.008775 
L 171.8784 -264.636136 
L 172.59264 -264.260842 
L 173.30688 -263.883095 
L 174.02112 -263.503098 
L 174.73536 -263.121059 
L 175.4496 -262.737187 
L 176.16384 -262.351693 
L 176.87808 -261.964793 
L 177.59232 -261.5767 
L 178.30656 -261.187631 
L 179.0208 -260.797803 
L 179.73504 -260.407432 
L 180.44928 -260.016735 
L 181.16352 -259.625928 
L 181.87776 -259.235227 
L 182.592 -258.844844 
L 183.30624 -258.454992 
L 184.02048 -258.06588 
L 184.73472 -257.677715 
L 185.44896 -257.290703 
L 186.1632 -256.905043 
L 186.87744 -256.520934 
L 187.59168 -256.138568 
L 188.30592 -255.758136 
L 189.02016 -255.379821 
L 189.7344 -255.003804 
L 190.44864 -254.630259 
L 191.16288 -254.259356 
L 191.87712 -253.891259 
L 192.59136 -253.526125 
L 193.3056 -253.164106 
L 194.01984 -252.805347 
L 194.73408 -252.449988 
L 195.44832 -252.09816 
L 196.16256 -251.749989 
L 196.8768 -251.405594 
L 197.59104 -251.065085 
L 198.30528 -250.728566 
L 199.01952 -250.396135 
L 199.73376 -250.067879 
L 200.448 -249.74388 
L 201.16224 -249.424212 
L 201.87648 -249.10894 
L 202.59072 -248.798122 
L 203.30496 -248.491807 
L 204.0192 -248.190037 
L 204.73344 -247.892845 
L 205.44768 -247.600255 
L 206.16192 -247.312282 
L 206.87616 -247.028934 
L 207.5904 -246.750209 
L 208.30464 -246.476093 
L 209.01888 -246.206567 
L 209.73312 -245.941599 
L 210.44736 -245.681146 
L 211.1616 -245.425155 
L 211.87584 -245.173561 
L 212.59008 -244.926287 
L 213.30432 -244.683243 
L 214.01856 -244.444324 
L 214.7328 -244.209409 
L 215.44704 -243.978362 
L 216.16128 -243.751028 
L 216.87552 -243.527231 
L 217.58976 -243.306776 
L 218.304 -243.089439 
L 219.01824 -242.874974 
L 219.73248 -242.6631 
L 220.44672 -242.453507 
L 221.16096 -242.245843 
L 221.8752 -242.039717 
L 222.58944 -241.834687 
L 223.30368 -241.630259 
L 224.01792 -241.425879 
L 224.73216 -241.220922 
L 225.4464 -241.014687 
L 226.16064 -240.806385 
L 226.87488 -240.595128 
L 227.58912 -240.379915 
L 228.30336 -240.159617 
L 229.0176 -239.932964 
L 229.73184 -239.698521 
L 230.44608 -239.45467 
L 231.16032 -239.199585 
L 231.87456 -238.931208 
L 232.5888 -238.647215 
L 233.30304 -238.344988 
L 234.01728 -238.021573 
L 234.73152 -237.673647 
L 235.44576 -237.297466 
L 236.16 -236.888823 
L 236.87424 -236.442993 
L 237.58848 -235.954679 
L 238.30272 -235.417952 
L 239.01696 -234.826189 
L 239.7312 -234.172012 
L 240.44544 -233.447226 
L 241.15968 -232.642754 
L 241.87392 -231.748586 
L 242.58816 -230.753731 
L 243.3024 -229.646185 
L 244.01664 -228.412914 
L 244.73088 -227.039873 
L 245.44512 -225.51205 
L 246.15936 -223.813561 
L 246.8736 -221.927797 
L 247.58784 -219.837642 
L 248.30208 -217.525762 
L 249.01632 -214.974993 
L 249.73056 -212.16881 
L 250.4448 -209.091908 
L 251.15904 -205.730865 
L 251.87328 -202.074896 
L 252.58752 -198.116655 
L 253.30176 -193.85306 
L 254.016 -189.286084 
L 254.73024 -184.423454 
L 255.44448 -179.279182 
L 256.15872 -173.873871 
L 256.87296 -168.234713 
L 257.5872 -162.395159 
L 258.30144 -156.394234 
L 259.01568 -150.275504 
L 259.72992 -144.085781 
L 260.44416 -137.873604 
L 261.1584 -131.687652 
L 261.87264 -125.575166 
L 262.58688 -119.580512 
L 263.30112 -113.743963 
L 264.01536 -108.100768 
L 264.7296 -102.680543 
L 265.44384 -97.506961 
L 266.15808 -92.597752 
L 266.87232 -87.964924 
L 267.58656 -83.615191 
L 268.3008 -79.550523 
L 269.01504 -75.768775 
L 269.72928 -72.264351 
L 270.44352 -69.028853 
L 271.15776 -66.051706 
L 271.872 -63.320723 
L 272.58624 -60.822605 
L 273.30048 -58.543375 
L 274.01472 -56.46874 
L 274.72896 -54.584389 
L 275.4432 -52.87623 
L 276.15744 -51.33057 
L 276.87168 -49.934255 
L 277.58592 -48.674762 
L 278.30016 -47.540266 
L 279.0144 -46.519674 
L 279.72864 -45.602641 
L 280.44288 -44.779566 
L 281.15712 -44.041581 
L 281.87136 -43.380524 
L 282.5856 -42.788907 
L 283.29984 -42.259885 
L 284.01408 -41.787213 
L 284.72832 -41.36521 
L 285.44256 -40.988716 
L 286.1568 -40.653056 
L 286.87104 -40.354001 
L 287.58528 -40.087729 
L 288.29952 -39.850794 
L 289.01376 -39.640091 
L 289.728 -39.452826 
L 290.44224 -39.286488 
L 291.15648 -39.138821 
L 291.87072 -39.007802 
L 292.58496 -38.891619 
L 293.2992 -38.788647 
L 294.01344 -38.697432 
L 294.72768 -38.616677 
L 295.44192 -38.545218 
L 296.15616 -38.48202 
L 296.8704 -38.426157 
L 297.58464 -38.376803 
L 298.29888 -38.333222 
L 299.01312 -38.294761 
L 299.72736 -38.260834 
L 300.4416 -38.230924 
L 301.15584 -38.204569 
L 301.87008 -38.181358 
L 302.58432 -38.160927 
L 303.29856 -38.142953 
L 304.0128 -38.127149 
L 304.72704 -38.11326 
L 305.44128 -38.10106 
L 306.15552 -38.090351 
L 306.86976 -38.080955 
L 307.584 -38.072715 
L 308.29824 -38.065493 
L 309.01248 -38.059168 
L 309.72672 -38.05363 
L 310.44096 -38.048784 
L 311.1552 -38.044546 
L 311.86944 -38.040843 
L 312.58368 -38.037608 
L 313.29792 -38.034783 
L 314.01216 -38.032319 
L 314.7264 -38.03017 
L 315.44064 -38.028297 
L 316.15488 -38.026665 
L 316.86912 -38.025245 
L 317.58336 -38.024009 
L 318.2976 -38.022935 
L 319.01184 -38.022001 
L 319.72608 -38.02119 
L 320.44032 -38.020486 
L 321.15456 -38.019875 
L 321.8688 -38.019345 
L 322.58304 -38.018887 
L 323.29728 -38.018489 
L 324.01152 -38.018145 
L 324.72576 -38.017848 
L 325.44 -38.017591 
L 326.15424 -38.017368 
L 326.86848 -38.017177 
L 327.58272 -38.017011 
L 328.29696 -38.016868 
L 329.0112 -38.016745 
L 329.72544 -38.016639 
L 330.43968 -38.016548 
L 331.15392 -38.016469 
L 331.86816 -38.016402 
L 332.5824 -38.016344 
L 333.29664 -38.016294 
L 334.01088 -38.016251 
L 334.72512 -38.016215 
L 335.43936 -38.016183 
L 336.1536 -38.016156 
L 336.86784 -38.016133 
L 337.58208 -38.016114 
L 338.29632 -38.016097 
L 339.01056 -38.016082 
L 339.7248 -38.01607 
L 340.43904 -38.01606 
L 341.15328 -38.016051 
L 341.86752 -38.016043 
L 342.58176 -38.016036 
L 343.296 -38.016031 
L 344.01024 -38.016026 
L 344.72448 -38.016022 
L 345.43872 -38.016019 
L 346.15296 -38.016016 
L 346.8672 -38.016013 
L 347.58144 -38.016011 
L 348.29568 -38.01601 
L 349.00992 -38.016008 
L 349.72416 -38.016007 
L 350.4384 -38.016006 
L 351.15264 -38.016005 
L 351.86688 -38.016004 
L 352.58112 -38.016003 
L 353.29536 -38.016003 
L 354.0096 -38.016002 
L 354.72384 -38.016002 
L 355.43808 -38.016002 
L 356.15232 -38.016001 
L 356.86656 -38.016001 
L 357.5808 -38.016001 
L 358.29504 -38.016001 
L 359.00928 -38.016001 
L 359.72352 -38.016001 
L 360.43776 -38.016 
L 361.152 -38.016 
L 361.86624 -38.016 
L 362.58048 -38.016 
L 363.29472 -38.016 
L 364.00896 -38.016 
L 364.7232 -38.016 
L 365.43744 -38.016 
L 366.15168 -38.016 
L 366.86592 -38.016 
L 367.58016 -38.016 
L 368.2944 -38.016 
L 369.00864 -38.016 
L 369.72288 -38.016 
L 370.43712 -38.016 
L 371.15136 -38.016 
L 371.8656 -38.016 
L 372.57984 -38.016 
L 373.29408 -38.016 
L 374.00832 -38.016 
L 374.72256 -38.016 
L 375.4368 -38.016 
L 376.15104 -38.016 
L 376.86528 -38.016 
L 377.57952 -38.016 
L 378.29376 -38.016 
L 379.008 -38.016 
L 379.72224 -38.016 
L 380.43648 -38.016 
L 381.15072 -38.016 
L 381.86496 -38.016 
L 382.5792 -38.016 
L 383.29344 -38.016 
L 384.00768 -38.016 
L 384.72192 -38.016 
L 385.43616 -38.016 
L 386.1504 -38.016 
L 386.86464 -38.016 
L 387.57888 -38.016 
L 388.29312 -38.016 
L 389.00736 -38.016 
L 389.7216 -38.016 
L 390.43584 -38.016 
L 391.15008 -38.016 
L 391.86432 -38.016 
L 392.57856 -38.016 
L 393.2928 -38.016 
L 394.00704 -38.016 
L 394.72128 -38.016 
L 395.43552 -38.016 
L 396.14976 -38.016 
L 396.864 -38.016 
L 397.57824 -38.016 
L 398.29248 -38.016 
L 399.00672 -38.016 
L 399.72096 -38.016 
L 400.4352 -38.016 
L 401.14944 -38.016 
L 401.86368 -38.016 
L 402.57792 -38.016 
L 403.29216 -38.016 
L 404.0064 -38.016 
L 404.72064 -38.016 
L 405.43488 -38.016 
L 406.14912 -38.016 
L 406.86336 -38.016 
L 407.5776 -38.016 
L 408.29184 -38.016 
L 409.00608 -38.016 
L 409.72032 -38.016 
L 410.43456 -38.016 
L 411.1488 -38.016 
L 411.86304 -38.016 
L 412.57728 -38.016 
L 413.29152 -38.016 
L 414.00576 -38.016 
L 414.72 -38.016 
L 414.72 -38.016 
L 414.72 -38.016 
L 414.00576 -38.016 
L 413.29152 -38.016 
L 412.57728 -38.016 
L 411.86304 -38.016 
L 411.1488 -38.016 
L 410.43456 -38.016 
L 409.72032 -38.016 
L 409.00608 -38.016 
L 408.29184 -38.016 
L 407.5776 -38.016 
L 406.86336 -38.016 
L 406.14912 -38.016 
L 405.43488 -38.016 
L 404.72064 -38.016 
L 404.0064 -38.016 
L 403.29216 -38.016 
L 402.57792 -38.016 
L 401.86368 -38.016 
L 401.14944 -38.016 
L 400.4352 -38.016 
L 399.72096 -38.016 
L 399.00672 -38.016 
L 398.29248 -38.016 
L 397.57824 -38.016 
L 396.864 -38.016 
L 396.14976 -38.016 
L 395.43552 -38.016 
L 394.72128 -38.016 
L 394.00704 -38.016 
L 393.2928 -38.016 
L 392.57856 -38.016 
L 391.86432 -38.016 
L 391.15008 -38.016 
L 390.43584 -38.016 
L 389.7216 -38.016 
L 389.00736 -38.016 
L 388.29312 -38.016 
L 387.57888 -38.016 
L 386.86464 -38.016 
L 386.1504 -38.016 
L 385.43616 -38.016 
L 384.72192 -38.016 
L 384.00768 -38.016 
L 383.29344 -38.016 
L 382.5792 -38.016 
L 381.86496 -38.016 
L 381.15072 -38.016 
L 380.43648 -38.016 
L 379.72224 -38.016 
L 379.008 -38.016 
L 378.29376 -38.016 
L 377.57952 -38.016 
L 376.86528 -38.016 
L 376.15104 -38.016 
L 375.4368 -38.016 
L 374.72256 -38.016 
L 374.00832 -38.016 
L 373.29408 -38.016 
L 372.57984 -38.016 
L 371.8656 -38.016 
L 371.15136 -38.016 
L 370.43712 -38.016 
L 369.72288 -38.016 
L 369.00864 -38.016 
L 368.2944 -38.016 
L 367.58016 -38.016 
L 366.86592 -38.016 
L 366.15168 -38.016 
L 365.43744 -38.016 
L 364.7232 -38.016 
L 364.00896 -38.016 
L 363.29472 -38.016 
L 362.58048 -38.016 
L 361.86624 -38.016 
L 361.152 -38.016 
L 360.43776 -38.016 
L 359.72352 -38.016 
L 359.00928 -38.016 
L 358.29504 -38.016 
L 357.5808 -38.016 
L 356.86656 -38.016 
L 356.15232 -38.016 
L 355.43808 -38.016 
L 354.72384 -38.016 
L 354.0096 -38.016 
L 353.29536 -38.016 
L 352.58112 -38.016 
L 351.86688 -38.016 
L 351.15264 -38.016 
L 350.4384 -38.016 
L 349.72416 -38.016 
L 349.00992 -38.016 
L 348.29568 -38.016 
L 347.58144 -38.016 
L 346.8672 -38.016 
L 346.15296 -38.016 
L 345.43872 -38.016 
L 344.72448 -38.016 
L 344.01024 -38.016 
L 343.296 -38.016 
L 342.58176 -38.016 
L 341.86752 -38.016 
L 341.15328 -38.016 
L 340.43904 -38.016 
L 339.7248 -38.016 
L 339.01056 -38.016 
L 338.29632 -38.016 
L 337.58208 -38.016 
L 336.86784 -38.016 
L 336.1536 -38.016 
L 335.43936 -38.016 
L 334.72512 -38.016 
L 334.01088 -38.016 
L 333.29664 -38.016 
L 332.5824 -38.016 
L 331.86816 -38.016 
L 331.15392 -38.016 
L 330.43968 -38.016 
L 329.72544 -38.016 
L 329.0112 -38.016 
L 328.29696 -38.016 
L 327.58272 -38.016 
L 326.86848 -38.016 
L 326.15424 -38.016 
L 325.44 -38.016 
L 324.72576 -38.016 
L 324.01152 -38.016 
L 323.29728 -38.016 
L 322.58304 -38.016 
L 321.8688 -38.016 
L 321.15456 -38.016 
L 320.44032 -38.016 
L 319.72608 -38.016 
L 319.01184 -38.016 
L 318.2976 -38.016 
L 317.58336 -38.016 
L 316.86912 -38.016 
L 316.15488 -38.016 
L 315.44064 -38.016 
L 314.7264 -38.016 
L 314.01216 -38.016 
L 313.29792 -38.016 
L 312.58368 -38.016 
L 311.86944 -38.016 
L 311.1552 -38.016 
L 310.44096 -38.016 
L 309.72672 -38.016 
L 309.01248 -38.016 
L 308.29824 -38.016 
L 307.584 -38.016 
L 306.86976 -38.016 
L 306.15552 -38.016 
L 305.44128 -38.016 
L 304.72704 -38.016 
L 304.0128 -38.016 
L 303.29856 -38.016 
L 302.58432 -38.016 
L 301.87008 -38.016 
L 301.15584 -38.016 
L 300.4416 -38.016 
L 299.72736 -38.016 
L 299.01312 -38.016 
L 298.29888 -38.016 
L 297.58464 -38.016 
L 296.8704 -38.016 
L 296.15616 -38.016 
L 295.44192 -38.016 
L 294.72768 -38.016 
L 294.01344 -38.016 
L 293.2992 -38.016 
L 292.58496 -38.016 
L 291.87072 -38.016 
L 291.15648 -38.016 
L 290.44224 -38.016 
L 289.728 -38.016 
L 289.01376 -38.016 
L 288.29952 -38.016 
L 287.58528 -38.016 
L 286.87104 -38.016 
L 286.1568 -38.016 
L 285.44256 -38.016 
L 284.72832 -38.016 
L 284.01408 -38.016 
L 283.29984 -38.016 
L 282.5856 -38.016 
L 281.87136 -38.016 
L 281.15712 -38.016 
L 280.44288 -38.016 
L 279.72864 -38.016 
L 279.0144 -38.016 
L 278.30016 -38.016 
L 277.58592 -38.016 
L 276.87168 -38.016 
L 276.15744 -38.016 
L 275.4432 -38.016 
L 274.72896 -38.016 
L 274.01472 -38.016 
L 273.30048 -38.016 
L 272.58624 -38.016 
L 271.872 -38.016 
L 271.15776 -38.016 
L 270.44352 -38.016 
L 269.72928 -38.016 
L 269.01504 -38.016 
L 268.3008 -38.016 
L 267.58656 -38.016 
L 266.87232 -38.016 
L 266.15808 -38.016 
L 265.44384 -38.016 
L 264.7296 -38.016 
L 264.01536 -38.016 
L 263.30112 -38.016 
L 262.58688 -38.016 
L 261.87264 -38.016 
L 261.1584 -38.016 
L 260.44416 -38.016 
L 259.72992 -38.016 
L 259.01568 -38.016 
L 258.30144 -38.016 
L 257.5872 -38.016 
L 256.87296 -38.016 
L 256.15872 -38.016 
L 255.44448 -38.016 
L 254.73024 -38.016 
L 254.016 -38.016 
L 253.30176 -38.016 
L 252.58752 -38.016 
L 251.87328 -38.016 
L 251.15904 -38.016 
L 250.4448 -38.016 
L 249.73056 -38.016 
L 249.01632 -38.016 
L 248.30208 -38.016 
L 247.58784 -38.016 
L 246.8736 -38.016 
L 246.15936 -38.016 
L 245.44512 -38.016 
L 244.73088 -38.016 
L 244.01664 -38.016 
L 243.3024 -38.016 
L 242.58816 -38.016 
L 241.87392 -38.016 
L 241.15968 -38.016 
L 240.44544 -38.016 
L 239.7312 -38.016 
L 239.01696 -38.016 
L 238.30272 -38.016 
L 237.58848 -38.016 
L 236.87424 -38.016 
L 236.16 -38.016 
L 235.44576 -38.016 
L 234.73152 -38.016 
L 234.01728 -38.016 
L 233.30304 -38.016 
L 232.5888 -38.016 
L 231.87456 -38.016 
L 231.16032 -38.016 
L 230.44608 -38.016 
L 229.73184 -38.016 
L 229.0176 -38.016 
L 228.30336 -38.016 
L 227.58912 -38.016 
L 226.87488 -38.016 
L 226.16064 -38.016 
L 225.4464 -38.016 
L 224.73216 -38.016 
L 224.01792 -38.016 
L 223.30368 -38.016 
L 222.58944 -38.016 
L 221.8752 -38.016 
L 221.16096 -38.016 
L 220.44672 -38.016 
L 219.73248 -38.016 
L 219.01824 -38.016 
L 218.304 -38.016 
L 217.58976 -38.016 
L 216.87552 -38.016 
L 216.16128 -38.016 
L 215.44704 -38.016 
L 214.7328 -38.016 
L 214.01856 -38.016 
L 213.30432 -38.016 
L 212.59008 -38.016 
L 211.87584 -38.016 
L 211.1616 -38.016 
L 210.44736 -38.016 
L 209.73312 -38.016 
L 209.01888 -38.016 
L 208.30464 -38.016 
L 207.5904 -38.016 
L 206.87616 -38.016 
L 206.16192 -38.016 
L 205.44768 -38.016 
L 204.73344 -38.016 
L 204.0192 -38.016 
L 203.30496 -38.016 
L 202.59072 -38.016 
L 201.87648 -38.016 
L 201.16224 -38.016 
L 200.448 -38.016 
L 199.73376 -38.016 
L 199.01952 -38.016 
L 198.30528 -38.016 
L 197.59104 -38.016 
L 196.8768 -38.016 
L 196.16256 -38.016 
L 195.44832 -38.016 
L 194.73408 -38.016 
L 194.01984 -38.016 
L 193.3056 -38.016 
L 192.59136 -38.016 
L 191.87712 -38.016 
L 191.16288 -38.016 
L 190.44864 -38.016 
L 189.7344 -38.016 
L 189.02016 -38.016 
L 188.30592 -38.016 
L 187.59168 -38.016 
L 186.87744 -38.016 
L 186.1632 -38.016 
L 185.44896 -38.016 
L 184.73472 -38.016 
L 184.02048 -38.016 
L 183.30624 -38.016 
L 182.592 -38.016 
L 181.87776 -38.016 
L 181.16352 -38.016 
L 180.44928 -38.016 
L 179.73504 -38.016 
L 179.0208 -38.016 
L 178.30656 -38.016 
L 177.59232 -38.016 
L 176.87808 -38.016 
L 176.16384 -38.016 
L 175.4496 -38.016 
L 174.73536 -38.016 
L 174.02112 -38.016 
L 173.30688 -38.016 
L 172.59264 -38.016 
L 171.8784 -38.016 
L 171.16416 -38.016 
L 170.44992 -38.016 
L 169.73568 -38.016 
L 169.02144 -38.016 
L 168.3072 -38.016 
L 167.59296 -38.016 
L 166.87872 -38.016 
L 166.16448 -38.016 
L 165.45024 -38.016 
L 164.736 -38.016 
L 164.02176 -38.016 
L 163.30752 -38.016 
L 162.59328 -38.016 
L 161.87904 -38.016 
L 161.1648 -38.016 
L 160.45056 -38.016 
L 159.73632 -38.016 
L 159.02208 -38.016 
L 158.30784 -38.016 
L 157.5936 -38.016 
L 156.87936 -38.016 
L 156.16512 -38.016 
L 155.45088 -38.016 
L 154.73664 -38.016 
L 154.0224 -38.016 
L 153.30816 -38.016 
L 152.59392 -38.016 
L 151.87968 -38.016 
L 151.16544 -38.016 
L 150.4512 -38.016 
L 149.73696 -38.016 
L 149.02272 -38.016 
L 148.30848 -38.016 
L 147.59424 -38.016 
L 146.88 -38.016 
L 146.16576 -38.016 
L 145.45152 -38.016 
L 144.73728 -38.016 
L 144.02304 -38.016 
L 143.3088 -38.016 
L 142.59456 -38.016 
L 141.88032 -38.016 
L 141.16608 -38.016 
L 140.45184 -38.016 
L 139.7376 -38.016 
L 139.02336 -38.016 
L 138.30912 -38.016 
L 137.59488 -38.016 
L 136.88064 -38.016 
L 136.1664 -38.016 
L 135.45216 -38.016 
L 134.73792 -38.016 
L 134.02368 -38.016 
L 133.30944 -38.016 
L 132.5952 -38.016 
L 131.88096 -38.016 
L 131.16672 -38.016 
L 130.45248 -38.016 
L 129.73824 -38.016 
L 129.024 -38.016 
L 128.30976 -38.016 
L 127.59552 -38.016 
L 126.88128 -38.016 
L 126.16704 -38.016 
L 125.4528 -38.016 
L 124.73856 -38.016 
L 124.02432 -38.016 
L 123.31008 -38.016 
L 122.59584 -38.016 
L 121.8816 -38.016 
L 121.16736 -38.016 
L 120.45312 -38.016 
L 119.73888 -38.016 
L 119.02464 -38.016 
L 118.3104 -38.016 
L 117.59616 -38.016 
L 116.88192 -38.016 
L 116.16768 -38.016 
L 115.45344 -38.016 
L 114.7392 -38.016 
L 114.02496 -38.016 
L 113.31072 -38.016 
L 112.59648 -38.016 
L 111.88224 -38.016 
L 111.168 -38.016 
L 110.45376 -38.016 
L 109.73952 -38.016 
L 109.02528 -38.016 
L 108.31104 -38.016 
L 107.5968 -38.016 
L 106.88256 -38.016 
L 106.16832 -38.016 
L 105.45408 -38.016 
L 104.73984 -38.016 
L 104.0256 -38.016 
L 103.31136 -38.016 
L 102.59712 -38.016 
L 101.88288 -38.016 
L 101.16864 -38.016 
L 100.4544 -38.016 
L 99.74016 -38.016 
L 99.02592 -38.016 
L 98.31168 -38.016 
L 97.59744 -38.016 
L 96.8832 -38.016 
L 96.16896 -38.016 
L 95.45472 -38.016 
L 94.74048 -38.016 
L 94.02624 -38.016 
L 93.312 -38.016 
L 92.59776 -38.016 
L 91.88352 -38.016 
L 91.16928 -38.016 
L 90.45504 -38.016 
L 89.7408 -38.016 
L 89.02656 -38.016 
L 88.31232 -38.016 
L 87.59808 -38.016 
L 86.88384 -38.016 
L 86.1696 -38.016 
L 85.45536 -38.016 
L 84.74112 -38.016 
L 84.02688 -38.016 
L 83.31264 -38.016 
L 82.5984 -38.016 
L 81.88416 -38.016 
L 81.16992 -38.016 
L 80.45568 -38.016 
L 79.74144 -38.016 
L 79.0272 -38.016 
L 78.31296 -38.016 
L 77.59872 -38.016 
L 76.88448 -38.016 
L 76.17024 -38.016 
L 75.456 -38.016 
L 74.74176 -38.016 
L 74.02752 -38.016 
L 73.31328 -38.016 
L 72.59904 -38.016 
L 71.8848 -38.016 
L 71.17056 -38.016 
L 70.45632 -38.016 
L 69.74208 -38.016 
L 69.02784 -38.016 
L 68.3136 -38.016 
L 67.59936 -38.016 
L 66.88512 -38.016 
L 66.17088 -38.016 
L 65.45664 -38.016 
L 64.7424 -38.016 
L 64.02816 -38.016 
L 63.31392 -38.016 
L 62.59968 -38.016 
L 61.88544 -38.016 
L 61.1712 -38.016 
L 60.45696 -38.016 
L 59.74272 -38.016 
L 59.02848 -38.016 
L 58.31424 -38.016 
L 57.6 -38.016 
z
" id="m7dbf620625" style="stroke:#509369;"/>
    </defs>
    <g clip-path="url(#p958f99f232)">
     <use style="fill:#509369;stroke:#509369;" x="0" xlink:href="#m7dbf620625" y="345.6"/>
    </g>
   </g>
   <g id="PolyCollection_2">
    <defs>
     <path d="M 57.6 -279.936598 
L 57.6 -279.936 
L 58.31424 -279.935992 
L 59.02848 -279.935977 
L 59.74272 -279.935954 
L 60.45696 -279.935922 
L 61.1712 -279.935883 
L 61.88544 -279.935834 
L 62.59968 -279.935776 
L 63.31392 -279.935709 
L 64.02816 -279.93563 
L 64.7424 -279.935541 
L 65.45664 -279.935439 
L 66.17088 -279.935324 
L 66.88512 -279.935195 
L 67.59936 -279.93505 
L 68.3136 -279.934888 
L 69.02784 -279.934708 
L 69.74208 -279.934508 
L 70.45632 -279.934287 
L 71.17056 -279.934041 
L 71.8848 -279.93377 
L 72.59904 -279.93347 
L 73.31328 -279.933139 
L 74.02752 -279.932775 
L 74.74176 -279.932374 
L 75.456 -279.931932 
L 76.17024 -279.931448 
L 76.88448 -279.930915 
L 77.59872 -279.930331 
L 78.31296 -279.929691 
L 79.0272 -279.92899 
L 79.74144 -279.928222 
L 80.45568 -279.927383 
L 81.16992 -279.926465 
L 81.88416 -279.925462 
L 82.5984 -279.924368 
L 83.31264 -279.923174 
L 84.02688 -279.921872 
L 84.74112 -279.920454 
L 85.45536 -279.918911 
L 86.1696 -279.917231 
L 86.88384 -279.915405 
L 87.59808 -279.913422 
L 88.31232 -279.911268 
L 89.02656 -279.90893 
L 89.7408 -279.906396 
L 90.45504 -279.90365 
L 91.16928 -279.900676 
L 91.88352 -279.897457 
L 92.59776 -279.893976 
L 93.312 -279.890214 
L 94.02624 -279.886151 
L 94.74048 -279.881766 
L 95.45472 -279.877035 
L 96.16896 -279.871936 
L 96.8832 -279.866443 
L 97.59744 -279.860529 
L 98.31168 -279.854168 
L 99.02592 -279.847328 
L 99.74016 -279.839979 
L 100.4544 -279.832089 
L 101.16864 -279.823623 
L 101.88288 -279.814545 
L 102.59712 -279.804816 
L 103.31136 -279.794398 
L 104.0256 -279.783249 
L 104.73984 -279.771325 
L 105.45408 -279.758581 
L 106.16832 -279.744969 
L 106.88256 -279.73044 
L 107.5968 -279.714941 
L 108.31104 -279.69842 
L 109.02528 -279.68082 
L 109.73952 -279.662083 
L 110.45376 -279.642148 
L 111.168 -279.620954 
L 111.88224 -279.598434 
L 112.59648 -279.574522 
L 113.31072 -279.549148 
L 114.02496 -279.52224 
L 114.7392 -279.493724 
L 115.45344 -279.463525 
L 116.16768 -279.431562 
L 116.88192 -279.397756 
L 117.59616 -279.362023 
L 118.3104 -279.324279 
L 119.02464 -279.284435 
L 119.73888 -279.242402 
L 120.45312 -279.198089 
L 121.16736 -279.151402 
L 121.8816 -279.102247 
L 122.59584 -279.050525 
L 123.31008 -278.99614 
L 124.02432 -278.93899 
L 124.73856 -278.878974 
L 125.4528 -278.815988 
L 126.16704 -278.74993 
L 126.88128 -278.680692 
L 127.59552 -278.608171 
L 128.30976 -278.532258 
L 129.024 -278.452847 
L 129.73824 -278.36983 
L 130.45248 -278.283098 
L 131.16672 -278.192545 
L 131.88096 -278.098063 
L 132.5952 -277.999544 
L 133.30944 -277.896883 
L 134.02368 -277.789973 
L 134.73792 -277.678711 
L 135.45216 -277.562993 
L 136.1664 -277.442719 
L 136.88064 -277.317788 
L 137.59488 -277.188104 
L 138.30912 -277.053571 
L 139.02336 -276.914098 
L 139.7376 -276.769595 
L 140.45184 -276.619977 
L 141.16608 -276.46516 
L 141.88032 -276.305067 
L 142.59456 -276.139623 
L 143.3088 -275.968757 
L 144.02304 -275.792403 
L 144.73728 -275.610501 
L 145.45152 -275.422995 
L 146.16576 -275.229833 
L 146.88 -275.030972 
L 147.59424 -274.826372 
L 148.30848 -274.616 
L 149.02272 -274.399829 
L 149.73696 -274.177838 
L 150.4512 -273.950015 
L 151.16544 -273.716351 
L 151.87968 -273.476848 
L 152.59392 -273.231512 
L 153.30816 -272.980358 
L 154.0224 -272.723407 
L 154.73664 -272.460691 
L 155.45088 -272.192245 
L 156.16512 -271.918114 
L 156.87936 -271.638352 
L 157.5936 -271.353017 
L 158.30784 -271.06218 
L 159.02208 -270.765915 
L 159.73632 -270.464306 
L 160.45056 -270.157444 
L 161.1648 -269.84543 
L 161.87904 -269.528369 
L 162.59328 -269.206375 
L 163.30752 -268.879571 
L 164.02176 -268.548084 
L 164.736 -268.212051 
L 165.45024 -267.871614 
L 166.16448 -267.526923 
L 166.87872 -267.178132 
L 167.59296 -266.825405 
L 168.3072 -266.468908 
L 169.02144 -266.108815 
L 169.73568 -265.745306 
L 170.44992 -265.378563 
L 171.16416 -265.008775 
L 171.8784 -264.636136 
L 172.59264 -264.260842 
L 173.30688 -263.883095 
L 174.02112 -263.503098 
L 174.73536 -263.121059 
L 175.4496 -262.737187 
L 176.16384 -262.351693 
L 176.87808 -261.964793 
L 177.59232 -261.5767 
L 178.30656 -261.187631 
L 179.0208 -260.797803 
L 179.73504 -260.407432 
L 180.44928 -260.016735 
L 181.16352 -259.625928 
L 181.87776 -259.235227 
L 182.592 -258.844844 
L 183.30624 -258.454992 
L 184.02048 -258.06588 
L 184.73472 -257.677715 
L 185.44896 -257.290703 
L 186.1632 -256.905043 
L 186.87744 -256.520934 
L 187.59168 -256.138568 
L 188.30592 -255.758136 
L 189.02016 -255.379821 
L 189.7344 -255.003804 
L 190.44864 -254.630259 
L 191.16288 -254.259356 
L 191.87712 -253.891259 
L 192.59136 -253.526125 
L 193.3056 -253.164106 
L 194.01984 -252.805347 
L 194.73408 -252.449988 
L 195.44832 -252.09816 
L 196.16256 -251.749989 
L 196.8768 -251.405594 
L 197.59104 -251.065085 
L 198.30528 -250.728566 
L 199.01952 -250.396135 
L 199.73376 -250.067879 
L 200.448 -249.74388 
L 201.16224 -249.424212 
L 201.87648 -249.10894 
L 202.59072 -248.798122 
L 203.30496 -248.491807 
L 204.0192 -248.190037 
L 204.73344 -247.892845 
L 205.44768 -247.600255 
L 206.16192 -247.312282 
L 206.87616 -247.028934 
L 207.5904 -246.750209 
L 208.30464 -246.476093 
L 209.01888 -246.206567 
L 209.73312 -245.941599 
L 210.44736 -245.681146 
L 211.1616 -245.425155 
L 211.87584 -245.173561 
L 212.59008 -244.926287 
L 213.30432 -244.683243 
L 214.01856 -244.444324 
L 214.7328 -244.209409 
L 215.44704 -243.978362 
L 216.16128 -243.751028 
L 216.87552 -243.527231 
L 217.58976 -243.306776 
L 218.304 -243.089439 
L 219.01824 -242.874974 
L 219.73248 -242.6631 
L 220.44672 -242.453507 
L 221.16096 -242.245843 
L 221.8752 -242.039717 
L 222.58944 -241.834687 
L 223.30368 -241.630259 
L 224.01792 -241.425879 
L 224.73216 -241.220922 
L 225.4464 -241.014687 
L 226.16064 -240.806385 
L 226.87488 -240.595128 
L 227.58912 -240.379915 
L 228.30336 -240.159617 
L 229.0176 -239.932964 
L 229.73184 -239.698521 
L 230.44608 -239.45467 
L 231.16032 -239.199585 
L 231.87456 -238.931208 
L 232.5888 -238.647215 
L 233.30304 -238.344988 
L 234.01728 -238.021573 
L 234.73152 -237.673647 
L 235.44576 -237.297466 
L 236.16 -236.888823 
L 236.87424 -236.442993 
L 237.58848 -235.954679 
L 238.30272 -235.417952 
L 239.01696 -234.826189 
L 239.7312 -234.172012 
L 240.44544 -233.447226 
L 241.15968 -232.642754 
L 241.87392 -231.748586 
L 242.58816 -230.753731 
L 243.3024 -229.646185 
L 244.01664 -228.412914 
L 244.73088 -227.039873 
L 245.44512 -225.51205 
L 246.15936 -223.813561 
L 246.8736 -221.927797 
L 247.58784 -219.837642 
L 248.30208 -217.525762 
L 249.01632 -214.974993 
L 249.73056 -212.16881 
L 250.4448 -209.091908 
L 251.15904 -205.730865 
L 251.87328 -202.074896 
L 252.58752 -198.116655 
L 253.30176 -193.85306 
L 254.016 -189.286084 
L 254.73024 -184.423454 
L 255.44448 -179.279182 
L 256.15872 -173.873871 
L 256.87296 -168.234713 
L 257.5872 -162.395159 
L 258.30144 -156.394234 
L 259.01568 -150.275504 
L 259.72992 -144.085781 
L 260.44416 -137.873604 
L 261.1584 -131.687652 
L 261.87264 -125.575166 
L 262.58688 -119.580512 
L 263.30112 -113.743963 
L 264.01536 -108.100768 
L 264.7296 -102.680543 
L 265.44384 -97.506961 
L 266.15808 -92.597752 
L 266.87232 -87.964924 
L 267.58656 -83.615191 
L 268.3008 -79.550523 
L 269.01504 -75.768775 
L 269.72928 -72.264351 
L 270.44352 -69.028853 
L 271.15776 -66.051706 
L 271.872 -63.320723 
L 272.58624 -60.822605 
L 273.30048 -58.543375 
L 274.01472 -56.46874 
L 274.72896 -54.584389 
L 275.4432 -52.87623 
L 276.15744 -51.33057 
L 276.87168 -49.934255 
L 277.58592 -48.674762 
L 278.30016 -47.540266 
L 279.0144 -46.519674 
L 279.72864 -45.602641 
L 280.44288 -44.779566 
L 281.15712 -44.041581 
L 281.87136 -43.380524 
L 282.5856 -42.788907 
L 283.29984 -42.259885 
L 284.01408 -41.787213 
L 284.72832 -41.36521 
L 285.44256 -40.988716 
L 286.1568 -40.653056 
L 286.87104 -40.354001 
L 287.58528 -40.087729 
L 288.29952 -39.850794 
L 289.01376 -39.640091 
L 289.728 -39.452826 
L 290.44224 -39.286488 
L 291.15648 -39.138821 
L 291.87072 -39.007802 
L 292.58496 -38.891619 
L 293.2992 -38.788647 
L 294.01344 -38.697432 
L 294.72768 -38.616677 
L 295.44192 -38.545218 
L 296.15616 -38.48202 
L 296.8704 -38.426157 
L 297.58464 -38.376803 
L 298.29888 -38.333222 
L 299.01312 -38.294761 
L 299.72736 -38.260834 
L 300.4416 -38.230924 
L 301.15584 -38.204569 
L 301.87008 -38.181358 
L 302.58432 -38.160927 
L 303.29856 -38.142953 
L 304.0128 -38.127149 
L 304.72704 -38.11326 
L 305.44128 -38.10106 
L 306.15552 -38.090351 
L 306.86976 -38.080955 
L 307.584 -38.072715 
L 308.29824 -38.065493 
L 309.01248 -38.059168 
L 309.72672 -38.05363 
L 310.44096 -38.048784 
L 311.1552 -38.044546 
L 311.86944 -38.040843 
L 312.58368 -38.037608 
L 313.29792 -38.034783 
L 314.01216 -38.032319 
L 314.7264 -38.03017 
L 315.44064 -38.028297 
L 316.15488 -38.026665 
L 316.86912 -38.025245 
L 317.58336 -38.024009 
L 318.2976 -38.022935 
L 319.01184 -38.022001 
L 319.72608 -38.02119 
L 320.44032 -38.020486 
L 321.15456 -38.019875 
L 321.8688 -38.019345 
L 322.58304 -38.018887 
L 323.29728 -38.018489 
L 324.01152 -38.018145 
L 324.72576 -38.017848 
L 325.44 -38.017591 
L 326.15424 -38.017368 
L 326.86848 -38.017177 
L 327.58272 -38.017011 
L 328.29696 -38.016868 
L 329.0112 -38.016745 
L 329.72544 -38.016639 
L 330.43968 -38.016548 
L 331.15392 -38.016469 
L 331.86816 -38.016402 
L 332.5824 -38.016344 
L 333.29664 -38.016294 
L 334.01088 -38.016251 
L 334.72512 -38.016215 
L 335.43936 -38.016183 
L 336.1536 -38.016156 
L 336.86784 -38.016133 
L 337.58208 -38.016114 
L 338.29632 -38.016097 
L 339.01056 -38.016082 
L 339.7248 -38.01607 
L 340.43904 -38.01606 
L 341.15328 -38.016051 
L 341.86752 -38.016043 
L 342.58176 -38.016036 
L 343.296 -38.016031 
L 344.01024 -38.016026 
L 344.72448 -38.016022 
L 345.43872 -38.016019 
L 346.15296 -38.016016 
L 346.8672 -38.016013 
L 347.58144 -38.016011 
L 348.29568 -38.01601 
L 349.00992 -38.016008 
L 349.72416 -38.016007 
L 350.4384 -38.016006 
L 351.15264 -38.016005 
L 351.86688 -38.016004 
L 352.58112 -38.016003 
L 353.29536 -38.016003 
L 354.0096 -38.016002 
L 354.72384 -38.016002 
L 355.43808 -38.016002 
L 356.15232 -38.016001 
L 356.86656 -38.016001 
L 357.5808 -38.016001 
L 358.29504 -38.016001 
L 359.00928 -38.016001 
L 359.72352 -38.016001 
L 360.43776 -38.016 
L 361.152 -38.016 
L 361.86624 -38.016 
L 362.58048 -38.016 
L 363.29472 -38.016 
L 364.00896 -38.016 
L 364.7232 -38.016 
L 365.43744 -38.016 
L 366.15168 -38.016 
L 366.86592 -38.016 
L 367.58016 -38.016 
L 368.2944 -38.016 
L 369.00864 -38.016 
L 369.72288 -38.016 
L 370.43712 -38.016 
L 371.15136 -38.016 
L 371.8656 -38.016 
L 372.57984 -38.016 
L 373.29408 -38.016 
L 374.00832 -38.016 
L 374.72256 -38.016 
L 375.4368 -38.016 
L 376.15104 -38.016 
L 376.86528 -38.016 
L 377.57952 -38.016 
L 378.29376 -38.016 
L 379.008 -38.016 
L 379.72224 -38.016 
L 380.43648 -38.016 
L 381.15072 -38.016 
L 381.86496 -38.016 
L 382.5792 -38.016 
L 383.29344 -38.016 
L 384.00768 -38.016 
L 384.72192 -38.016 
L 385.43616 -38.016 
L 386.1504 -38.016 
L 386.86464 -38.016 
L 387.57888 -38.016 
L 388.29312 -38.016 
L 389.00736 -38.016 
L 389.7216 -38.016 
L 390.43584 -38.016 
L 391.15008 -38.016 
L 391.86432 -38.016 
L 392.57856 -38.016 
L 393.2928 -38.016 
L 394.00704 -38.016 
L 394.72128 -38.016 
L 395.43552 -38.016 
L 396.14976 -38.016 
L 396.864 -38.016 
L 397.57824 -38.016 
L 398.29248 -38.016 
L 399.00672 -38.016 
L 399.72096 -38.016 
L 400.4352 -38.016 
L 401.14944 -38.016 
L 401.86368 -38.016 
L 402.57792 -38.016 
L 403.29216 -38.016 
L 404.0064 -38.016 
L 404.72064 -38.016 
L 405.43488 -38.016 
L 406.14912 -38.016 
L 406.86336 -38.016 
L 407.5776 -38.016 
L 408.29184 -38.016 
L 409.00608 -38.016 
L 409.72032 -38.016 
L 410.43456 -38.016 
L 411.1488 -38.016 
L 411.86304 -38.016 
L 412.57728 -38.016 
L 413.29152 -38.016 
L 414.00576 -38.016 
L 414.72 -38.016 
L 414.72 -38.016 
L 414.72 -38.016 
L 414.00576 -38.016 
L 413.29152 -38.016 
L 412.57728 -38.016 
L 411.86304 -38.016 
L 411.1488 -38.016 
L 410.43456 -38.016 
L 409.72032 -38.016 
L 409.00608 -38.016 
L 408.29184 -38.016 
L 407.5776 -38.016 
L 406.86336 -38.016 
L 406.14912 -38.016 
L 405.43488 -38.016 
L 404.72064 -38.016 
L 404.0064 -38.016 
L 403.29216 -38.016 
L 402.57792 -38.016 
L 401.86368 -38.016 
L 401.14944 -38.016 
L 400.4352 -38.016 
L 399.72096 -38.016 
L 399.00672 -38.016 
L 398.29248 -38.016 
L 397.57824 -38.016 
L 396.864 -38.016 
L 396.14976 -38.016 
L 395.43552 -38.016 
L 394.72128 -38.016 
L 394.00704 -38.016 
L 393.2928 -38.016 
L 392.57856 -38.016 
L 391.86432 -38.016 
L 391.15008 -38.016 
L 390.43584 -38.016 
L 389.7216 -38.016 
L 389.00736 -38.016 
L 388.29312 -38.016 
L 387.57888 -38.016 
L 386.86464 -38.016 
L 386.1504 -38.016 
L 385.43616 -38.016 
L 384.72192 -38.016 
L 384.00768 -38.016 
L 383.29344 -38.016 
L 382.5792 -38.016 
L 381.86496 -38.016 
L 381.15072 -38.016 
L 380.43648 -38.016 
L 379.72224 -38.016 
L 379.008 -38.016 
L 378.29376 -38.016 
L 377.57952 -38.016 
L 376.86528 -38.016 
L 376.15104 -38.016 
L 375.4368 -38.016 
L 374.72256 -38.016 
L 374.00832 -38.016 
L 373.29408 -38.016 
L 372.57984 -38.016 
L 371.8656 -38.016 
L 371.15136 -38.016 
L 370.43712 -38.016 
L 369.72288 -38.016 
L 369.00864 -38.016 
L 368.2944 -38.016 
L 367.58016 -38.016 
L 366.86592 -38.016 
L 366.15168 -38.016 
L 365.43744 -38.016 
L 364.7232 -38.016 
L 364.00896 -38.016 
L 363.29472 -38.016 
L 362.58048 -38.016 
L 361.86624 -38.016001 
L 361.152 -38.016001 
L 360.43776 -38.016001 
L 359.72352 -38.016001 
L 359.00928 -38.016001 
L 358.29504 -38.016001 
L 357.5808 -38.016002 
L 356.86656 -38.016002 
L 356.15232 -38.016002 
L 355.43808 -38.016003 
L 354.72384 -38.016003 
L 354.0096 -38.016004 
L 353.29536 -38.016005 
L 352.58112 -38.016006 
L 351.86688 -38.016007 
L 351.15264 -38.016008 
L 350.4384 -38.016009 
L 349.72416 -38.016011 
L 349.00992 -38.016013 
L 348.29568 -38.016015 
L 347.58144 -38.016018 
L 346.8672 -38.016021 
L 346.15296 -38.016025 
L 345.43872 -38.016029 
L 344.72448 -38.016034 
L 344.01024 -38.016041 
L 343.296 -38.016048 
L 342.58176 -38.016056 
L 341.86752 -38.016066 
L 341.15328 -38.016077 
L 340.43904 -38.01609 
L 339.7248 -38.016106 
L 339.01056 -38.016124 
L 338.29632 -38.016146 
L 337.58208 -38.01617 
L 336.86784 -38.016199 
L 336.1536 -38.016233 
L 335.43936 -38.016272 
L 334.72512 -38.016318 
L 334.01088 -38.016371 
L 333.29664 -38.016432 
L 332.5824 -38.016504 
L 331.86816 -38.016587 
L 331.15392 -38.016683 
L 330.43968 -38.016795 
L 329.72544 -38.016924 
L 329.0112 -38.017074 
L 328.29696 -38.017247 
L 327.58272 -38.017448 
L 326.86848 -38.01768 
L 326.15424 -38.017948 
L 325.44 -38.018258 
L 324.72576 -38.018615 
L 324.01152 -38.019027 
L 323.29728 -38.019502 
L 322.58304 -38.02005 
L 321.8688 -38.02068 
L 321.15456 -38.021406 
L 320.44032 -38.02224 
L 319.72608 -38.023199 
L 319.01184 -38.024301 
L 318.2976 -38.025567 
L 317.58336 -38.02702 
L 316.86912 -38.028686 
L 316.15488 -38.030596 
L 315.44064 -38.032785 
L 314.7264 -38.035291 
L 314.01216 -38.03816 
L 313.29792 -38.041441 
L 312.58368 -38.045193 
L 311.86944 -38.049481 
L 311.1552 -38.054378 
L 310.44096 -38.059967 
L 309.72672 -38.066345 
L 309.01248 -38.073617 
L 308.29824 -38.081905 
L 307.584 -38.091346 
L 306.86976 -38.102094 
L 306.15552 -38.114326 
L 305.44128 -38.128237 
L 304.72704 -38.144051 
L 304.0128 -38.162019 
L 303.29856 -38.182424 
L 302.58432 -38.205585 
L 301.87008 -38.23186 
L 301.15584 -38.261654 
L 300.4416 -38.295421 
L 299.72736 -38.333672 
L 299.01312 -38.37698 
L 298.29888 -38.425992 
L 297.58464 -38.481429 
L 296.8704 -38.544105 
L 296.15616 -38.614929 
L 295.44192 -38.694922 
L 294.72768 -38.785225 
L 294.01344 -38.887118 
L 293.2992 -39.002032 
L 292.58496 -39.131564 
L 291.87072 -39.277503 
L 291.15648 -39.441843 
L 290.44224 -39.626808 
L 289.728 -39.834879 
L 289.01376 -40.068819 
L 288.29952 -40.331702 
L 287.58528 -40.626945 
L 286.87104 -40.958342 
L 286.1568 -41.330103 
L 285.44256 -41.746892 
L 284.72832 -42.213867 
L 284.01408 -42.736728 
L 283.29984 -43.321757 
L 282.5856 -43.975873 
L 281.87136 -44.706673 
L 281.15712 -45.522482 
L 280.44288 -46.432399 
L 279.72864 -47.446339 
L 279.0144 -48.575069 
L 278.30016 -49.830236 
L 277.58592 -51.224386 
L 276.87168 -52.770964 
L 276.15744 -54.484292 
L 275.4432 -56.379529 
L 274.72896 -58.472585 
L 274.01472 -60.78001 
L 273.30048 -63.31882 
L 272.58624 -66.10628 
L 271.872 -69.159609 
L 271.15776 -72.49562 
L 270.44352 -76.130275 
L 269.72928 -80.078162 
L 269.01504 -84.351881 
L 268.3008 -88.961358 
L 267.58656 -93.913092 
L 266.87232 -99.209358 
L 266.15808 -104.847413 
L 265.44384 -110.818731 
L 264.7296 -117.108337 
L 264.01536 -123.694305 
L 263.30112 -130.547487 
L 262.58688 -137.631535 
L 261.87264 -144.903273 
L 261.1584 -152.313465 
L 260.44416 -159.807945 
L 259.72992 -167.329111 
L 259.01568 -174.817678 
L 258.30144 -182.214592 
L 257.5872 -189.462977 
L 256.87296 -196.509955 
L 256.15872 -203.308233 
L 255.44448 -209.817339 
L 254.73024 -216.004447 
L 254.016 -221.844771 
L 253.30176 -227.321546 
L 252.58752 -232.425655 
L 251.87328 -237.154967 
L 251.15904 -241.513484 
L 250.4448 -245.510369 
L 249.73056 -249.158944 
L 249.01632 -252.475705 
L 248.30208 -255.479413 
L 247.58784 -258.190277 
L 246.8736 -260.629262 
L 246.15936 -262.817505 
L 245.44512 -264.77586 
L 244.73088 -266.524538 
L 244.01664 -268.08285 
L 243.3024 -269.46903 
L 242.58816 -270.700122 
L 241.87392 -271.791922 
L 241.15968 -272.758969 
L 240.44544 -273.614557 
L 239.7312 -274.370782 
L 239.01696 -275.038594 
L 238.30272 -275.627872 
L 237.58848 -276.147492 
L 236.87424 -276.605411 
L 236.16 -277.008739 
L 235.44576 -277.363814 
L 234.73152 -277.676279 
L 234.01728 -277.951146 
L 233.30304 -278.192859 
L 232.5888 -278.405357 
L 231.87456 -278.592123 
L 231.16032 -278.756237 
L 230.44608 -278.900418 
L 229.73184 -279.027064 
L 229.0176 -279.13829 
L 228.30336 -279.235962 
L 227.58912 -279.32172 
L 226.87488 -279.39701 
L 226.16064 -279.463104 
L 225.4464 -279.521119 
L 224.73216 -279.57204 
L 224.01792 -279.61673 
L 223.30368 -279.655951 
L 222.58944 -279.69037 
L 221.8752 -279.720573 
L 221.16096 -279.747075 
L 220.44672 -279.77033 
L 219.73248 -279.790734 
L 219.01824 -279.808636 
L 218.304 -279.824343 
L 217.58976 -279.838123 
L 216.87552 -279.850213 
L 216.16128 -279.86082 
L 215.44704 -279.870125 
L 214.7328 -279.878288 
L 214.01856 -279.88545 
L 213.30432 -279.891732 
L 212.59008 -279.897243 
L 211.87584 -279.902077 
L 211.1616 -279.906318 
L 210.44736 -279.910038 
L 209.73312 -279.913302 
L 209.01888 -279.916164 
L 208.30464 -279.918675 
L 207.5904 -279.920878 
L 206.87616 -279.92281 
L 206.16192 -279.924504 
L 205.44768 -279.925991 
L 204.73344 -279.927295 
L 204.0192 -279.928438 
L 203.30496 -279.929441 
L 202.59072 -279.930321 
L 201.87648 -279.931093 
L 201.16224 -279.93177 
L 200.448 -279.932363 
L 199.73376 -279.932884 
L 199.01952 -279.933341 
L 198.30528 -279.933741 
L 197.59104 -279.934093 
L 196.8768 -279.934401 
L 196.16256 -279.934671 
L 195.44832 -279.934908 
L 194.73408 -279.935116 
L 194.01984 -279.935298 
L 193.3056 -279.935458 
L 192.59136 -279.935598 
L 191.87712 -279.935721 
L 191.16288 -279.935829 
L 190.44864 -279.935924 
L 189.7344 -279.936007 
L 189.02016 -279.936079 
L 188.30592 -279.936143 
L 187.59168 -279.936199 
L 186.87744 -279.936248 
L 186.1632 -279.936291 
L 185.44896 -279.936329 
L 184.73472 -279.936362 
L 184.02048 -279.936391 
L 183.30624 -279.936417 
L 182.592 -279.936439 
L 181.87776 -279.936458 
L 181.16352 -279.936476 
L 180.44928 -279.936491 
L 179.73504 -279.936504 
L 179.0208 -279.936515 
L 178.30656 -279.936525 
L 177.59232 -279.936534 
L 176.87808 -279.936542 
L 176.16384 -279.936549 
L 175.4496 -279.936555 
L 174.73536 -279.93656 
L 174.02112 -279.936565 
L 173.30688 -279.936569 
L 172.59264 -279.936572 
L 171.8784 -279.936576 
L 171.16416 -279.936578 
L 170.44992 -279.936581 
L 169.73568 -279.936583 
L 169.02144 -279.936585 
L 168.3072 -279.936586 
L 167.59296 -279.936588 
L 166.87872 -279.936589 
L 166.16448 -279.93659 
L 165.45024 -279.936591 
L 164.736 -279.936592 
L 164.02176 -279.936592 
L 163.30752 -279.936593 
L 162.59328 -279.936594 
L 161.87904 -279.936594 
L 161.1648 -279.936595 
L 160.45056 -279.936595 
L 159.73632 -279.936595 
L 159.02208 -279.936596 
L 158.30784 -279.936596 
L 157.5936 -279.936596 
L 156.87936 -279.936596 
L 156.16512 -279.936596 
L 155.45088 -279.936597 
L 154.73664 -279.936597 
L 154.0224 -279.936597 
L 153.30816 -279.936597 
L 152.59392 -279.936597 
L 151.87968 -279.936597 
L 151.16544 -279.936597 
L 150.4512 -279.936597 
L 149.73696 -279.936597 
L 149.02272 -279.936597 
L 148.30848 -279.936597 
L 147.59424 -279.936597 
L 146.88 -279.936597 
L 146.16576 -279.936597 
L 145.45152 -279.936597 
L 144.73728 -279.936598 
L 144.02304 -279.936598 
L 143.3088 -279.936598 
L 142.59456 -279.936598 
L 141.88032 -279.936598 
L 141.16608 -279.936598 
L 140.45184 -279.936598 
L 139.7376 -279.936598 
L 139.02336 -279.936598 
L 138.30912 -279.936598 
L 137.59488 -279.936598 
L 136.88064 -279.936598 
L 136.1664 -279.936598 
L 135.45216 -279.936598 
L 134.73792 -279.936598 
L 134.02368 -279.936598 
L 133.30944 -279.936598 
L 132.5952 -279.936598 
L 131.88096 -279.936598 
L 131.16672 -279.936598 
L 130.45248 -279.936598 
L 129.73824 -279.936598 
L 129.024 -279.936598 
L 128.30976 -279.936598 
L 127.59552 -279.936598 
L 126.88128 -279.936598 
L 126.16704 -279.936598 
L 125.4528 -279.936598 
L 124.73856 -279.936598 
L 124.02432 -279.936598 
L 123.31008 -279.936598 
L 122.59584 -279.936598 
L 121.8816 -279.936598 
L 121.16736 -279.936598 
L 120.45312 -279.936598 
L 119.73888 -279.936598 
L 119.02464 -279.936598 
L 118.3104 -279.936598 
L 117.59616 -279.936598 
L 116.88192 -279.936598 
L 116.16768 -279.936598 
L 115.45344 -279.936598 
L 114.7392 -279.936598 
L 114.02496 -279.936598 
L 113.31072 -279.936598 
L 112.59648 -279.936598 
L 111.88224 -279.936598 
L 111.168 -279.936598 
L 110.45376 -279.936598 
L 109.73952 -279.936598 
L 109.02528 -279.936598 
L 108.31104 -279.936598 
L 107.5968 -279.936598 
L 106.88256 -279.936598 
L 106.16832 -279.936598 
L 105.45408 -279.936598 
L 104.73984 -279.936598 
L 104.0256 -279.936598 
L 103.31136 -279.936598 
L 102.59712 -279.936598 
L 101.88288 -279.936598 
L 101.16864 -279.936598 
L 100.4544 -279.936598 
L 99.74016 -279.936598 
L 99.02592 -279.936598 
L 98.31168 -279.936598 
L 97.59744 -279.936598 
L 96.8832 -279.936598 
L 96.16896 -279.936598 
L 95.45472 -279.936598 
L 94.74048 -279.936598 
L 94.02624 -279.936598 
L 93.312 -279.936598 
L 92.59776 -279.936598 
L 91.88352 -279.936598 
L 91.16928 -279.936598 
L 90.45504 -279.936598 
L 89.7408 -279.936598 
L 89.02656 -279.936598 
L 88.31232 -279.936598 
L 87.59808 -279.936598 
L 86.88384 -279.936598 
L 86.1696 -279.936598 
L 85.45536 -279.936598 
L 84.74112 -279.936598 
L 84.02688 -279.936598 
L 83.31264 -279.936598 
L 82.5984 -279.936598 
L 81.88416 -279.936598 
L 81.16992 -279.936598 
L 80.45568 -279.936598 
L 79.74144 -279.936598 
L 79.0272 -279.936598 
L 78.31296 -279.936598 
L 77.59872 -279.936598 
L 76.88448 -279.936598 
L 76.17024 -279.936598 
L 75.456 -279.936598 
L 74.74176 -279.936598 
L 74.02752 -279.936598 
L 73.31328 -279.936598 
L 72.59904 -279.936598 
L 71.8848 -279.936598 
L 71.17056 -279.936598 
L 70.45632 -279.936598 
L 69.74208 -279.936598 
L 69.02784 -279.936598 
L 68.3136 -279.936598 
L 67.59936 -279.936598 
L 66.88512 -279.936598 
L 66.17088 -279.936598 
L 65.45664 -279.936598 
L 64.7424 -279.936598 
L 64.02816 -279.936598 
L 63.31392 -279.936598 
L 62.59968 -279.936598 
L 61.88544 -279.936598 
L 61.1712 -279.936598 
L 60.45696 -279.936598 
L 59.74272 -279.936598 
L 59.02848 -279.936598 
L 58.31424 -279.936598 
L 57.6 -279.936598 
z
" id="md15f984b1e" style="stroke:#afe88e;"/>
    </defs>
    <g clip-path="url(#p958f99f232)">
     <use style="fill:#afe88e;stroke:#afe88e;" x="0" xlink:href="#md15f984b1e" y="345.6"/>
    </g>
   </g>
   <g id="line2d_1">
    <path clip-path="url(#p958f99f232)" d="M 57.6 65.663402 
L 217.58976 65.761877 
L 224.01792 65.98327 
L 227.58912 66.27828 
L 230.44608 66.699582 
L 232.5888 67.194643 
L 234.73152 67.923721 
L 236.16 68.591261 
L 237.58848 69.452508 
L 239.01696 70.561406 
L 240.44544 71.985443 
L 241.87392 73.808078 
L 243.3024 76.13097 
L 244.73088 79.075462 
L 246.15936 82.782495 
L 247.58784 87.409723 
L 249.01632 93.124295 
L 250.4448 100.089631 
L 251.87328 108.445033 
L 253.30176 118.278454 
L 254.73024 129.595553 
L 256.87296 149.090045 
L 259.72992 178.270889 
L 263.30112 215.052513 
L 265.44384 234.781269 
L 266.87232 246.390642 
L 268.3008 256.638642 
L 269.72928 265.521838 
L 271.15776 273.10438 
L 272.58624 279.49372 
L 274.01472 284.81999 
L 275.4432 289.220471 
L 276.87168 292.829036 
L 278.30016 295.769764 
L 279.72864 298.153661 
L 281.15712 300.077518 
L 282.5856 301.624127 
L 284.01408 302.863272 
L 285.44256 303.853108 
L 286.87104 304.641658 
L 289.01376 305.531181 
L 291.15648 306.158157 
L 294.01344 306.712882 
L 297.58464 307.118571 
L 301.87008 307.36814 
L 309.01248 307.526383 
L 324.72576 307.581385 
L 414.72 307.584 
L 414.72 307.584 
" style="fill:none;stroke:#000000;stroke-linecap:square;stroke-width:0.7;"/>
   </g>
   <g id="patch_3">
    <path d="M 57.6 307.584 
L 57.6 41.472 
" style="fill:none;stroke:#000000;stroke-linecap:square;stroke-linejoin:miter;stroke-width:0.8;"/>
   </g>
   <g id="patch_4">
    <path d="M 414.72 307.584 
L 414.72 41.472 
" style="fill:none;stroke:#000000;stroke-linecap:square;stroke-linejoin:miter;stroke-width:0.8;"/>
   </g>
   <g id="patch_5">
    <path d="M 57.6 307.584 
L 414.72 307.584 
" style="fill:none;stroke:#000000;stroke-linecap:square;stroke-linejoin:miter;stroke-width:0.8;"/>
   </g>
   <g id="patch_6">
    <path d="M 57.6 41.472 
L 414.72 41.472 
" style="fill:none;stroke:#000000;stroke-linecap:square;stroke-linejoin:miter;stroke-width:0.8;"/>
   </g>
   <g id="legend_1">
    <g id="patch_7">
     <path d="M 91.90611 34.09119 
L 246.68736 34.09119 
Q 249.08736 34.09119 249.08736 31.69119 
L 249.08736 15.27744 
Q 249.08736 12.87744 246.68736 12.87744 
L 91.90611 12.87744 
Q 89.50611 12.87744 89.50611 15.27744 
L 89.50611 31.69119 
Q 89.50611 34.09119 91.90611 34.09119 
z
" style="fill:#ffffff;opacity:0.8;stroke:#cccccc;stroke-linejoin:miter;"/>
    </g>
    <g id="patch_8">
     <path d="M 94.30611 26.795565 
L 118.30611 26.795565 
L 118.30611 18.395565 
L 94.30611 18.395565 
z
" style="fill:#509369;stroke:#509369;stroke-linejoin:miter;"/>
    </g>
    <g id="text_1">
     <!-- back -->
     <g transform="translate(127.90611 26.795565)scale(0.12 -0.12)">
      <defs>
       <path d="M 11.53125 5.171875 
L 11.53125 70.796875 
L 2.875 70.796875 
L 2.875 75.984375 
L 20.515625 75.984375 
L 20.515625 43.796875 
Q 23.140625 48.6875 27.21875 51 
Q 31.296875 53.328125 37.3125 53.328125 
Q 46.875 53.328125 52.921875 45.75 
Q 58.984375 38.1875 58.984375 25.984375 
Q 58.984375 13.765625 52.921875 6.171875 
Q 46.875 -1.421875 37.3125 -1.421875 
Q 31.296875 -1.421875 27.21875 0.890625 
Q 23.140625 3.21875 20.515625 8.109375 
L 20.515625 0 
L 2.875 0 
L 2.875 5.171875 
z
M 20.515625 23.390625 
Q 20.515625 14.015625 24.09375 9.109375 
Q 27.6875 4.203125 34.515625 4.203125 
Q 41.40625 4.203125 44.9375 9.71875 
Q 48.484375 15.234375 48.484375 25.984375 
Q 48.484375 36.765625 44.9375 42.234375 
Q 41.40625 47.703125 34.515625 47.703125 
Q 27.6875 47.703125 24.09375 42.765625 
Q 20.515625 37.84375 20.515625 28.515625 
z
" id="DejaVuSerif-98"/>
       <path d="M 39.796875 16.3125 
L 39.796875 27.296875 
L 28.21875 27.296875 
Q 21.53125 27.296875 18.25 24.40625 
Q 14.984375 21.53125 14.984375 15.578125 
Q 14.984375 10.15625 18.296875 6.984375 
Q 21.625 3.8125 27.296875 3.8125 
Q 32.90625 3.8125 36.34375 7.28125 
Q 39.796875 10.75 39.796875 16.3125 
z
M 48.78125 32.421875 
L 48.78125 5.171875 
L 56.78125 5.171875 
L 56.78125 0 
L 39.796875 0 
L 39.796875 5.609375 
Q 36.8125 2 32.90625 0.28125 
Q 29 -1.421875 23.78125 -1.421875 
Q 15.140625 -1.421875 10.0625 3.171875 
Q 4.984375 7.765625 4.984375 15.578125 
Q 4.984375 23.640625 10.796875 28.078125 
Q 16.609375 32.515625 27.203125 32.515625 
L 39.796875 32.515625 
L 39.796875 36.078125 
Q 39.796875 42 36.203125 45.234375 
Q 32.625 48.484375 26.125 48.484375 
Q 20.75 48.484375 17.578125 46.046875 
Q 14.40625 43.609375 13.625 38.8125 
L 8.984375 38.8125 
L 8.984375 49.3125 
Q 13.671875 51.3125 18.09375 52.3125 
Q 22.515625 53.328125 26.703125 53.328125 
Q 37.5 53.328125 43.140625 47.96875 
Q 48.78125 42.625 48.78125 32.421875 
z
" id="DejaVuSerif-97"/>
       <path d="M 51.421875 15.578125 
Q 49.515625 7.28125 44.09375 2.921875 
Q 38.671875 -1.421875 30.078125 -1.421875 
Q 18.75 -1.421875 11.859375 6.078125 
Q 4.984375 13.578125 4.984375 25.984375 
Q 4.984375 38.421875 11.859375 45.875 
Q 18.75 53.328125 30.078125 53.328125 
Q 35.015625 53.328125 39.890625 52.171875 
Q 44.78125 51.03125 49.703125 48.6875 
L 49.703125 35.40625 
L 44.484375 35.40625 
Q 43.453125 42.234375 40.015625 45.359375 
Q 36.578125 48.484375 30.171875 48.484375 
Q 22.90625 48.484375 19.1875 42.84375 
Q 15.484375 37.203125 15.484375 25.984375 
Q 15.484375 14.75 19.171875 9.078125 
Q 22.859375 3.421875 30.171875 3.421875 
Q 35.984375 3.421875 39.453125 6.4375 
Q 42.921875 9.46875 44.1875 15.578125 
z
" id="DejaVuSerif-99"/>
       <path d="M 28.609375 0 
L 3.421875 0 
L 3.421875 5.171875 
L 11.53125 5.171875 
L 11.53125 70.796875 
L 2.875 70.796875 
L 2.875 75.984375 
L 20.515625 75.984375 
L 20.515625 26.515625 
L 42.390625 46.6875 
L 34.90625 46.6875 
L 34.90625 51.90625 
L 58.40625 51.90625 
L 58.40625 46.6875 
L 49.515625 46.6875 
L 34.078125 32.421875 
L 53.8125 5.171875 
L 61.28125 5.171875 
L 61.28125 0 
L 35.6875 0 
L 35.6875 5.171875 
L 43.109375 5.171875 
L 27.59375 26.515625 
L 20.515625 19.921875 
L 20.515625 5.171875 
L 28.609375 5.171875 
z
" id="DejaVuSerif-107"/>
      </defs>
      <use xlink:href="#DejaVuSerif-98"/>
      <use x="64.013672" xlink:href="#DejaVuSerif-97"/>
      <use x="123.632812" xlink:href="#DejaVuSerif-99"/>
      <use x="179.638672" xlink:href="#DejaVuSerif-107"/>
     </g>
    </g>
    <g id="patch_9">
     <path d="M 180.734235 26.795565 
L 204.734235 26.795565 
L 204.734235 18.395565 
L 180.734235 18.395565 
z
" style="fill:#afe88e;stroke:#afe88e;stroke-linejoin:miter;"/>
    </g>
    <g id="text_2">
     <!-- front -->
     <g transform="translate(214.334235 26.795565)scale(0.12 -0.12)">
      <defs>
       <path d="M 43.015625 63.71875 
L 38.28125 63.71875 
Q 38.234375 67.390625 36.203125 69.28125 
Q 34.1875 71.1875 30.328125 71.1875 
Q 25.296875 71.1875 23.234375 68.421875 
Q 21.1875 65.671875 21.1875 58.59375 
L 21.1875 51.90625 
L 35.6875 51.90625 
L 35.6875 46.6875 
L 21.1875 46.6875 
L 21.1875 5.171875 
L 32.71875 5.171875 
L 32.71875 0 
L 3.609375 0 
L 3.609375 5.171875 
L 12.203125 5.171875 
L 12.203125 46.6875 
L 3.609375 46.6875 
L 3.609375 51.90625 
L 12.203125 51.90625 
L 12.203125 58.40625 
Q 12.203125 67.09375 16.71875 71.53125 
Q 21.234375 75.984375 29.984375 75.984375 
Q 33.25 75.984375 36.515625 75.390625 
Q 39.796875 74.8125 43.015625 73.578125 
z
" id="DejaVuSerif-102"/>
       <path d="M 47.796875 52 
L 47.796875 39.015625 
L 42.625 39.015625 
Q 42.390625 42.875 40.484375 44.78125 
Q 38.578125 46.6875 34.90625 46.6875 
Q 28.265625 46.6875 24.71875 42.09375 
Q 21.1875 37.5 21.1875 28.90625 
L 21.1875 5.171875 
L 31.59375 5.171875 
L 31.59375 0 
L 4.109375 0 
L 4.109375 5.171875 
L 12.203125 5.171875 
L 12.203125 46.78125 
L 3.609375 46.78125 
L 3.609375 51.90625 
L 21.1875 51.90625 
L 21.1875 42.671875 
Q 23.828125 48.09375 27.96875 50.703125 
Q 32.125 53.328125 38.09375 53.328125 
Q 40.28125 53.328125 42.703125 52.984375 
Q 45.125 52.640625 47.796875 52 
z
" id="DejaVuSerif-114"/>
       <path d="M 30.078125 3.421875 
Q 37.3125 3.421875 40.984375 9.125 
Q 44.671875 14.84375 44.671875 25.984375 
Q 44.671875 37.109375 40.984375 42.796875 
Q 37.3125 48.484375 30.078125 48.484375 
Q 22.859375 48.484375 19.171875 42.796875 
Q 15.484375 37.109375 15.484375 25.984375 
Q 15.484375 14.84375 19.1875 9.125 
Q 22.90625 3.421875 30.078125 3.421875 
z
M 30.078125 -1.421875 
Q 18.75 -1.421875 11.859375 6.078125 
Q 4.984375 13.578125 4.984375 25.984375 
Q 4.984375 38.375 11.84375 45.84375 
Q 18.703125 53.328125 30.078125 53.328125 
Q 41.453125 53.328125 48.3125 45.84375 
Q 55.171875 38.375 55.171875 25.984375 
Q 55.171875 13.578125 48.3125 6.078125 
Q 41.453125 -1.421875 30.078125 -1.421875 
z
" id="DejaVuSerif-111"/>
       <path d="M 4.109375 0 
L 4.109375 5.171875 
L 12.203125 5.171875 
L 12.203125 46.6875 
L 3.609375 46.6875 
L 3.609375 51.90625 
L 21.1875 51.90625 
L 21.1875 42.671875 
Q 23.6875 47.953125 27.65625 50.640625 
Q 31.640625 53.328125 36.921875 53.328125 
Q 45.515625 53.328125 49.5625 48.390625 
Q 53.609375 43.453125 53.609375 33.015625 
L 53.609375 5.171875 
L 61.625 5.171875 
L 61.625 0 
L 36.8125 0 
L 36.8125 5.171875 
L 44.578125 5.171875 
L 44.578125 30.171875 
Q 44.578125 39.703125 42.234375 43.234375 
Q 39.890625 46.78125 33.984375 46.78125 
Q 27.734375 46.78125 24.453125 42.203125 
Q 21.1875 37.640625 21.1875 28.90625 
L 21.1875 5.171875 
L 29 5.171875 
L 29 0 
z
" id="DejaVuSerif-110"/>
       <path d="M 10.796875 46.6875 
L 2.875 46.6875 
L 2.875 51.90625 
L 10.796875 51.90625 
L 10.796875 68.015625 
L 19.828125 68.015625 
L 19.828125 51.90625 
L 36.71875 51.90625 
L 36.71875 46.6875 
L 19.828125 46.6875 
L 19.828125 13.71875 
Q 19.828125 7.125 21.09375 5.265625 
Q 22.359375 3.421875 25.78125 3.421875 
Q 29.296875 3.421875 30.90625 5.484375 
Q 32.515625 7.5625 32.625 12.203125 
L 39.40625 12.203125 
Q 39.015625 5.125 35.546875 1.84375 
Q 32.078125 -1.421875 25 -1.421875 
Q 17.234375 -1.421875 14.015625 2.015625 
Q 10.796875 5.46875 10.796875 13.71875 
z
" id="DejaVuSerif-116"/>
      </defs>
      <use xlink:href="#DejaVuSerif-102"/>
      <use x="37.011719" xlink:href="#DejaVuSerif-114"/>
      <use x="84.814453" xlink:href="#DejaVuSerif-111"/>
      <use x="145.019531" xlink:href="#DejaVuSerif-110"/>
      <use x="209.423828" xlink:href="#DejaVuSerif-116"/>
     </g>
    </g>
   </g>
  </g>
 </g>
 <defs>
  <clipPath id="p958f99f232">
   <rect height="266.112" width="357.12" x="57.6" y="41.472"/>
  </clipPath>
 </defs>
</svg>
