<?xml version="1.0" encoding="utf-8" standalone="no"?>
<!DOCTYPE svg PUBLIC "-//W3C//DTD SVG 1.1//EN"
  "http://www.w3.org/Graphics/SVG/1.1/DTD/svg11.dtd">
<!-- Created with matplotlib (https://matplotlib.org/) -->
<svg height="345.6pt" version="1.1" viewBox="0 0 460.8 345.6" width="460.8pt" xmlns="http://www.w3.org/2000/svg" xmlns:xlink="http://www.w3.org/1999/xlink">
 <metadata>
  <rdf:RDF xmlns:cc="http://creativecommons.org/ns#" xmlns:dc="http://purl.org/dc/elements/1.1/" xmlns:rdf="http://www.w3.org/1999/02/22-rdf-syntax-ns#">
   <cc:Work>
    <dc:type rdf:resource="http://purl.org/dc/dcmitype/StillImage"/>
    <dc:date>2022-05-25T01:06:03.035922</dc:date>
    <dc:format>image/svg+xml</dc:format>
    <dc:creator>
     <cc:Agent>
      <dc:title>Matplotlib v3.3.4, https://matplotlib.org/</dc:title>
     </cc:Agent>
    </dc:creator>
   </cc:Work>
  </rdf:RDF>
 </metadata>
 <defs>
  <style type="text/css">*{stroke-linecap:butt;stroke-linejoin:round;}</style>
 </defs>
 <g id="figure_1">
  <g id="patch_1">
   <path d="M 0 345.6 
L 460.8 345.6 
L 460.8 0 
L 0 0 
z
" style="fill:#ffffff;"/>
  </g>
  <g id="axes_1">
   <g id="patch_2">
    <path d="M 57.6 307.584 
L 414.72 307.584 
L 414.72 41.472 
L 57.6 41.472 
z
" style="fill:#ffffff;"/>
   </g>
   <g id="PolyCollection_1">
    <defs>
     <path d="M 57.6 -38.016 
L 57.6 -279.936 
L 58.31424 -279.936 
L 59.02848 -279.936 
L 59.74272 -279.936 
L 60.45696 -279.936 
L 61.1712 -279.936 
L 61.88544 -279.936 
L 62.59968 -279.936 
L 63.31392 -279.936 
L 64.02816 -279.936 
L 64.7424 -279.936 
L 65.45664 -279.936 
L 66.17088 -279.936 
L 66.88512 -279.936 
L 67.59936 -279.936 
L 68.3136 -279.936 
L 69.02784 -279.936 
L 69.74208 -279.936 
L 70.45632 -279.936 
L 71.17056 -279.935999 
L 71.8848 -279.935999 
L 72.59904 -279.935999 
L 73.31328 -279.935999 
L 74.02752 -279.935999 
L 74.74176 -279.935998 
L 75.456 -279.935998 
L 76.17024 -279.935998 
L 76.88448 -279.935997 
L 77.59872 -279.935996 
L 78.31296 -279.935996 
L 79.0272 -279.935995 
L 79.74144 -279.935994 
L 80.45568 -279.935992 
L 81.16992 -279.93599 
L 81.88416 -279.935988 
L 82.5984 -279.935986 
L 83.31264 -279.935983 
L 84.02688 -279.935979 
L 84.74112 -279.935975 
L 85.45536 -279.93597 
L 86.1696 -279.935964 
L 86.88384 -279.935956 
L 87.59808 -279.935948 
L 88.31232 -279.935937 
L 89.02656 -279.935925 
L 89.7408 -279.93591 
L 90.45504 -279.935893 
L 91.16928 -279.935872 
L 91.88352 -279.935847 
L 92.59776 -279.935819 
L 93.312 -279.935784 
L 94.02624 -279.935744 
L 94.74048 -279.935697 
L 95.45472 -279.935642 
L 96.16896 -279.935577 
L 96.8832 -279.9355 
L 97.59744 -279.935411 
L 98.31168 -279.935307 
L 99.02592 -279.935186 
L 99.74016 -279.935045 
L 100.4544 -279.93488 
L 101.16864 -279.934689 
L 101.88288 -279.934468 
L 102.59712 -279.934212 
L 103.31136 -279.933916 
L 104.0256 -279.933573 
L 104.73984 -279.933179 
L 105.45408 -279.932724 
L 106.16832 -279.932202 
L 106.88256 -279.931602 
L 107.5968 -279.930914 
L 108.31104 -279.930126 
L 109.02528 -279.929225 
L 109.73952 -279.928196 
L 110.45376 -279.927023 
L 111.168 -279.925688 
L 111.88224 -279.92417 
L 112.59648 -279.922446 
L 113.31072 -279.920491 
L 114.02496 -279.918278 
L 114.7392 -279.915776 
L 115.45344 -279.912951 
L 116.16768 -279.909767 
L 116.88192 -279.906181 
L 117.59616 -279.90215 
L 118.3104 -279.897624 
L 119.02464 -279.892551 
L 119.73888 -279.886871 
L 120.45312 -279.880521 
L 121.16736 -279.873433 
L 121.8816 -279.865531 
L 122.59584 -279.856734 
L 123.31008 -279.846955 
L 124.02432 -279.836099 
L 124.73856 -279.824066 
L 125.4528 -279.810745 
L 126.16704 -279.796019 
L 126.88128 -279.779765 
L 127.59552 -279.761848 
L 128.30976 -279.742125 
L 129.024 -279.720445 
L 129.73824 -279.696648 
L 130.45248 -279.670563 
L 131.16672 -279.642011 
L 131.88096 -279.610802 
L 132.5952 -279.576736 
L 133.30944 -279.539604 
L 134.02368 -279.499186 
L 134.73792 -279.455255 
L 135.45216 -279.40757 
L 136.1664 -279.355883 
L 136.88064 -279.299937 
L 137.59488 -279.239466 
L 138.30912 -279.174194 
L 139.02336 -279.103838 
L 139.7376 -279.028108 
L 140.45184 -278.946707 
L 141.16608 -278.859331 
L 141.88032 -278.765673 
L 142.59456 -278.665419 
L 143.3088 -278.558254 
L 144.02304 -278.443859 
L 144.73728 -278.321915 
L 145.45152 -278.192104 
L 146.16576 -278.054107 
L 146.88 -277.907611 
L 147.59424 -277.752305 
L 148.30848 -277.587884 
L 149.02272 -277.414051 
L 149.73696 -277.230517 
L 150.4512 -277.037005 
L 151.16544 -276.833248 
L 151.87968 -276.618993 
L 152.59392 -276.394003 
L 153.30816 -276.158056 
L 154.0224 -275.91095 
L 154.73664 -275.652501 
L 155.45088 -275.382545 
L 156.16512 -275.100941 
L 156.87936 -274.807571 
L 157.5936 -274.50234 
L 158.30784 -274.185178 
L 159.02208 -273.856041 
L 159.73632 -273.514908 
L 160.45056 -273.161787 
L 161.1648 -272.796709 
L 161.87904 -272.419731 
L 162.59328 -272.030935 
L 163.30752 -271.630425 
L 164.02176 -271.218329 
L 164.736 -270.794794 
L 165.45024 -270.359986 
L 166.16448 -269.914087 
L 166.87872 -269.457289 
L 167.59296 -268.989796 
L 168.3072 -268.511817 
L 169.02144 -268.023558 
L 169.73568 -267.525224 
L 170.44992 -267.017007 
L 171.16416 -266.49908 
L 171.8784 -265.971592 
L 172.59264 -265.434657 
L 173.30688 -264.888348 
L 174.02112 -264.33268 
L 174.73536 -263.767605 
L 175.4496 -263.192994 
L 176.16384 -262.608626 
L 176.87808 -262.014169 
L 177.59232 -261.409164 
L 178.30656 -260.793002 
L 179.0208 -260.164906 
L 179.73504 -259.523904 
L 180.44928 -258.868801 
L 181.16352 -258.19815 
L 181.87776 -257.510218 
L 182.592 -256.80295 
L 183.30624 -256.073927 
L 184.02048 -255.320324 
L 184.73472 -254.538858 
L 185.44896 -253.725739 
L 186.1632 -252.876611 
L 186.87744 -251.986491 
L 187.59168 -251.049705 
L 188.30592 -250.059822 
L 189.02016 -249.009584 
L 189.7344 -247.890834 
L 190.44864 -246.694455 
L 191.16288 -245.410301 
L 191.87712 -244.027144 
L 192.59136 -242.532639 
L 193.3056 -240.913298 
L 194.01984 -239.154502 
L 194.73408 -237.240542 
L 195.44832 -235.154711 
L 196.16256 -232.879459 
L 196.8768 -230.396609 
L 197.59104 -227.687672 
L 198.30528 -224.734245 
L 199.01952 -221.518522 
L 199.73376 -218.023915 
L 200.448 -214.235782 
L 201.16224 -210.142245 
L 201.87648 -205.735082 
L 202.59072 -201.010645 
L 203.30496 -195.970754 
L 204.0192 -190.623488 
L 204.73344 -184.983809 
L 205.44768 -179.073921 
L 206.16192 -172.923308 
L 206.87616 -166.568384 
L 207.5904 -160.051745 
L 208.30464 -153.421029 
L 209.01888 -146.727456 
L 209.73312 -140.024135 
L 210.44736 -133.364258 
L 211.1616 -126.799335 
L 211.87584 -120.377564 
L 212.59008 -114.142476 
L 213.30432 -108.131898 
L 214.01856 -102.377283 
L 214.7328 -96.903402 
L 215.44704 -91.72836 
L 216.16128 -86.863894 
L 216.87552 -82.31587 
L 217.58976 -78.084936 
L 218.304 -74.167248 
L 219.01824 -70.555227 
L 219.73248 -67.238306 
L 220.44672 -64.203623 
L 221.16096 -61.436663 
L 221.8752 -58.921808 
L 222.58944 -56.642818 
L 223.30368 -54.583227 
L 224.01792 -52.726665 
L 224.73216 -51.057114 
L 225.4464 -49.559095 
L 226.16064 -48.217816 
L 226.87488 -47.019266 
L 227.58912 -45.950276 
L 228.30336 -44.998553 
L 229.0176 -44.152686 
L 229.73184 -43.402138 
L 230.44608 -42.737224 
L 231.16032 -42.149077 
L 231.87456 -41.629607 
L 232.5888 -41.171459 
L 233.30304 -40.767968 
L 234.01728 -40.413104 
L 234.73152 -40.101434 
L 235.44576 -39.828066 
L 236.16 -39.588613 
L 236.87424 -39.379142 
L 237.58848 -39.196137 
L 238.30272 -39.036462 
L 239.01696 -38.89732 
L 239.7312 -38.776227 
L 240.44544 -38.670975 
L 241.15968 -38.57961 
L 241.87392 -38.500399 
L 242.58816 -38.431813 
L 243.3024 -38.372502 
L 244.01664 -38.321277 
L 244.73088 -38.277092 
L 245.44512 -38.239028 
L 246.15936 -38.206278 
L 246.8736 -38.178137 
L 247.58784 -38.153986 
L 248.30208 -38.133288 
L 249.01632 -38.11557 
L 249.73056 -38.100423 
L 250.4448 -38.087491 
L 251.15904 -38.076465 
L 251.87328 -38.067074 
L 252.58752 -38.059088 
L 253.30176 -38.052305 
L 254.016 -38.046551 
L 254.73024 -38.041677 
L 255.44448 -38.037552 
L 256.15872 -38.034068 
L 256.87296 -38.031127 
L 257.5872 -38.028649 
L 258.30144 -38.026563 
L 259.01568 -38.02481 
L 259.72992 -38.023339 
L 260.44416 -38.022105 
L 261.1584 -38.021072 
L 261.87264 -38.020209 
L 262.58688 -38.019488 
L 263.30112 -38.018887 
L 264.01536 -38.018386 
L 264.7296 -38.01797 
L 265.44384 -38.017624 
L 266.15808 -38.017337 
L 266.87232 -38.017099 
L 267.58656 -38.016903 
L 268.3008 -38.01674 
L 269.01504 -38.016607 
L 269.72928 -38.016496 
L 270.44352 -38.016405 
L 271.15776 -38.016331 
L 271.872 -38.016269 
L 272.58624 -38.016219 
L 273.30048 -38.016178 
L 274.01472 -38.016145 
L 274.72896 -38.016117 
L 275.4432 -38.016095 
L 276.15744 -38.016077 
L 276.87168 -38.016062 
L 277.58592 -38.01605 
L 278.30016 -38.01604 
L 279.0144 -38.016032 
L 279.72864 -38.016026 
L 280.44288 -38.016021 
L 281.15712 -38.016017 
L 281.87136 -38.016013 
L 282.5856 -38.016011 
L 283.29984 -38.016009 
L 284.01408 -38.016007 
L 284.72832 -38.016005 
L 285.44256 -38.016004 
L 286.1568 -38.016003 
L 286.87104 -38.016003 
L 287.58528 -38.016002 
L 288.29952 -38.016002 
L 289.01376 -38.016001 
L 289.728 -38.016001 
L 290.44224 -38.016001 
L 291.15648 -38.016001 
L 291.87072 -38.016001 
L 292.58496 -38.016 
L 293.2992 -38.016 
L 294.01344 -38.016 
L 294.72768 -38.016 
L 295.44192 -38.016 
L 296.15616 -38.016 
L 296.8704 -38.016 
L 297.58464 -38.016 
L 298.29888 -38.016 
L 299.01312 -38.016 
L 299.72736 -38.016 
L 300.4416 -38.016 
L 301.15584 -38.016 
L 301.87008 -38.016 
L 302.58432 -38.016 
L 303.29856 -38.016 
L 304.0128 -38.016 
L 304.72704 -38.016 
L 305.44128 -38.016 
L 306.15552 -38.016 
L 306.86976 -38.016 
L 307.584 -38.016 
L 308.29824 -38.016 
L 309.01248 -38.016 
L 309.72672 -38.016 
L 310.44096 -38.016 
L 311.1552 -38.016 
L 311.86944 -38.016 
L 312.58368 -38.016 
L 313.29792 -38.016 
L 314.01216 -38.016 
L 314.7264 -38.016 
L 315.44064 -38.016 
L 316.15488 -38.016 
L 316.86912 -38.016 
L 317.58336 -38.016 
L 318.2976 -38.016 
L 319.01184 -38.016 
L 319.72608 -38.016 
L 320.44032 -38.016 
L 321.15456 -38.016 
L 321.8688 -38.016 
L 322.58304 -38.016 
L 323.29728 -38.016 
L 324.01152 -38.016 
L 324.72576 -38.016 
L 325.44 -38.016 
L 326.15424 -38.016 
L 326.86848 -38.016 
L 327.58272 -38.016 
L 328.29696 -38.016 
L 329.0112 -38.016 
L 329.72544 -38.016 
L 330.43968 -38.016 
L 331.15392 -38.016 
L 331.86816 -38.016 
L 332.5824 -38.016 
L 333.29664 -38.016 
L 334.01088 -38.016 
L 334.72512 -38.016 
L 335.43936 -38.016 
L 336.1536 -38.016 
L 336.86784 -38.016 
L 337.58208 -38.016 
L 338.29632 -38.016 
L 339.01056 -38.016 
L 339.7248 -38.016 
L 340.43904 -38.016 
L 341.15328 -38.016 
L 341.86752 -38.016 
L 342.58176 -38.016 
L 343.296 -38.016 
L 344.01024 -38.016 
L 344.72448 -38.016 
L 345.43872 -38.016 
L 346.15296 -38.016 
L 346.8672 -38.016 
L 347.58144 -38.016 
L 348.29568 -38.016 
L 349.00992 -38.016 
L 349.72416 -38.016 
L 350.4384 -38.016 
L 351.15264 -38.016 
L 351.86688 -38.016 
L 352.58112 -38.016 
L 353.29536 -38.016 
L 354.0096 -38.016 
L 354.72384 -38.016 
L 355.43808 -38.016 
L 356.15232 -38.016 
L 356.86656 -38.016 
L 357.5808 -38.016 
L 358.29504 -38.016 
L 359.00928 -38.016 
L 359.72352 -38.016 
L 360.43776 -38.016 
L 361.152 -38.016 
L 361.86624 -38.016 
L 362.58048 -38.016 
L 363.29472 -38.016 
L 364.00896 -38.016 
L 364.7232 -38.016 
L 365.43744 -38.016 
L 366.15168 -38.016 
L 366.86592 -38.016 
L 367.58016 -38.016 
L 368.2944 -38.016 
L 369.00864 -38.016 
L 369.72288 -38.016 
L 370.43712 -38.016 
L 371.15136 -38.016 
L 371.8656 -38.016 
L 372.57984 -38.016 
L 373.29408 -38.016 
L 374.00832 -38.016 
L 374.72256 -38.016 
L 375.4368 -38.016 
L 376.15104 -38.016 
L 376.86528 -38.016 
L 377.57952 -38.016 
L 378.29376 -38.016 
L 379.008 -38.016 
L 379.72224 -38.016 
L 380.43648 -38.016 
L 381.15072 -38.016 
L 381.86496 -38.016 
L 382.5792 -38.016 
L 383.29344 -38.016 
L 384.00768 -38.016 
L 384.72192 -38.016 
L 385.43616 -38.016 
L 386.1504 -38.016 
L 386.86464 -38.016 
L 387.57888 -38.016 
L 388.29312 -38.016 
L 389.00736 -38.016 
L 389.7216 -38.016 
L 390.43584 -38.016 
L 391.15008 -38.016 
L 391.86432 -38.016 
L 392.57856 -38.016 
L 393.2928 -38.016 
L 394.00704 -38.016 
L 394.72128 -38.016 
L 395.43552 -38.016 
L 396.14976 -38.016 
L 396.864 -38.016 
L 397.57824 -38.016 
L 398.29248 -38.016 
L 399.00672 -38.016 
L 399.72096 -38.016 
L 400.4352 -38.016 
L 401.14944 -38.016 
L 401.86368 -38.016 
L 402.57792 -38.016 
L 403.29216 -38.016 
L 404.0064 -38.016 
L 404.72064 -38.016 
L 405.43488 -38.016 
L 406.14912 -38.016 
L 406.86336 -38.016 
L 407.5776 -38.016 
L 408.29184 -38.016 
L 409.00608 -38.016 
L 409.72032 -38.016 
L 410.43456 -38.016 
L 411.1488 -38.016 
L 411.86304 -38.016 
L 412.57728 -38.016 
L 413.29152 -38.016 
L 414.00576 -38.016 
L 414.72 -38.016 
L 414.72 -38.016 
L 414.72 -38.016 
L 414.00576 -38.016 
L 413.29152 -38.016 
L 412.57728 -38.016 
L 411.86304 -38.016 
L 411.1488 -38.016 
L 410.43456 -38.016 
L 409.72032 -38.016 
L 409.00608 -38.016 
L 408.29184 -38.016 
L 407.5776 -38.016 
L 406.86336 -38.016 
L 406.14912 -38.016 
L 405.43488 -38.016 
L 404.72064 -38.016 
L 404.0064 -38.016 
L 403.29216 -38.016 
L 402.57792 -38.016 
L 401.86368 -38.016 
L 401.14944 -38.016 
L 400.4352 -38.016 
L 399.72096 -38.016 
L 399.00672 -38.016 
L 398.29248 -38.016 
L 397.57824 -38.016 
L 396.864 -38.016 
L 396.14976 -38.016 
L 395.43552 -38.016 
L 394.72128 -38.016 
L 394.00704 -38.016 
L 393.2928 -38.016 
L 392.57856 -38.016 
L 391.86432 -38.016 
L 391.15008 -38.016 
L 390.43584 -38.016 
L 389.7216 -38.016 
L 389.00736 -38.016 
L 388.29312 -38.016 
L 387.57888 -38.016 
L 386.86464 -38.016 
L 386.1504 -38.016 
L 385.43616 -38.016 
L 384.72192 -38.016 
L 384.00768 -38.016 
L 383.29344 -38.016 
L 382.5792 -38.016 
L 381.86496 -38.016 
L 381.15072 -38.016 
L 380.43648 -38.016 
L 379.72224 -38.016 
L 379.008 -38.016 
L 378.29376 -38.016 
L 377.57952 -38.016 
L 376.86528 -38.016 
L 376.15104 -38.016 
L 375.4368 -38.016 
L 374.72256 -38.016 
L 374.00832 -38.016 
L 373.29408 -38.016 
L 372.57984 -38.016 
L 371.8656 -38.016 
L 371.15136 -38.016 
L 370.43712 -38.016 
L 369.72288 -38.016 
L 369.00864 -38.016 
L 368.2944 -38.016 
L 367.58016 -38.016 
L 366.86592 -38.016 
L 366.15168 -38.016 
L 365.43744 -38.016 
L 364.7232 -38.016 
L 364.00896 -38.016 
L 363.29472 -38.016 
L 362.58048 -38.016 
L 361.86624 -38.016 
L 361.152 -38.016 
L 360.43776 -38.016 
L 359.72352 -38.016 
L 359.00928 -38.016 
L 358.29504 -38.016 
L 357.5808 -38.016 
L 356.86656 -38.016 
L 356.15232 -38.016 
L 355.43808 -38.016 
L 354.72384 -38.016 
L 354.0096 -38.016 
L 353.29536 -38.016 
L 352.58112 -38.016 
L 351.86688 -38.016 
L 351.15264 -38.016 
L 350.4384 -38.016 
L 349.72416 -38.016 
L 349.00992 -38.016 
L 348.29568 -38.016 
L 347.58144 -38.016 
L 346.8672 -38.016 
L 346.15296 -38.016 
L 345.43872 -38.016 
L 344.72448 -38.016 
L 344.01024 -38.016 
L 343.296 -38.016 
L 342.58176 -38.016 
L 341.86752 -38.016 
L 341.15328 -38.016 
L 340.43904 -38.016 
L 339.7248 -38.016 
L 339.01056 -38.016 
L 338.29632 -38.016 
L 337.58208 -38.016 
L 336.86784 -38.016 
L 336.1536 -38.016 
L 335.43936 -38.016 
L 334.72512 -38.016 
L 334.01088 -38.016 
L 333.29664 -38.016 
L 332.5824 -38.016 
L 331.86816 -38.016 
L 331.15392 -38.016 
L 330.43968 -38.016 
L 329.72544 -38.016 
L 329.0112 -38.016 
L 328.29696 -38.016 
L 327.58272 -38.016 
L 326.86848 -38.016 
L 326.15424 -38.016 
L 325.44 -38.016 
L 324.72576 -38.016 
L 324.01152 -38.016 
L 323.29728 -38.016 
L 322.58304 -38.016 
L 321.8688 -38.016 
L 321.15456 -38.016 
L 320.44032 -38.016 
L 319.72608 -38.016 
L 319.01184 -38.016 
L 318.2976 -38.016 
L 317.58336 -38.016 
L 316.86912 -38.016 
L 316.15488 -38.016 
L 315.44064 -38.016 
L 314.7264 -38.016 
L 314.01216 -38.016 
L 313.29792 -38.016 
L 312.58368 -38.016 
L 311.86944 -38.016 
L 311.1552 -38.016 
L 310.44096 -38.016 
L 309.72672 -38.016 
L 309.01248 -38.016 
L 308.29824 -38.016 
L 307.584 -38.016 
L 306.86976 -38.016 
L 306.15552 -38.016 
L 305.44128 -38.016 
L 304.72704 -38.016 
L 304.0128 -38.016 
L 303.29856 -38.016 
L 302.58432 -38.016 
L 301.87008 -38.016 
L 301.15584 -38.016 
L 300.4416 -38.016 
L 299.72736 -38.016 
L 299.01312 -38.016 
L 298.29888 -38.016 
L 297.58464 -38.016 
L 296.8704 -38.016 
L 296.15616 -38.016 
L 295.44192 -38.016 
L 294.72768 -38.016 
L 294.01344 -38.016 
L 293.2992 -38.016 
L 292.58496 -38.016 
L 291.87072 -38.016 
L 291.15648 -38.016 
L 290.44224 -38.016 
L 289.728 -38.016 
L 289.01376 -38.016 
L 288.29952 -38.016 
L 287.58528 -38.016 
L 286.87104 -38.016 
L 286.1568 -38.016 
L 285.44256 -38.016 
L 284.72832 -38.016 
L 284.01408 -38.016 
L 283.29984 -38.016 
L 282.5856 -38.016 
L 281.87136 -38.016 
L 281.15712 -38.016 
L 280.44288 -38.016 
L 279.72864 -38.016 
L 279.0144 -38.016 
L 278.30016 -38.016 
L 277.58592 -38.016 
L 276.87168 -38.016 
L 276.15744 -38.016 
L 275.4432 -38.016 
L 274.72896 -38.016 
L 274.01472 -38.016 
L 273.30048 -38.016 
L 272.58624 -38.016 
L 271.872 -38.016 
L 271.15776 -38.016 
L 270.44352 -38.016 
L 269.72928 -38.016 
L 269.01504 -38.016 
L 268.3008 -38.016 
L 267.58656 -38.016 
L 266.87232 -38.016 
L 266.15808 -38.016 
L 265.44384 -38.016 
L 264.7296 -38.016 
L 264.01536 -38.016 
L 263.30112 -38.016 
L 262.58688 -38.016 
L 261.87264 -38.016 
L 261.1584 -38.016 
L 260.44416 -38.016 
L 259.72992 -38.016 
L 259.01568 -38.016 
L 258.30144 -38.016 
L 257.5872 -38.016 
L 256.87296 -38.016 
L 256.15872 -38.016 
L 255.44448 -38.016 
L 254.73024 -38.016 
L 254.016 -38.016 
L 253.30176 -38.016 
L 252.58752 -38.016 
L 251.87328 -38.016 
L 251.15904 -38.016 
L 250.4448 -38.016 
L 249.73056 -38.016 
L 249.01632 -38.016 
L 248.30208 -38.016 
L 247.58784 -38.016 
L 246.8736 -38.016 
L 246.15936 -38.016 
L 245.44512 -38.016 
L 244.73088 -38.016 
L 244.01664 -38.016 
L 243.3024 -38.016 
L 242.58816 -38.016 
L 241.87392 -38.016 
L 241.15968 -38.016 
L 240.44544 -38.016 
L 239.7312 -38.016 
L 239.01696 -38.016 
L 238.30272 -38.016 
L 237.58848 -38.016 
L 236.87424 -38.016 
L 236.16 -38.016 
L 235.44576 -38.016 
L 234.73152 -38.016 
L 234.01728 -38.016 
L 233.30304 -38.016 
L 232.5888 -38.016 
L 231.87456 -38.016 
L 231.16032 -38.016 
L 230.44608 -38.016 
L 229.73184 -38.016 
L 229.0176 -38.016 
L 228.30336 -38.016 
L 227.58912 -38.016 
L 226.87488 -38.016 
L 226.16064 -38.016 
L 225.4464 -38.016 
L 224.73216 -38.016 
L 224.01792 -38.016 
L 223.30368 -38.016 
L 222.58944 -38.016 
L 221.8752 -38.016 
L 221.16096 -38.016 
L 220.44672 -38.016 
L 219.73248 -38.016 
L 219.01824 -38.016 
L 218.304 -38.016 
L 217.58976 -38.016 
L 216.87552 -38.016 
L 216.16128 -38.016 
L 215.44704 -38.016 
L 214.7328 -38.016 
L 214.01856 -38.016 
L 213.30432 -38.016 
L 212.59008 -38.016 
L 211.87584 -38.016 
L 211.1616 -38.016 
L 210.44736 -38.016 
L 209.73312 -38.016 
L 209.01888 -38.016 
L 208.30464 -38.016 
L 207.5904 -38.016 
L 206.87616 -38.016 
L 206.16192 -38.016 
L 205.44768 -38.016 
L 204.73344 -38.016 
L 204.0192 -38.016 
L 203.30496 -38.016 
L 202.59072 -38.016 
L 201.87648 -38.016 
L 201.16224 -38.016 
L 200.448 -38.016 
L 199.73376 -38.016 
L 199.01952 -38.016 
L 198.30528 -38.016 
L 197.59104 -38.016 
L 196.8768 -38.016 
L 196.16256 -38.016 
L 195.44832 -38.016 
L 194.73408 -38.016 
L 194.01984 -38.016 
L 193.3056 -38.016 
L 192.59136 -38.016 
L 191.87712 -38.016 
L 191.16288 -38.016 
L 190.44864 -38.016 
L 189.7344 -38.016 
L 189.02016 -38.016 
L 188.30592 -38.016 
L 187.59168 -38.016 
L 186.87744 -38.016 
L 186.1632 -38.016 
L 185.44896 -38.016 
L 184.73472 -38.016 
L 184.02048 -38.016 
L 183.30624 -38.016 
L 182.592 -38.016 
L 181.87776 -38.016 
L 181.16352 -38.016 
L 180.44928 -38.016 
L 179.73504 -38.016 
L 179.0208 -38.016 
L 178.30656 -38.016 
L 177.59232 -38.016 
L 176.87808 -38.016 
L 176.16384 -38.016 
L 175.4496 -38.016 
L 174.73536 -38.016 
L 174.02112 -38.016 
L 173.30688 -38.016 
L 172.59264 -38.016 
L 171.8784 -38.016 
L 171.16416 -38.016 
L 170.44992 -38.016 
L 169.73568 -38.016 
L 169.02144 -38.016 
L 168.3072 -38.016 
L 167.59296 -38.016 
L 166.87872 -38.016 
L 166.16448 -38.016 
L 165.45024 -38.016 
L 164.736 -38.016 
L 164.02176 -38.016 
L 163.30752 -38.016 
L 162.59328 -38.016 
L 161.87904 -38.016 
L 161.1648 -38.016 
L 160.45056 -38.016 
L 159.73632 -38.016 
L 159.02208 -38.016 
L 158.30784 -38.016 
L 157.5936 -38.016 
L 156.87936 -38.016 
L 156.16512 -38.016 
L 155.45088 -38.016 
L 154.73664 -38.016 
L 154.0224 -38.016 
L 153.30816 -38.016 
L 152.59392 -38.016 
L 151.87968 -38.016 
L 151.16544 -38.016 
L 150.4512 -38.016 
L 149.73696 -38.016 
L 149.02272 -38.016 
L 148.30848 -38.016 
L 147.59424 -38.016 
L 146.88 -38.016 
L 146.16576 -38.016 
L 145.45152 -38.016 
L 144.73728 -38.016 
L 144.02304 -38.016 
L 143.3088 -38.016 
L 142.59456 -38.016 
L 141.88032 -38.016 
L 141.16608 -38.016 
L 140.45184 -38.016 
L 139.7376 -38.016 
L 139.02336 -38.016 
L 138.30912 -38.016 
L 137.59488 -38.016 
L 136.88064 -38.016 
L 136.1664 -38.016 
L 135.45216 -38.016 
L 134.73792 -38.016 
L 134.02368 -38.016 
L 133.30944 -38.016 
L 132.5952 -38.016 
L 131.88096 -38.016 
L 131.16672 -38.016 
L 130.45248 -38.016 
L 129.73824 -38.016 
L 129.024 -38.016 
L 128.30976 -38.016 
L 127.59552 -38.016 
L 126.88128 -38.016 
L 126.16704 -38.016 
L 125.4528 -38.016 
L 124.73856 -38.016 
L 124.02432 -38.016 
L 123.31008 -38.016 
L 122.59584 -38.016 
L 121.8816 -38.016 
L 121.16736 -38.016 
L 120.45312 -38.016 
L 119.73888 -38.016 
L 119.02464 -38.016 
L 118.3104 -38.016 
L 117.59616 -38.016 
L 116.88192 -38.016 
L 116.16768 -38.016 
L 115.45344 -38.016 
L 114.7392 -38.016 
L 114.02496 -38.016 
L 113.31072 -38.016 
L 112.59648 -38.016 
L 111.88224 -38.016 
L 111.168 -38.016 
L 110.45376 -38.016 
L 109.73952 -38.016 
L 109.02528 -38.016 
L 108.31104 -38.016 
L 107.5968 -38.016 
L 106.88256 -38.016 
L 106.16832 -38.016 
L 105.45408 -38.016 
L 104.73984 -38.016 
L 104.0256 -38.016 
L 103.31136 -38.016 
L 102.59712 -38.016 
L 101.88288 -38.016 
L 101.16864 -38.016 
L 100.4544 -38.016 
L 99.74016 -38.016 
L 99.02592 -38.016 
L 98.31168 -38.016 
L 97.59744 -38.016 
L 96.8832 -38.016 
L 96.16896 -38.016 
L 95.45472 -38.016 
L 94.74048 -38.016 
L 94.02624 -38.016 
L 93.312 -38.016 
L 92.59776 -38.016 
L 91.88352 -38.016 
L 91.16928 -38.016 
L 90.45504 -38.016 
L 89.7408 -38.016 
L 89.02656 -38.016 
L 88.31232 -38.016 
L 87.59808 -38.016 
L 86.88384 -38.016 
L 86.1696 -38.016 
L 85.45536 -38.016 
L 84.74112 -38.016 
L 84.02688 -38.016 
L 83.31264 -38.016 
L 82.5984 -38.016 
L 81.88416 -38.016 
L 81.16992 -38.016 
L 80.45568 -38.016 
L 79.74144 -38.016 
L 79.0272 -38.016 
L 78.31296 -38.016 
L 77.59872 -38.016 
L 76.88448 -38.016 
L 76.17024 -38.016 
L 75.456 -38.016 
L 74.74176 -38.016 
L 74.02752 -38.016 
L 73.31328 -38.016 
L 72.59904 -38.016 
L 71.8848 -38.016 
L 71.17056 -38.016 
L 70.45632 -38.016 
L 69.74208 -38.016 
L 69.02784 -38.016 
L 68.3136 -38.016 
L 67.59936 -38.016 
L 66.88512 -38.016 
L 66.17088 -38.016 
L 65.45664 -38.016 
L 64.7424 -38.016 
L 64.02816 -38.016 
L 63.31392 -38.016 
L 62.59968 -38.016 
L 61.88544 -38.016 
L 61.1712 -38.016 
L 60.45696 -38.016 
L 59.74272 -38.016 
L 59.02848 -38.016 
L 58.31424 -38.016 
L 57.6 -38.016 
z
" id="m77a29a71a6" style="stroke:#509369;"/>
    </defs>
    <g clip-path="url(#pde2328c958)">
     <use style="fill:#509369;stroke:#509369;" x="0" xlink:href="#m77a29a71a6" y="345.6"/>
    </g>
   </g>
   <g id="PolyCollection_2">
    <defs>
     <path d="M 57.6 -279.936 
L 57.6 -279.936 
L 58.31424 -279.936 
L 59.02848 -279.936 
L 59.74272 -279.936 
L 60.45696 -279.936 
L 61.1712 -279.936 
L 61.88544 -279.936 
L 62.59968 -279.936 
L 63.31392 -279.936 
L 64.02816 -279.936 
L 64.7424 -279.936 
L 65.45664 -279.936 
L 66.17088 -279.936 
L 66.88512 -279.936 
L 67.59936 -279.936 
L 68.3136 -279.936 
L 69.02784 -279.936 
L 69.74208 -279.936 
L 70.45632 -279.936 
L 71.17056 -279.935999 
L 71.8848 -279.935999 
L 72.59904 -279.935999 
L 73.31328 -279.935999 
L 74.02752 -279.935999 
L 74.74176 -279.935998 
L 75.456 -279.935998 
L 76.17024 -279.935998 
L 76.88448 -279.935997 
L 77.59872 -279.935996 
L 78.31296 -279.935996 
L 79.0272 -279.935995 
L 79.74144 -279.935994 
L 80.45568 -279.935992 
L 81.16992 -279.93599 
L 81.88416 -279.935988 
L 82.5984 -279.935986 
L 83.31264 -279.935983 
L 84.02688 -279.935979 
L 84.74112 -279.935975 
L 85.45536 -279.93597 
L 86.1696 -279.935964 
L 86.88384 -279.935956 
L 87.59808 -279.935948 
L 88.31232 -279.935937 
L 89.02656 -279.935925 
L 89.7408 -279.93591 
L 90.45504 -279.935893 
L 91.16928 -279.935872 
L 91.88352 -279.935847 
L 92.59776 -279.935819 
L 93.312 -279.935784 
L 94.02624 -279.935744 
L 94.74048 -279.935697 
L 95.45472 -279.935642 
L 96.16896 -279.935577 
L 96.8832 -279.9355 
L 97.59744 -279.935411 
L 98.31168 -279.935307 
L 99.02592 -279.935186 
L 99.74016 -279.935045 
L 100.4544 -279.93488 
L 101.16864 -279.934689 
L 101.88288 -279.934468 
L 102.59712 -279.934212 
L 103.31136 -279.933916 
L 104.0256 -279.933573 
L 104.73984 -279.933179 
L 105.45408 -279.932724 
L 106.16832 -279.932202 
L 106.88256 -279.931602 
L 107.5968 -279.930914 
L 108.31104 -279.930126 
L 109.02528 -279.929225 
L 109.73952 -279.928196 
L 110.45376 -279.927023 
L 111.168 -279.925688 
L 111.88224 -279.92417 
L 112.59648 -279.922446 
L 113.31072 -279.920491 
L 114.02496 -279.918278 
L 114.7392 -279.915776 
L 115.45344 -279.912951 
L 116.16768 -279.909767 
L 116.88192 -279.906181 
L 117.59616 -279.90215 
L 118.3104 -279.897624 
L 119.02464 -279.892551 
L 119.73888 -279.886871 
L 120.45312 -279.880521 
L 121.16736 -279.873433 
L 121.8816 -279.865531 
L 122.59584 -279.856734 
L 123.31008 -279.846955 
L 124.02432 -279.836099 
L 124.73856 -279.824066 
L 125.4528 -279.810745 
L 126.16704 -279.796019 
L 126.88128 -279.779765 
L 127.59552 -279.761848 
L 128.30976 -279.742125 
L 129.024 -279.720445 
L 129.73824 -279.696648 
L 130.45248 -279.670563 
L 131.16672 -279.642011 
L 131.88096 -279.610802 
L 132.5952 -279.576736 
L 133.30944 -279.539604 
L 134.02368 -279.499186 
L 134.73792 -279.455255 
L 135.45216 -279.40757 
L 136.1664 -279.355883 
L 136.88064 -279.299937 
L 137.59488 -279.239466 
L 138.30912 -279.174194 
L 139.02336 -279.103838 
L 139.7376 -279.028108 
L 140.45184 -278.946707 
L 141.16608 -278.859331 
L 141.88032 -278.765673 
L 142.59456 -278.665419 
L 143.3088 -278.558254 
L 144.02304 -278.443859 
L 144.73728 -278.321915 
L 145.45152 -278.192104 
L 146.16576 -278.054107 
L 146.88 -277.907611 
L 147.59424 -277.752305 
L 148.30848 -277.587884 
L 149.02272 -277.414051 
L 149.73696 -277.230517 
L 150.4512 -277.037005 
L 151.16544 -276.833248 
L 151.87968 -276.618993 
L 152.59392 -276.394003 
L 153.30816 -276.158056 
L 154.0224 -275.91095 
L 154.73664 -275.652501 
L 155.45088 -275.382545 
L 156.16512 -275.100941 
L 156.87936 -274.807571 
L 157.5936 -274.50234 
L 158.30784 -274.185178 
L 159.02208 -273.856041 
L 159.73632 -273.514908 
L 160.45056 -273.161787 
L 161.1648 -272.796709 
L 161.87904 -272.419731 
L 162.59328 -272.030935 
L 163.30752 -271.630425 
L 164.02176 -271.218329 
L 164.736 -270.794794 
L 165.45024 -270.359986 
L 166.16448 -269.914087 
L 166.87872 -269.457289 
L 167.59296 -268.989796 
L 168.3072 -268.511817 
L 169.02144 -268.023558 
L 169.73568 -267.525224 
L 170.44992 -267.017007 
L 171.16416 -266.49908 
L 171.8784 -265.971592 
L 172.59264 -265.434657 
L 173.30688 -264.888348 
L 174.02112 -264.33268 
L 174.73536 -263.767605 
L 175.4496 -263.192994 
L 176.16384 -262.608626 
L 176.87808 -262.014169 
L 177.59232 -261.409164 
L 178.30656 -260.793002 
L 179.0208 -260.164906 
L 179.73504 -259.523904 
L 180.44928 -258.868801 
L 181.16352 -258.19815 
L 181.87776 -257.510218 
L 182.592 -256.80295 
L 183.30624 -256.073927 
L 184.02048 -255.320324 
L 184.73472 -254.538858 
L 185.44896 -253.725739 
L 186.1632 -252.876611 
L 186.87744 -251.986491 
L 187.59168 -251.049705 
L 188.30592 -250.059822 
L 189.02016 -249.009584 
L 189.7344 -247.890834 
L 190.44864 -246.694455 
L 191.16288 -245.410301 
L 191.87712 -244.027144 
L 192.59136 -242.532639 
L 193.3056 -240.913298 
L 194.01984 -239.154502 
L 194.73408 -237.240542 
L 195.44832 -235.154711 
L 196.16256 -232.879459 
L 196.8768 -230.396609 
L 197.59104 -227.687672 
L 198.30528 -224.734245 
L 199.01952 -221.518522 
L 199.73376 -218.023915 
L 200.448 -214.235782 
L 201.16224 -210.142245 
L 201.87648 -205.735082 
L 202.59072 -201.010645 
L 203.30496 -195.970754 
L 204.0192 -190.623488 
L 204.73344 -184.983809 
L 205.44768 -179.073921 
L 206.16192 -172.923308 
L 206.87616 -166.568384 
L 207.5904 -160.051745 
L 208.30464 -153.421029 
L 209.01888 -146.727456 
L 209.73312 -140.024135 
L 210.44736 -133.364258 
L 211.1616 -126.799335 
L 211.87584 -120.377564 
L 212.59008 -114.142476 
L 213.30432 -108.131898 
L 214.01856 -102.377283 
L 214.7328 -96.903402 
L 215.44704 -91.72836 
L 216.16128 -86.863894 
L 216.87552 -82.31587 
L 217.58976 -78.084936 
L 218.304 -74.167248 
L 219.01824 -70.555227 
L 219.73248 -67.238306 
L 220.44672 -64.203623 
L 221.16096 -61.436663 
L 221.8752 -58.921808 
L 222.58944 -56.642818 
L 223.30368 -54.583227 
L 224.01792 -52.726665 
L 224.73216 -51.057114 
L 225.4464 -49.559095 
L 226.16064 -48.217816 
L 226.87488 -47.019266 
L 227.58912 -45.950276 
L 228.30336 -44.998553 
L 229.0176 -44.152686 
L 229.73184 -43.402138 
L 230.44608 -42.737224 
L 231.16032 -42.149077 
L 231.87456 -41.629607 
L 232.5888 -41.171459 
L 233.30304 -40.767968 
L 234.01728 -40.413104 
L 234.73152 -40.101434 
L 235.44576 -39.828066 
L 236.16 -39.588613 
L 236.87424 -39.379142 
L 237.58848 -39.196137 
L 238.30272 -39.036462 
L 239.01696 -38.89732 
L 239.7312 -38.776227 
L 240.44544 -38.670975 
L 241.15968 -38.57961 
L 241.87392 -38.500399 
L 242.58816 -38.431813 
L 243.3024 -38.372502 
L 244.01664 -38.321277 
L 244.73088 -38.277092 
L 245.44512 -38.239028 
L 246.15936 -38.206278 
L 246.8736 -38.178137 
L 247.58784 -38.153986 
L 248.30208 -38.133288 
L 249.01632 -38.11557 
L 249.73056 -38.100423 
L 250.4448 -38.087491 
L 251.15904 -38.076465 
L 251.87328 -38.067074 
L 252.58752 -38.059088 
L 253.30176 -38.052305 
L 254.016 -38.046551 
L 254.73024 -38.041677 
L 255.44448 -38.037552 
L 256.15872 -38.034068 
L 256.87296 -38.031127 
L 257.5872 -38.028649 
L 258.30144 -38.026563 
L 259.01568 -38.02481 
L 259.72992 -38.023339 
L 260.44416 -38.022105 
L 261.1584 -38.021072 
L 261.87264 -38.020209 
L 262.58688 -38.019488 
L 263.30112 -38.018887 
L 264.01536 -38.018386 
L 264.7296 -38.01797 
L 265.44384 -38.017624 
L 266.15808 -38.017337 
L 266.87232 -38.017099 
L 267.58656 -38.016903 
L 268.3008 -38.01674 
L 269.01504 -38.016607 
L 269.72928 -38.016496 
L 270.44352 -38.016405 
L 271.15776 -38.016331 
L 271.872 -38.016269 
L 272.58624 -38.016219 
L 273.30048 -38.016178 
L 274.01472 -38.016145 
L 274.72896 -38.016117 
L 275.4432 -38.016095 
L 276.15744 -38.016077 
L 276.87168 -38.016062 
L 277.58592 -38.01605 
L 278.30016 -38.01604 
L 279.0144 -38.016032 
L 279.72864 -38.016026 
L 280.44288 -38.016021 
L 281.15712 -38.016017 
L 281.87136 -38.016013 
L 282.5856 -38.016011 
L 283.29984 -38.016009 
L 284.01408 -38.016007 
L 284.72832 -38.016005 
L 285.44256 -38.016004 
L 286.1568 -38.016003 
L 286.87104 -38.016003 
L 287.58528 -38.016002 
L 288.29952 -38.016002 
L 289.01376 -38.016001 
L 289.728 -38.016001 
L 290.44224 -38.016001 
L 291.15648 -38.016001 
L 291.87072 -38.016001 
L 292.58496 -38.016 
L 293.2992 -38.016 
L 294.01344 -38.016 
L 294.72768 -38.016 
L 295.44192 -38.016 
L 296.15616 -38.016 
L 296.8704 -38.016 
L 297.58464 -38.016 
L 298.29888 -38.016 
L 299.01312 -38.016 
L 299.72736 -38.016 
L 300.4416 -38.016 
L 301.15584 -38.016 
L 301.87008 -38.016 
L 302.58432 -38.016 
L 303.29856 -38.016 
L 304.0128 -38.016 
L 304.72704 -38.016 
L 305.44128 -38.016 
L 306.15552 -38.016 
L 306.86976 -38.016 
L 307.584 -38.016 
L 308.29824 -38.016 
L 309.01248 -38.016 
L 309.72672 -38.016 
L 310.44096 -38.016 
L 311.1552 -38.016 
L 311.86944 -38.016 
L 312.58368 -38.016 
L 313.29792 -38.016 
L 314.01216 -38.016 
L 314.7264 -38.016 
L 315.44064 -38.016 
L 316.15488 -38.016 
L 316.86912 -38.016 
L 317.58336 -38.016 
L 318.2976 -38.016 
L 319.01184 -38.016 
L 319.72608 -38.016 
L 320.44032 -38.016 
L 321.15456 -38.016 
L 321.8688 -38.016 
L 322.58304 -38.016 
L 323.29728 -38.016 
L 324.01152 -38.016 
L 324.72576 -38.016 
L 325.44 -38.016 
L 326.15424 -38.016 
L 326.86848 -38.016 
L 327.58272 -38.016 
L 328.29696 -38.016 
L 329.0112 -38.016 
L 329.72544 -38.016 
L 330.43968 -38.016 
L 331.15392 -38.016 
L 331.86816 -38.016 
L 332.5824 -38.016 
L 333.29664 -38.016 
L 334.01088 -38.016 
L 334.72512 -38.016 
L 335.43936 -38.016 
L 336.1536 -38.016 
L 336.86784 -38.016 
L 337.58208 -38.016 
L 338.29632 -38.016 
L 339.01056 -38.016 
L 339.7248 -38.016 
L 340.43904 -38.016 
L 341.15328 -38.016 
L 341.86752 -38.016 
L 342.58176 -38.016 
L 343.296 -38.016 
L 344.01024 -38.016 
L 344.72448 -38.016 
L 345.43872 -38.016 
L 346.15296 -38.016 
L 346.8672 -38.016 
L 347.58144 -38.016 
L 348.29568 -38.016 
L 349.00992 -38.016 
L 349.72416 -38.016 
L 350.4384 -38.016 
L 351.15264 -38.016 
L 351.86688 -38.016 
L 352.58112 -38.016 
L 353.29536 -38.016 
L 354.0096 -38.016 
L 354.72384 -38.016 
L 355.43808 -38.016 
L 356.15232 -38.016 
L 356.86656 -38.016 
L 357.5808 -38.016 
L 358.29504 -38.016 
L 359.00928 -38.016 
L 359.72352 -38.016 
L 360.43776 -38.016 
L 361.152 -38.016 
L 361.86624 -38.016 
L 362.58048 -38.016 
L 363.29472 -38.016 
L 364.00896 -38.016 
L 364.7232 -38.016 
L 365.43744 -38.016 
L 366.15168 -38.016 
L 366.86592 -38.016 
L 367.58016 -38.016 
L 368.2944 -38.016 
L 369.00864 -38.016 
L 369.72288 -38.016 
L 370.43712 -38.016 
L 371.15136 -38.016 
L 371.8656 -38.016 
L 372.57984 -38.016 
L 373.29408 -38.016 
L 374.00832 -38.016 
L 374.72256 -38.016 
L 375.4368 -38.016 
L 376.15104 -38.016 
L 376.86528 -38.016 
L 377.57952 -38.016 
L 378.29376 -38.016 
L 379.008 -38.016 
L 379.72224 -38.016 
L 380.43648 -38.016 
L 381.15072 -38.016 
L 381.86496 -38.016 
L 382.5792 -38.016 
L 383.29344 -38.016 
L 384.00768 -38.016 
L 384.72192 -38.016 
L 385.43616 -38.016 
L 386.1504 -38.016 
L 386.86464 -38.016 
L 387.57888 -38.016 
L 388.29312 -38.016 
L 389.00736 -38.016 
L 389.7216 -38.016 
L 390.43584 -38.016 
L 391.15008 -38.016 
L 391.86432 -38.016 
L 392.57856 -38.016 
L 393.2928 -38.016 
L 394.00704 -38.016 
L 394.72128 -38.016 
L 395.43552 -38.016 
L 396.14976 -38.016 
L 396.864 -38.016 
L 397.57824 -38.016 
L 398.29248 -38.016 
L 399.00672 -38.016 
L 399.72096 -38.016 
L 400.4352 -38.016 
L 401.14944 -38.016 
L 401.86368 -38.016 
L 402.57792 -38.016 
L 403.29216 -38.016 
L 404.0064 -38.016 
L 404.72064 -38.016 
L 405.43488 -38.016 
L 406.14912 -38.016 
L 406.86336 -38.016 
L 407.5776 -38.016 
L 408.29184 -38.016 
L 409.00608 -38.016 
L 409.72032 -38.016 
L 410.43456 -38.016 
L 411.1488 -38.016 
L 411.86304 -38.016 
L 412.57728 -38.016 
L 413.29152 -38.016 
L 414.00576 -38.016 
L 414.72 -38.016 
L 414.72 -38.016 
L 414.72 -38.016 
L 414.00576 -38.016 
L 413.29152 -38.016 
L 412.57728 -38.016 
L 411.86304 -38.016 
L 411.1488 -38.016 
L 410.43456 -38.016 
L 409.72032 -38.016 
L 409.00608 -38.016 
L 408.29184 -38.016 
L 407.5776 -38.016 
L 406.86336 -38.016 
L 406.14912 -38.016 
L 405.43488 -38.016 
L 404.72064 -38.016 
L 404.0064 -38.016 
L 403.29216 -38.016 
L 402.57792 -38.016 
L 401.86368 -38.016 
L 401.14944 -38.016 
L 400.4352 -38.016 
L 399.72096 -38.016 
L 399.00672 -38.016 
L 398.29248 -38.016 
L 397.57824 -38.016 
L 396.864 -38.016 
L 396.14976 -38.016 
L 395.43552 -38.016 
L 394.72128 -38.016 
L 394.00704 -38.016 
L 393.2928 -38.016 
L 392.57856 -38.016 
L 391.86432 -38.016 
L 391.15008 -38.016 
L 390.43584 -38.016 
L 389.7216 -38.016 
L 389.00736 -38.016 
L 388.29312 -38.016 
L 387.57888 -38.016 
L 386.86464 -38.016 
L 386.1504 -38.016 
L 385.43616 -38.016 
L 384.72192 -38.016 
L 384.00768 -38.016 
L 383.29344 -38.016 
L 382.5792 -38.016 
L 381.86496 -38.016 
L 381.15072 -38.016 
L 380.43648 -38.016 
L 379.72224 -38.016 
L 379.008 -38.016 
L 378.29376 -38.016 
L 377.57952 -38.016 
L 376.86528 -38.016 
L 376.15104 -38.016 
L 375.4368 -38.016 
L 374.72256 -38.016 
L 374.00832 -38.016 
L 373.29408 -38.016 
L 372.57984 -38.016 
L 371.8656 -38.016 
L 371.15136 -38.016 
L 370.43712 -38.016 
L 369.72288 -38.016 
L 369.00864 -38.016 
L 368.2944 -38.016 
L 367.58016 -38.016 
L 366.86592 -38.016 
L 366.15168 -38.016 
L 365.43744 -38.016 
L 364.7232 -38.016 
L 364.00896 -38.016 
L 363.29472 -38.016 
L 362.58048 -38.016 
L 361.86624 -38.016 
L 361.152 -38.016 
L 360.43776 -38.016 
L 359.72352 -38.016 
L 359.00928 -38.016 
L 358.29504 -38.016 
L 357.5808 -38.016 
L 356.86656 -38.016 
L 356.15232 -38.016 
L 355.43808 -38.016 
L 354.72384 -38.016 
L 354.0096 -38.016 
L 353.29536 -38.016 
L 352.58112 -38.016 
L 351.86688 -38.016 
L 351.15264 -38.016 
L 350.4384 -38.016 
L 349.72416 -38.016 
L 349.00992 -38.016 
L 348.29568 -38.016 
L 347.58144 -38.016 
L 346.8672 -38.016 
L 346.15296 -38.016 
L 345.43872 -38.016 
L 344.72448 -38.016 
L 344.01024 -38.016 
L 343.296 -38.016 
L 342.58176 -38.016 
L 341.86752 -38.016 
L 341.15328 -38.016 
L 340.43904 -38.016 
L 339.7248 -38.016 
L 339.01056 -38.016 
L 338.29632 -38.016 
L 337.58208 -38.016 
L 336.86784 -38.016 
L 336.1536 -38.016 
L 335.43936 -38.016 
L 334.72512 -38.016 
L 334.01088 -38.016 
L 333.29664 -38.016 
L 332.5824 -38.016 
L 331.86816 -38.016 
L 331.15392 -38.016 
L 330.43968 -38.016 
L 329.72544 -38.016 
L 329.0112 -38.016 
L 328.29696 -38.016 
L 327.58272 -38.016 
L 326.86848 -38.016 
L 326.15424 -38.016 
L 325.44 -38.016 
L 324.72576 -38.016 
L 324.01152 -38.016 
L 323.29728 -38.016 
L 322.58304 -38.016 
L 321.8688 -38.016 
L 321.15456 -38.016 
L 320.44032 -38.016 
L 319.72608 -38.016 
L 319.01184 -38.016 
L 318.2976 -38.016 
L 317.58336 -38.016 
L 316.86912 -38.016 
L 316.15488 -38.016 
L 315.44064 -38.016 
L 314.7264 -38.016 
L 314.01216 -38.016 
L 313.29792 -38.016 
L 312.58368 -38.016 
L 311.86944 -38.016 
L 311.1552 -38.016 
L 310.44096 -38.016 
L 309.72672 -38.016 
L 309.01248 -38.016 
L 308.29824 -38.016 
L 307.584 -38.016 
L 306.86976 -38.016 
L 306.15552 -38.016 
L 305.44128 -38.016 
L 304.72704 -38.016 
L 304.0128 -38.016 
L 303.29856 -38.016 
L 302.58432 -38.016 
L 301.87008 -38.016 
L 301.15584 -38.016 
L 300.4416 -38.016 
L 299.72736 -38.016 
L 299.01312 -38.016 
L 298.29888 -38.016 
L 297.58464 -38.016 
L 296.8704 -38.016 
L 296.15616 -38.016 
L 295.44192 -38.016 
L 294.72768 -38.016001 
L 294.01344 -38.016001 
L 293.2992 -38.016001 
L 292.58496 -38.016001 
L 291.87072 -38.016001 
L 291.15648 -38.016002 
L 290.44224 -38.016002 
L 289.728 -38.016003 
L 289.01376 -38.016003 
L 288.29952 -38.016004 
L 287.58528 -38.016005 
L 286.87104 -38.016007 
L 286.1568 -38.016008 
L 285.44256 -38.01601 
L 284.72832 -38.016013 
L 284.01408 -38.016016 
L 283.29984 -38.01602 
L 282.5856 -38.016024 
L 281.87136 -38.01603 
L 281.15712 -38.016037 
L 280.44288 -38.016046 
L 279.72864 -38.016057 
L 279.0144 -38.01607 
L 278.30016 -38.016086 
L 277.58592 -38.016106 
L 276.87168 -38.01613 
L 276.15744 -38.01616 
L 275.4432 -38.016195 
L 274.72896 -38.016239 
L 274.01472 -38.016292 
L 273.30048 -38.016356 
L 272.58624 -38.016434 
L 271.872 -38.016528 
L 271.15776 -38.016641 
L 270.44352 -38.016778 
L 269.72928 -38.016943 
L 269.01504 -38.017142 
L 268.3008 -38.017381 
L 267.58656 -38.017669 
L 266.87232 -38.018013 
L 266.15808 -38.018426 
L 265.44384 -38.01892 
L 264.7296 -38.01951 
L 264.01536 -38.020214 
L 263.30112 -38.021053 
L 262.58688 -38.022052 
L 261.87264 -38.02324 
L 261.1584 -38.024651 
L 260.44416 -38.026324 
L 259.72992 -38.028307 
L 259.01568 -38.030652 
L 258.30144 -38.033424 
L 257.5872 -38.036696 
L 256.87296 -38.040553 
L 256.15872 -38.045094 
L 255.44448 -38.050435 
L 254.73024 -38.056708 
L 254.016 -38.064067 
L 253.30176 -38.072691 
L 252.58752 -38.082783 
L 251.87328 -38.094581 
L 251.15904 -38.108356 
L 250.4448 -38.12442 
L 249.73056 -38.143131 
L 249.01632 -38.164899 
L 248.30208 -38.190195 
L 247.58784 -38.219554 
L 246.8736 -38.253591 
L 246.15936 -38.293002 
L 245.44512 -38.338585 
L 244.73088 -38.391243 
L 244.01664 -38.452004 
L 243.3024 -38.522034 
L 242.58816 -38.602651 
L 241.87392 -38.695351 
L 241.15968 -38.801818 
L 240.44544 -38.923958 
L 239.7312 -39.063913 
L 239.01696 -39.224096 
L 238.30272 -39.407217 
L 237.58848 -39.616317 
L 236.87424 -39.8548 
L 236.16 -40.126474 
L 235.44576 -40.435591 
L 234.73152 -40.786887 
L 234.01728 -41.185634 
L 233.30304 -41.637683 
L 232.5888 -42.149516 
L 231.87456 -42.728299 
L 231.16032 -43.381935 
L 230.44608 -44.119114 
L 229.73184 -44.949366 
L 229.0176 -45.883106 
L 228.30336 -46.931678 
L 227.58912 -48.107386 
L 226.87488 -49.423515 
L 226.16064 -50.894334 
L 225.4464 -52.535081 
L 224.73216 -54.361913 
L 224.01792 -56.391832 
L 223.30368 -58.642554 
L 222.58944 -61.132339 
L 221.8752 -63.879755 
L 221.16096 -66.903368 
L 220.44672 -70.221356 
L 219.73248 -73.85104 
L 219.01824 -77.808313 
L 218.304 -82.106986 
L 217.58976 -86.758044 
L 216.87552 -91.768832 
L 216.16128 -97.14219 
L 215.44704 -102.875585 
L 214.7328 -108.960277 
L 214.01856 -115.380594 
L 213.30432 -122.11338 
L 212.59008 -129.127699 
L 211.87584 -136.384866 
L 211.1616 -143.838863 
L 210.44736 -151.437183 
L 209.73312 -159.122091 
L 209.01888 -166.832267 
L 208.30464 -174.504734 
L 207.5904 -182.076961 
L 206.87616 -189.488966 
L 206.16192 -196.685292 
L 205.44768 -203.616686 
L 204.73344 -210.241389 
L 204.0192 -216.525963 
L 203.30496 -222.445642 
L 202.59072 -227.984237 
L 201.87648 -233.133657 
L 201.16224 -237.893138 
L 200.448 -242.268273 
L 199.73376 -246.269941 
L 199.01952 -249.913211 
L 198.30528 -253.216285 
L 197.59104 -256.199536 
L 196.8768 -258.884656 
L 196.16256 -261.293935 
L 195.44832 -263.449675 
L 194.73408 -265.373727 
L 194.01984 -267.087145 
L 193.3056 -268.609931 
L 192.59136 -269.96088 
L 191.87712 -271.157478 
L 191.16288 -272.21586 
L 190.44864 -273.150815 
L 189.7344 -273.975814 
L 189.02016 -274.703069 
L 188.30592 -275.343595 
L 187.59168 -275.907296 
L 186.87744 -276.403043 
L 186.1632 -276.838759 
L 185.44896 -277.221504 
L 184.73472 -277.557556 
L 184.02048 -277.852484 
L 183.30624 -278.111219 
L 182.592 -278.338127 
L 181.87776 -278.53706 
L 181.16352 -278.71142 
L 180.44928 -278.864205 
L 179.73504 -278.998054 
L 179.0208 -279.115291 
L 178.30656 -279.217958 
L 177.59232 -279.307852 
L 176.87808 -279.386549 
L 176.16384 -279.455435 
L 175.4496 -279.515724 
L 174.73536 -279.568484 
L 174.02112 -279.61465 
L 173.30688 -279.65504 
L 172.59264 -279.690375 
L 171.8784 -279.721285 
L 171.16416 -279.74832 
L 170.44992 -279.771965 
L 169.73568 -279.792642 
L 169.02144 -279.810724 
L 168.3072 -279.826534 
L 167.59296 -279.840357 
L 166.87872 -279.852441 
L 166.16448 -279.863005 
L 165.45024 -279.872238 
L 164.736 -279.880309 
L 164.02176 -279.887362 
L 163.30752 -279.893526 
L 162.59328 -279.898912 
L 161.87904 -279.903619 
L 161.1648 -279.90773 
L 160.45056 -279.911323 
L 159.73632 -279.91446 
L 159.02208 -279.917201 
L 158.30784 -279.919595 
L 157.5936 -279.921686 
L 156.87936 -279.923511 
L 156.16512 -279.925105 
L 155.45088 -279.926497 
L 154.73664 -279.927712 
L 154.0224 -279.928772 
L 153.30816 -279.929698 
L 152.59392 -279.930505 
L 151.87968 -279.93121 
L 151.16544 -279.931825 
L 150.4512 -279.932362 
L 149.73696 -279.93283 
L 149.02272 -279.933238 
L 148.30848 -279.933594 
L 147.59424 -279.933905 
L 146.88 -279.934176 
L 146.16576 -279.934412 
L 145.45152 -279.934617 
L 144.73728 -279.934797 
L 144.02304 -279.934953 
L 143.3088 -279.935089 
L 142.59456 -279.935208 
L 141.88032 -279.935311 
L 141.16608 -279.935401 
L 140.45184 -279.935479 
L 139.7376 -279.935547 
L 139.02336 -279.935607 
L 138.30912 -279.935658 
L 137.59488 -279.935703 
L 136.88064 -279.935742 
L 136.1664 -279.935776 
L 135.45216 -279.935806 
L 134.73792 -279.935832 
L 134.02368 -279.935854 
L 133.30944 -279.935873 
L 132.5952 -279.93589 
L 131.88096 -279.935905 
L 131.16672 -279.935918 
L 130.45248 -279.935929 
L 129.73824 -279.935938 
L 129.024 -279.935946 
L 128.30976 -279.935954 
L 127.59552 -279.93596 
L 126.88128 -279.935965 
L 126.16704 -279.93597 
L 125.4528 -279.935974 
L 124.73856 -279.935978 
L 124.02432 -279.935981 
L 123.31008 -279.935983 
L 122.59584 -279.935986 
L 121.8816 -279.935988 
L 121.16736 -279.935989 
L 120.45312 -279.935991 
L 119.73888 -279.935992 
L 119.02464 -279.935993 
L 118.3104 -279.935994 
L 117.59616 -279.935995 
L 116.88192 -279.935996 
L 116.16768 -279.935996 
L 115.45344 -279.935997 
L 114.7392 -279.935997 
L 114.02496 -279.935998 
L 113.31072 -279.935998 
L 112.59648 -279.935998 
L 111.88224 -279.935999 
L 111.168 -279.935999 
L 110.45376 -279.935999 
L 109.73952 -279.935999 
L 109.02528 -279.935999 
L 108.31104 -279.935999 
L 107.5968 -279.935999 
L 106.88256 -279.936 
L 106.16832 -279.936 
L 105.45408 -279.936 
L 104.73984 -279.936 
L 104.0256 -279.936 
L 103.31136 -279.936 
L 102.59712 -279.936 
L 101.88288 -279.936 
L 101.16864 -279.936 
L 100.4544 -279.936 
L 99.74016 -279.936 
L 99.02592 -279.936 
L 98.31168 -279.936 
L 97.59744 -279.936 
L 96.8832 -279.936 
L 96.16896 -279.936 
L 95.45472 -279.936 
L 94.74048 -279.936 
L 94.02624 -279.936 
L 93.312 -279.936 
L 92.59776 -279.936 
L 91.88352 -279.936 
L 91.16928 -279.936 
L 90.45504 -279.936 
L 89.7408 -279.936 
L 89.02656 -279.936 
L 88.31232 -279.936 
L 87.59808 -279.936 
L 86.88384 -279.936 
L 86.1696 -279.936 
L 85.45536 -279.936 
L 84.74112 -279.936 
L 84.02688 -279.936 
L 83.31264 -279.936 
L 82.5984 -279.936 
L 81.88416 -279.936 
L 81.16992 -279.936 
L 80.45568 -279.936 
L 79.74144 -279.936 
L 79.0272 -279.936 
L 78.31296 -279.936 
L 77.59872 -279.936 
L 76.88448 -279.936 
L 76.17024 -279.936 
L 75.456 -279.936 
L 74.74176 -279.936 
L 74.02752 -279.936 
L 73.31328 -279.936 
L 72.59904 -279.936 
L 71.8848 -279.936 
L 71.17056 -279.936 
L 70.45632 -279.936 
L 69.74208 -279.936 
L 69.02784 -279.936 
L 68.3136 -279.936 
L 67.59936 -279.936 
L 66.88512 -279.936 
L 66.17088 -279.936 
L 65.45664 -279.936 
L 64.7424 -279.936 
L 64.02816 -279.936 
L 63.31392 -279.936 
L 62.59968 -279.936 
L 61.88544 -279.936 
L 61.1712 -279.936 
L 60.45696 -279.936 
L 59.74272 -279.936 
L 59.02848 -279.936 
L 58.31424 -279.936 
L 57.6 -279.936 
z
" id="m097129ae57" style="stroke:#afe88e;"/>
    </defs>
    <g clip-path="url(#pde2328c958)">
     <use style="fill:#afe88e;stroke:#afe88e;" x="0" xlink:href="#m097129ae57" y="345.6"/>
    </g>
   </g>
   <g id="line2d_1">
    <path clip-path="url(#pde2328c958)" d="M 57.6 65.664 
L 168.3072 65.773466 
L 174.02112 65.98535 
L 177.59232 66.292148 
L 180.44928 66.735795 
L 182.592 67.261873 
L 184.73472 68.042444 
L 186.1632 68.761241 
L 187.59168 69.692704 
L 189.02016 70.896931 
L 190.44864 72.449185 
L 191.87712 74.442522 
L 193.3056 76.990069 
L 194.73408 80.226273 
L 196.16256 84.306065 
L 197.59104 89.400464 
L 199.01952 95.686789 
L 200.448 103.331727 
L 201.87648 112.466343 
L 203.30496 123.154358 
L 204.73344 135.358611 
L 206.87616 156.111034 
L 210.44736 194.162817 
L 213.30432 223.48662 
L 215.44704 242.724415 
L 216.87552 253.831168 
L 218.304 263.493014 
L 219.73248 271.74896 
L 221.16096 278.696632 
L 222.58944 284.467661 
L 224.01792 289.208168 
L 225.4464 293.064919 
L 226.87488 296.176485 
L 228.30336 298.668322 
L 229.73184 300.650634 
L 231.16032 302.218065 
L 232.5888 303.450484 
L 234.01728 304.414366 
L 235.44576 305.164409 
L 237.58848 305.983683 
L 239.7312 306.536087 
L 242.58816 306.997349 
L 246.15936 307.306998 
L 251.15904 307.491644 
L 261.1584 307.575349 
L 321.15456 307.584 
L 414.72 307.584 
L 414.72 307.584 
" style="fill:none;stroke:#000000;stroke-linecap:square;stroke-width:0.7;"/>
   </g>
   <g id="patch_3">
    <path d="M 57.6 307.584 
L 57.6 41.472 
" style="fill:none;stroke:#000000;stroke-linecap:square;stroke-linejoin:miter;stroke-width:0.8;"/>
   </g>
   <g id="patch_4">
    <path d="M 414.72 307.584 
L 414.72 41.472 
" style="fill:none;stroke:#000000;stroke-linecap:square;stroke-linejoin:miter;stroke-width:0.8;"/>
   </g>
   <g id="patch_5">
    <path d="M 57.6 307.584 
L 414.72 307.584 
" style="fill:none;stroke:#000000;stroke-linecap:square;stroke-linejoin:miter;stroke-width:0.8;"/>
   </g>
   <g id="patch_6">
    <path d="M 57.6 41.472 
L 414.72 41.472 
" style="fill:none;stroke:#000000;stroke-linecap:square;stroke-linejoin:miter;stroke-width:0.8;"/>
   </g>
   <g id="legend_1">
    <g id="patch_7">
     <path d="M 91.90611 34.09119 
L 246.68736 34.09119 
Q 249.08736 34.09119 249.08736 31.69119 
L 249.08736 15.27744 
Q 249.08736 12.87744 246.68736 12.87744 
L 91.90611 12.87744 
Q 89.50611 12.87744 89.50611 15.27744 
L 89.50611 31.69119 
Q 89.50611 34.09119 91.90611 34.09119 
z
" style="fill:#ffffff;opacity:0.8;stroke:#cccccc;stroke-linejoin:miter;"/>
    </g>
    <g id="patch_8">
     <path d="M 94.30611 26.795565 
L 118.30611 26.795565 
L 118.30611 18.395565 
L 94.30611 18.395565 
z
" style="fill:#509369;stroke:#509369;stroke-linejoin:miter;"/>
    </g>
    <g id="text_1">
     <!-- back -->
     <g transform="translate(127.90611 26.795565)scale(0.12 -0.12)">
      <defs>
       <path d="M 11.53125 5.171875 
L 11.53125 70.796875 
L 2.875 70.796875 
L 2.875 75.984375 
L 20.515625 75.984375 
L 20.515625 43.796875 
Q 23.140625 48.6875 27.21875 51 
Q 31.296875 53.328125 37.3125 53.328125 
Q 46.875 53.328125 52.921875 45.75 
Q 58.984375 38.1875 58.984375 25.984375 
Q 58.984375 13.765625 52.921875 6.171875 
Q 46.875 -1.421875 37.3125 -1.421875 
Q 31.296875 -1.421875 27.21875 0.890625 
Q 23.140625 3.21875 20.515625 8.109375 
L 20.515625 0 
L 2.875 0 
L 2.875 5.171875 
z
M 20.515625 23.390625 
Q 20.515625 14.015625 24.09375 9.109375 
Q 27.6875 4.203125 34.515625 4.203125 
Q 41.40625 4.203125 44.9375 9.71875 
Q 48.484375 15.234375 48.484375 25.984375 
Q 48.484375 36.765625 44.9375 42.234375 
Q 41.40625 47.703125 34.515625 47.703125 
Q 27.6875 47.703125 24.09375 42.765625 
Q 20.515625 37.84375 20.515625 28.515625 
z
" id="DejaVuSerif-98"/>
       <path d="M 39.796875 16.3125 
L 39.796875 27.296875 
L 28.21875 27.296875 
Q 21.53125 27.296875 18.25 24.40625 
Q 14.984375 21.53125 14.984375 15.578125 
Q 14.984375 10.15625 18.296875 6.984375 
Q 21.625 3.8125 27.296875 3.8125 
Q 32.90625 3.8125 36.34375 7.28125 
Q 39.796875 10.75 39.796875 16.3125 
z
M 48.78125 32.421875 
L 48.78125 5.171875 
L 56.78125 5.171875 
L 56.78125 0 
L 39.796875 0 
L 39.796875 5.609375 
Q 36.8125 2 32.90625 0.28125 
Q 29 -1.421875 23.78125 -1.421875 
Q 15.140625 -1.421875 10.0625 3.171875 
Q 4.984375 7.765625 4.984375 15.578125 
Q 4.984375 23.640625 10.796875 28.078125 
Q 16.609375 32.515625 27.203125 32.515625 
L 39.796875 32.515625 
L 39.796875 36.078125 
Q 39.796875 42 36.203125 45.234375 
Q 32.625 48.484375 26.125 48.484375 
Q 20.75 48.484375 17.578125 46.046875 
Q 14.40625 43.609375 13.625 38.8125 
L 8.984375 38.8125 
L 8.984375 49.3125 
Q 13.671875 51.3125 18.09375 52.3125 
Q 22.515625 53.328125 26.703125 53.328125 
Q 37.5 53.328125 43.140625 47.96875 
Q 48.78125 42.625 48.78125 32.421875 
z
" id="DejaVuSerif-97"/>
       <path d="M 51.421875 15.578125 
Q 49.515625 7.28125 44.09375 2.921875 
Q 38.671875 -1.421875 30.078125 -1.421875 
Q 18.75 -1.421875 11.859375 6.078125 
Q 4.984375 13.578125 4.984375 25.984375 
Q 4.984375 38.421875 11.859375 45.875 
Q 18.75 53.328125 30.078125 53.328125 
Q 35.015625 53.328125 39.890625 52.171875 
Q 44.78125 51.03125 49.703125 48.6875 
L 49.703125 35.40625 
L 44.484375 35.40625 
Q 43.453125 42.234375 40.015625 45.359375 
Q 36.578125 48.484375 30.171875 48.484375 
Q 22.90625 48.484375 19.1875 42.84375 
Q 15.484375 37.203125 15.484375 25.984375 
Q 15.484375 14.75 19.171875 9.078125 
Q 22.859375 3.421875 30.171875 3.421875 
Q 35.984375 3.421875 39.453125 6.4375 
Q 42.921875 9.46875 44.1875 15.578125 
z
" id="DejaVuSerif-99"/>
       <path d="M 28.609375 0 
L 3.421875 0 
L 3.421875 5.171875 
L 11.53125 5.171875 
L 11.53125 70.796875 
L 2.875 70.796875 
L 2.875 75.984375 
L 20.515625 75.984375 
L 20.515625 26.515625 
L 42.390625 46.6875 
L 34.90625 46.6875 
L 34.90625 51.90625 
L 58.40625 51.90625 
L 58.40625 46.6875 
L 49.515625 46.6875 
L 34.078125 32.421875 
L 53.8125 5.171875 
L 61.28125 5.171875 
L 61.28125 0 
L 35.6875 0 
L 35.6875 5.171875 
L 43.109375 5.171875 
L 27.59375 26.515625 
L 20.515625 19.921875 
L 20.515625 5.171875 
L 28.609375 5.171875 
z
" id="DejaVuSerif-107"/>
      </defs>
      <use xlink:href="#DejaVuSerif-98"/>
      <use x="64.013672" xlink:href="#DejaVuSerif-97"/>
      <use x="123.632812" xlink:href="#DejaVuSerif-99"/>
      <use x="179.638672" xlink:href="#DejaVuSerif-107"/>
     </g>
    </g>
    <g id="patch_9">
     <path d="M 180.734235 26.795565 
L 204.734235 26.795565 
L 204.734235 18.395565 
L 180.734235 18.395565 
z
" style="fill:#afe88e;stroke:#afe88e;stroke-linejoin:miter;"/>
    </g>
    <g id="text_2">
     <!-- front -->
     <g transform="translate(214.334235 26.795565)scale(0.12 -0.12)">
      <defs>
       <path d="M 43.015625 63.71875 
L 38.28125 63.71875 
Q 38.234375 67.390625 36.203125 69.28125 
Q 34.1875 71.1875 30.328125 71.1875 
Q 25.296875 71.1875 23.234375 68.421875 
Q 21.1875 65.671875 21.1875 58.59375 
L 21.1875 51.90625 
L 35.6875 51.90625 
L 35.6875 46.6875 
L 21.1875 46.6875 
L 21.1875 5.171875 
L 32.71875 5.171875 
L 32.71875 0 
L 3.609375 0 
L 3.609375 5.171875 
L 12.203125 5.171875 
L 12.203125 46.6875 
L 3.609375 46.6875 
L 3.609375 51.90625 
L 12.203125 51.90625 
L 12.203125 58.40625 
Q 12.203125 67.09375 16.71875 71.53125 
Q 21.234375 75.984375 29.984375 75.984375 
Q 33.25 75.984375 36.515625 75.390625 
Q 39.796875 74.8125 43.015625 73.578125 
z
" id="DejaVuSerif-102"/>
       <path d="M 47.796875 52 
L 47.796875 39.015625 
L 42.625 39.015625 
Q 42.390625 42.875 40.484375 44.78125 
Q 38.578125 46.6875 34.90625 46.6875 
Q 28.265625 46.6875 24.71875 42.09375 
Q 21.1875 37.5 21.1875 28.90625 
L 21.1875 5.171875 
L 31.59375 5.171875 
L 31.59375 0 
L 4.109375 0 
L 4.109375 5.171875 
L 12.203125 5.171875 
L 12.203125 46.78125 
L 3.609375 46.78125 
L 3.609375 51.90625 
L 21.1875 51.90625 
L 21.1875 42.671875 
Q 23.828125 48.09375 27.96875 50.703125 
Q 32.125 53.328125 38.09375 53.328125 
Q 40.28125 53.328125 42.703125 52.984375 
Q 45.125 52.640625 47.796875 52 
z
" id="DejaVuSerif-114"/>
       <path d="M 30.078125 3.421875 
Q 37.3125 3.421875 40.984375 9.125 
Q 44.671875 14.84375 44.671875 25.984375 
Q 44.671875 37.109375 40.984375 42.796875 
Q 37.3125 48.484375 30.078125 48.484375 
Q 22.859375 48.484375 19.171875 42.796875 
Q 15.484375 37.109375 15.484375 25.984375 
Q 15.484375 14.84375 19.1875 9.125 
Q 22.90625 3.421875 30.078125 3.421875 
z
M 30.078125 -1.421875 
Q 18.75 -1.421875 11.859375 6.078125 
Q 4.984375 13.578125 4.984375 25.984375 
Q 4.984375 38.375 11.84375 45.84375 
Q 18.703125 53.328125 30.078125 53.328125 
Q 41.453125 53.328125 48.3125 45.84375 
Q 55.171875 38.375 55.171875 25.984375 
Q 55.171875 13.578125 48.3125 6.078125 
Q 41.453125 -1.421875 30.078125 -1.421875 
z
" id="DejaVuSerif-111"/>
       <path d="M 4.109375 0 
L 4.109375 5.171875 
L 12.203125 5.171875 
L 12.203125 46.6875 
L 3.609375 46.6875 
L 3.609375 51.90625 
L 21.1875 51.90625 
L 21.1875 42.671875 
Q 23.6875 47.953125 27.65625 50.640625 
Q 31.640625 53.328125 36.921875 53.328125 
Q 45.515625 53.328125 49.5625 48.390625 
Q 53.609375 43.453125 53.609375 33.015625 
L 53.609375 5.171875 
L 61.625 5.171875 
L 61.625 0 
L 36.8125 0 
L 36.8125 5.171875 
L 44.578125 5.171875 
L 44.578125 30.171875 
Q 44.578125 39.703125 42.234375 43.234375 
Q 39.890625 46.78125 33.984375 46.78125 
Q 27.734375 46.78125 24.453125 42.203125 
Q 21.1875 37.640625 21.1875 28.90625 
L 21.1875 5.171875 
L 29 5.171875 
L 29 0 
z
" id="DejaVuSerif-110"/>
       <path d="M 10.796875 46.6875 
L 2.875 46.6875 
L 2.875 51.90625 
L 10.796875 51.90625 
L 10.796875 68.015625 
L 19.828125 68.015625 
L 19.828125 51.90625 
L 36.71875 51.90625 
L 36.71875 46.6875 
L 19.828125 46.6875 
L 19.828125 13.71875 
Q 19.828125 7.125 21.09375 5.265625 
Q 22.359375 3.421875 25.78125 3.421875 
Q 29.296875 3.421875 30.90625 5.484375 
Q 32.515625 7.5625 32.625 12.203125 
L 39.40625 12.203125 
Q 39.015625 5.125 35.546875 1.84375 
Q 32.078125 -1.421875 25 -1.421875 
Q 17.234375 -1.421875 14.015625 2.015625 
Q 10.796875 5.46875 10.796875 13.71875 
z
" id="DejaVuSerif-116"/>
      </defs>
      <use xlink:href="#DejaVuSerif-102"/>
      <use x="37.011719" xlink:href="#DejaVuSerif-114"/>
      <use x="84.814453" xlink:href="#DejaVuSerif-111"/>
      <use x="145.019531" xlink:href="#DejaVuSerif-110"/>
      <use x="209.423828" xlink:href="#DejaVuSerif-116"/>
     </g>
    </g>
   </g>
  </g>
 </g>
 <defs>
  <clipPath id="pde2328c958">
   <rect height="266.112" width="357.12" x="57.6" y="41.472"/>
  </clipPath>
 </defs>
</svg>
