<?xml version="1.0" encoding="utf-8" standalone="no"?>
<!DOCTYPE svg PUBLIC "-//W3C//DTD SVG 1.1//EN"
  "http://www.w3.org/Graphics/SVG/1.1/DTD/svg11.dtd">
<!-- Created with matplotlib (https://matplotlib.org/) -->
<svg height="345.6pt" version="1.1" viewBox="0 0 460.8 345.6" width="460.8pt" xmlns="http://www.w3.org/2000/svg" xmlns:xlink="http://www.w3.org/1999/xlink">
 <metadata>
  <rdf:RDF xmlns:cc="http://creativecommons.org/ns#" xmlns:dc="http://purl.org/dc/elements/1.1/" xmlns:rdf="http://www.w3.org/1999/02/22-rdf-syntax-ns#">
   <cc:Work>
    <dc:type rdf:resource="http://purl.org/dc/dcmitype/StillImage"/>
    <dc:date>2022-05-25T01:03:39.643784</dc:date>
    <dc:format>image/svg+xml</dc:format>
    <dc:creator>
     <cc:Agent>
      <dc:title>Matplotlib v3.3.4, https://matplotlib.org/</dc:title>
     </cc:Agent>
    </dc:creator>
   </cc:Work>
  </rdf:RDF>
 </metadata>
 <defs>
  <style type="text/css">*{stroke-linecap:butt;stroke-linejoin:round;}</style>
 </defs>
 <g id="figure_1">
  <g id="patch_1">
   <path d="M 0 345.6 
L 460.8 345.6 
L 460.8 0 
L 0 0 
z
" style="fill:#ffffff;"/>
  </g>
  <g id="axes_1">
   <g id="patch_2">
    <path d="M 57.6 307.584 
L 414.72 307.584 
L 414.72 41.472 
L 57.6 41.472 
z
" style="fill:#ffffff;"/>
   </g>
   <g id="PolyCollection_1">
    <defs>
     <path d="M 57.6 -38.016 
L 57.6 -279.936 
L 58.31424 -279.936 
L 59.02848 -279.936 
L 59.74272 -279.936 
L 60.45696 -279.936 
L 61.1712 -279.936 
L 61.88544 -279.936 
L 62.59968 -279.936 
L 63.31392 -279.936 
L 64.02816 -279.936 
L 64.7424 -279.936 
L 65.45664 -279.936 
L 66.17088 -279.936 
L 66.88512 -279.936 
L 67.59936 -279.935999 
L 68.3136 -279.935999 
L 69.02784 -279.935999 
L 69.74208 -279.935999 
L 70.45632 -279.935999 
L 71.17056 -279.935998 
L 71.8848 -279.935998 
L 72.59904 -279.935998 
L 73.31328 -279.935997 
L 74.02752 -279.935997 
L 74.74176 -279.935996 
L 75.456 -279.935995 
L 76.17024 -279.935994 
L 76.88448 -279.935993 
L 77.59872 -279.935991 
L 78.31296 -279.935989 
L 79.0272 -279.935987 
L 79.74144 -279.935984 
L 80.45568 -279.935981 
L 81.16992 -279.935977 
L 81.88416 -279.935973 
L 82.5984 -279.935968 
L 83.31264 -279.935961 
L 84.02688 -279.935954 
L 84.74112 -279.935945 
L 85.45536 -279.935934 
L 86.1696 -279.935922 
L 86.88384 -279.935907 
L 87.59808 -279.93589 
L 88.31232 -279.935869 
L 89.02656 -279.935845 
L 89.7408 -279.935817 
L 90.45504 -279.935784 
L 91.16928 -279.935745 
L 91.88352 -279.935699 
L 92.59776 -279.935646 
L 93.312 -279.935584 
L 94.02624 -279.935512 
L 94.74048 -279.935428 
L 95.45472 -279.93533 
L 96.16896 -279.935217 
L 96.8832 -279.935086 
L 97.59744 -279.934934 
L 98.31168 -279.934758 
L 99.02592 -279.934555 
L 99.74016 -279.934322 
L 100.4544 -279.934052 
L 101.16864 -279.933743 
L 101.88288 -279.933387 
L 102.59712 -279.93298 
L 103.31136 -279.932513 
L 104.0256 -279.931979 
L 104.73984 -279.931368 
L 105.45408 -279.930672 
L 106.16832 -279.929879 
L 106.88256 -279.928977 
L 107.5968 -279.927951 
L 108.31104 -279.926788 
L 109.02528 -279.925469 
L 109.73952 -279.923976 
L 110.45376 -279.922288 
L 111.168 -279.920383 
L 111.88224 -279.918235 
L 112.59648 -279.915817 
L 113.31072 -279.913098 
L 114.02496 -279.910044 
L 114.7392 -279.90662 
L 115.45344 -279.902784 
L 116.16768 -279.898494 
L 116.88192 -279.893701 
L 117.59616 -279.888355 
L 118.3104 -279.882398 
L 119.02464 -279.87577 
L 119.73888 -279.868404 
L 120.45312 -279.860231 
L 121.16736 -279.851172 
L 121.8816 -279.841145 
L 122.59584 -279.830062 
L 123.31008 -279.817826 
L 124.02432 -279.804336 
L 124.73856 -279.789484 
L 125.4528 -279.773152 
L 126.16704 -279.755217 
L 126.88128 -279.735547 
L 127.59552 -279.714004 
L 128.30976 -279.690438 
L 129.024 -279.664694 
L 129.73824 -279.636609 
L 130.45248 -279.606008 
L 131.16672 -279.57271 
L 131.88096 -279.536524 
L 132.5952 -279.497253 
L 133.30944 -279.454688 
L 134.02368 -279.408612 
L 134.73792 -279.358803 
L 135.45216 -279.305027 
L 136.1664 -279.247044 
L 136.88064 -279.184607 
L 137.59488 -279.11746 
L 138.30912 -279.045342 
L 139.02336 -278.967987 
L 139.7376 -278.885121 
L 140.45184 -278.796466 
L 141.16608 -278.701742 
L 141.88032 -278.600664 
L 142.59456 -278.492945 
L 143.3088 -278.378297 
L 144.02304 -278.256431 
L 144.73728 -278.127061 
L 145.45152 -277.989901 
L 146.16576 -277.844668 
L 146.88 -277.691085 
L 147.59424 -277.52888 
L 148.30848 -277.357787 
L 149.02272 -277.177551 
L 149.73696 -276.987923 
L 150.4512 -276.788669 
L 151.16544 -276.579565 
L 151.87968 -276.360401 
L 152.59392 -276.130984 
L 153.30816 -275.891136 
L 154.0224 -275.640696 
L 154.73664 -275.379524 
L 155.45088 -275.107499 
L 156.16512 -274.824521 
L 156.87936 -274.530513 
L 157.5936 -274.225418 
L 158.30784 -273.909206 
L 159.02208 -273.58187 
L 159.73632 -273.243426 
L 160.45056 -272.893917 
L 161.1648 -272.533409 
L 161.87904 -272.161994 
L 162.59328 -271.779786 
L 163.30752 -271.386927 
L 164.02176 -270.983576 
L 164.736 -270.569919 
L 165.45024 -270.146159 
L 166.16448 -269.712518 
L 166.87872 -269.269236 
L 167.59296 -268.816567 
L 168.3072 -268.354775 
L 169.02144 -267.884134 
L 169.73568 -267.404924 
L 170.44992 -266.917423 
L 171.16416 -266.421909 
L 171.8784 -265.91865 
L 172.59264 -265.407901 
L 173.30688 -264.889899 
L 174.02112 -264.364851 
L 174.73536 -263.832935 
L 175.4496 -263.294283 
L 176.16384 -262.748978 
L 176.87808 -262.197042 
L 177.59232 -261.638426 
L 178.30656 -261.072992 
L 179.0208 -260.50051 
L 179.73504 -259.920632 
L 180.44928 -259.332882 
L 181.16352 -258.736633 
L 181.87776 -258.131092 
L 182.592 -257.515271 
L 183.30624 -256.887962 
L 184.02048 -256.247715 
L 184.73472 -255.592799 
L 185.44896 -254.921171 
L 186.1632 -254.230438 
L 186.87744 -253.517814 
L 187.59168 -252.780074 
L 188.30592 -252.013505 
L 189.02016 -251.213851 
L 189.7344 -250.376254 
L 190.44864 -249.495194 
L 191.16288 -248.564422 
L 191.87712 -247.576895 
L 192.59136 -246.524705 
L 193.3056 -245.399015 
L 194.01984 -244.189991 
L 194.73408 -242.886754 
L 195.44832 -241.477327 
L 196.16256 -239.948613 
L 196.8768 -238.286396 
L 197.59104 -236.475363 
L 198.30528 -234.499188 
L 199.01952 -232.340657 
L 199.73376 -229.981859 
L 200.448 -227.404469 
L 201.16224 -224.590108 
L 201.87648 -221.520813 
L 202.59072 -218.179612 
L 203.30496 -214.551207 
L 204.0192 -210.622755 
L 204.73344 -206.384725 
L 205.44768 -201.831802 
L 206.16192 -196.963782 
L 206.87616 -191.786393 
L 207.5904 -186.311977 
L 208.30464 -180.559942 
L 209.01888 -174.556913 
L 209.73312 -168.336525 
L 210.44736 -161.93882 
L 211.1616 -155.409259 
L 211.87584 -148.797382 
L 212.59008 -142.155207 
L 213.30432 -135.535484 
L 214.01856 -128.989922 
L 214.7328 -122.567526 
L 215.44704 -116.313158 
L 216.16128 -110.266392 
L 216.87552 -104.46073 
L 217.58976 -98.923162 
L 218.304 -93.674077 
L 219.01824 -88.727453 
L 219.73248 -84.091286 
L 220.44672 -79.768178 
L 221.16096 -75.756031 
L 221.8752 -72.048783 
L 222.58944 -68.637154 
L 223.30368 -65.509343 
L 224.01792 -62.651685 
L 224.73216 -60.049224 
L 225.4464 -57.686214 
L 226.16064 -55.546535 
L 226.87488 -53.614043 
L 227.58912 -51.872841 
L 228.30336 -50.307492 
L 229.0176 -48.903175 
L 229.73184 -47.645801 
L 230.44608 -46.522082 
L 231.16032 -45.519577 
L 231.87456 -44.626705 
L 232.5888 -43.832749 
L 233.30304 -43.127832 
L 234.01728 -42.502891 
L 234.73152 -41.949643 
L 235.44576 -41.46054 
L 236.16 -41.028729 
L 236.87424 -40.647998 
L 237.58848 -40.312739 
L 238.30272 -40.017894 
L 239.01696 -39.758915 
L 239.7312 -39.531719 
L 240.44544 -39.332649 
L 241.15968 -39.158432 
L 241.87392 -39.006149 
L 242.58816 -38.873198 
L 243.3024 -38.757261 
L 244.01664 -38.656281 
L 244.73088 -38.568433 
L 245.44512 -38.492098 
L 246.15936 -38.425846 
L 246.8736 -38.368413 
L 247.58784 -38.318683 
L 248.30208 -38.275674 
L 249.01632 -38.238522 
L 249.73056 -38.206467 
L 250.4448 -38.178842 
L 251.15904 -38.155064 
L 251.87328 -38.13462 
L 252.58752 -38.117065 
L 253.30176 -38.102008 
L 254.016 -38.08911 
L 254.73024 -38.078073 
L 255.44448 -38.068641 
L 256.15872 -38.06059 
L 256.87296 -38.053726 
L 257.5872 -38.047881 
L 258.30144 -38.04291 
L 259.01568 -38.038687 
L 259.72992 -38.035104 
L 260.44416 -38.032068 
L 261.1584 -38.029499 
L 261.87264 -38.027326 
L 262.58688 -38.025492 
L 263.30112 -38.023946 
L 264.01536 -38.022643 
L 264.7296 -38.021548 
L 265.44384 -38.020627 
L 266.15808 -38.019855 
L 266.87232 -38.019208 
L 267.58656 -38.018666 
L 268.3008 -38.018213 
L 269.01504 -38.017835 
L 269.72928 -38.017519 
L 270.44352 -38.017256 
L 271.15776 -38.017038 
L 271.872 -38.016856 
L 272.58624 -38.016706 
L 273.30048 -38.016581 
L 274.01472 -38.016477 
L 274.72896 -38.016392 
L 275.4432 -38.016321 
L 276.15744 -38.016263 
L 276.87168 -38.016215 
L 277.58592 -38.016176 
L 278.30016 -38.016144 
L 279.0144 -38.016117 
L 279.72864 -38.016095 
L 280.44288 -38.016077 
L 281.15712 -38.016063 
L 281.87136 -38.016051 
L 282.5856 -38.016041 
L 283.29984 -38.016033 
L 284.01408 -38.016027 
L 284.72832 -38.016022 
L 285.44256 -38.016018 
L 286.1568 -38.016014 
L 286.87104 -38.016011 
L 287.58528 -38.016009 
L 288.29952 -38.016007 
L 289.01376 -38.016006 
L 289.728 -38.016005 
L 290.44224 -38.016004 
L 291.15648 -38.016003 
L 291.87072 -38.016002 
L 292.58496 -38.016002 
L 293.2992 -38.016002 
L 294.01344 -38.016001 
L 294.72768 -38.016001 
L 295.44192 -38.016001 
L 296.15616 -38.016001 
L 296.8704 -38.016 
L 297.58464 -38.016 
L 298.29888 -38.016 
L 299.01312 -38.016 
L 299.72736 -38.016 
L 300.4416 -38.016 
L 301.15584 -38.016 
L 301.87008 -38.016 
L 302.58432 -38.016 
L 303.29856 -38.016 
L 304.0128 -38.016 
L 304.72704 -38.016 
L 305.44128 -38.016 
L 306.15552 -38.016 
L 306.86976 -38.016 
L 307.584 -38.016 
L 308.29824 -38.016 
L 309.01248 -38.016 
L 309.72672 -38.016 
L 310.44096 -38.016 
L 311.1552 -38.016 
L 311.86944 -38.016 
L 312.58368 -38.016 
L 313.29792 -38.016 
L 314.01216 -38.016 
L 314.7264 -38.016 
L 315.44064 -38.016 
L 316.15488 -38.016 
L 316.86912 -38.016 
L 317.58336 -38.016 
L 318.2976 -38.016 
L 319.01184 -38.016 
L 319.72608 -38.016 
L 320.44032 -38.016 
L 321.15456 -38.016 
L 321.8688 -38.016 
L 322.58304 -38.016 
L 323.29728 -38.016 
L 324.01152 -38.016 
L 324.72576 -38.016 
L 325.44 -38.016 
L 326.15424 -38.016 
L 326.86848 -38.016 
L 327.58272 -38.016 
L 328.29696 -38.016 
L 329.0112 -38.016 
L 329.72544 -38.016 
L 330.43968 -38.016 
L 331.15392 -38.016 
L 331.86816 -38.016 
L 332.5824 -38.016 
L 333.29664 -38.016 
L 334.01088 -38.016 
L 334.72512 -38.016 
L 335.43936 -38.016 
L 336.1536 -38.016 
L 336.86784 -38.016 
L 337.58208 -38.016 
L 338.29632 -38.016 
L 339.01056 -38.016 
L 339.7248 -38.016 
L 340.43904 -38.016 
L 341.15328 -38.016 
L 341.86752 -38.016 
L 342.58176 -38.016 
L 343.296 -38.016 
L 344.01024 -38.016 
L 344.72448 -38.016 
L 345.43872 -38.016 
L 346.15296 -38.016 
L 346.8672 -38.016 
L 347.58144 -38.016 
L 348.29568 -38.016 
L 349.00992 -38.016 
L 349.72416 -38.016 
L 350.4384 -38.016 
L 351.15264 -38.016 
L 351.86688 -38.016 
L 352.58112 -38.016 
L 353.29536 -38.016 
L 354.0096 -38.016 
L 354.72384 -38.016 
L 355.43808 -38.016 
L 356.15232 -38.016 
L 356.86656 -38.016 
L 357.5808 -38.016 
L 358.29504 -38.016 
L 359.00928 -38.016 
L 359.72352 -38.016 
L 360.43776 -38.016 
L 361.152 -38.016 
L 361.86624 -38.016 
L 362.58048 -38.016 
L 363.29472 -38.016 
L 364.00896 -38.016 
L 364.7232 -38.016 
L 365.43744 -38.016 
L 366.15168 -38.016 
L 366.86592 -38.016 
L 367.58016 -38.016 
L 368.2944 -38.016 
L 369.00864 -38.016 
L 369.72288 -38.016 
L 370.43712 -38.016 
L 371.15136 -38.016 
L 371.8656 -38.016 
L 372.57984 -38.016 
L 373.29408 -38.016 
L 374.00832 -38.016 
L 374.72256 -38.016 
L 375.4368 -38.016 
L 376.15104 -38.016 
L 376.86528 -38.016 
L 377.57952 -38.016 
L 378.29376 -38.016 
L 379.008 -38.016 
L 379.72224 -38.016 
L 380.43648 -38.016 
L 381.15072 -38.016 
L 381.86496 -38.016 
L 382.5792 -38.016 
L 383.29344 -38.016 
L 384.00768 -38.016 
L 384.72192 -38.016 
L 385.43616 -38.016 
L 386.1504 -38.016 
L 386.86464 -38.016 
L 387.57888 -38.016 
L 388.29312 -38.016 
L 389.00736 -38.016 
L 389.7216 -38.016 
L 390.43584 -38.016 
L 391.15008 -38.016 
L 391.86432 -38.016 
L 392.57856 -38.016 
L 393.2928 -38.016 
L 394.00704 -38.016 
L 394.72128 -38.016 
L 395.43552 -38.016 
L 396.14976 -38.016 
L 396.864 -38.016 
L 397.57824 -38.016 
L 398.29248 -38.016 
L 399.00672 -38.016 
L 399.72096 -38.016 
L 400.4352 -38.016 
L 401.14944 -38.016 
L 401.86368 -38.016 
L 402.57792 -38.016 
L 403.29216 -38.016 
L 404.0064 -38.016 
L 404.72064 -38.016 
L 405.43488 -38.016 
L 406.14912 -38.016 
L 406.86336 -38.016 
L 407.5776 -38.016 
L 408.29184 -38.016 
L 409.00608 -38.016 
L 409.72032 -38.016 
L 410.43456 -38.016 
L 411.1488 -38.016 
L 411.86304 -38.016 
L 412.57728 -38.016 
L 413.29152 -38.016 
L 414.00576 -38.016 
L 414.72 -38.016 
L 414.72 -38.016 
L 414.72 -38.016 
L 414.00576 -38.016 
L 413.29152 -38.016 
L 412.57728 -38.016 
L 411.86304 -38.016 
L 411.1488 -38.016 
L 410.43456 -38.016 
L 409.72032 -38.016 
L 409.00608 -38.016 
L 408.29184 -38.016 
L 407.5776 -38.016 
L 406.86336 -38.016 
L 406.14912 -38.016 
L 405.43488 -38.016 
L 404.72064 -38.016 
L 404.0064 -38.016 
L 403.29216 -38.016 
L 402.57792 -38.016 
L 401.86368 -38.016 
L 401.14944 -38.016 
L 400.4352 -38.016 
L 399.72096 -38.016 
L 399.00672 -38.016 
L 398.29248 -38.016 
L 397.57824 -38.016 
L 396.864 -38.016 
L 396.14976 -38.016 
L 395.43552 -38.016 
L 394.72128 -38.016 
L 394.00704 -38.016 
L 393.2928 -38.016 
L 392.57856 -38.016 
L 391.86432 -38.016 
L 391.15008 -38.016 
L 390.43584 -38.016 
L 389.7216 -38.016 
L 389.00736 -38.016 
L 388.29312 -38.016 
L 387.57888 -38.016 
L 386.86464 -38.016 
L 386.1504 -38.016 
L 385.43616 -38.016 
L 384.72192 -38.016 
L 384.00768 -38.016 
L 383.29344 -38.016 
L 382.5792 -38.016 
L 381.86496 -38.016 
L 381.15072 -38.016 
L 380.43648 -38.016 
L 379.72224 -38.016 
L 379.008 -38.016 
L 378.29376 -38.016 
L 377.57952 -38.016 
L 376.86528 -38.016 
L 376.15104 -38.016 
L 375.4368 -38.016 
L 374.72256 -38.016 
L 374.00832 -38.016 
L 373.29408 -38.016 
L 372.57984 -38.016 
L 371.8656 -38.016 
L 371.15136 -38.016 
L 370.43712 -38.016 
L 369.72288 -38.016 
L 369.00864 -38.016 
L 368.2944 -38.016 
L 367.58016 -38.016 
L 366.86592 -38.016 
L 366.15168 -38.016 
L 365.43744 -38.016 
L 364.7232 -38.016 
L 364.00896 -38.016 
L 363.29472 -38.016 
L 362.58048 -38.016 
L 361.86624 -38.016 
L 361.152 -38.016 
L 360.43776 -38.016 
L 359.72352 -38.016 
L 359.00928 -38.016 
L 358.29504 -38.016 
L 357.5808 -38.016 
L 356.86656 -38.016 
L 356.15232 -38.016 
L 355.43808 -38.016 
L 354.72384 -38.016 
L 354.0096 -38.016 
L 353.29536 -38.016 
L 352.58112 -38.016 
L 351.86688 -38.016 
L 351.15264 -38.016 
L 350.4384 -38.016 
L 349.72416 -38.016 
L 349.00992 -38.016 
L 348.29568 -38.016 
L 347.58144 -38.016 
L 346.8672 -38.016 
L 346.15296 -38.016 
L 345.43872 -38.016 
L 344.72448 -38.016 
L 344.01024 -38.016 
L 343.296 -38.016 
L 342.58176 -38.016 
L 341.86752 -38.016 
L 341.15328 -38.016 
L 340.43904 -38.016 
L 339.7248 -38.016 
L 339.01056 -38.016 
L 338.29632 -38.016 
L 337.58208 -38.016 
L 336.86784 -38.016 
L 336.1536 -38.016 
L 335.43936 -38.016 
L 334.72512 -38.016 
L 334.01088 -38.016 
L 333.29664 -38.016 
L 332.5824 -38.016 
L 331.86816 -38.016 
L 331.15392 -38.016 
L 330.43968 -38.016 
L 329.72544 -38.016 
L 329.0112 -38.016 
L 328.29696 -38.016 
L 327.58272 -38.016 
L 326.86848 -38.016 
L 326.15424 -38.016 
L 325.44 -38.016 
L 324.72576 -38.016 
L 324.01152 -38.016 
L 323.29728 -38.016 
L 322.58304 -38.016 
L 321.8688 -38.016 
L 321.15456 -38.016 
L 320.44032 -38.016 
L 319.72608 -38.016 
L 319.01184 -38.016 
L 318.2976 -38.016 
L 317.58336 -38.016 
L 316.86912 -38.016 
L 316.15488 -38.016 
L 315.44064 -38.016 
L 314.7264 -38.016 
L 314.01216 -38.016 
L 313.29792 -38.016 
L 312.58368 -38.016 
L 311.86944 -38.016 
L 311.1552 -38.016 
L 310.44096 -38.016 
L 309.72672 -38.016 
L 309.01248 -38.016 
L 308.29824 -38.016 
L 307.584 -38.016 
L 306.86976 -38.016 
L 306.15552 -38.016 
L 305.44128 -38.016 
L 304.72704 -38.016 
L 304.0128 -38.016 
L 303.29856 -38.016 
L 302.58432 -38.016 
L 301.87008 -38.016 
L 301.15584 -38.016 
L 300.4416 -38.016 
L 299.72736 -38.016 
L 299.01312 -38.016 
L 298.29888 -38.016 
L 297.58464 -38.016 
L 296.8704 -38.016 
L 296.15616 -38.016 
L 295.44192 -38.016 
L 294.72768 -38.016 
L 294.01344 -38.016 
L 293.2992 -38.016 
L 292.58496 -38.016 
L 291.87072 -38.016 
L 291.15648 -38.016 
L 290.44224 -38.016 
L 289.728 -38.016 
L 289.01376 -38.016 
L 288.29952 -38.016 
L 287.58528 -38.016 
L 286.87104 -38.016 
L 286.1568 -38.016 
L 285.44256 -38.016 
L 284.72832 -38.016 
L 284.01408 -38.016 
L 283.29984 -38.016 
L 282.5856 -38.016 
L 281.87136 -38.016 
L 281.15712 -38.016 
L 280.44288 -38.016 
L 279.72864 -38.016 
L 279.0144 -38.016 
L 278.30016 -38.016 
L 277.58592 -38.016 
L 276.87168 -38.016 
L 276.15744 -38.016 
L 275.4432 -38.016 
L 274.72896 -38.016 
L 274.01472 -38.016 
L 273.30048 -38.016 
L 272.58624 -38.016 
L 271.872 -38.016 
L 271.15776 -38.016 
L 270.44352 -38.016 
L 269.72928 -38.016 
L 269.01504 -38.016 
L 268.3008 -38.016 
L 267.58656 -38.016 
L 266.87232 -38.016 
L 266.15808 -38.016 
L 265.44384 -38.016 
L 264.7296 -38.016 
L 264.01536 -38.016 
L 263.30112 -38.016 
L 262.58688 -38.016 
L 261.87264 -38.016 
L 261.1584 -38.016 
L 260.44416 -38.016 
L 259.72992 -38.016 
L 259.01568 -38.016 
L 258.30144 -38.016 
L 257.5872 -38.016 
L 256.87296 -38.016 
L 256.15872 -38.016 
L 255.44448 -38.016 
L 254.73024 -38.016 
L 254.016 -38.016 
L 253.30176 -38.016 
L 252.58752 -38.016 
L 251.87328 -38.016 
L 251.15904 -38.016 
L 250.4448 -38.016 
L 249.73056 -38.016 
L 249.01632 -38.016 
L 248.30208 -38.016 
L 247.58784 -38.016 
L 246.8736 -38.016 
L 246.15936 -38.016 
L 245.44512 -38.016 
L 244.73088 -38.016 
L 244.01664 -38.016 
L 243.3024 -38.016 
L 242.58816 -38.016 
L 241.87392 -38.016 
L 241.15968 -38.016 
L 240.44544 -38.016 
L 239.7312 -38.016 
L 239.01696 -38.016 
L 238.30272 -38.016 
L 237.58848 -38.016 
L 236.87424 -38.016 
L 236.16 -38.016 
L 235.44576 -38.016 
L 234.73152 -38.016 
L 234.01728 -38.016 
L 233.30304 -38.016 
L 232.5888 -38.016 
L 231.87456 -38.016 
L 231.16032 -38.016 
L 230.44608 -38.016 
L 229.73184 -38.016 
L 229.0176 -38.016 
L 228.30336 -38.016 
L 227.58912 -38.016 
L 226.87488 -38.016 
L 226.16064 -38.016 
L 225.4464 -38.016 
L 224.73216 -38.016 
L 224.01792 -38.016 
L 223.30368 -38.016 
L 222.58944 -38.016 
L 221.8752 -38.016 
L 221.16096 -38.016 
L 220.44672 -38.016 
L 219.73248 -38.016 
L 219.01824 -38.016 
L 218.304 -38.016 
L 217.58976 -38.016 
L 216.87552 -38.016 
L 216.16128 -38.016 
L 215.44704 -38.016 
L 214.7328 -38.016 
L 214.01856 -38.016 
L 213.30432 -38.016 
L 212.59008 -38.016 
L 211.87584 -38.016 
L 211.1616 -38.016 
L 210.44736 -38.016 
L 209.73312 -38.016 
L 209.01888 -38.016 
L 208.30464 -38.016 
L 207.5904 -38.016 
L 206.87616 -38.016 
L 206.16192 -38.016 
L 205.44768 -38.016 
L 204.73344 -38.016 
L 204.0192 -38.016 
L 203.30496 -38.016 
L 202.59072 -38.016 
L 201.87648 -38.016 
L 201.16224 -38.016 
L 200.448 -38.016 
L 199.73376 -38.016 
L 199.01952 -38.016 
L 198.30528 -38.016 
L 197.59104 -38.016 
L 196.8768 -38.016 
L 196.16256 -38.016 
L 195.44832 -38.016 
L 194.73408 -38.016 
L 194.01984 -38.016 
L 193.3056 -38.016 
L 192.59136 -38.016 
L 191.87712 -38.016 
L 191.16288 -38.016 
L 190.44864 -38.016 
L 189.7344 -38.016 
L 189.02016 -38.016 
L 188.30592 -38.016 
L 187.59168 -38.016 
L 186.87744 -38.016 
L 186.1632 -38.016 
L 185.44896 -38.016 
L 184.73472 -38.016 
L 184.02048 -38.016 
L 183.30624 -38.016 
L 182.592 -38.016 
L 181.87776 -38.016 
L 181.16352 -38.016 
L 180.44928 -38.016 
L 179.73504 -38.016 
L 179.0208 -38.016 
L 178.30656 -38.016 
L 177.59232 -38.016 
L 176.87808 -38.016 
L 176.16384 -38.016 
L 175.4496 -38.016 
L 174.73536 -38.016 
L 174.02112 -38.016 
L 173.30688 -38.016 
L 172.59264 -38.016 
L 171.8784 -38.016 
L 171.16416 -38.016 
L 170.44992 -38.016 
L 169.73568 -38.016 
L 169.02144 -38.016 
L 168.3072 -38.016 
L 167.59296 -38.016 
L 166.87872 -38.016 
L 166.16448 -38.016 
L 165.45024 -38.016 
L 164.736 -38.016 
L 164.02176 -38.016 
L 163.30752 -38.016 
L 162.59328 -38.016 
L 161.87904 -38.016 
L 161.1648 -38.016 
L 160.45056 -38.016 
L 159.73632 -38.016 
L 159.02208 -38.016 
L 158.30784 -38.016 
L 157.5936 -38.016 
L 156.87936 -38.016 
L 156.16512 -38.016 
L 155.45088 -38.016 
L 154.73664 -38.016 
L 154.0224 -38.016 
L 153.30816 -38.016 
L 152.59392 -38.016 
L 151.87968 -38.016 
L 151.16544 -38.016 
L 150.4512 -38.016 
L 149.73696 -38.016 
L 149.02272 -38.016 
L 148.30848 -38.016 
L 147.59424 -38.016 
L 146.88 -38.016 
L 146.16576 -38.016 
L 145.45152 -38.016 
L 144.73728 -38.016 
L 144.02304 -38.016 
L 143.3088 -38.016 
L 142.59456 -38.016 
L 141.88032 -38.016 
L 141.16608 -38.016 
L 140.45184 -38.016 
L 139.7376 -38.016 
L 139.02336 -38.016 
L 138.30912 -38.016 
L 137.59488 -38.016 
L 136.88064 -38.016 
L 136.1664 -38.016 
L 135.45216 -38.016 
L 134.73792 -38.016 
L 134.02368 -38.016 
L 133.30944 -38.016 
L 132.5952 -38.016 
L 131.88096 -38.016 
L 131.16672 -38.016 
L 130.45248 -38.016 
L 129.73824 -38.016 
L 129.024 -38.016 
L 128.30976 -38.016 
L 127.59552 -38.016 
L 126.88128 -38.016 
L 126.16704 -38.016 
L 125.4528 -38.016 
L 124.73856 -38.016 
L 124.02432 -38.016 
L 123.31008 -38.016 
L 122.59584 -38.016 
L 121.8816 -38.016 
L 121.16736 -38.016 
L 120.45312 -38.016 
L 119.73888 -38.016 
L 119.02464 -38.016 
L 118.3104 -38.016 
L 117.59616 -38.016 
L 116.88192 -38.016 
L 116.16768 -38.016 
L 115.45344 -38.016 
L 114.7392 -38.016 
L 114.02496 -38.016 
L 113.31072 -38.016 
L 112.59648 -38.016 
L 111.88224 -38.016 
L 111.168 -38.016 
L 110.45376 -38.016 
L 109.73952 -38.016 
L 109.02528 -38.016 
L 108.31104 -38.016 
L 107.5968 -38.016 
L 106.88256 -38.016 
L 106.16832 -38.016 
L 105.45408 -38.016 
L 104.73984 -38.016 
L 104.0256 -38.016 
L 103.31136 -38.016 
L 102.59712 -38.016 
L 101.88288 -38.016 
L 101.16864 -38.016 
L 100.4544 -38.016 
L 99.74016 -38.016 
L 99.02592 -38.016 
L 98.31168 -38.016 
L 97.59744 -38.016 
L 96.8832 -38.016 
L 96.16896 -38.016 
L 95.45472 -38.016 
L 94.74048 -38.016 
L 94.02624 -38.016 
L 93.312 -38.016 
L 92.59776 -38.016 
L 91.88352 -38.016 
L 91.16928 -38.016 
L 90.45504 -38.016 
L 89.7408 -38.016 
L 89.02656 -38.016 
L 88.31232 -38.016 
L 87.59808 -38.016 
L 86.88384 -38.016 
L 86.1696 -38.016 
L 85.45536 -38.016 
L 84.74112 -38.016 
L 84.02688 -38.016 
L 83.31264 -38.016 
L 82.5984 -38.016 
L 81.88416 -38.016 
L 81.16992 -38.016 
L 80.45568 -38.016 
L 79.74144 -38.016 
L 79.0272 -38.016 
L 78.31296 -38.016 
L 77.59872 -38.016 
L 76.88448 -38.016 
L 76.17024 -38.016 
L 75.456 -38.016 
L 74.74176 -38.016 
L 74.02752 -38.016 
L 73.31328 -38.016 
L 72.59904 -38.016 
L 71.8848 -38.016 
L 71.17056 -38.016 
L 70.45632 -38.016 
L 69.74208 -38.016 
L 69.02784 -38.016 
L 68.3136 -38.016 
L 67.59936 -38.016 
L 66.88512 -38.016 
L 66.17088 -38.016 
L 65.45664 -38.016 
L 64.7424 -38.016 
L 64.02816 -38.016 
L 63.31392 -38.016 
L 62.59968 -38.016 
L 61.88544 -38.016 
L 61.1712 -38.016 
L 60.45696 -38.016 
L 59.74272 -38.016 
L 59.02848 -38.016 
L 58.31424 -38.016 
L 57.6 -38.016 
z
" id="macd6920a7c" style="stroke:#509369;"/>
    </defs>
    <g clip-path="url(#pee1caa311e)">
     <use style="fill:#509369;stroke:#509369;" x="0" xlink:href="#macd6920a7c" y="345.6"/>
    </g>
   </g>
   <g id="PolyCollection_2">
    <defs>
     <path d="M 57.6 -279.936 
L 57.6 -279.936 
L 58.31424 -279.936 
L 59.02848 -279.936 
L 59.74272 -279.936 
L 60.45696 -279.936 
L 61.1712 -279.936 
L 61.88544 -279.936 
L 62.59968 -279.936 
L 63.31392 -279.936 
L 64.02816 -279.936 
L 64.7424 -279.936 
L 65.45664 -279.936 
L 66.17088 -279.936 
L 66.88512 -279.936 
L 67.59936 -279.935999 
L 68.3136 -279.935999 
L 69.02784 -279.935999 
L 69.74208 -279.935999 
L 70.45632 -279.935999 
L 71.17056 -279.935998 
L 71.8848 -279.935998 
L 72.59904 -279.935998 
L 73.31328 -279.935997 
L 74.02752 -279.935997 
L 74.74176 -279.935996 
L 75.456 -279.935995 
L 76.17024 -279.935994 
L 76.88448 -279.935993 
L 77.59872 -279.935991 
L 78.31296 -279.935989 
L 79.0272 -279.935987 
L 79.74144 -279.935984 
L 80.45568 -279.935981 
L 81.16992 -279.935977 
L 81.88416 -279.935973 
L 82.5984 -279.935968 
L 83.31264 -279.935961 
L 84.02688 -279.935954 
L 84.74112 -279.935945 
L 85.45536 -279.935934 
L 86.1696 -279.935922 
L 86.88384 -279.935907 
L 87.59808 -279.93589 
L 88.31232 -279.935869 
L 89.02656 -279.935845 
L 89.7408 -279.935817 
L 90.45504 -279.935784 
L 91.16928 -279.935745 
L 91.88352 -279.935699 
L 92.59776 -279.935646 
L 93.312 -279.935584 
L 94.02624 -279.935512 
L 94.74048 -279.935428 
L 95.45472 -279.93533 
L 96.16896 -279.935217 
L 96.8832 -279.935086 
L 97.59744 -279.934934 
L 98.31168 -279.934758 
L 99.02592 -279.934555 
L 99.74016 -279.934322 
L 100.4544 -279.934052 
L 101.16864 -279.933743 
L 101.88288 -279.933387 
L 102.59712 -279.93298 
L 103.31136 -279.932513 
L 104.0256 -279.931979 
L 104.73984 -279.931368 
L 105.45408 -279.930672 
L 106.16832 -279.929879 
L 106.88256 -279.928977 
L 107.5968 -279.927951 
L 108.31104 -279.926788 
L 109.02528 -279.925469 
L 109.73952 -279.923976 
L 110.45376 -279.922288 
L 111.168 -279.920383 
L 111.88224 -279.918235 
L 112.59648 -279.915817 
L 113.31072 -279.913098 
L 114.02496 -279.910044 
L 114.7392 -279.90662 
L 115.45344 -279.902784 
L 116.16768 -279.898494 
L 116.88192 -279.893701 
L 117.59616 -279.888355 
L 118.3104 -279.882398 
L 119.02464 -279.87577 
L 119.73888 -279.868404 
L 120.45312 -279.860231 
L 121.16736 -279.851172 
L 121.8816 -279.841145 
L 122.59584 -279.830062 
L 123.31008 -279.817826 
L 124.02432 -279.804336 
L 124.73856 -279.789484 
L 125.4528 -279.773152 
L 126.16704 -279.755217 
L 126.88128 -279.735547 
L 127.59552 -279.714004 
L 128.30976 -279.690438 
L 129.024 -279.664694 
L 129.73824 -279.636609 
L 130.45248 -279.606008 
L 131.16672 -279.57271 
L 131.88096 -279.536524 
L 132.5952 -279.497253 
L 133.30944 -279.454688 
L 134.02368 -279.408612 
L 134.73792 -279.358803 
L 135.45216 -279.305027 
L 136.1664 -279.247044 
L 136.88064 -279.184607 
L 137.59488 -279.11746 
L 138.30912 -279.045342 
L 139.02336 -278.967987 
L 139.7376 -278.885121 
L 140.45184 -278.796466 
L 141.16608 -278.701742 
L 141.88032 -278.600664 
L 142.59456 -278.492945 
L 143.3088 -278.378297 
L 144.02304 -278.256431 
L 144.73728 -278.127061 
L 145.45152 -277.989901 
L 146.16576 -277.844668 
L 146.88 -277.691085 
L 147.59424 -277.52888 
L 148.30848 -277.357787 
L 149.02272 -277.177551 
L 149.73696 -276.987923 
L 150.4512 -276.788669 
L 151.16544 -276.579565 
L 151.87968 -276.360401 
L 152.59392 -276.130984 
L 153.30816 -275.891136 
L 154.0224 -275.640696 
L 154.73664 -275.379524 
L 155.45088 -275.107499 
L 156.16512 -274.824521 
L 156.87936 -274.530513 
L 157.5936 -274.225418 
L 158.30784 -273.909206 
L 159.02208 -273.58187 
L 159.73632 -273.243426 
L 160.45056 -272.893917 
L 161.1648 -272.533409 
L 161.87904 -272.161994 
L 162.59328 -271.779786 
L 163.30752 -271.386927 
L 164.02176 -270.983576 
L 164.736 -270.569919 
L 165.45024 -270.146159 
L 166.16448 -269.712518 
L 166.87872 -269.269236 
L 167.59296 -268.816567 
L 168.3072 -268.354775 
L 169.02144 -267.884134 
L 169.73568 -267.404924 
L 170.44992 -266.917423 
L 171.16416 -266.421909 
L 171.8784 -265.91865 
L 172.59264 -265.407901 
L 173.30688 -264.889899 
L 174.02112 -264.364851 
L 174.73536 -263.832935 
L 175.4496 -263.294283 
L 176.16384 -262.748978 
L 176.87808 -262.197042 
L 177.59232 -261.638426 
L 178.30656 -261.072992 
L 179.0208 -260.50051 
L 179.73504 -259.920632 
L 180.44928 -259.332882 
L 181.16352 -258.736633 
L 181.87776 -258.131092 
L 182.592 -257.515271 
L 183.30624 -256.887962 
L 184.02048 -256.247715 
L 184.73472 -255.592799 
L 185.44896 -254.921171 
L 186.1632 -254.230438 
L 186.87744 -253.517814 
L 187.59168 -252.780074 
L 188.30592 -252.013505 
L 189.02016 -251.213851 
L 189.7344 -250.376254 
L 190.44864 -249.495194 
L 191.16288 -248.564422 
L 191.87712 -247.576895 
L 192.59136 -246.524705 
L 193.3056 -245.399015 
L 194.01984 -244.189991 
L 194.73408 -242.886754 
L 195.44832 -241.477327 
L 196.16256 -239.948613 
L 196.8768 -238.286396 
L 197.59104 -236.475363 
L 198.30528 -234.499188 
L 199.01952 -232.340657 
L 199.73376 -229.981859 
L 200.448 -227.404469 
L 201.16224 -224.590108 
L 201.87648 -221.520813 
L 202.59072 -218.179612 
L 203.30496 -214.551207 
L 204.0192 -210.622755 
L 204.73344 -206.384725 
L 205.44768 -201.831802 
L 206.16192 -196.963782 
L 206.87616 -191.786393 
L 207.5904 -186.311977 
L 208.30464 -180.559942 
L 209.01888 -174.556913 
L 209.73312 -168.336525 
L 210.44736 -161.93882 
L 211.1616 -155.409259 
L 211.87584 -148.797382 
L 212.59008 -142.155207 
L 213.30432 -135.535484 
L 214.01856 -128.989922 
L 214.7328 -122.567526 
L 215.44704 -116.313158 
L 216.16128 -110.266392 
L 216.87552 -104.46073 
L 217.58976 -98.923162 
L 218.304 -93.674077 
L 219.01824 -88.727453 
L 219.73248 -84.091286 
L 220.44672 -79.768178 
L 221.16096 -75.756031 
L 221.8752 -72.048783 
L 222.58944 -68.637154 
L 223.30368 -65.509343 
L 224.01792 -62.651685 
L 224.73216 -60.049224 
L 225.4464 -57.686214 
L 226.16064 -55.546535 
L 226.87488 -53.614043 
L 227.58912 -51.872841 
L 228.30336 -50.307492 
L 229.0176 -48.903175 
L 229.73184 -47.645801 
L 230.44608 -46.522082 
L 231.16032 -45.519577 
L 231.87456 -44.626705 
L 232.5888 -43.832749 
L 233.30304 -43.127832 
L 234.01728 -42.502891 
L 234.73152 -41.949643 
L 235.44576 -41.46054 
L 236.16 -41.028729 
L 236.87424 -40.647998 
L 237.58848 -40.312739 
L 238.30272 -40.017894 
L 239.01696 -39.758915 
L 239.7312 -39.531719 
L 240.44544 -39.332649 
L 241.15968 -39.158432 
L 241.87392 -39.006149 
L 242.58816 -38.873198 
L 243.3024 -38.757261 
L 244.01664 -38.656281 
L 244.73088 -38.568433 
L 245.44512 -38.492098 
L 246.15936 -38.425846 
L 246.8736 -38.368413 
L 247.58784 -38.318683 
L 248.30208 -38.275674 
L 249.01632 -38.238522 
L 249.73056 -38.206467 
L 250.4448 -38.178842 
L 251.15904 -38.155064 
L 251.87328 -38.13462 
L 252.58752 -38.117065 
L 253.30176 -38.102008 
L 254.016 -38.08911 
L 254.73024 -38.078073 
L 255.44448 -38.068641 
L 256.15872 -38.06059 
L 256.87296 -38.053726 
L 257.5872 -38.047881 
L 258.30144 -38.04291 
L 259.01568 -38.038687 
L 259.72992 -38.035104 
L 260.44416 -38.032068 
L 261.1584 -38.029499 
L 261.87264 -38.027326 
L 262.58688 -38.025492 
L 263.30112 -38.023946 
L 264.01536 -38.022643 
L 264.7296 -38.021548 
L 265.44384 -38.020627 
L 266.15808 -38.019855 
L 266.87232 -38.019208 
L 267.58656 -38.018666 
L 268.3008 -38.018213 
L 269.01504 -38.017835 
L 269.72928 -38.017519 
L 270.44352 -38.017256 
L 271.15776 -38.017038 
L 271.872 -38.016856 
L 272.58624 -38.016706 
L 273.30048 -38.016581 
L 274.01472 -38.016477 
L 274.72896 -38.016392 
L 275.4432 -38.016321 
L 276.15744 -38.016263 
L 276.87168 -38.016215 
L 277.58592 -38.016176 
L 278.30016 -38.016144 
L 279.0144 -38.016117 
L 279.72864 -38.016095 
L 280.44288 -38.016077 
L 281.15712 -38.016063 
L 281.87136 -38.016051 
L 282.5856 -38.016041 
L 283.29984 -38.016033 
L 284.01408 -38.016027 
L 284.72832 -38.016022 
L 285.44256 -38.016018 
L 286.1568 -38.016014 
L 286.87104 -38.016011 
L 287.58528 -38.016009 
L 288.29952 -38.016007 
L 289.01376 -38.016006 
L 289.728 -38.016005 
L 290.44224 -38.016004 
L 291.15648 -38.016003 
L 291.87072 -38.016002 
L 292.58496 -38.016002 
L 293.2992 -38.016002 
L 294.01344 -38.016001 
L 294.72768 -38.016001 
L 295.44192 -38.016001 
L 296.15616 -38.016001 
L 296.8704 -38.016 
L 297.58464 -38.016 
L 298.29888 -38.016 
L 299.01312 -38.016 
L 299.72736 -38.016 
L 300.4416 -38.016 
L 301.15584 -38.016 
L 301.87008 -38.016 
L 302.58432 -38.016 
L 303.29856 -38.016 
L 304.0128 -38.016 
L 304.72704 -38.016 
L 305.44128 -38.016 
L 306.15552 -38.016 
L 306.86976 -38.016 
L 307.584 -38.016 
L 308.29824 -38.016 
L 309.01248 -38.016 
L 309.72672 -38.016 
L 310.44096 -38.016 
L 311.1552 -38.016 
L 311.86944 -38.016 
L 312.58368 -38.016 
L 313.29792 -38.016 
L 314.01216 -38.016 
L 314.7264 -38.016 
L 315.44064 -38.016 
L 316.15488 -38.016 
L 316.86912 -38.016 
L 317.58336 -38.016 
L 318.2976 -38.016 
L 319.01184 -38.016 
L 319.72608 -38.016 
L 320.44032 -38.016 
L 321.15456 -38.016 
L 321.8688 -38.016 
L 322.58304 -38.016 
L 323.29728 -38.016 
L 324.01152 -38.016 
L 324.72576 -38.016 
L 325.44 -38.016 
L 326.15424 -38.016 
L 326.86848 -38.016 
L 327.58272 -38.016 
L 328.29696 -38.016 
L 329.0112 -38.016 
L 329.72544 -38.016 
L 330.43968 -38.016 
L 331.15392 -38.016 
L 331.86816 -38.016 
L 332.5824 -38.016 
L 333.29664 -38.016 
L 334.01088 -38.016 
L 334.72512 -38.016 
L 335.43936 -38.016 
L 336.1536 -38.016 
L 336.86784 -38.016 
L 337.58208 -38.016 
L 338.29632 -38.016 
L 339.01056 -38.016 
L 339.7248 -38.016 
L 340.43904 -38.016 
L 341.15328 -38.016 
L 341.86752 -38.016 
L 342.58176 -38.016 
L 343.296 -38.016 
L 344.01024 -38.016 
L 344.72448 -38.016 
L 345.43872 -38.016 
L 346.15296 -38.016 
L 346.8672 -38.016 
L 347.58144 -38.016 
L 348.29568 -38.016 
L 349.00992 -38.016 
L 349.72416 -38.016 
L 350.4384 -38.016 
L 351.15264 -38.016 
L 351.86688 -38.016 
L 352.58112 -38.016 
L 353.29536 -38.016 
L 354.0096 -38.016 
L 354.72384 -38.016 
L 355.43808 -38.016 
L 356.15232 -38.016 
L 356.86656 -38.016 
L 357.5808 -38.016 
L 358.29504 -38.016 
L 359.00928 -38.016 
L 359.72352 -38.016 
L 360.43776 -38.016 
L 361.152 -38.016 
L 361.86624 -38.016 
L 362.58048 -38.016 
L 363.29472 -38.016 
L 364.00896 -38.016 
L 364.7232 -38.016 
L 365.43744 -38.016 
L 366.15168 -38.016 
L 366.86592 -38.016 
L 367.58016 -38.016 
L 368.2944 -38.016 
L 369.00864 -38.016 
L 369.72288 -38.016 
L 370.43712 -38.016 
L 371.15136 -38.016 
L 371.8656 -38.016 
L 372.57984 -38.016 
L 373.29408 -38.016 
L 374.00832 -38.016 
L 374.72256 -38.016 
L 375.4368 -38.016 
L 376.15104 -38.016 
L 376.86528 -38.016 
L 377.57952 -38.016 
L 378.29376 -38.016 
L 379.008 -38.016 
L 379.72224 -38.016 
L 380.43648 -38.016 
L 381.15072 -38.016 
L 381.86496 -38.016 
L 382.5792 -38.016 
L 383.29344 -38.016 
L 384.00768 -38.016 
L 384.72192 -38.016 
L 385.43616 -38.016 
L 386.1504 -38.016 
L 386.86464 -38.016 
L 387.57888 -38.016 
L 388.29312 -38.016 
L 389.00736 -38.016 
L 389.7216 -38.016 
L 390.43584 -38.016 
L 391.15008 -38.016 
L 391.86432 -38.016 
L 392.57856 -38.016 
L 393.2928 -38.016 
L 394.00704 -38.016 
L 394.72128 -38.016 
L 395.43552 -38.016 
L 396.14976 -38.016 
L 396.864 -38.016 
L 397.57824 -38.016 
L 398.29248 -38.016 
L 399.00672 -38.016 
L 399.72096 -38.016 
L 400.4352 -38.016 
L 401.14944 -38.016 
L 401.86368 -38.016 
L 402.57792 -38.016 
L 403.29216 -38.016 
L 404.0064 -38.016 
L 404.72064 -38.016 
L 405.43488 -38.016 
L 406.14912 -38.016 
L 406.86336 -38.016 
L 407.5776 -38.016 
L 408.29184 -38.016 
L 409.00608 -38.016 
L 409.72032 -38.016 
L 410.43456 -38.016 
L 411.1488 -38.016 
L 411.86304 -38.016 
L 412.57728 -38.016 
L 413.29152 -38.016 
L 414.00576 -38.016 
L 414.72 -38.016 
L 414.72 -38.016 
L 414.72 -38.016 
L 414.00576 -38.016 
L 413.29152 -38.016 
L 412.57728 -38.016 
L 411.86304 -38.016 
L 411.1488 -38.016 
L 410.43456 -38.016 
L 409.72032 -38.016 
L 409.00608 -38.016 
L 408.29184 -38.016 
L 407.5776 -38.016 
L 406.86336 -38.016 
L 406.14912 -38.016 
L 405.43488 -38.016 
L 404.72064 -38.016 
L 404.0064 -38.016 
L 403.29216 -38.016 
L 402.57792 -38.016 
L 401.86368 -38.016 
L 401.14944 -38.016 
L 400.4352 -38.016 
L 399.72096 -38.016 
L 399.00672 -38.016 
L 398.29248 -38.016 
L 397.57824 -38.016 
L 396.864 -38.016 
L 396.14976 -38.016 
L 395.43552 -38.016 
L 394.72128 -38.016 
L 394.00704 -38.016 
L 393.2928 -38.016 
L 392.57856 -38.016 
L 391.86432 -38.016 
L 391.15008 -38.016 
L 390.43584 -38.016 
L 389.7216 -38.016 
L 389.00736 -38.016 
L 388.29312 -38.016 
L 387.57888 -38.016 
L 386.86464 -38.016 
L 386.1504 -38.016 
L 385.43616 -38.016 
L 384.72192 -38.016 
L 384.00768 -38.016 
L 383.29344 -38.016 
L 382.5792 -38.016 
L 381.86496 -38.016 
L 381.15072 -38.016 
L 380.43648 -38.016 
L 379.72224 -38.016 
L 379.008 -38.016 
L 378.29376 -38.016 
L 377.57952 -38.016 
L 376.86528 -38.016 
L 376.15104 -38.016 
L 375.4368 -38.016 
L 374.72256 -38.016 
L 374.00832 -38.016 
L 373.29408 -38.016 
L 372.57984 -38.016 
L 371.8656 -38.016 
L 371.15136 -38.016 
L 370.43712 -38.016 
L 369.72288 -38.016 
L 369.00864 -38.016 
L 368.2944 -38.016 
L 367.58016 -38.016 
L 366.86592 -38.016 
L 366.15168 -38.016 
L 365.43744 -38.016 
L 364.7232 -38.016 
L 364.00896 -38.016 
L 363.29472 -38.016 
L 362.58048 -38.016 
L 361.86624 -38.016 
L 361.152 -38.016 
L 360.43776 -38.016 
L 359.72352 -38.016 
L 359.00928 -38.016 
L 358.29504 -38.016 
L 357.5808 -38.016 
L 356.86656 -38.016 
L 356.15232 -38.016 
L 355.43808 -38.016 
L 354.72384 -38.016 
L 354.0096 -38.016 
L 353.29536 -38.016 
L 352.58112 -38.016 
L 351.86688 -38.016 
L 351.15264 -38.016 
L 350.4384 -38.016 
L 349.72416 -38.016 
L 349.00992 -38.016 
L 348.29568 -38.016 
L 347.58144 -38.016 
L 346.8672 -38.016 
L 346.15296 -38.016 
L 345.43872 -38.016 
L 344.72448 -38.016 
L 344.01024 -38.016 
L 343.296 -38.016 
L 342.58176 -38.016 
L 341.86752 -38.016 
L 341.15328 -38.016 
L 340.43904 -38.016 
L 339.7248 -38.016 
L 339.01056 -38.016 
L 338.29632 -38.016 
L 337.58208 -38.016 
L 336.86784 -38.016 
L 336.1536 -38.016 
L 335.43936 -38.016 
L 334.72512 -38.016 
L 334.01088 -38.016 
L 333.29664 -38.016 
L 332.5824 -38.016 
L 331.86816 -38.016 
L 331.15392 -38.016 
L 330.43968 -38.016 
L 329.72544 -38.016 
L 329.0112 -38.016 
L 328.29696 -38.016 
L 327.58272 -38.016 
L 326.86848 -38.016 
L 326.15424 -38.016 
L 325.44 -38.016 
L 324.72576 -38.016 
L 324.01152 -38.016 
L 323.29728 -38.016 
L 322.58304 -38.016 
L 321.8688 -38.016 
L 321.15456 -38.016 
L 320.44032 -38.016 
L 319.72608 -38.016 
L 319.01184 -38.016 
L 318.2976 -38.016 
L 317.58336 -38.016 
L 316.86912 -38.016 
L 316.15488 -38.016 
L 315.44064 -38.016 
L 314.7264 -38.016 
L 314.01216 -38.016 
L 313.29792 -38.016 
L 312.58368 -38.016 
L 311.86944 -38.016 
L 311.1552 -38.016 
L 310.44096 -38.016 
L 309.72672 -38.016 
L 309.01248 -38.016 
L 308.29824 -38.016 
L 307.584 -38.016 
L 306.86976 -38.016 
L 306.15552 -38.016 
L 305.44128 -38.016 
L 304.72704 -38.016 
L 304.0128 -38.016 
L 303.29856 -38.016 
L 302.58432 -38.016 
L 301.87008 -38.016 
L 301.15584 -38.016 
L 300.4416 -38.016 
L 299.72736 -38.016 
L 299.01312 -38.016001 
L 298.29888 -38.016001 
L 297.58464 -38.016001 
L 296.8704 -38.016001 
L 296.15616 -38.016001 
L 295.44192 -38.016002 
L 294.72768 -38.016002 
L 294.01344 -38.016003 
L 293.2992 -38.016004 
L 292.58496 -38.016005 
L 291.87072 -38.016006 
L 291.15648 -38.016007 
L 290.44224 -38.016009 
L 289.728 -38.016011 
L 289.01376 -38.016013 
L 288.29952 -38.016016 
L 287.58528 -38.01602 
L 286.87104 -38.016025 
L 286.1568 -38.016031 
L 285.44256 -38.016038 
L 284.72832 -38.016046 
L 284.01408 -38.016057 
L 283.29984 -38.016069 
L 282.5856 -38.016085 
L 281.87136 -38.016104 
L 281.15712 -38.016127 
L 280.44288 -38.016155 
L 279.72864 -38.016189 
L 279.0144 -38.01623 
L 278.30016 -38.016279 
L 277.58592 -38.016339 
L 276.87168 -38.016411 
L 276.15744 -38.016498 
L 275.4432 -38.016602 
L 274.72896 -38.016728 
L 274.01472 -38.016879 
L 273.30048 -38.01706 
L 272.58624 -38.017277 
L 271.872 -38.017537 
L 271.15776 -38.017847 
L 270.44352 -38.018217 
L 269.72928 -38.018659 
L 269.01504 -38.019184 
L 268.3008 -38.01981 
L 267.58656 -38.020553 
L 266.87232 -38.021435 
L 266.15808 -38.02248 
L 265.44384 -38.023718 
L 264.7296 -38.025183 
L 264.01536 -38.026912 
L 263.30112 -38.028953 
L 262.58688 -38.031359 
L 261.87264 -38.034191 
L 261.1584 -38.037522 
L 260.44416 -38.041435 
L 259.72992 -38.046025 
L 259.01568 -38.051405 
L 258.30144 -38.057703 
L 257.5872 -38.065067 
L 256.87296 -38.073669 
L 256.15872 -38.083705 
L 255.44448 -38.095401 
L 254.73024 -38.109016 
L 254.016 -38.124848 
L 253.30176 -38.143238 
L 252.58752 -38.164575 
L 251.87328 -38.189303 
L 251.15904 -38.217931 
L 250.4448 -38.251038 
L 249.73056 -38.289281 
L 249.01632 -38.33341 
L 248.30208 -38.384276 
L 247.58784 -38.442842 
L 246.8736 -38.510203 
L 246.15936 -38.587593 
L 245.44512 -38.676412 
L 244.73088 -38.778236 
L 244.01664 -38.894845 
L 243.3024 -39.028239 
L 242.58816 -39.18067 
L 241.87392 -39.354668 
L 241.15968 -39.553066 
L 240.44544 -39.779039 
L 239.7312 -40.036137 
L 239.01696 -40.328324 
L 238.30272 -40.660016 
L 237.58848 -41.036129 
L 236.87424 -41.462122 
L 236.16 -41.944047 
L 235.44576 -42.488601 
L 234.73152 -43.103171 
L 234.01728 -43.795894 
L 233.30304 -44.575703 
L 232.5888 -45.452379 
L 231.87456 -46.436592 
L 231.16032 -47.539942 
L 230.44608 -48.774987 
L 229.73184 -50.155255 
L 229.0176 -51.695245 
L 228.30336 -53.410394 
L 227.58912 -55.317026 
L 226.87488 -57.432253 
L 226.16064 -59.773837 
L 225.4464 -62.359996 
L 224.73216 -65.209145 
L 224.01792 -68.339566 
L 223.30368 -71.76899 
L 222.58944 -75.514105 
L 221.8752 -79.589956 
L 221.16096 -84.009266 
L 220.44672 -88.781675 
L 219.73248 -93.912911 
L 219.01824 -99.403933 
L 218.304 -105.250075 
L 217.58976 -111.440256 
L 216.87552 -117.956314 
L 216.16128 -124.772544 
L 215.44704 -131.855509 
L 214.7328 -139.164202 
L 214.01856 -146.650606 
L 213.30432 -154.260669 
L 212.59008 -161.935691 
L 211.87584 -169.614058 
L 211.1616 -177.233222 
L 210.44736 -184.731794 
L 209.73312 -192.051601 
L 209.01888 -199.139548 
L 208.30464 -205.94916 
L 207.5904 -212.441708 
L 206.87616 -218.58687 
L 206.16192 -224.362924 
L 205.44768 -229.756519 
L 204.73344 -234.762101 
L 204.0192 -239.381076 
L 203.30496 -243.620807 
L 202.59072 -247.493539 
L 201.87648 -251.015328 
L 201.16224 -254.205016 
L 200.448 -257.083317 
L 199.73376 -259.672011 
L 199.01952 -261.993277 
L 198.30528 -264.069151 
L 197.59104 -265.921106 
L 196.8768 -267.569736 
L 196.16256 -269.034544 
L 195.44832 -270.333795 
L 194.73408 -271.484443 
L 194.01984 -272.502104 
L 193.3056 -273.401063 
L 192.59136 -274.194316 
L 191.87712 -274.89363 
L 191.16288 -275.509611 
L 190.44864 -276.051783 
L 189.7344 -276.528676 
L 189.02016 -276.947903 
L 188.30592 -277.316245 
L 187.59168 -277.639729 
L 186.87744 -277.923702 
L 186.1632 -278.172898 
L 185.44896 -278.391506 
L 184.73472 -278.583223 
L 184.02048 -278.751315 
L 183.30624 -278.898659 
L 182.592 -279.027788 
L 181.87776 -279.140933 
L 181.16352 -279.240056 
L 180.44928 -279.326881 
L 179.73504 -279.402923 
L 179.0208 -279.469513 
L 178.30656 -279.527819 
L 177.59232 -279.578865 
L 176.87808 -279.623552 
L 176.16384 -279.662667 
L 175.4496 -279.696903 
L 174.73536 -279.726866 
L 174.02112 -279.753086 
L 173.30688 -279.77603 
L 172.59264 -279.796105 
L 171.8784 -279.81367 
L 171.16416 -279.829036 
L 170.44992 -279.842478 
L 169.73568 -279.854237 
L 169.02144 -279.864522 
L 168.3072 -279.873517 
L 167.59296 -279.881384 
L 166.87872 -279.888264 
L 166.16448 -279.894281 
L 165.45024 -279.899541 
L 164.736 -279.904141 
L 164.02176 -279.908162 
L 163.30752 -279.911678 
L 162.59328 -279.914751 
L 161.87904 -279.917438 
L 161.1648 -279.919786 
L 160.45056 -279.921838 
L 159.73632 -279.923632 
L 159.02208 -279.925199 
L 158.30784 -279.926569 
L 157.5936 -279.927766 
L 156.87936 -279.928811 
L 156.16512 -279.929724 
L 155.45088 -279.930522 
L 154.73664 -279.931219 
L 154.0224 -279.931828 
L 153.30816 -279.932359 
L 152.59392 -279.932824 
L 151.87968 -279.933229 
L 151.16544 -279.933583 
L 150.4512 -279.933892 
L 149.73696 -279.934161 
L 149.02272 -279.934397 
L 148.30848 -279.934602 
L 147.59424 -279.934782 
L 146.88 -279.934938 
L 146.16576 -279.935074 
L 145.45152 -279.935194 
L 144.73728 -279.935297 
L 144.02304 -279.935388 
L 143.3088 -279.935467 
L 142.59456 -279.935536 
L 141.88032 -279.935596 
L 141.16608 -279.935648 
L 140.45184 -279.935694 
L 139.7376 -279.935733 
L 139.02336 -279.935768 
L 138.30912 -279.935798 
L 137.59488 -279.935825 
L 136.88064 -279.935847 
L 136.1664 -279.935867 
L 135.45216 -279.935885 
L 134.73792 -279.9359 
L 134.02368 -279.935913 
L 133.30944 -279.935924 
L 132.5952 -279.935934 
L 131.88096 -279.935943 
L 131.16672 -279.935951 
L 130.45248 -279.935957 
L 129.73824 -279.935963 
L 129.024 -279.935968 
L 128.30976 -279.935972 
L 127.59552 -279.935976 
L 126.88128 -279.935979 
L 126.16704 -279.935982 
L 125.4528 -279.935984 
L 124.73856 -279.935986 
L 124.02432 -279.935988 
L 123.31008 -279.93599 
L 122.59584 -279.935991 
L 121.8816 -279.935992 
L 121.16736 -279.935993 
L 120.45312 -279.935994 
L 119.73888 -279.935995 
L 119.02464 -279.935996 
L 118.3104 -279.935996 
L 117.59616 -279.935997 
L 116.88192 -279.935997 
L 116.16768 -279.935998 
L 115.45344 -279.935998 
L 114.7392 -279.935998 
L 114.02496 -279.935999 
L 113.31072 -279.935999 
L 112.59648 -279.935999 
L 111.88224 -279.935999 
L 111.168 -279.935999 
L 110.45376 -279.935999 
L 109.73952 -279.935999 
L 109.02528 -279.936 
L 108.31104 -279.936 
L 107.5968 -279.936 
L 106.88256 -279.936 
L 106.16832 -279.936 
L 105.45408 -279.936 
L 104.73984 -279.936 
L 104.0256 -279.936 
L 103.31136 -279.936 
L 102.59712 -279.936 
L 101.88288 -279.936 
L 101.16864 -279.936 
L 100.4544 -279.936 
L 99.74016 -279.936 
L 99.02592 -279.936 
L 98.31168 -279.936 
L 97.59744 -279.936 
L 96.8832 -279.936 
L 96.16896 -279.936 
L 95.45472 -279.936 
L 94.74048 -279.936 
L 94.02624 -279.936 
L 93.312 -279.936 
L 92.59776 -279.936 
L 91.88352 -279.936 
L 91.16928 -279.936 
L 90.45504 -279.936 
L 89.7408 -279.936 
L 89.02656 -279.936 
L 88.31232 -279.936 
L 87.59808 -279.936 
L 86.88384 -279.936 
L 86.1696 -279.936 
L 85.45536 -279.936 
L 84.74112 -279.936 
L 84.02688 -279.936 
L 83.31264 -279.936 
L 82.5984 -279.936 
L 81.88416 -279.936 
L 81.16992 -279.936 
L 80.45568 -279.936 
L 79.74144 -279.936 
L 79.0272 -279.936 
L 78.31296 -279.936 
L 77.59872 -279.936 
L 76.88448 -279.936 
L 76.17024 -279.936 
L 75.456 -279.936 
L 74.74176 -279.936 
L 74.02752 -279.936 
L 73.31328 -279.936 
L 72.59904 -279.936 
L 71.8848 -279.936 
L 71.17056 -279.936 
L 70.45632 -279.936 
L 69.74208 -279.936 
L 69.02784 -279.936 
L 68.3136 -279.936 
L 67.59936 -279.936 
L 66.88512 -279.936 
L 66.17088 -279.936 
L 65.45664 -279.936 
L 64.7424 -279.936 
L 64.02816 -279.936 
L 63.31392 -279.936 
L 62.59968 -279.936 
L 61.88544 -279.936 
L 61.1712 -279.936 
L 60.45696 -279.936 
L 59.74272 -279.936 
L 59.02848 -279.936 
L 58.31424 -279.936 
L 57.6 -279.936 
z
" id="me664829717" style="stroke:#afe88e;"/>
    </defs>
    <g clip-path="url(#pee1caa311e)">
     <use style="fill:#afe88e;stroke:#afe88e;" x="0" xlink:href="#me664829717" y="345.6"/>
    </g>
   </g>
   <g id="line2d_1">
    <path clip-path="url(#pee1caa311e)" d="M 57.6 65.664 
L 171.16416 65.770964 
L 176.87808 65.976448 
L 180.44928 66.273119 
L 183.30624 66.701341 
L 185.44896 67.208494 
L 187.59168 67.960271 
L 189.02016 68.652097 
L 190.44864 69.548217 
L 191.87712 70.70637 
L 193.3056 72.198937 
L 194.73408 74.115557 
L 196.16256 76.565456 
L 197.59104 79.678894 
L 199.01952 83.606723 
L 200.448 88.516683 
L 201.87648 94.584672 
L 203.30496 101.979193 
L 204.73344 110.837899 
L 206.16192 121.237076 
L 207.5904 133.158292 
L 209.73312 153.548399 
L 212.59008 183.664309 
L 215.44704 213.744491 
L 217.58976 234.159744 
L 219.01824 246.196067 
L 220.44672 256.818325 
L 221.8752 266.010044 
L 223.30368 273.83101 
L 224.73216 280.390855 
L 226.16064 285.826163 
L 227.58912 290.282974 
L 229.0176 293.904755 
L 230.44608 296.825013 
L 231.87456 299.163408 
L 233.30304 301.024297 
L 234.73152 302.496829 
L 236.16 303.655953 
L 237.58848 304.563871 
L 239.01696 305.271676 
L 241.15968 306.046934 
L 243.3024 306.571761 
L 246.15936 307.012407 
L 249.73056 307.310719 
L 254.73024 307.490984 
L 264.7296 307.574817 
L 323.29728 307.584 
L 414.72 307.584 
L 414.72 307.584 
" style="fill:none;stroke:#000000;stroke-linecap:square;stroke-width:0.7;"/>
   </g>
   <g id="patch_3">
    <path d="M 57.6 307.584 
L 57.6 41.472 
" style="fill:none;stroke:#000000;stroke-linecap:square;stroke-linejoin:miter;stroke-width:0.8;"/>
   </g>
   <g id="patch_4">
    <path d="M 414.72 307.584 
L 414.72 41.472 
" style="fill:none;stroke:#000000;stroke-linecap:square;stroke-linejoin:miter;stroke-width:0.8;"/>
   </g>
   <g id="patch_5">
    <path d="M 57.6 307.584 
L 414.72 307.584 
" style="fill:none;stroke:#000000;stroke-linecap:square;stroke-linejoin:miter;stroke-width:0.8;"/>
   </g>
   <g id="patch_6">
    <path d="M 57.6 41.472 
L 414.72 41.472 
" style="fill:none;stroke:#000000;stroke-linecap:square;stroke-linejoin:miter;stroke-width:0.8;"/>
   </g>
   <g id="legend_1">
    <g id="patch_7">
     <path d="M 91.90611 34.09119 
L 246.68736 34.09119 
Q 249.08736 34.09119 249.08736 31.69119 
L 249.08736 15.27744 
Q 249.08736 12.87744 246.68736 12.87744 
L 91.90611 12.87744 
Q 89.50611 12.87744 89.50611 15.27744 
L 89.50611 31.69119 
Q 89.50611 34.09119 91.90611 34.09119 
z
" style="fill:#ffffff;opacity:0.8;stroke:#cccccc;stroke-linejoin:miter;"/>
    </g>
    <g id="patch_8">
     <path d="M 94.30611 26.795565 
L 118.30611 26.795565 
L 118.30611 18.395565 
L 94.30611 18.395565 
z
" style="fill:#509369;stroke:#509369;stroke-linejoin:miter;"/>
    </g>
    <g id="text_1">
     <!-- back -->
     <g transform="translate(127.90611 26.795565)scale(0.12 -0.12)">
      <defs>
       <path d="M 11.53125 5.171875 
L 11.53125 70.796875 
L 2.875 70.796875 
L 2.875 75.984375 
L 20.515625 75.984375 
L 20.515625 43.796875 
Q 23.140625 48.6875 27.21875 51 
Q 31.296875 53.328125 37.3125 53.328125 
Q 46.875 53.328125 52.921875 45.75 
Q 58.984375 38.1875 58.984375 25.984375 
Q 58.984375 13.765625 52.921875 6.171875 
Q 46.875 -1.421875 37.3125 -1.421875 
Q 31.296875 -1.421875 27.21875 0.890625 
Q 23.140625 3.21875 20.515625 8.109375 
L 20.515625 0 
L 2.875 0 
L 2.875 5.171875 
z
M 20.515625 23.390625 
Q 20.515625 14.015625 24.09375 9.109375 
Q 27.6875 4.203125 34.515625 4.203125 
Q 41.40625 4.203125 44.9375 9.71875 
Q 48.484375 15.234375 48.484375 25.984375 
Q 48.484375 36.765625 44.9375 42.234375 
Q 41.40625 47.703125 34.515625 47.703125 
Q 27.6875 47.703125 24.09375 42.765625 
Q 20.515625 37.84375 20.515625 28.515625 
z
" id="DejaVuSerif-98"/>
       <path d="M 39.796875 16.3125 
L 39.796875 27.296875 
L 28.21875 27.296875 
Q 21.53125 27.296875 18.25 24.40625 
Q 14.984375 21.53125 14.984375 15.578125 
Q 14.984375 10.15625 18.296875 6.984375 
Q 21.625 3.8125 27.296875 3.8125 
Q 32.90625 3.8125 36.34375 7.28125 
Q 39.796875 10.75 39.796875 16.3125 
z
M 48.78125 32.421875 
L 48.78125 5.171875 
L 56.78125 5.171875 
L 56.78125 0 
L 39.796875 0 
L 39.796875 5.609375 
Q 36.8125 2 32.90625 0.28125 
Q 29 -1.421875 23.78125 -1.421875 
Q 15.140625 -1.421875 10.0625 3.171875 
Q 4.984375 7.765625 4.984375 15.578125 
Q 4.984375 23.640625 10.796875 28.078125 
Q 16.609375 32.515625 27.203125 32.515625 
L 39.796875 32.515625 
L 39.796875 36.078125 
Q 39.796875 42 36.203125 45.234375 
Q 32.625 48.484375 26.125 48.484375 
Q 20.75 48.484375 17.578125 46.046875 
Q 14.40625 43.609375 13.625 38.8125 
L 8.984375 38.8125 
L 8.984375 49.3125 
Q 13.671875 51.3125 18.09375 52.3125 
Q 22.515625 53.328125 26.703125 53.328125 
Q 37.5 53.328125 43.140625 47.96875 
Q 48.78125 42.625 48.78125 32.421875 
z
" id="DejaVuSerif-97"/>
       <path d="M 51.421875 15.578125 
Q 49.515625 7.28125 44.09375 2.921875 
Q 38.671875 -1.421875 30.078125 -1.421875 
Q 18.75 -1.421875 11.859375 6.078125 
Q 4.984375 13.578125 4.984375 25.984375 
Q 4.984375 38.421875 11.859375 45.875 
Q 18.75 53.328125 30.078125 53.328125 
Q 35.015625 53.328125 39.890625 52.171875 
Q 44.78125 51.03125 49.703125 48.6875 
L 49.703125 35.40625 
L 44.484375 35.40625 
Q 43.453125 42.234375 40.015625 45.359375 
Q 36.578125 48.484375 30.171875 48.484375 
Q 22.90625 48.484375 19.1875 42.84375 
Q 15.484375 37.203125 15.484375 25.984375 
Q 15.484375 14.75 19.171875 9.078125 
Q 22.859375 3.421875 30.171875 3.421875 
Q 35.984375 3.421875 39.453125 6.4375 
Q 42.921875 9.46875 44.1875 15.578125 
z
" id="DejaVuSerif-99"/>
       <path d="M 28.609375 0 
L 3.421875 0 
L 3.421875 5.171875 
L 11.53125 5.171875 
L 11.53125 70.796875 
L 2.875 70.796875 
L 2.875 75.984375 
L 20.515625 75.984375 
L 20.515625 26.515625 
L 42.390625 46.6875 
L 34.90625 46.6875 
L 34.90625 51.90625 
L 58.40625 51.90625 
L 58.40625 46.6875 
L 49.515625 46.6875 
L 34.078125 32.421875 
L 53.8125 5.171875 
L 61.28125 5.171875 
L 61.28125 0 
L 35.6875 0 
L 35.6875 5.171875 
L 43.109375 5.171875 
L 27.59375 26.515625 
L 20.515625 19.921875 
L 20.515625 5.171875 
L 28.609375 5.171875 
z
" id="DejaVuSerif-107"/>
      </defs>
      <use xlink:href="#DejaVuSerif-98"/>
      <use x="64.013672" xlink:href="#DejaVuSerif-97"/>
      <use x="123.632812" xlink:href="#DejaVuSerif-99"/>
      <use x="179.638672" xlink:href="#DejaVuSerif-107"/>
     </g>
    </g>
    <g id="patch_9">
     <path d="M 180.734235 26.795565 
L 204.734235 26.795565 
L 204.734235 18.395565 
L 180.734235 18.395565 
z
" style="fill:#afe88e;stroke:#afe88e;stroke-linejoin:miter;"/>
    </g>
    <g id="text_2">
     <!-- front -->
     <g transform="translate(214.334235 26.795565)scale(0.12 -0.12)">
      <defs>
       <path d="M 43.015625 63.71875 
L 38.28125 63.71875 
Q 38.234375 67.390625 36.203125 69.28125 
Q 34.1875 71.1875 30.328125 71.1875 
Q 25.296875 71.1875 23.234375 68.421875 
Q 21.1875 65.671875 21.1875 58.59375 
L 21.1875 51.90625 
L 35.6875 51.90625 
L 35.6875 46.6875 
L 21.1875 46.6875 
L 21.1875 5.171875 
L 32.71875 5.171875 
L 32.71875 0 
L 3.609375 0 
L 3.609375 5.171875 
L 12.203125 5.171875 
L 12.203125 46.6875 
L 3.609375 46.6875 
L 3.609375 51.90625 
L 12.203125 51.90625 
L 12.203125 58.40625 
Q 12.203125 67.09375 16.71875 71.53125 
Q 21.234375 75.984375 29.984375 75.984375 
Q 33.25 75.984375 36.515625 75.390625 
Q 39.796875 74.8125 43.015625 73.578125 
z
" id="DejaVuSerif-102"/>
       <path d="M 47.796875 52 
L 47.796875 39.015625 
L 42.625 39.015625 
Q 42.390625 42.875 40.484375 44.78125 
Q 38.578125 46.6875 34.90625 46.6875 
Q 28.265625 46.6875 24.71875 42.09375 
Q 21.1875 37.5 21.1875 28.90625 
L 21.1875 5.171875 
L 31.59375 5.171875 
L 31.59375 0 
L 4.109375 0 
L 4.109375 5.171875 
L 12.203125 5.171875 
L 12.203125 46.78125 
L 3.609375 46.78125 
L 3.609375 51.90625 
L 21.1875 51.90625 
L 21.1875 42.671875 
Q 23.828125 48.09375 27.96875 50.703125 
Q 32.125 53.328125 38.09375 53.328125 
Q 40.28125 53.328125 42.703125 52.984375 
Q 45.125 52.640625 47.796875 52 
z
" id="DejaVuSerif-114"/>
       <path d="M 30.078125 3.421875 
Q 37.3125 3.421875 40.984375 9.125 
Q 44.671875 14.84375 44.671875 25.984375 
Q 44.671875 37.109375 40.984375 42.796875 
Q 37.3125 48.484375 30.078125 48.484375 
Q 22.859375 48.484375 19.171875 42.796875 
Q 15.484375 37.109375 15.484375 25.984375 
Q 15.484375 14.84375 19.1875 9.125 
Q 22.90625 3.421875 30.078125 3.421875 
z
M 30.078125 -1.421875 
Q 18.75 -1.421875 11.859375 6.078125 
Q 4.984375 13.578125 4.984375 25.984375 
Q 4.984375 38.375 11.84375 45.84375 
Q 18.703125 53.328125 30.078125 53.328125 
Q 41.453125 53.328125 48.3125 45.84375 
Q 55.171875 38.375 55.171875 25.984375 
Q 55.171875 13.578125 48.3125 6.078125 
Q 41.453125 -1.421875 30.078125 -1.421875 
z
" id="DejaVuSerif-111"/>
       <path d="M 4.109375 0 
L 4.109375 5.171875 
L 12.203125 5.171875 
L 12.203125 46.6875 
L 3.609375 46.6875 
L 3.609375 51.90625 
L 21.1875 51.90625 
L 21.1875 42.671875 
Q 23.6875 47.953125 27.65625 50.640625 
Q 31.640625 53.328125 36.921875 53.328125 
Q 45.515625 53.328125 49.5625 48.390625 
Q 53.609375 43.453125 53.609375 33.015625 
L 53.609375 5.171875 
L 61.625 5.171875 
L 61.625 0 
L 36.8125 0 
L 36.8125 5.171875 
L 44.578125 5.171875 
L 44.578125 30.171875 
Q 44.578125 39.703125 42.234375 43.234375 
Q 39.890625 46.78125 33.984375 46.78125 
Q 27.734375 46.78125 24.453125 42.203125 
Q 21.1875 37.640625 21.1875 28.90625 
L 21.1875 5.171875 
L 29 5.171875 
L 29 0 
z
" id="DejaVuSerif-110"/>
       <path d="M 10.796875 46.6875 
L 2.875 46.6875 
L 2.875 51.90625 
L 10.796875 51.90625 
L 10.796875 68.015625 
L 19.828125 68.015625 
L 19.828125 51.90625 
L 36.71875 51.90625 
L 36.71875 46.6875 
L 19.828125 46.6875 
L 19.828125 13.71875 
Q 19.828125 7.125 21.09375 5.265625 
Q 22.359375 3.421875 25.78125 3.421875 
Q 29.296875 3.421875 30.90625 5.484375 
Q 32.515625 7.5625 32.625 12.203125 
L 39.40625 12.203125 
Q 39.015625 5.125 35.546875 1.84375 
Q 32.078125 -1.421875 25 -1.421875 
Q 17.234375 -1.421875 14.015625 2.015625 
Q 10.796875 5.46875 10.796875 13.71875 
z
" id="DejaVuSerif-116"/>
      </defs>
      <use xlink:href="#DejaVuSerif-102"/>
      <use x="37.011719" xlink:href="#DejaVuSerif-114"/>
      <use x="84.814453" xlink:href="#DejaVuSerif-111"/>
      <use x="145.019531" xlink:href="#DejaVuSerif-110"/>
      <use x="209.423828" xlink:href="#DejaVuSerif-116"/>
     </g>
    </g>
   </g>
  </g>
 </g>
 <defs>
  <clipPath id="pee1caa311e">
   <rect height="266.112" width="357.12" x="57.6" y="41.472"/>
  </clipPath>
 </defs>
</svg>
