<?xml version="1.0" encoding="utf-8" standalone="no"?>
<!DOCTYPE svg PUBLIC "-//W3C//DTD SVG 1.1//EN"
  "http://www.w3.org/Graphics/SVG/1.1/DTD/svg11.dtd">
<!-- Created with matplotlib (https://matplotlib.org/) -->
<svg height="345.6pt" version="1.1" viewBox="0 0 460.8 345.6" width="460.8pt" xmlns="http://www.w3.org/2000/svg" xmlns:xlink="http://www.w3.org/1999/xlink">
 <metadata>
  <rdf:RDF xmlns:cc="http://creativecommons.org/ns#" xmlns:dc="http://purl.org/dc/elements/1.1/" xmlns:rdf="http://www.w3.org/1999/02/22-rdf-syntax-ns#">
   <cc:Work>
    <dc:type rdf:resource="http://purl.org/dc/dcmitype/StillImage"/>
    <dc:date>2023-01-07T15:58:32.960572</dc:date>
    <dc:format>image/svg+xml</dc:format>
    <dc:creator>
     <cc:Agent>
      <dc:title>Matplotlib v3.3.4, https://matplotlib.org/</dc:title>
     </cc:Agent>
    </dc:creator>
   </cc:Work>
  </rdf:RDF>
 </metadata>
 <defs>
  <style type="text/css">*{stroke-linecap:butt;stroke-linejoin:round;}</style>
 </defs>
 <g id="figure_1">
  <g id="patch_1">
   <path d="M 0 345.6 
L 460.8 345.6 
L 460.8 0 
L 0 0 
z
" style="fill:#ffffff;"/>
  </g>
  <g id="axes_1">
   <g id="patch_2">
    <path d="M 57.6 307.584 
L 414.72 307.584 
L 414.72 41.472 
L 57.6 41.472 
z
" style="fill:#ffffff;"/>
   </g>
   <g id="matplotlib.axis_1">
    <g id="xtick_1">
     <g id="line2d_1">
      <defs>
       <path d="M 0 0 
L 0 3.5 
" id="m0169aeaf3c" style="stroke:#000000;stroke-width:0.8;"/>
      </defs>
      <g>
       <use style="stroke:#000000;stroke-width:0.8;" x="72.406122" xlink:href="#m0169aeaf3c" y="307.584"/>
      </g>
     </g>
     <g id="text_1">
      <!-- 0 -->
      <g transform="translate(69.224872 322.182437)scale(0.1 -0.1)">
       <defs>
        <path d="M 31.78125 3.421875 
Q 39.265625 3.421875 42.96875 11.625 
Q 46.6875 19.828125 46.6875 36.375 
Q 46.6875 52.984375 42.96875 61.1875 
Q 39.265625 69.390625 31.78125 69.390625 
Q 24.3125 69.390625 20.59375 61.1875 
Q 16.890625 52.984375 16.890625 36.375 
Q 16.890625 19.828125 20.59375 11.625 
Q 24.3125 3.421875 31.78125 3.421875 
z
M 31.78125 -1.421875 
Q 19.921875 -1.421875 13.25 8.53125 
Q 6.59375 18.5 6.59375 36.375 
Q 6.59375 54.296875 13.25 64.25 
Q 19.921875 74.21875 31.78125 74.21875 
Q 43.703125 74.21875 50.34375 64.25 
Q 56.984375 54.296875 56.984375 36.375 
Q 56.984375 18.5 50.34375 8.53125 
Q 43.703125 -1.421875 31.78125 -1.421875 
z
" id="DejaVuSerif-48"/>
       </defs>
       <use xlink:href="#DejaVuSerif-48"/>
      </g>
     </g>
    </g>
    <g id="xtick_2">
     <g id="line2d_2">
      <g>
       <use style="stroke:#000000;stroke-width:0.8;" x="113.166266" xlink:href="#m0169aeaf3c" y="307.584"/>
      </g>
     </g>
     <g id="text_2">
      <!-- 50 -->
      <g transform="translate(106.803766 322.182437)scale(0.1 -0.1)">
       <defs>
        <path d="M 50.296875 72.90625 
L 50.296875 64.890625 
L 16.890625 64.890625 
L 16.890625 44 
Q 19.4375 45.75 22.828125 46.625 
Q 26.21875 47.515625 30.421875 47.515625 
Q 42.234375 47.515625 49.0625 40.96875 
Q 55.90625 34.421875 55.90625 23.09375 
Q 55.90625 11.53125 49 5.046875 
Q 42.09375 -1.421875 29.59375 -1.421875 
Q 24.5625 -1.421875 19.28125 -0.1875 
Q 14.015625 1.03125 8.5 3.515625 
L 8.5 17.671875 
L 14.015625 17.671875 
Q 14.453125 10.75 18.421875 7.078125 
Q 22.40625 3.421875 29.59375 3.421875 
Q 37.3125 3.421875 41.453125 8.5 
Q 45.609375 13.578125 45.609375 23.09375 
Q 45.609375 32.5625 41.484375 37.609375 
Q 37.359375 42.671875 29.59375 42.671875 
Q 25.203125 42.671875 21.84375 41.109375 
Q 18.5 39.546875 15.921875 36.28125 
L 11.71875 36.28125 
L 11.71875 72.90625 
z
" id="DejaVuSerif-53"/>
       </defs>
       <use xlink:href="#DejaVuSerif-53"/>
       <use x="63.623047" xlink:href="#DejaVuSerif-48"/>
      </g>
     </g>
    </g>
    <g id="xtick_3">
     <g id="line2d_3">
      <g>
       <use style="stroke:#000000;stroke-width:0.8;" x="153.92641" xlink:href="#m0169aeaf3c" y="307.584"/>
      </g>
     </g>
     <g id="text_3">
      <!-- 100 -->
      <g transform="translate(144.38266 322.182437)scale(0.1 -0.1)">
       <defs>
        <path d="M 14.203125 0 
L 14.203125 5.171875 
L 26.90625 5.171875 
L 26.90625 65.828125 
L 12.203125 56.296875 
L 12.203125 62.703125 
L 29.984375 74.21875 
L 36.71875 74.21875 
L 36.71875 5.171875 
L 49.421875 5.171875 
L 49.421875 0 
z
" id="DejaVuSerif-49"/>
       </defs>
       <use xlink:href="#DejaVuSerif-49"/>
       <use x="63.623047" xlink:href="#DejaVuSerif-48"/>
       <use x="127.246094" xlink:href="#DejaVuSerif-48"/>
      </g>
     </g>
    </g>
    <g id="xtick_4">
     <g id="line2d_4">
      <g>
       <use style="stroke:#000000;stroke-width:0.8;" x="194.686554" xlink:href="#m0169aeaf3c" y="307.584"/>
      </g>
     </g>
     <g id="text_4">
      <!-- 150 -->
      <g transform="translate(185.142804 322.182437)scale(0.1 -0.1)">
       <use xlink:href="#DejaVuSerif-49"/>
       <use x="63.623047" xlink:href="#DejaVuSerif-53"/>
       <use x="127.246094" xlink:href="#DejaVuSerif-48"/>
      </g>
     </g>
    </g>
    <g id="xtick_5">
     <g id="line2d_5">
      <g>
       <use style="stroke:#000000;stroke-width:0.8;" x="235.446697" xlink:href="#m0169aeaf3c" y="307.584"/>
      </g>
     </g>
     <g id="text_5">
      <!-- 200 -->
      <g transform="translate(225.902947 322.182437)scale(0.1 -0.1)">
       <defs>
        <path d="M 12.796875 55.515625 
L 7.328125 55.515625 
L 7.328125 68.5 
Q 12.546875 71.296875 17.84375 72.75 
Q 23.140625 74.21875 28.21875 74.21875 
Q 39.59375 74.21875 46.1875 68.703125 
Q 52.78125 63.1875 52.78125 53.71875 
Q 52.78125 43.015625 37.84375 28.125 
Q 36.671875 27 36.078125 26.421875 
L 17.671875 8.015625 
L 48.09375 8.015625 
L 48.09375 17 
L 53.8125 17 
L 53.8125 0 
L 6.78125 0 
L 6.78125 5.328125 
L 28.90625 27.390625 
Q 36.234375 34.71875 39.359375 40.84375 
Q 42.484375 46.96875 42.484375 53.71875 
Q 42.484375 61.078125 38.640625 65.234375 
Q 34.8125 69.390625 28.078125 69.390625 
Q 21.09375 69.390625 17.28125 65.921875 
Q 13.484375 62.453125 12.796875 55.515625 
z
" id="DejaVuSerif-50"/>
       </defs>
       <use xlink:href="#DejaVuSerif-50"/>
       <use x="63.623047" xlink:href="#DejaVuSerif-48"/>
       <use x="127.246094" xlink:href="#DejaVuSerif-48"/>
      </g>
     </g>
    </g>
    <g id="xtick_6">
     <g id="line2d_6">
      <g>
       <use style="stroke:#000000;stroke-width:0.8;" x="276.206841" xlink:href="#m0169aeaf3c" y="307.584"/>
      </g>
     </g>
     <g id="text_6">
      <!-- 250 -->
      <g transform="translate(266.663091 322.182437)scale(0.1 -0.1)">
       <use xlink:href="#DejaVuSerif-50"/>
       <use x="63.623047" xlink:href="#DejaVuSerif-53"/>
       <use x="127.246094" xlink:href="#DejaVuSerif-48"/>
      </g>
     </g>
    </g>
    <g id="xtick_7">
     <g id="line2d_7">
      <g>
       <use style="stroke:#000000;stroke-width:0.8;" x="316.966985" xlink:href="#m0169aeaf3c" y="307.584"/>
      </g>
     </g>
     <g id="text_7">
      <!-- 300 -->
      <g transform="translate(307.423235 322.182437)scale(0.1 -0.1)">
       <defs>
        <path d="M 9.71875 69.828125 
Q 15.4375 71.96875 20.671875 73.09375 
Q 25.921875 74.21875 30.515625 74.21875 
Q 41.21875 74.21875 47.21875 69.59375 
Q 53.21875 64.984375 53.21875 56.78125 
Q 53.21875 50.203125 49.0625 45.78125 
Q 44.921875 41.359375 37.3125 39.796875 
Q 46.296875 38.53125 51.25 33.28125 
Q 56.203125 28.03125 56.203125 19.671875 
Q 56.203125 9.46875 49.34375 4.015625 
Q 42.484375 -1.421875 29.59375 -1.421875 
Q 23.875 -1.421875 18.421875 -0.1875 
Q 12.984375 1.03125 7.625 3.515625 
L 7.625 17.671875 
L 13.09375 17.671875 
Q 13.578125 10.640625 17.828125 7.03125 
Q 22.078125 3.421875 29.78125 3.421875 
Q 37.25 3.421875 41.578125 7.734375 
Q 45.90625 12.0625 45.90625 19.578125 
Q 45.90625 28.171875 41.453125 32.59375 
Q 37.015625 37.015625 28.421875 37.015625 
L 23.78125 37.015625 
L 23.78125 42 
L 26.21875 42 
Q 34.765625 42 39.03125 45.53125 
Q 43.3125 49.078125 43.3125 56.203125 
Q 43.3125 62.59375 39.796875 65.984375 
Q 36.28125 69.390625 29.6875 69.390625 
Q 23.09375 69.390625 19.453125 66.265625 
Q 15.828125 63.140625 15.1875 56.984375 
L 9.71875 56.984375 
z
" id="DejaVuSerif-51"/>
       </defs>
       <use xlink:href="#DejaVuSerif-51"/>
       <use x="63.623047" xlink:href="#DejaVuSerif-48"/>
       <use x="127.246094" xlink:href="#DejaVuSerif-48"/>
      </g>
     </g>
    </g>
    <g id="xtick_8">
     <g id="line2d_8">
      <g>
       <use style="stroke:#000000;stroke-width:0.8;" x="357.727129" xlink:href="#m0169aeaf3c" y="307.584"/>
      </g>
     </g>
     <g id="text_8">
      <!-- 350 -->
      <g transform="translate(348.183379 322.182437)scale(0.1 -0.1)">
       <use xlink:href="#DejaVuSerif-51"/>
       <use x="63.623047" xlink:href="#DejaVuSerif-53"/>
       <use x="127.246094" xlink:href="#DejaVuSerif-48"/>
      </g>
     </g>
    </g>
    <g id="xtick_9">
     <g id="line2d_9">
      <g>
       <use style="stroke:#000000;stroke-width:0.8;" x="398.487273" xlink:href="#m0169aeaf3c" y="307.584"/>
      </g>
     </g>
     <g id="text_9">
      <!-- 400 -->
      <g transform="translate(388.943523 322.182437)scale(0.1 -0.1)">
       <defs>
        <path d="M 34.90625 24.703125 
L 34.90625 63.484375 
L 10.015625 24.703125 
z
M 56.390625 0 
L 23.1875 0 
L 23.1875 5.171875 
L 34.90625 5.171875 
L 34.90625 19.484375 
L 3.078125 19.484375 
L 3.078125 24.8125 
L 35.015625 74.21875 
L 44.671875 74.21875 
L 44.671875 24.703125 
L 58.59375 24.703125 
L 58.59375 19.484375 
L 44.671875 19.484375 
L 44.671875 5.171875 
L 56.390625 5.171875 
z
" id="DejaVuSerif-52"/>
       </defs>
       <use xlink:href="#DejaVuSerif-52"/>
       <use x="63.623047" xlink:href="#DejaVuSerif-48"/>
       <use x="127.246094" xlink:href="#DejaVuSerif-48"/>
      </g>
     </g>
    </g>
    <g id="text_10">
     <!-- Time -->
     <g transform="translate(223.524844 335.860562)scale(0.1 -0.1)">
      <defs>
       <path d="M 19.09375 0 
L 19.09375 5.171875 
L 28.421875 5.171875 
L 28.421875 67.09375 
L 6.984375 67.09375 
L 6.984375 55.71875 
L 0.984375 55.71875 
L 0.984375 72.90625 
L 65.71875 72.90625 
L 65.71875 55.71875 
L 59.71875 55.71875 
L 59.71875 67.09375 
L 38.28125 67.09375 
L 38.28125 5.171875 
L 47.609375 5.171875 
L 47.609375 0 
z
" id="DejaVuSerif-84"/>
       <path d="M 9.71875 68.015625 
Q 9.71875 70.265625 11.34375 71.921875 
Q 12.984375 73.578125 15.28125 73.578125 
Q 17.53125 73.578125 19.15625 71.921875 
Q 20.796875 70.265625 20.796875 68.015625 
Q 20.796875 65.71875 19.1875 64.109375 
Q 17.578125 62.5 15.28125 62.5 
Q 12.984375 62.5 11.34375 64.109375 
Q 9.71875 65.71875 9.71875 68.015625 
z
M 21.1875 5.171875 
L 29.6875 5.171875 
L 29.6875 0 
L 3.609375 0 
L 3.609375 5.171875 
L 12.203125 5.171875 
L 12.203125 46.6875 
L 3.609375 46.6875 
L 3.609375 51.90625 
L 21.1875 51.90625 
z
" id="DejaVuSerif-105"/>
       <path d="M 51.8125 41.796875 
Q 54.390625 47.515625 58.421875 50.421875 
Q 62.453125 53.328125 67.828125 53.328125 
Q 75.984375 53.328125 79.984375 48.265625 
Q 83.984375 43.21875 83.984375 33.015625 
L 83.984375 5.171875 
L 92.09375 5.171875 
L 92.09375 0 
L 67.1875 0 
L 67.1875 5.171875 
L 75 5.171875 
L 75 31.984375 
Q 75 39.9375 72.65625 43.3125 
Q 70.3125 46.6875 64.890625 46.6875 
Q 58.890625 46.6875 55.734375 42.140625 
Q 52.59375 37.59375 52.59375 28.90625 
L 52.59375 5.171875 
L 60.40625 5.171875 
L 60.40625 0 
L 35.796875 0 
L 35.796875 5.171875 
L 43.609375 5.171875 
L 43.609375 32.328125 
Q 43.609375 40.09375 41.265625 43.390625 
Q 38.921875 46.6875 33.5 46.6875 
Q 27.484375 46.6875 24.328125 42.140625 
Q 21.1875 37.59375 21.1875 28.90625 
L 21.1875 5.171875 
L 29 5.171875 
L 29 0 
L 4.109375 0 
L 4.109375 5.171875 
L 12.203125 5.171875 
L 12.203125 46.78125 
L 3.609375 46.78125 
L 3.609375 51.90625 
L 21.1875 51.90625 
L 21.1875 42.671875 
Q 23.6875 47.859375 27.53125 50.59375 
Q 31.390625 53.328125 36.28125 53.328125 
Q 42.328125 53.328125 46.375 50.3125 
Q 50.4375 47.3125 51.8125 41.796875 
z
" id="DejaVuSerif-109"/>
       <path d="M 54.203125 25 
L 15.484375 25 
L 15.484375 24.609375 
Q 15.484375 14.109375 19.4375 8.765625 
Q 23.390625 3.421875 31.109375 3.421875 
Q 37.015625 3.421875 40.796875 6.515625 
Q 44.578125 9.625 46.09375 15.71875 
L 53.328125 15.71875 
Q 51.171875 7.171875 45.375 2.875 
Q 39.59375 -1.421875 30.171875 -1.421875 
Q 18.796875 -1.421875 11.890625 6.078125 
Q 4.984375 13.578125 4.984375 25.984375 
Q 4.984375 38.28125 11.765625 45.796875 
Q 18.5625 53.328125 29.59375 53.328125 
Q 41.359375 53.328125 47.65625 46.0625 
Q 53.953125 38.8125 54.203125 25 
z
M 43.609375 30.171875 
Q 43.3125 39.265625 39.765625 43.875 
Q 36.234375 48.484375 29.59375 48.484375 
Q 23.390625 48.484375 19.828125 43.84375 
Q 16.265625 39.203125 15.484375 30.171875 
z
" id="DejaVuSerif-101"/>
      </defs>
      <use xlink:href="#DejaVuSerif-84"/>
      <use x="66.699219" xlink:href="#DejaVuSerif-105"/>
      <use x="98.681641" xlink:href="#DejaVuSerif-109"/>
      <use x="193.505859" xlink:href="#DejaVuSerif-101"/>
     </g>
    </g>
   </g>
   <g id="matplotlib.axis_2">
    <g id="ytick_1">
     <g id="line2d_10">
      <defs>
       <path d="M 0 0 
L -3.5 0 
" id="m500384628e" style="stroke:#000000;stroke-width:0.8;"/>
      </defs>
      <g>
       <use style="stroke:#000000;stroke-width:0.8;" x="57.6" xlink:href="#m500384628e" y="255.518609"/>
      </g>
     </g>
     <g id="text_11">
      <!-- −0.6 -->
      <g transform="translate(26.317187 259.317827)scale(0.1 -0.1)">
       <defs>
        <path d="M 10.59375 35.296875 
L 73.1875 35.296875 
L 73.1875 27.390625 
L 10.59375 27.390625 
z
" id="DejaVuSerif-8722"/>
        <path d="M 9.421875 5.078125 
Q 9.421875 7.8125 11.28125 9.71875 
Q 13.140625 11.625 15.921875 11.625 
Q 18.609375 11.625 20.5 9.71875 
Q 22.40625 7.8125 22.40625 5.078125 
Q 22.40625 2.390625 20.5 0.484375 
Q 18.609375 -1.421875 15.921875 -1.421875 
Q 13.140625 -1.421875 11.28125 0.453125 
Q 9.421875 2.34375 9.421875 5.078125 
z
" id="DejaVuSerif-46"/>
        <path d="M 32.71875 3.421875 
Q 39.59375 3.421875 43.296875 8.46875 
Q 47.015625 13.53125 47.015625 23 
Q 47.015625 32.46875 43.296875 37.515625 
Q 39.59375 42.578125 32.71875 42.578125 
Q 25.734375 42.578125 22.0625 37.6875 
Q 18.40625 32.8125 18.40625 23.578125 
Q 18.40625 13.875 22.109375 8.640625 
Q 25.828125 3.421875 32.71875 3.421875 
z
M 16.796875 40.140625 
Q 20.125 43.796875 24.3125 45.59375 
Q 28.515625 47.40625 33.796875 47.40625 
Q 44.671875 47.40625 51 40.859375 
Q 57.328125 34.328125 57.328125 23 
Q 57.328125 11.921875 50.515625 5.25 
Q 43.703125 -1.421875 32.328125 -1.421875 
Q 19.96875 -1.421875 13.328125 7.78125 
Q 6.6875 17 6.6875 34.078125 
Q 6.6875 53.21875 14.546875 63.71875 
Q 22.40625 74.21875 36.71875 74.21875 
Q 40.578125 74.21875 44.828125 73.484375 
Q 49.078125 72.75 53.515625 71.296875 
L 53.515625 59.28125 
L 48 59.28125 
Q 47.40625 64.203125 44.234375 66.796875 
Q 41.0625 69.390625 35.6875 69.390625 
Q 26.21875 69.390625 21.578125 62.203125 
Q 16.9375 55.03125 16.796875 40.140625 
z
" id="DejaVuSerif-54"/>
       </defs>
       <use xlink:href="#DejaVuSerif-8722"/>
       <use x="83.789062" xlink:href="#DejaVuSerif-48"/>
       <use x="147.412109" xlink:href="#DejaVuSerif-46"/>
       <use x="179.199219" xlink:href="#DejaVuSerif-54"/>
      </g>
     </g>
    </g>
    <g id="ytick_2">
     <g id="line2d_11">
      <g>
       <use style="stroke:#000000;stroke-width:0.8;" x="57.6" xlink:href="#m500384628e" y="202.226087"/>
      </g>
     </g>
     <g id="text_12">
      <!-- −0.4 -->
      <g transform="translate(26.317187 206.025306)scale(0.1 -0.1)">
       <use xlink:href="#DejaVuSerif-8722"/>
       <use x="83.789062" xlink:href="#DejaVuSerif-48"/>
       <use x="147.412109" xlink:href="#DejaVuSerif-46"/>
       <use x="179.199219" xlink:href="#DejaVuSerif-52"/>
      </g>
     </g>
    </g>
    <g id="ytick_3">
     <g id="line2d_12">
      <g>
       <use style="stroke:#000000;stroke-width:0.8;" x="57.6" xlink:href="#m500384628e" y="148.933565"/>
      </g>
     </g>
     <g id="text_13">
      <!-- −0.2 -->
      <g transform="translate(26.317187 152.732784)scale(0.1 -0.1)">
       <use xlink:href="#DejaVuSerif-8722"/>
       <use x="83.789062" xlink:href="#DejaVuSerif-48"/>
       <use x="147.412109" xlink:href="#DejaVuSerif-46"/>
       <use x="179.199219" xlink:href="#DejaVuSerif-50"/>
      </g>
     </g>
    </g>
    <g id="ytick_4">
     <g id="line2d_13">
      <g>
       <use style="stroke:#000000;stroke-width:0.8;" x="57.6" xlink:href="#m500384628e" y="95.641043"/>
      </g>
     </g>
     <g id="text_14">
      <!-- 0.0 -->
      <g transform="translate(34.696875 99.440262)scale(0.1 -0.1)">
       <use xlink:href="#DejaVuSerif-48"/>
       <use x="63.623047" xlink:href="#DejaVuSerif-46"/>
       <use x="95.410156" xlink:href="#DejaVuSerif-48"/>
      </g>
     </g>
    </g>
    <g id="ytick_5">
     <g id="line2d_14">
      <g>
       <use style="stroke:#000000;stroke-width:0.8;" x="57.6" xlink:href="#m500384628e" y="42.348522"/>
      </g>
     </g>
     <g id="text_15">
      <!-- 0.2 -->
      <g transform="translate(34.696875 46.14774)scale(0.1 -0.1)">
       <use xlink:href="#DejaVuSerif-48"/>
       <use x="63.623047" xlink:href="#DejaVuSerif-46"/>
       <use x="95.410156" xlink:href="#DejaVuSerif-50"/>
      </g>
     </g>
    </g>
    <g id="text_16">
     <!-- Speed -->
     <g transform="translate(20.2375 190.273313)rotate(-90)scale(0.1 -0.1)">
      <defs>
       <path d="M 9.28125 3.515625 
L 9.28125 20.125 
L 14.890625 20.0625 
Q 15.140625 11.765625 19.703125 7.78125 
Q 24.265625 3.8125 33.59375 3.8125 
Q 42.28125 3.8125 46.84375 7.25 
Q 51.421875 10.6875 51.421875 17.28125 
Q 51.421875 22.5625 48.65625 25.390625 
Q 45.90625 28.21875 37.015625 30.90625 
L 27.390625 33.796875 
Q 16.9375 36.96875 12.671875 41.703125 
Q 8.40625 46.4375 8.40625 54.6875 
Q 8.40625 63.96875 14.984375 69.09375 
Q 21.578125 74.21875 33.5 74.21875 
Q 38.578125 74.21875 44.625 73.109375 
Q 50.6875 72.015625 57.515625 69.921875 
L 57.515625 54.390625 
L 52 54.390625 
Q 51.171875 62.109375 46.84375 65.546875 
Q 42.53125 69 33.6875 69 
Q 25.984375 69 21.953125 65.84375 
Q 17.921875 62.703125 17.921875 56.6875 
Q 17.921875 51.46875 20.9375 48.484375 
Q 23.96875 45.515625 33.796875 42.578125 
L 42.828125 39.890625 
Q 52.734375 36.921875 56.953125 32.296875 
Q 61.1875 27.6875 61.1875 19.921875 
Q 61.1875 9.328125 54.390625 3.953125 
Q 47.609375 -1.421875 34.1875 -1.421875 
Q 28.171875 -1.421875 21.9375 -0.1875 
Q 15.71875 1.03125 9.28125 3.515625 
z
" id="DejaVuSerif-83"/>
       <path d="M 20.515625 28.515625 
L 20.515625 23.390625 
Q 20.515625 14.015625 24.09375 9.109375 
Q 27.6875 4.203125 34.515625 4.203125 
Q 41.40625 4.203125 44.9375 9.71875 
Q 48.484375 15.234375 48.484375 25.984375 
Q 48.484375 36.765625 44.9375 42.234375 
Q 41.40625 47.703125 34.515625 47.703125 
Q 27.6875 47.703125 24.09375 42.765625 
Q 20.515625 37.84375 20.515625 28.515625 
z
M 11.53125 46.6875 
L 2.875 46.6875 
L 2.875 51.90625 
L 20.515625 51.90625 
L 20.515625 43.796875 
Q 23.140625 48.6875 27.21875 51 
Q 31.296875 53.328125 37.3125 53.328125 
Q 46.875 53.328125 52.921875 45.75 
Q 58.984375 38.1875 58.984375 25.984375 
Q 58.984375 13.765625 52.921875 6.171875 
Q 46.875 -1.421875 37.3125 -1.421875 
Q 31.296875 -1.421875 27.21875 0.890625 
Q 23.140625 3.21875 20.515625 8.109375 
L 20.515625 -15.578125 
L 29 -15.578125 
L 29 -20.796875 
L 2.875 -20.796875 
L 2.875 -15.578125 
L 11.53125 -15.578125 
z
" id="DejaVuSerif-112"/>
       <path d="M 52.484375 5.171875 
L 61.078125 5.171875 
L 61.078125 0 
L 43.5 0 
L 43.5 8.109375 
Q 40.875 3.21875 36.796875 0.890625 
Q 32.71875 -1.421875 26.703125 -1.421875 
Q 17.140625 -1.421875 11.0625 6.171875 
Q 4.984375 13.765625 4.984375 25.984375 
Q 4.984375 38.1875 11.03125 45.75 
Q 17.09375 53.328125 26.703125 53.328125 
Q 32.71875 53.328125 36.796875 51 
Q 40.875 48.6875 43.5 43.796875 
L 43.5 70.796875 
L 35.015625 70.796875 
L 35.015625 75.984375 
L 52.484375 75.984375 
z
M 43.5 23.390625 
L 43.5 28.515625 
Q 43.5 37.84375 39.90625 42.765625 
Q 36.328125 47.703125 29.5 47.703125 
Q 22.5625 47.703125 19.015625 42.234375 
Q 15.484375 36.765625 15.484375 25.984375 
Q 15.484375 15.234375 19.015625 9.71875 
Q 22.5625 4.203125 29.5 4.203125 
Q 36.328125 4.203125 39.90625 9.109375 
Q 43.5 14.015625 43.5 23.390625 
z
" id="DejaVuSerif-100"/>
      </defs>
      <use xlink:href="#DejaVuSerif-83"/>
      <use x="68.505859" xlink:href="#DejaVuSerif-112"/>
      <use x="132.519531" xlink:href="#DejaVuSerif-101"/>
      <use x="191.699219" xlink:href="#DejaVuSerif-101"/>
      <use x="250.878906" xlink:href="#DejaVuSerif-100"/>
     </g>
    </g>
   </g>
   <g id="line2d_15">
    <path clip-path="url(#pf4f8b4dc61)" d="M 73.832727 95.641043 
L 75.120748 95.641043 
L 75.259332 295.488 
L 75.463133 295.488 
L 75.601718 273.282783 
L 75.73215 273.282783 
L 75.870734 95.641043 
L 85.514584 95.641043 
L 85.653169 53.568 
L 85.791753 54.646796 
L 85.995554 54.646796 
L 86.125987 55.671652 
L 86.329787 55.671652 
L 86.468372 56.646515 
L 86.672173 56.646515 
L 86.810757 57.574957 
L 87.014558 57.574957 
L 87.14499 58.460214 
L 87.348791 58.460214 
L 87.487375 59.305233 
L 87.691176 59.305233 
L 87.829761 60.112696 
L 88.033561 60.112696 
L 88.163994 60.885051 
L 88.367795 60.885051 
L 88.506379 61.62454 
L 88.71018 61.62454 
L 88.775396 62.333217 
L 88.91398 95.641043 
L 94.620401 95.641043 
L 94.758985 71.044495 
L 94.824201 71.044495 
L 94.962786 71.41717 
L 95.166587 71.41717 
L 95.297019 71.77872 
L 95.50082 71.77872 
L 95.639404 72.129637 
L 95.843205 72.129637 
L 95.981789 72.470382 
L 96.18559 72.470382 
L 96.316023 72.801391 
L 96.519823 72.801391 
L 96.658408 73.123077 
L 96.862209 73.123077 
L 97.000793 73.435826 
L 97.204594 73.435826 
L 97.335026 73.740007 
L 97.538827 73.740007 
L 97.677411 74.035967 
L 97.881212 74.035967 
L 98.019797 74.324035 
L 98.223597 74.324035 
L 98.35403 74.604522 
L 98.557831 74.604522 
L 98.696415 74.877723 
L 98.900216 74.877723 
L 99.0388 75.14392 
L 99.242601 75.14392 
L 99.373033 75.403377 
L 99.576834 75.403377 
L 99.715419 75.656348 
L 99.919219 75.656348 
L 100.057804 75.903072 
L 100.12302 75.903072 
L 100.261605 95.641043 
L 101.280608 95.641043 
L 101.411041 76.831918 
L 101.614841 76.831918 
L 101.753426 77.050629 
L 101.957227 77.050629 
L 102.095811 77.264312 
L 102.299612 77.264312 
L 102.430044 77.473138 
L 102.633845 77.473138 
L 102.772429 77.677272 
L 102.97623 77.677272 
L 103.114815 77.87687 
L 103.318615 77.87687 
L 103.449048 78.07208 
L 103.652848 78.07208 
L 103.791433 78.263047 
L 103.995234 78.263047 
L 104.133818 78.449907 
L 104.337619 78.449907 
L 104.468051 78.632792 
L 104.671852 78.632792 
L 104.810437 78.811826 
L 105.014237 78.811826 
L 105.152822 78.98713 
L 105.356622 78.98713 
L 105.487055 79.15882 
L 105.690856 79.15882 
L 105.82944 79.327006 
L 106.033241 79.327006 
L 106.171825 79.491794 
L 106.375626 79.491794 
L 106.506059 79.653287 
L 106.709859 79.653287 
L 106.848444 79.811582 
L 106.987028 79.811582 
L 107.052244 63.98212 
L 107.117461 64.292501 
L 107.39463 64.292501 
L 107.525062 64.596856 
L 107.728863 64.596856 
L 107.867447 64.895358 
L 108.071248 64.895358 
L 108.209833 65.188174 
L 108.413633 65.188174 
L 108.47885 65.475465 
L 108.617434 80.558254 
L 108.747866 80.558254 
L 108.886451 80.699215 
L 109.090252 80.699215 
L 109.228836 80.837565 
L 109.432637 80.837565 
L 109.563069 80.973377 
L 109.76687 80.973377 
L 109.905455 81.106719 
L 110.109255 81.106719 
L 110.24784 81.237659 
L 110.45164 81.237659 
L 110.582073 81.366261 
L 110.785874 81.366261 
L 110.924458 81.492586 
L 111.128259 81.492586 
L 111.266843 81.616696 
L 111.470644 81.616696 
L 111.601077 81.738647 
L 111.804877 81.738647 
L 111.943462 81.858495 
L 112.147262 81.858495 
L 112.285847 81.976294 
L 112.416279 68.311545 
L 112.489648 68.311545 
L 112.62008 68.543151 
L 112.823881 68.543151 
L 112.962465 68.770864 
L 113.166266 68.770864 
L 113.304851 68.994783 
L 113.508651 68.994783 
L 113.639084 69.215 
L 113.842884 69.215 
L 113.981469 69.431607 
L 114.18527 69.431607 
L 114.323854 69.644691 
L 114.527655 69.644691 
L 114.658087 69.854339 
L 114.861888 69.854339 
L 115.000473 70.060633 
L 115.204273 70.060633 
L 115.342858 70.263652 
L 115.546658 70.263652 
L 115.611875 70.463474 
L 115.750459 83.052259 
L 116.223277 83.150609 
L 116.361861 83.247434 
L 116.899895 83.342769 
L 117.103696 83.436649 
L 117.24228 83.436649 
L 117.380865 71.41717 
L 117.584666 71.41717 
L 117.715098 71.599304 
L 117.918899 71.599304 
L 118.057483 71.77872 
L 118.261284 71.77872 
L 118.399869 71.955478 
L 118.603669 71.955478 
L 118.734102 72.129637 
L 118.937902 72.129637 
L 119.076487 72.301253 
L 119.280288 72.301253 
L 119.418872 72.470382 
L 119.622673 72.470382 
L 119.753105 72.637077 
L 119.956906 72.637077 
L 120.09549 72.801391 
L 120.299291 72.801391 
L 120.437876 72.963375 
L 120.641676 72.963375 
L 120.772109 73.123077 
L 120.97591 73.123077 
L 121.114494 73.280545 
L 121.318295 73.280545 
L 121.456879 73.435826 
L 121.66068 73.435826 
L 121.791112 73.588966 
L 121.994913 73.588966 
L 122.133498 62.789489 
L 122.198714 62.789489 
L 122.337298 73.740007 
L 122.475883 73.888994 
L 122.679684 73.888994 
L 122.810116 74.035967 
L 123.013917 74.035967 
L 123.152501 74.180968 
L 123.356302 74.180968 
L 123.494886 74.324035 
L 123.698687 74.324035 
L 123.82912 74.465207 
L 124.03292 74.465207 
L 124.171505 74.604522 
L 124.375306 74.604522 
L 124.51389 74.742015 
L 124.717691 74.742015 
L 124.848123 74.877723 
L 125.051924 74.877723 
L 125.190508 75.01168 
L 125.394309 75.01168 
L 125.532894 75.14392 
L 125.736694 75.14392 
L 125.867127 75.274475 
L 126.070928 75.274475 
L 126.209512 75.403377 
L 126.413313 75.403377 
L 126.551897 75.530658 
L 126.617114 75.530658 
L 126.755698 65.475465 
L 126.88613 65.664 
L 127.089931 65.664 
L 127.228516 65.850193 
L 127.432316 65.850193 
L 127.570901 66.034087 
L 127.774702 66.034087 
L 127.905134 66.215725 
L 128.108935 66.215725 
L 128.247519 66.395147 
L 128.386104 66.395147 
L 128.516536 76.261945 
L 128.793705 76.261945 
L 128.924138 76.378686 
L 129.127938 76.378686 
L 129.331739 76.49403 
L 129.470324 76.49403 
L 129.608908 76.608 
L 129.812709 76.608 
L 129.943141 76.720622 
L 130.146942 76.720622 
L 130.350743 76.831918 
L 130.831712 76.941913 
L 130.962145 77.050629 
L 131.035513 77.050629 
L 131.165946 67.755422 
L 131.30453 67.91661 
L 131.508331 67.91661 
L 131.646915 68.075946 
L 131.850716 68.075946 
L 131.981148 68.233461 
L 132.184949 68.233461 
L 132.323534 68.389186 
L 132.527334 68.389186 
L 132.665919 68.543151 
L 132.86972 68.543151 
L 133.000152 68.695386 
L 133.203953 68.695386 
L 133.342537 68.845921 
L 133.546338 68.845921 
L 133.684922 68.994783 
L 133.888723 68.994783 
L 134.019156 69.142 
L 134.222956 69.142 
L 134.361541 69.287599 
L 134.500125 78.07208 
L 134.907727 78.168086 
L 135.038159 78.263047 
L 135.380544 78.356982 
L 135.519129 69.714952 
L 135.584345 69.714952 
L 135.72293 69.854339 
L 135.92673 69.854339 
L 136.057163 69.992236 
L 136.260964 69.992236 
L 136.399548 70.128666 
L 136.603349 70.128666 
L 136.741933 70.263652 
L 136.945734 70.263652 
L 137.076166 70.397217 
L 137.279967 70.397217 
L 137.418552 70.529384 
L 137.622352 70.529384 
L 137.760937 70.660174 
L 137.964738 70.660174 
L 138.09517 70.789608 
L 138.298971 70.789608 
L 138.437555 70.917709 
L 138.641356 70.917709 
L 138.77994 71.044495 
L 138.983741 71.044495 
L 139.114174 71.169988 
L 139.317974 71.169988 
L 139.456559 71.294206 
L 139.66036 71.294206 
L 139.798944 63.342545 
L 140.002745 63.342545 
L 140.133177 63.504849 
L 140.271762 71.538898 
L 140.336978 71.538898 
L 140.475562 71.659409 
L 140.679363 71.659409 
L 140.817948 71.77872 
L 141.021748 71.77872 
L 141.152181 71.896851 
L 141.355982 71.896851 
L 141.559782 72.013817 
L 141.698367 72.013817 
L 141.836951 72.129637 
L 142.040752 72.129637 
L 142.171184 72.244327 
L 142.374985 72.244327 
L 142.578786 72.357903 
L 142.71737 72.357903 
L 142.855955 72.470382 
L 143.059756 72.470382 
L 143.190188 72.581779 
L 143.736374 72.692111 
L 143.80159 72.801391 
L 143.940175 65.188174 
L 144.078759 65.188174 
L 144.209192 65.3325 
L 144.412992 65.3325 
L 144.551577 65.475465 
L 144.755378 65.475465 
L 144.893962 65.617088 
L 145.097763 65.617088 
L 145.228195 65.757386 
L 145.431996 65.757386 
L 145.57058 65.89638 
L 145.635797 65.89638 
L 145.774381 73.332546 
L 145.912966 73.435826 
L 146.450999 73.538154 
L 146.6548 73.639544 
L 147.13577 73.740007 
L 147.266202 73.839557 
L 147.812388 73.938207 
L 147.950973 74.035967 
L 148.081405 66.834275 
L 148.154773 66.834275 
L 148.285206 66.963453 
L 148.489007 66.963453 
L 148.627591 67.091478 
L 148.831392 67.091478 
L 148.969976 67.218365 
L 149.173777 67.218365 
L 149.30421 67.344129 
L 149.50801 67.344129 
L 149.646595 67.468785 
L 149.850395 67.468785 
L 149.98898 67.592348 
L 150.192781 67.592348 
L 150.323213 67.714831 
L 150.527014 67.714831 
L 150.665598 67.83625 
L 150.869399 67.83625 
L 151.007984 67.956617 
L 151.0732 67.956617 
L 151.211784 74.877723 
L 151.342217 74.96722 
L 151.888403 75.055949 
L 151.953619 75.14392 
L 152.092203 68.311545 
L 152.230788 68.311545 
L 152.36122 68.427841 
L 152.565021 68.427841 
L 152.768822 68.543151 
L 152.907406 68.543151 
L 153.045991 68.657488 
L 153.249791 68.657488 
L 153.380224 68.770864 
L 153.584025 68.770864 
L 153.787825 68.883292 
L 153.92641 68.883292 
L 154.064994 68.994783 
L 154.603028 69.105348 
L 154.806829 69.215 
L 155.287799 69.323749 
L 155.418231 69.431607 
L 155.964417 69.538584 
L 156.103002 63.145603 
L 156.306802 63.145603 
L 156.437235 63.277164 
L 156.575819 69.74994 
L 156.983421 69.854339 
L 157.122005 69.9579 
L 157.660039 70.060633 
L 157.86384 70.162547 
L 158.344809 70.263652 
L 158.475242 70.363958 
L 159.021428 70.463474 
L 159.160012 70.56221 
L 159.698046 70.660174 
L 159.901847 70.757376 
L 160.040431 64.536459 
L 160.179016 64.657019 
L 160.382817 64.657019 
L 160.513249 64.776649 
L 160.71705 64.776649 
L 160.920851 64.895358 
L 161.059435 64.895358 
L 161.19802 65.013157 
L 161.40182 65.013157 
L 161.532253 65.130058 
L 161.605621 65.130058 
L 161.736053 71.232255 
L 161.939854 71.325064 
L 162.420824 71.41717 
L 162.551256 71.508581 
L 163.097442 71.599304 
L 163.236027 71.689348 
L 163.774061 71.77872 
L 163.847429 71.867428 
L 163.977861 65.924024 
L 164.458831 66.034087 
L 164.589263 66.143338 
L 165.135449 66.251785 
L 165.274034 66.359438 
L 165.812068 66.466305 
L 166.015869 66.572395 
L 166.496838 66.677716 
L 166.627271 66.782277 
L 166.765855 66.782277 
L 166.90444 72.637077 
L 167.515842 72.719529 
L 167.719643 72.801391 
L 167.850075 67.091478 
L 168.053876 67.193078 
L 168.534845 67.293957 
L 168.665278 67.394124 
L 169.211464 67.493585 
L 169.350048 67.592348 
L 169.888082 67.69042 
L 170.091883 67.787809 
L 170.572853 67.884522 
L 170.703285 67.980565 
L 171.249471 68.075946 
L 171.388055 68.170671 
L 171.518488 68.170671 
L 171.591856 62.676597 
L 171.657072 62.789489 
L 171.795657 62.789489 
L 171.926089 68.264748 
L 172.12989 68.358183 
L 172.61086 68.450981 
L 172.741292 68.543151 
L 173.287478 68.634698 
L 173.426063 68.725628 
L 173.964097 68.815949 
L 174.167897 68.905665 
L 174.648867 68.994783 
L 174.779299 69.083308 
L 175.325485 69.171248 
L 175.46407 63.98212 
L 176.002104 64.086261 
L 176.205904 64.189719 
L 176.686874 64.292501 
L 176.817307 64.394614 
L 176.955891 69.602352 
L 177.363493 69.686893 
L 177.567293 69.770887 
L 178.040111 69.854339 
L 178.243912 69.937255 
L 178.724881 70.019639 
L 178.928682 70.101496 
L 179.132483 70.182832 
L 179.262915 65.09119 
L 179.743885 65.188174 
L 179.874317 65.284544 
L 180.420503 65.380306 
L 180.559088 65.475465 
L 181.097122 65.570028 
L 181.300922 65.664 
L 181.708524 65.757386 
L 181.847108 70.815335 
L 182.458511 70.892194 
L 182.662311 70.96858 
L 182.866112 71.044495 
L 183.004696 66.125185 
L 183.477514 66.215725 
L 183.616099 66.30571 
L 184.154133 66.395147 
L 184.357933 66.484041 
L 184.838903 66.572395 
L 184.969335 66.660216 
L 185.515521 66.747508 
L 185.719322 66.834275 
L 186.19214 66.920523 
L 186.39594 67.006256 
L 186.599741 67.091478 
L 186.673109 62.333217 
L 186.803542 67.091478 
L 187.211143 67.176195 
L 187.414944 67.260411 
L 187.895914 67.344129 
L 188.099714 67.427355 
L 188.572532 67.510094 
L 188.776333 67.592348 
L 189.24915 67.674122 
L 189.452951 67.755422 
L 189.933921 67.83625 
L 190.137722 67.91661 
L 190.341522 67.996508 
L 190.471955 63.389085 
L 190.952924 63.481763 
L 191.083357 63.57391 
L 191.490958 63.66553 
L 191.629543 68.233461 
L 191.833344 68.311545 
L 192.306161 68.389186 
L 192.509962 68.466387 
L 192.990932 68.543151 
L 193.194732 68.619483 
L 193.66755 68.695386 
L 193.871351 68.770864 
L 194.075152 68.845921 
L 194.213736 64.380067 
L 194.686554 64.467145 
L 194.890354 64.553739 
L 195.363172 64.639854 
L 195.566973 64.725492 
L 196.047942 64.810659 
L 196.251743 64.895358 
L 196.382176 69.287599 
L 196.585976 69.3598 
L 197.066946 69.431607 
L 197.270747 69.503022 
L 197.743564 69.574049 
L 197.882149 65.311966 
L 198.420183 65.393937 
L 198.623984 65.475465 
L 199.104953 65.556555 
L 199.308754 65.637211 
L 199.781572 65.717435 
L 199.985372 65.797231 
L 200.45819 65.876603 
L 200.661991 65.955554 
L 201.004376 66.034087 
L 201.14296 70.263652 
L 201.346761 70.330611 
L 201.411977 70.330611 
L 201.477194 66.112206 
L 201.550562 66.189913 
L 202.161964 66.267213 
L 202.365765 66.344107 
L 202.838582 66.420601 
L 203.042383 66.496696 
L 203.515201 66.572395 
L 203.719002 66.647703 
L 204.199971 66.722621 
L 204.403772 66.797153 
L 204.87659 66.871302 
L 205.015174 66.94507 
L 205.145607 62.845645 
L 205.553208 62.929521 
L 205.757009 63.012969 
L 205.895593 67.091478 
L 206.099394 67.164123 
L 206.572212 67.2364 
L 206.776012 67.30831 
L 207.256982 67.379858 
L 207.460783 67.451045 
L 207.9336 67.521874 
L 208.137401 67.592348 
L 208.610219 67.66247 
L 208.683587 67.732242 
L 208.81402 63.74527 
L 209.294989 63.824613 
L 209.49879 63.903562 
L 209.971608 63.98212 
L 210.175408 64.06029 
L 210.444425 64.138075 
L 210.58301 68.075946 
L 210.990611 68.143674 
L 211.194412 68.211069 
L 211.66723 68.278135 
L 211.87103 68.344874 
L 212.278632 68.411288 
L 212.352 64.521323 
L 212.417216 64.596856 
L 213.028618 64.672024 
L 213.232419 64.746828 
L 213.705237 64.821272 
L 213.909037 64.895358 
L 214.390007 64.969089 
L 214.593808 65.042466 
L 215.066626 65.115494 
L 215.131842 65.188174 
L 215.270426 68.994783 
L 215.743244 69.058075 
L 215.881828 69.121068 
L 216.020413 65.3325 
L 216.428014 65.404152 
L 216.631815 65.475465 
L 217.104633 65.546443 
L 217.308433 65.617088 
L 217.781251 65.687401 
L 217.985052 65.757386 
L 218.466022 65.827045 
L 218.669822 65.89638 
L 219.14264 65.965393 
L 219.346441 66.034087 
L 219.485025 66.034087 
L 219.615458 62.410141 
L 219.754042 62.410141 
L 219.892627 66.170525 
L 220.504029 66.238273 
L 220.707829 66.30571 
L 221.180647 66.372839 
L 221.384448 66.439662 
L 221.857266 66.50618 
L 222.061066 66.572395 
L 222.542036 66.638311 
L 222.745837 66.703928 
L 223.08007 66.769248 
L 223.218654 63.160274 
L 223.422455 63.233429 
L 223.895273 63.306255 
L 224.099073 63.378755 
L 224.441459 63.45093 
L 224.580043 67.027609 
L 224.783844 67.091478 
L 225.256662 67.155063 
L 225.460462 67.218365 
L 225.93328 67.281387 
L 226.137081 67.344129 
L 226.61805 67.406595 
L 226.683267 67.468785 
L 226.821851 63.947253 
L 227.294669 64.01691 
L 227.498469 64.086261 
L 227.971287 64.155309 
L 228.175088 64.224055 
L 228.656058 64.292501 
L 228.859858 64.36065 
L 229.063659 64.428504 
L 229.194091 67.896564 
L 229.675061 67.956617 
L 229.878862 68.01641 
L 230.213095 68.075946 
L 230.35168 64.630309 
L 230.55548 64.696999 
L 231.028298 64.763402 
L 231.232099 64.829521 
L 231.713068 64.895358 
L 231.916869 64.960914 
L 232.389687 65.026191 
L 232.593487 65.09119 
L 233.066305 65.155915 
L 233.270106 65.220365 
L 233.612491 65.284544 
L 233.751076 68.657488 
L 233.881508 65.348452 
L 234.427694 65.412092 
L 234.631495 65.475465 
L 235.104312 65.538573 
L 235.308113 65.601417 
L 235.789083 65.664 
L 235.992883 65.726322 
L 236.465701 65.788386 
L 236.669502 65.850193 
L 237.142319 65.911744 
L 237.34612 65.973042 
L 237.484705 62.676597 
L 237.688505 62.744425 
L 238.096107 62.811975 
L 238.234691 66.155427 
L 238.846093 66.215725 
L 239.049894 66.275776 
L 239.522712 66.335583 
L 239.726513 66.395147 
L 240.19933 66.45447 
L 240.403131 66.513552 
L 240.884101 66.572395 
L 241.014533 63.407663 
L 241.560719 63.472519 
L 241.76452 63.537115 
L 242.237337 63.601451 
L 242.441138 63.66553 
L 242.718307 63.729354 
L 242.84874 66.920523 
L 243.256341 66.977735 
L 243.460142 67.03472 
L 243.941111 67.091478 
L 244.144912 67.148012 
L 244.413929 67.204322 
L 244.552514 64.044687 
L 244.960115 64.107007 
L 245.163916 64.169082 
L 245.636733 64.230913 
L 245.840534 64.292501 
L 246.313352 64.353849 
L 246.517153 64.414957 
L 246.998122 64.475826 
L 247.201923 64.536459 
L 247.332355 67.646917 
L 247.536156 67.701275 
L 247.943758 67.755422 
L 248.017126 64.657019 
L 248.082342 64.71695 
L 248.693744 64.776649 
L 248.897545 64.836118 
L 249.370363 64.895358 
L 249.574163 64.954371 
L 250.055133 65.013157 
L 250.258934 65.071719 
L 250.731751 65.130058 
L 250.935552 65.188174 
L 251.40837 65.246069 
L 251.546954 62.270015 
L 251.685539 62.270015 
L 251.815971 65.361202 
L 252.427373 65.418441 
L 252.631174 65.475465 
L 253.112144 65.532274 
L 253.315945 65.58887 
L 253.788762 65.645253 
L 253.992563 65.701425 
L 254.465381 65.757386 
L 254.669181 65.81314 
L 254.94635 65.868685 
L 255.076783 62.891449 
L 255.484384 62.952322 
L 255.688185 63.012969 
L 256.169155 63.073391 
L 256.234371 63.13359 
L 256.372955 66.088813 
L 257.188158 66.197661 
L 257.391959 66.251785 
L 258.207162 66.359438 
L 258.410963 66.412969 
L 258.476179 66.412969 
L 258.541395 63.490162 
L 258.614763 63.548831 
L 259.226165 63.607287 
L 259.429966 63.66553 
L 259.902784 63.723562 
L 260.106584 63.781384 
L 260.579402 63.838996 
L 260.717987 63.896401 
L 260.856571 66.782277 
L 261.598406 66.886086 
L 261.802206 66.93771 
L 261.940791 66.93771 
L 262.079375 64.123961 
L 262.617409 64.180342 
L 262.82121 64.236522 
L 263.30218 64.292501 
L 263.50598 64.348282 
L 264.321183 64.459249 
L 264.524984 64.514438 
L 265.201602 64.624232 
L 265.340187 67.443942 
L 265.470619 67.493585 
L 265.609204 64.678839 
L 266.359191 64.787478 
L 266.562991 64.841513 
L 267.378194 64.949015 
L 267.581995 65.002486 
L 268.397198 65.10887 
L 268.600998 65.161785 
L 268.935232 65.214517 
L 269.073816 62.448469 
L 269.277617 62.505797 
L 269.620002 62.562927 
L 269.750435 65.319436 
L 269.954235 65.371625 
L 270.769438 65.475465 
L 270.973239 65.527119 
L 271.788442 65.629896 
L 271.992242 65.681023 
L 272.399844 65.731975 
L 272.473212 63.012969 
L 272.538428 63.068365 
L 273.492216 63.178594 
L 273.696016 63.233429 
L 274.03025 63.288079 
L 274.168834 65.98416 
L 274.372635 66.034087 
L 275.187838 66.133439 
L 275.391638 66.182866 
L 275.864456 66.232127 
L 276.003041 63.612149 
L 276.88346 63.718734 
L 277.08726 63.771761 
L 277.902463 63.877289 
L 278.106264 63.929791 
L 278.513865 63.98212 
L 278.65245 66.668173 
L 279.402437 66.763322 
L 279.532869 64.138075 
L 280.282856 64.241194 
L 280.486656 64.292501 
L 281.301859 64.394614 
L 281.50566 64.445421 
L 282.320863 64.546541 
L 282.524664 64.596856 
L 282.867049 64.647008 
L 282.932265 62.064172 
L 283.07085 64.696999 
L 284.016485 64.796497 
L 284.220286 64.846007 
L 285.035488 64.944551 
L 285.239289 64.993587 
L 286.054492 65.09119 
L 286.258293 65.139759 
L 286.331661 65.139759 
L 286.396877 62.597985 
L 286.462093 62.650435 
L 287.350665 62.754835 
L 287.481097 65.3325 
L 288.434884 65.42796 
L 288.638685 65.475465 
L 289.453888 65.570028 
L 289.657689 65.617088 
L 289.722905 65.617088 
L 289.796273 63.115091 
L 289.861489 63.165913 
L 290.815277 63.267082 
L 291.019078 63.31743 
L 291.760912 63.417658 
L 291.899497 65.942425 
L 292.853284 66.034087 
L 293.057085 66.079706 
L 293.187517 66.079706 
L 293.326102 63.66553 
L 294.206521 63.763615 
L 294.410322 63.812432 
L 295.225524 63.909618 
L 295.429325 63.957989 
L 296.114096 64.05429 
L 296.244528 66.484041 
L 296.521697 66.528285 
L 296.652129 66.572395 
L 296.790714 64.150008 
L 297.605917 64.245147 
L 297.809718 64.292501 
L 298.62492 64.386783 
L 298.828721 64.433711 
L 299.643924 64.527146 
L 299.847725 64.573654 
L 300.116742 64.620023 
L 300.255326 62.233791 
L 300.524343 62.283578 
L 300.662928 64.666254 
L 300.866728 64.712348 
L 301.681931 64.804124 
L 301.885732 64.849809 
L 302.700935 64.940772 
L 302.904735 64.986053 
L 303.581354 65.076215 
L 303.719938 62.725074 
L 303.923739 62.773409 
L 304.738942 62.869654 
L 304.942743 62.917565 
L 305.081327 65.254957 
L 305.285128 65.299316 
L 306.100331 65.387647 
L 306.304131 65.43162 
L 306.98075 65.519183 
L 307.119334 63.202117 
L 307.323135 63.249062 
L 308.138338 63.342545 
L 308.342139 63.389085 
L 309.157342 63.481763 
L 309.287774 63.527903 
L 309.426359 65.821698 
L 310.176345 65.907018 
L 310.380146 65.949496 
L 310.445362 65.949496 
L 310.510578 63.66553 
L 310.583947 63.711145 
L 311.529582 63.801984 
L 311.806751 63.847209 
L 312.548586 63.937277 
L 312.825754 63.98212 
L 313.567589 64.071426 
L 313.706174 64.11589 
L 313.844758 66.367686 
L 313.909974 64.11589 
L 313.975191 64.160229 
L 314.928978 64.248534 
L 315.132779 64.292501 
L 315.947982 64.380067 
L 316.151782 64.423667 
L 316.966985 64.510502 
L 317.170786 64.553739 
L 317.30937 64.553739 
L 317.439803 62.379414 
L 318.051205 62.471424 
L 318.189789 64.682732 
L 319.004992 64.768134 
L 319.208793 64.810659 
L 320.023996 64.895358 
L 320.293013 64.937533 
L 320.700614 64.979593 
L 320.839199 62.83443 
L 321.719618 62.923943 
L 321.996787 62.968517 
L 322.33102 63.012969 
L 322.469605 65.22955 
L 323.423392 65.311966 
L 323.692409 65.353007 
L 324.165227 65.434756 
L 324.303811 63.277164 
L 325.119014 63.364281 
L 325.322815 63.407663 
L 326.138017 63.49408 
L 326.341818 63.537115 
L 326.684203 63.580034 
L 326.814636 65.717435 
L 327.091805 65.757386 
L 327.564622 65.83697 
L 327.703207 63.708108 
L 328.51841 63.792923 
L 328.787427 63.835162 
L 329.537413 63.919304 
L 329.80643 63.961209 
L 330.556417 64.044687 
L 330.825434 64.086261 
L 331.029235 64.127726 
L 331.094451 62.026838 
L 331.233035 64.127726 
L 331.502052 64.169082 
L 332.252039 64.251469 
L 332.521056 64.292501 
L 333.271043 64.374245 
L 333.54006 64.414957 
L 334.290046 64.496063 
L 334.428631 64.536459 
L 334.559063 62.46282 
L 335.30905 62.548663 
L 335.447634 62.591418 
L 335.578067 64.657019 
L 336.328053 64.736875 
L 336.59707 64.776649 
L 337.347057 64.85589 
L 337.616074 64.895358 
L 337.819875 64.934725 
L 337.958459 62.887637 
L 338.708446 62.971298 
L 338.977463 63.012969 
L 339.727449 63.095992 
L 339.792666 63.137345 
L 339.93125 65.168826 
L 340.746453 65.246069 
L 341.01547 65.284544 
L 341.284487 65.322921 
L 341.423071 63.301713 
L 341.692088 63.342545 
L 342.442075 63.423902 
L 342.711092 63.464427 
L 343.461079 63.545171 
L 343.730096 63.585391 
L 344.007265 63.625511 
L 344.137697 65.626482 
L 344.414866 65.664 
L 344.683883 65.701425 
L 344.822467 63.70545 
L 345.091484 63.74527 
L 345.841471 63.824613 
L 346.110488 63.864136 
L 346.860475 63.942889 
L 347.129492 63.98212 
L 347.879478 64.06029 
L 348.083279 64.09923 
L 348.213711 62.127867 
L 348.352296 62.169139 
L 348.49088 64.138075 
L 349.232715 64.215478 
L 349.509884 64.254037 
L 350.251719 64.330872 
L 350.528888 64.369148 
L 351.270722 64.445421 
L 351.474523 64.483418 
L 351.613107 62.536067 
L 351.882124 62.57634 
L 352.632111 62.656594 
L 352.697327 62.696575 
L 352.835912 64.634485 
L 353.651115 64.709471 
L 353.920131 64.746828 
L 354.670118 64.821272 
L 354.873919 64.858359 
L 355.012503 62.934442 
L 355.28152 62.973753 
L 356.031507 63.052091 
L 356.300524 63.09112 
L 356.977142 63.168898 
L 357.115727 65.115494 
L 358.273315 65.224384 
L 358.403747 63.323343 
L 358.680916 63.361725 
L 359.422751 63.438216 
L 359.69992 63.476326 
L 360.441754 63.552276 
L 360.718923 63.590116 
L 361.330326 63.66553 
L 361.460758 65.546443 
L 361.737927 65.581807 
L 361.803143 63.703104 
L 361.86836 63.74059 
L 362.822147 63.815299 
L 363.091164 63.852522 
L 363.84115 63.926707 
L 364.110167 63.96367 
L 365.129171 64.074045 
L 365.202539 62.217162 
L 365.267756 62.255937 
L 365.610141 62.294622 
L 365.740573 64.147201 
L 366.898161 64.256302 
L 367.167178 64.292501 
L 368.25955 64.4006 
L 368.528567 64.436467 
L 368.593783 62.600904 
L 368.667152 62.638794 
L 369.612787 62.714314 
L 369.889956 62.751944 
L 370.020388 64.614575 
L 371.316561 64.720468 
L 371.585578 64.755605 
L 371.927963 64.790662 
L 371.993179 62.975934 
L 372.058395 63.012969 
L 373.354568 63.123573 
L 373.623585 63.160274 
L 374.169771 63.233429 
L 374.300203 65.033852 
L 375.319207 65.136906 
L 375.392575 63.342545 
L 375.457791 63.378755 
L 376.745812 63.486896 
L 377.022981 63.522783 
L 378.107201 63.629963 
L 378.376218 63.66553 
L 378.514802 63.701019 
L 378.653387 65.475465 
L 378.718603 65.475465 
L 378.783819 63.701019 
L 378.857187 63.73643 
L 380.145208 63.842191 
L 380.414225 63.877289 
L 381.506597 63.98212 
L 381.775614 64.01691 
L 382.117999 64.051623 
L 382.183215 62.296656 
L 382.248431 62.333217 
L 382.729401 62.369699 
L 382.859834 64.120823 
L 383.137003 64.155309 
L 384.221222 64.258315 
L 384.490239 64.292501 
L 385.509243 64.394614 
L 385.582611 62.658701 
L 385.647827 62.694474 
L 386.935848 62.801327 
L 387.074432 62.836791 
L 387.213017 64.563331 
L 388.297237 64.66369 
L 388.566254 64.696999 
L 388.843423 64.730236 
L 388.973855 63.012969 
L 389.251024 63.047978 
L 390.335244 63.152554 
L 390.604261 63.187264 
L 391.289031 63.256462 
L 391.419464 64.993587 
L 392.234667 65.058725 
L 392.373251 63.359707 
L 392.642268 63.393976 
L 393.73464 63.496348 
L 394.003657 63.530327 
L 395.087877 63.631837 
L 395.365046 63.66553 
L 396.449266 63.766188 
L 396.718282 63.7996 
L 397.810654 63.899416 
L 398.079671 63.932549 
L 398.487273 63.965613 
L 398.487273 63.965613 
" style="fill:none;stroke:#1f77b4;stroke-linecap:square;stroke-width:1.5;"/>
   </g>
   <g id="patch_3">
    <path d="M 57.6 307.584 
L 57.6 41.472 
" style="fill:none;stroke:#000000;stroke-linecap:square;stroke-linejoin:miter;stroke-width:0.8;"/>
   </g>
   <g id="patch_4">
    <path d="M 414.72 307.584 
L 414.72 41.472 
" style="fill:none;stroke:#000000;stroke-linecap:square;stroke-linejoin:miter;stroke-width:0.8;"/>
   </g>
   <g id="patch_5">
    <path d="M 57.6 307.584 
L 414.72 307.584 
" style="fill:none;stroke:#000000;stroke-linecap:square;stroke-linejoin:miter;stroke-width:0.8;"/>
   </g>
   <g id="patch_6">
    <path d="M 57.6 41.472 
L 414.72 41.472 
" style="fill:none;stroke:#000000;stroke-linecap:square;stroke-linejoin:miter;stroke-width:0.8;"/>
   </g>
   <g id="text_17">
    <!-- Speed function of time -->
    <g transform="translate(167.024063 35.472)scale(0.12 -0.12)">
     <defs>
      <path id="DejaVuSerif-32"/>
      <path d="M 43.015625 63.71875 
L 38.28125 63.71875 
Q 38.234375 67.390625 36.203125 69.28125 
Q 34.1875 71.1875 30.328125 71.1875 
Q 25.296875 71.1875 23.234375 68.421875 
Q 21.1875 65.671875 21.1875 58.59375 
L 21.1875 51.90625 
L 35.6875 51.90625 
L 35.6875 46.6875 
L 21.1875 46.6875 
L 21.1875 5.171875 
L 32.71875 5.171875 
L 32.71875 0 
L 3.609375 0 
L 3.609375 5.171875 
L 12.203125 5.171875 
L 12.203125 46.6875 
L 3.609375 46.6875 
L 3.609375 51.90625 
L 12.203125 51.90625 
L 12.203125 58.40625 
Q 12.203125 67.09375 16.71875 71.53125 
Q 21.234375 75.984375 29.984375 75.984375 
Q 33.25 75.984375 36.515625 75.390625 
Q 39.796875 74.8125 43.015625 73.578125 
z
" id="DejaVuSerif-102"/>
      <path d="M 35.40625 51.90625 
L 52.203125 51.90625 
L 52.203125 5.171875 
L 60.6875 5.171875 
L 60.6875 0 
L 43.21875 0 
L 43.21875 9.1875 
Q 40.71875 4 36.765625 1.28125 
Q 32.8125 -1.421875 27.59375 -1.421875 
Q 18.953125 -1.421875 14.875 3.484375 
Q 10.796875 8.40625 10.796875 18.890625 
L 10.796875 46.6875 
L 2.6875 46.6875 
L 2.6875 51.90625 
L 19.828125 51.90625 
L 19.828125 21.6875 
Q 19.828125 12.203125 22.140625 8.6875 
Q 24.46875 5.171875 30.421875 5.171875 
Q 36.671875 5.171875 39.9375 9.765625 
Q 43.21875 14.359375 43.21875 23.09375 
L 43.21875 46.6875 
L 35.40625 46.6875 
z
" id="DejaVuSerif-117"/>
      <path d="M 4.109375 0 
L 4.109375 5.171875 
L 12.203125 5.171875 
L 12.203125 46.6875 
L 3.609375 46.6875 
L 3.609375 51.90625 
L 21.1875 51.90625 
L 21.1875 42.671875 
Q 23.6875 47.953125 27.65625 50.640625 
Q 31.640625 53.328125 36.921875 53.328125 
Q 45.515625 53.328125 49.5625 48.390625 
Q 53.609375 43.453125 53.609375 33.015625 
L 53.609375 5.171875 
L 61.625 5.171875 
L 61.625 0 
L 36.8125 0 
L 36.8125 5.171875 
L 44.578125 5.171875 
L 44.578125 30.171875 
Q 44.578125 39.703125 42.234375 43.234375 
Q 39.890625 46.78125 33.984375 46.78125 
Q 27.734375 46.78125 24.453125 42.203125 
Q 21.1875 37.640625 21.1875 28.90625 
L 21.1875 5.171875 
L 29 5.171875 
L 29 0 
z
" id="DejaVuSerif-110"/>
      <path d="M 51.421875 15.578125 
Q 49.515625 7.28125 44.09375 2.921875 
Q 38.671875 -1.421875 30.078125 -1.421875 
Q 18.75 -1.421875 11.859375 6.078125 
Q 4.984375 13.578125 4.984375 25.984375 
Q 4.984375 38.421875 11.859375 45.875 
Q 18.75 53.328125 30.078125 53.328125 
Q 35.015625 53.328125 39.890625 52.171875 
Q 44.78125 51.03125 49.703125 48.6875 
L 49.703125 35.40625 
L 44.484375 35.40625 
Q 43.453125 42.234375 40.015625 45.359375 
Q 36.578125 48.484375 30.171875 48.484375 
Q 22.90625 48.484375 19.1875 42.84375 
Q 15.484375 37.203125 15.484375 25.984375 
Q 15.484375 14.75 19.171875 9.078125 
Q 22.859375 3.421875 30.171875 3.421875 
Q 35.984375 3.421875 39.453125 6.4375 
Q 42.921875 9.46875 44.1875 15.578125 
z
" id="DejaVuSerif-99"/>
      <path d="M 10.796875 46.6875 
L 2.875 46.6875 
L 2.875 51.90625 
L 10.796875 51.90625 
L 10.796875 68.015625 
L 19.828125 68.015625 
L 19.828125 51.90625 
L 36.71875 51.90625 
L 36.71875 46.6875 
L 19.828125 46.6875 
L 19.828125 13.71875 
Q 19.828125 7.125 21.09375 5.265625 
Q 22.359375 3.421875 25.78125 3.421875 
Q 29.296875 3.421875 30.90625 5.484375 
Q 32.515625 7.5625 32.625 12.203125 
L 39.40625 12.203125 
Q 39.015625 5.125 35.546875 1.84375 
Q 32.078125 -1.421875 25 -1.421875 
Q 17.234375 -1.421875 14.015625 2.015625 
Q 10.796875 5.46875 10.796875 13.71875 
z
" id="DejaVuSerif-116"/>
      <path d="M 30.078125 3.421875 
Q 37.3125 3.421875 40.984375 9.125 
Q 44.671875 14.84375 44.671875 25.984375 
Q 44.671875 37.109375 40.984375 42.796875 
Q 37.3125 48.484375 30.078125 48.484375 
Q 22.859375 48.484375 19.171875 42.796875 
Q 15.484375 37.109375 15.484375 25.984375 
Q 15.484375 14.84375 19.1875 9.125 
Q 22.90625 3.421875 30.078125 3.421875 
z
M 30.078125 -1.421875 
Q 18.75 -1.421875 11.859375 6.078125 
Q 4.984375 13.578125 4.984375 25.984375 
Q 4.984375 38.375 11.84375 45.84375 
Q 18.703125 53.328125 30.078125 53.328125 
Q 41.453125 53.328125 48.3125 45.84375 
Q 55.171875 38.375 55.171875 25.984375 
Q 55.171875 13.578125 48.3125 6.078125 
Q 41.453125 -1.421875 30.078125 -1.421875 
z
" id="DejaVuSerif-111"/>
     </defs>
     <use xlink:href="#DejaVuSerif-83"/>
     <use x="68.505859" xlink:href="#DejaVuSerif-112"/>
     <use x="132.519531" xlink:href="#DejaVuSerif-101"/>
     <use x="191.699219" xlink:href="#DejaVuSerif-101"/>
     <use x="250.878906" xlink:href="#DejaVuSerif-100"/>
     <use x="314.892578" xlink:href="#DejaVuSerif-32"/>
     <use x="346.679688" xlink:href="#DejaVuSerif-102"/>
     <use x="383.691406" xlink:href="#DejaVuSerif-117"/>
     <use x="448.095703" xlink:href="#DejaVuSerif-110"/>
     <use x="512.5" xlink:href="#DejaVuSerif-99"/>
     <use x="568.505859" xlink:href="#DejaVuSerif-116"/>
     <use x="608.691406" xlink:href="#DejaVuSerif-105"/>
     <use x="640.673828" xlink:href="#DejaVuSerif-111"/>
     <use x="700.878906" xlink:href="#DejaVuSerif-110"/>
     <use x="765.283203" xlink:href="#DejaVuSerif-32"/>
     <use x="797.070312" xlink:href="#DejaVuSerif-111"/>
     <use x="857.275391" xlink:href="#DejaVuSerif-102"/>
     <use x="894.287109" xlink:href="#DejaVuSerif-32"/>
     <use x="926.074219" xlink:href="#DejaVuSerif-116"/>
     <use x="966.259766" xlink:href="#DejaVuSerif-105"/>
     <use x="998.242188" xlink:href="#DejaVuSerif-109"/>
     <use x="1093.066406" xlink:href="#DejaVuSerif-101"/>
    </g>
   </g>
  </g>
 </g>
 <defs>
  <clipPath id="pf4f8b4dc61">
   <rect height="266.112" width="357.12" x="57.6" y="41.472"/>
  </clipPath>
 </defs>
</svg>
