<?xml version="1.0" encoding="utf-8" standalone="no"?>
<!DOCTYPE svg PUBLIC "-//W3C//DTD SVG 1.1//EN"
  "http://www.w3.org/Graphics/SVG/1.1/DTD/svg11.dtd">
<!-- Created with matplotlib (https://matplotlib.org/) -->
<svg height="345.6pt" version="1.1" viewBox="0 0 460.8 345.6" width="460.8pt" xmlns="http://www.w3.org/2000/svg" xmlns:xlink="http://www.w3.org/1999/xlink">
 <metadata>
  <rdf:RDF xmlns:cc="http://creativecommons.org/ns#" xmlns:dc="http://purl.org/dc/elements/1.1/" xmlns:rdf="http://www.w3.org/1999/02/22-rdf-syntax-ns#">
   <cc:Work>
    <dc:type rdf:resource="http://purl.org/dc/dcmitype/StillImage"/>
    <dc:date>2023-01-13T13:44:49.735323</dc:date>
    <dc:format>image/svg+xml</dc:format>
    <dc:creator>
     <cc:Agent>
      <dc:title>Matplotlib v3.3.4, https://matplotlib.org/</dc:title>
     </cc:Agent>
    </dc:creator>
   </cc:Work>
  </rdf:RDF>
 </metadata>
 <defs>
  <style type="text/css">*{stroke-linecap:butt;stroke-linejoin:round;}</style>
 </defs>
 <g id="figure_1">
  <g id="patch_1">
   <path d="M 0 345.6 
L 460.8 345.6 
L 460.8 0 
L 0 0 
z
" style="fill:#ffffff;"/>
  </g>
  <g id="axes_1">
   <g id="patch_2">
    <path d="M 57.6 307.584 
L 414.72 307.584 
L 414.72 41.472 
L 57.6 41.472 
z
" style="fill:#ffffff;"/>
   </g>
   <g id="matplotlib.axis_1">
    <g id="xtick_1">
     <g id="line2d_1">
      <defs>
       <path d="M 0 0 
L 0 3.5 
" id="me1fca1ac13" style="stroke:#000000;stroke-width:0.8;"/>
      </defs>
      <g>
       <use style="stroke:#000000;stroke-width:0.8;" x="71.210497" xlink:href="#me1fca1ac13" y="307.584"/>
      </g>
     </g>
     <g id="text_1">
      <!-- 0 -->
      <g transform="translate(68.029247 322.182437)scale(0.1 -0.1)">
       <defs>
        <path d="M 31.78125 3.421875 
Q 39.265625 3.421875 42.96875 11.625 
Q 46.6875 19.828125 46.6875 36.375 
Q 46.6875 52.984375 42.96875 61.1875 
Q 39.265625 69.390625 31.78125 69.390625 
Q 24.3125 69.390625 20.59375 61.1875 
Q 16.890625 52.984375 16.890625 36.375 
Q 16.890625 19.828125 20.59375 11.625 
Q 24.3125 3.421875 31.78125 3.421875 
z
M 31.78125 -1.421875 
Q 19.921875 -1.421875 13.25 8.53125 
Q 6.59375 18.5 6.59375 36.375 
Q 6.59375 54.296875 13.25 64.25 
Q 19.921875 74.21875 31.78125 74.21875 
Q 43.703125 74.21875 50.34375 64.25 
Q 56.984375 54.296875 56.984375 36.375 
Q 56.984375 18.5 50.34375 8.53125 
Q 43.703125 -1.421875 31.78125 -1.421875 
z
" id="DejaVuSerif-48"/>
       </defs>
       <use xlink:href="#DejaVuSerif-48"/>
      </g>
     </g>
    </g>
    <g id="xtick_2">
     <g id="line2d_2">
      <g>
       <use style="stroke:#000000;stroke-width:0.8;" x="146.131353" xlink:href="#me1fca1ac13" y="307.584"/>
      </g>
     </g>
     <g id="text_2">
      <!-- 100 -->
      <g transform="translate(136.587603 322.182437)scale(0.1 -0.1)">
       <defs>
        <path d="M 14.203125 0 
L 14.203125 5.171875 
L 26.90625 5.171875 
L 26.90625 65.828125 
L 12.203125 56.296875 
L 12.203125 62.703125 
L 29.984375 74.21875 
L 36.71875 74.21875 
L 36.71875 5.171875 
L 49.421875 5.171875 
L 49.421875 0 
z
" id="DejaVuSerif-49"/>
       </defs>
       <use xlink:href="#DejaVuSerif-49"/>
       <use x="63.623047" xlink:href="#DejaVuSerif-48"/>
       <use x="127.246094" xlink:href="#DejaVuSerif-48"/>
      </g>
     </g>
    </g>
    <g id="xtick_3">
     <g id="line2d_3">
      <g>
       <use style="stroke:#000000;stroke-width:0.8;" x="221.052209" xlink:href="#me1fca1ac13" y="307.584"/>
      </g>
     </g>
     <g id="text_3">
      <!-- 200 -->
      <g transform="translate(211.508459 322.182437)scale(0.1 -0.1)">
       <defs>
        <path d="M 12.796875 55.515625 
L 7.328125 55.515625 
L 7.328125 68.5 
Q 12.546875 71.296875 17.84375 72.75 
Q 23.140625 74.21875 28.21875 74.21875 
Q 39.59375 74.21875 46.1875 68.703125 
Q 52.78125 63.1875 52.78125 53.71875 
Q 52.78125 43.015625 37.84375 28.125 
Q 36.671875 27 36.078125 26.421875 
L 17.671875 8.015625 
L 48.09375 8.015625 
L 48.09375 17 
L 53.8125 17 
L 53.8125 0 
L 6.78125 0 
L 6.78125 5.328125 
L 28.90625 27.390625 
Q 36.234375 34.71875 39.359375 40.84375 
Q 42.484375 46.96875 42.484375 53.71875 
Q 42.484375 61.078125 38.640625 65.234375 
Q 34.8125 69.390625 28.078125 69.390625 
Q 21.09375 69.390625 17.28125 65.921875 
Q 13.484375 62.453125 12.796875 55.515625 
z
" id="DejaVuSerif-50"/>
       </defs>
       <use xlink:href="#DejaVuSerif-50"/>
       <use x="63.623047" xlink:href="#DejaVuSerif-48"/>
       <use x="127.246094" xlink:href="#DejaVuSerif-48"/>
      </g>
     </g>
    </g>
    <g id="xtick_4">
     <g id="line2d_4">
      <g>
       <use style="stroke:#000000;stroke-width:0.8;" x="295.973065" xlink:href="#me1fca1ac13" y="307.584"/>
      </g>
     </g>
     <g id="text_4">
      <!-- 300 -->
      <g transform="translate(286.429315 322.182437)scale(0.1 -0.1)">
       <defs>
        <path d="M 9.71875 69.828125 
Q 15.4375 71.96875 20.671875 73.09375 
Q 25.921875 74.21875 30.515625 74.21875 
Q 41.21875 74.21875 47.21875 69.59375 
Q 53.21875 64.984375 53.21875 56.78125 
Q 53.21875 50.203125 49.0625 45.78125 
Q 44.921875 41.359375 37.3125 39.796875 
Q 46.296875 38.53125 51.25 33.28125 
Q 56.203125 28.03125 56.203125 19.671875 
Q 56.203125 9.46875 49.34375 4.015625 
Q 42.484375 -1.421875 29.59375 -1.421875 
Q 23.875 -1.421875 18.421875 -0.1875 
Q 12.984375 1.03125 7.625 3.515625 
L 7.625 17.671875 
L 13.09375 17.671875 
Q 13.578125 10.640625 17.828125 7.03125 
Q 22.078125 3.421875 29.78125 3.421875 
Q 37.25 3.421875 41.578125 7.734375 
Q 45.90625 12.0625 45.90625 19.578125 
Q 45.90625 28.171875 41.453125 32.59375 
Q 37.015625 37.015625 28.421875 37.015625 
L 23.78125 37.015625 
L 23.78125 42 
L 26.21875 42 
Q 34.765625 42 39.03125 45.53125 
Q 43.3125 49.078125 43.3125 56.203125 
Q 43.3125 62.59375 39.796875 65.984375 
Q 36.28125 69.390625 29.6875 69.390625 
Q 23.09375 69.390625 19.453125 66.265625 
Q 15.828125 63.140625 15.1875 56.984375 
L 9.71875 56.984375 
z
" id="DejaVuSerif-51"/>
       </defs>
       <use xlink:href="#DejaVuSerif-51"/>
       <use x="63.623047" xlink:href="#DejaVuSerif-48"/>
       <use x="127.246094" xlink:href="#DejaVuSerif-48"/>
      </g>
     </g>
    </g>
    <g id="xtick_5">
     <g id="line2d_5">
      <g>
       <use style="stroke:#000000;stroke-width:0.8;" x="370.893921" xlink:href="#me1fca1ac13" y="307.584"/>
      </g>
     </g>
     <g id="text_5">
      <!-- 400 -->
      <g transform="translate(361.350171 322.182437)scale(0.1 -0.1)">
       <defs>
        <path d="M 34.90625 24.703125 
L 34.90625 63.484375 
L 10.015625 24.703125 
z
M 56.390625 0 
L 23.1875 0 
L 23.1875 5.171875 
L 34.90625 5.171875 
L 34.90625 19.484375 
L 3.078125 19.484375 
L 3.078125 24.8125 
L 35.015625 74.21875 
L 44.671875 74.21875 
L 44.671875 24.703125 
L 58.59375 24.703125 
L 58.59375 19.484375 
L 44.671875 19.484375 
L 44.671875 5.171875 
L 56.390625 5.171875 
z
" id="DejaVuSerif-52"/>
       </defs>
       <use xlink:href="#DejaVuSerif-52"/>
       <use x="63.623047" xlink:href="#DejaVuSerif-48"/>
       <use x="127.246094" xlink:href="#DejaVuSerif-48"/>
      </g>
     </g>
    </g>
    <g id="text_6">
     <!-- Time -->
     <g transform="translate(223.524844 335.860562)scale(0.1 -0.1)">
      <defs>
       <path d="M 19.09375 0 
L 19.09375 5.171875 
L 28.421875 5.171875 
L 28.421875 67.09375 
L 6.984375 67.09375 
L 6.984375 55.71875 
L 0.984375 55.71875 
L 0.984375 72.90625 
L 65.71875 72.90625 
L 65.71875 55.71875 
L 59.71875 55.71875 
L 59.71875 67.09375 
L 38.28125 67.09375 
L 38.28125 5.171875 
L 47.609375 5.171875 
L 47.609375 0 
z
" id="DejaVuSerif-84"/>
       <path d="M 9.71875 68.015625 
Q 9.71875 70.265625 11.34375 71.921875 
Q 12.984375 73.578125 15.28125 73.578125 
Q 17.53125 73.578125 19.15625 71.921875 
Q 20.796875 70.265625 20.796875 68.015625 
Q 20.796875 65.71875 19.1875 64.109375 
Q 17.578125 62.5 15.28125 62.5 
Q 12.984375 62.5 11.34375 64.109375 
Q 9.71875 65.71875 9.71875 68.015625 
z
M 21.1875 5.171875 
L 29.6875 5.171875 
L 29.6875 0 
L 3.609375 0 
L 3.609375 5.171875 
L 12.203125 5.171875 
L 12.203125 46.6875 
L 3.609375 46.6875 
L 3.609375 51.90625 
L 21.1875 51.90625 
z
" id="DejaVuSerif-105"/>
       <path d="M 51.8125 41.796875 
Q 54.390625 47.515625 58.421875 50.421875 
Q 62.453125 53.328125 67.828125 53.328125 
Q 75.984375 53.328125 79.984375 48.265625 
Q 83.984375 43.21875 83.984375 33.015625 
L 83.984375 5.171875 
L 92.09375 5.171875 
L 92.09375 0 
L 67.1875 0 
L 67.1875 5.171875 
L 75 5.171875 
L 75 31.984375 
Q 75 39.9375 72.65625 43.3125 
Q 70.3125 46.6875 64.890625 46.6875 
Q 58.890625 46.6875 55.734375 42.140625 
Q 52.59375 37.59375 52.59375 28.90625 
L 52.59375 5.171875 
L 60.40625 5.171875 
L 60.40625 0 
L 35.796875 0 
L 35.796875 5.171875 
L 43.609375 5.171875 
L 43.609375 32.328125 
Q 43.609375 40.09375 41.265625 43.390625 
Q 38.921875 46.6875 33.5 46.6875 
Q 27.484375 46.6875 24.328125 42.140625 
Q 21.1875 37.59375 21.1875 28.90625 
L 21.1875 5.171875 
L 29 5.171875 
L 29 0 
L 4.109375 0 
L 4.109375 5.171875 
L 12.203125 5.171875 
L 12.203125 46.78125 
L 3.609375 46.78125 
L 3.609375 51.90625 
L 21.1875 51.90625 
L 21.1875 42.671875 
Q 23.6875 47.859375 27.53125 50.59375 
Q 31.390625 53.328125 36.28125 53.328125 
Q 42.328125 53.328125 46.375 50.3125 
Q 50.4375 47.3125 51.8125 41.796875 
z
" id="DejaVuSerif-109"/>
       <path d="M 54.203125 25 
L 15.484375 25 
L 15.484375 24.609375 
Q 15.484375 14.109375 19.4375 8.765625 
Q 23.390625 3.421875 31.109375 3.421875 
Q 37.015625 3.421875 40.796875 6.515625 
Q 44.578125 9.625 46.09375 15.71875 
L 53.328125 15.71875 
Q 51.171875 7.171875 45.375 2.875 
Q 39.59375 -1.421875 30.171875 -1.421875 
Q 18.796875 -1.421875 11.890625 6.078125 
Q 4.984375 13.578125 4.984375 25.984375 
Q 4.984375 38.28125 11.765625 45.796875 
Q 18.5625 53.328125 29.59375 53.328125 
Q 41.359375 53.328125 47.65625 46.0625 
Q 53.953125 38.8125 54.203125 25 
z
M 43.609375 30.171875 
Q 43.3125 39.265625 39.765625 43.875 
Q 36.234375 48.484375 29.59375 48.484375 
Q 23.390625 48.484375 19.828125 43.84375 
Q 16.265625 39.203125 15.484375 30.171875 
z
" id="DejaVuSerif-101"/>
      </defs>
      <use xlink:href="#DejaVuSerif-84"/>
      <use x="66.699219" xlink:href="#DejaVuSerif-105"/>
      <use x="98.681641" xlink:href="#DejaVuSerif-109"/>
      <use x="193.505859" xlink:href="#DejaVuSerif-101"/>
     </g>
    </g>
   </g>
   <g id="matplotlib.axis_2">
    <g id="ytick_1">
     <g id="line2d_6">
      <defs>
       <path d="M 0 0 
L -3.5 0 
" id="mc0c1ba9684" style="stroke:#000000;stroke-width:0.8;"/>
      </defs>
      <g>
       <use style="stroke:#000000;stroke-width:0.8;" x="57.6" xlink:href="#mc0c1ba9684" y="288.768"/>
      </g>
     </g>
     <g id="text_7">
      <!-- 1.25 -->
      <g transform="translate(28.334375 292.567219)scale(0.1 -0.1)">
       <defs>
        <path d="M 9.421875 5.078125 
Q 9.421875 7.8125 11.28125 9.71875 
Q 13.140625 11.625 15.921875 11.625 
Q 18.609375 11.625 20.5 9.71875 
Q 22.40625 7.8125 22.40625 5.078125 
Q 22.40625 2.390625 20.5 0.484375 
Q 18.609375 -1.421875 15.921875 -1.421875 
Q 13.140625 -1.421875 11.28125 0.453125 
Q 9.421875 2.34375 9.421875 5.078125 
z
" id="DejaVuSerif-46"/>
        <path d="M 50.296875 72.90625 
L 50.296875 64.890625 
L 16.890625 64.890625 
L 16.890625 44 
Q 19.4375 45.75 22.828125 46.625 
Q 26.21875 47.515625 30.421875 47.515625 
Q 42.234375 47.515625 49.0625 40.96875 
Q 55.90625 34.421875 55.90625 23.09375 
Q 55.90625 11.53125 49 5.046875 
Q 42.09375 -1.421875 29.59375 -1.421875 
Q 24.5625 -1.421875 19.28125 -0.1875 
Q 14.015625 1.03125 8.5 3.515625 
L 8.5 17.671875 
L 14.015625 17.671875 
Q 14.453125 10.75 18.421875 7.078125 
Q 22.40625 3.421875 29.59375 3.421875 
Q 37.3125 3.421875 41.453125 8.5 
Q 45.609375 13.578125 45.609375 23.09375 
Q 45.609375 32.5625 41.484375 37.609375 
Q 37.359375 42.671875 29.59375 42.671875 
Q 25.203125 42.671875 21.84375 41.109375 
Q 18.5 39.546875 15.921875 36.28125 
L 11.71875 36.28125 
L 11.71875 72.90625 
z
" id="DejaVuSerif-53"/>
       </defs>
       <use xlink:href="#DejaVuSerif-49"/>
       <use x="63.623047" xlink:href="#DejaVuSerif-46"/>
       <use x="95.410156" xlink:href="#DejaVuSerif-50"/>
       <use x="159.033203" xlink:href="#DejaVuSerif-53"/>
      </g>
     </g>
    </g>
    <g id="ytick_2">
     <g id="line2d_7">
      <g>
       <use style="stroke:#000000;stroke-width:0.8;" x="57.6" xlink:href="#mc0c1ba9684" y="255.168"/>
      </g>
     </g>
     <g id="text_8">
      <!-- 1.50 -->
      <g transform="translate(28.334375 258.967219)scale(0.1 -0.1)">
       <use xlink:href="#DejaVuSerif-49"/>
       <use x="63.623047" xlink:href="#DejaVuSerif-46"/>
       <use x="95.410156" xlink:href="#DejaVuSerif-53"/>
       <use x="159.033203" xlink:href="#DejaVuSerif-48"/>
      </g>
     </g>
    </g>
    <g id="ytick_3">
     <g id="line2d_8">
      <g>
       <use style="stroke:#000000;stroke-width:0.8;" x="57.6" xlink:href="#mc0c1ba9684" y="221.568"/>
      </g>
     </g>
     <g id="text_9">
      <!-- 1.75 -->
      <g transform="translate(28.334375 225.367219)scale(0.1 -0.1)">
       <defs>
        <path d="M 56.390625 67.921875 
L 27.875 0 
L 20.609375 0 
L 47.796875 64.890625 
L 14.109375 64.890625 
L 14.109375 55.90625 
L 8.40625 55.90625 
L 8.40625 72.90625 
L 56.390625 72.90625 
z
" id="DejaVuSerif-55"/>
       </defs>
       <use xlink:href="#DejaVuSerif-49"/>
       <use x="63.623047" xlink:href="#DejaVuSerif-46"/>
       <use x="95.410156" xlink:href="#DejaVuSerif-55"/>
       <use x="159.033203" xlink:href="#DejaVuSerif-53"/>
      </g>
     </g>
    </g>
    <g id="ytick_4">
     <g id="line2d_9">
      <g>
       <use style="stroke:#000000;stroke-width:0.8;" x="57.6" xlink:href="#mc0c1ba9684" y="187.968"/>
      </g>
     </g>
     <g id="text_10">
      <!-- 2.00 -->
      <g transform="translate(28.334375 191.767219)scale(0.1 -0.1)">
       <use xlink:href="#DejaVuSerif-50"/>
       <use x="63.623047" xlink:href="#DejaVuSerif-46"/>
       <use x="95.410156" xlink:href="#DejaVuSerif-48"/>
       <use x="159.033203" xlink:href="#DejaVuSerif-48"/>
      </g>
     </g>
    </g>
    <g id="ytick_5">
     <g id="line2d_10">
      <g>
       <use style="stroke:#000000;stroke-width:0.8;" x="57.6" xlink:href="#mc0c1ba9684" y="154.368"/>
      </g>
     </g>
     <g id="text_11">
      <!-- 2.25 -->
      <g transform="translate(28.334375 158.167219)scale(0.1 -0.1)">
       <use xlink:href="#DejaVuSerif-50"/>
       <use x="63.623047" xlink:href="#DejaVuSerif-46"/>
       <use x="95.410156" xlink:href="#DejaVuSerif-50"/>
       <use x="159.033203" xlink:href="#DejaVuSerif-53"/>
      </g>
     </g>
    </g>
    <g id="ytick_6">
     <g id="line2d_11">
      <g>
       <use style="stroke:#000000;stroke-width:0.8;" x="57.6" xlink:href="#mc0c1ba9684" y="120.768"/>
      </g>
     </g>
     <g id="text_12">
      <!-- 2.50 -->
      <g transform="translate(28.334375 124.567219)scale(0.1 -0.1)">
       <use xlink:href="#DejaVuSerif-50"/>
       <use x="63.623047" xlink:href="#DejaVuSerif-46"/>
       <use x="95.410156" xlink:href="#DejaVuSerif-53"/>
       <use x="159.033203" xlink:href="#DejaVuSerif-48"/>
      </g>
     </g>
    </g>
    <g id="ytick_7">
     <g id="line2d_12">
      <g>
       <use style="stroke:#000000;stroke-width:0.8;" x="57.6" xlink:href="#mc0c1ba9684" y="87.168"/>
      </g>
     </g>
     <g id="text_13">
      <!-- 2.75 -->
      <g transform="translate(28.334375 90.967219)scale(0.1 -0.1)">
       <use xlink:href="#DejaVuSerif-50"/>
       <use x="63.623047" xlink:href="#DejaVuSerif-46"/>
       <use x="95.410156" xlink:href="#DejaVuSerif-55"/>
       <use x="159.033203" xlink:href="#DejaVuSerif-53"/>
      </g>
     </g>
    </g>
    <g id="ytick_8">
     <g id="line2d_13">
      <g>
       <use style="stroke:#000000;stroke-width:0.8;" x="57.6" xlink:href="#mc0c1ba9684" y="53.568"/>
      </g>
     </g>
     <g id="text_14">
      <!-- 3.00 -->
      <g transform="translate(28.334375 57.367219)scale(0.1 -0.1)">
       <use xlink:href="#DejaVuSerif-51"/>
       <use x="63.623047" xlink:href="#DejaVuSerif-46"/>
       <use x="95.410156" xlink:href="#DejaVuSerif-48"/>
       <use x="159.033203" xlink:href="#DejaVuSerif-48"/>
      </g>
     </g>
    </g>
    <g id="text_15">
     <!-- Speed -->
     <g transform="translate(22.254687 190.273313)rotate(-90)scale(0.1 -0.1)">
      <defs>
       <path d="M 9.28125 3.515625 
L 9.28125 20.125 
L 14.890625 20.0625 
Q 15.140625 11.765625 19.703125 7.78125 
Q 24.265625 3.8125 33.59375 3.8125 
Q 42.28125 3.8125 46.84375 7.25 
Q 51.421875 10.6875 51.421875 17.28125 
Q 51.421875 22.5625 48.65625 25.390625 
Q 45.90625 28.21875 37.015625 30.90625 
L 27.390625 33.796875 
Q 16.9375 36.96875 12.671875 41.703125 
Q 8.40625 46.4375 8.40625 54.6875 
Q 8.40625 63.96875 14.984375 69.09375 
Q 21.578125 74.21875 33.5 74.21875 
Q 38.578125 74.21875 44.625 73.109375 
Q 50.6875 72.015625 57.515625 69.921875 
L 57.515625 54.390625 
L 52 54.390625 
Q 51.171875 62.109375 46.84375 65.546875 
Q 42.53125 69 33.6875 69 
Q 25.984375 69 21.953125 65.84375 
Q 17.921875 62.703125 17.921875 56.6875 
Q 17.921875 51.46875 20.9375 48.484375 
Q 23.96875 45.515625 33.796875 42.578125 
L 42.828125 39.890625 
Q 52.734375 36.921875 56.953125 32.296875 
Q 61.1875 27.6875 61.1875 19.921875 
Q 61.1875 9.328125 54.390625 3.953125 
Q 47.609375 -1.421875 34.1875 -1.421875 
Q 28.171875 -1.421875 21.9375 -0.1875 
Q 15.71875 1.03125 9.28125 3.515625 
z
" id="DejaVuSerif-83"/>
       <path d="M 20.515625 28.515625 
L 20.515625 23.390625 
Q 20.515625 14.015625 24.09375 9.109375 
Q 27.6875 4.203125 34.515625 4.203125 
Q 41.40625 4.203125 44.9375 9.71875 
Q 48.484375 15.234375 48.484375 25.984375 
Q 48.484375 36.765625 44.9375 42.234375 
Q 41.40625 47.703125 34.515625 47.703125 
Q 27.6875 47.703125 24.09375 42.765625 
Q 20.515625 37.84375 20.515625 28.515625 
z
M 11.53125 46.6875 
L 2.875 46.6875 
L 2.875 51.90625 
L 20.515625 51.90625 
L 20.515625 43.796875 
Q 23.140625 48.6875 27.21875 51 
Q 31.296875 53.328125 37.3125 53.328125 
Q 46.875 53.328125 52.921875 45.75 
Q 58.984375 38.1875 58.984375 25.984375 
Q 58.984375 13.765625 52.921875 6.171875 
Q 46.875 -1.421875 37.3125 -1.421875 
Q 31.296875 -1.421875 27.21875 0.890625 
Q 23.140625 3.21875 20.515625 8.109375 
L 20.515625 -15.578125 
L 29 -15.578125 
L 29 -20.796875 
L 2.875 -20.796875 
L 2.875 -15.578125 
L 11.53125 -15.578125 
z
" id="DejaVuSerif-112"/>
       <path d="M 52.484375 5.171875 
L 61.078125 5.171875 
L 61.078125 0 
L 43.5 0 
L 43.5 8.109375 
Q 40.875 3.21875 36.796875 0.890625 
Q 32.71875 -1.421875 26.703125 -1.421875 
Q 17.140625 -1.421875 11.0625 6.171875 
Q 4.984375 13.765625 4.984375 25.984375 
Q 4.984375 38.1875 11.03125 45.75 
Q 17.09375 53.328125 26.703125 53.328125 
Q 32.71875 53.328125 36.796875 51 
Q 40.875 48.6875 43.5 43.796875 
L 43.5 70.796875 
L 35.015625 70.796875 
L 35.015625 75.984375 
L 52.484375 75.984375 
z
M 43.5 23.390625 
L 43.5 28.515625 
Q 43.5 37.84375 39.90625 42.765625 
Q 36.328125 47.703125 29.5 47.703125 
Q 22.5625 47.703125 19.015625 42.234375 
Q 15.484375 36.765625 15.484375 25.984375 
Q 15.484375 15.234375 19.015625 9.71875 
Q 22.5625 4.203125 29.5 4.203125 
Q 36.328125 4.203125 39.90625 9.109375 
Q 43.5 14.015625 43.5 23.390625 
z
" id="DejaVuSerif-100"/>
      </defs>
      <use xlink:href="#DejaVuSerif-83"/>
      <use x="68.505859" xlink:href="#DejaVuSerif-112"/>
      <use x="132.519531" xlink:href="#DejaVuSerif-101"/>
      <use x="191.699219" xlink:href="#DejaVuSerif-101"/>
      <use x="250.878906" xlink:href="#DejaVuSerif-100"/>
     </g>
    </g>
   </g>
   <g id="line2d_14">
    <path clip-path="url(#p518c653ad4)" d="M 73.832727 255.168 
L 73.960093 255.168 
L 74.079966 53.568 
L 74.207332 255.168 
L 74.334697 255.168 
L 74.45457 295.488 
L 74.581936 134.208 
L 74.709301 295.488 
L 74.829175 295.488 
L 74.95654 134.208 
L 75.083906 187.968 
L 75.578383 187.968 
L 75.705749 111.168 
L 75.833114 226.368 
L 76.207718 226.368 
L 76.327592 255.168 
L 76.454957 255.168 
L 76.582323 154.368 
L 76.702196 255.168 
L 76.829562 255.168 
L 76.956927 187.968 
L 77.451405 187.968 
L 77.57877 214.848 
L 77.706136 134.208 
L 77.826009 214.848 
L 77.953374 214.848 
L 78.08074 134.208 
L 78.200613 163.531636 
L 78.327979 236.840727 
L 78.455344 163.531636 
L 78.702583 163.531636 
L 78.829948 187.968 
L 78.949822 187.968 
L 79.077187 120.768 
L 79.204553 187.968 
L 79.324426 187.968 
L 79.451791 146.614154 
L 79.579157 146.614154 
L 79.69903 208.644923 
L 79.826396 146.614154 
L 79.953761 146.614154 
L 80.073635 168.768 
L 80.328365 168.768 
L 80.448239 226.368 
L 80.575604 168.768 
L 80.70297 187.968 
L 81.197447 187.968 
L 81.324813 154.368 
L 81.452178 204.768 
L 81.572052 204.768 
L 81.699417 154.368 
L 81.826783 204.768 
L 81.946656 172.156235 
L 82.448626 172.156235 
L 82.575991 187.968 
L 82.695865 143.168 
L 82.82323 187.968 
L 82.950595 187.968 
L 83.070469 143.168 
L 83.197834 159.673263 
L 83.3252 202.115368 
L 83.445073 159.673263 
L 83.699804 159.673263 
L 83.819677 174.528 
L 83.947043 174.528 
L 84.074408 134.208 
L 84.194282 174.528 
L 84.321647 174.528 
L 84.449013 149.568 
L 84.568886 187.968 
L 84.696251 187.968 
L 84.823617 149.568 
L 85.070856 200.186182 
L 85.198221 163.531636 
L 85.572825 163.531636 
L 85.692699 176.281043 
L 85.820064 141.220174 
L 85.94743 176.281043 
L 86.067303 176.281043 
L 86.194669 141.220174 
L 86.322034 154.368 
L 86.441907 187.968 
L 86.569273 154.368 
L 86.696638 187.968 
L 86.816512 187.968 
L 86.943877 166.464 
L 87.445847 166.464 
L 87.56572 146.614154 
L 87.693086 177.629538 
L 87.820451 177.629538 
L 87.940324 146.614154 
L 88.195055 187.968 
L 88.314929 158.101333 
L 88.442294 158.101333 
L 88.56966 187.968 
L 88.689533 158.101333 
L 88.816898 168.768 
L 89.318868 168.768 
L 89.438742 178.699034 
L 89.566107 178.699034 
L 89.693472 150.892138 
L 89.813346 178.699034 
L 89.940711 178.699034 
L 90.068077 161.088 
L 90.562554 161.088 
L 90.68992 144.613161 
L 90.817285 170.626065 
L 91.19189 170.626065 
L 91.311763 179.568 
L 91.439128 154.368 
L 91.566494 179.568 
L 91.686367 154.368 
L 91.813733 154.368 
L 91.941098 163.531636 
L 92.435576 163.531636 
L 92.562941 172.156235 
L 92.690307 172.156235 
L 92.81018 148.438588 
L 92.937546 172.156235 
L 93.064911 172.156235 
L 93.184784 157.248 
L 93.31215 180.288 
L 93.439515 157.248 
L 93.559389 157.248 
L 93.686754 180.288 
L 93.81412 165.568 
L 94.308597 165.568 
L 94.435963 173.43827 
L 94.563328 151.643676 
L 94.683202 173.43827 
L 94.810567 151.643676 
L 95.057806 180.894316 
L 95.185171 159.673263 
L 95.312537 159.673263 
L 95.43241 180.894316 
L 95.559776 159.673263 
L 95.687141 167.291077 
L 96.061745 167.291077 
L 96.181619 146.614154 
L 96.308984 154.368 
L 96.43635 174.528 
L 96.556223 154.368 
L 96.683588 174.528 
L 96.810954 174.528 
L 96.930827 161.74361 
L 97.058193 161.74361 
L 97.185558 181.411902 
L 97.305431 161.74361 
L 97.432797 161.74361 
L 97.560162 149.568 
L 97.680036 168.768 
L 97.807401 168.768 
L 97.934767 149.568 
L 98.182005 175.465674 
L 98.309371 156.712186 
L 98.683975 156.712186 
L 98.803849 163.531636 
L 99.305818 163.531636 
L 99.433184 170.048 
L 99.553057 170.048 
L 99.680423 152.128 
L 99.807788 170.048 
L 99.927661 152.128 
L 100.055027 158.750609 
L 100.429631 158.750609 
L 100.556997 176.281043 
L 100.67687 165.091404 
L 101.17884 165.091404 
L 101.306205 154.368 
L 101.426079 154.368 
L 101.553444 171.168 
L 101.680809 154.368 
L 101.800683 154.368 
L 101.928048 160.539429 
L 102.175287 160.539429 
L 102.302653 176.996571 
L 102.430018 160.539429 
L 102.549891 166.464 
L 102.677257 150.336 
L 102.804622 166.464 
L 102.924496 166.464 
L 103.051861 150.336 
L 103.179227 156.344471 
L 103.2991 172.156235 
L 103.426465 156.344471 
L 103.553831 156.344471 
L 103.673704 172.156235 
L 103.80107 162.121846 
L 104.303039 162.121846 
L 104.422913 152.466113 
L 104.550278 167.681208 
L 104.677644 167.681208 
L 104.797517 152.466113 
L 104.924883 167.681208 
L 105.052248 158.101333 
L 105.172121 158.101333 
L 105.299487 173.034667 
L 105.426852 158.101333 
L 105.546726 158.101333 
L 105.674091 163.531636 
L 106.176061 163.531636 
L 106.295934 168.768 
L 106.4233 154.368 
L 106.550665 154.368 
L 106.670538 168.768 
L 106.797904 154.368 
L 106.925269 159.673263 
L 107.045143 173.820632 
L 107.172508 159.673263 
L 107.299874 159.673263 
L 107.419747 173.820632 
L 107.547112 164.795586 
L 107.674478 164.795586 
L 107.794351 150.892138 
L 107.921717 164.795586 
L 108.049082 164.795586 
L 108.168956 156.076475 
L 108.296321 156.076475 
L 108.423687 169.744271 
L 108.54356 156.076475 
L 108.798291 174.528 
L 108.918164 161.088 
L 109.292768 161.088 
L 109.420134 165.935213 
L 109.547499 152.715541 
L 109.667373 165.935213 
L 109.794738 165.935213 
L 109.922104 152.715541 
L 110.041977 157.619613 
L 110.296708 157.619613 
L 110.416581 170.626065 
L 110.543947 157.619613 
L 110.671312 162.368 
L 111.16579 162.368 
L 111.293155 154.368 
L 111.420521 166.968 
L 111.540394 154.368 
L 111.66776 154.368 
L 111.795125 166.968 
L 111.914998 159.020308 
L 112.042364 159.020308 
L 112.169729 171.426462 
L 112.289603 159.020308 
L 112.416968 159.020308 
L 112.544334 163.531636 
L 112.791572 163.531636 
L 112.918938 151.313455 
L 113.166177 167.908299 
L 113.293542 155.872478 
L 113.413416 167.908299 
L 113.540781 167.908299 
L 113.668146 155.872478 
L 113.78802 160.297412 
L 114.28999 160.297412 
L 114.417355 164.594087 
L 114.537228 164.594087 
L 114.664594 152.90713 
L 114.791959 164.594087 
L 114.911833 164.594087 
L 115.039198 157.248 
L 115.166564 168.768 
L 115.286437 157.248 
L 115.413802 157.248 
L 115.541168 168.768 
L 115.661041 161.466592 
L 116.163011 161.466592 
L 116.290376 154.368 
L 116.41025 154.368 
L 116.537615 165.568 
L 116.664981 154.368 
L 116.912219 169.557041 
L 117.039585 158.510466 
L 117.159458 158.510466 
L 117.286824 169.557041 
L 117.414189 158.510466 
L 117.534063 162.540973 
L 117.661428 151.643676 
L 117.788794 162.540973 
L 117.908667 162.540973 
L 118.036032 151.643676 
L 118.163398 155.712 
L 118.283271 166.464 
L 118.410637 155.712 
L 118.538002 166.464 
L 118.657875 166.464 
L 118.785241 159.673263 
L 119.287211 159.673263 
L 119.407084 153.058909 
L 119.534449 163.531636 
L 119.909054 163.531636 
L 120.036419 156.952615 
L 120.156293 156.952615 
L 120.283658 167.291077 
L 120.411023 156.952615 
L 120.530897 156.952615 
L 120.658262 160.747747 
L 121.160232 160.747747 
L 121.280105 164.448 
L 121.407471 154.368 
L 121.534836 164.448 
L 121.65471 164.448 
L 121.782075 154.368 
L 121.909441 158.101333 
L 122.029314 168.056889 
L 122.156679 158.101333 
L 122.403918 158.101333 
L 122.531284 161.74361 
L 122.658649 161.74361 
L 122.778523 151.909463 
L 122.905888 161.74361 
L 123.033253 161.74361 
L 123.153127 155.582458 
L 123.280492 165.29812 
L 123.407858 165.29812 
L 123.527731 155.582458 
L 123.655097 165.29812 
L 123.782462 159.168 
L 124.27694 159.168 
L 124.404305 162.669176 
L 124.651544 162.669176 
L 124.778909 153.182118 
L 125.026148 166.08893 
L 125.153514 156.712186 
L 125.280879 156.712186 
L 125.400752 166.08893 
L 125.528118 156.712186 
L 125.655483 160.161103 
L 126.149961 160.161103 
L 126.277326 163.531636 
L 126.404692 163.531636 
L 126.524565 154.368 
L 126.651931 163.531636 
L 126.779296 163.531636 
L 126.89917 157.765753 
L 127.026535 157.765753 
L 127.153901 166.826427 
L 127.273774 157.765753 
L 127.401139 166.826427 
L 127.528505 161.088 
L 128.022982 161.088 
L 128.150348 164.337231 
L 128.277713 155.475692 
L 128.397587 164.337231 
L 128.524952 155.475692 
L 128.652318 155.475692 
L 128.772191 158.750609 
L 129.026922 158.750609 
L 129.146795 167.515826 
L 129.274161 158.750609 
L 129.401526 161.955097 
L 129.77613 161.955097 
L 129.896004 153.284129 
L 130.023369 156.512681 
L 130.150735 165.091404 
L 130.270608 156.512681 
L 130.397974 156.512681 
L 130.525339 165.091404 
L 130.645212 159.673263 
L 131.147182 159.673263 
L 131.274548 154.368 
L 131.394421 162.768 
L 131.521786 162.768 
L 131.649152 154.368 
L 131.896391 165.798928 
L 132.023756 157.485526 
L 132.14363 165.798928 
L 132.270995 157.485526 
L 132.39836 157.485526 
L 132.518234 160.539429 
L 133.020204 160.539429 
L 133.147569 163.531636 
L 133.267442 155.386182 
L 133.394808 155.386182 
L 133.522173 163.531636 
L 133.642047 155.386182 
L 133.769412 158.4 
L 133.896778 166.464 
L 134.016651 158.4 
L 134.144016 158.4 
L 134.271382 166.464 
L 134.391255 161.354139 
L 134.518621 161.354139 
L 134.645986 153.36998 
L 134.765859 161.354139 
L 134.893225 161.354139 
L 135.02059 156.344471 
L 135.140464 164.250353 
L 135.267829 164.250353 
L 135.395195 156.344471 
L 135.515068 164.250353 
L 135.642434 159.261204 
L 136.144403 159.261204 
L 136.264277 162.121846 
L 136.391642 154.368 
L 136.519008 162.121846 
L 136.766246 162.121846 
L 136.893612 164.928 
L 137.013485 157.248 
L 137.140851 157.248 
L 137.268216 164.928 
L 137.388089 157.248 
L 137.515455 160.07366 
L 138.017425 160.07366 
L 138.137298 162.846505 
L 138.264663 162.846505 
L 138.392029 155.310056 
L 138.511902 162.846505 
L 138.639268 162.846505 
L 138.766633 158.101333 
L 138.886507 158.101333 
L 139.013872 165.568 
L 139.141237 158.101333 
L 139.261111 158.101333 
L 139.388476 153.443229 
L 139.515842 160.841394 
L 139.890446 160.841394 
L 140.010319 163.531636 
L 140.137685 156.200727 
L 140.26505 163.531636 
L 140.384924 156.200727 
L 140.512289 156.200727 
L 140.639655 158.908541 
L 141.134132 158.908541 
L 141.261498 161.568 
L 141.636102 161.568 
L 141.763467 154.368 
L 141.883341 157.044106 
L 142.010706 164.180389 
L 142.138072 157.044106 
L 142.257945 157.044106 
L 142.385311 164.180389 
L 142.512676 159.673263 
L 143.007154 159.673263 
L 143.134519 155.244522 
L 143.261885 162.256696 
L 143.381758 162.256696 
L 143.509123 155.244522 
L 143.636489 162.256696 
L 143.756362 157.843862 
L 144.258332 157.843862 
L 144.385697 160.398769 
L 144.880175 160.398769 
L 145.007541 162.910373 
L 145.134906 156.076475 
L 145.254779 156.076475 
L 145.382145 162.910373 
L 145.50951 156.076475 
L 145.629384 158.603294 
L 145.756749 165.379765 
L 145.884115 158.603294 
L 146.131353 158.603294 
L 146.258719 161.088 
L 146.378592 161.088 
L 146.505958 154.368 
L 146.633323 161.088 
L 146.753196 161.088 
L 146.880562 156.867174 
L 147.007927 156.867174 
L 147.127801 163.531636 
L 147.255166 156.867174 
L 147.382532 163.531636 
L 147.502405 159.325377 
L 148.004375 159.325377 
L 148.13174 161.74361 
L 148.251614 155.187512 
L 148.378979 161.74361 
L 148.506344 155.187512 
L 148.753583 164.122839 
L 148.880949 157.619613 
L 149.000822 157.619613 
L 149.128188 164.122839 
L 149.255553 157.619613 
L 149.375426 160.0128 
L 149.750031 160.0128 
L 149.877396 153.5616 
L 150.004762 155.968 
L 150.124635 162.368 
L 150.252 155.968 
L 150.379366 162.368 
L 150.499239 162.368 
L 150.626605 158.336504 
L 151.128574 158.336504 
L 151.248448 154.368 
L 151.375813 160.668 
L 151.750418 160.668 
L 151.877783 156.712186 
L 151.997656 156.712186 
L 152.125022 162.963349 
L 152.252387 156.712186 
L 152.372261 156.712186 
L 152.499626 159.020308 
L 153.001596 159.020308 
L 153.121469 161.293191 
L 153.248835 155.137466 
L 153.3762 161.293191 
L 153.496073 161.293191 
L 153.623439 155.137466 
L 153.750804 157.422545 
L 153.870678 163.531636 
L 153.998043 157.422545 
L 154.245282 157.422545 
L 154.372648 159.673263 
L 154.874617 159.673263 
L 154.994491 155.872478 
L 155.121856 161.890388 
L 155.249222 155.872478 
L 155.369095 155.872478 
L 155.49646 161.890388 
L 155.623826 158.101333 
L 156.118303 158.101333 
L 156.245669 160.297412 
L 156.492908 160.297412 
L 156.620273 154.368 
L 156.867512 162.461431 
L 156.994877 156.575299 
L 157.122243 156.575299 
L 157.242116 162.461431 
L 157.369482 156.575299 
L 157.496847 158.750609 
L 157.991325 158.750609 
L 158.11869 160.894619 
L 158.246056 160.894619 
L 158.365929 155.09318 
L 158.493295 160.894619 
L 158.62066 155.09318 
L 158.740533 157.248 
L 159.115138 157.248 
L 159.242503 163.008 
L 159.369869 159.372255 
L 159.489742 159.372255 
L 159.617107 153.653106 
L 159.744473 159.372255 
L 159.864346 159.372255 
L 159.991712 155.787718 
L 160.119077 155.787718 
L 160.238951 161.466592 
L 160.366316 155.787718 
L 160.493681 161.466592 
L 160.613555 157.892476 
L 161.115525 157.892476 
L 161.24289 159.968 
L 161.362763 154.368 
L 161.490129 159.968 
L 161.617494 154.368 
L 161.864733 162.014897 
L 161.992099 156.453517 
L 162.111972 156.453517 
L 162.239337 162.014897 
L 162.366703 156.453517 
L 162.486576 158.510466 
L 162.613942 152.987178 
L 162.741307 158.510466 
L 162.86118 158.510466 
L 162.988546 152.987178 
L 163.115911 155.053714 
L 163.235785 160.539429 
L 163.36315 155.053714 
L 163.490516 160.539429 
L 163.610389 155.053714 
L 163.737755 157.092324 
L 164.239724 157.092324 
L 164.359598 153.69149 
L 164.486963 159.10357 
L 164.614329 153.69149 
L 164.734202 159.10357 
L 164.861567 159.10357 
L 164.988933 155.712 
L 165.108806 155.712 
L 165.236172 161.088 
L 165.363537 155.712 
L 165.48341 155.712 
L 165.610776 152.365351 
L 165.738141 157.705748 
L 165.858015 157.705748 
L 165.98538 152.365351 
L 166.112746 157.705748 
L 166.232619 154.368 
L 166.359984 154.368 
L 166.48735 159.673263 
L 166.607223 154.368 
L 166.734589 154.368 
L 166.861954 156.344471 
L 167.109193 156.344471 
L 167.236558 151.073882 
L 167.483797 158.295273 
L 167.611163 153.058909 
L 167.731036 158.295273 
L 167.858402 158.295273 
L 167.985767 153.058909 
L 168.10564 155.018323 
L 168.60761 155.018323 
L 168.734976 156.952615 
L 168.854849 156.952615 
L 168.982214 151.783385 
L 169.10958 156.952615 
L 169.229453 151.783385 
L 169.356819 153.725962 
L 169.484184 158.862268 
L 169.604058 153.725962 
L 169.858788 153.725962 
L 169.978662 155.643949 
L 170.106027 155.643949 
L 170.233393 150.540152 
L 170.353266 155.643949 
L 170.480632 155.643949 
L 170.607997 152.466113 
L 170.72787 157.537811 
L 170.855236 152.466113 
L 170.982601 152.466113 
L 171.102475 157.537811 
L 171.22984 154.368 
L 171.73181 154.368 
L 171.851683 151.237565 
L 171.979049 156.246261 
L 172.106414 156.246261 
L 172.226288 151.237565 
L 172.481018 158.101333 
L 172.600892 153.123556 
L 172.975496 153.123556 
L 173.102862 154.986405 
L 173.230227 150.039166 
L 173.3501 154.986405 
L 173.604831 154.986405 
L 173.724705 156.826537 
L 173.85207 151.909463 
L 173.979436 151.909463 
L 174.099309 156.826537 
L 174.226674 151.909463 
L 174.35404 153.757091 
L 174.473913 148.869818 
L 174.601279 153.757091 
L 174.848517 153.757091 
L 174.975883 155.582458 
L 175.103248 155.582458 
L 175.223122 150.724627 
L 175.350487 155.582458 
L 175.477853 150.724627 
L 175.597726 152.557222 
L 175.97233 152.557222 
L 176.099696 157.385964 
L 176.227061 154.368 
L 176.346935 154.368 
L 176.4743 149.568 
L 176.601665 154.368 
L 176.721539 154.368 
L 176.848904 151.385751 
L 176.97627 151.385751 
L 177.096143 156.157349 
L 177.223509 151.385751 
L 177.350874 151.385751 
L 177.470747 148.438588 
L 177.598113 153.182118 
L 177.972717 153.182118 
L 178.100083 154.957474 
L 178.219956 150.241684 
L 178.347321 154.957474 
L 178.474687 150.241684 
L 178.59456 150.241684 
L 178.721926 152.023814 
L 178.969165 152.023814 
L 179.09653 156.712186 
L 179.223895 152.023814 
L 179.343769 153.785341 
L 179.471134 149.124069 
L 179.5985 153.785341 
L 179.718373 153.785341 
L 179.845739 149.124069 
L 179.973104 150.892138 
L 180.220343 150.892138 
L 180.347708 155.526621 
L 180.467582 150.892138 
L 180.594947 152.64 
L 180.969551 152.64 
L 181.096917 148.032 
L 181.21679 149.786182 
L 181.344156 154.368 
L 181.471521 149.786182 
L 181.591395 154.368 
L 181.71876 154.368 
L 181.846125 151.520542 
L 182.340603 151.520542 
L 182.467969 148.705079 
L 182.595334 153.235416 
L 182.969938 153.235416 
L 183.089812 150.426101 
L 183.217177 150.426101 
L 183.344543 154.931128 
L 183.464416 150.426101 
L 183.591781 150.426101 
L 183.719147 152.128 
L 184.213624 152.128 
L 184.34099 153.811094 
L 184.468355 149.355845 
L 184.588229 153.811094 
L 184.715594 153.811094 
L 184.84296 149.355845 
L 184.962833 151.044923 
L 185.217564 151.044923 
L 185.337437 155.475692 
L 185.464803 151.044923 
L 185.592168 152.715541 
L 185.966772 152.715541 
L 186.086646 148.308984 
L 186.214011 149.985391 
L 186.341377 154.368 
L 186.46125 149.985391 
L 186.588616 154.368 
L 186.715981 154.368 
L 186.835854 151.643676 
L 187.337824 151.643676 
L 187.46519 148.948645 
L 187.585063 153.284129 
L 187.712428 148.948645 
L 187.839794 153.284129 
L 187.959667 153.284129 
L 188.087033 150.594738 
L 188.214398 150.594738 
L 188.334272 154.907037 
L 188.461637 150.594738 
L 188.589002 150.594738 
L 188.708876 147.933957 
L 188.836241 152.223319 
L 189.210846 152.223319 
L 189.338211 153.834667 
L 189.458084 149.568 
L 189.58545 153.834667 
L 189.712815 149.568 
L 189.960054 155.429053 
L 190.08742 151.184842 
L 190.462024 151.184842 
L 190.581897 152.784754 
L 190.709263 148.562764 
L 190.836628 152.784754 
L 191.083867 152.784754 
L 191.211232 154.368 
L 191.331106 150.168 
L 191.458471 150.168 
L 191.585837 154.368 
L 191.70571 150.168 
L 191.833076 151.756601 
L 191.960441 147.578363 
L 192.080314 151.756601 
L 192.335045 151.756601 
L 192.454919 153.328825 
L 192.582284 149.172124 
L 192.70965 149.172124 
L 192.829523 153.328825 
L 192.956888 149.172124 
L 193.084254 150.749538 
L 193.204127 146.614154 
L 193.331493 150.749538 
L 193.458858 146.614154 
L 193.706097 152.310857 
L 193.833462 148.196571 
L 194.208067 148.196571 
L 194.32794 145.669523 
L 194.455305 149.762924 
L 194.582671 149.762924 
L 194.702544 145.669523 
L 194.82991 149.762924 
L 194.957275 147.240727 
L 195.451753 147.240727 
L 195.579118 144.743879 
L 195.706484 148.796141 
L 195.826357 144.743879 
L 195.953723 144.743879 
L 196.081088 148.796141 
L 196.200961 146.304 
L 196.328327 146.304 
L 196.455692 142.272 
L 196.575566 146.304 
L 196.702931 142.272 
L 196.830297 143.836657 
L 196.95017 147.848597 
L 197.077535 143.836657 
L 197.324774 143.836657 
L 197.45214 145.385822 
L 197.579505 141.393743 
L 197.699379 141.393743 
L 197.826744 145.385822 
L 197.954109 141.393743 
L 198.073983 142.94731 
L 198.328714 142.94731 
L 198.448587 138.974897 
L 198.703318 144.485647 
L 198.823191 140.532706 
L 199.197796 140.532706 
L 199.325161 138.141659 
L 199.452527 142.075317 
L 199.5724 142.075317 
L 199.699765 138.141659 
L 199.827131 142.075317 
L 199.947004 139.688388 
L 200.448974 139.688388 
L 200.576339 137.324522 
L 200.696213 141.220174 
L 200.823578 137.324522 
L 201.070817 137.324522 
L 201.198183 138.860308 
L 201.572787 138.860308 
L 201.700152 134.983385 
L 201.820026 136.523024 
L 201.947391 140.381397 
L 202.074757 136.523024 
L 202.321995 136.523024 
L 202.449361 138.048 
L 202.569234 134.208 
L 202.6966 138.048 
L 202.823965 138.048 
L 202.943838 134.208 
L 203.071204 135.73672 
L 203.318443 135.73672 
L 203.445808 131.914919 
L 203.693047 137.251019 
L 203.820412 133.447245 
L 203.947778 137.251019 
L 204.067651 133.447245 
L 204.195017 133.447245 
L 204.322382 134.965183 
L 204.569621 134.965183 
L 204.696987 131.179268 
L 204.81686 134.965183 
L 204.944225 132.70071 
L 205.071591 132.70071 
L 205.191464 136.468935 
L 205.31883 132.70071 
L 205.446195 132.70071 
L 205.566068 130.457302 
L 205.693434 134.208 
L 205.820799 130.457302 
L 205.940673 130.457302 
L 206.068038 134.208 
L 206.195404 131.968 
L 206.689881 131.968 
L 206.817247 129.748645 
L 206.944612 133.464774 
L 207.064486 129.748645 
L 207.191851 133.464774 
L 207.319216 129.748645 
L 207.43909 131.248734 
L 207.813694 131.248734 
L 207.94106 127.549651 
L 208.068425 129.052932 
L 208.188298 132.735123 
L 208.315664 129.052932 
L 208.443029 132.735123 
L 208.562903 129.052932 
L 208.690268 130.542545 
L 208.817634 126.877091 
L 208.937507 130.542545 
L 209.064872 130.542545 
L 209.192238 126.877091 
L 209.312111 128.36981 
L 209.566842 128.36981 
L 209.686716 132.018679 
L 209.814081 128.36981 
L 209.941446 129.849081 
L 210.06132 126.216649 
L 210.188685 129.849081 
L 210.316051 126.216649 
L 210.435924 126.216649 
L 210.56329 127.698942 
L 211.065259 127.698942 
L 211.185133 129.168 
L 211.312498 125.568 
L 211.439864 129.168 
L 211.559737 125.568 
L 211.687102 125.568 
L 211.814468 123.456 
L 211.934341 127.04 
L 212.308945 127.04 
L 212.436311 124.930832 
L 212.563676 124.930832 
L 212.68355 128.498973 
L 212.810915 124.930832 
L 212.938281 124.930832 
L 213.058154 122.840247 
L 213.185519 126.39267 
L 213.312885 122.840247 
L 213.432758 126.39267 
L 213.560124 126.39267 
L 213.687489 124.304842 
L 214.181967 124.304842 
L 214.309332 122.235249 
L 214.436698 125.756646 
L 214.556571 122.235249 
L 214.683937 125.756646 
L 214.811302 122.235249 
L 214.931175 123.689739 
L 215.30578 123.689739 
L 215.433145 120.183652 
L 215.560511 121.640727 
L 215.680384 125.131636 
L 215.807749 121.640727 
L 215.935115 125.131636 
L 216.054988 121.640727 
L 216.182354 123.085241 
L 216.309719 119.609379 
L 216.429593 123.085241 
L 216.684323 123.085241 
L 216.804197 124.517356 
L 216.931562 121.056412 
L 217.058928 121.056412 
L 217.178801 124.517356 
L 217.306167 121.056412 
L 217.433532 122.491077 
L 217.553405 119.044923 
L 217.680771 122.491077 
L 217.92801 122.491077 
L 218.055375 123.913532 
L 218.182741 120.482043 
L 218.557345 120.482043 
L 218.677218 121.906983 
L 218.804584 118.490034 
L 218.931949 121.906983 
L 219.051823 118.490034 
L 219.306553 123.319899 
L 219.426427 119.917367 
L 219.801031 119.917367 
L 219.928397 117.944471 
L 220.055762 121.332706 
L 220.175635 121.332706 
L 220.303001 117.944471 
L 220.430366 121.332706 
L 220.55024 119.362142 
L 221.052209 119.362142 
L 221.179575 117.408 
L 221.299448 120.768 
L 221.426814 120.768 
L 221.554179 117.408 
L 221.674052 120.768 
L 221.801418 118.816133 
L 222.303388 118.816133 
L 222.423261 116.880397 
L 222.550627 120.212628 
L 222.677992 116.880397 
L 222.797865 120.212628 
L 222.925231 120.212628 
L 223.052596 118.279111 
L 223.547074 118.279111 
L 223.674439 119.666361 
L 224.049044 119.666361 
L 224.176409 116.361443 
L 224.296282 117.750857 
L 224.423648 121.042286 
L 224.551013 117.750857 
L 224.670887 121.042286 
L 224.798252 117.750857 
L 224.925618 119.128976 
L 225.045491 122.407024 
L 225.172856 119.128976 
L 225.420095 119.128976 
L 225.547461 120.495935 
L 225.674826 117.231158 
L 225.7947 120.495935 
L 225.922065 120.495935 
L 226.04943 117.231158 
L 226.169304 118.600258 
L 226.424035 118.600258 
L 226.543908 121.851871 
L 226.671274 118.600258 
L 226.798639 119.958361 
L 227.293117 119.958361 
L 227.420482 121.3056 
L 227.547848 118.08 
L 227.667721 121.3056 
L 227.795086 118.08 
L 228.042325 122.642104 
L 228.169691 119.429355 
L 228.544295 119.429355 
L 228.67166 120.768 
L 229.166138 120.768 
L 229.293504 122.096063 
L 229.420869 118.908711 
L 229.540742 122.096063 
L 229.668108 118.908711 
L 229.795473 122.096063 
L 229.915347 120.238866 
L 230.042712 120.238866 
L 230.170078 123.413669 
L 230.289951 120.238866 
L 230.417316 120.238866 
L 230.544682 118.396235 
L 230.664555 121.558588 
L 231.039159 121.558588 
L 231.166525 119.718 
L 231.29389 122.868 
L 231.413764 122.868 
L 231.541129 119.718 
L 231.668495 122.868 
L 231.788368 121.029479 
L 232.162972 121.029479 
L 232.290338 124.167222 
L 232.417703 122.330791 
L 232.537577 122.330791 
L 232.664942 119.205209 
L 232.792308 122.330791 
L 232.912181 122.330791 
L 233.039546 120.508541 
L 233.166912 123.622054 
L 233.286785 120.508541 
L 233.414151 123.622054 
L 233.541516 123.622054 
L 233.661389 121.801846 
L 234.163359 121.801846 
L 234.290725 123.085241 
L 234.410598 123.085241 
L 234.537963 119.995586 
L 234.665329 123.085241 
L 234.785202 119.995586 
L 234.912568 121.280977 
L 235.039933 124.35884 
L 235.159807 121.280977 
L 235.287172 124.35884 
L 235.414537 121.280977 
L 235.534411 122.556593 
L 236.036381 122.556593 
L 236.163746 123.822545 
L 236.283619 120.768 
L 236.410985 123.822545 
L 236.53835 123.822545 
L 236.658224 120.768 
L 236.785589 122.035925 
L 237.032828 122.035925 
L 237.160193 125.078943 
L 237.287559 122.035925 
L 237.407432 123.294316 
L 237.534798 120.262737 
L 237.662163 123.294316 
L 237.909402 123.294316 
L 238.036767 124.543281 
L 238.156641 121.523056 
L 238.284006 124.543281 
L 238.411372 121.523056 
L 238.531245 121.523056 
L 238.658611 122.77397 
L 239.16058 122.77397 
L 239.280454 124.015584 
L 239.535185 124.015584 
L 239.655058 121.017814 
L 239.909789 125.248 
L 240.029662 122.261333 
L 240.157028 125.248 
L 240.284393 122.261333 
L 240.404266 122.261333 
L 240.531632 123.495675 
L 241.033602 123.495675 
L 241.153475 121.756235 
L 241.280841 124.720941 
L 241.408206 124.720941 
L 241.528079 121.756235 
L 241.655445 124.720941 
L 241.78281 122.983385 
L 241.902684 122.983385 
L 242.030049 125.937231 
L 242.157415 122.983385 
L 242.277288 122.983385 
L 242.404653 121.258511 
L 242.532019 124.201577 
L 242.906623 124.201577 
L 243.026496 122.478545 
L 243.153862 125.410909 
L 243.281227 122.478545 
L 243.401101 122.478545 
L 243.528466 125.410909 
L 243.655832 123.689739 
L 244.150309 123.689739 
L 244.277675 121.980996 
L 244.40504 124.892188 
L 244.524914 121.980996 
L 244.652279 124.892188 
L 244.779644 124.892188 
L 244.899518 123.185266 
L 245.026883 126.085986 
L 245.154249 123.185266 
L 245.274122 123.185266 
L 245.401488 126.085986 
L 245.528853 124.380903 
L 245.903457 124.380903 
L 246.023331 121.490581 
L 246.150696 122.688 
L 246.278062 125.568 
L 246.397935 122.688 
L 246.5253 125.568 
L 246.652666 122.688 
L 246.772539 123.876897 
L 246.899905 126.746648 
L 247.02727 123.876897 
L 247.274509 123.876897 
L 247.401874 125.057362 
L 247.776479 125.057362 
L 247.896352 122.197787 
L 248.023718 123.380014 
L 248.270956 123.380014 
L 248.398322 126.229484 
L 248.525687 123.380014 
L 248.645561 124.553915 
L 249.14753 124.553915 
L 249.274896 125.719579 
L 249.394769 122.890105 
L 249.522135 125.719579 
L 249.6495 125.719579 
L 249.769373 122.890105 
L 249.896739 124.05751 
L 250.143978 124.05751 
L 250.271343 126.877091 
L 250.398709 124.05751 
L 250.518582 125.21678 
L 250.773313 125.21678 
L 250.893186 122.407024 
L 251.147917 126.368 
L 251.267791 123.568 
L 251.395156 126.368 
L 251.522522 123.568 
L 251.642395 123.568 
L 251.76976 124.720941 
L 252.27173 124.720941 
L 252.391603 125.865931 
L 252.646334 125.865931 
L 252.766208 123.085241 
L 253.020939 127.003052 
L 253.140812 124.231918 
L 253.268177 127.003052 
L 253.395543 124.231918 
L 253.515416 124.231918 
L 253.642782 122.609096 
L 253.770147 125.37074 
L 254.144751 125.37074 
L 254.264625 123.74957 
L 254.39199 123.74957 
L 254.519356 126.501788 
L 254.639229 123.74957 
L 254.766595 126.501788 
L 254.89396 124.882286 
L 255.013833 124.882286 
L 255.141199 127.625143 
L 255.268564 124.882286 
L 255.388438 124.882286 
L 255.515803 123.273763 
L 255.643169 126.007322 
L 255.763042 123.273763 
L 255.890407 126.007322 
L 256.017773 126.007322 
L 256.137646 124.400432 
L 256.512251 124.400432 
L 256.639616 127.124757 
L 256.766981 125.519515 
L 257.261459 125.519515 
L 257.388825 123.925047 
L 257.51619 126.631087 
L 257.636063 123.925047 
L 257.763429 126.631087 
L 257.890794 126.631087 
L 258.010668 125.038234 
L 258.512637 125.038234 
L 258.640003 126.144 
L 258.759876 126.144 
L 258.887242 123.456 
L 259.014607 126.144 
L 259.134481 123.456 
L 259.261846 124.563349 
L 259.389211 127.242419 
L 259.509085 124.563349 
L 259.63645 127.242419 
L 259.763816 124.563349 
L 259.883689 125.663364 
L 260.385659 125.663364 
L 260.513024 126.756119 
L 260.632898 126.756119 
L 260.760263 124.094733 
L 260.887629 126.756119 
L 261.007502 124.094733 
L 261.134867 125.189053 
L 261.382106 125.189053 
L 261.509472 127.841684 
L 261.636837 125.189053 
L 261.75671 126.276197 
L 261.884076 123.632262 
L 262.011441 126.276197 
L 262.25868 126.276197 
L 262.386046 127.356235 
L 262.505919 124.720941 
L 262.633284 124.720941 
L 262.76065 127.356235 
L 262.880523 124.720941 
L 263.007889 125.802528 
L 263.509858 125.802528 
L 263.629732 126.877091 
L 263.757097 124.258909 
L 263.884463 126.877091 
L 264.004336 124.258909 
L 264.259067 127.944699 
L 264.37894 125.33499 
L 264.753545 125.33499 
L 264.88091 126.404129 
L 265.128149 126.404129 
L 265.255514 123.802839 
L 265.502753 127.466392 
L 265.630119 124.873466 
L 265.757484 127.466392 
L 265.877358 124.873466 
L 266.004723 124.873466 
L 266.132088 125.937231 
L 266.626566 125.937231 
L 266.753932 124.41784 
L 266.881297 126.994198 
L 267.00117 126.994198 
L 267.128536 124.41784 
L 267.255901 126.994198 
L 267.375775 125.47628 
L 267.50314 125.47628 
L 267.630506 128.044433 
L 267.750379 125.47628 
L 267.877744 125.47628 
L 268.00511 123.968 
L 268.124983 126.528 
L 268.499588 126.528 
L 268.626953 125.021165 
L 268.754318 125.021165 
L 268.874192 127.573063 
L 269.001557 125.021165 
L 269.128923 127.573063 
L 269.248796 126.067685 
L 269.750766 126.067685 
L 269.878131 124.571774 
L 269.998005 127.107623 
L 270.12537 124.571774 
L 270.252736 127.107623 
L 270.372609 127.107623 
L 270.499974 125.613141 
L 270.874579 125.613141 
L 271.001944 128.141041 
L 271.121817 126.648 
L 271.249183 126.648 
L 271.376548 124.128 
L 271.496422 126.648 
L 271.623787 126.648 
L 271.751153 125.164262 
L 271.871026 127.676411 
L 271.998391 125.164262 
L 272.125757 127.676411 
L 272.24563 125.164262 
L 272.372996 126.194087 
L 272.874965 126.194087 
L 272.994839 127.217536 
L 273.122204 127.217536 
L 273.24957 124.720941 
L 273.369443 127.217536 
L 273.496809 124.720941 
L 273.624174 125.745778 
L 273.744047 128.234667 
L 273.871413 125.745778 
L 274.118652 125.745778 
L 274.246017 126.764308 
L 274.747987 126.764308 
L 274.86786 127.776589 
L 274.995226 127.776589 
L 275.122591 125.302969 
L 275.242465 127.776589 
L 275.36983 125.302969 
L 275.497195 126.316624 
L 275.991673 126.316624 
L 276.119039 127.324098 
L 276.246404 124.865561 
L 276.366277 127.324098 
L 276.493643 127.324098 
L 276.621008 124.865561 
L 276.740882 125.874383 
L 276.995613 125.874383 
L 277.115486 128.325447 
L 277.242851 125.874383 
L 277.370217 126.877091 
L 277.864695 126.877091 
L 277.99206 127.87374 
L 278.119425 125.437486 
L 278.239299 127.87374 
L 278.366664 125.437486 
L 278.49403 125.437486 
L 278.613903 126.43547 
L 279.115873 126.43547 
L 279.243238 127.427459 
L 279.363112 125.005838 
L 279.490477 127.427459 
L 279.617843 125.005838 
L 279.865081 128.413509 
L 279.992447 125.999138 
L 280.11232 128.413509 
L 280.239686 125.999138 
L 280.367051 125.999138 
L 280.486924 126.986507 
L 280.988894 126.986507 
L 281.11626 125.568 
L 281.236133 125.568 
L 281.363498 127.968 
L 281.490864 125.568 
L 281.610737 127.968 
L 281.738103 126.550789 
L 282.240073 126.550789 
L 282.359946 125.141964 
L 282.487311 127.527763 
L 282.614677 127.527763 
L 282.73455 125.141964 
L 282.861916 127.527763 
L 282.989281 126.120212 
L 283.109154 126.120212 
L 283.23652 128.498973 
L 283.363885 126.120212 
L 283.483759 128.498973 
L 283.611124 127.092706 
L 283.73849 127.092706 
L 283.858363 124.720941 
L 283.985728 127.092706 
L 284.113094 127.092706 
L 284.232967 125.694686 
L 284.360333 128.059496 
L 284.487698 125.694686 
L 284.607572 125.694686 
L 284.734937 128.059496 
L 284.862302 126.662737 
L 285.35678 126.662737 
L 285.484146 125.274122 
L 285.611511 127.625143 
L 285.731384 125.274122 
L 285.85875 127.625143 
L 285.986115 127.625143 
L 286.105989 126.237767 
L 286.233354 128.581953 
L 286.36072 126.237767 
L 286.607958 126.237767 
L 286.735324 127.195826 
L 287.109928 127.195826 
L 287.229802 124.858435 
L 287.357167 125.817711 
L 287.484532 128.148347 
L 287.604406 125.817711 
L 287.731771 128.148347 
L 287.859137 125.817711 
L 287.97901 126.771458 
L 288.48098 126.771458 
L 288.608345 127.719724 
L 288.728219 125.402483 
L 288.855584 125.402483 
L 288.98295 127.719724 
L 289.102823 125.402483 
L 289.230188 126.351954 
L 289.477427 126.351954 
L 289.604793 128.662556 
L 289.732158 126.351954 
L 289.852031 127.296 
L 289.979397 124.992 
L 290.106762 127.296 
L 290.354001 127.296 
L 290.481367 128.234667 
L 290.60124 125.937231 
L 290.975844 125.937231 
L 291.10321 126.877091 
L 291.350449 126.877091 
L 291.477814 124.586182 
L 291.725053 127.811626 
L 291.852418 125.527207 
L 291.979784 127.811626 
L 292.099657 125.527207 
L 292.227023 127.811626 
L 292.354388 126.462915 
L 292.848866 126.462915 
L 292.976231 125.121803 
L 293.103597 127.393352 
L 293.22347 127.393352 
L 293.350835 125.121803 
L 293.478201 127.393352 
L 293.598074 126.053393 
L 294.100044 126.053393 
L 294.227409 124.720941 
L 294.347283 126.979765 
L 294.474648 124.720941 
L 294.602014 126.979765 
L 294.721887 124.720941 
L 294.849253 125.648447 
L 295.351222 125.648447 
L 295.471096 126.570786 
L 295.598461 124.324546 
L 295.725827 126.570786 
L 295.8457 126.570786 
L 295.973065 124.324546 
L 296.100431 125.248 
L 296.220304 127.488 
L 296.34767 125.248 
L 296.475035 127.488 
L 296.594909 125.248 
L 296.722274 126.166338 
L 297.096878 126.166338 
L 297.224244 128.400133 
L 297.344117 127.079602 
L 297.471483 127.079602 
L 297.598848 124.851978 
L 297.718721 127.079602 
L 297.846087 127.079602 
L 297.973452 125.766347 
L 298.093326 127.987835 
L 298.220691 127.987835 
L 298.348057 125.766347 
L 298.46793 127.987835 
L 298.595295 126.675692 
L 298.722661 126.675692 
L 298.842534 128.891077 
L 298.9699 126.675692 
L 299.217138 129.78937 
L 299.344504 127.580055 
L 299.471869 127.580055 
L 299.591743 129.78937 
L 299.719108 127.580055 
L 299.846474 128.479475 
L 300.340951 128.479475 
L 300.468317 129.373995 
L 300.842921 129.373995 
L 300.970287 127.176719 
L 301.09016 128.072348 
L 301.217525 130.263652 
L 301.344891 128.072348 
L 301.464764 130.263652 
L 301.59213 130.263652 
L 301.719495 128.963122 
L 301.839368 131.148488 
L 301.966734 128.963122 
L 302.094099 128.963122 
L 302.213973 131.148488 
L 302.341338 129.849081 
L 302.468704 129.849081 
L 302.588577 132.028541 
L 302.715942 129.849081 
L 302.843308 129.849081 
L 302.963181 128.556679 
L 303.090547 130.730264 
L 303.465151 130.730264 
L 303.592516 131.60671 
L 303.71239 129.438968 
L 303.839755 131.60671 
L 304.086994 131.60671 
L 304.21436 132.478456 
L 304.341725 130.316525 
L 304.461598 130.316525 
L 304.588964 132.478456 
L 304.716329 130.316525 
L 304.836203 131.18939 
L 304.963568 133.34554 
L 305.090934 131.18939 
L 305.210807 133.34554 
L 305.338172 131.18939 
L 305.465538 132.0576 
L 305.840142 132.0576 
L 305.960016 134.208 
L 306.087381 132.921191 
L 306.214746 132.921191 
L 306.33462 130.776511 
L 306.461985 132.921191 
L 306.589351 132.921191 
L 306.709224 131.64121 
L 306.83659 133.780202 
L 306.963955 133.780202 
L 307.083828 131.64121 
L 307.338559 134.634667 
L 307.458433 132.501333 
L 307.585798 134.634667 
L 307.713164 132.501333 
L 307.833037 132.501333 
L 307.960402 133.356918 
L 308.207641 133.356918 
L 308.335007 135.484623 
L 308.462372 133.356918 
L 308.582245 134.208 
L 309.084215 134.208 
L 309.211581 135.054614 
L 309.586185 135.054614 
L 309.706058 132.938079 
L 309.833424 133.785801 
L 309.960789 135.896796 
L 310.080663 133.785801 
L 310.208028 135.896796 
L 310.335394 135.896796 
L 310.455267 134.629097 
L 310.582632 134.629097 
L 310.709998 136.73458 
L 310.829871 134.629097 
L 310.957237 136.73458 
L 311.084602 135.468 
L 311.57908 135.468 
L 311.706445 136.302545 
L 312.208415 136.302545 
L 312.328288 137.132767 
L 312.455654 135.043648 
L 312.583019 137.132767 
L 312.830258 137.132767 
L 312.957623 137.958698 
L 313.077497 135.874977 
L 313.204862 135.874977 
L 313.332228 137.958698 
L 313.452101 135.874977 
L 313.579467 136.702021 
L 313.706832 138.780371 
L 313.826705 136.702021 
L 314.081436 136.702021 
L 314.20131 137.524812 
L 314.703279 137.524812 
L 314.830645 136.275692 
L 314.950518 138.343385 
L 315.325123 138.343385 
L 315.452488 137.095366 
L 315.579853 139.15777 
L 315.699727 139.15777 
L 315.827092 137.095366 
L 316.074331 139.968 
L 316.201697 137.910857 
L 316.329062 139.968 
L 316.448935 137.910857 
L 316.576301 137.910857 
L 316.703666 138.722198 
L 316.950905 138.722198 
L 317.078271 140.774107 
L 317.198144 138.722198 
L 317.325509 139.529421 
L 317.452875 137.482721 
L 317.572748 139.529421 
L 317.827479 139.529421 
L 317.947352 140.332557 
L 318.074718 140.332557 
L 318.202083 138.291038 
L 318.321957 140.332557 
L 318.449322 140.332557 
L 318.576688 139.095273 
L 318.696561 141.131636 
L 318.823927 139.095273 
L 318.951292 141.131636 
L 319.071165 141.131636 
L 319.198531 139.895456 
L 319.325896 139.895456 
L 319.44577 141.92669 
L 319.573135 139.895456 
L 319.700501 141.92669 
L 319.820374 140.691618 
L 320.322344 140.691618 
L 320.449709 141.483789 
L 320.696948 141.483789 
L 320.824313 139.462737 
L 321.071552 142.272 
L 321.198918 140.256 
L 321.318791 142.272 
L 321.446156 142.272 
L 321.573522 140.256 
L 321.693395 141.045307 
L 321.820761 143.056279 
L 321.948126 141.045307 
L 322.068 143.056279 
L 322.195365 141.045307 
L 322.32273 141.830687 
L 322.442604 143.836657 
L 322.569969 141.830687 
L 322.697335 141.830687 
L 322.817208 143.836657 
L 322.944574 142.612169 
L 323.446543 142.612169 
L 323.566417 141.393743 
L 323.693782 143.389782 
L 324.068386 143.389782 
L 324.195752 142.172444 
L 324.315625 142.172444 
L 324.442991 144.163556 
L 324.570356 142.172444 
L 324.817595 144.933517 
L 324.94496 142.94731 
L 325.319565 142.94731 
L 325.439438 143.718369 
L 325.941408 143.718369 
L 326.068773 144.485647 
L 326.563251 144.485647 
L 326.690616 145.249174 
L 326.817982 145.249174 
L 326.937855 143.277535 
L 327.065221 145.249174 
L 327.192586 145.249174 
L 327.312459 144.042146 
L 327.439825 146.008976 
L 327.56719 144.042146 
L 327.687064 144.042146 
L 327.814429 146.008976 
L 327.941795 144.803036 
L 328.061668 144.803036 
L 328.189034 146.76508 
L 328.316399 144.803036 
L 328.436272 144.803036 
L 328.563638 143.602951 
L 328.691003 145.560233 
L 329.065608 145.560233 
L 329.185481 146.313763 
L 329.312846 144.36122 
L 329.440212 146.313763 
L 329.687451 146.313763 
L 329.814816 147.063652 
L 329.934689 145.115826 
L 330.062055 147.063652 
L 330.18942 147.063652 
L 330.309294 145.115826 
L 330.436659 145.866795 
L 330.564025 147.809928 
L 330.683898 145.866795 
L 330.811263 147.809928 
L 330.938629 145.866795 
L 331.058502 146.614154 
L 331.433107 146.614154 
L 331.560472 148.552615 
L 331.687837 147.357928 
L 331.807711 147.357928 
L 331.935076 145.424115 
L 332.062442 147.357928 
L 332.182315 147.357928 
L 332.309681 146.168957 
L 332.437046 148.098144 
L 332.556919 148.098144 
L 332.684285 146.168957 
L 332.931524 148.834826 
L 333.058889 146.910243 
L 333.186255 148.834826 
L 333.306128 146.910243 
L 333.560859 149.568 
L 333.680732 147.648 
L 333.808098 147.648 
L 333.935463 149.568 
L 334.055337 147.648 
L 334.182702 148.382252 
L 334.684672 148.382252 
L 334.804545 149.113024 
L 335.179149 149.113024 
L 335.306515 147.202123 
L 335.43388 147.933957 
L 335.553754 149.84034 
L 335.681119 147.933957 
L 335.808485 149.84034 
L 335.928358 149.84034 
L 336.055723 148.66234 
L 336.430328 148.66234 
L 336.557693 150.564226 
L 336.677566 149.387294 
L 336.804932 149.387294 
L 336.932297 151.284706 
L 337.052171 149.387294 
L 337.179536 149.387294 
L 337.306902 150.108845 
L 337.801379 150.108845 
L 337.928745 150.827016 
L 338.05611 148.938492 
L 338.175984 150.827016 
L 338.430715 150.827016 
L 338.550588 151.541832 
L 338.677953 149.65772 
L 338.805319 149.65772 
L 338.925192 151.541832 
L 339.052558 149.65772 
L 339.179923 150.373594 
L 339.299796 152.253315 
L 339.427162 150.373594 
L 339.674401 150.373594 
L 339.801766 151.08614 
L 340.17637 151.08614 
L 340.303736 152.961488 
L 340.423609 151.795378 
L 340.925579 151.795378 
L 341.052944 150.634667 
L 341.172818 152.501333 
L 341.300183 152.501333 
L 341.427549 150.634667 
L 341.674788 153.204028 
L 341.802153 151.341672 
L 341.922026 153.204028 
L 342.049392 151.341672 
L 342.176757 151.341672 
L 342.296631 152.045419 
L 342.551362 152.045419 
L 342.671235 153.903484 
L 342.7986 152.045419 
L 342.925966 152.745931 
L 343.420444 152.745931 
L 343.547809 153.443229 
L 344.049779 153.443229 
L 344.169652 152.292027 
L 344.297018 154.137336 
L 344.424383 152.292027 
L 344.544256 154.137336 
L 344.671622 154.137336 
L 344.798987 152.987178 
L 344.918861 152.987178 
L 345.046226 154.828274 
L 345.173592 152.987178 
L 345.293465 154.828274 
L 345.42083 153.679162 
L 345.548196 153.679162 
L 345.668069 155.516064 
L 345.795435 153.679162 
L 345.9228 153.679162 
L 346.042674 154.368 
L 346.544643 154.368 
L 346.672009 155.053714 
L 346.791882 153.225143 
L 346.919248 155.053714 
L 347.166486 155.053714 
L 347.293852 155.736326 
L 347.421217 153.911891 
L 347.541091 155.736326 
L 347.668456 155.736326 
L 347.795822 153.911891 
L 347.915695 154.59554 
L 348.04306 156.415856 
L 348.170426 154.59554 
L 348.290299 156.415856 
L 348.417665 156.415856 
L 348.54503 155.276108 
L 348.919634 155.276108 
L 349.039508 157.092324 
L 349.166873 155.953618 
L 349.294239 155.953618 
L 349.414112 157.765753 
L 349.541477 155.953618 
L 349.668843 155.953618 
L 349.788716 154.820018 
L 349.916082 156.62809 
L 350.290686 156.62809 
L 350.418051 157.299544 
L 350.66529 157.299544 
L 350.792656 155.495517 
L 351.039895 157.968 
L 351.16726 156.168 
L 351.287133 157.968 
L 351.541864 157.968 
L 351.661738 158.633479 
L 351.789103 158.633479 
L 351.916469 156.837488 
L 352.036342 158.633479 
L 352.163707 156.837488 
L 352.291073 157.504 
L 352.665677 157.504 
L 352.785551 159.296 
L 352.912916 158.167557 
L 353.040281 158.167557 
L 353.160155 156.37953 
L 353.28752 158.167557 
L 353.414886 158.167557 
L 353.534759 157.044106 
L 353.662125 157.044106 
L 353.78949 158.828177 
L 353.909363 157.044106 
L 354.036729 158.828177 
L 354.164094 157.705748 
L 354.658572 157.705748 
L 354.785937 158.364476 
L 354.913303 156.588264 
L 355.033176 158.364476 
L 355.287907 158.364476 
L 355.407781 159.020308 
L 355.535146 157.248 
L 355.662511 157.248 
L 355.782385 159.020308 
L 355.90975 157.248 
L 356.037116 157.904842 
L 356.41172 157.904842 
L 356.531593 156.136421 
L 356.658959 156.794258 
L 356.786324 158.55881 
L 356.906198 156.794258 
L 357.033563 158.55881 
L 357.160929 158.55881 
L 357.280802 157.449223 
L 357.782772 157.449223 
L 357.910137 156.344471 
L 358.03001 158.101333 
L 358.404615 158.101333 
L 358.53198 156.997565 
L 358.659346 156.997565 
L 358.779219 158.750609 
L 358.906584 156.997565 
L 359.03395 156.997565 
L 359.153823 157.647826 
L 359.408554 157.647826 
L 359.528428 159.397067 
L 359.655793 157.647826 
L 359.783158 158.295273 
L 359.903032 156.549818 
L 360.030397 158.295273 
L 360.157763 158.295273 
L 360.277636 156.549818 
L 360.405002 157.198238 
L 360.532367 158.939922 
L 360.65224 157.198238 
L 360.779606 158.939922 
L 360.906971 157.198238 
L 361.026845 157.843862 
L 361.528814 157.843862 
L 361.65618 156.752516 
L 361.776053 158.48671 
L 361.903419 156.752516 
L 362.030784 156.752516 
L 362.150658 158.48671 
L 362.278023 157.396326 
L 362.405388 157.396326 
L 362.525262 159.126798 
L 362.652627 157.396326 
L 362.779993 157.396326 
L 362.899866 158.037379 
L 363.154597 158.037379 
L 363.27447 156.310612 
L 363.529201 158.675692 
L 363.649075 156.952615 
L 363.77644 158.675692 
L 363.903806 158.675692 
L 364.023679 156.952615 
L 364.151044 157.591881 
L 364.653014 157.591881 
L 364.772888 158.228426 
L 365.147492 158.228426 
L 365.274857 156.512681 
L 365.402223 157.150166 
L 365.522096 158.862268 
L 365.649462 157.150166 
L 365.776827 157.150166 
L 365.8967 158.862268 
L 366.024066 157.784949 
L 366.151431 157.784949 
L 366.271305 156.076475 
L 366.39867 157.784949 
L 366.526036 157.784949 
L 366.645909 156.712186 
L 366.773274 158.417049 
L 366.90064 158.417049 
L 367.020513 156.712186 
L 367.275244 159.046481 
L 367.395117 157.345215 
L 367.769722 157.345215 
L 367.897087 157.975579 
L 368.399057 157.975579 
L 368.51893 158.603294 
L 368.646296 156.909176 
L 368.773661 156.909176 
L 368.893535 158.603294 
L 369.0209 156.909176 
L 369.148266 157.537811 
L 369.268139 159.228377 
L 369.395504 157.537811 
L 369.642743 157.537811 
L 369.770109 158.163816 
L 369.897474 158.163816 
L 370.017347 156.476787 
L 370.144713 158.163816 
L 370.272078 158.163816 
L 370.391952 157.103699 
L 370.519317 157.103699 
L 370.646683 158.787207 
L 370.766556 157.103699 
L 370.893921 158.787207 
L 371.021287 157.728 
L 371.515765 157.728 
L 371.64313 158.349705 
L 371.770495 156.673198 
L 371.890369 158.349705 
L 372.017734 156.673198 
L 372.264973 158.96883 
L 372.392339 157.295801 
L 372.519704 157.295801 
L 372.639577 158.96883 
L 372.766943 157.295801 
L 372.894308 157.915826 
L 373.014182 156.246261 
L 373.141547 157.915826 
L 373.388786 157.915826 
L 373.516151 158.533289 
L 373.643517 158.533289 
L 373.76339 156.867174 
L 373.890756 158.533289 
L 374.018121 158.533289 
L 374.137995 157.485526 
L 374.512599 157.485526 
L 374.639964 159.148206 
L 374.76733 158.101333 
L 375.261807 158.101333 
L 375.389173 157.05876 
L 375.516538 157.05876 
L 375.636412 158.714612 
L 375.763777 157.05876 
L 375.891143 157.05876 
L 376.011016 157.672918 
L 376.512986 157.672918 
L 376.640351 158.284564 
L 376.760224 156.635485 
L 376.88759 158.284564 
L 377.014955 158.284564 
L 377.134829 156.635485 
L 377.262194 157.248 
L 377.509433 157.248 
L 377.636798 158.893714 
L 377.764164 157.248 
L 377.884037 157.85802 
L 378.386007 157.85802 
L 378.513373 156.826537 
L 378.633246 158.465561 
L 378.760611 156.826537 
L 378.887977 158.465561 
L 379.00785 158.465561 
L 379.135216 157.434937 
L 379.262581 157.434937 
L 379.382454 159.070637 
L 379.50982 157.434937 
L 379.637185 157.434937 
L 379.757059 156.408486 
L 379.884424 158.040874 
L 380.01179 158.040874 
L 380.131663 156.408486 
L 380.386394 158.644364 
L 380.506267 157.015273 
L 380.633633 158.644364 
L 380.760998 157.015273 
L 380.880872 157.015273 
L 381.008237 157.619613 
L 381.510207 157.619613 
L 381.63008 158.221521 
L 382.004684 158.221521 
L 382.13205 156.598986 
L 382.259415 157.201735 
L 382.379289 158.821012 
L 382.506654 157.201735 
L 382.63402 157.201735 
L 382.753893 158.821012 
L 382.881258 157.802068 
L 383.383228 157.802068 
L 383.503102 156.7872 
L 383.630467 158.4 
L 383.757832 158.4 
L 383.877706 156.7872 
L 384.005071 158.4 
L 384.132437 157.385964 
L 384.626914 157.385964 
L 384.75428 157.982343 
L 385.001519 157.982343 
L 385.128884 156.375968 
L 385.376123 158.57635 
L 385.503488 156.973169 
L 385.630854 156.973169 
L 385.750727 158.57635 
L 385.878093 156.973169 
L 386.005458 157.568 
L 386.125331 159.168 
L 386.252697 157.568 
L 386.499936 157.568 
L 386.627301 158.160475 
L 386.754667 158.160475 
L 386.87454 156.563644 
L 387.001905 158.160475 
L 387.129271 158.160475 
L 387.249144 157.156933 
L 387.37651 158.750609 
L 387.503875 157.156933 
L 387.623749 157.156933 
L 387.751114 158.750609 
L 387.87848 157.747882 
L 388.372957 157.747882 
L 388.500323 156.749102 
L 388.627688 158.336504 
L 388.747561 158.336504 
L 388.874927 156.749102 
L 389.122166 158.922813 
L 389.249531 157.33853 
L 389.376897 157.33853 
L 389.49677 158.922813 
L 389.624135 157.33853 
L 389.751501 157.925647 
L 389.871374 156.344471 
L 389.99874 157.925647 
L 390.245979 157.925647 
L 390.373344 158.510466 
L 390.500709 158.510466 
L 390.620583 156.932384 
L 390.747948 158.510466 
L 390.875314 156.932384 
L 390.995187 157.518 
L 391.369791 157.518 
L 391.497157 159.093 
L 391.624522 158.101333 
L 391.744396 158.101333 
L 391.871761 156.529404 
L 391.999127 158.101333 
L 392.119 158.101333 
L 392.246365 157.113525 
L 392.373731 157.113525 
L 392.493604 158.682397 
L 392.62097 157.113525 
L 392.868209 159.261204 
L 392.995574 157.695379 
L 393.370178 157.695379 
L 393.497544 158.274977 
L 393.617417 156.712186 
L 393.744783 158.274977 
L 393.872148 158.274977 
L 393.992021 156.712186 
L 394.119387 157.292565 
L 394.366626 157.292565 
L 394.493991 158.852333 
L 394.621357 157.292565 
L 394.74123 157.870703 
L 395.115834 157.870703 
L 395.2432 156.313946 
L 395.370565 156.892855 
L 395.490438 158.446613 
L 395.617804 156.892855 
L 395.745169 158.446613 
L 395.865043 158.446613 
L 395.992408 157.469538 
L 396.494378 157.469538 
L 396.614251 156.496215 
L 396.741617 158.044008 
L 397.116221 158.044008 
L 397.243587 158.616276 
L 397.36346 157.071448 
L 397.490825 158.616276 
L 397.618191 157.071448 
L 397.738064 157.071448 
L 397.86543 157.644482 
L 398.367399 157.644482 
L 398.487273 158.215328 
L 398.487273 158.215328 
" style="fill:none;stroke:#1f77b4;stroke-linecap:square;stroke-width:1.5;"/>
   </g>
   <g id="patch_3">
    <path d="M 57.6 307.584 
L 57.6 41.472 
" style="fill:none;stroke:#000000;stroke-linecap:square;stroke-linejoin:miter;stroke-width:0.8;"/>
   </g>
   <g id="patch_4">
    <path d="M 414.72 307.584 
L 414.72 41.472 
" style="fill:none;stroke:#000000;stroke-linecap:square;stroke-linejoin:miter;stroke-width:0.8;"/>
   </g>
   <g id="patch_5">
    <path d="M 57.6 307.584 
L 414.72 307.584 
" style="fill:none;stroke:#000000;stroke-linecap:square;stroke-linejoin:miter;stroke-width:0.8;"/>
   </g>
   <g id="patch_6">
    <path d="M 57.6 41.472 
L 414.72 41.472 
" style="fill:none;stroke:#000000;stroke-linecap:square;stroke-linejoin:miter;stroke-width:0.8;"/>
   </g>
   <g id="text_16">
    <!-- Speed function of time -->
    <g transform="translate(167.024063 35.472)scale(0.12 -0.12)">
     <defs>
      <path id="DejaVuSerif-32"/>
      <path d="M 43.015625 63.71875 
L 38.28125 63.71875 
Q 38.234375 67.390625 36.203125 69.28125 
Q 34.1875 71.1875 30.328125 71.1875 
Q 25.296875 71.1875 23.234375 68.421875 
Q 21.1875 65.671875 21.1875 58.59375 
L 21.1875 51.90625 
L 35.6875 51.90625 
L 35.6875 46.6875 
L 21.1875 46.6875 
L 21.1875 5.171875 
L 32.71875 5.171875 
L 32.71875 0 
L 3.609375 0 
L 3.609375 5.171875 
L 12.203125 5.171875 
L 12.203125 46.6875 
L 3.609375 46.6875 
L 3.609375 51.90625 
L 12.203125 51.90625 
L 12.203125 58.40625 
Q 12.203125 67.09375 16.71875 71.53125 
Q 21.234375 75.984375 29.984375 75.984375 
Q 33.25 75.984375 36.515625 75.390625 
Q 39.796875 74.8125 43.015625 73.578125 
z
" id="DejaVuSerif-102"/>
      <path d="M 35.40625 51.90625 
L 52.203125 51.90625 
L 52.203125 5.171875 
L 60.6875 5.171875 
L 60.6875 0 
L 43.21875 0 
L 43.21875 9.1875 
Q 40.71875 4 36.765625 1.28125 
Q 32.8125 -1.421875 27.59375 -1.421875 
Q 18.953125 -1.421875 14.875 3.484375 
Q 10.796875 8.40625 10.796875 18.890625 
L 10.796875 46.6875 
L 2.6875 46.6875 
L 2.6875 51.90625 
L 19.828125 51.90625 
L 19.828125 21.6875 
Q 19.828125 12.203125 22.140625 8.6875 
Q 24.46875 5.171875 30.421875 5.171875 
Q 36.671875 5.171875 39.9375 9.765625 
Q 43.21875 14.359375 43.21875 23.09375 
L 43.21875 46.6875 
L 35.40625 46.6875 
z
" id="DejaVuSerif-117"/>
      <path d="M 4.109375 0 
L 4.109375 5.171875 
L 12.203125 5.171875 
L 12.203125 46.6875 
L 3.609375 46.6875 
L 3.609375 51.90625 
L 21.1875 51.90625 
L 21.1875 42.671875 
Q 23.6875 47.953125 27.65625 50.640625 
Q 31.640625 53.328125 36.921875 53.328125 
Q 45.515625 53.328125 49.5625 48.390625 
Q 53.609375 43.453125 53.609375 33.015625 
L 53.609375 5.171875 
L 61.625 5.171875 
L 61.625 0 
L 36.8125 0 
L 36.8125 5.171875 
L 44.578125 5.171875 
L 44.578125 30.171875 
Q 44.578125 39.703125 42.234375 43.234375 
Q 39.890625 46.78125 33.984375 46.78125 
Q 27.734375 46.78125 24.453125 42.203125 
Q 21.1875 37.640625 21.1875 28.90625 
L 21.1875 5.171875 
L 29 5.171875 
L 29 0 
z
" id="DejaVuSerif-110"/>
      <path d="M 51.421875 15.578125 
Q 49.515625 7.28125 44.09375 2.921875 
Q 38.671875 -1.421875 30.078125 -1.421875 
Q 18.75 -1.421875 11.859375 6.078125 
Q 4.984375 13.578125 4.984375 25.984375 
Q 4.984375 38.421875 11.859375 45.875 
Q 18.75 53.328125 30.078125 53.328125 
Q 35.015625 53.328125 39.890625 52.171875 
Q 44.78125 51.03125 49.703125 48.6875 
L 49.703125 35.40625 
L 44.484375 35.40625 
Q 43.453125 42.234375 40.015625 45.359375 
Q 36.578125 48.484375 30.171875 48.484375 
Q 22.90625 48.484375 19.1875 42.84375 
Q 15.484375 37.203125 15.484375 25.984375 
Q 15.484375 14.75 19.171875 9.078125 
Q 22.859375 3.421875 30.171875 3.421875 
Q 35.984375 3.421875 39.453125 6.4375 
Q 42.921875 9.46875 44.1875 15.578125 
z
" id="DejaVuSerif-99"/>
      <path d="M 10.796875 46.6875 
L 2.875 46.6875 
L 2.875 51.90625 
L 10.796875 51.90625 
L 10.796875 68.015625 
L 19.828125 68.015625 
L 19.828125 51.90625 
L 36.71875 51.90625 
L 36.71875 46.6875 
L 19.828125 46.6875 
L 19.828125 13.71875 
Q 19.828125 7.125 21.09375 5.265625 
Q 22.359375 3.421875 25.78125 3.421875 
Q 29.296875 3.421875 30.90625 5.484375 
Q 32.515625 7.5625 32.625 12.203125 
L 39.40625 12.203125 
Q 39.015625 5.125 35.546875 1.84375 
Q 32.078125 -1.421875 25 -1.421875 
Q 17.234375 -1.421875 14.015625 2.015625 
Q 10.796875 5.46875 10.796875 13.71875 
z
" id="DejaVuSerif-116"/>
      <path d="M 30.078125 3.421875 
Q 37.3125 3.421875 40.984375 9.125 
Q 44.671875 14.84375 44.671875 25.984375 
Q 44.671875 37.109375 40.984375 42.796875 
Q 37.3125 48.484375 30.078125 48.484375 
Q 22.859375 48.484375 19.171875 42.796875 
Q 15.484375 37.109375 15.484375 25.984375 
Q 15.484375 14.84375 19.1875 9.125 
Q 22.90625 3.421875 30.078125 3.421875 
z
M 30.078125 -1.421875 
Q 18.75 -1.421875 11.859375 6.078125 
Q 4.984375 13.578125 4.984375 25.984375 
Q 4.984375 38.375 11.84375 45.84375 
Q 18.703125 53.328125 30.078125 53.328125 
Q 41.453125 53.328125 48.3125 45.84375 
Q 55.171875 38.375 55.171875 25.984375 
Q 55.171875 13.578125 48.3125 6.078125 
Q 41.453125 -1.421875 30.078125 -1.421875 
z
" id="DejaVuSerif-111"/>
     </defs>
     <use xlink:href="#DejaVuSerif-83"/>
     <use x="68.505859" xlink:href="#DejaVuSerif-112"/>
     <use x="132.519531" xlink:href="#DejaVuSerif-101"/>
     <use x="191.699219" xlink:href="#DejaVuSerif-101"/>
     <use x="250.878906" xlink:href="#DejaVuSerif-100"/>
     <use x="314.892578" xlink:href="#DejaVuSerif-32"/>
     <use x="346.679688" xlink:href="#DejaVuSerif-102"/>
     <use x="383.691406" xlink:href="#DejaVuSerif-117"/>
     <use x="448.095703" xlink:href="#DejaVuSerif-110"/>
     <use x="512.5" xlink:href="#DejaVuSerif-99"/>
     <use x="568.505859" xlink:href="#DejaVuSerif-116"/>
     <use x="608.691406" xlink:href="#DejaVuSerif-105"/>
     <use x="640.673828" xlink:href="#DejaVuSerif-111"/>
     <use x="700.878906" xlink:href="#DejaVuSerif-110"/>
     <use x="765.283203" xlink:href="#DejaVuSerif-32"/>
     <use x="797.070312" xlink:href="#DejaVuSerif-111"/>
     <use x="857.275391" xlink:href="#DejaVuSerif-102"/>
     <use x="894.287109" xlink:href="#DejaVuSerif-32"/>
     <use x="926.074219" xlink:href="#DejaVuSerif-116"/>
     <use x="966.259766" xlink:href="#DejaVuSerif-105"/>
     <use x="998.242188" xlink:href="#DejaVuSerif-109"/>
     <use x="1093.066406" xlink:href="#DejaVuSerif-101"/>
    </g>
   </g>
  </g>
 </g>
 <defs>
  <clipPath id="p518c653ad4">
   <rect height="266.112" width="357.12" x="57.6" y="41.472"/>
  </clipPath>
 </defs>
</svg>
