<?xml version="1.0" encoding="utf-8" standalone="no"?>
<!DOCTYPE svg PUBLIC "-//W3C//DTD SVG 1.1//EN"
  "http://www.w3.org/Graphics/SVG/1.1/DTD/svg11.dtd">
<!-- Created with matplotlib (https://matplotlib.org/) -->
<svg height="345.6pt" version="1.1" viewBox="0 0 460.8 345.6" width="460.8pt" xmlns="http://www.w3.org/2000/svg" xmlns:xlink="http://www.w3.org/1999/xlink">
 <metadata>
  <rdf:RDF xmlns:cc="http://creativecommons.org/ns#" xmlns:dc="http://purl.org/dc/elements/1.1/" xmlns:rdf="http://www.w3.org/1999/02/22-rdf-syntax-ns#">
   <cc:Work>
    <dc:type rdf:resource="http://purl.org/dc/dcmitype/StillImage"/>
    <dc:date>2022-05-24T01:32:51.061972</dc:date>
    <dc:format>image/svg+xml</dc:format>
    <dc:creator>
     <cc:Agent>
      <dc:title>Matplotlib v3.3.4, https://matplotlib.org/</dc:title>
     </cc:Agent>
    </dc:creator>
   </cc:Work>
  </rdf:RDF>
 </metadata>
 <defs>
  <style type="text/css">*{stroke-linecap:butt;stroke-linejoin:round;}</style>
 </defs>
 <g id="figure_1">
  <g id="patch_1">
   <path d="M 0 345.6 
L 460.8 345.6 
L 460.8 0 
L 0 0 
z
" style="fill:#ffffff;"/>
  </g>
  <g id="axes_1">
   <g id="patch_2">
    <path d="M 57.6 307.584 
L 414.72 307.584 
L 414.72 41.472 
L 57.6 41.472 
z
" style="fill:#ffffff;"/>
   </g>
   <g id="PolyCollection_1">
    <defs>
     <path d="M 73.832727 -45.547472 
L 73.832727 -265.215396 
L 75.456 -265.215396 
L 77.079273 -265.215396 
L 78.702545 -265.215396 
L 80.325818 -265.215396 
L 81.949091 -265.215396 
L 83.572364 -265.215396 
L 85.195636 -265.215396 
L 86.818909 -265.215396 
L 88.442182 -265.215396 
L 90.065455 -265.215396 
L 91.688727 -265.215396 
L 93.312 -265.215396 
L 94.935273 -265.215396 
L 96.558545 -265.215396 
L 98.181818 -265.215396 
L 99.805091 -265.215396 
L 101.428364 -265.215396 
L 103.051636 -265.215396 
L 104.674909 -265.215396 
L 106.298182 -265.215396 
L 107.921455 -265.215396 
L 109.544727 -265.215396 
L 111.168 -265.215396 
L 112.791273 -265.215396 
L 114.414545 -265.215396 
L 116.037818 -265.215396 
L 117.661091 -265.215396 
L 119.284364 -265.215396 
L 120.907636 -265.215396 
L 122.530909 -265.215396 
L 124.154182 -265.215396 
L 125.777455 -265.215396 
L 127.400727 -265.215396 
L 129.024 -265.215396 
L 130.647273 -265.215396 
L 132.270545 -265.215396 
L 133.893818 -265.215396 
L 135.517091 -265.215396 
L 137.140364 -265.215396 
L 138.763636 -265.215396 
L 140.386909 -265.215396 
L 142.010182 -265.215396 
L 143.633455 -265.215396 
L 145.256727 -265.215395 
L 146.88 -265.215394 
L 148.503273 -265.215391 
L 150.126545 -265.215386 
L 151.749818 -265.215374 
L 153.373091 -265.215351 
L 154.996364 -265.215305 
L 156.619636 -265.215214 
L 158.242909 -265.215038 
L 159.866182 -265.214705 
L 161.489455 -265.214084 
L 163.112727 -265.212946 
L 164.736 -265.210898 
L 166.359273 -265.207275 
L 167.982545 -265.200983 
L 169.605818 -265.19025 
L 171.229091 -265.172274 
L 172.852364 -265.142718 
L 174.475636 -265.095022 
L 176.098909 -265.019486 
L 177.722182 -264.902104 
L 179.345455 -264.72315 
L 180.968727 -264.455528 
L 182.592 -264.062998 
L 184.215273 -263.498401 
L 185.838545 -262.702133 
L 187.461818 -261.601146 
L 189.085091 -260.108853 
L 190.708364 -258.126292 
L 192.331636 -255.544897 
L 193.954909 -252.251112 
L 195.578182 -248.132876 
L 197.201455 -243.0878 
L 198.824727 -237.032511 
L 200.448 -229.912397 
L 202.071273 -221.710716 
L 203.694545 -212.455922 
L 205.317818 -202.226106 
L 206.941091 -191.149649 
L 208.564364 -179.401579 
L 210.187636 -167.195618 
L 211.810909 -154.772493 
L 213.434182 -142.38554 
L 215.057455 -130.285082 
L 216.680727 -118.703157 
L 218.304 -107.840179 
L 219.927273 -97.854794 
L 221.550545 -88.857757 
L 223.173818 -80.910113 
L 224.797091 -74.025431 
L 226.420364 -68.175396 
L 228.043636 -63.297768 
L 229.666909 -59.30558 
L 231.290182 -56.096515 
L 232.913455 -53.561565 
L 234.536727 -51.592321 
L 236.16 -50.086556 
L 237.783273 -48.952013 
L 239.406545 -48.108511 
L 241.029818 -47.488659 
L 242.653091 -47.037489 
L 244.276364 -46.711378 
L 245.899636 -46.476562 
L 247.522909 -46.307497 
L 249.146182 -46.185246 
L 250.769455 -46.096021 
L 252.392727 -46.029924 
L 254.016 -45.97991 
L 255.639273 -45.940964 
L 257.262545 -45.909452 
L 258.885818 -45.882619 
L 260.509091 -45.858198 
L 262.132364 -45.834125 
L 263.755636 -45.80839 
L 265.378909 -45.779165 
L 267.002182 -45.745364 
L 268.625455 -45.707578 
L 270.248727 -45.668618 
L 271.872 -45.632642 
L 273.495273 -45.603139 
L 275.118545 -45.581485 
L 276.741818 -45.56705 
L 278.365091 -45.55817 
L 279.988364 -45.553061 
L 281.611636 -45.550279 
L 283.234909 -45.548833 
L 284.858182 -45.548112 
L 286.481455 -45.547764 
L 288.104727 -45.547602 
L 289.728 -45.547528 
L 291.351273 -45.547496 
L 292.974545 -45.547482 
L 294.597818 -45.547476 
L 296.221091 -45.547473 
L 297.844364 -45.547472 
L 299.467636 -45.547472 
L 301.090909 -45.547472 
L 302.714182 -45.547472 
L 304.337455 -45.547472 
L 305.960727 -45.547472 
L 307.584 -45.547472 
L 309.207273 -45.547472 
L 310.830545 -45.547472 
L 312.453818 -45.547472 
L 314.077091 -45.547472 
L 315.700364 -45.547472 
L 317.323636 -45.547472 
L 318.946909 -45.547472 
L 320.570182 -45.547472 
L 322.193455 -45.547472 
L 323.816727 -45.547472 
L 325.44 -45.547472 
L 327.063273 -45.547472 
L 328.686545 -45.547472 
L 330.309818 -45.547472 
L 331.933091 -45.547472 
L 333.556364 -45.547472 
L 335.179636 -45.547472 
L 336.802909 -45.547472 
L 338.426182 -45.547472 
L 340.049455 -45.547472 
L 341.672727 -45.547472 
L 343.296 -45.547472 
L 344.919273 -45.547472 
L 346.542545 -45.547472 
L 348.165818 -45.547472 
L 349.789091 -45.547472 
L 351.412364 -45.547472 
L 353.035636 -45.547472 
L 354.658909 -45.547472 
L 356.282182 -45.547472 
L 357.905455 -45.547472 
L 359.528727 -45.547472 
L 361.152 -45.547472 
L 362.775273 -45.547472 
L 364.398545 -45.547472 
L 366.021818 -45.547472 
L 367.645091 -45.547472 
L 369.268364 -45.547472 
L 370.891636 -45.547472 
L 372.514909 -45.547472 
L 374.138182 -45.547472 
L 375.761455 -45.547472 
L 377.384727 -45.547472 
L 379.008 -45.547472 
L 380.631273 -45.547472 
L 382.254545 -45.547472 
L 383.877818 -45.547472 
L 385.501091 -45.547472 
L 387.124364 -45.547472 
L 388.747636 -45.547472 
L 390.370909 -45.547472 
L 391.994182 -45.547472 
L 393.617455 -45.547472 
L 395.240727 -45.547472 
L 396.864 -45.547472 
L 398.487273 -45.547472 
L 398.487273 -45.547472 
L 398.487273 -45.547472 
L 396.864 -45.547472 
L 395.240727 -45.547472 
L 393.617455 -45.547472 
L 391.994182 -45.547472 
L 390.370909 -45.547472 
L 388.747636 -45.547472 
L 387.124364 -45.547472 
L 385.501091 -45.547472 
L 383.877818 -45.547472 
L 382.254545 -45.547472 
L 380.631273 -45.547472 
L 379.008 -45.547472 
L 377.384727 -45.547472 
L 375.761455 -45.547472 
L 374.138182 -45.547472 
L 372.514909 -45.547472 
L 370.891636 -45.547472 
L 369.268364 -45.547472 
L 367.645091 -45.547472 
L 366.021818 -45.547472 
L 364.398545 -45.547472 
L 362.775273 -45.547472 
L 361.152 -45.547472 
L 359.528727 -45.547472 
L 357.905455 -45.547472 
L 356.282182 -45.547472 
L 354.658909 -45.547472 
L 353.035636 -45.547472 
L 351.412364 -45.547472 
L 349.789091 -45.547472 
L 348.165818 -45.547472 
L 346.542545 -45.547472 
L 344.919273 -45.547472 
L 343.296 -45.547472 
L 341.672727 -45.547472 
L 340.049455 -45.547472 
L 338.426182 -45.547472 
L 336.802909 -45.547472 
L 335.179636 -45.547472 
L 333.556364 -45.547472 
L 331.933091 -45.547472 
L 330.309818 -45.547472 
L 328.686545 -45.547472 
L 327.063273 -45.547472 
L 325.44 -45.547472 
L 323.816727 -45.547472 
L 322.193455 -45.547472 
L 320.570182 -45.547472 
L 318.946909 -45.547472 
L 317.323636 -45.547472 
L 315.700364 -45.547472 
L 314.077091 -45.547472 
L 312.453818 -45.547472 
L 310.830545 -45.547472 
L 309.207273 -45.547472 
L 307.584 -45.547472 
L 305.960727 -45.547472 
L 304.337455 -45.547472 
L 302.714182 -45.547472 
L 301.090909 -45.547472 
L 299.467636 -45.547472 
L 297.844364 -45.547472 
L 296.221091 -45.547472 
L 294.597818 -45.547472 
L 292.974545 -45.547472 
L 291.351273 -45.547472 
L 289.728 -45.547472 
L 288.104727 -45.547472 
L 286.481455 -45.547472 
L 284.858182 -45.547472 
L 283.234909 -45.547472 
L 281.611636 -45.547472 
L 279.988364 -45.547472 
L 278.365091 -45.547472 
L 276.741818 -45.547472 
L 275.118545 -45.547472 
L 273.495273 -45.547472 
L 271.872 -45.547472 
L 270.248727 -45.547472 
L 268.625455 -45.547472 
L 267.002182 -45.547472 
L 265.378909 -45.547472 
L 263.755636 -45.547472 
L 262.132364 -45.547472 
L 260.509091 -45.547472 
L 258.885818 -45.547472 
L 257.262545 -45.547472 
L 255.639273 -45.547472 
L 254.016 -45.547472 
L 252.392727 -45.547472 
L 250.769455 -45.547472 
L 249.146182 -45.547472 
L 247.522909 -45.547472 
L 245.899636 -45.547472 
L 244.276364 -45.547472 
L 242.653091 -45.547472 
L 241.029818 -45.547472 
L 239.406545 -45.547472 
L 237.783273 -45.547472 
L 236.16 -45.547472 
L 234.536727 -45.547472 
L 232.913455 -45.547472 
L 231.290182 -45.547472 
L 229.666909 -45.547472 
L 228.043636 -45.547472 
L 226.420364 -45.547472 
L 224.797091 -45.547472 
L 223.173818 -45.547472 
L 221.550545 -45.547472 
L 219.927273 -45.547472 
L 218.304 -45.547472 
L 216.680727 -45.547472 
L 215.057455 -45.547472 
L 213.434182 -45.547472 
L 211.810909 -45.547472 
L 210.187636 -45.547472 
L 208.564364 -45.547472 
L 206.941091 -45.547472 
L 205.317818 -45.547472 
L 203.694545 -45.547472 
L 202.071273 -45.547472 
L 200.448 -45.547472 
L 198.824727 -45.547472 
L 197.201455 -45.547472 
L 195.578182 -45.547472 
L 193.954909 -45.547472 
L 192.331636 -45.547472 
L 190.708364 -45.547472 
L 189.085091 -45.547472 
L 187.461818 -45.547472 
L 185.838545 -45.547472 
L 184.215273 -45.547472 
L 182.592 -45.547472 
L 180.968727 -45.547472 
L 179.345455 -45.547472 
L 177.722182 -45.547472 
L 176.098909 -45.547472 
L 174.475636 -45.547472 
L 172.852364 -45.547472 
L 171.229091 -45.547472 
L 169.605818 -45.547472 
L 167.982545 -45.547472 
L 166.359273 -45.547472 
L 164.736 -45.547472 
L 163.112727 -45.547472 
L 161.489455 -45.547472 
L 159.866182 -45.547472 
L 158.242909 -45.547472 
L 156.619636 -45.547472 
L 154.996364 -45.547472 
L 153.373091 -45.547472 
L 151.749818 -45.547472 
L 150.126545 -45.547472 
L 148.503273 -45.547472 
L 146.88 -45.547472 
L 145.256727 -45.547472 
L 143.633455 -45.547472 
L 142.010182 -45.547472 
L 140.386909 -45.547472 
L 138.763636 -45.547472 
L 137.140364 -45.547472 
L 135.517091 -45.547472 
L 133.893818 -45.547472 
L 132.270545 -45.547472 
L 130.647273 -45.547472 
L 129.024 -45.547472 
L 127.400727 -45.547472 
L 125.777455 -45.547472 
L 124.154182 -45.547472 
L 122.530909 -45.547472 
L 120.907636 -45.547472 
L 119.284364 -45.547472 
L 117.661091 -45.547472 
L 116.037818 -45.547472 
L 114.414545 -45.547472 
L 112.791273 -45.547472 
L 111.168 -45.547472 
L 109.544727 -45.547472 
L 107.921455 -45.547472 
L 106.298182 -45.547472 
L 104.674909 -45.547472 
L 103.051636 -45.547472 
L 101.428364 -45.547472 
L 99.805091 -45.547472 
L 98.181818 -45.547472 
L 96.558545 -45.547472 
L 94.935273 -45.547472 
L 93.312 -45.547472 
L 91.688727 -45.547472 
L 90.065455 -45.547472 
L 88.442182 -45.547472 
L 86.818909 -45.547472 
L 85.195636 -45.547472 
L 83.572364 -45.547472 
L 81.949091 -45.547472 
L 80.325818 -45.547472 
L 78.702545 -45.547472 
L 77.079273 -45.547472 
L 75.456 -45.547472 
L 73.832727 -45.547472 
z
" id="mde225f9364" style="stroke:#dc143c;"/>
    </defs>
    <g clip-path="url(#pedb83433e8)">
     <use style="fill:#dc143c;stroke:#dc143c;" x="0" xlink:href="#mde225f9364" y="345.6"/>
    </g>
   </g>
   <g id="PolyCollection_2">
    <defs>
     <path d="M 73.832727 -265.215396 
L 73.832727 -265.215396 
L 75.456 -265.215396 
L 77.079273 -265.215396 
L 78.702545 -265.215396 
L 80.325818 -265.215396 
L 81.949091 -265.215396 
L 83.572364 -265.215396 
L 85.195636 -265.215396 
L 86.818909 -265.215396 
L 88.442182 -265.215396 
L 90.065455 -265.215396 
L 91.688727 -265.215396 
L 93.312 -265.215396 
L 94.935273 -265.215396 
L 96.558545 -265.215396 
L 98.181818 -265.215396 
L 99.805091 -265.215396 
L 101.428364 -265.215396 
L 103.051636 -265.215396 
L 104.674909 -265.215396 
L 106.298182 -265.215396 
L 107.921455 -265.215396 
L 109.544727 -265.215396 
L 111.168 -265.215396 
L 112.791273 -265.215396 
L 114.414545 -265.215396 
L 116.037818 -265.215396 
L 117.661091 -265.215396 
L 119.284364 -265.215396 
L 120.907636 -265.215396 
L 122.530909 -265.215396 
L 124.154182 -265.215396 
L 125.777455 -265.215396 
L 127.400727 -265.215396 
L 129.024 -265.215396 
L 130.647273 -265.215396 
L 132.270545 -265.215396 
L 133.893818 -265.215396 
L 135.517091 -265.215396 
L 137.140364 -265.215396 
L 138.763636 -265.215396 
L 140.386909 -265.215396 
L 142.010182 -265.215396 
L 143.633455 -265.215396 
L 145.256727 -265.215395 
L 146.88 -265.215394 
L 148.503273 -265.215391 
L 150.126545 -265.215386 
L 151.749818 -265.215374 
L 153.373091 -265.215351 
L 154.996364 -265.215305 
L 156.619636 -265.215214 
L 158.242909 -265.215038 
L 159.866182 -265.214705 
L 161.489455 -265.214084 
L 163.112727 -265.212946 
L 164.736 -265.210898 
L 166.359273 -265.207275 
L 167.982545 -265.200983 
L 169.605818 -265.19025 
L 171.229091 -265.172274 
L 172.852364 -265.142718 
L 174.475636 -265.095022 
L 176.098909 -265.019486 
L 177.722182 -264.902104 
L 179.345455 -264.72315 
L 180.968727 -264.455528 
L 182.592 -264.062998 
L 184.215273 -263.498401 
L 185.838545 -262.702133 
L 187.461818 -261.601146 
L 189.085091 -260.108853 
L 190.708364 -258.126292 
L 192.331636 -255.544897 
L 193.954909 -252.251112 
L 195.578182 -248.132876 
L 197.201455 -243.0878 
L 198.824727 -237.032511 
L 200.448 -229.912397 
L 202.071273 -221.710716 
L 203.694545 -212.455922 
L 205.317818 -202.226106 
L 206.941091 -191.149649 
L 208.564364 -179.401579 
L 210.187636 -167.195618 
L 211.810909 -154.772493 
L 213.434182 -142.38554 
L 215.057455 -130.285082 
L 216.680727 -118.703157 
L 218.304 -107.840179 
L 219.927273 -97.854794 
L 221.550545 -88.857757 
L 223.173818 -80.910113 
L 224.797091 -74.025431 
L 226.420364 -68.175396 
L 228.043636 -63.297768 
L 229.666909 -59.30558 
L 231.290182 -56.096515 
L 232.913455 -53.561565 
L 234.536727 -51.592321 
L 236.16 -50.086556 
L 237.783273 -48.952013 
L 239.406545 -48.108511 
L 241.029818 -47.488659 
L 242.653091 -47.037489 
L 244.276364 -46.711378 
L 245.899636 -46.476562 
L 247.522909 -46.307497 
L 249.146182 -46.185246 
L 250.769455 -46.096021 
L 252.392727 -46.029924 
L 254.016 -45.97991 
L 255.639273 -45.940964 
L 257.262545 -45.909452 
L 258.885818 -45.882619 
L 260.509091 -45.858198 
L 262.132364 -45.834125 
L 263.755636 -45.80839 
L 265.378909 -45.779165 
L 267.002182 -45.745364 
L 268.625455 -45.707578 
L 270.248727 -45.668618 
L 271.872 -45.632642 
L 273.495273 -45.603139 
L 275.118545 -45.581485 
L 276.741818 -45.56705 
L 278.365091 -45.55817 
L 279.988364 -45.553061 
L 281.611636 -45.550279 
L 283.234909 -45.548833 
L 284.858182 -45.548112 
L 286.481455 -45.547764 
L 288.104727 -45.547602 
L 289.728 -45.547528 
L 291.351273 -45.547496 
L 292.974545 -45.547482 
L 294.597818 -45.547476 
L 296.221091 -45.547473 
L 297.844364 -45.547472 
L 299.467636 -45.547472 
L 301.090909 -45.547472 
L 302.714182 -45.547472 
L 304.337455 -45.547472 
L 305.960727 -45.547472 
L 307.584 -45.547472 
L 309.207273 -45.547472 
L 310.830545 -45.547472 
L 312.453818 -45.547472 
L 314.077091 -45.547472 
L 315.700364 -45.547472 
L 317.323636 -45.547472 
L 318.946909 -45.547472 
L 320.570182 -45.547472 
L 322.193455 -45.547472 
L 323.816727 -45.547472 
L 325.44 -45.547472 
L 327.063273 -45.547472 
L 328.686545 -45.547472 
L 330.309818 -45.547472 
L 331.933091 -45.547472 
L 333.556364 -45.547472 
L 335.179636 -45.547472 
L 336.802909 -45.547472 
L 338.426182 -45.547472 
L 340.049455 -45.547472 
L 341.672727 -45.547472 
L 343.296 -45.547472 
L 344.919273 -45.547472 
L 346.542545 -45.547472 
L 348.165818 -45.547472 
L 349.789091 -45.547472 
L 351.412364 -45.547472 
L 353.035636 -45.547472 
L 354.658909 -45.547472 
L 356.282182 -45.547472 
L 357.905455 -45.547472 
L 359.528727 -45.547472 
L 361.152 -45.547472 
L 362.775273 -45.547472 
L 364.398545 -45.547472 
L 366.021818 -45.547472 
L 367.645091 -45.547472 
L 369.268364 -45.547472 
L 370.891636 -45.547472 
L 372.514909 -45.547472 
L 374.138182 -45.547472 
L 375.761455 -45.547472 
L 377.384727 -45.547472 
L 379.008 -45.547472 
L 380.631273 -45.547472 
L 382.254545 -45.547472 
L 383.877818 -45.547472 
L 385.501091 -45.547472 
L 387.124364 -45.547472 
L 388.747636 -45.547472 
L 390.370909 -45.547472 
L 391.994182 -45.547472 
L 393.617455 -45.547472 
L 395.240727 -45.547472 
L 396.864 -45.547472 
L 398.487273 -45.547472 
L 398.487273 -45.547472 
L 398.487273 -45.547472 
L 396.864 -45.547472 
L 395.240727 -45.547472 
L 393.617455 -45.547472 
L 391.994182 -45.547472 
L 390.370909 -45.547472 
L 388.747636 -45.547472 
L 387.124364 -45.547472 
L 385.501091 -45.547472 
L 383.877818 -45.547472 
L 382.254545 -45.547472 
L 380.631273 -45.547472 
L 379.008 -45.547472 
L 377.384727 -45.547472 
L 375.761455 -45.547472 
L 374.138182 -45.547472 
L 372.514909 -45.547472 
L 370.891636 -45.547472 
L 369.268364 -45.547472 
L 367.645091 -45.547472 
L 366.021818 -45.547472 
L 364.398545 -45.547472 
L 362.775273 -45.547472 
L 361.152 -45.547472 
L 359.528727 -45.547472 
L 357.905455 -45.547472 
L 356.282182 -45.547472 
L 354.658909 -45.547472 
L 353.035636 -45.547472 
L 351.412364 -45.547472 
L 349.789091 -45.547472 
L 348.165818 -45.547472 
L 346.542545 -45.547472 
L 344.919273 -45.547472 
L 343.296 -45.547472 
L 341.672727 -45.547472 
L 340.049455 -45.547472 
L 338.426182 -45.547472 
L 336.802909 -45.547472 
L 335.179636 -45.547472 
L 333.556364 -45.547472 
L 331.933091 -45.547472 
L 330.309818 -45.547472 
L 328.686545 -45.547472 
L 327.063273 -45.547472 
L 325.44 -45.547472 
L 323.816727 -45.547472 
L 322.193455 -45.547472 
L 320.570182 -45.547472 
L 318.946909 -45.547472 
L 317.323636 -45.547472 
L 315.700364 -45.547472 
L 314.077091 -45.547472 
L 312.453818 -45.547472 
L 310.830545 -45.547473 
L 309.207273 -45.547474 
L 307.584 -45.547478 
L 305.960727 -45.547489 
L 304.337455 -45.547515 
L 302.714182 -45.54758 
L 301.090909 -45.54774 
L 299.467636 -45.548124 
L 297.844364 -45.549033 
L 296.221091 -45.551148 
L 294.597818 -45.55598 
L 292.974545 -45.566824 
L 291.351273 -45.590695 
L 289.728 -45.642187 
L 288.104727 -45.750874 
L 286.481455 -45.974977 
L 284.858182 -46.425346 
L 283.234909 -47.304908 
L 281.611636 -48.967789 
L 279.988364 -51.995559 
L 278.365091 -57.268927 
L 276.741818 -65.975099 
L 275.118545 -79.439528 
L 273.495273 -98.653069 
L 271.872 -123.499436 
L 270.248727 -152.079535 
L 268.625455 -180.916507 
L 267.002182 -206.382512 
L 265.378909 -226.328564 
L 263.755636 -240.530073 
L 262.132364 -249.974151 
L 260.509091 -255.975269 
L 258.885818 -259.67925 
L 257.262545 -261.923867 
L 255.639273 -263.268409 
L 254.016 -264.067787 
L 252.392727 -264.54068 
L 250.769455 -264.819466 
L 249.146182 -264.98341 
L 247.522909 -265.079636 
L 245.899636 -265.136032 
L 244.276364 -265.169042 
L 242.653091 -265.188345 
L 241.029818 -265.199621 
L 239.406545 -265.206203 
L 237.783273 -265.210042 
L 236.16 -265.21228 
L 234.536727 -265.213584 
L 232.913455 -265.214343 
L 231.290182 -265.214784 
L 229.666909 -265.215041 
L 228.043636 -265.21519 
L 226.420364 -265.215277 
L 224.797091 -265.215327 
L 223.173818 -265.215356 
L 221.550545 -265.215373 
L 219.927273 -265.215383 
L 218.304 -265.215388 
L 216.680727 -265.215392 
L 215.057455 -265.215394 
L 213.434182 -265.215395 
L 211.810909 -265.215395 
L 210.187636 -265.215396 
L 208.564364 -265.215396 
L 206.941091 -265.215396 
L 205.317818 -265.215396 
L 203.694545 -265.215396 
L 202.071273 -265.215396 
L 200.448 -265.215396 
L 198.824727 -265.215396 
L 197.201455 -265.215396 
L 195.578182 -265.215396 
L 193.954909 -265.215396 
L 192.331636 -265.215396 
L 190.708364 -265.215396 
L 189.085091 -265.215396 
L 187.461818 -265.215396 
L 185.838545 -265.215396 
L 184.215273 -265.215396 
L 182.592 -265.215396 
L 180.968727 -265.215396 
L 179.345455 -265.215396 
L 177.722182 -265.215396 
L 176.098909 -265.215396 
L 174.475636 -265.215396 
L 172.852364 -265.215396 
L 171.229091 -265.215396 
L 169.605818 -265.215396 
L 167.982545 -265.215396 
L 166.359273 -265.215396 
L 164.736 -265.215396 
L 163.112727 -265.215396 
L 161.489455 -265.215396 
L 159.866182 -265.215396 
L 158.242909 -265.215396 
L 156.619636 -265.215396 
L 154.996364 -265.215396 
L 153.373091 -265.215396 
L 151.749818 -265.215396 
L 150.126545 -265.215396 
L 148.503273 -265.215396 
L 146.88 -265.215396 
L 145.256727 -265.215396 
L 143.633455 -265.215396 
L 142.010182 -265.215396 
L 140.386909 -265.215396 
L 138.763636 -265.215396 
L 137.140364 -265.215396 
L 135.517091 -265.215396 
L 133.893818 -265.215396 
L 132.270545 -265.215396 
L 130.647273 -265.215396 
L 129.024 -265.215396 
L 127.400727 -265.215396 
L 125.777455 -265.215396 
L 124.154182 -265.215396 
L 122.530909 -265.215396 
L 120.907636 -265.215396 
L 119.284364 -265.215396 
L 117.661091 -265.215396 
L 116.037818 -265.215396 
L 114.414545 -265.215396 
L 112.791273 -265.215396 
L 111.168 -265.215396 
L 109.544727 -265.215396 
L 107.921455 -265.215396 
L 106.298182 -265.215396 
L 104.674909 -265.215396 
L 103.051636 -265.215396 
L 101.428364 -265.215396 
L 99.805091 -265.215396 
L 98.181818 -265.215396 
L 96.558545 -265.215396 
L 94.935273 -265.215396 
L 93.312 -265.215396 
L 91.688727 -265.215396 
L 90.065455 -265.215396 
L 88.442182 -265.215396 
L 86.818909 -265.215396 
L 85.195636 -265.215396 
L 83.572364 -265.215396 
L 81.949091 -265.215396 
L 80.325818 -265.215396 
L 78.702545 -265.215396 
L 77.079273 -265.215396 
L 75.456 -265.215396 
L 73.832727 -265.215396 
z
" id="m3e312ae368" style="stroke:#ffa500;"/>
    </defs>
    <g clip-path="url(#pedb83433e8)">
     <use style="fill:#ffa500;stroke:#ffa500;" x="0" xlink:href="#m3e312ae368" y="345.6"/>
    </g>
   </g>
   <g id="matplotlib.axis_1">
    <g id="xtick_1">
     <g id="line2d_1">
      <path clip-path="url(#pedb83433e8)" d="M 73.832727 307.584 
L 73.832727 41.472 
" style="fill:none;stroke:#b0b0b0;stroke-linecap:square;stroke-width:0.8;"/>
     </g>
    </g>
    <g id="xtick_2">
     <g id="line2d_2">
      <path clip-path="url(#pedb83433e8)" d="M 114.414545 307.584 
L 114.414545 41.472 
" style="fill:none;stroke:#b0b0b0;stroke-linecap:square;stroke-width:0.8;"/>
     </g>
    </g>
    <g id="xtick_3">
     <g id="line2d_3">
      <path clip-path="url(#pedb83433e8)" d="M 154.996364 307.584 
L 154.996364 41.472 
" style="fill:none;stroke:#b0b0b0;stroke-linecap:square;stroke-width:0.8;"/>
     </g>
    </g>
    <g id="xtick_4">
     <g id="line2d_4">
      <path clip-path="url(#pedb83433e8)" d="M 195.578182 307.584 
L 195.578182 41.472 
" style="fill:none;stroke:#b0b0b0;stroke-linecap:square;stroke-width:0.8;"/>
     </g>
    </g>
    <g id="xtick_5">
     <g id="line2d_5">
      <path clip-path="url(#pedb83433e8)" d="M 236.16 307.584 
L 236.16 41.472 
" style="fill:none;stroke:#b0b0b0;stroke-linecap:square;stroke-width:0.8;"/>
     </g>
    </g>
    <g id="xtick_6">
     <g id="line2d_6">
      <path clip-path="url(#pedb83433e8)" d="M 276.741818 307.584 
L 276.741818 41.472 
" style="fill:none;stroke:#b0b0b0;stroke-linecap:square;stroke-width:0.8;"/>
     </g>
    </g>
    <g id="xtick_7">
     <g id="line2d_7">
      <path clip-path="url(#pedb83433e8)" d="M 317.323636 307.584 
L 317.323636 41.472 
" style="fill:none;stroke:#b0b0b0;stroke-linecap:square;stroke-width:0.8;"/>
     </g>
    </g>
    <g id="xtick_8">
     <g id="line2d_8">
      <path clip-path="url(#pedb83433e8)" d="M 357.905455 307.584 
L 357.905455 41.472 
" style="fill:none;stroke:#b0b0b0;stroke-linecap:square;stroke-width:0.8;"/>
     </g>
    </g>
    <g id="xtick_9">
     <g id="line2d_9">
      <path clip-path="url(#pedb83433e8)" d="M 398.487273 307.584 
L 398.487273 41.472 
" style="fill:none;stroke:#b0b0b0;stroke-linecap:square;stroke-width:0.8;"/>
     </g>
    </g>
    <g id="text_1">
     <!-- Space -->
     <g transform="translate(210.037109 324.501344)scale(0.17 -0.17)">
      <defs>
       <path d="M 9.28125 3.515625 
L 9.28125 20.125 
L 14.890625 20.0625 
Q 15.140625 11.765625 19.703125 7.78125 
Q 24.265625 3.8125 33.59375 3.8125 
Q 42.28125 3.8125 46.84375 7.25 
Q 51.421875 10.6875 51.421875 17.28125 
Q 51.421875 22.5625 48.65625 25.390625 
Q 45.90625 28.21875 37.015625 30.90625 
L 27.390625 33.796875 
Q 16.9375 36.96875 12.671875 41.703125 
Q 8.40625 46.4375 8.40625 54.6875 
Q 8.40625 63.96875 14.984375 69.09375 
Q 21.578125 74.21875 33.5 74.21875 
Q 38.578125 74.21875 44.625 73.109375 
Q 50.6875 72.015625 57.515625 69.921875 
L 57.515625 54.390625 
L 52 54.390625 
Q 51.171875 62.109375 46.84375 65.546875 
Q 42.53125 69 33.6875 69 
Q 25.984375 69 21.953125 65.84375 
Q 17.921875 62.703125 17.921875 56.6875 
Q 17.921875 51.46875 20.9375 48.484375 
Q 23.96875 45.515625 33.796875 42.578125 
L 42.828125 39.890625 
Q 52.734375 36.921875 56.953125 32.296875 
Q 61.1875 27.6875 61.1875 19.921875 
Q 61.1875 9.328125 54.390625 3.953125 
Q 47.609375 -1.421875 34.1875 -1.421875 
Q 28.171875 -1.421875 21.9375 -0.1875 
Q 15.71875 1.03125 9.28125 3.515625 
z
" id="DejaVuSerif-83"/>
       <path d="M 20.515625 28.515625 
L 20.515625 23.390625 
Q 20.515625 14.015625 24.09375 9.109375 
Q 27.6875 4.203125 34.515625 4.203125 
Q 41.40625 4.203125 44.9375 9.71875 
Q 48.484375 15.234375 48.484375 25.984375 
Q 48.484375 36.765625 44.9375 42.234375 
Q 41.40625 47.703125 34.515625 47.703125 
Q 27.6875 47.703125 24.09375 42.765625 
Q 20.515625 37.84375 20.515625 28.515625 
z
M 11.53125 46.6875 
L 2.875 46.6875 
L 2.875 51.90625 
L 20.515625 51.90625 
L 20.515625 43.796875 
Q 23.140625 48.6875 27.21875 51 
Q 31.296875 53.328125 37.3125 53.328125 
Q 46.875 53.328125 52.921875 45.75 
Q 58.984375 38.1875 58.984375 25.984375 
Q 58.984375 13.765625 52.921875 6.171875 
Q 46.875 -1.421875 37.3125 -1.421875 
Q 31.296875 -1.421875 27.21875 0.890625 
Q 23.140625 3.21875 20.515625 8.109375 
L 20.515625 -15.578125 
L 29 -15.578125 
L 29 -20.796875 
L 2.875 -20.796875 
L 2.875 -15.578125 
L 11.53125 -15.578125 
z
" id="DejaVuSerif-112"/>
       <path d="M 39.796875 16.3125 
L 39.796875 27.296875 
L 28.21875 27.296875 
Q 21.53125 27.296875 18.25 24.40625 
Q 14.984375 21.53125 14.984375 15.578125 
Q 14.984375 10.15625 18.296875 6.984375 
Q 21.625 3.8125 27.296875 3.8125 
Q 32.90625 3.8125 36.34375 7.28125 
Q 39.796875 10.75 39.796875 16.3125 
z
M 48.78125 32.421875 
L 48.78125 5.171875 
L 56.78125 5.171875 
L 56.78125 0 
L 39.796875 0 
L 39.796875 5.609375 
Q 36.8125 2 32.90625 0.28125 
Q 29 -1.421875 23.78125 -1.421875 
Q 15.140625 -1.421875 10.0625 3.171875 
Q 4.984375 7.765625 4.984375 15.578125 
Q 4.984375 23.640625 10.796875 28.078125 
Q 16.609375 32.515625 27.203125 32.515625 
L 39.796875 32.515625 
L 39.796875 36.078125 
Q 39.796875 42 36.203125 45.234375 
Q 32.625 48.484375 26.125 48.484375 
Q 20.75 48.484375 17.578125 46.046875 
Q 14.40625 43.609375 13.625 38.8125 
L 8.984375 38.8125 
L 8.984375 49.3125 
Q 13.671875 51.3125 18.09375 52.3125 
Q 22.515625 53.328125 26.703125 53.328125 
Q 37.5 53.328125 43.140625 47.96875 
Q 48.78125 42.625 48.78125 32.421875 
z
" id="DejaVuSerif-97"/>
       <path d="M 51.421875 15.578125 
Q 49.515625 7.28125 44.09375 2.921875 
Q 38.671875 -1.421875 30.078125 -1.421875 
Q 18.75 -1.421875 11.859375 6.078125 
Q 4.984375 13.578125 4.984375 25.984375 
Q 4.984375 38.421875 11.859375 45.875 
Q 18.75 53.328125 30.078125 53.328125 
Q 35.015625 53.328125 39.890625 52.171875 
Q 44.78125 51.03125 49.703125 48.6875 
L 49.703125 35.40625 
L 44.484375 35.40625 
Q 43.453125 42.234375 40.015625 45.359375 
Q 36.578125 48.484375 30.171875 48.484375 
Q 22.90625 48.484375 19.1875 42.84375 
Q 15.484375 37.203125 15.484375 25.984375 
Q 15.484375 14.75 19.171875 9.078125 
Q 22.859375 3.421875 30.171875 3.421875 
Q 35.984375 3.421875 39.453125 6.4375 
Q 42.921875 9.46875 44.1875 15.578125 
z
" id="DejaVuSerif-99"/>
       <path d="M 54.203125 25 
L 15.484375 25 
L 15.484375 24.609375 
Q 15.484375 14.109375 19.4375 8.765625 
Q 23.390625 3.421875 31.109375 3.421875 
Q 37.015625 3.421875 40.796875 6.515625 
Q 44.578125 9.625 46.09375 15.71875 
L 53.328125 15.71875 
Q 51.171875 7.171875 45.375 2.875 
Q 39.59375 -1.421875 30.171875 -1.421875 
Q 18.796875 -1.421875 11.890625 6.078125 
Q 4.984375 13.578125 4.984375 25.984375 
Q 4.984375 38.28125 11.765625 45.796875 
Q 18.5625 53.328125 29.59375 53.328125 
Q 41.359375 53.328125 47.65625 46.0625 
Q 53.953125 38.8125 54.203125 25 
z
M 43.609375 30.171875 
Q 43.3125 39.265625 39.765625 43.875 
Q 36.234375 48.484375 29.59375 48.484375 
Q 23.390625 48.484375 19.828125 43.84375 
Q 16.265625 39.203125 15.484375 30.171875 
z
" id="DejaVuSerif-101"/>
      </defs>
      <use xlink:href="#DejaVuSerif-83"/>
      <use x="68.505859" xlink:href="#DejaVuSerif-112"/>
      <use x="132.519531" xlink:href="#DejaVuSerif-97"/>
      <use x="192.138672" xlink:href="#DejaVuSerif-99"/>
      <use x="248.144531" xlink:href="#DejaVuSerif-101"/>
     </g>
    </g>
   </g>
   <g id="matplotlib.axis_2">
    <g id="ytick_1">
     <g id="line2d_10">
      <path clip-path="url(#pedb83433e8)" d="M 57.6 300.052528 
L 414.72 300.052528 
" style="fill:none;stroke:#b0b0b0;stroke-linecap:square;stroke-width:0.8;"/>
     </g>
     <g id="line2d_11">
      <defs>
       <path d="M 0 0 
L -3.5 0 
" id="mda84fa9b94" style="stroke:#000000;stroke-width:0.8;"/>
      </defs>
      <g>
       <use style="stroke:#000000;stroke-width:0.8;" x="57.6" xlink:href="#mda84fa9b94" y="300.052528"/>
      </g>
     </g>
     <g id="text_2">
      <!-- 0 -->
      <g transform="translate(37.875 307.650966)scale(0.2 -0.2)">
       <defs>
        <path d="M 31.78125 3.421875 
Q 39.265625 3.421875 42.96875 11.625 
Q 46.6875 19.828125 46.6875 36.375 
Q 46.6875 52.984375 42.96875 61.1875 
Q 39.265625 69.390625 31.78125 69.390625 
Q 24.3125 69.390625 20.59375 61.1875 
Q 16.890625 52.984375 16.890625 36.375 
Q 16.890625 19.828125 20.59375 11.625 
Q 24.3125 3.421875 31.78125 3.421875 
z
M 31.78125 -1.421875 
Q 19.921875 -1.421875 13.25 8.53125 
Q 6.59375 18.5 6.59375 36.375 
Q 6.59375 54.296875 13.25 64.25 
Q 19.921875 74.21875 31.78125 74.21875 
Q 43.703125 74.21875 50.34375 64.25 
Q 56.984375 54.296875 56.984375 36.375 
Q 56.984375 18.5 50.34375 8.53125 
Q 43.703125 -1.421875 31.78125 -1.421875 
z
" id="DejaVuSerif-48"/>
       </defs>
       <use xlink:href="#DejaVuSerif-48"/>
      </g>
     </g>
    </g>
    <g id="ytick_2">
     <g id="line2d_12">
      <path clip-path="url(#pedb83433e8)" d="M 57.6 49.003472 
L 414.72 49.003472 
" style="fill:none;stroke:#b0b0b0;stroke-linecap:square;stroke-width:0.8;"/>
     </g>
     <g id="line2d_13">
      <g>
       <use style="stroke:#000000;stroke-width:0.8;" x="57.6" xlink:href="#mda84fa9b94" y="49.003472"/>
      </g>
     </g>
     <g id="text_3">
      <!-- 1 -->
      <g transform="translate(37.875 56.601909)scale(0.2 -0.2)">
       <defs>
        <path d="M 14.203125 0 
L 14.203125 5.171875 
L 26.90625 5.171875 
L 26.90625 65.828125 
L 12.203125 56.296875 
L 12.203125 62.703125 
L 29.984375 74.21875 
L 36.71875 74.21875 
L 36.71875 5.171875 
L 49.421875 5.171875 
L 49.421875 0 
z
" id="DejaVuSerif-49"/>
       </defs>
       <use xlink:href="#DejaVuSerif-49"/>
      </g>
     </g>
    </g>
    <g id="text_4">
     <!-- population densities -->
     <g transform="translate(30.339531 261.771203)rotate(-90)scale(0.17 -0.17)">
      <defs>
       <path d="M 30.078125 3.421875 
Q 37.3125 3.421875 40.984375 9.125 
Q 44.671875 14.84375 44.671875 25.984375 
Q 44.671875 37.109375 40.984375 42.796875 
Q 37.3125 48.484375 30.078125 48.484375 
Q 22.859375 48.484375 19.171875 42.796875 
Q 15.484375 37.109375 15.484375 25.984375 
Q 15.484375 14.84375 19.1875 9.125 
Q 22.90625 3.421875 30.078125 3.421875 
z
M 30.078125 -1.421875 
Q 18.75 -1.421875 11.859375 6.078125 
Q 4.984375 13.578125 4.984375 25.984375 
Q 4.984375 38.375 11.84375 45.84375 
Q 18.703125 53.328125 30.078125 53.328125 
Q 41.453125 53.328125 48.3125 45.84375 
Q 55.171875 38.375 55.171875 25.984375 
Q 55.171875 13.578125 48.3125 6.078125 
Q 41.453125 -1.421875 30.078125 -1.421875 
z
" id="DejaVuSerif-111"/>
       <path d="M 35.40625 51.90625 
L 52.203125 51.90625 
L 52.203125 5.171875 
L 60.6875 5.171875 
L 60.6875 0 
L 43.21875 0 
L 43.21875 9.1875 
Q 40.71875 4 36.765625 1.28125 
Q 32.8125 -1.421875 27.59375 -1.421875 
Q 18.953125 -1.421875 14.875 3.484375 
Q 10.796875 8.40625 10.796875 18.890625 
L 10.796875 46.6875 
L 2.6875 46.6875 
L 2.6875 51.90625 
L 19.828125 51.90625 
L 19.828125 21.6875 
Q 19.828125 12.203125 22.140625 8.6875 
Q 24.46875 5.171875 30.421875 5.171875 
Q 36.671875 5.171875 39.9375 9.765625 
Q 43.21875 14.359375 43.21875 23.09375 
L 43.21875 46.6875 
L 35.40625 46.6875 
z
" id="DejaVuSerif-117"/>
       <path d="M 20.515625 5.171875 
L 29 5.171875 
L 29 0 
L 2.875 0 
L 2.875 5.171875 
L 11.53125 5.171875 
L 11.53125 70.796875 
L 2.875 70.796875 
L 2.875 75.984375 
L 20.515625 75.984375 
z
" id="DejaVuSerif-108"/>
       <path d="M 10.796875 46.6875 
L 2.875 46.6875 
L 2.875 51.90625 
L 10.796875 51.90625 
L 10.796875 68.015625 
L 19.828125 68.015625 
L 19.828125 51.90625 
L 36.71875 51.90625 
L 36.71875 46.6875 
L 19.828125 46.6875 
L 19.828125 13.71875 
Q 19.828125 7.125 21.09375 5.265625 
Q 22.359375 3.421875 25.78125 3.421875 
Q 29.296875 3.421875 30.90625 5.484375 
Q 32.515625 7.5625 32.625 12.203125 
L 39.40625 12.203125 
Q 39.015625 5.125 35.546875 1.84375 
Q 32.078125 -1.421875 25 -1.421875 
Q 17.234375 -1.421875 14.015625 2.015625 
Q 10.796875 5.46875 10.796875 13.71875 
z
" id="DejaVuSerif-116"/>
       <path d="M 9.71875 68.015625 
Q 9.71875 70.265625 11.34375 71.921875 
Q 12.984375 73.578125 15.28125 73.578125 
Q 17.53125 73.578125 19.15625 71.921875 
Q 20.796875 70.265625 20.796875 68.015625 
Q 20.796875 65.71875 19.1875 64.109375 
Q 17.578125 62.5 15.28125 62.5 
Q 12.984375 62.5 11.34375 64.109375 
Q 9.71875 65.71875 9.71875 68.015625 
z
M 21.1875 5.171875 
L 29.6875 5.171875 
L 29.6875 0 
L 3.609375 0 
L 3.609375 5.171875 
L 12.203125 5.171875 
L 12.203125 46.6875 
L 3.609375 46.6875 
L 3.609375 51.90625 
L 21.1875 51.90625 
z
" id="DejaVuSerif-105"/>
       <path d="M 4.109375 0 
L 4.109375 5.171875 
L 12.203125 5.171875 
L 12.203125 46.6875 
L 3.609375 46.6875 
L 3.609375 51.90625 
L 21.1875 51.90625 
L 21.1875 42.671875 
Q 23.6875 47.953125 27.65625 50.640625 
Q 31.640625 53.328125 36.921875 53.328125 
Q 45.515625 53.328125 49.5625 48.390625 
Q 53.609375 43.453125 53.609375 33.015625 
L 53.609375 5.171875 
L 61.625 5.171875 
L 61.625 0 
L 36.8125 0 
L 36.8125 5.171875 
L 44.578125 5.171875 
L 44.578125 30.171875 
Q 44.578125 39.703125 42.234375 43.234375 
Q 39.890625 46.78125 33.984375 46.78125 
Q 27.734375 46.78125 24.453125 42.203125 
Q 21.1875 37.640625 21.1875 28.90625 
L 21.1875 5.171875 
L 29 5.171875 
L 29 0 
z
" id="DejaVuSerif-110"/>
       <path id="DejaVuSerif-32"/>
       <path d="M 52.484375 5.171875 
L 61.078125 5.171875 
L 61.078125 0 
L 43.5 0 
L 43.5 8.109375 
Q 40.875 3.21875 36.796875 0.890625 
Q 32.71875 -1.421875 26.703125 -1.421875 
Q 17.140625 -1.421875 11.0625 6.171875 
Q 4.984375 13.765625 4.984375 25.984375 
Q 4.984375 38.1875 11.03125 45.75 
Q 17.09375 53.328125 26.703125 53.328125 
Q 32.71875 53.328125 36.796875 51 
Q 40.875 48.6875 43.5 43.796875 
L 43.5 70.796875 
L 35.015625 70.796875 
L 35.015625 75.984375 
L 52.484375 75.984375 
z
M 43.5 23.390625 
L 43.5 28.515625 
Q 43.5 37.84375 39.90625 42.765625 
Q 36.328125 47.703125 29.5 47.703125 
Q 22.5625 47.703125 19.015625 42.234375 
Q 15.484375 36.765625 15.484375 25.984375 
Q 15.484375 15.234375 19.015625 9.71875 
Q 22.5625 4.203125 29.5 4.203125 
Q 36.328125 4.203125 39.90625 9.109375 
Q 43.5 14.015625 43.5 23.390625 
z
" id="DejaVuSerif-100"/>
       <path d="M 5.609375 2.875 
L 5.609375 14.984375 
L 10.796875 14.984375 
Q 10.984375 9.1875 14.421875 6.296875 
Q 17.875 3.421875 24.609375 3.421875 
Q 30.671875 3.421875 33.84375 5.6875 
Q 37.015625 7.953125 37.015625 12.3125 
Q 37.015625 15.71875 34.6875 17.8125 
Q 32.375 19.921875 24.90625 22.3125 
L 18.40625 24.515625 
Q 11.71875 26.65625 8.71875 29.875 
Q 5.71875 33.109375 5.71875 38.09375 
Q 5.71875 45.21875 10.9375 49.265625 
Q 16.15625 53.328125 25.390625 53.328125 
Q 29.5 53.328125 34.03125 52.25 
Q 38.578125 51.171875 43.40625 49.125 
L 43.40625 37.796875 
L 38.234375 37.796875 
Q 38.03125 42.828125 34.703125 45.65625 
Q 31.390625 48.484375 25.6875 48.484375 
Q 20.015625 48.484375 17.109375 46.484375 
Q 14.203125 44.484375 14.203125 40.484375 
Q 14.203125 37.203125 16.40625 35.21875 
Q 18.609375 33.25 25.203125 31.203125 
L 32.328125 29 
Q 39.703125 26.703125 42.9375 23.265625 
Q 46.1875 19.828125 46.1875 14.40625 
Q 46.1875 7.03125 40.546875 2.796875 
Q 34.90625 -1.421875 25 -1.421875 
Q 19.96875 -1.421875 15.1875 -0.34375 
Q 10.40625 0.734375 5.609375 2.875 
z
" id="DejaVuSerif-115"/>
      </defs>
      <use xlink:href="#DejaVuSerif-112"/>
      <use x="64.013672" xlink:href="#DejaVuSerif-111"/>
      <use x="124.21875" xlink:href="#DejaVuSerif-112"/>
      <use x="188.232422" xlink:href="#DejaVuSerif-117"/>
      <use x="252.636719" xlink:href="#DejaVuSerif-108"/>
      <use x="284.619141" xlink:href="#DejaVuSerif-97"/>
      <use x="344.238281" xlink:href="#DejaVuSerif-116"/>
      <use x="384.423828" xlink:href="#DejaVuSerif-105"/>
      <use x="416.40625" xlink:href="#DejaVuSerif-111"/>
      <use x="476.611328" xlink:href="#DejaVuSerif-110"/>
      <use x="541.015625" xlink:href="#DejaVuSerif-32"/>
      <use x="572.802734" xlink:href="#DejaVuSerif-100"/>
      <use x="636.816406" xlink:href="#DejaVuSerif-101"/>
      <use x="695.996094" xlink:href="#DejaVuSerif-110"/>
      <use x="760.400391" xlink:href="#DejaVuSerif-115"/>
      <use x="811.71875" xlink:href="#DejaVuSerif-105"/>
      <use x="843.701172" xlink:href="#DejaVuSerif-116"/>
      <use x="883.886719" xlink:href="#DejaVuSerif-105"/>
      <use x="915.869141" xlink:href="#DejaVuSerif-101"/>
      <use x="975.048828" xlink:href="#DejaVuSerif-115"/>
     </g>
    </g>
   </g>
   <g id="line2d_14">
    <path clip-path="url(#pedb83433e8)" d="M 73.832727 80.384604 
L 172.852364 80.457282 
L 177.722182 80.697896 
L 180.968727 81.144472 
L 182.592 81.537002 
L 184.215273 82.101599 
L 185.838545 82.897867 
L 187.461818 83.998854 
L 189.085091 85.491147 
L 190.708364 87.473708 
L 192.331636 90.055103 
L 193.954909 93.348888 
L 195.578182 97.467124 
L 197.201455 102.5122 
L 198.824727 108.567489 
L 200.448 115.687603 
L 202.071273 123.889284 
L 203.694545 133.144078 
L 205.317818 143.373894 
L 208.564364 166.198421 
L 216.680727 226.896843 
L 218.304 237.759821 
L 219.927273 247.745206 
L 221.550545 256.742243 
L 223.173818 264.689887 
L 224.797091 271.574569 
L 226.420364 277.424604 
L 228.043636 282.302232 
L 229.666909 286.29442 
L 231.290182 289.503485 
L 232.913455 292.038435 
L 234.536727 294.007679 
L 236.16 295.513444 
L 237.783273 296.647987 
L 239.406545 297.491489 
L 241.029818 298.111341 
L 242.653091 298.562511 
L 245.899636 299.123438 
L 249.146182 299.414754 
L 254.016 299.62009 
L 275.118545 300.018515 
L 291.351273 300.052504 
L 398.487273 300.052528 
L 398.487273 300.052528 
" style="fill:none;stroke:#ffffff;stroke-linecap:square;stroke-width:0.01;"/>
   </g>
   <g id="line2d_15">
    <path clip-path="url(#pedb83433e8)" d="M 73.832727 80.384604 
L 245.899636 80.463968 
L 249.146182 80.61659 
L 250.769455 80.780534 
L 252.392727 81.05932 
L 254.016 81.532213 
L 255.639273 82.331591 
L 257.262545 83.676133 
L 258.885818 85.92075 
L 260.509091 89.624731 
L 262.132364 95.625849 
L 263.755636 105.069927 
L 265.378909 119.271436 
L 267.002182 139.217488 
L 268.625455 164.683493 
L 271.872 222.100564 
L 273.495273 246.946931 
L 275.118545 266.160472 
L 276.741818 279.624901 
L 278.365091 288.331073 
L 279.988364 293.604441 
L 281.611636 296.632211 
L 283.234909 298.295092 
L 284.858182 299.174654 
L 286.481455 299.625023 
L 288.104727 299.849126 
L 291.351273 300.009305 
L 301.090909 300.05226 
L 398.487273 300.052528 
L 398.487273 300.052528 
" style="fill:none;stroke:#ffffff;stroke-linecap:square;stroke-width:0.01;"/>
   </g>
   <g id="patch_3">
    <path d="M 57.6 307.584 
L 57.6 41.472 
" style="fill:none;stroke:#000000;stroke-linecap:square;stroke-linejoin:miter;stroke-width:0.8;"/>
   </g>
   <g id="patch_4">
    <path d="M 414.72 307.584 
L 414.72 41.472 
" style="fill:none;stroke:#000000;stroke-linecap:square;stroke-linejoin:miter;stroke-width:0.8;"/>
   </g>
   <g id="patch_5">
    <path d="M 57.6 307.584 
L 414.72 307.584 
" style="fill:none;stroke:#000000;stroke-linecap:square;stroke-linejoin:miter;stroke-width:0.8;"/>
   </g>
   <g id="patch_6">
    <path d="M 57.6 41.472 
L 414.72 41.472 
" style="fill:none;stroke:#000000;stroke-linecap:square;stroke-linejoin:miter;stroke-width:0.8;"/>
   </g>
   <g id="text_5">
    <!-- t = 24.0 -->
    <g transform="translate(353.189531 35.472)scale(0.15 -0.15)">
     <defs>
      <path d="M 10.59375 45.21875 
L 73.1875 45.21875 
L 73.1875 37.40625 
L 10.59375 37.40625 
z
M 10.59375 25.296875 
L 73.1875 25.296875 
L 73.1875 17.484375 
L 10.59375 17.484375 
z
" id="DejaVuSerif-61"/>
      <path d="M 12.796875 55.515625 
L 7.328125 55.515625 
L 7.328125 68.5 
Q 12.546875 71.296875 17.84375 72.75 
Q 23.140625 74.21875 28.21875 74.21875 
Q 39.59375 74.21875 46.1875 68.703125 
Q 52.78125 63.1875 52.78125 53.71875 
Q 52.78125 43.015625 37.84375 28.125 
Q 36.671875 27 36.078125 26.421875 
L 17.671875 8.015625 
L 48.09375 8.015625 
L 48.09375 17 
L 53.8125 17 
L 53.8125 0 
L 6.78125 0 
L 6.78125 5.328125 
L 28.90625 27.390625 
Q 36.234375 34.71875 39.359375 40.84375 
Q 42.484375 46.96875 42.484375 53.71875 
Q 42.484375 61.078125 38.640625 65.234375 
Q 34.8125 69.390625 28.078125 69.390625 
Q 21.09375 69.390625 17.28125 65.921875 
Q 13.484375 62.453125 12.796875 55.515625 
z
" id="DejaVuSerif-50"/>
      <path d="M 34.90625 24.703125 
L 34.90625 63.484375 
L 10.015625 24.703125 
z
M 56.390625 0 
L 23.1875 0 
L 23.1875 5.171875 
L 34.90625 5.171875 
L 34.90625 19.484375 
L 3.078125 19.484375 
L 3.078125 24.8125 
L 35.015625 74.21875 
L 44.671875 74.21875 
L 44.671875 24.703125 
L 58.59375 24.703125 
L 58.59375 19.484375 
L 44.671875 19.484375 
L 44.671875 5.171875 
L 56.390625 5.171875 
z
" id="DejaVuSerif-52"/>
      <path d="M 9.421875 5.078125 
Q 9.421875 7.8125 11.28125 9.71875 
Q 13.140625 11.625 15.921875 11.625 
Q 18.609375 11.625 20.5 9.71875 
Q 22.40625 7.8125 22.40625 5.078125 
Q 22.40625 2.390625 20.5 0.484375 
Q 18.609375 -1.421875 15.921875 -1.421875 
Q 13.140625 -1.421875 11.28125 0.453125 
Q 9.421875 2.34375 9.421875 5.078125 
z
" id="DejaVuSerif-46"/>
     </defs>
     <use xlink:href="#DejaVuSerif-116"/>
     <use x="40.185547" xlink:href="#DejaVuSerif-32"/>
     <use x="71.972656" xlink:href="#DejaVuSerif-61"/>
     <use x="155.761719" xlink:href="#DejaVuSerif-32"/>
     <use x="187.548828" xlink:href="#DejaVuSerif-50"/>
     <use x="251.171875" xlink:href="#DejaVuSerif-52"/>
     <use x="314.794922" xlink:href="#DejaVuSerif-46"/>
     <use x="346.582031" xlink:href="#DejaVuSerif-48"/>
    </g>
   </g>
   <g id="legend_1">
    <g id="patch_7">
     <path d="M 73.08486 34.09119 
L 246.68736 34.09119 
Q 249.08736 34.09119 249.08736 31.69119 
L 249.08736 15.27744 
Q 249.08736 12.87744 246.68736 12.87744 
L 73.08486 12.87744 
Q 70.68486 12.87744 70.68486 15.27744 
L 70.68486 31.69119 
Q 70.68486 34.09119 73.08486 34.09119 
z
" style="fill:#ffffff;opacity:0.8;stroke:#cccccc;stroke-linejoin:miter;"/>
    </g>
    <g id="patch_8">
     <path d="M 75.48486 26.795565 
L 99.48486 26.795565 
L 99.48486 18.395565 
L 75.48486 18.395565 
z
" style="fill:#dc143c;stroke:#dc143c;stroke-linejoin:miter;"/>
    </g>
    <g id="text_6">
     <!-- Drive 1 -->
     <g transform="translate(109.08486 26.795565)scale(0.12 -0.12)">
      <defs>
       <path d="M 24.703125 5.171875 
L 33.796875 5.171875 
Q 48 5.171875 55.59375 13.28125 
Q 63.1875 21.390625 63.1875 36.53125 
Q 63.1875 51.65625 55.609375 59.65625 
Q 48.046875 67.671875 33.796875 67.671875 
L 24.703125 67.671875 
z
M 5.515625 0 
L 5.515625 5.171875 
L 14.796875 5.171875 
L 14.796875 67.671875 
L 5.515625 67.671875 
L 5.515625 72.90625 
L 34.515625 72.90625 
Q 53.375 72.90625 63.890625 63.28125 
Q 74.421875 53.65625 74.421875 36.53125 
Q 74.421875 19.34375 63.875 9.671875 
Q 53.328125 0 34.515625 0 
z
" id="DejaVuSerif-68"/>
       <path d="M 47.796875 52 
L 47.796875 39.015625 
L 42.625 39.015625 
Q 42.390625 42.875 40.484375 44.78125 
Q 38.578125 46.6875 34.90625 46.6875 
Q 28.265625 46.6875 24.71875 42.09375 
Q 21.1875 37.5 21.1875 28.90625 
L 21.1875 5.171875 
L 31.59375 5.171875 
L 31.59375 0 
L 4.109375 0 
L 4.109375 5.171875 
L 12.203125 5.171875 
L 12.203125 46.78125 
L 3.609375 46.78125 
L 3.609375 51.90625 
L 21.1875 51.90625 
L 21.1875 42.671875 
Q 23.828125 48.09375 27.96875 50.703125 
Q 32.125 53.328125 38.09375 53.328125 
Q 40.28125 53.328125 42.703125 52.984375 
Q 45.125 52.640625 47.796875 52 
z
" id="DejaVuSerif-114"/>
       <path d="M 24.703125 0 
L 5.609375 46.6875 
L -0.296875 46.6875 
L -0.296875 51.90625 
L 23.578125 51.90625 
L 23.578125 46.6875 
L 15.28125 46.6875 
L 29.890625 10.984375 
L 44.484375 46.6875 
L 36.71875 46.6875 
L 36.71875 51.90625 
L 56.203125 51.90625 
L 56.203125 46.6875 
L 50.390625 46.6875 
L 31.296875 0 
z
" id="DejaVuSerif-118"/>
      </defs>
      <use xlink:href="#DejaVuSerif-68"/>
      <use x="80.175781" xlink:href="#DejaVuSerif-114"/>
      <use x="127.978516" xlink:href="#DejaVuSerif-105"/>
      <use x="159.960938" xlink:href="#DejaVuSerif-118"/>
      <use x="216.455078" xlink:href="#DejaVuSerif-101"/>
      <use x="275.634766" xlink:href="#DejaVuSerif-32"/>
      <use x="307.421875" xlink:href="#DejaVuSerif-49"/>
     </g>
    </g>
    <g id="patch_9">
     <path d="M 177.610485 26.795565 
L 201.610485 26.795565 
L 201.610485 18.395565 
L 177.610485 18.395565 
z
" style="fill:#ffa500;stroke:#ffa500;stroke-linejoin:miter;"/>
    </g>
    <g id="text_7">
     <!-- Drive -->
     <g transform="translate(211.210485 26.795565)scale(0.12 -0.12)">
      <use xlink:href="#DejaVuSerif-68"/>
      <use x="80.175781" xlink:href="#DejaVuSerif-114"/>
      <use x="127.978516" xlink:href="#DejaVuSerif-105"/>
      <use x="159.960938" xlink:href="#DejaVuSerif-118"/>
      <use x="216.455078" xlink:href="#DejaVuSerif-101"/>
     </g>
    </g>
   </g>
  </g>
 </g>
 <defs>
  <clipPath id="pedb83433e8">
   <rect height="266.112" width="357.12" x="57.6" y="41.472"/>
  </clipPath>
 </defs>
</svg>
