<?xml version="1.0" encoding="UTF-8" standalone="no"?>
<!-- Created with matplotlib (https://matplotlib.org/) -->

<svg
   height="345.6pt"
   version="1.1"
   viewBox="0 0 460.8 345.6"
   width="460.8pt"
   id="svg210"
   sodipodi:docname="vague.svg"
   inkscape:version="1.1.2 (08b2f3d93c, 2022-04-05)"
   xmlns:inkscape="http://www.inkscape.org/namespaces/inkscape"
   xmlns:sodipodi="http://sodipodi.sourceforge.net/DTD/sodipodi-0.dtd"
   xmlns:xlink="http://www.w3.org/1999/xlink"
   xmlns="http://www.w3.org/2000/svg"
   xmlns:svg="http://www.w3.org/2000/svg"
   xmlns:rdf="http://www.w3.org/1999/02/22-rdf-syntax-ns#"
   xmlns:cc="http://creativecommons.org/ns#"
   xmlns:dc="http://purl.org/dc/elements/1.1/">
  <sodipodi:namedview
     id="namedview212"
     pagecolor="#ffffff"
     bordercolor="#666666"
     borderopacity="1.0"
     inkscape:pageshadow="2"
     inkscape:pageopacity="0.0"
     inkscape:pagecheckerboard="0"
     inkscape:document-units="pt"
     showgrid="false"
     inkscape:zoom="1.2229208"
     inkscape:cx="379.01064"
     inkscape:cy="222.00947"
     inkscape:window-width="1853"
     inkscape:window-height="1018"
     inkscape:window-x="67"
     inkscape:window-y="34"
     inkscape:window-maximized="1"
     inkscape:current-layer="svg210" />
  <metadata
     id="metadata2">
    <rdf:RDF>
      <cc:Work>
        <dc:type
           rdf:resource="http://purl.org/dc/dcmitype/StillImage" />
        <dc:date>2022-05-17T20:32:25.945872</dc:date>
        <dc:format>image/svg+xml</dc:format>
        <dc:creator>
          <cc:Agent>
            <dc:title>Matplotlib v3.3.4, https://matplotlib.org/</dc:title>
          </cc:Agent>
        </dc:creator>
      </cc:Work>
    </rdf:RDF>
  </metadata>
  <defs
     id="defs6">
    <style
       type="text/css"
       id="style4">*{stroke-linecap:butt;stroke-linejoin:round;}</style>
  </defs>
  <g
     id="figure_1">
    <g
       id="patch_1">
      <path
         d="M 0 345.6  L 460.8 345.6  L 460.8 0  L 0 0  z "
         style="fill:#ffffff;"
         id="path8" />
    </g>
    <g
       id="axes_1">
      <g
         id="patch_2">
        <path
           d="M 57.6 307.584  L 414.72 307.584  L 414.72 41.472  L 57.6 41.472  z "
           style="fill:#ffffff;"
           id="path11" />
      </g>
      <g
         id="matplotlib.axis_1">
        <g
           id="xtick_1">
          <g
             id="line2d_1">
            <path
               clip-path="url(#p2cdcfbb2fc)"
               d="M 73.832727 307.584  L 73.832727 41.472  "
               style="fill:none;stroke:#b0b0b0;stroke-linecap:square;stroke-width:0.8;"
               id="path14" />
          </g>
        </g>
        <g
           id="xtick_2">
          <g
             id="line2d_2">
            <path
               clip-path="url(#p2cdcfbb2fc)"
               d="M 128.858921 307.584  L 128.858921 41.472  "
               style="fill:none;stroke:#b0b0b0;stroke-linecap:square;stroke-width:0.8;"
               id="path18" />
          </g>
        </g>
        <g
           id="xtick_3">
          <g
             id="line2d_3">
            <path
               clip-path="url(#p2cdcfbb2fc)"
               d="M 183.885116 307.584  L 183.885116 41.472  "
               style="fill:none;stroke:#b0b0b0;stroke-linecap:square;stroke-width:0.8;"
               id="path22" />
          </g>
        </g>
        <g
           id="xtick_4">
          <g
             id="line2d_4">
            <path
               clip-path="url(#p2cdcfbb2fc)"
               d="M 238.91131 307.584  L 238.91131 41.472  "
               style="fill:none;stroke:#b0b0b0;stroke-linecap:square;stroke-width:0.8;"
               id="path26" />
          </g>
        </g>
        <g
           id="xtick_5">
          <g
             id="line2d_5">
            <path
               clip-path="url(#p2cdcfbb2fc)"
               d="M 293.937504 307.584  L 293.937504 41.472  "
               style="fill:none;stroke:#b0b0b0;stroke-linecap:square;stroke-width:0.8;"
               id="path30" />
          </g>
        </g>
        <g
           id="xtick_6">
          <g
             id="line2d_6">
            <path
               clip-path="url(#p2cdcfbb2fc)"
               d="M 348.963698 307.584  L 348.963698 41.472  "
               style="fill:none;stroke:#b0b0b0;stroke-linecap:square;stroke-width:0.8;"
               id="path34" />
          </g>
        </g>
        <g
           id="xtick_7">
          <g
             id="line2d_7">
            <path
               clip-path="url(#p2cdcfbb2fc)"
               d="M 403.989892 307.584  L 403.989892 41.472  "
               style="fill:none;stroke:#b0b0b0;stroke-linecap:square;stroke-width:0.8;"
               id="path38" />
          </g>
        </g>
        <g
           id="text_1">
          <!-- Space -->
          <g
             transform="translate(210.037109 324.501344)scale(0.17 -0.17)"
             id="g59">
            <defs
               id="defs47">
              <path
                 d="M 9.28125 3.515625  L 9.28125 20.125  L 14.890625 20.0625  Q 15.140625 11.765625 19.703125 7.78125  Q 24.265625 3.8125 33.59375 3.8125  Q 42.28125 3.8125 46.84375 7.25  Q 51.421875 10.6875 51.421875 17.28125  Q 51.421875 22.5625 48.65625 25.390625  Q 45.90625 28.21875 37.015625 30.90625  L 27.390625 33.796875  Q 16.9375 36.96875 12.671875 41.703125  Q 8.40625 46.4375 8.40625 54.6875  Q 8.40625 63.96875 14.984375 69.09375  Q 21.578125 74.21875 33.5 74.21875  Q 38.578125 74.21875 44.625 73.109375  Q 50.6875 72.015625 57.515625 69.921875  L 57.515625 54.390625  L 52 54.390625  Q 51.171875 62.109375 46.84375 65.546875  Q 42.53125 69 33.6875 69  Q 25.984375 69 21.953125 65.84375  Q 17.921875 62.703125 17.921875 56.6875  Q 17.921875 51.46875 20.9375 48.484375  Q 23.96875 45.515625 33.796875 42.578125  L 42.828125 39.890625  Q 52.734375 36.921875 56.953125 32.296875  Q 61.1875 27.6875 61.1875 19.921875  Q 61.1875 9.328125 54.390625 3.953125  Q 47.609375 -1.421875 34.1875 -1.421875  Q 28.171875 -1.421875 21.9375 -0.1875  Q 15.71875 1.03125 9.28125 3.515625  z "
                 id="DejaVuSerif-83" />
              <path
                 d="M 20.515625 28.515625  L 20.515625 23.390625  Q 20.515625 14.015625 24.09375 9.109375  Q 27.6875 4.203125 34.515625 4.203125  Q 41.40625 4.203125 44.9375 9.71875  Q 48.484375 15.234375 48.484375 25.984375  Q 48.484375 36.765625 44.9375 42.234375  Q 41.40625 47.703125 34.515625 47.703125  Q 27.6875 47.703125 24.09375 42.765625  Q 20.515625 37.84375 20.515625 28.515625  z M 11.53125 46.6875  L 2.875 46.6875  L 2.875 51.90625  L 20.515625 51.90625  L 20.515625 43.796875  Q 23.140625 48.6875 27.21875 51  Q 31.296875 53.328125 37.3125 53.328125  Q 46.875 53.328125 52.921875 45.75  Q 58.984375 38.1875 58.984375 25.984375  Q 58.984375 13.765625 52.921875 6.171875  Q 46.875 -1.421875 37.3125 -1.421875  Q 31.296875 -1.421875 27.21875 0.890625  Q 23.140625 3.21875 20.515625 8.109375  L 20.515625 -15.578125  L 29 -15.578125  L 29 -20.796875  L 2.875 -20.796875  L 2.875 -15.578125  L 11.53125 -15.578125  z "
                 id="DejaVuSerif-112" />
              <path
                 d="M 39.796875 16.3125  L 39.796875 27.296875  L 28.21875 27.296875  Q 21.53125 27.296875 18.25 24.40625  Q 14.984375 21.53125 14.984375 15.578125  Q 14.984375 10.15625 18.296875 6.984375  Q 21.625 3.8125 27.296875 3.8125  Q 32.90625 3.8125 36.34375 7.28125  Q 39.796875 10.75 39.796875 16.3125  z M 48.78125 32.421875  L 48.78125 5.171875  L 56.78125 5.171875  L 56.78125 0  L 39.796875 0  L 39.796875 5.609375  Q 36.8125 2 32.90625 0.28125  Q 29 -1.421875 23.78125 -1.421875  Q 15.140625 -1.421875 10.0625 3.171875  Q 4.984375 7.765625 4.984375 15.578125  Q 4.984375 23.640625 10.796875 28.078125  Q 16.609375 32.515625 27.203125 32.515625  L 39.796875 32.515625  L 39.796875 36.078125  Q 39.796875 42 36.203125 45.234375  Q 32.625 48.484375 26.125 48.484375  Q 20.75 48.484375 17.578125 46.046875  Q 14.40625 43.609375 13.625 38.8125  L 8.984375 38.8125  L 8.984375 49.3125  Q 13.671875 51.3125 18.09375 52.3125  Q 22.515625 53.328125 26.703125 53.328125  Q 37.5 53.328125 43.140625 47.96875  Q 48.78125 42.625 48.78125 32.421875  z "
                 id="DejaVuSerif-97" />
              <path
                 d="M 51.421875 15.578125  Q 49.515625 7.28125 44.09375 2.921875  Q 38.671875 -1.421875 30.078125 -1.421875  Q 18.75 -1.421875 11.859375 6.078125  Q 4.984375 13.578125 4.984375 25.984375  Q 4.984375 38.421875 11.859375 45.875  Q 18.75 53.328125 30.078125 53.328125  Q 35.015625 53.328125 39.890625 52.171875  Q 44.78125 51.03125 49.703125 48.6875  L 49.703125 35.40625  L 44.484375 35.40625  Q 43.453125 42.234375 40.015625 45.359375  Q 36.578125 48.484375 30.171875 48.484375  Q 22.90625 48.484375 19.1875 42.84375  Q 15.484375 37.203125 15.484375 25.984375  Q 15.484375 14.75 19.171875 9.078125  Q 22.859375 3.421875 30.171875 3.421875  Q 35.984375 3.421875 39.453125 6.4375  Q 42.921875 9.46875 44.1875 15.578125  z "
                 id="DejaVuSerif-99" />
              <path
                 d="M 54.203125 25  L 15.484375 25  L 15.484375 24.609375  Q 15.484375 14.109375 19.4375 8.765625  Q 23.390625 3.421875 31.109375 3.421875  Q 37.015625 3.421875 40.796875 6.515625  Q 44.578125 9.625 46.09375 15.71875  L 53.328125 15.71875  Q 51.171875 7.171875 45.375 2.875  Q 39.59375 -1.421875 30.171875 -1.421875  Q 18.796875 -1.421875 11.890625 6.078125  Q 4.984375 13.578125 4.984375 25.984375  Q 4.984375 38.28125 11.765625 45.796875  Q 18.5625 53.328125 29.59375 53.328125  Q 41.359375 53.328125 47.65625 46.0625  Q 53.953125 38.8125 54.203125 25  z M 43.609375 30.171875  Q 43.3125 39.265625 39.765625 43.875  Q 36.234375 48.484375 29.59375 48.484375  Q 23.390625 48.484375 19.828125 43.84375  Q 16.265625 39.203125 15.484375 30.171875  z "
                 id="DejaVuSerif-101" />
            </defs>
            <use
               xlink:href="#DejaVuSerif-83"
               id="use49" />
            <use
               x="68.505859"
               xlink:href="#DejaVuSerif-112"
               id="use51" />
            <use
               x="132.519531"
               xlink:href="#DejaVuSerif-97"
               id="use53" />
            <use
               x="192.138672"
               xlink:href="#DejaVuSerif-99"
               id="use55" />
            <use
               x="248.144531"
               xlink:href="#DejaVuSerif-101"
               id="use57" />
          </g>
        </g>
      </g>
      <g
         id="matplotlib.axis_2">
        <g
           id="ytick_1">
          <g
             id="line2d_8">
            <path
               clip-path="url(#p2cdcfbb2fc)"
               d="M 57.6 300.052528  L 414.72 300.052528  "
               style="fill:none;stroke:#b0b0b0;stroke-linecap:square;stroke-width:0.8;"
               id="path63" />
          </g>
          <g
             id="line2d_9">
            <defs
               id="defs67">
              <path
                 d="M 0 0  L -3.5 0  "
                 id="m58eac23e69"
                 style="stroke:#000000;stroke-width:0.8;" />
            </defs>
            <g
               id="g71">
              <use
                 style="stroke:#000000;stroke-width:0.8;"
                 x="57.6"
                 xlink:href="#m58eac23e69"
                 y="300.052528"
                 id="use69" />
            </g>
          </g>
          <g
             id="text_2">
            <!-- 0 -->
            <g
               transform="translate(37.875 307.650966)scale(0.2 -0.2)"
               id="g79">
              <defs
                 id="defs75">
                <path
                   d="M 31.78125 3.421875  Q 39.265625 3.421875 42.96875 11.625  Q 46.6875 19.828125 46.6875 36.375  Q 46.6875 52.984375 42.96875 61.1875  Q 39.265625 69.390625 31.78125 69.390625  Q 24.3125 69.390625 20.59375 61.1875  Q 16.890625 52.984375 16.890625 36.375  Q 16.890625 19.828125 20.59375 11.625  Q 24.3125 3.421875 31.78125 3.421875  z M 31.78125 -1.421875  Q 19.921875 -1.421875 13.25 8.53125  Q 6.59375 18.5 6.59375 36.375  Q 6.59375 54.296875 13.25 64.25  Q 19.921875 74.21875 31.78125 74.21875  Q 43.703125 74.21875 50.34375 64.25  Q 56.984375 54.296875 56.984375 36.375  Q 56.984375 18.5 50.34375 8.53125  Q 43.703125 -1.421875 31.78125 -1.421875  z "
                   id="DejaVuSerif-48" />
              </defs>
              <use
                 xlink:href="#DejaVuSerif-48"
                 id="use77" />
            </g>
          </g>
        </g>
        <g
           id="ytick_2">
          <g
             id="line2d_10">
            <path
               clip-path="url(#p2cdcfbb2fc)"
               d="M 57.6 49.003472  L 414.72 49.003472  "
               style="fill:none;stroke:#b0b0b0;stroke-linecap:square;stroke-width:0.8;"
               id="path83" />
          </g>
          <g
             id="line2d_11">
            <g
               id="g88">
              <use
                 style="stroke:#000000;stroke-width:0.8;"
                 x="57.6"
                 xlink:href="#m58eac23e69"
                 y="49.003472"
                 id="use86" />
            </g>
          </g>
          <g
             id="text_3">
            <!-- 1 -->
            <g
               transform="translate(37.875 56.601909)scale(0.2 -0.2)"
               id="g96">
              <defs
                 id="defs92">
                <path
                   d="M 14.203125 0  L 14.203125 5.171875  L 26.90625 5.171875  L 26.90625 65.828125  L 12.203125 56.296875  L 12.203125 62.703125  L 29.984375 74.21875  L 36.71875 74.21875  L 36.71875 5.171875  L 49.421875 5.171875  L 49.421875 0  z "
                   id="DejaVuSerif-49" />
              </defs>
              <use
                 xlink:href="#DejaVuSerif-49"
                 id="use94" />
            </g>
          </g>
        </g>
        <g
           id="text_4">
          <!-- Allele densities -->
          <g
             transform="translate(30.339531 240.140031)rotate(-90)scale(0.17 -0.17)"
             id="g142">
            <defs
               id="defs108">
              <path
                 d="M 20.015625 26.421875  L 46.78125 26.421875  L 33.40625 61.078125  z M -0.59375 0  L -0.59375 5.171875  L 5.8125 5.171875  L 31.78125 72.90625  L 39.984375 72.90625  L 66.015625 5.171875  L 73.1875 5.171875  L 73.1875 0  L 46.6875 0  L 46.6875 5.171875  L 54.78125 5.171875  L 48.6875 21.1875  L 18.015625 21.1875  L 11.921875 5.171875  L 19.921875 5.171875  L 19.921875 0  z "
                 id="DejaVuSerif-65" />
              <path
                 d="M 20.515625 5.171875  L 29 5.171875  L 29 0  L 2.875 0  L 2.875 5.171875  L 11.53125 5.171875  L 11.53125 70.796875  L 2.875 70.796875  L 2.875 75.984375  L 20.515625 75.984375  z "
                 id="DejaVuSerif-108" />
              <path
                 id="DejaVuSerif-32" />
              <path
                 d="M 52.484375 5.171875  L 61.078125 5.171875  L 61.078125 0  L 43.5 0  L 43.5 8.109375  Q 40.875 3.21875 36.796875 0.890625  Q 32.71875 -1.421875 26.703125 -1.421875  Q 17.140625 -1.421875 11.0625 6.171875  Q 4.984375 13.765625 4.984375 25.984375  Q 4.984375 38.1875 11.03125 45.75  Q 17.09375 53.328125 26.703125 53.328125  Q 32.71875 53.328125 36.796875 51  Q 40.875 48.6875 43.5 43.796875  L 43.5 70.796875  L 35.015625 70.796875  L 35.015625 75.984375  L 52.484375 75.984375  z M 43.5 23.390625  L 43.5 28.515625  Q 43.5 37.84375 39.90625 42.765625  Q 36.328125 47.703125 29.5 47.703125  Q 22.5625 47.703125 19.015625 42.234375  Q 15.484375 36.765625 15.484375 25.984375  Q 15.484375 15.234375 19.015625 9.71875  Q 22.5625 4.203125 29.5 4.203125  Q 36.328125 4.203125 39.90625 9.109375  Q 43.5 14.015625 43.5 23.390625  z "
                 id="DejaVuSerif-100" />
              <path
                 d="M 4.109375 0  L 4.109375 5.171875  L 12.203125 5.171875  L 12.203125 46.6875  L 3.609375 46.6875  L 3.609375 51.90625  L 21.1875 51.90625  L 21.1875 42.671875  Q 23.6875 47.953125 27.65625 50.640625  Q 31.640625 53.328125 36.921875 53.328125  Q 45.515625 53.328125 49.5625 48.390625  Q 53.609375 43.453125 53.609375 33.015625  L 53.609375 5.171875  L 61.625 5.171875  L 61.625 0  L 36.8125 0  L 36.8125 5.171875  L 44.578125 5.171875  L 44.578125 30.171875  Q 44.578125 39.703125 42.234375 43.234375  Q 39.890625 46.78125 33.984375 46.78125  Q 27.734375 46.78125 24.453125 42.203125  Q 21.1875 37.640625 21.1875 28.90625  L 21.1875 5.171875  L 29 5.171875  L 29 0  z "
                 id="DejaVuSerif-110" />
              <path
                 d="M 5.609375 2.875  L 5.609375 14.984375  L 10.796875 14.984375  Q 10.984375 9.1875 14.421875 6.296875  Q 17.875 3.421875 24.609375 3.421875  Q 30.671875 3.421875 33.84375 5.6875  Q 37.015625 7.953125 37.015625 12.3125  Q 37.015625 15.71875 34.6875 17.8125  Q 32.375 19.921875 24.90625 22.3125  L 18.40625 24.515625  Q 11.71875 26.65625 8.71875 29.875  Q 5.71875 33.109375 5.71875 38.09375  Q 5.71875 45.21875 10.9375 49.265625  Q 16.15625 53.328125 25.390625 53.328125  Q 29.5 53.328125 34.03125 52.25  Q 38.578125 51.171875 43.40625 49.125  L 43.40625 37.796875  L 38.234375 37.796875  Q 38.03125 42.828125 34.703125 45.65625  Q 31.390625 48.484375 25.6875 48.484375  Q 20.015625 48.484375 17.109375 46.484375  Q 14.203125 44.484375 14.203125 40.484375  Q 14.203125 37.203125 16.40625 35.21875  Q 18.609375 33.25 25.203125 31.203125  L 32.328125 29  Q 39.703125 26.703125 42.9375 23.265625  Q 46.1875 19.828125 46.1875 14.40625  Q 46.1875 7.03125 40.546875 2.796875  Q 34.90625 -1.421875 25 -1.421875  Q 19.96875 -1.421875 15.1875 -0.34375  Q 10.40625 0.734375 5.609375 2.875  z "
                 id="DejaVuSerif-115" />
              <path
                 d="M 9.71875 68.015625  Q 9.71875 70.265625 11.34375 71.921875  Q 12.984375 73.578125 15.28125 73.578125  Q 17.53125 73.578125 19.15625 71.921875  Q 20.796875 70.265625 20.796875 68.015625  Q 20.796875 65.71875 19.1875 64.109375  Q 17.578125 62.5 15.28125 62.5  Q 12.984375 62.5 11.34375 64.109375  Q 9.71875 65.71875 9.71875 68.015625  z M 21.1875 5.171875  L 29.6875 5.171875  L 29.6875 0  L 3.609375 0  L 3.609375 5.171875  L 12.203125 5.171875  L 12.203125 46.6875  L 3.609375 46.6875  L 3.609375 51.90625  L 21.1875 51.90625  z "
                 id="DejaVuSerif-105" />
              <path
                 d="M 10.796875 46.6875  L 2.875 46.6875  L 2.875 51.90625  L 10.796875 51.90625  L 10.796875 68.015625  L 19.828125 68.015625  L 19.828125 51.90625  L 36.71875 51.90625  L 36.71875 46.6875  L 19.828125 46.6875  L 19.828125 13.71875  Q 19.828125 7.125 21.09375 5.265625  Q 22.359375 3.421875 25.78125 3.421875  Q 29.296875 3.421875 30.90625 5.484375  Q 32.515625 7.5625 32.625 12.203125  L 39.40625 12.203125  Q 39.015625 5.125 35.546875 1.84375  Q 32.078125 -1.421875 25 -1.421875  Q 17.234375 -1.421875 14.015625 2.015625  Q 10.796875 5.46875 10.796875 13.71875  z "
                 id="DejaVuSerif-116" />
            </defs>
            <use
               xlink:href="#DejaVuSerif-65"
               id="use110" />
            <use
               x="72.216797"
               xlink:href="#DejaVuSerif-108"
               id="use112" />
            <use
               x="104.199219"
               xlink:href="#DejaVuSerif-108"
               id="use114" />
            <use
               x="136.181641"
               xlink:href="#DejaVuSerif-101"
               id="use116" />
            <use
               x="195.361328"
               xlink:href="#DejaVuSerif-108"
               id="use118" />
            <use
               x="227.34375"
               xlink:href="#DejaVuSerif-101"
               id="use120" />
            <use
               x="286.523438"
               xlink:href="#DejaVuSerif-32"
               id="use122" />
            <use
               x="318.310547"
               xlink:href="#DejaVuSerif-100"
               id="use124" />
            <use
               x="382.324219"
               xlink:href="#DejaVuSerif-101"
               id="use126" />
            <use
               x="441.503906"
               xlink:href="#DejaVuSerif-110"
               id="use128" />
            <use
               x="505.908203"
               xlink:href="#DejaVuSerif-115"
               id="use130" />
            <use
               x="557.226562"
               xlink:href="#DejaVuSerif-105"
               id="use132" />
            <use
               x="589.208984"
               xlink:href="#DejaVuSerif-116"
               id="use134" />
            <use
               x="629.394531"
               xlink:href="#DejaVuSerif-105"
               id="use136" />
            <use
               x="661.376953"
               xlink:href="#DejaVuSerif-101"
               id="use138" />
            <use
               x="720.556641"
               xlink:href="#DejaVuSerif-115"
               id="use140" />
          </g>
        </g>
      </g>
      <g
         id="line2d_12">
        <path
           clip-path="url(#p2cdcfbb2fc)"
           d="M 73.832727 300.021546  L 79.335347 299.996637  L 84.837966 299.953698  L 90.340586 299.88123  L 95.843205 299.761505  L 101.345824 299.56789  L 106.848444 299.261445  L 112.351063 298.786799  L 117.853683 298.06747  L 123.356302 297.000982  L 128.858921 295.454404  L 134.361541 293.261188  L 139.86416 290.220469  L 145.36678 286.100173  L 150.869399 280.645246  L 156.372018 273.592152  L 161.874638 264.690155  L 167.377257 253.729076  L 172.879877 240.572038  L 178.382496 225.190383  L 183.885116 207.696742  L 189.387735 188.37133  L 194.890354 167.676263  L 200.392974 146.25325  L 205.895593 124.901545  L 211.398213 104.535326  L 216.900832 86.122634  L 222.403451 70.610966  L 227.906071 58.847246  L 233.40869 51.501452  L 238.91131 49.003472  L 244.413929 51.501452  L 249.916549 58.847246  L 255.419168 70.610966  L 260.921787 86.122634  L 266.424407 104.535326  L 271.927026 124.901545  L 277.429646 146.25325  L 282.932265 167.676263  L 288.434884 188.37133  L 293.937504 207.696742  L 299.440123 225.190383  L 304.942743 240.572038  L 310.445362 253.729076  L 315.947982 264.690155  L 321.450601 273.592152  L 326.95322 280.645246  L 332.45584 286.100173  L 337.958459 290.220469  L 343.461079 293.261188  L 348.963698 295.454404  L 354.466317 297.000982  L 359.968937 298.06747  L 365.471556 298.786799  L 370.974176 299.261445  L 376.476795 299.56789  L 381.979414 299.761505  L 387.482034 299.88123  L 392.984653 299.953698  L 398.487273 299.996637  "
           style="fill:none;stroke:#dc143c;stroke-linecap:square;stroke-width:4;"
           id="path146" />
      </g>
      <g
         id="patch_3">
        <path
           d="M 57.6 307.584  L 57.6 41.472  "
           style="fill:none;stroke:#000000;stroke-linecap:square;stroke-linejoin:miter;stroke-width:0.8;"
           id="path149" />
      </g>
      <g
         id="patch_4">
        <path
           d="M 414.72 307.584  L 414.72 41.472  "
           style="fill:none;stroke:#000000;stroke-linecap:square;stroke-linejoin:miter;stroke-width:0.8;"
           id="path152" />
      </g>
      <g
         id="patch_5">
        <path
           d="M 57.6 307.584  L 414.72 307.584  "
           style="fill:none;stroke:#000000;stroke-linecap:square;stroke-linejoin:miter;stroke-width:0.8;"
           id="path155" />
      </g>
      <g
         id="patch_6">
        <path
           d="M 57.6 41.472  L 414.72 41.472  "
           style="fill:none;stroke:#000000;stroke-linecap:square;stroke-linejoin:miter;stroke-width:0.8;"
           id="path158" />
      </g>
      <g
         id="text_5">
        <!-- t = 0 -->
        <g
           transform="translate(377.044219 35.472)scale(0.15 -0.15)"
           id="g174">
          <defs
             id="defs162">
            <path
               d="M 10.59375 45.21875  L 73.1875 45.21875  L 73.1875 37.40625  L 10.59375 37.40625  z M 10.59375 25.296875  L 73.1875 25.296875  L 73.1875 17.484375  L 10.59375 17.484375  z "
               id="DejaVuSerif-61" />
          </defs>
          <use
             xlink:href="#DejaVuSerif-116"
             id="use164" />
          <use
             x="40.185547"
             xlink:href="#DejaVuSerif-32"
             id="use166" />
          <use
             x="71.972656"
             xlink:href="#DejaVuSerif-61"
             id="use168" />
          <use
             x="155.761719"
             xlink:href="#DejaVuSerif-32"
             id="use170" />
          <use
             x="187.548828"
             xlink:href="#DejaVuSerif-48"
             id="use172" />
        </g>
      </g>
      <g
         id="legend_1">
        <g
           id="patch_7">
          <path
             d="M 175.210485 34.09119  L 246.68736 34.09119  Q 249.08736 34.09119 249.08736 31.69119  L 249.08736 15.27744  Q 249.08736 12.87744 246.68736 12.87744  L 175.210485 12.87744  Q 172.810485 12.87744 172.810485 15.27744  L 172.810485 31.69119  Q 172.810485 34.09119 175.210485 34.09119  z "
             style="fill:#ffffff;opacity:0.8;stroke:#cccccc;stroke-linejoin:miter;"
             id="path177" />
        </g>
        <g
           id="line2d_13">
          <path
             d="M 177.610485 22.595565  L 201.610485 22.595565  "
             style="fill:none;stroke:#dc143c;stroke-linecap:square;stroke-width:4;"
             id="path180" />
        </g>
        <g
           id="line2d_14" />
        <g
           id="text_6">
          <!-- Drive -->
          <g
             transform="translate(211.210485 26.795565)scale(0.12 -0.12)"
             id="g199">
            <defs
               id="defs187">
              <path
                 d="M 24.703125 5.171875  L 33.796875 5.171875  Q 48 5.171875 55.59375 13.28125  Q 63.1875 21.390625 63.1875 36.53125  Q 63.1875 51.65625 55.609375 59.65625  Q 48.046875 67.671875 33.796875 67.671875  L 24.703125 67.671875  z M 5.515625 0  L 5.515625 5.171875  L 14.796875 5.171875  L 14.796875 67.671875  L 5.515625 67.671875  L 5.515625 72.90625  L 34.515625 72.90625  Q 53.375 72.90625 63.890625 63.28125  Q 74.421875 53.65625 74.421875 36.53125  Q 74.421875 19.34375 63.875 9.671875  Q 53.328125 0 34.515625 0  z "
                 id="DejaVuSerif-68" />
              <path
                 d="M 47.796875 52  L 47.796875 39.015625  L 42.625 39.015625  Q 42.390625 42.875 40.484375 44.78125  Q 38.578125 46.6875 34.90625 46.6875  Q 28.265625 46.6875 24.71875 42.09375  Q 21.1875 37.5 21.1875 28.90625  L 21.1875 5.171875  L 31.59375 5.171875  L 31.59375 0  L 4.109375 0  L 4.109375 5.171875  L 12.203125 5.171875  L 12.203125 46.78125  L 3.609375 46.78125  L 3.609375 51.90625  L 21.1875 51.90625  L 21.1875 42.671875  Q 23.828125 48.09375 27.96875 50.703125  Q 32.125 53.328125 38.09375 53.328125  Q 40.28125 53.328125 42.703125 52.984375  Q 45.125 52.640625 47.796875 52  z "
                 id="DejaVuSerif-114" />
              <path
                 d="M 24.703125 0  L 5.609375 46.6875  L -0.296875 46.6875  L -0.296875 51.90625  L 23.578125 51.90625  L 23.578125 46.6875  L 15.28125 46.6875  L 29.890625 10.984375  L 44.484375 46.6875  L 36.71875 46.6875  L 36.71875 51.90625  L 56.203125 51.90625  L 56.203125 46.6875  L 50.390625 46.6875  L 31.296875 0  z "
                 id="DejaVuSerif-118" />
            </defs>
            <use
               xlink:href="#DejaVuSerif-68"
               id="use189" />
            <use
               x="80.175781"
               xlink:href="#DejaVuSerif-114"
               id="use191" />
            <use
               x="127.978516"
               xlink:href="#DejaVuSerif-105"
               id="use193" />
            <use
               x="159.960938"
               xlink:href="#DejaVuSerif-118"
               id="use195" />
            <use
               x="216.455078"
               xlink:href="#DejaVuSerif-101"
               id="use197" />
          </g>
        </g>
      </g>
    </g>
  </g>
  <path
     inkscape:connector-curvature="0"
     style="fill:#666666;fill-opacity:1;stroke:#888888;stroke-width:2.12248;stroke-linecap:butt;stroke-linejoin:round;stroke-miterlimit:4;stroke-dasharray:none;stroke-opacity:1"
     d="m 332.3143,151.94824 c -1.08836,2.1e-4 -2.17565,0.41611 -3.00935,1.25047 l -0.97045,0.97047 c -1.66742,1.66833 -1.66559,4.35398 0.003,6.02135 l 6.39106,6.38839 h -32.78452 c -2.13425,0 -3.85201,1.71781 -3.85201,3.852 v 1.24239 c 0,2.13424 1.71776,3.852 3.85201,3.852 h 33.0346 l -6.63571,6.63847 c -1.66744,1.66832 -1.66827,4.35394 0,6.02135 l 0.97318,0.97321 c 1.66827,1.66748 4.35393,1.66284 6.02136,-0.005 l 13.98916,-13.9972 h 0.003 l 0.97324,-0.97326 c 1.66737,-1.66822 1.6628,-4.35393 -0.005,-6.02135 l -0.96754,-0.97027 -14.00276,-13.99462 c -0.8341,-0.83368 -1.92367,-1.24801 -3.01203,-1.24774 z"
     id="rect30238-4-4" />
  <path
     inkscape:connector-curvature="0"
     style="fill:#666666;fill-opacity:1;stroke:#888888;stroke-width:2.12248;stroke-linecap:butt;stroke-linejoin:round;stroke-miterlimit:4;stroke-dasharray:none;stroke-opacity:1"
     d="m 145.60853,190.39787 c 1.08836,-2.1e-4 2.17565,-0.41611 3.00935,-1.25047 l 0.97045,-0.97047 c 1.66742,-1.66833 1.66559,-4.35398 -0.003,-6.02135 l -6.39106,-6.38839 h 32.78452 c 2.13425,0 3.85201,-1.71781 3.85201,-3.852 v -1.24239 c 0,-2.13424 -1.71776,-3.852 -3.85201,-3.852 h -33.0346 l 6.63571,-6.63847 c 1.66744,-1.66832 1.66827,-4.35394 0,-6.02135 l -0.97318,-0.97321 c -1.66827,-1.66748 -4.35393,-1.66284 -6.02136,0.005 l -13.98916,13.9972 h -0.003 l -0.97324,0.97326 c -1.66737,1.66822 -1.6628,4.35393 0.005,6.02135 l 0.96754,0.97027 14.00276,13.99462 c 0.8341,0.83368 1.92367,1.24801 3.01203,1.24774 z"
     id="rect30238-4-4-3" />
  <defs
     id="defs208">
    <clipPath
       id="p2cdcfbb2fc">
      <rect
         height="266.112"
         width="357.12"
         x="57.6"
         y="41.472"
         id="rect205" />
    </clipPath>
  </defs>
</svg>
