<?xml version="1.0" encoding="utf-8" standalone="no"?>
<!DOCTYPE svg PUBLIC "-//W3C//DTD SVG 1.1//EN"
  "http://www.w3.org/Graphics/SVG/1.1/DTD/svg11.dtd">
<!-- Created with matplotlib (https://matplotlib.org/) -->
<svg height="345.6pt" version="1.1" viewBox="0 0 460.8 345.6" width="460.8pt" xmlns="http://www.w3.org/2000/svg" xmlns:xlink="http://www.w3.org/1999/xlink">
 <metadata>
  <rdf:RDF xmlns:cc="http://creativecommons.org/ns#" xmlns:dc="http://purl.org/dc/elements/1.1/" xmlns:rdf="http://www.w3.org/1999/02/22-rdf-syntax-ns#">
   <cc:Work>
    <dc:type rdf:resource="http://purl.org/dc/dcmitype/StillImage"/>
    <dc:date>2023-01-13T15:05:07.831357</dc:date>
    <dc:format>image/svg+xml</dc:format>
    <dc:creator>
     <cc:Agent>
      <dc:title>Matplotlib v3.3.4, https://matplotlib.org/</dc:title>
     </cc:Agent>
    </dc:creator>
   </cc:Work>
  </rdf:RDF>
 </metadata>
 <defs>
  <style type="text/css">*{stroke-linecap:butt;stroke-linejoin:round;}</style>
 </defs>
 <g id="figure_1">
  <g id="patch_1">
   <path d="M 0 345.6 
L 460.8 345.6 
L 460.8 0 
L 0 0 
z
" style="fill:#ffffff;"/>
  </g>
  <g id="axes_1">
   <g id="patch_2">
    <path d="M 57.6 307.584 
L 414.72 307.584 
L 414.72 41.472 
L 57.6 41.472 
z
" style="fill:#ffffff;"/>
   </g>
   <g id="matplotlib.axis_1">
    <g id="xtick_1">
     <g id="line2d_1">
      <defs>
       <path d="M 0 0 
L 0 3.5 
" id="m6485667251" style="stroke:#000000;stroke-width:0.8;"/>
      </defs>
      <g>
       <use style="stroke:#000000;stroke-width:0.8;" x="72.692445" xlink:href="#m6485667251" y="307.584"/>
      </g>
     </g>
     <g id="text_1">
      <!-- 0 -->
      <g transform="translate(69.511195 322.182437)scale(0.1 -0.1)">
       <defs>
        <path d="M 31.78125 3.421875 
Q 39.265625 3.421875 42.96875 11.625 
Q 46.6875 19.828125 46.6875 36.375 
Q 46.6875 52.984375 42.96875 61.1875 
Q 39.265625 69.390625 31.78125 69.390625 
Q 24.3125 69.390625 20.59375 61.1875 
Q 16.890625 52.984375 16.890625 36.375 
Q 16.890625 19.828125 20.59375 11.625 
Q 24.3125 3.421875 31.78125 3.421875 
z
M 31.78125 -1.421875 
Q 19.921875 -1.421875 13.25 8.53125 
Q 6.59375 18.5 6.59375 36.375 
Q 6.59375 54.296875 13.25 64.25 
Q 19.921875 74.21875 31.78125 74.21875 
Q 43.703125 74.21875 50.34375 64.25 
Q 56.984375 54.296875 56.984375 36.375 
Q 56.984375 18.5 50.34375 8.53125 
Q 43.703125 -1.421875 31.78125 -1.421875 
z
" id="DejaVuSerif-48"/>
       </defs>
       <use xlink:href="#DejaVuSerif-48"/>
      </g>
     </g>
    </g>
    <g id="xtick_2">
     <g id="line2d_2">
      <g>
       <use style="stroke:#000000;stroke-width:0.8;" x="137.851411" xlink:href="#m6485667251" y="307.584"/>
      </g>
     </g>
     <g id="text_2">
      <!-- 200 -->
      <g transform="translate(128.307661 322.182437)scale(0.1 -0.1)">
       <defs>
        <path d="M 12.796875 55.515625 
L 7.328125 55.515625 
L 7.328125 68.5 
Q 12.546875 71.296875 17.84375 72.75 
Q 23.140625 74.21875 28.21875 74.21875 
Q 39.59375 74.21875 46.1875 68.703125 
Q 52.78125 63.1875 52.78125 53.71875 
Q 52.78125 43.015625 37.84375 28.125 
Q 36.671875 27 36.078125 26.421875 
L 17.671875 8.015625 
L 48.09375 8.015625 
L 48.09375 17 
L 53.8125 17 
L 53.8125 0 
L 6.78125 0 
L 6.78125 5.328125 
L 28.90625 27.390625 
Q 36.234375 34.71875 39.359375 40.84375 
Q 42.484375 46.96875 42.484375 53.71875 
Q 42.484375 61.078125 38.640625 65.234375 
Q 34.8125 69.390625 28.078125 69.390625 
Q 21.09375 69.390625 17.28125 65.921875 
Q 13.484375 62.453125 12.796875 55.515625 
z
" id="DejaVuSerif-50"/>
       </defs>
       <use xlink:href="#DejaVuSerif-50"/>
       <use x="63.623047" xlink:href="#DejaVuSerif-48"/>
       <use x="127.246094" xlink:href="#DejaVuSerif-48"/>
      </g>
     </g>
    </g>
    <g id="xtick_3">
     <g id="line2d_3">
      <g>
       <use style="stroke:#000000;stroke-width:0.8;" x="203.010376" xlink:href="#m6485667251" y="307.584"/>
      </g>
     </g>
     <g id="text_3">
      <!-- 400 -->
      <g transform="translate(193.466626 322.182437)scale(0.1 -0.1)">
       <defs>
        <path d="M 34.90625 24.703125 
L 34.90625 63.484375 
L 10.015625 24.703125 
z
M 56.390625 0 
L 23.1875 0 
L 23.1875 5.171875 
L 34.90625 5.171875 
L 34.90625 19.484375 
L 3.078125 19.484375 
L 3.078125 24.8125 
L 35.015625 74.21875 
L 44.671875 74.21875 
L 44.671875 24.703125 
L 58.59375 24.703125 
L 58.59375 19.484375 
L 44.671875 19.484375 
L 44.671875 5.171875 
L 56.390625 5.171875 
z
" id="DejaVuSerif-52"/>
       </defs>
       <use xlink:href="#DejaVuSerif-52"/>
       <use x="63.623047" xlink:href="#DejaVuSerif-48"/>
       <use x="127.246094" xlink:href="#DejaVuSerif-48"/>
      </g>
     </g>
    </g>
    <g id="xtick_4">
     <g id="line2d_4">
      <g>
       <use style="stroke:#000000;stroke-width:0.8;" x="268.169342" xlink:href="#m6485667251" y="307.584"/>
      </g>
     </g>
     <g id="text_4">
      <!-- 600 -->
      <g transform="translate(258.625592 322.182437)scale(0.1 -0.1)">
       <defs>
        <path d="M 32.71875 3.421875 
Q 39.59375 3.421875 43.296875 8.46875 
Q 47.015625 13.53125 47.015625 23 
Q 47.015625 32.46875 43.296875 37.515625 
Q 39.59375 42.578125 32.71875 42.578125 
Q 25.734375 42.578125 22.0625 37.6875 
Q 18.40625 32.8125 18.40625 23.578125 
Q 18.40625 13.875 22.109375 8.640625 
Q 25.828125 3.421875 32.71875 3.421875 
z
M 16.796875 40.140625 
Q 20.125 43.796875 24.3125 45.59375 
Q 28.515625 47.40625 33.796875 47.40625 
Q 44.671875 47.40625 51 40.859375 
Q 57.328125 34.328125 57.328125 23 
Q 57.328125 11.921875 50.515625 5.25 
Q 43.703125 -1.421875 32.328125 -1.421875 
Q 19.96875 -1.421875 13.328125 7.78125 
Q 6.6875 17 6.6875 34.078125 
Q 6.6875 53.21875 14.546875 63.71875 
Q 22.40625 74.21875 36.71875 74.21875 
Q 40.578125 74.21875 44.828125 73.484375 
Q 49.078125 72.75 53.515625 71.296875 
L 53.515625 59.28125 
L 48 59.28125 
Q 47.40625 64.203125 44.234375 66.796875 
Q 41.0625 69.390625 35.6875 69.390625 
Q 26.21875 69.390625 21.578125 62.203125 
Q 16.9375 55.03125 16.796875 40.140625 
z
" id="DejaVuSerif-54"/>
       </defs>
       <use xlink:href="#DejaVuSerif-54"/>
       <use x="63.623047" xlink:href="#DejaVuSerif-48"/>
       <use x="127.246094" xlink:href="#DejaVuSerif-48"/>
      </g>
     </g>
    </g>
    <g id="xtick_5">
     <g id="line2d_5">
      <g>
       <use style="stroke:#000000;stroke-width:0.8;" x="333.328307" xlink:href="#m6485667251" y="307.584"/>
      </g>
     </g>
     <g id="text_5">
      <!-- 800 -->
      <g transform="translate(323.784557 322.182437)scale(0.1 -0.1)">
       <defs>
        <path d="M 46.578125 19.921875 
Q 46.578125 27.734375 42.6875 32.046875 
Q 38.8125 36.375 31.78125 36.375 
Q 24.75 36.375 20.875 32.046875 
Q 17 27.734375 17 19.921875 
Q 17 12.0625 20.875 7.734375 
Q 24.75 3.421875 31.78125 3.421875 
Q 38.8125 3.421875 42.6875 7.734375 
Q 46.578125 12.0625 46.578125 19.921875 
z
M 44.578125 55.328125 
Q 44.578125 61.96875 41.203125 65.671875 
Q 37.84375 69.390625 31.78125 69.390625 
Q 25.78125 69.390625 22.390625 65.671875 
Q 19 61.96875 19 55.328125 
Q 19 48.640625 22.390625 44.921875 
Q 25.78125 41.21875 31.78125 41.21875 
Q 37.84375 41.21875 41.203125 44.921875 
Q 44.578125 48.640625 44.578125 55.328125 
z
M 39.3125 38.8125 
Q 47.609375 37.703125 52.25 32.6875 
Q 56.890625 27.6875 56.890625 19.921875 
Q 56.890625 9.671875 50.390625 4.125 
Q 43.890625 -1.421875 31.78125 -1.421875 
Q 19.734375 -1.421875 13.203125 4.125 
Q 6.6875 9.671875 6.6875 19.921875 
Q 6.6875 27.6875 11.328125 32.6875 
Q 15.96875 37.703125 24.3125 38.8125 
Q 16.9375 40.140625 13 44.40625 
Q 9.078125 48.6875 9.078125 55.328125 
Q 9.078125 64.109375 15.125 69.15625 
Q 21.1875 74.21875 31.78125 74.21875 
Q 42.390625 74.21875 48.4375 69.15625 
Q 54.5 64.109375 54.5 55.328125 
Q 54.5 48.6875 50.5625 44.40625 
Q 46.625 40.140625 39.3125 38.8125 
z
" id="DejaVuSerif-56"/>
       </defs>
       <use xlink:href="#DejaVuSerif-56"/>
       <use x="63.623047" xlink:href="#DejaVuSerif-48"/>
       <use x="127.246094" xlink:href="#DejaVuSerif-48"/>
      </g>
     </g>
    </g>
    <g id="xtick_6">
     <g id="line2d_6">
      <g>
       <use style="stroke:#000000;stroke-width:0.8;" x="398.487273" xlink:href="#m6485667251" y="307.584"/>
      </g>
     </g>
     <g id="text_6">
      <!-- 1000 -->
      <g transform="translate(385.762273 322.182437)scale(0.1 -0.1)">
       <defs>
        <path d="M 14.203125 0 
L 14.203125 5.171875 
L 26.90625 5.171875 
L 26.90625 65.828125 
L 12.203125 56.296875 
L 12.203125 62.703125 
L 29.984375 74.21875 
L 36.71875 74.21875 
L 36.71875 5.171875 
L 49.421875 5.171875 
L 49.421875 0 
z
" id="DejaVuSerif-49"/>
       </defs>
       <use xlink:href="#DejaVuSerif-49"/>
       <use x="63.623047" xlink:href="#DejaVuSerif-48"/>
       <use x="127.246094" xlink:href="#DejaVuSerif-48"/>
       <use x="190.869141" xlink:href="#DejaVuSerif-48"/>
      </g>
     </g>
    </g>
    <g id="text_7">
     <!-- Time -->
     <g transform="translate(223.524844 335.860562)scale(0.1 -0.1)">
      <defs>
       <path d="M 19.09375 0 
L 19.09375 5.171875 
L 28.421875 5.171875 
L 28.421875 67.09375 
L 6.984375 67.09375 
L 6.984375 55.71875 
L 0.984375 55.71875 
L 0.984375 72.90625 
L 65.71875 72.90625 
L 65.71875 55.71875 
L 59.71875 55.71875 
L 59.71875 67.09375 
L 38.28125 67.09375 
L 38.28125 5.171875 
L 47.609375 5.171875 
L 47.609375 0 
z
" id="DejaVuSerif-84"/>
       <path d="M 9.71875 68.015625 
Q 9.71875 70.265625 11.34375 71.921875 
Q 12.984375 73.578125 15.28125 73.578125 
Q 17.53125 73.578125 19.15625 71.921875 
Q 20.796875 70.265625 20.796875 68.015625 
Q 20.796875 65.71875 19.1875 64.109375 
Q 17.578125 62.5 15.28125 62.5 
Q 12.984375 62.5 11.34375 64.109375 
Q 9.71875 65.71875 9.71875 68.015625 
z
M 21.1875 5.171875 
L 29.6875 5.171875 
L 29.6875 0 
L 3.609375 0 
L 3.609375 5.171875 
L 12.203125 5.171875 
L 12.203125 46.6875 
L 3.609375 46.6875 
L 3.609375 51.90625 
L 21.1875 51.90625 
z
" id="DejaVuSerif-105"/>
       <path d="M 51.8125 41.796875 
Q 54.390625 47.515625 58.421875 50.421875 
Q 62.453125 53.328125 67.828125 53.328125 
Q 75.984375 53.328125 79.984375 48.265625 
Q 83.984375 43.21875 83.984375 33.015625 
L 83.984375 5.171875 
L 92.09375 5.171875 
L 92.09375 0 
L 67.1875 0 
L 67.1875 5.171875 
L 75 5.171875 
L 75 31.984375 
Q 75 39.9375 72.65625 43.3125 
Q 70.3125 46.6875 64.890625 46.6875 
Q 58.890625 46.6875 55.734375 42.140625 
Q 52.59375 37.59375 52.59375 28.90625 
L 52.59375 5.171875 
L 60.40625 5.171875 
L 60.40625 0 
L 35.796875 0 
L 35.796875 5.171875 
L 43.609375 5.171875 
L 43.609375 32.328125 
Q 43.609375 40.09375 41.265625 43.390625 
Q 38.921875 46.6875 33.5 46.6875 
Q 27.484375 46.6875 24.328125 42.140625 
Q 21.1875 37.59375 21.1875 28.90625 
L 21.1875 5.171875 
L 29 5.171875 
L 29 0 
L 4.109375 0 
L 4.109375 5.171875 
L 12.203125 5.171875 
L 12.203125 46.78125 
L 3.609375 46.78125 
L 3.609375 51.90625 
L 21.1875 51.90625 
L 21.1875 42.671875 
Q 23.6875 47.859375 27.53125 50.59375 
Q 31.390625 53.328125 36.28125 53.328125 
Q 42.328125 53.328125 46.375 50.3125 
Q 50.4375 47.3125 51.8125 41.796875 
z
" id="DejaVuSerif-109"/>
       <path d="M 54.203125 25 
L 15.484375 25 
L 15.484375 24.609375 
Q 15.484375 14.109375 19.4375 8.765625 
Q 23.390625 3.421875 31.109375 3.421875 
Q 37.015625 3.421875 40.796875 6.515625 
Q 44.578125 9.625 46.09375 15.71875 
L 53.328125 15.71875 
Q 51.171875 7.171875 45.375 2.875 
Q 39.59375 -1.421875 30.171875 -1.421875 
Q 18.796875 -1.421875 11.890625 6.078125 
Q 4.984375 13.578125 4.984375 25.984375 
Q 4.984375 38.28125 11.765625 45.796875 
Q 18.5625 53.328125 29.59375 53.328125 
Q 41.359375 53.328125 47.65625 46.0625 
Q 53.953125 38.8125 54.203125 25 
z
M 43.609375 30.171875 
Q 43.3125 39.265625 39.765625 43.875 
Q 36.234375 48.484375 29.59375 48.484375 
Q 23.390625 48.484375 19.828125 43.84375 
Q 16.265625 39.203125 15.484375 30.171875 
z
" id="DejaVuSerif-101"/>
      </defs>
      <use xlink:href="#DejaVuSerif-84"/>
      <use x="66.699219" xlink:href="#DejaVuSerif-105"/>
      <use x="98.681641" xlink:href="#DejaVuSerif-109"/>
      <use x="193.505859" xlink:href="#DejaVuSerif-101"/>
     </g>
    </g>
   </g>
   <g id="matplotlib.axis_2">
    <g id="ytick_1">
     <g id="line2d_7">
      <defs>
       <path d="M 0 0 
L -3.5 0 
" id="mb6d6be4980" style="stroke:#000000;stroke-width:0.8;"/>
      </defs>
      <g>
       <use style="stroke:#000000;stroke-width:0.8;" x="57.6" xlink:href="#mb6d6be4980" y="274.752"/>
      </g>
     </g>
     <g id="text_8">
      <!-- −0.6 -->
      <g transform="translate(26.317187 278.551219)scale(0.1 -0.1)">
       <defs>
        <path d="M 10.59375 35.296875 
L 73.1875 35.296875 
L 73.1875 27.390625 
L 10.59375 27.390625 
z
" id="DejaVuSerif-8722"/>
        <path d="M 9.421875 5.078125 
Q 9.421875 7.8125 11.28125 9.71875 
Q 13.140625 11.625 15.921875 11.625 
Q 18.609375 11.625 20.5 9.71875 
Q 22.40625 7.8125 22.40625 5.078125 
Q 22.40625 2.390625 20.5 0.484375 
Q 18.609375 -1.421875 15.921875 -1.421875 
Q 13.140625 -1.421875 11.28125 0.453125 
Q 9.421875 2.34375 9.421875 5.078125 
z
" id="DejaVuSerif-46"/>
       </defs>
       <use xlink:href="#DejaVuSerif-8722"/>
       <use x="83.789062" xlink:href="#DejaVuSerif-48"/>
       <use x="147.412109" xlink:href="#DejaVuSerif-46"/>
       <use x="179.199219" xlink:href="#DejaVuSerif-54"/>
      </g>
     </g>
    </g>
    <g id="ytick_2">
     <g id="line2d_8">
      <g>
       <use style="stroke:#000000;stroke-width:0.8;" x="57.6" xlink:href="#mb6d6be4980" y="237.888"/>
      </g>
     </g>
     <g id="text_9">
      <!-- −0.5 -->
      <g transform="translate(26.317187 241.687219)scale(0.1 -0.1)">
       <defs>
        <path d="M 50.296875 72.90625 
L 50.296875 64.890625 
L 16.890625 64.890625 
L 16.890625 44 
Q 19.4375 45.75 22.828125 46.625 
Q 26.21875 47.515625 30.421875 47.515625 
Q 42.234375 47.515625 49.0625 40.96875 
Q 55.90625 34.421875 55.90625 23.09375 
Q 55.90625 11.53125 49 5.046875 
Q 42.09375 -1.421875 29.59375 -1.421875 
Q 24.5625 -1.421875 19.28125 -0.1875 
Q 14.015625 1.03125 8.5 3.515625 
L 8.5 17.671875 
L 14.015625 17.671875 
Q 14.453125 10.75 18.421875 7.078125 
Q 22.40625 3.421875 29.59375 3.421875 
Q 37.3125 3.421875 41.453125 8.5 
Q 45.609375 13.578125 45.609375 23.09375 
Q 45.609375 32.5625 41.484375 37.609375 
Q 37.359375 42.671875 29.59375 42.671875 
Q 25.203125 42.671875 21.84375 41.109375 
Q 18.5 39.546875 15.921875 36.28125 
L 11.71875 36.28125 
L 11.71875 72.90625 
z
" id="DejaVuSerif-53"/>
       </defs>
       <use xlink:href="#DejaVuSerif-8722"/>
       <use x="83.789062" xlink:href="#DejaVuSerif-48"/>
       <use x="147.412109" xlink:href="#DejaVuSerif-46"/>
       <use x="179.199219" xlink:href="#DejaVuSerif-53"/>
      </g>
     </g>
    </g>
    <g id="ytick_3">
     <g id="line2d_9">
      <g>
       <use style="stroke:#000000;stroke-width:0.8;" x="57.6" xlink:href="#mb6d6be4980" y="201.024"/>
      </g>
     </g>
     <g id="text_10">
      <!-- −0.4 -->
      <g transform="translate(26.317187 204.823219)scale(0.1 -0.1)">
       <use xlink:href="#DejaVuSerif-8722"/>
       <use x="83.789062" xlink:href="#DejaVuSerif-48"/>
       <use x="147.412109" xlink:href="#DejaVuSerif-46"/>
       <use x="179.199219" xlink:href="#DejaVuSerif-52"/>
      </g>
     </g>
    </g>
    <g id="ytick_4">
     <g id="line2d_10">
      <g>
       <use style="stroke:#000000;stroke-width:0.8;" x="57.6" xlink:href="#mb6d6be4980" y="164.16"/>
      </g>
     </g>
     <g id="text_11">
      <!-- −0.3 -->
      <g transform="translate(26.317187 167.959219)scale(0.1 -0.1)">
       <defs>
        <path d="M 9.71875 69.828125 
Q 15.4375 71.96875 20.671875 73.09375 
Q 25.921875 74.21875 30.515625 74.21875 
Q 41.21875 74.21875 47.21875 69.59375 
Q 53.21875 64.984375 53.21875 56.78125 
Q 53.21875 50.203125 49.0625 45.78125 
Q 44.921875 41.359375 37.3125 39.796875 
Q 46.296875 38.53125 51.25 33.28125 
Q 56.203125 28.03125 56.203125 19.671875 
Q 56.203125 9.46875 49.34375 4.015625 
Q 42.484375 -1.421875 29.59375 -1.421875 
Q 23.875 -1.421875 18.421875 -0.1875 
Q 12.984375 1.03125 7.625 3.515625 
L 7.625 17.671875 
L 13.09375 17.671875 
Q 13.578125 10.640625 17.828125 7.03125 
Q 22.078125 3.421875 29.78125 3.421875 
Q 37.25 3.421875 41.578125 7.734375 
Q 45.90625 12.0625 45.90625 19.578125 
Q 45.90625 28.171875 41.453125 32.59375 
Q 37.015625 37.015625 28.421875 37.015625 
L 23.78125 37.015625 
L 23.78125 42 
L 26.21875 42 
Q 34.765625 42 39.03125 45.53125 
Q 43.3125 49.078125 43.3125 56.203125 
Q 43.3125 62.59375 39.796875 65.984375 
Q 36.28125 69.390625 29.6875 69.390625 
Q 23.09375 69.390625 19.453125 66.265625 
Q 15.828125 63.140625 15.1875 56.984375 
L 9.71875 56.984375 
z
" id="DejaVuSerif-51"/>
       </defs>
       <use xlink:href="#DejaVuSerif-8722"/>
       <use x="83.789062" xlink:href="#DejaVuSerif-48"/>
       <use x="147.412109" xlink:href="#DejaVuSerif-46"/>
       <use x="179.199219" xlink:href="#DejaVuSerif-51"/>
      </g>
     </g>
    </g>
    <g id="ytick_5">
     <g id="line2d_11">
      <g>
       <use style="stroke:#000000;stroke-width:0.8;" x="57.6" xlink:href="#mb6d6be4980" y="127.296"/>
      </g>
     </g>
     <g id="text_12">
      <!-- −0.2 -->
      <g transform="translate(26.317187 131.095219)scale(0.1 -0.1)">
       <use xlink:href="#DejaVuSerif-8722"/>
       <use x="83.789062" xlink:href="#DejaVuSerif-48"/>
       <use x="147.412109" xlink:href="#DejaVuSerif-46"/>
       <use x="179.199219" xlink:href="#DejaVuSerif-50"/>
      </g>
     </g>
    </g>
    <g id="ytick_6">
     <g id="line2d_12">
      <g>
       <use style="stroke:#000000;stroke-width:0.8;" x="57.6" xlink:href="#mb6d6be4980" y="90.432"/>
      </g>
     </g>
     <g id="text_13">
      <!-- −0.1 -->
      <g transform="translate(26.317187 94.231219)scale(0.1 -0.1)">
       <use xlink:href="#DejaVuSerif-8722"/>
       <use x="83.789062" xlink:href="#DejaVuSerif-48"/>
       <use x="147.412109" xlink:href="#DejaVuSerif-46"/>
       <use x="179.199219" xlink:href="#DejaVuSerif-49"/>
      </g>
     </g>
    </g>
    <g id="ytick_7">
     <g id="line2d_13">
      <g>
       <use style="stroke:#000000;stroke-width:0.8;" x="57.6" xlink:href="#mb6d6be4980" y="53.568"/>
      </g>
     </g>
     <g id="text_14">
      <!-- 0.0 -->
      <g transform="translate(34.696875 57.367219)scale(0.1 -0.1)">
       <use xlink:href="#DejaVuSerif-48"/>
       <use x="63.623047" xlink:href="#DejaVuSerif-46"/>
       <use x="95.410156" xlink:href="#DejaVuSerif-48"/>
      </g>
     </g>
    </g>
    <g id="text_15">
     <!-- Speed -->
     <g transform="translate(20.2375 190.273313)rotate(-90)scale(0.1 -0.1)">
      <defs>
       <path d="M 9.28125 3.515625 
L 9.28125 20.125 
L 14.890625 20.0625 
Q 15.140625 11.765625 19.703125 7.78125 
Q 24.265625 3.8125 33.59375 3.8125 
Q 42.28125 3.8125 46.84375 7.25 
Q 51.421875 10.6875 51.421875 17.28125 
Q 51.421875 22.5625 48.65625 25.390625 
Q 45.90625 28.21875 37.015625 30.90625 
L 27.390625 33.796875 
Q 16.9375 36.96875 12.671875 41.703125 
Q 8.40625 46.4375 8.40625 54.6875 
Q 8.40625 63.96875 14.984375 69.09375 
Q 21.578125 74.21875 33.5 74.21875 
Q 38.578125 74.21875 44.625 73.109375 
Q 50.6875 72.015625 57.515625 69.921875 
L 57.515625 54.390625 
L 52 54.390625 
Q 51.171875 62.109375 46.84375 65.546875 
Q 42.53125 69 33.6875 69 
Q 25.984375 69 21.953125 65.84375 
Q 17.921875 62.703125 17.921875 56.6875 
Q 17.921875 51.46875 20.9375 48.484375 
Q 23.96875 45.515625 33.796875 42.578125 
L 42.828125 39.890625 
Q 52.734375 36.921875 56.953125 32.296875 
Q 61.1875 27.6875 61.1875 19.921875 
Q 61.1875 9.328125 54.390625 3.953125 
Q 47.609375 -1.421875 34.1875 -1.421875 
Q 28.171875 -1.421875 21.9375 -0.1875 
Q 15.71875 1.03125 9.28125 3.515625 
z
" id="DejaVuSerif-83"/>
       <path d="M 20.515625 28.515625 
L 20.515625 23.390625 
Q 20.515625 14.015625 24.09375 9.109375 
Q 27.6875 4.203125 34.515625 4.203125 
Q 41.40625 4.203125 44.9375 9.71875 
Q 48.484375 15.234375 48.484375 25.984375 
Q 48.484375 36.765625 44.9375 42.234375 
Q 41.40625 47.703125 34.515625 47.703125 
Q 27.6875 47.703125 24.09375 42.765625 
Q 20.515625 37.84375 20.515625 28.515625 
z
M 11.53125 46.6875 
L 2.875 46.6875 
L 2.875 51.90625 
L 20.515625 51.90625 
L 20.515625 43.796875 
Q 23.140625 48.6875 27.21875 51 
Q 31.296875 53.328125 37.3125 53.328125 
Q 46.875 53.328125 52.921875 45.75 
Q 58.984375 38.1875 58.984375 25.984375 
Q 58.984375 13.765625 52.921875 6.171875 
Q 46.875 -1.421875 37.3125 -1.421875 
Q 31.296875 -1.421875 27.21875 0.890625 
Q 23.140625 3.21875 20.515625 8.109375 
L 20.515625 -15.578125 
L 29 -15.578125 
L 29 -20.796875 
L 2.875 -20.796875 
L 2.875 -15.578125 
L 11.53125 -15.578125 
z
" id="DejaVuSerif-112"/>
       <path d="M 52.484375 5.171875 
L 61.078125 5.171875 
L 61.078125 0 
L 43.5 0 
L 43.5 8.109375 
Q 40.875 3.21875 36.796875 0.890625 
Q 32.71875 -1.421875 26.703125 -1.421875 
Q 17.140625 -1.421875 11.0625 6.171875 
Q 4.984375 13.765625 4.984375 25.984375 
Q 4.984375 38.1875 11.03125 45.75 
Q 17.09375 53.328125 26.703125 53.328125 
Q 32.71875 53.328125 36.796875 51 
Q 40.875 48.6875 43.5 43.796875 
L 43.5 70.796875 
L 35.015625 70.796875 
L 35.015625 75.984375 
L 52.484375 75.984375 
z
M 43.5 23.390625 
L 43.5 28.515625 
Q 43.5 37.84375 39.90625 42.765625 
Q 36.328125 47.703125 29.5 47.703125 
Q 22.5625 47.703125 19.015625 42.234375 
Q 15.484375 36.765625 15.484375 25.984375 
Q 15.484375 15.234375 19.015625 9.71875 
Q 22.5625 4.203125 29.5 4.203125 
Q 36.328125 4.203125 39.90625 9.109375 
Q 43.5 14.015625 43.5 23.390625 
z
" id="DejaVuSerif-100"/>
      </defs>
      <use xlink:href="#DejaVuSerif-83"/>
      <use x="68.505859" xlink:href="#DejaVuSerif-112"/>
      <use x="132.519531" xlink:href="#DejaVuSerif-101"/>
      <use x="191.699219" xlink:href="#DejaVuSerif-101"/>
      <use x="250.878906" xlink:href="#DejaVuSerif-100"/>
     </g>
    </g>
   </g>
   <g id="line2d_14">
    <path clip-path="url(#p57d5a71d38)" d="M 73.832727 53.568 
L 75.895009 53.568 
L 75.950394 254.644364 
L 76.005779 237.888 
L 76.220803 237.888 
L 76.383701 223.709538 
L 76.494471 223.709538 
L 76.657368 211.556571 
L 76.820266 53.568 
L 77.198188 53.568 
L 77.308958 191.808 
L 77.361085 183.676235 
L 77.579368 183.676235 
L 77.742265 176.448 
L 77.849777 176.448 
L 78.012675 169.980632 
L 78.123445 169.980632 
L 78.175572 164.16 
L 78.286343 274.752 
L 78.44924 158.893714 
L 78.664265 158.893714 
L 78.827162 154.106182 
L 78.937932 154.106182 
L 79.045445 149.734957 
L 79.208342 245.901913 
L 79.371239 237.888 
L 79.478752 237.888 
L 79.534137 230.5152 
L 79.697034 142.0416 
L 79.752419 142.0416 
L 79.804546 138.638769 
L 79.967444 223.709538 
L 80.022829 223.709538 
L 80.185726 217.408 
L 80.293239 217.408 
L 80.456136 211.556571 
L 80.511521 211.556571 
L 80.566906 290.550857 
L 80.619034 282.379034 
L 80.781931 206.10869 
L 80.837316 206.10869 
L 81.000213 201.024 
L 81.107726 201.024 
L 81.218496 196.267355 
L 81.381393 267.617032 
L 81.544291 260.928 
L 81.707188 187.618909 
L 81.922213 187.618909 
L 82.08511 248.730353 
L 82.19588 248.730353 
L 82.358778 243.154286 
L 82.410905 243.154286 
L 82.573802 176.448 
L 82.7367 237.888 
L 82.899597 232.906378 
L 83.010368 232.906378 
L 83.173265 228.186947 
L 83.280777 286.393263 
L 83.336162 280.423385 
L 83.49906 223.709538 
L 83.551187 223.709538 
L 83.714084 219.456 
L 83.824855 219.456 
L 83.987752 269.357268 
L 84.095264 269.357268 
L 84.202777 264.219429 
L 84.365674 211.556571 
L 84.421059 207.882419 
L 84.583957 259.320558 
L 84.639342 259.320558 
L 84.802239 254.644364 
L 84.909751 254.644364 
L 85.072649 250.176 
L 85.180161 250.176 
L 85.343059 245.901913 
L 85.453829 245.901913 
L 85.616726 241.809702 
L 85.724238 288.870128 
L 85.779624 283.968 
L 85.942521 237.888 
L 85.994648 237.888 
L 86.157546 234.126367 
L 86.212931 234.126367 
L 86.268316 279.265959 
L 86.320443 274.752 
L 86.538726 274.752 
L 86.594111 270.415059 
L 86.757008 227.045647 
L 86.809135 227.045647 
L 86.972033 266.244923 
L 87.082803 266.244923 
L 87.2457 262.232151 
L 87.297827 262.232151 
L 87.408598 217.408 
L 87.571495 258.368 
L 87.623622 258.368 
L 87.78652 254.644364 
L 87.89729 254.644364 
L 87.949417 251.053714 
L 88.060187 290.550857 
L 88.223085 247.589053 
L 88.438109 247.589053 
L 88.54888 244.243862 
L 88.711777 282.379034 
L 88.819289 278.500881 
L 88.982187 241.012068 
L 89.089699 237.888 
L 89.252596 274.752 
L 89.415494 271.126033 
L 89.526264 271.126033 
L 89.578391 267.617032 
L 89.689162 231.942194 
L 89.796674 267.617032 
L 89.959571 264.219429 
L 90.067084 264.219429 
L 90.229981 260.928 
L 90.285366 295.488 
L 90.340751 260.928 
L 90.503649 257.737846 
L 90.611161 257.737846 
L 90.774058 254.644364 
L 90.881571 288.157091 
L 91.044468 284.655761 
L 91.207365 248.730353 
L 91.318136 248.730353 
L 91.425648 281.257412 
L 91.588545 277.957565 
L 91.696058 277.957565 
L 91.751443 274.752 
L 91.91434 243.154286 
L 91.969725 274.752 
L 92.021852 271.636732 
L 92.240135 271.636732 
L 92.403032 268.608 
L 92.510545 268.608 
L 92.673442 265.662247 
L 92.784212 265.662247 
L 92.94711 262.796108 
L 92.999237 262.796108 
L 93.054622 292.685838 
L 93.110007 289.4976 
L 93.162134 289.4976 
L 93.325032 260.0064 
L 93.487929 257.290105 
L 93.543314 257.290105 
L 93.598699 286.393263 
L 93.650827 283.369558 
L 93.869109 283.369558 
L 93.924494 280.423385 
L 94.087392 252.066462 
L 94.139519 280.423385 
L 94.194904 277.551797 
L 94.413187 277.551797 
L 94.576084 274.752 
L 94.683596 247.104 
L 94.846494 272.021333 
L 94.954006 272.021333 
L 95.116903 269.357268 
L 95.227674 269.357268 
L 95.279801 293.406072 
L 95.442698 266.757398 
L 95.498083 266.757398 
L 95.660981 264.219429 
L 95.768493 264.219429 
L 95.93139 287.762824 
L 96.094288 259.320558 
L 96.31257 259.320558 
L 96.475468 282.379034 
L 96.58298 282.379034 
L 96.69375 279.778909 
L 96.856648 254.644364 
L 97.019545 277.237213 
L 97.127057 277.237213 
L 97.289955 274.752 
L 97.34534 274.752 
L 97.397467 250.176 
L 97.452852 272.321407 
L 97.671135 272.321407 
L 97.834032 269.943652 
L 97.941544 269.943652 
L 98.049057 291.400258 
L 98.211954 267.617032 
L 98.374852 265.339915 
L 98.485622 265.339915 
L 98.537749 263.110737 
L 98.700646 286.393263 
L 98.863544 260.928 
L 99.026441 260.928 
L 99.081826 258.790268 
L 99.244724 281.592742 
L 99.300109 281.592742 
L 99.407621 279.265959 
L 99.570519 256.696163 
L 99.625904 254.644364 
L 99.788801 276.986182 
L 99.840928 276.986182 
L 100.003826 274.752 
L 100.114596 274.752 
L 100.277493 272.562059 
L 100.385006 272.562059 
L 100.547903 270.415059 
L 100.655415 270.415059 
L 100.710801 268.309748 
L 100.818313 289.783922 
L 100.98121 266.244923 
L 101.199493 266.244923 
L 101.307005 264.219429 
L 101.469902 285.284571 
L 101.525288 283.098566 
L 101.688185 262.232151 
L 101.74357 262.232151 
L 101.851082 260.282019 
L 102.01398 280.953421 
L 102.176877 278.848 
L 102.339775 256.489101 
L 102.39516 256.489101 
L 102.558057 276.781211 
L 102.720955 274.752 
L 102.828467 274.752 
L 102.883852 272.759351 
L 102.991364 252.832865 
L 103.098877 272.759351 
L 103.261774 270.802286 
L 103.372544 270.802286 
L 103.535442 268.879858 
L 103.642954 268.879858 
L 103.805851 266.991158 
L 103.913364 266.991158 
L 104.076261 265.135304 
L 104.187031 284.368696 
L 104.239159 282.379034 
L 104.402056 263.311448 
L 104.457441 263.311448 
L 104.620338 261.518769 
L 104.675724 261.518769 
L 104.727851 280.423385 
L 104.783236 278.500881 
L 104.946133 278.500881 
L 105.109031 258.023798 
L 105.271928 258.023798 
L 105.434826 274.752 
L 105.542338 274.752 
L 105.653108 272.924033 
L 105.816005 254.644364 
L 105.978903 271.126033 
L 106.086415 271.126033 
L 106.249313 269.357268 
L 106.304698 269.357268 
L 106.41221 249.779613 
L 106.575107 267.617032 
L 106.630493 267.617032 
L 106.79339 265.90464 
L 106.900902 265.90464 
L 106.956287 264.219429 
L 107.008415 281.773714 
L 107.0638 264.219429 
L 107.171312 264.219429 
L 107.334209 262.560756 
L 107.44498 262.560756 
L 107.552492 260.928 
L 107.660004 278.208 
L 107.822902 259.320558 
L 107.985799 259.320558 
L 108.148696 257.737846 
L 108.259467 274.752 
L 108.422364 273.063573 
L 108.585262 254.644364 
L 108.748159 254.644364 
L 108.800286 271.400727 
L 108.855671 269.762887 
L 109.073954 269.762887 
L 109.126081 268.149493 
L 109.288978 251.643224 
L 109.344363 251.643224 
L 109.507261 266.56 
L 109.614773 266.56 
L 109.777671 264.993882 
L 109.940568 247.30581 
L 110.103465 263.450628 
L 110.158851 263.450628 
L 110.321748 261.929739 
L 110.42926 261.929739 
L 110.592158 260.430734 
L 110.702928 260.430734 
L 110.865825 258.953143 
L 110.973338 258.953143 
L 111.136235 257.496511 
L 111.19162 273.183319 
L 111.243747 257.496511 
L 111.406645 256.060394 
L 111.517415 256.060394 
L 111.680312 254.644364 
L 111.73244 254.644364 
L 111.787825 270.111776 
L 111.84321 268.608 
L 111.895337 268.608 
L 112.058234 253.248 
L 112.221132 251.870897 
L 112.331902 251.870897 
L 112.384029 250.512658 
L 112.546927 265.662247 
L 112.602312 265.662247 
L 112.657697 264.219429 
L 112.820594 249.172898 
L 112.872721 249.172898 
L 112.983492 247.851243 
L 113.146389 262.796108 
L 113.309287 261.391893 
L 113.361414 261.391893 
L 113.524311 245.2608 
L 113.635081 245.2608 
L 113.687209 260.0064 
L 113.742594 258.639258 
L 113.960876 258.639258 
L 114.068388 257.290105 
L 114.231286 242.738526 
L 114.286671 241.502118 
L 114.449568 255.958588 
L 114.501696 255.958588 
L 114.664593 254.644364 
L 114.775363 254.644364 
L 114.82749 253.347097 
L 114.938261 239.077161 
L 115.045773 253.347097 
L 115.20867 252.066462 
L 115.316183 252.066462 
L 115.47908 250.80214 
L 115.58985 236.713987 
L 115.752748 249.553823 
L 115.86026 249.553823 
L 116.023157 248.321208 
L 116.13067 248.321208 
L 116.293567 247.104 
L 116.404337 247.104 
L 116.567235 245.901913 
L 116.674747 245.901913 
L 116.837644 244.714667 
L 116.89303 244.714667 
L 116.945157 258.368 
L 117.000542 257.111558 
L 117.163439 243.541988 
L 117.218824 243.541988 
L 117.381722 242.38361 
L 117.489234 242.38361 
L 117.596746 241.239273 
L 117.707517 254.644364 
L 117.870414 240.108723 
L 118.033311 240.108723 
L 118.196209 238.991713 
L 118.248336 238.991713 
L 118.303721 252.236263 
L 118.359106 251.053714 
L 118.466619 251.053714 
L 118.629516 236.797349 
L 118.847799 236.797349 
L 118.955311 235.719529 
L 119.118208 248.730353 
L 119.225721 247.589053 
L 119.388618 234.654316 
L 119.551515 233.601488 
L 119.662286 233.601488 
L 119.825183 245.346035 
L 119.932695 245.346035 
L 119.98808 244.243862 
L 120.150978 231.532138 
L 120.203105 231.532138 
L 120.366002 230.5152 
L 120.476773 243.154286 
L 120.63967 242.077091 
L 120.691797 242.077091 
L 120.854695 228.515797 
L 121.017592 228.515797 
L 121.072977 227.532944 
L 121.235875 239.959011 
L 121.29126 239.959011 
L 121.454157 238.917721 
L 121.617055 225.6 
L 121.832079 225.6 
L 121.994977 236.869657 
L 122.105747 236.869657 
L 122.268644 235.862505 
L 122.431542 222.779803 
L 122.539054 222.779803 
L 122.646566 234.866361 
L 122.809464 233.881043 
L 122.920234 233.881043 
L 123.027746 232.906378 
L 123.190644 220.950486 
L 123.298156 220.050581 
L 123.461053 231.942194 
L 123.623951 230.988321 
L 123.734721 230.988321 
L 123.842233 230.044596 
L 124.005131 218.279489 
L 124.060516 217.408 
L 124.223413 229.110857 
L 124.27554 229.110857 
L 124.438438 228.186947 
L 124.549208 228.186947 
L 124.65672 227.272712 
L 124.819618 215.692398 
L 124.982515 226.368 
L 125.090027 226.368 
L 125.252925 225.472663 
L 125.363695 225.472663 
L 125.471207 224.586557 
L 125.57872 213.18532 
L 125.634105 224.586557 
L 125.68949 223.709538 
L 125.904515 223.709538 
L 126.067412 222.841469 
L 126.178182 222.841469 
L 126.285694 221.982213 
L 126.393207 210.754599 
L 126.448592 221.982213 
L 126.503977 221.131636 
L 126.719002 221.131636 
L 126.881899 220.289608 
L 126.992669 220.289608 
L 127.100182 219.456 
L 127.155567 208.3968 
L 127.207694 219.456 
L 127.263079 219.456 
L 127.425976 218.630687 
L 127.533489 218.630687 
L 127.696386 217.813545 
L 127.807156 217.813545 
L 127.914669 217.004453 
L 127.970054 206.10869 
L 128.022181 217.004453 
L 128.077566 217.004453 
L 128.240463 216.203294 
L 128.347976 216.203294 
L 128.510873 215.409951 
L 128.621643 215.409951 
L 128.784541 214.624311 
L 128.892053 214.624311 
L 129.054951 213.846261 
L 129.162463 213.846261 
L 129.32536 213.075692 
L 129.43613 213.075692 
L 129.599028 212.312498 
L 129.70654 212.312498 
L 129.869438 211.556571 
L 129.97695 211.556571 
L 130.139847 210.80781 
L 130.250618 210.80781 
L 130.413515 210.066113 
L 130.465642 220.499321 
L 130.521027 210.066113 
L 130.683925 209.33138 
L 130.791437 209.33138 
L 130.954334 208.603514 
L 131.065105 208.603514 
L 131.228002 207.882419 
L 131.335514 218.170047 
L 131.390899 217.408 
L 131.553797 207.168 
L 131.605924 207.168 
L 131.768821 206.460166 
L 131.879592 206.460166 
L 132.042489 205.758826 
L 132.150001 215.904881 
L 132.257514 215.163616 
L 132.420411 205.06389 
L 132.583308 204.375273 
L 132.694079 204.375273 
L 132.856976 203.692887 
L 132.964488 213.701213 
L 133.127386 212.979892 
L 133.290283 202.346475 
L 133.508566 202.346475 
L 133.671463 201.682286 
L 133.778976 211.556571 
L 133.941873 210.8544 
L 134.049385 210.8544 
L 134.10477 210.158442 
L 134.267668 200.37154 
L 134.323053 200.37154 
L 134.48595 199.724828 
L 134.593463 209.468617 
L 134.75636 208.784842 
L 134.863872 208.784842 
L 134.974643 208.107039 
L 135.13754 198.448349 
L 135.300437 197.818435 
L 135.40795 207.43513 
L 135.570847 206.769039 
L 135.678359 206.769039 
L 135.841257 206.10869 
L 135.896642 206.10869 
L 136.059539 195.961133 
L 136.114924 195.961133 
L 136.222437 205.454009 
L 136.385334 204.804923 
L 136.492846 204.804923 
L 136.655744 204.161362 
L 136.766514 204.161362 
L 136.874026 203.523254 
L 136.981539 194.151051 
L 137.036924 203.523254 
L 137.092309 202.890532 
L 137.307333 202.890532 
L 137.470231 202.263126 
L 137.581001 202.263126 
L 137.743899 201.640971 
L 137.851411 201.640971 
L 138.014308 201.024 
L 138.121821 201.024 
L 138.284718 200.412149 
L 138.395488 200.412149 
L 138.558386 199.805355 
L 138.610513 199.805355 
L 138.665898 208.94519 
L 138.721283 208.305778 
L 138.77341 208.305778 
L 138.936308 199.203556 
L 139.099205 198.606689 
L 139.209975 198.606689 
L 139.372873 198.014694 
L 139.425 198.014694 
L 139.480385 207.042612 
L 139.53577 206.418732 
L 139.750795 206.418732 
L 139.80618 205.799903 
L 139.969077 196.845085 
L 140.024462 196.845085 
L 140.18736 196.267355 
L 140.239487 196.267355 
L 140.294872 205.186065 
L 140.350257 204.577157 
L 140.565282 204.577157 
L 140.728179 203.97312 
L 140.891077 194.561785 
L 141.053974 194.561785 
L 141.109359 203.373896 
L 141.164744 202.779429 
L 141.379769 202.779429 
L 141.542666 202.18966 
L 141.653436 202.18966 
L 141.760949 201.604535 
L 141.868461 192.896504 
L 141.923846 201.604535 
L 141.979231 201.024 
L 142.194256 201.024 
L 142.357153 200.448 
L 142.467924 200.448 
L 142.630821 199.876482 
L 142.682948 199.876482 
L 142.738333 208.482864 
L 142.793718 207.882419 
L 142.956616 199.309395 
L 143.008743 199.309395 
L 143.17164 198.746687 
L 143.282411 198.746687 
L 143.445308 198.188308 
L 143.497435 198.188308 
L 143.55282 206.695385 
L 143.608205 206.10869 
L 143.771103 206.10869 
L 143.934 197.084336 
L 144.096898 197.084336 
L 144.259795 196.538646 
L 144.311922 196.538646 
L 144.367307 204.948684 
L 144.422693 204.375273 
L 144.637717 204.375273 
L 144.800615 203.806189 
L 144.963512 194.926195 
L 145.126409 194.926195 
L 145.181794 203.241383 
L 145.23718 202.680809 
L 145.452204 202.680809 
L 145.615102 202.124418 
L 145.725872 202.124418 
L 145.833384 201.572164 
L 145.940896 193.34971 
L 145.996282 201.572164 
L 146.051667 201.024 
L 146.266691 201.024 
L 146.429589 200.479882 
L 146.540359 200.479882 
L 146.703256 199.939765 
L 146.810769 208.071529 
L 146.866154 207.505582 
L 147.029051 199.403604 
L 147.081178 199.403604 
L 147.244076 198.871358 
L 147.354846 198.871358 
L 147.517743 198.342982 
L 147.625256 206.386036 
L 147.788153 205.832348 
L 147.843538 205.832348 
L 148.006436 197.297675 
L 148.169333 197.297675 
L 148.33223 196.780662 
L 148.439743 204.736921 
L 148.60264 204.195097 
L 148.710152 204.195097 
L 148.87305 203.657143 
L 149.035947 195.251701 
L 149.146718 195.251701 
L 149.25423 203.123018 
L 149.417127 202.592681 
L 149.52464 202.592681 
L 149.687537 202.066092 
L 149.798307 202.066092 
L 149.905819 201.543211 
L 149.961205 193.755042 
L 150.013332 201.543211 
L 150.068717 201.543211 
L 150.231614 201.024 
L 150.339127 201.024 
L 150.502024 200.50842 
L 150.612794 200.50842 
L 150.720307 199.996432 
L 150.883204 207.703192 
L 150.938589 207.168 
L 151.101486 199.488 
L 151.153614 199.488 
L 151.316511 198.983087 
L 151.427281 198.983087 
L 151.534794 198.481655 
L 151.697691 206.10869 
L 151.860588 205.584495 
L 151.915974 205.584495 
L 152.078871 197.489096 
L 152.241768 197.489096 
L 152.349281 196.997898 
L 152.512178 204.54684 
L 152.675075 204.033306 
L 152.782588 204.033306 
L 152.945485 203.523254 
L 153.00087 203.523254 
L 153.163768 195.544216 
L 153.326665 203.016649 
L 153.489563 202.513455 
L 153.597075 202.513455 
L 153.759972 202.013638 
L 153.870743 202.013638 
L 153.92287 201.517164 
L 154.03364 208.914622 
L 154.196537 201.024 
L 154.411562 201.024 
L 154.574459 200.534113 
L 154.68523 200.534113 
L 154.737357 200.04747 
L 154.900254 207.371444 
L 154.955639 207.371444 
L 155.063152 206.863842 
L 155.226049 199.56404 
L 155.388946 199.083789 
L 155.499717 199.083789 
L 155.551844 198.606689 
L 155.714741 205.858623 
L 155.770126 205.858623 
L 155.933024 205.360941 
L 156.040536 205.360941 
L 156.095921 204.866502 
L 156.258819 197.661811 
L 156.314204 197.661811 
L 156.477101 204.375273 
L 156.584613 204.375273 
L 156.747511 203.887223 
L 156.855023 203.887223 
L 157.017921 203.402323 
L 157.073306 203.402323 
L 157.128691 196.267355 
L 157.180818 202.92054 
L 157.3991 202.92054 
L 157.561998 202.441846 
L 157.66951 202.441846 
L 157.832408 201.966211 
L 157.943178 201.966211 
L 158.106075 208.537682 
L 158.268973 201.024 
L 158.483997 201.024 
L 158.646895 200.557367 
L 158.70228 200.557367 
L 158.757665 207.556861 
L 158.809792 207.071091 
L 159.028075 207.071091 
L 159.135587 206.588377 
L 159.298484 199.632906 
L 159.461382 199.175022 
L 159.516767 199.175022 
L 159.572152 206.10869 
L 159.624279 205.632 
L 159.842562 205.632 
L 160.005459 205.15828 
L 160.112971 205.15828 
L 160.168357 204.687503 
L 160.331254 197.818435 
L 160.386639 204.687503 
L 160.438766 204.219641 
L 160.657049 204.219641 
L 160.819946 203.754667 
L 160.927458 203.754667 
L 161.090356 203.292554 
L 161.145741 210.098215 
L 161.201126 203.292554 
L 161.364024 202.833276 
L 161.471536 202.833276 
L 161.634433 202.376807 
L 161.741946 202.376807 
L 161.904843 201.923122 
L 162.015613 208.666537 
L 162.178511 208.195112 
L 162.341408 201.024 
L 162.556433 201.024 
L 162.71933 200.578514 
L 162.8301 207.26081 
L 162.992998 206.79788 
L 163.10051 206.79788 
L 163.208022 206.33773 
L 163.37092 199.695568 
L 163.48169 199.25806 
L 163.644587 205.880335 
L 163.807485 205.425672 
L 163.914997 205.425672 
L 164.077894 204.973714 
L 164.185407 204.973714 
L 164.240792 204.524439 
L 164.296177 197.961116 
L 164.348304 204.524439 
L 164.459074 204.524439 
L 164.621972 204.077822 
L 164.729484 204.077822 
L 164.892382 203.633841 
L 164.999894 203.633841 
L 165.110664 203.192471 
L 165.162791 209.697882 
L 165.218176 203.192471 
L 165.273561 203.192471 
L 165.436459 202.753689 
L 165.543971 202.753689 
L 165.706869 202.317474 
L 165.814381 202.317474 
L 165.925151 201.883802 
L 166.088049 208.332315 
L 166.195561 207.882419 
L 166.358458 201.452651 
L 166.521356 201.024 
L 166.628868 201.024 
L 166.684253 200.597827 
L 166.84715 206.990428 
L 166.902536 206.990428 
L 167.065433 206.548288 
L 167.172945 206.548288 
L 167.22833 206.10869 
L 167.391228 199.752828 
L 167.443355 199.752828 
L 167.49874 199.33396 
L 167.661638 205.67161 
L 167.717023 205.67161 
L 167.87992 205.237029 
L 167.987432 205.237029 
L 168.15033 204.804923 
L 168.205715 204.804923 
L 168.313227 198.091636 
L 168.476125 204.375273 
L 168.53151 204.375273 
L 168.694407 203.948057 
L 168.801919 203.948057 
L 168.964817 203.523254 
L 169.072329 203.523254 
L 169.235227 209.33138 
L 169.398124 202.680809 
L 169.616407 202.680809 
L 169.779304 202.263126 
L 169.886816 202.263126 
L 170.049714 208.026101 
L 170.160484 208.026101 
L 170.212611 207.595855 
L 170.375508 201.434741 
L 170.430894 201.434741 
L 170.593791 201.024 
L 170.701303 201.024 
L 170.864201 206.742515 
L 170.974971 206.742515 
L 171.137868 206.319381 
L 171.189996 206.319381 
L 171.352893 199.805355 
L 171.463663 199.805355 
L 171.51579 205.898579 
L 171.571175 205.480088 
L 171.789458 205.480088 
L 171.952355 205.06389 
L 172.059868 205.06389 
L 172.222765 204.649967 
L 172.27815 198.606689 
L 172.330277 204.649967 
L 172.493175 204.2383 
L 172.603945 204.2383 
L 172.766842 203.82887 
L 172.874355 203.82887 
L 173.037252 203.421659 
L 173.092637 203.421659 
L 173.144764 209.415805 
L 173.20015 208.994595 
L 173.255535 208.994595 
L 173.418432 203.016649 
L 173.58133 202.613822 
L 173.688842 202.613822 
L 173.851739 202.213161 
L 173.959252 208.158968 
L 174.122149 207.744515 
L 174.177534 207.744515 
L 174.340432 201.418267 
L 174.503329 201.418267 
L 174.666226 201.024 
L 174.773739 206.92224 
L 174.936636 206.514383 
L 175.047406 206.514383 
L 175.210304 206.10869 
L 175.373201 199.853714 
L 175.480713 199.853714 
L 175.588226 205.705143 
L 175.751123 205.303726 
L 175.861893 205.303726 
L 176.024791 204.904421 
L 176.132303 204.904421 
L 176.239815 204.507213 
L 176.2952 198.701858 
L 176.350586 204.507213 
L 176.402713 204.507213 
L 176.56561 204.112084 
L 176.67638 204.112084 
L 176.839278 203.719018 
L 176.94679 203.719018 
L 177.054302 203.328 
L 177.165073 209.088 
L 177.32797 202.939013 
L 177.490867 202.939013 
L 177.653765 202.552041 
L 177.761277 202.552041 
L 177.868789 202.16707 
L 178.031687 207.882419 
L 178.194584 207.484701 
L 178.357482 201.403064 
L 178.575764 201.403064 
L 178.683277 201.024 
L 178.846174 206.695385 
L 179.009071 206.303754 
L 179.119842 206.303754 
L 179.227354 205.914122 
L 179.390251 200.271673 
L 179.445636 199.898382 
L 179.608534 205.526473 
L 179.660661 205.526473 
L 179.823558 205.140792 
L 179.934329 205.140792 
L 180.097226 204.757063 
L 180.149353 204.757063 
L 180.260124 198.789818 
L 180.423021 204.375273 
L 180.475148 204.375273 
L 180.638046 203.995406 
L 180.748816 203.995406 
L 180.911713 203.617447 
L 181.019225 203.617447 
L 181.074611 203.241383 
L 181.182123 208.784842 
L 181.34502 202.8672 
L 181.563303 202.8672 
L 181.7262 202.494883 
L 181.833713 202.494883 
L 181.889098 202.124418 
L 182.051995 207.626507 
L 182.104122 207.626507 
L 182.214892 207.244228 
L 182.37779 201.755792 
L 182.540687 201.38899 
L 182.6482 201.38899 
L 182.811097 206.485333 
L 182.918609 206.485333 
L 183.081507 206.10869 
L 183.136892 206.10869 
L 183.299789 200.2994 
L 183.462687 200.2994 
L 183.625584 205.360941 
L 183.733096 205.360941 
L 183.895994 204.989809 
L 184.006764 204.989809 
L 184.169661 204.620488 
L 184.277174 199.225756 
L 184.440071 204.252964 
L 184.547583 204.252964 
L 184.710481 203.887223 
L 184.821251 203.887223 
L 184.984149 203.523254 
L 185.036276 203.523254 
L 185.091661 208.878799 
L 185.147046 208.503652 
L 185.199173 208.503652 
L 185.362071 203.161043 
L 185.524968 202.800578 
L 185.635738 202.800578 
L 185.798636 202.441846 
L 185.850763 202.441846 
L 185.906148 207.758769 
L 185.961533 207.389007 
L 186.12443 207.389007 
L 186.287328 201.729531 
L 186.450225 201.729531 
L 186.613123 201.375924 
L 186.66525 201.375924 
L 186.720635 206.654778 
L 186.77602 206.290286 
L 186.991045 206.290286 
L 187.153942 205.927525 
L 187.316839 200.325156 
L 187.479737 200.325156 
L 187.535122 205.566483 
L 187.590507 205.207149 
L 187.805532 205.207149 
L 187.968429 204.849509 
L 188.079199 204.849509 
L 188.186712 204.493553 
L 188.242097 199.289224 
L 188.294224 204.493553 
L 188.349609 204.493553 
L 188.512507 204.139268 
L 188.620019 204.139268 
L 188.782916 203.786642 
L 188.893686 203.786642 
L 189.056584 203.435664 
L 189.164096 208.603514 
L 189.219481 208.242126 
L 189.382379 203.086322 
L 189.434506 203.086322 
L 189.597403 202.738605 
L 189.708174 202.738605 
L 189.871071 202.392501 
L 189.978583 207.524381 
L 190.141481 207.168 
L 190.304378 201.70509 
L 190.522661 201.70509 
L 190.685558 201.36376 
L 190.79307 206.460166 
L 190.955968 206.10869 
L 191.06348 206.10869 
L 191.17425 205.758826 
L 191.337148 200.685798 
L 191.44466 200.349144 
L 191.607557 205.410563 
L 191.770455 205.06389 
L 191.877967 205.06389 
L 192.040864 204.718797 
L 192.151635 204.718797 
L 192.203762 204.375273 
L 192.259147 199.348364 
L 192.314532 204.375273 
L 192.422044 204.375273 
L 192.584942 204.033306 
L 192.692454 204.033306 
L 192.855352 203.692887 
L 192.966122 203.692887 
L 193.073634 203.354005 
L 193.129019 208.346871 
L 193.181146 203.354005 
L 193.236531 203.354005 
L 193.399429 203.016649 
L 193.506941 203.016649 
L 193.669839 202.680809 
L 193.780609 202.680809 
L 193.832736 202.346475 
L 193.995633 207.305758 
L 194.051019 207.305758 
L 194.158531 206.961826 
L 194.321428 202.013638 
L 194.484326 201.682286 
L 194.595096 201.682286 
L 194.647223 201.35241 
L 194.810121 206.278557 
L 194.865506 206.278557 
L 195.028403 205.9392 
L 195.135915 205.9392 
L 195.1913 205.601348 
L 195.354198 200.697047 
L 195.409583 200.697047 
L 195.46171 200.37154 
L 195.624608 205.264991 
L 195.679993 205.264991 
L 195.84289 204.930119 
L 195.950402 204.930119 
L 196.1133 204.596722 
L 196.276197 199.403604 
L 196.439095 204.264791 
L 196.49448 204.264791 
L 196.657377 203.934316 
L 196.764889 203.934316 
L 196.927787 203.605287 
L 197.038557 203.605287 
L 197.146069 208.107039 
L 197.308967 203.277694 
L 197.471864 202.951529 
L 197.579377 202.951529 
L 197.742274 202.626783 
L 197.853044 202.626783 
L 198.015942 207.101362 
L 198.123454 207.101362 
L 198.178839 206.769039 
L 198.341736 201.981506 
L 198.393864 201.981506 
L 198.556761 201.660959 
L 198.667531 201.660959 
L 198.830429 206.10869 
L 198.937941 206.10869 
L 199.100838 205.780645 
L 199.263736 200.707571 
L 199.426633 200.707571 
L 199.482018 205.454009 
L 199.534146 205.128771 
L 199.752428 205.128771 
L 199.915325 204.804923 
L 200.022838 204.804923 
L 200.133608 204.482456 
L 200.24112 199.76638 
L 200.296505 204.482456 
L 200.348633 204.161362 
L 200.566915 204.161362 
L 200.729813 203.841631 
L 200.837325 203.841631 
L 201.000222 203.523254 
L 201.055607 203.523254 
L 201.110992 208.209356 
L 201.16312 207.882419 
L 201.326017 203.206224 
L 201.381402 203.206224 
L 201.5443 202.890532 
L 201.651812 202.890532 
L 201.814709 202.576168 
L 201.870094 202.576168 
L 201.92548 207.232674 
L 201.977607 206.909849 
L 202.140504 206.909849 
L 202.303402 201.951396 
L 202.466299 201.951396 
L 202.629196 201.640971 
L 202.739967 206.268251 
L 202.902864 205.949461 
L 203.010376 205.949461 
L 203.117889 205.632 
L 203.280786 201.024 
L 203.443683 200.717439 
L 203.554454 205.315859 
L 203.717351 205.001029 
L 203.824863 205.001029 
L 203.987761 204.687503 
L 204.095273 204.687503 
L 204.150658 204.375273 
L 204.258171 199.805355 
L 204.368941 204.375273 
L 204.531838 204.06433 
L 204.63935 204.06433 
L 204.802248 203.754667 
L 204.90976 203.754667 
L 205.02053 203.446275 
L 205.128043 207.988041 
L 205.29094 203.139148 
L 205.453838 203.139148 
L 205.616735 202.833276 
L 205.724247 202.833276 
L 205.835017 202.528653 
L 205.997915 207.042612 
L 206.105427 206.730037 
L 206.268325 202.225271 
L 206.431222 201.923122 
L 206.538734 201.923122 
L 206.649505 201.622199 
L 206.812402 206.10869 
L 206.975299 205.799903 
L 207.082812 205.799903 
L 207.138197 205.492364 
L 207.301094 201.024 
L 207.353221 201.024 
L 207.463992 200.72671 
L 207.626889 205.186065 
L 207.789786 204.880998 
L 207.897299 204.880998 
L 208.060196 204.577157 
L 208.115581 204.577157 
L 208.223094 199.841988 
L 208.385991 204.274533 
L 208.441376 204.274533 
L 208.604274 203.97312 
L 208.711786 203.97312 
L 208.874683 203.67291 
L 208.982196 203.67291 
L 209.037581 203.373896 
L 209.145093 207.779952 
L 209.30799 203.076072 
L 209.526273 203.076072 
L 209.68917 202.779429 
L 209.796683 202.779429 
L 209.852068 202.48396 
L 210.014965 206.863842 
L 210.07035 206.863842 
L 210.122477 206.560885 
L 210.285375 202.18966 
L 210.34076 202.18966 
L 210.503657 201.896521 
L 210.61117 201.896521 
L 210.774067 205.958551 
L 210.884837 205.958551 
L 211.047735 205.659159 
L 211.099862 205.659159 
L 211.262759 201.024 
L 211.425657 201.024 
L 211.588554 205.06389 
L 211.699324 205.06389 
L 211.862222 204.768 
L 211.969734 204.768 
L 212.132631 204.473263 
L 212.240144 200.161684 
L 212.403041 204.179673 
L 212.513811 204.179673 
L 212.676709 203.887223 
L 212.784221 203.887223 
L 212.947119 203.595907 
L 213.054631 203.595907 
L 213.110016 207.583938 
L 213.272913 203.305718 
L 213.328298 203.305718 
L 213.491196 203.016649 
L 213.598708 203.016649 
L 213.761606 202.728694 
L 213.816991 202.728694 
L 213.869118 206.990428 
L 213.924503 206.695385 
L 214.0874 206.695385 
L 214.250298 202.1561 
L 214.413195 202.1561 
L 214.576093 201.871448 
L 214.631478 201.871448 
L 214.683605 206.10869 
L 214.73899 205.817025 
L 214.957273 205.817025 
L 215.12017 205.526473 
L 215.283067 201.024 
L 215.445965 201.024 
L 215.498092 205.237029 
L 215.553477 204.948684 
L 215.77176 204.948684 
L 215.934657 204.661435 
L 216.042169 204.661435 
L 216.149682 204.375273 
L 216.205067 200.186182 
L 216.260452 204.375273 
L 216.312579 204.375273 
L 216.475477 204.090193 
L 216.586247 204.090193 
L 216.749144 203.806189 
L 216.856656 203.806189 
L 217.019554 203.523254 
L 217.074939 207.688678 
L 217.127066 203.523254 
L 217.289964 203.241383 
L 217.400734 203.241383 
L 217.563631 202.96057 
L 217.671144 202.96057 
L 217.834041 202.680809 
L 217.941553 206.822831 
L 218.104451 206.536374 
L 218.267348 202.124418 
L 218.485631 202.124418 
L 218.648528 201.847777 
L 218.75604 205.966659 
L 218.918938 205.68339 
L 219.029708 205.68339 
L 219.13722 205.401173 
L 219.300118 201.297573 
L 219.40763 201.024 
L 219.570527 205.12 
L 219.733425 204.839867 
L 219.844195 204.839867 
L 220.007092 204.560768 
L 220.114605 204.560768 
L 220.16999 204.282696 
L 220.222117 200.209326 
L 220.277502 204.282696 
L 220.385014 204.282696 
L 220.547912 204.005647 
L 220.658682 204.005647 
L 220.82158 203.729615 
L 220.929092 203.729615 
L 221.036604 203.454593 
L 221.091989 207.505582 
L 221.147374 203.454593 
L 221.199502 203.454593 
L 221.362399 203.180578 
L 221.473169 203.180578 
L 221.636067 202.907562 
L 221.743579 202.907562 
L 221.798964 202.635541 
L 221.961861 206.664393 
L 222.013989 206.664393 
L 222.124759 206.386036 
L 222.287656 202.364509 
L 222.450554 202.094461 
L 222.558066 202.094461 
L 222.613451 201.825391 
L 222.776348 205.832348 
L 222.828476 205.832348 
L 222.991373 205.557005 
L 223.102143 205.557005 
L 223.15427 205.282657 
L 223.317168 201.290166 
L 223.372553 201.290166 
L 223.427938 201.024 
L 223.590836 205.009297 
L 223.642963 205.009297 
L 223.80586 204.736921 
L 223.91663 204.736921 
L 224.079528 204.465522 
L 224.242425 200.231226 
L 224.405323 204.195097 
L 224.45745 204.195097 
L 224.620347 203.925639 
L 224.731117 203.925639 
L 224.894015 203.657143 
L 225.001527 203.657143 
L 225.109039 207.332278 
L 225.271937 203.389604 
L 225.434834 203.123018 
L 225.545605 203.123018 
L 225.708502 202.857378 
L 225.816014 202.857378 
L 225.978912 206.514383 
L 226.086424 206.514383 
L 226.141809 206.243681 
L 226.304706 202.32892 
L 226.360092 202.32892 
L 226.522989 202.066092 
L 226.630501 202.066092 
L 226.793399 205.705143 
L 226.900911 205.705143 
L 227.063808 205.437296 
L 227.119194 205.437296 
L 227.282091 201.283149 
L 227.389603 201.283149 
L 227.444988 205.17039 
L 227.500373 204.904421 
L 227.715398 204.904421 
L 227.878295 204.639384 
L 227.989066 204.639384 
L 228.096578 204.375273 
L 228.20409 200.50842 
L 228.259475 204.375273 
L 228.314861 204.112084 
L 228.529885 204.112084 
L 228.692783 203.849812 
L 228.803553 203.849812 
L 228.96645 203.588452 
L 229.018577 203.588452 
L 229.073963 207.43513 
L 229.129348 207.168 
L 229.292245 203.328 
L 229.344372 203.328 
L 229.50727 203.068451 
L 229.61804 203.068451 
L 229.780937 202.809799 
L 229.833064 202.809799 
L 229.88845 206.636512 
L 229.943835 206.372145 
L 230.106732 206.372145 
L 230.26963 202.295172 
L 230.432527 202.295172 
L 230.595424 202.039188 
L 230.702937 205.846141 
L 230.865834 205.584495 
L 230.973346 205.584495 
L 231.084117 205.323746 
L 231.247014 201.529852 
L 231.409911 201.276493 
L 231.517424 205.06389 
L 231.680321 204.804923 
L 231.787833 204.804923 
L 231.950731 204.54684 
L 232.061501 204.54684 
L 232.113628 204.289635 
L 232.224398 200.521595 
L 232.331911 204.289635 
L 232.494808 204.033306 
L 232.60232 204.033306 
L 232.765218 203.777847 
L 232.875988 203.777847 
L 232.9835 203.523254 
L 233.091013 207.272136 
L 233.25391 203.269523 
L 233.416808 203.269523 
L 233.579705 203.016649 
L 233.690475 203.016649 
L 233.797988 202.764627 
L 233.960885 206.494543 
L 234.123782 206.237091 
L 234.28668 202.263126 
L 234.504962 202.263126 
L 234.612475 202.013638 
L 234.775372 205.724779 
L 234.938269 205.46991 
L 235.045782 205.46991 
L 235.101167 205.215893 
L 235.264064 201.517164 
L 235.319449 201.517164 
L 235.426962 201.27017 
L 235.589859 204.962725 
L 235.752756 204.7104 
L 235.860269 204.7104 
L 236.023166 204.458915 
L 236.078551 204.458915 
L 236.186064 200.534113 
L 236.348961 204.208266 
L 236.404346 204.208266 
L 236.567244 203.958448 
L 236.674756 203.958448 
L 236.837653 203.709457 
L 236.948423 203.709457 
L 237.000551 203.461289 
L 237.111321 207.117223 
L 237.274218 203.213941 
L 237.489243 203.213941 
L 237.65214 202.967407 
L 237.762911 202.967407 
L 237.815038 202.721684 
L 237.977935 206.359579 
L 238.03332 206.359579 
L 238.088705 206.10869 
L 238.251603 202.476768 
L 238.30373 202.476768 
L 238.466627 202.232656 
L 238.577398 202.232656 
L 238.740295 205.609375 
L 238.847807 205.609375 
L 239.010705 205.360941 
L 239.06609 205.360941 
L 239.228987 201.505096 
L 239.391885 201.505096 
L 239.554782 204.866502 
L 239.662294 204.866502 
L 239.825192 204.620488 
L 239.932704 204.620488 
L 240.095602 204.375273 
L 240.206372 200.784623 
L 240.369269 204.130853 
L 240.476781 204.130853 
L 240.639679 203.887223 
L 240.747191 203.887223 
L 240.910089 203.644381 
L 241.020859 203.644381 
L 241.128371 206.969806 
L 241.291269 203.402323 
L 241.454166 203.161043 
L 241.561678 203.161043 
L 241.724576 202.92054 
L 241.779961 202.92054 
L 241.835346 206.476553 
L 241.887473 206.231114 
L 242.05037 206.231114 
L 242.213268 202.441846 
L 242.376165 202.441846 
L 242.539063 202.203648 
L 242.594448 202.203648 
L 242.649833 205.742592 
L 242.70196 205.499502 
L 242.920243 205.499502 
L 243.08314 205.257187 
L 243.246037 201.493605 
L 243.408935 201.493605 
L 243.46432 205.015643 
L 243.516447 204.774868 
L 243.73473 204.774868 
L 243.897627 204.534857 
L 244.005139 204.534857 
L 244.11591 204.295607 
L 244.168037 200.790314 
L 244.223422 204.295607 
L 244.278807 204.295607 
L 244.441705 204.057114 
L 244.549217 204.057114 
L 244.712114 203.819374 
L 244.819627 203.819374 
L 244.982524 203.582385 
L 245.037909 207.071091 
L 245.093294 203.582385 
L 245.256192 203.346142 
L 245.363704 203.346142 
L 245.526601 203.110642 
L 245.634114 203.110642 
L 245.797011 202.875881 
L 245.907781 206.348157 
L 246.070679 206.10869 
L 246.233576 202.408563 
L 246.448601 202.408563 
L 246.611498 202.176 
L 246.722268 205.632 
L 246.885166 205.394771 
L 246.992678 205.394771 
L 247.10019 205.15828 
L 247.263088 201.713047 
L 247.373858 201.48265 
L 247.536755 204.922526 
L 247.699653 204.687503 
L 247.807165 204.687503 
L 247.970062 204.453209 
L 248.077575 204.453209 
L 248.13296 204.219641 
L 248.188345 200.79574 
L 248.240472 204.219641 
L 248.351242 204.219641 
L 248.51414 203.986794 
L 248.621652 203.986794 
L 248.78455 203.754667 
L 248.892062 203.754667 
L 249.002832 203.523254 
L 249.054959 206.931328 
L 249.110344 203.523254 
L 249.16573 203.523254 
L 249.328627 203.292554 
L 249.436139 203.292554 
L 249.599037 203.062562 
L 249.706549 203.062562 
L 249.761934 202.833276 
L 249.924831 206.225669 
L 249.980217 206.225669 
L 250.087729 205.99189 
L 250.250626 202.604692 
L 250.413524 202.376807 
L 250.521036 202.376807 
L 250.576421 202.149618 
L 250.739319 205.526473 
L 250.794704 205.526473 
L 250.957601 205.294829 
L 251.065113 205.294829 
L 251.120498 205.06389 
L 251.283396 201.697315 
L 251.335523 201.697315 
L 251.390908 201.472195 
L 251.553806 204.833653 
L 251.609191 204.833653 
L 251.772088 204.604115 
L 251.8796 204.604115 
L 252.042498 204.375273 
L 252.205395 200.80092 
L 252.368293 204.147123 
L 252.423678 204.147123 
L 252.586575 203.919662 
L 252.694087 203.919662 
L 252.856985 203.692887 
L 252.964497 203.692887 
L 253.075267 206.79788 
L 253.238165 203.466795 
L 253.401062 203.241383 
L 253.508575 203.241383 
L 253.671472 203.016649 
L 253.778984 203.016649 
L 253.941882 206.10869 
L 254.052652 206.10869 
L 254.104779 205.880335 
L 254.267677 202.569198 
L 254.323062 202.569198 
L 254.485959 202.346475 
L 254.593471 202.346475 
L 254.756369 205.425672 
L 254.867139 205.425672 
L 255.030036 205.199356 
L 255.082164 205.199356 
L 255.245061 201.682286 
L 255.355831 201.682286 
L 255.407958 204.973714 
L 255.463344 204.748743 
L 255.681626 204.748743 
L 255.844523 204.524439 
L 255.952036 204.524439 
L 256.059548 204.3008 
L 256.170318 201.024 
L 256.222445 204.3008 
L 256.277831 204.077822 
L 256.496113 204.077822 
L 256.659011 203.855504 
L 256.766523 203.855504 
L 256.92942 203.633841 
L 256.984805 203.633841 
L 257.036933 206.896142 
L 257.092318 206.670327 
L 257.255215 203.412831 
L 257.3106 203.412831 
L 257.473498 203.192471 
L 257.58101 203.192471 
L 257.743907 202.972758 
L 257.799292 202.972758 
L 257.85142 206.220687 
L 257.906805 205.996856 
L 258.069702 205.996856 
L 258.2326 202.535262 
L 258.395497 202.535262 
L 258.558394 202.317474 
L 258.665907 205.551158 
L 258.828804 205.329285 
L 258.939574 205.329285 
L 259.047087 205.108058 
L 259.209984 201.883802 
L 259.372881 201.667913 
L 259.480394 204.887476 
L 259.643291 204.667535 
L 259.754061 204.667535 
L 259.916959 204.448232 
L 260.024471 204.448232 
L 260.079856 204.229565 
L 260.187369 201.024 
L 260.294881 204.229565 
L 260.457778 204.011531 
L 260.568548 204.011531 
L 260.731446 203.794127 
L 260.838958 203.794127 
L 260.94647 203.577351 
L 261.057241 206.769039 
L 261.220138 203.361199 
L 261.383036 203.361199 
L 261.545933 203.145669 
L 261.653445 203.145669 
L 261.760958 202.930759 
L 261.923855 206.10869 
L 262.086752 205.889836 
L 262.24965 202.502785 
L 262.467932 202.502785 
L 262.575445 202.289717 
L 262.738342 205.454009 
L 262.901239 205.237029 
L 263.01201 205.237029 
L 263.064137 205.020668 
L 263.227034 201.865404 
L 263.282419 201.865404 
L 263.389932 201.654154 
L 263.552829 204.804923 
L 263.715726 204.589792 
L 263.826497 204.589792 
L 263.989394 204.375273 
L 264.041521 204.375273 
L 264.152292 201.024 
L 264.315189 204.161362 
L 264.367316 204.161362 
L 264.530214 203.948057 
L 264.640984 203.948057 
L 264.803881 203.735355 
L 264.911394 203.735355 
L 264.966779 203.523254 
L 265.074291 206.647322 
L 265.237188 203.311752 
L 265.455471 203.311752 
L 265.618368 203.100845 
L 265.725881 203.100845 
L 265.781266 202.890532 
L 265.944163 206.001418 
L 265.99629 206.001418 
L 266.051675 205.787326 
L 266.214573 202.680809 
L 266.269958 202.680809 
L 266.432855 202.471675 
L 266.540368 202.471675 
L 266.703265 205.360941 
L 266.810777 205.360941 
L 266.973675 205.148643 
L 267.02906 205.148643 
L 267.191957 201.847777 
L 267.354855 201.847777 
L 267.517752 204.725824 
L 267.625264 204.725824 
L 267.788162 204.515298 
L 267.898932 204.515298 
L 268.061829 204.305357 
L 268.169342 201.229085 
L 268.332239 204.096 
L 268.439751 204.096 
L 268.602649 203.887223 
L 268.713419 203.887223 
L 268.876317 203.679025 
L 268.983829 203.679025 
L 269.091341 206.530656 
L 269.254239 203.471402 
L 269.417136 203.264354 
L 269.527906 203.264354 
L 269.690804 203.057876 
L 269.742931 203.057876 
L 269.798316 206.10869 
L 269.853701 205.898579 
L 270.016598 205.898579 
L 270.179496 202.646624 
L 270.342393 202.646624 
L 270.505291 202.441846 
L 270.557418 202.441846 
L 270.612803 205.480088 
L 270.668188 205.271704 
L 270.883213 205.271704 
L 271.04611 205.06389 
L 271.209008 201.830873 
L 271.371905 201.830873 
L 271.42729 204.856646 
L 271.482675 204.649967 
L 271.6977 204.649967 
L 271.860597 204.443853 
L 271.971367 204.443853 
L 272.07888 204.2383 
L 272.134265 201.224894 
L 272.186392 204.2383 
L 272.241777 204.2383 
L 272.404675 204.033306 
L 272.512187 204.033306 
L 272.675084 203.82887 
L 272.785854 203.82887 
L 272.948752 203.624988 
L 273.000879 206.626128 
L 273.056264 203.624988 
L 273.219162 203.421659 
L 273.326674 203.421659 
L 273.489571 203.21888 
L 273.600342 203.21888 
L 273.763239 203.016649 
L 273.870751 206.005622 
L 274.033649 205.799903 
L 274.196546 202.613822 
L 274.414829 202.613822 
L 274.577726 202.413222 
L 274.685238 205.390127 
L 274.848136 205.186065 
L 274.955648 205.186065 
L 275.066418 204.98255 
L 275.229316 202.013638 
L 275.336828 201.814649 
L 275.499725 204.779582 
L 275.662623 204.577157 
L 275.770135 204.577157 
L 275.933033 204.375273 
L 276.043803 204.375273 
L 276.09593 204.173928 
L 276.151315 201.22087 
L 276.2067 204.173928 
L 276.314212 204.173928 
L 276.47711 203.97312 
L 276.584622 203.97312 
L 276.74752 203.772847 
L 276.85829 203.772847 
L 276.965802 203.573106 
L 277.021187 206.514383 
L 277.073314 203.573106 
L 277.1287 203.573106 
L 277.291597 203.373896 
L 277.399109 203.373896 
L 277.562007 203.175215 
L 277.672777 203.175215 
L 277.724904 202.97706 
L 277.887801 205.906649 
L 277.943187 205.906649 
L 278.050699 205.705143 
L 278.213596 202.779429 
L 278.376494 202.58232 
L 278.487264 202.58232 
L 278.539391 202.385731 
L 278.702289 205.303726 
L 278.757674 205.303726 
L 278.920571 205.10381 
L 279.028083 205.10381 
L 279.083469 204.904421 
L 279.246366 201.994105 
L 279.301751 201.994105 
L 279.353878 201.799064 
L 279.516776 204.705556 
L 279.572161 204.705556 
L 279.735058 204.507213 
L 279.84257 204.507213 
L 280.005468 204.309389 
L 280.168365 201.217005 
L 280.331263 204.112084 
L 280.386648 204.112084 
L 280.549545 203.915294 
L 280.657058 203.915294 
L 280.819955 203.719018 
L 280.930725 203.719018 
L 281.038237 206.407009 
L 281.201135 203.523254 
L 281.364032 203.328 
L 281.471545 203.328 
L 281.634442 203.133254 
L 281.745212 203.133254 
L 281.90811 205.811532 
L 282.015622 205.811532 
L 282.071007 205.61407 
L 282.233904 202.745276 
L 282.286032 202.745276 
L 282.448929 202.552041 
L 282.559699 202.552041 
L 282.722597 205.220678 
L 282.830109 205.220678 
L 282.993006 205.024744 
L 283.048392 205.024744 
L 283.211289 201.975329 
L 283.318801 201.975329 
L 283.374186 204.829316 
L 283.426314 204.634392 
L 283.644596 204.634392 
L 283.807493 204.439969 
L 283.915006 204.439969 
L 284.025776 204.246046 
L 284.133288 201.403064 
L 284.188673 204.246046 
L 284.240801 204.052621 
L 284.459083 204.052621 
L 284.621981 203.859692 
L 284.729493 203.859692 
L 284.89239 203.667257 
L 284.947775 203.667257 
L 285.003161 206.499319 
L 285.055288 206.303754 
L 285.218185 203.475315 
L 285.27357 203.475315 
L 285.436468 203.283862 
L 285.54398 203.283862 
L 285.706877 203.092898 
L 285.762262 203.092898 
L 285.817648 205.914122 
L 285.869775 205.720051 
L 286.032672 205.720051 
L 286.19557 202.712427 
L 286.358467 202.712427 
L 286.521364 202.522917 
L 286.632135 205.333388 
L 286.795032 205.140792 
L 286.902544 205.140792 
L 287.010057 204.948684 
L 287.172954 202.145338 
L 287.335851 201.957266 
L 287.446622 204.757063 
L 287.609519 204.565927 
L 287.717031 204.565927 
L 287.879929 204.375273 
L 287.987441 204.375273 
L 288.042826 204.1851 
L 288.150339 201.395894 
L 288.261109 204.1851 
L 288.424006 203.995406 
L 288.531518 203.995406 
L 288.694416 203.806189 
L 288.801928 203.806189 
L 288.912698 203.617447 
L 289.020211 206.396141 
L 289.183108 203.429179 
L 289.346006 203.429179 
L 289.508903 203.241383 
L 289.616415 203.241383 
L 289.727186 203.054058 
L 289.890083 205.822318 
L 290.05298 205.632 
L 290.215878 202.680809 
L 290.430902 202.680809 
L 290.541673 202.494883 
L 290.70457 205.252788 
L 290.867467 205.06389 
L 290.97498 205.06389 
L 291.030365 204.875463 
L 291.193262 202.124418 
L 291.245389 202.124418 
L 291.35616 201.939876 
L 291.519057 204.687503 
L 291.681954 204.50001 
L 291.789467 204.50001 
L 291.952364 204.312981 
L 292.007749 204.312981 
L 292.115262 201.38899 
L 292.278159 204.126416 
L 292.333544 204.126416 
L 292.496442 203.940311 
L 292.603954 203.940311 
L 292.766851 203.754667 
L 292.874364 203.754667 
L 292.929749 203.56948 
L 293.037261 206.296779 
L 293.200158 203.384749 
L 293.418441 203.384749 
L 293.581338 203.200472 
L 293.688851 203.200472 
L 293.744236 203.016649 
L 293.907133 205.733897 
L 293.962518 205.733897 
L 294.014645 205.54719 
L 294.177543 202.833276 
L 294.232928 202.833276 
L 294.395825 202.650353 
L 294.503338 202.650353 
L 294.666235 205.175148 
L 294.777005 205.175148 
L 294.939903 204.989809 
L 294.99203 204.989809 
L 295.154927 202.104264 
L 295.317825 202.104264 
L 295.480722 204.620488 
L 295.591492 204.620488 
L 295.75439 204.436502 
L 295.861902 204.436502 
L 296.0248 204.252964 
L 296.132312 201.562161 
L 296.295209 204.069871 
L 296.405979 204.069871 
L 296.568877 203.887223 
L 296.676389 203.887223 
L 296.839287 203.705018 
L 296.946799 203.705018 
L 297.057569 206.201027 
L 297.220467 203.523254 
L 297.383364 203.34193 
L 297.490876 203.34193 
L 297.653774 203.161043 
L 297.709159 203.161043 
L 297.761286 205.832348 
L 297.816671 205.648676 
L 297.979568 205.648676 
L 298.142466 202.800578 
L 298.305363 202.800578 
L 298.468261 202.620996 
L 298.523646 202.620996 
L 298.575773 205.282657 
L 298.631158 205.100308 
L 298.849441 205.100308 
L 299.012338 204.918396 
L 299.175236 202.084835 
L 299.338133 202.084835 
L 299.39026 204.736921 
L 299.445645 204.55588 
L 299.663928 204.55588 
L 299.826825 204.375273 
L 299.934337 204.375273 
L 300.04185 204.195097 
L 300.097235 201.552516 
L 300.15262 204.195097 
L 300.204747 204.195097 
L 300.367645 204.015351 
L 300.478415 204.015351 
L 300.641312 203.836033 
L 300.748825 203.836033 
L 300.911722 203.657143 
L 300.967107 206.290286 
L 301.019234 203.657143 
L 301.182132 203.478678 
L 301.292902 203.478678 
L 301.455799 203.300637 
L 301.563312 203.300637 
L 301.726209 203.123018 
L 301.833721 205.74679 
L 301.996619 205.566483 
L 302.159516 202.769041 
L 302.377799 202.769041 
L 302.540696 202.592681 
L 302.648208 205.207149 
L 302.811106 205.028118 
L 302.921876 205.028118 
L 303.029388 204.849509 
L 303.192286 202.241208 
L 303.299798 202.066092 
L 303.462695 204.671322 
L 303.625593 204.493553 
L 303.736363 204.493553 
L 303.899261 204.316202 
L 304.006773 204.316202 
L 304.062158 204.139268 
L 304.114285 201.543211 
L 304.16967 204.139268 
L 304.277183 204.139268 
L 304.44008 203.962748 
L 304.55085 203.962748 
L 304.713748 203.786642 
L 304.82126 203.786642 
L 304.928772 203.610947 
L 304.984157 206.197895 
L 305.039542 203.610947 
L 305.09167 203.610947 
L 305.254567 203.435664 
L 305.365337 203.435664 
L 305.528235 203.260789 
L 305.635747 203.260789 
L 305.691132 203.086322 
L 305.854029 205.664224 
L 305.906157 205.664224 
L 306.016927 205.487162 
L 306.179824 202.912261 
L 306.342722 202.738605 
L 306.450234 202.738605 
L 306.505619 202.565352 
L 306.668517 205.134272 
L 306.720644 205.134272 
L 306.883541 204.958441 
L 306.994311 204.958441 
L 307.046439 204.783017 
L 307.209336 202.220051 
L 307.264721 202.220051 
L 307.320106 202.048 
L 307.483004 204.608 
L 307.535131 204.608 
L 307.698028 204.433387 
L 307.808798 204.433387 
L 307.971696 204.259178 
L 308.134593 201.534228 
L 308.297491 204.08537 
L 308.349618 204.08537 
L 308.512515 203.911963 
L 308.623285 203.911963 
L 308.786183 203.738955 
L 308.893695 203.738955 
L 309.001207 206.10869 
L 309.164105 203.566345 
L 309.327002 203.394131 
L 309.437773 203.394131 
L 309.60067 203.222312 
L 309.708182 203.222312 
L 309.87108 205.584495 
L 309.978592 205.584495 
L 310.033977 205.410563 
L 310.196875 202.879854 
L 310.25226 202.879854 
L 310.415157 202.709211 
L 310.522669 202.709211 
L 310.685567 205.06389 
L 310.793079 205.06389 
L 310.955976 204.891147 
L 311.011362 204.891147 
L 311.174259 202.199617 
L 311.281771 202.199617 
L 311.337156 204.718797 
L 311.392542 204.54684 
L 311.607566 204.54684 
L 311.770464 204.375273 
L 311.881234 204.375273 
L 311.988746 204.204095 
L 312.096258 201.693494 
L 312.151643 204.204095 
L 312.207029 204.033306 
L 312.422053 204.033306 
L 312.584951 203.862904 
L 312.695721 203.862904 
L 312.858618 203.692887 
L 312.910745 203.692887 
L 312.966131 206.194968 
L 313.021516 206.022508 
L 313.184413 203.523254 
L 313.23654 203.523254 
L 313.399438 203.354005 
L 313.510208 203.354005 
L 313.673105 203.185136 
L 313.725232 203.185136 
L 313.780618 205.678755 
L 313.836003 205.507459 
L 313.9989 205.507459 
L 314.161798 202.84854 
L 314.324695 202.84854 
L 314.487592 202.680809 
L 314.595105 205.166022 
L 314.758002 204.995879 
L 314.865514 204.995879 
L 314.976285 204.826117 
L 315.139182 202.346475 
L 315.302079 202.17987 
L 315.409592 204.656735 
L 315.572489 204.487732 
L 315.680001 204.487732 
L 315.842899 204.319106 
L 315.953669 204.319106 
L 316.005796 204.150857 
L 316.116567 201.682286 
L 316.224079 204.150857 
L 316.386976 203.982983 
L 316.494489 203.982983 
L 316.657386 203.815483 
L 316.768156 203.815483 
L 316.875668 203.648356 
L 316.983181 206.10869 
L 317.146078 203.4816 
L 317.308976 203.4816 
L 317.471873 203.315214 
L 317.582643 203.315214 
L 317.690156 203.149197 
L 317.853053 205.601348 
L 318.01595 205.432983 
L 318.178848 202.818265 
L 318.39713 202.818265 
L 318.504643 202.653348 
L 318.66754 205.09737 
L 318.830437 204.930119 
L 318.93795 204.930119 
L 318.993335 204.763237 
L 319.156232 202.324604 
L 319.211617 202.324604 
L 319.31913 202.160775 
L 319.482027 204.596722 
L 319.644925 204.430574 
L 319.752437 204.430574 
L 319.915334 204.264791 
L 319.970719 204.264791 
L 320.078232 201.671447 
L 320.241129 204.099372 
L 320.296514 204.099372 
L 320.459412 203.934316 
L 320.566924 203.934316 
L 320.729821 203.769621 
L 320.840592 203.769621 
L 320.892719 203.605287 
L 321.003489 206.025243 
L 321.166386 203.441311 
L 321.381411 203.441311 
L 321.544308 203.277694 
L 321.655079 203.277694 
L 321.707206 203.114434 
L 321.870103 205.526473 
L 321.925488 205.526473 
L 321.980873 205.360941 
L 322.143771 202.951529 
L 322.195898 202.951529 
L 322.358795 202.788979 
L 322.469566 202.788979 
L 322.521693 202.626783 
L 322.68459 205.030957 
L 322.739975 205.030957 
L 322.902873 204.866502 
L 322.958258 204.866502 
L 323.121155 202.303445 
L 323.284053 202.303445 
L 323.44695 204.538661 
L 323.554462 204.538661 
L 323.71736 204.375273 
L 323.824872 204.375273 
L 323.98777 204.212238 
L 324.09854 201.821059 
L 324.261437 204.049555 
L 324.36895 204.049555 
L 324.531847 203.887223 
L 324.639359 203.887223 
L 324.802257 203.725241 
L 324.913027 203.725241 
L 325.020539 205.944491 
L 325.183437 203.563608 
L 325.346334 203.402323 
L 325.453846 203.402323 
L 325.616744 203.241383 
L 325.672129 203.241383 
L 325.727514 205.617151 
L 325.779641 205.454009 
L 325.942539 205.454009 
L 326.105436 202.92054 
L 326.268333 202.92054 
L 326.431231 202.760634 
L 326.486616 202.760634 
L 326.542001 205.128771 
L 326.594128 204.966674 
L 326.812411 204.966674 
L 326.975308 204.804923 
L 327.138206 202.282963 
L 327.301103 202.282963 
L 327.356488 204.643518 
L 327.408615 204.482456 
L 327.626898 204.482456 
L 327.789795 204.321738 
L 327.897307 204.321738 
L 328.008078 204.161362 
L 328.11559 201.80834 
L 328.170975 204.161362 
L 328.223102 204.001326 
L 328.441385 204.001326 
L 328.604282 203.841631 
L 328.711795 203.841631 
L 328.874692 203.682274 
L 328.930077 206.027809 
L 328.985462 203.682274 
L 329.14836 203.523254 
L 329.255872 203.523254 
L 329.418769 203.364571 
L 329.526282 203.364571 
L 329.689179 203.206224 
L 329.799949 205.544321 
L 329.962847 205.383839 
L 330.125744 202.890532 
L 330.340769 202.890532 
L 330.503666 202.733184 
L 330.614436 205.06389 
L 330.777334 204.904421 
L 330.884846 204.904421 
L 330.992358 204.745287 
L 331.155256 202.419483 
L 331.266026 202.263126 
L 331.428923 204.586487 
L 331.591821 204.428021 
L 331.699333 204.428021 
L 331.862231 204.269887 
L 331.969743 204.269887 
L 332.025128 204.112084 
L 332.080513 201.796021 
L 332.13264 204.112084 
L 332.24341 204.112084 
L 332.406308 203.954611 
L 332.51382 203.954611 
L 332.676718 203.797467 
L 332.78423 203.797467 
L 332.895 203.640651 
L 332.947127 205.949461 
L 333.002512 203.640651 
L 333.057898 203.640651 
L 333.220795 203.484163 
L 333.328307 203.484163 
L 333.491205 203.328 
L 333.598717 203.328 
L 333.709487 203.172162 
L 333.872385 205.473765 
L 333.979897 205.315859 
L 334.142794 203.016649 
L 334.305692 202.861458 
L 334.413204 202.861458 
L 334.468589 202.706589 
L 334.631487 205.001029 
L 334.686872 205.001029 
L 334.849769 204.844104 
L 334.957281 204.844104 
L 335.012667 204.687503 
L 335.175564 202.397814 
L 335.227691 202.397814 
L 335.283076 202.243905 
L 335.445974 204.531226 
L 335.501359 204.531226 
L 335.664256 204.375273 
L 335.771768 204.375273 
L 335.934666 204.219641 
L 336.097563 201.784082 
L 336.260461 204.06433 
L 336.315846 204.06433 
L 336.478743 203.909339 
L 336.586256 203.909339 
L 336.749153 203.754667 
L 336.856665 203.754667 
L 336.967435 205.873529 
L 337.130333 203.600312 
L 337.29323 203.446275 
L 337.400743 203.446275 
L 337.56364 203.292554 
L 337.671152 203.292554 
L 337.83405 205.405377 
L 337.94482 205.405377 
L 337.996947 205.249965 
L 338.159845 202.986055 
L 338.21523 202.986055 
L 338.378127 202.833276 
L 338.485639 202.833276 
L 338.648537 204.940094 
L 338.759307 204.940094 
L 338.922204 204.785633 
L 338.974332 204.785633 
L 339.137229 202.376807 
L 339.300126 202.376807 
L 339.463024 204.477654 
L 339.573794 204.477654 
L 339.736692 204.324134 
L 339.844204 204.324134 
L 339.951716 204.170927 
L 340.062486 201.923122 
L 340.114614 204.170927 
L 340.169999 204.01803 
L 340.388281 204.01803 
L 340.551179 203.865444 
L 340.658691 203.865444 
L 340.821588 203.713167 
L 340.876973 203.713167 
L 340.929101 205.95414 
L 340.984486 205.799903 
L 341.147383 203.561198 
L 341.202768 203.561198 
L 341.365666 203.409537 
L 341.473178 203.409537 
L 341.636075 203.258182 
L 341.69146 203.258182 
L 341.743588 205.492364 
L 341.798973 205.33906 
L 341.96187 205.33906 
L 342.124768 202.956387 
L 342.287665 202.956387 
L 342.450562 202.805946 
L 342.558075 205.033378 
L 342.720972 204.880998 
L 342.831742 204.880998 
L 342.939255 204.728925 
L 343.102152 202.50597 
L 343.265049 202.356434 
L 343.372562 204.577157 
L 343.535459 204.425693 
L 343.646229 204.425693 
L 343.809127 204.274533 
L 343.916639 204.274533 
L 343.972024 204.123676 
L 344.079537 201.909622 
L 344.187049 204.123676 
L 344.349946 203.97312 
L 344.460717 203.97312 
L 344.623614 203.822865 
L 344.731126 203.822865 
L 344.894024 203.67291 
L 344.949409 205.880335 
L 345.001536 203.67291 
L 345.164433 203.523254 
L 345.275204 203.523254 
L 345.438101 203.373896 
L 345.545613 203.373896 
L 345.653126 203.224836 
L 345.816023 205.425672 
L 345.97892 205.27472 
L 346.141818 202.927603 
L 346.3601 202.927603 
L 346.467613 202.779429 
L 346.63051 204.973714 
L 346.793407 204.823659 
L 346.904178 204.823659 
L 346.956305 204.673901 
L 347.119202 202.48396 
L 347.174587 202.48396 
L 347.2821 202.336665 
L 347.444997 204.524439 
L 347.607895 204.375273 
L 347.718665 204.375273 
L 347.881562 204.226401 
L 347.933689 204.226401 
L 348.04446 201.896521 
L 348.207357 204.077822 
L 348.259484 204.077822 
L 348.422382 203.929537 
L 348.533152 203.929537 
L 348.696049 203.781543 
L 348.803562 203.781543 
L 348.858947 203.633841 
L 348.966459 205.808708 
L 349.129356 203.486428 
L 349.347639 203.486428 
L 349.510536 203.339305 
L 349.618049 203.339305 
L 349.673434 203.192471 
L 349.836331 205.360941 
L 349.888458 205.360941 
L 349.943843 205.21227 
L 350.106741 203.045924 
L 350.162126 203.045924 
L 350.325023 202.899663 
L 350.432536 202.899663 
L 350.487921 202.753689 
L 350.650818 204.915801 
L 350.702945 204.915801 
L 350.865843 204.768 
L 350.921228 204.768 
L 351.084125 202.462595 
L 351.247023 202.462595 
L 351.40992 204.473263 
L 351.517432 204.473263 
L 351.68033 204.326325 
L 351.7911 204.326325 
L 351.953998 204.179673 
L 352.06151 202.028078 
L 352.224407 204.033306 
L 352.33192 204.033306 
L 352.494817 203.887223 
L 352.605587 203.887223 
L 352.768485 203.741424 
L 352.875997 203.741424 
L 352.983509 205.739163 
L 353.146407 203.595907 
L 353.309304 203.450672 
L 353.420074 203.450672 
L 353.582972 203.305718 
L 353.635099 203.305718 
L 353.690484 205.444828 
L 353.745869 205.298087 
L 353.908767 205.298087 
L 354.071664 203.016649 
L 354.234561 203.016649 
L 354.397459 202.872532 
L 354.449586 202.872532 
L 354.504971 205.005454 
L 354.560356 204.859561 
L 354.775381 204.859561 
L 354.938278 204.713948 
L 355.101176 202.441846 
L 355.264073 202.441846 
L 355.319458 204.568615 
L 355.374843 204.423562 
L 355.589868 204.423562 
L 355.752765 204.278787 
L 355.863535 204.278787 
L 355.971048 204.13429 
L 356.07856 202.013638 
L 356.133945 204.13429 
L 356.18933 203.990069 
L 356.404355 203.990069 
L 356.567252 203.846124 
L 356.678023 203.846124 
L 356.84092 203.702455 
L 356.893047 205.817025 
L 356.948432 203.702455 
L 357.11133 203.55906 
L 357.218842 203.55906 
L 357.381739 203.415939 
L 357.49251 203.415939 
L 357.655407 203.273091 
L 357.762919 205.381613 
L 357.925817 205.237029 
L 358.088714 202.988209 
L 358.306997 202.988209 
L 358.469894 202.846175 
L 358.577406 204.948684 
L 358.740304 204.804923 
L 358.847816 204.804923 
L 358.958586 204.661435 
L 359.121484 202.562915 
L 359.228996 202.421687 
L 359.391893 204.518218 
L 359.554791 204.375273 
L 359.662303 204.375273 
L 359.825201 204.232598 
L 359.935971 204.232598 
L 359.988098 204.090193 
L 360.043483 201.999607 
L 360.098868 204.090193 
L 360.206381 204.090193 
L 360.369278 203.948057 
L 360.47679 203.948057 
L 360.639688 203.806189 
L 360.750458 203.806189 
L 360.85797 203.664588 
L 360.913355 205.749263 
L 360.965482 203.664588 
L 361.020868 203.664588 
L 361.183765 203.523254 
L 361.291277 203.523254 
L 361.454175 203.382186 
L 361.564945 203.382186 
L 361.672457 203.241383 
L 361.835355 205.32018 
L 361.942867 205.17769 
L 362.105764 203.100845 
L 362.268662 202.96057 
L 362.379432 202.96057 
L 362.431559 202.820559 
L 362.594457 204.893511 
L 362.649842 204.893511 
L 362.812739 204.75182 
L 362.920251 204.75182 
L 362.975637 204.610395 
L 363.138534 202.541321 
L 363.193919 202.541321 
L 363.246046 202.402093 
L 363.408944 204.469234 
L 363.464329 204.469234 
L 363.627226 204.328336 
L 363.734738 204.328336 
L 363.897636 204.187701 
L 364.060533 201.985968 
L 364.223431 204.047329 
L 364.278816 204.047329 
L 364.441713 203.907218 
L 364.549226 203.907218 
L 364.712123 203.767367 
L 364.822893 203.767367 
L 364.930406 205.68339 
L 365.093303 203.627777 
L 365.2562 203.488446 
L 365.363713 203.488446 
L 365.52661 203.349373 
L 365.63738 203.349373 
L 365.800278 205.260456 
L 365.90779 205.260456 
L 365.963175 205.12 
L 366.126073 203.072 
L 366.1782 203.072 
L 366.341097 202.933698 
L 366.451867 202.933698 
L 366.614765 204.839867 
L 366.722277 204.839867 
L 366.885174 204.700188 
L 366.94056 204.700188 
L 367.103457 202.520325 
L 367.266354 202.520325 
L 367.429252 204.421604 
L 367.536764 204.421604 
L 367.699662 204.282696 
L 367.807174 204.282696 
L 367.917944 204.144044 
L 368.025456 202.109233 
L 368.080841 204.144044 
L 368.132969 204.005647 
L 368.351251 204.005647 
L 368.514149 203.867504 
L 368.621661 203.867504 
L 368.784558 203.729615 
L 368.839943 203.729615 
L 368.895329 205.758826 
L 368.947456 205.619329 
L 369.110353 203.591978 
L 369.165738 203.591978 
L 369.328636 203.454593 
L 369.436148 203.454593 
L 369.599045 203.31746 
L 369.654431 203.31746 
L 369.709816 205.341102 
L 369.761943 205.202369 
L 369.92484 205.202369 
L 370.087738 203.043945 
L 370.250635 203.043945 
L 370.413532 202.907562 
L 370.524303 204.925664 
L 370.6872 204.78769 
L 370.794712 204.78769 
L 370.902225 204.649967 
L 371.065122 202.635541 
L 371.22802 202.499902 
L 371.33879 204.512495 
L 371.501687 204.375273 
L 371.609199 204.375273 
L 371.772097 204.2383 
L 371.879609 204.2383 
L 371.934994 204.101575 
L 372.042507 202.094461 
L 372.153277 204.101575 
L 372.316174 203.965099 
L 372.423687 203.965099 
L 372.586584 203.82887 
L 372.694096 203.82887 
L 372.856994 203.692887 
L 372.912379 205.694552 
L 372.967764 203.692887 
L 373.130661 203.55715 
L 373.238174 203.55715 
L 373.401071 203.421659 
L 373.508583 203.421659 
L 373.619354 203.286412 
L 373.782251 205.282657 
L 373.945148 205.145854 
L 374.108046 203.016649 
L 374.32307 203.016649 
L 374.433841 202.882131 
L 374.596738 204.872986 
L 374.759635 204.736921 
L 374.867148 204.736921 
L 374.922533 204.6011 
L 375.08543 202.613822 
L 375.137557 202.613822 
L 375.248328 202.480029 
L 375.411225 204.465522 
L 375.574123 204.330188 
L 375.681635 204.330188 
L 375.844532 204.195097 
L 375.899917 204.195097 
L 376.00743 202.080086 
L 376.170327 204.060247 
L 376.225712 204.060247 
L 376.38861 203.925639 
L 376.496122 203.925639 
L 376.659019 203.791271 
L 376.766532 203.791271 
L 376.821917 203.657143 
L 376.929429 205.632 
L 377.092326 203.523254 
L 377.310609 203.523254 
L 377.473506 203.389604 
L 377.581019 203.389604 
L 377.636404 203.256192 
L 377.799301 205.225774 
L 377.854686 205.225774 
L 377.906813 205.090847 
L 378.069711 203.123018 
L 378.125096 203.123018 
L 378.287993 202.99008 
L 378.395506 202.99008 
L 378.450891 202.857378 
L 378.613788 204.821712 
L 378.669173 204.821712 
L 378.832071 204.687503 
L 378.884198 204.687503 
L 379.047095 202.592681 
L 379.209993 202.592681 
L 379.37289 204.419798 
L 379.48366 204.419798 
L 379.646558 204.286301 
L 379.75407 204.286301 
L 379.916968 204.15304 
L 380.02448 202.19739 
L 380.187377 204.020014 
L 380.298148 204.020014 
L 380.461045 203.887223 
L 380.568557 203.887223 
L 380.731455 203.754667 
L 380.838967 203.754667 
L 380.949737 205.571101 
L 381.112635 203.622344 
L 381.275532 203.490254 
L 381.383044 203.490254 
L 381.545942 203.358396 
L 381.601327 203.358396 
L 381.653454 205.303726 
L 381.708839 205.17039 
L 381.871737 205.17039 
L 382.034634 203.095375 
L 382.197531 203.095375 
L 382.360429 202.964211 
L 382.415814 202.964211 
L 382.467941 204.904421 
L 382.523326 204.771786 
L 382.741609 204.771786 
L 382.904506 204.639384 
L 383.067404 202.572094 
L 383.230301 202.572094 
L 383.282428 204.507213 
L 383.337813 204.375273 
L 383.556096 204.375273 
L 383.718993 204.243563 
L 383.826505 204.243563 
L 383.934018 204.112084 
L 384.044788 202.182031 
L 384.096915 204.112084 
L 384.1523 203.980833 
L 384.370583 203.980833 
L 384.53348 203.849812 
L 384.640993 203.849812 
L 384.80389 203.719018 
L 384.911402 205.644031 
L 384.966787 205.511791 
L 385.129685 203.588452 
L 385.18507 203.588452 
L 385.347967 203.458113 
L 385.45548 203.458113 
L 385.618377 203.328 
L 385.725889 205.248 
L 385.888787 205.116448 
L 386.051684 203.068451 
L 386.269967 203.068451 
L 386.432864 202.939013 
L 386.540376 204.854026 
L 386.703274 204.723156 
L 386.814044 204.723156 
L 386.921556 204.592512 
L 387.084454 202.680809 
L 387.191966 202.552041 
L 387.354863 204.462093 
L 387.517761 204.3319 
L 387.628531 204.3319 
L 387.791429 204.201931 
L 387.898941 204.201931 
L 387.954326 204.072186 
L 388.006453 202.16707 
L 388.061838 204.072186 
L 388.169351 204.072186 
L 388.332248 203.942664 
L 388.443018 203.942664 
L 388.605916 203.813365 
L 388.713428 203.813365 
L 388.82094 203.684289 
L 388.876325 205.584495 
L 388.93171 203.684289 
L 388.983838 203.684289 
L 389.146735 203.555433 
L 389.257505 203.555433 
L 389.420403 203.426799 
L 389.527915 203.426799 
L 389.635427 203.298386 
L 389.798325 205.193707 
L 389.909095 205.06389 
L 390.071992 203.170192 
L 390.23489 203.042217 
L 390.342402 203.042217 
L 390.397787 202.914462 
L 390.560685 204.804923 
L 390.612812 204.804923 
L 390.775709 204.675771 
L 390.886479 204.675771 
L 390.938607 204.54684 
L 391.101504 202.659604 
L 391.156889 202.659604 
L 391.212274 202.532501 
L 391.375172 204.418128 
L 391.427299 204.418128 
L 391.590196 204.289635 
L 391.700966 204.289635 
L 391.863864 204.161362 
L 391.915991 204.161362 
L 392.026761 202.15249 
L 392.189659 204.033306 
L 392.241786 204.033306 
L 392.404683 203.905468 
L 392.515454 203.905468 
L 392.678351 203.777847 
L 392.785863 203.777847 
L 392.893376 205.526473 
L 393.056273 203.650443 
L 393.21917 203.523254 
L 393.329941 203.523254 
L 393.492838 203.396281 
L 393.60035 203.396281 
L 393.763248 205.140792 
L 393.87076 205.140792 
L 393.926145 205.012666 
L 394.089043 203.142979 
L 394.144428 203.142979 
L 394.307325 203.016649 
L 394.414837 203.016649 
L 394.577735 204.757063 
L 394.685247 204.757063 
L 394.848145 204.629585 
L 394.90353 204.629585 
L 395.066427 202.638935 
L 395.229324 202.638935 
L 395.392222 204.375273 
L 395.499734 204.375273 
L 395.662632 204.248437 
L 395.773402 204.248437 
L 395.880914 204.121815 
L 395.988426 202.263126 
L 396.043812 204.121815 
L 396.099197 203.995406 
L 396.314221 203.995406 
L 396.477119 203.869208 
L 396.587889 203.869208 
L 396.750786 203.743222 
L 396.802913 203.743222 
L 396.858299 205.597237 
L 396.913684 205.46991 
L 397.076581 203.617447 
L 397.128708 203.617447 
L 397.291606 203.491883 
L 397.402376 203.491883 
L 397.565273 203.366528 
L 397.617401 203.366528 
L 397.672786 205.215893 
L 397.728171 205.089203 
L 397.891068 205.089203 
L 398.053966 203.116447 
L 398.216863 203.116447 
L 398.37976 202.99172 
L 398.487273 204.836457 
L 398.487273 204.836457 
" style="fill:none;stroke:#1f77b4;stroke-linecap:square;stroke-width:1.5;"/>
   </g>
   <g id="patch_3">
    <path d="M 57.6 307.584 
L 57.6 41.472 
" style="fill:none;stroke:#000000;stroke-linecap:square;stroke-linejoin:miter;stroke-width:0.8;"/>
   </g>
   <g id="patch_4">
    <path d="M 414.72 307.584 
L 414.72 41.472 
" style="fill:none;stroke:#000000;stroke-linecap:square;stroke-linejoin:miter;stroke-width:0.8;"/>
   </g>
   <g id="patch_5">
    <path d="M 57.6 307.584 
L 414.72 307.584 
" style="fill:none;stroke:#000000;stroke-linecap:square;stroke-linejoin:miter;stroke-width:0.8;"/>
   </g>
   <g id="patch_6">
    <path d="M 57.6 41.472 
L 414.72 41.472 
" style="fill:none;stroke:#000000;stroke-linecap:square;stroke-linejoin:miter;stroke-width:0.8;"/>
   </g>
   <g id="text_16">
    <!-- Speed function of time -->
    <g transform="translate(167.024063 35.472)scale(0.12 -0.12)">
     <defs>
      <path id="DejaVuSerif-32"/>
      <path d="M 43.015625 63.71875 
L 38.28125 63.71875 
Q 38.234375 67.390625 36.203125 69.28125 
Q 34.1875 71.1875 30.328125 71.1875 
Q 25.296875 71.1875 23.234375 68.421875 
Q 21.1875 65.671875 21.1875 58.59375 
L 21.1875 51.90625 
L 35.6875 51.90625 
L 35.6875 46.6875 
L 21.1875 46.6875 
L 21.1875 5.171875 
L 32.71875 5.171875 
L 32.71875 0 
L 3.609375 0 
L 3.609375 5.171875 
L 12.203125 5.171875 
L 12.203125 46.6875 
L 3.609375 46.6875 
L 3.609375 51.90625 
L 12.203125 51.90625 
L 12.203125 58.40625 
Q 12.203125 67.09375 16.71875 71.53125 
Q 21.234375 75.984375 29.984375 75.984375 
Q 33.25 75.984375 36.515625 75.390625 
Q 39.796875 74.8125 43.015625 73.578125 
z
" id="DejaVuSerif-102"/>
      <path d="M 35.40625 51.90625 
L 52.203125 51.90625 
L 52.203125 5.171875 
L 60.6875 5.171875 
L 60.6875 0 
L 43.21875 0 
L 43.21875 9.1875 
Q 40.71875 4 36.765625 1.28125 
Q 32.8125 -1.421875 27.59375 -1.421875 
Q 18.953125 -1.421875 14.875 3.484375 
Q 10.796875 8.40625 10.796875 18.890625 
L 10.796875 46.6875 
L 2.6875 46.6875 
L 2.6875 51.90625 
L 19.828125 51.90625 
L 19.828125 21.6875 
Q 19.828125 12.203125 22.140625 8.6875 
Q 24.46875 5.171875 30.421875 5.171875 
Q 36.671875 5.171875 39.9375 9.765625 
Q 43.21875 14.359375 43.21875 23.09375 
L 43.21875 46.6875 
L 35.40625 46.6875 
z
" id="DejaVuSerif-117"/>
      <path d="M 4.109375 0 
L 4.109375 5.171875 
L 12.203125 5.171875 
L 12.203125 46.6875 
L 3.609375 46.6875 
L 3.609375 51.90625 
L 21.1875 51.90625 
L 21.1875 42.671875 
Q 23.6875 47.953125 27.65625 50.640625 
Q 31.640625 53.328125 36.921875 53.328125 
Q 45.515625 53.328125 49.5625 48.390625 
Q 53.609375 43.453125 53.609375 33.015625 
L 53.609375 5.171875 
L 61.625 5.171875 
L 61.625 0 
L 36.8125 0 
L 36.8125 5.171875 
L 44.578125 5.171875 
L 44.578125 30.171875 
Q 44.578125 39.703125 42.234375 43.234375 
Q 39.890625 46.78125 33.984375 46.78125 
Q 27.734375 46.78125 24.453125 42.203125 
Q 21.1875 37.640625 21.1875 28.90625 
L 21.1875 5.171875 
L 29 5.171875 
L 29 0 
z
" id="DejaVuSerif-110"/>
      <path d="M 51.421875 15.578125 
Q 49.515625 7.28125 44.09375 2.921875 
Q 38.671875 -1.421875 30.078125 -1.421875 
Q 18.75 -1.421875 11.859375 6.078125 
Q 4.984375 13.578125 4.984375 25.984375 
Q 4.984375 38.421875 11.859375 45.875 
Q 18.75 53.328125 30.078125 53.328125 
Q 35.015625 53.328125 39.890625 52.171875 
Q 44.78125 51.03125 49.703125 48.6875 
L 49.703125 35.40625 
L 44.484375 35.40625 
Q 43.453125 42.234375 40.015625 45.359375 
Q 36.578125 48.484375 30.171875 48.484375 
Q 22.90625 48.484375 19.1875 42.84375 
Q 15.484375 37.203125 15.484375 25.984375 
Q 15.484375 14.75 19.171875 9.078125 
Q 22.859375 3.421875 30.171875 3.421875 
Q 35.984375 3.421875 39.453125 6.4375 
Q 42.921875 9.46875 44.1875 15.578125 
z
" id="DejaVuSerif-99"/>
      <path d="M 10.796875 46.6875 
L 2.875 46.6875 
L 2.875 51.90625 
L 10.796875 51.90625 
L 10.796875 68.015625 
L 19.828125 68.015625 
L 19.828125 51.90625 
L 36.71875 51.90625 
L 36.71875 46.6875 
L 19.828125 46.6875 
L 19.828125 13.71875 
Q 19.828125 7.125 21.09375 5.265625 
Q 22.359375 3.421875 25.78125 3.421875 
Q 29.296875 3.421875 30.90625 5.484375 
Q 32.515625 7.5625 32.625 12.203125 
L 39.40625 12.203125 
Q 39.015625 5.125 35.546875 1.84375 
Q 32.078125 -1.421875 25 -1.421875 
Q 17.234375 -1.421875 14.015625 2.015625 
Q 10.796875 5.46875 10.796875 13.71875 
z
" id="DejaVuSerif-116"/>
      <path d="M 30.078125 3.421875 
Q 37.3125 3.421875 40.984375 9.125 
Q 44.671875 14.84375 44.671875 25.984375 
Q 44.671875 37.109375 40.984375 42.796875 
Q 37.3125 48.484375 30.078125 48.484375 
Q 22.859375 48.484375 19.171875 42.796875 
Q 15.484375 37.109375 15.484375 25.984375 
Q 15.484375 14.84375 19.1875 9.125 
Q 22.90625 3.421875 30.078125 3.421875 
z
M 30.078125 -1.421875 
Q 18.75 -1.421875 11.859375 6.078125 
Q 4.984375 13.578125 4.984375 25.984375 
Q 4.984375 38.375 11.84375 45.84375 
Q 18.703125 53.328125 30.078125 53.328125 
Q 41.453125 53.328125 48.3125 45.84375 
Q 55.171875 38.375 55.171875 25.984375 
Q 55.171875 13.578125 48.3125 6.078125 
Q 41.453125 -1.421875 30.078125 -1.421875 
z
" id="DejaVuSerif-111"/>
     </defs>
     <use xlink:href="#DejaVuSerif-83"/>
     <use x="68.505859" xlink:href="#DejaVuSerif-112"/>
     <use x="132.519531" xlink:href="#DejaVuSerif-101"/>
     <use x="191.699219" xlink:href="#DejaVuSerif-101"/>
     <use x="250.878906" xlink:href="#DejaVuSerif-100"/>
     <use x="314.892578" xlink:href="#DejaVuSerif-32"/>
     <use x="346.679688" xlink:href="#DejaVuSerif-102"/>
     <use x="383.691406" xlink:href="#DejaVuSerif-117"/>
     <use x="448.095703" xlink:href="#DejaVuSerif-110"/>
     <use x="512.5" xlink:href="#DejaVuSerif-99"/>
     <use x="568.505859" xlink:href="#DejaVuSerif-116"/>
     <use x="608.691406" xlink:href="#DejaVuSerif-105"/>
     <use x="640.673828" xlink:href="#DejaVuSerif-111"/>
     <use x="700.878906" xlink:href="#DejaVuSerif-110"/>
     <use x="765.283203" xlink:href="#DejaVuSerif-32"/>
     <use x="797.070312" xlink:href="#DejaVuSerif-111"/>
     <use x="857.275391" xlink:href="#DejaVuSerif-102"/>
     <use x="894.287109" xlink:href="#DejaVuSerif-32"/>
     <use x="926.074219" xlink:href="#DejaVuSerif-116"/>
     <use x="966.259766" xlink:href="#DejaVuSerif-105"/>
     <use x="998.242188" xlink:href="#DejaVuSerif-109"/>
     <use x="1093.066406" xlink:href="#DejaVuSerif-101"/>
    </g>
   </g>
  </g>
 </g>
 <defs>
  <clipPath id="p57d5a71d38">
   <rect height="266.112" width="357.12" x="57.6" y="41.472"/>
  </clipPath>
 </defs>
</svg>
