<?xml version="1.0" encoding="utf-8" standalone="no"?>
<!DOCTYPE svg PUBLIC "-//W3C//DTD SVG 1.1//EN"
  "http://www.w3.org/Graphics/SVG/1.1/DTD/svg11.dtd">
<!-- Created with matplotlib (https://matplotlib.org/) -->
<svg height="345.6pt" version="1.1" viewBox="0 0 460.8 345.6" width="460.8pt" xmlns="http://www.w3.org/2000/svg" xmlns:xlink="http://www.w3.org/1999/xlink">
 <metadata>
  <rdf:RDF xmlns:cc="http://creativecommons.org/ns#" xmlns:dc="http://purl.org/dc/elements/1.1/" xmlns:rdf="http://www.w3.org/1999/02/22-rdf-syntax-ns#">
   <cc:Work>
    <dc:type rdf:resource="http://purl.org/dc/dcmitype/StillImage"/>
    <dc:date>2022-07-18T02:12:30.622966</dc:date>
    <dc:format>image/svg+xml</dc:format>
    <dc:creator>
     <cc:Agent>
      <dc:title>Matplotlib v3.3.4, https://matplotlib.org/</dc:title>
     </cc:Agent>
    </dc:creator>
   </cc:Work>
  </rdf:RDF>
 </metadata>
 <defs>
  <style type="text/css">*{stroke-linecap:butt;stroke-linejoin:round;}</style>
 </defs>
 <g id="figure_1">
  <g id="patch_1">
   <path d="M 0 345.6 
L 460.8 345.6 
L 460.8 0 
L 0 0 
z
" style="fill:#ffffff;"/>
  </g>
  <g id="axes_1">
   <g id="patch_2">
    <path d="M 57.6 307.584 
L 414.72 307.584 
L 414.72 41.472 
L 57.6 41.472 
z
" style="fill:#ffffff;"/>
   </g>
   <g id="matplotlib.axis_1">
    <g id="xtick_1">
     <g id="line2d_1">
      <defs>
       <path d="M 0 0 
L 0 3.5 
" id="m8ecddbcfa6" style="stroke:#000000;stroke-width:0.8;"/>
      </defs>
      <g>
       <use style="stroke:#000000;stroke-width:0.8;" x="68.050076" xlink:href="#m8ecddbcfa6" y="307.584"/>
      </g>
     </g>
     <g id="text_1">
      <!-- 0 -->
      <g transform="translate(64.868826 322.182437)scale(0.1 -0.1)">
       <defs>
        <path d="M 31.78125 3.421875 
Q 39.265625 3.421875 42.96875 11.625 
Q 46.6875 19.828125 46.6875 36.375 
Q 46.6875 52.984375 42.96875 61.1875 
Q 39.265625 69.390625 31.78125 69.390625 
Q 24.3125 69.390625 20.59375 61.1875 
Q 16.890625 52.984375 16.890625 36.375 
Q 16.890625 19.828125 20.59375 11.625 
Q 24.3125 3.421875 31.78125 3.421875 
z
M 31.78125 -1.421875 
Q 19.921875 -1.421875 13.25 8.53125 
Q 6.59375 18.5 6.59375 36.375 
Q 6.59375 54.296875 13.25 64.25 
Q 19.921875 74.21875 31.78125 74.21875 
Q 43.703125 74.21875 50.34375 64.25 
Q 56.984375 54.296875 56.984375 36.375 
Q 56.984375 18.5 50.34375 8.53125 
Q 43.703125 -1.421875 31.78125 -1.421875 
z
" id="DejaVuSerif-48"/>
       </defs>
       <use xlink:href="#DejaVuSerif-48"/>
      </g>
     </g>
    </g>
    <g id="xtick_2">
     <g id="line2d_2">
      <g>
       <use style="stroke:#000000;stroke-width:0.8;" x="109.354726" xlink:href="#m8ecddbcfa6" y="307.584"/>
      </g>
     </g>
     <g id="text_2">
      <!-- 25 -->
      <g transform="translate(102.992226 322.182437)scale(0.1 -0.1)">
       <defs>
        <path d="M 12.796875 55.515625 
L 7.328125 55.515625 
L 7.328125 68.5 
Q 12.546875 71.296875 17.84375 72.75 
Q 23.140625 74.21875 28.21875 74.21875 
Q 39.59375 74.21875 46.1875 68.703125 
Q 52.78125 63.1875 52.78125 53.71875 
Q 52.78125 43.015625 37.84375 28.125 
Q 36.671875 27 36.078125 26.421875 
L 17.671875 8.015625 
L 48.09375 8.015625 
L 48.09375 17 
L 53.8125 17 
L 53.8125 0 
L 6.78125 0 
L 6.78125 5.328125 
L 28.90625 27.390625 
Q 36.234375 34.71875 39.359375 40.84375 
Q 42.484375 46.96875 42.484375 53.71875 
Q 42.484375 61.078125 38.640625 65.234375 
Q 34.8125 69.390625 28.078125 69.390625 
Q 21.09375 69.390625 17.28125 65.921875 
Q 13.484375 62.453125 12.796875 55.515625 
z
" id="DejaVuSerif-50"/>
        <path d="M 50.296875 72.90625 
L 50.296875 64.890625 
L 16.890625 64.890625 
L 16.890625 44 
Q 19.4375 45.75 22.828125 46.625 
Q 26.21875 47.515625 30.421875 47.515625 
Q 42.234375 47.515625 49.0625 40.96875 
Q 55.90625 34.421875 55.90625 23.09375 
Q 55.90625 11.53125 49 5.046875 
Q 42.09375 -1.421875 29.59375 -1.421875 
Q 24.5625 -1.421875 19.28125 -0.1875 
Q 14.015625 1.03125 8.5 3.515625 
L 8.5 17.671875 
L 14.015625 17.671875 
Q 14.453125 10.75 18.421875 7.078125 
Q 22.40625 3.421875 29.59375 3.421875 
Q 37.3125 3.421875 41.453125 8.5 
Q 45.609375 13.578125 45.609375 23.09375 
Q 45.609375 32.5625 41.484375 37.609375 
Q 37.359375 42.671875 29.59375 42.671875 
Q 25.203125 42.671875 21.84375 41.109375 
Q 18.5 39.546875 15.921875 36.28125 
L 11.71875 36.28125 
L 11.71875 72.90625 
z
" id="DejaVuSerif-53"/>
       </defs>
       <use xlink:href="#DejaVuSerif-50"/>
       <use x="63.623047" xlink:href="#DejaVuSerif-53"/>
      </g>
     </g>
    </g>
    <g id="xtick_3">
     <g id="line2d_3">
      <g>
       <use style="stroke:#000000;stroke-width:0.8;" x="150.659375" xlink:href="#m8ecddbcfa6" y="307.584"/>
      </g>
     </g>
     <g id="text_3">
      <!-- 50 -->
      <g transform="translate(144.296875 322.182437)scale(0.1 -0.1)">
       <use xlink:href="#DejaVuSerif-53"/>
       <use x="63.623047" xlink:href="#DejaVuSerif-48"/>
      </g>
     </g>
    </g>
    <g id="xtick_4">
     <g id="line2d_4">
      <g>
       <use style="stroke:#000000;stroke-width:0.8;" x="191.964025" xlink:href="#m8ecddbcfa6" y="307.584"/>
      </g>
     </g>
     <g id="text_4">
      <!-- 75 -->
      <g transform="translate(185.601525 322.182437)scale(0.1 -0.1)">
       <defs>
        <path d="M 56.390625 67.921875 
L 27.875 0 
L 20.609375 0 
L 47.796875 64.890625 
L 14.109375 64.890625 
L 14.109375 55.90625 
L 8.40625 55.90625 
L 8.40625 72.90625 
L 56.390625 72.90625 
z
" id="DejaVuSerif-55"/>
       </defs>
       <use xlink:href="#DejaVuSerif-55"/>
       <use x="63.623047" xlink:href="#DejaVuSerif-53"/>
      </g>
     </g>
    </g>
    <g id="xtick_5">
     <g id="line2d_5">
      <g>
       <use style="stroke:#000000;stroke-width:0.8;" x="233.268675" xlink:href="#m8ecddbcfa6" y="307.584"/>
      </g>
     </g>
     <g id="text_5">
      <!-- 100 -->
      <g transform="translate(223.724925 322.182437)scale(0.1 -0.1)">
       <defs>
        <path d="M 14.203125 0 
L 14.203125 5.171875 
L 26.90625 5.171875 
L 26.90625 65.828125 
L 12.203125 56.296875 
L 12.203125 62.703125 
L 29.984375 74.21875 
L 36.71875 74.21875 
L 36.71875 5.171875 
L 49.421875 5.171875 
L 49.421875 0 
z
" id="DejaVuSerif-49"/>
       </defs>
       <use xlink:href="#DejaVuSerif-49"/>
       <use x="63.623047" xlink:href="#DejaVuSerif-48"/>
       <use x="127.246094" xlink:href="#DejaVuSerif-48"/>
      </g>
     </g>
    </g>
    <g id="xtick_6">
     <g id="line2d_6">
      <g>
       <use style="stroke:#000000;stroke-width:0.8;" x="274.573324" xlink:href="#m8ecddbcfa6" y="307.584"/>
      </g>
     </g>
     <g id="text_6">
      <!-- 125 -->
      <g transform="translate(265.029574 322.182437)scale(0.1 -0.1)">
       <use xlink:href="#DejaVuSerif-49"/>
       <use x="63.623047" xlink:href="#DejaVuSerif-50"/>
       <use x="127.246094" xlink:href="#DejaVuSerif-53"/>
      </g>
     </g>
    </g>
    <g id="xtick_7">
     <g id="line2d_7">
      <g>
       <use style="stroke:#000000;stroke-width:0.8;" x="315.877974" xlink:href="#m8ecddbcfa6" y="307.584"/>
      </g>
     </g>
     <g id="text_7">
      <!-- 150 -->
      <g transform="translate(306.334224 322.182437)scale(0.1 -0.1)">
       <use xlink:href="#DejaVuSerif-49"/>
       <use x="63.623047" xlink:href="#DejaVuSerif-53"/>
       <use x="127.246094" xlink:href="#DejaVuSerif-48"/>
      </g>
     </g>
    </g>
    <g id="xtick_8">
     <g id="line2d_8">
      <g>
       <use style="stroke:#000000;stroke-width:0.8;" x="357.182623" xlink:href="#m8ecddbcfa6" y="307.584"/>
      </g>
     </g>
     <g id="text_8">
      <!-- 175 -->
      <g transform="translate(347.638873 322.182437)scale(0.1 -0.1)">
       <use xlink:href="#DejaVuSerif-49"/>
       <use x="63.623047" xlink:href="#DejaVuSerif-55"/>
       <use x="127.246094" xlink:href="#DejaVuSerif-53"/>
      </g>
     </g>
    </g>
    <g id="xtick_9">
     <g id="line2d_9">
      <g>
       <use style="stroke:#000000;stroke-width:0.8;" x="398.487273" xlink:href="#m8ecddbcfa6" y="307.584"/>
      </g>
     </g>
     <g id="text_9">
      <!-- 200 -->
      <g transform="translate(388.943523 322.182437)scale(0.1 -0.1)">
       <use xlink:href="#DejaVuSerif-50"/>
       <use x="63.623047" xlink:href="#DejaVuSerif-48"/>
       <use x="127.246094" xlink:href="#DejaVuSerif-48"/>
      </g>
     </g>
    </g>
    <g id="text_10">
     <!-- Time -->
     <g transform="translate(223.524844 335.860562)scale(0.1 -0.1)">
      <defs>
       <path d="M 19.09375 0 
L 19.09375 5.171875 
L 28.421875 5.171875 
L 28.421875 67.09375 
L 6.984375 67.09375 
L 6.984375 55.71875 
L 0.984375 55.71875 
L 0.984375 72.90625 
L 65.71875 72.90625 
L 65.71875 55.71875 
L 59.71875 55.71875 
L 59.71875 67.09375 
L 38.28125 67.09375 
L 38.28125 5.171875 
L 47.609375 5.171875 
L 47.609375 0 
z
" id="DejaVuSerif-84"/>
       <path d="M 9.71875 68.015625 
Q 9.71875 70.265625 11.34375 71.921875 
Q 12.984375 73.578125 15.28125 73.578125 
Q 17.53125 73.578125 19.15625 71.921875 
Q 20.796875 70.265625 20.796875 68.015625 
Q 20.796875 65.71875 19.1875 64.109375 
Q 17.578125 62.5 15.28125 62.5 
Q 12.984375 62.5 11.34375 64.109375 
Q 9.71875 65.71875 9.71875 68.015625 
z
M 21.1875 5.171875 
L 29.6875 5.171875 
L 29.6875 0 
L 3.609375 0 
L 3.609375 5.171875 
L 12.203125 5.171875 
L 12.203125 46.6875 
L 3.609375 46.6875 
L 3.609375 51.90625 
L 21.1875 51.90625 
z
" id="DejaVuSerif-105"/>
       <path d="M 51.8125 41.796875 
Q 54.390625 47.515625 58.421875 50.421875 
Q 62.453125 53.328125 67.828125 53.328125 
Q 75.984375 53.328125 79.984375 48.265625 
Q 83.984375 43.21875 83.984375 33.015625 
L 83.984375 5.171875 
L 92.09375 5.171875 
L 92.09375 0 
L 67.1875 0 
L 67.1875 5.171875 
L 75 5.171875 
L 75 31.984375 
Q 75 39.9375 72.65625 43.3125 
Q 70.3125 46.6875 64.890625 46.6875 
Q 58.890625 46.6875 55.734375 42.140625 
Q 52.59375 37.59375 52.59375 28.90625 
L 52.59375 5.171875 
L 60.40625 5.171875 
L 60.40625 0 
L 35.796875 0 
L 35.796875 5.171875 
L 43.609375 5.171875 
L 43.609375 32.328125 
Q 43.609375 40.09375 41.265625 43.390625 
Q 38.921875 46.6875 33.5 46.6875 
Q 27.484375 46.6875 24.328125 42.140625 
Q 21.1875 37.59375 21.1875 28.90625 
L 21.1875 5.171875 
L 29 5.171875 
L 29 0 
L 4.109375 0 
L 4.109375 5.171875 
L 12.203125 5.171875 
L 12.203125 46.78125 
L 3.609375 46.78125 
L 3.609375 51.90625 
L 21.1875 51.90625 
L 21.1875 42.671875 
Q 23.6875 47.859375 27.53125 50.59375 
Q 31.390625 53.328125 36.28125 53.328125 
Q 42.328125 53.328125 46.375 50.3125 
Q 50.4375 47.3125 51.8125 41.796875 
z
" id="DejaVuSerif-109"/>
       <path d="M 54.203125 25 
L 15.484375 25 
L 15.484375 24.609375 
Q 15.484375 14.109375 19.4375 8.765625 
Q 23.390625 3.421875 31.109375 3.421875 
Q 37.015625 3.421875 40.796875 6.515625 
Q 44.578125 9.625 46.09375 15.71875 
L 53.328125 15.71875 
Q 51.171875 7.171875 45.375 2.875 
Q 39.59375 -1.421875 30.171875 -1.421875 
Q 18.796875 -1.421875 11.890625 6.078125 
Q 4.984375 13.578125 4.984375 25.984375 
Q 4.984375 38.28125 11.765625 45.796875 
Q 18.5625 53.328125 29.59375 53.328125 
Q 41.359375 53.328125 47.65625 46.0625 
Q 53.953125 38.8125 54.203125 25 
z
M 43.609375 30.171875 
Q 43.3125 39.265625 39.765625 43.875 
Q 36.234375 48.484375 29.59375 48.484375 
Q 23.390625 48.484375 19.828125 43.84375 
Q 16.265625 39.203125 15.484375 30.171875 
z
" id="DejaVuSerif-101"/>
      </defs>
      <use xlink:href="#DejaVuSerif-84"/>
      <use x="66.699219" xlink:href="#DejaVuSerif-105"/>
      <use x="98.681641" xlink:href="#DejaVuSerif-109"/>
      <use x="193.505859" xlink:href="#DejaVuSerif-101"/>
     </g>
    </g>
   </g>
   <g id="matplotlib.axis_2">
    <g id="ytick_1">
     <g id="line2d_10">
      <defs>
       <path d="M 0 0 
L -3.5 0 
" id="m2cd9501793" style="stroke:#000000;stroke-width:0.8;"/>
      </defs>
      <g>
       <use style="stroke:#000000;stroke-width:0.8;" x="57.6" xlink:href="#m2cd9501793" y="295.488"/>
      </g>
     </g>
     <g id="text_11">
      <!-- 0.0 -->
      <g transform="translate(34.696875 299.287219)scale(0.1 -0.1)">
       <defs>
        <path d="M 9.421875 5.078125 
Q 9.421875 7.8125 11.28125 9.71875 
Q 13.140625 11.625 15.921875 11.625 
Q 18.609375 11.625 20.5 9.71875 
Q 22.40625 7.8125 22.40625 5.078125 
Q 22.40625 2.390625 20.5 0.484375 
Q 18.609375 -1.421875 15.921875 -1.421875 
Q 13.140625 -1.421875 11.28125 0.453125 
Q 9.421875 2.34375 9.421875 5.078125 
z
" id="DejaVuSerif-46"/>
       </defs>
       <use xlink:href="#DejaVuSerif-48"/>
       <use x="63.623047" xlink:href="#DejaVuSerif-46"/>
       <use x="95.410156" xlink:href="#DejaVuSerif-48"/>
      </g>
     </g>
    </g>
    <g id="ytick_2">
     <g id="line2d_11">
      <g>
       <use style="stroke:#000000;stroke-width:0.8;" x="57.6" xlink:href="#m2cd9501793" y="263.232"/>
      </g>
     </g>
     <g id="text_12">
      <!-- 0.2 -->
      <g transform="translate(34.696875 267.031219)scale(0.1 -0.1)">
       <use xlink:href="#DejaVuSerif-48"/>
       <use x="63.623047" xlink:href="#DejaVuSerif-46"/>
       <use x="95.410156" xlink:href="#DejaVuSerif-50"/>
      </g>
     </g>
    </g>
    <g id="ytick_3">
     <g id="line2d_12">
      <g>
       <use style="stroke:#000000;stroke-width:0.8;" x="57.6" xlink:href="#m2cd9501793" y="230.976"/>
      </g>
     </g>
     <g id="text_13">
      <!-- 0.4 -->
      <g transform="translate(34.696875 234.775219)scale(0.1 -0.1)">
       <defs>
        <path d="M 34.90625 24.703125 
L 34.90625 63.484375 
L 10.015625 24.703125 
z
M 56.390625 0 
L 23.1875 0 
L 23.1875 5.171875 
L 34.90625 5.171875 
L 34.90625 19.484375 
L 3.078125 19.484375 
L 3.078125 24.8125 
L 35.015625 74.21875 
L 44.671875 74.21875 
L 44.671875 24.703125 
L 58.59375 24.703125 
L 58.59375 19.484375 
L 44.671875 19.484375 
L 44.671875 5.171875 
L 56.390625 5.171875 
z
" id="DejaVuSerif-52"/>
       </defs>
       <use xlink:href="#DejaVuSerif-48"/>
       <use x="63.623047" xlink:href="#DejaVuSerif-46"/>
       <use x="95.410156" xlink:href="#DejaVuSerif-52"/>
      </g>
     </g>
    </g>
    <g id="ytick_4">
     <g id="line2d_13">
      <g>
       <use style="stroke:#000000;stroke-width:0.8;" x="57.6" xlink:href="#m2cd9501793" y="198.72"/>
      </g>
     </g>
     <g id="text_14">
      <!-- 0.6 -->
      <g transform="translate(34.696875 202.519219)scale(0.1 -0.1)">
       <defs>
        <path d="M 32.71875 3.421875 
Q 39.59375 3.421875 43.296875 8.46875 
Q 47.015625 13.53125 47.015625 23 
Q 47.015625 32.46875 43.296875 37.515625 
Q 39.59375 42.578125 32.71875 42.578125 
Q 25.734375 42.578125 22.0625 37.6875 
Q 18.40625 32.8125 18.40625 23.578125 
Q 18.40625 13.875 22.109375 8.640625 
Q 25.828125 3.421875 32.71875 3.421875 
z
M 16.796875 40.140625 
Q 20.125 43.796875 24.3125 45.59375 
Q 28.515625 47.40625 33.796875 47.40625 
Q 44.671875 47.40625 51 40.859375 
Q 57.328125 34.328125 57.328125 23 
Q 57.328125 11.921875 50.515625 5.25 
Q 43.703125 -1.421875 32.328125 -1.421875 
Q 19.96875 -1.421875 13.328125 7.78125 
Q 6.6875 17 6.6875 34.078125 
Q 6.6875 53.21875 14.546875 63.71875 
Q 22.40625 74.21875 36.71875 74.21875 
Q 40.578125 74.21875 44.828125 73.484375 
Q 49.078125 72.75 53.515625 71.296875 
L 53.515625 59.28125 
L 48 59.28125 
Q 47.40625 64.203125 44.234375 66.796875 
Q 41.0625 69.390625 35.6875 69.390625 
Q 26.21875 69.390625 21.578125 62.203125 
Q 16.9375 55.03125 16.796875 40.140625 
z
" id="DejaVuSerif-54"/>
       </defs>
       <use xlink:href="#DejaVuSerif-48"/>
       <use x="63.623047" xlink:href="#DejaVuSerif-46"/>
       <use x="95.410156" xlink:href="#DejaVuSerif-54"/>
      </g>
     </g>
    </g>
    <g id="ytick_5">
     <g id="line2d_14">
      <g>
       <use style="stroke:#000000;stroke-width:0.8;" x="57.6" xlink:href="#m2cd9501793" y="166.464"/>
      </g>
     </g>
     <g id="text_15">
      <!-- 0.8 -->
      <g transform="translate(34.696875 170.263219)scale(0.1 -0.1)">
       <defs>
        <path d="M 46.578125 19.921875 
Q 46.578125 27.734375 42.6875 32.046875 
Q 38.8125 36.375 31.78125 36.375 
Q 24.75 36.375 20.875 32.046875 
Q 17 27.734375 17 19.921875 
Q 17 12.0625 20.875 7.734375 
Q 24.75 3.421875 31.78125 3.421875 
Q 38.8125 3.421875 42.6875 7.734375 
Q 46.578125 12.0625 46.578125 19.921875 
z
M 44.578125 55.328125 
Q 44.578125 61.96875 41.203125 65.671875 
Q 37.84375 69.390625 31.78125 69.390625 
Q 25.78125 69.390625 22.390625 65.671875 
Q 19 61.96875 19 55.328125 
Q 19 48.640625 22.390625 44.921875 
Q 25.78125 41.21875 31.78125 41.21875 
Q 37.84375 41.21875 41.203125 44.921875 
Q 44.578125 48.640625 44.578125 55.328125 
z
M 39.3125 38.8125 
Q 47.609375 37.703125 52.25 32.6875 
Q 56.890625 27.6875 56.890625 19.921875 
Q 56.890625 9.671875 50.390625 4.125 
Q 43.890625 -1.421875 31.78125 -1.421875 
Q 19.734375 -1.421875 13.203125 4.125 
Q 6.6875 9.671875 6.6875 19.921875 
Q 6.6875 27.6875 11.328125 32.6875 
Q 15.96875 37.703125 24.3125 38.8125 
Q 16.9375 40.140625 13 44.40625 
Q 9.078125 48.6875 9.078125 55.328125 
Q 9.078125 64.109375 15.125 69.15625 
Q 21.1875 74.21875 31.78125 74.21875 
Q 42.390625 74.21875 48.4375 69.15625 
Q 54.5 64.109375 54.5 55.328125 
Q 54.5 48.6875 50.5625 44.40625 
Q 46.625 40.140625 39.3125 38.8125 
z
" id="DejaVuSerif-56"/>
       </defs>
       <use xlink:href="#DejaVuSerif-48"/>
       <use x="63.623047" xlink:href="#DejaVuSerif-46"/>
       <use x="95.410156" xlink:href="#DejaVuSerif-56"/>
      </g>
     </g>
    </g>
    <g id="ytick_6">
     <g id="line2d_15">
      <g>
       <use style="stroke:#000000;stroke-width:0.8;" x="57.6" xlink:href="#m2cd9501793" y="134.208"/>
      </g>
     </g>
     <g id="text_16">
      <!-- 1.0 -->
      <g transform="translate(34.696875 138.007219)scale(0.1 -0.1)">
       <use xlink:href="#DejaVuSerif-49"/>
       <use x="63.623047" xlink:href="#DejaVuSerif-46"/>
       <use x="95.410156" xlink:href="#DejaVuSerif-48"/>
      </g>
     </g>
    </g>
    <g id="ytick_7">
     <g id="line2d_16">
      <g>
       <use style="stroke:#000000;stroke-width:0.8;" x="57.6" xlink:href="#m2cd9501793" y="101.952"/>
      </g>
     </g>
     <g id="text_17">
      <!-- 1.2 -->
      <g transform="translate(34.696875 105.751219)scale(0.1 -0.1)">
       <use xlink:href="#DejaVuSerif-49"/>
       <use x="63.623047" xlink:href="#DejaVuSerif-46"/>
       <use x="95.410156" xlink:href="#DejaVuSerif-50"/>
      </g>
     </g>
    </g>
    <g id="ytick_8">
     <g id="line2d_17">
      <g>
       <use style="stroke:#000000;stroke-width:0.8;" x="57.6" xlink:href="#m2cd9501793" y="69.696"/>
      </g>
     </g>
     <g id="text_18">
      <!-- 1.4 -->
      <g transform="translate(34.696875 73.495219)scale(0.1 -0.1)">
       <use xlink:href="#DejaVuSerif-49"/>
       <use x="63.623047" xlink:href="#DejaVuSerif-46"/>
       <use x="95.410156" xlink:href="#DejaVuSerif-52"/>
      </g>
     </g>
    </g>
    <g id="text_19">
     <!-- Speed -->
     <g transform="translate(28.617187 190.273313)rotate(-90)scale(0.1 -0.1)">
      <defs>
       <path d="M 9.28125 3.515625 
L 9.28125 20.125 
L 14.890625 20.0625 
Q 15.140625 11.765625 19.703125 7.78125 
Q 24.265625 3.8125 33.59375 3.8125 
Q 42.28125 3.8125 46.84375 7.25 
Q 51.421875 10.6875 51.421875 17.28125 
Q 51.421875 22.5625 48.65625 25.390625 
Q 45.90625 28.21875 37.015625 30.90625 
L 27.390625 33.796875 
Q 16.9375 36.96875 12.671875 41.703125 
Q 8.40625 46.4375 8.40625 54.6875 
Q 8.40625 63.96875 14.984375 69.09375 
Q 21.578125 74.21875 33.5 74.21875 
Q 38.578125 74.21875 44.625 73.109375 
Q 50.6875 72.015625 57.515625 69.921875 
L 57.515625 54.390625 
L 52 54.390625 
Q 51.171875 62.109375 46.84375 65.546875 
Q 42.53125 69 33.6875 69 
Q 25.984375 69 21.953125 65.84375 
Q 17.921875 62.703125 17.921875 56.6875 
Q 17.921875 51.46875 20.9375 48.484375 
Q 23.96875 45.515625 33.796875 42.578125 
L 42.828125 39.890625 
Q 52.734375 36.921875 56.953125 32.296875 
Q 61.1875 27.6875 61.1875 19.921875 
Q 61.1875 9.328125 54.390625 3.953125 
Q 47.609375 -1.421875 34.1875 -1.421875 
Q 28.171875 -1.421875 21.9375 -0.1875 
Q 15.71875 1.03125 9.28125 3.515625 
z
" id="DejaVuSerif-83"/>
       <path d="M 20.515625 28.515625 
L 20.515625 23.390625 
Q 20.515625 14.015625 24.09375 9.109375 
Q 27.6875 4.203125 34.515625 4.203125 
Q 41.40625 4.203125 44.9375 9.71875 
Q 48.484375 15.234375 48.484375 25.984375 
Q 48.484375 36.765625 44.9375 42.234375 
Q 41.40625 47.703125 34.515625 47.703125 
Q 27.6875 47.703125 24.09375 42.765625 
Q 20.515625 37.84375 20.515625 28.515625 
z
M 11.53125 46.6875 
L 2.875 46.6875 
L 2.875 51.90625 
L 20.515625 51.90625 
L 20.515625 43.796875 
Q 23.140625 48.6875 27.21875 51 
Q 31.296875 53.328125 37.3125 53.328125 
Q 46.875 53.328125 52.921875 45.75 
Q 58.984375 38.1875 58.984375 25.984375 
Q 58.984375 13.765625 52.921875 6.171875 
Q 46.875 -1.421875 37.3125 -1.421875 
Q 31.296875 -1.421875 27.21875 0.890625 
Q 23.140625 3.21875 20.515625 8.109375 
L 20.515625 -15.578125 
L 29 -15.578125 
L 29 -20.796875 
L 2.875 -20.796875 
L 2.875 -15.578125 
L 11.53125 -15.578125 
z
" id="DejaVuSerif-112"/>
       <path d="M 52.484375 5.171875 
L 61.078125 5.171875 
L 61.078125 0 
L 43.5 0 
L 43.5 8.109375 
Q 40.875 3.21875 36.796875 0.890625 
Q 32.71875 -1.421875 26.703125 -1.421875 
Q 17.140625 -1.421875 11.0625 6.171875 
Q 4.984375 13.765625 4.984375 25.984375 
Q 4.984375 38.1875 11.03125 45.75 
Q 17.09375 53.328125 26.703125 53.328125 
Q 32.71875 53.328125 36.796875 51 
Q 40.875 48.6875 43.5 43.796875 
L 43.5 70.796875 
L 35.015625 70.796875 
L 35.015625 75.984375 
L 52.484375 75.984375 
z
M 43.5 23.390625 
L 43.5 28.515625 
Q 43.5 37.84375 39.90625 42.765625 
Q 36.328125 47.703125 29.5 47.703125 
Q 22.5625 47.703125 19.015625 42.234375 
Q 15.484375 36.765625 15.484375 25.984375 
Q 15.484375 15.234375 19.015625 9.71875 
Q 22.5625 4.203125 29.5 4.203125 
Q 36.328125 4.203125 39.90625 9.109375 
Q 43.5 14.015625 43.5 23.390625 
z
" id="DejaVuSerif-100"/>
      </defs>
      <use xlink:href="#DejaVuSerif-83"/>
      <use x="68.505859" xlink:href="#DejaVuSerif-112"/>
      <use x="132.519531" xlink:href="#DejaVuSerif-101"/>
      <use x="191.699219" xlink:href="#DejaVuSerif-101"/>
      <use x="250.878906" xlink:href="#DejaVuSerif-100"/>
     </g>
    </g>
   </g>
   <g id="line2d_18">
    <path clip-path="url(#p6574f3abc9)" d="M 73.832727 53.568 
L 74.65882 53.568 
L 74.939692 295.488 
L 77.682321 295.488 
L 77.963192 157.248 
L 79.070157 157.248 
L 79.334507 174.528 
L 79.89625 174.528 
L 80.1606 295.488 
L 81.267564 295.488 
L 81.548436 187.968 
L 81.812786 187.968 
L 82.093657 198.72 
L 83.200622 198.72 
L 83.464972 207.517091 
L 84.291065 207.517091 
L 84.571936 295.488 
L 84.852808 214.848 
L 85.943251 214.848 
L 86.224122 221.051077 
L 87.331087 221.051077 
L 87.595437 226.368 
L 87.876308 226.368 
L 88.15718 157.248 
L 88.421529 157.248 
L 88.702401 226.368 
L 88.983273 230.976 
L 90.073715 230.976 
L 90.354587 235.008 
L 90.899808 235.008 
L 91.18068 174.528 
L 91.461552 174.528 
L 91.725901 181.643294 
L 92.551994 181.643294 
L 92.832866 238.565647 
L 93.113738 241.728 
L 93.939831 241.728 
L 94.20418 187.968 
L 94.485052 193.626947 
L 95.592017 193.626947 
L 95.856366 198.72 
L 96.41811 198.72 
L 96.682459 247.104 
L 96.963331 247.104 
L 97.244203 249.408 
L 97.508552 203.328 
L 98.334645 203.328 
L 98.615517 207.517091 
L 99.722482 207.517091 
L 99.986831 211.341913 
L 101.093796 211.341913 
L 101.374668 214.848 
L 102.46511 214.848 
L 102.745982 218.0736 
L 103.291203 218.0736 
L 103.572075 179.3664 
L 103.852947 179.3664 
L 104.117296 183.832615 
L 104.398168 183.832615 
L 104.67904 221.051077 
L 105.224261 221.051077 
L 105.505133 223.808 
L 106.331226 223.808 
L 106.595575 187.968 
L 106.876447 191.808 
L 107.983412 191.808 
L 108.247761 195.383172 
L 108.528633 228.751448 
L 109.354726 228.751448 
L 109.635598 198.72 
L 110.72604 198.72 
L 111.006912 201.841548 
L 111.833005 201.841548 
L 112.113876 233.057032 
L 112.378226 235.008 
L 112.659098 204.768 
L 113.485191 204.768 
L 113.766062 207.517091 
L 114.856505 207.517091 
L 115.137377 210.104471 
L 115.418248 210.104471 
L 115.682598 181.643294 
L 115.96347 210.104471 
L 116.244341 210.104471 
L 116.508691 212.544 
L 117.615656 212.544 
L 117.896527 214.848 
L 118.441749 214.848 
L 118.72262 187.968 
L 118.98697 187.968 
L 119.267842 190.873946 
L 119.548713 190.873946 
L 119.813063 217.027459 
L 120.374806 217.027459 
L 120.639156 219.092211 
L 121.465249 219.092211 
L 121.746121 193.626947 
L 122.026992 196.238769 
L 123.117435 196.238769 
L 123.398307 198.72 
L 123.679178 222.912 
L 124.505271 222.912 
L 124.769621 201.080195 
L 125.876586 201.080195 
L 126.157457 203.328 
L 126.98355 203.328 
L 127.2479 226.368 
L 127.528772 227.975442 
L 127.809643 205.471256 
L 128.635736 205.471256 
L 128.900086 207.517091 
L 130.007051 207.517091 
L 130.287922 209.472 
L 130.552272 209.472 
L 130.833144 187.968 
L 131.114015 209.472 
L 131.378365 209.472 
L 131.659237 211.341913 
L 132.766201 211.341913 
L 133.030551 213.132255 
L 133.592294 213.132255 
L 133.856644 192.543319 
L 134.137516 192.543319 
L 134.418387 194.688 
L 134.682737 194.688 
L 134.963609 214.848 
L 135.50883 214.848 
L 135.789702 216.493714 
L 136.896666 216.493714 
L 137.161016 198.72 
L 138.267981 198.72 
L 138.548852 200.617412 
L 138.813202 219.591529 
L 139.639295 219.591529 
L 139.920167 221.051077 
L 140.201038 202.441846 
L 141.027131 202.441846 
L 141.291481 204.197434 
L 142.117574 204.197434 
L 142.398446 222.455547 
L 142.679317 223.808 
L 142.943667 223.808 
L 143.224539 205.888 
L 143.76976 205.888 
L 144.050632 207.517091 
L 145.157596 207.517091 
L 145.421946 209.088 
L 146.52891 209.088 
L 146.809782 210.603789 
L 147.900225 210.603789 
L 148.181096 212.06731 
L 149.007189 212.06731 
L 149.288061 195.383172 
L 149.552411 197.079864 
L 149.833282 197.079864 
L 150.114154 213.48122 
L 150.659375 213.48122 
L 150.940247 214.848 
L 152.03069 214.848 
L 152.311561 200.306361 
L 153.418526 200.306361 
L 153.682876 201.841548 
L 153.963747 201.841548 
L 154.244619 217.44929 
L 154.78984 217.44929 
L 155.070712 218.688 
L 155.335062 203.328 
L 156.161155 203.328 
L 156.442026 204.768 
L 157.548991 204.768 
L 157.813341 206.163692 
L 158.094212 221.051077 
L 158.375084 206.163692 
L 158.920305 206.163692 
L 159.201177 207.517091 
L 160.29162 207.517091 
L 160.572491 208.83009 
L 161.117713 208.83009 
L 161.398584 194.387104 
L 161.679456 208.83009 
L 161.943806 210.104471 
L 163.05077 210.104471 
L 163.331642 211.341913 
L 164.157735 211.341913 
L 164.422085 197.317565 
L 164.702956 198.72 
L 165.248178 198.72 
L 165.529049 212.544 
L 165.809921 212.544 
L 166.074271 213.712225 
L 167.181235 213.712225 
L 167.462107 201.408 
L 168.55255 201.408 
L 168.833421 202.696767 
L 169.114293 202.696767 
L 169.378643 215.952658 
L 169.940386 215.952658 
L 170.204736 217.027459 
L 170.485607 203.950703 
L 171.3117 203.950703 
L 171.592572 205.1712 
L 172.683015 205.1712 
L 172.963886 206.359579 
L 173.244758 219.092211 
L 173.509108 206.359579 
L 174.070851 206.359579 
L 174.335201 207.517091 
L 175.442165 207.517091 
L 175.723037 208.644923 
L 176.268258 208.644923 
L 176.54913 196.238769 
L 176.81348 208.644923 
L 177.094351 209.744203 
L 178.201316 209.744203 
L 178.465666 210.816 
L 179.291759 210.816 
L 179.57263 198.72 
L 179.853502 199.914667 
L 180.398723 199.914667 
L 180.679595 211.861333 
L 180.943944 211.861333 
L 181.224816 212.881171 
L 182.331781 212.881171 
L 182.59613 202.217639 
L 183.703095 202.217639 
L 183.983967 203.328 
L 184.248316 203.328 
L 184.529188 214.848 
L 185.074409 214.848 
L 185.355281 215.796706 
L 185.636153 204.412235 
L 186.462246 204.412235 
L 186.726595 205.471256 
L 187.83356 205.471256 
L 188.114432 206.505931 
L 188.378781 217.62869 
L 188.659653 206.505931 
L 189.204874 206.505931 
L 189.485746 207.517091 
L 190.592711 207.517091 
L 190.85706 208.505528 
L 191.418804 208.505528 
L 191.683153 197.632719 
L 191.964025 208.505528 
L 192.244897 209.472 
L 193.335339 209.472 
L 193.616211 210.417231 
L 194.442304 210.417231 
L 194.723176 199.783385 
L 194.987525 200.823652 
L 195.549269 200.823652 
L 195.813618 211.341913 
L 196.09449 211.341913 
L 196.375362 212.24671 
L 197.465804 212.24671 
L 197.746676 202.837787 
L 198.853641 202.837787 
L 199.11799 203.813053 
L 199.398862 203.813053 
L 199.679734 213.999158 
L 200.224955 213.999158 
L 200.505827 214.848 
L 200.770176 204.768 
L 201.596269 204.768 
L 201.877141 205.703258 
L 202.984105 205.703258 
L 203.248455 206.619429 
L 203.529327 216.493714 
L 203.810198 206.619429 
L 204.35542 206.619429 
L 204.636291 207.517091 
L 205.726734 207.517091 
L 206.007606 208.3968 
L 206.552827 208.3968 
L 206.833699 198.72 
L 207.11457 208.3968 
L 207.37892 209.259089 
L 208.485885 209.259089 
L 208.766756 210.104471 
L 209.592849 210.104471 
L 209.857199 200.617412 
L 210.138071 201.538485 
L 210.683292 201.538485 
L 210.964164 210.933437 
L 211.245035 210.933437 
L 211.509385 211.746462 
L 212.61635 211.746462 
L 212.897221 203.328 
L 213.987664 203.328 
L 214.268536 204.197434 
L 214.549407 204.197434 
L 214.813757 213.326491 
L 215.3755 213.326491 
L 215.63985 214.094355 
L 215.920722 205.050617 
L 216.746815 205.050617 
L 217.027686 205.888 
L 218.118129 205.888 
L 218.399001 206.710018 
L 218.679872 215.587817 
L 218.944222 215.587817 
L 219.225094 206.710018 
L 219.505965 206.710018 
L 219.770315 207.517091 
L 220.87728 207.517091 
L 221.158151 208.309622 
L 222.248594 208.309622 
L 222.529466 209.088 
L 223.63643 209.088 
L 223.90078 209.852602 
L 225.007745 209.852602 
L 225.288616 202.115368 
L 225.833838 202.115368 
L 226.114709 210.603789 
L 226.379059 210.603789 
L 226.659931 211.341913 
L 227.766895 211.341913 
L 228.031245 212.06731 
L 228.312117 203.725241 
L 229.13821 203.725241 
L 229.419081 204.509538 
L 229.683431 204.509538 
L 229.964303 212.780308 
L 230.509524 212.780308 
L 230.790396 213.48122 
L 231.071267 213.48122 
L 231.335617 205.280542 
L 231.89736 205.280542 
L 232.16171 206.038588 
L 233.268675 206.038588 
L 233.549546 206.784 
L 233.813896 214.848 
L 234.094768 214.848 
L 234.375639 206.784 
L 234.639989 206.784 
L 234.920861 207.517091 
L 236.027825 207.517091 
L 236.292175 208.238164 
L 237.399139 208.238164 
L 237.680011 208.947512 
L 238.770454 208.947512 
L 239.051325 209.645419 
L 240.15829 209.645419 
L 240.42264 202.59072 
L 240.984383 202.59072 
L 241.248733 210.33216 
L 241.529604 210.33216 
L 241.810476 211.008 
L 242.900919 211.008 
L 243.18179 211.673197 
L 243.462662 204.053669 
L 244.288755 204.053669 
L 244.553105 204.768 
L 244.833976 204.768 
L 245.114848 212.328 
L 245.660069 212.328 
L 245.940941 212.972651 
L 246.205291 212.972651 
L 246.486162 205.471256 
L 247.031384 205.471256 
L 247.312255 206.163692 
L 248.41922 206.163692 
L 248.68357 206.845557 
L 248.964441 214.232427 
L 249.245313 214.232427 
L 249.509663 206.845557 
L 249.790534 206.845557 
L 250.071406 207.517091 
L 251.161849 207.517091 
L 251.44272 208.178526 
L 252.549685 208.178526 
L 252.814035 208.83009 
L 253.920999 208.83009 
L 254.201871 209.472 
L 255.292314 209.472 
L 255.573185 202.989176 
L 256.399278 202.989176 
L 256.68015 210.104471 
L 256.9445 210.727708 
L 258.051464 210.727708 
L 258.332336 211.341913 
L 258.596686 204.329739 
L 259.422779 204.329739 
L 259.70365 204.985554 
L 260.248872 204.985554 
L 260.529743 211.947281 
L 260.810615 211.947281 
L 261.074965 212.544 
L 261.355836 212.544 
L 261.636708 205.632 
L 262.181929 205.632 
L 262.462801 206.269277 
L 263.553244 206.269277 
L 263.834115 206.897577 
L 264.114987 206.897577 
L 264.379337 213.712225 
L 264.660208 206.897577 
L 264.94108 206.897577 
L 265.20543 207.517091 
L 266.312394 207.517091 
L 266.593266 208.128 
L 267.419359 208.128 
L 267.683709 201.408 
L 267.96458 202.056828 
L 268.245452 208.730483 
L 269.071545 208.730483 
L 269.335895 209.324712 
L 270.442859 209.324712 
L 270.723731 203.328 
L 271.549824 203.328 
L 271.814173 209.910857 
L 272.095045 210.489081 
L 273.20201 210.489081 
L 273.466359 211.059544 
L 273.747231 204.565047 
L 274.573324 204.565047 
L 274.854196 205.1712 
L 275.399417 205.1712 
L 275.680289 211.6224 
L 275.944638 211.6224 
L 276.22551 212.177801 
L 276.506382 212.177801 
L 276.770731 205.769325 
L 277.332475 205.769325 
L 277.596824 206.359579 
L 278.703789 206.359579 
L 278.984661 206.942118 
L 279.24901 206.942118 
L 279.529882 213.266824 
L 279.810754 206.942118 
L 280.075103 206.942118 
L 280.355975 207.517091 
L 281.46294 207.517091 
L 281.727289 208.084645 
L 282.553382 208.084645 
L 282.834254 201.841548 
L 283.115126 202.441846 
L 283.379475 208.644923 
L 284.205568 208.644923 
L 284.48644 209.198064 
L 285.593405 209.198064 
L 285.857754 203.619646 
L 286.683847 203.619646 
L 286.964719 209.744203 
L 287.245591 210.283472 
L 288.336033 210.283472 
L 288.616905 210.816 
L 288.897777 204.768 
L 289.72387 204.768 
L 289.988219 205.331478 
L 290.549963 205.331478 
L 290.814312 211.341913 
L 291.095184 211.341913 
L 291.376056 211.861333 
L 291.640405 211.861333 
L 291.921277 205.888 
L 292.466498 205.888 
L 292.74737 206.437693 
L 293.854334 206.437693 
L 294.118684 206.980683 
L 294.399556 206.980683 
L 294.680427 212.881171 
L 294.944777 206.980683 
L 295.225649 206.980683 
L 295.50652 207.517091 
L 296.596963 207.517091 
L 296.877835 208.047036 
L 297.703928 208.047036 
L 297.984799 202.217639 
L 298.249149 202.776144 
L 298.530021 208.570635 
L 299.356114 208.570635 
L 299.636985 209.088 
L 300.727428 209.088 
L 301.0083 203.873325 
L 301.834393 203.873325 
L 302.115264 209.599243 
L 302.379614 210.104471 
L 303.486579 210.104471 
L 303.76745 210.603789 
L 304.0318 210.603789 
L 304.312672 204.944842 
L 304.857893 204.944842 
L 305.138765 205.471256 
L 305.683986 205.471256 
L 305.964858 211.097302 
L 306.245729 211.097302 
L 306.510079 211.58511 
L 307.071822 211.58511 
L 307.336172 205.991584 
L 307.617044 205.991584 
L 307.897915 206.505931 
L 308.988358 206.505931 
L 309.26923 207.0144 
L 309.550101 207.0144 
L 309.814451 212.544 
L 310.095323 212.544 
L 310.376194 207.0144 
L 310.640544 207.517091 
L 311.747509 207.517091 
L 312.02838 208.014102 
L 313.118823 208.014102 
L 313.399695 203.069124 
L 313.680566 208.505528 
L 314.506659 208.505528 
L 314.771009 208.991464 
L 315.877974 208.991464 
L 316.158845 209.472 
L 316.423195 204.096 
L 316.984938 204.096 
L 317.249288 209.472 
L 317.53016 209.947227 
L 318.637124 209.947227 
L 318.901474 210.417231 
L 319.182346 210.417231 
L 319.463217 205.100308 
L 320.008439 205.100308 
L 320.28931 205.59423 
L 320.834532 205.59423 
L 321.115403 210.882098 
L 321.379753 210.882098 
L 321.660625 211.341913 
L 322.205846 211.341913 
L 322.486718 206.082783 
L 322.767589 206.082783 
L 323.031939 206.566054 
L 324.138904 206.566054 
L 324.419775 207.044129 
L 324.684125 207.044129 
L 324.964997 212.24671 
L 325.245868 212.24671 
L 325.510218 207.044129 
L 325.79109 207.517091 
L 326.898054 207.517091 
L 327.162404 207.985021 
L 328.269368 207.985021 
L 328.55024 203.328 
L 328.81459 208.448 
L 329.640683 208.448 
L 329.921554 208.906105 
L 331.028519 208.906105 
L 331.292869 209.359414 
L 331.57374 204.293026 
L 332.118962 204.293026 
L 332.399833 209.359414 
L 332.680705 209.808 
L 333.771148 209.808 
L 334.052019 210.251938 
L 334.332891 210.251938 
L 334.597241 205.238052 
L 335.158984 205.238052 
L 335.423334 205.703258 
L 335.985077 205.703258 
L 336.249427 210.691299 
L 336.530298 210.691299 
L 336.81117 211.126154 
L 337.356391 211.126154 
L 337.637263 206.163692 
L 337.901613 206.163692 
L 338.182484 206.619429 
L 339.289449 206.619429 
L 339.553799 207.070538 
L 339.83467 207.070538 
L 340.115542 211.982619 
L 340.379892 211.982619 
L 340.660763 207.070538 
L 340.941635 207.517091 
L 342.032078 207.517091 
L 342.312949 207.959156 
L 343.419914 207.959156 
L 343.684264 203.5584 
L 343.965135 208.3968 
L 344.791228 208.3968 
L 345.0721 208.83009 
L 346.162543 208.83009 
L 346.443414 209.259089 
L 346.724286 204.468594 
L 347.269507 204.468594 
L 347.550379 209.259089 
L 347.814729 209.683862 
L 348.921693 209.683862 
L 349.202565 210.104471 
L 349.466915 210.104471 
L 349.747786 205.360941 
L 350.293008 205.360941 
L 350.573879 205.800585 
L 351.119101 205.800585 
L 351.399972 210.520976 
L 351.680844 210.520976 
L 351.945194 210.933437 
L 352.506937 210.933437 
L 352.771287 206.235961 
L 353.052158 206.235961 
L 353.33303 206.66713 
L 354.423473 206.66713 
L 354.704344 207.094154 
L 354.985216 207.094154 
L 355.249566 211.746462 
L 355.530437 211.746462 
L 355.811309 207.094154 
L 356.075659 207.517091 
L 357.182623 207.517091 
L 357.463495 207.936 
L 358.553938 207.936 
L 358.834809 203.764777 
L 359.115681 208.350938 
L 359.941774 208.350938 
L 360.206124 208.761962 
L 361.313088 208.761962 
L 361.59396 209.169127 
L 361.85831 204.626028 
L 362.684402 204.626028 
L 362.965274 205.050617 
L 363.246146 209.572486 
L 364.072239 209.572486 
L 364.336588 209.972093 
L 364.61746 209.972093 
L 364.898332 205.471256 
L 365.443553 205.471256 
L 365.724425 205.888 
L 366.550518 205.888 
L 366.814867 210.368 
L 367.095739 210.760258 
L 367.64096 210.760258 
L 367.921832 206.300903 
L 368.202704 206.300903 
L 368.467053 206.710018 
L 369.574018 206.710018 
L 369.85489 207.115397 
L 370.400111 207.115397 
L 370.680983 211.534027 
L 370.945332 207.115397 
L 371.226204 207.517091 
L 372.333169 207.517091 
L 372.597518 207.915149 
L 373.704483 207.915149 
L 373.985355 203.950703 
L 374.249704 203.950703 
L 374.530576 208.309622 
L 375.075797 208.309622 
L 375.356669 208.700556 
L 376.463634 208.700556 
L 376.727983 209.088 
L 377.008855 204.768 
L 377.834948 204.768 
L 378.11582 205.1712 
L 378.380169 209.472 
L 379.206262 209.472 
L 379.487134 209.852602 
L 379.768006 209.852602 
L 380.032355 205.570832 
L 380.594099 205.570832 
L 380.858448 205.966943 
L 381.684541 205.966943 
L 381.965413 210.22985 
L 382.246285 210.603789 
L 382.791506 210.603789 
L 383.072378 206.359579 
L 383.336727 206.359579 
L 383.617599 206.748786 
L 384.724563 206.748786 
L 384.988913 207.134609 
L 385.550656 207.134609 
L 385.815006 211.341913 
L 386.095878 207.134609 
L 386.376749 207.517091 
L 387.467192 207.517091 
L 387.748064 207.896276 
L 388.855028 207.896276 
L 389.119378 208.272206 
L 389.40025 204.119073 
L 389.681121 208.272206 
L 390.226343 208.272206 
L 390.507214 208.644923 
L 391.597657 208.644923 
L 391.878529 209.014468 
L 392.1594 209.014468 
L 392.42375 204.896681 
L 392.985493 204.896681 
L 393.249843 205.280542 
L 393.530715 209.380881 
L 394.356808 209.380881 
L 394.637679 209.744203 
L 395.182901 209.744203 
L 395.463772 205.661165 
L 395.728122 205.661165 
L 396.008994 206.038588 
L 396.835087 206.038588 
L 397.115958 210.104471 
L 397.380308 210.461724 
L 398.206401 210.461724 
L 398.487273 206.412854 
L 398.487273 206.412854 
" style="fill:none;stroke:#1f77b4;stroke-linecap:square;stroke-width:1.5;"/>
   </g>
   <g id="patch_3">
    <path d="M 57.6 307.584 
L 57.6 41.472 
" style="fill:none;stroke:#000000;stroke-linecap:square;stroke-linejoin:miter;stroke-width:0.8;"/>
   </g>
   <g id="patch_4">
    <path d="M 414.72 307.584 
L 414.72 41.472 
" style="fill:none;stroke:#000000;stroke-linecap:square;stroke-linejoin:miter;stroke-width:0.8;"/>
   </g>
   <g id="patch_5">
    <path d="M 57.6 307.584 
L 414.72 307.584 
" style="fill:none;stroke:#000000;stroke-linecap:square;stroke-linejoin:miter;stroke-width:0.8;"/>
   </g>
   <g id="patch_6">
    <path d="M 57.6 41.472 
L 414.72 41.472 
" style="fill:none;stroke:#000000;stroke-linecap:square;stroke-linejoin:miter;stroke-width:0.8;"/>
   </g>
   <g id="text_20">
    <!-- Speed function of time -->
    <g transform="translate(167.024063 35.472)scale(0.12 -0.12)">
     <defs>
      <path id="DejaVuSerif-32"/>
      <path d="M 43.015625 63.71875 
L 38.28125 63.71875 
Q 38.234375 67.390625 36.203125 69.28125 
Q 34.1875 71.1875 30.328125 71.1875 
Q 25.296875 71.1875 23.234375 68.421875 
Q 21.1875 65.671875 21.1875 58.59375 
L 21.1875 51.90625 
L 35.6875 51.90625 
L 35.6875 46.6875 
L 21.1875 46.6875 
L 21.1875 5.171875 
L 32.71875 5.171875 
L 32.71875 0 
L 3.609375 0 
L 3.609375 5.171875 
L 12.203125 5.171875 
L 12.203125 46.6875 
L 3.609375 46.6875 
L 3.609375 51.90625 
L 12.203125 51.90625 
L 12.203125 58.40625 
Q 12.203125 67.09375 16.71875 71.53125 
Q 21.234375 75.984375 29.984375 75.984375 
Q 33.25 75.984375 36.515625 75.390625 
Q 39.796875 74.8125 43.015625 73.578125 
z
" id="DejaVuSerif-102"/>
      <path d="M 35.40625 51.90625 
L 52.203125 51.90625 
L 52.203125 5.171875 
L 60.6875 5.171875 
L 60.6875 0 
L 43.21875 0 
L 43.21875 9.1875 
Q 40.71875 4 36.765625 1.28125 
Q 32.8125 -1.421875 27.59375 -1.421875 
Q 18.953125 -1.421875 14.875 3.484375 
Q 10.796875 8.40625 10.796875 18.890625 
L 10.796875 46.6875 
L 2.6875 46.6875 
L 2.6875 51.90625 
L 19.828125 51.90625 
L 19.828125 21.6875 
Q 19.828125 12.203125 22.140625 8.6875 
Q 24.46875 5.171875 30.421875 5.171875 
Q 36.671875 5.171875 39.9375 9.765625 
Q 43.21875 14.359375 43.21875 23.09375 
L 43.21875 46.6875 
L 35.40625 46.6875 
z
" id="DejaVuSerif-117"/>
      <path d="M 4.109375 0 
L 4.109375 5.171875 
L 12.203125 5.171875 
L 12.203125 46.6875 
L 3.609375 46.6875 
L 3.609375 51.90625 
L 21.1875 51.90625 
L 21.1875 42.671875 
Q 23.6875 47.953125 27.65625 50.640625 
Q 31.640625 53.328125 36.921875 53.328125 
Q 45.515625 53.328125 49.5625 48.390625 
Q 53.609375 43.453125 53.609375 33.015625 
L 53.609375 5.171875 
L 61.625 5.171875 
L 61.625 0 
L 36.8125 0 
L 36.8125 5.171875 
L 44.578125 5.171875 
L 44.578125 30.171875 
Q 44.578125 39.703125 42.234375 43.234375 
Q 39.890625 46.78125 33.984375 46.78125 
Q 27.734375 46.78125 24.453125 42.203125 
Q 21.1875 37.640625 21.1875 28.90625 
L 21.1875 5.171875 
L 29 5.171875 
L 29 0 
z
" id="DejaVuSerif-110"/>
      <path d="M 51.421875 15.578125 
Q 49.515625 7.28125 44.09375 2.921875 
Q 38.671875 -1.421875 30.078125 -1.421875 
Q 18.75 -1.421875 11.859375 6.078125 
Q 4.984375 13.578125 4.984375 25.984375 
Q 4.984375 38.421875 11.859375 45.875 
Q 18.75 53.328125 30.078125 53.328125 
Q 35.015625 53.328125 39.890625 52.171875 
Q 44.78125 51.03125 49.703125 48.6875 
L 49.703125 35.40625 
L 44.484375 35.40625 
Q 43.453125 42.234375 40.015625 45.359375 
Q 36.578125 48.484375 30.171875 48.484375 
Q 22.90625 48.484375 19.1875 42.84375 
Q 15.484375 37.203125 15.484375 25.984375 
Q 15.484375 14.75 19.171875 9.078125 
Q 22.859375 3.421875 30.171875 3.421875 
Q 35.984375 3.421875 39.453125 6.4375 
Q 42.921875 9.46875 44.1875 15.578125 
z
" id="DejaVuSerif-99"/>
      <path d="M 10.796875 46.6875 
L 2.875 46.6875 
L 2.875 51.90625 
L 10.796875 51.90625 
L 10.796875 68.015625 
L 19.828125 68.015625 
L 19.828125 51.90625 
L 36.71875 51.90625 
L 36.71875 46.6875 
L 19.828125 46.6875 
L 19.828125 13.71875 
Q 19.828125 7.125 21.09375 5.265625 
Q 22.359375 3.421875 25.78125 3.421875 
Q 29.296875 3.421875 30.90625 5.484375 
Q 32.515625 7.5625 32.625 12.203125 
L 39.40625 12.203125 
Q 39.015625 5.125 35.546875 1.84375 
Q 32.078125 -1.421875 25 -1.421875 
Q 17.234375 -1.421875 14.015625 2.015625 
Q 10.796875 5.46875 10.796875 13.71875 
z
" id="DejaVuSerif-116"/>
      <path d="M 30.078125 3.421875 
Q 37.3125 3.421875 40.984375 9.125 
Q 44.671875 14.84375 44.671875 25.984375 
Q 44.671875 37.109375 40.984375 42.796875 
Q 37.3125 48.484375 30.078125 48.484375 
Q 22.859375 48.484375 19.171875 42.796875 
Q 15.484375 37.109375 15.484375 25.984375 
Q 15.484375 14.84375 19.1875 9.125 
Q 22.90625 3.421875 30.078125 3.421875 
z
M 30.078125 -1.421875 
Q 18.75 -1.421875 11.859375 6.078125 
Q 4.984375 13.578125 4.984375 25.984375 
Q 4.984375 38.375 11.84375 45.84375 
Q 18.703125 53.328125 30.078125 53.328125 
Q 41.453125 53.328125 48.3125 45.84375 
Q 55.171875 38.375 55.171875 25.984375 
Q 55.171875 13.578125 48.3125 6.078125 
Q 41.453125 -1.421875 30.078125 -1.421875 
z
" id="DejaVuSerif-111"/>
     </defs>
     <use xlink:href="#DejaVuSerif-83"/>
     <use x="68.505859" xlink:href="#DejaVuSerif-112"/>
     <use x="132.519531" xlink:href="#DejaVuSerif-101"/>
     <use x="191.699219" xlink:href="#DejaVuSerif-101"/>
     <use x="250.878906" xlink:href="#DejaVuSerif-100"/>
     <use x="314.892578" xlink:href="#DejaVuSerif-32"/>
     <use x="346.679688" xlink:href="#DejaVuSerif-102"/>
     <use x="383.691406" xlink:href="#DejaVuSerif-117"/>
     <use x="448.095703" xlink:href="#DejaVuSerif-110"/>
     <use x="512.5" xlink:href="#DejaVuSerif-99"/>
     <use x="568.505859" xlink:href="#DejaVuSerif-116"/>
     <use x="608.691406" xlink:href="#DejaVuSerif-105"/>
     <use x="640.673828" xlink:href="#DejaVuSerif-111"/>
     <use x="700.878906" xlink:href="#DejaVuSerif-110"/>
     <use x="765.283203" xlink:href="#DejaVuSerif-32"/>
     <use x="797.070312" xlink:href="#DejaVuSerif-111"/>
     <use x="857.275391" xlink:href="#DejaVuSerif-102"/>
     <use x="894.287109" xlink:href="#DejaVuSerif-32"/>
     <use x="926.074219" xlink:href="#DejaVuSerif-116"/>
     <use x="966.259766" xlink:href="#DejaVuSerif-105"/>
     <use x="998.242188" xlink:href="#DejaVuSerif-109"/>
     <use x="1093.066406" xlink:href="#DejaVuSerif-101"/>
    </g>
   </g>
  </g>
 </g>
 <defs>
  <clipPath id="p6574f3abc9">
   <rect height="266.112" width="357.12" x="57.6" y="41.472"/>
  </clipPath>
 </defs>
</svg>
