<?xml version="1.0" encoding="utf-8" standalone="no"?>
<!DOCTYPE svg PUBLIC "-//W3C//DTD SVG 1.1//EN"
  "http://www.w3.org/Graphics/SVG/1.1/DTD/svg11.dtd">
<!-- Created with matplotlib (https://matplotlib.org/) -->
<svg height="345.6pt" version="1.1" viewBox="0 0 460.8 345.6" width="460.8pt" xmlns="http://www.w3.org/2000/svg" xmlns:xlink="http://www.w3.org/1999/xlink">
 <metadata>
  <rdf:RDF xmlns:cc="http://creativecommons.org/ns#" xmlns:dc="http://purl.org/dc/elements/1.1/" xmlns:rdf="http://www.w3.org/1999/02/22-rdf-syntax-ns#">
   <cc:Work>
    <dc:type rdf:resource="http://purl.org/dc/dcmitype/StillImage"/>
    <dc:date>2023-01-07T16:33:09.394432</dc:date>
    <dc:format>image/svg+xml</dc:format>
    <dc:creator>
     <cc:Agent>
      <dc:title>Matplotlib v3.3.4, https://matplotlib.org/</dc:title>
     </cc:Agent>
    </dc:creator>
   </cc:Work>
  </rdf:RDF>
 </metadata>
 <defs>
  <style type="text/css">*{stroke-linecap:butt;stroke-linejoin:round;}</style>
 </defs>
 <g id="figure_1">
  <g id="patch_1">
   <path d="M 0 345.6 
L 460.8 345.6 
L 460.8 0 
L 0 0 
z
" style="fill:#ffffff;"/>
  </g>
  <g id="axes_1">
   <g id="patch_2">
    <path d="M 57.6 307.584 
L 414.72 307.584 
L 414.72 41.472 
L 57.6 41.472 
z
" style="fill:#ffffff;"/>
   </g>
   <g id="matplotlib.axis_1">
    <g id="xtick_1">
     <g id="line2d_1">
      <defs>
       <path d="M 0 0 
L 0 3.5 
" id="m455874b848" style="stroke:#000000;stroke-width:0.8;"/>
      </defs>
      <g>
       <use style="stroke:#000000;stroke-width:0.8;" x="67.254738" xlink:href="#m455874b848" y="307.584"/>
      </g>
     </g>
     <g id="text_1">
      <!-- 50 -->
      <g transform="translate(60.892238 322.182437)scale(0.1 -0.1)">
       <defs>
        <path d="M 50.296875 72.90625 
L 50.296875 64.890625 
L 16.890625 64.890625 
L 16.890625 44 
Q 19.4375 45.75 22.828125 46.625 
Q 26.21875 47.515625 30.421875 47.515625 
Q 42.234375 47.515625 49.0625 40.96875 
Q 55.90625 34.421875 55.90625 23.09375 
Q 55.90625 11.53125 49 5.046875 
Q 42.09375 -1.421875 29.59375 -1.421875 
Q 24.5625 -1.421875 19.28125 -0.1875 
Q 14.015625 1.03125 8.5 3.515625 
L 8.5 17.671875 
L 14.015625 17.671875 
Q 14.453125 10.75 18.421875 7.078125 
Q 22.40625 3.421875 29.59375 3.421875 
Q 37.3125 3.421875 41.453125 8.5 
Q 45.609375 13.578125 45.609375 23.09375 
Q 45.609375 32.5625 41.484375 37.609375 
Q 37.359375 42.671875 29.59375 42.671875 
Q 25.203125 42.671875 21.84375 41.109375 
Q 18.5 39.546875 15.921875 36.28125 
L 11.71875 36.28125 
L 11.71875 72.90625 
z
" id="DejaVuSerif-53"/>
        <path d="M 31.78125 3.421875 
Q 39.265625 3.421875 42.96875 11.625 
Q 46.6875 19.828125 46.6875 36.375 
Q 46.6875 52.984375 42.96875 61.1875 
Q 39.265625 69.390625 31.78125 69.390625 
Q 24.3125 69.390625 20.59375 61.1875 
Q 16.890625 52.984375 16.890625 36.375 
Q 16.890625 19.828125 20.59375 11.625 
Q 24.3125 3.421875 31.78125 3.421875 
z
M 31.78125 -1.421875 
Q 19.921875 -1.421875 13.25 8.53125 
Q 6.59375 18.5 6.59375 36.375 
Q 6.59375 54.296875 13.25 64.25 
Q 19.921875 74.21875 31.78125 74.21875 
Q 43.703125 74.21875 50.34375 64.25 
Q 56.984375 54.296875 56.984375 36.375 
Q 56.984375 18.5 50.34375 8.53125 
Q 43.703125 -1.421875 31.78125 -1.421875 
z
" id="DejaVuSerif-48"/>
       </defs>
       <use xlink:href="#DejaVuSerif-53"/>
       <use x="63.623047" xlink:href="#DejaVuSerif-48"/>
      </g>
     </g>
    </g>
    <g id="xtick_2">
     <g id="line2d_2">
      <g>
       <use style="stroke:#000000;stroke-width:0.8;" x="107.759597" xlink:href="#m455874b848" y="307.584"/>
      </g>
     </g>
     <g id="text_2">
      <!-- 100 -->
      <g transform="translate(98.215847 322.182437)scale(0.1 -0.1)">
       <defs>
        <path d="M 14.203125 0 
L 14.203125 5.171875 
L 26.90625 5.171875 
L 26.90625 65.828125 
L 12.203125 56.296875 
L 12.203125 62.703125 
L 29.984375 74.21875 
L 36.71875 74.21875 
L 36.71875 5.171875 
L 49.421875 5.171875 
L 49.421875 0 
z
" id="DejaVuSerif-49"/>
       </defs>
       <use xlink:href="#DejaVuSerif-49"/>
       <use x="63.623047" xlink:href="#DejaVuSerif-48"/>
       <use x="127.246094" xlink:href="#DejaVuSerif-48"/>
      </g>
     </g>
    </g>
    <g id="xtick_3">
     <g id="line2d_3">
      <g>
       <use style="stroke:#000000;stroke-width:0.8;" x="148.264456" xlink:href="#m455874b848" y="307.584"/>
      </g>
     </g>
     <g id="text_3">
      <!-- 150 -->
      <g transform="translate(138.720706 322.182437)scale(0.1 -0.1)">
       <use xlink:href="#DejaVuSerif-49"/>
       <use x="63.623047" xlink:href="#DejaVuSerif-53"/>
       <use x="127.246094" xlink:href="#DejaVuSerif-48"/>
      </g>
     </g>
    </g>
    <g id="xtick_4">
     <g id="line2d_4">
      <g>
       <use style="stroke:#000000;stroke-width:0.8;" x="188.769315" xlink:href="#m455874b848" y="307.584"/>
      </g>
     </g>
     <g id="text_4">
      <!-- 200 -->
      <g transform="translate(179.225565 322.182437)scale(0.1 -0.1)">
       <defs>
        <path d="M 12.796875 55.515625 
L 7.328125 55.515625 
L 7.328125 68.5 
Q 12.546875 71.296875 17.84375 72.75 
Q 23.140625 74.21875 28.21875 74.21875 
Q 39.59375 74.21875 46.1875 68.703125 
Q 52.78125 63.1875 52.78125 53.71875 
Q 52.78125 43.015625 37.84375 28.125 
Q 36.671875 27 36.078125 26.421875 
L 17.671875 8.015625 
L 48.09375 8.015625 
L 48.09375 17 
L 53.8125 17 
L 53.8125 0 
L 6.78125 0 
L 6.78125 5.328125 
L 28.90625 27.390625 
Q 36.234375 34.71875 39.359375 40.84375 
Q 42.484375 46.96875 42.484375 53.71875 
Q 42.484375 61.078125 38.640625 65.234375 
Q 34.8125 69.390625 28.078125 69.390625 
Q 21.09375 69.390625 17.28125 65.921875 
Q 13.484375 62.453125 12.796875 55.515625 
z
" id="DejaVuSerif-50"/>
       </defs>
       <use xlink:href="#DejaVuSerif-50"/>
       <use x="63.623047" xlink:href="#DejaVuSerif-48"/>
       <use x="127.246094" xlink:href="#DejaVuSerif-48"/>
      </g>
     </g>
    </g>
    <g id="xtick_5">
     <g id="line2d_5">
      <g>
       <use style="stroke:#000000;stroke-width:0.8;" x="229.274174" xlink:href="#m455874b848" y="307.584"/>
      </g>
     </g>
     <g id="text_5">
      <!-- 250 -->
      <g transform="translate(219.730424 322.182437)scale(0.1 -0.1)">
       <use xlink:href="#DejaVuSerif-50"/>
       <use x="63.623047" xlink:href="#DejaVuSerif-53"/>
       <use x="127.246094" xlink:href="#DejaVuSerif-48"/>
      </g>
     </g>
    </g>
    <g id="xtick_6">
     <g id="line2d_6">
      <g>
       <use style="stroke:#000000;stroke-width:0.8;" x="269.779033" xlink:href="#m455874b848" y="307.584"/>
      </g>
     </g>
     <g id="text_6">
      <!-- 300 -->
      <g transform="translate(260.235283 322.182437)scale(0.1 -0.1)">
       <defs>
        <path d="M 9.71875 69.828125 
Q 15.4375 71.96875 20.671875 73.09375 
Q 25.921875 74.21875 30.515625 74.21875 
Q 41.21875 74.21875 47.21875 69.59375 
Q 53.21875 64.984375 53.21875 56.78125 
Q 53.21875 50.203125 49.0625 45.78125 
Q 44.921875 41.359375 37.3125 39.796875 
Q 46.296875 38.53125 51.25 33.28125 
Q 56.203125 28.03125 56.203125 19.671875 
Q 56.203125 9.46875 49.34375 4.015625 
Q 42.484375 -1.421875 29.59375 -1.421875 
Q 23.875 -1.421875 18.421875 -0.1875 
Q 12.984375 1.03125 7.625 3.515625 
L 7.625 17.671875 
L 13.09375 17.671875 
Q 13.578125 10.640625 17.828125 7.03125 
Q 22.078125 3.421875 29.78125 3.421875 
Q 37.25 3.421875 41.578125 7.734375 
Q 45.90625 12.0625 45.90625 19.578125 
Q 45.90625 28.171875 41.453125 32.59375 
Q 37.015625 37.015625 28.421875 37.015625 
L 23.78125 37.015625 
L 23.78125 42 
L 26.21875 42 
Q 34.765625 42 39.03125 45.53125 
Q 43.3125 49.078125 43.3125 56.203125 
Q 43.3125 62.59375 39.796875 65.984375 
Q 36.28125 69.390625 29.6875 69.390625 
Q 23.09375 69.390625 19.453125 66.265625 
Q 15.828125 63.140625 15.1875 56.984375 
L 9.71875 56.984375 
z
" id="DejaVuSerif-51"/>
       </defs>
       <use xlink:href="#DejaVuSerif-51"/>
       <use x="63.623047" xlink:href="#DejaVuSerif-48"/>
       <use x="127.246094" xlink:href="#DejaVuSerif-48"/>
      </g>
     </g>
    </g>
    <g id="xtick_7">
     <g id="line2d_7">
      <g>
       <use style="stroke:#000000;stroke-width:0.8;" x="310.283892" xlink:href="#m455874b848" y="307.584"/>
      </g>
     </g>
     <g id="text_7">
      <!-- 350 -->
      <g transform="translate(300.740142 322.182437)scale(0.1 -0.1)">
       <use xlink:href="#DejaVuSerif-51"/>
       <use x="63.623047" xlink:href="#DejaVuSerif-53"/>
       <use x="127.246094" xlink:href="#DejaVuSerif-48"/>
      </g>
     </g>
    </g>
    <g id="xtick_8">
     <g id="line2d_8">
      <g>
       <use style="stroke:#000000;stroke-width:0.8;" x="350.788751" xlink:href="#m455874b848" y="307.584"/>
      </g>
     </g>
     <g id="text_8">
      <!-- 400 -->
      <g transform="translate(341.245001 322.182437)scale(0.1 -0.1)">
       <defs>
        <path d="M 34.90625 24.703125 
L 34.90625 63.484375 
L 10.015625 24.703125 
z
M 56.390625 0 
L 23.1875 0 
L 23.1875 5.171875 
L 34.90625 5.171875 
L 34.90625 19.484375 
L 3.078125 19.484375 
L 3.078125 24.8125 
L 35.015625 74.21875 
L 44.671875 74.21875 
L 44.671875 24.703125 
L 58.59375 24.703125 
L 58.59375 19.484375 
L 44.671875 19.484375 
L 44.671875 5.171875 
L 56.390625 5.171875 
z
" id="DejaVuSerif-52"/>
       </defs>
       <use xlink:href="#DejaVuSerif-52"/>
       <use x="63.623047" xlink:href="#DejaVuSerif-48"/>
       <use x="127.246094" xlink:href="#DejaVuSerif-48"/>
      </g>
     </g>
    </g>
    <g id="xtick_9">
     <g id="line2d_9">
      <g>
       <use style="stroke:#000000;stroke-width:0.8;" x="391.29361" xlink:href="#m455874b848" y="307.584"/>
      </g>
     </g>
     <g id="text_9">
      <!-- 450 -->
      <g transform="translate(381.74986 322.182437)scale(0.1 -0.1)">
       <use xlink:href="#DejaVuSerif-52"/>
       <use x="63.623047" xlink:href="#DejaVuSerif-53"/>
       <use x="127.246094" xlink:href="#DejaVuSerif-48"/>
      </g>
     </g>
    </g>
    <g id="text_10">
     <!-- Time -->
     <g transform="translate(223.524844 335.860562)scale(0.1 -0.1)">
      <defs>
       <path d="M 19.09375 0 
L 19.09375 5.171875 
L 28.421875 5.171875 
L 28.421875 67.09375 
L 6.984375 67.09375 
L 6.984375 55.71875 
L 0.984375 55.71875 
L 0.984375 72.90625 
L 65.71875 72.90625 
L 65.71875 55.71875 
L 59.71875 55.71875 
L 59.71875 67.09375 
L 38.28125 67.09375 
L 38.28125 5.171875 
L 47.609375 5.171875 
L 47.609375 0 
z
" id="DejaVuSerif-84"/>
       <path d="M 9.71875 68.015625 
Q 9.71875 70.265625 11.34375 71.921875 
Q 12.984375 73.578125 15.28125 73.578125 
Q 17.53125 73.578125 19.15625 71.921875 
Q 20.796875 70.265625 20.796875 68.015625 
Q 20.796875 65.71875 19.1875 64.109375 
Q 17.578125 62.5 15.28125 62.5 
Q 12.984375 62.5 11.34375 64.109375 
Q 9.71875 65.71875 9.71875 68.015625 
z
M 21.1875 5.171875 
L 29.6875 5.171875 
L 29.6875 0 
L 3.609375 0 
L 3.609375 5.171875 
L 12.203125 5.171875 
L 12.203125 46.6875 
L 3.609375 46.6875 
L 3.609375 51.90625 
L 21.1875 51.90625 
z
" id="DejaVuSerif-105"/>
       <path d="M 51.8125 41.796875 
Q 54.390625 47.515625 58.421875 50.421875 
Q 62.453125 53.328125 67.828125 53.328125 
Q 75.984375 53.328125 79.984375 48.265625 
Q 83.984375 43.21875 83.984375 33.015625 
L 83.984375 5.171875 
L 92.09375 5.171875 
L 92.09375 0 
L 67.1875 0 
L 67.1875 5.171875 
L 75 5.171875 
L 75 31.984375 
Q 75 39.9375 72.65625 43.3125 
Q 70.3125 46.6875 64.890625 46.6875 
Q 58.890625 46.6875 55.734375 42.140625 
Q 52.59375 37.59375 52.59375 28.90625 
L 52.59375 5.171875 
L 60.40625 5.171875 
L 60.40625 0 
L 35.796875 0 
L 35.796875 5.171875 
L 43.609375 5.171875 
L 43.609375 32.328125 
Q 43.609375 40.09375 41.265625 43.390625 
Q 38.921875 46.6875 33.5 46.6875 
Q 27.484375 46.6875 24.328125 42.140625 
Q 21.1875 37.59375 21.1875 28.90625 
L 21.1875 5.171875 
L 29 5.171875 
L 29 0 
L 4.109375 0 
L 4.109375 5.171875 
L 12.203125 5.171875 
L 12.203125 46.78125 
L 3.609375 46.78125 
L 3.609375 51.90625 
L 21.1875 51.90625 
L 21.1875 42.671875 
Q 23.6875 47.859375 27.53125 50.59375 
Q 31.390625 53.328125 36.28125 53.328125 
Q 42.328125 53.328125 46.375 50.3125 
Q 50.4375 47.3125 51.8125 41.796875 
z
" id="DejaVuSerif-109"/>
       <path d="M 54.203125 25 
L 15.484375 25 
L 15.484375 24.609375 
Q 15.484375 14.109375 19.4375 8.765625 
Q 23.390625 3.421875 31.109375 3.421875 
Q 37.015625 3.421875 40.796875 6.515625 
Q 44.578125 9.625 46.09375 15.71875 
L 53.328125 15.71875 
Q 51.171875 7.171875 45.375 2.875 
Q 39.59375 -1.421875 30.171875 -1.421875 
Q 18.796875 -1.421875 11.890625 6.078125 
Q 4.984375 13.578125 4.984375 25.984375 
Q 4.984375 38.28125 11.765625 45.796875 
Q 18.5625 53.328125 29.59375 53.328125 
Q 41.359375 53.328125 47.65625 46.0625 
Q 53.953125 38.8125 54.203125 25 
z
M 43.609375 30.171875 
Q 43.3125 39.265625 39.765625 43.875 
Q 36.234375 48.484375 29.59375 48.484375 
Q 23.390625 48.484375 19.828125 43.84375 
Q 16.265625 39.203125 15.484375 30.171875 
z
" id="DejaVuSerif-101"/>
      </defs>
      <use xlink:href="#DejaVuSerif-84"/>
      <use x="66.699219" xlink:href="#DejaVuSerif-105"/>
      <use x="98.681641" xlink:href="#DejaVuSerif-109"/>
      <use x="193.505859" xlink:href="#DejaVuSerif-101"/>
     </g>
    </g>
   </g>
   <g id="matplotlib.axis_2">
    <g id="ytick_1">
     <g id="line2d_10">
      <defs>
       <path d="M 0 0 
L -3.5 0 
" id="m37acfa6521" style="stroke:#000000;stroke-width:0.8;"/>
      </defs>
      <g>
       <use style="stroke:#000000;stroke-width:0.8;" x="57.6" xlink:href="#m37acfa6521" y="306.927177"/>
      </g>
     </g>
     <g id="text_11">
      <!-- −4.8 -->
      <g transform="translate(26.317187 310.726396)scale(0.1 -0.1)">
       <defs>
        <path d="M 10.59375 35.296875 
L 73.1875 35.296875 
L 73.1875 27.390625 
L 10.59375 27.390625 
z
" id="DejaVuSerif-8722"/>
        <path d="M 9.421875 5.078125 
Q 9.421875 7.8125 11.28125 9.71875 
Q 13.140625 11.625 15.921875 11.625 
Q 18.609375 11.625 20.5 9.71875 
Q 22.40625 7.8125 22.40625 5.078125 
Q 22.40625 2.390625 20.5 0.484375 
Q 18.609375 -1.421875 15.921875 -1.421875 
Q 13.140625 -1.421875 11.28125 0.453125 
Q 9.421875 2.34375 9.421875 5.078125 
z
" id="DejaVuSerif-46"/>
        <path d="M 46.578125 19.921875 
Q 46.578125 27.734375 42.6875 32.046875 
Q 38.8125 36.375 31.78125 36.375 
Q 24.75 36.375 20.875 32.046875 
Q 17 27.734375 17 19.921875 
Q 17 12.0625 20.875 7.734375 
Q 24.75 3.421875 31.78125 3.421875 
Q 38.8125 3.421875 42.6875 7.734375 
Q 46.578125 12.0625 46.578125 19.921875 
z
M 44.578125 55.328125 
Q 44.578125 61.96875 41.203125 65.671875 
Q 37.84375 69.390625 31.78125 69.390625 
Q 25.78125 69.390625 22.390625 65.671875 
Q 19 61.96875 19 55.328125 
Q 19 48.640625 22.390625 44.921875 
Q 25.78125 41.21875 31.78125 41.21875 
Q 37.84375 41.21875 41.203125 44.921875 
Q 44.578125 48.640625 44.578125 55.328125 
z
M 39.3125 38.8125 
Q 47.609375 37.703125 52.25 32.6875 
Q 56.890625 27.6875 56.890625 19.921875 
Q 56.890625 9.671875 50.390625 4.125 
Q 43.890625 -1.421875 31.78125 -1.421875 
Q 19.734375 -1.421875 13.203125 4.125 
Q 6.6875 9.671875 6.6875 19.921875 
Q 6.6875 27.6875 11.328125 32.6875 
Q 15.96875 37.703125 24.3125 38.8125 
Q 16.9375 40.140625 13 44.40625 
Q 9.078125 48.6875 9.078125 55.328125 
Q 9.078125 64.109375 15.125 69.15625 
Q 21.1875 74.21875 31.78125 74.21875 
Q 42.390625 74.21875 48.4375 69.15625 
Q 54.5 64.109375 54.5 55.328125 
Q 54.5 48.6875 50.5625 44.40625 
Q 46.625 40.140625 39.3125 38.8125 
z
" id="DejaVuSerif-56"/>
       </defs>
       <use xlink:href="#DejaVuSerif-8722"/>
       <use x="83.789062" xlink:href="#DejaVuSerif-52"/>
       <use x="147.412109" xlink:href="#DejaVuSerif-46"/>
       <use x="179.199219" xlink:href="#DejaVuSerif-56"/>
      </g>
     </g>
    </g>
    <g id="ytick_2">
     <g id="line2d_11">
      <g>
       <use style="stroke:#000000;stroke-width:0.8;" x="57.6" xlink:href="#m37acfa6521" y="262.216734"/>
      </g>
     </g>
     <g id="text_12">
      <!-- −4.6 -->
      <g transform="translate(26.317187 266.015953)scale(0.1 -0.1)">
       <defs>
        <path d="M 32.71875 3.421875 
Q 39.59375 3.421875 43.296875 8.46875 
Q 47.015625 13.53125 47.015625 23 
Q 47.015625 32.46875 43.296875 37.515625 
Q 39.59375 42.578125 32.71875 42.578125 
Q 25.734375 42.578125 22.0625 37.6875 
Q 18.40625 32.8125 18.40625 23.578125 
Q 18.40625 13.875 22.109375 8.640625 
Q 25.828125 3.421875 32.71875 3.421875 
z
M 16.796875 40.140625 
Q 20.125 43.796875 24.3125 45.59375 
Q 28.515625 47.40625 33.796875 47.40625 
Q 44.671875 47.40625 51 40.859375 
Q 57.328125 34.328125 57.328125 23 
Q 57.328125 11.921875 50.515625 5.25 
Q 43.703125 -1.421875 32.328125 -1.421875 
Q 19.96875 -1.421875 13.328125 7.78125 
Q 6.6875 17 6.6875 34.078125 
Q 6.6875 53.21875 14.546875 63.71875 
Q 22.40625 74.21875 36.71875 74.21875 
Q 40.578125 74.21875 44.828125 73.484375 
Q 49.078125 72.75 53.515625 71.296875 
L 53.515625 59.28125 
L 48 59.28125 
Q 47.40625 64.203125 44.234375 66.796875 
Q 41.0625 69.390625 35.6875 69.390625 
Q 26.21875 69.390625 21.578125 62.203125 
Q 16.9375 55.03125 16.796875 40.140625 
z
" id="DejaVuSerif-54"/>
       </defs>
       <use xlink:href="#DejaVuSerif-8722"/>
       <use x="83.789062" xlink:href="#DejaVuSerif-52"/>
       <use x="147.412109" xlink:href="#DejaVuSerif-46"/>
       <use x="179.199219" xlink:href="#DejaVuSerif-54"/>
      </g>
     </g>
    </g>
    <g id="ytick_3">
     <g id="line2d_12">
      <g>
       <use style="stroke:#000000;stroke-width:0.8;" x="57.6" xlink:href="#m37acfa6521" y="217.506291"/>
      </g>
     </g>
     <g id="text_13">
      <!-- −4.4 -->
      <g transform="translate(26.317187 221.30551)scale(0.1 -0.1)">
       <use xlink:href="#DejaVuSerif-8722"/>
       <use x="83.789062" xlink:href="#DejaVuSerif-52"/>
       <use x="147.412109" xlink:href="#DejaVuSerif-46"/>
       <use x="179.199219" xlink:href="#DejaVuSerif-52"/>
      </g>
     </g>
    </g>
    <g id="ytick_4">
     <g id="line2d_13">
      <g>
       <use style="stroke:#000000;stroke-width:0.8;" x="57.6" xlink:href="#m37acfa6521" y="172.795848"/>
      </g>
     </g>
     <g id="text_14">
      <!-- −4.2 -->
      <g transform="translate(26.317187 176.595067)scale(0.1 -0.1)">
       <use xlink:href="#DejaVuSerif-8722"/>
       <use x="83.789062" xlink:href="#DejaVuSerif-52"/>
       <use x="147.412109" xlink:href="#DejaVuSerif-46"/>
       <use x="179.199219" xlink:href="#DejaVuSerif-50"/>
      </g>
     </g>
    </g>
    <g id="ytick_5">
     <g id="line2d_14">
      <g>
       <use style="stroke:#000000;stroke-width:0.8;" x="57.6" xlink:href="#m37acfa6521" y="128.085405"/>
      </g>
     </g>
     <g id="text_15">
      <!-- −4.0 -->
      <g transform="translate(26.317187 131.884624)scale(0.1 -0.1)">
       <use xlink:href="#DejaVuSerif-8722"/>
       <use x="83.789062" xlink:href="#DejaVuSerif-52"/>
       <use x="147.412109" xlink:href="#DejaVuSerif-46"/>
       <use x="179.199219" xlink:href="#DejaVuSerif-48"/>
      </g>
     </g>
    </g>
    <g id="ytick_6">
     <g id="line2d_15">
      <g>
       <use style="stroke:#000000;stroke-width:0.8;" x="57.6" xlink:href="#m37acfa6521" y="83.374962"/>
      </g>
     </g>
     <g id="text_16">
      <!-- −3.8 -->
      <g transform="translate(26.317187 87.174181)scale(0.1 -0.1)">
       <use xlink:href="#DejaVuSerif-8722"/>
       <use x="83.789062" xlink:href="#DejaVuSerif-51"/>
       <use x="147.412109" xlink:href="#DejaVuSerif-46"/>
       <use x="179.199219" xlink:href="#DejaVuSerif-56"/>
      </g>
     </g>
    </g>
    <g id="text_17">
     <!-- Speed -->
     <g transform="translate(20.2375 190.273313)rotate(-90)scale(0.1 -0.1)">
      <defs>
       <path d="M 9.28125 3.515625 
L 9.28125 20.125 
L 14.890625 20.0625 
Q 15.140625 11.765625 19.703125 7.78125 
Q 24.265625 3.8125 33.59375 3.8125 
Q 42.28125 3.8125 46.84375 7.25 
Q 51.421875 10.6875 51.421875 17.28125 
Q 51.421875 22.5625 48.65625 25.390625 
Q 45.90625 28.21875 37.015625 30.90625 
L 27.390625 33.796875 
Q 16.9375 36.96875 12.671875 41.703125 
Q 8.40625 46.4375 8.40625 54.6875 
Q 8.40625 63.96875 14.984375 69.09375 
Q 21.578125 74.21875 33.5 74.21875 
Q 38.578125 74.21875 44.625 73.109375 
Q 50.6875 72.015625 57.515625 69.921875 
L 57.515625 54.390625 
L 52 54.390625 
Q 51.171875 62.109375 46.84375 65.546875 
Q 42.53125 69 33.6875 69 
Q 25.984375 69 21.953125 65.84375 
Q 17.921875 62.703125 17.921875 56.6875 
Q 17.921875 51.46875 20.9375 48.484375 
Q 23.96875 45.515625 33.796875 42.578125 
L 42.828125 39.890625 
Q 52.734375 36.921875 56.953125 32.296875 
Q 61.1875 27.6875 61.1875 19.921875 
Q 61.1875 9.328125 54.390625 3.953125 
Q 47.609375 -1.421875 34.1875 -1.421875 
Q 28.171875 -1.421875 21.9375 -0.1875 
Q 15.71875 1.03125 9.28125 3.515625 
z
" id="DejaVuSerif-83"/>
       <path d="M 20.515625 28.515625 
L 20.515625 23.390625 
Q 20.515625 14.015625 24.09375 9.109375 
Q 27.6875 4.203125 34.515625 4.203125 
Q 41.40625 4.203125 44.9375 9.71875 
Q 48.484375 15.234375 48.484375 25.984375 
Q 48.484375 36.765625 44.9375 42.234375 
Q 41.40625 47.703125 34.515625 47.703125 
Q 27.6875 47.703125 24.09375 42.765625 
Q 20.515625 37.84375 20.515625 28.515625 
z
M 11.53125 46.6875 
L 2.875 46.6875 
L 2.875 51.90625 
L 20.515625 51.90625 
L 20.515625 43.796875 
Q 23.140625 48.6875 27.21875 51 
Q 31.296875 53.328125 37.3125 53.328125 
Q 46.875 53.328125 52.921875 45.75 
Q 58.984375 38.1875 58.984375 25.984375 
Q 58.984375 13.765625 52.921875 6.171875 
Q 46.875 -1.421875 37.3125 -1.421875 
Q 31.296875 -1.421875 27.21875 0.890625 
Q 23.140625 3.21875 20.515625 8.109375 
L 20.515625 -15.578125 
L 29 -15.578125 
L 29 -20.796875 
L 2.875 -20.796875 
L 2.875 -15.578125 
L 11.53125 -15.578125 
z
" id="DejaVuSerif-112"/>
       <path d="M 52.484375 5.171875 
L 61.078125 5.171875 
L 61.078125 0 
L 43.5 0 
L 43.5 8.109375 
Q 40.875 3.21875 36.796875 0.890625 
Q 32.71875 -1.421875 26.703125 -1.421875 
Q 17.140625 -1.421875 11.0625 6.171875 
Q 4.984375 13.765625 4.984375 25.984375 
Q 4.984375 38.1875 11.03125 45.75 
Q 17.09375 53.328125 26.703125 53.328125 
Q 32.71875 53.328125 36.796875 51 
Q 40.875 48.6875 43.5 43.796875 
L 43.5 70.796875 
L 35.015625 70.796875 
L 35.015625 75.984375 
L 52.484375 75.984375 
z
M 43.5 23.390625 
L 43.5 28.515625 
Q 43.5 37.84375 39.90625 42.765625 
Q 36.328125 47.703125 29.5 47.703125 
Q 22.5625 47.703125 19.015625 42.234375 
Q 15.484375 36.765625 15.484375 25.984375 
Q 15.484375 15.234375 19.015625 9.71875 
Q 22.5625 4.203125 29.5 4.203125 
Q 36.328125 4.203125 39.90625 9.109375 
Q 43.5 14.015625 43.5 23.390625 
z
" id="DejaVuSerif-100"/>
      </defs>
      <use xlink:href="#DejaVuSerif-83"/>
      <use x="68.505859" xlink:href="#DejaVuSerif-112"/>
      <use x="132.519531" xlink:href="#DejaVuSerif-101"/>
      <use x="191.699219" xlink:href="#DejaVuSerif-101"/>
      <use x="250.878906" xlink:href="#DejaVuSerif-100"/>
     </g>
    </g>
   </g>
   <g id="line2d_16">
    <path clip-path="url(#p3fffe7d7b4)" d="M 73.832727 128.085405 
L 74.748137 128.085405 
L 74.950661 53.568 
L 75.258498 53.568 
L 75.452922 64.213344 
L 75.663547 128.085405 
L 79.714033 128.085405 
L 79.811244 157.892367 
L 79.908456 156.029432 
L 80.313505 156.029432 
L 80.52413 154.385666 
L 80.823866 154.385666 
L 81.02639 152.92454 
L 81.334227 152.92454 
L 81.52865 151.617217 
L 81.633963 151.617217 
L 81.739276 128.085405 
L 81.836487 151.617217 
L 81.933699 150.440627 
L 82.338748 150.440627 
L 82.549373 149.376092 
L 82.849109 149.376092 
L 83.051633 148.408334 
L 83.254157 168.731262 
L 83.35947 168.731262 
L 83.553893 166.964051 
L 83.86173 166.964051 
L 84.064255 165.344108 
L 84.169567 183.973459 
L 84.363991 165.344108 
L 84.574616 163.85376 
L 84.874352 163.85376 
L 84.979664 162.478054 
L 85.174088 179.674378 
L 85.384713 179.674378 
L 85.579136 177.763675 
L 85.789762 177.763675 
L 85.886973 161.204252 
L 86.089498 175.989451 
L 86.389234 175.989451 
L 86.599859 174.337588 
L 86.794282 189.754982 
L 86.899595 189.754982 
L 87.102119 187.699329 
L 87.304643 172.795848 
L 87.409956 187.699329 
L 87.507168 185.776299 
L 87.912216 185.776299 
L 88.009428 183.973459 
L 88.220053 197.945472 
L 88.414476 183.973459 
L 88.625102 182.279882 
L 88.722313 182.279882 
L 88.924838 195.828501 
L 89.127362 193.836057 
L 89.435199 193.836057 
L 89.629622 191.957467 
L 89.937459 191.957467 
L 90.139983 202.60281 
L 90.245296 202.60281 
L 90.439719 190.183243 
L 90.650345 200.588826 
L 90.950081 200.588826 
L 91.055393 198.680841 
L 91.152605 210.446748 
L 91.355129 198.680841 
L 91.460442 198.680841 
L 91.557654 196.870702 
L 91.760178 208.334918 
L 91.962702 208.334918 
L 92.165226 206.32868 
L 92.464962 206.32868 
L 92.570275 204.420308 
L 92.772799 215.325294 
L 92.870011 215.325294 
L 93.080636 202.60281 
L 93.27506 213.248154 
L 93.485685 213.248154 
L 93.582896 211.267625 
L 93.680108 221.665402 
L 93.890733 211.267625 
L 93.987945 211.267625 
L 94.085157 209.37712 
L 94.295782 219.538584 
L 94.392994 219.538584 
L 94.595518 207.570637 
L 94.798042 217.506291 
L 95.000567 217.506291 
L 95.105879 225.28202 
L 95.300303 215.562359 
L 95.510928 215.562359 
L 95.705351 223.214007 
L 95.810664 223.214007 
L 96.013188 213.701147 
L 96.215712 221.232161 
L 96.515448 221.232161 
L 96.726074 219.331207 
L 96.823285 219.331207 
L 97.02581 228.455787 
L 97.131122 226.44838 
L 97.325545 217.506291 
L 97.536171 226.44838 
L 97.730594 224.519694 
L 98.038431 224.519694 
L 98.135643 222.665188 
L 98.346268 231.263351 
L 98.540691 222.665188 
L 98.751316 229.316597 
L 99.051052 229.316597 
L 99.253577 227.441945 
L 99.456101 227.441945 
L 99.561414 235.721657 
L 99.658625 233.764634 
L 99.86115 225.635463 
L 100.063674 233.764634 
L 100.266198 231.877505 
L 100.565934 231.877505 
L 100.671247 230.056591 
L 100.776559 237.900528 
L 100.970983 230.056591 
L 101.076295 230.056591 
L 101.27882 236.007164 
L 101.586657 236.007164 
L 101.78108 234.177982 
L 101.991705 241.756023 
L 102.186129 232.409772 
L 102.396754 239.861513 
L 102.493965 239.861513 
L 102.591177 232.409772 
L 102.801802 238.029118 
L 103.101538 238.029118 
L 103.304063 236.255832 
L 103.401274 236.255832 
L 103.6119 243.467194 
L 103.806323 241.635737 
L 104.11416 241.635737 
L 104.211371 246.847519 
L 104.421997 239.861513 
L 104.519208 239.861513 
L 104.61642 246.847519 
L 104.721733 245.02041 
L 104.827045 238.14188 
L 105.021469 245.02041 
L 105.126781 245.02041 
L 105.329306 243.248668 
L 105.637143 243.248668 
L 105.734354 248.203013 
L 105.936878 241.529813 
L 106.139403 248.203013 
L 106.341927 246.436578 
L 106.641663 246.436578 
L 106.746976 244.721344 
L 106.852288 251.201118 
L 107.046712 244.721344 
L 107.152024 251.201118 
L 107.354549 249.442322 
L 107.45176 243.055116 
L 107.662385 249.442322 
L 107.759597 247.73307 
L 107.856809 254.030315 
L 108.067434 247.73307 
L 108.164646 247.73307 
L 108.36717 252.28108 
L 108.472483 246.071296 
L 108.666906 252.28108 
L 108.772219 250.57977 
L 108.877531 244.455051 
L 109.071955 250.57977 
L 109.177267 250.57977 
L 109.28258 254.966392 
L 109.477003 248.92444 
L 109.582316 248.92444 
L 109.687628 254.966392 
L 109.78484 253.274646 
L 109.882052 247.313253 
L 110.092677 253.274646 
L 110.189889 253.274646 
L 110.392413 251.627419 
L 110.594937 251.627419 
L 110.692149 257.510372 
L 110.797462 255.829528 
L 110.999986 250.022977 
L 111.20251 255.829528 
L 111.405034 254.191783 
L 111.712871 254.191783 
L 111.907295 252.5955 
L 112.012607 252.5955 
L 112.11792 258.255049 
L 112.312343 251.039123 
L 112.522969 256.627929 
L 112.717392 256.627929 
L 112.928017 255.040984 
L 113.227753 255.040984 
L 113.333066 253.492745 
L 113.527489 258.945238 
L 113.738114 253.492745 
L 113.932538 257.368614 
L 114.240375 257.368614 
L 114.337586 255.829528 
L 114.442899 261.1522 
L 114.645423 255.829528 
L 114.742635 261.1522 
L 114.95326 259.586708 
L 115.050472 254.326656 
L 115.252996 259.586708 
L 115.358309 258.057623 
L 115.45552 263.256512 
L 115.658045 258.057623 
L 115.763357 263.256512 
L 115.860569 261.702821 
L 116.063093 256.56369 
L 116.265618 261.702821 
L 116.468142 260.184441 
L 116.767878 260.184441 
L 116.978503 258.700183 
L 117.172926 263.723828 
L 117.383552 257.248907 
L 117.577975 262.216734 
L 117.683288 257.248907 
L 117.7886 262.216734 
L 117.983024 260.742764 
L 118.088336 265.655999 
L 118.29086 260.742764 
L 118.493385 264.160667 
L 118.695909 259.300836 
L 118.793121 264.160667 
L 119.003746 262.697492 
L 119.303482 262.697492 
L 119.408795 266.021878 
L 119.603218 261.265448 
L 119.813843 266.021878 
L 120.008266 264.569915 
L 120.218892 264.569915 
L 120.316103 259.863553 
L 120.518628 263.148202 
L 120.62394 263.148202 
L 120.721152 267.80554 
L 120.923676 261.755802 
L 121.126201 266.365126 
L 121.223412 261.755802 
L 121.328725 266.365126 
L 121.531249 264.954108 
L 121.839086 264.954108 
L 122.033509 268.087803 
L 122.244135 263.571596 
L 122.341346 268.087803 
L 122.438558 266.687779 
L 122.543871 262.216734 
L 122.746395 266.687779 
L 122.843607 262.216734 
L 123.054232 265.315478 
L 123.151444 265.315478 
L 123.248655 269.742254 
L 123.45928 263.970085 
L 123.653704 268.353462 
L 123.759016 263.970085 
L 123.864329 268.353462 
L 124.058752 266.991636 
L 124.164065 271.332456 
L 124.366589 266.991636 
L 124.569114 269.95508 
L 124.771638 265.655999 
L 124.86885 269.95508 
L 124.974162 268.60394 
L 125.079475 264.345803 
L 125.273898 268.60394 
L 125.379211 264.345803 
L 125.581735 267.278294 
L 125.678947 267.278294 
L 125.784259 271.49626 
L 125.986784 265.977426 
L 126.189308 270.155972 
L 126.294621 265.977426 
L 126.391832 270.155972 
L 126.594357 268.840504 
L 126.894092 268.840504 
L 127.104718 271.651048 
L 127.201929 267.549172 
L 127.404454 271.651048 
L 127.606978 270.345906 
L 127.914815 270.345906 
L 128.109238 269.06428 
L 128.214551 273.092247 
L 128.417075 269.06428 
L 128.514287 267.80554 
L 128.724912 271.797543 
L 128.822124 267.80554 
L 128.919335 271.797543 
L 129.129961 270.525755 
L 129.429697 270.525755 
L 129.535009 273.198247 
L 129.729433 269.276278 
L 129.834745 273.198247 
L 130.03727 268.048531 
L 130.239794 271.936396 
L 130.442318 271.936396 
L 130.644842 270.696301 
L 130.750155 274.55065 
L 130.944578 270.696301 
L 131.155204 273.29881 
L 131.252415 269.477405 
L 131.45494 273.29881 
L 131.657464 272.068188 
L 131.965301 272.068188 
L 132.159724 270.858248 
L 132.370349 274.615429 
L 132.467561 270.858248 
L 132.670085 273.394345 
L 132.969821 273.394345 
L 133.075134 272.193445 
L 133.180447 275.888523 
L 133.37487 272.193445 
L 133.480183 275.888523 
L 133.585495 274.677022 
L 133.682707 271.012231 
L 133.885231 274.677022 
L 133.990544 271.012231 
L 134.184967 273.48522 
L 134.492804 273.48522 
L 134.590016 272.312641 
L 134.800641 275.918322 
L 134.897853 272.312641 
L 134.995064 275.918322 
L 135.20569 274.735658 
L 135.505426 274.735658 
L 135.610738 277.120215 
L 135.805161 273.571767 
L 135.910474 277.120215 
L 136.112998 272.426206 
L 136.315523 275.946713 
L 136.420835 272.426206 
L 136.518047 275.946713 
L 136.720571 274.791546 
L 137.020307 274.791546 
L 137.12562 277.120215 
L 137.328144 273.654289 
L 137.425356 277.120215 
L 137.635981 272.534529 
L 137.830404 275.973794 
L 138.04103 275.973794 
L 138.235453 274.844875 
L 138.340766 278.257886 
L 138.54329 274.844875 
L 138.745814 277.120215 
L 138.851127 273.733061 
L 139.04555 277.120215 
L 139.256175 275.999653 
L 139.555911 275.999653 
L 139.758436 274.895815 
L 139.855647 278.232415 
L 140.066273 274.895815 
L 140.260696 277.120215 
L 140.568533 277.120215 
L 140.665745 279.311904 
L 140.87637 276.024371 
L 140.973581 279.311904 
L 141.176106 274.944525 
L 141.37863 278.208061 
L 141.475842 274.944525 
L 141.581154 278.208061 
L 141.783679 277.120215 
L 142.091516 277.120215 
L 142.188727 279.264601 
L 142.391252 276.048022 
L 142.593776 279.264601 
L 142.7963 278.18475 
L 143.096036 278.18475 
L 143.306661 277.120215 
L 143.403873 280.291169 
L 143.606397 277.120215 
L 143.808922 279.219297 
L 143.906133 276.070674 
L 144.116759 279.219297 
L 144.311182 278.162417 
L 144.619019 278.162417 
L 144.71623 277.120215 
L 144.926856 280.225107 
L 145.024067 277.120215 
L 145.121279 280.225107 
L 145.331904 279.175868 
L 145.63164 279.175868 
L 145.736953 281.203361 
L 145.931376 278.141002 
L 146.036689 281.203361 
L 146.239213 277.120215 
L 146.441737 280.161742 
L 146.54705 277.120215 
L 146.644262 280.161742 
L 146.846786 279.134199 
L 147.146522 279.134199 
L 147.251835 281.12115 
L 147.454359 278.120449 
L 147.551571 281.12115 
L 147.762196 277.120215 
L 147.956619 280.100911 
L 148.167244 280.100911 
L 148.264456 279.094186 
L 148.361668 282.055143 
L 148.572293 279.094186 
L 148.669505 282.055143 
L 148.766716 281.042184 
L 148.872029 278.100707 
L 149.074553 281.042184 
L 149.171765 278.100707 
L 149.38239 280.042466 
L 149.682126 280.042466 
L 149.787439 279.055732 
L 149.88465 281.959008 
L 150.087175 279.055732 
L 150.192487 281.959008 
L 150.289699 280.966275 
L 150.386911 278.08173 
L 150.597536 280.966275 
L 150.694748 278.08173 
L 151.002585 282.852323 
L 151.197008 279.986269 
L 151.407633 281.866547 
L 151.504845 279.018748 
L 151.707369 281.866547 
L 151.909893 280.893248 
L 152.21773 280.893248 
L 152.412154 279.932193 
L 152.517466 282.74417 
L 152.719991 279.932193 
L 152.922515 281.777553 
L 153.027827 278.98315 
L 153.222251 281.777553 
L 153.327563 283.59999 
L 153.530088 280.822943 
L 153.627299 283.59999 
L 153.837925 279.880119 
L 154.032348 282.640023 
L 154.137661 279.880119 
L 154.242973 282.640023 
L 154.437397 281.691835 
L 154.745234 281.691835 
L 154.842445 283.481457 
L 155.05307 280.755211 
L 155.150282 283.481457 
L 155.352806 279.829939 
L 155.555331 282.539663 
L 155.757855 282.539663 
L 155.863168 281.609216 
L 155.960379 284.302616 
L 156.162904 281.609216 
L 156.268216 284.302616 
L 156.365428 283.367183 
L 156.46264 280.689911 
L 156.673265 283.367183 
L 156.770476 280.689911 
L 156.973001 282.442887 
L 157.272737 282.442887 
L 157.483362 281.529529 
L 157.580574 281.529529 
L 157.677785 284.175118 
L 157.888411 280.626917 
L 158.082834 283.256943 
L 158.188147 280.626917 
L 158.293459 283.256943 
L 158.487882 282.349507 
L 158.795719 282.349507 
L 158.892931 284.052067 
L 159.103556 281.452623 
L 159.200768 284.052067 
L 159.403292 280.566107 
L 159.605817 283.150526 
L 159.808341 283.150526 
L 159.913654 282.259347 
L 160.010865 284.828912 
L 160.213389 282.259347 
L 160.318702 284.828912 
L 160.415914 283.933235 
L 160.513125 281.378353 
L 160.723751 283.933235 
L 160.820962 281.378353 
L 161.023487 283.047736 
L 161.323223 283.047736 
L 161.533848 284.698256 
L 161.63106 282.172243 
L 161.833584 284.698256 
L 162.036108 283.818409 
L 162.343945 283.818409 
L 162.538368 282.948392 
L 162.643681 285.446182 
L 162.846205 282.948392 
L 162.943417 284.571956 
L 163.154042 282.088042 
L 163.251254 284.571956 
L 163.348466 282.088042 
L 163.559091 283.707389 
L 163.858827 283.707389 
L 163.964139 282.852323 
L 164.061351 285.308941 
L 164.263875 282.852323 
L 164.369188 285.308941 
L 164.4664 284.449796 
L 164.563611 282.006603 
L 164.774237 284.449796 
L 164.871448 282.006603 
L 165.179285 286.029905 
L 165.373708 283.59999 
L 165.584334 285.176151 
L 165.681545 282.75937 
L 165.88407 285.176151 
L 166.086594 284.331577 
L 166.394431 284.331577 
L 166.491643 283.496036 
L 166.694167 285.886969 
L 166.79948 283.496036 
L 166.896691 285.886969 
L 166.993903 285.047599 
L 167.099215 282.669384 
L 167.30174 285.047599 
L 167.398951 282.669384 
L 167.609577 284.217111 
L 167.909313 284.217111 
L 168.014625 283.395365 
L 168.111837 285.748546 
L 168.209049 283.395365 
L 168.419674 285.748546 
L 168.614097 284.923085 
L 168.921934 284.923085 
L 169.124458 284.106222 
L 169.229771 286.434891 
L 169.424194 284.106222 
L 169.63482 285.614427 
L 169.934556 285.614427 
L 170.039868 287.107084 
L 170.234292 284.802422 
L 170.339604 287.107084 
L 170.542129 283.998745 
L 170.63934 286.291588 
L 170.849965 283.998745 
L 170.947177 286.291588 
L 171.044389 285.484414 
L 171.149701 283.203269 
L 171.352226 285.484414 
L 171.449437 285.484414 
L 171.660063 284.685434 
L 171.757274 286.955 
L 171.959799 284.685434 
L 172.162323 286.152628 
L 172.259535 283.894525 
L 172.47016 286.152628 
L 172.664583 285.35832 
L 172.769896 285.35832 
L 172.875208 287.605076 
L 173.069632 284.571956 
L 173.280257 286.807478 
L 173.377469 284.571956 
L 173.47468 286.807478 
L 173.579993 286.017816 
L 173.685306 283.793416 
L 173.879729 286.017816 
L 173.985042 283.793416 
L 174.284777 287.449361 
L 174.495403 285.235972 
L 174.689826 286.664316 
L 174.795139 284.461832 
L 174.997663 286.664316 
L 175.200187 285.886969 
L 175.499923 285.886969 
L 175.605236 285.117205 
L 175.80776 287.298202 
L 175.904972 285.117205 
L 176.010284 287.298202 
L 176.212809 286.525325 
L 176.415333 286.525325 
L 176.520646 284.354915 
L 176.715069 285.759914 
L 177.022906 285.759914 
L 177.22543 287.151404 
L 177.330743 285.001864 
L 177.525166 287.151404 
L 177.735791 286.390323 
L 178.035527 286.390323 
L 178.238052 285.63649 
L 178.335263 287.765559 
L 178.440576 285.63649 
L 178.545889 287.765559 
L 178.740312 287.008781 
L 178.950937 287.008781 
L 179.048149 284.889803 
L 179.250673 286.259142 
L 179.550409 286.259142 
L 179.655722 285.516543 
L 179.761034 287.615624 
L 179.858246 285.516543 
L 180.06077 287.615624 
L 180.263295 286.870156 
L 180.571132 286.870156 
L 180.765555 286.131622 
L 180.870868 288.211178 
L 181.073392 286.131622 
L 181.275916 287.469855 
L 181.47844 287.469855 
L 181.575652 285.399927 
L 181.786277 286.735364 
L 182.086013 286.735364 
L 182.191326 286.007612 
L 182.288538 288.05855 
L 182.491062 286.007612 
L 182.596375 288.05855 
L 182.790798 287.328079 
L 183.098635 287.328079 
L 183.301159 286.604249 
L 183.406472 288.636542 
L 183.600895 286.604249 
L 183.706208 287.910066 
L 183.81152 285.886969 
L 184.005944 287.910066 
L 184.111256 285.886969 
L 184.313781 287.190135 
L 184.621617 287.190135 
L 184.718829 286.476661 
L 184.816041 288.481613 
L 185.026666 286.476661 
L 185.123878 288.481613 
L 185.326402 287.765559 
L 185.626138 287.765559 
L 185.836763 287.055869 
L 185.933975 289.043 
L 186.136499 287.055869 
L 186.241812 288.330798 
L 186.339023 286.35246 
L 186.541548 288.330798 
L 186.64686 286.35246 
L 186.841284 287.624872 
L 187.149121 287.624872 
L 187.246332 286.925137 
L 187.351645 288.886121 
L 187.554169 286.925137 
L 187.651381 288.886121 
L 187.862006 288.183935 
L 188.161742 288.183935 
L 188.364266 287.487854 
L 188.672103 287.487854 
L 188.769315 288.733317 
L 188.866527 286.7978 
L 189.077152 288.733317 
L 189.174364 286.7978 
L 189.376888 288.040869 
L 189.676624 288.040869 
L 189.781937 287.354365 
L 189.887249 289.273268 
L 190.081672 287.354365 
L 190.186985 287.354365 
L 190.292298 286.673729 
L 190.486721 288.584431 
L 190.592034 286.673729 
L 190.697346 288.584431 
L 190.89177 287.901457 
L 191.199607 287.901457 
L 191.296818 289.118781 
L 191.402131 287.22427 
L 191.604655 289.118781 
L 191.701867 287.22427 
L 191.912492 288.439315 
L 192.212228 288.439315 
L 192.414752 287.765559 
L 192.511964 287.765559 
L 192.617277 289.644149 
L 192.819801 287.097441 
L 193.022325 288.968171 
L 193.127638 287.097441 
L 193.22485 288.968171 
L 193.427374 288.297826 
L 193.72711 288.297826 
L 193.832422 289.488249 
L 193.937735 287.633044 
L 194.034947 289.488249 
L 194.237471 287.633044 
L 194.439995 288.821295 
L 194.537207 286.973756 
L 194.747832 288.821295 
L 194.942256 288.159831 
L 195.047568 288.159831 
L 195.152881 289.999767 
L 195.347304 287.503788 
L 195.557929 289.336183 
L 195.655141 287.503788 
L 195.752353 289.336183 
L 195.962978 288.678017 
L 196.262714 288.678017 
L 196.465238 288.025201 
L 196.56245 289.842699 
L 196.773075 288.025201 
L 196.967498 289.187811 
L 197.072811 287.377672 
L 197.275335 289.187811 
L 197.372547 290.341045 
L 197.583172 288.538205 
L 197.680384 290.341045 
L 197.882908 287.893816 
L 197.988221 289.689416 
L 198.182644 287.893816 
L 198.287957 289.689416 
L 198.39327 289.043 
L 198.490481 287.254582 
L 198.693005 289.043 
L 198.798318 289.043 
L 198.992741 288.401735 
L 199.098054 290.183027 
L 199.300578 288.401735 
L 199.503103 289.539783 
L 199.608415 287.765559 
L 199.705627 289.539783 
L 199.802839 287.765559 
L 200.013464 288.901623 
L 200.3132 288.901623 
L 200.418512 288.268488 
L 200.515724 290.028742 
L 200.718248 288.268488 
L 200.823561 290.028742 
L 201.017984 289.39367 
L 201.325821 289.39367 
L 201.528346 288.76356 
L 201.828082 288.76356 
L 201.933394 289.878059 
L 202.038707 288.138353 
L 202.23313 289.878059 
L 202.338443 288.138353 
L 202.540967 289.250956 
L 202.848804 289.250956 
L 202.946016 288.628695 
L 203.043227 290.354967 
L 203.14854 288.628695 
L 203.253853 290.354967 
L 203.448276 288.011221 
L 203.658901 289.730853 
L 203.756113 288.011221 
L 203.853325 289.730853 
L 204.06395 289.111522 
L 204.258373 289.111522 
L 204.363686 290.824566 
L 204.468998 290.203424 
L 204.56621 288.496918 
L 204.768734 290.203424 
L 204.874047 288.496918 
L 205.06847 289.587005 
L 205.173783 287.886989 
L 205.376307 289.587005 
L 205.473519 290.668834 
L 205.684144 288.975257 
L 205.781356 290.668834 
L 205.98388 288.368125 
L 206.186404 290.055312 
L 206.283616 288.368125 
L 206.388929 290.055312 
L 206.494241 289.446403 
L 206.591453 291.127246 
L 206.793977 289.446403 
L 206.89929 289.446403 
L 207.093713 288.842054 
L 207.199026 290.516603 
L 207.40155 288.842054 
L 207.604074 289.910516 
L 207.90381 289.910516 
L 208.009123 290.971034 
L 208.211647 289.308936 
L 208.308859 290.971034 
L 208.519484 288.711812 
L 208.616696 290.367754 
L 208.713908 288.711812 
L 208.924533 290.367754 
L 209.118956 289.768926 
L 209.426793 289.768926 
L 209.629317 289.174501 
L 209.73463 290.818268 
L 209.831842 289.174501 
L 209.929053 290.818268 
L 210.139679 290.222177 
L 210.334102 290.222177 
L 210.439415 288.584431 
L 210.641939 289.630437 
L 210.949776 289.630437 
L 211.144199 290.668834 
L 211.249512 289.043 
L 211.452036 290.668834 
L 211.65456 290.079764 
L 211.759873 290.079764 
L 211.857085 288.45982 
L 211.954296 290.079764 
L 212.059609 289.494947 
L 212.164922 291.109042 
L 212.359345 289.494947 
L 212.464658 291.109042 
L 212.56997 290.522626 
L 212.667182 288.914337 
L 212.869706 290.522626 
L 212.975019 288.914337 
L 213.274755 291.542939 
L 213.477279 289.940414 
L 213.574491 290.959162 
L 213.785116 289.36236 
L 213.882328 290.959162 
L 214.084852 288.788421 
L 214.287376 290.37954 
L 214.4899 290.37954 
L 214.595213 289.804029 
L 214.692425 291.389506 
L 214.894949 289.804029 
L 215.000262 289.804029 
L 215.097473 289.232585 
L 215.299998 290.812459 
L 215.40531 289.232585 
L 215.502522 290.812459 
L 215.705046 290.239477 
L 216.004782 290.239477 
L 216.110095 291.239303 
L 216.215407 289.670515 
L 216.409831 291.239303 
L 216.515143 289.670515 
L 216.717668 290.668834 
L 216.814879 289.105532 
L 217.025505 290.668834 
L 217.219928 290.102342 
L 217.325241 290.102342 
L 217.430553 291.660197 
L 217.624977 289.539783 
L 217.835602 291.092229 
L 217.932813 289.539783 
L 218.030025 291.092229 
L 218.135338 290.528191 
L 218.24065 288.981117 
L 218.435074 290.528191 
L 218.540386 290.528191 
L 218.742911 289.968044 
L 218.840122 291.509783 
L 219.050748 289.968044 
L 219.245171 290.948187 
L 219.350484 289.411746 
L 219.553008 290.948187 
L 219.650219 291.921618 
L 219.860845 290.390438 
L 220.055268 290.390438 
L 220.160581 289.836496 
L 220.265893 291.36245 
L 220.460317 289.836496 
L 220.565629 291.36245 
L 220.768154 290.807086 
L 221.075991 290.807086 
L 221.270414 290.255487 
L 221.481039 290.255487 
L 221.578251 291.771095 
L 221.675462 291.218103 
L 221.780775 289.707615 
L 221.983299 291.218103 
L 222.080511 289.707615 
L 222.291136 290.668834 
L 222.590872 290.668834 
L 222.696185 291.623603 
L 222.890608 290.123252 
L 222.995921 291.623603 
L 223.198445 289.58132 
L 223.400969 291.076652 
L 223.506282 289.58132 
L 223.603494 291.076652 
L 223.700705 290.533348 
L 223.806018 292.023696 
L 224.008542 290.533348 
L 224.105754 292.023696 
L 224.211067 291.479051 
L 224.316379 289.993654 
L 224.413591 291.479051 
L 224.616115 289.993654 
L 224.818639 290.938012 
L 225.126476 290.938012 
L 225.223688 291.876137 
L 225.426212 290.400545 
L 225.531525 291.876137 
L 225.628737 290.400545 
L 225.831261 291.337352 
L 225.936574 289.866614 
L 226.130997 291.337352 
L 226.341622 290.802099 
L 226.641358 290.802099 
L 226.746671 290.270346 
L 226.941094 291.731471 
L 227.046407 290.270346 
L 227.151719 291.731471 
L 227.248931 291.198422 
L 227.346143 289.742056 
L 227.556768 291.198422 
L 227.65398 289.742056 
L 227.961817 292.120472 
L 228.15624 290.668834 
L 228.366865 291.589614 
L 228.464077 290.142674 
L 228.561288 291.589614 
L 228.666601 290.142674 
L 228.869125 291.062181 
L 229.176962 291.062181 
L 229.274174 290.53814 
L 229.371386 291.975775 
L 229.582011 290.53814 
L 229.679223 291.975775 
L 229.881747 291.450485 
L 230.181483 291.450485 
L 230.392108 290.928552 
L 230.691844 290.928552 
L 230.797157 291.833843 
L 230.894368 290.409944 
L 231.096893 291.833843 
L 231.202205 290.409944 
L 231.396629 291.314007 
L 231.704466 291.314007 
L 231.801677 292.212348 
L 232.012302 290.797461 
L 232.109514 292.212348 
L 232.312038 290.284173 
L 232.514563 291.694597 
L 232.611774 290.284173 
L 232.717087 291.694597 
L 232.8224 291.180103 
L 232.919611 292.586092 
L 233.122136 291.180103 
L 233.227448 291.180103 
L 233.421872 290.668834 
L 233.527184 292.070416 
L 233.729708 290.668834 
L 233.932233 291.557963 
L 234.231969 291.557963 
L 234.337281 292.441551 
L 234.539806 291.048702 
L 234.74233 291.048702 
L 234.944854 291.931128 
L 235.042066 290.542605 
L 235.252691 291.931128 
L 235.447114 291.423866 
L 235.754951 291.423866 
L 235.852163 290.919735 
L 235.957476 292.299687 
L 236.16 290.919735 
L 236.257212 292.299687 
L 236.362524 291.794412 
L 236.467837 290.418706 
L 236.66226 291.794412 
L 236.767573 291.794412 
L 236.970097 291.292237 
L 237.067309 292.663723 
L 237.277934 291.292237 
L 237.375146 292.160425 
L 237.57767 290.793134 
L 237.682983 292.160425 
L 237.780194 290.793134 
L 237.982719 291.660197 
L 238.282455 291.660197 
L 238.387767 291.163009 
L 238.49308 292.521989 
L 238.687503 291.163009 
L 238.792816 291.163009 
L 238.898128 290.668834 
L 239.092552 292.023696 
L 239.197864 290.668834 
L 239.303177 292.023696 
L 239.4976 291.528414 
L 239.708226 291.528414 
L 239.805437 292.879183 
L 239.902649 292.382816 
L 240.007962 291.036116 
L 240.113274 292.382816 
L 240.307698 291.036116 
L 240.518323 291.889431 
L 240.615534 290.546775 
L 240.818059 291.889431 
L 240.923371 292.737636 
L 241.117795 291.398999 
L 241.223107 292.737636 
L 241.425632 290.911496 
L 241.522843 292.246136 
L 241.628156 290.911496 
L 241.83068 292.246136 
L 242.033205 291.757563 
L 242.332941 291.757563 
L 242.543566 291.271889 
L 242.640777 292.598608 
L 242.737989 291.271889 
L 242.843302 292.598608 
L 242.948614 292.111883 
L 243.045826 290.789088 
L 243.24835 292.111883 
L 243.353663 290.789088 
L 243.653399 292.946921 
L 243.855923 291.628029 
L 244.058447 292.462034 
L 244.16376 291.147021 
L 244.260972 292.462034 
L 244.463496 290.668834 
L 244.66602 291.979991 
L 244.868545 291.979991 
L 244.973857 291.500767 
L 245.071069 292.80809 
L 245.273593 291.500767 
L 245.378906 292.80809 
L 245.573329 292.327849 
L 245.678642 292.327849 
L 245.783954 291.024338 
L 245.881166 292.327849 
L 246.08369 291.8504 
L 246.383426 291.8504 
L 246.488739 292.671674 
L 246.594052 291.375719 
L 246.788475 292.671674 
L 246.893788 291.375719 
L 247.096312 292.195991 
L 247.193524 290.903782 
L 247.404149 292.195991 
L 247.598572 291.72305 
L 247.703885 291.72305 
L 247.809197 293.011535 
L 248.003621 291.252827 
L 248.214246 292.537609 
L 248.311458 291.252827 
L 248.408669 292.537609 
L 248.619295 292.0664 
L 248.919031 292.0664 
L 249.121555 291.597883 
L 249.218767 292.875324 
L 249.429392 291.597883 
L 249.623815 292.405837 
L 249.83444 292.405837 
L 249.931652 291.132035 
L 250.134176 291.939017 
L 250.433912 291.939017 
L 250.644538 292.741428 
L 250.741749 291.474843 
L 250.838961 292.741428 
L 251.049586 291.013291 
L 251.244009 292.276298 
L 251.349322 291.013291 
L 251.454635 292.276298 
L 251.551846 291.813788 
L 251.649058 293.073237 
L 251.859683 291.813788 
L 251.956895 293.073237 
L 252.054107 292.609788 
L 252.159419 291.353877 
L 252.264732 292.609788 
L 252.361944 291.353877 
L 252.459155 292.609788 
L 252.669781 292.148936 
L 252.969516 292.148936 
L 253.074829 292.939553 
L 253.269252 291.690658 
L 253.374565 292.939553 
L 253.479878 291.690658 
L 253.674301 292.480349 
L 253.779614 291.234933 
L 253.982138 292.480349 
L 254.184662 292.023696 
L 254.289975 292.023696 
L 254.387187 293.265653 
L 254.589711 291.569574 
L 254.792235 292.80809 
L 254.889447 291.569574 
L 254.994759 292.80809 
L 255.197284 292.353055 
L 255.505121 292.353055 
L 255.699544 291.900527 
L 255.804857 293.13222 
L 256.007381 291.900527 
L 256.209905 292.678794 
L 256.412429 292.678794 
L 256.509641 291.450485 
L 256.720266 292.227854 
L 257.020002 292.227854 
L 257.222527 293.000974 
L 257.319738 291.779377 
L 257.530364 293.000974 
L 257.724787 292.551613 
L 257.8301 292.551613 
L 257.935412 291.333344 
L 258.032624 292.551613 
L 258.129835 292.104693 
L 258.235148 293.319651 
L 258.437672 292.104693 
L 258.534884 293.319651 
L 258.640197 292.871862 
L 258.745509 291.660197 
L 258.842721 292.871862 
L 258.939933 291.660197 
L 259.045245 292.871862 
L 259.24777 292.426493 
L 259.555607 292.426493 
L 259.652818 293.188658 
L 259.855342 291.983525 
L 259.960655 293.188658 
L 260.057867 291.983525 
L 260.260391 292.744832 
L 260.365704 291.542939 
L 260.560127 292.744832 
L 260.770752 292.303386 
L 260.867964 292.303386 
L 260.965176 293.502058 
L 261.175801 291.864301 
L 261.370224 293.059767 
L 261.475537 291.864301 
L 261.580849 293.059767 
L 261.678061 292.619836 
L 261.775273 291.427557 
L 261.985898 292.619836 
L 262.08311 292.619836 
L 262.285634 292.182244 
L 262.390947 293.371351 
L 262.58537 292.182244 
L 262.795995 292.932927 
L 262.990419 292.932927 
L 263.095731 291.746974 
L 263.298255 292.496823 
L 263.606092 292.496823 
L 263.800516 293.242715 
L 263.905828 292.063019 
L 264.011141 293.242715 
L 264.205564 291.631499 
L 264.41619 292.80809 
L 264.513401 291.631499 
L 264.610613 292.80809 
L 264.715926 292.375747 
L 264.821238 293.549249 
L 265.015662 292.375747 
L 265.120974 293.549249 
L 265.226287 293.116098 
L 265.323498 291.945668 
L 265.42071 293.116098 
L 265.526023 291.945668 
L 265.631335 293.116098 
L 265.825759 292.685209 
L 266.133596 292.685209 
L 266.230807 293.420898 
L 266.441433 292.256563 
L 266.538644 293.420898 
L 266.635856 292.256563 
L 266.846481 292.991455 
L 266.943693 291.830145 
L 267.146217 292.991455 
L 267.348741 292.564237 
L 267.445953 292.564237 
L 267.551266 293.722539 
L 267.75379 292.139227 
L 267.851002 293.294536 
L 268.061627 292.139227 
L 268.158839 293.294536 
L 268.361363 292.868739 
L 268.661099 292.868739 
L 268.871724 292.445131 
L 268.968936 293.5945 
L 269.17146 292.445131 
L 269.276773 293.170118 
L 269.373984 292.023696 
L 269.576509 293.170118 
L 269.681821 292.023696 
L 269.876245 292.747906 
L 270.184082 292.747906 
L 270.386606 293.468422 
L 270.491918 292.327849 
L 270.58913 293.468422 
L 270.791654 291.909929 
L 270.994179 293.0476 
L 271.09139 291.909929 
L 271.196703 293.0476 
L 271.302016 292.628914 
L 271.399227 293.763697 
L 271.601752 292.628914 
L 271.707064 292.628914 
L 271.901488 292.212348 
L 272.0068 293.344258 
L 272.112113 292.212348 
L 272.209324 293.344258 
L 272.411849 292.926938 
L 272.711585 292.926938 
L 272.816897 293.637927 
L 272.92221 292.51172 
L 273.019422 293.637927 
L 273.221946 292.51172 
L 273.42447 293.221966 
L 273.521682 292.098588 
L 273.732307 293.221966 
L 273.92673 292.80809 
L 274.032043 292.80809 
L 274.137356 293.928653 
L 274.331779 292.396283 
L 274.437092 293.514044 
L 274.639616 292.396283 
L 274.736828 293.514044 
L 274.947453 293.101504 
L 275.247189 293.101504 
L 275.449713 292.691016 
L 275.652237 292.691016 
L 275.75755 293.803216 
L 275.854762 293.392006 
L 275.951973 292.282566 
L 276.162599 293.392006 
L 276.25981 292.282566 
L 276.462335 292.982831 
L 276.762071 292.982831 
L 276.867383 293.679639 
L 277.069908 292.575677 
L 277.167119 293.679639 
L 277.377744 292.170529 
L 277.572168 293.271771 
L 277.782793 293.271771 
L 277.977216 292.865908 
L 278.285053 292.865908 
L 278.382265 292.462034 
L 278.59289 293.557878 
L 278.690102 292.462034 
L 278.787314 293.557878 
L 278.997939 293.1533 
L 279.192362 293.1533 
L 279.297675 292.060135 
L 279.597411 293.841194 
L 279.808036 292.750695 
L 280.002459 293.437895 
L 280.107772 292.35005 
L 280.310296 293.437895 
L 280.407508 294.121759 
L 280.618133 293.036554 
L 280.812557 293.036554 
L 280.917869 292.637157 
L 281.023182 293.719734 
L 281.217605 292.637157 
L 281.322918 293.719734 
L 281.525442 293.319651 
L 281.622654 293.319651 
L 281.727966 292.239689 
L 281.833279 293.319651 
L 282.027702 292.921496 
L 282.238328 292.921496 
L 282.335539 293.998856 
L 282.432751 293.600026 
L 282.538063 292.525256 
L 282.740588 293.600026 
L 282.837799 292.525256 
L 283.048425 293.203108 
L 283.348161 293.203108 
L 283.453473 293.877718 
L 283.647897 292.80809 
L 283.753209 293.877718 
L 283.955734 292.414957 
L 284.052945 293.482032 
L 284.158258 292.414957 
L 284.360782 293.482032 
L 284.563306 293.088231 
L 284.863042 293.088231 
L 284.968355 292.6963 
L 285.170879 293.758306 
L 285.268091 292.6963 
L 285.373404 293.758306 
L 285.478716 293.365716 
L 285.575928 292.306227 
L 285.778452 293.365716 
L 285.883765 293.365716 
L 286.078188 292.974982 
L 286.183501 294.031967 
L 286.386025 292.974982 
L 286.483237 293.640583 
L 286.588549 292.586092 
L 286.791074 293.640583 
L 286.888285 292.586092 
L 287.098911 293.251042 
L 287.398647 293.251042 
L 287.503959 292.863329 
L 287.601171 293.91287 
L 287.698383 292.863329 
L 287.803695 293.91287 
L 288.006219 292.477432 
L 288.208744 293.524515 
L 288.314056 292.477432 
L 288.411268 293.524515 
L 288.50848 293.137975 
L 288.613792 294.182612 
L 288.816317 293.137975 
L 288.913528 293.137975 
L 289.124154 292.753237 
L 289.221365 293.795439 
L 289.318577 292.753237 
L 289.42389 293.795439 
L 289.626414 293.410067 
L 289.934251 293.410067 
L 290.031462 294.063848 
L 290.233987 293.026483 
L 290.436511 293.026483 
L 290.639035 293.679639 
L 290.744348 292.644675 
L 290.938771 293.679639 
L 291.149397 293.297204 
L 291.246608 293.297204 
L 291.34382 294.329778 
L 291.554445 292.916532 
L 291.651657 293.946726 
L 291.854181 292.916532 
L 291.959494 293.946726 
L 292.153917 293.565436 
L 292.461754 293.565436 
L 292.664278 293.185894 
L 292.964014 293.185894 
L 293.069327 293.831212 
L 293.174639 292.80809 
L 293.369063 293.831212 
L 293.474375 292.80809 
L 293.6769 293.452797 
L 293.984737 293.452797 
L 294.081948 294.094567 
L 294.284473 293.076106 
L 294.389785 294.094567 
L 294.584209 292.701127 
L 294.794834 293.717274 
L 294.989257 293.717274 
L 295.199882 293.341691 
L 295.499618 293.341691 
L 295.604931 292.967808 
L 295.799354 293.979357 
L 295.904667 292.967808 
L 296.00998 293.979357 
L 296.204403 293.604878 
L 296.415028 293.604878 
L 296.51224 292.595613 
L 296.820077 294.239079 
L 297.0145 293.232087 
L 297.225125 293.8657 
L 297.322337 292.860971 
L 297.419549 293.8657 
L 297.524861 292.860971 
L 297.727386 293.493995 
L 298.035223 293.493995 
L 298.132434 293.123953 
L 298.229646 294.124187 
L 298.334958 293.123953 
L 298.537483 294.124187 
L 298.740007 293.753565 
L 298.84532 293.753565 
L 298.942531 292.755564 
L 299.039743 293.753565 
L 299.250368 293.384593 
L 299.444792 293.384593 
L 299.550104 294.380371 
L 299.655417 294.010827 
L 299.752629 293.017262 
L 299.84984 294.010827 
L 300.060465 293.017262 
L 300.254889 293.642922 
L 300.562726 293.642922 
L 300.659937 294.265813 
L 300.870563 293.276644 
L 301.064986 293.276644 
L 301.275611 293.898969 
L 301.372823 292.911983 
L 301.575347 293.898969 
L 301.777871 293.533741 
L 301.875083 293.533741 
L 301.980396 294.518552 
L 302.18292 293.170118 
L 302.280132 294.152765 
L 302.490757 293.170118 
L 302.587969 294.152765 
L 302.68518 293.788582 
L 302.790493 292.80809 
L 302.993017 293.788582 
L 303.090229 293.788582 
L 303.300854 293.425993 
L 303.60059 293.425993 
L 303.705903 294.041198 
L 303.803114 293.064988 
L 304.005639 294.041198 
L 304.110951 293.064988 
L 304.305375 293.679639 
L 304.613212 293.679639 
L 304.710423 294.291617 
L 304.921049 293.319651 
L 305.01826 294.291617 
L 305.220785 292.961225 
L 305.423309 293.931083 
L 305.625833 293.931083 
L 305.828357 293.57211 
L 306.136194 293.57211 
L 306.330618 293.214687 
L 306.43593 294.180356 
L 306.541243 293.214687 
L 306.638455 294.180356 
L 306.840979 293.822392 
L 307.043503 293.822392 
L 307.140715 292.858805 
L 307.448552 294.427484 
L 307.651076 293.465969 
L 307.8536 294.070526 
L 307.950812 293.111075 
L 308.056125 294.070526 
L 308.161437 293.111075 
L 308.355861 293.715098 
L 308.663698 293.715098 
L 308.760909 293.361188 
L 308.866222 294.31654 
L 308.971534 293.361188 
L 309.165958 294.31654 
L 309.376583 293.962102 
L 309.473795 293.962102 
L 309.571006 293.008788 
L 309.676319 293.962102 
L 309.878843 293.609173 
L 310.081368 293.609173 
L 310.18668 294.560459 
L 310.283892 294.207009 
L 310.381104 293.257742 
L 310.486416 294.207009 
L 310.68894 293.257742 
L 310.891465 293.855056 
L 311.191201 293.855056 
L 311.296513 294.449844 
L 311.499038 293.504592 
L 311.701562 293.504592 
L 311.904086 294.098865 
L 312.001298 293.155606 
L 312.211923 294.098865 
L 312.406346 293.749363 
L 312.511659 293.749363 
L 312.616972 294.690635 
L 312.811395 293.401329 
L 312.916708 294.340624 
L 313.119232 293.401329 
L 313.216444 294.340624 
L 313.321756 293.992081 
L 313.427069 293.054755 
L 313.621492 293.992081 
L 313.726805 293.992081 
L 313.929329 293.644995 
L 314.237166 293.644995 
L 314.334378 294.232772 
L 314.431589 293.29936 
L 314.642215 294.232772 
L 314.739426 293.29936 
L 314.941951 293.886631 
L 315.241687 293.886631 
L 315.346999 294.471461 
L 315.549524 293.54193 
L 315.646735 294.471461 
L 315.85736 293.19866 
L 316.051784 294.126262 
L 316.262409 294.126262 
L 316.456832 293.782492 
L 316.764669 293.782492 
L 316.861881 293.440143 
L 317.072506 294.363912 
L 317.169718 293.440143 
L 317.26693 294.363912 
L 317.372242 294.02107 
L 317.477555 293.099205 
L 317.671978 294.02107 
L 317.777291 293.099205 
L 318.077027 294.599607 
L 318.287652 293.679639 
L 318.482075 294.257688 
L 318.587388 293.339609 
L 318.692701 294.257688 
L 318.789912 293.339609 
L 318.992437 293.917171 
L 319.292173 293.917171 
L 319.397485 293.578047 
L 319.502798 294.492371 
L 319.600009 293.578047 
L 319.697221 294.492371 
L 319.907846 293.240307 
L 320.10227 294.152765 
L 320.207582 293.240307 
L 320.312895 294.152765 
L 320.410107 293.814542 
L 320.507318 294.725142 
L 320.717944 293.814542 
L 320.815155 294.725142 
L 320.912367 294.386443 
L 321.017679 293.477694 
L 321.122992 294.386443 
L 321.317415 293.477694 
L 321.528041 294.049119 
L 321.827777 294.049119 
L 321.933089 294.618229 
L 322.127513 293.71316 
L 322.338138 293.71316 
L 322.532561 294.281799 
L 322.637874 293.378558 
L 322.840398 294.281799 
L 323.042922 293.946726 
L 323.342658 293.946726 
L 323.447971 293.613001 
L 323.553284 294.512608 
L 323.747707 293.613001 
L 323.85302 294.512608 
L 324.055544 294.178416 
L 324.363381 294.178416 
L 324.557804 293.845565 
L 324.768429 293.845565 
L 324.865641 294.741566 
L 324.962853 294.408253 
L 325.068165 293.514044 
L 325.27069 294.408253 
L 325.367901 293.514044 
L 325.578527 294.076272 
L 325.675738 293.183848 
L 325.878263 294.076272 
L 325.983575 294.636259 
L 326.177999 293.745612 
L 326.283311 294.636259 
L 326.485835 293.416268 
L 326.583047 294.305144 
L 326.68836 293.416268 
L 326.890884 294.305144 
L 327.093408 293.975343 
L 327.393144 293.975343 
L 327.498457 293.646848 
L 327.700981 294.532203 
L 327.798193 293.646848 
L 327.903506 294.532203 
L 328.008818 294.203257 
L 328.10603 293.319651 
L 328.308554 294.203257 
L 328.413867 294.203257 
L 328.60829 293.875608 
L 328.713603 294.757471 
L 328.916127 293.875608 
L 329.013339 294.429376 
L 329.118651 293.549249 
L 329.321176 294.429376 
L 329.418387 293.549249 
L 329.629013 294.102571 
L 329.928748 294.102571 
L 330.131273 293.777047 
L 330.228484 293.777047 
L 330.333797 294.653722 
L 330.536321 293.452797 
L 330.738846 294.327757 
L 330.844158 293.452797 
L 330.94137 294.327757 
L 331.038582 294.003065 
L 331.143894 294.876316 
L 331.346419 294.003065 
L 331.44363 294.003065 
L 331.654255 293.679639 
L 331.751467 294.551187 
L 331.848679 293.679639 
L 331.953991 294.551187 
L 332.156516 294.227324 
L 332.35904 294.227324 
L 332.464353 293.357471 
L 332.764089 294.772882 
L 332.966613 293.904718 
L 333.169137 294.449844 
L 333.27445 293.583363 
L 333.468873 294.449844 
L 333.574186 294.992862 
L 333.77671 294.128056 
L 333.979234 294.128056 
L 334.084547 293.807511 
L 334.181759 294.670647 
L 334.384283 293.807511 
L 334.489596 294.670647 
L 334.684019 294.349673 
L 334.789332 294.349673 
L 334.894644 293.4882 
L 334.991856 294.349673 
L 335.19438 294.029934 
L 335.396904 294.029934 
L 335.494116 294.88975 
L 335.599429 294.569588 
L 335.704741 293.711423 
L 335.801953 294.569588 
L 336.004477 293.711423 
L 336.207002 294.250653 
L 336.514839 294.250653 
L 336.61205 294.787822 
L 336.814574 293.932938 
L 336.919887 294.787822 
L 337.017099 293.932938 
L 337.219623 294.469687 
L 337.324936 293.616435 
L 337.519359 294.469687 
L 337.729984 294.152765 
L 337.827196 294.152765 
L 337.924408 295.004393 
L 338.135033 293.837048 
L 338.232245 294.687056 
L 338.434769 293.837048 
L 338.540081 294.687056 
L 338.734505 294.370924 
L 339.042342 294.370924 
L 339.244866 294.055989 
L 339.544602 294.055989 
L 339.649915 294.587433 
L 339.755227 293.742245 
L 339.949651 294.587433 
L 340.054963 293.742245 
L 340.257488 294.273278 
L 340.354699 293.429685 
L 340.565324 294.273278 
L 340.662536 294.802311 
L 340.86506 293.960307 
L 340.970373 294.802311 
L 341.164796 293.648512 
L 341.375422 294.488934 
L 341.569845 294.488934 
L 341.78047 294.176732 
L 342.080206 294.176732 
L 342.185519 293.8657 
L 342.379942 294.702974 
L 342.485255 293.8657 
L 342.590567 294.702974 
L 342.687779 294.391539 
L 342.784991 293.55583 
L 342.995616 294.391539 
L 343.092828 294.391539 
L 343.295352 294.081266 
L 343.400665 294.915416 
L 343.595088 294.081266 
L 343.700401 294.604746 
L 343.805713 293.772149 
L 344.000136 294.604746 
L 344.105449 293.772149 
L 344.307973 294.295231 
L 344.61581 294.295231 
L 344.713022 293.986864 
L 344.810234 294.816371 
L 344.915546 293.986864 
L 345.020859 294.816371 
L 345.215282 293.679639 
L 345.425908 294.50761 
L 345.523119 293.679639 
L 345.620331 294.50761 
L 345.725643 294.19999 
L 345.830956 295.026431 
L 346.025379 294.19999 
L 346.130692 294.19999 
L 346.333216 293.893506 
L 346.430428 294.718422 
L 346.535741 293.893506 
L 346.641053 294.718422 
L 346.835477 294.411547 
L 347.046102 294.411547 
L 347.143314 293.58815 
L 347.45115 294.927683 
L 347.645574 294.1058 
L 347.856199 294.621551 
L 347.953411 293.801176 
L 348.155935 294.621551 
L 348.261248 295.135412 
L 348.455671 294.31654 
L 348.666296 294.31654 
L 348.763508 294.012643 
L 348.86072 294.830019 
L 348.966032 294.012643 
L 349.168556 294.830019 
L 349.371081 294.525741 
L 349.476393 294.525741 
L 349.573605 293.709857 
L 349.670817 294.525741 
L 349.881442 294.222571 
L 350.075865 294.222571 
L 350.181178 295.036968 
L 350.286491 294.73342 
L 350.383702 293.920503 
L 350.480914 294.73342 
L 350.691539 293.920503 
L 350.885962 294.430974 
L 351.193799 294.430974 
L 351.291011 294.939595 
L 351.501636 294.129623 
L 351.69606 294.129623 
L 351.906685 294.637869 
L 352.003897 293.829362 
L 352.206421 294.637869 
L 352.408945 294.337233 
L 352.506157 294.337233 
L 352.611469 295.144281 
L 352.813994 294.03768 
L 352.911205 294.843274 
L 353.121831 294.03768 
L 353.219042 294.843274 
L 353.421567 294.54335 
L 353.721303 294.54335 
L 353.931928 294.244502 
L 354.126351 294.244502 
L 354.231664 295.047203 
L 354.336976 294.747989 
L 354.434188 293.946726 
L 354.636712 294.747989 
L 354.742025 293.946726 
L 354.936448 294.449844 
L 355.041761 293.650015 
L 355.244285 294.449844 
L 355.341497 294.951166 
L 355.552122 294.152765 
L 355.649334 294.951166 
L 355.851858 293.856745 
L 356.054382 294.653722 
L 356.256907 294.653722 
L 356.459431 294.357337 
L 356.767268 294.357337 
L 356.86448 294.062005 
L 357.067004 294.856152 
L 357.172317 294.062005 
L 357.269528 294.856152 
L 357.36674 294.560459 
L 357.472053 293.767721 
L 357.674577 294.560459 
L 357.771789 294.560459 
L 357.982414 294.265813 
L 358.079625 295.057148 
L 358.28215 294.265813 
L 358.387462 294.762145 
L 358.484674 293.972208 
L 358.687198 294.762145 
L 358.792511 293.972208 
L 358.986934 294.468183 
L 359.294771 294.468183 
L 359.391983 294.962411 
L 359.602608 294.175255 
L 359.69982 294.962411 
L 359.902344 293.883357 
L 360.104868 294.66913 
L 360.307393 294.66913 
L 360.412705 294.376878 
L 360.509917 295.161271 
L 360.712441 294.376878 
L 360.817754 294.376878 
L 361.012177 294.085649 
L 361.11749 294.868669 
L 361.222802 294.085649 
L 361.320014 294.868669 
L 361.522538 294.57709 
L 361.725063 294.57709 
L 361.822274 293.795439 
L 362.130111 295.066815 
L 362.332636 294.286528 
L 362.53516 294.775907 
L 362.632372 293.99698 
L 362.737684 294.775907 
L 362.842997 293.99698 
L 363.03742 294.486011 
L 363.345257 294.486011 
L 363.442469 294.197121 
L 363.547781 294.973344 
L 363.653094 294.197121 
L 363.750306 294.973344 
L 363.95283 293.909232 
L 364.155354 294.68411 
L 364.252566 293.909232 
L 364.357879 294.68411 
L 364.463191 294.395877 
L 364.560403 295.169414 
L 364.762927 294.395877 
L 364.86824 295.169414 
L 364.965451 294.88084 
L 365.062663 294.108639 
L 365.167976 294.88084 
L 365.273288 294.108639 
L 365.3705 294.88084 
L 365.573024 294.593262 
L 365.87276 294.593262 
L 365.978073 295.076217 
L 366.083386 294.306674 
L 366.180597 295.076217 
L 366.383122 294.306674 
L 366.585646 294.789291 
L 366.682857 294.02107 
L 366.893483 294.789291 
L 366.990694 295.270252 
L 367.193219 294.503349 
L 367.395743 294.503349 
L 367.492955 294.218387 
L 367.598267 294.983977 
L 367.800792 294.218387 
L 367.898003 294.983977 
L 368.108629 294.69868 
L 368.20584 294.69868 
L 368.303052 293.934399 
L 368.408364 294.69868 
L 368.610889 294.414357 
L 368.813413 294.414357 
L 368.918726 295.177334 
L 369.015937 294.89268 
L 369.113149 294.131003 
L 369.323774 294.89268 
L 369.420986 294.131003 
L 369.62351 294.608994 
L 369.923246 294.608994 
L 370.028559 295.085362 
L 370.231083 294.326271 
L 370.328295 295.085362 
L 370.433607 294.326271 
L 370.636132 294.802311 
L 370.733343 294.044507 
L 370.943969 294.802311 
L 371.138392 294.520219 
L 371.243705 294.520219 
L 371.349017 295.27674 
L 371.543441 294.239079 
L 371.648753 294.994323 
L 371.851277 294.239079 
L 371.948489 294.994323 
L 372.159114 294.712857 
L 372.45885 294.712857 
L 372.661375 294.43234 
L 372.863899 294.43234 
L 372.969212 295.185041 
L 373.066423 294.904201 
L 373.163635 294.152765 
L 373.37426 294.904201 
L 373.471472 294.152765 
L 373.779309 295.374479 
L 373.973732 294.624304 
L 374.079045 295.094263 
L 374.281569 294.345344 
L 374.378781 295.094263 
L 374.589406 294.067317 
L 374.783829 294.814984 
L 374.994455 294.814984 
L 375.188878 294.536637 
L 375.496715 294.536637 
L 375.593926 294.259218 
L 375.804552 295.004393 
L 375.901763 294.259218 
L 375.998975 295.004393 
L 376.104288 294.726657 
L 376.2096 293.982723 
L 376.404024 294.726657 
L 376.509336 294.726657 
L 376.711861 294.449844 
L 376.809072 295.192543 
L 377.019697 294.449844 
L 377.116909 294.915416 
L 377.214121 294.17395 
L 377.424746 294.915416 
L 377.521958 294.17395 
L 377.724482 294.639208 
L 378.024218 294.639208 
L 378.129531 295.102928 
L 378.332055 294.363912 
L 378.429267 295.102928 
L 378.639892 294.089525 
L 378.834315 294.827321 
L 379.04494 294.827321 
L 379.142152 294.552623 
L 379.239364 295.289204 
L 379.449989 294.552623 
L 379.547201 294.552623 
L 379.644412 294.278828 
L 379.855038 295.014197 
L 379.952249 294.278828 
L 380.049461 295.014197 
L 380.260086 294.740094 
L 380.559822 294.740094 
L 380.762346 294.46689 
L 380.859558 295.199848 
L 381.070183 294.46689 
L 381.264607 294.926338 
L 381.369919 294.19458 
L 381.475232 294.926338 
L 381.572444 294.19458 
L 381.774968 294.653722 
L 382.074704 294.653722 
L 382.180017 294.381996 
L 382.285329 295.111367 
L 382.382541 294.381996 
L 382.479752 295.111367 
L 382.690378 294.111155 
L 382.884801 294.839338 
L 382.990114 294.111155 
L 383.095426 294.839338 
L 383.192638 294.568193 
L 383.28985 295.295192 
L 383.500475 294.568193 
L 383.597687 295.295192 
L 383.694898 295.023748 
L 383.800211 294.297929 
L 383.905524 295.023748 
L 384.002735 294.297929 
L 384.099947 295.023748 
L 384.310572 294.753183 
L 384.610308 294.753183 
L 384.715621 295.206964 
L 384.812832 294.483494 
L 384.910044 295.206964 
L 385.120669 294.483494 
L 385.315093 294.936978 
L 385.420405 294.214677 
L 385.62293 294.936978 
L 385.720141 295.388998 
L 385.930766 294.667862 
L 386.12519 294.667862 
L 386.230502 294.399614 
L 386.335815 295.119588 
L 386.433027 294.399614 
L 386.635551 295.119588 
L 386.838075 294.851045 
L 386.935287 294.851045 
L 387.0406 294.132227 
L 387.145912 294.851045 
L 387.243124 294.583363 
L 387.340336 295.301027 
L 387.550961 294.583363 
L 387.648172 295.301027 
L 387.745384 295.033053 
L 387.850697 294.31654 
L 387.956009 295.033053 
L 388.053221 294.31654 
L 388.150433 295.033053 
L 388.361058 294.765937 
L 388.660794 294.765937 
L 388.766107 295.213898 
L 388.96053 294.499674 
L 389.065843 295.213898 
L 389.171155 294.499674 
L 389.365578 294.947346 
L 389.470891 294.23426 
L 389.673415 294.947346 
L 389.87594 294.681642 
L 389.981252 294.681642 
L 390.078464 295.393592 
L 390.280988 294.416783 
L 390.386301 295.127601 
L 390.580724 294.416783 
L 390.686037 295.127601 
L 390.888561 294.862455 
L 391.196398 294.862455 
L 391.390821 294.598149 
L 391.601447 294.598149 
L 391.698658 295.306714 
L 391.79587 295.042123 
L 391.901183 294.334679 
L 392.103707 295.042123 
L 392.200919 294.334679 
L 392.411544 294.778368 
L 392.71128 294.778368 
L 392.816592 295.220658 
L 393.011016 294.515445 
L 393.116328 295.220658 
L 393.221641 294.515445 
L 393.416064 294.957452 
L 393.521377 294.253351 
L 393.723901 294.957452 
L 393.926426 294.695075 
L 394.031738 294.695075 
L 394.12895 295.398069 
L 394.331474 294.433521 
L 394.533998 295.135412 
L 394.63121 294.433521 
L 394.736523 295.135412 
L 394.939047 294.873578 
L 395.246884 294.873578 
L 395.441307 294.612564 
L 395.54662 295.312258 
L 395.651933 294.612564 
L 395.749144 295.312258 
L 395.846356 295.050966 
L 395.951669 294.352365 
L 396.154193 295.050966 
L 396.251405 294.352365 
L 396.559241 295.488 
L 396.761766 294.790489 
L 396.867078 295.227248 
L 397.061502 294.530824 
L 397.166814 295.227248 
L 397.272127 294.530824 
L 397.46655 294.967308 
L 397.774387 294.967308 
L 397.976912 294.708174 
L 398.276647 294.708174 
L 398.38196 294.449844 
L 398.487273 295.14303 
L 398.487273 295.14303 
" style="fill:none;stroke:#1f77b4;stroke-linecap:square;stroke-width:1.5;"/>
   </g>
   <g id="patch_3">
    <path d="M 57.6 307.584 
L 57.6 41.472 
" style="fill:none;stroke:#000000;stroke-linecap:square;stroke-linejoin:miter;stroke-width:0.8;"/>
   </g>
   <g id="patch_4">
    <path d="M 414.72 307.584 
L 414.72 41.472 
" style="fill:none;stroke:#000000;stroke-linecap:square;stroke-linejoin:miter;stroke-width:0.8;"/>
   </g>
   <g id="patch_5">
    <path d="M 57.6 307.584 
L 414.72 307.584 
" style="fill:none;stroke:#000000;stroke-linecap:square;stroke-linejoin:miter;stroke-width:0.8;"/>
   </g>
   <g id="patch_6">
    <path d="M 57.6 41.472 
L 414.72 41.472 
" style="fill:none;stroke:#000000;stroke-linecap:square;stroke-linejoin:miter;stroke-width:0.8;"/>
   </g>
   <g id="text_18">
    <!-- Speed function of time -->
    <g transform="translate(167.024063 35.472)scale(0.12 -0.12)">
     <defs>
      <path id="DejaVuSerif-32"/>
      <path d="M 43.015625 63.71875 
L 38.28125 63.71875 
Q 38.234375 67.390625 36.203125 69.28125 
Q 34.1875 71.1875 30.328125 71.1875 
Q 25.296875 71.1875 23.234375 68.421875 
Q 21.1875 65.671875 21.1875 58.59375 
L 21.1875 51.90625 
L 35.6875 51.90625 
L 35.6875 46.6875 
L 21.1875 46.6875 
L 21.1875 5.171875 
L 32.71875 5.171875 
L 32.71875 0 
L 3.609375 0 
L 3.609375 5.171875 
L 12.203125 5.171875 
L 12.203125 46.6875 
L 3.609375 46.6875 
L 3.609375 51.90625 
L 12.203125 51.90625 
L 12.203125 58.40625 
Q 12.203125 67.09375 16.71875 71.53125 
Q 21.234375 75.984375 29.984375 75.984375 
Q 33.25 75.984375 36.515625 75.390625 
Q 39.796875 74.8125 43.015625 73.578125 
z
" id="DejaVuSerif-102"/>
      <path d="M 35.40625 51.90625 
L 52.203125 51.90625 
L 52.203125 5.171875 
L 60.6875 5.171875 
L 60.6875 0 
L 43.21875 0 
L 43.21875 9.1875 
Q 40.71875 4 36.765625 1.28125 
Q 32.8125 -1.421875 27.59375 -1.421875 
Q 18.953125 -1.421875 14.875 3.484375 
Q 10.796875 8.40625 10.796875 18.890625 
L 10.796875 46.6875 
L 2.6875 46.6875 
L 2.6875 51.90625 
L 19.828125 51.90625 
L 19.828125 21.6875 
Q 19.828125 12.203125 22.140625 8.6875 
Q 24.46875 5.171875 30.421875 5.171875 
Q 36.671875 5.171875 39.9375 9.765625 
Q 43.21875 14.359375 43.21875 23.09375 
L 43.21875 46.6875 
L 35.40625 46.6875 
z
" id="DejaVuSerif-117"/>
      <path d="M 4.109375 0 
L 4.109375 5.171875 
L 12.203125 5.171875 
L 12.203125 46.6875 
L 3.609375 46.6875 
L 3.609375 51.90625 
L 21.1875 51.90625 
L 21.1875 42.671875 
Q 23.6875 47.953125 27.65625 50.640625 
Q 31.640625 53.328125 36.921875 53.328125 
Q 45.515625 53.328125 49.5625 48.390625 
Q 53.609375 43.453125 53.609375 33.015625 
L 53.609375 5.171875 
L 61.625 5.171875 
L 61.625 0 
L 36.8125 0 
L 36.8125 5.171875 
L 44.578125 5.171875 
L 44.578125 30.171875 
Q 44.578125 39.703125 42.234375 43.234375 
Q 39.890625 46.78125 33.984375 46.78125 
Q 27.734375 46.78125 24.453125 42.203125 
Q 21.1875 37.640625 21.1875 28.90625 
L 21.1875 5.171875 
L 29 5.171875 
L 29 0 
z
" id="DejaVuSerif-110"/>
      <path d="M 51.421875 15.578125 
Q 49.515625 7.28125 44.09375 2.921875 
Q 38.671875 -1.421875 30.078125 -1.421875 
Q 18.75 -1.421875 11.859375 6.078125 
Q 4.984375 13.578125 4.984375 25.984375 
Q 4.984375 38.421875 11.859375 45.875 
Q 18.75 53.328125 30.078125 53.328125 
Q 35.015625 53.328125 39.890625 52.171875 
Q 44.78125 51.03125 49.703125 48.6875 
L 49.703125 35.40625 
L 44.484375 35.40625 
Q 43.453125 42.234375 40.015625 45.359375 
Q 36.578125 48.484375 30.171875 48.484375 
Q 22.90625 48.484375 19.1875 42.84375 
Q 15.484375 37.203125 15.484375 25.984375 
Q 15.484375 14.75 19.171875 9.078125 
Q 22.859375 3.421875 30.171875 3.421875 
Q 35.984375 3.421875 39.453125 6.4375 
Q 42.921875 9.46875 44.1875 15.578125 
z
" id="DejaVuSerif-99"/>
      <path d="M 10.796875 46.6875 
L 2.875 46.6875 
L 2.875 51.90625 
L 10.796875 51.90625 
L 10.796875 68.015625 
L 19.828125 68.015625 
L 19.828125 51.90625 
L 36.71875 51.90625 
L 36.71875 46.6875 
L 19.828125 46.6875 
L 19.828125 13.71875 
Q 19.828125 7.125 21.09375 5.265625 
Q 22.359375 3.421875 25.78125 3.421875 
Q 29.296875 3.421875 30.90625 5.484375 
Q 32.515625 7.5625 32.625 12.203125 
L 39.40625 12.203125 
Q 39.015625 5.125 35.546875 1.84375 
Q 32.078125 -1.421875 25 -1.421875 
Q 17.234375 -1.421875 14.015625 2.015625 
Q 10.796875 5.46875 10.796875 13.71875 
z
" id="DejaVuSerif-116"/>
      <path d="M 30.078125 3.421875 
Q 37.3125 3.421875 40.984375 9.125 
Q 44.671875 14.84375 44.671875 25.984375 
Q 44.671875 37.109375 40.984375 42.796875 
Q 37.3125 48.484375 30.078125 48.484375 
Q 22.859375 48.484375 19.171875 42.796875 
Q 15.484375 37.109375 15.484375 25.984375 
Q 15.484375 14.84375 19.1875 9.125 
Q 22.90625 3.421875 30.078125 3.421875 
z
M 30.078125 -1.421875 
Q 18.75 -1.421875 11.859375 6.078125 
Q 4.984375 13.578125 4.984375 25.984375 
Q 4.984375 38.375 11.84375 45.84375 
Q 18.703125 53.328125 30.078125 53.328125 
Q 41.453125 53.328125 48.3125 45.84375 
Q 55.171875 38.375 55.171875 25.984375 
Q 55.171875 13.578125 48.3125 6.078125 
Q 41.453125 -1.421875 30.078125 -1.421875 
z
" id="DejaVuSerif-111"/>
     </defs>
     <use xlink:href="#DejaVuSerif-83"/>
     <use x="68.505859" xlink:href="#DejaVuSerif-112"/>
     <use x="132.519531" xlink:href="#DejaVuSerif-101"/>
     <use x="191.699219" xlink:href="#DejaVuSerif-101"/>
     <use x="250.878906" xlink:href="#DejaVuSerif-100"/>
     <use x="314.892578" xlink:href="#DejaVuSerif-32"/>
     <use x="346.679688" xlink:href="#DejaVuSerif-102"/>
     <use x="383.691406" xlink:href="#DejaVuSerif-117"/>
     <use x="448.095703" xlink:href="#DejaVuSerif-110"/>
     <use x="512.5" xlink:href="#DejaVuSerif-99"/>
     <use x="568.505859" xlink:href="#DejaVuSerif-116"/>
     <use x="608.691406" xlink:href="#DejaVuSerif-105"/>
     <use x="640.673828" xlink:href="#DejaVuSerif-111"/>
     <use x="700.878906" xlink:href="#DejaVuSerif-110"/>
     <use x="765.283203" xlink:href="#DejaVuSerif-32"/>
     <use x="797.070312" xlink:href="#DejaVuSerif-111"/>
     <use x="857.275391" xlink:href="#DejaVuSerif-102"/>
     <use x="894.287109" xlink:href="#DejaVuSerif-32"/>
     <use x="926.074219" xlink:href="#DejaVuSerif-116"/>
     <use x="966.259766" xlink:href="#DejaVuSerif-105"/>
     <use x="998.242188" xlink:href="#DejaVuSerif-109"/>
     <use x="1093.066406" xlink:href="#DejaVuSerif-101"/>
    </g>
   </g>
  </g>
 </g>
 <defs>
  <clipPath id="p3fffe7d7b4">
   <rect height="266.112" width="357.12" x="57.6" y="41.472"/>
  </clipPath>
 </defs>
</svg>
