<?xml version="1.0" encoding="utf-8" standalone="no"?>
<!DOCTYPE svg PUBLIC "-//W3C//DTD SVG 1.1//EN"
  "http://www.w3.org/Graphics/SVG/1.1/DTD/svg11.dtd">
<!-- Created with matplotlib (https://matplotlib.org/) -->
<svg height="345.6pt" version="1.1" viewBox="0 0 460.8 345.6" width="460.8pt" xmlns="http://www.w3.org/2000/svg" xmlns:xlink="http://www.w3.org/1999/xlink">
 <metadata>
  <rdf:RDF xmlns:cc="http://creativecommons.org/ns#" xmlns:dc="http://purl.org/dc/elements/1.1/" xmlns:rdf="http://www.w3.org/1999/02/22-rdf-syntax-ns#">
   <cc:Work>
    <dc:type rdf:resource="http://purl.org/dc/dcmitype/StillImage"/>
    <dc:date>2023-01-07T16:20:57.736680</dc:date>
    <dc:format>image/svg+xml</dc:format>
    <dc:creator>
     <cc:Agent>
      <dc:title>Matplotlib v3.3.4, https://matplotlib.org/</dc:title>
     </cc:Agent>
    </dc:creator>
   </cc:Work>
  </rdf:RDF>
 </metadata>
 <defs>
  <style type="text/css">*{stroke-linecap:butt;stroke-linejoin:round;}</style>
 </defs>
 <g id="figure_1">
  <g id="patch_1">
   <path d="M 0 345.6 
L 460.8 345.6 
L 460.8 0 
L 0 0 
z
" style="fill:#ffffff;"/>
  </g>
  <g id="axes_1">
   <g id="patch_2">
    <path d="M 57.6 307.584 
L 414.72 307.584 
L 414.72 41.472 
L 57.6 41.472 
z
" style="fill:#ffffff;"/>
   </g>
   <g id="matplotlib.axis_1">
    <g id="xtick_1">
     <g id="line2d_1">
      <defs>
       <path d="M 0 0 
L 0 3.5 
" id="mce6d9edf28" style="stroke:#000000;stroke-width:0.8;"/>
      </defs>
      <g>
       <use style="stroke:#000000;stroke-width:0.8;" x="120.981568" xlink:href="#mce6d9edf28" y="307.584"/>
      </g>
     </g>
     <g id="text_1">
      <!-- 450 -->
      <g transform="translate(111.437818 322.182437)scale(0.1 -0.1)">
       <defs>
        <path d="M 34.90625 24.703125 
L 34.90625 63.484375 
L 10.015625 24.703125 
z
M 56.390625 0 
L 23.1875 0 
L 23.1875 5.171875 
L 34.90625 5.171875 
L 34.90625 19.484375 
L 3.078125 19.484375 
L 3.078125 24.8125 
L 35.015625 74.21875 
L 44.671875 74.21875 
L 44.671875 24.703125 
L 58.59375 24.703125 
L 58.59375 19.484375 
L 44.671875 19.484375 
L 44.671875 5.171875 
L 56.390625 5.171875 
z
" id="DejaVuSerif-52"/>
        <path d="M 50.296875 72.90625 
L 50.296875 64.890625 
L 16.890625 64.890625 
L 16.890625 44 
Q 19.4375 45.75 22.828125 46.625 
Q 26.21875 47.515625 30.421875 47.515625 
Q 42.234375 47.515625 49.0625 40.96875 
Q 55.90625 34.421875 55.90625 23.09375 
Q 55.90625 11.53125 49 5.046875 
Q 42.09375 -1.421875 29.59375 -1.421875 
Q 24.5625 -1.421875 19.28125 -0.1875 
Q 14.015625 1.03125 8.5 3.515625 
L 8.5 17.671875 
L 14.015625 17.671875 
Q 14.453125 10.75 18.421875 7.078125 
Q 22.40625 3.421875 29.59375 3.421875 
Q 37.3125 3.421875 41.453125 8.5 
Q 45.609375 13.578125 45.609375 23.09375 
Q 45.609375 32.5625 41.484375 37.609375 
Q 37.359375 42.671875 29.59375 42.671875 
Q 25.203125 42.671875 21.84375 41.109375 
Q 18.5 39.546875 15.921875 36.28125 
L 11.71875 36.28125 
L 11.71875 72.90625 
z
" id="DejaVuSerif-53"/>
        <path d="M 31.78125 3.421875 
Q 39.265625 3.421875 42.96875 11.625 
Q 46.6875 19.828125 46.6875 36.375 
Q 46.6875 52.984375 42.96875 61.1875 
Q 39.265625 69.390625 31.78125 69.390625 
Q 24.3125 69.390625 20.59375 61.1875 
Q 16.890625 52.984375 16.890625 36.375 
Q 16.890625 19.828125 20.59375 11.625 
Q 24.3125 3.421875 31.78125 3.421875 
z
M 31.78125 -1.421875 
Q 19.921875 -1.421875 13.25 8.53125 
Q 6.59375 18.5 6.59375 36.375 
Q 6.59375 54.296875 13.25 64.25 
Q 19.921875 74.21875 31.78125 74.21875 
Q 43.703125 74.21875 50.34375 64.25 
Q 56.984375 54.296875 56.984375 36.375 
Q 56.984375 18.5 50.34375 8.53125 
Q 43.703125 -1.421875 31.78125 -1.421875 
z
" id="DejaVuSerif-48"/>
       </defs>
       <use xlink:href="#DejaVuSerif-52"/>
       <use x="63.623047" xlink:href="#DejaVuSerif-53"/>
       <use x="127.246094" xlink:href="#DejaVuSerif-48"/>
      </g>
     </g>
    </g>
    <g id="xtick_2">
     <g id="line2d_2">
      <g>
       <use style="stroke:#000000;stroke-width:0.8;" x="185.269596" xlink:href="#mce6d9edf28" y="307.584"/>
      </g>
     </g>
     <g id="text_2">
      <!-- 500 -->
      <g transform="translate(175.725846 322.182437)scale(0.1 -0.1)">
       <use xlink:href="#DejaVuSerif-53"/>
       <use x="63.623047" xlink:href="#DejaVuSerif-48"/>
       <use x="127.246094" xlink:href="#DejaVuSerif-48"/>
      </g>
     </g>
    </g>
    <g id="xtick_3">
     <g id="line2d_3">
      <g>
       <use style="stroke:#000000;stroke-width:0.8;" x="249.557625" xlink:href="#mce6d9edf28" y="307.584"/>
      </g>
     </g>
     <g id="text_3">
      <!-- 550 -->
      <g transform="translate(240.013875 322.182437)scale(0.1 -0.1)">
       <use xlink:href="#DejaVuSerif-53"/>
       <use x="63.623047" xlink:href="#DejaVuSerif-53"/>
       <use x="127.246094" xlink:href="#DejaVuSerif-48"/>
      </g>
     </g>
    </g>
    <g id="xtick_4">
     <g id="line2d_4">
      <g>
       <use style="stroke:#000000;stroke-width:0.8;" x="313.845654" xlink:href="#mce6d9edf28" y="307.584"/>
      </g>
     </g>
     <g id="text_4">
      <!-- 600 -->
      <g transform="translate(304.301904 322.182437)scale(0.1 -0.1)">
       <defs>
        <path d="M 32.71875 3.421875 
Q 39.59375 3.421875 43.296875 8.46875 
Q 47.015625 13.53125 47.015625 23 
Q 47.015625 32.46875 43.296875 37.515625 
Q 39.59375 42.578125 32.71875 42.578125 
Q 25.734375 42.578125 22.0625 37.6875 
Q 18.40625 32.8125 18.40625 23.578125 
Q 18.40625 13.875 22.109375 8.640625 
Q 25.828125 3.421875 32.71875 3.421875 
z
M 16.796875 40.140625 
Q 20.125 43.796875 24.3125 45.59375 
Q 28.515625 47.40625 33.796875 47.40625 
Q 44.671875 47.40625 51 40.859375 
Q 57.328125 34.328125 57.328125 23 
Q 57.328125 11.921875 50.515625 5.25 
Q 43.703125 -1.421875 32.328125 -1.421875 
Q 19.96875 -1.421875 13.328125 7.78125 
Q 6.6875 17 6.6875 34.078125 
Q 6.6875 53.21875 14.546875 63.71875 
Q 22.40625 74.21875 36.71875 74.21875 
Q 40.578125 74.21875 44.828125 73.484375 
Q 49.078125 72.75 53.515625 71.296875 
L 53.515625 59.28125 
L 48 59.28125 
Q 47.40625 64.203125 44.234375 66.796875 
Q 41.0625 69.390625 35.6875 69.390625 
Q 26.21875 69.390625 21.578125 62.203125 
Q 16.9375 55.03125 16.796875 40.140625 
z
" id="DejaVuSerif-54"/>
       </defs>
       <use xlink:href="#DejaVuSerif-54"/>
       <use x="63.623047" xlink:href="#DejaVuSerif-48"/>
       <use x="127.246094" xlink:href="#DejaVuSerif-48"/>
      </g>
     </g>
    </g>
    <g id="xtick_5">
     <g id="line2d_5">
      <g>
       <use style="stroke:#000000;stroke-width:0.8;" x="378.133683" xlink:href="#mce6d9edf28" y="307.584"/>
      </g>
     </g>
     <g id="text_5">
      <!-- 650 -->
      <g transform="translate(368.589933 322.182437)scale(0.1 -0.1)">
       <use xlink:href="#DejaVuSerif-54"/>
       <use x="63.623047" xlink:href="#DejaVuSerif-53"/>
       <use x="127.246094" xlink:href="#DejaVuSerif-48"/>
      </g>
     </g>
    </g>
    <g id="text_6">
     <!-- Time -->
     <g transform="translate(223.524844 335.860562)scale(0.1 -0.1)">
      <defs>
       <path d="M 19.09375 0 
L 19.09375 5.171875 
L 28.421875 5.171875 
L 28.421875 67.09375 
L 6.984375 67.09375 
L 6.984375 55.71875 
L 0.984375 55.71875 
L 0.984375 72.90625 
L 65.71875 72.90625 
L 65.71875 55.71875 
L 59.71875 55.71875 
L 59.71875 67.09375 
L 38.28125 67.09375 
L 38.28125 5.171875 
L 47.609375 5.171875 
L 47.609375 0 
z
" id="DejaVuSerif-84"/>
       <path d="M 9.71875 68.015625 
Q 9.71875 70.265625 11.34375 71.921875 
Q 12.984375 73.578125 15.28125 73.578125 
Q 17.53125 73.578125 19.15625 71.921875 
Q 20.796875 70.265625 20.796875 68.015625 
Q 20.796875 65.71875 19.1875 64.109375 
Q 17.578125 62.5 15.28125 62.5 
Q 12.984375 62.5 11.34375 64.109375 
Q 9.71875 65.71875 9.71875 68.015625 
z
M 21.1875 5.171875 
L 29.6875 5.171875 
L 29.6875 0 
L 3.609375 0 
L 3.609375 5.171875 
L 12.203125 5.171875 
L 12.203125 46.6875 
L 3.609375 46.6875 
L 3.609375 51.90625 
L 21.1875 51.90625 
z
" id="DejaVuSerif-105"/>
       <path d="M 51.8125 41.796875 
Q 54.390625 47.515625 58.421875 50.421875 
Q 62.453125 53.328125 67.828125 53.328125 
Q 75.984375 53.328125 79.984375 48.265625 
Q 83.984375 43.21875 83.984375 33.015625 
L 83.984375 5.171875 
L 92.09375 5.171875 
L 92.09375 0 
L 67.1875 0 
L 67.1875 5.171875 
L 75 5.171875 
L 75 31.984375 
Q 75 39.9375 72.65625 43.3125 
Q 70.3125 46.6875 64.890625 46.6875 
Q 58.890625 46.6875 55.734375 42.140625 
Q 52.59375 37.59375 52.59375 28.90625 
L 52.59375 5.171875 
L 60.40625 5.171875 
L 60.40625 0 
L 35.796875 0 
L 35.796875 5.171875 
L 43.609375 5.171875 
L 43.609375 32.328125 
Q 43.609375 40.09375 41.265625 43.390625 
Q 38.921875 46.6875 33.5 46.6875 
Q 27.484375 46.6875 24.328125 42.140625 
Q 21.1875 37.59375 21.1875 28.90625 
L 21.1875 5.171875 
L 29 5.171875 
L 29 0 
L 4.109375 0 
L 4.109375 5.171875 
L 12.203125 5.171875 
L 12.203125 46.78125 
L 3.609375 46.78125 
L 3.609375 51.90625 
L 21.1875 51.90625 
L 21.1875 42.671875 
Q 23.6875 47.859375 27.53125 50.59375 
Q 31.390625 53.328125 36.28125 53.328125 
Q 42.328125 53.328125 46.375 50.3125 
Q 50.4375 47.3125 51.8125 41.796875 
z
" id="DejaVuSerif-109"/>
       <path d="M 54.203125 25 
L 15.484375 25 
L 15.484375 24.609375 
Q 15.484375 14.109375 19.4375 8.765625 
Q 23.390625 3.421875 31.109375 3.421875 
Q 37.015625 3.421875 40.796875 6.515625 
Q 44.578125 9.625 46.09375 15.71875 
L 53.328125 15.71875 
Q 51.171875 7.171875 45.375 2.875 
Q 39.59375 -1.421875 30.171875 -1.421875 
Q 18.796875 -1.421875 11.890625 6.078125 
Q 4.984375 13.578125 4.984375 25.984375 
Q 4.984375 38.28125 11.765625 45.796875 
Q 18.5625 53.328125 29.59375 53.328125 
Q 41.359375 53.328125 47.65625 46.0625 
Q 53.953125 38.8125 54.203125 25 
z
M 43.609375 30.171875 
Q 43.3125 39.265625 39.765625 43.875 
Q 36.234375 48.484375 29.59375 48.484375 
Q 23.390625 48.484375 19.828125 43.84375 
Q 16.265625 39.203125 15.484375 30.171875 
z
" id="DejaVuSerif-101"/>
      </defs>
      <use xlink:href="#DejaVuSerif-84"/>
      <use x="66.699219" xlink:href="#DejaVuSerif-105"/>
      <use x="98.681641" xlink:href="#DejaVuSerif-109"/>
      <use x="193.505859" xlink:href="#DejaVuSerif-101"/>
     </g>
    </g>
   </g>
   <g id="matplotlib.axis_2">
    <g id="ytick_1">
     <g id="line2d_6">
      <defs>
       <path d="M 0 0 
L -3.5 0 
" id="m418b4a8e18" style="stroke:#000000;stroke-width:0.8;"/>
      </defs>
      <g>
       <use style="stroke:#000000;stroke-width:0.8;" x="57.6" xlink:href="#m418b4a8e18" y="295.488"/>
      </g>
     </g>
     <g id="text_7">
      <!-- −6.00 -->
      <g transform="translate(19.954687 299.287219)scale(0.1 -0.1)">
       <defs>
        <path d="M 10.59375 35.296875 
L 73.1875 35.296875 
L 73.1875 27.390625 
L 10.59375 27.390625 
z
" id="DejaVuSerif-8722"/>
        <path d="M 9.421875 5.078125 
Q 9.421875 7.8125 11.28125 9.71875 
Q 13.140625 11.625 15.921875 11.625 
Q 18.609375 11.625 20.5 9.71875 
Q 22.40625 7.8125 22.40625 5.078125 
Q 22.40625 2.390625 20.5 0.484375 
Q 18.609375 -1.421875 15.921875 -1.421875 
Q 13.140625 -1.421875 11.28125 0.453125 
Q 9.421875 2.34375 9.421875 5.078125 
z
" id="DejaVuSerif-46"/>
       </defs>
       <use xlink:href="#DejaVuSerif-8722"/>
       <use x="83.789062" xlink:href="#DejaVuSerif-54"/>
       <use x="147.412109" xlink:href="#DejaVuSerif-46"/>
       <use x="179.199219" xlink:href="#DejaVuSerif-48"/>
       <use x="242.822266" xlink:href="#DejaVuSerif-48"/>
      </g>
     </g>
    </g>
    <g id="ytick_2">
     <g id="line2d_7">
      <g>
       <use style="stroke:#000000;stroke-width:0.8;" x="57.6" xlink:href="#m418b4a8e18" y="265.248"/>
      </g>
     </g>
     <g id="text_8">
      <!-- −5.75 -->
      <g transform="translate(19.954687 269.047219)scale(0.1 -0.1)">
       <defs>
        <path d="M 56.390625 67.921875 
L 27.875 0 
L 20.609375 0 
L 47.796875 64.890625 
L 14.109375 64.890625 
L 14.109375 55.90625 
L 8.40625 55.90625 
L 8.40625 72.90625 
L 56.390625 72.90625 
z
" id="DejaVuSerif-55"/>
       </defs>
       <use xlink:href="#DejaVuSerif-8722"/>
       <use x="83.789062" xlink:href="#DejaVuSerif-53"/>
       <use x="147.412109" xlink:href="#DejaVuSerif-46"/>
       <use x="179.199219" xlink:href="#DejaVuSerif-55"/>
       <use x="242.822266" xlink:href="#DejaVuSerif-53"/>
      </g>
     </g>
    </g>
    <g id="ytick_3">
     <g id="line2d_8">
      <g>
       <use style="stroke:#000000;stroke-width:0.8;" x="57.6" xlink:href="#m418b4a8e18" y="235.008"/>
      </g>
     </g>
     <g id="text_9">
      <!-- −5.50 -->
      <g transform="translate(19.954687 238.807219)scale(0.1 -0.1)">
       <use xlink:href="#DejaVuSerif-8722"/>
       <use x="83.789062" xlink:href="#DejaVuSerif-53"/>
       <use x="147.412109" xlink:href="#DejaVuSerif-46"/>
       <use x="179.199219" xlink:href="#DejaVuSerif-53"/>
       <use x="242.822266" xlink:href="#DejaVuSerif-48"/>
      </g>
     </g>
    </g>
    <g id="ytick_4">
     <g id="line2d_9">
      <g>
       <use style="stroke:#000000;stroke-width:0.8;" x="57.6" xlink:href="#m418b4a8e18" y="204.768"/>
      </g>
     </g>
     <g id="text_10">
      <!-- −5.25 -->
      <g transform="translate(19.954687 208.567219)scale(0.1 -0.1)">
       <defs>
        <path d="M 12.796875 55.515625 
L 7.328125 55.515625 
L 7.328125 68.5 
Q 12.546875 71.296875 17.84375 72.75 
Q 23.140625 74.21875 28.21875 74.21875 
Q 39.59375 74.21875 46.1875 68.703125 
Q 52.78125 63.1875 52.78125 53.71875 
Q 52.78125 43.015625 37.84375 28.125 
Q 36.671875 27 36.078125 26.421875 
L 17.671875 8.015625 
L 48.09375 8.015625 
L 48.09375 17 
L 53.8125 17 
L 53.8125 0 
L 6.78125 0 
L 6.78125 5.328125 
L 28.90625 27.390625 
Q 36.234375 34.71875 39.359375 40.84375 
Q 42.484375 46.96875 42.484375 53.71875 
Q 42.484375 61.078125 38.640625 65.234375 
Q 34.8125 69.390625 28.078125 69.390625 
Q 21.09375 69.390625 17.28125 65.921875 
Q 13.484375 62.453125 12.796875 55.515625 
z
" id="DejaVuSerif-50"/>
       </defs>
       <use xlink:href="#DejaVuSerif-8722"/>
       <use x="83.789062" xlink:href="#DejaVuSerif-53"/>
       <use x="147.412109" xlink:href="#DejaVuSerif-46"/>
       <use x="179.199219" xlink:href="#DejaVuSerif-50"/>
       <use x="242.822266" xlink:href="#DejaVuSerif-53"/>
      </g>
     </g>
    </g>
    <g id="ytick_5">
     <g id="line2d_10">
      <g>
       <use style="stroke:#000000;stroke-width:0.8;" x="57.6" xlink:href="#m418b4a8e18" y="174.528"/>
      </g>
     </g>
     <g id="text_11">
      <!-- −5.00 -->
      <g transform="translate(19.954687 178.327219)scale(0.1 -0.1)">
       <use xlink:href="#DejaVuSerif-8722"/>
       <use x="83.789062" xlink:href="#DejaVuSerif-53"/>
       <use x="147.412109" xlink:href="#DejaVuSerif-46"/>
       <use x="179.199219" xlink:href="#DejaVuSerif-48"/>
       <use x="242.822266" xlink:href="#DejaVuSerif-48"/>
      </g>
     </g>
    </g>
    <g id="ytick_6">
     <g id="line2d_11">
      <g>
       <use style="stroke:#000000;stroke-width:0.8;" x="57.6" xlink:href="#m418b4a8e18" y="144.288"/>
      </g>
     </g>
     <g id="text_12">
      <!-- −4.75 -->
      <g transform="translate(19.954687 148.087219)scale(0.1 -0.1)">
       <use xlink:href="#DejaVuSerif-8722"/>
       <use x="83.789062" xlink:href="#DejaVuSerif-52"/>
       <use x="147.412109" xlink:href="#DejaVuSerif-46"/>
       <use x="179.199219" xlink:href="#DejaVuSerif-55"/>
       <use x="242.822266" xlink:href="#DejaVuSerif-53"/>
      </g>
     </g>
    </g>
    <g id="ytick_7">
     <g id="line2d_12">
      <g>
       <use style="stroke:#000000;stroke-width:0.8;" x="57.6" xlink:href="#m418b4a8e18" y="114.048"/>
      </g>
     </g>
     <g id="text_13">
      <!-- −4.50 -->
      <g transform="translate(19.954687 117.847219)scale(0.1 -0.1)">
       <use xlink:href="#DejaVuSerif-8722"/>
       <use x="83.789062" xlink:href="#DejaVuSerif-52"/>
       <use x="147.412109" xlink:href="#DejaVuSerif-46"/>
       <use x="179.199219" xlink:href="#DejaVuSerif-53"/>
       <use x="242.822266" xlink:href="#DejaVuSerif-48"/>
      </g>
     </g>
    </g>
    <g id="ytick_8">
     <g id="line2d_13">
      <g>
       <use style="stroke:#000000;stroke-width:0.8;" x="57.6" xlink:href="#m418b4a8e18" y="83.808"/>
      </g>
     </g>
     <g id="text_14">
      <!-- −4.25 -->
      <g transform="translate(19.954687 87.607219)scale(0.1 -0.1)">
       <use xlink:href="#DejaVuSerif-8722"/>
       <use x="83.789062" xlink:href="#DejaVuSerif-52"/>
       <use x="147.412109" xlink:href="#DejaVuSerif-46"/>
       <use x="179.199219" xlink:href="#DejaVuSerif-50"/>
       <use x="242.822266" xlink:href="#DejaVuSerif-53"/>
      </g>
     </g>
    </g>
    <g id="ytick_9">
     <g id="line2d_14">
      <g>
       <use style="stroke:#000000;stroke-width:0.8;" x="57.6" xlink:href="#m418b4a8e18" y="53.568"/>
      </g>
     </g>
     <g id="text_15">
      <!-- −4.00 -->
      <g transform="translate(19.954687 57.367219)scale(0.1 -0.1)">
       <use xlink:href="#DejaVuSerif-8722"/>
       <use x="83.789062" xlink:href="#DejaVuSerif-52"/>
       <use x="147.412109" xlink:href="#DejaVuSerif-46"/>
       <use x="179.199219" xlink:href="#DejaVuSerif-48"/>
       <use x="242.822266" xlink:href="#DejaVuSerif-48"/>
      </g>
     </g>
    </g>
    <g id="text_16">
     <!-- Speed -->
     <g transform="translate(13.875 190.273313)rotate(-90)scale(0.1 -0.1)">
      <defs>
       <path d="M 9.28125 3.515625 
L 9.28125 20.125 
L 14.890625 20.0625 
Q 15.140625 11.765625 19.703125 7.78125 
Q 24.265625 3.8125 33.59375 3.8125 
Q 42.28125 3.8125 46.84375 7.25 
Q 51.421875 10.6875 51.421875 17.28125 
Q 51.421875 22.5625 48.65625 25.390625 
Q 45.90625 28.21875 37.015625 30.90625 
L 27.390625 33.796875 
Q 16.9375 36.96875 12.671875 41.703125 
Q 8.40625 46.4375 8.40625 54.6875 
Q 8.40625 63.96875 14.984375 69.09375 
Q 21.578125 74.21875 33.5 74.21875 
Q 38.578125 74.21875 44.625 73.109375 
Q 50.6875 72.015625 57.515625 69.921875 
L 57.515625 54.390625 
L 52 54.390625 
Q 51.171875 62.109375 46.84375 65.546875 
Q 42.53125 69 33.6875 69 
Q 25.984375 69 21.953125 65.84375 
Q 17.921875 62.703125 17.921875 56.6875 
Q 17.921875 51.46875 20.9375 48.484375 
Q 23.96875 45.515625 33.796875 42.578125 
L 42.828125 39.890625 
Q 52.734375 36.921875 56.953125 32.296875 
Q 61.1875 27.6875 61.1875 19.921875 
Q 61.1875 9.328125 54.390625 3.953125 
Q 47.609375 -1.421875 34.1875 -1.421875 
Q 28.171875 -1.421875 21.9375 -0.1875 
Q 15.71875 1.03125 9.28125 3.515625 
z
" id="DejaVuSerif-83"/>
       <path d="M 20.515625 28.515625 
L 20.515625 23.390625 
Q 20.515625 14.015625 24.09375 9.109375 
Q 27.6875 4.203125 34.515625 4.203125 
Q 41.40625 4.203125 44.9375 9.71875 
Q 48.484375 15.234375 48.484375 25.984375 
Q 48.484375 36.765625 44.9375 42.234375 
Q 41.40625 47.703125 34.515625 47.703125 
Q 27.6875 47.703125 24.09375 42.765625 
Q 20.515625 37.84375 20.515625 28.515625 
z
M 11.53125 46.6875 
L 2.875 46.6875 
L 2.875 51.90625 
L 20.515625 51.90625 
L 20.515625 43.796875 
Q 23.140625 48.6875 27.21875 51 
Q 31.296875 53.328125 37.3125 53.328125 
Q 46.875 53.328125 52.921875 45.75 
Q 58.984375 38.1875 58.984375 25.984375 
Q 58.984375 13.765625 52.921875 6.171875 
Q 46.875 -1.421875 37.3125 -1.421875 
Q 31.296875 -1.421875 27.21875 0.890625 
Q 23.140625 3.21875 20.515625 8.109375 
L 20.515625 -15.578125 
L 29 -15.578125 
L 29 -20.796875 
L 2.875 -20.796875 
L 2.875 -15.578125 
L 11.53125 -15.578125 
z
" id="DejaVuSerif-112"/>
       <path d="M 52.484375 5.171875 
L 61.078125 5.171875 
L 61.078125 0 
L 43.5 0 
L 43.5 8.109375 
Q 40.875 3.21875 36.796875 0.890625 
Q 32.71875 -1.421875 26.703125 -1.421875 
Q 17.140625 -1.421875 11.0625 6.171875 
Q 4.984375 13.765625 4.984375 25.984375 
Q 4.984375 38.1875 11.03125 45.75 
Q 17.09375 53.328125 26.703125 53.328125 
Q 32.71875 53.328125 36.796875 51 
Q 40.875 48.6875 43.5 43.796875 
L 43.5 70.796875 
L 35.015625 70.796875 
L 35.015625 75.984375 
L 52.484375 75.984375 
z
M 43.5 23.390625 
L 43.5 28.515625 
Q 43.5 37.84375 39.90625 42.765625 
Q 36.328125 47.703125 29.5 47.703125 
Q 22.5625 47.703125 19.015625 42.234375 
Q 15.484375 36.765625 15.484375 25.984375 
Q 15.484375 15.234375 19.015625 9.71875 
Q 22.5625 4.203125 29.5 4.203125 
Q 36.328125 4.203125 39.90625 9.109375 
Q 43.5 14.015625 43.5 23.390625 
z
" id="DejaVuSerif-100"/>
      </defs>
      <use xlink:href="#DejaVuSerif-83"/>
      <use x="68.505859" xlink:href="#DejaVuSerif-112"/>
      <use x="132.519531" xlink:href="#DejaVuSerif-101"/>
      <use x="191.699219" xlink:href="#DejaVuSerif-101"/>
      <use x="250.878906" xlink:href="#DejaVuSerif-100"/>
     </g>
    </g>
   </g>
   <g id="line2d_15">
    <path clip-path="url(#p95b6e3f76b)" d="M 73.832727 295.488 
L 74.051307 114.048 
L 74.694187 114.048 
L 74.912766 150.336 
L 75.761368 150.336 
L 75.979947 174.528 
L 76.198527 53.568 
L 76.404248 174.528 
L 76.841407 174.528 
L 77.047129 191.808 
L 77.265708 191.808 
L 77.484287 88.128 
L 77.690009 191.808 
L 77.908588 191.808 
L 78.127168 204.768 
L 78.332889 204.768 
L 78.551469 114.048 
L 78.97577 114.048 
L 79.194349 134.208 
L 79.412928 214.848 
L 79.61865 134.208 
L 80.055808 134.208 
L 80.26153 150.336 
L 80.480109 150.336 
L 80.698689 222.912 
L 80.90441 150.336 
L 81.12299 150.336 
L 81.341569 163.531636 
L 81.76587 163.531636 
L 81.984449 229.509818 
L 82.190171 163.531636 
L 82.40875 174.528 
L 83.051631 174.528 
L 83.27021 114.048 
L 83.475932 128.004923 
L 83.694511 183.832615 
L 84.337391 183.832615 
L 84.55597 139.968 
L 84.980271 139.968 
L 85.198851 191.808 
L 85.404572 191.808 
L 85.623152 150.336 
L 86.266032 150.336 
L 86.484611 198.72 
L 86.690333 204.768 
L 86.908912 159.408 
L 87.551793 159.408 
L 87.770372 167.412706 
L 88.618974 167.412706 
L 88.837553 174.528 
L 89.699013 174.528 
L 89.904734 180.894316 
L 90.547615 180.894316 
L 90.766194 142.696421 
L 90.984773 150.336 
L 91.190495 186.624 
L 91.627654 186.624 
L 91.833375 150.336 
L 92.051955 157.248 
L 92.476256 157.248 
L 92.694835 191.808 
L 92.913414 191.808 
L 93.119136 163.531636 
L 93.980595 163.531636 
L 94.199175 169.26887 
L 95.047777 169.26887 
L 95.266356 174.528 
L 95.484935 174.528 
L 95.690657 144.288 
L 95.909236 174.528 
L 96.127816 174.528 
L 96.333537 179.3664 
L 96.770696 179.3664 
L 96.976418 150.336 
L 97.194997 179.3664 
L 97.413576 183.832615 
L 98.056457 183.832615 
L 98.262178 155.918769 
L 98.480758 161.088 
L 98.699337 161.088 
L 98.905059 187.968 
L 99.342217 187.968 
L 99.547939 165.888 
L 100.190819 165.888 
L 100.409398 191.808 
L 100.627978 195.383172 
L 100.833699 170.356966 
L 101.47658 170.356966 
L 101.695159 174.528 
L 101.913738 174.528 
L 102.11946 198.72 
L 102.338039 174.528 
L 102.556619 174.528 
L 102.76234 178.429935 
L 103.6238 178.429935 
L 103.842379 182.088 
L 104.690981 182.088 
L 104.90956 163.531636 
L 105.12814 163.531636 
L 105.333861 185.524364 
L 105.77102 185.524364 
L 105.976742 188.758588 
L 106.195321 167.412706 
L 106.619622 167.412706 
L 106.838201 188.758588 
L 107.056781 191.808 
L 107.262502 191.808 
L 107.481082 171.072 
L 107.905383 171.072 
L 108.123962 174.528 
L 108.342541 174.528 
L 108.548263 194.688 
L 108.766842 174.528 
L 108.985421 174.528 
L 109.191143 177.797189 
L 110.052603 177.797189 
L 110.271182 161.795368 
L 110.476904 180.894316 
L 111.119784 180.894316 
L 111.338363 183.832615 
L 111.556943 165.223385 
L 111.762664 165.223385 
L 111.981244 183.832615 
L 112.199823 183.832615 
L 112.405545 186.624 
L 112.624124 186.624 
L 112.842703 168.48 
L 113.267004 168.48 
L 113.485583 171.577756 
L 113.691305 189.27922 
L 114.128464 189.27922 
L 114.334185 171.577756 
L 114.552765 174.528 
L 114.977066 174.528 
L 115.195645 191.808 
L 115.414224 191.808 
L 115.619946 177.341023 
L 116.481406 177.341023 
L 116.699985 180.026182 
L 117.548587 180.026182 
L 117.767166 182.592 
L 118.628626 182.592 
L 118.834347 185.046261 
L 119.477228 185.046261 
L 119.695807 169.26887 
L 119.914386 171.954383 
L 120.120108 171.954383 
L 120.338687 187.396085 
L 120.762988 187.396085 
L 120.981568 174.528 
L 121.624448 174.528 
L 121.843027 189.648 
L 122.048749 191.808 
L 122.267328 191.808 
L 122.485907 176.996571 
L 122.910208 176.996571 
L 123.128788 179.3664 
L 123.334509 179.3664 
L 123.553089 193.8816 
L 123.771668 179.3664 
L 123.97739 179.3664 
L 124.195969 181.643294 
L 125.057429 181.643294 
L 125.26315 169.875692 
L 125.48173 183.832615 
L 126.12461 183.832615 
L 126.343189 185.939321 
L 126.548911 172.245736 
L 126.76749 172.245736 
L 126.986069 185.939321 
L 127.191791 185.939321 
L 127.41037 187.968 
L 127.62895 187.968 
L 127.834671 174.528 
L 128.27183 174.528 
L 128.477552 176.727273 
L 128.696131 189.922909 
L 129.120432 189.922909 
L 129.339011 176.727273 
L 129.557591 178.848 
L 130.200471 178.848 
L 130.406193 191.808 
L 130.624772 180.894316 
L 131.486232 180.894316 
L 131.691953 182.870069 
L 132.553413 182.870069 
L 132.771992 184.778847 
L 133.196293 184.778847 
L 133.414872 172.477831 
L 133.620594 184.778847 
L 133.839173 186.624 
L 134.700633 186.624 
L 134.906355 176.510951 
L 135.343513 176.510951 
L 135.549235 188.408656 
L 135.767814 188.408656 
L 135.986394 190.135742 
L 136.192115 178.429935 
L 136.834995 178.429935 
L 137.053575 180.288 
L 137.272154 191.808 
L 137.477876 191.808 
L 137.696455 180.288 
L 137.915034 180.288 
L 138.120756 182.088 
L 138.982216 182.088 
L 139.200795 183.832615 
L 140.049397 183.832615 
L 140.267976 185.524364 
L 140.486556 174.528 
L 140.692277 185.524364 
L 141.129436 185.524364 
L 141.335158 187.165612 
L 141.553737 187.165612 
L 141.772316 176.333373 
L 141.978038 176.333373 
L 142.196617 187.165612 
L 142.415196 188.758588 
L 143.058077 188.758588 
L 143.263798 178.085647 
L 143.482378 179.78713 
L 143.906679 179.78713 
L 144.125258 190.305391 
L 144.343837 190.305391 
L 144.549559 181.44 
L 145.411019 181.44 
L 145.629598 183.04631 
L 145.83532 193.268282 
L 146.053899 183.04631 
L 146.4782 183.04631 
L 146.696779 184.608 
L 147.12108 184.608 
L 147.339659 174.528 
L 147.558239 184.608 
L 147.76396 186.126904 
L 148.62542 186.126904 
L 148.843999 177.797189 
L 149.049721 177.797189 
L 149.2683 187.604757 
L 149.692601 187.604757 
L 149.911181 189.0432 
L 150.12976 179.3664 
L 150.77264 179.3664 
L 150.978362 180.894316 
L 151.196941 190.443789 
L 151.41552 190.443789 
L 151.621242 180.894316 
L 151.839821 180.894316 
L 152.058401 182.382545 
L 152.482702 182.382545 
L 152.701281 191.808 
L 152.907003 191.808 
L 153.125582 183.832615 
L 153.987042 183.832615 
L 154.192763 185.245975 
L 154.411343 176.059139 
L 154.629922 185.245975 
L 155.054223 185.245975 
L 155.272802 186.624 
L 155.697103 186.624 
L 155.915682 177.552 
L 156.121404 186.624 
L 156.339983 187.968 
L 156.982864 187.968 
L 157.201443 179.008 
L 157.407165 180.428488 
L 157.844323 180.428488 
L 158.050045 189.27922 
L 158.268624 189.27922 
L 158.487204 190.558843 
L 158.692925 181.814747 
L 159.335806 181.814747 
L 159.554385 183.168 
L 159.772964 191.808 
L 159.978686 183.168 
L 160.415844 183.168 
L 160.621566 184.489412 
L 161.483026 184.489412 
L 161.701605 185.780093 
L 162.550207 185.780093 
L 162.768786 178.699034 
L 162.987366 178.699034 
L 163.193087 187.041103 
L 163.630246 187.041103 
L 163.835968 188.273455 
L 164.054547 188.273455 
L 164.273126 180.026182 
L 164.697427 180.026182 
L 164.916006 181.323506 
L 165.121728 189.478112 
L 165.558887 189.478112 
L 165.764608 181.323506 
L 165.983188 182.592 
L 166.407489 182.592 
L 166.626068 190.656 
L 166.844647 190.656 
L 167.050369 183.832615 
L 167.911829 183.832615 
L 168.130408 185.046261 
L 168.97901 185.046261 
L 169.197589 186.233806 
L 169.62189 186.233806 
L 169.840469 178.429935 
L 170.059049 186.233806 
L 170.26477 187.396085 
L 171.12623 187.396085 
L 171.344809 180.894316 
L 171.76911 180.894316 
L 171.98769 188.533895 
L 172.193411 188.533895 
L 172.411991 189.648 
L 172.63057 182.088 
L 173.27345 182.088 
L 173.479172 183.257072 
L 173.697751 183.257072 
L 173.916331 190.739134 
L 174.122052 183.257072 
L 174.340632 183.257072 
L 174.559211 184.402286 
L 175.202091 184.402286 
L 175.407813 191.808 
L 175.626392 185.524364 
L 176.487852 185.524364 
L 176.693573 186.624 
L 176.912153 179.3664 
L 177.130732 179.3664 
L 177.336454 186.624 
L 177.555033 186.624 
L 177.773612 187.701861 
L 178.197913 187.701861 
L 178.416493 180.516119 
L 178.622214 180.516119 
L 178.840794 181.643294 
L 179.059373 188.758588 
L 179.483674 188.758588 
L 179.702253 181.643294 
L 179.907975 182.748583 
L 180.550855 182.748583 
L 180.769434 189.794796 
L 180.988014 190.811077 
L 181.193735 183.832615 
L 181.836616 183.832615 
L 182.055195 184.896 
L 182.273774 184.896 
L 182.479496 191.808 
L 182.698075 184.896 
L 182.916655 184.896 
L 183.122376 185.939321 
L 183.765257 185.939321 
L 183.983836 179.092528 
L 184.202415 180.180336 
L 184.408137 186.96314 
L 185.051017 186.96314 
L 185.269596 187.968 
L 185.488176 181.248 
L 185.693897 181.248 
L 185.912477 187.968 
L 186.131056 187.968 
L 186.336778 188.954422 
L 186.555357 188.954422 
L 186.773936 182.296073 
L 187.198237 182.296073 
L 187.416817 183.325091 
L 187.622538 183.325091 
L 187.841118 189.922909 
L 188.059697 189.922909 
L 188.265419 183.325091 
L 188.483998 184.335568 
L 189.345457 184.335568 
L 189.551179 185.328 
L 190.412639 185.328 
L 190.631218 186.302867 
L 190.83694 186.302867 
L 191.055519 179.880212 
L 191.274098 186.302867 
L 191.47982 186.302867 
L 191.698399 187.260632 
L 192.34128 187.260632 
L 192.559859 180.894316 
L 192.765581 181.890783 
L 192.98416 181.890783 
L 193.202739 188.201739 
L 193.62704 188.201739 
L 193.845619 182.870069 
L 194.4885 182.870069 
L 194.694221 189.126621 
L 194.912801 190.035692 
L 195.13138 190.035692 
L 195.337102 183.832615 
L 195.77426 183.832615 
L 195.979982 184.778847 
L 196.417141 184.778847 
L 196.622862 190.929356 
L 196.841442 184.778847 
L 197.060021 185.709176 
L 197.908623 185.709176 
L 198.127202 180.576 
L 198.345781 186.624 
L 198.988662 186.624 
L 199.194383 187.523702 
L 199.412963 187.523702 
L 199.631542 181.525686 
L 199.837264 181.525686 
L 200.055843 187.523702 
L 200.274422 188.408656 
L 200.698723 188.408656 
L 200.917303 182.459803 
L 201.123024 182.459803 
L 201.341604 183.378732 
L 201.765905 183.378732 
L 201.984484 189.27922 
L 202.203063 189.27922 
L 202.408785 184.282839 
L 203.270244 184.282839 
L 203.488824 185.17248 
L 203.694545 190.97856 
L 203.913125 185.17248 
L 204.337426 185.17248 
L 204.556005 186.048 
L 204.980306 186.048 
L 205.198885 180.288 
L 205.417465 186.048 
L 205.623186 186.909732 
L 206.484646 186.909732 
L 206.703225 182.088 
L 206.908947 182.088 
L 207.127526 187.758 
L 207.551827 187.758 
L 207.770406 188.593116 
L 207.988986 188.593116 
L 208.194707 182.96707 
L 208.631866 182.96707 
L 208.837588 183.832615 
L 209.056167 189.415385 
L 209.274746 189.415385 
L 209.480468 183.832615 
L 209.699047 183.832615 
L 209.917627 184.684947 
L 210.560507 184.684947 
L 210.766229 190.225099 
L 210.984808 185.524364 
L 211.846268 185.524364 
L 212.051989 186.351158 
L 212.270568 180.894316 
L 212.489148 186.351158 
L 212.913449 186.351158 
L 213.132028 187.165612 
L 213.556329 187.165612 
L 213.774908 181.749493 
L 213.98063 181.749493 
L 214.199209 182.592 
L 214.417789 187.968 
L 215.060669 187.968 
L 215.266391 183.422118 
L 215.703549 183.422118 
L 215.909271 188.758588 
L 216.12785 188.758588 
L 216.34643 189.537635 
L 216.552151 184.240117 
L 217.195032 184.240117 
L 217.413611 185.046261 
L 217.63219 185.046261 
L 217.837912 190.305391 
L 218.056491 185.046261 
L 218.27507 185.046261 
L 218.480792 185.840806 
L 219.123672 185.840806 
L 219.342252 180.619511 
L 219.560831 181.44 
L 219.766553 186.624 
L 220.409433 186.624 
L 220.628012 187.396085 
L 220.846592 182.248851 
L 221.052313 182.248851 
L 221.270893 187.396085 
L 221.489472 187.396085 
L 221.695194 188.157296 
L 222.132352 188.157296 
L 222.338074 183.04631 
L 222.556653 183.04631 
L 222.775232 183.832615 
L 222.980954 183.832615 
L 223.199533 188.90786 
L 223.418113 188.90786 
L 223.623834 183.832615 
L 223.842414 184.608 
L 224.485294 184.608 
L 224.703873 189.648 
L 224.909595 190.377931 
L 225.128174 185.37269 
L 225.771055 185.37269 
L 225.989634 186.126904 
L 226.838236 186.126904 
L 227.056815 186.870857 
L 227.699695 186.870857 
L 227.918275 181.933714 
L 228.123996 182.700973 
L 228.342576 182.700973 
L 228.561155 187.604757 
L 228.985456 187.604757 
L 229.204035 188.328805 
L 229.409757 183.457933 
L 229.846916 183.457933 
L 230.052637 188.328805 
L 230.271217 189.0432 
L 230.695518 189.0432 
L 230.914097 184.2048 
L 231.132676 184.2048 
L 231.338398 184.941775 
L 231.775556 184.941775 
L 231.981278 189.748132 
L 232.199857 184.941775 
L 232.418437 185.669053 
L 233.267039 185.669053 
L 233.485618 186.386824 
L 234.347078 186.386824 
L 234.552799 187.095273 
L 234.771379 187.095273 
L 234.989958 182.382545 
L 235.19568 182.382545 
L 235.414259 187.095273 
L 235.632838 187.794581 
L 236.275718 187.794581 
L 236.48144 183.112258 
L 236.700019 183.832615 
L 237.12432 183.832615 
L 237.3429 188.484923 
L 237.561479 188.484923 
L 237.767201 189.166471 
L 237.98578 184.543796 
L 238.62866 184.543796 
L 238.84724 185.245975 
L 239.052961 189.839392 
L 239.271541 185.245975 
L 239.695842 185.245975 
L 239.914421 185.939321 
L 240.77588 185.939321 
L 240.981602 186.624 
L 241.843062 186.624 
L 242.061641 187.300174 
L 242.267363 182.792348 
L 242.485942 182.792348 
L 242.704521 187.300174 
L 242.910243 187.300174 
L 243.128822 187.968 
L 243.347402 187.968 
L 243.553123 183.488 
L 243.990282 183.488 
L 244.196004 184.175117 
L 244.414583 188.627632 
L 244.838884 188.627632 
L 245.057463 184.175117 
L 245.276042 184.853854 
L 245.918923 184.853854 
L 246.124644 189.27922 
L 246.343224 189.922909 
L 246.561803 185.524364 
L 247.204683 185.524364 
L 247.410405 186.186795 
L 248.271865 186.186795 
L 248.490444 186.841293 
L 249.133324 186.841293 
L 249.339046 182.495425 
L 249.557625 183.168 
L 249.776205 187.488 
L 250.419085 187.488 
L 250.624806 183.832615 
L 251.267687 183.832615 
L 251.486266 188.127053 
L 251.704845 188.758588 
L 251.910567 188.758588 
L 252.129146 184.489412 
L 252.553447 184.489412 
L 252.772027 185.138526 
L 252.990606 185.138526 
L 253.196328 189.382737 
L 253.414907 189.382737 
L 253.633486 185.138526 
L 253.839208 185.780093 
L 254.700668 185.780093 
L 254.919247 182.219098 
L 255.124968 186.414243 
L 255.767849 186.414243 
L 255.986428 187.041103 
L 256.205007 187.041103 
L 256.410729 182.870069 
L 256.629308 187.041103 
L 256.847888 187.041103 
L 257.053609 187.6608 
L 257.69649 187.6608 
L 257.915069 183.5136 
L 258.133648 184.149818 
L 258.33937 184.149818 
L 258.557949 188.273455 
L 258.98225 188.273455 
L 259.20083 184.778847 
L 260.062289 184.778847 
L 260.268011 185.400809 
L 260.48659 189.478112 
L 260.705169 185.400809 
L 261.12947 185.400809 
L 261.34805 186.015821 
L 261.772351 186.015821 
L 261.99093 190.070346 
L 262.196652 186.015821 
L 262.415231 186.624 
L 263.276691 186.624 
L 263.482412 183.215735 
L 263.700992 183.215735 
L 263.919571 187.225459 
L 264.343872 187.225459 
L 264.562451 187.820308 
L 264.768173 187.820308 
L 264.986752 183.832615 
L 265.411053 183.832615 
L 265.629632 184.442754 
L 265.848212 188.408656 
L 266.272513 188.408656 
L 266.491092 184.442754 
L 266.696814 185.046261 
L 267.133972 185.046261 
L 267.339694 188.990609 
L 267.558273 188.990609 
L 267.776853 185.643243 
L 268.625455 185.643243 
L 268.844034 186.233806 
L 269.705493 186.233806 
L 269.911215 186.818053 
L 270.554095 186.818053 
L 270.772675 182.936984 
L 270.991254 183.53566 
L 271.196976 187.396085 
L 271.839856 187.396085 
L 272.058435 184.128 
L 272.482736 184.128 
L 272.701316 187.968 
L 272.919895 187.968 
L 273.125617 188.533895 
L 273.344196 188.533895 
L 273.562775 184.714105 
L 273.987076 184.714105 
L 274.205655 185.294073 
L 274.411377 185.294073 
L 274.629956 189.093864 
L 274.848536 185.294073 
L 275.054257 185.294073 
L 275.272837 185.868 
L 275.915717 185.868 
L 276.134296 189.648 
L 276.340018 186.435979 
L 277.201478 186.435979 
L 277.420057 186.998103 
L 277.625779 186.998103 
L 277.844358 183.257072 
L 278.062937 186.998103 
L 278.268659 186.998103 
L 278.487238 187.554462 
L 278.911539 187.554462 
L 279.130118 183.832615 
L 279.348698 183.832615 
L 279.554419 184.402286 
L 279.772999 184.402286 
L 279.991578 188.105143 
L 280.415879 188.105143 
L 280.634458 184.966173 
L 281.277339 184.966173 
L 281.48306 188.650234 
L 281.70164 189.189818 
L 281.920219 189.189818 
L 282.125941 185.524364 
L 282.563099 185.524364 
L 282.768821 186.076945 
L 283.63028 186.076945 
L 283.84886 186.624 
L 284.697462 186.624 
L 284.916041 183.554866 
L 285.13462 183.554866 
L 285.340342 187.165612 
L 285.777501 187.165612 
L 285.983222 187.701861 
L 286.201802 187.701861 
L 286.420381 184.10899 
L 286.626103 184.10899 
L 286.844682 187.701861 
L 287.063261 188.232828 
L 287.487562 188.232828 
L 287.706141 184.657655 
L 287.911863 184.657655 
L 288.130442 185.200941 
L 288.554743 185.200941 
L 288.773323 188.758588 
L 288.991902 188.758588 
L 289.197624 185.738927 
L 290.059083 185.738927 
L 290.277663 186.271689 
L 291.126265 186.271689 
L 291.344844 186.799304 
L 291.769145 186.799304 
L 291.987724 183.293217 
L 292.206304 186.799304 
L 292.412025 187.321846 
L 293.273485 187.321846 
L 293.492064 184.366852 
L 293.916365 184.366852 
L 294.134944 187.839388 
L 294.340666 187.839388 
L 294.559245 188.352 
L 294.777825 188.352 
L 294.983546 184.896 
L 295.420705 184.896 
L 295.626427 185.420133 
L 295.845006 188.859754 
L 296.063585 188.859754 
L 296.269307 185.420133 
L 296.487886 185.420133 
L 296.706466 185.939321 
L 297.349346 185.939321 
L 297.555068 189.362717 
L 297.773647 186.453634 
L 298.635106 186.453634 
L 298.840828 186.96314 
L 299.059407 186.96314 
L 299.277987 183.571738 
L 299.483708 186.96314 
L 299.702288 186.96314 
L 299.920867 187.467907 
L 300.345168 187.467907 
L 300.563747 184.092279 
L 300.769469 184.092279 
L 300.988048 184.608 
L 301.206628 187.968 
L 301.849508 187.968 
L 302.05523 185.118968 
L 302.69811 185.118968 
L 302.916689 188.463484 
L 303.135268 188.954422 
L 303.34099 188.954422 
L 303.559569 185.625248 
L 303.98387 185.625248 
L 304.20245 186.126904 
L 305.063909 186.126904 
L 305.269631 186.624 
L 306.131091 186.624 
L 306.34967 183.832615 
L 306.555392 187.116597 
L 307.198272 187.116597 
L 307.416851 187.604757 
L 307.63543 187.604757 
L 307.841152 184.335568 
L 308.059731 184.335568 
L 308.278311 187.604757 
L 308.484032 188.088538 
L 308.921191 188.088538 
L 309.126913 184.834009 
L 309.345492 184.834009 
L 309.564071 185.328 
L 309.988372 185.328 
L 310.206952 188.568 
L 310.412673 188.568 
L 310.631253 185.8176 
L 311.492712 185.8176 
L 311.698434 186.302867 
L 311.917013 189.514195 
L 312.135592 186.302867 
L 312.559893 186.302867 
L 312.778473 186.783859 
L 313.202774 186.783859 
L 313.421353 183.586678 
L 313.627075 186.783859 
L 313.845654 187.260632 
L 314.707114 187.260632 
L 314.912835 184.563983 
L 315.349994 184.563983 
L 315.555716 187.73324 
L 315.774295 187.73324 
L 315.992874 188.201739 
L 316.198596 188.201739 
L 316.417175 185.046261 
L 316.841476 185.046261 
L 317.060055 185.524364 
L 317.278635 188.666182 
L 317.484356 188.666182 
L 317.702936 185.524364 
L 317.921515 185.524364 
L 318.127237 185.998345 
L 318.770117 185.998345 
L 318.988696 189.126621 
L 319.207276 186.468258 
L 320.055878 186.468258 
L 320.274457 186.934154 
L 320.493036 186.934154 
L 320.698758 183.832615 
L 320.917337 186.934154 
L 321.135916 186.934154 
L 321.341638 187.396085 
L 321.778797 187.396085 
L 321.984518 184.307745 
L 322.203098 184.307745 
L 322.421677 184.778847 
L 322.627399 187.854102 
L 323.270279 187.854102 
L 323.488858 185.245975 
L 324.131739 185.245975 
L 324.350318 188.308253 
L 324.55604 188.758588 
L 324.774619 188.758588 
L 324.993198 185.709176 
L 325.417499 185.709176 
L 325.636078 186.168502 
L 325.8418 186.168502 
L 326.060379 189.205155 
L 326.278959 186.168502 
L 326.48468 186.168502 
L 326.70326 186.624 
L 327.564719 186.624 
L 327.770441 184.064266 
L 327.98902 187.075718 
L 328.631901 187.075718 
L 328.85048 187.523702 
L 329.056202 187.523702 
L 329.274781 184.524694 
L 329.49336 184.524694 
L 329.699082 187.523702 
L 329.917661 187.968 
L 330.560541 187.968 
L 330.779121 184.981333 
L 330.984842 185.43423 
L 331.203422 185.43423 
L 331.422001 188.408656 
L 331.846302 188.408656 
L 332.064881 185.883429 
L 332.913483 185.883429 
L 333.132063 186.328976 
L 333.350642 189.27922 
L 333.556364 186.328976 
L 333.993522 186.328976 
L 334.199244 186.770915 
L 335.060704 186.770915 
L 335.279283 187.20929 
L 336.127885 187.20929 
L 336.346464 184.729446 
L 336.565043 184.729446 
L 336.770765 187.644145 
L 337.207924 187.644145 
L 337.413645 188.07552 
L 337.632225 188.07552 
L 337.850804 185.17248 
L 338.275105 185.17248 
L 338.493684 185.611984 
L 338.699406 188.503458 
L 339.136565 188.503458 
L 339.342286 185.611984 
L 339.560866 186.048 
L 340.203746 186.048 
L 340.422325 188.928 
L 340.628047 186.480569 
L 341.489506 186.480569 
L 341.708086 186.909732 
L 342.556688 186.909732 
L 342.775267 187.335529 
L 343.418147 187.335529 
L 343.636727 184.489412 
L 343.842448 184.923 
L 344.061028 187.758 
L 344.703908 187.758 
L 344.922487 185.353214 
L 345.565367 185.353214 
L 345.771089 188.177183 
L 345.989668 188.593116 
L 346.208248 188.593116 
L 346.413969 185.780093 
L 346.851128 185.780093 
L 347.05685 186.203676 
L 347.275429 186.203676 
L 347.494008 189.005838 
L 347.69973 189.005838 
L 347.918309 186.203676 
L 348.136889 186.624 
L 348.985491 186.624 
L 349.20407 184.260414 
L 349.422649 187.041103 
L 350.065529 187.041103 
L 350.271251 187.455023 
L 350.48983 187.455023 
L 350.70841 184.684947 
L 350.914131 184.684947 
L 351.132711 187.455023 
L 351.35129 187.865795 
L 351.99417 187.865795 
L 352.199892 185.106251 
L 352.418471 185.524364 
L 352.637051 185.524364 
L 352.842772 188.273455 
L 353.279931 188.273455 
L 353.485653 185.939321 
L 354.347112 185.939321 
L 354.565691 186.351158 
L 354.771413 189.079579 
L 354.989992 186.351158 
L 355.414293 186.351158 
L 355.632873 186.75991 
L 356.494332 186.75991 
L 356.700054 187.165612 
L 357.561514 187.165612 
L 357.780093 184.870305 
L 357.985815 184.870305 
L 358.204394 187.568297 
L 358.628695 187.568297 
L 358.847274 187.968 
L 359.065853 187.968 
L 359.271575 185.28 
L 359.708734 185.28 
L 359.914455 185.686672 
L 360.133035 188.364753 
L 360.557336 188.364753 
L 360.775915 185.686672 
L 360.994494 186.090353 
L 361.637375 186.090353 
L 361.843096 188.758588 
L 362.061676 189.149538 
L 362.280255 186.491077 
L 362.923135 186.491077 
L 363.128857 186.888876 
L 363.990316 186.888876 
L 364.208896 187.283782 
L 364.851776 187.283782 
L 365.057498 184.644655 
L 365.276077 185.046261 
L 365.494656 187.675826 
L 366.137537 187.675826 
L 366.343258 188.06504 
L 366.561838 185.444968 
L 366.986139 185.444968 
L 367.204718 188.06504 
L 367.423297 188.451453 
L 367.629019 188.451453 
L 367.847598 185.840806 
L 368.271899 185.840806 
L 368.490478 186.233806 
L 368.709058 186.233806 
L 368.914779 188.835097 
L 369.133359 188.835097 
L 369.351938 186.233806 
L 369.55766 186.624 
L 370.419119 186.624 
L 370.637699 187.011416 
L 371.486301 187.011416 
L 371.70488 187.396085 
L 371.923459 187.396085 
L 372.129181 184.822468 
L 372.34776 184.822468 
L 372.56634 187.396085 
L 372.772061 187.778035 
L 373.414941 187.778035 
L 373.633521 185.213512 
L 373.8521 185.601803 
L 374.057822 185.601803 
L 374.276401 188.157296 
L 374.700702 188.157296 
L 374.919281 188.533895 
L 375.137861 185.987368 
L 375.780741 185.987368 
L 375.986463 186.370238 
L 376.205042 188.90786 
L 376.423621 186.370238 
L 376.847922 186.370238 
L 377.066502 186.750439 
L 377.915104 186.750439 
L 378.133683 187.128 
L 378.995142 187.128 
L 379.200864 187.502948 
L 379.419443 184.991668 
L 379.638023 187.502948 
L 380.062324 187.502948 
L 380.280903 187.87531 
L 380.705204 187.87531 
L 380.923783 185.37269 
L 381.129505 185.37269 
L 381.348084 185.751093 
L 381.566664 188.245113 
L 381.990965 188.245113 
L 382.209544 185.751093 
L 382.415266 186.126904 
L 383.058146 186.126904 
L 383.276725 188.612384 
L 383.495304 188.977147 
L 383.701026 186.50015 
L 384.343906 186.50015 
L 384.562486 186.870857 
L 384.781065 186.870857 
L 384.986787 189.339429 
L 385.205366 186.870857 
L 385.423945 186.870857 
L 385.629667 187.239051 
L 386.272547 187.239051 
L 386.491127 184.778847 
L 386.709706 185.152865 
L 386.915428 187.604757 
L 387.558308 187.604757 
L 387.776887 187.968 
L 387.995466 185.524364 
L 388.419767 185.524364 
L 388.638347 187.968 
L 388.844068 188.328805 
L 389.281227 188.328805 
L 389.486949 185.893369 
L 389.705528 185.893369 
L 389.924107 186.259906 
L 390.129829 186.259906 
L 390.348408 188.687197 
L 390.566988 188.687197 
L 390.772709 186.259906 
L 390.991289 186.624 
L 391.852748 186.624 
L 392.05847 186.985674 
L 392.919929 186.985674 
L 393.138509 187.344954 
L 393.56281 187.344954 
L 393.781389 184.941775 
L 393.987111 187.344954 
L 394.20569 187.701861 
L 395.06715 187.701861 
L 395.272871 185.669053 
L 395.71003 185.669053 
L 395.915752 188.056421 
L 396.134331 188.056421 
L 396.35291 188.408656 
L 396.558632 186.029115 
L 397.201512 186.029115 
L 397.420091 186.386824 
L 397.638671 188.758588 
L 397.844392 188.758588 
L 398.062972 186.386824 
L 398.281551 186.386824 
L 398.487273 186.742202 
L 398.487273 186.742202 
" style="fill:none;stroke:#1f77b4;stroke-linecap:square;stroke-width:1.5;"/>
   </g>
   <g id="patch_3">
    <path d="M 57.6 307.584 
L 57.6 41.472 
" style="fill:none;stroke:#000000;stroke-linecap:square;stroke-linejoin:miter;stroke-width:0.8;"/>
   </g>
   <g id="patch_4">
    <path d="M 414.72 307.584 
L 414.72 41.472 
" style="fill:none;stroke:#000000;stroke-linecap:square;stroke-linejoin:miter;stroke-width:0.8;"/>
   </g>
   <g id="patch_5">
    <path d="M 57.6 307.584 
L 414.72 307.584 
" style="fill:none;stroke:#000000;stroke-linecap:square;stroke-linejoin:miter;stroke-width:0.8;"/>
   </g>
   <g id="patch_6">
    <path d="M 57.6 41.472 
L 414.72 41.472 
" style="fill:none;stroke:#000000;stroke-linecap:square;stroke-linejoin:miter;stroke-width:0.8;"/>
   </g>
   <g id="text_17">
    <!-- Speed function of time -->
    <g transform="translate(167.024063 35.472)scale(0.12 -0.12)">
     <defs>
      <path id="DejaVuSerif-32"/>
      <path d="M 43.015625 63.71875 
L 38.28125 63.71875 
Q 38.234375 67.390625 36.203125 69.28125 
Q 34.1875 71.1875 30.328125 71.1875 
Q 25.296875 71.1875 23.234375 68.421875 
Q 21.1875 65.671875 21.1875 58.59375 
L 21.1875 51.90625 
L 35.6875 51.90625 
L 35.6875 46.6875 
L 21.1875 46.6875 
L 21.1875 5.171875 
L 32.71875 5.171875 
L 32.71875 0 
L 3.609375 0 
L 3.609375 5.171875 
L 12.203125 5.171875 
L 12.203125 46.6875 
L 3.609375 46.6875 
L 3.609375 51.90625 
L 12.203125 51.90625 
L 12.203125 58.40625 
Q 12.203125 67.09375 16.71875 71.53125 
Q 21.234375 75.984375 29.984375 75.984375 
Q 33.25 75.984375 36.515625 75.390625 
Q 39.796875 74.8125 43.015625 73.578125 
z
" id="DejaVuSerif-102"/>
      <path d="M 35.40625 51.90625 
L 52.203125 51.90625 
L 52.203125 5.171875 
L 60.6875 5.171875 
L 60.6875 0 
L 43.21875 0 
L 43.21875 9.1875 
Q 40.71875 4 36.765625 1.28125 
Q 32.8125 -1.421875 27.59375 -1.421875 
Q 18.953125 -1.421875 14.875 3.484375 
Q 10.796875 8.40625 10.796875 18.890625 
L 10.796875 46.6875 
L 2.6875 46.6875 
L 2.6875 51.90625 
L 19.828125 51.90625 
L 19.828125 21.6875 
Q 19.828125 12.203125 22.140625 8.6875 
Q 24.46875 5.171875 30.421875 5.171875 
Q 36.671875 5.171875 39.9375 9.765625 
Q 43.21875 14.359375 43.21875 23.09375 
L 43.21875 46.6875 
L 35.40625 46.6875 
z
" id="DejaVuSerif-117"/>
      <path d="M 4.109375 0 
L 4.109375 5.171875 
L 12.203125 5.171875 
L 12.203125 46.6875 
L 3.609375 46.6875 
L 3.609375 51.90625 
L 21.1875 51.90625 
L 21.1875 42.671875 
Q 23.6875 47.953125 27.65625 50.640625 
Q 31.640625 53.328125 36.921875 53.328125 
Q 45.515625 53.328125 49.5625 48.390625 
Q 53.609375 43.453125 53.609375 33.015625 
L 53.609375 5.171875 
L 61.625 5.171875 
L 61.625 0 
L 36.8125 0 
L 36.8125 5.171875 
L 44.578125 5.171875 
L 44.578125 30.171875 
Q 44.578125 39.703125 42.234375 43.234375 
Q 39.890625 46.78125 33.984375 46.78125 
Q 27.734375 46.78125 24.453125 42.203125 
Q 21.1875 37.640625 21.1875 28.90625 
L 21.1875 5.171875 
L 29 5.171875 
L 29 0 
z
" id="DejaVuSerif-110"/>
      <path d="M 51.421875 15.578125 
Q 49.515625 7.28125 44.09375 2.921875 
Q 38.671875 -1.421875 30.078125 -1.421875 
Q 18.75 -1.421875 11.859375 6.078125 
Q 4.984375 13.578125 4.984375 25.984375 
Q 4.984375 38.421875 11.859375 45.875 
Q 18.75 53.328125 30.078125 53.328125 
Q 35.015625 53.328125 39.890625 52.171875 
Q 44.78125 51.03125 49.703125 48.6875 
L 49.703125 35.40625 
L 44.484375 35.40625 
Q 43.453125 42.234375 40.015625 45.359375 
Q 36.578125 48.484375 30.171875 48.484375 
Q 22.90625 48.484375 19.1875 42.84375 
Q 15.484375 37.203125 15.484375 25.984375 
Q 15.484375 14.75 19.171875 9.078125 
Q 22.859375 3.421875 30.171875 3.421875 
Q 35.984375 3.421875 39.453125 6.4375 
Q 42.921875 9.46875 44.1875 15.578125 
z
" id="DejaVuSerif-99"/>
      <path d="M 10.796875 46.6875 
L 2.875 46.6875 
L 2.875 51.90625 
L 10.796875 51.90625 
L 10.796875 68.015625 
L 19.828125 68.015625 
L 19.828125 51.90625 
L 36.71875 51.90625 
L 36.71875 46.6875 
L 19.828125 46.6875 
L 19.828125 13.71875 
Q 19.828125 7.125 21.09375 5.265625 
Q 22.359375 3.421875 25.78125 3.421875 
Q 29.296875 3.421875 30.90625 5.484375 
Q 32.515625 7.5625 32.625 12.203125 
L 39.40625 12.203125 
Q 39.015625 5.125 35.546875 1.84375 
Q 32.078125 -1.421875 25 -1.421875 
Q 17.234375 -1.421875 14.015625 2.015625 
Q 10.796875 5.46875 10.796875 13.71875 
z
" id="DejaVuSerif-116"/>
      <path d="M 30.078125 3.421875 
Q 37.3125 3.421875 40.984375 9.125 
Q 44.671875 14.84375 44.671875 25.984375 
Q 44.671875 37.109375 40.984375 42.796875 
Q 37.3125 48.484375 30.078125 48.484375 
Q 22.859375 48.484375 19.171875 42.796875 
Q 15.484375 37.109375 15.484375 25.984375 
Q 15.484375 14.84375 19.1875 9.125 
Q 22.90625 3.421875 30.078125 3.421875 
z
M 30.078125 -1.421875 
Q 18.75 -1.421875 11.859375 6.078125 
Q 4.984375 13.578125 4.984375 25.984375 
Q 4.984375 38.375 11.84375 45.84375 
Q 18.703125 53.328125 30.078125 53.328125 
Q 41.453125 53.328125 48.3125 45.84375 
Q 55.171875 38.375 55.171875 25.984375 
Q 55.171875 13.578125 48.3125 6.078125 
Q 41.453125 -1.421875 30.078125 -1.421875 
z
" id="DejaVuSerif-111"/>
     </defs>
     <use xlink:href="#DejaVuSerif-83"/>
     <use x="68.505859" xlink:href="#DejaVuSerif-112"/>
     <use x="132.519531" xlink:href="#DejaVuSerif-101"/>
     <use x="191.699219" xlink:href="#DejaVuSerif-101"/>
     <use x="250.878906" xlink:href="#DejaVuSerif-100"/>
     <use x="314.892578" xlink:href="#DejaVuSerif-32"/>
     <use x="346.679688" xlink:href="#DejaVuSerif-102"/>
     <use x="383.691406" xlink:href="#DejaVuSerif-117"/>
     <use x="448.095703" xlink:href="#DejaVuSerif-110"/>
     <use x="512.5" xlink:href="#DejaVuSerif-99"/>
     <use x="568.505859" xlink:href="#DejaVuSerif-116"/>
     <use x="608.691406" xlink:href="#DejaVuSerif-105"/>
     <use x="640.673828" xlink:href="#DejaVuSerif-111"/>
     <use x="700.878906" xlink:href="#DejaVuSerif-110"/>
     <use x="765.283203" xlink:href="#DejaVuSerif-32"/>
     <use x="797.070312" xlink:href="#DejaVuSerif-111"/>
     <use x="857.275391" xlink:href="#DejaVuSerif-102"/>
     <use x="894.287109" xlink:href="#DejaVuSerif-32"/>
     <use x="926.074219" xlink:href="#DejaVuSerif-116"/>
     <use x="966.259766" xlink:href="#DejaVuSerif-105"/>
     <use x="998.242188" xlink:href="#DejaVuSerif-109"/>
     <use x="1093.066406" xlink:href="#DejaVuSerif-101"/>
    </g>
   </g>
  </g>
 </g>
 <defs>
  <clipPath id="p95b6e3f76b">
   <rect height="266.112" width="357.12" x="57.6" y="41.472"/>
  </clipPath>
 </defs>
</svg>
