<?xml version="1.0" encoding="utf-8" standalone="no"?>
<!DOCTYPE svg PUBLIC "-//W3C//DTD SVG 1.1//EN"
  "http://www.w3.org/Graphics/SVG/1.1/DTD/svg11.dtd">
<!-- Created with matplotlib (https://matplotlib.org/) -->
<svg height="345.6pt" version="1.1" viewBox="0 0 460.8 345.6" width="460.8pt" xmlns="http://www.w3.org/2000/svg" xmlns:xlink="http://www.w3.org/1999/xlink">
 <metadata>
  <rdf:RDF xmlns:cc="http://creativecommons.org/ns#" xmlns:dc="http://purl.org/dc/elements/1.1/" xmlns:rdf="http://www.w3.org/1999/02/22-rdf-syntax-ns#">
   <cc:Work>
    <dc:type rdf:resource="http://purl.org/dc/dcmitype/StillImage"/>
    <dc:date>2022-05-25T01:12:08.335233</dc:date>
    <dc:format>image/svg+xml</dc:format>
    <dc:creator>
     <cc:Agent>
      <dc:title>Matplotlib v3.3.4, https://matplotlib.org/</dc:title>
     </cc:Agent>
    </dc:creator>
   </cc:Work>
  </rdf:RDF>
 </metadata>
 <defs>
  <style type="text/css">*{stroke-linecap:butt;stroke-linejoin:round;}</style>
 </defs>
 <g id="figure_1">
  <g id="patch_1">
   <path d="M 0 345.6 
L 460.8 345.6 
L 460.8 0 
L 0 0 
z
" style="fill:#ffffff;"/>
  </g>
  <g id="axes_1">
   <g id="patch_2">
    <path d="M 57.6 307.584 
L 414.72 307.584 
L 414.72 41.472 
L 57.6 41.472 
z
" style="fill:#ffffff;"/>
   </g>
   <g id="PolyCollection_1">
    <defs>
     <path d="M 57.6 -38.016 
L 57.6 -279.936 
L 58.31424 -279.935954 
L 59.02848 -279.935862 
L 59.74272 -279.935722 
L 60.45696 -279.935534 
L 61.1712 -279.935294 
L 61.88544 -279.935002 
L 62.59968 -279.934653 
L 63.31392 -279.934244 
L 64.02816 -279.933771 
L 64.7424 -279.933229 
L 65.45664 -279.932614 
L 66.17088 -279.931917 
L 66.88512 -279.931134 
L 67.59936 -279.930256 
L 68.3136 -279.929274 
L 69.02784 -279.92818 
L 69.74208 -279.926963 
L 70.45632 -279.925611 
L 71.17056 -279.924113 
L 71.8848 -279.922454 
L 72.59904 -279.920621 
L 73.31328 -279.918595 
L 74.02752 -279.916361 
L 74.74176 -279.913899 
L 75.456 -279.911187 
L 76.17024 -279.908204 
L 76.88448 -279.904924 
L 77.59872 -279.901322 
L 78.31296 -279.897367 
L 79.0272 -279.89303 
L 79.74144 -279.888276 
L 80.45568 -279.88307 
L 81.16992 -279.877371 
L 81.88416 -279.871139 
L 82.5984 -279.864327 
L 83.31264 -279.856888 
L 84.02688 -279.848768 
L 84.74112 -279.839911 
L 85.45536 -279.830257 
L 86.1696 -279.819741 
L 86.88384 -279.808295 
L 87.59808 -279.795844 
L 88.31232 -279.782308 
L 89.02656 -279.767604 
L 89.7408 -279.751641 
L 90.45504 -279.734323 
L 91.16928 -279.715548 
L 91.88352 -279.695205 
L 92.59776 -279.67318 
L 93.312 -279.649349 
L 94.02624 -279.623581 
L 94.74048 -279.595737 
L 95.45472 -279.565669 
L 96.16896 -279.533223 
L 96.8832 -279.498232 
L 97.59744 -279.460524 
L 98.31168 -279.419912 
L 99.02592 -279.376204 
L 99.74016 -279.329194 
L 100.4544 -279.278667 
L 101.16864 -279.224395 
L 101.88288 -279.16614 
L 102.59712 -279.103651 
L 103.31136 -279.036665 
L 104.0256 -278.964906 
L 104.73984 -278.888085 
L 105.45408 -278.8059 
L 106.16832 -278.718034 
L 106.88256 -278.624158 
L 107.5968 -278.523928 
L 108.31104 -278.416983 
L 109.02528 -278.30295 
L 109.73952 -278.181442 
L 110.45376 -278.052052 
L 111.168 -277.914363 
L 111.88224 -277.767939 
L 112.59648 -277.61233 
L 113.31072 -277.447069 
L 114.02496 -277.271675 
L 114.7392 -277.085651 
L 115.45344 -276.888482 
L 116.16768 -276.679641 
L 116.88192 -276.458584 
L 117.59616 -276.224752 
L 118.3104 -275.977571 
L 119.02464 -275.716453 
L 119.73888 -275.440796 
L 120.45312 -275.149984 
L 121.16736 -274.843388 
L 121.8816 -274.520366 
L 122.59584 -274.180265 
L 123.31008 -273.822419 
L 124.02432 -273.446154 
L 124.73856 -273.050785 
L 125.4528 -272.635618 
L 126.16704 -272.199952 
L 126.88128 -271.743078 
L 127.59552 -271.264284 
L 128.30976 -270.762851 
L 129.024 -270.238058 
L 129.73824 -269.689181 
L 130.45248 -269.115499 
L 131.16672 -268.516288 
L 131.88096 -267.890829 
L 132.5952 -267.238406 
L 133.30944 -266.558309 
L 134.02368 -265.849836 
L 134.73792 -265.112294 
L 135.45216 -264.344999 
L 136.1664 -263.547284 
L 136.88064 -262.718492 
L 137.59488 -261.857987 
L 138.30912 -260.965147 
L 139.02336 -260.039374 
L 139.7376 -259.080092 
L 140.45184 -258.086746 
L 141.16608 -257.058813 
L 141.88032 -255.995793 
L 142.59456 -254.89722 
L 143.3088 -253.762659 
L 144.02304 -252.591709 
L 144.73728 -251.384005 
L 145.45152 -250.139221 
L 146.16576 -248.857071 
L 146.88 -247.537309 
L 147.59424 -246.179735 
L 148.30848 -244.78419 
L 149.02272 -243.350566 
L 149.73696 -241.878801 
L 150.4512 -240.368882 
L 151.16544 -238.820848 
L 151.87968 -237.23479 
L 152.59392 -235.61085 
L 153.30816 -233.949226 
L 154.0224 -232.250172 
L 154.73664 -230.513995 
L 155.45088 -228.741061 
L 156.16512 -226.931789 
L 156.87936 -225.086659 
L 157.5936 -223.206206 
L 158.30784 -221.291024 
L 159.02208 -219.34176 
L 159.73632 -217.359123 
L 160.45056 -215.343876 
L 161.1648 -213.296836 
L 161.87904 -211.218878 
L 162.59328 -209.110929 
L 163.30752 -206.97397 
L 164.02176 -204.809034 
L 164.736 -202.617203 
L 165.45024 -200.399609 
L 166.16448 -198.15743 
L 166.87872 -195.891891 
L 167.59296 -193.604258 
L 168.3072 -191.295839 
L 169.02144 -188.967983 
L 169.73568 -186.622073 
L 170.44992 -184.259526 
L 171.16416 -181.881793 
L 171.8784 -179.490351 
L 172.59264 -177.086704 
L 173.30688 -174.672379 
L 174.02112 -172.248925 
L 174.73536 -169.817906 
L 175.4496 -167.380901 
L 176.16384 -164.939499 
L 176.87808 -162.495298 
L 177.59232 -160.049901 
L 178.30656 -157.604912 
L 179.0208 -155.161933 
L 179.73504 -152.722562 
L 180.44928 -150.288388 
L 181.16352 -147.86099 
L 181.87776 -145.441933 
L 182.592 -143.032762 
L 183.30624 -140.635006 
L 184.02048 -138.250168 
L 184.73472 -135.879726 
L 185.44896 -133.525128 
L 186.1632 -131.187794 
L 186.87744 -128.869106 
L 187.59168 -126.570412 
L 188.30592 -124.29302 
L 189.02016 -122.0382 
L 189.7344 -119.807175 
L 190.44864 -117.601125 
L 191.16288 -115.421185 
L 191.87712 -113.268439 
L 192.59136 -111.143922 
L 193.3056 -109.048618 
L 194.01984 -106.983459 
L 194.73408 -104.949323 
L 195.44832 -102.947034 
L 196.16256 -100.977361 
L 196.8768 -99.041017 
L 197.59104 -97.13866 
L 198.30528 -95.270889 
L 199.01952 -93.438251 
L 199.73376 -91.641232 
L 200.448 -89.880266 
L 201.16224 -88.155728 
L 201.87648 -86.46794 
L 202.59072 -84.817167 
L 203.30496 -83.203621 
L 204.0192 -81.627462 
L 204.73344 -80.088796 
L 205.44768 -78.58768 
L 206.16192 -77.124117 
L 206.87616 -75.698067 
L 207.5904 -74.309438 
L 208.30464 -72.958096 
L 209.01888 -71.643859 
L 209.73312 -70.366506 
L 210.44736 -69.125772 
L 211.1616 -67.921355 
L 211.87584 -66.752915 
L 212.59008 -65.620076 
L 213.30432 -64.522429 
L 214.01856 -63.459533 
L 214.7328 -62.430917 
L 215.44704 -61.436081 
L 216.16128 -60.4745 
L 216.87552 -59.545626 
L 217.58976 -58.648887 
L 218.304 -57.783691 
L 219.01824 -56.949429 
L 219.73248 -56.145473 
L 220.44672 -55.371182 
L 221.16096 -54.625902 
L 221.8752 -53.908969 
L 222.58944 -53.219706 
L 223.30368 -52.557432 
L 224.01792 -51.921459 
L 224.73216 -51.311093 
L 225.4464 -50.725638 
L 226.16064 -50.164397 
L 226.87488 -49.626673 
L 227.58912 -49.111768 
L 228.30336 -48.61899 
L 229.0176 -48.147647 
L 229.73184 -47.697055 
L 230.44608 -47.266535 
L 231.16032 -46.855412 
L 231.87456 -46.463024 
L 232.5888 -46.088715 
L 233.30304 -45.731837 
L 234.01728 -45.391756 
L 234.73152 -45.067847 
L 235.44576 -44.759495 
L 236.16 -44.466101 
L 236.87424 -44.187076 
L 237.58848 -43.921844 
L 238.30272 -43.669845 
L 239.01696 -43.43053 
L 239.7312 -43.203365 
L 240.44544 -42.987831 
L 241.15968 -42.783424 
L 241.87392 -42.589652 
L 242.58816 -42.406041 
L 243.3024 -42.23213 
L 244.01664 -42.067472 
L 244.73088 -41.911636 
L 245.44512 -41.764207 
L 246.15936 -41.624781 
L 246.8736 -41.492971 
L 247.58784 -41.368404 
L 248.30208 -41.25072 
L 249.01632 -41.139574 
L 249.73056 -41.034634 
L 250.4448 -40.935582 
L 251.15904 -40.842111 
L 251.87328 -40.75393 
L 252.58752 -40.670759 
L 253.30176 -40.592328 
L 254.016 -40.518384 
L 254.73024 -40.44868 
L 255.44448 -40.382984 
L 256.15872 -40.321074 
L 256.87296 -40.262738 
L 257.5872 -40.207774 
L 258.30144 -40.155991 
L 259.01568 -40.107206 
L 259.72992 -40.061246 
L 260.44416 -40.017947 
L 261.1584 -39.977154 
L 261.87264 -39.938719 
L 262.58688 -39.902501 
L 263.30112 -39.86837 
L 264.01536 -39.836199 
L 264.7296 -39.805871 
L 265.44384 -39.777274 
L 266.15808 -39.750302 
L 266.87232 -39.724856 
L 267.58656 -39.700843 
L 268.3008 -39.678174 
L 269.01504 -39.656766 
L 269.72928 -39.63654 
L 270.44352 -39.617424 
L 271.15776 -39.599347 
L 271.872 -39.582246 
L 272.58624 -39.566058 
L 273.30048 -39.550727 
L 274.01472 -39.536199 
L 274.72896 -39.522423 
L 275.4432 -39.509352 
L 276.15744 -39.496942 
L 276.87168 -39.485151 
L 277.58592 -39.47394 
L 278.30016 -39.463274 
L 279.0144 -39.453118 
L 279.72864 -39.44344 
L 280.44288 -39.43421 
L 281.15712 -39.425402 
L 281.87136 -39.416988 
L 282.5856 -39.408944 
L 283.29984 -39.401248 
L 284.01408 -39.393878 
L 284.72832 -39.386815 
L 285.44256 -39.38004 
L 286.1568 -39.373536 
L 286.87104 -39.367286 
L 287.58528 -39.361276 
L 288.29952 -39.355491 
L 289.01376 -39.349919 
L 289.728 -39.344547 
L 290.44224 -39.339363 
L 291.15648 -39.334356 
L 291.87072 -39.329517 
L 292.58496 -39.324836 
L 293.2992 -39.320304 
L 294.01344 -39.315914 
L 294.72768 -39.311656 
L 295.44192 -39.307523 
L 296.15616 -39.30351 
L 296.8704 -39.299609 
L 297.58464 -39.295814 
L 298.29888 -39.292119 
L 299.01312 -39.288518 
L 299.72736 -39.285008 
L 300.4416 -39.281581 
L 301.15584 -39.278235 
L 301.87008 -39.274963 
L 302.58432 -39.271762 
L 303.29856 -39.268628 
L 304.0128 -39.265555 
L 304.72704 -39.262541 
L 305.44128 -39.259581 
L 306.15552 -39.256671 
L 306.86976 -39.253808 
L 307.584 -39.250987 
L 308.29824 -39.248205 
L 309.01248 -39.245458 
L 309.72672 -39.242742 
L 310.44096 -39.240053 
L 311.1552 -39.237387 
L 311.86944 -39.234739 
L 312.58368 -39.232106 
L 313.29792 -39.229482 
L 314.01216 -39.226863 
L 314.7264 -39.224243 
L 315.44064 -39.221619 
L 316.15488 -39.218983 
L 316.86912 -39.216331 
L 317.58336 -39.213655 
L 318.2976 -39.210949 
L 319.01184 -39.208205 
L 319.72608 -39.205417 
L 320.44032 -39.202574 
L 321.15456 -39.19967 
L 321.8688 -39.196693 
L 322.58304 -39.193633 
L 323.29728 -39.19048 
L 324.01152 -39.18722 
L 324.72576 -39.183841 
L 325.44 -39.180328 
L 326.15424 -39.176666 
L 326.86848 -39.172839 
L 327.58272 -39.168828 
L 328.29696 -39.164615 
L 329.0112 -39.160178 
L 329.72544 -39.155495 
L 330.43968 -39.150542 
L 331.15392 -39.145294 
L 331.86816 -39.139722 
L 332.5824 -39.133798 
L 333.29664 -39.12749 
L 334.01088 -39.120765 
L 334.72512 -39.113587 
L 335.43936 -39.10592 
L 336.1536 -39.097725 
L 336.86784 -39.08896 
L 337.58208 -39.079584 
L 338.29632 -39.069552 
L 339.01056 -39.05882 
L 339.7248 -39.047343 
L 340.43904 -39.035075 
L 341.15328 -39.021969 
L 341.86752 -39.007983 
L 342.58176 -38.993072 
L 343.296 -38.977198 
L 344.01024 -38.960323 
L 344.72448 -38.942417 
L 345.43872 -38.923452 
L 346.15296 -38.903412 
L 346.8672 -38.882287 
L 347.58144 -38.860075 
L 348.29568 -38.836791 
L 349.00992 -38.812456 
L 349.72416 -38.787109 
L 350.4384 -38.760803 
L 351.15264 -38.733603 
L 351.86688 -38.705594 
L 352.58112 -38.676871 
L 353.29536 -38.647547 
L 354.0096 -38.617747 
L 354.72384 -38.587607 
L 355.43808 -38.557274 
L 356.15232 -38.526901 
L 356.86656 -38.496644 
L 357.5808 -38.466663 
L 358.29504 -38.437113 
L 359.00928 -38.408146 
L 359.72352 -38.379904 
L 360.43776 -38.352518 
L 361.152 -38.326108 
L 361.86624 -38.300774 
L 362.58048 -38.276604 
L 363.29472 -38.253665 
L 364.00896 -38.232008 
L 364.7232 -38.211665 
L 365.43744 -38.192652 
L 366.15168 -38.174969 
L 366.86592 -38.1586 
L 367.58016 -38.143519 
L 368.2944 -38.129685 
L 369.00864 -38.117052 
L 369.72288 -38.105562 
L 370.43712 -38.095156 
L 371.15136 -38.085768 
L 371.8656 -38.07733 
L 372.57984 -38.069774 
L 373.29408 -38.063031 
L 374.00832 -38.057034 
L 374.72256 -38.051718 
L 375.4368 -38.04702 
L 376.15104 -38.04288 
L 376.86528 -38.039244 
L 377.57952 -38.036058 
L 378.29376 -38.033274 
L 379.008 -38.030848 
L 379.72224 -38.028738 
L 380.43648 -38.026909 
L 381.15072 -38.025326 
L 381.86496 -38.023958 
L 382.5792 -38.02278 
L 383.29344 -38.021768 
L 384.00768 -38.020898 
L 384.72192 -38.020154 
L 385.43616 -38.019517 
L 386.1504 -38.018974 
L 386.86464 -38.018511 
L 387.57888 -38.018117 
L 388.29312 -38.017782 
L 389.00736 -38.017499 
L 389.7216 -38.017259 
L 390.43584 -38.017056 
L 391.15008 -38.016884 
L 391.86432 -38.01674 
L 392.57856 -38.016618 
L 393.2928 -38.016516 
L 394.00704 -38.01643 
L 394.72128 -38.016358 
L 395.43552 -38.016298 
L 396.14976 -38.016248 
L 396.864 -38.016206 
L 397.57824 -38.016171 
L 398.29248 -38.016141 
L 399.00672 -38.016117 
L 399.72096 -38.016097 
L 400.4352 -38.01608 
L 401.14944 -38.016066 
L 401.86368 -38.016054 
L 402.57792 -38.016045 
L 403.29216 -38.016037 
L 404.0064 -38.01603 
L 404.72064 -38.016025 
L 405.43488 -38.01602 
L 406.14912 -38.016017 
L 406.86336 -38.016014 
L 407.5776 -38.016011 
L 408.29184 -38.016009 
L 409.00608 -38.016008 
L 409.72032 -38.016006 
L 410.43456 -38.016005 
L 411.1488 -38.016004 
L 411.86304 -38.016004 
L 412.57728 -38.016003 
L 413.29152 -38.016003 
L 414.00576 -38.016003 
L 414.72 -38.016003 
L 414.72 -38.016 
L 414.72 -38.016 
L 414.00576 -38.016 
L 413.29152 -38.016 
L 412.57728 -38.016 
L 411.86304 -38.016 
L 411.1488 -38.016 
L 410.43456 -38.016 
L 409.72032 -38.016 
L 409.00608 -38.016 
L 408.29184 -38.016 
L 407.5776 -38.016 
L 406.86336 -38.016 
L 406.14912 -38.016 
L 405.43488 -38.016 
L 404.72064 -38.016 
L 404.0064 -38.016 
L 403.29216 -38.016 
L 402.57792 -38.016 
L 401.86368 -38.016 
L 401.14944 -38.016 
L 400.4352 -38.016 
L 399.72096 -38.016 
L 399.00672 -38.016 
L 398.29248 -38.016 
L 397.57824 -38.016 
L 396.864 -38.016 
L 396.14976 -38.016 
L 395.43552 -38.016 
L 394.72128 -38.016 
L 394.00704 -38.016 
L 393.2928 -38.016 
L 392.57856 -38.016 
L 391.86432 -38.016 
L 391.15008 -38.016 
L 390.43584 -38.016 
L 389.7216 -38.016 
L 389.00736 -38.016 
L 388.29312 -38.016 
L 387.57888 -38.016 
L 386.86464 -38.016 
L 386.1504 -38.016 
L 385.43616 -38.016 
L 384.72192 -38.016 
L 384.00768 -38.016 
L 383.29344 -38.016 
L 382.5792 -38.016 
L 381.86496 -38.016 
L 381.15072 -38.016 
L 380.43648 -38.016 
L 379.72224 -38.016 
L 379.008 -38.016 
L 378.29376 -38.016 
L 377.57952 -38.016 
L 376.86528 -38.016 
L 376.15104 -38.016 
L 375.4368 -38.016 
L 374.72256 -38.016 
L 374.00832 -38.016 
L 373.29408 -38.016 
L 372.57984 -38.016 
L 371.8656 -38.016 
L 371.15136 -38.016 
L 370.43712 -38.016 
L 369.72288 -38.016 
L 369.00864 -38.016 
L 368.2944 -38.016 
L 367.58016 -38.016 
L 366.86592 -38.016 
L 366.15168 -38.016 
L 365.43744 -38.016 
L 364.7232 -38.016 
L 364.00896 -38.016 
L 363.29472 -38.016 
L 362.58048 -38.016 
L 361.86624 -38.016 
L 361.152 -38.016 
L 360.43776 -38.016 
L 359.72352 -38.016 
L 359.00928 -38.016 
L 358.29504 -38.016 
L 357.5808 -38.016 
L 356.86656 -38.016 
L 356.15232 -38.016 
L 355.43808 -38.016 
L 354.72384 -38.016 
L 354.0096 -38.016 
L 353.29536 -38.016 
L 352.58112 -38.016 
L 351.86688 -38.016 
L 351.15264 -38.016 
L 350.4384 -38.016 
L 349.72416 -38.016 
L 349.00992 -38.016 
L 348.29568 -38.016 
L 347.58144 -38.016 
L 346.8672 -38.016 
L 346.15296 -38.016 
L 345.43872 -38.016 
L 344.72448 -38.016 
L 344.01024 -38.016 
L 343.296 -38.016 
L 342.58176 -38.016 
L 341.86752 -38.016 
L 341.15328 -38.016 
L 340.43904 -38.016 
L 339.7248 -38.016 
L 339.01056 -38.016 
L 338.29632 -38.016 
L 337.58208 -38.016 
L 336.86784 -38.016 
L 336.1536 -38.016 
L 335.43936 -38.016 
L 334.72512 -38.016 
L 334.01088 -38.016 
L 333.29664 -38.016 
L 332.5824 -38.016 
L 331.86816 -38.016 
L 331.15392 -38.016 
L 330.43968 -38.016 
L 329.72544 -38.016 
L 329.0112 -38.016 
L 328.29696 -38.016 
L 327.58272 -38.016 
L 326.86848 -38.016 
L 326.15424 -38.016 
L 325.44 -38.016 
L 324.72576 -38.016 
L 324.01152 -38.016 
L 323.29728 -38.016 
L 322.58304 -38.016 
L 321.8688 -38.016 
L 321.15456 -38.016 
L 320.44032 -38.016 
L 319.72608 -38.016 
L 319.01184 -38.016 
L 318.2976 -38.016 
L 317.58336 -38.016 
L 316.86912 -38.016 
L 316.15488 -38.016 
L 315.44064 -38.016 
L 314.7264 -38.016 
L 314.01216 -38.016 
L 313.29792 -38.016 
L 312.58368 -38.016 
L 311.86944 -38.016 
L 311.1552 -38.016 
L 310.44096 -38.016 
L 309.72672 -38.016 
L 309.01248 -38.016 
L 308.29824 -38.016 
L 307.584 -38.016 
L 306.86976 -38.016 
L 306.15552 -38.016 
L 305.44128 -38.016 
L 304.72704 -38.016 
L 304.0128 -38.016 
L 303.29856 -38.016 
L 302.58432 -38.016 
L 301.87008 -38.016 
L 301.15584 -38.016 
L 300.4416 -38.016 
L 299.72736 -38.016 
L 299.01312 -38.016 
L 298.29888 -38.016 
L 297.58464 -38.016 
L 296.8704 -38.016 
L 296.15616 -38.016 
L 295.44192 -38.016 
L 294.72768 -38.016 
L 294.01344 -38.016 
L 293.2992 -38.016 
L 292.58496 -38.016 
L 291.87072 -38.016 
L 291.15648 -38.016 
L 290.44224 -38.016 
L 289.728 -38.016 
L 289.01376 -38.016 
L 288.29952 -38.016 
L 287.58528 -38.016 
L 286.87104 -38.016 
L 286.1568 -38.016 
L 285.44256 -38.016 
L 284.72832 -38.016 
L 284.01408 -38.016 
L 283.29984 -38.016 
L 282.5856 -38.016 
L 281.87136 -38.016 
L 281.15712 -38.016 
L 280.44288 -38.016 
L 279.72864 -38.016 
L 279.0144 -38.016 
L 278.30016 -38.016 
L 277.58592 -38.016 
L 276.87168 -38.016 
L 276.15744 -38.016 
L 275.4432 -38.016 
L 274.72896 -38.016 
L 274.01472 -38.016 
L 273.30048 -38.016 
L 272.58624 -38.016 
L 271.872 -38.016 
L 271.15776 -38.016 
L 270.44352 -38.016 
L 269.72928 -38.016 
L 269.01504 -38.016 
L 268.3008 -38.016 
L 267.58656 -38.016 
L 266.87232 -38.016 
L 266.15808 -38.016 
L 265.44384 -38.016 
L 264.7296 -38.016 
L 264.01536 -38.016 
L 263.30112 -38.016 
L 262.58688 -38.016 
L 261.87264 -38.016 
L 261.1584 -38.016 
L 260.44416 -38.016 
L 259.72992 -38.016 
L 259.01568 -38.016 
L 258.30144 -38.016 
L 257.5872 -38.016 
L 256.87296 -38.016 
L 256.15872 -38.016 
L 255.44448 -38.016 
L 254.73024 -38.016 
L 254.016 -38.016 
L 253.30176 -38.016 
L 252.58752 -38.016 
L 251.87328 -38.016 
L 251.15904 -38.016 
L 250.4448 -38.016 
L 249.73056 -38.016 
L 249.01632 -38.016 
L 248.30208 -38.016 
L 247.58784 -38.016 
L 246.8736 -38.016 
L 246.15936 -38.016 
L 245.44512 -38.016 
L 244.73088 -38.016 
L 244.01664 -38.016 
L 243.3024 -38.016 
L 242.58816 -38.016 
L 241.87392 -38.016 
L 241.15968 -38.016 
L 240.44544 -38.016 
L 239.7312 -38.016 
L 239.01696 -38.016 
L 238.30272 -38.016 
L 237.58848 -38.016 
L 236.87424 -38.016 
L 236.16 -38.016 
L 235.44576 -38.016 
L 234.73152 -38.016 
L 234.01728 -38.016 
L 233.30304 -38.016 
L 232.5888 -38.016 
L 231.87456 -38.016 
L 231.16032 -38.016 
L 230.44608 -38.016 
L 229.73184 -38.016 
L 229.0176 -38.016 
L 228.30336 -38.016 
L 227.58912 -38.016 
L 226.87488 -38.016 
L 226.16064 -38.016 
L 225.4464 -38.016 
L 224.73216 -38.016 
L 224.01792 -38.016 
L 223.30368 -38.016 
L 222.58944 -38.016 
L 221.8752 -38.016 
L 221.16096 -38.016 
L 220.44672 -38.016 
L 219.73248 -38.016 
L 219.01824 -38.016 
L 218.304 -38.016 
L 217.58976 -38.016 
L 216.87552 -38.016 
L 216.16128 -38.016 
L 215.44704 -38.016 
L 214.7328 -38.016 
L 214.01856 -38.016 
L 213.30432 -38.016 
L 212.59008 -38.016 
L 211.87584 -38.016 
L 211.1616 -38.016 
L 210.44736 -38.016 
L 209.73312 -38.016 
L 209.01888 -38.016 
L 208.30464 -38.016 
L 207.5904 -38.016 
L 206.87616 -38.016 
L 206.16192 -38.016 
L 205.44768 -38.016 
L 204.73344 -38.016 
L 204.0192 -38.016 
L 203.30496 -38.016 
L 202.59072 -38.016 
L 201.87648 -38.016 
L 201.16224 -38.016 
L 200.448 -38.016 
L 199.73376 -38.016 
L 199.01952 -38.016 
L 198.30528 -38.016 
L 197.59104 -38.016 
L 196.8768 -38.016 
L 196.16256 -38.016 
L 195.44832 -38.016 
L 194.73408 -38.016 
L 194.01984 -38.016 
L 193.3056 -38.016 
L 192.59136 -38.016 
L 191.87712 -38.016 
L 191.16288 -38.016 
L 190.44864 -38.016 
L 189.7344 -38.016 
L 189.02016 -38.016 
L 188.30592 -38.016 
L 187.59168 -38.016 
L 186.87744 -38.016 
L 186.1632 -38.016 
L 185.44896 -38.016 
L 184.73472 -38.016 
L 184.02048 -38.016 
L 183.30624 -38.016 
L 182.592 -38.016 
L 181.87776 -38.016 
L 181.16352 -38.016 
L 180.44928 -38.016 
L 179.73504 -38.016 
L 179.0208 -38.016 
L 178.30656 -38.016 
L 177.59232 -38.016 
L 176.87808 -38.016 
L 176.16384 -38.016 
L 175.4496 -38.016 
L 174.73536 -38.016 
L 174.02112 -38.016 
L 173.30688 -38.016 
L 172.59264 -38.016 
L 171.8784 -38.016 
L 171.16416 -38.016 
L 170.44992 -38.016 
L 169.73568 -38.016 
L 169.02144 -38.016 
L 168.3072 -38.016 
L 167.59296 -38.016 
L 166.87872 -38.016 
L 166.16448 -38.016 
L 165.45024 -38.016 
L 164.736 -38.016 
L 164.02176 -38.016 
L 163.30752 -38.016 
L 162.59328 -38.016 
L 161.87904 -38.016 
L 161.1648 -38.016 
L 160.45056 -38.016 
L 159.73632 -38.016 
L 159.02208 -38.016 
L 158.30784 -38.016 
L 157.5936 -38.016 
L 156.87936 -38.016 
L 156.16512 -38.016 
L 155.45088 -38.016 
L 154.73664 -38.016 
L 154.0224 -38.016 
L 153.30816 -38.016 
L 152.59392 -38.016 
L 151.87968 -38.016 
L 151.16544 -38.016 
L 150.4512 -38.016 
L 149.73696 -38.016 
L 149.02272 -38.016 
L 148.30848 -38.016 
L 147.59424 -38.016 
L 146.88 -38.016 
L 146.16576 -38.016 
L 145.45152 -38.016 
L 144.73728 -38.016 
L 144.02304 -38.016 
L 143.3088 -38.016 
L 142.59456 -38.016 
L 141.88032 -38.016 
L 141.16608 -38.016 
L 140.45184 -38.016 
L 139.7376 -38.016 
L 139.02336 -38.016 
L 138.30912 -38.016 
L 137.59488 -38.016 
L 136.88064 -38.016 
L 136.1664 -38.016 
L 135.45216 -38.016 
L 134.73792 -38.016 
L 134.02368 -38.016 
L 133.30944 -38.016 
L 132.5952 -38.016 
L 131.88096 -38.016 
L 131.16672 -38.016 
L 130.45248 -38.016 
L 129.73824 -38.016 
L 129.024 -38.016 
L 128.30976 -38.016 
L 127.59552 -38.016 
L 126.88128 -38.016 
L 126.16704 -38.016 
L 125.4528 -38.016 
L 124.73856 -38.016 
L 124.02432 -38.016 
L 123.31008 -38.016 
L 122.59584 -38.016 
L 121.8816 -38.016 
L 121.16736 -38.016 
L 120.45312 -38.016 
L 119.73888 -38.016 
L 119.02464 -38.016 
L 118.3104 -38.016 
L 117.59616 -38.016 
L 116.88192 -38.016 
L 116.16768 -38.016 
L 115.45344 -38.016 
L 114.7392 -38.016 
L 114.02496 -38.016 
L 113.31072 -38.016 
L 112.59648 -38.016 
L 111.88224 -38.016 
L 111.168 -38.016 
L 110.45376 -38.016 
L 109.73952 -38.016 
L 109.02528 -38.016 
L 108.31104 -38.016 
L 107.5968 -38.016 
L 106.88256 -38.016 
L 106.16832 -38.016 
L 105.45408 -38.016 
L 104.73984 -38.016 
L 104.0256 -38.016 
L 103.31136 -38.016 
L 102.59712 -38.016 
L 101.88288 -38.016 
L 101.16864 -38.016 
L 100.4544 -38.016 
L 99.74016 -38.016 
L 99.02592 -38.016 
L 98.31168 -38.016 
L 97.59744 -38.016 
L 96.8832 -38.016 
L 96.16896 -38.016 
L 95.45472 -38.016 
L 94.74048 -38.016 
L 94.02624 -38.016 
L 93.312 -38.016 
L 92.59776 -38.016 
L 91.88352 -38.016 
L 91.16928 -38.016 
L 90.45504 -38.016 
L 89.7408 -38.016 
L 89.02656 -38.016 
L 88.31232 -38.016 
L 87.59808 -38.016 
L 86.88384 -38.016 
L 86.1696 -38.016 
L 85.45536 -38.016 
L 84.74112 -38.016 
L 84.02688 -38.016 
L 83.31264 -38.016 
L 82.5984 -38.016 
L 81.88416 -38.016 
L 81.16992 -38.016 
L 80.45568 -38.016 
L 79.74144 -38.016 
L 79.0272 -38.016 
L 78.31296 -38.016 
L 77.59872 -38.016 
L 76.88448 -38.016 
L 76.17024 -38.016 
L 75.456 -38.016 
L 74.74176 -38.016 
L 74.02752 -38.016 
L 73.31328 -38.016 
L 72.59904 -38.016 
L 71.8848 -38.016 
L 71.17056 -38.016 
L 70.45632 -38.016 
L 69.74208 -38.016 
L 69.02784 -38.016 
L 68.3136 -38.016 
L 67.59936 -38.016 
L 66.88512 -38.016 
L 66.17088 -38.016 
L 65.45664 -38.016 
L 64.7424 -38.016 
L 64.02816 -38.016 
L 63.31392 -38.016 
L 62.59968 -38.016 
L 61.88544 -38.016 
L 61.1712 -38.016 
L 60.45696 -38.016 
L 59.74272 -38.016 
L 59.02848 -38.016 
L 58.31424 -38.016 
L 57.6 -38.016 
z
" id="m30ef0ace0c" style="stroke:#509369;"/>
    </defs>
    <g clip-path="url(#pf6f1fb31fb)">
     <use style="fill:#509369;stroke:#509369;" x="0" xlink:href="#m30ef0ace0c" y="345.6"/>
    </g>
   </g>
   <g id="PolyCollection_2">
    <defs>
     <path d="M 57.6 -279.939508 
L 57.6 -279.936 
L 58.31424 -279.935954 
L 59.02848 -279.935862 
L 59.74272 -279.935722 
L 60.45696 -279.935534 
L 61.1712 -279.935294 
L 61.88544 -279.935002 
L 62.59968 -279.934653 
L 63.31392 -279.934244 
L 64.02816 -279.933771 
L 64.7424 -279.933229 
L 65.45664 -279.932614 
L 66.17088 -279.931917 
L 66.88512 -279.931134 
L 67.59936 -279.930256 
L 68.3136 -279.929274 
L 69.02784 -279.92818 
L 69.74208 -279.926963 
L 70.45632 -279.925611 
L 71.17056 -279.924113 
L 71.8848 -279.922454 
L 72.59904 -279.920621 
L 73.31328 -279.918595 
L 74.02752 -279.916361 
L 74.74176 -279.913899 
L 75.456 -279.911187 
L 76.17024 -279.908204 
L 76.88448 -279.904924 
L 77.59872 -279.901322 
L 78.31296 -279.897367 
L 79.0272 -279.89303 
L 79.74144 -279.888276 
L 80.45568 -279.88307 
L 81.16992 -279.877371 
L 81.88416 -279.871139 
L 82.5984 -279.864327 
L 83.31264 -279.856888 
L 84.02688 -279.848768 
L 84.74112 -279.839911 
L 85.45536 -279.830257 
L 86.1696 -279.819741 
L 86.88384 -279.808295 
L 87.59808 -279.795844 
L 88.31232 -279.782308 
L 89.02656 -279.767604 
L 89.7408 -279.751641 
L 90.45504 -279.734323 
L 91.16928 -279.715548 
L 91.88352 -279.695205 
L 92.59776 -279.67318 
L 93.312 -279.649349 
L 94.02624 -279.623581 
L 94.74048 -279.595737 
L 95.45472 -279.565669 
L 96.16896 -279.533223 
L 96.8832 -279.498232 
L 97.59744 -279.460524 
L 98.31168 -279.419912 
L 99.02592 -279.376204 
L 99.74016 -279.329194 
L 100.4544 -279.278667 
L 101.16864 -279.224395 
L 101.88288 -279.16614 
L 102.59712 -279.103651 
L 103.31136 -279.036665 
L 104.0256 -278.964906 
L 104.73984 -278.888085 
L 105.45408 -278.8059 
L 106.16832 -278.718034 
L 106.88256 -278.624158 
L 107.5968 -278.523928 
L 108.31104 -278.416983 
L 109.02528 -278.30295 
L 109.73952 -278.181442 
L 110.45376 -278.052052 
L 111.168 -277.914363 
L 111.88224 -277.767939 
L 112.59648 -277.61233 
L 113.31072 -277.447069 
L 114.02496 -277.271675 
L 114.7392 -277.085651 
L 115.45344 -276.888482 
L 116.16768 -276.679641 
L 116.88192 -276.458584 
L 117.59616 -276.224752 
L 118.3104 -275.977571 
L 119.02464 -275.716453 
L 119.73888 -275.440796 
L 120.45312 -275.149984 
L 121.16736 -274.843388 
L 121.8816 -274.520366 
L 122.59584 -274.180265 
L 123.31008 -273.822419 
L 124.02432 -273.446154 
L 124.73856 -273.050785 
L 125.4528 -272.635618 
L 126.16704 -272.199952 
L 126.88128 -271.743078 
L 127.59552 -271.264284 
L 128.30976 -270.762851 
L 129.024 -270.238058 
L 129.73824 -269.689181 
L 130.45248 -269.115499 
L 131.16672 -268.516288 
L 131.88096 -267.890829 
L 132.5952 -267.238406 
L 133.30944 -266.558309 
L 134.02368 -265.849836 
L 134.73792 -265.112294 
L 135.45216 -264.344999 
L 136.1664 -263.547284 
L 136.88064 -262.718492 
L 137.59488 -261.857987 
L 138.30912 -260.965147 
L 139.02336 -260.039374 
L 139.7376 -259.080092 
L 140.45184 -258.086746 
L 141.16608 -257.058813 
L 141.88032 -255.995793 
L 142.59456 -254.89722 
L 143.3088 -253.762659 
L 144.02304 -252.591709 
L 144.73728 -251.384005 
L 145.45152 -250.139221 
L 146.16576 -248.857071 
L 146.88 -247.537309 
L 147.59424 -246.179735 
L 148.30848 -244.78419 
L 149.02272 -243.350566 
L 149.73696 -241.878801 
L 150.4512 -240.368882 
L 151.16544 -238.820848 
L 151.87968 -237.23479 
L 152.59392 -235.61085 
L 153.30816 -233.949226 
L 154.0224 -232.250172 
L 154.73664 -230.513995 
L 155.45088 -228.741061 
L 156.16512 -226.931789 
L 156.87936 -225.086659 
L 157.5936 -223.206206 
L 158.30784 -221.291024 
L 159.02208 -219.34176 
L 159.73632 -217.359123 
L 160.45056 -215.343876 
L 161.1648 -213.296836 
L 161.87904 -211.218878 
L 162.59328 -209.110929 
L 163.30752 -206.97397 
L 164.02176 -204.809034 
L 164.736 -202.617203 
L 165.45024 -200.399609 
L 166.16448 -198.15743 
L 166.87872 -195.891891 
L 167.59296 -193.604258 
L 168.3072 -191.295839 
L 169.02144 -188.967983 
L 169.73568 -186.622073 
L 170.44992 -184.259526 
L 171.16416 -181.881793 
L 171.8784 -179.490351 
L 172.59264 -177.086704 
L 173.30688 -174.672379 
L 174.02112 -172.248925 
L 174.73536 -169.817906 
L 175.4496 -167.380901 
L 176.16384 -164.939499 
L 176.87808 -162.495298 
L 177.59232 -160.049901 
L 178.30656 -157.604912 
L 179.0208 -155.161933 
L 179.73504 -152.722562 
L 180.44928 -150.288388 
L 181.16352 -147.86099 
L 181.87776 -145.441933 
L 182.592 -143.032762 
L 183.30624 -140.635006 
L 184.02048 -138.250168 
L 184.73472 -135.879726 
L 185.44896 -133.525128 
L 186.1632 -131.187794 
L 186.87744 -128.869106 
L 187.59168 -126.570412 
L 188.30592 -124.29302 
L 189.02016 -122.0382 
L 189.7344 -119.807175 
L 190.44864 -117.601125 
L 191.16288 -115.421185 
L 191.87712 -113.268439 
L 192.59136 -111.143922 
L 193.3056 -109.048618 
L 194.01984 -106.983459 
L 194.73408 -104.949323 
L 195.44832 -102.947034 
L 196.16256 -100.977361 
L 196.8768 -99.041017 
L 197.59104 -97.13866 
L 198.30528 -95.270889 
L 199.01952 -93.438251 
L 199.73376 -91.641232 
L 200.448 -89.880266 
L 201.16224 -88.155728 
L 201.87648 -86.46794 
L 202.59072 -84.817167 
L 203.30496 -83.203621 
L 204.0192 -81.627462 
L 204.73344 -80.088796 
L 205.44768 -78.58768 
L 206.16192 -77.124117 
L 206.87616 -75.698067 
L 207.5904 -74.309438 
L 208.30464 -72.958096 
L 209.01888 -71.643859 
L 209.73312 -70.366506 
L 210.44736 -69.125772 
L 211.1616 -67.921355 
L 211.87584 -66.752915 
L 212.59008 -65.620076 
L 213.30432 -64.522429 
L 214.01856 -63.459533 
L 214.7328 -62.430917 
L 215.44704 -61.436081 
L 216.16128 -60.4745 
L 216.87552 -59.545626 
L 217.58976 -58.648887 
L 218.304 -57.783691 
L 219.01824 -56.949429 
L 219.73248 -56.145473 
L 220.44672 -55.371182 
L 221.16096 -54.625902 
L 221.8752 -53.908969 
L 222.58944 -53.219706 
L 223.30368 -52.557432 
L 224.01792 -51.921459 
L 224.73216 -51.311093 
L 225.4464 -50.725638 
L 226.16064 -50.164397 
L 226.87488 -49.626673 
L 227.58912 -49.111768 
L 228.30336 -48.61899 
L 229.0176 -48.147647 
L 229.73184 -47.697055 
L 230.44608 -47.266535 
L 231.16032 -46.855412 
L 231.87456 -46.463024 
L 232.5888 -46.088715 
L 233.30304 -45.731837 
L 234.01728 -45.391756 
L 234.73152 -45.067847 
L 235.44576 -44.759495 
L 236.16 -44.466101 
L 236.87424 -44.187076 
L 237.58848 -43.921844 
L 238.30272 -43.669845 
L 239.01696 -43.43053 
L 239.7312 -43.203365 
L 240.44544 -42.987831 
L 241.15968 -42.783424 
L 241.87392 -42.589652 
L 242.58816 -42.406041 
L 243.3024 -42.23213 
L 244.01664 -42.067472 
L 244.73088 -41.911636 
L 245.44512 -41.764207 
L 246.15936 -41.624781 
L 246.8736 -41.492971 
L 247.58784 -41.368404 
L 248.30208 -41.25072 
L 249.01632 -41.139574 
L 249.73056 -41.034634 
L 250.4448 -40.935582 
L 251.15904 -40.842111 
L 251.87328 -40.75393 
L 252.58752 -40.670759 
L 253.30176 -40.592328 
L 254.016 -40.518384 
L 254.73024 -40.44868 
L 255.44448 -40.382984 
L 256.15872 -40.321074 
L 256.87296 -40.262738 
L 257.5872 -40.207774 
L 258.30144 -40.155991 
L 259.01568 -40.107206 
L 259.72992 -40.061246 
L 260.44416 -40.017947 
L 261.1584 -39.977154 
L 261.87264 -39.938719 
L 262.58688 -39.902501 
L 263.30112 -39.86837 
L 264.01536 -39.836199 
L 264.7296 -39.805871 
L 265.44384 -39.777274 
L 266.15808 -39.750302 
L 266.87232 -39.724856 
L 267.58656 -39.700843 
L 268.3008 -39.678174 
L 269.01504 -39.656766 
L 269.72928 -39.63654 
L 270.44352 -39.617424 
L 271.15776 -39.599347 
L 271.872 -39.582246 
L 272.58624 -39.566058 
L 273.30048 -39.550727 
L 274.01472 -39.536199 
L 274.72896 -39.522423 
L 275.4432 -39.509352 
L 276.15744 -39.496942 
L 276.87168 -39.485151 
L 277.58592 -39.47394 
L 278.30016 -39.463274 
L 279.0144 -39.453118 
L 279.72864 -39.44344 
L 280.44288 -39.43421 
L 281.15712 -39.425402 
L 281.87136 -39.416988 
L 282.5856 -39.408944 
L 283.29984 -39.401248 
L 284.01408 -39.393878 
L 284.72832 -39.386815 
L 285.44256 -39.38004 
L 286.1568 -39.373536 
L 286.87104 -39.367286 
L 287.58528 -39.361276 
L 288.29952 -39.355491 
L 289.01376 -39.349919 
L 289.728 -39.344547 
L 290.44224 -39.339363 
L 291.15648 -39.334356 
L 291.87072 -39.329517 
L 292.58496 -39.324836 
L 293.2992 -39.320304 
L 294.01344 -39.315914 
L 294.72768 -39.311656 
L 295.44192 -39.307523 
L 296.15616 -39.30351 
L 296.8704 -39.299609 
L 297.58464 -39.295814 
L 298.29888 -39.292119 
L 299.01312 -39.288518 
L 299.72736 -39.285008 
L 300.4416 -39.281581 
L 301.15584 -39.278235 
L 301.87008 -39.274963 
L 302.58432 -39.271762 
L 303.29856 -39.268628 
L 304.0128 -39.265555 
L 304.72704 -39.262541 
L 305.44128 -39.259581 
L 306.15552 -39.256671 
L 306.86976 -39.253808 
L 307.584 -39.250987 
L 308.29824 -39.248205 
L 309.01248 -39.245458 
L 309.72672 -39.242742 
L 310.44096 -39.240053 
L 311.1552 -39.237387 
L 311.86944 -39.234739 
L 312.58368 -39.232106 
L 313.29792 -39.229482 
L 314.01216 -39.226863 
L 314.7264 -39.224243 
L 315.44064 -39.221619 
L 316.15488 -39.218983 
L 316.86912 -39.216331 
L 317.58336 -39.213655 
L 318.2976 -39.210949 
L 319.01184 -39.208205 
L 319.72608 -39.205417 
L 320.44032 -39.202574 
L 321.15456 -39.19967 
L 321.8688 -39.196693 
L 322.58304 -39.193633 
L 323.29728 -39.19048 
L 324.01152 -39.18722 
L 324.72576 -39.183841 
L 325.44 -39.180328 
L 326.15424 -39.176666 
L 326.86848 -39.172839 
L 327.58272 -39.168828 
L 328.29696 -39.164615 
L 329.0112 -39.160178 
L 329.72544 -39.155495 
L 330.43968 -39.150542 
L 331.15392 -39.145294 
L 331.86816 -39.139722 
L 332.5824 -39.133798 
L 333.29664 -39.12749 
L 334.01088 -39.120765 
L 334.72512 -39.113587 
L 335.43936 -39.10592 
L 336.1536 -39.097725 
L 336.86784 -39.08896 
L 337.58208 -39.079584 
L 338.29632 -39.069552 
L 339.01056 -39.05882 
L 339.7248 -39.047343 
L 340.43904 -39.035075 
L 341.15328 -39.021969 
L 341.86752 -39.007983 
L 342.58176 -38.993072 
L 343.296 -38.977198 
L 344.01024 -38.960323 
L 344.72448 -38.942417 
L 345.43872 -38.923452 
L 346.15296 -38.903412 
L 346.8672 -38.882287 
L 347.58144 -38.860075 
L 348.29568 -38.836791 
L 349.00992 -38.812456 
L 349.72416 -38.787109 
L 350.4384 -38.760803 
L 351.15264 -38.733603 
L 351.86688 -38.705594 
L 352.58112 -38.676871 
L 353.29536 -38.647547 
L 354.0096 -38.617747 
L 354.72384 -38.587607 
L 355.43808 -38.557274 
L 356.15232 -38.526901 
L 356.86656 -38.496644 
L 357.5808 -38.466663 
L 358.29504 -38.437113 
L 359.00928 -38.408146 
L 359.72352 -38.379904 
L 360.43776 -38.352518 
L 361.152 -38.326108 
L 361.86624 -38.300774 
L 362.58048 -38.276604 
L 363.29472 -38.253665 
L 364.00896 -38.232008 
L 364.7232 -38.211665 
L 365.43744 -38.192652 
L 366.15168 -38.174969 
L 366.86592 -38.1586 
L 367.58016 -38.143519 
L 368.2944 -38.129685 
L 369.00864 -38.117052 
L 369.72288 -38.105562 
L 370.43712 -38.095156 
L 371.15136 -38.085768 
L 371.8656 -38.07733 
L 372.57984 -38.069774 
L 373.29408 -38.063031 
L 374.00832 -38.057034 
L 374.72256 -38.051718 
L 375.4368 -38.04702 
L 376.15104 -38.04288 
L 376.86528 -38.039244 
L 377.57952 -38.036058 
L 378.29376 -38.033274 
L 379.008 -38.030848 
L 379.72224 -38.028738 
L 380.43648 -38.026909 
L 381.15072 -38.025326 
L 381.86496 -38.023958 
L 382.5792 -38.02278 
L 383.29344 -38.021768 
L 384.00768 -38.020898 
L 384.72192 -38.020154 
L 385.43616 -38.019517 
L 386.1504 -38.018974 
L 386.86464 -38.018511 
L 387.57888 -38.018117 
L 388.29312 -38.017782 
L 389.00736 -38.017499 
L 389.7216 -38.017259 
L 390.43584 -38.017056 
L 391.15008 -38.016884 
L 391.86432 -38.01674 
L 392.57856 -38.016618 
L 393.2928 -38.016516 
L 394.00704 -38.01643 
L 394.72128 -38.016358 
L 395.43552 -38.016298 
L 396.14976 -38.016248 
L 396.864 -38.016206 
L 397.57824 -38.016171 
L 398.29248 -38.016141 
L 399.00672 -38.016117 
L 399.72096 -38.016097 
L 400.4352 -38.01608 
L 401.14944 -38.016066 
L 401.86368 -38.016054 
L 402.57792 -38.016045 
L 403.29216 -38.016037 
L 404.0064 -38.01603 
L 404.72064 -38.016025 
L 405.43488 -38.01602 
L 406.14912 -38.016017 
L 406.86336 -38.016014 
L 407.5776 -38.016011 
L 408.29184 -38.016009 
L 409.00608 -38.016008 
L 409.72032 -38.016006 
L 410.43456 -38.016005 
L 411.1488 -38.016004 
L 411.86304 -38.016004 
L 412.57728 -38.016003 
L 413.29152 -38.016003 
L 414.00576 -38.016003 
L 414.72 -38.016003 
L 414.72 -38.01667 
L 414.72 -38.01667 
L 414.00576 -38.016698 
L 413.29152 -38.016756 
L 412.57728 -38.016845 
L 411.86304 -38.016969 
L 411.1488 -38.017132 
L 410.43456 -38.017341 
L 409.72032 -38.017604 
L 409.00608 -38.017931 
L 408.29184 -38.018334 
L 407.5776 -38.018827 
L 406.86336 -38.01943 
L 406.14912 -38.020163 
L 405.43488 -38.021053 
L 404.72064 -38.022133 
L 404.0064 -38.023439 
L 403.29216 -38.025018 
L 402.57792 -38.026924 
L 401.86368 -38.029222 
L 401.14944 -38.03199 
L 400.4352 -38.035321 
L 399.72096 -38.039324 
L 399.00672 -38.044129 
L 398.29248 -38.049892 
L 397.57824 -38.056795 
L 396.864 -38.065055 
L 396.14976 -38.074927 
L 395.43552 -38.086713 
L 394.72128 -38.100767 
L 394.00704 -38.117505 
L 393.2928 -38.137415 
L 392.57856 -38.16107 
L 391.86432 -38.189138 
L 391.15008 -38.222399 
L 390.43584 -38.26176 
L 389.7216 -38.308278 
L 389.00736 -38.363174 
L 388.29312 -38.427866 
L 387.57888 -38.503988 
L 386.86464 -38.593421 
L 386.1504 -38.698328 
L 385.43616 -38.821184 
L 384.72192 -38.96482 
L 384.00768 -39.132457 
L 383.29344 -39.327754 
L 382.5792 -39.554851 
L 381.86496 -39.818415 
L 381.15072 -40.123691 
L 380.43648 -40.476544 
L 379.72224 -40.883509 
L 379.008 -41.35183 
L 378.29376 -41.889501 
L 377.57952 -42.505293 
L 376.86528 -43.208776 
L 376.15104 -44.010325 
L 375.4368 -44.921109 
L 374.72256 -45.953065 
L 374.00832 -47.118845 
L 373.29408 -48.431733 
L 372.57984 -49.905534 
L 371.8656 -51.554434 
L 371.15136 -53.39281 
L 370.43712 -55.435016 
L 369.72288 -57.69512 
L 369.00864 -60.186609 
L 368.2944 -62.922055 
L 367.58016 -65.912757 
L 366.86592 -69.168359 
L 366.15168 -72.696457 
L 365.43744 -76.502208 
L 364.7232 -80.587961 
L 364.00896 -84.952915 
L 363.29472 -89.592834 
L 362.58048 -94.499832 
L 361.86624 -99.662242 
L 361.152 -105.064586 
L 360.43776 -110.68766 
L 359.72352 -116.50873 
L 359.00928 -122.501847 
L 358.29504 -128.638277 
L 357.5808 -134.887017 
L 356.86656 -141.215397 
L 356.15232 -147.589738 
L 355.43808 -153.976031 
L 354.72384 -160.34062 
L 354.0096 -166.650858 
L 353.29536 -172.875707 
L 352.58112 -178.986263 
L 351.86688 -184.956194 
L 351.15264 -190.762071 
L 350.4384 -196.383602 
L 349.72416 -201.803749 
L 349.00992 -207.008765 
L 348.29568 -211.988126 
L 347.58144 -216.734401 
L 346.8672 -221.243057 
L 346.15296 -225.512217 
L 345.43872 -229.542391 
L 344.72448 -233.336188 
L 344.01024 -236.898023 
L 343.296 -240.233825 
L 342.58176 -243.350762 
L 341.86752 -246.256977 
L 341.15328 -248.961353 
L 340.43904 -251.473295 
L 339.7248 -253.802542 
L 339.01056 -255.959002 
L 338.29632 -257.952612 
L 337.58208 -259.793218 
L 336.86784 -261.490485 
L 336.1536 -263.053814 
L 335.43936 -264.492288 
L 334.72512 -265.814621 
L 334.01088 -267.029132 
L 333.29664 -268.143724 
L 332.5824 -269.165869 
L 331.86816 -270.102606 
L 331.15392 -270.960545 
L 330.43968 -271.745875 
L 329.72544 -272.46437 
L 329.0112 -273.121409 
L 328.29696 -273.721992 
L 327.58272 -274.270753 
L 326.86848 -274.771984 
L 326.15424 -275.229652 
L 325.44 -275.647416 
L 324.72576 -276.028651 
L 324.01152 -276.376465 
L 323.29728 -276.693714 
L 322.58304 -276.983023 
L 321.8688 -277.246803 
L 321.15456 -277.487264 
L 320.44032 -277.706432 
L 319.72608 -277.906163 
L 319.01184 -278.088157 
L 318.2976 -278.253968 
L 317.58336 -278.405018 
L 316.86912 -278.542608 
L 316.15488 -278.667923 
L 315.44064 -278.782051 
L 314.7264 -278.88598 
L 314.01216 -278.980616 
L 313.29792 -279.066783 
L 312.58368 -279.145234 
L 311.86944 -279.216657 
L 311.1552 -279.281677 
L 310.44096 -279.340865 
L 309.72672 -279.394743 
L 309.01248 -279.443784 
L 308.29824 -279.488421 
L 307.584 -279.529048 
L 306.86976 -279.566024 
L 306.15552 -279.599676 
L 305.44128 -279.630301 
L 304.72704 -279.658172 
L 304.0128 -279.683535 
L 303.29856 -279.706616 
L 302.58432 -279.727619 
L 301.87008 -279.746731 
L 301.15584 -279.764121 
L 300.4416 -279.779946 
L 299.72736 -279.794344 
L 299.01312 -279.807445 
L 298.29888 -279.819366 
L 297.58464 -279.830212 
L 296.8704 -279.84008 
L 296.15616 -279.849058 
L 295.44192 -279.857227 
L 294.72768 -279.864659 
L 294.01344 -279.87142 
L 293.2992 -279.877572 
L 292.58496 -279.883168 
L 291.87072 -279.888259 
L 291.15648 -279.892891 
L 290.44224 -279.897105 
L 289.728 -279.900938 
L 289.01376 -279.904425 
L 288.29952 -279.907598 
L 287.58528 -279.910484 
L 286.87104 -279.913109 
L 286.1568 -279.915497 
L 285.44256 -279.917669 
L 284.72832 -279.919645 
L 284.01408 -279.921442 
L 283.29984 -279.923077 
L 282.5856 -279.924564 
L 281.87136 -279.925917 
L 281.15712 -279.927148 
L 280.44288 -279.928267 
L 279.72864 -279.929285 
L 279.0144 -279.930211 
L 278.30016 -279.931053 
L 277.58592 -279.931819 
L 276.87168 -279.932516 
L 276.15744 -279.933149 
L 275.4432 -279.933726 
L 274.72896 -279.93425 
L 274.01472 -279.934726 
L 273.30048 -279.93516 
L 272.58624 -279.935554 
L 271.872 -279.935913 
L 271.15776 -279.936239 
L 270.44352 -279.936535 
L 269.72928 -279.936805 
L 269.01504 -279.93705 
L 268.3008 -279.937274 
L 267.58656 -279.937476 
L 266.87232 -279.937661 
L 266.15808 -279.937829 
L 265.44384 -279.937981 
L 264.7296 -279.93812 
L 264.01536 -279.938246 
L 263.30112 -279.938361 
L 262.58688 -279.938465 
L 261.87264 -279.93856 
L 261.1584 -279.938646 
L 260.44416 -279.938724 
L 259.72992 -279.938796 
L 259.01568 -279.93886 
L 258.30144 -279.938919 
L 257.5872 -279.938973 
L 256.87296 -279.939022 
L 256.15872 -279.939066 
L 255.44448 -279.939106 
L 254.73024 -279.939143 
L 254.016 -279.939176 
L 253.30176 -279.939206 
L 252.58752 -279.939234 
L 251.87328 -279.939259 
L 251.15904 -279.939282 
L 250.4448 -279.939302 
L 249.73056 -279.939321 
L 249.01632 -279.939338 
L 248.30208 -279.939354 
L 247.58784 -279.939368 
L 246.8736 -279.939381 
L 246.15936 -279.939392 
L 245.44512 -279.939403 
L 244.73088 -279.939412 
L 244.01664 -279.939421 
L 243.3024 -279.939429 
L 242.58816 -279.939436 
L 241.87392 -279.939443 
L 241.15968 -279.939449 
L 240.44544 -279.939454 
L 239.7312 -279.939459 
L 239.01696 -279.939464 
L 238.30272 -279.939468 
L 237.58848 -279.939472 
L 236.87424 -279.939475 
L 236.16 -279.939478 
L 235.44576 -279.939481 
L 234.73152 -279.939483 
L 234.01728 -279.939486 
L 233.30304 -279.939488 
L 232.5888 -279.93949 
L 231.87456 -279.939491 
L 231.16032 -279.939493 
L 230.44608 -279.939494 
L 229.73184 -279.939496 
L 229.0176 -279.939497 
L 228.30336 -279.939498 
L 227.58912 -279.939499 
L 226.87488 -279.9395 
L 226.16064 -279.939501 
L 225.4464 -279.939501 
L 224.73216 -279.939502 
L 224.01792 -279.939503 
L 223.30368 -279.939503 
L 222.58944 -279.939504 
L 221.8752 -279.939504 
L 221.16096 -279.939504 
L 220.44672 -279.939505 
L 219.73248 -279.939505 
L 219.01824 -279.939505 
L 218.304 -279.939506 
L 217.58976 -279.939506 
L 216.87552 -279.939506 
L 216.16128 -279.939506 
L 215.44704 -279.939507 
L 214.7328 -279.939507 
L 214.01856 -279.939507 
L 213.30432 -279.939507 
L 212.59008 -279.939507 
L 211.87584 -279.939507 
L 211.1616 -279.939507 
L 210.44736 -279.939508 
L 209.73312 -279.939508 
L 209.01888 -279.939508 
L 208.30464 -279.939508 
L 207.5904 -279.939508 
L 206.87616 -279.939508 
L 206.16192 -279.939508 
L 205.44768 -279.939508 
L 204.73344 -279.939508 
L 204.0192 -279.939508 
L 203.30496 -279.939508 
L 202.59072 -279.939508 
L 201.87648 -279.939508 
L 201.16224 -279.939508 
L 200.448 -279.939508 
L 199.73376 -279.939508 
L 199.01952 -279.939508 
L 198.30528 -279.939508 
L 197.59104 -279.939508 
L 196.8768 -279.939508 
L 196.16256 -279.939508 
L 195.44832 -279.939508 
L 194.73408 -279.939508 
L 194.01984 -279.939508 
L 193.3056 -279.939508 
L 192.59136 -279.939508 
L 191.87712 -279.939508 
L 191.16288 -279.939508 
L 190.44864 -279.939508 
L 189.7344 -279.939508 
L 189.02016 -279.939508 
L 188.30592 -279.939508 
L 187.59168 -279.939508 
L 186.87744 -279.939508 
L 186.1632 -279.939508 
L 185.44896 -279.939508 
L 184.73472 -279.939508 
L 184.02048 -279.939508 
L 183.30624 -279.939508 
L 182.592 -279.939508 
L 181.87776 -279.939508 
L 181.16352 -279.939508 
L 180.44928 -279.939508 
L 179.73504 -279.939508 
L 179.0208 -279.939508 
L 178.30656 -279.939508 
L 177.59232 -279.939508 
L 176.87808 -279.939508 
L 176.16384 -279.939508 
L 175.4496 -279.939508 
L 174.73536 -279.939508 
L 174.02112 -279.939508 
L 173.30688 -279.939508 
L 172.59264 -279.939508 
L 171.8784 -279.939508 
L 171.16416 -279.939508 
L 170.44992 -279.939508 
L 169.73568 -279.939508 
L 169.02144 -279.939508 
L 168.3072 -279.939508 
L 167.59296 -279.939508 
L 166.87872 -279.939508 
L 166.16448 -279.939508 
L 165.45024 -279.939508 
L 164.736 -279.939508 
L 164.02176 -279.939508 
L 163.30752 -279.939508 
L 162.59328 -279.939508 
L 161.87904 -279.939508 
L 161.1648 -279.939508 
L 160.45056 -279.939508 
L 159.73632 -279.939508 
L 159.02208 -279.939508 
L 158.30784 -279.939508 
L 157.5936 -279.939508 
L 156.87936 -279.939508 
L 156.16512 -279.939508 
L 155.45088 -279.939508 
L 154.73664 -279.939508 
L 154.0224 -279.939508 
L 153.30816 -279.939508 
L 152.59392 -279.939508 
L 151.87968 -279.939508 
L 151.16544 -279.939508 
L 150.4512 -279.939508 
L 149.73696 -279.939508 
L 149.02272 -279.939508 
L 148.30848 -279.939508 
L 147.59424 -279.939508 
L 146.88 -279.939508 
L 146.16576 -279.939508 
L 145.45152 -279.939508 
L 144.73728 -279.939508 
L 144.02304 -279.939508 
L 143.3088 -279.939508 
L 142.59456 -279.939508 
L 141.88032 -279.939508 
L 141.16608 -279.939508 
L 140.45184 -279.939508 
L 139.7376 -279.939508 
L 139.02336 -279.939508 
L 138.30912 -279.939508 
L 137.59488 -279.939508 
L 136.88064 -279.939508 
L 136.1664 -279.939508 
L 135.45216 -279.939508 
L 134.73792 -279.939508 
L 134.02368 -279.939508 
L 133.30944 -279.939508 
L 132.5952 -279.939508 
L 131.88096 -279.939508 
L 131.16672 -279.939508 
L 130.45248 -279.939508 
L 129.73824 -279.939508 
L 129.024 -279.939508 
L 128.30976 -279.939508 
L 127.59552 -279.939508 
L 126.88128 -279.939508 
L 126.16704 -279.939508 
L 125.4528 -279.939508 
L 124.73856 -279.939508 
L 124.02432 -279.939508 
L 123.31008 -279.939508 
L 122.59584 -279.939508 
L 121.8816 -279.939508 
L 121.16736 -279.939508 
L 120.45312 -279.939508 
L 119.73888 -279.939508 
L 119.02464 -279.939508 
L 118.3104 -279.939508 
L 117.59616 -279.939508 
L 116.88192 -279.939508 
L 116.16768 -279.939508 
L 115.45344 -279.939508 
L 114.7392 -279.939508 
L 114.02496 -279.939508 
L 113.31072 -279.939508 
L 112.59648 -279.939508 
L 111.88224 -279.939508 
L 111.168 -279.939508 
L 110.45376 -279.939508 
L 109.73952 -279.939508 
L 109.02528 -279.939508 
L 108.31104 -279.939508 
L 107.5968 -279.939508 
L 106.88256 -279.939508 
L 106.16832 -279.939508 
L 105.45408 -279.939508 
L 104.73984 -279.939508 
L 104.0256 -279.939508 
L 103.31136 -279.939508 
L 102.59712 -279.939508 
L 101.88288 -279.939508 
L 101.16864 -279.939508 
L 100.4544 -279.939508 
L 99.74016 -279.939508 
L 99.02592 -279.939508 
L 98.31168 -279.939508 
L 97.59744 -279.939508 
L 96.8832 -279.939508 
L 96.16896 -279.939508 
L 95.45472 -279.939508 
L 94.74048 -279.939508 
L 94.02624 -279.939508 
L 93.312 -279.939508 
L 92.59776 -279.939508 
L 91.88352 -279.939508 
L 91.16928 -279.939508 
L 90.45504 -279.939508 
L 89.7408 -279.939508 
L 89.02656 -279.939508 
L 88.31232 -279.939508 
L 87.59808 -279.939508 
L 86.88384 -279.939508 
L 86.1696 -279.939508 
L 85.45536 -279.939508 
L 84.74112 -279.939508 
L 84.02688 -279.939508 
L 83.31264 -279.939508 
L 82.5984 -279.939508 
L 81.88416 -279.939508 
L 81.16992 -279.939508 
L 80.45568 -279.939508 
L 79.74144 -279.939508 
L 79.0272 -279.939508 
L 78.31296 -279.939508 
L 77.59872 -279.939508 
L 76.88448 -279.939508 
L 76.17024 -279.939508 
L 75.456 -279.939508 
L 74.74176 -279.939508 
L 74.02752 -279.939508 
L 73.31328 -279.939508 
L 72.59904 -279.939508 
L 71.8848 -279.939508 
L 71.17056 -279.939508 
L 70.45632 -279.939508 
L 69.74208 -279.939508 
L 69.02784 -279.939508 
L 68.3136 -279.939508 
L 67.59936 -279.939508 
L 66.88512 -279.939508 
L 66.17088 -279.939508 
L 65.45664 -279.939508 
L 64.7424 -279.939508 
L 64.02816 -279.939508 
L 63.31392 -279.939508 
L 62.59968 -279.939508 
L 61.88544 -279.939508 
L 61.1712 -279.939508 
L 60.45696 -279.939508 
L 59.74272 -279.939508 
L 59.02848 -279.939508 
L 58.31424 -279.939508 
L 57.6 -279.939508 
z
" id="m34fcc730af" style="stroke:#afe88e;"/>
    </defs>
    <g clip-path="url(#pf6f1fb31fb)">
     <use style="fill:#afe88e;stroke:#afe88e;" x="0" xlink:href="#m34fcc730af" y="345.6"/>
    </g>
   </g>
   <g id="line2d_1">
    <path clip-path="url(#pf6f1fb31fb)" d="M 57.6 65.660492 
L 297.58464 65.769788 
L 306.15552 66.000324 
L 311.1552 66.318323 
L 315.44064 66.817949 
L 318.2976 67.346032 
L 321.15456 68.112736 
L 323.29728 68.906286 
L 325.44 69.952584 
L 327.58272 71.329247 
L 329.0112 72.478591 
L 330.43968 73.854125 
L 331.86816 75.497394 
L 333.29664 77.456276 
L 334.72512 79.785379 
L 336.1536 82.546186 
L 337.58208 85.806782 
L 339.01056 89.640998 
L 340.43904 94.126705 
L 341.86752 99.343023 
L 343.296 105.366175 
L 344.72448 112.263812 
L 346.15296 120.087783 
L 347.58144 128.865599 
L 349.72416 143.796251 
L 351.86688 160.643806 
L 354.72384 185.25938 
L 359.72352 229.09127 
L 361.86624 245.937758 
L 364.00896 260.647085 
L 365.43744 269.097792 
L 366.86592 276.431641 
L 368.2944 282.677945 
L 369.72288 287.90488 
L 371.15136 292.20719 
L 372.57984 295.694466 
L 374.00832 298.481155 
L 375.4368 300.678891 
L 376.86528 302.391224 
L 378.29376 303.710499 
L 379.72224 304.716491 
L 381.15072 305.476309 
L 383.29344 306.272246 
L 385.43616 306.778816 
L 388.29312 307.172134 
L 391.86432 307.410862 
L 397.57824 307.543205 
L 412.57728 307.583155 
L 414.72 307.58333 
L 414.72 307.58333 
" style="fill:none;stroke:#000000;stroke-linecap:square;stroke-width:0.7;"/>
   </g>
   <g id="patch_3">
    <path d="M 57.6 307.584 
L 57.6 41.472 
" style="fill:none;stroke:#000000;stroke-linecap:square;stroke-linejoin:miter;stroke-width:0.8;"/>
   </g>
   <g id="patch_4">
    <path d="M 414.72 307.584 
L 414.72 41.472 
" style="fill:none;stroke:#000000;stroke-linecap:square;stroke-linejoin:miter;stroke-width:0.8;"/>
   </g>
   <g id="patch_5">
    <path d="M 57.6 307.584 
L 414.72 307.584 
" style="fill:none;stroke:#000000;stroke-linecap:square;stroke-linejoin:miter;stroke-width:0.8;"/>
   </g>
   <g id="patch_6">
    <path d="M 57.6 41.472 
L 414.72 41.472 
" style="fill:none;stroke:#000000;stroke-linecap:square;stroke-linejoin:miter;stroke-width:0.8;"/>
   </g>
   <g id="legend_1">
    <g id="patch_7">
     <path d="M 91.90611 34.09119 
L 246.68736 34.09119 
Q 249.08736 34.09119 249.08736 31.69119 
L 249.08736 15.27744 
Q 249.08736 12.87744 246.68736 12.87744 
L 91.90611 12.87744 
Q 89.50611 12.87744 89.50611 15.27744 
L 89.50611 31.69119 
Q 89.50611 34.09119 91.90611 34.09119 
z
" style="fill:#ffffff;opacity:0.8;stroke:#cccccc;stroke-linejoin:miter;"/>
    </g>
    <g id="patch_8">
     <path d="M 94.30611 26.795565 
L 118.30611 26.795565 
L 118.30611 18.395565 
L 94.30611 18.395565 
z
" style="fill:#509369;stroke:#509369;stroke-linejoin:miter;"/>
    </g>
    <g id="text_1">
     <!-- back -->
     <g transform="translate(127.90611 26.795565)scale(0.12 -0.12)">
      <defs>
       <path d="M 11.53125 5.171875 
L 11.53125 70.796875 
L 2.875 70.796875 
L 2.875 75.984375 
L 20.515625 75.984375 
L 20.515625 43.796875 
Q 23.140625 48.6875 27.21875 51 
Q 31.296875 53.328125 37.3125 53.328125 
Q 46.875 53.328125 52.921875 45.75 
Q 58.984375 38.1875 58.984375 25.984375 
Q 58.984375 13.765625 52.921875 6.171875 
Q 46.875 -1.421875 37.3125 -1.421875 
Q 31.296875 -1.421875 27.21875 0.890625 
Q 23.140625 3.21875 20.515625 8.109375 
L 20.515625 0 
L 2.875 0 
L 2.875 5.171875 
z
M 20.515625 23.390625 
Q 20.515625 14.015625 24.09375 9.109375 
Q 27.6875 4.203125 34.515625 4.203125 
Q 41.40625 4.203125 44.9375 9.71875 
Q 48.484375 15.234375 48.484375 25.984375 
Q 48.484375 36.765625 44.9375 42.234375 
Q 41.40625 47.703125 34.515625 47.703125 
Q 27.6875 47.703125 24.09375 42.765625 
Q 20.515625 37.84375 20.515625 28.515625 
z
" id="DejaVuSerif-98"/>
       <path d="M 39.796875 16.3125 
L 39.796875 27.296875 
L 28.21875 27.296875 
Q 21.53125 27.296875 18.25 24.40625 
Q 14.984375 21.53125 14.984375 15.578125 
Q 14.984375 10.15625 18.296875 6.984375 
Q 21.625 3.8125 27.296875 3.8125 
Q 32.90625 3.8125 36.34375 7.28125 
Q 39.796875 10.75 39.796875 16.3125 
z
M 48.78125 32.421875 
L 48.78125 5.171875 
L 56.78125 5.171875 
L 56.78125 0 
L 39.796875 0 
L 39.796875 5.609375 
Q 36.8125 2 32.90625 0.28125 
Q 29 -1.421875 23.78125 -1.421875 
Q 15.140625 -1.421875 10.0625 3.171875 
Q 4.984375 7.765625 4.984375 15.578125 
Q 4.984375 23.640625 10.796875 28.078125 
Q 16.609375 32.515625 27.203125 32.515625 
L 39.796875 32.515625 
L 39.796875 36.078125 
Q 39.796875 42 36.203125 45.234375 
Q 32.625 48.484375 26.125 48.484375 
Q 20.75 48.484375 17.578125 46.046875 
Q 14.40625 43.609375 13.625 38.8125 
L 8.984375 38.8125 
L 8.984375 49.3125 
Q 13.671875 51.3125 18.09375 52.3125 
Q 22.515625 53.328125 26.703125 53.328125 
Q 37.5 53.328125 43.140625 47.96875 
Q 48.78125 42.625 48.78125 32.421875 
z
" id="DejaVuSerif-97"/>
       <path d="M 51.421875 15.578125 
Q 49.515625 7.28125 44.09375 2.921875 
Q 38.671875 -1.421875 30.078125 -1.421875 
Q 18.75 -1.421875 11.859375 6.078125 
Q 4.984375 13.578125 4.984375 25.984375 
Q 4.984375 38.421875 11.859375 45.875 
Q 18.75 53.328125 30.078125 53.328125 
Q 35.015625 53.328125 39.890625 52.171875 
Q 44.78125 51.03125 49.703125 48.6875 
L 49.703125 35.40625 
L 44.484375 35.40625 
Q 43.453125 42.234375 40.015625 45.359375 
Q 36.578125 48.484375 30.171875 48.484375 
Q 22.90625 48.484375 19.1875 42.84375 
Q 15.484375 37.203125 15.484375 25.984375 
Q 15.484375 14.75 19.171875 9.078125 
Q 22.859375 3.421875 30.171875 3.421875 
Q 35.984375 3.421875 39.453125 6.4375 
Q 42.921875 9.46875 44.1875 15.578125 
z
" id="DejaVuSerif-99"/>
       <path d="M 28.609375 0 
L 3.421875 0 
L 3.421875 5.171875 
L 11.53125 5.171875 
L 11.53125 70.796875 
L 2.875 70.796875 
L 2.875 75.984375 
L 20.515625 75.984375 
L 20.515625 26.515625 
L 42.390625 46.6875 
L 34.90625 46.6875 
L 34.90625 51.90625 
L 58.40625 51.90625 
L 58.40625 46.6875 
L 49.515625 46.6875 
L 34.078125 32.421875 
L 53.8125 5.171875 
L 61.28125 5.171875 
L 61.28125 0 
L 35.6875 0 
L 35.6875 5.171875 
L 43.109375 5.171875 
L 27.59375 26.515625 
L 20.515625 19.921875 
L 20.515625 5.171875 
L 28.609375 5.171875 
z
" id="DejaVuSerif-107"/>
      </defs>
      <use xlink:href="#DejaVuSerif-98"/>
      <use x="64.013672" xlink:href="#DejaVuSerif-97"/>
      <use x="123.632812" xlink:href="#DejaVuSerif-99"/>
      <use x="179.638672" xlink:href="#DejaVuSerif-107"/>
     </g>
    </g>
    <g id="patch_9">
     <path d="M 180.734235 26.795565 
L 204.734235 26.795565 
L 204.734235 18.395565 
L 180.734235 18.395565 
z
" style="fill:#afe88e;stroke:#afe88e;stroke-linejoin:miter;"/>
    </g>
    <g id="text_2">
     <!-- front -->
     <g transform="translate(214.334235 26.795565)scale(0.12 -0.12)">
      <defs>
       <path d="M 43.015625 63.71875 
L 38.28125 63.71875 
Q 38.234375 67.390625 36.203125 69.28125 
Q 34.1875 71.1875 30.328125 71.1875 
Q 25.296875 71.1875 23.234375 68.421875 
Q 21.1875 65.671875 21.1875 58.59375 
L 21.1875 51.90625 
L 35.6875 51.90625 
L 35.6875 46.6875 
L 21.1875 46.6875 
L 21.1875 5.171875 
L 32.71875 5.171875 
L 32.71875 0 
L 3.609375 0 
L 3.609375 5.171875 
L 12.203125 5.171875 
L 12.203125 46.6875 
L 3.609375 46.6875 
L 3.609375 51.90625 
L 12.203125 51.90625 
L 12.203125 58.40625 
Q 12.203125 67.09375 16.71875 71.53125 
Q 21.234375 75.984375 29.984375 75.984375 
Q 33.25 75.984375 36.515625 75.390625 
Q 39.796875 74.8125 43.015625 73.578125 
z
" id="DejaVuSerif-102"/>
       <path d="M 47.796875 52 
L 47.796875 39.015625 
L 42.625 39.015625 
Q 42.390625 42.875 40.484375 44.78125 
Q 38.578125 46.6875 34.90625 46.6875 
Q 28.265625 46.6875 24.71875 42.09375 
Q 21.1875 37.5 21.1875 28.90625 
L 21.1875 5.171875 
L 31.59375 5.171875 
L 31.59375 0 
L 4.109375 0 
L 4.109375 5.171875 
L 12.203125 5.171875 
L 12.203125 46.78125 
L 3.609375 46.78125 
L 3.609375 51.90625 
L 21.1875 51.90625 
L 21.1875 42.671875 
Q 23.828125 48.09375 27.96875 50.703125 
Q 32.125 53.328125 38.09375 53.328125 
Q 40.28125 53.328125 42.703125 52.984375 
Q 45.125 52.640625 47.796875 52 
z
" id="DejaVuSerif-114"/>
       <path d="M 30.078125 3.421875 
Q 37.3125 3.421875 40.984375 9.125 
Q 44.671875 14.84375 44.671875 25.984375 
Q 44.671875 37.109375 40.984375 42.796875 
Q 37.3125 48.484375 30.078125 48.484375 
Q 22.859375 48.484375 19.171875 42.796875 
Q 15.484375 37.109375 15.484375 25.984375 
Q 15.484375 14.84375 19.1875 9.125 
Q 22.90625 3.421875 30.078125 3.421875 
z
M 30.078125 -1.421875 
Q 18.75 -1.421875 11.859375 6.078125 
Q 4.984375 13.578125 4.984375 25.984375 
Q 4.984375 38.375 11.84375 45.84375 
Q 18.703125 53.328125 30.078125 53.328125 
Q 41.453125 53.328125 48.3125 45.84375 
Q 55.171875 38.375 55.171875 25.984375 
Q 55.171875 13.578125 48.3125 6.078125 
Q 41.453125 -1.421875 30.078125 -1.421875 
z
" id="DejaVuSerif-111"/>
       <path d="M 4.109375 0 
L 4.109375 5.171875 
L 12.203125 5.171875 
L 12.203125 46.6875 
L 3.609375 46.6875 
L 3.609375 51.90625 
L 21.1875 51.90625 
L 21.1875 42.671875 
Q 23.6875 47.953125 27.65625 50.640625 
Q 31.640625 53.328125 36.921875 53.328125 
Q 45.515625 53.328125 49.5625 48.390625 
Q 53.609375 43.453125 53.609375 33.015625 
L 53.609375 5.171875 
L 61.625 5.171875 
L 61.625 0 
L 36.8125 0 
L 36.8125 5.171875 
L 44.578125 5.171875 
L 44.578125 30.171875 
Q 44.578125 39.703125 42.234375 43.234375 
Q 39.890625 46.78125 33.984375 46.78125 
Q 27.734375 46.78125 24.453125 42.203125 
Q 21.1875 37.640625 21.1875 28.90625 
L 21.1875 5.171875 
L 29 5.171875 
L 29 0 
z
" id="DejaVuSerif-110"/>
       <path d="M 10.796875 46.6875 
L 2.875 46.6875 
L 2.875 51.90625 
L 10.796875 51.90625 
L 10.796875 68.015625 
L 19.828125 68.015625 
L 19.828125 51.90625 
L 36.71875 51.90625 
L 36.71875 46.6875 
L 19.828125 46.6875 
L 19.828125 13.71875 
Q 19.828125 7.125 21.09375 5.265625 
Q 22.359375 3.421875 25.78125 3.421875 
Q 29.296875 3.421875 30.90625 5.484375 
Q 32.515625 7.5625 32.625 12.203125 
L 39.40625 12.203125 
Q 39.015625 5.125 35.546875 1.84375 
Q 32.078125 -1.421875 25 -1.421875 
Q 17.234375 -1.421875 14.015625 2.015625 
Q 10.796875 5.46875 10.796875 13.71875 
z
" id="DejaVuSerif-116"/>
      </defs>
      <use xlink:href="#DejaVuSerif-102"/>
      <use x="37.011719" xlink:href="#DejaVuSerif-114"/>
      <use x="84.814453" xlink:href="#DejaVuSerif-111"/>
      <use x="145.019531" xlink:href="#DejaVuSerif-110"/>
      <use x="209.423828" xlink:href="#DejaVuSerif-116"/>
     </g>
    </g>
   </g>
  </g>
 </g>
 <defs>
  <clipPath id="pf6f1fb31fb">
   <rect height="266.112" width="357.12" x="57.6" y="41.472"/>
  </clipPath>
 </defs>
</svg>
