<?xml version="1.0" encoding="utf-8" standalone="no"?>
<!DOCTYPE svg PUBLIC "-//W3C//DTD SVG 1.1//EN"
  "http://www.w3.org/Graphics/SVG/1.1/DTD/svg11.dtd">
<!-- Created with matplotlib (https://matplotlib.org/) -->
<svg height="345.6pt" version="1.1" viewBox="0 0 460.8 345.6" width="460.8pt" xmlns="http://www.w3.org/2000/svg" xmlns:xlink="http://www.w3.org/1999/xlink">
 <metadata>
  <rdf:RDF xmlns:cc="http://creativecommons.org/ns#" xmlns:dc="http://purl.org/dc/elements/1.1/" xmlns:rdf="http://www.w3.org/1999/02/22-rdf-syntax-ns#">
   <cc:Work>
    <dc:type rdf:resource="http://purl.org/dc/dcmitype/StillImage"/>
    <dc:date>2023-01-24T13:46:19.990541</dc:date>
    <dc:format>image/svg+xml</dc:format>
    <dc:creator>
     <cc:Agent>
      <dc:title>Matplotlib v3.3.4, https://matplotlib.org/</dc:title>
     </cc:Agent>
    </dc:creator>
   </cc:Work>
  </rdf:RDF>
 </metadata>
 <defs>
  <style type="text/css">*{stroke-linecap:butt;stroke-linejoin:round;}</style>
 </defs>
 <g id="figure_1">
  <g id="patch_1">
   <path d="M 0 345.6 
L 460.8 345.6 
L 460.8 0 
L 0 0 
z
" style="fill:#ffffff;"/>
  </g>
  <g id="axes_1">
   <g id="patch_2">
    <path d="M 57.6 307.584 
L 414.72 307.584 
L 414.72 41.472 
L 57.6 41.472 
z
" style="fill:#ffffff;"/>
   </g>
   <g id="matplotlib.axis_1">
    <g id="xtick_1">
     <g id="line2d_1">
      <defs>
       <path d="M 0 0 
L 0 3.5 
" id="m3eb3b34767" style="stroke:#000000;stroke-width:0.8;"/>
      </defs>
      <g>
       <use style="stroke:#000000;stroke-width:0.8;" x="92.678773" xlink:href="#m3eb3b34767" y="307.584"/>
      </g>
     </g>
     <g id="text_1">
      <!-- 150 -->
      <g transform="translate(83.135023 322.182437)scale(0.1 -0.1)">
       <defs>
        <path d="M 14.203125 0 
L 14.203125 5.171875 
L 26.90625 5.171875 
L 26.90625 65.828125 
L 12.203125 56.296875 
L 12.203125 62.703125 
L 29.984375 74.21875 
L 36.71875 74.21875 
L 36.71875 5.171875 
L 49.421875 5.171875 
L 49.421875 0 
z
" id="DejaVuSerif-49"/>
        <path d="M 50.296875 72.90625 
L 50.296875 64.890625 
L 16.890625 64.890625 
L 16.890625 44 
Q 19.4375 45.75 22.828125 46.625 
Q 26.21875 47.515625 30.421875 47.515625 
Q 42.234375 47.515625 49.0625 40.96875 
Q 55.90625 34.421875 55.90625 23.09375 
Q 55.90625 11.53125 49 5.046875 
Q 42.09375 -1.421875 29.59375 -1.421875 
Q 24.5625 -1.421875 19.28125 -0.1875 
Q 14.015625 1.03125 8.5 3.515625 
L 8.5 17.671875 
L 14.015625 17.671875 
Q 14.453125 10.75 18.421875 7.078125 
Q 22.40625 3.421875 29.59375 3.421875 
Q 37.3125 3.421875 41.453125 8.5 
Q 45.609375 13.578125 45.609375 23.09375 
Q 45.609375 32.5625 41.484375 37.609375 
Q 37.359375 42.671875 29.59375 42.671875 
Q 25.203125 42.671875 21.84375 41.109375 
Q 18.5 39.546875 15.921875 36.28125 
L 11.71875 36.28125 
L 11.71875 72.90625 
z
" id="DejaVuSerif-53"/>
        <path d="M 31.78125 3.421875 
Q 39.265625 3.421875 42.96875 11.625 
Q 46.6875 19.828125 46.6875 36.375 
Q 46.6875 52.984375 42.96875 61.1875 
Q 39.265625 69.390625 31.78125 69.390625 
Q 24.3125 69.390625 20.59375 61.1875 
Q 16.890625 52.984375 16.890625 36.375 
Q 16.890625 19.828125 20.59375 11.625 
Q 24.3125 3.421875 31.78125 3.421875 
z
M 31.78125 -1.421875 
Q 19.921875 -1.421875 13.25 8.53125 
Q 6.59375 18.5 6.59375 36.375 
Q 6.59375 54.296875 13.25 64.25 
Q 19.921875 74.21875 31.78125 74.21875 
Q 43.703125 74.21875 50.34375 64.25 
Q 56.984375 54.296875 56.984375 36.375 
Q 56.984375 18.5 50.34375 8.53125 
Q 43.703125 -1.421875 31.78125 -1.421875 
z
" id="DejaVuSerif-48"/>
       </defs>
       <use xlink:href="#DejaVuSerif-49"/>
       <use x="63.623047" xlink:href="#DejaVuSerif-53"/>
       <use x="127.246094" xlink:href="#DejaVuSerif-48"/>
      </g>
     </g>
    </g>
    <g id="xtick_2">
     <g id="line2d_2">
      <g>
       <use style="stroke:#000000;stroke-width:0.8;" x="142.934894" xlink:href="#m3eb3b34767" y="307.584"/>
      </g>
     </g>
     <g id="text_2">
      <!-- 200 -->
      <g transform="translate(133.391144 322.182437)scale(0.1 -0.1)">
       <defs>
        <path d="M 12.796875 55.515625 
L 7.328125 55.515625 
L 7.328125 68.5 
Q 12.546875 71.296875 17.84375 72.75 
Q 23.140625 74.21875 28.21875 74.21875 
Q 39.59375 74.21875 46.1875 68.703125 
Q 52.78125 63.1875 52.78125 53.71875 
Q 52.78125 43.015625 37.84375 28.125 
Q 36.671875 27 36.078125 26.421875 
L 17.671875 8.015625 
L 48.09375 8.015625 
L 48.09375 17 
L 53.8125 17 
L 53.8125 0 
L 6.78125 0 
L 6.78125 5.328125 
L 28.90625 27.390625 
Q 36.234375 34.71875 39.359375 40.84375 
Q 42.484375 46.96875 42.484375 53.71875 
Q 42.484375 61.078125 38.640625 65.234375 
Q 34.8125 69.390625 28.078125 69.390625 
Q 21.09375 69.390625 17.28125 65.921875 
Q 13.484375 62.453125 12.796875 55.515625 
z
" id="DejaVuSerif-50"/>
       </defs>
       <use xlink:href="#DejaVuSerif-50"/>
       <use x="63.623047" xlink:href="#DejaVuSerif-48"/>
       <use x="127.246094" xlink:href="#DejaVuSerif-48"/>
      </g>
     </g>
    </g>
    <g id="xtick_3">
     <g id="line2d_3">
      <g>
       <use style="stroke:#000000;stroke-width:0.8;" x="193.191016" xlink:href="#m3eb3b34767" y="307.584"/>
      </g>
     </g>
     <g id="text_3">
      <!-- 250 -->
      <g transform="translate(183.647266 322.182437)scale(0.1 -0.1)">
       <use xlink:href="#DejaVuSerif-50"/>
       <use x="63.623047" xlink:href="#DejaVuSerif-53"/>
       <use x="127.246094" xlink:href="#DejaVuSerif-48"/>
      </g>
     </g>
    </g>
    <g id="xtick_4">
     <g id="line2d_4">
      <g>
       <use style="stroke:#000000;stroke-width:0.8;" x="243.447138" xlink:href="#m3eb3b34767" y="307.584"/>
      </g>
     </g>
     <g id="text_4">
      <!-- 300 -->
      <g transform="translate(233.903388 322.182437)scale(0.1 -0.1)">
       <defs>
        <path d="M 9.71875 69.828125 
Q 15.4375 71.96875 20.671875 73.09375 
Q 25.921875 74.21875 30.515625 74.21875 
Q 41.21875 74.21875 47.21875 69.59375 
Q 53.21875 64.984375 53.21875 56.78125 
Q 53.21875 50.203125 49.0625 45.78125 
Q 44.921875 41.359375 37.3125 39.796875 
Q 46.296875 38.53125 51.25 33.28125 
Q 56.203125 28.03125 56.203125 19.671875 
Q 56.203125 9.46875 49.34375 4.015625 
Q 42.484375 -1.421875 29.59375 -1.421875 
Q 23.875 -1.421875 18.421875 -0.1875 
Q 12.984375 1.03125 7.625 3.515625 
L 7.625 17.671875 
L 13.09375 17.671875 
Q 13.578125 10.640625 17.828125 7.03125 
Q 22.078125 3.421875 29.78125 3.421875 
Q 37.25 3.421875 41.578125 7.734375 
Q 45.90625 12.0625 45.90625 19.578125 
Q 45.90625 28.171875 41.453125 32.59375 
Q 37.015625 37.015625 28.421875 37.015625 
L 23.78125 37.015625 
L 23.78125 42 
L 26.21875 42 
Q 34.765625 42 39.03125 45.53125 
Q 43.3125 49.078125 43.3125 56.203125 
Q 43.3125 62.59375 39.796875 65.984375 
Q 36.28125 69.390625 29.6875 69.390625 
Q 23.09375 69.390625 19.453125 66.265625 
Q 15.828125 63.140625 15.1875 56.984375 
L 9.71875 56.984375 
z
" id="DejaVuSerif-51"/>
       </defs>
       <use xlink:href="#DejaVuSerif-51"/>
       <use x="63.623047" xlink:href="#DejaVuSerif-48"/>
       <use x="127.246094" xlink:href="#DejaVuSerif-48"/>
      </g>
     </g>
    </g>
    <g id="xtick_5">
     <g id="line2d_5">
      <g>
       <use style="stroke:#000000;stroke-width:0.8;" x="293.703259" xlink:href="#m3eb3b34767" y="307.584"/>
      </g>
     </g>
     <g id="text_5">
      <!-- 350 -->
      <g transform="translate(284.159509 322.182437)scale(0.1 -0.1)">
       <use xlink:href="#DejaVuSerif-51"/>
       <use x="63.623047" xlink:href="#DejaVuSerif-53"/>
       <use x="127.246094" xlink:href="#DejaVuSerif-48"/>
      </g>
     </g>
    </g>
    <g id="xtick_6">
     <g id="line2d_6">
      <g>
       <use style="stroke:#000000;stroke-width:0.8;" x="343.959381" xlink:href="#m3eb3b34767" y="307.584"/>
      </g>
     </g>
     <g id="text_6">
      <!-- 400 -->
      <g transform="translate(334.415631 322.182437)scale(0.1 -0.1)">
       <defs>
        <path d="M 34.90625 24.703125 
L 34.90625 63.484375 
L 10.015625 24.703125 
z
M 56.390625 0 
L 23.1875 0 
L 23.1875 5.171875 
L 34.90625 5.171875 
L 34.90625 19.484375 
L 3.078125 19.484375 
L 3.078125 24.8125 
L 35.015625 74.21875 
L 44.671875 74.21875 
L 44.671875 24.703125 
L 58.59375 24.703125 
L 58.59375 19.484375 
L 44.671875 19.484375 
L 44.671875 5.171875 
L 56.390625 5.171875 
z
" id="DejaVuSerif-52"/>
       </defs>
       <use xlink:href="#DejaVuSerif-52"/>
       <use x="63.623047" xlink:href="#DejaVuSerif-48"/>
       <use x="127.246094" xlink:href="#DejaVuSerif-48"/>
      </g>
     </g>
    </g>
    <g id="xtick_7">
     <g id="line2d_7">
      <g>
       <use style="stroke:#000000;stroke-width:0.8;" x="394.215502" xlink:href="#m3eb3b34767" y="307.584"/>
      </g>
     </g>
     <g id="text_7">
      <!-- 450 -->
      <g transform="translate(384.671752 322.182437)scale(0.1 -0.1)">
       <use xlink:href="#DejaVuSerif-52"/>
       <use x="63.623047" xlink:href="#DejaVuSerif-53"/>
       <use x="127.246094" xlink:href="#DejaVuSerif-48"/>
      </g>
     </g>
    </g>
    <g id="text_8">
     <!-- Time -->
     <g transform="translate(223.524844 335.860562)scale(0.1 -0.1)">
      <defs>
       <path d="M 19.09375 0 
L 19.09375 5.171875 
L 28.421875 5.171875 
L 28.421875 67.09375 
L 6.984375 67.09375 
L 6.984375 55.71875 
L 0.984375 55.71875 
L 0.984375 72.90625 
L 65.71875 72.90625 
L 65.71875 55.71875 
L 59.71875 55.71875 
L 59.71875 67.09375 
L 38.28125 67.09375 
L 38.28125 5.171875 
L 47.609375 5.171875 
L 47.609375 0 
z
" id="DejaVuSerif-84"/>
       <path d="M 9.71875 68.015625 
Q 9.71875 70.265625 11.34375 71.921875 
Q 12.984375 73.578125 15.28125 73.578125 
Q 17.53125 73.578125 19.15625 71.921875 
Q 20.796875 70.265625 20.796875 68.015625 
Q 20.796875 65.71875 19.1875 64.109375 
Q 17.578125 62.5 15.28125 62.5 
Q 12.984375 62.5 11.34375 64.109375 
Q 9.71875 65.71875 9.71875 68.015625 
z
M 21.1875 5.171875 
L 29.6875 5.171875 
L 29.6875 0 
L 3.609375 0 
L 3.609375 5.171875 
L 12.203125 5.171875 
L 12.203125 46.6875 
L 3.609375 46.6875 
L 3.609375 51.90625 
L 21.1875 51.90625 
z
" id="DejaVuSerif-105"/>
       <path d="M 51.8125 41.796875 
Q 54.390625 47.515625 58.421875 50.421875 
Q 62.453125 53.328125 67.828125 53.328125 
Q 75.984375 53.328125 79.984375 48.265625 
Q 83.984375 43.21875 83.984375 33.015625 
L 83.984375 5.171875 
L 92.09375 5.171875 
L 92.09375 0 
L 67.1875 0 
L 67.1875 5.171875 
L 75 5.171875 
L 75 31.984375 
Q 75 39.9375 72.65625 43.3125 
Q 70.3125 46.6875 64.890625 46.6875 
Q 58.890625 46.6875 55.734375 42.140625 
Q 52.59375 37.59375 52.59375 28.90625 
L 52.59375 5.171875 
L 60.40625 5.171875 
L 60.40625 0 
L 35.796875 0 
L 35.796875 5.171875 
L 43.609375 5.171875 
L 43.609375 32.328125 
Q 43.609375 40.09375 41.265625 43.390625 
Q 38.921875 46.6875 33.5 46.6875 
Q 27.484375 46.6875 24.328125 42.140625 
Q 21.1875 37.59375 21.1875 28.90625 
L 21.1875 5.171875 
L 29 5.171875 
L 29 0 
L 4.109375 0 
L 4.109375 5.171875 
L 12.203125 5.171875 
L 12.203125 46.78125 
L 3.609375 46.78125 
L 3.609375 51.90625 
L 21.1875 51.90625 
L 21.1875 42.671875 
Q 23.6875 47.859375 27.53125 50.59375 
Q 31.390625 53.328125 36.28125 53.328125 
Q 42.328125 53.328125 46.375 50.3125 
Q 50.4375 47.3125 51.8125 41.796875 
z
" id="DejaVuSerif-109"/>
       <path d="M 54.203125 25 
L 15.484375 25 
L 15.484375 24.609375 
Q 15.484375 14.109375 19.4375 8.765625 
Q 23.390625 3.421875 31.109375 3.421875 
Q 37.015625 3.421875 40.796875 6.515625 
Q 44.578125 9.625 46.09375 15.71875 
L 53.328125 15.71875 
Q 51.171875 7.171875 45.375 2.875 
Q 39.59375 -1.421875 30.171875 -1.421875 
Q 18.796875 -1.421875 11.890625 6.078125 
Q 4.984375 13.578125 4.984375 25.984375 
Q 4.984375 38.28125 11.765625 45.796875 
Q 18.5625 53.328125 29.59375 53.328125 
Q 41.359375 53.328125 47.65625 46.0625 
Q 53.953125 38.8125 54.203125 25 
z
M 43.609375 30.171875 
Q 43.3125 39.265625 39.765625 43.875 
Q 36.234375 48.484375 29.59375 48.484375 
Q 23.390625 48.484375 19.828125 43.84375 
Q 16.265625 39.203125 15.484375 30.171875 
z
" id="DejaVuSerif-101"/>
      </defs>
      <use xlink:href="#DejaVuSerif-84"/>
      <use x="66.699219" xlink:href="#DejaVuSerif-105"/>
      <use x="98.681641" xlink:href="#DejaVuSerif-109"/>
      <use x="193.505859" xlink:href="#DejaVuSerif-101"/>
     </g>
    </g>
   </g>
   <g id="matplotlib.axis_2">
    <g id="ytick_1">
     <g id="line2d_8">
      <defs>
       <path d="M 0 0 
L -3.5 0 
" id="m159b481068" style="stroke:#000000;stroke-width:0.8;"/>
      </defs>
      <g>
       <use style="stroke:#000000;stroke-width:0.8;" x="57.6" xlink:href="#m159b481068" y="279.36"/>
      </g>
     </g>
     <g id="text_9">
      <!-- 1.6 -->
      <g transform="translate(34.696875 283.159219)scale(0.1 -0.1)">
       <defs>
        <path d="M 9.421875 5.078125 
Q 9.421875 7.8125 11.28125 9.71875 
Q 13.140625 11.625 15.921875 11.625 
Q 18.609375 11.625 20.5 9.71875 
Q 22.40625 7.8125 22.40625 5.078125 
Q 22.40625 2.390625 20.5 0.484375 
Q 18.609375 -1.421875 15.921875 -1.421875 
Q 13.140625 -1.421875 11.28125 0.453125 
Q 9.421875 2.34375 9.421875 5.078125 
z
" id="DejaVuSerif-46"/>
        <path d="M 32.71875 3.421875 
Q 39.59375 3.421875 43.296875 8.46875 
Q 47.015625 13.53125 47.015625 23 
Q 47.015625 32.46875 43.296875 37.515625 
Q 39.59375 42.578125 32.71875 42.578125 
Q 25.734375 42.578125 22.0625 37.6875 
Q 18.40625 32.8125 18.40625 23.578125 
Q 18.40625 13.875 22.109375 8.640625 
Q 25.828125 3.421875 32.71875 3.421875 
z
M 16.796875 40.140625 
Q 20.125 43.796875 24.3125 45.59375 
Q 28.515625 47.40625 33.796875 47.40625 
Q 44.671875 47.40625 51 40.859375 
Q 57.328125 34.328125 57.328125 23 
Q 57.328125 11.921875 50.515625 5.25 
Q 43.703125 -1.421875 32.328125 -1.421875 
Q 19.96875 -1.421875 13.328125 7.78125 
Q 6.6875 17 6.6875 34.078125 
Q 6.6875 53.21875 14.546875 63.71875 
Q 22.40625 74.21875 36.71875 74.21875 
Q 40.578125 74.21875 44.828125 73.484375 
Q 49.078125 72.75 53.515625 71.296875 
L 53.515625 59.28125 
L 48 59.28125 
Q 47.40625 64.203125 44.234375 66.796875 
Q 41.0625 69.390625 35.6875 69.390625 
Q 26.21875 69.390625 21.578125 62.203125 
Q 16.9375 55.03125 16.796875 40.140625 
z
" id="DejaVuSerif-54"/>
       </defs>
       <use xlink:href="#DejaVuSerif-49"/>
       <use x="63.623047" xlink:href="#DejaVuSerif-46"/>
       <use x="95.410156" xlink:href="#DejaVuSerif-54"/>
      </g>
     </g>
    </g>
    <g id="ytick_2">
     <g id="line2d_9">
      <g>
       <use style="stroke:#000000;stroke-width:0.8;" x="57.6" xlink:href="#m159b481068" y="247.104"/>
      </g>
     </g>
     <g id="text_10">
      <!-- 1.8 -->
      <g transform="translate(34.696875 250.903219)scale(0.1 -0.1)">
       <defs>
        <path d="M 46.578125 19.921875 
Q 46.578125 27.734375 42.6875 32.046875 
Q 38.8125 36.375 31.78125 36.375 
Q 24.75 36.375 20.875 32.046875 
Q 17 27.734375 17 19.921875 
Q 17 12.0625 20.875 7.734375 
Q 24.75 3.421875 31.78125 3.421875 
Q 38.8125 3.421875 42.6875 7.734375 
Q 46.578125 12.0625 46.578125 19.921875 
z
M 44.578125 55.328125 
Q 44.578125 61.96875 41.203125 65.671875 
Q 37.84375 69.390625 31.78125 69.390625 
Q 25.78125 69.390625 22.390625 65.671875 
Q 19 61.96875 19 55.328125 
Q 19 48.640625 22.390625 44.921875 
Q 25.78125 41.21875 31.78125 41.21875 
Q 37.84375 41.21875 41.203125 44.921875 
Q 44.578125 48.640625 44.578125 55.328125 
z
M 39.3125 38.8125 
Q 47.609375 37.703125 52.25 32.6875 
Q 56.890625 27.6875 56.890625 19.921875 
Q 56.890625 9.671875 50.390625 4.125 
Q 43.890625 -1.421875 31.78125 -1.421875 
Q 19.734375 -1.421875 13.203125 4.125 
Q 6.6875 9.671875 6.6875 19.921875 
Q 6.6875 27.6875 11.328125 32.6875 
Q 15.96875 37.703125 24.3125 38.8125 
Q 16.9375 40.140625 13 44.40625 
Q 9.078125 48.6875 9.078125 55.328125 
Q 9.078125 64.109375 15.125 69.15625 
Q 21.1875 74.21875 31.78125 74.21875 
Q 42.390625 74.21875 48.4375 69.15625 
Q 54.5 64.109375 54.5 55.328125 
Q 54.5 48.6875 50.5625 44.40625 
Q 46.625 40.140625 39.3125 38.8125 
z
" id="DejaVuSerif-56"/>
       </defs>
       <use xlink:href="#DejaVuSerif-49"/>
       <use x="63.623047" xlink:href="#DejaVuSerif-46"/>
       <use x="95.410156" xlink:href="#DejaVuSerif-56"/>
      </g>
     </g>
    </g>
    <g id="ytick_3">
     <g id="line2d_10">
      <g>
       <use style="stroke:#000000;stroke-width:0.8;" x="57.6" xlink:href="#m159b481068" y="214.848"/>
      </g>
     </g>
     <g id="text_11">
      <!-- 2.0 -->
      <g transform="translate(34.696875 218.647219)scale(0.1 -0.1)">
       <use xlink:href="#DejaVuSerif-50"/>
       <use x="63.623047" xlink:href="#DejaVuSerif-46"/>
       <use x="95.410156" xlink:href="#DejaVuSerif-48"/>
      </g>
     </g>
    </g>
    <g id="ytick_4">
     <g id="line2d_11">
      <g>
       <use style="stroke:#000000;stroke-width:0.8;" x="57.6" xlink:href="#m159b481068" y="182.592"/>
      </g>
     </g>
     <g id="text_12">
      <!-- 2.2 -->
      <g transform="translate(34.696875 186.391219)scale(0.1 -0.1)">
       <use xlink:href="#DejaVuSerif-50"/>
       <use x="63.623047" xlink:href="#DejaVuSerif-46"/>
       <use x="95.410156" xlink:href="#DejaVuSerif-50"/>
      </g>
     </g>
    </g>
    <g id="ytick_5">
     <g id="line2d_12">
      <g>
       <use style="stroke:#000000;stroke-width:0.8;" x="57.6" xlink:href="#m159b481068" y="150.336"/>
      </g>
     </g>
     <g id="text_13">
      <!-- 2.4 -->
      <g transform="translate(34.696875 154.135219)scale(0.1 -0.1)">
       <use xlink:href="#DejaVuSerif-50"/>
       <use x="63.623047" xlink:href="#DejaVuSerif-46"/>
       <use x="95.410156" xlink:href="#DejaVuSerif-52"/>
      </g>
     </g>
    </g>
    <g id="ytick_6">
     <g id="line2d_13">
      <g>
       <use style="stroke:#000000;stroke-width:0.8;" x="57.6" xlink:href="#m159b481068" y="118.08"/>
      </g>
     </g>
     <g id="text_14">
      <!-- 2.6 -->
      <g transform="translate(34.696875 121.879219)scale(0.1 -0.1)">
       <use xlink:href="#DejaVuSerif-50"/>
       <use x="63.623047" xlink:href="#DejaVuSerif-46"/>
       <use x="95.410156" xlink:href="#DejaVuSerif-54"/>
      </g>
     </g>
    </g>
    <g id="ytick_7">
     <g id="line2d_14">
      <g>
       <use style="stroke:#000000;stroke-width:0.8;" x="57.6" xlink:href="#m159b481068" y="85.824"/>
      </g>
     </g>
     <g id="text_15">
      <!-- 2.8 -->
      <g transform="translate(34.696875 89.623219)scale(0.1 -0.1)">
       <use xlink:href="#DejaVuSerif-50"/>
       <use x="63.623047" xlink:href="#DejaVuSerif-46"/>
       <use x="95.410156" xlink:href="#DejaVuSerif-56"/>
      </g>
     </g>
    </g>
    <g id="ytick_8">
     <g id="line2d_15">
      <g>
       <use style="stroke:#000000;stroke-width:0.8;" x="57.6" xlink:href="#m159b481068" y="53.568"/>
      </g>
     </g>
     <g id="text_16">
      <!-- 3.0 -->
      <g transform="translate(34.696875 57.367219)scale(0.1 -0.1)">
       <use xlink:href="#DejaVuSerif-51"/>
       <use x="63.623047" xlink:href="#DejaVuSerif-46"/>
       <use x="95.410156" xlink:href="#DejaVuSerif-48"/>
      </g>
     </g>
    </g>
    <g id="text_17">
     <!-- Speed -->
     <g transform="translate(28.617187 190.273313)rotate(-90)scale(0.1 -0.1)">
      <defs>
       <path d="M 9.28125 3.515625 
L 9.28125 20.125 
L 14.890625 20.0625 
Q 15.140625 11.765625 19.703125 7.78125 
Q 24.265625 3.8125 33.59375 3.8125 
Q 42.28125 3.8125 46.84375 7.25 
Q 51.421875 10.6875 51.421875 17.28125 
Q 51.421875 22.5625 48.65625 25.390625 
Q 45.90625 28.21875 37.015625 30.90625 
L 27.390625 33.796875 
Q 16.9375 36.96875 12.671875 41.703125 
Q 8.40625 46.4375 8.40625 54.6875 
Q 8.40625 63.96875 14.984375 69.09375 
Q 21.578125 74.21875 33.5 74.21875 
Q 38.578125 74.21875 44.625 73.109375 
Q 50.6875 72.015625 57.515625 69.921875 
L 57.515625 54.390625 
L 52 54.390625 
Q 51.171875 62.109375 46.84375 65.546875 
Q 42.53125 69 33.6875 69 
Q 25.984375 69 21.953125 65.84375 
Q 17.921875 62.703125 17.921875 56.6875 
Q 17.921875 51.46875 20.9375 48.484375 
Q 23.96875 45.515625 33.796875 42.578125 
L 42.828125 39.890625 
Q 52.734375 36.921875 56.953125 32.296875 
Q 61.1875 27.6875 61.1875 19.921875 
Q 61.1875 9.328125 54.390625 3.953125 
Q 47.609375 -1.421875 34.1875 -1.421875 
Q 28.171875 -1.421875 21.9375 -0.1875 
Q 15.71875 1.03125 9.28125 3.515625 
z
" id="DejaVuSerif-83"/>
       <path d="M 20.515625 28.515625 
L 20.515625 23.390625 
Q 20.515625 14.015625 24.09375 9.109375 
Q 27.6875 4.203125 34.515625 4.203125 
Q 41.40625 4.203125 44.9375 9.71875 
Q 48.484375 15.234375 48.484375 25.984375 
Q 48.484375 36.765625 44.9375 42.234375 
Q 41.40625 47.703125 34.515625 47.703125 
Q 27.6875 47.703125 24.09375 42.765625 
Q 20.515625 37.84375 20.515625 28.515625 
z
M 11.53125 46.6875 
L 2.875 46.6875 
L 2.875 51.90625 
L 20.515625 51.90625 
L 20.515625 43.796875 
Q 23.140625 48.6875 27.21875 51 
Q 31.296875 53.328125 37.3125 53.328125 
Q 46.875 53.328125 52.921875 45.75 
Q 58.984375 38.1875 58.984375 25.984375 
Q 58.984375 13.765625 52.921875 6.171875 
Q 46.875 -1.421875 37.3125 -1.421875 
Q 31.296875 -1.421875 27.21875 0.890625 
Q 23.140625 3.21875 20.515625 8.109375 
L 20.515625 -15.578125 
L 29 -15.578125 
L 29 -20.796875 
L 2.875 -20.796875 
L 2.875 -15.578125 
L 11.53125 -15.578125 
z
" id="DejaVuSerif-112"/>
       <path d="M 52.484375 5.171875 
L 61.078125 5.171875 
L 61.078125 0 
L 43.5 0 
L 43.5 8.109375 
Q 40.875 3.21875 36.796875 0.890625 
Q 32.71875 -1.421875 26.703125 -1.421875 
Q 17.140625 -1.421875 11.0625 6.171875 
Q 4.984375 13.765625 4.984375 25.984375 
Q 4.984375 38.1875 11.03125 45.75 
Q 17.09375 53.328125 26.703125 53.328125 
Q 32.71875 53.328125 36.796875 51 
Q 40.875 48.6875 43.5 43.796875 
L 43.5 70.796875 
L 35.015625 70.796875 
L 35.015625 75.984375 
L 52.484375 75.984375 
z
M 43.5 23.390625 
L 43.5 28.515625 
Q 43.5 37.84375 39.90625 42.765625 
Q 36.328125 47.703125 29.5 47.703125 
Q 22.5625 47.703125 19.015625 42.234375 
Q 15.484375 36.765625 15.484375 25.984375 
Q 15.484375 15.234375 19.015625 9.71875 
Q 22.5625 4.203125 29.5 4.203125 
Q 36.328125 4.203125 39.90625 9.109375 
Q 43.5 14.015625 43.5 23.390625 
z
" id="DejaVuSerif-100"/>
      </defs>
      <use xlink:href="#DejaVuSerif-83"/>
      <use x="68.505859" xlink:href="#DejaVuSerif-112"/>
      <use x="132.519531" xlink:href="#DejaVuSerif-101"/>
      <use x="191.699219" xlink:href="#DejaVuSerif-101"/>
      <use x="250.878906" xlink:href="#DejaVuSerif-100"/>
     </g>
    </g>
   </g>
   <g id="line2d_16">
    <path clip-path="url(#pa6581a38e3)" d="M 73.832727 295.488 
L 73.913137 53.568 
L 74.084008 295.488 
L 74.164418 53.568 
L 74.335288 150.336 
L 74.586569 150.336 
L 74.75744 214.848 
L 74.918259 214.848 
L 75.008721 53.568 
L 75.16954 260.928 
L 75.340411 122.688 
L 75.420821 260.928 
L 75.591692 174.528 
L 75.672101 295.488 
L 75.923382 107.328 
L 76.094253 214.848 
L 76.174663 107.328 
L 76.345533 247.104 
L 76.516404 150.336 
L 76.677224 150.336 
L 76.848095 185.524364 
L 77.099375 185.524364 
L 77.270246 214.848 
L 77.350656 134.208 
L 77.431066 214.848 
L 77.521527 134.208 
L 77.601936 165.223385 
L 77.682346 239.660308 
L 77.853217 165.223385 
L 77.933627 239.660308 
L 78.184907 122.688 
L 78.355778 191.808 
L 78.526649 150.336 
L 78.607059 214.848 
L 78.687469 150.336 
L 78.858339 235.008 
L 79.02921 174.528 
L 79.19003 174.528 
L 79.280491 195.873882 
L 79.360901 138.951529 
L 79.531771 195.873882 
L 79.612181 195.873882 
L 79.692591 214.848 
L 79.863462 161.088 
L 79.943872 214.848 
L 80.034333 161.088 
L 80.195152 180.894316 
L 80.446433 180.894316 
L 80.536894 150.336 
L 80.617304 198.72 
L 80.697713 150.336 
L 80.868584 198.72 
L 81.039455 168.768 
L 81.119865 214.848 
L 81.290736 168.768 
L 81.371146 141.538909 
L 81.542016 185.524364 
L 81.702836 185.524364 
L 81.793297 200.823652 
L 81.873707 158.750609 
L 82.044578 200.823652 
L 82.124987 158.750609 
L 82.205397 174.528 
L 82.547139 174.528 
L 82.707958 189.0432 
L 82.878829 189.0432 
L 82.959239 150.336 
L 83.0497 165.223385 
L 83.13011 202.441846 
L 83.300981 165.223385 
L 83.38139 202.441846 
L 83.552261 179.008 
L 83.632671 214.848 
L 83.803542 179.008 
L 83.883952 157.248 
L 84.054822 191.808 
L 84.135232 157.248 
L 84.306103 203.725241 
L 84.466923 170.356966 
L 84.637793 170.356966 
L 84.808664 182.592 
L 85.059945 182.592 
L 85.140355 194.037677 
L 85.311225 162.822194 
L 85.391635 194.037677 
L 85.472045 162.822194 
L 85.562506 174.528 
L 85.642916 204.768 
L 85.813787 174.528 
L 85.894196 204.768 
L 86.145477 156.200727 
L 86.316348 185.524364 
L 86.477167 167.412706 
L 86.567628 195.873882 
L 86.648038 167.412706 
L 86.728448 195.873882 
L 86.899319 177.984 
L 87.150599 177.984 
L 87.231009 187.968 
L 87.32147 161.088 
L 87.48229 187.968 
L 87.572751 187.968 
L 87.653161 197.412324 
L 87.824032 171.258811 
L 87.904441 197.412324 
L 87.984851 171.258811 
L 88.155722 180.894316 
L 88.407003 180.894316 
L 88.577873 190.035692 
L 88.658283 165.223385 
L 88.829154 190.035692 
L 88.989974 174.528 
L 89.080435 198.72 
L 89.241254 174.528 
L 89.331715 159.77678 
L 89.492535 183.378732 
L 89.663406 183.378732 
L 89.743815 191.808 
L 89.834276 168.768 
L 89.914686 191.808 
L 90.085557 168.768 
L 90.246377 177.341023 
L 90.336838 177.341023 
L 90.417247 199.845209 
L 90.497657 177.341023 
L 90.668528 185.524364 
L 90.839399 185.524364 
L 90.919809 163.531636 
L 91.000218 171.84 
L 91.090679 193.344 
L 91.251499 171.84 
L 91.34196 193.344 
L 91.50278 179.78713 
L 91.75406 179.78713 
L 91.844521 166.807149 
L 92.005341 187.396085 
L 92.095802 166.807149 
L 92.256621 194.688 
L 92.347082 174.528 
L 92.427492 194.688 
L 92.598363 174.528 
L 92.759183 181.933714 
L 93.010463 181.933714 
L 93.100924 189.0432 
L 93.261744 169.6896 
L 93.352205 189.0432 
L 93.432615 169.6896 
L 93.513024 176.899765 
L 93.603486 195.873882 
L 93.764305 176.899765 
L 93.854766 195.873882 
L 94.106047 165.223385 
L 94.266866 183.832615 
L 94.357327 172.245736 
L 94.518147 190.503849 
L 94.608608 172.245736 
L 94.689018 190.503849 
L 94.859889 179.008 
L 95.111169 179.008 
L 95.191579 185.524364 
L 95.271989 167.930182 
L 95.36245 185.524364 
L 95.44286 167.930182 
L 95.61373 191.808 
L 95.77455 174.528 
L 95.865011 191.808 
L 95.945421 174.528 
L 96.025831 180.894316 
L 96.367572 180.894316 
L 96.528392 187.041103 
L 96.618853 170.356966 
L 96.779672 187.041103 
L 96.950543 176.578169 
L 97.201824 176.578169 
L 97.282234 166.464 
L 97.453104 182.592 
L 97.623975 182.592 
L 97.704385 188.408656 
L 97.784795 172.545049 
L 97.875256 188.408656 
L 98.036075 172.545049 
L 98.206946 178.429935 
L 98.287356 178.429935 
L 98.377817 194.037677 
L 98.458227 178.429935 
L 98.538637 184.128 
L 98.629098 168.768 
L 98.789917 184.128 
L 98.880378 168.768 
L 98.960788 174.528 
L 99.041198 189.648 
L 99.212069 174.528 
L 99.292478 189.648 
L 99.463349 180.110769 
L 99.71463 180.110769 
L 99.79504 170.862545 
L 99.96591 185.524364 
L 100.04632 170.862545 
L 100.136781 185.524364 
L 100.297601 176.333373 
L 100.388062 190.776358 
L 100.548882 176.333373 
L 100.719752 181.643294 
L 100.971033 181.643294 
L 101.051443 186.799304 
L 101.141904 172.774957 
L 101.302723 186.799304 
L 101.393184 172.774957 
L 101.473594 177.984 
L 101.554004 191.808 
L 101.724875 177.984 
L 101.805285 177.984 
L 101.976155 183.04631 
L 102.056565 169.417014 
L 102.227436 183.04631 
L 102.307846 174.528 
L 102.398307 187.968 
L 102.559126 174.528 
L 102.649587 187.968 
L 102.810407 179.498959 
L 103.061688 179.498959 
L 103.232558 184.335568 
L 103.312968 184.335568 
L 103.403429 171.258811 
L 103.564249 189.0432 
L 103.73512 176.1408 
L 103.815529 189.0432 
L 103.90599 176.1408 
L 103.9864 180.894316 
L 104.06681 168.161684 
L 104.237681 180.894316 
L 104.318091 180.894316 
L 104.488961 185.524364 
L 104.569371 172.957091 
L 104.740242 185.524364 
L 104.911113 177.629538 
L 105.071932 177.629538 
L 105.162393 190.035692 
L 105.323213 182.183696 
L 105.574494 182.183696 
L 105.745364 174.528 
L 105.825774 186.624 
L 105.996645 174.528 
L 106.167516 179.008 
L 106.247926 179.008 
L 106.328335 190.954667 
L 106.418797 179.008 
L 106.499206 183.378732 
L 106.579616 171.577756 
L 106.750487 183.378732 
L 106.830897 171.577756 
L 106.921358 175.985349 
L 107.001768 187.644145 
L 107.082177 175.985349 
L 107.172638 187.644145 
L 107.253048 175.985349 
L 107.333458 180.288 
L 107.6752 180.288 
L 107.755609 173.104941 
L 107.92648 184.489412 
L 108.00689 173.104941 
L 108.0873 184.489412 
L 108.258171 177.341023 
L 108.33858 188.593116 
L 108.509451 177.341023 
L 108.680322 181.479724 
L 108.760732 181.479724 
L 108.841142 170.356966 
L 109.012012 185.524364 
L 109.092422 174.528 
L 109.263293 185.524364 
L 109.343703 174.528 
L 109.434164 178.605303 
L 109.514574 189.478112 
L 109.685444 178.605303 
L 109.765854 178.605303 
L 109.936725 182.592 
L 110.188006 182.592 
L 110.268415 175.857231 
L 110.348825 186.491077 
L 110.519696 175.857231 
L 110.600106 186.491077 
L 110.770977 179.78713 
L 111.022257 179.78713 
L 111.102667 173.227355 
L 111.273538 183.632516 
L 111.353948 173.227355 
L 111.524818 187.396085 
L 111.695689 177.101617 
L 111.776099 187.396085 
L 111.856509 177.101617 
L 112.02738 180.894316 
L 112.27866 180.894316 
L 112.449531 184.608 
L 112.529941 174.528 
L 112.610351 184.608 
L 112.700812 174.528 
L 112.861631 178.269031 
L 113.032502 178.269031 
L 113.112912 188.245113 
L 113.283783 181.933714 
L 113.535063 181.933714 
L 113.705934 175.749818 
L 113.786344 185.524364 
L 113.866754 175.749818 
L 114.037625 189.0432 
L 114.208495 179.3664 
L 114.369315 179.3664 
L 114.459776 182.911366 
L 114.540186 173.330376 
L 114.711057 182.911366 
L 114.791466 173.330376 
L 114.871876 176.899765 
L 114.962337 186.386824 
L 115.042747 176.899765 
L 115.123157 186.386824 
L 115.213618 176.899765 
L 115.374437 180.399845 
L 115.625718 180.399845 
L 115.716179 174.528 
L 115.796589 183.832615 
L 115.876999 174.528 
L 116.047869 183.832615 
L 116.21874 177.984 
L 116.29915 187.2 
L 116.470021 177.984 
L 116.550431 172.245736 
L 116.721301 181.374792 
L 116.801711 172.245736 
L 116.972582 184.702206 
L 117.052992 175.658467 
L 117.223863 184.702206 
L 117.304272 175.658467 
L 117.384682 179.008 
L 117.726424 179.008 
L 117.887243 182.296073 
L 118.058114 182.296073 
L 118.138524 173.418275 
L 118.228985 176.727273 
L 118.309395 185.524364 
L 118.480266 176.727273 
L 118.560675 185.524364 
L 118.731546 179.976649 
L 118.982827 179.976649 
L 119.063237 174.528 
L 119.234108 183.168 
L 119.314517 174.528 
L 119.485388 186.302867 
L 119.646208 177.739327 
L 119.817079 177.739327 
L 119.987949 180.894316 
L 120.23923 180.894316 
L 120.40005 183.994435 
L 120.490511 175.579826 
L 120.57092 183.994435 
L 120.65133 175.579826 
L 120.741791 178.699034 
L 120.822201 187.041103 
L 120.993072 178.699034 
L 121.073482 187.041103 
L 121.324762 173.494154 
L 121.495633 181.764923 
L 121.656453 176.578169 
L 121.746914 184.778847 
L 121.827323 176.578169 
L 121.998194 187.742118 
L 122.159014 179.610353 
L 122.329885 179.610353 
L 122.410294 182.592 
L 122.500755 174.528 
L 122.661575 182.592 
L 122.752036 182.592 
L 122.832446 185.524364 
L 123.003317 177.527008 
L 123.083726 185.524364 
L 123.164136 177.527008 
L 123.335007 180.476852 
L 123.505878 180.476852 
L 123.586288 172.545049 
L 123.666697 175.511415 
L 123.757158 183.378732 
L 123.837568 175.511415 
L 124.008439 183.378732 
L 124.169259 178.429935 
L 124.25972 186.233806 
L 124.420539 178.429935 
L 124.511 173.56032 
L 124.67182 181.30176 
L 124.842691 181.30176 
L 124.9231 184.128 
L 125.013561 176.448 
L 125.093971 184.128 
L 125.264842 176.448 
L 125.425662 179.290205 
L 125.676942 179.290205 
L 125.847813 182.088 
L 126.018684 182.088 
L 126.099094 174.528 
L 126.179504 177.341023 
L 126.269965 184.842419 
L 126.430784 177.341023 
L 126.521245 184.842419 
L 126.682065 180.110769 
L 126.933345 180.110769 
L 127.023806 175.451359 
L 127.184626 182.838229 
L 127.275087 175.451359 
L 127.435907 185.524364 
L 127.526368 178.193455 
L 127.606777 185.524364 
L 127.777648 178.193455 
L 127.938468 180.894316 
L 128.189748 180.894316 
L 128.280209 183.554866 
L 128.441029 176.333373 
L 128.53149 183.554866 
L 128.6119 176.333373 
L 128.69231 179.008 
L 128.782771 186.176 
L 128.94359 179.008 
L 129.034051 179.008 
L 129.194871 181.643294 
L 129.285332 174.528 
L 129.446151 181.643294 
L 129.536612 177.176759 
L 129.697432 184.240117 
L 129.787893 177.176759 
L 129.868303 184.240117 
L 130.039174 179.78713 
L 130.290454 179.78713 
L 130.370864 182.359942 
L 130.451274 175.398216 
L 130.541735 182.359942 
L 130.622145 175.398216 
L 130.793015 184.896 
L 130.953835 177.984 
L 131.044296 184.896 
L 131.124706 177.984 
L 131.205116 180.533106 
L 131.546857 180.533106 
L 131.707677 183.04631 
L 131.798138 176.231662 
L 131.958958 183.04631 
L 132.129828 178.757371 
L 132.381109 178.757371 
L 132.461519 174.528 
L 132.63239 181.248 
L 132.80326 181.248 
L 132.88367 183.704276 
L 132.96408 177.030621 
L 133.054541 183.704276 
L 133.215361 177.030621 
L 133.386231 179.498959 
L 133.466641 179.498959 
L 133.557102 186.126904 
L 133.637512 179.498959 
L 133.717922 181.933714 
L 133.808383 175.350857 
L 133.969202 181.933714 
L 134.059663 175.350857 
L 134.140073 177.797189 
L 134.220483 184.335568 
L 134.391354 177.797189 
L 134.471764 177.797189 
L 134.642634 180.210685 
L 134.893915 180.210685 
L 134.974325 176.1408 
L 135.145196 182.592 
L 135.225605 176.1408 
L 135.316066 182.592 
L 135.476886 178.533298 
L 135.567347 184.941775 
L 135.728167 178.533298 
L 135.899037 180.894316 
L 135.979447 180.894316 
L 136.069908 174.528 
L 136.230728 183.224471 
L 136.321189 176.899765 
L 136.482008 183.224471 
L 136.572469 176.899765 
L 136.652879 179.240727 
L 136.733289 185.524364 
L 136.90416 179.240727 
L 136.98457 179.240727 
L 137.15544 181.551484 
L 137.23585 175.308387 
L 137.406721 181.551484 
L 137.487131 177.629538 
L 137.577592 183.832615 
L 137.738411 177.629538 
L 137.828873 183.832615 
L 137.989692 179.921121 
L 138.240973 179.921121 
L 138.411844 182.183696 
L 138.492253 182.183696 
L 138.582714 176.059139 
L 138.743534 184.417811 
L 138.914405 178.331774 
L 138.994815 184.417811 
L 139.085276 178.331774 
L 139.165685 180.576 
L 139.246095 174.528 
L 139.416966 180.576 
L 139.497376 180.576 
L 139.668247 182.792348 
L 139.748656 176.781913 
L 139.839117 182.792348 
L 139.919527 176.781913 
L 139.999937 179.008 
L 140.251218 179.008 
L 140.341679 184.981333 
L 140.502498 181.206773 
L 140.753779 181.206773 
L 140.92465 177.478244 
L 141.005059 183.378732 
L 141.17593 177.478244 
L 141.346801 179.659636 
L 141.598082 179.659636 
L 141.678491 181.814747 
L 141.758901 175.985349 
L 141.929772 181.814747 
L 142.010182 175.985349 
L 142.100643 178.149557 
L 142.181053 183.944048 
L 142.261462 178.149557 
L 142.351923 183.944048 
L 142.432333 178.149557 
L 142.512743 180.288 
L 142.854485 180.288 
L 142.934894 176.675219 
L 143.015304 182.401136 
L 143.105765 176.675219 
L 143.266585 182.401136 
L 143.437456 178.797176 
L 143.517865 184.489412 
L 143.688736 178.797176 
L 143.859607 180.894316 
L 143.940017 180.894316 
L 144.020427 175.235368 
L 144.191297 182.96707 
L 144.271707 177.341023 
L 144.442578 182.96707 
L 144.522988 177.341023 
L 144.693859 179.422335 
L 144.945139 179.422335 
L 145.11601 181.479724 
L 145.27683 181.479724 
L 145.367291 175.918345 
L 145.447701 177.984 
L 145.52811 183.5136 
L 145.698981 177.984 
L 145.779391 183.5136 
L 145.950262 180.026182 
L 146.201542 180.026182 
L 146.281952 176.578169 
L 146.452823 182.045288 
L 146.533233 176.578169 
L 146.704104 184.041708 
L 146.874974 178.605303 
L 147.035794 178.605303 
L 147.206665 180.609788 
L 147.457945 180.609788 
L 147.628816 182.592 
L 147.709226 177.216 
L 147.789636 182.592 
L 147.880097 177.216 
L 148.040916 179.206011 
L 148.211787 179.206011 
L 148.292197 184.552309 
L 148.543478 175.857231 
L 148.714348 181.174154 
L 148.885219 177.832918 
L 148.965629 183.120787 
L 149.046039 177.832918 
L 149.21691 185.046261 
L 149.38778 179.78713 
L 149.5486 179.78713 
L 149.639061 181.720216 
L 149.719471 176.489514 
L 149.890342 181.720216 
L 149.970751 181.720216 
L 150.051161 183.632516 
L 150.222032 178.429935 
L 150.302442 183.632516 
L 150.392903 178.429935 
L 150.553722 180.349604 
L 150.724593 180.349604 
L 150.805003 175.174845 
L 150.895464 177.101617 
L 150.975874 182.248851 
L 151.056284 177.101617 
L 151.227155 182.248851 
L 151.398025 179.008 
L 151.478435 184.128 
L 151.649306 179.008 
L 151.729716 175.801263 
L 151.900587 180.894316 
L 152.061406 180.894316 
L 152.151867 182.76088 
L 152.232277 177.694492 
L 152.312687 182.76088 
L 152.483558 177.694492 
L 152.654428 179.568 
L 152.905709 179.568 
L 153.066529 181.422093 
L 153.237399 181.422093 
L 153.317809 176.408207 
L 153.40827 178.269031 
L 153.48868 183.257072 
L 153.659551 178.269031 
L 153.739961 183.257072 
L 153.910831 180.110769 
L 154.162112 180.110769 
L 154.242522 176.996571 
L 154.413393 181.933714 
L 154.493802 176.996571 
L 154.664673 183.738152 
L 154.825493 178.826071 
L 154.996364 178.826071 
L 155.167234 180.637091 
L 155.418515 180.637091 
L 155.498925 182.42991 
L 155.669796 177.567196 
L 155.750205 182.42991 
L 155.830615 177.567196 
L 155.921076 179.3664 
L 156.001486 184.2048 
L 156.172357 179.3664 
L 156.252767 179.3664 
L 156.423637 181.147701 
L 156.504047 176.333373 
L 156.674918 181.147701 
L 156.755328 178.120871 
L 156.926199 182.911366 
L 157.006608 178.120871 
L 157.087018 182.911366 
L 157.257889 179.890759 
L 157.50917 179.890759 
L 157.58958 181.643294 
L 157.680041 176.899765 
L 157.76045 181.643294 
L 157.84086 176.899765 
L 158.011731 183.378732 
L 158.182602 178.658341 
L 158.263012 183.378732 
L 158.343421 178.658341 
L 158.514292 180.399845 
L 158.765573 180.399845 
L 158.936444 182.124522 
L 159.016853 177.449739 
L 159.187724 182.124522 
L 159.348544 179.180308 
L 159.599824 179.180308 
L 159.690285 176.264268 
L 159.851105 180.894316 
L 160.021976 180.894316 
L 160.192847 177.984 
L 160.273256 182.592 
L 160.444127 177.984 
L 160.604947 179.687431 
L 160.695408 179.687431 
L 160.775818 184.273592 
L 160.856227 179.687431 
L 160.946688 181.374792 
L 161.027098 176.810264 
L 161.197969 181.374792 
L 161.278379 176.810264 
L 161.358789 178.503211 
L 161.44925 183.04631 
L 161.610069 178.503211 
L 161.70053 178.503211 
L 161.86135 180.180336 
L 162.11263 180.180336 
L 162.203091 177.341023 
L 162.363911 181.84186 
L 162.454372 177.341023 
L 162.534782 181.84186 
L 162.705653 179.008 
L 162.786062 183.488 
L 162.956933 179.008 
L 163.117753 180.659613 
L 163.208214 180.659613 
L 163.288624 176.200258 
L 163.459495 182.296073 
L 163.539904 177.857174 
L 163.710775 182.296073 
L 163.791185 177.857174 
L 163.871595 179.498959 
L 163.962056 183.917589 
L 164.122875 179.498959 
L 164.213336 179.498959 
L 164.374156 181.125818 
L 164.464617 176.727273 
L 164.625437 181.125818 
L 164.715898 178.359312 
L 164.796307 182.737955 
L 164.967178 178.359312 
L 165.047588 182.737955 
L 165.218459 179.976649 
L 165.469739 179.976649 
L 165.550149 177.240108 
L 165.72102 181.57948 
L 165.80143 177.240108 
L 165.972301 183.168 
L 166.13312 178.848 
L 166.223581 183.168 
L 166.303991 178.848 
L 166.384401 180.4416 
L 166.474862 176.1408 
L 166.635681 180.4416 
L 166.726142 180.4416 
L 166.886962 182.021097 
L 166.977423 177.739327 
L 167.057833 182.021097 
L 167.138243 177.739327 
L 167.309113 179.323771 
L 167.479984 179.323771 
L 167.560394 183.586678 
L 167.731265 180.894316 
L 167.982545 180.894316 
L 168.143365 178.225467 
L 168.233826 182.451144 
L 168.394646 178.225467 
L 168.565516 179.78713 
L 168.816797 179.78713 
L 168.897207 181.335273 
L 168.987668 177.146182 
L 169.148487 181.335273 
L 169.238948 177.146182 
L 169.399768 178.699034 
L 169.490229 178.699034 
L 169.570639 182.870069 
L 169.651049 178.699034 
L 169.82192 180.238558 
L 170.0732 180.238558 
L 170.15361 177.629538 
L 170.244071 181.764923 
L 170.324481 177.629538 
L 170.495352 181.764923 
L 170.656171 179.160511 
L 170.746632 183.278298 
L 170.907452 179.160511 
L 170.997913 176.578169 
L 171.158732 180.678508 
L 171.249193 176.578169 
L 171.410013 182.183696 
L 171.500474 178.100658 
L 171.661294 182.183696 
L 171.751755 178.100658 
L 171.912574 179.610353 
L 172.163855 179.610353 
L 172.334726 181.107414 
L 172.505596 181.107414 
L 172.586006 177.058544 
L 172.666416 178.56 
L 172.756877 182.592 
L 172.917697 178.56 
L 173.008158 182.592 
L 173.168977 180.048996 
L 173.420258 180.048996 
L 173.510719 177.527008 
L 173.671538 181.525686 
L 173.761999 177.527008 
L 173.922819 182.990222 
L 174.09369 179.008 
L 174.264561 179.008 
L 174.42538 180.476852 
L 174.676661 180.476852 
L 174.767122 181.933714 
L 174.927941 177.984 
L 175.018402 181.933714 
L 175.098812 177.984 
L 175.179222 179.445073 
L 175.430503 179.445073 
L 175.520964 183.378732 
L 175.772244 176.976583 
L 175.933064 180.894316 
L 176.103935 178.429935 
L 176.184344 182.331871 
L 176.274806 178.429935 
L 176.355215 182.331871 
L 176.526086 179.871614 
L 176.777367 179.871614 
L 176.857777 181.30176 
L 176.938186 177.43104 
L 177.109057 181.30176 
L 177.189467 181.30176 
L 177.279928 182.72051 
L 177.440748 178.865211 
L 177.531209 182.72051 
L 177.611618 178.865211 
L 177.692028 180.288 
L 177.943309 180.288 
L 178.03377 176.448 
L 178.11418 177.874719 
L 178.194589 181.699542 
L 178.28505 177.874719 
L 178.44587 181.699542 
L 178.616741 179.290205 
L 178.868021 179.290205 
L 178.948431 176.899765 
L 179.119302 180.694588 
L 179.290173 180.694588 
L 179.370583 182.088 
L 179.450992 178.308 
L 179.541453 182.088 
L 179.702273 178.308 
L 179.873144 179.705276 
L 180.124424 179.705276 
L 180.204834 181.091721 
L 180.295295 177.341023 
L 180.456115 181.091721 
L 180.546576 177.341023 
L 180.626986 178.731243 
L 180.707395 182.467459 
L 180.878266 178.731243 
L 180.958676 182.467459 
L 181.129547 180.110769 
L 181.380827 180.110769 
L 181.461237 177.772138 
L 181.632108 181.479724 
L 181.712518 177.772138 
L 181.802979 181.479724 
L 181.963798 179.144794 
L 182.054259 182.838229 
L 182.215079 179.144794 
L 182.38595 180.507011 
L 182.46636 180.507011 
L 182.556821 176.82762 
L 182.71764 181.858909 
L 182.888511 178.193455 
L 182.968921 181.858909 
L 183.059382 178.193455 
L 183.139792 179.548981 
L 183.220202 183.200604 
L 183.391072 179.548981 
L 183.471482 179.548981 
L 183.642353 180.894316 
L 183.722763 177.256421 
L 183.893634 180.894316 
L 183.974043 178.605303 
L 184.064504 182.229573 
L 184.225324 178.605303 
L 184.315785 182.229573 
L 184.476605 179.944119 
L 184.727885 179.944119 
L 184.818346 181.272981 
L 184.898756 177.675658 
L 184.979166 181.272981 
L 185.069627 177.675658 
L 185.230446 182.592 
L 185.401317 179.008 
L 185.481727 182.592 
L 185.572188 179.008 
L 185.652598 180.330509 
L 185.733008 176.759734 
L 185.903878 180.330509 
L 185.984288 180.330509 
L 186.155159 181.643294 
L 186.235569 178.085647 
L 186.40644 181.643294 
L 186.57731 179.401846 
L 186.828591 179.401846 
L 186.909001 177.176759 
L 187.079872 180.708438 
L 187.240691 180.708438 
L 187.411562 178.486691 
L 187.491972 182.005527 
L 187.662843 178.486691 
L 187.833713 179.78713 
L 188.084994 179.78713 
L 188.165404 181.078181 
L 188.245814 177.584751 
L 188.416684 181.078181 
L 188.497094 177.584751 
L 188.587555 178.879079 
L 188.667965 182.359942 
L 188.748375 178.879079 
L 188.838836 182.359942 
L 188.919246 178.879079 
L 188.999656 180.164129 
L 189.341397 180.164129 
L 189.421807 177.984 
L 189.502217 181.44 
L 189.673088 177.984 
L 189.753497 181.44 
L 189.924368 179.263089 
L 190.004778 182.70679 
L 190.175649 179.263089 
L 190.34652 180.533106 
L 190.426929 180.533106 
L 190.507339 177.101617 
L 190.67821 181.794148 
L 190.75862 178.374784 
L 190.929491 181.794148 
L 191.0099 178.374784 
L 191.180771 179.638986 
L 191.432052 179.638986 
L 191.602923 180.894316 
L 191.683332 177.498947 
L 191.763742 180.894316 
L 191.854203 177.498947 
L 191.934613 178.757371 
L 192.015023 182.140867 
L 192.185894 178.757371 
L 192.266303 182.140867 
L 192.437174 180.007024 
L 192.688455 180.007024 
L 192.768865 177.888 
L 192.939735 181.248 
L 193.020145 177.888 
L 193.191016 182.480388 
L 193.361887 179.132014 
L 193.522706 179.132014 
L 193.693577 180.367448 
L 193.944858 180.367448 
L 194.115729 181.594392 
L 194.196138 178.269031 
L 194.276548 181.594392 
L 194.367009 178.269031 
L 194.527829 179.498959 
L 194.6987 179.498959 
L 194.779109 182.812932 
L 195.03039 177.417829 
L 195.201261 180.720491 
L 195.372132 178.642286 
L 195.452542 181.933714 
L 195.532951 178.642286 
L 195.623412 181.933714 
L 195.784232 179.858441 
L 196.035513 179.858441 
L 196.125974 181.066378 
L 196.206383 177.797189 
L 196.377254 181.066378 
L 196.457664 177.797189 
L 196.538074 179.008 
L 196.708945 179.008 
L 196.789354 182.266182 
L 196.879815 179.008 
L 197.040635 180.210685 
L 197.211506 180.210685 
L 197.291916 176.963436 
L 197.382377 178.168936 
L 197.462786 181.405324 
L 197.543196 178.168936 
L 197.714067 181.405324 
L 197.884938 179.3664 
L 197.965348 182.592 
L 198.136218 179.3664 
L 198.216628 177.341023 
L 198.387499 180.555907 
L 198.467909 177.341023 
L 198.63878 181.737536 
L 198.719189 178.533298 
L 198.799599 181.737536 
L 198.97047 178.533298 
L 199.141341 179.717703 
L 199.392621 179.717703 
L 199.473031 180.894316 
L 199.553441 177.711158 
L 199.724312 180.894316 
L 199.804722 177.711158 
L 199.895183 178.890492 
L 199.975592 182.063213 
L 200.146463 178.890492 
L 200.226873 182.063213 
L 200.397744 180.062118 
L 200.649024 180.062118 
L 200.729434 178.074059 
L 200.900305 181.226111 
L 200.980715 178.074059 
L 201.061125 181.226111 
L 201.231995 179.240727 
L 201.483276 179.240727 
L 201.654147 180.399845 
L 201.905428 180.399845 
L 201.985837 181.551484 
L 202.156708 178.429935 
L 202.237118 181.551484 
L 202.317528 178.429935 
L 202.407989 179.584206 
L 202.488399 182.695717 
L 202.659269 179.584206 
L 202.739679 179.584206 
L 202.91055 180.731077 
L 202.99096 177.629538 
L 203.161831 180.731077 
L 203.32265 178.77899 
L 203.493521 178.77899 
L 203.573931 181.87062 
L 203.744802 179.921121 
L 203.996082 179.921121 
L 204.076492 181.056 
L 204.166953 177.984 
L 204.247363 181.056 
L 204.327773 177.984 
L 204.498643 182.183696 
L 204.669514 179.121418 
L 204.749924 182.183696 
L 204.830334 179.121418 
L 204.920795 180.251659 
L 205.001205 177.199041 
L 205.172075 180.251659 
L 205.252485 180.251659 
L 205.423356 181.374792 
L 205.503766 178.331774 
L 205.674637 181.374792 
L 205.835456 179.457404 
L 206.086737 179.457404 
L 206.177198 177.552 
L 206.338017 180.576 
L 206.508888 180.576 
L 206.679759 178.673047 
L 206.760169 181.687626 
L 206.93104 178.673047 
L 207.091859 179.78713 
L 207.34314 179.78713 
L 207.433601 180.894316 
L 207.514011 177.898402 
L 207.684882 180.894316 
L 207.765291 177.898402 
L 207.845701 179.008 
L 207.936162 181.994667 
L 208.096982 179.008 
L 208.187443 179.008 
L 208.348262 180.110769 
L 208.599543 180.110769 
L 208.690004 178.238429 
L 208.770414 181.206773 
L 208.941285 178.238429 
L 209.021694 181.206773 
L 209.192565 179.336807 
L 209.272975 182.296073 
L 209.443846 179.336807 
L 209.604665 180.428488 
L 209.695126 180.428488 
L 209.775536 177.478244 
L 209.946407 181.513532 
L 210.026817 178.572255 
L 210.197688 181.513532 
L 210.278097 178.572255 
L 210.358507 179.659636 
L 210.700249 179.659636 
L 210.861068 180.740447 
L 210.951529 177.816943 
L 211.031939 180.740447 
L 211.112349 177.816943 
L 211.20281 178.900048 
L 211.28322 181.814747 
L 211.454091 178.900048 
L 211.5345 181.814747 
L 211.705371 179.976649 
L 211.956652 179.976649 
L 212.037062 178.149557 
L 212.207932 181.046802 
L 212.288342 178.149557 
L 212.459213 182.110567 
L 212.620033 179.22197 
L 212.790903 179.22197 
L 212.871313 180.288 
L 212.961774 177.408 
L 213.122594 180.288 
L 213.213055 180.288 
L 213.373874 181.347703 
L 213.464335 178.476249 
L 213.544745 181.347703 
L 213.625155 178.476249 
L 213.796026 179.538178 
L 213.966897 179.538178 
L 214.047307 182.401136 
L 214.298587 177.739327 
L 214.469458 180.593841 
L 214.630278 178.797176 
L 214.720739 181.643294 
L 214.881558 178.797176 
L 215.052429 179.848821 
L 215.30371 179.848821 
L 215.384119 180.894316 
L 215.47458 178.064842 
L 215.6354 180.894316 
L 215.725861 178.064842 
L 215.886681 179.11249 
L 215.977142 179.11249 
L 216.057551 181.933714 
L 216.137961 179.11249 
L 216.308832 180.154047 
L 216.479703 180.154047 
L 216.560113 177.341023 
L 216.640522 178.384696 
L 216.730983 181.189565 
L 216.811393 178.384696 
L 216.982264 181.189565 
L 217.143084 179.422335 
L 217.233545 182.219098 
L 217.394364 179.422335 
L 217.484825 177.665291 
L 217.645645 180.453994 
L 217.736106 177.665291 
L 217.896925 181.479724 
L 217.987386 178.699034 
L 218.067796 181.479724 
L 218.238667 178.699034 
L 218.399487 179.726854 
L 218.650767 179.726854 
L 218.821638 180.7488 
L 218.992509 180.7488 
L 219.072919 177.984 
L 219.153328 179.008 
L 219.243789 181.764923 
L 219.404609 179.008 
L 219.49507 181.764923 
L 219.746351 177.277091 
L 219.90717 180.026182 
L 219.997631 178.297292 
L 220.158451 181.038595 
L 220.248912 178.297292 
L 220.329322 181.038595 
L 220.500193 179.311729 
L 220.751473 179.311729 
L 220.912293 180.320451 
L 221.163573 180.320451 
L 221.254034 181.323506 
L 221.414854 178.605303 
L 221.505315 181.323506 
L 221.585725 178.605303 
L 221.666135 179.610353 
L 221.756596 182.320941 
L 221.917415 179.610353 
L 222.007876 179.610353 
L 222.168696 180.609788 
L 222.259157 177.906771 
L 222.419976 180.609788 
L 222.590847 178.908167 
L 222.671257 181.603655 
L 222.761718 178.908167 
L 222.842128 181.603655 
L 223.012999 179.904 
L 223.264279 179.904 
L 223.344689 180.894316 
L 223.425099 178.213762 
L 223.51556 180.894316 
L 223.59597 178.213762 
L 223.76684 181.87916 
L 223.92766 179.206011 
L 224.018121 181.87916 
L 224.098531 179.206011 
L 224.178941 180.192793 
L 224.269402 177.527008 
L 224.430221 180.192793 
L 224.520682 177.527008 
L 224.601092 178.515692 
L 224.681502 181.174154 
L 224.771963 178.515692 
L 224.932782 181.174154 
L 225.103653 179.498959 
L 225.354934 179.498959 
L 225.435344 177.832918 
L 225.606214 180.476852 
L 225.777085 180.476852 
L 225.937905 178.812687 
L 226.028366 181.449417 
L 226.189185 178.812687 
L 226.360056 179.78713 
L 226.440466 179.78713 
L 226.530927 182.416696 
L 226.611337 179.78713 
L 226.691747 180.756293 
L 226.782208 178.133854 
L 226.943027 180.756293 
L 227.033488 178.133854 
L 227.113898 179.104865 
L 227.194308 181.720216 
L 227.365179 179.104865 
L 227.445589 179.104865 
L 227.616459 180.070642 
L 227.86774 180.070642 
L 227.94815 178.429935 
L 228.038611 181.031226 
L 228.19943 178.429935 
L 228.289891 181.031226 
L 228.450711 179.392343 
L 228.541172 181.98666 
L 228.701992 179.392343 
L 228.872862 180.349604 
L 228.953272 180.349604 
L 229.043733 177.762225 
L 229.204553 181.30176 
L 229.375424 178.72128 
L 229.455833 181.30176 
L 229.546294 178.72128 
L 229.707114 179.675234 
L 229.958395 179.675234 
L 230.129265 180.624127 
L 230.209675 178.057337 
L 230.300136 180.624127 
L 230.380546 178.057337 
L 230.460956 179.008 
L 230.551417 181.568 
L 230.712236 179.008 
L 230.802697 181.568 
L 230.963517 179.953646 
L 231.214798 179.953646 
L 231.305259 178.347789 
L 231.466078 180.894316 
L 231.556539 178.347789 
L 231.717359 181.830047 
L 231.88823 179.290205 
L 232.0591 179.290205 
L 232.13951 180.227686 
L 232.21992 177.694492 
L 232.390791 180.227686 
L 232.471201 180.227686 
L 232.642071 181.160272 
L 232.722481 178.633692 
L 232.812942 181.160272 
L 232.893352 178.633692 
L 232.973762 179.568 
L 233.225042 179.568 
L 233.315504 182.088 
L 233.566784 177.984 
L 233.727604 180.497455 
L 233.898475 178.91515 
L 233.978884 181.422093 
L 234.230165 177.341023 
L 234.401036 179.841488 
L 234.571907 179.841488 
L 234.652316 180.763052 
L 234.732726 178.269031 
L 234.903597 180.763052 
L 234.984007 178.269031 
L 235.154878 179.192267 
L 235.235287 179.192267 
L 235.325748 181.679877 
L 235.406158 179.192267 
L 235.486568 180.110769 
L 235.737849 180.110769 
L 235.82831 177.629538 
L 235.908719 178.549688 
L 235.989129 181.024573 
L 236.07959 178.549688 
L 236.24041 181.024573 
L 236.411281 179.465143 
L 236.49169 181.933714 
L 236.742971 177.913649 
L 236.913842 180.375939 
L 236.994252 177.913649 
L 237.165122 181.282112 
L 237.245532 178.826071 
L 237.335993 181.282112 
L 237.496813 178.826071 
L 237.667684 179.733873 
L 237.918964 179.733873 
L 237.999374 180.637091 
L 238.089835 178.193455 
L 238.250655 180.637091 
L 238.341116 178.193455 
L 238.421525 179.098277 
L 238.501935 181.535758 
L 238.672806 179.098277 
L 238.753216 181.535758 
L 239.004496 177.567196 
L 239.175367 179.998553 
L 239.255777 178.469053 
L 239.426648 180.894316 
L 239.507058 178.469053 
L 239.597519 180.894316 
L 239.758338 179.3664 
L 240.009619 179.3664 
L 240.18049 180.259272 
L 240.43177 180.259272 
L 240.51218 181.147701 
L 240.683051 178.740537 
L 240.763461 181.147701 
L 240.853922 178.740537 
L 240.934332 179.630531 
L 241.014741 182.031722 
L 241.185612 179.630531 
L 241.266022 179.630531 
L 241.436893 180.516119 
L 241.517303 178.120871 
L 241.688173 180.516119 
L 241.859044 179.008 
L 242.019864 179.008 
L 242.110325 181.397333 
L 242.271144 179.890759 
L 242.522425 179.890759 
L 242.612886 180.769179 
L 242.693296 178.391587 
L 242.773706 180.769179 
L 242.864167 178.391587 
L 243.024986 181.643294 
L 243.195857 179.271529 
L 243.276267 181.643294 
L 243.366728 179.271529 
L 243.447138 180.147169 
L 243.527547 177.781203 
L 243.698418 180.147169 
L 243.778828 177.781203 
L 243.869289 178.658341 
L 243.949699 181.018537 
L 244.030109 178.658341 
L 244.200979 181.018537 
L 244.37185 179.531212 
L 244.623131 179.531212 
L 244.703541 178.051107 
L 244.874411 180.399845 
L 245.035231 180.399845 
L 245.206102 178.92122 
L 245.286512 181.264271 
L 245.457382 178.92122 
L 245.628253 179.78713 
L 245.879534 179.78713 
L 245.959944 180.648867 
L 246.040354 178.317108 
L 246.211224 180.648867 
L 246.291634 178.317108 
L 246.382095 179.180308 
L 246.462505 181.506462 
L 246.633376 179.180308 
L 246.713786 179.180308 
L 246.884656 180.039367 
L 247.135937 180.039367 
L 247.216347 178.579292 
L 247.296757 180.894316 
L 247.467627 178.579292 
L 247.548037 180.894316 
L 247.718908 179.435685 
L 247.799318 181.745184 
L 247.970189 179.435685 
L 248.141059 180.288 
L 248.221469 180.288 
L 248.301879 177.984 
L 248.47275 181.136266 
L 248.643621 178.837739 
L 248.72403 181.136266 
L 248.80444 178.837739 
L 248.975311 179.687431 
L 249.226592 179.687431 
L 249.397462 180.533106 
L 249.477872 178.245447 
L 249.558282 180.533106 
L 249.648743 178.245447 
L 249.729153 179.092528 
L 249.809563 181.374792 
L 249.980433 179.092528 
L 250.060843 181.374792 
L 250.231714 179.935624 
L 250.482995 179.935624 
L 250.653865 178.503211 
L 250.734275 180.774761 
L 250.814685 178.503211 
L 250.985556 181.609967 
L 251.156427 179.343738 
L 251.317246 179.343738 
L 251.407707 180.180336 
L 251.488117 177.919402 
L 251.658988 180.180336 
L 251.739398 180.180336 
L 251.910269 181.013035 
L 251.990678 178.757371 
L 252.071088 181.013035 
L 252.161549 178.757371 
L 252.322369 179.591442 
L 252.49324 179.591442 
L 252.573649 181.84186 
L 252.82493 178.176445 
L 252.995801 180.421643 
L 253.166672 179.008 
L 253.247081 181.248 
L 253.417952 179.008 
L 253.498362 177.600887 
L 253.669233 179.835714 
L 253.830052 179.835714 
L 253.920513 180.659613 
L 254.000923 178.429935 
L 254.171794 180.659613 
L 254.252204 178.429935 
L 254.332614 179.255172 
L 254.503484 179.255172 
L 254.583894 181.479724 
L 254.674355 179.255172 
L 254.835175 180.076624 
L 255.006046 180.076624 
L 255.086455 177.857174 
L 255.176916 178.679945 
L 255.257326 180.894316 
L 255.428197 178.679945 
L 255.508607 180.894316 
L 255.679478 179.498959 
L 255.759887 181.708274 
L 255.930758 179.498959 
L 256.011168 178.109959 
L 256.182039 180.314241 
L 256.262449 178.109959 
L 256.433319 181.125818 
L 256.513729 178.926545 
L 256.594139 181.125818 
L 256.76501 178.926545 
L 256.935881 179.739429 
L 257.187161 179.739429 
L 257.267571 180.548633 
L 257.347981 178.359312 
L 257.518852 180.548633 
L 257.599261 178.359312 
L 257.689722 179.169806 
L 257.770132 181.354185 
L 257.941003 179.169806 
L 258.021413 181.354185 
L 258.272693 177.797189 
L 258.443564 179.976649 
L 258.523974 178.605303 
L 258.694845 180.779865 
L 258.775255 178.605303 
L 258.855665 180.779865 
L 259.026535 179.409794 
L 259.277816 179.409794 
L 259.448687 180.210685 
L 259.699967 180.210685 
L 259.780377 181.008 
L 259.951248 178.848 
L 260.031658 181.008 
L 260.112068 178.848 
L 260.282938 179.646575 
L 260.534219 179.646575 
L 260.70509 180.4416 
L 260.7855 178.2912 
L 260.95637 180.4416 
L 261.11719 179.087468 
L 261.288061 179.087468 
L 261.368471 181.2331 
L 261.539341 179.880212 
L 261.790622 179.880212 
L 261.871032 180.669457 
L 261.961493 178.533298 
L 262.041903 180.669457 
L 262.122312 178.533298 
L 262.293183 181.455225 
L 262.464054 179.323771 
L 262.544464 181.455225 
L 262.624874 179.323771 
L 262.715335 180.110769 
L 262.795744 177.984 
L 262.966615 180.110769 
L 263.047025 177.984 
L 263.127435 178.772211 
L 263.217896 180.894316 
L 263.298306 178.772211 
L 263.378715 180.894316 
L 263.469176 178.772211 
L 263.629996 179.556972 
L 263.881277 179.556972 
L 263.971738 178.225467 
L 264.132557 180.338306 
L 264.303428 180.338306 
L 264.474299 179.008 
L 264.554709 181.116235 
L 264.72558 179.008 
L 264.886399 179.78713 
L 264.97686 179.78713 
L 265.05727 177.683478 
L 265.228141 180.562881 
L 265.308551 178.463792 
L 265.479421 180.562881 
L 265.559831 178.463792 
L 265.640241 179.240727 
L 265.730702 181.335273 
L 265.891522 179.240727 
L 265.981983 179.240727 
L 266.142802 180.014307 
L 266.394083 180.014307 
L 266.484544 178.699034 
L 266.564954 180.784552 
L 266.735824 178.699034 
L 266.816234 180.784552 
L 266.987105 179.470452 
L 267.067515 181.551484 
L 267.238386 179.470452 
L 267.318795 178.161991 
L 267.489666 180.238558 
L 267.570076 178.161991 
L 267.740947 181.003375 
L 267.901766 178.931255 
L 267.992227 181.003375 
L 268.072637 178.931255 
L 268.153047 179.697231 
L 268.494789 179.697231 
L 268.655608 180.45994 
L 268.746069 178.396657 
L 268.826479 180.45994 
L 268.906889 178.396657 
L 268.99735 179.160511 
L 269.07776 181.219404 
L 269.24863 179.160511 
L 269.32904 181.219404 
L 269.499911 179.921121 
L 269.751192 179.921121 
L 269.831601 178.628339 
L 270.002472 180.678508 
L 270.082882 178.628339 
L 270.253753 181.432693 
L 270.414572 179.386858 
L 270.585443 179.386858 
L 270.665853 180.142177 
L 270.756314 178.100658 
L 270.917134 180.142177 
L 271.007595 180.142177 
L 271.088005 180.894316 
L 271.258875 178.857095 
L 271.339285 180.894316 
L 271.419695 178.857095 
L 271.590566 179.610353 
L 271.761437 179.610353 
L 271.841846 181.643294 
L 272.093127 178.331774 
L 272.263998 180.360453 
L 272.424817 179.082979 
L 272.515278 181.107414 
L 272.676098 179.082979 
L 272.766559 177.810839 
L 272.927379 179.831048 
L 273.098249 179.831048 
L 273.178659 180.576 
L 273.26912 178.56 
L 273.42994 180.576 
L 273.520401 178.56 
L 273.68122 179.306046 
L 273.771681 179.306046 
L 273.852091 181.317854 
L 273.932501 179.306046 
L 274.103372 180.048996 
L 274.274243 180.048996 
L 274.354652 178.041361 
L 274.435062 178.785391 
L 274.525523 180.78887 
L 274.605933 178.785391 
L 274.776804 180.78887 
L 274.937623 179.526347 
L 275.188904 179.526347 
L 275.279365 178.269031 
L 275.440185 180.264247 
L 275.530646 178.269031 
L 275.691465 180.999111 
L 275.781926 179.008 
L 275.862336 180.999111 
L 276.033207 179.008 
L 276.194026 179.743934 
L 276.445307 179.743934 
L 276.535768 180.476852 
L 276.616178 178.493902 
L 276.787049 180.476852 
L 276.867458 178.493902 
L 276.947868 179.227877 
L 277.038329 181.206773 
L 277.199149 179.227877 
L 277.28961 179.227877 
L 277.450429 179.958857 
L 277.540891 177.984 
L 277.70171 179.958857 
L 277.792171 178.716024 
L 277.952991 180.686859 
L 278.043452 178.716024 
L 278.123862 180.686859 
L 278.294732 179.445073 
L 278.546013 179.445073 
L 278.706833 180.171164 
L 278.797294 180.171164 
L 278.877703 178.208325 
L 279.048574 180.894316 
L 279.209394 178.935449 
L 279.299855 180.894316 
L 279.380265 178.935449 
L 279.460674 179.659636 
L 279.551135 181.614545 
L 279.711955 179.659636 
L 279.802416 179.659636 
L 279.963236 180.380903 
L 280.053697 178.429935 
L 280.214516 180.380903 
L 280.385387 179.152225 
L 280.556258 179.152225 
L 280.636668 181.099268 
L 280.807538 179.871614 
L 281.058819 179.871614 
L 281.219639 178.648882 
L 281.3101 180.58812 
L 281.390509 178.648882 
L 281.56138 181.30176 
L 281.7222 179.3664 
L 281.812661 181.30176 
L 281.893071 179.3664 
L 281.97348 180.081054 
L 282.063941 178.149557 
L 282.224761 180.081054 
L 282.315222 178.149557 
L 282.395632 178.865211 
L 282.476042 180.792861 
L 282.566503 178.865211 
L 282.646912 180.792861 
L 282.727322 178.865211 
L 282.898193 179.57802 
L 283.149474 179.57802 
L 283.229883 178.368 
L 283.400754 180.288 
L 283.571625 180.288 
L 283.732445 179.07897 
L 283.822906 180.995168 
L 283.983725 179.07897 
L 284.154596 179.78713 
L 284.405877 179.78713 
L 284.486287 180.492497 
L 284.576748 178.583858 
L 284.737567 180.492497 
L 284.828028 178.583858 
L 284.988848 179.290205 
L 285.240128 179.290205 
L 285.410999 179.993776 
L 285.66228 179.993776 
L 285.74269 178.797176 
L 285.833151 180.694588 
L 285.99397 178.797176 
L 286.084431 180.694588 
L 286.245251 179.498959 
L 286.335712 181.392658 
L 286.496531 179.498959 
L 286.586992 178.308 
L 286.747812 180.198 
L 286.838273 178.308 
L 286.999093 180.894316 
L 287.169963 179.008 
L 287.250373 180.894316 
L 287.340834 179.008 
L 287.501654 179.705276 
L 287.752934 179.705276 
L 287.923805 180.399845 
L 288.004215 178.520854 
L 288.094676 180.399845 
L 288.175086 178.520854 
L 288.255496 179.216372 
L 288.345957 181.091721 
L 288.506776 179.216372 
L 288.597237 181.091721 
L 288.848518 178.037478 
L 289.009337 179.909199 
L 289.099798 178.731243 
L 289.260618 180.599351 
L 289.351079 178.731243 
L 289.511899 181.286844 
L 289.682769 179.422335 
L 289.85364 179.422335 
L 289.93405 180.110769 
L 290.01446 178.249846 
L 290.185331 180.110769 
L 290.265741 180.110769 
L 290.356202 180.79656 
L 290.517021 178.939209 
L 290.607482 180.79656 
L 290.687892 178.939209 
L 290.768302 179.625931 
L 291.110043 179.625931 
L 291.270863 180.310027 
L 291.361324 178.459778 
L 291.522144 180.310027 
L 291.693014 179.144794 
L 291.773424 180.991511 
L 292.024705 177.984 
L 292.195576 179.8272 
L 292.366446 179.8272 
L 292.446856 180.507011 
L 292.527266 178.667316 
L 292.617727 180.507011 
L 292.778547 178.667316 
L 292.949417 179.348038 
L 293.029827 179.348038 
L 293.120288 181.184243 
L 293.200698 179.348038 
L 293.281108 180.026182 
L 293.532388 180.026182 
L 293.622849 178.193455 
L 293.703259 178.872499 
L 293.783669 180.701762 
L 293.87413 178.872499 
L 294.03495 180.701762 
L 294.20582 179.548981 
L 294.457101 179.548981 
L 294.537511 178.400542 
L 294.708382 180.222915 
L 294.788791 178.400542 
L 294.879252 180.222915 
L 295.040072 179.075368 
L 295.130533 180.894316 
L 295.291353 179.075368 
L 295.462223 179.747662 
L 295.713504 179.747662 
L 295.793914 180.417438 
L 295.884375 178.605303 
L 296.045194 180.417438 
L 296.135656 178.605303 
L 296.216065 179.275963 
L 296.296475 181.08471 
L 296.467346 179.275963 
L 296.547756 179.275963 
L 296.718627 179.944119 
L 296.799036 178.138746 
L 296.969907 179.944119 
L 297.050317 178.807777 
L 297.221188 180.609788 
L 297.301598 178.807777 
L 297.392059 180.609788 
L 297.552878 179.47432 
L 297.804159 179.47432 
L 297.97503 180.13839 
L 298.055439 180.13839 
L 298.1459 178.343065 
L 298.30672 180.8 
L 298.477591 179.008 
L 298.558001 180.8 
L 298.648462 179.008 
L 298.809281 179.670477 
L 299.060562 179.670477 
L 299.231433 180.330509 
L 299.311842 178.545122 
L 299.482713 180.330509 
L 299.653584 179.206011 
L 299.814404 179.206011 
L 299.904865 180.98811 
L 300.065684 179.864471 
L 300.316965 179.864471 
L 300.487836 178.744954 
L 300.568245 180.520514 
L 300.658706 178.744954 
L 300.819526 181.174154 
L 300.990397 179.401846 
L 301.070807 181.174154 
L 301.161268 179.401846 
L 301.241677 180.056336 
L 301.322087 178.287269 
L 301.492958 180.056336 
L 301.573368 178.287269 
L 301.663829 178.942599 
L 301.744239 180.708438 
L 301.824648 178.942599 
L 301.915109 180.708438 
L 301.995519 178.942599 
L 302.075929 179.595541 
L 302.417671 179.595541 
L 302.49808 178.486691 
L 302.57849 180.246109 
L 302.668951 178.486691 
L 302.829771 180.246109 
L 303.000642 179.138091 
L 303.081052 180.894316 
L 303.251922 179.138091 
L 303.422793 179.78713 
L 303.674074 179.78713 
L 303.754484 180.433823 
L 303.834893 178.683949 
L 304.005764 180.433823 
L 304.086174 178.683949 
L 304.257045 179.331466 
L 304.508325 179.331466 
L 304.679196 179.976649 
L 304.840016 179.976649 
L 304.930477 178.233081 
L 305.010887 178.879079 
L 305.091296 180.619511 
L 305.262167 178.879079 
L 305.342577 180.619511 
L 305.513448 179.522758 
L 305.593858 181.260065 
L 305.845138 178.429935 
L 306.016009 180.164129 
L 306.096419 178.429935 
L 306.26729 180.803206 
L 306.43816 179.072114 
L 306.59898 179.072114 
L 306.769851 179.712 
L 307.021131 179.712 
L 307.192002 180.349604 
L 307.272412 178.624684 
L 307.352822 180.349604 
L 307.443283 178.624684 
L 307.523693 179.263089 
L 307.604102 180.98494 
L 307.774973 179.263089 
L 307.855383 180.98494 
L 308.106664 178.180433 
L 308.277534 179.899226 
L 308.357944 178.817362 
L 308.528815 180.533106 
L 308.609225 178.817362 
L 308.699686 180.533106 
L 308.860505 179.452035 
L 309.111786 179.452035 
L 309.202247 180.084466 
L 309.282657 178.374784 
L 309.453528 180.084466 
L 309.533938 180.084466 
L 309.614347 180.714667 
L 309.785218 179.008 
L 309.865628 180.714667 
L 309.956089 179.008 
L 310.116909 179.638986 
L 310.368189 179.638986 
L 310.53906 180.267754 
L 310.61947 178.567086 
L 310.790341 180.267754 
L 310.961211 179.196632 
L 311.041621 180.894316 
L 311.122031 179.196632 
L 311.212492 180.894316 
L 311.373312 179.823972 
L 311.624592 179.823972 
L 311.715053 180.449119 
L 311.795463 178.757371 
L 311.875873 180.449119 
L 312.046744 178.757371 
L 312.217614 179.383288 
L 312.298024 179.383288 
L 312.378434 181.072084 
L 312.468895 179.383288 
L 312.549305 180.007024 
L 312.629715 178.321171 
L 312.800585 180.007024 
L 312.880995 178.321171 
L 312.971456 178.94567 
L 313.051866 180.628591 
L 313.132276 178.94567 
L 313.303147 180.628591 
L 313.474017 179.568 
L 313.725298 179.568 
L 313.805708 178.511085 
L 313.976579 180.188173 
L 314.056988 178.511085 
L 314.137398 180.188173 
L 314.308269 179.132014 
L 314.388679 180.806201 
L 314.55955 179.132014 
L 314.73042 179.750798 
L 314.81083 179.750798 
L 314.89124 178.079503 
L 315.062111 180.367448 
L 315.142521 178.699034 
L 315.313392 180.367448 
L 315.393801 178.699034 
L 315.484262 179.316434 
L 315.564672 180.981976 
L 315.735543 179.316434 
L 315.815953 179.316434 
L 315.986824 179.931711 
L 316.238104 179.931711 
L 316.318514 178.88505 
L 316.398924 180.544878 
L 316.569795 178.88505 
L 316.650204 180.544878 
L 316.821075 179.498959 
L 317.072356 179.498959 
L 317.243227 180.110769 
L 317.323636 180.110769 
L 317.404046 178.456615 
L 317.574917 180.720491 
L 317.745788 179.06916 
L 317.826198 180.720491 
L 317.906607 179.06916 
L 318.077478 179.679618 
L 318.328759 179.679618 
L 318.49963 180.288 
L 318.580039 178.642286 
L 318.660449 180.288 
L 318.75091 178.642286 
L 318.91173 179.251396 
L 319.082601 179.251396 
L 319.16301 180.894316 
L 319.333881 179.858441 
L 319.585162 179.858441 
L 319.756033 178.826071 
L 319.836442 180.463431 
L 319.916852 178.826071 
L 320.087723 181.066378 
L 320.258594 179.431784 
L 320.419413 179.431784 
L 320.509874 180.035454 
L 320.590284 178.403616 
L 320.761155 180.035454 
L 320.841565 180.035454 
L 320.921975 180.637091 
L 321.092845 179.008 
L 321.173255 180.637091 
L 321.263716 179.008 
L 321.424536 179.610353 
L 321.675816 179.610353 
L 321.766278 178.58706 
L 321.846687 180.210685 
L 321.927097 178.58706 
L 322.097968 180.210685 
L 322.268839 179.188101 
L 322.349249 180.809005 
L 322.520119 179.188101 
L 322.600529 178.168936 
L 322.7714 179.78713 
L 322.93222 179.78713 
L 323.022681 180.38416 
L 323.10309 178.768668 
L 323.273961 180.38416 
L 323.354371 178.768668 
L 323.434781 179.3664 
L 323.776522 179.3664 
L 323.937342 179.962143 
L 324.108213 179.962143 
L 324.188623 178.352027 
L 324.279084 178.948465 
L 324.359493 180.555907 
L 324.530364 178.948465 
L 324.610774 180.555907 
L 324.781645 179.542925 
L 325.032925 179.542925 
L 325.113335 178.533298 
L 325.284206 180.135417 
L 325.364616 178.533298 
L 325.535487 180.72595 
L 325.615896 179.126479 
L 325.696306 180.72595 
L 325.867177 179.126479 
L 326.038048 179.717703 
L 326.289328 179.717703 
L 326.369738 180.306979 
L 326.540609 178.712778 
L 326.621019 180.306979 
L 326.701429 178.712778 
L 326.79189 179.302737 
L 326.872299 180.894316 
L 327.04317 179.302737 
L 327.12358 180.894316 
L 327.374861 178.301793 
L 327.545731 179.890759 
L 327.626141 178.890492 
L 327.797012 180.476852 
L 327.877422 178.890492 
L 327.957832 180.476852 
L 328.128703 179.477264 
L 328.379983 179.477264 
L 328.550854 180.062118 
L 328.631264 180.062118 
L 328.711674 178.480941 
L 328.882544 180.645064 
L 329.053415 179.066467 
L 329.133825 180.645064 
L 329.214235 179.066467 
L 329.385106 179.650085 
L 329.636386 179.650085 
L 329.807257 180.231805 
L 329.887667 178.658341 
L 330.058538 180.231805 
L 330.219357 179.240727 
L 330.390228 179.240727 
L 330.470638 180.811636 
L 330.641509 179.821225 
L 330.892789 179.821225 
L 331.06366 178.834019 
L 331.14407 180.399845 
L 331.314941 178.834019 
L 331.47576 179.413299 
L 331.566221 179.413299 
L 331.646631 180.976595 
L 331.727041 179.413299 
L 331.817502 179.99071 
L 331.897912 178.429935 
L 332.068782 179.99071 
L 332.149192 178.429935 
L 332.229602 179.008 
L 332.320063 180.566261 
L 332.400473 179.008 
L 332.480883 180.566261 
L 332.571344 179.008 
L 332.732163 179.584206 
L 332.983444 179.584206 
L 333.073905 178.605303 
L 333.234724 180.158562 
L 333.405595 180.158562 
L 333.576466 179.180308 
L 333.656876 180.731077 
L 333.827747 179.180308 
L 333.988566 179.753472 
L 334.079027 179.753472 
L 334.159437 178.205184 
L 334.330308 180.324805 
L 334.410718 178.77899 
L 334.581589 180.324805 
L 334.661998 178.77899 
L 334.742408 179.350967 
L 335.08415 179.350967 
L 335.244969 179.921121 
L 335.49625 179.921121 
L 335.586711 178.951021 
L 335.667121 180.489463 
L 335.837992 178.951021 
L 335.918401 180.489463 
L 336.089272 179.52 
L 336.340553 179.52 
L 336.420963 178.55361 
L 336.591833 180.087176 
L 336.672243 178.55361 
L 336.843114 180.652557 
L 337.003934 179.121418 
L 337.094395 180.652557 
L 337.174804 179.121418 
L 337.255214 179.687431 
L 337.596956 179.687431 
L 337.757775 180.251659 
L 337.848236 178.72535 
L 337.928646 180.251659 
L 338.009056 178.72535 
L 338.099517 179.290205 
L 338.179927 180.81411 
L 338.350798 179.290205 
L 338.431207 180.81411 
L 338.682488 178.331774 
L 338.853359 179.853283 
L 339.014178 178.895473 
L 339.104639 180.414593 
L 339.185049 178.895473 
L 339.35592 180.974144 
L 339.51674 179.457404 
L 339.68761 179.457404 
L 339.76802 180.017577 
L 339.858481 178.503211 
L 340.019301 180.017577 
L 340.109762 180.017577 
L 340.190172 180.576 
L 340.361042 179.064 
L 340.441452 180.576 
L 340.521862 179.064 
L 340.692733 179.623039 
L 340.863604 179.623039 
L 340.944014 178.113398 
L 341.024423 178.673047 
L 341.114884 180.180336 
L 341.195294 178.673047 
L 341.366165 180.180336 
L 341.526985 179.230955 
L 341.617446 180.7359 
L 341.778265 179.230955 
L 341.868726 178.284522 
L 342.029546 179.78713 
L 342.200417 179.78713 
L 342.280826 180.341581 
L 342.371287 178.841302 
L 342.451697 180.341581 
L 342.622568 178.841302 
L 342.783388 179.396359 
L 342.873849 179.396359 
L 342.954258 180.894316 
L 343.034668 179.396359 
L 343.205539 179.9497 
L 343.37641 179.9497 
L 343.45682 178.454059 
L 343.537229 179.008 
L 343.62769 180.501333 
L 343.78851 179.008 
L 343.878971 180.501333 
L 344.039791 179.560234 
L 344.291071 179.560234 
L 344.381532 178.622031 
L 344.542352 180.110769 
L 344.632813 178.622031 
L 344.713223 180.110769 
L 344.884093 179.173161 
L 344.964503 180.659613 
L 345.135374 179.173161 
L 345.296194 179.722601 
L 345.547474 179.722601 
L 345.637935 180.270358 
L 345.718345 178.788459 
L 345.889216 180.270358 
L 345.969626 178.788459 
L 346.050035 179.336807 
L 346.140496 180.81644 
L 346.301316 179.336807 
L 346.391777 179.336807 
L 346.552597 179.883481 
L 346.643058 178.406107 
L 346.803877 179.883481 
L 346.894338 178.953366 
L 346.974748 180.428488 
L 347.145619 178.953366 
L 347.226029 180.428488 
L 347.3969 179.498959 
L 347.64818 179.498959 
L 347.809 180.042894 
L 347.899461 180.042894 
L 347.979871 178.572255 
L 348.150741 180.585178 
L 348.311561 179.116771 
L 348.402022 180.585178 
L 348.482432 179.116771 
L 348.562842 179.659636 
L 348.653303 178.193455 
L 348.814122 179.659636 
L 348.904583 179.659636 
L 349.065403 180.200859 
L 349.155864 178.736896 
L 349.316683 180.200859 
L 349.487554 179.278695 
L 349.658425 179.278695 
L 349.738835 180.740447 
L 349.909706 179.81886 
L 350.160986 179.81886 
L 350.321806 178.900048 
L 350.412267 180.357398 
L 350.492677 178.900048 
L 350.663547 180.894316 
L 350.824367 179.439158 
L 350.995238 179.439158 
L 351.075648 179.976649 
L 351.166109 178.523676 
L 351.326928 179.976649 
L 351.417389 178.523676 
L 351.497799 179.061733 
L 351.578209 180.512528 
L 351.66867 179.061733 
L 351.74908 180.512528 
L 351.829489 179.061733 
L 352.00036 179.59818 
L 352.251641 179.59818 
L 352.332051 178.686565 
L 352.422512 180.133022 
L 352.502921 178.686565 
L 352.673792 180.133022 
L 352.834612 179.22197 
L 352.925073 180.666269 
L 353.085892 179.22197 
L 353.256763 179.755779 
L 353.337173 179.755779 
L 353.427634 178.313633 
L 353.588454 180.288 
L 353.678915 178.848 
L 353.839734 180.288 
L 353.930195 178.848 
L 354.091015 179.380779 
L 354.342296 179.380779 
L 354.513166 179.911976 
L 354.684037 179.911976 
L 354.764447 178.476249 
L 354.844857 179.008 
L 354.935318 180.4416 
L 355.096137 179.008 
L 355.186598 180.4416 
L 355.347418 179.538178 
L 355.437879 180.969657 
L 355.598699 179.538178 
L 355.68916 178.637424 
L 355.849979 180.066789 
L 355.94044 178.637424 
L 356.10126 180.593841 
L 356.272131 179.166584 
L 356.443001 179.166584 
L 356.603821 179.694186 
L 356.855102 179.694186 
L 356.945563 180.220235 
L 357.106382 178.797176 
L 357.196843 180.220235 
L 357.277253 178.797176 
L 357.357663 179.323771 
L 357.448124 180.74474 
L 357.608943 179.323771 
L 357.699404 180.74474 
L 357.950685 178.429935 
L 358.111505 179.848821 
L 358.282375 178.955526 
L 358.362785 180.372334 
L 358.453246 178.955526 
L 358.533656 180.372334 
L 358.704527 179.479579 
L 358.955807 179.479579 
L 359.036217 180.002102 
L 359.116627 178.589431 
L 359.287498 180.002102 
L 359.367908 180.002102 
L 359.458369 180.523102 
L 359.619188 179.11249 
L 359.709649 180.523102 
L 359.790059 179.11249 
L 359.870469 179.634026 
L 360.212211 179.634026 
L 360.37303 180.154047 
L 360.463491 178.747535 
L 360.624311 180.154047 
L 360.795182 179.268087 
L 361.046462 179.268087 
L 361.126872 178.384696 
L 361.297743 179.78713 
L 361.468614 179.78713 
L 361.549023 180.304671 
L 361.629433 178.904266 
L 361.719894 180.304671 
L 361.880714 178.904266 
L 362.051585 179.422335 
L 362.131994 179.422335 
L 362.222455 180.820717 
L 362.302865 179.422335 
L 362.383275 179.938909 
L 362.473736 178.542545 
L 362.634556 179.938909 
L 362.725017 178.542545 
L 362.805426 179.059643 
L 362.885836 180.453994 
L 362.976297 179.059643 
L 363.056707 180.453994 
L 363.137117 179.059643 
L 363.307988 179.575252 
L 363.559268 179.575252 
L 363.639678 178.699034 
L 363.810549 180.089379 
L 363.890959 178.699034 
L 363.98142 180.089379 
L 364.142239 179.213681 
L 364.2327 180.602032 
L 364.39352 179.213681 
L 364.564391 179.726854 
L 364.6448 179.726854 
L 364.735261 178.340493 
L 364.896081 180.238558 
L 364.986542 178.85418 
L 365.147362 180.238558 
L 365.237823 178.85418 
L 365.318232 179.3664 
L 365.398642 180.7488 
L 365.569513 179.3664 
L 365.649923 179.3664 
L 365.820794 179.877158 
L 365.901203 178.49673 
L 366.072074 179.877158 
L 366.152484 179.008 
L 366.242945 180.386462 
L 366.403765 179.008 
L 366.494226 180.386462 
L 366.655045 179.517815 
L 366.906326 179.517815 
L 366.996787 178.651636 
L 367.157607 180.026182 
L 367.248068 178.651636 
L 367.408887 180.533106 
L 367.579758 179.160511 
L 367.660168 180.533106 
L 367.750629 179.160511 
L 367.911448 179.667943 
L 368.162729 179.667943 
L 368.3336 180.173941 
L 368.41401 178.805228 
L 368.504471 180.173941 
L 368.58488 178.805228 
L 368.66529 179.311729 
L 368.916571 179.311729 
L 369.007032 180.678508 
L 369.258312 178.451949 
L 369.419132 179.816801 
L 369.590003 178.957521 
L 369.670413 180.320451 
L 369.760874 178.957521 
L 369.921693 180.822684 
L 370.092564 179.461671 
L 370.263435 179.461671 
L 370.343845 179.964404 
L 370.424254 178.605303 
L 370.595125 179.964404 
L 370.675535 178.605303 
L 370.846406 179.108533 
L 370.926816 179.108533 
L 371.017277 180.465728 
L 371.097686 179.108533 
L 371.178096 179.610353 
L 371.519838 179.610353 
L 371.600248 178.757371 
L 371.680657 180.110769 
L 371.771118 178.757371 
L 371.931938 180.110769 
L 372.102809 179.258279 
L 372.183219 180.609788 
L 372.434499 178.408167 
L 372.60537 179.757791 
L 372.776241 179.757791 
L 372.856651 180.255911 
L 372.937061 178.908167 
L 373.027522 180.255911 
L 373.188341 178.908167 
L 373.359212 179.406776 
L 373.610493 179.406776 
L 373.781363 179.904 
L 373.942183 179.904 
L 374.032644 178.56 
L 374.113054 179.057709 
L 374.193464 180.399845 
L 374.364334 179.057709 
L 374.444744 180.399845 
L 374.615615 179.554039 
L 374.866896 179.554039 
L 374.947305 178.710573 
L 375.118176 180.048996 
L 375.198586 178.710573 
L 375.289047 180.048996 
L 375.449867 179.206011 
L 375.540328 180.542586 
L 375.701147 179.206011 
L 375.872018 179.700083 
L 376.123299 179.700083 
L 376.203708 180.192793 
L 376.374579 178.859901 
L 376.454989 180.192793 
L 376.54545 178.859901 
L 376.62586 179.353089 
L 376.70627 180.684149 
L 376.87714 179.353089 
L 376.95755 179.353089 
L 377.128421 179.844923 
L 377.208831 178.515692 
L 377.379702 179.844923 
L 377.460111 179.008 
L 377.630982 180.335407 
L 377.711392 179.008 
L 377.801853 180.335407 
L 377.962673 179.498959 
L 378.213953 179.498959 
L 378.304414 179.988575 
L 378.384824 178.664799 
L 378.465234 179.988575 
L 378.555695 178.664799 
L 378.716514 180.476852 
L 378.887385 179.154885 
L 378.967795 180.476852 
L 379.058256 179.154885 
L 379.138666 179.643634 
L 379.219076 178.323471 
L 379.389947 179.643634 
L 379.470356 179.643634 
L 379.641227 180.131052 
L 379.721637 178.812687 
L 379.892508 180.131052 
L 380.063379 179.300571 
L 380.224198 179.300571 
L 380.314659 180.617143 
L 380.475479 179.78713 
L 380.726759 179.78713 
L 380.89763 178.95937 
L 380.97804 180.272369 
L 381.148911 178.95937 
L 381.319782 179.445073 
L 381.571062 179.445073 
L 381.651472 179.929461 
L 381.731882 178.620016 
L 381.902753 179.929461 
L 381.983162 178.620016 
L 382.073623 179.104865 
L 382.154033 180.412541 
L 382.234443 179.104865 
L 382.324904 180.412541 
L 382.405314 179.104865 
L 382.485724 179.588405 
L 382.827465 179.588405 
L 382.907875 178.766491 
L 382.988285 180.070642 
L 383.078746 178.766491 
L 383.239565 180.070642 
L 383.410436 179.249184 
L 383.490846 180.55158 
L 383.661717 179.249184 
L 383.832588 179.730581 
L 383.912997 179.730581 
L 383.993407 178.429935 
L 384.164278 180.210685 
L 384.244688 178.911785 
L 384.415559 180.210685 
L 384.495968 178.911785 
L 384.666839 179.392343 
L 384.91812 179.392343 
L 385.088991 179.871614 
L 385.24981 179.871614 
L 385.340271 178.576193 
L 385.420681 179.055914 
L 385.501091 180.349604 
L 385.671962 179.055914 
L 385.752372 180.349604 
L 385.923242 179.534355 
L 386.174523 179.534355 
L 386.254933 178.72128 
L 386.425804 180.01152 
L 386.506213 178.72128 
L 386.677084 180.487414 
L 386.847955 179.198892 
L 387.008775 179.198892 
L 387.179645 179.675234 
L 387.430926 179.675234 
L 387.601797 180.150311 
L 387.682207 178.865211 
L 387.762616 180.150311 
L 387.853077 178.865211 
L 387.933487 179.340732 
L 388.013897 180.624127 
L 388.184768 179.340732 
L 388.265178 180.624127 
L 388.516458 178.533298 
L 388.687329 179.814993 
L 388.8582 179.008 
L 388.93861 180.288 
L 389.019019 179.008 
L 389.10948 180.288 
L 389.2703 179.481448 
L 389.521581 179.481448 
L 389.612042 179.953646 
L 389.692451 178.677024 
L 389.863322 179.953646 
L 389.943732 179.953646 
L 390.024142 180.424601 
L 390.195013 179.14966 
L 390.275422 180.424601 
L 390.365883 179.14966 
L 390.526703 179.621053 
L 390.697574 179.621053 
L 390.777984 178.347789 
L 390.868445 178.819616 
L 390.948854 180.091206 
L 391.029264 178.819616 
L 391.200135 180.091206 
L 391.371006 179.290205 
L 391.622287 179.290205 
L 391.702696 178.491303 
L 391.873567 179.75956 
L 392.034387 179.75956 
L 392.124848 180.227686 
L 392.205258 178.961089 
L 392.285667 180.227686 
L 392.456538 178.961089 
L 392.627409 179.429647 
L 392.707819 179.429647 
L 392.788229 180.694588 
L 392.87869 179.429647 
L 392.959099 179.896982 
L 393.039509 178.633692 
L 393.21038 179.896982 
L 393.29079 178.633692 
L 393.381251 179.101455 
L 393.461661 180.363098 
L 393.632531 179.101455 
L 393.712941 180.363098 
L 393.883812 179.568 
L 394.135093 179.568 
L 394.215502 178.77497 
L 394.386373 180.033332 
L 394.466783 178.77497 
L 394.547193 180.033332 
L 394.718064 179.240727 
L 394.798473 180.497455 
L 394.969344 179.240727 
L 395.140215 179.705276 
L 395.220625 179.705276 
L 395.301035 178.450179 
L 395.471905 180.168622 
L 395.552315 178.91515 
L 395.723186 180.168622 
L 395.803596 178.91515 
L 395.894057 179.378918 
L 395.974467 180.630768 
L 396.145337 179.378918 
L 396.225747 179.378918 
L 396.396618 179.841488 
L 396.477028 178.591256 
L 396.647899 179.841488 
L 396.728308 179.054245 
L 396.808718 180.302865 
L 396.979589 179.054245 
L 397.059999 180.302865 
L 397.23087 179.516041 
L 397.48215 179.516041 
L 397.56256 178.731243 
L 397.733431 179.976649 
L 397.813841 178.731243 
L 397.904302 179.976649 
L 398.155582 177.948463 
L 398.235992 179.192267 
L 398.316402 177.948463 
L 398.406863 178.4099 
L 398.487273 177.167692 
L 398.487273 177.167692 
" style="fill:none;stroke:#1f77b4;stroke-linecap:square;stroke-width:1.5;"/>
   </g>
   <g id="patch_3">
    <path d="M 57.6 307.584 
L 57.6 41.472 
" style="fill:none;stroke:#000000;stroke-linecap:square;stroke-linejoin:miter;stroke-width:0.8;"/>
   </g>
   <g id="patch_4">
    <path d="M 414.72 307.584 
L 414.72 41.472 
" style="fill:none;stroke:#000000;stroke-linecap:square;stroke-linejoin:miter;stroke-width:0.8;"/>
   </g>
   <g id="patch_5">
    <path d="M 57.6 307.584 
L 414.72 307.584 
" style="fill:none;stroke:#000000;stroke-linecap:square;stroke-linejoin:miter;stroke-width:0.8;"/>
   </g>
   <g id="patch_6">
    <path d="M 57.6 41.472 
L 414.72 41.472 
" style="fill:none;stroke:#000000;stroke-linecap:square;stroke-linejoin:miter;stroke-width:0.8;"/>
   </g>
   <g id="text_18">
    <!-- Speed function of time -->
    <g transform="translate(167.024063 35.472)scale(0.12 -0.12)">
     <defs>
      <path id="DejaVuSerif-32"/>
      <path d="M 43.015625 63.71875 
L 38.28125 63.71875 
Q 38.234375 67.390625 36.203125 69.28125 
Q 34.1875 71.1875 30.328125 71.1875 
Q 25.296875 71.1875 23.234375 68.421875 
Q 21.1875 65.671875 21.1875 58.59375 
L 21.1875 51.90625 
L 35.6875 51.90625 
L 35.6875 46.6875 
L 21.1875 46.6875 
L 21.1875 5.171875 
L 32.71875 5.171875 
L 32.71875 0 
L 3.609375 0 
L 3.609375 5.171875 
L 12.203125 5.171875 
L 12.203125 46.6875 
L 3.609375 46.6875 
L 3.609375 51.90625 
L 12.203125 51.90625 
L 12.203125 58.40625 
Q 12.203125 67.09375 16.71875 71.53125 
Q 21.234375 75.984375 29.984375 75.984375 
Q 33.25 75.984375 36.515625 75.390625 
Q 39.796875 74.8125 43.015625 73.578125 
z
" id="DejaVuSerif-102"/>
      <path d="M 35.40625 51.90625 
L 52.203125 51.90625 
L 52.203125 5.171875 
L 60.6875 5.171875 
L 60.6875 0 
L 43.21875 0 
L 43.21875 9.1875 
Q 40.71875 4 36.765625 1.28125 
Q 32.8125 -1.421875 27.59375 -1.421875 
Q 18.953125 -1.421875 14.875 3.484375 
Q 10.796875 8.40625 10.796875 18.890625 
L 10.796875 46.6875 
L 2.6875 46.6875 
L 2.6875 51.90625 
L 19.828125 51.90625 
L 19.828125 21.6875 
Q 19.828125 12.203125 22.140625 8.6875 
Q 24.46875 5.171875 30.421875 5.171875 
Q 36.671875 5.171875 39.9375 9.765625 
Q 43.21875 14.359375 43.21875 23.09375 
L 43.21875 46.6875 
L 35.40625 46.6875 
z
" id="DejaVuSerif-117"/>
      <path d="M 4.109375 0 
L 4.109375 5.171875 
L 12.203125 5.171875 
L 12.203125 46.6875 
L 3.609375 46.6875 
L 3.609375 51.90625 
L 21.1875 51.90625 
L 21.1875 42.671875 
Q 23.6875 47.953125 27.65625 50.640625 
Q 31.640625 53.328125 36.921875 53.328125 
Q 45.515625 53.328125 49.5625 48.390625 
Q 53.609375 43.453125 53.609375 33.015625 
L 53.609375 5.171875 
L 61.625 5.171875 
L 61.625 0 
L 36.8125 0 
L 36.8125 5.171875 
L 44.578125 5.171875 
L 44.578125 30.171875 
Q 44.578125 39.703125 42.234375 43.234375 
Q 39.890625 46.78125 33.984375 46.78125 
Q 27.734375 46.78125 24.453125 42.203125 
Q 21.1875 37.640625 21.1875 28.90625 
L 21.1875 5.171875 
L 29 5.171875 
L 29 0 
z
" id="DejaVuSerif-110"/>
      <path d="M 51.421875 15.578125 
Q 49.515625 7.28125 44.09375 2.921875 
Q 38.671875 -1.421875 30.078125 -1.421875 
Q 18.75 -1.421875 11.859375 6.078125 
Q 4.984375 13.578125 4.984375 25.984375 
Q 4.984375 38.421875 11.859375 45.875 
Q 18.75 53.328125 30.078125 53.328125 
Q 35.015625 53.328125 39.890625 52.171875 
Q 44.78125 51.03125 49.703125 48.6875 
L 49.703125 35.40625 
L 44.484375 35.40625 
Q 43.453125 42.234375 40.015625 45.359375 
Q 36.578125 48.484375 30.171875 48.484375 
Q 22.90625 48.484375 19.1875 42.84375 
Q 15.484375 37.203125 15.484375 25.984375 
Q 15.484375 14.75 19.171875 9.078125 
Q 22.859375 3.421875 30.171875 3.421875 
Q 35.984375 3.421875 39.453125 6.4375 
Q 42.921875 9.46875 44.1875 15.578125 
z
" id="DejaVuSerif-99"/>
      <path d="M 10.796875 46.6875 
L 2.875 46.6875 
L 2.875 51.90625 
L 10.796875 51.90625 
L 10.796875 68.015625 
L 19.828125 68.015625 
L 19.828125 51.90625 
L 36.71875 51.90625 
L 36.71875 46.6875 
L 19.828125 46.6875 
L 19.828125 13.71875 
Q 19.828125 7.125 21.09375 5.265625 
Q 22.359375 3.421875 25.78125 3.421875 
Q 29.296875 3.421875 30.90625 5.484375 
Q 32.515625 7.5625 32.625 12.203125 
L 39.40625 12.203125 
Q 39.015625 5.125 35.546875 1.84375 
Q 32.078125 -1.421875 25 -1.421875 
Q 17.234375 -1.421875 14.015625 2.015625 
Q 10.796875 5.46875 10.796875 13.71875 
z
" id="DejaVuSerif-116"/>
      <path d="M 30.078125 3.421875 
Q 37.3125 3.421875 40.984375 9.125 
Q 44.671875 14.84375 44.671875 25.984375 
Q 44.671875 37.109375 40.984375 42.796875 
Q 37.3125 48.484375 30.078125 48.484375 
Q 22.859375 48.484375 19.171875 42.796875 
Q 15.484375 37.109375 15.484375 25.984375 
Q 15.484375 14.84375 19.1875 9.125 
Q 22.90625 3.421875 30.078125 3.421875 
z
M 30.078125 -1.421875 
Q 18.75 -1.421875 11.859375 6.078125 
Q 4.984375 13.578125 4.984375 25.984375 
Q 4.984375 38.375 11.84375 45.84375 
Q 18.703125 53.328125 30.078125 53.328125 
Q 41.453125 53.328125 48.3125 45.84375 
Q 55.171875 38.375 55.171875 25.984375 
Q 55.171875 13.578125 48.3125 6.078125 
Q 41.453125 -1.421875 30.078125 -1.421875 
z
" id="DejaVuSerif-111"/>
     </defs>
     <use xlink:href="#DejaVuSerif-83"/>
     <use x="68.505859" xlink:href="#DejaVuSerif-112"/>
     <use x="132.519531" xlink:href="#DejaVuSerif-101"/>
     <use x="191.699219" xlink:href="#DejaVuSerif-101"/>
     <use x="250.878906" xlink:href="#DejaVuSerif-100"/>
     <use x="314.892578" xlink:href="#DejaVuSerif-32"/>
     <use x="346.679688" xlink:href="#DejaVuSerif-102"/>
     <use x="383.691406" xlink:href="#DejaVuSerif-117"/>
     <use x="448.095703" xlink:href="#DejaVuSerif-110"/>
     <use x="512.5" xlink:href="#DejaVuSerif-99"/>
     <use x="568.505859" xlink:href="#DejaVuSerif-116"/>
     <use x="608.691406" xlink:href="#DejaVuSerif-105"/>
     <use x="640.673828" xlink:href="#DejaVuSerif-111"/>
     <use x="700.878906" xlink:href="#DejaVuSerif-110"/>
     <use x="765.283203" xlink:href="#DejaVuSerif-32"/>
     <use x="797.070312" xlink:href="#DejaVuSerif-111"/>
     <use x="857.275391" xlink:href="#DejaVuSerif-102"/>
     <use x="894.287109" xlink:href="#DejaVuSerif-32"/>
     <use x="926.074219" xlink:href="#DejaVuSerif-116"/>
     <use x="966.259766" xlink:href="#DejaVuSerif-105"/>
     <use x="998.242188" xlink:href="#DejaVuSerif-109"/>
     <use x="1093.066406" xlink:href="#DejaVuSerif-101"/>
    </g>
   </g>
  </g>
 </g>
 <defs>
  <clipPath id="pa6581a38e3">
   <rect height="266.112" width="357.12" x="57.6" y="41.472"/>
  </clipPath>
 </defs>
</svg>
