<?xml version="1.0" encoding="utf-8" standalone="no"?>
<!DOCTYPE svg PUBLIC "-//W3C//DTD SVG 1.1//EN"
  "http://www.w3.org/Graphics/SVG/1.1/DTD/svg11.dtd">
<!-- Created with matplotlib (https://matplotlib.org/) -->
<svg height="345.6pt" version="1.1" viewBox="0 0 460.8 345.6" width="460.8pt" xmlns="http://www.w3.org/2000/svg" xmlns:xlink="http://www.w3.org/1999/xlink">
 <metadata>
  <rdf:RDF xmlns:cc="http://creativecommons.org/ns#" xmlns:dc="http://purl.org/dc/elements/1.1/" xmlns:rdf="http://www.w3.org/1999/02/22-rdf-syntax-ns#">
   <cc:Work>
    <dc:type rdf:resource="http://purl.org/dc/dcmitype/StillImage"/>
    <dc:date>2023-01-13T15:06:17.213654</dc:date>
    <dc:format>image/svg+xml</dc:format>
    <dc:creator>
     <cc:Agent>
      <dc:title>Matplotlib v3.3.4, https://matplotlib.org/</dc:title>
     </cc:Agent>
    </dc:creator>
   </cc:Work>
  </rdf:RDF>
 </metadata>
 <defs>
  <style type="text/css">*{stroke-linecap:butt;stroke-linejoin:round;}</style>
 </defs>
 <g id="figure_1">
  <g id="patch_1">
   <path d="M 0 345.6 
L 460.8 345.6 
L 460.8 0 
L 0 0 
z
" style="fill:#ffffff;"/>
  </g>
  <g id="axes_1">
   <g id="patch_2">
    <path d="M 57.6 307.584 
L 414.72 307.584 
L 414.72 41.472 
L 57.6 41.472 
z
" style="fill:#ffffff;"/>
   </g>
   <g id="matplotlib.axis_1">
    <g id="xtick_1">
     <g id="line2d_1">
      <defs>
       <path d="M 0 0 
L 0 3.5 
" id="m56231e290c" style="stroke:#000000;stroke-width:0.8;"/>
      </defs>
      <g>
       <use style="stroke:#000000;stroke-width:0.8;" x="72.692445" xlink:href="#m56231e290c" y="307.584"/>
      </g>
     </g>
     <g id="text_1">
      <!-- 0 -->
      <g transform="translate(69.511195 322.182437)scale(0.1 -0.1)">
       <defs>
        <path d="M 31.78125 3.421875 
Q 39.265625 3.421875 42.96875 11.625 
Q 46.6875 19.828125 46.6875 36.375 
Q 46.6875 52.984375 42.96875 61.1875 
Q 39.265625 69.390625 31.78125 69.390625 
Q 24.3125 69.390625 20.59375 61.1875 
Q 16.890625 52.984375 16.890625 36.375 
Q 16.890625 19.828125 20.59375 11.625 
Q 24.3125 3.421875 31.78125 3.421875 
z
M 31.78125 -1.421875 
Q 19.921875 -1.421875 13.25 8.53125 
Q 6.59375 18.5 6.59375 36.375 
Q 6.59375 54.296875 13.25 64.25 
Q 19.921875 74.21875 31.78125 74.21875 
Q 43.703125 74.21875 50.34375 64.25 
Q 56.984375 54.296875 56.984375 36.375 
Q 56.984375 18.5 50.34375 8.53125 
Q 43.703125 -1.421875 31.78125 -1.421875 
z
" id="DejaVuSerif-48"/>
       </defs>
       <use xlink:href="#DejaVuSerif-48"/>
      </g>
     </g>
    </g>
    <g id="xtick_2">
     <g id="line2d_2">
      <g>
       <use style="stroke:#000000;stroke-width:0.8;" x="137.851411" xlink:href="#m56231e290c" y="307.584"/>
      </g>
     </g>
     <g id="text_2">
      <!-- 200 -->
      <g transform="translate(128.307661 322.182437)scale(0.1 -0.1)">
       <defs>
        <path d="M 12.796875 55.515625 
L 7.328125 55.515625 
L 7.328125 68.5 
Q 12.546875 71.296875 17.84375 72.75 
Q 23.140625 74.21875 28.21875 74.21875 
Q 39.59375 74.21875 46.1875 68.703125 
Q 52.78125 63.1875 52.78125 53.71875 
Q 52.78125 43.015625 37.84375 28.125 
Q 36.671875 27 36.078125 26.421875 
L 17.671875 8.015625 
L 48.09375 8.015625 
L 48.09375 17 
L 53.8125 17 
L 53.8125 0 
L 6.78125 0 
L 6.78125 5.328125 
L 28.90625 27.390625 
Q 36.234375 34.71875 39.359375 40.84375 
Q 42.484375 46.96875 42.484375 53.71875 
Q 42.484375 61.078125 38.640625 65.234375 
Q 34.8125 69.390625 28.078125 69.390625 
Q 21.09375 69.390625 17.28125 65.921875 
Q 13.484375 62.453125 12.796875 55.515625 
z
" id="DejaVuSerif-50"/>
       </defs>
       <use xlink:href="#DejaVuSerif-50"/>
       <use x="63.623047" xlink:href="#DejaVuSerif-48"/>
       <use x="127.246094" xlink:href="#DejaVuSerif-48"/>
      </g>
     </g>
    </g>
    <g id="xtick_3">
     <g id="line2d_3">
      <g>
       <use style="stroke:#000000;stroke-width:0.8;" x="203.010376" xlink:href="#m56231e290c" y="307.584"/>
      </g>
     </g>
     <g id="text_3">
      <!-- 400 -->
      <g transform="translate(193.466626 322.182437)scale(0.1 -0.1)">
       <defs>
        <path d="M 34.90625 24.703125 
L 34.90625 63.484375 
L 10.015625 24.703125 
z
M 56.390625 0 
L 23.1875 0 
L 23.1875 5.171875 
L 34.90625 5.171875 
L 34.90625 19.484375 
L 3.078125 19.484375 
L 3.078125 24.8125 
L 35.015625 74.21875 
L 44.671875 74.21875 
L 44.671875 24.703125 
L 58.59375 24.703125 
L 58.59375 19.484375 
L 44.671875 19.484375 
L 44.671875 5.171875 
L 56.390625 5.171875 
z
" id="DejaVuSerif-52"/>
       </defs>
       <use xlink:href="#DejaVuSerif-52"/>
       <use x="63.623047" xlink:href="#DejaVuSerif-48"/>
       <use x="127.246094" xlink:href="#DejaVuSerif-48"/>
      </g>
     </g>
    </g>
    <g id="xtick_4">
     <g id="line2d_4">
      <g>
       <use style="stroke:#000000;stroke-width:0.8;" x="268.169342" xlink:href="#m56231e290c" y="307.584"/>
      </g>
     </g>
     <g id="text_4">
      <!-- 600 -->
      <g transform="translate(258.625592 322.182437)scale(0.1 -0.1)">
       <defs>
        <path d="M 32.71875 3.421875 
Q 39.59375 3.421875 43.296875 8.46875 
Q 47.015625 13.53125 47.015625 23 
Q 47.015625 32.46875 43.296875 37.515625 
Q 39.59375 42.578125 32.71875 42.578125 
Q 25.734375 42.578125 22.0625 37.6875 
Q 18.40625 32.8125 18.40625 23.578125 
Q 18.40625 13.875 22.109375 8.640625 
Q 25.828125 3.421875 32.71875 3.421875 
z
M 16.796875 40.140625 
Q 20.125 43.796875 24.3125 45.59375 
Q 28.515625 47.40625 33.796875 47.40625 
Q 44.671875 47.40625 51 40.859375 
Q 57.328125 34.328125 57.328125 23 
Q 57.328125 11.921875 50.515625 5.25 
Q 43.703125 -1.421875 32.328125 -1.421875 
Q 19.96875 -1.421875 13.328125 7.78125 
Q 6.6875 17 6.6875 34.078125 
Q 6.6875 53.21875 14.546875 63.71875 
Q 22.40625 74.21875 36.71875 74.21875 
Q 40.578125 74.21875 44.828125 73.484375 
Q 49.078125 72.75 53.515625 71.296875 
L 53.515625 59.28125 
L 48 59.28125 
Q 47.40625 64.203125 44.234375 66.796875 
Q 41.0625 69.390625 35.6875 69.390625 
Q 26.21875 69.390625 21.578125 62.203125 
Q 16.9375 55.03125 16.796875 40.140625 
z
" id="DejaVuSerif-54"/>
       </defs>
       <use xlink:href="#DejaVuSerif-54"/>
       <use x="63.623047" xlink:href="#DejaVuSerif-48"/>
       <use x="127.246094" xlink:href="#DejaVuSerif-48"/>
      </g>
     </g>
    </g>
    <g id="xtick_5">
     <g id="line2d_5">
      <g>
       <use style="stroke:#000000;stroke-width:0.8;" x="333.328307" xlink:href="#m56231e290c" y="307.584"/>
      </g>
     </g>
     <g id="text_5">
      <!-- 800 -->
      <g transform="translate(323.784557 322.182437)scale(0.1 -0.1)">
       <defs>
        <path d="M 46.578125 19.921875 
Q 46.578125 27.734375 42.6875 32.046875 
Q 38.8125 36.375 31.78125 36.375 
Q 24.75 36.375 20.875 32.046875 
Q 17 27.734375 17 19.921875 
Q 17 12.0625 20.875 7.734375 
Q 24.75 3.421875 31.78125 3.421875 
Q 38.8125 3.421875 42.6875 7.734375 
Q 46.578125 12.0625 46.578125 19.921875 
z
M 44.578125 55.328125 
Q 44.578125 61.96875 41.203125 65.671875 
Q 37.84375 69.390625 31.78125 69.390625 
Q 25.78125 69.390625 22.390625 65.671875 
Q 19 61.96875 19 55.328125 
Q 19 48.640625 22.390625 44.921875 
Q 25.78125 41.21875 31.78125 41.21875 
Q 37.84375 41.21875 41.203125 44.921875 
Q 44.578125 48.640625 44.578125 55.328125 
z
M 39.3125 38.8125 
Q 47.609375 37.703125 52.25 32.6875 
Q 56.890625 27.6875 56.890625 19.921875 
Q 56.890625 9.671875 50.390625 4.125 
Q 43.890625 -1.421875 31.78125 -1.421875 
Q 19.734375 -1.421875 13.203125 4.125 
Q 6.6875 9.671875 6.6875 19.921875 
Q 6.6875 27.6875 11.328125 32.6875 
Q 15.96875 37.703125 24.3125 38.8125 
Q 16.9375 40.140625 13 44.40625 
Q 9.078125 48.6875 9.078125 55.328125 
Q 9.078125 64.109375 15.125 69.15625 
Q 21.1875 74.21875 31.78125 74.21875 
Q 42.390625 74.21875 48.4375 69.15625 
Q 54.5 64.109375 54.5 55.328125 
Q 54.5 48.6875 50.5625 44.40625 
Q 46.625 40.140625 39.3125 38.8125 
z
" id="DejaVuSerif-56"/>
       </defs>
       <use xlink:href="#DejaVuSerif-56"/>
       <use x="63.623047" xlink:href="#DejaVuSerif-48"/>
       <use x="127.246094" xlink:href="#DejaVuSerif-48"/>
      </g>
     </g>
    </g>
    <g id="xtick_6">
     <g id="line2d_6">
      <g>
       <use style="stroke:#000000;stroke-width:0.8;" x="398.487273" xlink:href="#m56231e290c" y="307.584"/>
      </g>
     </g>
     <g id="text_6">
      <!-- 1000 -->
      <g transform="translate(385.762273 322.182437)scale(0.1 -0.1)">
       <defs>
        <path d="M 14.203125 0 
L 14.203125 5.171875 
L 26.90625 5.171875 
L 26.90625 65.828125 
L 12.203125 56.296875 
L 12.203125 62.703125 
L 29.984375 74.21875 
L 36.71875 74.21875 
L 36.71875 5.171875 
L 49.421875 5.171875 
L 49.421875 0 
z
" id="DejaVuSerif-49"/>
       </defs>
       <use xlink:href="#DejaVuSerif-49"/>
       <use x="63.623047" xlink:href="#DejaVuSerif-48"/>
       <use x="127.246094" xlink:href="#DejaVuSerif-48"/>
       <use x="190.869141" xlink:href="#DejaVuSerif-48"/>
      </g>
     </g>
    </g>
    <g id="text_7">
     <!-- Time -->
     <g transform="translate(223.524844 335.860562)scale(0.1 -0.1)">
      <defs>
       <path d="M 19.09375 0 
L 19.09375 5.171875 
L 28.421875 5.171875 
L 28.421875 67.09375 
L 6.984375 67.09375 
L 6.984375 55.71875 
L 0.984375 55.71875 
L 0.984375 72.90625 
L 65.71875 72.90625 
L 65.71875 55.71875 
L 59.71875 55.71875 
L 59.71875 67.09375 
L 38.28125 67.09375 
L 38.28125 5.171875 
L 47.609375 5.171875 
L 47.609375 0 
z
" id="DejaVuSerif-84"/>
       <path d="M 9.71875 68.015625 
Q 9.71875 70.265625 11.34375 71.921875 
Q 12.984375 73.578125 15.28125 73.578125 
Q 17.53125 73.578125 19.15625 71.921875 
Q 20.796875 70.265625 20.796875 68.015625 
Q 20.796875 65.71875 19.1875 64.109375 
Q 17.578125 62.5 15.28125 62.5 
Q 12.984375 62.5 11.34375 64.109375 
Q 9.71875 65.71875 9.71875 68.015625 
z
M 21.1875 5.171875 
L 29.6875 5.171875 
L 29.6875 0 
L 3.609375 0 
L 3.609375 5.171875 
L 12.203125 5.171875 
L 12.203125 46.6875 
L 3.609375 46.6875 
L 3.609375 51.90625 
L 21.1875 51.90625 
z
" id="DejaVuSerif-105"/>
       <path d="M 51.8125 41.796875 
Q 54.390625 47.515625 58.421875 50.421875 
Q 62.453125 53.328125 67.828125 53.328125 
Q 75.984375 53.328125 79.984375 48.265625 
Q 83.984375 43.21875 83.984375 33.015625 
L 83.984375 5.171875 
L 92.09375 5.171875 
L 92.09375 0 
L 67.1875 0 
L 67.1875 5.171875 
L 75 5.171875 
L 75 31.984375 
Q 75 39.9375 72.65625 43.3125 
Q 70.3125 46.6875 64.890625 46.6875 
Q 58.890625 46.6875 55.734375 42.140625 
Q 52.59375 37.59375 52.59375 28.90625 
L 52.59375 5.171875 
L 60.40625 5.171875 
L 60.40625 0 
L 35.796875 0 
L 35.796875 5.171875 
L 43.609375 5.171875 
L 43.609375 32.328125 
Q 43.609375 40.09375 41.265625 43.390625 
Q 38.921875 46.6875 33.5 46.6875 
Q 27.484375 46.6875 24.328125 42.140625 
Q 21.1875 37.59375 21.1875 28.90625 
L 21.1875 5.171875 
L 29 5.171875 
L 29 0 
L 4.109375 0 
L 4.109375 5.171875 
L 12.203125 5.171875 
L 12.203125 46.78125 
L 3.609375 46.78125 
L 3.609375 51.90625 
L 21.1875 51.90625 
L 21.1875 42.671875 
Q 23.6875 47.859375 27.53125 50.59375 
Q 31.390625 53.328125 36.28125 53.328125 
Q 42.328125 53.328125 46.375 50.3125 
Q 50.4375 47.3125 51.8125 41.796875 
z
" id="DejaVuSerif-109"/>
       <path d="M 54.203125 25 
L 15.484375 25 
L 15.484375 24.609375 
Q 15.484375 14.109375 19.4375 8.765625 
Q 23.390625 3.421875 31.109375 3.421875 
Q 37.015625 3.421875 40.796875 6.515625 
Q 44.578125 9.625 46.09375 15.71875 
L 53.328125 15.71875 
Q 51.171875 7.171875 45.375 2.875 
Q 39.59375 -1.421875 30.171875 -1.421875 
Q 18.796875 -1.421875 11.890625 6.078125 
Q 4.984375 13.578125 4.984375 25.984375 
Q 4.984375 38.28125 11.765625 45.796875 
Q 18.5625 53.328125 29.59375 53.328125 
Q 41.359375 53.328125 47.65625 46.0625 
Q 53.953125 38.8125 54.203125 25 
z
M 43.609375 30.171875 
Q 43.3125 39.265625 39.765625 43.875 
Q 36.234375 48.484375 29.59375 48.484375 
Q 23.390625 48.484375 19.828125 43.84375 
Q 16.265625 39.203125 15.484375 30.171875 
z
" id="DejaVuSerif-101"/>
      </defs>
      <use xlink:href="#DejaVuSerif-84"/>
      <use x="66.699219" xlink:href="#DejaVuSerif-105"/>
      <use x="98.681641" xlink:href="#DejaVuSerif-109"/>
      <use x="193.505859" xlink:href="#DejaVuSerif-101"/>
     </g>
    </g>
   </g>
   <g id="matplotlib.axis_2">
    <g id="ytick_1">
     <g id="line2d_7">
      <defs>
       <path d="M 0 0 
L -3.5 0 
" id="m5ebc11982a" style="stroke:#000000;stroke-width:0.8;"/>
      </defs>
      <g>
       <use style="stroke:#000000;stroke-width:0.8;" x="57.6" xlink:href="#m5ebc11982a" y="279.900371"/>
      </g>
     </g>
     <g id="text_8">
      <!-- −0.25 -->
      <g transform="translate(19.954687 283.69959)scale(0.1 -0.1)">
       <defs>
        <path d="M 10.59375 35.296875 
L 73.1875 35.296875 
L 73.1875 27.390625 
L 10.59375 27.390625 
z
" id="DejaVuSerif-8722"/>
        <path d="M 9.421875 5.078125 
Q 9.421875 7.8125 11.28125 9.71875 
Q 13.140625 11.625 15.921875 11.625 
Q 18.609375 11.625 20.5 9.71875 
Q 22.40625 7.8125 22.40625 5.078125 
Q 22.40625 2.390625 20.5 0.484375 
Q 18.609375 -1.421875 15.921875 -1.421875 
Q 13.140625 -1.421875 11.28125 0.453125 
Q 9.421875 2.34375 9.421875 5.078125 
z
" id="DejaVuSerif-46"/>
        <path d="M 50.296875 72.90625 
L 50.296875 64.890625 
L 16.890625 64.890625 
L 16.890625 44 
Q 19.4375 45.75 22.828125 46.625 
Q 26.21875 47.515625 30.421875 47.515625 
Q 42.234375 47.515625 49.0625 40.96875 
Q 55.90625 34.421875 55.90625 23.09375 
Q 55.90625 11.53125 49 5.046875 
Q 42.09375 -1.421875 29.59375 -1.421875 
Q 24.5625 -1.421875 19.28125 -0.1875 
Q 14.015625 1.03125 8.5 3.515625 
L 8.5 17.671875 
L 14.015625 17.671875 
Q 14.453125 10.75 18.421875 7.078125 
Q 22.40625 3.421875 29.59375 3.421875 
Q 37.3125 3.421875 41.453125 8.5 
Q 45.609375 13.578125 45.609375 23.09375 
Q 45.609375 32.5625 41.484375 37.609375 
Q 37.359375 42.671875 29.59375 42.671875 
Q 25.203125 42.671875 21.84375 41.109375 
Q 18.5 39.546875 15.921875 36.28125 
L 11.71875 36.28125 
L 11.71875 72.90625 
z
" id="DejaVuSerif-53"/>
       </defs>
       <use xlink:href="#DejaVuSerif-8722"/>
       <use x="83.789062" xlink:href="#DejaVuSerif-48"/>
       <use x="147.412109" xlink:href="#DejaVuSerif-46"/>
       <use x="179.199219" xlink:href="#DejaVuSerif-50"/>
       <use x="242.822266" xlink:href="#DejaVuSerif-53"/>
      </g>
     </g>
    </g>
    <g id="ytick_2">
     <g id="line2d_8">
      <g>
       <use style="stroke:#000000;stroke-width:0.8;" x="57.6" xlink:href="#m5ebc11982a" y="245.607588"/>
      </g>
     </g>
     <g id="text_9">
      <!-- −0.20 -->
      <g transform="translate(19.954687 249.406806)scale(0.1 -0.1)">
       <use xlink:href="#DejaVuSerif-8722"/>
       <use x="83.789062" xlink:href="#DejaVuSerif-48"/>
       <use x="147.412109" xlink:href="#DejaVuSerif-46"/>
       <use x="179.199219" xlink:href="#DejaVuSerif-50"/>
       <use x="242.822266" xlink:href="#DejaVuSerif-48"/>
      </g>
     </g>
    </g>
    <g id="ytick_3">
     <g id="line2d_9">
      <g>
       <use style="stroke:#000000;stroke-width:0.8;" x="57.6" xlink:href="#m5ebc11982a" y="211.314804"/>
      </g>
     </g>
     <g id="text_10">
      <!-- −0.15 -->
      <g transform="translate(19.954687 215.114023)scale(0.1 -0.1)">
       <use xlink:href="#DejaVuSerif-8722"/>
       <use x="83.789062" xlink:href="#DejaVuSerif-48"/>
       <use x="147.412109" xlink:href="#DejaVuSerif-46"/>
       <use x="179.199219" xlink:href="#DejaVuSerif-49"/>
       <use x="242.822266" xlink:href="#DejaVuSerif-53"/>
      </g>
     </g>
    </g>
    <g id="ytick_4">
     <g id="line2d_10">
      <g>
       <use style="stroke:#000000;stroke-width:0.8;" x="57.6" xlink:href="#m5ebc11982a" y="177.022021"/>
      </g>
     </g>
     <g id="text_11">
      <!-- −0.10 -->
      <g transform="translate(19.954687 180.821239)scale(0.1 -0.1)">
       <use xlink:href="#DejaVuSerif-8722"/>
       <use x="83.789062" xlink:href="#DejaVuSerif-48"/>
       <use x="147.412109" xlink:href="#DejaVuSerif-46"/>
       <use x="179.199219" xlink:href="#DejaVuSerif-49"/>
       <use x="242.822266" xlink:href="#DejaVuSerif-48"/>
      </g>
     </g>
    </g>
    <g id="ytick_5">
     <g id="line2d_11">
      <g>
       <use style="stroke:#000000;stroke-width:0.8;" x="57.6" xlink:href="#m5ebc11982a" y="142.729237"/>
      </g>
     </g>
     <g id="text_12">
      <!-- −0.05 -->
      <g transform="translate(19.954687 146.528456)scale(0.1 -0.1)">
       <use xlink:href="#DejaVuSerif-8722"/>
       <use x="83.789062" xlink:href="#DejaVuSerif-48"/>
       <use x="147.412109" xlink:href="#DejaVuSerif-46"/>
       <use x="179.199219" xlink:href="#DejaVuSerif-48"/>
       <use x="242.822266" xlink:href="#DejaVuSerif-53"/>
      </g>
     </g>
    </g>
    <g id="ytick_6">
     <g id="line2d_12">
      <g>
       <use style="stroke:#000000;stroke-width:0.8;" x="57.6" xlink:href="#m5ebc11982a" y="108.436454"/>
      </g>
     </g>
     <g id="text_13">
      <!-- 0.00 -->
      <g transform="translate(28.334375 112.235672)scale(0.1 -0.1)">
       <use xlink:href="#DejaVuSerif-48"/>
       <use x="63.623047" xlink:href="#DejaVuSerif-46"/>
       <use x="95.410156" xlink:href="#DejaVuSerif-48"/>
       <use x="159.033203" xlink:href="#DejaVuSerif-48"/>
      </g>
     </g>
    </g>
    <g id="ytick_7">
     <g id="line2d_13">
      <g>
       <use style="stroke:#000000;stroke-width:0.8;" x="57.6" xlink:href="#m5ebc11982a" y="74.14367"/>
      </g>
     </g>
     <g id="text_14">
      <!-- 0.05 -->
      <g transform="translate(28.334375 77.942889)scale(0.1 -0.1)">
       <use xlink:href="#DejaVuSerif-48"/>
       <use x="63.623047" xlink:href="#DejaVuSerif-46"/>
       <use x="95.410156" xlink:href="#DejaVuSerif-48"/>
       <use x="159.033203" xlink:href="#DejaVuSerif-53"/>
      </g>
     </g>
    </g>
    <g id="text_15">
     <!-- Speed -->
     <g transform="translate(13.875 190.273313)rotate(-90)scale(0.1 -0.1)">
      <defs>
       <path d="M 9.28125 3.515625 
L 9.28125 20.125 
L 14.890625 20.0625 
Q 15.140625 11.765625 19.703125 7.78125 
Q 24.265625 3.8125 33.59375 3.8125 
Q 42.28125 3.8125 46.84375 7.25 
Q 51.421875 10.6875 51.421875 17.28125 
Q 51.421875 22.5625 48.65625 25.390625 
Q 45.90625 28.21875 37.015625 30.90625 
L 27.390625 33.796875 
Q 16.9375 36.96875 12.671875 41.703125 
Q 8.40625 46.4375 8.40625 54.6875 
Q 8.40625 63.96875 14.984375 69.09375 
Q 21.578125 74.21875 33.5 74.21875 
Q 38.578125 74.21875 44.625 73.109375 
Q 50.6875 72.015625 57.515625 69.921875 
L 57.515625 54.390625 
L 52 54.390625 
Q 51.171875 62.109375 46.84375 65.546875 
Q 42.53125 69 33.6875 69 
Q 25.984375 69 21.953125 65.84375 
Q 17.921875 62.703125 17.921875 56.6875 
Q 17.921875 51.46875 20.9375 48.484375 
Q 23.96875 45.515625 33.796875 42.578125 
L 42.828125 39.890625 
Q 52.734375 36.921875 56.953125 32.296875 
Q 61.1875 27.6875 61.1875 19.921875 
Q 61.1875 9.328125 54.390625 3.953125 
Q 47.609375 -1.421875 34.1875 -1.421875 
Q 28.171875 -1.421875 21.9375 -0.1875 
Q 15.71875 1.03125 9.28125 3.515625 
z
" id="DejaVuSerif-83"/>
       <path d="M 20.515625 28.515625 
L 20.515625 23.390625 
Q 20.515625 14.015625 24.09375 9.109375 
Q 27.6875 4.203125 34.515625 4.203125 
Q 41.40625 4.203125 44.9375 9.71875 
Q 48.484375 15.234375 48.484375 25.984375 
Q 48.484375 36.765625 44.9375 42.234375 
Q 41.40625 47.703125 34.515625 47.703125 
Q 27.6875 47.703125 24.09375 42.765625 
Q 20.515625 37.84375 20.515625 28.515625 
z
M 11.53125 46.6875 
L 2.875 46.6875 
L 2.875 51.90625 
L 20.515625 51.90625 
L 20.515625 43.796875 
Q 23.140625 48.6875 27.21875 51 
Q 31.296875 53.328125 37.3125 53.328125 
Q 46.875 53.328125 52.921875 45.75 
Q 58.984375 38.1875 58.984375 25.984375 
Q 58.984375 13.765625 52.921875 6.171875 
Q 46.875 -1.421875 37.3125 -1.421875 
Q 31.296875 -1.421875 27.21875 0.890625 
Q 23.140625 3.21875 20.515625 8.109375 
L 20.515625 -15.578125 
L 29 -15.578125 
L 29 -20.796875 
L 2.875 -20.796875 
L 2.875 -15.578125 
L 11.53125 -15.578125 
z
" id="DejaVuSerif-112"/>
       <path d="M 52.484375 5.171875 
L 61.078125 5.171875 
L 61.078125 0 
L 43.5 0 
L 43.5 8.109375 
Q 40.875 3.21875 36.796875 0.890625 
Q 32.71875 -1.421875 26.703125 -1.421875 
Q 17.140625 -1.421875 11.0625 6.171875 
Q 4.984375 13.765625 4.984375 25.984375 
Q 4.984375 38.1875 11.03125 45.75 
Q 17.09375 53.328125 26.703125 53.328125 
Q 32.71875 53.328125 36.796875 51 
Q 40.875 48.6875 43.5 43.796875 
L 43.5 70.796875 
L 35.015625 70.796875 
L 35.015625 75.984375 
L 52.484375 75.984375 
z
M 43.5 23.390625 
L 43.5 28.515625 
Q 43.5 37.84375 39.90625 42.765625 
Q 36.328125 47.703125 29.5 47.703125 
Q 22.5625 47.703125 19.015625 42.234375 
Q 15.484375 36.765625 15.484375 25.984375 
Q 15.484375 15.234375 19.015625 9.71875 
Q 22.5625 4.203125 29.5 4.203125 
Q 36.328125 4.203125 39.90625 9.109375 
Q 43.5 14.015625 43.5 23.390625 
z
" id="DejaVuSerif-100"/>
      </defs>
      <use xlink:href="#DejaVuSerif-83"/>
      <use x="68.505859" xlink:href="#DejaVuSerif-112"/>
      <use x="132.519531" xlink:href="#DejaVuSerif-101"/>
      <use x="191.699219" xlink:href="#DejaVuSerif-101"/>
      <use x="250.878906" xlink:href="#DejaVuSerif-100"/>
     </g>
    </g>
   </g>
   <g id="line2d_14">
    <path clip-path="url(#p7b31075a68)" d="M 73.832727 108.436454 
L 78.664265 108.436454 
L 78.827162 295.488 
L 78.937932 295.488 
L 79.10083 287.355324 
L 79.208342 287.355324 
L 79.371239 279.900371 
L 79.478752 279.900371 
L 79.641649 273.041814 
L 79.752419 273.041814 
L 79.915317 266.710839 
L 80.022829 266.710839 
L 80.130341 260.848825 
L 80.293239 108.436454 
L 93.110007 108.436454 
L 93.272905 53.568 
L 93.325032 53.568 
L 93.487929 54.289953 
L 93.598699 54.289953 
L 93.761597 54.993155 
L 93.869109 54.993155 
L 94.032007 55.678325 
L 94.139519 55.678325 
L 94.302416 56.34615 
L 94.413187 56.34615 
L 94.576084 56.997278 
L 94.683596 56.997278 
L 94.846494 57.63233 
L 94.954006 57.63233 
L 95.116903 58.251892 
L 95.227674 58.251892 
L 95.390571 58.856526 
L 95.498083 58.856526 
L 95.660981 59.446763 
L 95.768493 59.446763 
L 95.93139 60.023112 
L 96.042161 60.023112 
L 96.205058 60.586058 
L 96.31257 60.586058 
L 96.475468 61.136063 
L 96.58298 61.136063 
L 96.745877 61.673567 
L 96.856648 61.673567 
L 97.019545 62.198993 
L 97.127057 62.198993 
L 97.289955 62.712742 
L 97.397467 62.712742 
L 97.560365 63.215201 
L 97.671135 63.215201 
L 97.834032 63.706736 
L 97.941544 63.706736 
L 98.104442 64.187701 
L 98.159827 64.187701 
L 98.322724 108.436454 
L 105.37944 108.436454 
L 105.542338 74.14367 
L 105.705235 74.427082 
L 105.816005 74.427082 
L 105.978903 74.705847 
L 106.086415 74.705847 
L 106.249313 74.980079 
L 106.356825 74.980079 
L 106.519722 75.249889 
L 106.630493 75.249889 
L 106.79339 75.515381 
L 106.900902 75.515381 
L 107.0638 75.77666 
L 107.171312 75.77666 
L 107.334209 76.033824 
L 107.44498 76.033824 
L 107.607877 76.286969 
L 107.715389 76.286969 
L 107.878287 76.53619 
L 107.985799 76.53619 
L 108.148696 76.781577 
L 108.259467 76.781577 
L 108.422364 77.023217 
L 108.529876 77.023217 
L 108.692774 77.261196 
L 108.800286 77.261196 
L 108.963184 77.495596 
L 109.073954 77.495596 
L 109.236851 77.726498 
L 109.344363 77.726498 
L 109.507261 77.953979 
L 109.614773 77.953979 
L 109.777671 78.178115 
L 109.888441 78.178115 
L 110.051338 78.398979 
L 110.158851 78.398979 
L 110.321748 78.616642 
L 110.42926 78.616642 
L 110.592158 78.831173 
L 110.702928 78.831173 
L 110.865825 79.042639 
L 110.973338 79.042639 
L 111.136235 79.251106 
L 111.243747 79.251106 
L 111.406645 79.456637 
L 111.517415 79.456637 
L 111.680312 79.659293 
L 111.787825 79.659293 
L 111.950722 79.859134 
L 112.058234 79.859134 
L 112.221132 80.056219 
L 112.331902 80.056219 
L 112.494799 80.250604 
L 112.602312 80.250604 
L 112.765209 80.442345 
L 112.872721 80.442345 
L 113.035619 80.631494 
L 113.146389 80.631494 
L 113.309287 80.818104 
L 113.416799 80.818104 
L 113.524311 81.002227 
L 113.687209 108.436454 
L 117.433849 108.436454 
L 117.489234 83.344173 
L 117.596746 83.496247 
L 117.759644 83.496247 
L 117.922541 83.64649 
L 118.033311 83.64649 
L 118.196209 83.794933 
L 118.303721 83.794933 
L 118.466619 83.941608 
L 118.574131 83.941608 
L 118.737028 84.086548 
L 118.847799 84.086548 
L 119.010696 84.229783 
L 119.118208 84.229783 
L 119.281106 84.371342 
L 119.388618 84.371342 
L 119.551515 84.511256 
L 119.662286 84.511256 
L 119.825183 84.649552 
L 119.932695 84.649552 
L 120.095593 84.786258 
L 120.203105 84.786258 
L 120.366002 84.921402 
L 120.476773 84.921402 
L 120.63967 85.05501 
L 120.747182 85.05501 
L 120.91008 85.187109 
L 121.017592 85.187109 
L 121.18049 85.317723 
L 121.29126 85.317723 
L 121.454157 85.446878 
L 121.561669 85.446878 
L 121.724567 85.574598 
L 121.832079 85.574598 
L 121.994977 85.700907 
L 122.105747 85.700907 
L 122.268644 85.825827 
L 122.376157 85.825827 
L 122.539054 85.949382 
L 122.646566 85.949382 
L 122.809464 86.071595 
L 122.920234 86.071595 
L 123.083131 86.192486 
L 123.190644 86.192486 
L 123.353541 86.312077 
L 123.461053 86.312077 
L 123.623951 86.430389 
L 123.734721 86.430389 
L 123.897618 86.547443 
L 124.005131 86.547443 
L 124.168028 86.663258 
L 124.27554 86.663258 
L 124.438438 86.777853 
L 124.549208 86.777853 
L 124.712105 86.891249 
L 124.819618 86.891249 
L 124.982515 87.003464 
L 125.363695 87.114516 
L 125.526593 87.224423 
L 125.904515 87.333202 
L 126.067412 87.440872 
L 126.448592 87.547448 
L 126.611489 87.652948 
L 126.992669 87.757388 
L 127.155567 87.860784 
L 127.533489 87.96315 
L 127.696386 88.064503 
L 128.077566 88.164857 
L 128.240463 88.264228 
L 128.566258 88.362629 
L 128.729156 108.436454 
L 129.488258 108.436454 
L 129.651155 88.746817 
L 129.97695 88.840577 
L 130.139847 88.933449 
L 130.521027 89.025444 
L 130.683925 89.116576 
L 131.065105 89.206855 
L 131.228002 89.296295 
L 131.605924 89.384907 
L 131.768821 89.472702 
L 132.150001 89.559692 
L 132.312899 89.645887 
L 132.694079 89.731299 
L 132.856976 89.815938 
L 133.234898 89.899814 
L 133.397796 89.982938 
L 133.778976 90.06532 
L 133.941873 90.146969 
L 134.323053 90.227896 
L 134.48595 90.30811 
L 134.863872 90.38762 
L 135.02677 90.466436 
L 135.40795 90.544567 
L 135.570847 90.622021 
L 135.952027 90.698807 
L 136.114924 90.774934 
L 136.492846 90.850411 
L 136.655744 90.925245 
L 137.036924 90.999445 
L 137.199821 91.073019 
L 137.581001 91.145975 
L 137.743899 91.21832 
L 138.121821 91.290062 
L 138.284718 91.361209 
L 138.665898 91.431768 
L 138.828795 91.501746 
L 139.209975 91.57115 
L 139.372873 91.639988 
L 139.750795 91.708267 
L 139.913692 91.775992 
L 140.294872 91.843171 
L 140.457769 91.909811 
L 140.838949 91.975918 
L 141.001847 92.041497 
L 141.379769 92.106557 
L 141.542666 92.171102 
L 141.653436 75.90575 
L 141.705564 76.033824 
L 141.923846 76.033824 
L 142.086744 76.160893 
L 142.194256 76.160893 
L 142.357153 76.286969 
L 142.467924 76.286969 
L 142.630821 76.412064 
L 142.738333 76.412064 
L 142.901231 76.53619 
L 143.008743 76.53619 
L 143.17164 76.659357 
L 143.282411 76.659357 
L 143.445308 76.781577 
L 143.55282 76.781577 
L 143.660333 76.90286 
L 143.82323 92.669657 
L 143.986127 92.729835 
L 144.367307 92.789556 
L 144.530205 92.848825 
L 144.911385 92.907646 
L 145.074282 92.966025 
L 145.452204 93.023967 
L 145.615102 93.081476 
L 145.996282 93.138558 
L 146.159179 93.195216 
L 146.540359 93.251457 
L 146.703256 93.307284 
L 147.354846 93.417716 
L 147.517743 93.47233 
L 148.169333 93.580374 
L 148.33223 93.633813 
L 148.98382 93.739546 
L 149.146718 93.791849 
L 149.798307 93.895344 
L 149.961205 93.946545 
L 150.612794 94.047873 
L 150.775692 94.098008 
L 151.427281 94.197236 
L 151.590179 94.246336 
L 152.241768 94.343529 
L 152.456793 94.391628 
L 153.056255 94.486847 
L 153.27128 94.533974 
L 153.597075 94.580784 
L 153.759972 80.818104 
L 154.141152 80.910474 
L 154.30405 81.002227 
L 154.68523 81.09337 
L 154.848127 81.18391 
L 155.226049 81.273853 
L 155.388946 81.363203 
L 155.770126 81.451968 
L 155.933024 81.540153 
L 156.314204 81.627763 
L 156.477101 81.714804 
L 156.855023 81.801282 
L 157.017921 81.887202 
L 157.3991 81.972569 
L 157.561998 82.057389 
L 157.943178 82.141668 
L 158.106075 82.225409 
L 158.483997 82.308619 
L 158.646895 82.391302 
L 158.70228 82.391302 
L 158.865177 95.454958 
L 159.572152 95.536347 
L 159.787177 95.57666 
L 160.386639 95.656534 
L 160.601664 95.696101 
L 161.201126 95.774503 
L 161.416151 95.813343 
L 162.015613 95.890313 
L 162.230638 95.928447 
L 162.8301 96.004025 
L 163.045125 96.041472 
L 163.914997 96.152471 
L 164.13328 96.189031 
L 164.999894 96.297415 
L 165.218176 96.333118 
L 165.651483 96.403898 
L 165.814381 84.371342 
L 165.977278 84.441503 
L 166.358458 84.511256 
L 166.521356 84.580604 
L 166.902536 84.649552 
L 167.065433 84.718102 
L 167.443355 84.786258 
L 167.606252 84.854024 
L 167.987432 84.921402 
L 168.15033 84.988397 
L 168.53151 85.05501 
L 168.694407 85.121247 
L 169.072329 85.187109 
L 169.235227 85.2526 
L 169.616407 85.317723 
L 169.779304 85.382482 
L 170.160484 85.446878 
L 170.323381 85.510916 
L 170.701303 85.574598 
L 170.864201 85.637927 
L 171.245381 85.700907 
L 171.408278 85.763539 
L 171.789458 85.825827 
L 171.952355 85.887774 
L 172.330277 85.949382 
L 172.493175 86.010655 
L 172.874355 86.071595 
L 173.037252 86.132204 
L 173.418432 86.192486 
L 173.58133 86.252443 
L 173.796354 86.312077 
L 173.959252 97.374265 
L 174.285046 97.433421 
L 175.317816 97.520979 
L 175.643611 97.57858 
L 176.67638 97.663851 
L 177.002175 97.719959 
L 177.653765 97.775485 
L 177.761277 87.114516 
L 177.816662 87.169611 
L 178.575764 87.278952 
L 178.738662 87.333202 
L 179.390251 87.440872 
L 179.553149 87.494296 
L 180.204738 87.600332 
L 180.367636 87.652948 
L 181.019225 87.757388 
L 181.182123 87.809215 
L 181.833713 87.912094 
L 182.051995 87.96315 
L 182.6482 88.064503 
L 182.866482 88.114804 
L 183.462687 88.214665 
L 183.680969 88.264228 
L 184.277174 88.362629 
L 184.495456 88.411471 
L 185.091661 88.508444 
L 185.309943 88.556579 
L 185.906148 88.652155 
L 186.12443 88.6996 
L 186.720635 88.793809 
L 186.938917 88.840577 
L 187.535122 88.933449 
L 187.753405 88.979555 
L 188.349609 89.071117 
L 188.567892 89.116576 
L 188.838301 89.161821 
L 189.001199 98.821654 
L 189.708174 98.866374 
L 189.871071 89.340704 
L 190.522661 89.428906 
L 190.737685 89.472702 
L 191.337148 89.559692 
L 191.552172 89.602888 
L 192.151635 89.68869 
L 192.366659 89.731299 
L 192.966122 89.815938 
L 193.181146 89.85797 
L 193.780609 89.941469 
L 193.995633 89.982938 
L 194.595096 90.06532 
L 194.810121 90.106235 
L 195.409583 90.187522 
L 195.624608 90.227896 
L 196.22407 90.30811 
L 196.439095 90.347952 
L 197.038557 90.427114 
L 197.253582 90.466436 
L 197.853044 90.544567 
L 198.068069 90.583378 
L 198.667531 90.660497 
L 198.882556 90.698807 
L 199.482018 90.774934 
L 199.697043 90.812753 
L 200.296505 90.887908 
L 200.51153 90.925245 
L 201.381402 91.03631 
L 201.599685 91.073019 
L 201.762582 91.109574 
L 201.92548 82.446133 
L 202.088377 82.500735 
L 202.739967 82.609253 
L 202.902864 82.663172 
L 203.554454 82.770337 
L 203.717351 82.823586 
L 203.880249 82.876615 
L 204.043146 91.396561 
L 204.90976 91.501746 
L 205.128043 91.536519 
L 205.997915 91.639988 
L 206.212939 91.674197 
L 207.082812 91.775992 
L 207.301094 91.809649 
L 208.167708 91.909811 
L 208.385991 91.94293 
L 209.255863 92.041497 
L 209.470888 92.074092 
L 210.34076 92.171102 
L 210.666555 92.235139 
L 211.699324 92.330254 
L 211.914349 92.361711 
L 212.784221 92.455351 
L 213.110016 92.517173 
L 213.816991 92.578519 
L 213.869118 84.649552 
L 213.979888 84.695296 
L 214.683605 84.786258 
L 214.901888 84.831478 
L 215.498092 84.921402 
L 215.716375 84.966107 
L 216.312579 85.05501 
L 216.530862 85.09921 
L 217.127066 85.187109 
L 217.345349 85.230811 
L 217.941553 85.317723 
L 218.159836 85.360936 
L 218.75604 85.446878 
L 218.918938 85.48961 
L 219.081835 93.16694 
L 220.114605 93.251457 
L 220.4404 93.307284 
L 221.743579 93.417716 
L 222.069374 93.47233 
L 223.372553 93.580374 
L 223.698348 93.633813 
L 225.001527 93.739546 
L 225.327322 93.791849 
L 225.871399 93.84378 
L 226.034297 86.547443 
L 226.630501 86.624789 
L 226.848784 86.663258 
L 227.444988 86.739789 
L 227.663271 86.777853 
L 228.259475 86.853583 
L 228.477758 86.891249 
L 229.073963 86.966189 
L 229.292245 87.003464 
L 230.158859 87.114516 
L 230.377142 87.151278 
L 231.247014 87.260807 
L 231.462039 87.297067 
L 232.331911 87.405104 
L 232.550193 87.440872 
L 233.416808 87.547448 
L 233.63509 87.582734 
L 234.01627 87.652948 
L 234.179167 94.580784 
L 235.319449 94.673464 
L 235.697371 94.71934 
L 236.948423 94.810182 
L 237.326345 94.855153 
L 237.925808 94.899829 
L 238.03332 88.131516 
L 238.088705 88.164857 
L 239.118217 88.264228 
L 239.3365 88.297135 
L 240.206372 88.395216 
L 240.421396 88.427698 
L 241.291269 88.524515 
L 241.617063 88.58854 
L 242.649833 88.68381 
L 242.864858 88.715364 
L 243.73473 88.809423 
L 244.060525 88.871633 
L 245.093294 88.964211 
L 245.363704 88.994876 
L 245.689499 89.055917 
L 246.722268 89.146763 
L 247.048063 89.206855 
L 248.077575 89.296295 
L 248.40337 89.355461 
L 249.054959 89.414262 
L 249.217857 95.774503 
L 249.924831 95.813343 
L 249.980217 89.501788 
L 250.087729 89.530784 
L 251.065113 89.617243 
L 251.390908 89.674444 
L 252.423678 89.759597 
L 252.749473 89.815938 
L 253.778984 89.899814 
L 254.104779 89.955313 
L 255.407958 90.06532 
L 255.733753 90.119833 
L 257.036933 90.227896 
L 257.362727 90.281451 
L 258.665907 90.38762 
L 258.991702 90.440241 
L 260.294881 90.544567 
L 260.620676 90.596277 
L 261.923855 90.698807 
L 261.97924 90.724256 
L 262.142137 84.82019 
L 263.01201 84.921402 
L 263.227034 84.954947 
L 264.096906 85.05501 
L 264.152292 85.088175 
L 264.315189 90.925245 
L 265.455471 91.024039 
L 265.781266 91.073019 
L 267.084445 91.170157 
L 267.41024 91.21832 
L 268.713419 91.313843 
L 269.039214 91.361209 
L 270.342393 91.455158 
L 270.668188 91.501746 
L 271.971367 91.594159 
L 272.349289 91.639988 
L 273.600342 91.730903 
L 273.978264 91.775992 
L 274.033649 91.775992 
L 274.141161 86.222505 
L 274.196546 86.252443 
L 275.229316 86.341774 
L 275.555111 86.40093 
L 276.584622 86.489072 
L 276.910417 86.547443 
L 277.943187 86.634419 
L 278.268981 86.69202 
L 279.190981 86.777853 
L 279.353878 92.213849 
L 280.930725 92.319741 
L 281.308647 92.361711 
L 282.830109 92.465688 
L 283.211289 92.506903 
L 284.729493 92.609015 
L 285.110673 92.649494 
L 286.088057 92.709827 
L 286.250955 87.494296 
L 287.446622 87.600332 
L 287.772417 87.652948 
L 289.075596 87.757388 
L 289.401391 87.809215 
L 290.70457 87.912094 
L 291.030365 87.96315 
L 292.333544 88.064503 
L 292.659339 88.114804 
L 293.962518 88.214665 
L 294.177543 88.239477 
L 294.34044 93.307284 
L 296.132312 93.417716 
L 296.568877 93.45417 
L 298.142466 93.562475 
L 298.305363 88.604482 
L 298.686543 88.652155 
L 299.934337 88.746817 
L 300.315517 88.793809 
L 301.563312 88.887123 
L 301.944492 88.933449 
L 303.192286 89.025444 
L 303.573466 89.071117 
L 304.82126 89.161821 
L 305.20244 89.206855 
L 306.450234 89.296295 
L 306.831414 89.340704 
L 308.349618 89.45083 
L 308.730798 89.494525 
L 309.274875 89.53802 
L 309.437773 94.262628 
L 309.87108 94.2951 
L 310.196875 94.31128 
L 310.25226 89.602888 
L 310.359772 89.624412 
L 311.881234 89.731299 
L 312.259156 89.773714 
L 313.780618 89.878916 
L 314.161798 89.920665 
L 315.680001 90.024221 
L 316.061181 90.06532 
L 317.582643 90.167268 
L 317.960565 90.207731 
L 319.482027 90.30811 
L 319.915334 90.347952 
L 321.381411 90.446797 
L 321.817976 90.486033 
L 322.195898 90.505586 
L 322.358795 86.047259 
L 323.554462 86.144287 
L 323.935642 86.192486 
L 324.313564 86.216507 
L 324.476462 90.679673 
L 325.997924 90.774934 
L 326.431231 90.812753 
L 327.897307 90.906596 
L 328.333873 90.943854 
L 330.070359 91.054684 
L 330.503666 91.091315 
L 332.24341 91.20029 
L 332.676718 91.236311 
L 334.250307 91.343477 
L 334.413204 87.070233 
L 334.794384 87.114516 
L 336.315846 87.224423 
L 336.693768 87.268069 
L 338.21523 87.376402 
L 338.59641 87.419426 
L 339.410897 87.483633 
L 339.573794 91.674197 
L 340.007101 91.708267 
L 341.743588 91.809649 
L 342.23228 91.843171 
L 343.916639 91.94293 
L 344.405331 91.975918 
L 346.089691 92.074092 
L 346.304715 92.09034 
L 346.3601 88.003812 
L 346.467613 88.024082 
L 347.989074 88.124835 
L 348.422382 88.164857 
L 349.888458 88.264228 
L 350.325023 88.303704 
L 351.7911 88.401721 
L 352.169022 88.440661 
L 353.690484 88.537353 
L 354.123791 88.575768 
L 354.449586 88.59492 
L 354.612483 92.578519 
L 356.678023 92.684744 
L 357.166715 92.714834 
L 358.359124 92.789556 
L 358.522021 88.877832 
L 360.206381 88.98875 
L 360.639688 89.025444 
L 362.379432 89.134699 
L 362.812739 89.170845 
L 364.549226 89.278474 
L 364.985791 89.314084 
L 366.722277 89.420123 
L 367.155584 89.455208 
L 368.895329 89.559692 
L 369.328636 89.594265 
L 369.546918 89.611504 
L 369.709816 93.376494 
L 370.198508 93.404001 
L 370.413532 93.417716 
L 370.524303 89.663032 
L 370.57643 89.680145 
L 372.423687 89.782174 
L 372.912379 89.815938 
L 374.596738 89.916499 
L 375.030045 89.949778 
L 376.766532 90.048902 
L 377.255224 90.081708 
L 378.939583 90.179426 
L 379.428275 90.211768 
L 381.112635 90.30811 
L 381.545942 90.339998 
L 382.467941 90.38762 
L 382.630838 86.796836 
L 384.096915 86.891249 
L 384.53348 86.928785 
L 384.696378 90.528995 
L 386.814044 90.637431 
L 387.302736 90.668172 
L 389.257505 90.774934 
L 389.746198 90.805202 
L 391.700966 90.910329 
L 392.189659 90.940135 
L 394.144428 91.043664 
L 394.470223 91.073019 
L 394.63312 87.600332 
L 396.314221 87.7053 
L 396.750786 87.740055 
L 398.487273 87.843623 
L 398.487273 87.843623 
" style="fill:none;stroke:#1f77b4;stroke-linecap:square;stroke-width:1.5;"/>
   </g>
   <g id="patch_3">
    <path d="M 57.6 307.584 
L 57.6 41.472 
" style="fill:none;stroke:#000000;stroke-linecap:square;stroke-linejoin:miter;stroke-width:0.8;"/>
   </g>
   <g id="patch_4">
    <path d="M 414.72 307.584 
L 414.72 41.472 
" style="fill:none;stroke:#000000;stroke-linecap:square;stroke-linejoin:miter;stroke-width:0.8;"/>
   </g>
   <g id="patch_5">
    <path d="M 57.6 307.584 
L 414.72 307.584 
" style="fill:none;stroke:#000000;stroke-linecap:square;stroke-linejoin:miter;stroke-width:0.8;"/>
   </g>
   <g id="patch_6">
    <path d="M 57.6 41.472 
L 414.72 41.472 
" style="fill:none;stroke:#000000;stroke-linecap:square;stroke-linejoin:miter;stroke-width:0.8;"/>
   </g>
   <g id="text_16">
    <!-- Speed function of time -->
    <g transform="translate(167.024063 35.472)scale(0.12 -0.12)">
     <defs>
      <path id="DejaVuSerif-32"/>
      <path d="M 43.015625 63.71875 
L 38.28125 63.71875 
Q 38.234375 67.390625 36.203125 69.28125 
Q 34.1875 71.1875 30.328125 71.1875 
Q 25.296875 71.1875 23.234375 68.421875 
Q 21.1875 65.671875 21.1875 58.59375 
L 21.1875 51.90625 
L 35.6875 51.90625 
L 35.6875 46.6875 
L 21.1875 46.6875 
L 21.1875 5.171875 
L 32.71875 5.171875 
L 32.71875 0 
L 3.609375 0 
L 3.609375 5.171875 
L 12.203125 5.171875 
L 12.203125 46.6875 
L 3.609375 46.6875 
L 3.609375 51.90625 
L 12.203125 51.90625 
L 12.203125 58.40625 
Q 12.203125 67.09375 16.71875 71.53125 
Q 21.234375 75.984375 29.984375 75.984375 
Q 33.25 75.984375 36.515625 75.390625 
Q 39.796875 74.8125 43.015625 73.578125 
z
" id="DejaVuSerif-102"/>
      <path d="M 35.40625 51.90625 
L 52.203125 51.90625 
L 52.203125 5.171875 
L 60.6875 5.171875 
L 60.6875 0 
L 43.21875 0 
L 43.21875 9.1875 
Q 40.71875 4 36.765625 1.28125 
Q 32.8125 -1.421875 27.59375 -1.421875 
Q 18.953125 -1.421875 14.875 3.484375 
Q 10.796875 8.40625 10.796875 18.890625 
L 10.796875 46.6875 
L 2.6875 46.6875 
L 2.6875 51.90625 
L 19.828125 51.90625 
L 19.828125 21.6875 
Q 19.828125 12.203125 22.140625 8.6875 
Q 24.46875 5.171875 30.421875 5.171875 
Q 36.671875 5.171875 39.9375 9.765625 
Q 43.21875 14.359375 43.21875 23.09375 
L 43.21875 46.6875 
L 35.40625 46.6875 
z
" id="DejaVuSerif-117"/>
      <path d="M 4.109375 0 
L 4.109375 5.171875 
L 12.203125 5.171875 
L 12.203125 46.6875 
L 3.609375 46.6875 
L 3.609375 51.90625 
L 21.1875 51.90625 
L 21.1875 42.671875 
Q 23.6875 47.953125 27.65625 50.640625 
Q 31.640625 53.328125 36.921875 53.328125 
Q 45.515625 53.328125 49.5625 48.390625 
Q 53.609375 43.453125 53.609375 33.015625 
L 53.609375 5.171875 
L 61.625 5.171875 
L 61.625 0 
L 36.8125 0 
L 36.8125 5.171875 
L 44.578125 5.171875 
L 44.578125 30.171875 
Q 44.578125 39.703125 42.234375 43.234375 
Q 39.890625 46.78125 33.984375 46.78125 
Q 27.734375 46.78125 24.453125 42.203125 
Q 21.1875 37.640625 21.1875 28.90625 
L 21.1875 5.171875 
L 29 5.171875 
L 29 0 
z
" id="DejaVuSerif-110"/>
      <path d="M 51.421875 15.578125 
Q 49.515625 7.28125 44.09375 2.921875 
Q 38.671875 -1.421875 30.078125 -1.421875 
Q 18.75 -1.421875 11.859375 6.078125 
Q 4.984375 13.578125 4.984375 25.984375 
Q 4.984375 38.421875 11.859375 45.875 
Q 18.75 53.328125 30.078125 53.328125 
Q 35.015625 53.328125 39.890625 52.171875 
Q 44.78125 51.03125 49.703125 48.6875 
L 49.703125 35.40625 
L 44.484375 35.40625 
Q 43.453125 42.234375 40.015625 45.359375 
Q 36.578125 48.484375 30.171875 48.484375 
Q 22.90625 48.484375 19.1875 42.84375 
Q 15.484375 37.203125 15.484375 25.984375 
Q 15.484375 14.75 19.171875 9.078125 
Q 22.859375 3.421875 30.171875 3.421875 
Q 35.984375 3.421875 39.453125 6.4375 
Q 42.921875 9.46875 44.1875 15.578125 
z
" id="DejaVuSerif-99"/>
      <path d="M 10.796875 46.6875 
L 2.875 46.6875 
L 2.875 51.90625 
L 10.796875 51.90625 
L 10.796875 68.015625 
L 19.828125 68.015625 
L 19.828125 51.90625 
L 36.71875 51.90625 
L 36.71875 46.6875 
L 19.828125 46.6875 
L 19.828125 13.71875 
Q 19.828125 7.125 21.09375 5.265625 
Q 22.359375 3.421875 25.78125 3.421875 
Q 29.296875 3.421875 30.90625 5.484375 
Q 32.515625 7.5625 32.625 12.203125 
L 39.40625 12.203125 
Q 39.015625 5.125 35.546875 1.84375 
Q 32.078125 -1.421875 25 -1.421875 
Q 17.234375 -1.421875 14.015625 2.015625 
Q 10.796875 5.46875 10.796875 13.71875 
z
" id="DejaVuSerif-116"/>
      <path d="M 30.078125 3.421875 
Q 37.3125 3.421875 40.984375 9.125 
Q 44.671875 14.84375 44.671875 25.984375 
Q 44.671875 37.109375 40.984375 42.796875 
Q 37.3125 48.484375 30.078125 48.484375 
Q 22.859375 48.484375 19.171875 42.796875 
Q 15.484375 37.109375 15.484375 25.984375 
Q 15.484375 14.84375 19.1875 9.125 
Q 22.90625 3.421875 30.078125 3.421875 
z
M 30.078125 -1.421875 
Q 18.75 -1.421875 11.859375 6.078125 
Q 4.984375 13.578125 4.984375 25.984375 
Q 4.984375 38.375 11.84375 45.84375 
Q 18.703125 53.328125 30.078125 53.328125 
Q 41.453125 53.328125 48.3125 45.84375 
Q 55.171875 38.375 55.171875 25.984375 
Q 55.171875 13.578125 48.3125 6.078125 
Q 41.453125 -1.421875 30.078125 -1.421875 
z
" id="DejaVuSerif-111"/>
     </defs>
     <use xlink:href="#DejaVuSerif-83"/>
     <use x="68.505859" xlink:href="#DejaVuSerif-112"/>
     <use x="132.519531" xlink:href="#DejaVuSerif-101"/>
     <use x="191.699219" xlink:href="#DejaVuSerif-101"/>
     <use x="250.878906" xlink:href="#DejaVuSerif-100"/>
     <use x="314.892578" xlink:href="#DejaVuSerif-32"/>
     <use x="346.679688" xlink:href="#DejaVuSerif-102"/>
     <use x="383.691406" xlink:href="#DejaVuSerif-117"/>
     <use x="448.095703" xlink:href="#DejaVuSerif-110"/>
     <use x="512.5" xlink:href="#DejaVuSerif-99"/>
     <use x="568.505859" xlink:href="#DejaVuSerif-116"/>
     <use x="608.691406" xlink:href="#DejaVuSerif-105"/>
     <use x="640.673828" xlink:href="#DejaVuSerif-111"/>
     <use x="700.878906" xlink:href="#DejaVuSerif-110"/>
     <use x="765.283203" xlink:href="#DejaVuSerif-32"/>
     <use x="797.070312" xlink:href="#DejaVuSerif-111"/>
     <use x="857.275391" xlink:href="#DejaVuSerif-102"/>
     <use x="894.287109" xlink:href="#DejaVuSerif-32"/>
     <use x="926.074219" xlink:href="#DejaVuSerif-116"/>
     <use x="966.259766" xlink:href="#DejaVuSerif-105"/>
     <use x="998.242188" xlink:href="#DejaVuSerif-109"/>
     <use x="1093.066406" xlink:href="#DejaVuSerif-101"/>
    </g>
   </g>
  </g>
 </g>
 <defs>
  <clipPath id="p7b31075a68">
   <rect height="266.112" width="357.12" x="57.6" y="41.472"/>
  </clipPath>
 </defs>
</svg>
