<?xml version="1.0" encoding="utf-8" standalone="no"?>
<!DOCTYPE svg PUBLIC "-//W3C//DTD SVG 1.1//EN"
  "http://www.w3.org/Graphics/SVG/1.1/DTD/svg11.dtd">
<!-- Created with matplotlib (https://matplotlib.org/) -->
<svg height="345.6pt" version="1.1" viewBox="0 0 460.8 345.6" width="460.8pt" xmlns="http://www.w3.org/2000/svg" xmlns:xlink="http://www.w3.org/1999/xlink">
 <metadata>
  <rdf:RDF xmlns:cc="http://creativecommons.org/ns#" xmlns:dc="http://purl.org/dc/elements/1.1/" xmlns:rdf="http://www.w3.org/1999/02/22-rdf-syntax-ns#">
   <cc:Work>
    <dc:type rdf:resource="http://purl.org/dc/dcmitype/StillImage"/>
    <dc:date>2022-07-18T02:13:18.295100</dc:date>
    <dc:format>image/svg+xml</dc:format>
    <dc:creator>
     <cc:Agent>
      <dc:title>Matplotlib v3.3.4, https://matplotlib.org/</dc:title>
     </cc:Agent>
    </dc:creator>
   </cc:Work>
  </rdf:RDF>
 </metadata>
 <defs>
  <style type="text/css">*{stroke-linecap:butt;stroke-linejoin:round;}</style>
 </defs>
 <g id="figure_1">
  <g id="patch_1">
   <path d="M 0 345.6 
L 460.8 345.6 
L 460.8 0 
L 0 0 
z
" style="fill:#ffffff;"/>
  </g>
  <g id="axes_1">
   <g id="patch_2">
    <path d="M 57.6 307.584 
L 414.72 307.584 
L 414.72 41.472 
L 57.6 41.472 
z
" style="fill:#ffffff;"/>
   </g>
   <g id="matplotlib.axis_1">
    <g id="xtick_1">
     <g id="line2d_1">
      <defs>
       <path d="M 0 0 
L 0 3.5 
" id="m9467281865" style="stroke:#000000;stroke-width:0.8;"/>
      </defs>
      <g>
       <use style="stroke:#000000;stroke-width:0.8;" x="72.119295" xlink:href="#m9467281865" y="307.584"/>
      </g>
     </g>
     <g id="text_1">
      <!-- 0 -->
      <g transform="translate(68.938045 322.182437)scale(0.1 -0.1)">
       <defs>
        <path d="M 31.78125 3.421875 
Q 39.265625 3.421875 42.96875 11.625 
Q 46.6875 19.828125 46.6875 36.375 
Q 46.6875 52.984375 42.96875 61.1875 
Q 39.265625 69.390625 31.78125 69.390625 
Q 24.3125 69.390625 20.59375 61.1875 
Q 16.890625 52.984375 16.890625 36.375 
Q 16.890625 19.828125 20.59375 11.625 
Q 24.3125 3.421875 31.78125 3.421875 
z
M 31.78125 -1.421875 
Q 19.921875 -1.421875 13.25 8.53125 
Q 6.59375 18.5 6.59375 36.375 
Q 6.59375 54.296875 13.25 64.25 
Q 19.921875 74.21875 31.78125 74.21875 
Q 43.703125 74.21875 50.34375 64.25 
Q 56.984375 54.296875 56.984375 36.375 
Q 56.984375 18.5 50.34375 8.53125 
Q 43.703125 -1.421875 31.78125 -1.421875 
z
" id="DejaVuSerif-48"/>
       </defs>
       <use xlink:href="#DejaVuSerif-48"/>
      </g>
     </g>
    </g>
    <g id="xtick_2">
     <g id="line2d_2">
      <g>
       <use style="stroke:#000000;stroke-width:0.8;" x="112.915293" xlink:href="#m9467281865" y="307.584"/>
      </g>
     </g>
     <g id="text_2">
      <!-- 25 -->
      <g transform="translate(106.552793 322.182437)scale(0.1 -0.1)">
       <defs>
        <path d="M 12.796875 55.515625 
L 7.328125 55.515625 
L 7.328125 68.5 
Q 12.546875 71.296875 17.84375 72.75 
Q 23.140625 74.21875 28.21875 74.21875 
Q 39.59375 74.21875 46.1875 68.703125 
Q 52.78125 63.1875 52.78125 53.71875 
Q 52.78125 43.015625 37.84375 28.125 
Q 36.671875 27 36.078125 26.421875 
L 17.671875 8.015625 
L 48.09375 8.015625 
L 48.09375 17 
L 53.8125 17 
L 53.8125 0 
L 6.78125 0 
L 6.78125 5.328125 
L 28.90625 27.390625 
Q 36.234375 34.71875 39.359375 40.84375 
Q 42.484375 46.96875 42.484375 53.71875 
Q 42.484375 61.078125 38.640625 65.234375 
Q 34.8125 69.390625 28.078125 69.390625 
Q 21.09375 69.390625 17.28125 65.921875 
Q 13.484375 62.453125 12.796875 55.515625 
z
" id="DejaVuSerif-50"/>
        <path d="M 50.296875 72.90625 
L 50.296875 64.890625 
L 16.890625 64.890625 
L 16.890625 44 
Q 19.4375 45.75 22.828125 46.625 
Q 26.21875 47.515625 30.421875 47.515625 
Q 42.234375 47.515625 49.0625 40.96875 
Q 55.90625 34.421875 55.90625 23.09375 
Q 55.90625 11.53125 49 5.046875 
Q 42.09375 -1.421875 29.59375 -1.421875 
Q 24.5625 -1.421875 19.28125 -0.1875 
Q 14.015625 1.03125 8.5 3.515625 
L 8.5 17.671875 
L 14.015625 17.671875 
Q 14.453125 10.75 18.421875 7.078125 
Q 22.40625 3.421875 29.59375 3.421875 
Q 37.3125 3.421875 41.453125 8.5 
Q 45.609375 13.578125 45.609375 23.09375 
Q 45.609375 32.5625 41.484375 37.609375 
Q 37.359375 42.671875 29.59375 42.671875 
Q 25.203125 42.671875 21.84375 41.109375 
Q 18.5 39.546875 15.921875 36.28125 
L 11.71875 36.28125 
L 11.71875 72.90625 
z
" id="DejaVuSerif-53"/>
       </defs>
       <use xlink:href="#DejaVuSerif-50"/>
       <use x="63.623047" xlink:href="#DejaVuSerif-53"/>
      </g>
     </g>
    </g>
    <g id="xtick_3">
     <g id="line2d_3">
      <g>
       <use style="stroke:#000000;stroke-width:0.8;" x="153.71129" xlink:href="#m9467281865" y="307.584"/>
      </g>
     </g>
     <g id="text_3">
      <!-- 50 -->
      <g transform="translate(147.34879 322.182437)scale(0.1 -0.1)">
       <use xlink:href="#DejaVuSerif-53"/>
       <use x="63.623047" xlink:href="#DejaVuSerif-48"/>
      </g>
     </g>
    </g>
    <g id="xtick_4">
     <g id="line2d_4">
      <g>
       <use style="stroke:#000000;stroke-width:0.8;" x="194.507287" xlink:href="#m9467281865" y="307.584"/>
      </g>
     </g>
     <g id="text_4">
      <!-- 75 -->
      <g transform="translate(188.144787 322.182437)scale(0.1 -0.1)">
       <defs>
        <path d="M 56.390625 67.921875 
L 27.875 0 
L 20.609375 0 
L 47.796875 64.890625 
L 14.109375 64.890625 
L 14.109375 55.90625 
L 8.40625 55.90625 
L 8.40625 72.90625 
L 56.390625 72.90625 
z
" id="DejaVuSerif-55"/>
       </defs>
       <use xlink:href="#DejaVuSerif-55"/>
       <use x="63.623047" xlink:href="#DejaVuSerif-53"/>
      </g>
     </g>
    </g>
    <g id="xtick_5">
     <g id="line2d_5">
      <g>
       <use style="stroke:#000000;stroke-width:0.8;" x="235.303284" xlink:href="#m9467281865" y="307.584"/>
      </g>
     </g>
     <g id="text_5">
      <!-- 100 -->
      <g transform="translate(225.759534 322.182437)scale(0.1 -0.1)">
       <defs>
        <path d="M 14.203125 0 
L 14.203125 5.171875 
L 26.90625 5.171875 
L 26.90625 65.828125 
L 12.203125 56.296875 
L 12.203125 62.703125 
L 29.984375 74.21875 
L 36.71875 74.21875 
L 36.71875 5.171875 
L 49.421875 5.171875 
L 49.421875 0 
z
" id="DejaVuSerif-49"/>
       </defs>
       <use xlink:href="#DejaVuSerif-49"/>
       <use x="63.623047" xlink:href="#DejaVuSerif-48"/>
       <use x="127.246094" xlink:href="#DejaVuSerif-48"/>
      </g>
     </g>
    </g>
    <g id="xtick_6">
     <g id="line2d_6">
      <g>
       <use style="stroke:#000000;stroke-width:0.8;" x="276.099281" xlink:href="#m9467281865" y="307.584"/>
      </g>
     </g>
     <g id="text_6">
      <!-- 125 -->
      <g transform="translate(266.555531 322.182437)scale(0.1 -0.1)">
       <use xlink:href="#DejaVuSerif-49"/>
       <use x="63.623047" xlink:href="#DejaVuSerif-50"/>
       <use x="127.246094" xlink:href="#DejaVuSerif-53"/>
      </g>
     </g>
    </g>
    <g id="xtick_7">
     <g id="line2d_7">
      <g>
       <use style="stroke:#000000;stroke-width:0.8;" x="316.895278" xlink:href="#m9467281865" y="307.584"/>
      </g>
     </g>
     <g id="text_7">
      <!-- 150 -->
      <g transform="translate(307.351528 322.182437)scale(0.1 -0.1)">
       <use xlink:href="#DejaVuSerif-49"/>
       <use x="63.623047" xlink:href="#DejaVuSerif-53"/>
       <use x="127.246094" xlink:href="#DejaVuSerif-48"/>
      </g>
     </g>
    </g>
    <g id="xtick_8">
     <g id="line2d_8">
      <g>
       <use style="stroke:#000000;stroke-width:0.8;" x="357.691276" xlink:href="#m9467281865" y="307.584"/>
      </g>
     </g>
     <g id="text_8">
      <!-- 175 -->
      <g transform="translate(348.147526 322.182437)scale(0.1 -0.1)">
       <use xlink:href="#DejaVuSerif-49"/>
       <use x="63.623047" xlink:href="#DejaVuSerif-55"/>
       <use x="127.246094" xlink:href="#DejaVuSerif-53"/>
      </g>
     </g>
    </g>
    <g id="xtick_9">
     <g id="line2d_9">
      <g>
       <use style="stroke:#000000;stroke-width:0.8;" x="398.487273" xlink:href="#m9467281865" y="307.584"/>
      </g>
     </g>
     <g id="text_9">
      <!-- 200 -->
      <g transform="translate(388.943523 322.182437)scale(0.1 -0.1)">
       <use xlink:href="#DejaVuSerif-50"/>
       <use x="63.623047" xlink:href="#DejaVuSerif-48"/>
       <use x="127.246094" xlink:href="#DejaVuSerif-48"/>
      </g>
     </g>
    </g>
    <g id="text_10">
     <!-- Time -->
     <g transform="translate(223.524844 335.860562)scale(0.1 -0.1)">
      <defs>
       <path d="M 19.09375 0 
L 19.09375 5.171875 
L 28.421875 5.171875 
L 28.421875 67.09375 
L 6.984375 67.09375 
L 6.984375 55.71875 
L 0.984375 55.71875 
L 0.984375 72.90625 
L 65.71875 72.90625 
L 65.71875 55.71875 
L 59.71875 55.71875 
L 59.71875 67.09375 
L 38.28125 67.09375 
L 38.28125 5.171875 
L 47.609375 5.171875 
L 47.609375 0 
z
" id="DejaVuSerif-84"/>
       <path d="M 9.71875 68.015625 
Q 9.71875 70.265625 11.34375 71.921875 
Q 12.984375 73.578125 15.28125 73.578125 
Q 17.53125 73.578125 19.15625 71.921875 
Q 20.796875 70.265625 20.796875 68.015625 
Q 20.796875 65.71875 19.1875 64.109375 
Q 17.578125 62.5 15.28125 62.5 
Q 12.984375 62.5 11.34375 64.109375 
Q 9.71875 65.71875 9.71875 68.015625 
z
M 21.1875 5.171875 
L 29.6875 5.171875 
L 29.6875 0 
L 3.609375 0 
L 3.609375 5.171875 
L 12.203125 5.171875 
L 12.203125 46.6875 
L 3.609375 46.6875 
L 3.609375 51.90625 
L 21.1875 51.90625 
z
" id="DejaVuSerif-105"/>
       <path d="M 51.8125 41.796875 
Q 54.390625 47.515625 58.421875 50.421875 
Q 62.453125 53.328125 67.828125 53.328125 
Q 75.984375 53.328125 79.984375 48.265625 
Q 83.984375 43.21875 83.984375 33.015625 
L 83.984375 5.171875 
L 92.09375 5.171875 
L 92.09375 0 
L 67.1875 0 
L 67.1875 5.171875 
L 75 5.171875 
L 75 31.984375 
Q 75 39.9375 72.65625 43.3125 
Q 70.3125 46.6875 64.890625 46.6875 
Q 58.890625 46.6875 55.734375 42.140625 
Q 52.59375 37.59375 52.59375 28.90625 
L 52.59375 5.171875 
L 60.40625 5.171875 
L 60.40625 0 
L 35.796875 0 
L 35.796875 5.171875 
L 43.609375 5.171875 
L 43.609375 32.328125 
Q 43.609375 40.09375 41.265625 43.390625 
Q 38.921875 46.6875 33.5 46.6875 
Q 27.484375 46.6875 24.328125 42.140625 
Q 21.1875 37.59375 21.1875 28.90625 
L 21.1875 5.171875 
L 29 5.171875 
L 29 0 
L 4.109375 0 
L 4.109375 5.171875 
L 12.203125 5.171875 
L 12.203125 46.78125 
L 3.609375 46.78125 
L 3.609375 51.90625 
L 21.1875 51.90625 
L 21.1875 42.671875 
Q 23.6875 47.859375 27.53125 50.59375 
Q 31.390625 53.328125 36.28125 53.328125 
Q 42.328125 53.328125 46.375 50.3125 
Q 50.4375 47.3125 51.8125 41.796875 
z
" id="DejaVuSerif-109"/>
       <path d="M 54.203125 25 
L 15.484375 25 
L 15.484375 24.609375 
Q 15.484375 14.109375 19.4375 8.765625 
Q 23.390625 3.421875 31.109375 3.421875 
Q 37.015625 3.421875 40.796875 6.515625 
Q 44.578125 9.625 46.09375 15.71875 
L 53.328125 15.71875 
Q 51.171875 7.171875 45.375 2.875 
Q 39.59375 -1.421875 30.171875 -1.421875 
Q 18.796875 -1.421875 11.890625 6.078125 
Q 4.984375 13.578125 4.984375 25.984375 
Q 4.984375 38.28125 11.765625 45.796875 
Q 18.5625 53.328125 29.59375 53.328125 
Q 41.359375 53.328125 47.65625 46.0625 
Q 53.953125 38.8125 54.203125 25 
z
M 43.609375 30.171875 
Q 43.3125 39.265625 39.765625 43.875 
Q 36.234375 48.484375 29.59375 48.484375 
Q 23.390625 48.484375 19.828125 43.84375 
Q 16.265625 39.203125 15.484375 30.171875 
z
" id="DejaVuSerif-101"/>
      </defs>
      <use xlink:href="#DejaVuSerif-84"/>
      <use x="66.699219" xlink:href="#DejaVuSerif-105"/>
      <use x="98.681641" xlink:href="#DejaVuSerif-109"/>
      <use x="193.505859" xlink:href="#DejaVuSerif-101"/>
     </g>
    </g>
   </g>
   <g id="matplotlib.axis_2">
    <g id="ytick_1">
     <g id="line2d_10">
      <defs>
       <path d="M 0 0 
L -3.5 0 
" id="m664dec3fac" style="stroke:#000000;stroke-width:0.8;"/>
      </defs>
      <g>
       <use style="stroke:#000000;stroke-width:0.8;" x="57.6" xlink:href="#m664dec3fac" y="295.488"/>
      </g>
     </g>
     <g id="text_11">
      <!-- 0.0 -->
      <g transform="translate(34.696875 299.287219)scale(0.1 -0.1)">
       <defs>
        <path d="M 9.421875 5.078125 
Q 9.421875 7.8125 11.28125 9.71875 
Q 13.140625 11.625 15.921875 11.625 
Q 18.609375 11.625 20.5 9.71875 
Q 22.40625 7.8125 22.40625 5.078125 
Q 22.40625 2.390625 20.5 0.484375 
Q 18.609375 -1.421875 15.921875 -1.421875 
Q 13.140625 -1.421875 11.28125 0.453125 
Q 9.421875 2.34375 9.421875 5.078125 
z
" id="DejaVuSerif-46"/>
       </defs>
       <use xlink:href="#DejaVuSerif-48"/>
       <use x="63.623047" xlink:href="#DejaVuSerif-46"/>
       <use x="95.410156" xlink:href="#DejaVuSerif-48"/>
      </g>
     </g>
    </g>
    <g id="ytick_2">
     <g id="line2d_11">
      <g>
       <use style="stroke:#000000;stroke-width:0.8;" x="57.6" xlink:href="#m664dec3fac" y="254.016"/>
      </g>
     </g>
     <g id="text_12">
      <!-- 0.1 -->
      <g transform="translate(34.696875 257.815219)scale(0.1 -0.1)">
       <use xlink:href="#DejaVuSerif-48"/>
       <use x="63.623047" xlink:href="#DejaVuSerif-46"/>
       <use x="95.410156" xlink:href="#DejaVuSerif-49"/>
      </g>
     </g>
    </g>
    <g id="ytick_3">
     <g id="line2d_12">
      <g>
       <use style="stroke:#000000;stroke-width:0.8;" x="57.6" xlink:href="#m664dec3fac" y="212.544"/>
      </g>
     </g>
     <g id="text_13">
      <!-- 0.2 -->
      <g transform="translate(34.696875 216.343219)scale(0.1 -0.1)">
       <use xlink:href="#DejaVuSerif-48"/>
       <use x="63.623047" xlink:href="#DejaVuSerif-46"/>
       <use x="95.410156" xlink:href="#DejaVuSerif-50"/>
      </g>
     </g>
    </g>
    <g id="ytick_4">
     <g id="line2d_13">
      <g>
       <use style="stroke:#000000;stroke-width:0.8;" x="57.6" xlink:href="#m664dec3fac" y="171.072"/>
      </g>
     </g>
     <g id="text_14">
      <!-- 0.3 -->
      <g transform="translate(34.696875 174.871219)scale(0.1 -0.1)">
       <defs>
        <path d="M 9.71875 69.828125 
Q 15.4375 71.96875 20.671875 73.09375 
Q 25.921875 74.21875 30.515625 74.21875 
Q 41.21875 74.21875 47.21875 69.59375 
Q 53.21875 64.984375 53.21875 56.78125 
Q 53.21875 50.203125 49.0625 45.78125 
Q 44.921875 41.359375 37.3125 39.796875 
Q 46.296875 38.53125 51.25 33.28125 
Q 56.203125 28.03125 56.203125 19.671875 
Q 56.203125 9.46875 49.34375 4.015625 
Q 42.484375 -1.421875 29.59375 -1.421875 
Q 23.875 -1.421875 18.421875 -0.1875 
Q 12.984375 1.03125 7.625 3.515625 
L 7.625 17.671875 
L 13.09375 17.671875 
Q 13.578125 10.640625 17.828125 7.03125 
Q 22.078125 3.421875 29.78125 3.421875 
Q 37.25 3.421875 41.578125 7.734375 
Q 45.90625 12.0625 45.90625 19.578125 
Q 45.90625 28.171875 41.453125 32.59375 
Q 37.015625 37.015625 28.421875 37.015625 
L 23.78125 37.015625 
L 23.78125 42 
L 26.21875 42 
Q 34.765625 42 39.03125 45.53125 
Q 43.3125 49.078125 43.3125 56.203125 
Q 43.3125 62.59375 39.796875 65.984375 
Q 36.28125 69.390625 29.6875 69.390625 
Q 23.09375 69.390625 19.453125 66.265625 
Q 15.828125 63.140625 15.1875 56.984375 
L 9.71875 56.984375 
z
" id="DejaVuSerif-51"/>
       </defs>
       <use xlink:href="#DejaVuSerif-48"/>
       <use x="63.623047" xlink:href="#DejaVuSerif-46"/>
       <use x="95.410156" xlink:href="#DejaVuSerif-51"/>
      </g>
     </g>
    </g>
    <g id="ytick_5">
     <g id="line2d_14">
      <g>
       <use style="stroke:#000000;stroke-width:0.8;" x="57.6" xlink:href="#m664dec3fac" y="129.6"/>
      </g>
     </g>
     <g id="text_15">
      <!-- 0.4 -->
      <g transform="translate(34.696875 133.399219)scale(0.1 -0.1)">
       <defs>
        <path d="M 34.90625 24.703125 
L 34.90625 63.484375 
L 10.015625 24.703125 
z
M 56.390625 0 
L 23.1875 0 
L 23.1875 5.171875 
L 34.90625 5.171875 
L 34.90625 19.484375 
L 3.078125 19.484375 
L 3.078125 24.8125 
L 35.015625 74.21875 
L 44.671875 74.21875 
L 44.671875 24.703125 
L 58.59375 24.703125 
L 58.59375 19.484375 
L 44.671875 19.484375 
L 44.671875 5.171875 
L 56.390625 5.171875 
z
" id="DejaVuSerif-52"/>
       </defs>
       <use xlink:href="#DejaVuSerif-48"/>
       <use x="63.623047" xlink:href="#DejaVuSerif-46"/>
       <use x="95.410156" xlink:href="#DejaVuSerif-52"/>
      </g>
     </g>
    </g>
    <g id="ytick_6">
     <g id="line2d_15">
      <g>
       <use style="stroke:#000000;stroke-width:0.8;" x="57.6" xlink:href="#m664dec3fac" y="88.128"/>
      </g>
     </g>
     <g id="text_16">
      <!-- 0.5 -->
      <g transform="translate(34.696875 91.927219)scale(0.1 -0.1)">
       <use xlink:href="#DejaVuSerif-48"/>
       <use x="63.623047" xlink:href="#DejaVuSerif-46"/>
       <use x="95.410156" xlink:href="#DejaVuSerif-53"/>
      </g>
     </g>
    </g>
    <g id="ytick_7">
     <g id="line2d_16">
      <g>
       <use style="stroke:#000000;stroke-width:0.8;" x="57.6" xlink:href="#m664dec3fac" y="46.656"/>
      </g>
     </g>
     <g id="text_17">
      <!-- 0.6 -->
      <g transform="translate(34.696875 50.455219)scale(0.1 -0.1)">
       <defs>
        <path d="M 32.71875 3.421875 
Q 39.59375 3.421875 43.296875 8.46875 
Q 47.015625 13.53125 47.015625 23 
Q 47.015625 32.46875 43.296875 37.515625 
Q 39.59375 42.578125 32.71875 42.578125 
Q 25.734375 42.578125 22.0625 37.6875 
Q 18.40625 32.8125 18.40625 23.578125 
Q 18.40625 13.875 22.109375 8.640625 
Q 25.828125 3.421875 32.71875 3.421875 
z
M 16.796875 40.140625 
Q 20.125 43.796875 24.3125 45.59375 
Q 28.515625 47.40625 33.796875 47.40625 
Q 44.671875 47.40625 51 40.859375 
Q 57.328125 34.328125 57.328125 23 
Q 57.328125 11.921875 50.515625 5.25 
Q 43.703125 -1.421875 32.328125 -1.421875 
Q 19.96875 -1.421875 13.328125 7.78125 
Q 6.6875 17 6.6875 34.078125 
Q 6.6875 53.21875 14.546875 63.71875 
Q 22.40625 74.21875 36.71875 74.21875 
Q 40.578125 74.21875 44.828125 73.484375 
Q 49.078125 72.75 53.515625 71.296875 
L 53.515625 59.28125 
L 48 59.28125 
Q 47.40625 64.203125 44.234375 66.796875 
Q 41.0625 69.390625 35.6875 69.390625 
Q 26.21875 69.390625 21.578125 62.203125 
Q 16.9375 55.03125 16.796875 40.140625 
z
" id="DejaVuSerif-54"/>
       </defs>
       <use xlink:href="#DejaVuSerif-48"/>
       <use x="63.623047" xlink:href="#DejaVuSerif-46"/>
       <use x="95.410156" xlink:href="#DejaVuSerif-54"/>
      </g>
     </g>
    </g>
    <g id="text_18">
     <!-- Speed -->
     <g transform="translate(28.617187 190.273313)rotate(-90)scale(0.1 -0.1)">
      <defs>
       <path d="M 9.28125 3.515625 
L 9.28125 20.125 
L 14.890625 20.0625 
Q 15.140625 11.765625 19.703125 7.78125 
Q 24.265625 3.8125 33.59375 3.8125 
Q 42.28125 3.8125 46.84375 7.25 
Q 51.421875 10.6875 51.421875 17.28125 
Q 51.421875 22.5625 48.65625 25.390625 
Q 45.90625 28.21875 37.015625 30.90625 
L 27.390625 33.796875 
Q 16.9375 36.96875 12.671875 41.703125 
Q 8.40625 46.4375 8.40625 54.6875 
Q 8.40625 63.96875 14.984375 69.09375 
Q 21.578125 74.21875 33.5 74.21875 
Q 38.578125 74.21875 44.625 73.109375 
Q 50.6875 72.015625 57.515625 69.921875 
L 57.515625 54.390625 
L 52 54.390625 
Q 51.171875 62.109375 46.84375 65.546875 
Q 42.53125 69 33.6875 69 
Q 25.984375 69 21.953125 65.84375 
Q 17.921875 62.703125 17.921875 56.6875 
Q 17.921875 51.46875 20.9375 48.484375 
Q 23.96875 45.515625 33.796875 42.578125 
L 42.828125 39.890625 
Q 52.734375 36.921875 56.953125 32.296875 
Q 61.1875 27.6875 61.1875 19.921875 
Q 61.1875 9.328125 54.390625 3.953125 
Q 47.609375 -1.421875 34.1875 -1.421875 
Q 28.171875 -1.421875 21.9375 -0.1875 
Q 15.71875 1.03125 9.28125 3.515625 
z
" id="DejaVuSerif-83"/>
       <path d="M 20.515625 28.515625 
L 20.515625 23.390625 
Q 20.515625 14.015625 24.09375 9.109375 
Q 27.6875 4.203125 34.515625 4.203125 
Q 41.40625 4.203125 44.9375 9.71875 
Q 48.484375 15.234375 48.484375 25.984375 
Q 48.484375 36.765625 44.9375 42.234375 
Q 41.40625 47.703125 34.515625 47.703125 
Q 27.6875 47.703125 24.09375 42.765625 
Q 20.515625 37.84375 20.515625 28.515625 
z
M 11.53125 46.6875 
L 2.875 46.6875 
L 2.875 51.90625 
L 20.515625 51.90625 
L 20.515625 43.796875 
Q 23.140625 48.6875 27.21875 51 
Q 31.296875 53.328125 37.3125 53.328125 
Q 46.875 53.328125 52.921875 45.75 
Q 58.984375 38.1875 58.984375 25.984375 
Q 58.984375 13.765625 52.921875 6.171875 
Q 46.875 -1.421875 37.3125 -1.421875 
Q 31.296875 -1.421875 27.21875 0.890625 
Q 23.140625 3.21875 20.515625 8.109375 
L 20.515625 -15.578125 
L 29 -15.578125 
L 29 -20.796875 
L 2.875 -20.796875 
L 2.875 -15.578125 
L 11.53125 -15.578125 
z
" id="DejaVuSerif-112"/>
       <path d="M 52.484375 5.171875 
L 61.078125 5.171875 
L 61.078125 0 
L 43.5 0 
L 43.5 8.109375 
Q 40.875 3.21875 36.796875 0.890625 
Q 32.71875 -1.421875 26.703125 -1.421875 
Q 17.140625 -1.421875 11.0625 6.171875 
Q 4.984375 13.765625 4.984375 25.984375 
Q 4.984375 38.1875 11.03125 45.75 
Q 17.09375 53.328125 26.703125 53.328125 
Q 32.71875 53.328125 36.796875 51 
Q 40.875 48.6875 43.5 43.796875 
L 43.5 70.796875 
L 35.015625 70.796875 
L 35.015625 75.984375 
L 52.484375 75.984375 
z
M 43.5 23.390625 
L 43.5 28.515625 
Q 43.5 37.84375 39.90625 42.765625 
Q 36.328125 47.703125 29.5 47.703125 
Q 22.5625 47.703125 19.015625 42.234375 
Q 15.484375 36.765625 15.484375 25.984375 
Q 15.484375 15.234375 19.015625 9.71875 
Q 22.5625 4.203125 29.5 4.203125 
Q 36.328125 4.203125 39.90625 9.109375 
Q 43.5 14.015625 43.5 23.390625 
z
" id="DejaVuSerif-100"/>
      </defs>
      <use xlink:href="#DejaVuSerif-83"/>
      <use x="68.505859" xlink:href="#DejaVuSerif-112"/>
      <use x="132.519531" xlink:href="#DejaVuSerif-101"/>
      <use x="191.699219" xlink:href="#DejaVuSerif-101"/>
      <use x="250.878906" xlink:href="#DejaVuSerif-100"/>
     </g>
    </g>
   </g>
   <g id="line2d_17">
    <path clip-path="url(#p23425b5f08)" d="M 73.832727 295.488 
L 75.219791 295.488 
L 75.382975 176.996571 
L 75.546159 191.808 
L 75.790935 191.808 
L 75.954119 203.328 
L 76.035711 295.488 
L 76.198895 203.328 
L 76.362079 212.544 
L 76.606855 212.544 
L 76.688447 220.084364 
L 76.851631 144.680727 
L 76.933223 144.680727 
L 77.096407 226.368 
L 77.177999 226.368 
L 77.341183 157.248 
L 77.422775 157.248 
L 77.585959 167.881846 
L 77.667551 167.881846 
L 77.749143 104.078769 
L 77.912327 176.996571 
L 78.157103 176.996571 
L 78.238695 117.750857 
L 78.320287 129.6 
L 78.401879 129.6 
L 78.565063 184.896 
L 78.646655 129.6 
L 78.728247 139.968 
L 79.054615 139.968 
L 79.217799 149.116235 
L 79.380983 149.116235 
L 79.462575 100.325647 
L 79.544167 111.168 
L 79.625759 111.168 
L 79.707351 157.248 
L 79.870535 111.168 
L 80.033719 120.869053 
L 80.278495 120.869053 
L 80.441679 129.6 
L 80.604863 88.128 
L 80.768047 137.499429 
L 80.849639 137.499429 
L 81.012823 98.002286 
L 81.094415 98.002286 
L 81.257599 106.978909 
L 81.502375 106.978909 
L 81.583967 79.112348 
L 81.747151 115.174957 
L 81.828743 115.174957 
L 81.910335 79.112348 
L 81.991927 88.128 
L 82.073519 88.128 
L 82.236703 122.688 
L 82.318295 88.128 
L 82.399887 96.4224 
L 82.481479 96.4224 
L 82.563071 129.6 
L 82.726255 96.4224 
L 82.889439 104.078769 
L 82.971031 72.177231 
L 83.134215 104.078769 
L 83.215807 111.168 
L 83.378991 80.448 
L 83.542175 111.168 
L 83.705359 88.128 
L 83.786951 88.128 
L 83.868543 117.750857 
L 83.950135 88.128 
L 84.031727 95.278345 
L 84.358095 95.278345 
L 84.521279 101.952 
L 84.684463 74.304 
L 84.847647 108.195097 
L 85.01083 81.438968 
L 85.174014 81.438968 
L 85.337198 88.128 
L 85.41879 88.128 
L 85.500382 62.208 
L 85.663566 94.411636 
L 85.745158 94.411636 
L 85.908342 69.277091 
L 86.071526 100.325647 
L 86.23471 75.930353 
L 86.316302 75.930353 
L 86.397894 100.325647 
L 86.561078 82.203429 
L 86.805854 82.203429 
L 86.969038 88.128 
L 87.132222 65.088 
L 87.295406 93.732324 
L 87.45859 71.315027 
L 87.540182 71.315027 
L 87.621774 93.732324 
L 87.784958 77.214316 
L 88.029734 77.214316 
L 88.192918 82.811077 
L 88.27451 61.543385 
L 88.437694 82.811077 
L 88.519286 88.128 
L 88.68247 67.392 
L 88.845654 88.128 
L 89.008838 72.955317 
L 89.09043 72.955317 
L 89.172022 93.185561 
L 89.253614 72.955317 
L 89.335206 78.253714 
L 89.416798 78.253714 
L 89.49839 58.505143 
L 89.661574 78.253714 
L 89.743166 83.305674 
L 89.90635 64.016372 
L 90.069534 83.305674 
L 90.232718 69.277091 
L 90.477494 69.277091 
L 90.640678 74.304 
L 90.885454 74.304 
L 90.967046 79.112348 
L 91.048638 61.081043 
L 91.211822 79.112348 
L 91.293414 61.081043 
L 91.375006 66.068426 
L 91.456598 66.068426 
L 91.53819 83.716085 
L 91.701374 66.068426 
L 91.864558 70.848 
L 92.109334 70.848 
L 92.190926 58.505143 
L 92.35411 75.43249 
L 92.435702 75.43249 
L 92.517294 58.505143 
L 92.598886 63.2448 
L 92.76207 79.8336 
L 92.925254 63.2448 
L 93.088438 67.798588 
L 93.333214 67.798588 
L 93.414806 56.226462 
L 93.57799 72.177231 
L 93.659582 56.226462 
L 93.822766 76.390642 
L 93.904358 76.390642 
L 94.067542 60.74083 
L 94.230726 80.448 
L 94.39391 65.088 
L 94.557094 65.088 
L 94.720278 69.277091 
L 94.965054 69.277091 
L 95.128238 73.316571 
L 95.20983 58.505143 
L 95.373014 73.316571 
L 95.536198 62.662737 
L 95.61779 62.662737 
L 95.699382 77.214316 
L 95.780974 62.662737 
L 95.862566 66.676966 
L 96.188934 66.676966 
L 96.270526 70.555119 
L 96.352118 56.496814 
L 96.515302 70.555119 
L 96.596894 70.555119 
L 96.760078 60.48 
L 96.84167 74.304 
L 97.004854 60.48 
L 97.086446 64.33259 
L 97.168038 77.929967 
L 97.331222 64.33259 
L 97.412814 64.33259 
L 97.494406 54.682839 
L 97.65759 68.060903 
L 97.739182 68.060903 
L 97.820774 54.682839 
L 97.902366 58.505143 
L 98.06555 71.670857 
L 98.147142 58.505143 
L 98.310326 75.168 
L 98.47351 62.208 
L 98.555102 62.208 
L 98.636694 75.168 
L 98.799878 65.796923 
L 99.044654 65.796923 
L 99.207838 69.277091 
L 99.28943 56.709818 
L 99.452613 69.277091 
L 99.615797 60.273672 
L 99.697389 60.273672 
L 99.778981 72.653373 
L 99.860573 60.273672 
L 99.942165 63.732706 
L 100.023757 63.732706 
L 100.105349 75.930353 
L 100.268533 63.732706 
L 100.350125 67.091478 
L 100.431717 55.070609 
L 100.594901 67.091478 
L 100.676493 67.091478 
L 100.839677 58.505143 
L 100.921269 70.354286 
L 101.084453 58.505143 
L 101.166045 61.84293 
L 101.247637 73.525183 
L 101.410821 61.84293 
L 101.492413 61.84293 
L 101.574005 53.568 
L 101.737189 65.088 
L 101.900373 65.088 
L 102.063557 68.244164 
L 102.145149 68.244164 
L 102.226741 56.881973 
L 102.389925 71.315027 
L 102.553109 60.106378 
L 102.634701 60.106378 
L 102.716293 71.315027 
L 102.879477 63.2448 
L 103.124253 63.2448 
L 103.287437 66.300632 
L 103.369029 55.386947 
L 103.532213 66.300632 
L 103.695397 58.505143 
L 103.858581 69.277091 
L 103.940173 58.505143 
L 104.021765 61.543385 
L 104.103357 61.543385 
L 104.184949 72.177231 
L 104.348133 61.543385 
L 104.429725 64.504709 
L 104.511317 54.005468 
L 104.674501 64.504709 
L 104.756093 64.504709 
L 104.837685 57.024 
L 105.000869 67.392 
L 105.164053 57.024 
L 105.245645 59.968 
L 105.327237 70.208 
L 105.490421 59.968 
L 105.572013 70.208 
L 105.735197 62.840195 
L 105.979973 62.840195 
L 106.143157 65.643181 
L 106.224749 55.649928 
L 106.387933 65.643181 
L 106.469525 68.379429 
L 106.632709 58.505143 
L 106.795893 68.379429 
L 106.959077 61.293176 
L 107.203853 61.293176 
L 107.367037 64.016372 
L 107.611813 64.016372 
L 107.774997 57.143172 
L 107.938181 66.676966 
L 108.019773 57.143172 
L 108.101365 59.851636 
L 108.182957 69.277091 
L 108.346141 59.851636 
L 108.427733 59.851636 
L 108.590917 62.499236 
L 108.835693 62.499236 
L 108.998877 65.088 
L 109.080469 65.088 
L 109.162061 55.872 
L 109.325245 67.619868 
L 109.488429 58.505143 
L 109.570021 58.505143 
L 109.651613 67.619868 
L 109.814797 61.081043 
L 109.896389 61.081043 
L 109.977981 70.096696 
L 110.059573 61.081043 
L 110.141165 63.601548 
L 110.222757 63.601548 
L 110.304349 54.682839 
L 110.467533 63.601548 
L 110.549125 66.068426 
L 110.630717 57.244596 
L 110.793901 66.068426 
L 110.875493 57.244596 
L 110.957085 59.752421 
L 111.038677 59.752421 
L 111.120269 68.483368 
L 111.283453 59.752421 
L 111.446637 62.208 
L 111.691413 62.208 
L 111.773005 56.062021 
L 111.936189 64.612948 
L 112.099373 56.062021 
L 112.180965 58.505143 
L 112.262557 66.968816 
L 112.425741 58.505143 
L 112.507333 66.968816 
L 112.670517 60.898909 
L 112.915293 60.898909 
L 113.078477 63.2448 
L 113.323253 63.2448 
L 113.404845 65.544238 
L 113.568029 57.33196 
L 113.731213 65.544238 
L 113.894396 59.666824 
L 113.975988 67.798588 
L 114.139172 59.666824 
L 114.302356 61.95635 
L 114.547132 61.95635 
L 114.628724 56.226462 
L 114.791908 64.201846 
L 114.8735 64.201846 
L 114.955092 56.226462 
L 115.036684 58.505143 
L 115.118276 66.404571 
L 115.28146 58.505143 
L 115.363052 58.505143 
L 115.526236 60.74083 
L 115.771012 60.74083 
L 115.934196 62.934729 
L 116.015788 62.934729 
L 116.09738 55.182953 
L 116.260564 65.088 
L 116.342156 65.088 
L 116.423748 57.408 
L 116.586932 65.088 
L 116.750116 59.59222 
L 116.831708 59.59222 
L 116.9133 67.201761 
L 116.994892 59.59222 
L 117.076484 61.736727 
L 117.402852 61.736727 
L 117.484444 63.842595 
L 117.566036 56.370162 
L 117.72922 63.842595 
L 117.810812 56.370162 
L 117.892404 58.505143 
L 118.055588 65.910857 
L 118.218772 58.505143 
L 118.381956 60.602336 
L 118.54514 60.602336 
L 118.626732 67.942513 
L 118.789916 62.662737 
L 118.871508 62.662737 
L 118.9531 55.386947 
L 119.116284 64.687304 
L 119.197876 64.687304 
L 119.36106 57.474783 
L 119.442652 64.687304 
L 119.605836 59.526621 
L 119.687428 59.526621 
L 119.76902 66.676966 
L 119.850612 59.526621 
L 119.932204 61.543385 
L 120.258572 61.543385 
L 120.340164 63.525966 
L 120.421756 56.496814 
L 120.58494 63.525966 
L 120.666532 63.525966 
L 120.829716 58.505143 
L 120.911308 65.475227 
L 121.074492 58.505143 
L 121.156084 60.48 
L 121.237676 67.392 
L 121.40086 60.48 
L 121.482452 60.48 
L 121.564044 55.567339 
L 121.727228 62.422215 
L 121.890412 62.422215 
L 122.053596 64.33259 
L 122.21678 57.533902 
L 122.379964 66.211902 
L 122.543148 59.468488 
L 122.62474 66.211902 
L 122.706332 59.468488 
L 122.787924 61.371871 
L 123.114292 61.371871 
L 123.277476 63.2448 
L 123.359068 56.60928 
L 123.522252 63.2448 
L 123.685436 58.505143 
L 123.84862 65.088 
L 123.930212 58.505143 
L 124.011804 60.37115 
L 124.338172 60.37115 
L 124.501356 62.208 
L 124.66454 62.208 
L 124.746132 55.728 
L 124.827724 57.586605 
L 124.990908 64.016372 
L 125.0725 57.586605 
L 125.235684 65.796923 
L 125.398868 59.416615 
L 125.48046 59.416615 
L 125.562052 65.796923 
L 125.725236 61.218687 
L 125.970012 61.218687 
L 126.133196 62.993455 
L 126.214788 56.709818 
L 126.377972 62.993455 
L 126.541156 58.505143 
L 126.70434 64.741534 
L 126.785932 58.505143 
L 126.867524 60.273672 
L 127.193892 60.273672 
L 127.275484 62.016 
L 127.357076 55.872 
L 127.52026 62.016 
L 127.601852 62.016 
L 127.683444 57.633882 
L 127.846628 63.732706 
L 128.009812 57.633882 
L 128.091404 59.370044 
L 128.172995 65.42435 
L 128.336179 59.370044 
L 128.417771 65.42435 
L 128.580955 61.081043 
L 128.825731 61.081043 
L 128.988915 62.767424 
L 129.070507 56.80023 
L 129.233691 62.767424 
L 129.315283 64.429714 
L 129.478467 58.505143 
L 129.560059 64.429714 
L 129.641651 58.505143 
L 129.723243 60.185872 
L 129.804835 60.185872 
L 129.886427 66.068426 
L 130.049611 60.185872 
L 130.131203 61.84293 
L 130.212795 56.001803 
L 130.375979 61.84293 
L 130.457571 61.84293 
L 130.539163 57.676531 
L 130.702347 63.476811 
L 130.865531 57.676531 
L 130.947123 59.328 
L 131.028715 65.088 
L 131.191899 59.328 
L 131.355083 66.676966 
L 131.518267 60.95669 
L 131.681451 60.95669 
L 131.844635 62.563068 
L 131.926227 62.563068 
L 132.007819 56.881973 
L 132.171003 64.147592 
L 132.334187 58.505143 
L 132.497371 64.147592 
L 132.660555 60.106378 
L 132.905331 60.106378 
L 133.068515 61.686121 
L 133.313291 61.686121 
L 133.476475 57.7152 
L 133.639659 63.2448 
L 133.721251 57.7152 
L 133.802843 59.289854 
L 133.884435 64.782834 
L 134.047619 59.289854 
L 134.129211 59.289854 
L 134.292395 60.843789 
L 134.537171 60.843789 
L 134.700355 62.377412 
L 134.781947 62.377412 
L 134.863539 56.956235 
L 135.026723 63.891117 
L 135.189907 58.505143 
L 135.353091 63.891117 
L 135.516275 60.034065 
L 135.597867 60.034065 
L 135.679459 65.38529 
L 135.761051 60.034065 
L 135.842643 61.543385 
L 135.924235 61.543385 
L 136.005827 56.226462 
L 136.169011 61.543385 
L 136.250603 63.033478 
L 136.332195 57.75042 
L 136.495379 63.033478 
L 136.576971 57.75042 
L 136.658563 59.255089 
L 136.740155 59.255089 
L 136.821747 64.504709 
L 136.984931 59.255089 
L 137.148115 60.74083 
L 137.392891 60.74083 
L 137.474483 57.024 
L 137.637667 62.208 
L 137.719259 57.024 
L 137.882443 63.656944 
L 137.964035 63.656944 
L 138.127219 58.505143 
L 138.208811 63.656944 
L 138.371995 59.968 
L 138.453587 59.968 
L 138.535179 65.088 
L 138.616771 59.968 
L 138.698363 61.412908 
L 138.779955 61.412908 
L 138.861547 56.324319 
L 139.024731 61.412908 
L 139.106323 62.840195 
L 139.187915 57.782634 
L 139.351099 62.840195 
L 139.432691 62.840195 
L 139.595875 59.223273 
L 139.677467 64.250182 
L 139.840651 59.223273 
L 139.922243 60.646554 
L 140.003835 65.643181 
L 140.167019 60.646554 
L 140.248611 60.646554 
L 140.330203 57.086084 
L 140.493387 62.05279 
L 140.656571 62.05279 
L 140.819755 63.442286 
L 140.982939 58.505143 
L 141.146123 64.815337 
L 141.309307 59.907408 
L 141.472491 59.907408 
L 141.635675 61.293176 
L 141.880451 61.293176 
L 141.962043 62.662737 
L 142.125227 57.812211 
L 142.288411 62.662737 
L 142.451595 59.194047 
L 142.533187 64.016372 
L 142.69637 59.194047 
L 142.859554 60.559908 
L 143.10433 60.559908 
L 143.185922 57.143172 
L 143.349106 61.910069 
L 143.430698 61.910069 
L 143.51229 57.143172 
L 143.593882 58.505143 
L 143.757066 63.2448 
L 143.838658 58.505143 
L 144.001842 64.564364 
L 144.165026 59.851636 
L 144.246618 59.851636 
L 144.32821 64.564364 
L 144.491394 61.182915 
L 144.73617 61.182915 
L 144.899354 62.499236 
L 144.980946 57.839461 
L 145.14413 62.499236 
L 145.307314 59.167106 
L 145.470498 63.800849 
L 145.55209 59.167106 
L 145.633682 60.48 
L 145.96005 60.48 
L 146.041642 61.778387 
L 146.123234 57.195845 
L 146.286418 61.778387 
L 146.36801 57.195845 
L 146.449602 58.505143 
L 146.612786 63.062505 
L 146.77597 58.505143 
L 146.939154 59.800131 
L 147.102338 59.800131 
L 147.18393 64.33259 
L 147.347114 61.081043 
L 147.428706 61.081043 
L 147.510298 56.573217 
L 147.673482 62.348108 
L 147.755074 62.348108 
L 147.836666 57.864649 
L 147.99985 62.348108 
L 148.081442 63.601548 
L 148.244626 59.142194 
L 148.326218 63.601548 
L 148.40781 59.142194 
L 148.489402 60.406075 
L 148.570994 60.406075 
L 148.652586 64.841583 
L 148.81577 60.406075 
L 148.897362 61.656511 
L 148.978954 57.244596 
L 149.142138 61.656511 
L 149.22373 61.656511 
L 149.305322 58.505143 
L 149.468506 62.893714 
L 149.63169 58.505143 
L 149.713282 59.752421 
L 149.794874 64.117895 
L 149.958058 59.752421 
L 150.03965 64.117895 
L 150.202834 60.986639 
L 150.44761 60.986639 
L 150.610794 62.208 
L 150.692386 57.888 
L 150.85557 62.208 
L 150.937162 63.416705 
L 151.100346 59.119088 
L 151.181938 63.416705 
L 151.26353 59.119088 
L 151.345122 60.337485 
L 151.67149 60.337485 
L 151.834674 61.543385 
L 152.07945 61.543385 
L 152.242634 58.505143 
L 152.405818 62.73698 
L 152.48741 58.505143 
L 152.569002 59.708102 
L 152.650594 63.918457 
L 152.813778 59.708102 
L 152.89537 59.708102 
L 153.058554 60.898909 
L 153.30333 60.898909 
L 153.466514 62.077749 
L 153.548106 62.077749 
L 153.629698 57.909709 
L 153.792882 63.2448 
L 153.956066 59.0976 
L 154.11925 63.2448 
L 154.282434 60.273672 
L 154.52721 60.273672 
L 154.690394 61.438099 
L 154.93517 61.438099 
L 155.098354 58.505143 
L 155.261538 62.591054 
L 155.34313 58.505143 
L 155.424722 59.666824 
L 155.506314 63.732706 
L 155.669498 59.666824 
L 155.75109 59.666824 
L 155.914274 60.817171 
L 156.15905 60.817171 
L 156.240642 57.929942 
L 156.403826 61.95635 
L 156.485418 57.929942 
L 156.648602 63.084522 
L 156.730194 63.084522 
L 156.893378 59.077565 
L 156.974969 63.084522 
L 157.138153 60.214154 
L 157.219745 60.214154 
L 157.301337 64.201846 
L 157.382929 60.214154 
L 157.464521 61.339866 
L 157.546113 61.339866 
L 157.627705 57.371254 
L 157.790889 61.339866 
L 157.872481 62.454857 
L 157.954073 58.505143 
L 158.117257 62.454857 
L 158.198849 58.505143 
L 158.280441 59.628284 
L 158.362033 59.628284 
L 158.443625 63.55928 
L 158.606809 59.628284 
L 158.769993 60.74083 
L 159.014769 60.74083 
L 159.096361 57.948845 
L 159.259545 61.84293 
L 159.341137 57.948845 
L 159.504321 62.934729 
L 159.585913 62.934729 
L 159.749097 59.058841 
L 159.830689 62.934729 
L 159.993873 60.158512 
L 160.075465 60.158512 
L 160.157057 64.016372 
L 160.238649 60.158512 
L 160.320241 61.248 
L 160.646609 61.248 
L 160.728201 62.327447 
L 160.809793 58.505143 
L 160.972977 62.327447 
L 161.054569 62.327447 
L 161.217753 59.59222 
L 161.299345 63.396991 
L 161.462529 59.59222 
L 161.625713 60.66937 
L 161.870489 60.66937 
L 161.952081 57.966545 
L 162.115265 61.736727 
L 162.196857 61.736727 
L 162.278449 57.966545 
L 162.360041 59.041303 
L 162.441633 62.794425 
L 162.604817 59.041303 
L 162.768001 63.842595 
L 162.931185 60.106378 
L 163.094369 60.106378 
L 163.257553 61.161901 
L 163.502329 61.161901 
L 163.583921 62.208 
L 163.747105 58.505143 
L 163.910289 62.208 
L 164.073473 59.5584 
L 164.155065 63.2448 
L 164.318249 59.5584 
L 164.481433 60.602336 
L 164.726209 60.602336 
L 164.889393 61.637075 
L 165.052577 61.637075 
L 165.134169 57.983154 
L 165.215761 59.024842 
L 165.378945 62.662737 
L 165.460537 59.024842 
L 165.623721 63.679441 
L 165.786905 60.057432 
L 165.868497 60.057432 
L 165.950089 63.679441 
L 166.113273 61.081043 
L 166.358049 61.081043 
L 166.521233 62.095792 
L 166.602825 58.505143 
L 166.766009 62.095792 
L 166.929193 59.526621 
L 167.010785 59.526621 
L 167.092377 63.101793 
L 167.173969 59.526621 
L 167.255561 60.53933 
L 167.581929 60.53933 
L 167.663521 61.543385 
L 167.745113 57.998769 
L 167.908297 61.543385 
L 167.989889 57.998769 
L 168.071481 59.009362 
L 168.234665 62.538894 
L 168.397849 59.009362 
L 168.561033 60.01139 
L 168.724217 60.01139 
L 168.805809 63.525966 
L 168.968993 61.004962 
L 169.213769 61.004962 
L 169.376953 61.990185 
L 169.458545 58.505143 
L 169.621729 61.990185 
L 169.703321 62.967163 
L 169.866505 59.496703 
L 169.948097 62.967163 
L 170.029689 59.496703 
L 170.111281 60.48 
L 170.192873 60.48 
L 170.274465 63.936 
L 170.437649 60.48 
L 170.519241 61.455137 
L 170.600833 58.013477 
L 170.764017 61.455137 
L 170.845609 61.455137 
L 170.927201 58.994777 
L 171.090385 62.422215 
L 171.253569 58.994777 
L 171.335161 59.968 
L 171.416752 63.381333 
L 171.579936 59.968 
L 171.661528 59.968 
L 171.74312 57.533902 
L 171.906304 60.933246 
L 172.069488 60.933246 
L 172.232672 61.890612 
L 172.395856 58.505143 
L 172.55904 62.840195 
L 172.722224 59.468488 
L 172.803816 62.840195 
L 172.885408 59.468488 
L 172.967 60.424032 
L 173.293368 60.424032 
L 173.456552 61.371871 
L 173.701328 61.371871 
L 173.864512 58.981012 
L 174.027696 62.312096 
L 174.109288 58.981012 
L 174.19088 59.92704 
L 174.272472 63.2448 
L 174.435656 59.92704 
L 174.517248 59.92704 
L 174.680432 60.86553 
L 174.925208 60.86553 
L 175.088392 61.796571 
L 175.169984 61.796571 
L 175.251576 58.505143 
L 175.41476 62.720253 
L 175.577944 59.441834 
L 175.741128 62.720253 
L 175.904312 60.37115 
L 176.149088 60.37115 
L 176.312272 61.293176 
L 176.557048 61.293176 
L 176.720232 58.968 
L 176.883416 62.208 
L 176.965008 58.968 
L 177.0466 59.888311 
L 177.372968 59.888311 
L 177.536152 60.801488 
L 177.780928 60.801488 
L 177.86252 58.505143 
L 178.025704 61.707614 
L 178.107296 58.505143 
L 178.27048 62.606769 
L 178.352072 62.606769 
L 178.515256 59.416615 
L 178.596848 62.606769 
L 178.760032 60.321103 
L 178.841624 60.321103 
L 178.923216 63.499034 
L 179.004808 60.321103 
L 179.0864 61.218687 
L 179.167992 61.218687 
L 179.249584 58.052885 
L 179.412768 61.218687 
L 179.49436 62.109445 
L 179.575952 58.955681 
L 179.739136 62.109445 
L 179.820728 58.955681 
L 179.90232 59.851636 
L 179.983912 59.851636 
L 180.065504 62.993455 
L 180.228688 59.851636 
L 180.391872 60.74083 
L 180.636648 60.74083 
L 180.71824 58.505143 
L 180.881424 61.623338 
L 180.963016 58.505143 
L 181.1262 62.499236 
L 181.207792 62.499236 
L 181.370976 59.392719 
L 181.53416 63.368597 
L 181.697344 60.273672 
L 181.778936 63.368597 
L 181.860528 60.273672 
L 181.94212 61.148074 
L 182.268488 61.148074 
L 182.35008 62.016 
L 182.513264 58.944 
L 182.676448 62.016 
L 182.839632 59.816856 
L 182.921224 62.87752 
L 183.084408 59.816856 
L 183.247592 60.683294 
L 183.492368 60.683294 
L 183.57396 58.505143 
L 183.737144 61.543385 
L 183.818736 61.543385 
L 183.900328 58.505143 
L 183.98192 59.370044 
L 184.063512 62.397197 
L 184.226696 59.370044 
L 184.38988 63.2448 
L 184.553064 60.228655 
L 184.716248 60.228655 
L 184.879432 61.081043 
L 185.124208 61.081043 
L 185.2058 61.927278 
L 185.368984 58.93291 
L 185.532168 61.927278 
L 185.695352 59.783827 
L 185.858535 62.767424 
L 185.940127 59.783827 
L 186.021719 60.628645 
L 186.348087 60.628645 
L 186.511271 61.467429 
L 186.674455 61.467429 
L 186.756047 58.505143 
L 186.837639 59.348498 
L 187.000823 62.300242 
L 187.082415 59.348498 
L 187.245599 63.127149 
L 187.408783 60.185872 
L 187.490375 60.185872 
L 187.571967 63.127149 
L 187.735151 61.017329 
L 187.816743 61.017329 
L 187.898335 58.086445 
L 188.061519 61.84293 
L 188.143111 61.84293 
L 188.224703 58.922366 
L 188.387887 61.84293 
L 188.551071 59.752421 
L 188.632663 59.752421 
L 188.714255 62.662737 
L 188.795847 59.752421 
L 188.877439 60.576671 
L 189.203807 60.576671 
L 189.285399 61.395178 
L 189.366991 58.505143 
L 189.530175 61.395178 
L 189.611767 58.505143 
L 189.693359 59.328 
L 189.856543 62.208 
L 190.019727 59.328 
L 190.101319 60.145163 
L 190.182911 63.015197 
L 190.346095 60.145163 
L 190.427687 63.015197 
L 190.590871 60.95669 
L 190.835647 60.95669 
L 190.998831 61.762639 
L 191.080423 58.91233 
L 191.243607 61.762639 
L 191.325199 62.563068 
L 191.488383 59.722521 
L 191.569975 62.563068 
L 191.651567 59.722521 
L 191.733159 60.527181 
L 191.814751 60.527181 
L 191.896343 63.358034 
L 192.059527 60.527181 
L 192.141119 61.326367 
L 192.222711 58.505143 
L 192.385895 61.326367 
L 192.467487 61.326367 
L 192.549079 59.308475 
L 192.712263 62.120136 
L 192.875447 59.308475 
L 192.957039 60.106378 
L 193.038631 62.908541 
L 193.201815 60.106378 
L 193.283407 60.106378 
L 193.364999 58.106182 
L 193.528183 60.898909 
L 193.691367 60.898909 
L 193.854551 61.686121 
L 194.017735 58.902765 
L 194.180919 62.468067 
L 194.344103 59.69402 
L 194.507287 62.468067 
L 194.670471 60.48 
L 194.915247 60.48 
L 195.078431 61.260757 
L 195.323207 61.260757 
L 195.486391 59.289854 
L 195.649575 62.036344 
L 195.731167 59.289854 
L 195.812759 60.069386 
L 195.894351 62.806812 
L 196.057535 60.069386 
L 196.139127 60.069386 
L 196.302311 60.843789 
L 196.547087 60.843789 
L 196.710271 61.613115 
L 196.791863 61.613115 
L 196.873455 58.893639 
L 197.036639 62.377412 
L 197.199823 59.666824 
L 197.363007 62.377412 
L 197.526191 60.434971 
L 197.770967 60.434971 
L 197.934151 61.19813 
L 198.178927 61.19813 
L 198.342111 59.272078 
L 198.505295 61.95635 
L 198.586887 59.272078 
L 198.668479 60.034065 
L 198.750071 60.034065 
L 198.831663 62.709677 
L 198.994847 60.034065 
L 199.158031 60.791151 
L 199.402807 60.791151 
L 199.484399 58.884923 
L 199.647583 61.543385 
L 199.729175 58.884923 
L 199.892359 62.290812 
L 199.973951 62.290812 
L 200.137135 59.640843 
L 200.218726 62.290812 
L 200.38191 60.391949 
L 200.463502 60.391949 
L 200.545094 63.033478 
L 200.626686 60.391949 
L 200.708278 61.138286 
L 200.78987 61.138286 
L 200.871462 58.505143 
L 201.034646 61.138286 
L 201.116238 61.879899 
L 201.19783 59.255089 
L 201.361014 61.879899 
L 201.442606 59.255089 
L 201.524198 60.000303 
L 201.60579 60.000303 
L 201.687382 62.616833 
L 201.850566 60.000303 
L 202.01375 60.74083 
L 202.258526 60.74083 
L 202.340118 58.876589 
L 202.503302 61.476715 
L 202.584894 58.876589 
L 202.748078 62.208 
L 202.82967 62.208 
L 202.992854 59.616 
L 203.156038 62.934729 
L 203.319222 60.350804 
L 203.400814 62.934729 
L 203.482406 60.350804 
L 203.563998 61.081043 
L 203.890366 61.081043 
L 203.971958 61.806762 
L 204.135142 59.238836 
L 204.298326 61.806762 
L 204.46151 59.968 
L 204.543102 62.528 
L 204.706286 59.968 
L 204.86947 60.692677 
L 205.114246 60.692677 
L 205.195838 58.868613 
L 205.359022 61.412908 
L 205.440614 61.412908 
L 205.522206 58.868613 
L 205.603798 59.59222 
L 205.68539 62.128734 
L 205.848574 59.59222 
L 206.011758 62.840195 
L 206.174942 60.311415 
L 206.338126 60.311415 
L 206.50131 61.026237 
L 206.746086 61.026237 
L 206.827678 61.736727 
L 206.990862 59.223273 
L 207.154046 61.736727 
L 207.31723 59.937063 
L 207.480414 62.442924 
L 207.562006 59.937063 
L 207.643598 60.646554 
L 207.969966 60.646554 
L 208.13315 61.351784 
L 208.296334 61.351784 
L 208.377926 58.860973 
L 208.459518 59.569437 
L 208.622702 62.05279 
L 208.785886 59.569437 
L 208.94907 60.273672 
L 209.112254 60.273672 
L 209.193846 62.749612 
L 209.35703 60.973714 
L 209.438622 60.973714 
L 209.520214 58.505143 
L 209.683398 61.669602 
L 209.76499 61.669602 
L 209.846582 59.208356 
L 210.009766 61.669602 
L 210.17295 59.907408 
L 210.254542 59.907408 
L 210.336134 62.361373 
L 210.417726 59.907408 
L 210.499318 60.602336 
L 210.825686 60.602336 
L 210.907278 61.293176 
L 210.98887 58.853647 
L 211.152054 61.293176 
L 211.233646 58.853647 
L 211.315238 59.547589 
L 211.478422 61.979965 
L 211.641606 59.547589 
L 211.723198 60.237474 
L 211.80479 62.662737 
L 211.967974 60.237474 
L 212.049566 62.662737 
L 212.21275 60.923335 
L 212.457526 60.923335 
L 212.62071 61.605209 
L 212.702302 59.194047 
L 212.865486 61.605209 
L 212.947078 62.28313 
L 213.110262 59.878957 
L 213.191854 62.28313 
L 213.273446 59.878957 
L 213.355038 60.559908 
L 213.43663 60.559908 
L 213.518222 62.957133 
L 213.681406 60.559908 
L 213.762998 61.236934 
L 213.84459 58.846617 
L 214.007774 61.236934 
L 214.089366 61.236934 
L 214.25255 59.526621 
L 214.334142 61.910069 
L 214.497326 59.526621 
L 214.578917 60.202728 
L 214.660509 62.579347 
L 214.823693 60.202728 
L 214.905285 60.202728 
L 214.986877 58.505143 
L 215.150061 60.874971 
L 215.313245 60.874971 
L 215.476429 61.543385 
L 215.558021 61.543385 
L 215.639613 59.180308 
L 215.802797 62.208 
L 215.965981 59.851636 
L 216.129165 62.208 
L 216.292349 60.519161 
L 216.537125 60.519161 
L 216.700309 61.182915 
L 216.945085 61.182915 
L 217.108269 59.506479 
L 217.271453 61.84293 
L 217.353045 59.506479 
L 217.434637 60.169348 
L 217.516229 62.499236 
L 217.679413 60.169348 
L 217.761005 60.169348 
L 217.924189 60.828504 
L 218.168965 60.828504 
L 218.332149 61.483978 
L 218.413741 61.483978 
L 218.495333 59.167106 
L 218.658517 62.135799 
L 218.821701 59.825382 
L 218.984885 62.135799 
L 219.148069 60.48 
L 219.392845 60.48 
L 219.556029 61.130992 
L 219.637621 58.833374 
L 219.800805 61.130992 
L 219.882397 61.778387 
L 219.963989 59.487116 
L 220.127173 61.778387 
L 220.208765 59.487116 
L 220.290357 60.137256 
L 220.371949 60.137256 
L 220.453541 62.422215 
L 220.616725 60.137256 
L 220.779909 60.783824 
L 221.024685 60.783824 
L 221.106277 59.154411 
L 221.269461 61.426849 
L 221.351053 59.154411 
L 221.514237 62.066361 
L 221.595829 62.066361 
L 221.759013 59.800131 
L 221.840605 62.066361 
L 222.003789 60.442332 
L 222.085381 60.442332 
L 222.166973 62.702387 
L 222.248565 60.442332 
L 222.330157 61.081043 
L 222.411749 61.081043 
L 222.493341 58.82713 
L 222.656525 61.081043 
L 222.738117 61.716293 
L 222.819709 59.468488 
L 222.982893 61.716293 
L 223.064485 59.468488 
L 223.146077 60.106378 
L 223.227669 60.106378 
L 223.309261 62.348108 
L 223.472445 60.106378 
L 223.635629 60.74083 
L 223.880405 60.74083 
L 223.961997 59.142194 
L 224.125181 61.371871 
L 224.288365 61.371871 
L 224.451549 61.999528 
L 224.614733 59.775828 
L 224.777917 62.623829 
L 224.941101 60.406075 
L 225.104285 60.406075 
L 225.267469 61.03296 
L 225.512245 61.03296 
L 225.593837 61.656511 
L 225.757021 59.450553 
L 225.920205 61.656511 
L 226.083389 60.076647 
L 226.164981 62.276753 
L 226.328165 60.076647 
L 226.491349 60.699429 
L 226.736125 60.699429 
L 226.817717 59.130427 
L 226.980901 61.318923 
L 227.062493 61.318923 
L 227.144085 59.130427 
L 227.225677 59.752421 
L 227.307269 61.935158 
L 227.470453 59.752421 
L 227.633637 62.548157 
L 227.796821 60.37115 
L 227.960005 60.37115 
L 228.123189 60.986639 
L 228.367965 60.986639 
L 228.531149 61.598914 
L 228.612741 59.433274 
L 228.775925 61.598914 
L 228.939109 60.048 
L 229.102292 62.208 
L 229.183884 60.048 
L 229.265476 60.659532 
L 229.591844 60.659532 
L 229.755028 61.267896 
L 229.918212 61.267896 
L 229.999804 59.119088 
L 230.081396 59.72986 
L 230.24458 61.873116 
L 230.407764 59.72986 
L 230.570948 60.337485 
L 230.734132 60.337485 
L 230.815724 62.475216 
L 230.978908 60.941985 
L 231.0605 60.941985 
L 231.142092 58.809748 
L 231.305276 61.543385 
L 231.386868 61.543385 
L 231.46846 59.416615 
L 231.631644 61.543385 
L 231.794828 60.020379 
L 231.87642 60.020379 
L 231.958012 62.141708 
L 232.039604 60.020379 
L 232.121196 60.621061 
L 232.447564 60.621061 
L 232.529156 61.218687 
L 232.610748 59.108153 
L 232.773932 61.218687 
L 232.855524 61.218687 
L 232.937116 59.708102 
L 233.1003 61.813279 
L 233.263484 59.708102 
L 233.345076 60.305013 
L 233.426668 62.404861 
L 233.589852 60.305013 
L 233.671444 62.404861 
L 233.834628 60.898909 
L 234.079404 60.898909 
L 234.242588 61.489814 
L 234.32418 59.400544 
L 234.487364 61.489814 
L 234.568956 62.077749 
L 234.73214 59.993729 
L 234.813732 62.077749 
L 234.895324 59.993729 
L 234.976916 60.58394 
L 235.058508 60.58394 
L 235.1401 62.662737 
L 235.303284 60.58394 
L 235.384876 61.1712 
L 235.466468 59.0976 
L 235.629652 61.1712 
L 235.711244 61.1712 
L 235.874428 59.687102 
L 235.95602 61.755531 
L 236.119204 59.687102 
L 236.200796 60.273672 
L 236.282388 62.336955 
L 236.445572 60.273672 
L 236.527164 60.273672 
L 236.608756 58.799166 
L 236.77194 60.85733 
L 236.935124 60.85733 
L 237.098308 61.438099 
L 237.1799 61.438099 
L 237.261492 59.38503 
L 237.424676 62.016 
L 237.58786 59.968 
L 237.751044 62.016 
L 237.914228 60.548099 
L 238.159004 60.548099 
L 238.322188 61.125346 
L 238.566964 61.125346 
L 238.730148 59.666824 
L 238.893332 61.699765 
L 238.974924 59.666824 
L 239.056516 60.243403 
L 239.138108 62.271374 
L 239.301292 60.243403 
L 239.382884 60.243403 
L 239.546068 60.817171 
L 239.790844 60.817171 
L 239.954028 61.388146 
L 240.03562 61.388146 
L 240.117212 59.370044 
L 240.280396 61.95635 
L 240.44358 59.943146 
L 240.606764 61.95635 
L 240.769948 60.513472 
L 241.014724 60.513472 
L 241.177908 61.081043 
L 241.2595 59.077565 
L 241.422684 61.081043 
L 241.504276 61.64588 
L 241.585868 59.647229 
L 241.749052 61.64588 
L 241.830644 59.647229 
L 241.912236 60.214154 
L 241.993828 60.214154 
L 242.07542 62.208 
L 242.238604 60.214154 
L 242.401788 60.77836 
L 242.646564 60.77836 
L 242.728156 59.35556 
L 242.89134 61.339866 
L 242.972932 59.35556 
L 243.136116 61.898692 
L 243.217708 61.898692 
L 243.380891 59.919122 
L 243.462483 61.898692 
L 243.625667 60.48 
L 243.707259 60.48 
L 243.788851 62.454857 
L 243.870443 60.48 
L 243.952035 61.038214 
L 244.033627 61.038214 
L 244.115219 59.068048 
L 244.278403 61.038214 
L 244.359995 61.593782 
L 244.441587 59.628284 
L 244.604771 61.593782 
L 244.686363 59.628284 
L 244.767955 60.185872 
L 244.849547 60.185872 
L 244.931139 62.146723 
L 245.094323 60.185872 
L 245.257507 60.74083 
L 245.502283 60.74083 
L 245.583875 59.341553 
L 245.747059 61.293176 
L 245.910243 61.293176 
L 246.073427 61.84293 
L 246.236611 59.895887 
L 246.399795 62.390108 
L 246.562979 60.447625 
L 246.726163 60.447625 
L 246.889347 60.996785 
L 247.134123 60.996785 
L 247.215715 61.543385 
L 247.378899 59.609958 
L 247.542083 61.543385 
L 247.705267 60.158512 
L 247.786859 62.087442 
L 247.950043 60.158512 
L 248.113227 60.70452 
L 248.358003 60.70452 
L 248.439595 59.328 
L 248.602779 61.248 
L 248.684371 61.248 
L 248.765963 59.328 
L 248.847555 59.873404 
L 248.929147 61.78897 
L 249.092331 59.873404 
L 249.255515 62.327447 
L 249.418699 60.416295 
L 249.500291 60.416295 
L 249.581883 62.327447 
L 249.745067 60.95669 
L 249.989843 60.95669 
L 250.153027 61.494606 
L 250.234619 59.59222 
L 250.397803 61.494606 
L 250.560987 60.132027 
L 250.724171 62.030059 
L 250.805763 60.132027 
L 250.887355 60.66937 
L 251.213723 60.66937 
L 251.295315 61.204264 
L 251.376907 59.314879 
L 251.540091 61.204264 
L 251.621683 59.314879 
L 251.703275 59.851636 
L 251.866459 61.736727 
L 252.029643 59.851636 
L 252.192827 60.385959 
L 252.356011 60.385959 
L 252.437603 62.266776 
L 252.600787 60.917864 
L 252.682379 60.917864 
L 252.763971 59.041303 
L 252.927155 61.447368 
L 253.008747 61.447368 
L 253.090339 59.575043 
L 253.253523 61.447368 
L 253.416707 60.106378 
L 253.498299 60.106378 
L 253.579891 61.974486 
L 253.661483 60.106378 
L 253.743075 60.635326 
L 253.824667 60.635326 
L 253.906259 62.499236 
L 254.069443 60.635326 
L 254.151035 61.161901 
L 254.232627 59.30217 
L 254.395811 61.161901 
L 254.477403 61.161901 
L 254.558995 59.83055 
L 254.722179 61.686121 
L 254.885363 59.83055 
L 254.966955 60.356571 
L 255.048547 62.208 
L 255.211731 60.356571 
L 255.293323 62.208 
L 255.456507 60.880249 
L 255.701283 60.880249 
L 255.864467 61.4016 
L 255.946059 59.5584 
L 256.109243 61.4016 
L 256.190835 61.920639 
L 256.354019 60.081525 
L 256.435611 61.920639 
L 256.517203 60.081525 
L 256.598795 60.602336 
L 256.925163 60.602336 
L 257.006755 61.120848 
L 257.088347 59.289854 
L 257.251531 61.120848 
L 257.333123 61.120848 
L 257.496307 59.810115 
L 257.577899 61.637075 
L 257.741083 59.810115 
L 257.822674 60.328088 
L 257.904266 62.151033 
L 258.06745 60.328088 
L 258.149042 60.328088 
L 258.312226 60.843789 
L 258.557002 60.843789 
L 258.720186 61.357234 
L 258.801778 61.357234 
L 258.88337 59.542267 
L 259.046554 61.868437 
L 259.209738 60.057432 
L 259.372922 61.868437 
L 259.536106 60.570353 
L 259.780882 60.570353 
L 259.944066 61.081043 
L 260.188842 61.081043 
L 260.352026 59.790299 
L 260.51521 61.589518 
L 260.596802 59.790299 
L 260.678394 60.300468 
L 260.759986 62.095792 
L 260.92317 60.300468 
L 261.004762 60.300468 
L 261.167946 60.808432 
L 261.412722 60.808432 
L 261.575906 61.314207 
L 261.657498 61.314207 
L 261.73909 59.526621 
L 261.902274 61.817806 
L 262.065458 60.034065 
L 262.14705 60.034065 
L 262.228642 61.817806 
L 262.391826 60.53933 
L 262.473418 60.53933 
L 262.55501 62.319245 
L 262.636602 60.53933 
L 262.718194 61.042433 
L 262.799786 61.042433 
L 262.881378 59.26633 
L 263.044562 61.042433 
L 263.126154 61.543385 
L 263.207746 59.771077 
L 263.37093 61.543385 
L 263.452522 59.771077 
L 263.534114 60.273672 
L 263.615706 60.273672 
L 263.697298 62.0422 
L 263.860482 60.273672 
L 264.023666 60.774128 
L 264.268442 60.774128 
L 264.350034 59.511439 
L 264.513218 61.272459 
L 264.59481 59.511439 
L 264.757994 61.768678 
L 264.839586 61.768678 
L 265.00277 60.01139 
L 265.084362 61.768678 
L 265.247546 60.509226 
L 265.329138 60.509226 
L 265.41073 62.262799 
L 265.492322 60.509226 
L 265.573914 61.004962 
L 265.655506 61.004962 
L 265.737098 59.255089 
L 265.900282 61.004962 
L 265.981874 61.498611 
L 266.063466 59.752421 
L 266.22665 61.498611 
L 266.308242 59.752421 
L 266.389834 60.247664 
L 266.471426 60.247664 
L 266.553018 61.990185 
L 266.716202 60.247664 
L 266.797794 60.74083 
L 266.879386 62.479698 
L 267.04257 60.74083 
L 267.124162 60.74083 
L 267.205754 59.496703 
L 267.368938 61.231933 
L 267.45053 61.231933 
L 267.532122 59.496703 
L 267.613714 59.989378 
L 267.695306 61.720985 
L 267.85849 59.989378 
L 268.021674 62.208 
L 268.184858 60.48 
L 268.348042 60.48 
L 268.511226 60.968582 
L 268.756002 60.968582 
L 268.837594 61.455137 
L 269.000778 59.734307 
L 269.163962 61.455137 
L 269.327146 60.22241 
L 269.408738 61.939677 
L 269.571922 60.22241 
L 269.735106 60.708496 
L 269.979882 60.708496 
L 270.061474 59.482392 
L 270.224658 61.192577 
L 270.30625 61.192577 
L 270.387842 59.482392 
L 270.469434 59.968 
L 270.551026 61.674667 
L 270.71421 59.968 
L 270.877394 62.154776 
L 271.040578 60.451614 
L 271.12217 60.451614 
L 271.203762 62.154776 
L 271.366946 60.933246 
L 271.611722 60.933246 
L 271.774906 61.412908 
L 271.856498 59.716712 
L 272.019682 61.412908 
L 272.182865 60.197878 
L 272.346049 61.890612 
L 272.427641 60.197878 
L 272.509233 60.677084 
L 272.835601 60.677084 
L 272.917193 61.154341 
L 272.998785 59.468488 
L 273.161969 61.154341 
L 273.243561 59.468488 
L 273.325153 59.947229 
L 273.488337 61.629663 
L 273.651521 59.947229 
L 273.814705 60.424032 
L 273.977889 60.424032 
L 274.059481 62.103061 
L 274.222665 60.898909 
L 274.304257 60.898909 
L 274.385849 59.223273 
L 274.549033 61.371871 
L 274.630625 61.371871 
L 274.712217 59.699613 
L 274.875401 61.371871 
L 275.038585 60.174036 
L 275.120177 60.174036 
L 275.201769 61.84293 
L 275.283361 60.174036 
L 275.364953 60.646554 
L 275.446545 60.646554 
L 275.528137 62.312096 
L 275.691321 60.646554 
L 275.772913 61.117178 
L 275.854505 59.454974 
L 276.017689 61.117178 
L 276.099281 61.117178 
L 276.180873 59.92704 
L 276.344057 61.58592 
L 276.507241 59.92704 
L 276.588833 60.397222 
L 276.670425 62.05279 
L 276.833609 60.397222 
L 276.915201 62.05279 
L 277.078385 60.86553 
L 277.323161 60.86553 
L 277.486345 61.331976 
L 277.567937 59.68299 
L 277.731121 61.331976 
L 277.812713 61.796571 
L 277.975897 60.150857 
L 278.057489 61.796571 
L 278.139081 60.150857 
L 278.220673 60.616871 
L 278.547041 60.616871 
L 278.628633 61.081043 
L 278.710225 59.441834 
L 278.873409 61.081043 
L 278.955001 61.081043 
L 279.118185 59.907408 
L 279.199777 61.543385 
L 279.362961 59.907408 
L 279.444553 60.37115 
L 279.526145 62.003906 
L 279.689329 60.37115 
L 279.770921 60.37115 
L 279.934105 60.833069 
L 280.178881 60.833069 
L 280.342065 61.293176 
L 280.423657 61.293176 
L 280.505249 59.666824 
L 280.668433 61.751483 
L 280.831617 60.128313 
L 280.994801 61.751483 
L 281.157985 60.588 
L 281.402761 60.588 
L 281.565945 61.045895 
L 281.810721 61.045895 
L 281.973905 59.888311 
L 282.137089 61.502008 
L 282.218681 59.888311 
L 282.300273 60.345786 
L 282.381865 61.95635 
L 282.545049 60.345786 
L 282.626641 60.345786 
L 282.789825 60.801488 
L 283.034601 60.801488 
L 283.197785 61.255427 
L 283.279377 61.255427 
L 283.360969 59.651095 
L 283.524153 61.707614 
L 283.605745 61.707614 
L 283.768929 60.106378 
L 283.850521 61.707614 
L 284.013705 60.559908 
L 284.095297 60.559908 
L 284.176889 62.158058 
L 284.258481 60.559908 
L 284.340073 61.011692 
L 284.421665 61.011692 
L 284.503257 59.416615 
L 284.666441 61.011692 
L 284.748033 61.461743 
L 284.829625 59.869727 
L 284.992809 61.461743 
L 285.074401 59.869727 
L 285.155993 60.321103 
L 285.237585 60.321103 
L 285.319177 61.910069 
L 285.482361 60.321103 
L 285.645545 60.770753 
L 285.890321 60.770753 
L 285.971913 59.635786 
L 286.135097 61.218687 
L 286.216689 59.635786 
L 286.379873 61.664914 
L 286.461465 61.664914 
L 286.624648 60.085029 
L 286.70624 61.664914 
L 286.869424 60.532563 
L 286.951016 60.532563 
L 287.032608 62.109445 
L 287.1142 60.532563 
L 287.195792 60.978398 
L 287.277384 60.978398 
L 287.358976 59.404509 
L 287.52216 60.978398 
L 287.603752 61.422545 
L 287.685344 59.851636 
L 287.848528 61.422545 
L 287.93012 61.422545 
L 288.093304 60.297074 
L 288.174896 61.865013 
L 288.33808 60.297074 
L 288.419672 60.74083 
L 288.501264 62.305811 
L 288.664448 60.74083 
L 288.74604 60.74083 
L 288.827632 59.620881 
L 288.990816 61.182915 
L 289.072408 61.182915 
L 289.154 59.620881 
L 289.235592 60.064241 
L 289.317184 61.623338 
L 289.480368 60.064241 
L 289.643552 62.062109 
L 289.806736 60.505936 
L 289.96992 60.505936 
L 290.133104 60.945978 
L 290.37788 60.945978 
L 290.459472 61.384374 
L 290.622656 59.834019 
L 290.78584 61.384374 
L 290.949024 60.273672 
L 291.030616 61.821134 
L 291.1938 60.273672 
L 291.356984 60.711687 
L 291.60176 60.711687 
L 291.683352 59.606364 
L 291.846536 61.148074 
L 291.928128 61.148074 
L 292.00972 59.606364 
L 292.091312 60.043993 
L 292.254496 61.582842 
L 292.336088 60.043993 
L 292.499272 62.016 
L 292.662456 60.48 
L 292.744048 60.48 
L 292.82564 62.016 
L 292.988824 60.914396 
L 293.2336 60.914396 
L 293.396784 61.347188 
L 293.478376 59.816856 
L 293.64156 61.347188 
L 293.804744 60.250873 
L 293.886336 60.250873 
L 293.967928 61.778387 
L 294.04952 60.250873 
L 294.131112 60.683294 
L 294.45748 60.683294 
L 294.539072 61.114128 
L 294.620664 59.59222 
L 294.783848 61.114128 
L 294.86544 59.59222 
L 294.947032 60.024264 
L 295.110216 61.543385 
L 295.2734 60.024264 
L 295.436584 60.454728 
L 295.599768 60.454728 
L 295.68136 61.971071 
L 295.844544 60.88362 
L 295.926136 60.88362 
L 296.007728 59.370044 
L 296.170912 61.310951 
L 296.252504 61.310951 
L 296.334096 59.800131 
L 296.49728 61.310951 
L 296.578872 61.736727 
L 296.742056 60.228655 
L 296.823648 61.736727 
L 296.90524 60.228655 
L 296.986832 60.655623 
L 297.068424 60.655623 
L 297.150016 62.160958 
L 297.3132 60.655623 
L 297.394792 61.081043 
L 297.476384 59.578435 
L 297.639568 61.081043 
L 297.72116 61.081043 
L 297.802752 60.005034 
L 297.965936 61.504926 
L 298.12912 60.005034 
L 298.210712 60.430094 
L 298.292304 61.927278 
L 298.455488 60.430094 
L 298.53708 61.927278 
L 298.700264 60.853622 
L 298.94504 60.853622 
L 299.108224 61.275626 
L 299.271408 59.783827 
L 299.434592 61.696115 
L 299.597776 60.206995 
L 299.679368 61.696115 
L 299.76096 60.206995 
L 299.842552 60.628645 
L 300.16892 60.628645 
L 300.250512 61.048787 
L 300.332104 59.564995 
L 300.495288 61.048787 
L 300.57688 61.048787 
L 300.740064 59.986286 
L 300.903248 61.467429 
L 300.984839 59.986286 
L 301.066431 60.406075 
L 301.148023 61.884578 
L 301.311207 60.406075 
L 301.392799 60.406075 
L 301.555983 60.82437 
L 301.800759 60.82437 
L 301.963943 61.241179 
L 302.045535 61.241179 
L 302.127127 59.767929 
L 302.290311 61.656511 
L 302.453495 60.185872 
L 302.616679 61.656511 
L 302.779863 60.602336 
L 303.024639 60.602336 
L 303.187823 61.017329 
L 303.432599 61.017329 
L 303.595783 59.968 
L 303.758967 61.430857 
L 303.840559 59.968 
L 303.922151 60.382648 
L 304.003743 61.84293 
L 304.166927 60.382648 
L 304.248519 60.382648 
L 304.411703 60.795838 
L 304.574887 60.795838 
L 304.656479 59.338123 
L 304.738071 59.752421 
L 304.901255 61.207579 
L 304.982847 59.752421 
L 305.146031 61.617877 
L 305.227623 61.617877 
L 305.390807 60.165268 
L 305.472399 61.617877 
L 305.635583 60.576671 
L 305.717175 60.576671 
L 305.798767 62.026741 
L 305.880359 60.576671 
L 305.961951 60.986639 
L 306.043543 60.986639 
L 306.125135 59.539099 
L 306.288319 60.986639 
L 306.369911 61.395178 
L 306.451503 59.95016 
L 306.614687 61.395178 
L 306.696279 59.95016 
L 306.777871 60.359791 
L 306.859463 60.359791 
L 306.941055 61.802296 
L 307.104239 60.359791 
L 307.267423 60.768 
L 307.512199 60.768 
L 307.593791 59.737289 
L 307.756975 61.174794 
L 307.838567 59.737289 
L 308.001751 61.58018 
L 308.083343 61.58018 
L 308.246527 60.145163 
L 308.328119 61.58018 
L 308.491303 60.551627 
L 308.572895 60.551627 
L 308.654487 61.984166 
L 308.736079 60.551627 
L 308.817671 60.95669 
L 308.899263 60.95669 
L 308.980855 59.526621 
L 309.144039 60.95669 
L 309.225631 61.360358 
L 309.307223 59.93275 
L 309.470407 61.360358 
L 309.551999 61.360358 
L 309.715183 60.337485 
L 309.796775 61.762639 
L 309.959959 60.337485 
L 310.123143 60.74083 
L 310.367919 60.74083 
L 310.449511 59.722521 
L 310.612695 61.142795 
L 310.694287 61.142795 
L 310.775879 59.722521 
L 310.857471 60.125538 
L 310.939063 61.543385 
L 311.102247 60.125538 
L 311.265431 61.942608 
L 311.428615 60.527181 
L 311.591799 60.527181 
L 311.754983 60.927455 
L 311.999759 60.927455 
L 312.081351 61.326367 
L 312.244535 59.915755 
L 312.407719 61.326367 
L 312.570903 60.315708 
L 312.652495 61.723925 
L 312.815679 60.315708 
L 312.978863 60.714305 
L 313.223639 60.714305 
L 313.305231 59.708102 
L 313.468415 61.111553 
L 313.550007 61.111553 
L 313.631599 59.708102 
L 313.713191 60.106378 
L 313.876375 61.507459 
L 313.957967 60.106378 
L 314.121151 61.90203 
L 314.284335 60.503312 
L 314.365927 60.503312 
L 314.447519 61.90203 
L 314.610703 60.898909 
L 314.855479 60.898909 
L 315.018663 61.293176 
L 315.100255 59.89916 
L 315.263439 61.293176 
L 315.426622 60.294443 
L 315.508214 60.294443 
L 315.589806 61.686121 
L 315.671398 60.294443 
L 315.75299 60.688402 
L 316.079358 60.688402 
L 316.16095 61.081043 
L 316.242542 59.69402 
L 316.405726 61.081043 
L 316.487318 59.69402 
L 316.56891 60.087666 
L 316.732094 61.472374 
L 316.895278 60.087666 
L 317.058462 60.48 
L 317.221646 60.48 
L 317.303238 61.8624 
L 317.466422 60.871028 
L 317.711198 60.871028 
L 317.874382 61.260757 
L 317.955974 59.88295 
L 318.119158 61.260757 
L 318.20075 61.649194 
L 318.363934 60.273672 
L 318.445526 61.649194 
L 318.527118 60.273672 
L 318.60871 60.663099 
L 318.690302 60.663099 
L 318.771894 62.036344 
L 318.935078 60.663099 
L 319.01667 61.05124 
L 319.098262 59.680264 
L 319.261446 61.05124 
L 319.343038 61.05124 
L 319.42463 60.069386 
L 319.587814 61.438099 
L 319.750998 60.069386 
L 319.83259 60.457226 
L 319.914182 61.823684 
L 320.077366 60.457226 
L 320.158958 61.823684 
L 320.322142 60.843789 
L 320.566918 60.843789 
L 320.730102 61.229084 
L 320.893286 59.867113 
L 321.05647 61.613115 
L 321.219654 60.253377 
L 321.301246 61.613115 
L 321.382838 60.253377 
L 321.46443 60.638376 
L 321.790798 60.638376 
L 321.953982 61.022118 
L 322.198758 61.022118 
L 322.361942 60.051524 
L 322.525126 61.404607 
L 322.606718 60.051524 
L 322.68831 60.434971 
L 322.769902 61.78585 
L 322.933086 60.434971 
L 323.014678 60.434971 
L 323.177862 60.817171 
L 323.422638 60.817171 
L 323.585822 61.19813 
L 323.667414 61.19813 
L 323.749006 59.851636 
L 323.91219 61.577854 
L 324.075374 60.233543 
L 324.238558 61.577854 
L 324.401742 60.614214 
L 324.646518 60.614214 
L 324.809702 60.993654 
L 325.054478 60.993654 
L 325.217662 60.034065 
L 325.380846 61.371871 
L 325.462438 60.034065 
L 325.54403 60.413217 
L 325.625622 61.74887 
L 325.788806 60.413217 
L 325.870398 60.413217 
L 326.033582 60.791151 
L 326.278358 60.791151 
L 326.35995 59.836507 
L 326.523134 61.167872 
L 326.604726 59.836507 
L 326.76791 61.543385 
L 326.849502 61.543385 
L 327.012686 60.214154 
L 327.094278 61.543385 
L 327.257462 60.590592 
L 327.339054 60.590592 
L 327.420646 61.917696 
L 327.502238 60.590592 
L 327.58383 60.965827 
L 327.665422 60.965827 
L 327.747014 59.640843 
L 327.910198 60.965827 
L 327.99179 61.339866 
L 328.073382 60.016995 
L 328.236566 61.339866 
L 328.318158 60.016995 
L 328.39975 60.391949 
L 328.481342 60.391949 
L 328.562934 61.712713 
L 328.726118 60.391949 
L 328.889302 60.765711 
L 329.134078 60.765711 
L 329.21567 59.821714 
L 329.378854 61.138286 
L 329.460446 59.821714 
L 329.62363 61.50968 
L 329.705222 61.50968 
L 329.868405 60.195195 
L 329.949997 61.50968 
L 330.113181 60.567494 
L 330.194773 60.567494 
L 330.276365 61.879899 
L 330.357957 60.567494 
L 330.439549 60.938616 
L 330.765917 60.938616 
L 330.847509 61.308568 
L 330.929101 60.000303 
L 331.092285 61.308568 
L 331.173877 61.308568 
L 331.337061 60.37115 
L 331.418653 61.677354 
L 331.581837 60.37115 
L 331.745021 60.74083 
L 331.989797 60.74083 
L 332.071389 59.807246 
L 332.234573 61.10935 
L 332.316165 61.10935 
L 332.397757 59.807246 
L 332.479349 60.176652 
L 332.560941 61.476715 
L 332.724125 60.176652 
L 332.887309 61.84293 
L 333.050493 60.544901 
L 333.213677 60.544901 
L 333.376861 60.912 
L 333.621637 60.912 
L 333.703229 61.277953 
L 333.866413 59.983975 
L 334.029597 61.277953 
L 334.192781 60.350804 
L 334.274373 61.642766 
L 334.437557 60.350804 
L 334.600741 60.716491 
L 334.845517 60.716491 
L 335.008701 61.081043 
L 335.171885 61.081043 
L 335.253477 59.793093 
L 335.335069 60.158512 
L 335.498253 61.444465 
L 335.579845 60.158512 
L 335.743029 61.806762 
L 335.906213 60.522799 
L 335.987805 60.522799 
L 336.069397 61.806762 
L 336.232581 60.88596 
L 336.314173 60.88596 
L 336.395765 59.603981 
L 336.558949 61.248 
L 336.640541 61.248 
L 336.722133 59.968 
L 336.885317 61.248 
L 337.048501 60.330897 
L 337.130093 60.330897 
L 337.211685 61.608924 
L 337.293277 60.330897 
L 337.374869 60.692677 
L 337.701237 60.692677 
L 337.782829 61.053346 
L 337.864421 59.779244 
L 338.027605 61.053346 
L 338.109197 59.779244 
L 338.190789 60.140761 
L 338.353973 61.412908 
L 338.517157 60.140761 
L 338.680341 60.50117 
L 338.843525 60.50117 
L 338.925117 61.771369 
L 339.088301 60.860477 
L 339.333077 60.860477 
L 339.496261 61.218687 
L 339.577853 59.952366 
L 339.741037 61.218687 
L 339.822629 61.575805 
L 339.985813 60.311415 
L 340.067405 61.575805 
L 340.148997 60.311415 
L 340.230589 60.66937 
L 340.312181 60.66937 
L 340.393773 61.931836 
L 340.556957 60.66937 
L 340.638549 61.026237 
L 340.720141 59.76569 
L 340.883325 61.026237 
L 340.964917 61.026237 
L 341.046509 60.123387 
L 341.209693 61.382021 
L 341.372877 60.123387 
L 341.454469 60.48 
L 341.536061 61.736727 
L 341.699245 60.48 
L 341.780837 60.48 
L 341.862429 59.580708 
L 342.025613 60.835534 
L 342.188797 60.835534 
L 342.351981 61.189994 
L 342.515165 59.937063 
L 342.678349 61.543385 
L 342.841533 60.292344 
L 342.923125 61.543385 
L 343.004717 60.292344 
L 343.086309 60.646554 
L 343.412677 60.646554 
L 343.575861 60.999699 
L 343.820637 60.999699 
L 343.983821 60.106378 
L 344.147005 61.351784 
L 344.228596 60.106378 
L 344.310188 60.459274 
L 344.39178 61.702813 
L 344.554964 60.459274 
L 344.636556 60.459274 
L 344.79974 60.811114 
L 345.044516 60.811114 
L 345.2077 61.161901 
L 345.289292 61.161901 
L 345.370884 59.922081 
L 345.534068 61.511642 
L 345.697252 60.273672 
L 345.860436 61.511642 
L 346.02362 60.624215 
L 346.268396 60.624215 
L 346.43158 60.973714 
L 346.676356 60.973714 
L 346.83954 60.089724 
L 347.002724 61.322175 
L 347.084316 60.089724 
L 347.165908 60.438979 
L 347.492276 60.438979 
L 347.65546 60.7872 
L 347.900236 60.7872 
L 347.981828 59.907408 
L 348.145012 61.134391 
L 348.226604 59.907408 
L 348.389788 61.480555 
L 348.47138 61.480555 
L 348.634564 60.255386 
L 348.716156 61.480555 
L 348.87934 60.602336 
L 348.960932 60.602336 
L 349.042524 61.825699 
L 349.124116 60.602336 
L 349.205708 60.948265 
L 349.2873 60.948265 
L 349.368892 59.726704 
L 349.532076 60.948265 
L 349.613668 61.293176 
L 349.69526 60.073412 
L 349.858444 61.293176 
L 349.940036 60.073412 
L 350.021628 60.419101 
L 350.10322 60.419101 
L 350.184812 61.637075 
L 350.347996 60.419101 
L 350.51118 60.763777 
L 350.755956 60.763777 
L 350.837548 59.893037 
L 351.000732 61.107444 
L 351.082324 59.893037 
L 351.245508 61.450105 
L 351.3271 61.450105 
L 351.490284 60.237474 
L 351.571876 61.450105 
L 351.73506 60.580905 
L 351.816652 60.580905 
L 351.898244 61.791766 
L 351.979836 60.580905 
L 352.061428 60.923335 
L 352.387796 60.923335 
L 352.469388 61.264769 
L 352.632572 60.057432 
L 352.795756 61.264769 
L 352.95894 60.399628 
L 353.040532 61.605209 
L 353.203716 60.399628 
L 353.3669 60.74083 
L 353.611676 60.74083 
L 353.693268 59.878957 
L 353.856452 61.081043 
L 353.938044 61.081043 
L 354.019636 59.878957 
L 354.101228 60.219925 
L 354.18282 61.420272 
L 354.346004 60.219925 
L 354.509188 61.75852 
L 354.672372 60.559908 
L 354.835556 60.559908 
L 354.99874 60.898909 
L 355.243516 60.898909 
L 355.325108 61.236934 
L 355.488292 60.041775 
L 355.651476 61.236934 
L 355.81466 60.380547 
L 355.977844 61.573986 
L 356.059436 60.380547 
L 356.141028 60.718345 
L 356.467396 60.718345 
L 356.63058 61.055174 
L 356.793764 61.055174 
L 356.875356 59.865159 
L 356.956948 60.202728 
L 357.120132 61.391037 
L 357.201724 60.202728 
L 357.364908 61.72594 
L 357.528092 60.53933 
L 357.609684 60.53933 
L 357.691276 61.72594 
L 357.85446 60.874971 
L 357.936052 60.874971 
L 358.017644 59.690057 
L 358.180828 61.209655 
L 358.26242 61.209655 
L 358.344012 60.026431 
L 358.507196 61.209655 
L 358.670379 60.361846 
L 358.751971 60.361846 
L 358.833563 61.543385 
L 358.915155 60.361846 
L 358.996747 60.696307 
L 359.323115 60.696307 
L 359.404707 61.029818 
L 359.486299 59.851636 
L 359.649483 61.029818 
L 359.731075 59.851636 
L 359.812667 60.185872 
L 359.975851 61.362383 
L 360.139035 60.185872 
L 360.220627 60.519161 
L 360.302219 61.694006 
L 360.465403 60.519161 
L 360.546995 61.694006 
L 360.710179 60.851508 
L 360.954955 60.851508 
L 361.118139 61.182915 
L 361.199731 60.01139 
L 361.362915 61.182915 
L 361.444507 61.513388 
L 361.607691 60.343515 
L 361.689283 61.513388 
L 361.770875 60.343515 
L 361.852467 60.674704 
L 361.934059 60.674704 
L 362.015651 61.84293 
L 362.178835 60.674704 
L 362.260427 61.004962 
L 362.342019 59.83838 
L 362.505203 61.004962 
L 362.586795 61.004962 
L 362.668387 60.169348 
L 362.831571 61.334292 
L 362.994755 60.169348 
L 363.076347 60.499388 
L 363.157939 61.662698 
L 363.321123 60.499388 
L 363.402715 60.499388 
L 363.484307 59.666824 
L 363.647491 60.828504 
L 363.810675 60.828504 
L 363.973859 61.156699 
L 364.137043 59.996643 
L 364.300227 61.483978 
L 364.463411 60.325542 
L 364.626595 61.483978 
L 364.789779 60.653523 
L 365.034555 60.653523 
L 365.197739 60.980591 
L 365.442515 60.980591 
L 365.605699 60.153146 
L 365.768883 61.306748 
L 365.850475 60.153146 
L 365.932067 60.48 
L 366.013659 61.632 
L 366.176843 60.48 
L 366.258435 60.48 
L 366.421619 60.805947 
L 366.666395 60.805947 
L 366.829579 61.130992 
L 366.911171 61.130992 
L 366.992763 59.982183 
L 367.155947 61.455137 
L 367.319131 60.307917 
L 367.482315 61.455137 
L 367.645499 60.632751 
L 367.890275 60.632751 
L 368.053459 60.95669 
L 368.298235 60.95669 
L 368.461419 60.137256 
L 368.624603 61.279736 
L 368.706195 60.137256 
L 368.787787 60.460985 
L 368.869379 60.460985 
L 368.950971 61.601893 
L 369.114155 60.460985 
L 369.277339 60.783824 
L 369.522115 60.783824 
L 369.603707 59.968 
L 369.766891 61.105778 
L 369.848483 59.968 
L 370.011667 61.426849 
L 370.093259 61.426849 
L 370.256443 60.29063 
L 370.338035 61.426849 
L 370.501219 60.612378 
L 370.582811 60.612378 
L 370.664403 61.747042 
L 370.745995 60.612378 
L 370.827587 60.933246 
L 370.909179 60.933246 
L 370.990771 59.800131 
L 371.153955 60.933246 
L 371.235547 61.253239 
L 371.317139 60.12167 
L 371.480323 61.253239 
L 371.561915 60.12167 
L 371.643507 60.442332 
L 371.725099 60.442332 
L 371.806691 61.57236 
L 371.969875 60.442332 
L 372.133059 60.762122 
L 372.377835 60.762122 
L 372.459427 59.954087 
L 372.622611 61.081043 
L 372.704203 59.954087 
L 372.867387 61.399099 
L 372.948979 61.399099 
L 373.112162 60.273672 
L 373.275346 61.716293 
L 373.43853 60.59239 
L 373.520122 61.716293 
L 373.601714 60.59239 
L 373.683306 60.910246 
L 374.009674 60.910246 
L 374.091266 61.227243 
L 374.25445 60.106378 
L 374.417634 61.227243 
L 374.580818 60.424032 
L 374.66241 61.543385 
L 374.825594 60.424032 
L 374.988778 60.74083 
L 375.233554 60.74083 
L 375.315146 59.940436 
L 375.47833 61.056775 
L 375.559922 61.056775 
L 375.641514 59.940436 
L 375.723106 60.257032 
L 375.804698 61.371871 
L 375.967882 60.257032 
L 376.131066 61.686121 
L 376.29425 60.572779 
L 376.457434 60.572779 
L 376.620618 60.887678 
L 376.865394 60.887678 
L 376.946986 61.201735 
L 377.11017 60.091373 
L 377.273354 61.201735 
L 377.436538 60.406075 
L 377.599722 61.514952 
L 377.681314 60.406075 
L 377.762906 60.719936 
L 378.089274 60.719936 
L 378.252458 61.03296 
L 378.415642 61.03296 
L 378.497234 59.92704 
L 378.578826 60.240703 
L 378.74201 61.34515 
L 378.905194 60.240703 
L 379.068378 60.553532 
L 379.231562 60.553532 
L 379.313154 61.656511 
L 379.476338 60.86553 
L 379.55793 60.86553 
L 379.639522 59.764016 
L 379.802706 61.1767 
L 379.884298 61.1767 
L 379.96589 60.076647 
L 380.129074 61.1767 
L 380.292258 60.38845 
L 380.37385 60.38845 
L 380.455442 61.487046 
L 380.537034 60.38845 
L 380.618626 60.699429 
L 380.944994 60.699429 
L 381.026586 61.009585 
L 381.108178 59.913892 
L 381.271362 61.009585 
L 381.352954 59.913892 
L 381.434546 60.224675 
L 381.59773 61.318923 
L 381.760914 60.224675 
L 381.842506 60.53464 
L 381.924098 61.627447 
L 382.087282 60.53464 
L 382.168874 61.627447 
L 382.332058 60.843789 
L 382.576834 60.843789 
L 382.740018 61.152126 
L 382.82161 60.062192 
L 382.984794 61.152126 
L 383.066386 61.459654 
L 383.22957 60.37115 
L 383.311162 61.459654 
L 383.392754 60.37115 
L 383.474346 60.679298 
L 383.555938 60.679298 
L 383.63753 61.766375 
L 383.800714 60.679298 
L 383.882306 60.986639 
L 383.963898 59.900984 
L 384.127082 60.986639 
L 384.208674 60.986639 
L 384.371858 60.208941 
L 384.45345 61.293176 
L 384.616634 60.208941 
L 384.698226 60.516094 
L 384.779818 61.598914 
L 384.943002 60.516094 
L 385.024594 60.516094 
L 385.106186 59.741038 
L 385.26937 60.822446 
L 385.432554 60.822446 
L 385.595738 61.128 
L 385.758922 60.048 
L 385.922106 61.432759 
L 386.08529 60.354164 
L 386.248474 61.432759 
L 386.411658 60.659532 
L 386.656434 60.659532 
L 386.819618 60.964109 
L 387.064394 60.964109 
L 387.227578 60.193492 
L 387.390761 61.267896 
L 387.472353 60.193492 
L 387.553945 60.497884 
L 387.635537 61.570898 
L 387.798721 60.497884 
L 387.880313 60.497884 
L 388.043497 60.801488 
L 388.288273 60.801488 
L 388.451457 61.10431 
L 388.533049 61.10431 
L 388.614641 60.034065 
L 388.777825 61.406351 
L 388.941009 60.337485 
L 389.104193 61.406351 
L 389.267377 60.640124 
L 389.512153 60.640124 
L 389.675337 60.941985 
L 389.756929 59.875866 
L 389.920113 60.941985 
L 390.001705 61.243071 
L 390.083297 60.178321 
L 390.246481 61.243071 
L 390.328073 60.178321 
L 390.409665 60.48 
L 390.491257 60.48 
L 390.572849 61.543385 
L 390.736033 60.48 
L 390.899217 60.780907 
L 391.143993 60.780907 
L 391.225585 60.020379 
L 391.388769 61.081043 
L 391.470361 60.020379 
L 391.633545 61.380414 
L 391.715137 61.380414 
L 391.878321 60.321103 
L 391.959913 61.380414 
L 392.123097 60.621061 
L 392.204689 60.621061 
L 392.286281 61.67902 
L 392.367873 60.621061 
L 392.449465 60.920255 
L 392.531057 60.920255 
L 392.612649 59.863643 
L 392.775833 60.920255 
L 392.857425 61.218687 
L 392.939017 60.16342 
L 393.102201 61.218687 
L 393.183793 60.16342 
L 393.265385 60.462435 
L 393.346977 60.462435 
L 393.428569 61.516361 
L 393.591753 60.462435 
L 393.754937 60.76069 
L 393.999713 60.76069 
L 394.081305 60.006935 
L 394.244489 61.05819 
L 394.407673 61.05819 
L 394.570857 61.354937 
L 394.734041 60.305013 
L 394.897225 61.650933 
L 395.060409 60.602336 
L 395.223593 60.602336 
L 395.386777 60.898909 
L 395.631553 60.898909 
L 395.713145 61.194734 
L 395.876329 60.148782 
L 396.039513 61.194734 
L 396.202697 60.445179 
L 396.284289 61.489814 
L 396.447473 60.445179 
L 396.610657 60.74083 
L 396.855433 60.74083 
L 396.937025 59.993729 
L 397.100209 61.035739 
L 397.181801 61.035739 
L 397.263393 59.993729 
L 397.344985 60.289205 
L 397.426577 61.329907 
L 397.589761 60.289205 
L 397.752945 61.623338 
L 397.916129 60.58394 
L 398.079313 60.58394 
L 398.242497 60.877937 
L 398.487273 60.877937 
L 398.487273 60.877937 
" style="fill:none;stroke:#1f77b4;stroke-linecap:square;stroke-width:1.5;"/>
   </g>
   <g id="patch_3">
    <path d="M 57.6 307.584 
L 57.6 41.472 
" style="fill:none;stroke:#000000;stroke-linecap:square;stroke-linejoin:miter;stroke-width:0.8;"/>
   </g>
   <g id="patch_4">
    <path d="M 414.72 307.584 
L 414.72 41.472 
" style="fill:none;stroke:#000000;stroke-linecap:square;stroke-linejoin:miter;stroke-width:0.8;"/>
   </g>
   <g id="patch_5">
    <path d="M 57.6 307.584 
L 414.72 307.584 
" style="fill:none;stroke:#000000;stroke-linecap:square;stroke-linejoin:miter;stroke-width:0.8;"/>
   </g>
   <g id="patch_6">
    <path d="M 57.6 41.472 
L 414.72 41.472 
" style="fill:none;stroke:#000000;stroke-linecap:square;stroke-linejoin:miter;stroke-width:0.8;"/>
   </g>
   <g id="text_19">
    <!-- Speed function of time -->
    <g transform="translate(167.024063 35.472)scale(0.12 -0.12)">
     <defs>
      <path id="DejaVuSerif-32"/>
      <path d="M 43.015625 63.71875 
L 38.28125 63.71875 
Q 38.234375 67.390625 36.203125 69.28125 
Q 34.1875 71.1875 30.328125 71.1875 
Q 25.296875 71.1875 23.234375 68.421875 
Q 21.1875 65.671875 21.1875 58.59375 
L 21.1875 51.90625 
L 35.6875 51.90625 
L 35.6875 46.6875 
L 21.1875 46.6875 
L 21.1875 5.171875 
L 32.71875 5.171875 
L 32.71875 0 
L 3.609375 0 
L 3.609375 5.171875 
L 12.203125 5.171875 
L 12.203125 46.6875 
L 3.609375 46.6875 
L 3.609375 51.90625 
L 12.203125 51.90625 
L 12.203125 58.40625 
Q 12.203125 67.09375 16.71875 71.53125 
Q 21.234375 75.984375 29.984375 75.984375 
Q 33.25 75.984375 36.515625 75.390625 
Q 39.796875 74.8125 43.015625 73.578125 
z
" id="DejaVuSerif-102"/>
      <path d="M 35.40625 51.90625 
L 52.203125 51.90625 
L 52.203125 5.171875 
L 60.6875 5.171875 
L 60.6875 0 
L 43.21875 0 
L 43.21875 9.1875 
Q 40.71875 4 36.765625 1.28125 
Q 32.8125 -1.421875 27.59375 -1.421875 
Q 18.953125 -1.421875 14.875 3.484375 
Q 10.796875 8.40625 10.796875 18.890625 
L 10.796875 46.6875 
L 2.6875 46.6875 
L 2.6875 51.90625 
L 19.828125 51.90625 
L 19.828125 21.6875 
Q 19.828125 12.203125 22.140625 8.6875 
Q 24.46875 5.171875 30.421875 5.171875 
Q 36.671875 5.171875 39.9375 9.765625 
Q 43.21875 14.359375 43.21875 23.09375 
L 43.21875 46.6875 
L 35.40625 46.6875 
z
" id="DejaVuSerif-117"/>
      <path d="M 4.109375 0 
L 4.109375 5.171875 
L 12.203125 5.171875 
L 12.203125 46.6875 
L 3.609375 46.6875 
L 3.609375 51.90625 
L 21.1875 51.90625 
L 21.1875 42.671875 
Q 23.6875 47.953125 27.65625 50.640625 
Q 31.640625 53.328125 36.921875 53.328125 
Q 45.515625 53.328125 49.5625 48.390625 
Q 53.609375 43.453125 53.609375 33.015625 
L 53.609375 5.171875 
L 61.625 5.171875 
L 61.625 0 
L 36.8125 0 
L 36.8125 5.171875 
L 44.578125 5.171875 
L 44.578125 30.171875 
Q 44.578125 39.703125 42.234375 43.234375 
Q 39.890625 46.78125 33.984375 46.78125 
Q 27.734375 46.78125 24.453125 42.203125 
Q 21.1875 37.640625 21.1875 28.90625 
L 21.1875 5.171875 
L 29 5.171875 
L 29 0 
z
" id="DejaVuSerif-110"/>
      <path d="M 51.421875 15.578125 
Q 49.515625 7.28125 44.09375 2.921875 
Q 38.671875 -1.421875 30.078125 -1.421875 
Q 18.75 -1.421875 11.859375 6.078125 
Q 4.984375 13.578125 4.984375 25.984375 
Q 4.984375 38.421875 11.859375 45.875 
Q 18.75 53.328125 30.078125 53.328125 
Q 35.015625 53.328125 39.890625 52.171875 
Q 44.78125 51.03125 49.703125 48.6875 
L 49.703125 35.40625 
L 44.484375 35.40625 
Q 43.453125 42.234375 40.015625 45.359375 
Q 36.578125 48.484375 30.171875 48.484375 
Q 22.90625 48.484375 19.1875 42.84375 
Q 15.484375 37.203125 15.484375 25.984375 
Q 15.484375 14.75 19.171875 9.078125 
Q 22.859375 3.421875 30.171875 3.421875 
Q 35.984375 3.421875 39.453125 6.4375 
Q 42.921875 9.46875 44.1875 15.578125 
z
" id="DejaVuSerif-99"/>
      <path d="M 10.796875 46.6875 
L 2.875 46.6875 
L 2.875 51.90625 
L 10.796875 51.90625 
L 10.796875 68.015625 
L 19.828125 68.015625 
L 19.828125 51.90625 
L 36.71875 51.90625 
L 36.71875 46.6875 
L 19.828125 46.6875 
L 19.828125 13.71875 
Q 19.828125 7.125 21.09375 5.265625 
Q 22.359375 3.421875 25.78125 3.421875 
Q 29.296875 3.421875 30.90625 5.484375 
Q 32.515625 7.5625 32.625 12.203125 
L 39.40625 12.203125 
Q 39.015625 5.125 35.546875 1.84375 
Q 32.078125 -1.421875 25 -1.421875 
Q 17.234375 -1.421875 14.015625 2.015625 
Q 10.796875 5.46875 10.796875 13.71875 
z
" id="DejaVuSerif-116"/>
      <path d="M 30.078125 3.421875 
Q 37.3125 3.421875 40.984375 9.125 
Q 44.671875 14.84375 44.671875 25.984375 
Q 44.671875 37.109375 40.984375 42.796875 
Q 37.3125 48.484375 30.078125 48.484375 
Q 22.859375 48.484375 19.171875 42.796875 
Q 15.484375 37.109375 15.484375 25.984375 
Q 15.484375 14.84375 19.1875 9.125 
Q 22.90625 3.421875 30.078125 3.421875 
z
M 30.078125 -1.421875 
Q 18.75 -1.421875 11.859375 6.078125 
Q 4.984375 13.578125 4.984375 25.984375 
Q 4.984375 38.375 11.84375 45.84375 
Q 18.703125 53.328125 30.078125 53.328125 
Q 41.453125 53.328125 48.3125 45.84375 
Q 55.171875 38.375 55.171875 25.984375 
Q 55.171875 13.578125 48.3125 6.078125 
Q 41.453125 -1.421875 30.078125 -1.421875 
z
" id="DejaVuSerif-111"/>
     </defs>
     <use xlink:href="#DejaVuSerif-83"/>
     <use x="68.505859" xlink:href="#DejaVuSerif-112"/>
     <use x="132.519531" xlink:href="#DejaVuSerif-101"/>
     <use x="191.699219" xlink:href="#DejaVuSerif-101"/>
     <use x="250.878906" xlink:href="#DejaVuSerif-100"/>
     <use x="314.892578" xlink:href="#DejaVuSerif-32"/>
     <use x="346.679688" xlink:href="#DejaVuSerif-102"/>
     <use x="383.691406" xlink:href="#DejaVuSerif-117"/>
     <use x="448.095703" xlink:href="#DejaVuSerif-110"/>
     <use x="512.5" xlink:href="#DejaVuSerif-99"/>
     <use x="568.505859" xlink:href="#DejaVuSerif-116"/>
     <use x="608.691406" xlink:href="#DejaVuSerif-105"/>
     <use x="640.673828" xlink:href="#DejaVuSerif-111"/>
     <use x="700.878906" xlink:href="#DejaVuSerif-110"/>
     <use x="765.283203" xlink:href="#DejaVuSerif-32"/>
     <use x="797.070312" xlink:href="#DejaVuSerif-111"/>
     <use x="857.275391" xlink:href="#DejaVuSerif-102"/>
     <use x="894.287109" xlink:href="#DejaVuSerif-32"/>
     <use x="926.074219" xlink:href="#DejaVuSerif-116"/>
     <use x="966.259766" xlink:href="#DejaVuSerif-105"/>
     <use x="998.242188" xlink:href="#DejaVuSerif-109"/>
     <use x="1093.066406" xlink:href="#DejaVuSerif-101"/>
    </g>
   </g>
  </g>
 </g>
 <defs>
  <clipPath id="p23425b5f08">
   <rect height="266.112" width="357.12" x="57.6" y="41.472"/>
  </clipPath>
 </defs>
</svg>
