<?xml version="1.0" encoding="utf-8" standalone="no"?>
<!DOCTYPE svg PUBLIC "-//W3C//DTD SVG 1.1//EN"
  "http://www.w3.org/Graphics/SVG/1.1/DTD/svg11.dtd">
<!-- Created with matplotlib (https://matplotlib.org/) -->
<svg height="345.6pt" version="1.1" viewBox="0 0 460.8 345.6" width="460.8pt" xmlns="http://www.w3.org/2000/svg" xmlns:xlink="http://www.w3.org/1999/xlink">
 <metadata>
  <rdf:RDF xmlns:cc="http://creativecommons.org/ns#" xmlns:dc="http://purl.org/dc/elements/1.1/" xmlns:rdf="http://www.w3.org/1999/02/22-rdf-syntax-ns#">
   <cc:Work>
    <dc:type rdf:resource="http://purl.org/dc/dcmitype/StillImage"/>
    <dc:date>2023-03-20T14:26:49.811222</dc:date>
    <dc:format>image/svg+xml</dc:format>
    <dc:creator>
     <cc:Agent>
      <dc:title>Matplotlib v3.3.4, https://matplotlib.org/</dc:title>
     </cc:Agent>
    </dc:creator>
   </cc:Work>
  </rdf:RDF>
 </metadata>
 <defs>
  <style type="text/css">*{stroke-linecap:butt;stroke-linejoin:round;}</style>
 </defs>
 <g id="figure_1">
  <g id="patch_1">
   <path d="M 0 345.6 
L 460.8 345.6 
L 460.8 0 
L 0 0 
z
" style="fill:#ffffff;"/>
  </g>
  <g id="axes_1">
   <g id="patch_2">
    <path d="M 57.6 307.584 
L 414.72 307.584 
L 414.72 41.472 
L 57.6 41.472 
z
" style="fill:#ffffff;"/>
   </g>
   <g id="matplotlib.axis_1">
    <g id="xtick_1">
     <g id="line2d_1">
      <defs>
       <path d="M 0 0 
L 0 3.5 
" id="mbcbd493db7" style="stroke:#000000;stroke-width:0.8;"/>
      </defs>
      <g>
       <use style="stroke:#000000;stroke-width:0.8;" x="70.916619" xlink:href="#mbcbd493db7" y="307.584"/>
      </g>
     </g>
     <g id="text_1">
      <!-- 0 -->
      <g transform="translate(67.735369 322.182437)scale(0.1 -0.1)">
       <defs>
        <path d="M 31.78125 3.421875 
Q 39.265625 3.421875 42.96875 11.625 
Q 46.6875 19.828125 46.6875 36.375 
Q 46.6875 52.984375 42.96875 61.1875 
Q 39.265625 69.390625 31.78125 69.390625 
Q 24.3125 69.390625 20.59375 61.1875 
Q 16.890625 52.984375 16.890625 36.375 
Q 16.890625 19.828125 20.59375 11.625 
Q 24.3125 3.421875 31.78125 3.421875 
z
M 31.78125 -1.421875 
Q 19.921875 -1.421875 13.25 8.53125 
Q 6.59375 18.5 6.59375 36.375 
Q 6.59375 54.296875 13.25 64.25 
Q 19.921875 74.21875 31.78125 74.21875 
Q 43.703125 74.21875 50.34375 64.25 
Q 56.984375 54.296875 56.984375 36.375 
Q 56.984375 18.5 50.34375 8.53125 
Q 43.703125 -1.421875 31.78125 -1.421875 
z
" id="DejaVuSerif-48"/>
       </defs>
       <use xlink:href="#DejaVuSerif-48"/>
      </g>
     </g>
    </g>
    <g id="xtick_2">
     <g id="line2d_2">
      <g>
       <use style="stroke:#000000;stroke-width:0.8;" x="112.575314" xlink:href="#mbcbd493db7" y="307.584"/>
      </g>
     </g>
     <g id="text_2">
      <!-- 25 -->
      <g transform="translate(106.212814 322.182437)scale(0.1 -0.1)">
       <defs>
        <path d="M 12.796875 55.515625 
L 7.328125 55.515625 
L 7.328125 68.5 
Q 12.546875 71.296875 17.84375 72.75 
Q 23.140625 74.21875 28.21875 74.21875 
Q 39.59375 74.21875 46.1875 68.703125 
Q 52.78125 63.1875 52.78125 53.71875 
Q 52.78125 43.015625 37.84375 28.125 
Q 36.671875 27 36.078125 26.421875 
L 17.671875 8.015625 
L 48.09375 8.015625 
L 48.09375 17 
L 53.8125 17 
L 53.8125 0 
L 6.78125 0 
L 6.78125 5.328125 
L 28.90625 27.390625 
Q 36.234375 34.71875 39.359375 40.84375 
Q 42.484375 46.96875 42.484375 53.71875 
Q 42.484375 61.078125 38.640625 65.234375 
Q 34.8125 69.390625 28.078125 69.390625 
Q 21.09375 69.390625 17.28125 65.921875 
Q 13.484375 62.453125 12.796875 55.515625 
z
" id="DejaVuSerif-50"/>
        <path d="M 50.296875 72.90625 
L 50.296875 64.890625 
L 16.890625 64.890625 
L 16.890625 44 
Q 19.4375 45.75 22.828125 46.625 
Q 26.21875 47.515625 30.421875 47.515625 
Q 42.234375 47.515625 49.0625 40.96875 
Q 55.90625 34.421875 55.90625 23.09375 
Q 55.90625 11.53125 49 5.046875 
Q 42.09375 -1.421875 29.59375 -1.421875 
Q 24.5625 -1.421875 19.28125 -0.1875 
Q 14.015625 1.03125 8.5 3.515625 
L 8.5 17.671875 
L 14.015625 17.671875 
Q 14.453125 10.75 18.421875 7.078125 
Q 22.40625 3.421875 29.59375 3.421875 
Q 37.3125 3.421875 41.453125 8.5 
Q 45.609375 13.578125 45.609375 23.09375 
Q 45.609375 32.5625 41.484375 37.609375 
Q 37.359375 42.671875 29.59375 42.671875 
Q 25.203125 42.671875 21.84375 41.109375 
Q 18.5 39.546875 15.921875 36.28125 
L 11.71875 36.28125 
L 11.71875 72.90625 
z
" id="DejaVuSerif-53"/>
       </defs>
       <use xlink:href="#DejaVuSerif-50"/>
       <use x="63.623047" xlink:href="#DejaVuSerif-53"/>
      </g>
     </g>
    </g>
    <g id="xtick_3">
     <g id="line2d_3">
      <g>
       <use style="stroke:#000000;stroke-width:0.8;" x="154.23401" xlink:href="#mbcbd493db7" y="307.584"/>
      </g>
     </g>
     <g id="text_3">
      <!-- 50 -->
      <g transform="translate(147.87151 322.182437)scale(0.1 -0.1)">
       <use xlink:href="#DejaVuSerif-53"/>
       <use x="63.623047" xlink:href="#DejaVuSerif-48"/>
      </g>
     </g>
    </g>
    <g id="xtick_4">
     <g id="line2d_4">
      <g>
       <use style="stroke:#000000;stroke-width:0.8;" x="195.892705" xlink:href="#mbcbd493db7" y="307.584"/>
      </g>
     </g>
     <g id="text_4">
      <!-- 75 -->
      <g transform="translate(189.530205 322.182437)scale(0.1 -0.1)">
       <defs>
        <path d="M 56.390625 67.921875 
L 27.875 0 
L 20.609375 0 
L 47.796875 64.890625 
L 14.109375 64.890625 
L 14.109375 55.90625 
L 8.40625 55.90625 
L 8.40625 72.90625 
L 56.390625 72.90625 
z
" id="DejaVuSerif-55"/>
       </defs>
       <use xlink:href="#DejaVuSerif-55"/>
       <use x="63.623047" xlink:href="#DejaVuSerif-53"/>
      </g>
     </g>
    </g>
    <g id="xtick_5">
     <g id="line2d_5">
      <g>
       <use style="stroke:#000000;stroke-width:0.8;" x="237.5514" xlink:href="#mbcbd493db7" y="307.584"/>
      </g>
     </g>
     <g id="text_5">
      <!-- 100 -->
      <g transform="translate(228.00765 322.182437)scale(0.1 -0.1)">
       <defs>
        <path d="M 14.203125 0 
L 14.203125 5.171875 
L 26.90625 5.171875 
L 26.90625 65.828125 
L 12.203125 56.296875 
L 12.203125 62.703125 
L 29.984375 74.21875 
L 36.71875 74.21875 
L 36.71875 5.171875 
L 49.421875 5.171875 
L 49.421875 0 
z
" id="DejaVuSerif-49"/>
       </defs>
       <use xlink:href="#DejaVuSerif-49"/>
       <use x="63.623047" xlink:href="#DejaVuSerif-48"/>
       <use x="127.246094" xlink:href="#DejaVuSerif-48"/>
      </g>
     </g>
    </g>
    <g id="xtick_6">
     <g id="line2d_6">
      <g>
       <use style="stroke:#000000;stroke-width:0.8;" x="279.210096" xlink:href="#mbcbd493db7" y="307.584"/>
      </g>
     </g>
     <g id="text_6">
      <!-- 125 -->
      <g transform="translate(269.666346 322.182437)scale(0.1 -0.1)">
       <use xlink:href="#DejaVuSerif-49"/>
       <use x="63.623047" xlink:href="#DejaVuSerif-50"/>
       <use x="127.246094" xlink:href="#DejaVuSerif-53"/>
      </g>
     </g>
    </g>
    <g id="xtick_7">
     <g id="line2d_7">
      <g>
       <use style="stroke:#000000;stroke-width:0.8;" x="320.868791" xlink:href="#mbcbd493db7" y="307.584"/>
      </g>
     </g>
     <g id="text_7">
      <!-- 150 -->
      <g transform="translate(311.325041 322.182437)scale(0.1 -0.1)">
       <use xlink:href="#DejaVuSerif-49"/>
       <use x="63.623047" xlink:href="#DejaVuSerif-53"/>
       <use x="127.246094" xlink:href="#DejaVuSerif-48"/>
      </g>
     </g>
    </g>
    <g id="xtick_8">
     <g id="line2d_8">
      <g>
       <use style="stroke:#000000;stroke-width:0.8;" x="362.527487" xlink:href="#mbcbd493db7" y="307.584"/>
      </g>
     </g>
     <g id="text_8">
      <!-- 175 -->
      <g transform="translate(352.983737 322.182437)scale(0.1 -0.1)">
       <use xlink:href="#DejaVuSerif-49"/>
       <use x="63.623047" xlink:href="#DejaVuSerif-55"/>
       <use x="127.246094" xlink:href="#DejaVuSerif-53"/>
      </g>
     </g>
    </g>
    <g id="xtick_9">
     <g id="line2d_9">
      <g>
       <use style="stroke:#000000;stroke-width:0.8;" x="404.186182" xlink:href="#mbcbd493db7" y="307.584"/>
      </g>
     </g>
     <g id="text_9">
      <!-- 200 -->
      <g transform="translate(394.642432 322.182437)scale(0.1 -0.1)">
       <use xlink:href="#DejaVuSerif-50"/>
       <use x="63.623047" xlink:href="#DejaVuSerif-48"/>
       <use x="127.246094" xlink:href="#DejaVuSerif-48"/>
      </g>
     </g>
    </g>
    <g id="text_10">
     <!-- Time -->
     <g transform="translate(223.524844 335.860562)scale(0.1 -0.1)">
      <defs>
       <path d="M 19.09375 0 
L 19.09375 5.171875 
L 28.421875 5.171875 
L 28.421875 67.09375 
L 6.984375 67.09375 
L 6.984375 55.71875 
L 0.984375 55.71875 
L 0.984375 72.90625 
L 65.71875 72.90625 
L 65.71875 55.71875 
L 59.71875 55.71875 
L 59.71875 67.09375 
L 38.28125 67.09375 
L 38.28125 5.171875 
L 47.609375 5.171875 
L 47.609375 0 
z
" id="DejaVuSerif-84"/>
       <path d="M 9.71875 68.015625 
Q 9.71875 70.265625 11.34375 71.921875 
Q 12.984375 73.578125 15.28125 73.578125 
Q 17.53125 73.578125 19.15625 71.921875 
Q 20.796875 70.265625 20.796875 68.015625 
Q 20.796875 65.71875 19.1875 64.109375 
Q 17.578125 62.5 15.28125 62.5 
Q 12.984375 62.5 11.34375 64.109375 
Q 9.71875 65.71875 9.71875 68.015625 
z
M 21.1875 5.171875 
L 29.6875 5.171875 
L 29.6875 0 
L 3.609375 0 
L 3.609375 5.171875 
L 12.203125 5.171875 
L 12.203125 46.6875 
L 3.609375 46.6875 
L 3.609375 51.90625 
L 21.1875 51.90625 
z
" id="DejaVuSerif-105"/>
       <path d="M 51.8125 41.796875 
Q 54.390625 47.515625 58.421875 50.421875 
Q 62.453125 53.328125 67.828125 53.328125 
Q 75.984375 53.328125 79.984375 48.265625 
Q 83.984375 43.21875 83.984375 33.015625 
L 83.984375 5.171875 
L 92.09375 5.171875 
L 92.09375 0 
L 67.1875 0 
L 67.1875 5.171875 
L 75 5.171875 
L 75 31.984375 
Q 75 39.9375 72.65625 43.3125 
Q 70.3125 46.6875 64.890625 46.6875 
Q 58.890625 46.6875 55.734375 42.140625 
Q 52.59375 37.59375 52.59375 28.90625 
L 52.59375 5.171875 
L 60.40625 5.171875 
L 60.40625 0 
L 35.796875 0 
L 35.796875 5.171875 
L 43.609375 5.171875 
L 43.609375 32.328125 
Q 43.609375 40.09375 41.265625 43.390625 
Q 38.921875 46.6875 33.5 46.6875 
Q 27.484375 46.6875 24.328125 42.140625 
Q 21.1875 37.59375 21.1875 28.90625 
L 21.1875 5.171875 
L 29 5.171875 
L 29 0 
L 4.109375 0 
L 4.109375 5.171875 
L 12.203125 5.171875 
L 12.203125 46.78125 
L 3.609375 46.78125 
L 3.609375 51.90625 
L 21.1875 51.90625 
L 21.1875 42.671875 
Q 23.6875 47.859375 27.53125 50.59375 
Q 31.390625 53.328125 36.28125 53.328125 
Q 42.328125 53.328125 46.375 50.3125 
Q 50.4375 47.3125 51.8125 41.796875 
z
" id="DejaVuSerif-109"/>
       <path d="M 54.203125 25 
L 15.484375 25 
L 15.484375 24.609375 
Q 15.484375 14.109375 19.4375 8.765625 
Q 23.390625 3.421875 31.109375 3.421875 
Q 37.015625 3.421875 40.796875 6.515625 
Q 44.578125 9.625 46.09375 15.71875 
L 53.328125 15.71875 
Q 51.171875 7.171875 45.375 2.875 
Q 39.59375 -1.421875 30.171875 -1.421875 
Q 18.796875 -1.421875 11.890625 6.078125 
Q 4.984375 13.578125 4.984375 25.984375 
Q 4.984375 38.28125 11.765625 45.796875 
Q 18.5625 53.328125 29.59375 53.328125 
Q 41.359375 53.328125 47.65625 46.0625 
Q 53.953125 38.8125 54.203125 25 
z
M 43.609375 30.171875 
Q 43.3125 39.265625 39.765625 43.875 
Q 36.234375 48.484375 29.59375 48.484375 
Q 23.390625 48.484375 19.828125 43.84375 
Q 16.265625 39.203125 15.484375 30.171875 
z
" id="DejaVuSerif-101"/>
      </defs>
      <use xlink:href="#DejaVuSerif-84"/>
      <use x="66.699219" xlink:href="#DejaVuSerif-105"/>
      <use x="98.681641" xlink:href="#DejaVuSerif-109"/>
      <use x="193.505859" xlink:href="#DejaVuSerif-101"/>
     </g>
    </g>
   </g>
   <g id="matplotlib.axis_2">
    <g id="ytick_1">
     <g id="line2d_10">
      <defs>
       <path d="M 0 0 
L -3.5 0 
" id="macb997e110" style="stroke:#000000;stroke-width:0.8;"/>
      </defs>
      <g>
       <use style="stroke:#000000;stroke-width:0.8;" x="57.6" xlink:href="#macb997e110" y="295.488"/>
      </g>
     </g>
     <g id="text_11">
      <!-- 4.00 -->
      <g transform="translate(28.334375 299.287219)scale(0.1 -0.1)">
       <defs>
        <path d="M 34.90625 24.703125 
L 34.90625 63.484375 
L 10.015625 24.703125 
z
M 56.390625 0 
L 23.1875 0 
L 23.1875 5.171875 
L 34.90625 5.171875 
L 34.90625 19.484375 
L 3.078125 19.484375 
L 3.078125 24.8125 
L 35.015625 74.21875 
L 44.671875 74.21875 
L 44.671875 24.703125 
L 58.59375 24.703125 
L 58.59375 19.484375 
L 44.671875 19.484375 
L 44.671875 5.171875 
L 56.390625 5.171875 
z
" id="DejaVuSerif-52"/>
        <path d="M 9.421875 5.078125 
Q 9.421875 7.8125 11.28125 9.71875 
Q 13.140625 11.625 15.921875 11.625 
Q 18.609375 11.625 20.5 9.71875 
Q 22.40625 7.8125 22.40625 5.078125 
Q 22.40625 2.390625 20.5 0.484375 
Q 18.609375 -1.421875 15.921875 -1.421875 
Q 13.140625 -1.421875 11.28125 0.453125 
Q 9.421875 2.34375 9.421875 5.078125 
z
" id="DejaVuSerif-46"/>
       </defs>
       <use xlink:href="#DejaVuSerif-52"/>
       <use x="63.623047" xlink:href="#DejaVuSerif-46"/>
       <use x="95.410156" xlink:href="#DejaVuSerif-48"/>
       <use x="159.033203" xlink:href="#DejaVuSerif-48"/>
      </g>
     </g>
    </g>
    <g id="ytick_2">
     <g id="line2d_11">
      <g>
       <use style="stroke:#000000;stroke-width:0.8;" x="57.6" xlink:href="#macb997e110" y="265.248"/>
      </g>
     </g>
     <g id="text_12">
      <!-- 4.25 -->
      <g transform="translate(28.334375 269.047219)scale(0.1 -0.1)">
       <use xlink:href="#DejaVuSerif-52"/>
       <use x="63.623047" xlink:href="#DejaVuSerif-46"/>
       <use x="95.410156" xlink:href="#DejaVuSerif-50"/>
       <use x="159.033203" xlink:href="#DejaVuSerif-53"/>
      </g>
     </g>
    </g>
    <g id="ytick_3">
     <g id="line2d_12">
      <g>
       <use style="stroke:#000000;stroke-width:0.8;" x="57.6" xlink:href="#macb997e110" y="235.008"/>
      </g>
     </g>
     <g id="text_13">
      <!-- 4.50 -->
      <g transform="translate(28.334375 238.807219)scale(0.1 -0.1)">
       <use xlink:href="#DejaVuSerif-52"/>
       <use x="63.623047" xlink:href="#DejaVuSerif-46"/>
       <use x="95.410156" xlink:href="#DejaVuSerif-53"/>
       <use x="159.033203" xlink:href="#DejaVuSerif-48"/>
      </g>
     </g>
    </g>
    <g id="ytick_4">
     <g id="line2d_13">
      <g>
       <use style="stroke:#000000;stroke-width:0.8;" x="57.6" xlink:href="#macb997e110" y="204.768"/>
      </g>
     </g>
     <g id="text_14">
      <!-- 4.75 -->
      <g transform="translate(28.334375 208.567219)scale(0.1 -0.1)">
       <use xlink:href="#DejaVuSerif-52"/>
       <use x="63.623047" xlink:href="#DejaVuSerif-46"/>
       <use x="95.410156" xlink:href="#DejaVuSerif-55"/>
       <use x="159.033203" xlink:href="#DejaVuSerif-53"/>
      </g>
     </g>
    </g>
    <g id="ytick_5">
     <g id="line2d_14">
      <g>
       <use style="stroke:#000000;stroke-width:0.8;" x="57.6" xlink:href="#macb997e110" y="174.528"/>
      </g>
     </g>
     <g id="text_15">
      <!-- 5.00 -->
      <g transform="translate(28.334375 178.327219)scale(0.1 -0.1)">
       <use xlink:href="#DejaVuSerif-53"/>
       <use x="63.623047" xlink:href="#DejaVuSerif-46"/>
       <use x="95.410156" xlink:href="#DejaVuSerif-48"/>
       <use x="159.033203" xlink:href="#DejaVuSerif-48"/>
      </g>
     </g>
    </g>
    <g id="ytick_6">
     <g id="line2d_15">
      <g>
       <use style="stroke:#000000;stroke-width:0.8;" x="57.6" xlink:href="#macb997e110" y="144.288"/>
      </g>
     </g>
     <g id="text_16">
      <!-- 5.25 -->
      <g transform="translate(28.334375 148.087219)scale(0.1 -0.1)">
       <use xlink:href="#DejaVuSerif-53"/>
       <use x="63.623047" xlink:href="#DejaVuSerif-46"/>
       <use x="95.410156" xlink:href="#DejaVuSerif-50"/>
       <use x="159.033203" xlink:href="#DejaVuSerif-53"/>
      </g>
     </g>
    </g>
    <g id="ytick_7">
     <g id="line2d_16">
      <g>
       <use style="stroke:#000000;stroke-width:0.8;" x="57.6" xlink:href="#macb997e110" y="114.048"/>
      </g>
     </g>
     <g id="text_17">
      <!-- 5.50 -->
      <g transform="translate(28.334375 117.847219)scale(0.1 -0.1)">
       <use xlink:href="#DejaVuSerif-53"/>
       <use x="63.623047" xlink:href="#DejaVuSerif-46"/>
       <use x="95.410156" xlink:href="#DejaVuSerif-53"/>
       <use x="159.033203" xlink:href="#DejaVuSerif-48"/>
      </g>
     </g>
    </g>
    <g id="ytick_8">
     <g id="line2d_17">
      <g>
       <use style="stroke:#000000;stroke-width:0.8;" x="57.6" xlink:href="#macb997e110" y="83.808"/>
      </g>
     </g>
     <g id="text_18">
      <!-- 5.75 -->
      <g transform="translate(28.334375 87.607219)scale(0.1 -0.1)">
       <use xlink:href="#DejaVuSerif-53"/>
       <use x="63.623047" xlink:href="#DejaVuSerif-46"/>
       <use x="95.410156" xlink:href="#DejaVuSerif-55"/>
       <use x="159.033203" xlink:href="#DejaVuSerif-53"/>
      </g>
     </g>
    </g>
    <g id="ytick_9">
     <g id="line2d_18">
      <g>
       <use style="stroke:#000000;stroke-width:0.8;" x="57.6" xlink:href="#macb997e110" y="53.568"/>
      </g>
     </g>
     <g id="text_19">
      <!-- 6.00 -->
      <g transform="translate(28.334375 57.367219)scale(0.1 -0.1)">
       <defs>
        <path d="M 32.71875 3.421875 
Q 39.59375 3.421875 43.296875 8.46875 
Q 47.015625 13.53125 47.015625 23 
Q 47.015625 32.46875 43.296875 37.515625 
Q 39.59375 42.578125 32.71875 42.578125 
Q 25.734375 42.578125 22.0625 37.6875 
Q 18.40625 32.8125 18.40625 23.578125 
Q 18.40625 13.875 22.109375 8.640625 
Q 25.828125 3.421875 32.71875 3.421875 
z
M 16.796875 40.140625 
Q 20.125 43.796875 24.3125 45.59375 
Q 28.515625 47.40625 33.796875 47.40625 
Q 44.671875 47.40625 51 40.859375 
Q 57.328125 34.328125 57.328125 23 
Q 57.328125 11.921875 50.515625 5.25 
Q 43.703125 -1.421875 32.328125 -1.421875 
Q 19.96875 -1.421875 13.328125 7.78125 
Q 6.6875 17 6.6875 34.078125 
Q 6.6875 53.21875 14.546875 63.71875 
Q 22.40625 74.21875 36.71875 74.21875 
Q 40.578125 74.21875 44.828125 73.484375 
Q 49.078125 72.75 53.515625 71.296875 
L 53.515625 59.28125 
L 48 59.28125 
Q 47.40625 64.203125 44.234375 66.796875 
Q 41.0625 69.390625 35.6875 69.390625 
Q 26.21875 69.390625 21.578125 62.203125 
Q 16.9375 55.03125 16.796875 40.140625 
z
" id="DejaVuSerif-54"/>
       </defs>
       <use xlink:href="#DejaVuSerif-54"/>
       <use x="63.623047" xlink:href="#DejaVuSerif-46"/>
       <use x="95.410156" xlink:href="#DejaVuSerif-48"/>
       <use x="159.033203" xlink:href="#DejaVuSerif-48"/>
      </g>
     </g>
    </g>
    <g id="text_20">
     <!-- Speed -->
     <g transform="translate(22.254687 190.273313)rotate(-90)scale(0.1 -0.1)">
      <defs>
       <path d="M 9.28125 3.515625 
L 9.28125 20.125 
L 14.890625 20.0625 
Q 15.140625 11.765625 19.703125 7.78125 
Q 24.265625 3.8125 33.59375 3.8125 
Q 42.28125 3.8125 46.84375 7.25 
Q 51.421875 10.6875 51.421875 17.28125 
Q 51.421875 22.5625 48.65625 25.390625 
Q 45.90625 28.21875 37.015625 30.90625 
L 27.390625 33.796875 
Q 16.9375 36.96875 12.671875 41.703125 
Q 8.40625 46.4375 8.40625 54.6875 
Q 8.40625 63.96875 14.984375 69.09375 
Q 21.578125 74.21875 33.5 74.21875 
Q 38.578125 74.21875 44.625 73.109375 
Q 50.6875 72.015625 57.515625 69.921875 
L 57.515625 54.390625 
L 52 54.390625 
Q 51.171875 62.109375 46.84375 65.546875 
Q 42.53125 69 33.6875 69 
Q 25.984375 69 21.953125 65.84375 
Q 17.921875 62.703125 17.921875 56.6875 
Q 17.921875 51.46875 20.9375 48.484375 
Q 23.96875 45.515625 33.796875 42.578125 
L 42.828125 39.890625 
Q 52.734375 36.921875 56.953125 32.296875 
Q 61.1875 27.6875 61.1875 19.921875 
Q 61.1875 9.328125 54.390625 3.953125 
Q 47.609375 -1.421875 34.1875 -1.421875 
Q 28.171875 -1.421875 21.9375 -0.1875 
Q 15.71875 1.03125 9.28125 3.515625 
z
" id="DejaVuSerif-83"/>
       <path d="M 20.515625 28.515625 
L 20.515625 23.390625 
Q 20.515625 14.015625 24.09375 9.109375 
Q 27.6875 4.203125 34.515625 4.203125 
Q 41.40625 4.203125 44.9375 9.71875 
Q 48.484375 15.234375 48.484375 25.984375 
Q 48.484375 36.765625 44.9375 42.234375 
Q 41.40625 47.703125 34.515625 47.703125 
Q 27.6875 47.703125 24.09375 42.765625 
Q 20.515625 37.84375 20.515625 28.515625 
z
M 11.53125 46.6875 
L 2.875 46.6875 
L 2.875 51.90625 
L 20.515625 51.90625 
L 20.515625 43.796875 
Q 23.140625 48.6875 27.21875 51 
Q 31.296875 53.328125 37.3125 53.328125 
Q 46.875 53.328125 52.921875 45.75 
Q 58.984375 38.1875 58.984375 25.984375 
Q 58.984375 13.765625 52.921875 6.171875 
Q 46.875 -1.421875 37.3125 -1.421875 
Q 31.296875 -1.421875 27.21875 0.890625 
Q 23.140625 3.21875 20.515625 8.109375 
L 20.515625 -15.578125 
L 29 -15.578125 
L 29 -20.796875 
L 2.875 -20.796875 
L 2.875 -15.578125 
L 11.53125 -15.578125 
z
" id="DejaVuSerif-112"/>
       <path d="M 52.484375 5.171875 
L 61.078125 5.171875 
L 61.078125 0 
L 43.5 0 
L 43.5 8.109375 
Q 40.875 3.21875 36.796875 0.890625 
Q 32.71875 -1.421875 26.703125 -1.421875 
Q 17.140625 -1.421875 11.0625 6.171875 
Q 4.984375 13.765625 4.984375 25.984375 
Q 4.984375 38.1875 11.03125 45.75 
Q 17.09375 53.328125 26.703125 53.328125 
Q 32.71875 53.328125 36.796875 51 
Q 40.875 48.6875 43.5 43.796875 
L 43.5 70.796875 
L 35.015625 70.796875 
L 35.015625 75.984375 
L 52.484375 75.984375 
z
M 43.5 23.390625 
L 43.5 28.515625 
Q 43.5 37.84375 39.90625 42.765625 
Q 36.328125 47.703125 29.5 47.703125 
Q 22.5625 47.703125 19.015625 42.234375 
Q 15.484375 36.765625 15.484375 25.984375 
Q 15.484375 15.234375 19.015625 9.71875 
Q 22.5625 4.203125 29.5 4.203125 
Q 36.328125 4.203125 39.90625 9.109375 
Q 43.5 14.015625 43.5 23.390625 
z
" id="DejaVuSerif-100"/>
      </defs>
      <use xlink:href="#DejaVuSerif-83"/>
      <use x="68.505859" xlink:href="#DejaVuSerif-112"/>
      <use x="132.519531" xlink:href="#DejaVuSerif-101"/>
      <use x="191.699219" xlink:href="#DejaVuSerif-101"/>
      <use x="250.878906" xlink:href="#DejaVuSerif-100"/>
     </g>
    </g>
   </g>
   <g id="line2d_19">
    <path clip-path="url(#p9076718280)" d="M 73.832727 235.008 
L 74.249314 235.008 
L 74.382622 53.568 
L 74.532593 198.72 
L 75.082488 198.72 
L 75.215796 295.488 
L 75.365767 174.528 
L 75.782354 174.528 
L 75.915662 157.248 
L 76.04897 260.928 
L 76.198941 157.248 
L 76.465557 157.248 
L 76.615528 144.288 
L 76.748836 235.008 
L 77.032115 235.008 
L 77.165423 144.288 
L 77.298731 134.208 
L 77.448702 134.208 
L 77.58201 214.848 
L 77.865289 214.848 
L 77.998597 198.72 
L 78.131905 126.144 
L 78.281876 126.144 
L 78.415184 198.72 
L 78.548492 198.72 
L 78.698463 185.524364 
L 79.248358 185.524364 
L 79.381666 174.528 
L 79.798252 174.528 
L 79.948224 235.008 
L 80.081532 221.051077 
L 80.214839 165.223385 
L 80.631426 165.223385 
L 80.781398 209.088 
L 80.914706 209.088 
L 81.048013 157.248 
L 81.331292 157.248 
L 81.4646 150.336 
L 81.614572 198.72 
L 81.881187 198.72 
L 82.031159 150.336 
L 82.164466 144.288 
L 82.297774 144.288 
L 82.447745 189.648 
L 82.714361 189.648 
L 82.864332 181.643294 
L 82.99764 181.643294 
L 83.130948 138.951529 
L 83.280919 138.951529 
L 83.414227 181.643294 
L 83.547535 174.528 
L 83.964122 174.528 
L 84.114093 134.208 
L 84.247401 168.161684 
L 84.797296 168.161684 
L 84.947267 162.432 
L 85.080575 198.72 
L 85.213883 162.432 
L 85.497162 162.432 
L 85.63047 157.248 
L 85.780441 157.248 
L 85.913749 191.808 
L 86.197028 191.808 
L 86.330336 185.524364 
L 86.463644 152.535273 
L 86.613615 152.535273 
L 86.746923 185.524364 
L 86.880231 185.524364 
L 87.030202 179.78713 
L 87.296818 179.78713 
L 87.446789 148.232348 
L 87.580097 148.232348 
L 87.713405 174.528 
L 88.279963 174.528 
L 88.413271 169.6896 
L 88.963165 169.6896 
L 89.113137 165.223385 
L 89.246445 165.223385 
L 89.379752 193.137231 
L 89.529724 165.223385 
L 89.663032 165.223385 
L 89.796339 161.088 
L 90.212926 161.088 
L 90.362898 187.968 
L 90.496205 183.168 
L 90.629513 157.248 
L 91.0461 157.248 
L 91.196072 178.699034 
L 91.612658 178.699034 
L 91.745966 153.672828 
L 91.879274 150.336 
L 92.029245 174.528 
L 92.445832 174.528 
L 92.57914 170.626065 
L 92.712448 170.626065 
L 92.862419 147.214452 
L 92.995727 170.626065 
L 93.129035 170.626065 
L 93.279006 166.968 
L 93.828901 166.968 
L 93.962209 163.531636 
L 94.528767 163.531636 
L 94.662075 160.297412 
L 94.795383 181.643294 
L 94.945354 181.643294 
L 95.078662 160.297412 
L 95.21197 160.297412 
L 95.361941 157.248 
L 95.495249 157.248 
L 95.628557 177.984 
L 95.911836 177.984 
L 96.045144 174.528 
L 96.195115 154.368 
L 96.328423 154.368 
L 96.461731 174.528 
L 96.611702 174.528 
L 96.74501 171.258811 
L 97.028289 171.258811 
L 97.161597 151.643676 
L 97.294905 151.643676 
L 97.444876 168.161684 
L 97.994771 168.161684 
L 98.128078 165.223385 
L 98.27805 183.832615 
L 98.411358 165.223385 
L 98.694637 165.223385 
L 98.827945 162.432 
L 99.111224 162.432 
L 99.244532 180.576 
L 99.377839 162.432 
L 99.527811 159.77678 
L 99.944398 159.77678 
L 100.077705 177.478244 
L 100.211013 174.528 
L 100.494292 174.528 
L 100.6276 157.248 
L 100.777571 157.248 
L 100.910879 154.836837 
L 101.044187 171.714977 
L 101.460774 171.714977 
L 101.610745 169.029818 
L 101.744053 152.535273 
L 101.877361 169.029818 
L 102.16064 169.029818 
L 102.293948 166.464 
L 102.577227 166.464 
L 102.710535 150.336 
L 102.860506 166.464 
L 102.993814 164.009739 
L 103.543709 164.009739 
L 103.69368 177.101617 
L 103.826988 177.101617 
L 103.960296 161.659915 
L 104.243575 161.659915 
L 104.376883 159.408 
L 104.526854 159.408 
L 104.660162 174.528 
L 104.79347 174.528 
L 104.943441 159.408 
L 105.076749 157.248 
L 105.360028 157.248 
L 105.493336 172.059429 
L 105.626644 172.059429 
L 105.776615 169.6896 
L 106.043231 169.6896 
L 106.193202 155.1744 
L 106.32651 155.1744 
L 106.459818 167.412706 
L 107.026376 167.412706 
L 107.159684 165.223385 
L 107.709578 165.223385 
L 107.85955 163.116679 
L 108.126165 163.116679 
L 108.276137 176.810264 
L 108.409445 163.116679 
L 108.542752 161.088 
L 108.959339 161.088 
L 109.109311 174.528 
L 109.242618 172.328727 
L 109.375926 172.328727 
L 109.525898 159.133091 
L 109.792513 159.133091 
L 109.942484 157.248 
L 110.075792 170.208 
L 110.492379 170.208 
L 110.625687 168.161684 
L 110.775658 155.429053 
L 110.908966 168.161684 
L 111.192245 168.161684 
L 111.325553 166.185931 
L 111.608832 166.185931 
L 111.74214 153.672828 
L 111.875448 166.185931 
L 112.025419 164.277153 
L 112.575314 164.277153 
L 112.708622 162.432 
L 112.858593 174.528 
L 112.991901 162.432 
L 113.27518 162.432 
L 113.408488 160.647344 
L 113.541796 160.647344 
L 113.691767 172.545049 
L 113.825075 172.545049 
L 113.958383 160.647344 
L 114.108354 158.920258 
L 114.524941 158.920258 
L 114.658249 170.626065 
L 114.791557 168.768 
L 115.074836 168.768 
L 115.208144 157.248 
L 115.358115 157.248 
L 115.491423 166.968 
L 116.041318 166.968 
L 116.191289 165.223385 
L 116.324597 154.057846 
L 116.457904 165.223385 
L 116.741184 165.223385 
L 116.874491 163.531636 
L 117.157771 163.531636 
L 117.291078 174.528 
L 117.574358 161.890388 
L 118.124252 161.890388 
L 118.274224 170.970353 
L 118.407531 170.970353 
L 118.540839 160.297412 
L 118.824118 160.297412 
L 118.957426 158.750609 
L 119.107397 158.750609 
L 119.240705 169.26887 
L 119.523984 169.26887 
L 119.657292 167.616 
L 119.7906 157.248 
L 119.940571 157.248 
L 120.073879 167.616 
L 120.207187 167.616 
L 120.357158 166.00969 
L 120.623774 166.00969 
L 120.773745 155.787718 
L 120.907053 155.787718 
L 121.040361 164.448 
L 121.606919 164.448 
L 121.740227 162.929096 
L 121.873535 172.871014 
L 122.023506 162.929096 
L 122.290122 162.929096 
L 122.440093 161.451243 
L 122.706709 161.451243 
L 122.85668 171.258811 
L 122.989988 171.258811 
L 123.123296 169.6896 
L 123.273267 160.0128 
L 123.539883 160.0128 
L 123.689854 169.6896 
L 123.823162 168.161684 
L 124.106441 168.161684 
L 124.239749 158.612211 
L 124.373057 158.612211 
L 124.523028 157.248 
L 124.656336 166.673455 
L 125.072923 166.673455 
L 125.206231 165.223385 
L 125.356202 165.223385 
L 125.48951 155.918769 
L 125.622817 165.223385 
L 125.772789 165.223385 
L 125.906097 163.810025 
L 126.455991 163.810025 
L 126.605963 162.432 
L 127.155857 162.432 
L 127.289165 161.088 
L 127.439137 170.048 
L 127.572444 170.048 
L 127.705752 161.088 
L 127.855724 161.088 
L 127.989031 159.77678 
L 128.122339 159.77678 
L 128.27231 168.627512 
L 128.538926 168.627512 
L 128.688897 167.241253 
L 128.822205 158.497157 
L 129.105484 158.497157 
L 129.238792 167.241253 
L 129.3721 165.888 
L 129.788687 165.888 
L 129.938658 157.248 
L 130.071966 156.028235 
L 130.205274 164.566588 
L 130.621861 164.566588 
L 130.771832 163.275907 
L 130.90514 163.275907 
L 131.038448 171.714977 
L 131.188419 163.275907 
L 131.321727 163.275907 
L 131.455035 162.014897 
L 131.871622 162.014897 
L 132.021593 170.356966 
L 132.154901 169.029818 
L 132.288209 160.782545 
L 132.704796 160.782545 
L 132.854767 167.732494 
L 133.271354 167.732494 
L 133.404662 159.577888 
L 133.53797 158.4 
L 133.687941 158.4 
L 133.821249 166.464 
L 134.104528 166.464 
L 134.237836 165.223385 
L 134.371144 165.223385 
L 134.521115 157.248 
L 134.654423 157.248 
L 134.78773 165.223385 
L 134.937702 164.009739 
L 135.487597 164.009739 
L 135.620904 170.626065 
L 135.770876 162.822194 
L 136.187463 162.822194 
L 136.32077 161.659915 
L 136.454078 161.659915 
L 136.60405 169.380766 
L 136.737357 161.659915 
L 136.870665 161.659915 
L 137.020637 160.522105 
L 137.287252 160.522105 
L 137.437224 168.161684 
L 137.570531 168.161684 
L 137.703839 166.968 
L 137.85381 166.968 
L 137.987118 159.408 
L 138.270397 159.408 
L 138.403705 165.798928 
L 138.9536 165.798928 
L 139.103571 164.653714 
L 139.236879 157.248 
L 139.370187 164.653714 
L 139.653466 164.653714 
L 139.786774 163.531636 
L 140.353332 163.531636 
L 140.48664 162.432 
L 141.036535 162.432 
L 141.186506 168.539881 
L 141.319814 168.539881 
L 141.453122 161.354139 
L 141.736401 161.354139 
L 141.869709 160.297412 
L 142.01968 160.297412 
L 142.152988 167.412706 
L 142.286296 167.412706 
L 142.436267 160.297412 
L 142.569575 159.261204 
L 142.852854 159.261204 
L 142.986162 166.307417 
L 143.11947 166.307417 
L 143.269441 165.223385 
L 143.536057 165.223385 
L 143.686028 158.244923 
L 143.819336 158.244923 
L 143.952643 164.16 
L 144.519202 164.16 
L 144.65251 163.116679 
L 144.785817 169.963472 
L 144.935789 163.116679 
L 145.202404 163.116679 
L 145.352376 162.09286 
L 145.618991 162.09286 
L 145.768963 168.875664 
L 145.90227 162.09286 
L 146.035578 161.088 
L 146.602137 161.088 
L 146.735444 166.759927 
L 147.018723 166.759927 
L 147.152031 160.101578 
L 147.285339 160.101578 
L 147.43531 159.133091 
L 147.568618 165.730909 
L 147.985205 165.730909 
L 148.118513 164.720432 
L 148.268484 158.182054 
L 148.401792 158.182054 
L 148.5351 164.720432 
L 148.685071 164.720432 
L 148.818379 163.728 
L 149.234966 163.728 
L 149.368274 157.248 
L 149.518245 162.753133 
L 150.06814 162.753133 
L 150.201448 161.795368 
L 150.351419 168.161684 
L 150.484727 168.161684 
L 150.618035 161.795368 
L 150.768006 161.795368 
L 150.901314 160.854261 
L 151.184593 160.854261 
L 151.317901 167.165217 
L 151.451209 167.165217 
L 151.60118 166.185931 
L 151.734488 159.929379 
L 152.151075 159.929379 
L 152.284383 165.223385 
L 152.70097 165.223385 
L 152.850941 159.020308 
L 152.984249 158.126644 
L 153.117556 164.277153 
L 153.534143 164.277153 
L 153.684115 163.346824 
L 153.817423 163.346824 
L 153.95073 157.248 
L 154.100702 163.346824 
L 154.23401 163.346824 
L 154.367317 162.432 
L 154.783904 162.432 
L 154.933876 168.48 
L 155.067183 167.530314 
L 155.200491 161.532298 
L 155.617078 161.532298 
L 155.76705 160.647344 
L 155.900357 166.596197 
L 156.183636 166.596197 
L 156.316944 160.647344 
L 156.450252 159.77678 
L 156.733531 159.77678 
L 156.866839 165.677268 
L 157.01681 165.677268 
L 157.150118 164.773161 
L 157.283426 164.773161 
L 157.433397 158.920258 
L 157.566705 158.920258 
L 157.700013 164.773161 
L 157.849984 163.88352 
L 158.399879 163.88352 
L 158.533187 163.008 
L 159.099745 163.008 
L 159.233053 162.146268 
L 159.516332 162.146268 
L 159.64964 167.860913 
L 159.782948 162.146268 
L 159.932919 161.298 
L 160.349506 161.298 
L 160.482814 166.968 
L 160.616122 166.08893 
L 160.766093 166.08893 
L 160.899401 160.462884 
L 161.18268 160.462884 
L 161.315988 159.640615 
L 161.449296 165.223385 
L 161.865883 165.223385 
L 162.015854 164.371053 
L 162.149162 158.830901 
L 162.282469 158.830901 
L 162.432441 164.371053 
L 162.565749 164.371053 
L 162.699056 163.531636 
L 162.982336 163.531636 
L 163.115643 158.033455 
L 163.265615 163.531636 
L 163.398923 162.704842 
L 163.948817 162.704842 
L 164.098789 161.890388 
L 164.232096 167.306507 
L 164.365404 161.890388 
L 164.648683 161.890388 
L 164.781991 161.088 
L 165.06527 161.088 
L 165.198578 166.464 
L 165.348549 166.464 
L 165.481857 165.633882 
L 165.615165 160.297412 
L 165.898444 160.297412 
L 166.031752 165.633882 
L 166.181723 164.815883 
L 166.448339 164.815883 
L 166.59831 159.518365 
L 166.731618 159.518365 
L 166.864926 158.750609 
L 167.014897 164.009739 
L 167.431484 164.009739 
L 167.564792 163.215194 
L 168.114687 163.215194 
L 168.264658 162.432 
L 168.681245 162.432 
L 168.814553 167.616 
L 168.947861 166.807149 
L 169.097832 161.659915 
L 169.514419 161.659915 
L 169.647727 160.898704 
L 169.781035 166.00969 
L 169.931006 166.00969 
L 170.064314 160.898704 
L 170.197622 160.898704 
L 170.347593 160.14814 
L 170.480901 160.14814 
L 170.614209 165.223385 
L 170.897488 165.223385 
L 171.030796 164.448 
L 171.180767 164.448 
L 171.314075 159.408 
L 171.447382 159.408 
L 171.597354 164.448 
L 171.730662 163.68331 
L 172.280556 163.68331 
L 172.430528 162.929096 
L 172.980422 162.929096 
L 173.11373 162.185143 
L 173.263702 162.185143 
L 173.397009 167.122286 
L 173.530317 162.185143 
L 173.680289 162.185143 
L 173.813596 161.451243 
L 174.230183 161.451243 
L 174.363491 166.355027 
L 174.513462 165.598067 
L 174.64677 165.598067 
L 174.780078 160.727195 
L 175.063357 160.727195 
L 175.196665 160.0128 
L 175.346636 164.8512 
L 175.613252 164.8512 
L 175.763223 160.0128 
L 175.896531 159.307868 
L 176.029839 159.307868 
L 176.17981 164.114225 
L 176.446426 164.114225 
L 176.596397 163.386947 
L 176.863013 163.386947 
L 177.012984 158.612211 
L 177.146292 163.386947 
L 177.2796 162.669176 
L 177.846158 162.669176 
L 177.979466 161.960727 
L 178.112774 166.673455 
L 178.262745 161.960727 
L 178.529361 161.960727 
L 178.679332 161.261419 
L 178.81264 161.261419 
L 178.945948 165.943742 
L 179.095919 165.943742 
L 179.229227 161.261419 
L 179.362535 160.571077 
L 179.779122 160.571077 
L 179.929093 165.223385 
L 180.062401 164.512204 
L 180.34568 164.512204 
L 180.478988 159.889529 
L 180.612295 159.889529 
L 180.762267 159.216608 
L 180.895575 163.810025 
L 181.312162 163.810025 
L 181.445469 163.116679 
L 182.012028 163.116679 
L 182.145335 162.432 
L 182.69523 162.432 
L 182.845202 161.755826 
L 183.395096 161.755826 
L 183.528404 161.088 
L 183.678375 165.568 
L 183.811683 165.568 
L 183.944991 161.088 
L 184.094962 161.088 
L 184.22827 160.428368 
L 184.361578 160.428368 
L 184.511549 164.880883 
L 184.778165 164.880883 
L 184.928136 164.202146 
L 185.061444 164.202146 
L 185.194752 159.77678 
L 185.344723 159.77678 
L 185.478031 164.202146 
L 185.611339 163.531636 
L 186.027926 163.531636 
L 186.177897 159.133091 
L 186.311205 158.497157 
L 186.444513 162.869205 
L 186.8611 162.869205 
L 187.011071 162.214707 
L 187.144379 162.214707 
L 187.277687 166.560575 
L 187.427658 162.214707 
L 187.560966 162.214707 
L 187.694274 161.568 
L 188.110861 161.568 
L 188.260832 165.888 
L 188.39414 165.223385 
L 188.527448 165.223385 
L 188.677419 160.928947 
L 188.944035 160.928947 
L 189.094006 160.297412 
L 189.227314 164.566588 
L 189.510593 164.566588 
L 189.643901 160.297412 
L 189.777208 159.673263 
L 189.92718 159.673263 
L 190.060488 163.917474 
L 190.343767 163.917474 
L 190.477075 163.275907 
L 190.760354 163.275907 
L 190.893662 159.056372 
L 191.026969 163.275907 
L 191.176941 162.641757 
L 191.726835 162.641757 
L 191.860143 162.014897 
L 192.426702 162.014897 
L 192.560009 161.3952 
L 192.693317 161.3952 
L 192.843288 165.5424 
L 192.976596 165.5424 
L 193.109904 161.3952 
L 193.259875 160.782545 
L 193.676462 160.782545 
L 193.80977 164.906182 
L 193.943078 164.277153 
L 194.226357 164.277153 
L 194.359665 160.176814 
L 194.509636 160.176814 
L 194.642944 159.577888 
L 194.776252 163.655191 
L 195.192839 163.655191 
L 195.34281 163.040179 
L 195.476118 158.985654 
L 195.609426 163.040179 
L 195.892705 163.040179 
L 196.026013 162.432 
L 196.592571 162.432 
L 196.725879 161.830541 
L 197.275774 161.830541 
L 197.425745 161.235692 
L 197.559053 165.223385 
L 197.692361 165.223385 
L 197.842332 161.235692 
L 197.97564 161.235692 
L 198.108948 160.647344 
L 198.258919 160.647344 
L 198.392227 164.613246 
L 198.675506 164.613246 
L 198.808814 164.009739 
L 198.942121 160.065391 
L 199.225401 160.065391 
L 199.358708 164.009739 
L 199.50868 163.412757 
L 199.925267 163.412757 
L 200.058575 159.48973 
L 200.191882 158.920258 
L 200.341854 162.822194 
L 200.758441 162.822194 
L 200.891748 162.237947 
L 201.025056 162.237947 
L 201.175028 166.119016 
L 201.308335 162.237947 
L 201.441643 162.237947 
L 201.591615 161.659915 
L 202.008201 161.659915 
L 202.141509 165.52034 
L 202.274817 164.928 
L 202.424788 161.088 
L 202.841375 161.088 
L 202.974683 160.522105 
L 203.107991 164.341895 
L 203.39127 164.341895 
L 203.524578 160.522105 
L 203.674549 159.962136 
L 203.807857 159.962136 
L 203.941165 163.761927 
L 204.224444 163.761927 
L 204.357752 163.188 
L 204.641031 163.188 
L 204.774339 159.408 
L 204.92431 163.188 
L 205.057618 162.620021 
L 205.607513 162.620021 
L 205.757484 162.057897 
L 206.307379 162.057897 
L 206.440687 161.501538 
L 206.590658 161.501538 
L 206.723966 165.223385 
L 206.857274 165.223385 
L 207.140553 160.950857 
L 207.55714 160.950857 
L 207.690448 164.653714 
L 207.840419 164.089827 
L 208.107034 164.089827 
L 208.257006 160.405766 
L 208.390314 160.405766 
L 208.523621 159.866182 
L 208.673593 163.531636 
L 209.09018 163.531636 
L 209.223488 162.979055 
L 209.356795 159.33202 
L 209.506767 162.979055 
L 209.773382 162.979055 
L 209.923354 162.432 
L 210.473248 162.432 
L 210.606556 161.890388 
L 211.173114 161.890388 
L 211.306422 161.354139 
L 211.43973 164.94701 
L 211.589701 164.94701 
L 211.723009 161.354139 
L 211.856317 161.354139 
L 212.006288 160.823172 
L 212.139596 160.823172 
L 212.272904 164.398345 
L 212.556183 164.398345 
L 212.689491 163.855059 
L 212.839462 160.297412 
L 213.106078 160.297412 
L 213.256049 163.855059 
L 213.389357 163.317073 
L 213.805944 163.317073 
L 213.939252 159.77678 
L 214.089223 159.261204 
L 214.222531 162.784311 
L 214.639118 162.784311 
L 214.772426 162.256696 
L 215.338984 162.256696 
L 215.472292 161.734154 
L 215.888879 161.734154 
L 216.022187 165.223385 
L 216.172158 164.689148 
L 216.305466 161.216612 
L 216.722053 161.216612 
L 216.855361 160.704 
L 217.005332 164.16 
L 217.271947 164.16 
L 217.421919 160.704 
L 217.555227 160.196246 
L 217.838506 160.196246 
L 217.971814 163.635867 
L 218.105121 163.635867 
L 218.255093 163.116679 
L 218.521708 163.116679 
L 218.67168 159.693283 
L 218.804987 163.116679 
L 218.938295 162.602366 
L 219.504854 162.602366 
L 219.638161 162.09286 
L 220.188056 162.09286 
L 220.338027 161.588093 
L 220.604643 161.588093 
L 220.754614 164.963721 
L 220.887922 161.588093 
L 221.02123 161.088 
L 221.437817 161.088 
L 221.587788 164.448 
L 221.721096 163.937032 
L 222.004375 163.937032 
L 222.137683 160.592516 
L 222.270991 160.592516 
L 222.420962 160.101578 
L 222.55427 163.430752 
L 222.970857 163.430752 
L 223.104165 162.929096 
L 223.254136 159.615123 
L 223.387444 159.615123 
L 223.520752 162.929096 
L 223.670723 162.929096 
L 223.804031 162.432 
L 224.353926 162.432 
L 224.503897 161.939403 
L 225.053792 161.939403 
L 225.1871 161.451243 
L 225.337071 164.720432 
L 225.470379 164.720432 
L 225.603687 161.451243 
L 225.753658 161.451243 
L 225.886966 160.967462 
L 226.170245 160.967462 
L 226.303553 164.221991 
L 226.43686 164.221991 
L 226.586832 163.728 
L 226.72014 160.488 
L 227.003419 160.488 
L 227.136727 163.728 
L 227.270034 163.2384 
L 227.686621 163.2384 
L 227.836593 160.0128 
L 227.9699 159.541805 
L 228.103208 162.753133 
L 228.519795 162.753133 
L 228.669767 162.272141 
L 229.219661 162.272141 
L 229.352969 161.795368 
L 229.769556 161.795368 
L 229.919527 164.978526 
L 230.052835 164.492017 
L 230.186143 161.32276 
L 230.60273 161.32276 
L 230.752701 160.854261 
L 230.886009 164.009739 
L 231.169288 164.009739 
L 231.302596 160.854261 
L 231.435904 160.389818 
L 231.719183 160.389818 
L 231.852491 163.531636 
L 232.002462 163.531636 
L 232.13577 163.057655 
L 232.419049 163.057655 
L 232.552357 159.929379 
L 232.685665 163.057655 
L 232.835636 162.587742 
L 233.385531 162.587742 
L 233.518839 162.121846 
L 234.085397 162.121846 
L 234.218705 161.659915 
L 234.501984 161.659915 
L 234.635292 164.748255 
L 234.7686 161.659915 
L 234.918571 161.201898 
L 235.468466 161.201898 
L 235.601773 163.810025 
L 235.885053 163.810025 
L 236.01836 160.747747 
L 236.168332 160.747747 
L 236.30164 160.297412 
L 236.434947 163.346824 
L 236.851534 163.346824 
L 237.001506 162.887498 
L 237.134813 159.850845 
L 237.268121 159.850845 
L 237.418093 162.887498 
L 237.5514 162.887498 
L 237.684708 162.432 
L 238.101295 162.432 
L 238.251267 159.408 
L 238.384574 161.980282 
L 238.934469 161.980282 
L 239.08444 161.532298 
L 239.217748 164.531306 
L 239.351056 164.531306 
L 239.501027 161.532298 
L 239.634335 161.532298 
L 239.767643 161.088 
L 240.050922 161.088 
L 240.18423 164.074667 
L 240.334201 164.074667 
L 240.467509 163.62177 
L 240.600817 160.647344 
L 241.017404 160.647344 
L 241.167375 163.172571 
L 241.583962 163.172571 
L 241.71727 160.210286 
L 241.850578 159.77678 
L 242.000549 162.727024 
L 242.417136 162.727024 
L 242.550444 162.285085 
L 243.100339 162.285085 
L 243.25031 161.84671 
L 243.800205 161.84671 
L 243.933513 164.326554 
L 244.083484 161.411855 
L 244.500071 161.411855 
L 244.633379 160.98048 
L 244.766686 163.88352 
L 245.049966 163.88352 
L 245.183273 160.98048 
L 245.333245 160.552542 
L 245.59986 160.552542 
L 245.749832 163.444016 
L 245.88314 163.444016 
L 246.016447 163.008 
L 246.299726 163.008 
L 246.433034 160.128 
L 246.583006 160.128 
L 246.716313 162.575431 
L 247.266208 162.575431 
L 247.41618 162.146268 
L 247.966074 162.146268 
L 248.099382 161.720471 
L 248.382661 161.720471 
L 248.515969 164.566588 
L 248.799248 161.298 
L 249.349143 161.298 
L 249.499114 163.702786 
L 249.76573 163.702786 
L 249.915701 160.878817 
L 250.049009 160.878817 
L 250.182317 160.462884 
L 250.332288 163.275907 
L 250.748875 163.275907 
L 250.882183 162.852324 
L 251.015491 162.852324 
L 251.165462 160.050162 
L 251.29877 162.852324 
L 251.432078 162.852324 
L 251.582049 162.432 
L 251.998636 162.432 
L 252.131944 159.640615 
L 252.265252 162.014897 
L 252.83181 162.014897 
L 252.965118 161.600977 
L 253.098426 161.600977 
L 253.248397 164.371053 
L 253.381705 161.600977 
L 253.515013 161.600977 
L 253.664984 161.190205 
L 253.931599 161.190205 
L 254.081571 163.949749 
L 254.214879 163.949749 
L 254.348186 163.531636 
L 254.498158 163.531636 
L 254.631466 160.782545 
L 254.914745 160.782545 
L 255.048053 163.116679 
L 255.464639 163.116679 
L 255.597947 160.377962 
L 255.747919 159.976421 
L 255.881226 159.976421 
L 256.014534 162.704842 
L 256.297813 162.704842 
L 256.431121 162.29609 
L 256.997679 162.29609 
L 257.130987 161.890388 
L 257.680882 161.890388 
L 257.830853 164.185695 
L 257.964161 164.185695 
L 258.097469 161.487703 
L 258.380748 161.487703 
L 258.514056 161.088 
L 258.664027 161.088 
L 258.797335 163.776 
L 258.930643 163.776 
L 259.213922 160.691247 
L 259.497201 160.691247 
L 259.630509 163.369328 
L 259.763817 163.369328 
L 259.913788 162.965647 
L 260.180404 162.965647 
L 260.330375 160.297412 
L 260.463683 160.297412 
L 260.596991 162.564923 
L 261.163549 162.564923 
L 261.296857 162.167124 
L 261.846752 162.167124 
L 261.996723 161.772218 
L 262.263339 161.772218 
L 262.41331 164.411345 
L 262.546618 161.772218 
L 262.679926 161.380174 
L 263.246484 161.380174 
L 263.379792 163.611032 
L 263.663071 163.611032 
L 263.796379 160.99096 
L 263.929686 160.99096 
L 264.079658 160.604547 
L 264.212966 160.604547 
L 264.346273 163.215194 
L 264.629552 163.215194 
L 264.76286 162.822194 
L 264.912832 162.822194 
L 265.046139 160.220903 
L 265.179447 160.220903 
L 265.329419 162.822194 
L 265.462726 162.432 
L 265.879313 162.432 
L 266.012621 159.84 
L 266.162592 162.044584 
L 266.712487 162.044584 
L 266.845795 161.659915 
L 266.995766 161.659915 
L 267.129074 164.233532 
L 267.262382 161.659915 
L 267.412353 161.659915 
L 267.545661 161.277965 
L 267.962248 161.277965 
L 268.095556 163.842488 
L 268.245527 163.454197 
L 268.378835 163.454197 
L 268.512143 160.898704 
L 268.795422 160.898704 
L 268.92873 163.068632 
L 269.345317 163.068632 
L 269.628596 160.14814 
L 269.761904 160.14814 
L 269.911875 162.685762 
L 270.178491 162.685762 
L 270.328462 162.305561 
L 270.595078 162.305561 
L 270.745049 159.77678 
L 270.878357 162.305561 
L 271.011665 161.928 
L 271.578223 161.928 
L 271.711531 164.064332 
L 271.844839 164.064332 
L 271.99481 161.553052 
L 272.261425 161.553052 
L 272.411397 161.18069 
L 272.544705 161.18069 
L 272.678012 163.68331 
L 272.827984 163.68331 
L 272.961292 161.18069 
L 273.094599 160.810887 
L 273.511186 160.810887 
L 273.661158 163.304907 
L 273.794465 162.929096 
L 274.077745 162.929096 
L 274.211052 160.443616 
L 274.34436 160.443616 
L 274.494332 162.55585 
L 275.044226 162.55585 
L 275.177534 162.185143 
L 275.744092 162.185143 
L 275.8774 161.816949 
L 276.293987 161.816949 
L 276.427295 164.277153 
L 276.577266 163.903135 
L 276.710574 161.451243 
L 277.127161 161.451243 
L 277.260469 161.088 
L 277.41044 163.531636 
L 277.543748 163.531636 
L 277.677056 161.088 
L 277.827027 161.088 
L 277.960335 160.727195 
L 278.093643 160.727195 
L 278.243614 163.162631 
L 278.51023 163.162631 
L 278.660201 162.796094 
L 278.793509 162.796094 
L 278.926817 160.368803 
L 279.076788 160.368803 
L 279.210096 162.796094 
L 279.343404 162.432 
L 279.909962 162.432 
L 280.04327 162.070326 
L 280.593165 162.070326 
L 280.743136 161.711046 
L 280.876444 161.711046 
L 281.009752 164.114225 
L 281.159723 161.711046 
L 281.293031 161.711046 
L 281.426338 161.354139 
L 281.842925 161.354139 
L 281.992897 163.749386 
L 282.126205 163.386947 
L 282.259512 163.386947 
L 282.409484 160.999579 
L 282.676099 160.999579 
L 282.826071 160.647344 
L 282.959378 163.026885 
L 283.375965 163.026885 
L 283.509273 162.669176 
L 283.659245 160.297412 
L 283.792552 162.669176 
L 284.075832 162.669176 
L 284.209139 162.313798 
L 284.492418 162.313798 
L 284.625726 159.949759 
L 284.759034 162.313798 
L 284.909005 161.960727 
L 285.4589 161.960727 
L 285.592208 161.609942 
L 285.742179 163.95868 
L 285.875487 161.609942 
L 286.158766 161.609942 
L 286.292074 161.261419 
L 286.575353 161.261419 
L 286.708661 163.602581 
L 286.841969 163.602581 
L 286.99194 163.248772 
L 287.125248 160.915138 
L 287.408527 160.915138 
L 287.541835 163.248772 
L 287.675143 162.897231 
L 287.958422 162.897231 
L 288.09173 160.571077 
L 288.241701 160.571077 
L 288.375009 160.229214 
L 288.508317 162.547936 
L 288.924904 162.547936 
L 289.074875 162.200866 
L 289.208183 162.200866 
L 289.341491 159.889529 
L 289.491462 162.200866 
L 289.62477 162.200866 
L 289.758078 161.856 
L 290.174665 161.856 
L 290.324636 164.16 
L 290.457944 163.810025 
L 290.591251 161.513316 
L 291.007838 161.513316 
L 291.15781 161.172795 
L 291.291118 163.462259 
L 291.424425 163.462259 
L 291.574397 161.172795 
L 291.707705 161.172795 
L 291.841012 160.834415 
L 292.124291 160.834415 
L 292.257599 163.116679 
L 292.407571 163.116679 
L 292.540878 162.773266 
L 292.674186 162.773266 
L 292.824158 160.498157 
L 292.957465 160.498157 
L 293.090773 162.773266 
L 293.240745 162.432 
L 293.790639 162.432 
L 293.923947 162.09286 
L 294.490505 162.09286 
L 294.623813 161.755826 
L 295.173708 161.755826 
L 295.323679 161.420879 
L 295.740266 161.420879 
L 295.873574 163.667814 
L 296.006882 163.328 
L 296.156853 163.328 
L 296.290161 161.088 
L 296.57344 161.088 
L 296.706748 160.757169 
L 296.840056 162.990277 
L 297.256643 162.990277 
L 297.406614 162.654626 
L 297.539922 160.428368 
L 297.67323 160.428368 
L 297.823201 162.654626 
L 297.956509 162.654626 
L 298.089817 162.321028 
L 298.506404 162.321028 
L 298.656375 160.101578 
L 298.789683 161.989463 
L 299.339578 161.989463 
L 299.489549 161.659915 
L 299.622857 163.865872 
L 299.756164 161.659915 
L 300.039444 161.659915 
L 300.172751 161.332364 
L 300.456031 161.332364 
L 300.589338 163.531636 
L 300.73931 163.531636 
L 300.872618 163.19942 
L 301.005925 161.006792 
L 301.422512 161.006792 
L 301.572484 162.869205 
L 301.989071 162.869205 
L 302.122378 160.683181 
L 302.255686 160.361514 
L 302.405658 162.540973 
L 302.822244 162.540973 
L 302.955552 162.214707 
L 303.08886 162.214707 
L 303.238831 160.041772 
L 303.372139 162.214707 
L 303.505447 162.214707 
L 303.655418 161.890388 
L 304.205313 161.890388 
L 304.338621 163.728 
L 304.488592 161.568 
L 304.905179 161.568 
L 305.038487 161.247525 
L 305.171795 163.401116 
L 305.455074 163.401116 
L 305.588382 161.247525 
L 305.738353 160.928947 
L 306.004969 160.928947 
L 306.15494 163.076166 
L 306.288248 163.076166 
L 306.421556 162.753133 
L 306.571527 162.753133 
L 306.704835 160.612248 
L 306.988114 160.612248 
L 307.121422 162.432 
L 307.671317 162.432 
L 307.821288 162.112751 
L 307.954596 159.984422 
L 308.087904 162.112751 
L 308.371183 162.112751 
L 308.504491 161.795368 
L 308.78777 161.795368 
L 308.921077 163.917474 
L 309.204357 161.479837 
L 309.754251 161.479837 
L 309.904223 163.275907 
L 310.037531 163.275907 
L 310.170838 161.16614 
L 310.454117 161.16614 
L 310.587425 160.854261 
L 310.737397 160.854261 
L 310.870704 162.957913 
L 311.153984 162.957913 
L 311.287291 162.641757 
L 311.420599 160.544185 
L 311.570571 160.544185 
L 311.703878 162.641757 
L 311.837186 162.641757 
L 311.987157 162.327424 
L 312.403744 162.327424 
L 312.537052 160.235896 
L 312.67036 162.014897 
L 313.236918 162.014897 
L 313.370226 161.70416 
L 313.503534 161.70416 
L 313.653505 163.783702 
L 313.786813 161.70416 
L 313.920121 161.70416 
L 314.070092 161.3952 
L 314.336708 161.3952 
L 314.486679 163.4688 
L 314.619987 163.4688 
L 314.753295 163.155692 
L 314.903266 161.088 
L 315.319853 161.088 
L 315.453161 162.844364 
L 315.869748 162.844364 
L 316.003056 160.782545 
L 316.153027 160.478822 
L 316.286335 160.478822 
L 316.419643 162.534799 
L 316.702922 162.534799 
L 316.83623 162.226983 
L 317.119509 162.226983 
L 317.252817 160.176814 
L 317.402788 162.226983 
L 317.536096 161.920901 
L 318.08599 161.920901 
L 318.235962 163.655191 
L 318.36927 161.616539 
L 318.785857 161.616539 
L 318.919164 161.313882 
L 319.069136 161.313882 
L 319.202444 163.346824 
L 319.335751 163.346824 
L 319.61903 161.012916 
L 320.035617 161.012916 
L 320.168925 163.040179 
L 320.318897 162.735242 
L 320.585512 162.735242 
L 320.735484 160.713627 
L 320.868791 160.713627 
L 321.002099 162.432 
L 321.568657 162.432 
L 321.701965 162.130438 
L 321.835273 160.120022 
L 321.985244 162.130438 
L 322.25186 162.130438 
L 322.401831 161.830541 
L 322.951726 161.830541 
L 323.085034 161.532298 
L 323.651592 161.532298 
L 323.7849 163.229538 
L 324.068179 163.229538 
L 324.201487 161.235692 
L 324.334795 161.235692 
L 324.484766 160.940712 
L 324.618074 160.940712 
L 324.751382 162.929096 
L 325.034661 162.929096 
L 325.167969 162.630295 
L 325.31794 160.647344 
L 325.584556 160.647344 
L 325.734527 162.630295 
L 325.867835 162.333123 
L 326.284422 162.333123 
L 326.41773 160.355575 
L 326.567701 160.065391 
L 326.701009 162.037565 
L 327.117596 162.037565 
L 327.250903 161.74361 
L 327.400875 161.74361 
L 327.534183 163.710439 
L 327.66749 161.74361 
L 327.817462 161.74361 
L 327.95077 161.451243 
L 328.367357 161.451243 
L 328.500664 163.412757 
L 328.650636 163.116679 
L 328.783943 163.116679 
L 328.917251 161.160453 
L 329.20053 161.160453 
L 329.333838 160.871226 
L 329.48381 162.822194 
L 329.750425 162.822194 
L 330.033704 160.58355 
L 330.167012 160.58355 
L 330.316983 162.529287 
L 330.583599 162.529287 
L 330.73357 162.237947 
L 331.000186 162.237947 
L 331.150157 160.297412 
L 331.283465 162.237947 
L 331.416773 161.94816 
L 331.983331 161.94816 
L 332.116639 161.659915 
L 332.249947 163.590128 
L 332.399918 161.659915 
L 332.666534 161.659915 
L 332.816505 161.373199 
L 332.949813 161.373199 
L 333.083121 163.298292 
L 333.233092 163.298292 
L 333.3664 161.373199 
L 333.499708 161.088 
L 333.916295 161.088 
L 334.066266 163.008 
L 334.199574 162.71924 
L 334.482853 162.71924 
L 334.616161 160.804306 
L 334.749469 160.804306 
L 334.89944 160.522105 
L 335.032748 162.432 
L 335.449335 162.432 
L 335.582643 162.146268 
L 335.732614 162.146268 
L 335.865922 160.241386 
L 335.99923 162.146268 
L 336.149201 162.146268 
L 336.282509 161.862031 
L 336.832403 161.862031 
L 336.982375 161.579279 
L 337.53227 161.579279 
L 337.665577 161.298 
L 337.815549 163.188 
L 337.948856 163.188 
L 338.082164 161.298 
L 338.232136 161.298 
L 338.365443 161.018182 
L 338.648723 161.018182 
L 338.78203 162.903273 
L 338.915338 162.903273 
L 339.06531 162.620021 
L 339.198617 162.620021 
L 339.331925 160.739813 
L 339.481896 160.739813 
L 339.615204 162.620021 
L 339.748512 162.338233 
L 340.31507 162.338233 
L 340.448378 162.057897 
L 340.998273 162.057897 
L 341.148244 161.779003 
L 341.698139 161.779003 
L 341.831447 161.501538 
L 342.398005 161.501538 
L 342.531313 163.081657 
L 342.664621 163.081657 
L 342.814592 161.225494 
L 343.081208 161.225494 
L 343.231179 160.950857 
L 343.364487 162.802286 
L 343.781074 162.802286 
L 343.914382 162.524336 
L 344.064353 160.677618 
L 344.197661 160.677618 
L 344.330969 162.524336 
L 344.48094 162.524336 
L 344.614248 162.247797 
L 344.897527 162.247797 
L 345.030835 160.405766 
L 345.164143 160.405766 
L 345.314114 161.972658 
L 345.864009 161.972658 
L 345.997316 161.698909 
L 346.147288 163.531636 
L 346.280596 161.698909 
L 346.563875 161.698909 
L 346.697183 161.426539 
L 346.980462 161.426539 
L 347.113769 163.25465 
L 347.247077 163.25465 
L 347.397049 162.979055 
L 347.530356 161.155538 
L 347.946943 161.155538 
L 348.080251 162.704842 
L 348.36353 162.704842 
L 348.496838 160.885895 
L 348.646809 160.885895 
L 348.780117 160.6176 
L 348.913425 162.432 
L 349.330012 162.432 
L 349.479983 162.160519 
L 349.613291 162.160519 
L 349.746599 160.350643 
L 349.89657 162.160519 
L 350.029878 162.160519 
L 350.163186 161.890388 
L 350.729744 161.890388 
L 350.863052 163.422491 
L 350.99636 161.621598 
L 351.412947 161.621598 
L 351.562918 161.354139 
L 351.696226 161.354139 
L 351.829534 163.150574 
L 351.979505 161.354139 
L 352.112813 161.354139 
L 352.246121 161.088 
L 352.5294 161.088 
L 352.662708 162.88 
L 352.812679 162.88 
L 352.945987 162.610759 
L 353.079295 162.610759 
L 353.229266 160.823172 
L 353.495882 160.823172 
L 353.645853 162.34284 
L 354.195748 162.34284 
L 354.329056 162.076235 
L 354.479027 160.297412 
L 354.612335 162.076235 
L 354.895614 162.076235 
L 355.028922 161.810934 
L 355.312201 161.810934 
L 355.445509 163.585408 
L 355.578816 161.810934 
L 355.728788 161.546927 
L 356.278682 161.546927 
L 356.41199 163.050044 
L 356.561962 163.050044 
L 356.695269 161.284204 
L 356.978549 161.284204 
L 357.111856 161.022757 
L 357.245164 161.022757 
L 357.395136 162.784311 
L 357.661751 162.784311 
L 357.811722 162.519864 
L 357.94503 160.762576 
L 358.078338 160.762576 
L 358.228309 162.519864 
L 358.361617 162.519864 
L 358.494925 162.256696 
L 358.911512 162.256696 
L 359.061483 160.503652 
L 359.194791 161.994795 
L 359.744686 161.994795 
L 359.894657 161.734154 
L 360.444552 161.734154 
L 360.57786 161.474763 
L 360.994447 161.474763 
L 361.144418 163.215194 
L 361.277726 162.95288 
L 361.411034 161.216612 
L 361.827621 161.216612 
L 361.977592 162.691819 
L 362.394179 162.691819 
L 362.527487 160.959695 
L 362.660795 160.704 
L 362.810766 160.704 
L 362.944074 162.432 
L 363.227353 162.432 
L 363.360661 162.173416 
L 363.493969 162.173416 
L 363.64394 160.44952 
L 363.777248 160.44952 
L 363.910555 162.173416 
L 364.060527 161.916057 
L 364.610422 161.916057 
L 364.743729 163.37566 
L 364.893701 161.659915 
L 365.310288 161.659915 
L 365.443595 161.404981 
L 365.576903 161.404981 
L 365.726875 163.116679 
L 365.860182 163.116679 
L 365.99349 161.404981 
L 366.143462 161.151247 
L 366.560049 161.151247 
L 366.693356 162.858918 
L 366.826664 162.602366 
L 367.109943 162.602366 
L 367.243251 160.898704 
L 367.393222 160.898704 
L 367.52653 160.647344 
L 367.659838 162.347016 
L 368.076425 162.347016 
L 368.226396 162.09286 
L 368.359704 160.397159 
L 368.493012 162.09286 
L 368.776291 162.09286 
L 368.909599 161.839888 
L 369.476157 161.839888 
L 369.609465 161.588093 
L 370.15936 161.588093 
L 370.309331 161.337466 
L 370.442639 163.021364 
L 370.575947 163.021364 
L 370.725918 161.337466 
L 370.859226 161.337466 
L 370.992534 161.088 
L 371.142505 161.088 
L 371.275813 162.768 
L 371.559092 162.768 
L 371.6924 162.515806 
L 371.825708 160.839686 
L 372.108987 160.839686 
L 372.242295 162.515806 
L 372.392266 162.264774 
L 372.808853 162.264774 
L 372.942161 160.592516 
L 373.075468 160.346483 
L 373.22544 162.014897 
L 373.642027 162.014897 
L 373.775335 161.766165 
L 373.908642 161.766165 
L 374.058614 163.430752 
L 374.191922 161.766165 
L 374.325229 161.766165 
L 374.475201 161.518572 
L 374.891788 161.518572 
L 375.025095 163.17935 
L 375.158403 162.929096 
L 375.308375 161.27211 
L 375.724962 161.27211 
L 375.858269 161.02677 
L 375.991577 162.679982 
L 376.274856 162.679982 
L 376.408164 161.02677 
L 376.558135 160.782545 
L 376.824751 160.782545 
L 376.974722 162.432 
L 377.10803 162.432 
L 377.241338 162.185143 
L 377.524617 162.185143 
L 377.657925 160.539429 
L 377.807896 162.185143 
L 377.941204 161.939403 
L 378.491099 161.939403 
L 378.64107 161.694772 
L 378.774378 163.333056 
L 378.907686 161.694772 
L 379.190965 161.694772 
L 379.324273 161.451243 
L 379.607552 161.451243 
L 379.74086 163.085838 
L 380.024139 161.208809 
L 380.440726 161.208809 
L 380.574034 162.83973 
L 380.724005 162.594726 
L 380.990621 162.594726 
L 381.140592 160.967462 
L 381.2739 160.967462 
L 381.407208 160.727195 
L 381.557179 162.350819 
L 381.973766 162.350819 
L 382.107074 162.108 
L 382.240381 162.108 
L 382.390353 160.488 
L 382.523661 162.108 
L 382.656968 162.108 
L 382.80694 161.866263 
L 383.223527 161.866263 
L 383.356835 160.249871 
L 383.490142 161.6256 
L 384.056701 161.6256 
L 384.190008 161.386004 
L 384.323316 162.995228 
L 384.473288 162.995228 
L 384.606595 161.386004 
L 384.739903 161.386004 
L 384.889875 161.147469 
L 385.15649 161.147469 
L 385.306461 162.753133 
L 385.439769 162.753133 
L 385.573077 162.512106 
L 385.723048 162.512106 
L 385.856356 160.909987 
L 386.139635 160.909987 
L 386.272943 162.272141 
L 386.68953 162.272141 
L 386.822838 160.673551 
L 386.972809 160.438154 
L 387.106117 162.033231 
L 387.522704 162.033231 
L 387.656012 161.795368 
L 388.22257 161.795368 
L 388.355878 161.558547 
L 388.905773 161.558547 
L 389.055744 162.907389 
L 389.189052 162.907389 
L 389.32236 161.32276 
L 389.605639 161.32276 
L 389.738947 161.088 
L 389.888918 161.088 
L 390.022226 162.669176 
L 390.305505 162.669176 
L 390.438813 162.432 
L 390.572121 160.854261 
L 390.722092 160.854261 
L 390.8554 162.432 
L 390.988708 162.432 
L 391.138679 162.195852 
L 391.405294 162.195852 
L 391.555266 160.621536 
L 391.688574 160.621536 
L 391.821881 161.960727 
L 392.38844 161.960727 
L 392.521748 161.726618 
L 393.071642 161.726618 
L 393.221614 161.493517 
L 393.488229 161.493517 
L 393.638201 163.057655 
L 393.771508 163.057655 
L 393.904816 162.822194 
L 394.054788 161.261419 
L 394.471374 161.261419 
L 394.604682 162.587742 
L 394.887961 162.587742 
L 395.021269 161.030318 
L 395.154577 161.030318 
L 395.304548 160.800206 
L 395.437856 160.800206 
L 395.571164 162.354296 
L 395.854443 162.354296 
L 395.987751 162.121846 
L 396.137722 162.121846 
L 396.27103 160.571077 
L 396.404338 162.121846 
L 396.554309 162.121846 
L 396.687617 161.890388 
L 397.237512 161.890388 
L 397.387483 163.204085 
L 397.520791 161.659915 
L 397.937378 161.659915 
L 398.070686 161.43042 
L 398.220657 161.43042 
L 398.353965 162.971312 
L 398.487273 161.43042 
L 398.487273 161.43042 
" style="fill:none;stroke:#1f77b4;stroke-linecap:square;stroke-width:1.5;"/>
   </g>
   <g id="patch_3">
    <path d="M 57.6 307.584 
L 57.6 41.472 
" style="fill:none;stroke:#000000;stroke-linecap:square;stroke-linejoin:miter;stroke-width:0.8;"/>
   </g>
   <g id="patch_4">
    <path d="M 414.72 307.584 
L 414.72 41.472 
" style="fill:none;stroke:#000000;stroke-linecap:square;stroke-linejoin:miter;stroke-width:0.8;"/>
   </g>
   <g id="patch_5">
    <path d="M 57.6 307.584 
L 414.72 307.584 
" style="fill:none;stroke:#000000;stroke-linecap:square;stroke-linejoin:miter;stroke-width:0.8;"/>
   </g>
   <g id="patch_6">
    <path d="M 57.6 41.472 
L 414.72 41.472 
" style="fill:none;stroke:#000000;stroke-linecap:square;stroke-linejoin:miter;stroke-width:0.8;"/>
   </g>
   <g id="text_21">
    <!-- Speed function of time -->
    <g transform="translate(167.024063 35.472)scale(0.12 -0.12)">
     <defs>
      <path id="DejaVuSerif-32"/>
      <path d="M 43.015625 63.71875 
L 38.28125 63.71875 
Q 38.234375 67.390625 36.203125 69.28125 
Q 34.1875 71.1875 30.328125 71.1875 
Q 25.296875 71.1875 23.234375 68.421875 
Q 21.1875 65.671875 21.1875 58.59375 
L 21.1875 51.90625 
L 35.6875 51.90625 
L 35.6875 46.6875 
L 21.1875 46.6875 
L 21.1875 5.171875 
L 32.71875 5.171875 
L 32.71875 0 
L 3.609375 0 
L 3.609375 5.171875 
L 12.203125 5.171875 
L 12.203125 46.6875 
L 3.609375 46.6875 
L 3.609375 51.90625 
L 12.203125 51.90625 
L 12.203125 58.40625 
Q 12.203125 67.09375 16.71875 71.53125 
Q 21.234375 75.984375 29.984375 75.984375 
Q 33.25 75.984375 36.515625 75.390625 
Q 39.796875 74.8125 43.015625 73.578125 
z
" id="DejaVuSerif-102"/>
      <path d="M 35.40625 51.90625 
L 52.203125 51.90625 
L 52.203125 5.171875 
L 60.6875 5.171875 
L 60.6875 0 
L 43.21875 0 
L 43.21875 9.1875 
Q 40.71875 4 36.765625 1.28125 
Q 32.8125 -1.421875 27.59375 -1.421875 
Q 18.953125 -1.421875 14.875 3.484375 
Q 10.796875 8.40625 10.796875 18.890625 
L 10.796875 46.6875 
L 2.6875 46.6875 
L 2.6875 51.90625 
L 19.828125 51.90625 
L 19.828125 21.6875 
Q 19.828125 12.203125 22.140625 8.6875 
Q 24.46875 5.171875 30.421875 5.171875 
Q 36.671875 5.171875 39.9375 9.765625 
Q 43.21875 14.359375 43.21875 23.09375 
L 43.21875 46.6875 
L 35.40625 46.6875 
z
" id="DejaVuSerif-117"/>
      <path d="M 4.109375 0 
L 4.109375 5.171875 
L 12.203125 5.171875 
L 12.203125 46.6875 
L 3.609375 46.6875 
L 3.609375 51.90625 
L 21.1875 51.90625 
L 21.1875 42.671875 
Q 23.6875 47.953125 27.65625 50.640625 
Q 31.640625 53.328125 36.921875 53.328125 
Q 45.515625 53.328125 49.5625 48.390625 
Q 53.609375 43.453125 53.609375 33.015625 
L 53.609375 5.171875 
L 61.625 5.171875 
L 61.625 0 
L 36.8125 0 
L 36.8125 5.171875 
L 44.578125 5.171875 
L 44.578125 30.171875 
Q 44.578125 39.703125 42.234375 43.234375 
Q 39.890625 46.78125 33.984375 46.78125 
Q 27.734375 46.78125 24.453125 42.203125 
Q 21.1875 37.640625 21.1875 28.90625 
L 21.1875 5.171875 
L 29 5.171875 
L 29 0 
z
" id="DejaVuSerif-110"/>
      <path d="M 51.421875 15.578125 
Q 49.515625 7.28125 44.09375 2.921875 
Q 38.671875 -1.421875 30.078125 -1.421875 
Q 18.75 -1.421875 11.859375 6.078125 
Q 4.984375 13.578125 4.984375 25.984375 
Q 4.984375 38.421875 11.859375 45.875 
Q 18.75 53.328125 30.078125 53.328125 
Q 35.015625 53.328125 39.890625 52.171875 
Q 44.78125 51.03125 49.703125 48.6875 
L 49.703125 35.40625 
L 44.484375 35.40625 
Q 43.453125 42.234375 40.015625 45.359375 
Q 36.578125 48.484375 30.171875 48.484375 
Q 22.90625 48.484375 19.1875 42.84375 
Q 15.484375 37.203125 15.484375 25.984375 
Q 15.484375 14.75 19.171875 9.078125 
Q 22.859375 3.421875 30.171875 3.421875 
Q 35.984375 3.421875 39.453125 6.4375 
Q 42.921875 9.46875 44.1875 15.578125 
z
" id="DejaVuSerif-99"/>
      <path d="M 10.796875 46.6875 
L 2.875 46.6875 
L 2.875 51.90625 
L 10.796875 51.90625 
L 10.796875 68.015625 
L 19.828125 68.015625 
L 19.828125 51.90625 
L 36.71875 51.90625 
L 36.71875 46.6875 
L 19.828125 46.6875 
L 19.828125 13.71875 
Q 19.828125 7.125 21.09375 5.265625 
Q 22.359375 3.421875 25.78125 3.421875 
Q 29.296875 3.421875 30.90625 5.484375 
Q 32.515625 7.5625 32.625 12.203125 
L 39.40625 12.203125 
Q 39.015625 5.125 35.546875 1.84375 
Q 32.078125 -1.421875 25 -1.421875 
Q 17.234375 -1.421875 14.015625 2.015625 
Q 10.796875 5.46875 10.796875 13.71875 
z
" id="DejaVuSerif-116"/>
      <path d="M 30.078125 3.421875 
Q 37.3125 3.421875 40.984375 9.125 
Q 44.671875 14.84375 44.671875 25.984375 
Q 44.671875 37.109375 40.984375 42.796875 
Q 37.3125 48.484375 30.078125 48.484375 
Q 22.859375 48.484375 19.171875 42.796875 
Q 15.484375 37.109375 15.484375 25.984375 
Q 15.484375 14.84375 19.1875 9.125 
Q 22.90625 3.421875 30.078125 3.421875 
z
M 30.078125 -1.421875 
Q 18.75 -1.421875 11.859375 6.078125 
Q 4.984375 13.578125 4.984375 25.984375 
Q 4.984375 38.375 11.84375 45.84375 
Q 18.703125 53.328125 30.078125 53.328125 
Q 41.453125 53.328125 48.3125 45.84375 
Q 55.171875 38.375 55.171875 25.984375 
Q 55.171875 13.578125 48.3125 6.078125 
Q 41.453125 -1.421875 30.078125 -1.421875 
z
" id="DejaVuSerif-111"/>
     </defs>
     <use xlink:href="#DejaVuSerif-83"/>
     <use x="68.505859" xlink:href="#DejaVuSerif-112"/>
     <use x="132.519531" xlink:href="#DejaVuSerif-101"/>
     <use x="191.699219" xlink:href="#DejaVuSerif-101"/>
     <use x="250.878906" xlink:href="#DejaVuSerif-100"/>
     <use x="314.892578" xlink:href="#DejaVuSerif-32"/>
     <use x="346.679688" xlink:href="#DejaVuSerif-102"/>
     <use x="383.691406" xlink:href="#DejaVuSerif-117"/>
     <use x="448.095703" xlink:href="#DejaVuSerif-110"/>
     <use x="512.5" xlink:href="#DejaVuSerif-99"/>
     <use x="568.505859" xlink:href="#DejaVuSerif-116"/>
     <use x="608.691406" xlink:href="#DejaVuSerif-105"/>
     <use x="640.673828" xlink:href="#DejaVuSerif-111"/>
     <use x="700.878906" xlink:href="#DejaVuSerif-110"/>
     <use x="765.283203" xlink:href="#DejaVuSerif-32"/>
     <use x="797.070312" xlink:href="#DejaVuSerif-111"/>
     <use x="857.275391" xlink:href="#DejaVuSerif-102"/>
     <use x="894.287109" xlink:href="#DejaVuSerif-32"/>
     <use x="926.074219" xlink:href="#DejaVuSerif-116"/>
     <use x="966.259766" xlink:href="#DejaVuSerif-105"/>
     <use x="998.242188" xlink:href="#DejaVuSerif-109"/>
     <use x="1093.066406" xlink:href="#DejaVuSerif-101"/>
    </g>
   </g>
  </g>
 </g>
 <defs>
  <clipPath id="p9076718280">
   <rect height="266.112" width="357.12" x="57.6" y="41.472"/>
  </clipPath>
 </defs>
</svg>
