<?xml version="1.0" encoding="utf-8" standalone="no"?>
<!DOCTYPE svg PUBLIC "-//W3C//DTD SVG 1.1//EN"
  "http://www.w3.org/Graphics/SVG/1.1/DTD/svg11.dtd">
<!-- Created with matplotlib (https://matplotlib.org/) -->
<svg height="345.6pt" version="1.1" viewBox="0 0 460.8 345.6" width="460.8pt" xmlns="http://www.w3.org/2000/svg" xmlns:xlink="http://www.w3.org/1999/xlink">
 <metadata>
  <rdf:RDF xmlns:cc="http://creativecommons.org/ns#" xmlns:dc="http://purl.org/dc/elements/1.1/" xmlns:rdf="http://www.w3.org/1999/02/22-rdf-syntax-ns#">
   <cc:Work>
    <dc:type rdf:resource="http://purl.org/dc/dcmitype/StillImage"/>
    <dc:date>2023-03-20T14:32:30.406034</dc:date>
    <dc:format>image/svg+xml</dc:format>
    <dc:creator>
     <cc:Agent>
      <dc:title>Matplotlib v3.3.4, https://matplotlib.org/</dc:title>
     </cc:Agent>
    </dc:creator>
   </cc:Work>
  </rdf:RDF>
 </metadata>
 <defs>
  <style type="text/css">*{stroke-linecap:butt;stroke-linejoin:round;}</style>
 </defs>
 <g id="figure_1">
  <g id="patch_1">
   <path d="M 0 345.6 
L 460.8 345.6 
L 460.8 0 
L 0 0 
z
" style="fill:#ffffff;"/>
  </g>
  <g id="axes_1">
   <g id="patch_2">
    <path d="M 57.6 307.584 
L 414.72 307.584 
L 414.72 41.472 
L 57.6 41.472 
z
" style="fill:#ffffff;"/>
   </g>
   <g id="matplotlib.axis_1">
    <g id="xtick_1">
     <g id="line2d_1">
      <defs>
       <path d="M 0 0 
L 0 3.5 
" id="m4f6b5830a4" style="stroke:#000000;stroke-width:0.8;"/>
      </defs>
      <g>
       <use style="stroke:#000000;stroke-width:0.8;" x="68.543717" xlink:href="#m4f6b5830a4" y="307.584"/>
      </g>
     </g>
     <g id="text_1">
      <!-- 0 -->
      <g transform="translate(65.362467 322.182437)scale(0.1 -0.1)">
       <defs>
        <path d="M 31.78125 3.421875 
Q 39.265625 3.421875 42.96875 11.625 
Q 46.6875 19.828125 46.6875 36.375 
Q 46.6875 52.984375 42.96875 61.1875 
Q 39.265625 69.390625 31.78125 69.390625 
Q 24.3125 69.390625 20.59375 61.1875 
Q 16.890625 52.984375 16.890625 36.375 
Q 16.890625 19.828125 20.59375 11.625 
Q 24.3125 3.421875 31.78125 3.421875 
z
M 31.78125 -1.421875 
Q 19.921875 -1.421875 13.25 8.53125 
Q 6.59375 18.5 6.59375 36.375 
Q 6.59375 54.296875 13.25 64.25 
Q 19.921875 74.21875 31.78125 74.21875 
Q 43.703125 74.21875 50.34375 64.25 
Q 56.984375 54.296875 56.984375 36.375 
Q 56.984375 18.5 50.34375 8.53125 
Q 43.703125 -1.421875 31.78125 -1.421875 
z
" id="DejaVuSerif-48"/>
       </defs>
       <use xlink:href="#DejaVuSerif-48"/>
      </g>
     </g>
    </g>
    <g id="xtick_2">
     <g id="line2d_2">
      <g>
       <use style="stroke:#000000;stroke-width:0.8;" x="128.989546" xlink:href="#m4f6b5830a4" y="307.584"/>
      </g>
     </g>
     <g id="text_2">
      <!-- 20 -->
      <g transform="translate(122.627046 322.182437)scale(0.1 -0.1)">
       <defs>
        <path d="M 12.796875 55.515625 
L 7.328125 55.515625 
L 7.328125 68.5 
Q 12.546875 71.296875 17.84375 72.75 
Q 23.140625 74.21875 28.21875 74.21875 
Q 39.59375 74.21875 46.1875 68.703125 
Q 52.78125 63.1875 52.78125 53.71875 
Q 52.78125 43.015625 37.84375 28.125 
Q 36.671875 27 36.078125 26.421875 
L 17.671875 8.015625 
L 48.09375 8.015625 
L 48.09375 17 
L 53.8125 17 
L 53.8125 0 
L 6.78125 0 
L 6.78125 5.328125 
L 28.90625 27.390625 
Q 36.234375 34.71875 39.359375 40.84375 
Q 42.484375 46.96875 42.484375 53.71875 
Q 42.484375 61.078125 38.640625 65.234375 
Q 34.8125 69.390625 28.078125 69.390625 
Q 21.09375 69.390625 17.28125 65.921875 
Q 13.484375 62.453125 12.796875 55.515625 
z
" id="DejaVuSerif-50"/>
       </defs>
       <use xlink:href="#DejaVuSerif-50"/>
       <use x="63.623047" xlink:href="#DejaVuSerif-48"/>
      </g>
     </g>
    </g>
    <g id="xtick_3">
     <g id="line2d_3">
      <g>
       <use style="stroke:#000000;stroke-width:0.8;" x="189.435374" xlink:href="#m4f6b5830a4" y="307.584"/>
      </g>
     </g>
     <g id="text_3">
      <!-- 40 -->
      <g transform="translate(183.072874 322.182437)scale(0.1 -0.1)">
       <defs>
        <path d="M 34.90625 24.703125 
L 34.90625 63.484375 
L 10.015625 24.703125 
z
M 56.390625 0 
L 23.1875 0 
L 23.1875 5.171875 
L 34.90625 5.171875 
L 34.90625 19.484375 
L 3.078125 19.484375 
L 3.078125 24.8125 
L 35.015625 74.21875 
L 44.671875 74.21875 
L 44.671875 24.703125 
L 58.59375 24.703125 
L 58.59375 19.484375 
L 44.671875 19.484375 
L 44.671875 5.171875 
L 56.390625 5.171875 
z
" id="DejaVuSerif-52"/>
       </defs>
       <use xlink:href="#DejaVuSerif-52"/>
       <use x="63.623047" xlink:href="#DejaVuSerif-48"/>
      </g>
     </g>
    </g>
    <g id="xtick_4">
     <g id="line2d_4">
      <g>
       <use style="stroke:#000000;stroke-width:0.8;" x="249.881203" xlink:href="#m4f6b5830a4" y="307.584"/>
      </g>
     </g>
     <g id="text_4">
      <!-- 60 -->
      <g transform="translate(243.518703 322.182437)scale(0.1 -0.1)">
       <defs>
        <path d="M 32.71875 3.421875 
Q 39.59375 3.421875 43.296875 8.46875 
Q 47.015625 13.53125 47.015625 23 
Q 47.015625 32.46875 43.296875 37.515625 
Q 39.59375 42.578125 32.71875 42.578125 
Q 25.734375 42.578125 22.0625 37.6875 
Q 18.40625 32.8125 18.40625 23.578125 
Q 18.40625 13.875 22.109375 8.640625 
Q 25.828125 3.421875 32.71875 3.421875 
z
M 16.796875 40.140625 
Q 20.125 43.796875 24.3125 45.59375 
Q 28.515625 47.40625 33.796875 47.40625 
Q 44.671875 47.40625 51 40.859375 
Q 57.328125 34.328125 57.328125 23 
Q 57.328125 11.921875 50.515625 5.25 
Q 43.703125 -1.421875 32.328125 -1.421875 
Q 19.96875 -1.421875 13.328125 7.78125 
Q 6.6875 17 6.6875 34.078125 
Q 6.6875 53.21875 14.546875 63.71875 
Q 22.40625 74.21875 36.71875 74.21875 
Q 40.578125 74.21875 44.828125 73.484375 
Q 49.078125 72.75 53.515625 71.296875 
L 53.515625 59.28125 
L 48 59.28125 
Q 47.40625 64.203125 44.234375 66.796875 
Q 41.0625 69.390625 35.6875 69.390625 
Q 26.21875 69.390625 21.578125 62.203125 
Q 16.9375 55.03125 16.796875 40.140625 
z
" id="DejaVuSerif-54"/>
       </defs>
       <use xlink:href="#DejaVuSerif-54"/>
       <use x="63.623047" xlink:href="#DejaVuSerif-48"/>
      </g>
     </g>
    </g>
    <g id="xtick_5">
     <g id="line2d_5">
      <g>
       <use style="stroke:#000000;stroke-width:0.8;" x="310.327032" xlink:href="#m4f6b5830a4" y="307.584"/>
      </g>
     </g>
     <g id="text_5">
      <!-- 80 -->
      <g transform="translate(303.964532 322.182437)scale(0.1 -0.1)">
       <defs>
        <path d="M 46.578125 19.921875 
Q 46.578125 27.734375 42.6875 32.046875 
Q 38.8125 36.375 31.78125 36.375 
Q 24.75 36.375 20.875 32.046875 
Q 17 27.734375 17 19.921875 
Q 17 12.0625 20.875 7.734375 
Q 24.75 3.421875 31.78125 3.421875 
Q 38.8125 3.421875 42.6875 7.734375 
Q 46.578125 12.0625 46.578125 19.921875 
z
M 44.578125 55.328125 
Q 44.578125 61.96875 41.203125 65.671875 
Q 37.84375 69.390625 31.78125 69.390625 
Q 25.78125 69.390625 22.390625 65.671875 
Q 19 61.96875 19 55.328125 
Q 19 48.640625 22.390625 44.921875 
Q 25.78125 41.21875 31.78125 41.21875 
Q 37.84375 41.21875 41.203125 44.921875 
Q 44.578125 48.640625 44.578125 55.328125 
z
M 39.3125 38.8125 
Q 47.609375 37.703125 52.25 32.6875 
Q 56.890625 27.6875 56.890625 19.921875 
Q 56.890625 9.671875 50.390625 4.125 
Q 43.890625 -1.421875 31.78125 -1.421875 
Q 19.734375 -1.421875 13.203125 4.125 
Q 6.6875 9.671875 6.6875 19.921875 
Q 6.6875 27.6875 11.328125 32.6875 
Q 15.96875 37.703125 24.3125 38.8125 
Q 16.9375 40.140625 13 44.40625 
Q 9.078125 48.6875 9.078125 55.328125 
Q 9.078125 64.109375 15.125 69.15625 
Q 21.1875 74.21875 31.78125 74.21875 
Q 42.390625 74.21875 48.4375 69.15625 
Q 54.5 64.109375 54.5 55.328125 
Q 54.5 48.6875 50.5625 44.40625 
Q 46.625 40.140625 39.3125 38.8125 
z
" id="DejaVuSerif-56"/>
       </defs>
       <use xlink:href="#DejaVuSerif-56"/>
       <use x="63.623047" xlink:href="#DejaVuSerif-48"/>
      </g>
     </g>
    </g>
    <g id="xtick_6">
     <g id="line2d_6">
      <g>
       <use style="stroke:#000000;stroke-width:0.8;" x="370.77286" xlink:href="#m4f6b5830a4" y="307.584"/>
      </g>
     </g>
     <g id="text_6">
      <!-- 100 -->
      <g transform="translate(361.22911 322.182437)scale(0.1 -0.1)">
       <defs>
        <path d="M 14.203125 0 
L 14.203125 5.171875 
L 26.90625 5.171875 
L 26.90625 65.828125 
L 12.203125 56.296875 
L 12.203125 62.703125 
L 29.984375 74.21875 
L 36.71875 74.21875 
L 36.71875 5.171875 
L 49.421875 5.171875 
L 49.421875 0 
z
" id="DejaVuSerif-49"/>
       </defs>
       <use xlink:href="#DejaVuSerif-49"/>
       <use x="63.623047" xlink:href="#DejaVuSerif-48"/>
       <use x="127.246094" xlink:href="#DejaVuSerif-48"/>
      </g>
     </g>
    </g>
    <g id="text_7">
     <!-- Time -->
     <g transform="translate(223.524844 335.860562)scale(0.1 -0.1)">
      <defs>
       <path d="M 19.09375 0 
L 19.09375 5.171875 
L 28.421875 5.171875 
L 28.421875 67.09375 
L 6.984375 67.09375 
L 6.984375 55.71875 
L 0.984375 55.71875 
L 0.984375 72.90625 
L 65.71875 72.90625 
L 65.71875 55.71875 
L 59.71875 55.71875 
L 59.71875 67.09375 
L 38.28125 67.09375 
L 38.28125 5.171875 
L 47.609375 5.171875 
L 47.609375 0 
z
" id="DejaVuSerif-84"/>
       <path d="M 9.71875 68.015625 
Q 9.71875 70.265625 11.34375 71.921875 
Q 12.984375 73.578125 15.28125 73.578125 
Q 17.53125 73.578125 19.15625 71.921875 
Q 20.796875 70.265625 20.796875 68.015625 
Q 20.796875 65.71875 19.1875 64.109375 
Q 17.578125 62.5 15.28125 62.5 
Q 12.984375 62.5 11.34375 64.109375 
Q 9.71875 65.71875 9.71875 68.015625 
z
M 21.1875 5.171875 
L 29.6875 5.171875 
L 29.6875 0 
L 3.609375 0 
L 3.609375 5.171875 
L 12.203125 5.171875 
L 12.203125 46.6875 
L 3.609375 46.6875 
L 3.609375 51.90625 
L 21.1875 51.90625 
z
" id="DejaVuSerif-105"/>
       <path d="M 51.8125 41.796875 
Q 54.390625 47.515625 58.421875 50.421875 
Q 62.453125 53.328125 67.828125 53.328125 
Q 75.984375 53.328125 79.984375 48.265625 
Q 83.984375 43.21875 83.984375 33.015625 
L 83.984375 5.171875 
L 92.09375 5.171875 
L 92.09375 0 
L 67.1875 0 
L 67.1875 5.171875 
L 75 5.171875 
L 75 31.984375 
Q 75 39.9375 72.65625 43.3125 
Q 70.3125 46.6875 64.890625 46.6875 
Q 58.890625 46.6875 55.734375 42.140625 
Q 52.59375 37.59375 52.59375 28.90625 
L 52.59375 5.171875 
L 60.40625 5.171875 
L 60.40625 0 
L 35.796875 0 
L 35.796875 5.171875 
L 43.609375 5.171875 
L 43.609375 32.328125 
Q 43.609375 40.09375 41.265625 43.390625 
Q 38.921875 46.6875 33.5 46.6875 
Q 27.484375 46.6875 24.328125 42.140625 
Q 21.1875 37.59375 21.1875 28.90625 
L 21.1875 5.171875 
L 29 5.171875 
L 29 0 
L 4.109375 0 
L 4.109375 5.171875 
L 12.203125 5.171875 
L 12.203125 46.78125 
L 3.609375 46.78125 
L 3.609375 51.90625 
L 21.1875 51.90625 
L 21.1875 42.671875 
Q 23.6875 47.859375 27.53125 50.59375 
Q 31.390625 53.328125 36.28125 53.328125 
Q 42.328125 53.328125 46.375 50.3125 
Q 50.4375 47.3125 51.8125 41.796875 
z
" id="DejaVuSerif-109"/>
       <path d="M 54.203125 25 
L 15.484375 25 
L 15.484375 24.609375 
Q 15.484375 14.109375 19.4375 8.765625 
Q 23.390625 3.421875 31.109375 3.421875 
Q 37.015625 3.421875 40.796875 6.515625 
Q 44.578125 9.625 46.09375 15.71875 
L 53.328125 15.71875 
Q 51.171875 7.171875 45.375 2.875 
Q 39.59375 -1.421875 30.171875 -1.421875 
Q 18.796875 -1.421875 11.890625 6.078125 
Q 4.984375 13.578125 4.984375 25.984375 
Q 4.984375 38.28125 11.765625 45.796875 
Q 18.5625 53.328125 29.59375 53.328125 
Q 41.359375 53.328125 47.65625 46.0625 
Q 53.953125 38.8125 54.203125 25 
z
M 43.609375 30.171875 
Q 43.3125 39.265625 39.765625 43.875 
Q 36.234375 48.484375 29.59375 48.484375 
Q 23.390625 48.484375 19.828125 43.84375 
Q 16.265625 39.203125 15.484375 30.171875 
z
" id="DejaVuSerif-101"/>
      </defs>
      <use xlink:href="#DejaVuSerif-84"/>
      <use x="66.699219" xlink:href="#DejaVuSerif-105"/>
      <use x="98.681641" xlink:href="#DejaVuSerif-109"/>
      <use x="193.505859" xlink:href="#DejaVuSerif-101"/>
     </g>
    </g>
   </g>
   <g id="matplotlib.axis_2">
    <g id="ytick_1">
     <g id="line2d_7">
      <defs>
       <path d="M 0 0 
L -3.5 0 
" id="mb07feb8abb" style="stroke:#000000;stroke-width:0.8;"/>
      </defs>
      <g>
       <use style="stroke:#000000;stroke-width:0.8;" x="57.6" xlink:href="#mb07feb8abb" y="295.488"/>
      </g>
     </g>
     <g id="text_8">
      <!-- 3.0 -->
      <g transform="translate(34.696875 299.287219)scale(0.1 -0.1)">
       <defs>
        <path d="M 9.71875 69.828125 
Q 15.4375 71.96875 20.671875 73.09375 
Q 25.921875 74.21875 30.515625 74.21875 
Q 41.21875 74.21875 47.21875 69.59375 
Q 53.21875 64.984375 53.21875 56.78125 
Q 53.21875 50.203125 49.0625 45.78125 
Q 44.921875 41.359375 37.3125 39.796875 
Q 46.296875 38.53125 51.25 33.28125 
Q 56.203125 28.03125 56.203125 19.671875 
Q 56.203125 9.46875 49.34375 4.015625 
Q 42.484375 -1.421875 29.59375 -1.421875 
Q 23.875 -1.421875 18.421875 -0.1875 
Q 12.984375 1.03125 7.625 3.515625 
L 7.625 17.671875 
L 13.09375 17.671875 
Q 13.578125 10.640625 17.828125 7.03125 
Q 22.078125 3.421875 29.78125 3.421875 
Q 37.25 3.421875 41.578125 7.734375 
Q 45.90625 12.0625 45.90625 19.578125 
Q 45.90625 28.171875 41.453125 32.59375 
Q 37.015625 37.015625 28.421875 37.015625 
L 23.78125 37.015625 
L 23.78125 42 
L 26.21875 42 
Q 34.765625 42 39.03125 45.53125 
Q 43.3125 49.078125 43.3125 56.203125 
Q 43.3125 62.59375 39.796875 65.984375 
Q 36.28125 69.390625 29.6875 69.390625 
Q 23.09375 69.390625 19.453125 66.265625 
Q 15.828125 63.140625 15.1875 56.984375 
L 9.71875 56.984375 
z
" id="DejaVuSerif-51"/>
        <path d="M 9.421875 5.078125 
Q 9.421875 7.8125 11.28125 9.71875 
Q 13.140625 11.625 15.921875 11.625 
Q 18.609375 11.625 20.5 9.71875 
Q 22.40625 7.8125 22.40625 5.078125 
Q 22.40625 2.390625 20.5 0.484375 
Q 18.609375 -1.421875 15.921875 -1.421875 
Q 13.140625 -1.421875 11.28125 0.453125 
Q 9.421875 2.34375 9.421875 5.078125 
z
" id="DejaVuSerif-46"/>
       </defs>
       <use xlink:href="#DejaVuSerif-51"/>
       <use x="63.623047" xlink:href="#DejaVuSerif-46"/>
       <use x="95.410156" xlink:href="#DejaVuSerif-48"/>
      </g>
     </g>
    </g>
    <g id="ytick_2">
     <g id="line2d_8">
      <g>
       <use style="stroke:#000000;stroke-width:0.8;" x="57.6" xlink:href="#mb07feb8abb" y="239.04"/>
      </g>
     </g>
     <g id="text_9">
      <!-- 3.5 -->
      <g transform="translate(34.696875 242.839219)scale(0.1 -0.1)">
       <defs>
        <path d="M 50.296875 72.90625 
L 50.296875 64.890625 
L 16.890625 64.890625 
L 16.890625 44 
Q 19.4375 45.75 22.828125 46.625 
Q 26.21875 47.515625 30.421875 47.515625 
Q 42.234375 47.515625 49.0625 40.96875 
Q 55.90625 34.421875 55.90625 23.09375 
Q 55.90625 11.53125 49 5.046875 
Q 42.09375 -1.421875 29.59375 -1.421875 
Q 24.5625 -1.421875 19.28125 -0.1875 
Q 14.015625 1.03125 8.5 3.515625 
L 8.5 17.671875 
L 14.015625 17.671875 
Q 14.453125 10.75 18.421875 7.078125 
Q 22.40625 3.421875 29.59375 3.421875 
Q 37.3125 3.421875 41.453125 8.5 
Q 45.609375 13.578125 45.609375 23.09375 
Q 45.609375 32.5625 41.484375 37.609375 
Q 37.359375 42.671875 29.59375 42.671875 
Q 25.203125 42.671875 21.84375 41.109375 
Q 18.5 39.546875 15.921875 36.28125 
L 11.71875 36.28125 
L 11.71875 72.90625 
z
" id="DejaVuSerif-53"/>
       </defs>
       <use xlink:href="#DejaVuSerif-51"/>
       <use x="63.623047" xlink:href="#DejaVuSerif-46"/>
       <use x="95.410156" xlink:href="#DejaVuSerif-53"/>
      </g>
     </g>
    </g>
    <g id="ytick_3">
     <g id="line2d_9">
      <g>
       <use style="stroke:#000000;stroke-width:0.8;" x="57.6" xlink:href="#mb07feb8abb" y="182.592"/>
      </g>
     </g>
     <g id="text_10">
      <!-- 4.0 -->
      <g transform="translate(34.696875 186.391219)scale(0.1 -0.1)">
       <use xlink:href="#DejaVuSerif-52"/>
       <use x="63.623047" xlink:href="#DejaVuSerif-46"/>
       <use x="95.410156" xlink:href="#DejaVuSerif-48"/>
      </g>
     </g>
    </g>
    <g id="ytick_4">
     <g id="line2d_10">
      <g>
       <use style="stroke:#000000;stroke-width:0.8;" x="57.6" xlink:href="#mb07feb8abb" y="126.144"/>
      </g>
     </g>
     <g id="text_11">
      <!-- 4.5 -->
      <g transform="translate(34.696875 129.943219)scale(0.1 -0.1)">
       <use xlink:href="#DejaVuSerif-52"/>
       <use x="63.623047" xlink:href="#DejaVuSerif-46"/>
       <use x="95.410156" xlink:href="#DejaVuSerif-53"/>
      </g>
     </g>
    </g>
    <g id="ytick_5">
     <g id="line2d_11">
      <g>
       <use style="stroke:#000000;stroke-width:0.8;" x="57.6" xlink:href="#mb07feb8abb" y="69.696"/>
      </g>
     </g>
     <g id="text_12">
      <!-- 5.0 -->
      <g transform="translate(34.696875 73.495219)scale(0.1 -0.1)">
       <use xlink:href="#DejaVuSerif-53"/>
       <use x="63.623047" xlink:href="#DejaVuSerif-46"/>
       <use x="95.410156" xlink:href="#DejaVuSerif-48"/>
      </g>
     </g>
    </g>
    <g id="text_13">
     <!-- Speed -->
     <g transform="translate(28.617187 190.273313)rotate(-90)scale(0.1 -0.1)">
      <defs>
       <path d="M 9.28125 3.515625 
L 9.28125 20.125 
L 14.890625 20.0625 
Q 15.140625 11.765625 19.703125 7.78125 
Q 24.265625 3.8125 33.59375 3.8125 
Q 42.28125 3.8125 46.84375 7.25 
Q 51.421875 10.6875 51.421875 17.28125 
Q 51.421875 22.5625 48.65625 25.390625 
Q 45.90625 28.21875 37.015625 30.90625 
L 27.390625 33.796875 
Q 16.9375 36.96875 12.671875 41.703125 
Q 8.40625 46.4375 8.40625 54.6875 
Q 8.40625 63.96875 14.984375 69.09375 
Q 21.578125 74.21875 33.5 74.21875 
Q 38.578125 74.21875 44.625 73.109375 
Q 50.6875 72.015625 57.515625 69.921875 
L 57.515625 54.390625 
L 52 54.390625 
Q 51.171875 62.109375 46.84375 65.546875 
Q 42.53125 69 33.6875 69 
Q 25.984375 69 21.953125 65.84375 
Q 17.921875 62.703125 17.921875 56.6875 
Q 17.921875 51.46875 20.9375 48.484375 
Q 23.96875 45.515625 33.796875 42.578125 
L 42.828125 39.890625 
Q 52.734375 36.921875 56.953125 32.296875 
Q 61.1875 27.6875 61.1875 19.921875 
Q 61.1875 9.328125 54.390625 3.953125 
Q 47.609375 -1.421875 34.1875 -1.421875 
Q 28.171875 -1.421875 21.9375 -0.1875 
Q 15.71875 1.03125 9.28125 3.515625 
z
" id="DejaVuSerif-83"/>
       <path d="M 20.515625 28.515625 
L 20.515625 23.390625 
Q 20.515625 14.015625 24.09375 9.109375 
Q 27.6875 4.203125 34.515625 4.203125 
Q 41.40625 4.203125 44.9375 9.71875 
Q 48.484375 15.234375 48.484375 25.984375 
Q 48.484375 36.765625 44.9375 42.234375 
Q 41.40625 47.703125 34.515625 47.703125 
Q 27.6875 47.703125 24.09375 42.765625 
Q 20.515625 37.84375 20.515625 28.515625 
z
M 11.53125 46.6875 
L 2.875 46.6875 
L 2.875 51.90625 
L 20.515625 51.90625 
L 20.515625 43.796875 
Q 23.140625 48.6875 27.21875 51 
Q 31.296875 53.328125 37.3125 53.328125 
Q 46.875 53.328125 52.921875 45.75 
Q 58.984375 38.1875 58.984375 25.984375 
Q 58.984375 13.765625 52.921875 6.171875 
Q 46.875 -1.421875 37.3125 -1.421875 
Q 31.296875 -1.421875 27.21875 0.890625 
Q 23.140625 3.21875 20.515625 8.109375 
L 20.515625 -15.578125 
L 29 -15.578125 
L 29 -20.796875 
L 2.875 -20.796875 
L 2.875 -15.578125 
L 11.53125 -15.578125 
z
" id="DejaVuSerif-112"/>
       <path d="M 52.484375 5.171875 
L 61.078125 5.171875 
L 61.078125 0 
L 43.5 0 
L 43.5 8.109375 
Q 40.875 3.21875 36.796875 0.890625 
Q 32.71875 -1.421875 26.703125 -1.421875 
Q 17.140625 -1.421875 11.0625 6.171875 
Q 4.984375 13.765625 4.984375 25.984375 
Q 4.984375 38.1875 11.03125 45.75 
Q 17.09375 53.328125 26.703125 53.328125 
Q 32.71875 53.328125 36.796875 51 
Q 40.875 48.6875 43.5 43.796875 
L 43.5 70.796875 
L 35.015625 70.796875 
L 35.015625 75.984375 
L 52.484375 75.984375 
z
M 43.5 23.390625 
L 43.5 28.515625 
Q 43.5 37.84375 39.90625 42.765625 
Q 36.328125 47.703125 29.5 47.703125 
Q 22.5625 47.703125 19.015625 42.234375 
Q 15.484375 36.765625 15.484375 25.984375 
Q 15.484375 15.234375 19.015625 9.71875 
Q 22.5625 4.203125 29.5 4.203125 
Q 36.328125 4.203125 39.90625 9.109375 
Q 43.5 14.015625 43.5 23.390625 
z
" id="DejaVuSerif-100"/>
      </defs>
      <use xlink:href="#DejaVuSerif-83"/>
      <use x="68.505859" xlink:href="#DejaVuSerif-112"/>
      <use x="132.519531" xlink:href="#DejaVuSerif-101"/>
      <use x="191.699219" xlink:href="#DejaVuSerif-101"/>
      <use x="250.878906" xlink:href="#DejaVuSerif-100"/>
     </g>
    </g>
   </g>
   <g id="line2d_12">
    <path clip-path="url(#p7661bb7592)" d="M 73.832727 126.144 
L 74.074511 295.488 
L 74.346517 126.144 
L 74.830083 126.144 
L 75.10209 227.7504 
L 75.343873 92.2752 
L 75.585656 92.2752 
L 75.857663 227.7504 
L 76.099446 227.7504 
L 76.341229 182.592 
L 76.613235 69.696 
L 76.855019 182.592 
L 77.096802 182.592 
L 77.368808 69.696 
L 77.610592 53.568 
L 77.852375 150.336 
L 78.366164 150.336 
L 78.607948 53.568 
L 78.879954 126.144 
L 79.87731 126.144 
L 80.119093 107.328 
L 80.632883 107.328 
L 80.874666 182.592 
L 81.146673 107.328 
L 81.388456 92.2752 
L 81.630239 92.2752 
L 81.902245 160.0128 
L 82.144029 160.0128 
L 82.385812 92.2752 
L 82.657818 79.959273 
L 82.899602 141.538909 
L 83.413391 141.538909 
L 83.655174 79.959273 
L 83.896958 126.144 
L 84.924537 126.144 
L 85.16632 113.117538 
L 85.68011 113.117538 
L 85.921893 165.223385 
L 86.163676 113.117538 
L 86.435683 101.952 
L 86.677466 101.952 
L 86.919249 150.336 
L 87.191255 150.336 
L 87.433039 101.952 
L 87.674822 92.2752 
L 87.946828 92.2752 
L 88.188612 137.4336 
L 88.430395 137.4336 
L 88.702401 92.2752 
L 88.944184 83.808 
L 89.185968 126.144 
L 89.699757 126.144 
L 89.941541 83.808 
L 90.213547 116.182588 
L 91.210903 116.182588 
L 91.452686 107.328 
L 92.208259 107.328 
L 92.480265 144.96 
L 92.722049 135.056842 
L 92.963832 99.405474 
L 93.235838 99.405474 
L 93.477622 135.056842 
L 93.719405 135.056842 
L 93.991411 126.144 
L 94.233194 92.2752 
L 94.474978 126.144 
L 94.988767 126.144 
L 95.230551 118.08 
L 96.25813 118.08 
L 96.499913 110.749091 
L 97.497269 110.749091 
L 97.769275 133.506783 
L 98.011059 133.506783 
L 98.252842 104.055652 
L 98.524848 104.055652 
L 98.766632 133.506783 
L 99.008415 126.144 
L 99.280421 126.144 
L 99.522204 97.92 
L 99.763988 97.92 
L 100.035994 126.144 
L 100.277777 119.37024 
L 100.519561 119.37024 
L 100.791567 92.2752 
L 101.03335 119.37024 
L 101.275133 119.37024 
L 101.54714 113.117538 
L 102.544496 113.117538 
L 102.786279 107.328 
L 103.058285 107.328 
L 103.300069 132.416 
L 103.541852 107.328 
L 103.813858 107.328 
L 104.055642 101.952 
L 104.297425 126.144 
L 104.569431 126.144 
L 104.811214 101.952 
L 105.052998 101.952 
L 105.325004 120.304552 
L 105.808571 120.304552 
L 106.080577 96.946759 
L 106.32236 96.946759 
L 106.564143 114.8544 
L 107.591723 114.8544 
L 107.833506 109.755871 
L 108.347295 109.755871 
L 108.589079 131.60671 
L 108.830862 109.755871 
L 109.102868 104.976 
L 109.586435 104.976 
L 109.858441 126.144 
L 110.100224 104.976 
L 110.342008 100.485818 
L 110.614014 100.485818 
L 110.855797 121.012364 
L 111.369587 121.012364 
L 111.61137 116.182588 
L 111.853153 96.259765 
L 112.12516 116.182588 
L 112.608726 116.182588 
L 112.880733 111.6288 
L 113.878089 111.6288 
L 114.119872 126.144 
L 114.391878 107.328 
L 115.147451 107.328 
L 115.389234 121.567135 
L 115.631018 121.567135 
L 115.903024 103.259676 
L 116.144807 103.259676 
L 116.386591 121.567135 
L 116.658597 117.231158 
L 116.90038 117.231158 
L 117.142163 99.405474 
L 117.41417 99.405474 
L 117.655953 117.231158 
L 117.897736 113.117538 
L 118.169743 113.117538 
L 118.411526 95.748923 
L 118.653309 113.117538 
L 118.925315 113.117538 
L 119.167099 109.2096 
L 119.408882 109.2096 
L 119.680888 126.144 
L 119.922672 109.2096 
L 120.164455 109.2096 
L 120.436461 105.492293 
L 120.678244 105.492293 
L 120.920028 122.013659 
L 121.192034 105.492293 
L 121.433817 105.492293 
L 121.675601 101.952 
L 121.947607 118.08 
L 122.431173 118.08 
L 122.70318 101.952 
L 122.944963 98.576372 
L 123.186746 114.329302 
L 123.700536 114.329302 
L 123.942319 98.576372 
L 124.214325 110.749091 
L 125.211682 110.749091 
L 125.453465 107.328 
L 126.209038 107.328 
L 126.481044 122.3808 
L 126.722827 118.781217 
L 126.964611 104.055652 
L 127.236617 104.055652 
L 127.4784 118.781217 
L 127.720183 118.781217 
L 127.99219 115.334809 
L 128.233973 100.922553 
L 128.475756 100.922553 
L 128.747763 115.334809 
L 128.989546 115.334809 
L 129.231329 112.032 
L 130.258908 112.032 
L 130.500692 108.864 
L 130.742475 122.688 
L 131.014481 108.864 
L 131.498048 108.864 
L 131.770054 105.82272 
L 132.011837 119.37024 
L 132.253621 105.82272 
L 132.76741 105.82272 
L 133.009193 116.182588 
L 133.522983 116.182588 
L 133.764766 102.900706 
L 134.036773 102.900706 
L 134.278556 113.117538 
L 134.792345 113.117538 
L 135.034129 100.091077 
L 135.275912 113.117538 
L 135.547918 110.168151 
L 136.545274 110.168151 
L 136.787058 107.328 
L 137.300847 107.328 
L 137.542631 119.872 
L 137.814637 107.328 
L 138.05642 104.591127 
L 138.298203 104.591127 
L 138.57021 116.907055 
L 138.811993 116.907055 
L 139.053776 104.591127 
L 139.325783 101.952 
L 139.567566 101.952 
L 139.809349 114.048 
L 140.323139 114.048 
L 140.564922 111.289263 
L 141.592501 111.289263 
L 141.834284 108.625655 
L 142.831641 108.625655 
L 143.103647 117.533288 
L 143.34543 117.533288 
L 143.587213 106.052339 
L 144.101003 106.052339 
L 144.342786 114.8544 
L 144.614793 114.8544 
L 144.856576 103.5648 
L 145.098359 103.5648 
L 145.370365 114.8544 
L 145.612149 112.263344 
L 145.853932 112.263344 
L 146.125938 101.15882 
L 146.367722 101.15882 
L 146.609505 112.263344 
L 146.881511 109.755871 
L 147.878867 109.755871 
L 148.120651 107.328 
L 148.392657 107.328 
L 148.63444 118.08 
L 148.876223 107.328 
L 149.14823 107.328 
L 149.390013 104.976 
L 149.631796 104.976 
L 149.903803 115.56 
L 150.145586 115.56 
L 150.387369 104.976 
L 150.659375 102.696369 
L 150.901159 113.117538 
L 151.414948 113.117538 
L 151.656732 102.696369 
L 151.898515 100.485818 
L 152.170521 110.749091 
L 152.926094 110.749091 
L 153.167877 118.561433 
L 153.409661 108.451343 
L 154.165233 108.451343 
L 154.43724 116.182588 
L 154.679023 106.221176 
L 155.192813 106.221176 
L 155.434596 116.182588 
L 155.676379 113.872696 
L 155.948385 104.055652 
L 156.431952 104.055652 
L 156.703958 113.872696 
L 156.945742 111.6288 
L 157.187525 111.6288 
L 157.459531 101.952 
L 157.701314 111.6288 
L 157.943098 111.6288 
L 158.215104 109.448113 
L 158.456887 109.448113 
L 158.698671 99.907606 
L 158.970677 109.448113 
L 159.21246 109.448113 
L 159.454243 107.328 
L 159.72625 107.328 
L 159.968033 116.736 
L 160.209816 107.328 
L 160.481823 107.328 
L 160.723606 105.265973 
L 160.965389 114.545096 
L 161.237395 114.545096 
L 161.479179 105.265973 
L 161.720962 105.265973 
L 161.992968 103.259676 
L 162.234752 112.413405 
L 162.748541 112.413405 
L 162.990324 103.259676 
L 163.232108 110.33856 
L 163.987681 110.33856 
L 164.259687 101.30688 
L 164.50147 108.318316 
L 165.257043 108.318316 
L 165.498826 117.231158 
L 165.770833 115.147636 
L 166.012616 106.350545 
L 166.526405 106.350545 
L 166.768189 115.147636 
L 167.009972 113.117538 
L 167.281978 104.433231 
L 167.523762 104.433231 
L 167.765545 113.117538 
L 168.037551 113.117538 
L 168.279334 111.138835 
L 168.521118 102.564456 
L 168.793124 102.564456 
L 169.034907 111.138835 
L 169.276691 111.138835 
L 169.548697 109.2096 
L 170.546053 109.2096 
L 170.787836 107.328 
L 171.815415 107.328 
L 172.057199 105.492293 
L 172.298982 113.752976 
L 172.570988 113.752976 
L 172.812772 105.492293 
L 173.054555 105.492293 
L 173.326561 103.700819 
L 173.568344 111.861976 
L 173.810128 111.861976 
L 174.082134 103.700819 
L 174.323917 103.700819 
L 174.565701 110.016 
L 175.321274 110.016 
L 175.59328 101.952 
L 175.835063 108.213459 
L 176.832419 108.213459 
L 177.104425 106.452837 
L 177.587992 106.452837 
L 177.859998 114.329302 
L 178.101782 114.329302 
L 178.343565 112.518621 
L 178.615571 104.73269 
L 178.857354 104.73269 
L 179.099138 112.518621 
L 179.371144 112.518621 
L 179.612927 110.749091 
L 179.854711 103.051636 
L 180.126717 110.749091 
L 180.610284 110.749091 
L 180.88229 109.019326 
L 181.879646 109.019326 
L 182.121429 107.328 
L 182.393435 114.8544 
L 182.635219 107.328 
L 183.149008 107.328 
L 183.390792 105.673846 
L 183.632575 113.117538 
L 183.904581 105.673846 
L 184.388148 105.673846 
L 184.660154 111.418435 
L 185.143721 111.418435 
L 185.415727 104.055652 
L 185.65751 104.055652 
L 185.899294 109.755871 
L 186.413083 109.755871 
L 186.654866 102.472258 
L 186.926873 109.755871 
L 187.168656 108.128681 
L 188.166012 108.128681 
L 188.438018 106.535747 
L 188.921585 106.535747 
L 189.193591 113.666021 
L 189.435374 106.535747 
L 189.677158 104.976 
L 190.190947 104.976 
L 190.432731 112.032 
L 190.704737 112.032 
L 190.94652 110.43167 
L 191.188304 103.448412 
L 191.46031 110.43167 
L 191.943876 110.43167 
L 192.215883 108.864 
L 192.457666 101.952 
L 192.699449 108.864 
L 193.213239 108.864 
L 193.455022 107.328 
L 193.727028 114.170182 
L 193.968812 107.328 
L 194.482601 107.328 
L 194.724384 105.82272 
L 194.966168 112.59648 
L 195.238174 105.82272 
L 195.721741 105.82272 
L 195.993747 111.053941 
L 196.477314 111.053941 
L 196.74932 104.347248 
L 196.991103 104.347248 
L 197.232886 109.541647 
L 197.746676 109.541647 
L 197.988459 102.900706 
L 198.260465 109.541647 
L 198.502249 108.058718 
L 199.016038 108.058718 
L 199.257822 114.635184 
L 199.499605 108.058718 
L 199.771611 106.604308 
L 200.255178 106.604308 
L 200.527184 113.117538 
L 200.768967 106.604308 
L 201.010751 105.1776 
L 201.282757 105.1776 
L 201.52454 111.6288 
L 202.03833 111.6288 
L 202.280113 110.168151 
L 202.521896 103.777811 
L 202.793903 110.168151 
L 203.277469 110.168151 
L 203.549475 108.734804 
L 204.546832 108.734804 
L 204.788615 107.328 
L 205.816194 107.328 
L 206.057977 112.161468 
L 206.299761 112.161468 
L 206.571767 105.947009 
L 207.055334 105.947009 
L 207.32734 110.749091 
L 207.569123 110.749091 
L 207.810906 104.591127 
L 208.082913 104.591127 
L 208.324696 110.749091 
L 208.566479 109.362162 
L 209.080269 109.362162 
L 209.322052 103.259676 
L 209.594058 109.362162 
L 209.835842 108 
L 210.833198 108 
L 211.105204 106.661947 
L 211.588771 106.661947 
L 211.860777 112.656425 
L 212.10256 106.661947 
L 212.344344 105.347368 
L 212.61635 105.347368 
L 212.858133 111.289263 
L 213.099916 111.289263 
L 213.371923 105.347368 
L 213.613706 104.055652 
L 213.855489 104.055652 
L 214.127495 109.945878 
L 214.611062 109.945878 
L 214.883068 108.625655 
L 215.880425 108.625655 
L 216.122208 107.328 
L 217.149787 107.328 
L 217.39157 111.792814 
L 217.633354 111.792814 
L 217.90536 106.052339 
L 218.388926 106.052339 
L 218.660933 110.490353 
L 218.902716 110.490353 
L 219.144499 104.798118 
L 219.416505 104.798118 
L 219.658289 110.490353 
L 219.900072 109.2096 
L 220.413862 109.2096 
L 220.655645 103.5648 
L 220.927651 109.2096 
L 221.169435 107.950017 
L 222.166791 107.950017 
L 222.438797 106.711082 
L 222.922364 106.711082 
L 223.19437 112.263344 
L 223.436153 106.711082 
L 223.677936 105.492293 
L 223.949943 105.492293 
L 224.191726 110.999415 
L 224.433509 110.999415 
L 224.705515 105.492293 
L 224.947299 104.293161 
L 225.189082 104.293161 
L 225.461088 109.755871 
L 225.944655 109.755871 
L 226.216661 108.532224 
L 227.214017 108.532224 
L 227.455801 107.328 
L 228.48338 107.328 
L 228.725163 111.476409 
L 228.966946 111.476409 
L 229.238953 106.14274 
L 229.722519 106.14274 
L 229.994525 110.268 
L 230.236309 110.268 
L 230.478092 104.976 
L 230.750098 104.976 
L 230.991882 110.268 
L 231.233665 109.078326 
L 231.505671 109.078326 
L 231.747455 103.827349 
L 231.989238 103.827349 
L 232.261244 109.078326 
L 232.503027 107.906954 
L 233.500384 107.906954 
L 233.77239 106.753466 
L 234.769746 106.753466 
L 235.011529 105.617455 
L 235.283535 105.617455 
L 235.525319 110.749091 
L 235.767102 110.749091 
L 236.039108 105.617455 
L 236.280892 104.498526 
L 236.522675 104.498526 
L 236.794681 109.591579 
L 237.036465 109.591579 
L 237.278248 104.498526 
L 237.550254 103.396299 
L 237.792037 108.451343 
L 238.54761 108.451343 
L 238.789394 107.328 
L 239.816973 107.328 
L 240.058756 111.201882 
L 240.300539 106.221176 
L 241.056112 106.221176 
L 241.328118 110.074861 
L 241.569902 110.074861 
L 241.811685 105.130511 
L 242.083691 105.130511 
L 242.325475 110.074861 
L 242.567258 108.964174 
L 242.839264 108.964174 
L 243.081047 104.055652 
L 243.322831 104.055652 
L 243.594837 108.964174 
L 243.83662 107.869468 
L 244.833976 107.869468 
L 245.105983 106.7904 
L 245.347766 106.7904 
L 245.589549 111.6288 
L 245.861555 106.7904 
L 246.103339 106.7904 
L 246.345122 105.726638 
L 246.617128 105.726638 
L 246.858912 110.530723 
L 247.100695 110.530723 
L 247.372701 105.726638 
L 247.614485 104.677859 
L 247.856268 109.448113 
L 248.370057 109.448113 
L 248.611841 104.677859 
L 248.883847 103.643748 
L 249.12563 108.380643 
L 249.881203 108.380643 
L 250.122986 112.032 
L 250.394993 107.328 
L 251.150565 107.328 
L 251.392349 110.961434 
L 251.634132 106.289876 
L 252.147922 106.289876 
L 252.389705 110.961434 
L 252.661711 109.905534 
L 252.903495 109.905534 
L 253.145278 105.265973 
L 253.417284 105.265973 
L 253.659067 109.905534 
L 253.900851 108.864 
L 254.172857 108.864 
L 254.41464 104.256 
L 254.656424 108.864 
L 254.92843 108.864 
L 255.170213 107.836541 
L 256.167569 107.836541 
L 256.439575 106.822872 
L 256.681359 106.822872 
L 256.923142 111.36902 
L 257.195148 106.822872 
L 257.436932 106.822872 
L 257.678715 105.82272 
L 257.950721 105.82272 
L 258.192505 110.33856 
L 258.434288 110.33856 
L 258.706294 105.82272 
L 258.948077 104.835815 
L 259.189861 109.321748 
L 259.70365 109.321748 
L 259.945434 104.835815 
L 260.21744 103.861895 
L 260.459223 108.318316 
L 261.214796 108.318316 
L 261.456579 111.755294 
L 261.728586 107.328 
L 262.484158 107.328 
L 262.725942 110.749091 
L 262.967725 106.350545 
L 263.481515 106.350545 
L 263.723298 110.749091 
L 263.995304 109.755871 
L 264.237087 109.755871 
L 264.478871 105.385703 
L 264.750877 105.385703 
L 264.99266 109.755871 
L 265.234444 108.775385 
L 265.50645 108.775385 
L 265.748233 104.433231 
L 265.990016 108.775385 
L 266.262023 108.775385 
L 266.503806 107.807389 
L 267.501162 107.807389 
L 267.773168 106.851646 
L 268.014952 106.851646 
L 268.256735 111.138835 
L 268.528741 106.851646 
L 268.770525 106.851646 
L 269.012308 105.907925 
L 269.284314 105.907925 
L 269.526097 110.168151 
L 269.767881 110.168151 
L 270.039887 105.907925 
L 270.28167 104.976 
L 270.523454 109.2096 
L 271.037243 109.2096 
L 271.279026 104.976 
L 271.551033 104.055652 
L 271.792816 108.262957 
L 272.548389 108.262957 
L 272.790172 111.509333 
L 273.062178 107.328 
L 273.817751 107.328 
L 274.059535 110.560196 
L 274.301318 106.404515 
L 274.815107 106.404515 
L 275.056891 110.560196 
L 275.328897 109.622634 
L 275.57068 109.622634 
L 275.812464 105.492293 
L 276.08447 105.492293 
L 276.326253 109.622634 
L 276.568036 108.696436 
L 276.840043 108.696436 
L 277.081826 104.591127 
L 277.323609 108.696436 
L 277.595616 108.696436 
L 277.837399 107.781398 
L 278.834755 107.781398 
L 279.106761 106.877317 
L 279.348545 106.877317 
L 279.590328 110.933461 
L 279.862334 106.877317 
L 280.104117 106.877317 
L 280.345901 105.984 
L 280.617907 105.984 
L 280.85969 110.016 
L 281.101474 110.016 
L 281.37348 105.984 
L 281.615263 105.101254 
L 281.857046 109.109396 
L 282.370836 109.109396 
L 282.612619 105.101254 
L 282.884626 104.228894 
L 283.126409 108.213459 
L 283.881982 108.213459 
L 284.123765 111.289263 
L 284.395771 107.328 
L 285.151344 107.328 
L 285.393127 110.39107 
L 285.634911 106.452837 
L 286.1487 106.452837 
L 286.390484 110.39107 
L 286.66249 109.50326 
L 286.904273 109.50326 
L 287.146056 105.587792 
L 287.418063 105.587792 
L 287.659846 109.50326 
L 287.901629 108.625655 
L 288.173636 108.625655 
L 288.415419 104.73269 
L 288.657202 108.625655 
L 288.929208 108.625655 
L 289.170992 107.75808 
L 289.412775 107.75808 
L 289.684781 103.88736 
L 289.926565 107.75808 
L 290.168348 107.75808 
L 290.440354 106.900364 
L 290.682137 106.900364 
L 290.923921 110.749091 
L 291.195927 106.900364 
L 291.43771 106.900364 
L 291.679494 106.052339 
L 291.9515 106.052339 
L 292.193283 109.879322 
L 292.435066 106.052339 
L 292.707073 106.052339 
L 292.948856 105.213843 
L 293.190639 109.019326 
L 293.704429 109.019326 
L 293.946212 105.213843 
L 294.218218 104.384715 
L 294.460002 108.168939 
L 294.973791 108.168939 
L 295.215575 104.384715 
L 295.457358 107.328 
L 296.484937 107.328 
L 296.72672 110.238762 
L 296.968504 106.496354 
L 297.482293 106.496354 
L 297.724076 110.238762 
L 297.996083 109.395692 
L 298.237866 105.673846 
L 298.751656 105.673846 
L 298.993439 109.395692 
L 299.235222 108.561836 
L 299.507228 108.561836 
L 299.749012 104.860328 
L 299.990795 108.561836 
L 300.262801 108.561836 
L 300.504585 107.737043 
L 300.746368 107.737043 
L 301.018374 104.055652 
L 301.260157 107.737043 
L 301.501941 107.737043 
L 301.773947 106.921168 
L 302.01573 106.921168 
L 302.257514 110.582659 
L 302.52952 106.921168 
L 302.771303 106.921168 
L 303.013086 106.114065 
L 303.285093 106.114065 
L 303.526876 109.755871 
L 303.768659 106.114065 
L 304.040666 106.114065 
L 304.282449 105.315594 
L 304.524232 108.937925 
L 305.038022 108.937925 
L 305.279805 105.315594 
L 305.551811 104.525617 
L 305.793595 108.128681 
L 306.307384 108.128681 
L 306.549167 104.525617 
L 306.790951 107.328 
L 307.81853 107.328 
L 308.060313 110.100884 
L 308.302096 106.535747 
L 308.815886 106.535747 
L 309.057669 110.100884 
L 309.329676 109.298262 
L 309.571459 105.751791 
L 310.085248 105.751791 
L 310.327032 109.298262 
L 310.568815 108.504 
L 310.840821 108.504 
L 311.082605 104.976 
L 311.324388 108.504 
L 311.596394 108.504 
L 311.838177 107.717969 
L 312.079961 107.717969 
L 312.351967 104.208249 
L 312.59375 107.717969 
L 312.835534 107.717969 
L 313.10754 106.940041 
L 313.349323 106.940041 
L 313.591106 110.43167 
L 313.863113 106.940041 
L 314.104896 106.940041 
L 314.346679 106.170092 
L 314.618686 106.170092 
L 314.860469 109.643815 
L 315.102252 106.170092 
L 315.374258 106.170092 
L 315.616042 105.408 
L 315.857825 108.864 
L 316.371615 108.864 
L 316.613398 105.408 
L 316.885404 104.653645 
L 317.127187 108.092102 
L 317.640977 108.092102 
L 317.88276 104.653645 
L 318.124544 103.906909 
L 318.39655 107.328 
L 319.152123 107.328 
L 319.393906 109.975477 
L 319.635689 106.571578 
L 320.391262 106.571578 
L 320.663268 109.2096 
L 320.905052 105.82272 
L 321.418841 105.82272 
L 321.660625 109.2096 
L 321.902408 108.451343 
L 322.174414 108.451343 
L 322.416197 105.081313 
L 322.657981 105.081313 
L 322.929987 108.451343 
L 323.17177 107.700594 
L 323.413554 107.700594 
L 323.68556 104.347248 
L 323.927343 107.700594 
L 324.169126 107.700594 
L 324.441133 106.957241 
L 325.438489 106.957241 
L 325.680272 106.221176 
L 325.952278 106.221176 
L 326.194062 109.541647 
L 326.435845 106.221176 
L 326.707851 106.221176 
L 326.949635 105.492293 
L 327.191418 105.492293 
L 327.463424 108.796566 
L 327.705207 108.796566 
L 327.946991 105.492293 
L 328.218997 104.770485 
L 328.46078 108.058718 
L 328.97457 108.058718 
L 329.216353 104.770485 
L 329.458136 104.055652 
L 329.730143 107.328 
L 330.485716 107.328 
L 330.727499 109.860923 
L 330.969282 106.604308 
L 331.724855 106.604308 
L 331.996861 109.128574 
L 332.238645 105.887541 
L 332.752434 105.887541 
L 332.994217 109.128574 
L 333.236001 108.4032 
L 333.508007 108.4032 
L 333.74979 105.1776 
L 333.991574 105.1776 
L 334.26358 108.4032 
L 334.505363 107.684701 
L 334.747146 107.684701 
L 335.019153 104.474389 
L 335.260936 107.684701 
L 335.502719 107.684701 
L 335.774726 106.972981 
L 336.772082 106.972981 
L 337.013865 106.267944 
L 337.285871 106.267944 
L 337.527655 109.448113 
L 337.769438 106.267944 
L 338.041444 106.267944 
L 338.283227 105.569495 
L 338.525011 105.569495 
L 338.797017 108.734804 
L 339.0388 108.734804 
L 339.280584 105.569495 
L 339.55259 104.877544 
L 339.794373 108.02813 
L 340.308163 108.02813 
L 340.549946 104.877544 
L 340.791729 104.192 
L 341.063736 107.328 
L 341.819308 107.328 
L 342.061092 109.755871 
L 342.302875 106.634323 
L 343.058448 106.634323 
L 343.330454 109.054239 
L 343.572237 105.947009 
L 344.086027 105.947009 
L 344.32781 109.054239 
L 344.569594 108.359014 
L 344.8416 108.359014 
L 345.083383 105.265973 
L 345.325166 105.265973 
L 345.597173 108.359014 
L 345.838956 107.670109 
L 346.080739 107.670109 
L 346.352746 104.591127 
L 346.594529 107.670109 
L 346.836312 107.670109 
L 347.108318 106.987439 
L 348.105675 106.987439 
L 348.347458 106.310919 
L 348.619464 106.310919 
L 348.861247 109.362162 
L 349.103031 106.310919 
L 349.375037 106.310919 
L 349.61682 105.640466 
L 349.858604 105.640466 
L 350.13061 108.678027 
L 350.372393 108.678027 
L 350.614176 105.640466 
L 350.886183 104.976 
L 351.127966 108 
L 351.641756 108 
L 351.883539 104.976 
L 352.125322 104.31744 
L 352.397328 107.328 
L 353.152901 107.328 
L 353.394685 109.659186 
L 353.636468 106.661947 
L 354.392041 106.661947 
L 354.664047 108.985797 
L 354.90583 106.001762 
L 355.41962 106.001762 
L 355.661403 108.985797 
L 355.903186 108.318316 
L 356.175193 108.318316 
L 356.416976 105.347368 
L 356.658759 105.347368 
L 356.930766 108.318316 
L 357.172549 107.656664 
L 357.414332 107.656664 
L 357.686338 104.69869 
L 357.928122 107.656664 
L 358.169905 107.656664 
L 358.441911 107.000765 
L 359.439267 107.000765 
L 359.681051 106.350545 
L 359.953057 106.350545 
L 360.19484 109.282909 
L 360.436624 106.350545 
L 360.70863 106.350545 
L 360.950413 105.705931 
L 361.192196 105.705931 
L 361.464203 108.625655 
L 361.705986 108.625655 
L 361.947769 105.705931 
L 362.219776 105.06685 
L 362.461559 107.974043 
L 362.975348 107.974043 
L 363.217132 105.06685 
L 363.458915 104.433231 
L 363.730921 107.328 
L 364.486494 107.328 
L 364.728277 109.569906 
L 364.970061 106.687455 
L 365.725634 106.687455 
L 365.99764 108.922576 
L 366.239423 106.052339 
L 366.753213 106.052339 
L 366.994996 108.922576 
L 367.236779 108.280709 
L 367.508786 108.280709 
L 367.750569 105.422582 
L 367.992352 105.422582 
L 368.264358 108.280709 
L 368.506142 107.644235 
L 368.747925 107.644235 
L 369.019931 104.798118 
L 369.261715 107.644235 
L 369.503498 107.644235 
L 369.775504 107.013088 
L 370.77286 107.013088 
L 371.014644 106.3872 
L 371.28665 106.3872 
L 371.528433 109.2096 
L 371.770216 106.3872 
L 372.042223 106.3872 
L 372.284006 105.766506 
L 372.525789 105.766506 
L 372.797796 108.577195 
L 373.039579 108.577195 
L 373.281362 105.766506 
L 373.553368 105.150942 
L 373.795152 107.950017 
L 374.308941 107.950017 
L 374.550725 105.150942 
L 374.792508 104.540444 
L 375.064514 107.328 
L 375.820087 107.328 
L 376.06187 109.487213 
L 376.303654 106.711082 
L 377.059226 106.711082 
L 377.331233 108.864 
L 377.573016 106.0992 
L 378.086806 106.0992 
L 378.328589 108.864 
L 378.570372 108.245854 
L 378.842378 108.245854 
L 379.084162 105.492293 
L 379.325945 105.492293 
L 379.597951 108.245854 
L 379.839735 107.632713 
L 380.837091 107.632713 
L 381.109097 107.024516 
L 382.106453 107.024516 
L 382.348236 106.421205 
L 382.620243 106.421205 
L 382.862026 109.14159 
L 383.103809 109.14159 
L 383.375816 106.421205 
L 383.617599 105.82272 
L 383.859382 105.82272 
L 384.131388 108.532224 
L 384.373172 108.532224 
L 384.614955 105.82272 
L 384.886961 105.229004 
L 385.128745 107.927713 
L 385.884317 107.927713 
L 386.126101 107.328 
L 387.15368 107.328 
L 387.395463 106.733028 
L 388.392819 106.733028 
L 388.664826 108.809575 
L 388.906609 108.809575 
L 389.148392 106.14274 
L 389.662182 106.14274 
L 389.903965 108.213459 
L 390.175971 108.213459 
L 390.417755 105.557082 
L 390.659538 105.557082 
L 390.931544 108.213459 
L 391.173327 107.622 
L 391.687117 107.622 
L 391.9289 104.976 
L 392.170684 107.622 
L 392.44269 107.035144 
L 393.440046 107.035144 
L 393.681829 106.452837 
L 394.195619 106.452837 
L 394.437402 109.078326 
L 394.709408 106.452837 
L 394.951192 105.875027 
L 395.192975 105.875027 
L 395.464981 108.490378 
L 395.706765 108.490378 
L 395.948548 105.875027 
L 396.220554 105.301662 
L 396.462337 105.301662 
L 396.704121 107.906954 
L 397.21791 107.906954 
L 397.459694 107.328 
L 398.487273 107.328 
L 398.487273 107.328 
" style="fill:none;stroke:#1f77b4;stroke-linecap:square;stroke-width:1.5;"/>
   </g>
   <g id="patch_3">
    <path d="M 57.6 307.584 
L 57.6 41.472 
" style="fill:none;stroke:#000000;stroke-linecap:square;stroke-linejoin:miter;stroke-width:0.8;"/>
   </g>
   <g id="patch_4">
    <path d="M 414.72 307.584 
L 414.72 41.472 
" style="fill:none;stroke:#000000;stroke-linecap:square;stroke-linejoin:miter;stroke-width:0.8;"/>
   </g>
   <g id="patch_5">
    <path d="M 57.6 307.584 
L 414.72 307.584 
" style="fill:none;stroke:#000000;stroke-linecap:square;stroke-linejoin:miter;stroke-width:0.8;"/>
   </g>
   <g id="patch_6">
    <path d="M 57.6 41.472 
L 414.72 41.472 
" style="fill:none;stroke:#000000;stroke-linecap:square;stroke-linejoin:miter;stroke-width:0.8;"/>
   </g>
   <g id="text_14">
    <!-- Speed function of time -->
    <g transform="translate(167.024063 35.472)scale(0.12 -0.12)">
     <defs>
      <path id="DejaVuSerif-32"/>
      <path d="M 43.015625 63.71875 
L 38.28125 63.71875 
Q 38.234375 67.390625 36.203125 69.28125 
Q 34.1875 71.1875 30.328125 71.1875 
Q 25.296875 71.1875 23.234375 68.421875 
Q 21.1875 65.671875 21.1875 58.59375 
L 21.1875 51.90625 
L 35.6875 51.90625 
L 35.6875 46.6875 
L 21.1875 46.6875 
L 21.1875 5.171875 
L 32.71875 5.171875 
L 32.71875 0 
L 3.609375 0 
L 3.609375 5.171875 
L 12.203125 5.171875 
L 12.203125 46.6875 
L 3.609375 46.6875 
L 3.609375 51.90625 
L 12.203125 51.90625 
L 12.203125 58.40625 
Q 12.203125 67.09375 16.71875 71.53125 
Q 21.234375 75.984375 29.984375 75.984375 
Q 33.25 75.984375 36.515625 75.390625 
Q 39.796875 74.8125 43.015625 73.578125 
z
" id="DejaVuSerif-102"/>
      <path d="M 35.40625 51.90625 
L 52.203125 51.90625 
L 52.203125 5.171875 
L 60.6875 5.171875 
L 60.6875 0 
L 43.21875 0 
L 43.21875 9.1875 
Q 40.71875 4 36.765625 1.28125 
Q 32.8125 -1.421875 27.59375 -1.421875 
Q 18.953125 -1.421875 14.875 3.484375 
Q 10.796875 8.40625 10.796875 18.890625 
L 10.796875 46.6875 
L 2.6875 46.6875 
L 2.6875 51.90625 
L 19.828125 51.90625 
L 19.828125 21.6875 
Q 19.828125 12.203125 22.140625 8.6875 
Q 24.46875 5.171875 30.421875 5.171875 
Q 36.671875 5.171875 39.9375 9.765625 
Q 43.21875 14.359375 43.21875 23.09375 
L 43.21875 46.6875 
L 35.40625 46.6875 
z
" id="DejaVuSerif-117"/>
      <path d="M 4.109375 0 
L 4.109375 5.171875 
L 12.203125 5.171875 
L 12.203125 46.6875 
L 3.609375 46.6875 
L 3.609375 51.90625 
L 21.1875 51.90625 
L 21.1875 42.671875 
Q 23.6875 47.953125 27.65625 50.640625 
Q 31.640625 53.328125 36.921875 53.328125 
Q 45.515625 53.328125 49.5625 48.390625 
Q 53.609375 43.453125 53.609375 33.015625 
L 53.609375 5.171875 
L 61.625 5.171875 
L 61.625 0 
L 36.8125 0 
L 36.8125 5.171875 
L 44.578125 5.171875 
L 44.578125 30.171875 
Q 44.578125 39.703125 42.234375 43.234375 
Q 39.890625 46.78125 33.984375 46.78125 
Q 27.734375 46.78125 24.453125 42.203125 
Q 21.1875 37.640625 21.1875 28.90625 
L 21.1875 5.171875 
L 29 5.171875 
L 29 0 
z
" id="DejaVuSerif-110"/>
      <path d="M 51.421875 15.578125 
Q 49.515625 7.28125 44.09375 2.921875 
Q 38.671875 -1.421875 30.078125 -1.421875 
Q 18.75 -1.421875 11.859375 6.078125 
Q 4.984375 13.578125 4.984375 25.984375 
Q 4.984375 38.421875 11.859375 45.875 
Q 18.75 53.328125 30.078125 53.328125 
Q 35.015625 53.328125 39.890625 52.171875 
Q 44.78125 51.03125 49.703125 48.6875 
L 49.703125 35.40625 
L 44.484375 35.40625 
Q 43.453125 42.234375 40.015625 45.359375 
Q 36.578125 48.484375 30.171875 48.484375 
Q 22.90625 48.484375 19.1875 42.84375 
Q 15.484375 37.203125 15.484375 25.984375 
Q 15.484375 14.75 19.171875 9.078125 
Q 22.859375 3.421875 30.171875 3.421875 
Q 35.984375 3.421875 39.453125 6.4375 
Q 42.921875 9.46875 44.1875 15.578125 
z
" id="DejaVuSerif-99"/>
      <path d="M 10.796875 46.6875 
L 2.875 46.6875 
L 2.875 51.90625 
L 10.796875 51.90625 
L 10.796875 68.015625 
L 19.828125 68.015625 
L 19.828125 51.90625 
L 36.71875 51.90625 
L 36.71875 46.6875 
L 19.828125 46.6875 
L 19.828125 13.71875 
Q 19.828125 7.125 21.09375 5.265625 
Q 22.359375 3.421875 25.78125 3.421875 
Q 29.296875 3.421875 30.90625 5.484375 
Q 32.515625 7.5625 32.625 12.203125 
L 39.40625 12.203125 
Q 39.015625 5.125 35.546875 1.84375 
Q 32.078125 -1.421875 25 -1.421875 
Q 17.234375 -1.421875 14.015625 2.015625 
Q 10.796875 5.46875 10.796875 13.71875 
z
" id="DejaVuSerif-116"/>
      <path d="M 30.078125 3.421875 
Q 37.3125 3.421875 40.984375 9.125 
Q 44.671875 14.84375 44.671875 25.984375 
Q 44.671875 37.109375 40.984375 42.796875 
Q 37.3125 48.484375 30.078125 48.484375 
Q 22.859375 48.484375 19.171875 42.796875 
Q 15.484375 37.109375 15.484375 25.984375 
Q 15.484375 14.84375 19.1875 9.125 
Q 22.90625 3.421875 30.078125 3.421875 
z
M 30.078125 -1.421875 
Q 18.75 -1.421875 11.859375 6.078125 
Q 4.984375 13.578125 4.984375 25.984375 
Q 4.984375 38.375 11.84375 45.84375 
Q 18.703125 53.328125 30.078125 53.328125 
Q 41.453125 53.328125 48.3125 45.84375 
Q 55.171875 38.375 55.171875 25.984375 
Q 55.171875 13.578125 48.3125 6.078125 
Q 41.453125 -1.421875 30.078125 -1.421875 
z
" id="DejaVuSerif-111"/>
     </defs>
     <use xlink:href="#DejaVuSerif-83"/>
     <use x="68.505859" xlink:href="#DejaVuSerif-112"/>
     <use x="132.519531" xlink:href="#DejaVuSerif-101"/>
     <use x="191.699219" xlink:href="#DejaVuSerif-101"/>
     <use x="250.878906" xlink:href="#DejaVuSerif-100"/>
     <use x="314.892578" xlink:href="#DejaVuSerif-32"/>
     <use x="346.679688" xlink:href="#DejaVuSerif-102"/>
     <use x="383.691406" xlink:href="#DejaVuSerif-117"/>
     <use x="448.095703" xlink:href="#DejaVuSerif-110"/>
     <use x="512.5" xlink:href="#DejaVuSerif-99"/>
     <use x="568.505859" xlink:href="#DejaVuSerif-116"/>
     <use x="608.691406" xlink:href="#DejaVuSerif-105"/>
     <use x="640.673828" xlink:href="#DejaVuSerif-111"/>
     <use x="700.878906" xlink:href="#DejaVuSerif-110"/>
     <use x="765.283203" xlink:href="#DejaVuSerif-32"/>
     <use x="797.070312" xlink:href="#DejaVuSerif-111"/>
     <use x="857.275391" xlink:href="#DejaVuSerif-102"/>
     <use x="894.287109" xlink:href="#DejaVuSerif-32"/>
     <use x="926.074219" xlink:href="#DejaVuSerif-116"/>
     <use x="966.259766" xlink:href="#DejaVuSerif-105"/>
     <use x="998.242188" xlink:href="#DejaVuSerif-109"/>
     <use x="1093.066406" xlink:href="#DejaVuSerif-101"/>
    </g>
   </g>
  </g>
 </g>
 <defs>
  <clipPath id="p7661bb7592">
   <rect height="266.112" width="357.12" x="57.6" y="41.472"/>
  </clipPath>
 </defs>
</svg>
