<?xml version="1.0" encoding="utf-8" standalone="no"?>
<!DOCTYPE svg PUBLIC "-//W3C//DTD SVG 1.1//EN"
  "http://www.w3.org/Graphics/SVG/1.1/DTD/svg11.dtd">
<!-- Created with matplotlib (https://matplotlib.org/) -->
<svg height="345.6pt" version="1.1" viewBox="0 0 460.8 345.6" width="460.8pt" xmlns="http://www.w3.org/2000/svg" xmlns:xlink="http://www.w3.org/1999/xlink">
 <metadata>
  <rdf:RDF xmlns:cc="http://creativecommons.org/ns#" xmlns:dc="http://purl.org/dc/elements/1.1/" xmlns:rdf="http://www.w3.org/1999/02/22-rdf-syntax-ns#">
   <cc:Work>
    <dc:type rdf:resource="http://purl.org/dc/dcmitype/StillImage"/>
    <dc:date>2023-01-05T00:34:20.252213</dc:date>
    <dc:format>image/svg+xml</dc:format>
    <dc:creator>
     <cc:Agent>
      <dc:title>Matplotlib v3.3.4, https://matplotlib.org/</dc:title>
     </cc:Agent>
    </dc:creator>
   </cc:Work>
  </rdf:RDF>
 </metadata>
 <defs>
  <style type="text/css">*{stroke-linecap:butt;stroke-linejoin:round;}</style>
 </defs>
 <g id="figure_1">
  <g id="patch_1">
   <path d="M 0 345.6 
L 460.8 345.6 
L 460.8 0 
L 0 0 
z
" style="fill:#ffffff;"/>
  </g>
  <g id="axes_1">
   <g id="patch_2">
    <path d="M 57.6 307.584 
L 414.72 307.584 
L 414.72 41.472 
L 57.6 41.472 
z
" style="fill:#ffffff;"/>
   </g>
   <g id="matplotlib.axis_1">
    <g id="xtick_1">
     <g id="line2d_1">
      <defs>
       <path d="M 0 0 
L 0 3.5 
" id="m7670da4774" style="stroke:#000000;stroke-width:0.8;"/>
      </defs>
      <g>
       <use style="stroke:#000000;stroke-width:0.8;" x="59.138945" xlink:href="#m7670da4774" y="307.584"/>
      </g>
     </g>
     <g id="text_1">
      <!-- 300 -->
      <g transform="translate(49.595195 322.182437)scale(0.1 -0.1)">
       <defs>
        <path d="M 9.71875 69.828125 
Q 15.4375 71.96875 20.671875 73.09375 
Q 25.921875 74.21875 30.515625 74.21875 
Q 41.21875 74.21875 47.21875 69.59375 
Q 53.21875 64.984375 53.21875 56.78125 
Q 53.21875 50.203125 49.0625 45.78125 
Q 44.921875 41.359375 37.3125 39.796875 
Q 46.296875 38.53125 51.25 33.28125 
Q 56.203125 28.03125 56.203125 19.671875 
Q 56.203125 9.46875 49.34375 4.015625 
Q 42.484375 -1.421875 29.59375 -1.421875 
Q 23.875 -1.421875 18.421875 -0.1875 
Q 12.984375 1.03125 7.625 3.515625 
L 7.625 17.671875 
L 13.09375 17.671875 
Q 13.578125 10.640625 17.828125 7.03125 
Q 22.078125 3.421875 29.78125 3.421875 
Q 37.25 3.421875 41.578125 7.734375 
Q 45.90625 12.0625 45.90625 19.578125 
Q 45.90625 28.171875 41.453125 32.59375 
Q 37.015625 37.015625 28.421875 37.015625 
L 23.78125 37.015625 
L 23.78125 42 
L 26.21875 42 
Q 34.765625 42 39.03125 45.53125 
Q 43.3125 49.078125 43.3125 56.203125 
Q 43.3125 62.59375 39.796875 65.984375 
Q 36.28125 69.390625 29.6875 69.390625 
Q 23.09375 69.390625 19.453125 66.265625 
Q 15.828125 63.140625 15.1875 56.984375 
L 9.71875 56.984375 
z
" id="DejaVuSerif-51"/>
        <path d="M 31.78125 3.421875 
Q 39.265625 3.421875 42.96875 11.625 
Q 46.6875 19.828125 46.6875 36.375 
Q 46.6875 52.984375 42.96875 61.1875 
Q 39.265625 69.390625 31.78125 69.390625 
Q 24.3125 69.390625 20.59375 61.1875 
Q 16.890625 52.984375 16.890625 36.375 
Q 16.890625 19.828125 20.59375 11.625 
Q 24.3125 3.421875 31.78125 3.421875 
z
M 31.78125 -1.421875 
Q 19.921875 -1.421875 13.25 8.53125 
Q 6.59375 18.5 6.59375 36.375 
Q 6.59375 54.296875 13.25 64.25 
Q 19.921875 74.21875 31.78125 74.21875 
Q 43.703125 74.21875 50.34375 64.25 
Q 56.984375 54.296875 56.984375 36.375 
Q 56.984375 18.5 50.34375 8.53125 
Q 43.703125 -1.421875 31.78125 -1.421875 
z
" id="DejaVuSerif-48"/>
       </defs>
       <use xlink:href="#DejaVuSerif-51"/>
       <use x="63.623047" xlink:href="#DejaVuSerif-48"/>
       <use x="127.246094" xlink:href="#DejaVuSerif-48"/>
      </g>
     </g>
    </g>
    <g id="xtick_2">
     <g id="line2d_2">
      <g>
       <use style="stroke:#000000;stroke-width:0.8;" x="127.00861" xlink:href="#m7670da4774" y="307.584"/>
      </g>
     </g>
     <g id="text_2">
      <!-- 320 -->
      <g transform="translate(117.46486 322.182437)scale(0.1 -0.1)">
       <defs>
        <path d="M 12.796875 55.515625 
L 7.328125 55.515625 
L 7.328125 68.5 
Q 12.546875 71.296875 17.84375 72.75 
Q 23.140625 74.21875 28.21875 74.21875 
Q 39.59375 74.21875 46.1875 68.703125 
Q 52.78125 63.1875 52.78125 53.71875 
Q 52.78125 43.015625 37.84375 28.125 
Q 36.671875 27 36.078125 26.421875 
L 17.671875 8.015625 
L 48.09375 8.015625 
L 48.09375 17 
L 53.8125 17 
L 53.8125 0 
L 6.78125 0 
L 6.78125 5.328125 
L 28.90625 27.390625 
Q 36.234375 34.71875 39.359375 40.84375 
Q 42.484375 46.96875 42.484375 53.71875 
Q 42.484375 61.078125 38.640625 65.234375 
Q 34.8125 69.390625 28.078125 69.390625 
Q 21.09375 69.390625 17.28125 65.921875 
Q 13.484375 62.453125 12.796875 55.515625 
z
" id="DejaVuSerif-50"/>
       </defs>
       <use xlink:href="#DejaVuSerif-51"/>
       <use x="63.623047" xlink:href="#DejaVuSerif-50"/>
       <use x="127.246094" xlink:href="#DejaVuSerif-48"/>
      </g>
     </g>
    </g>
    <g id="xtick_3">
     <g id="line2d_3">
      <g>
       <use style="stroke:#000000;stroke-width:0.8;" x="194.878276" xlink:href="#m7670da4774" y="307.584"/>
      </g>
     </g>
     <g id="text_3">
      <!-- 340 -->
      <g transform="translate(185.334526 322.182437)scale(0.1 -0.1)">
       <defs>
        <path d="M 34.90625 24.703125 
L 34.90625 63.484375 
L 10.015625 24.703125 
z
M 56.390625 0 
L 23.1875 0 
L 23.1875 5.171875 
L 34.90625 5.171875 
L 34.90625 19.484375 
L 3.078125 19.484375 
L 3.078125 24.8125 
L 35.015625 74.21875 
L 44.671875 74.21875 
L 44.671875 24.703125 
L 58.59375 24.703125 
L 58.59375 19.484375 
L 44.671875 19.484375 
L 44.671875 5.171875 
L 56.390625 5.171875 
z
" id="DejaVuSerif-52"/>
       </defs>
       <use xlink:href="#DejaVuSerif-51"/>
       <use x="63.623047" xlink:href="#DejaVuSerif-52"/>
       <use x="127.246094" xlink:href="#DejaVuSerif-48"/>
      </g>
     </g>
    </g>
    <g id="xtick_4">
     <g id="line2d_4">
      <g>
       <use style="stroke:#000000;stroke-width:0.8;" x="262.747942" xlink:href="#m7670da4774" y="307.584"/>
      </g>
     </g>
     <g id="text_4">
      <!-- 360 -->
      <g transform="translate(253.204192 322.182437)scale(0.1 -0.1)">
       <defs>
        <path d="M 32.71875 3.421875 
Q 39.59375 3.421875 43.296875 8.46875 
Q 47.015625 13.53125 47.015625 23 
Q 47.015625 32.46875 43.296875 37.515625 
Q 39.59375 42.578125 32.71875 42.578125 
Q 25.734375 42.578125 22.0625 37.6875 
Q 18.40625 32.8125 18.40625 23.578125 
Q 18.40625 13.875 22.109375 8.640625 
Q 25.828125 3.421875 32.71875 3.421875 
z
M 16.796875 40.140625 
Q 20.125 43.796875 24.3125 45.59375 
Q 28.515625 47.40625 33.796875 47.40625 
Q 44.671875 47.40625 51 40.859375 
Q 57.328125 34.328125 57.328125 23 
Q 57.328125 11.921875 50.515625 5.25 
Q 43.703125 -1.421875 32.328125 -1.421875 
Q 19.96875 -1.421875 13.328125 7.78125 
Q 6.6875 17 6.6875 34.078125 
Q 6.6875 53.21875 14.546875 63.71875 
Q 22.40625 74.21875 36.71875 74.21875 
Q 40.578125 74.21875 44.828125 73.484375 
Q 49.078125 72.75 53.515625 71.296875 
L 53.515625 59.28125 
L 48 59.28125 
Q 47.40625 64.203125 44.234375 66.796875 
Q 41.0625 69.390625 35.6875 69.390625 
Q 26.21875 69.390625 21.578125 62.203125 
Q 16.9375 55.03125 16.796875 40.140625 
z
" id="DejaVuSerif-54"/>
       </defs>
       <use xlink:href="#DejaVuSerif-51"/>
       <use x="63.623047" xlink:href="#DejaVuSerif-54"/>
       <use x="127.246094" xlink:href="#DejaVuSerif-48"/>
      </g>
     </g>
    </g>
    <g id="xtick_5">
     <g id="line2d_5">
      <g>
       <use style="stroke:#000000;stroke-width:0.8;" x="330.617607" xlink:href="#m7670da4774" y="307.584"/>
      </g>
     </g>
     <g id="text_5">
      <!-- 380 -->
      <g transform="translate(321.073857 322.182437)scale(0.1 -0.1)">
       <defs>
        <path d="M 46.578125 19.921875 
Q 46.578125 27.734375 42.6875 32.046875 
Q 38.8125 36.375 31.78125 36.375 
Q 24.75 36.375 20.875 32.046875 
Q 17 27.734375 17 19.921875 
Q 17 12.0625 20.875 7.734375 
Q 24.75 3.421875 31.78125 3.421875 
Q 38.8125 3.421875 42.6875 7.734375 
Q 46.578125 12.0625 46.578125 19.921875 
z
M 44.578125 55.328125 
Q 44.578125 61.96875 41.203125 65.671875 
Q 37.84375 69.390625 31.78125 69.390625 
Q 25.78125 69.390625 22.390625 65.671875 
Q 19 61.96875 19 55.328125 
Q 19 48.640625 22.390625 44.921875 
Q 25.78125 41.21875 31.78125 41.21875 
Q 37.84375 41.21875 41.203125 44.921875 
Q 44.578125 48.640625 44.578125 55.328125 
z
M 39.3125 38.8125 
Q 47.609375 37.703125 52.25 32.6875 
Q 56.890625 27.6875 56.890625 19.921875 
Q 56.890625 9.671875 50.390625 4.125 
Q 43.890625 -1.421875 31.78125 -1.421875 
Q 19.734375 -1.421875 13.203125 4.125 
Q 6.6875 9.671875 6.6875 19.921875 
Q 6.6875 27.6875 11.328125 32.6875 
Q 15.96875 37.703125 24.3125 38.8125 
Q 16.9375 40.140625 13 44.40625 
Q 9.078125 48.6875 9.078125 55.328125 
Q 9.078125 64.109375 15.125 69.15625 
Q 21.1875 74.21875 31.78125 74.21875 
Q 42.390625 74.21875 48.4375 69.15625 
Q 54.5 64.109375 54.5 55.328125 
Q 54.5 48.6875 50.5625 44.40625 
Q 46.625 40.140625 39.3125 38.8125 
z
" id="DejaVuSerif-56"/>
       </defs>
       <use xlink:href="#DejaVuSerif-51"/>
       <use x="63.623047" xlink:href="#DejaVuSerif-56"/>
       <use x="127.246094" xlink:href="#DejaVuSerif-48"/>
      </g>
     </g>
    </g>
    <g id="xtick_6">
     <g id="line2d_6">
      <g>
       <use style="stroke:#000000;stroke-width:0.8;" x="398.487273" xlink:href="#m7670da4774" y="307.584"/>
      </g>
     </g>
     <g id="text_6">
      <!-- 400 -->
      <g transform="translate(388.943523 322.182437)scale(0.1 -0.1)">
       <use xlink:href="#DejaVuSerif-52"/>
       <use x="63.623047" xlink:href="#DejaVuSerif-48"/>
       <use x="127.246094" xlink:href="#DejaVuSerif-48"/>
      </g>
     </g>
    </g>
    <g id="text_7">
     <!-- Time -->
     <g transform="translate(223.524844 335.860562)scale(0.1 -0.1)">
      <defs>
       <path d="M 19.09375 0 
L 19.09375 5.171875 
L 28.421875 5.171875 
L 28.421875 67.09375 
L 6.984375 67.09375 
L 6.984375 55.71875 
L 0.984375 55.71875 
L 0.984375 72.90625 
L 65.71875 72.90625 
L 65.71875 55.71875 
L 59.71875 55.71875 
L 59.71875 67.09375 
L 38.28125 67.09375 
L 38.28125 5.171875 
L 47.609375 5.171875 
L 47.609375 0 
z
" id="DejaVuSerif-84"/>
       <path d="M 9.71875 68.015625 
Q 9.71875 70.265625 11.34375 71.921875 
Q 12.984375 73.578125 15.28125 73.578125 
Q 17.53125 73.578125 19.15625 71.921875 
Q 20.796875 70.265625 20.796875 68.015625 
Q 20.796875 65.71875 19.1875 64.109375 
Q 17.578125 62.5 15.28125 62.5 
Q 12.984375 62.5 11.34375 64.109375 
Q 9.71875 65.71875 9.71875 68.015625 
z
M 21.1875 5.171875 
L 29.6875 5.171875 
L 29.6875 0 
L 3.609375 0 
L 3.609375 5.171875 
L 12.203125 5.171875 
L 12.203125 46.6875 
L 3.609375 46.6875 
L 3.609375 51.90625 
L 21.1875 51.90625 
z
" id="DejaVuSerif-105"/>
       <path d="M 51.8125 41.796875 
Q 54.390625 47.515625 58.421875 50.421875 
Q 62.453125 53.328125 67.828125 53.328125 
Q 75.984375 53.328125 79.984375 48.265625 
Q 83.984375 43.21875 83.984375 33.015625 
L 83.984375 5.171875 
L 92.09375 5.171875 
L 92.09375 0 
L 67.1875 0 
L 67.1875 5.171875 
L 75 5.171875 
L 75 31.984375 
Q 75 39.9375 72.65625 43.3125 
Q 70.3125 46.6875 64.890625 46.6875 
Q 58.890625 46.6875 55.734375 42.140625 
Q 52.59375 37.59375 52.59375 28.90625 
L 52.59375 5.171875 
L 60.40625 5.171875 
L 60.40625 0 
L 35.796875 0 
L 35.796875 5.171875 
L 43.609375 5.171875 
L 43.609375 32.328125 
Q 43.609375 40.09375 41.265625 43.390625 
Q 38.921875 46.6875 33.5 46.6875 
Q 27.484375 46.6875 24.328125 42.140625 
Q 21.1875 37.59375 21.1875 28.90625 
L 21.1875 5.171875 
L 29 5.171875 
L 29 0 
L 4.109375 0 
L 4.109375 5.171875 
L 12.203125 5.171875 
L 12.203125 46.78125 
L 3.609375 46.78125 
L 3.609375 51.90625 
L 21.1875 51.90625 
L 21.1875 42.671875 
Q 23.6875 47.859375 27.53125 50.59375 
Q 31.390625 53.328125 36.28125 53.328125 
Q 42.328125 53.328125 46.375 50.3125 
Q 50.4375 47.3125 51.8125 41.796875 
z
" id="DejaVuSerif-109"/>
       <path d="M 54.203125 25 
L 15.484375 25 
L 15.484375 24.609375 
Q 15.484375 14.109375 19.4375 8.765625 
Q 23.390625 3.421875 31.109375 3.421875 
Q 37.015625 3.421875 40.796875 6.515625 
Q 44.578125 9.625 46.09375 15.71875 
L 53.328125 15.71875 
Q 51.171875 7.171875 45.375 2.875 
Q 39.59375 -1.421875 30.171875 -1.421875 
Q 18.796875 -1.421875 11.890625 6.078125 
Q 4.984375 13.578125 4.984375 25.984375 
Q 4.984375 38.28125 11.765625 45.796875 
Q 18.5625 53.328125 29.59375 53.328125 
Q 41.359375 53.328125 47.65625 46.0625 
Q 53.953125 38.8125 54.203125 25 
z
M 43.609375 30.171875 
Q 43.3125 39.265625 39.765625 43.875 
Q 36.234375 48.484375 29.59375 48.484375 
Q 23.390625 48.484375 19.828125 43.84375 
Q 16.265625 39.203125 15.484375 30.171875 
z
" id="DejaVuSerif-101"/>
      </defs>
      <use xlink:href="#DejaVuSerif-84"/>
      <use x="66.699219" xlink:href="#DejaVuSerif-105"/>
      <use x="98.681641" xlink:href="#DejaVuSerif-109"/>
      <use x="193.505859" xlink:href="#DejaVuSerif-101"/>
     </g>
    </g>
   </g>
   <g id="matplotlib.axis_2">
    <g id="ytick_1">
     <g id="line2d_7">
      <defs>
       <path d="M 0 0 
L -3.5 0 
" id="m4d4795f1a6" style="stroke:#000000;stroke-width:0.8;"/>
      </defs>
      <g>
       <use style="stroke:#000000;stroke-width:0.8;" x="57.6" xlink:href="#m4d4795f1a6" y="295.488"/>
      </g>
     </g>
     <g id="text_8">
      <!-- 0.0 -->
      <g transform="translate(34.696875 299.287219)scale(0.1 -0.1)">
       <defs>
        <path d="M 9.421875 5.078125 
Q 9.421875 7.8125 11.28125 9.71875 
Q 13.140625 11.625 15.921875 11.625 
Q 18.609375 11.625 20.5 9.71875 
Q 22.40625 7.8125 22.40625 5.078125 
Q 22.40625 2.390625 20.5 0.484375 
Q 18.609375 -1.421875 15.921875 -1.421875 
Q 13.140625 -1.421875 11.28125 0.453125 
Q 9.421875 2.34375 9.421875 5.078125 
z
" id="DejaVuSerif-46"/>
       </defs>
       <use xlink:href="#DejaVuSerif-48"/>
       <use x="63.623047" xlink:href="#DejaVuSerif-46"/>
       <use x="95.410156" xlink:href="#DejaVuSerif-48"/>
      </g>
     </g>
    </g>
    <g id="ytick_2">
     <g id="line2d_8">
      <g>
       <use style="stroke:#000000;stroke-width:0.8;" x="57.6" xlink:href="#m4d4795f1a6" y="263.232"/>
      </g>
     </g>
     <g id="text_9">
      <!-- 0.2 -->
      <g transform="translate(34.696875 267.031219)scale(0.1 -0.1)">
       <use xlink:href="#DejaVuSerif-48"/>
       <use x="63.623047" xlink:href="#DejaVuSerif-46"/>
       <use x="95.410156" xlink:href="#DejaVuSerif-50"/>
      </g>
     </g>
    </g>
    <g id="ytick_3">
     <g id="line2d_9">
      <g>
       <use style="stroke:#000000;stroke-width:0.8;" x="57.6" xlink:href="#m4d4795f1a6" y="230.976"/>
      </g>
     </g>
     <g id="text_10">
      <!-- 0.4 -->
      <g transform="translate(34.696875 234.775219)scale(0.1 -0.1)">
       <use xlink:href="#DejaVuSerif-48"/>
       <use x="63.623047" xlink:href="#DejaVuSerif-46"/>
       <use x="95.410156" xlink:href="#DejaVuSerif-52"/>
      </g>
     </g>
    </g>
    <g id="ytick_4">
     <g id="line2d_10">
      <g>
       <use style="stroke:#000000;stroke-width:0.8;" x="57.6" xlink:href="#m4d4795f1a6" y="198.72"/>
      </g>
     </g>
     <g id="text_11">
      <!-- 0.6 -->
      <g transform="translate(34.696875 202.519219)scale(0.1 -0.1)">
       <use xlink:href="#DejaVuSerif-48"/>
       <use x="63.623047" xlink:href="#DejaVuSerif-46"/>
       <use x="95.410156" xlink:href="#DejaVuSerif-54"/>
      </g>
     </g>
    </g>
    <g id="ytick_5">
     <g id="line2d_11">
      <g>
       <use style="stroke:#000000;stroke-width:0.8;" x="57.6" xlink:href="#m4d4795f1a6" y="166.464"/>
      </g>
     </g>
     <g id="text_12">
      <!-- 0.8 -->
      <g transform="translate(34.696875 170.263219)scale(0.1 -0.1)">
       <use xlink:href="#DejaVuSerif-48"/>
       <use x="63.623047" xlink:href="#DejaVuSerif-46"/>
       <use x="95.410156" xlink:href="#DejaVuSerif-56"/>
      </g>
     </g>
    </g>
    <g id="ytick_6">
     <g id="line2d_12">
      <g>
       <use style="stroke:#000000;stroke-width:0.8;" x="57.6" xlink:href="#m4d4795f1a6" y="134.208"/>
      </g>
     </g>
     <g id="text_13">
      <!-- 1.0 -->
      <g transform="translate(34.696875 138.007219)scale(0.1 -0.1)">
       <defs>
        <path d="M 14.203125 0 
L 14.203125 5.171875 
L 26.90625 5.171875 
L 26.90625 65.828125 
L 12.203125 56.296875 
L 12.203125 62.703125 
L 29.984375 74.21875 
L 36.71875 74.21875 
L 36.71875 5.171875 
L 49.421875 5.171875 
L 49.421875 0 
z
" id="DejaVuSerif-49"/>
       </defs>
       <use xlink:href="#DejaVuSerif-49"/>
       <use x="63.623047" xlink:href="#DejaVuSerif-46"/>
       <use x="95.410156" xlink:href="#DejaVuSerif-48"/>
      </g>
     </g>
    </g>
    <g id="ytick_7">
     <g id="line2d_13">
      <g>
       <use style="stroke:#000000;stroke-width:0.8;" x="57.6" xlink:href="#m4d4795f1a6" y="101.952"/>
      </g>
     </g>
     <g id="text_14">
      <!-- 1.2 -->
      <g transform="translate(34.696875 105.751219)scale(0.1 -0.1)">
       <use xlink:href="#DejaVuSerif-49"/>
       <use x="63.623047" xlink:href="#DejaVuSerif-46"/>
       <use x="95.410156" xlink:href="#DejaVuSerif-50"/>
      </g>
     </g>
    </g>
    <g id="ytick_8">
     <g id="line2d_14">
      <g>
       <use style="stroke:#000000;stroke-width:0.8;" x="57.6" xlink:href="#m4d4795f1a6" y="69.696"/>
      </g>
     </g>
     <g id="text_15">
      <!-- 1.4 -->
      <g transform="translate(34.696875 73.495219)scale(0.1 -0.1)">
       <use xlink:href="#DejaVuSerif-49"/>
       <use x="63.623047" xlink:href="#DejaVuSerif-46"/>
       <use x="95.410156" xlink:href="#DejaVuSerif-52"/>
      </g>
     </g>
    </g>
    <g id="text_16">
     <!-- Speed -->
     <g transform="translate(28.617187 190.273313)rotate(-90)scale(0.1 -0.1)">
      <defs>
       <path d="M 9.28125 3.515625 
L 9.28125 20.125 
L 14.890625 20.0625 
Q 15.140625 11.765625 19.703125 7.78125 
Q 24.265625 3.8125 33.59375 3.8125 
Q 42.28125 3.8125 46.84375 7.25 
Q 51.421875 10.6875 51.421875 17.28125 
Q 51.421875 22.5625 48.65625 25.390625 
Q 45.90625 28.21875 37.015625 30.90625 
L 27.390625 33.796875 
Q 16.9375 36.96875 12.671875 41.703125 
Q 8.40625 46.4375 8.40625 54.6875 
Q 8.40625 63.96875 14.984375 69.09375 
Q 21.578125 74.21875 33.5 74.21875 
Q 38.578125 74.21875 44.625 73.109375 
Q 50.6875 72.015625 57.515625 69.921875 
L 57.515625 54.390625 
L 52 54.390625 
Q 51.171875 62.109375 46.84375 65.546875 
Q 42.53125 69 33.6875 69 
Q 25.984375 69 21.953125 65.84375 
Q 17.921875 62.703125 17.921875 56.6875 
Q 17.921875 51.46875 20.9375 48.484375 
Q 23.96875 45.515625 33.796875 42.578125 
L 42.828125 39.890625 
Q 52.734375 36.921875 56.953125 32.296875 
Q 61.1875 27.6875 61.1875 19.921875 
Q 61.1875 9.328125 54.390625 3.953125 
Q 47.609375 -1.421875 34.1875 -1.421875 
Q 28.171875 -1.421875 21.9375 -0.1875 
Q 15.71875 1.03125 9.28125 3.515625 
z
" id="DejaVuSerif-83"/>
       <path d="M 20.515625 28.515625 
L 20.515625 23.390625 
Q 20.515625 14.015625 24.09375 9.109375 
Q 27.6875 4.203125 34.515625 4.203125 
Q 41.40625 4.203125 44.9375 9.71875 
Q 48.484375 15.234375 48.484375 25.984375 
Q 48.484375 36.765625 44.9375 42.234375 
Q 41.40625 47.703125 34.515625 47.703125 
Q 27.6875 47.703125 24.09375 42.765625 
Q 20.515625 37.84375 20.515625 28.515625 
z
M 11.53125 46.6875 
L 2.875 46.6875 
L 2.875 51.90625 
L 20.515625 51.90625 
L 20.515625 43.796875 
Q 23.140625 48.6875 27.21875 51 
Q 31.296875 53.328125 37.3125 53.328125 
Q 46.875 53.328125 52.921875 45.75 
Q 58.984375 38.1875 58.984375 25.984375 
Q 58.984375 13.765625 52.921875 6.171875 
Q 46.875 -1.421875 37.3125 -1.421875 
Q 31.296875 -1.421875 27.21875 0.890625 
Q 23.140625 3.21875 20.515625 8.109375 
L 20.515625 -15.578125 
L 29 -15.578125 
L 29 -20.796875 
L 2.875 -20.796875 
L 2.875 -15.578125 
L 11.53125 -15.578125 
z
" id="DejaVuSerif-112"/>
       <path d="M 52.484375 5.171875 
L 61.078125 5.171875 
L 61.078125 0 
L 43.5 0 
L 43.5 8.109375 
Q 40.875 3.21875 36.796875 0.890625 
Q 32.71875 -1.421875 26.703125 -1.421875 
Q 17.140625 -1.421875 11.0625 6.171875 
Q 4.984375 13.765625 4.984375 25.984375 
Q 4.984375 38.1875 11.03125 45.75 
Q 17.09375 53.328125 26.703125 53.328125 
Q 32.71875 53.328125 36.796875 51 
Q 40.875 48.6875 43.5 43.796875 
L 43.5 70.796875 
L 35.015625 70.796875 
L 35.015625 75.984375 
L 52.484375 75.984375 
z
M 43.5 23.390625 
L 43.5 28.515625 
Q 43.5 37.84375 39.90625 42.765625 
Q 36.328125 47.703125 29.5 47.703125 
Q 22.5625 47.703125 19.015625 42.234375 
Q 15.484375 36.765625 15.484375 25.984375 
Q 15.484375 15.234375 19.015625 9.71875 
Q 22.5625 4.203125 29.5 4.203125 
Q 36.328125 4.203125 39.90625 9.109375 
Q 43.5 14.015625 43.5 23.390625 
z
" id="DejaVuSerif-100"/>
      </defs>
      <use xlink:href="#DejaVuSerif-83"/>
      <use x="68.505859" xlink:href="#DejaVuSerif-112"/>
      <use x="132.519531" xlink:href="#DejaVuSerif-101"/>
      <use x="191.699219" xlink:href="#DejaVuSerif-101"/>
      <use x="250.878906" xlink:href="#DejaVuSerif-100"/>
     </g>
    </g>
   </g>
   <g id="line2d_15">
    <path clip-path="url(#peb936092f2)" d="M 73.832727 295.488 
L 74.138141 295.488 
L 74.409619 53.568 
L 74.986512 53.568 
L 75.25799 101.952 
L 75.529469 101.952 
L 75.834882 295.488 
L 76.954732 295.488 
L 77.226211 134.208 
L 77.803103 134.208 
L 78.074581 157.248 
L 78.922952 157.248 
L 79.228366 295.488 
L 79.499844 295.488 
L 79.771323 174.528 
L 80.619694 174.528 
L 80.925107 187.968 
L 82.044957 187.968 
L 82.316435 101.952 
L 82.621849 198.72 
L 83.47022 198.72 
L 83.741698 207.517091 
L 84.590069 207.517091 
L 84.861548 119.546182 
L 85.166961 134.208 
L 85.43844 134.208 
L 85.709919 214.848 
L 86.286811 214.848 
L 86.55829 221.051077 
L 87.40666 221.051077 
L 87.712074 146.614154 
L 87.983553 157.248 
L 88.560445 157.248 
L 88.831923 226.368 
L 89.103402 226.368 
L 89.408816 230.976 
L 89.951773 230.976 
L 90.257186 166.464 
L 90.528665 166.464 
L 90.800144 174.528 
L 91.953928 174.528 
L 92.225407 181.643294 
L 92.496885 238.565647 
L 92.802299 181.643294 
L 93.345256 181.643294 
L 93.65067 187.968 
L 94.770519 187.968 
L 95.041998 193.626947 
L 95.347411 142.696421 
L 95.61889 193.626947 
L 96.195782 193.626947 
L 96.467261 198.72 
L 97.58711 198.72 
L 97.892524 203.328 
L 98.164002 157.248 
L 98.435481 157.248 
L 98.740895 203.328 
L 99.012373 203.328 
L 99.283852 207.517091 
L 100.437636 207.517091 
L 100.709115 169.26887 
L 101.557486 169.26887 
L 101.828964 211.341913 
L 102.134378 214.848 
L 102.982749 214.848 
L 103.254227 174.528 
L 103.525706 179.3664 
L 104.67949 179.3664 
L 104.950969 183.832615 
L 105.222448 183.832615 
L 105.527861 221.051077 
L 105.79934 183.832615 
L 106.070818 183.832615 
L 106.376232 187.968 
L 107.496081 187.968 
L 107.76756 191.808 
L 108.921344 191.808 
L 109.192823 195.383172 
L 110.312673 195.383172 
L 110.618086 198.72 
L 110.889565 198.72 
L 111.161043 166.464 
L 111.466457 166.464 
L 111.737936 198.72 
L 112.009414 201.841548 
L 113.163198 201.841548 
L 113.434677 204.768 
L 113.706156 174.528 
L 114.554527 174.528 
L 114.85994 178.193455 
L 115.131419 207.517091 
L 115.97979 207.517091 
L 116.251268 210.104471 
L 116.556682 181.643294 
L 117.405053 181.643294 
L 117.676531 184.896 
L 118.253423 184.896 
L 118.524902 212.544 
L 118.796381 212.544 
L 119.101794 187.968 
L 120.221644 187.968 
L 120.493122 190.873946 
L 121.646907 190.873946 
L 121.918385 193.626947 
L 123.038235 193.626947 
L 123.343648 196.238769 
L 123.886606 196.238769 
L 124.192019 171.426462 
L 124.463498 171.426462 
L 124.734976 174.528 
L 125.04039 198.72 
L 125.888761 198.72 
L 126.160239 201.080195 
L 126.737132 201.080195 
L 127.00861 177.478244 
L 127.280089 177.478244 
L 127.585502 180.288 
L 128.12846 180.288 
L 128.433873 203.328 
L 128.705352 203.328 
L 128.976831 205.471256 
L 129.282244 205.471256 
L 129.553723 182.96707 
L 130.130615 182.96707 
L 130.402094 185.524364 
L 131.250464 185.524364 
L 131.521943 207.517091 
L 131.827357 209.472 
L 132.098835 187.968 
L 132.947206 187.968 
L 133.218685 190.305391 
L 134.372469 190.305391 
L 134.643948 171.954383 
L 134.915426 192.543319 
L 135.763797 192.543319 
L 136.069211 194.688 
L 137.18906 194.688 
L 137.460539 176.996571 
L 137.765952 176.996571 
L 138.037431 196.745143 
L 138.614323 196.745143 
L 138.885802 198.72 
L 139.734173 198.72 
L 140.005651 179.3664 
L 140.311065 181.643294 
L 141.159436 181.643294 
L 141.430914 200.617412 
L 141.702393 202.441846 
L 142.279285 202.441846 
L 142.550764 183.832615 
L 142.856177 183.832615 
L 143.127656 185.939321 
L 144.247505 185.939321 
L 144.552919 187.968 
L 144.824398 205.888 
L 145.095876 187.968 
L 145.672768 187.968 
L 145.944247 189.922909 
L 147.098031 189.922909 
L 147.36951 191.808 
L 148.489359 191.808 
L 148.794773 193.626947 
L 149.914622 193.626947 
L 150.186101 195.383172 
L 150.491515 178.699034 
L 150.762993 178.699034 
L 151.034472 195.383172 
L 151.339885 195.383172 
L 151.611364 197.079864 
L 152.731214 197.079864 
L 153.036627 182.592 
L 154.156477 182.592 
L 154.427955 184.442754 
L 154.733369 200.306361 
L 155.276326 200.306361 
L 155.58174 184.442754 
L 155.853218 186.233806 
L 156.973068 186.233806 
L 157.278481 187.968 
L 157.54996 187.968 
L 157.821438 203.328 
L 158.126852 203.328 
L 158.398331 187.968 
L 158.669809 189.648 
L 159.823594 189.648 
L 160.095072 191.276308 
L 161.214922 191.276308 
L 161.520335 192.855273 
L 162.640185 192.855273 
L 162.911663 194.387104 
L 163.217077 194.387104 
L 163.488556 179.944119 
L 163.760034 179.944119 
L 164.065448 194.387104 
L 164.336926 195.873882 
L 165.456776 195.873882 
L 165.762189 197.317565 
L 166.033668 183.293217 
L 166.882039 183.293217 
L 167.153517 184.896 
L 167.458931 184.896 
L 167.73041 198.72 
L 168.307302 198.72 
L 168.57878 200.08293 
L 168.850259 186.453634 
L 169.69863 186.453634 
L 170.004043 187.968 
L 170.547001 187.968 
L 170.852414 201.408 
L 171.123893 201.408 
L 171.395372 189.440877 
L 172.549156 189.440877 
L 172.820635 190.873946 
L 173.940484 190.873946 
L 174.245898 192.2688 
L 175.365747 192.2688 
L 175.637226 193.626947 
L 176.214118 193.626947 
L 176.485597 180.894316 
L 176.79101 180.894316 
L 177.062489 182.382545 
L 177.333967 194.949818 
L 178.182338 194.949818 
L 178.487752 196.238769 
L 179.030709 196.238769 
L 179.336122 183.832615 
L 179.607601 183.832615 
L 179.87908 185.245975 
L 180.455972 185.245975 
L 180.727451 197.495089 
L 181.032864 197.495089 
L 181.304343 198.72 
L 181.575821 198.72 
L 181.881235 186.624 
L 182.424192 186.624 
L 182.729606 187.968 
L 183.577977 187.968 
L 183.849455 199.914667 
L 184.120934 201.080195 
L 184.426347 189.27922 
L 185.274718 189.27922 
L 185.546197 190.558843 
L 186.666046 190.558843 
L 186.97146 180.288 
L 187.242939 191.808 
L 188.091309 191.808 
L 188.362788 193.027765 
L 189.516572 193.027765 
L 189.788051 182.96707 
L 190.05953 182.96707 
L 190.364943 194.219163 
L 190.9079 194.219163 
L 191.213314 195.383172 
L 192.061685 195.383172 
L 192.333163 184.260414 
L 192.604642 185.524364 
L 193.453013 185.524364 
L 193.758426 196.520727 
L 194.029905 197.632719 
L 194.606797 197.632719 
L 194.878276 186.75991 
L 195.149755 186.75991 
L 195.455168 187.968 
L 196.575018 187.968 
L 196.846496 189.149538 
L 197.15191 199.783385 
L 197.423388 189.149538 
L 198.000281 189.149538 
L 198.271759 190.305391 
L 199.391609 190.305391 
L 199.697022 191.436387 
L 199.968501 181.031226 
L 200.239979 191.436387 
L 200.816872 191.436387 
L 201.08835 192.543319 
L 202.242135 192.543319 
L 202.513613 193.626947 
L 202.785092 183.440842 
L 203.090505 183.440842 
L 203.361984 193.626947 
L 203.633463 193.626947 
L 203.938876 194.688 
L 205.058726 194.688 
L 205.330204 185.751093 
L 206.483989 185.751093 
L 206.755467 186.870857 
L 207.026946 196.745143 
L 207.603838 196.745143 
L 207.875317 186.870857 
L 208.18073 187.968 
L 209.30058 187.968 
L 209.572058 189.0432 
L 209.877472 189.0432 
L 210.148951 198.72 
L 210.420429 189.0432 
L 210.725843 189.0432 
L 210.997321 190.097109 
L 212.117171 190.097109 
L 212.422584 191.130353 
L 213.542434 191.130353 
L 213.813913 192.143534 
L 214.967697 192.143534 
L 215.239176 193.137231 
L 215.510654 193.137231 
L 215.816068 183.832615 
L 216.087546 183.832615 
L 216.359025 193.137231 
L 216.664439 194.112 
L 217.784288 194.112 
L 218.055767 195.068377 
L 218.36118 185.939321 
L 219.209551 185.939321 
L 219.48103 186.96314 
L 219.752508 186.96314 
L 220.057922 196.006879 
L 220.600879 196.006879 
L 220.906293 187.968 
L 222.026142 187.968 
L 222.297621 188.954422 
L 222.874513 188.954422 
L 223.145992 197.83222 
L 223.451405 197.83222 
L 223.722884 189.922909 
L 224.842733 189.922909 
L 225.148147 190.873946 
L 226.267996 190.873946 
L 226.539475 191.808 
L 227.693259 191.808 
L 227.964738 192.725522 
L 228.54163 192.725522 
L 228.813109 184.161982 
L 229.084587 184.161982 
L 229.390001 185.138526 
L 229.66148 193.626947 
L 230.50985 193.626947 
L 230.781329 194.512696 
L 231.086742 194.512696 
L 231.358221 186.098087 
L 231.935113 186.098087 
L 232.206592 187.041103 
L 232.478071 187.041103 
L 232.783484 195.383172 
L 233.326441 195.383172 
L 233.631855 196.238769 
L 233.903334 196.238769 
L 234.174812 187.968 
L 234.751704 187.968 
L 235.023183 188.879186 
L 235.871554 188.879186 
L 236.176967 197.079864 
L 236.448446 197.906824 
L 236.719925 189.775059 
L 237.568296 189.775059 
L 237.873709 190.656 
L 238.993559 190.656 
L 239.265037 183.525025 
L 239.570451 191.52238 
L 240.418822 191.52238 
L 240.6903 192.374557 
L 241.538671 192.374557 
L 241.81015 184.442754 
L 242.115563 185.345561 
L 242.387042 185.345561 
L 242.65852 193.212878 
L 243.235413 193.212878 
L 243.506891 194.037677 
L 244.355262 194.037677 
L 244.660676 186.233806 
L 244.932154 187.10784 
L 245.509046 187.10784 
L 245.780525 194.84928 
L 246.052004 194.84928 
L 246.357417 195.648 
L 246.900375 195.648 
L 247.205788 187.968 
L 247.477267 187.968 
L 247.748745 188.814614 
L 248.90253 188.814614 
L 249.174008 189.648 
L 249.445487 197.208 
L 249.750901 189.648 
L 250.293858 189.648 
L 250.599271 190.468465 
L 251.719121 190.468465 
L 251.9906 191.276308 
L 252.296013 183.832615 
L 252.567492 191.276308 
L 253.144384 191.276308 
L 253.415862 192.071817 
L 254.535712 192.071817 
L 254.841125 192.855273 
L 255.112604 185.524364 
L 255.384083 185.524364 
L 255.689496 192.855273 
L 255.960975 192.855273 
L 256.232454 193.626947 
L 257.386238 193.626947 
L 257.657717 187.165612 
L 258.506087 187.165612 
L 258.777566 194.387104 
L 259.08298 195.136 
L 259.93135 195.136 
L 260.202829 187.968 
L 260.474308 188.758588 
L 261.628092 188.758588 
L 261.899571 189.537635 
L 262.171049 189.537635 
L 262.476463 196.600993 
L 262.747942 189.537635 
L 263.01942 189.537635 
L 263.324834 190.305391 
L 264.444683 190.305391 
L 264.716162 191.062101 
L 265.021575 191.062101 
L 265.293054 184.100374 
L 265.564533 191.062101 
L 265.869946 191.062101 
L 266.141425 191.808 
L 267.261274 191.808 
L 267.566688 192.543319 
L 267.838166 192.543319 
L 268.109645 185.68034 
L 268.415059 185.68034 
L 268.686537 192.543319 
L 268.958016 193.268282 
L 270.1118 193.268282 
L 270.383279 193.983105 
L 270.654758 187.216112 
L 271.503128 187.216112 
L 271.808542 187.968 
L 272.080021 194.688 
L 272.928391 194.688 
L 273.19987 188.709517 
L 274.353654 188.709517 
L 274.625133 189.440877 
L 275.202025 189.440877 
L 275.473504 196.068822 
L 275.744982 189.440877 
L 276.050396 190.162286 
L 277.170245 190.162286 
L 277.441724 190.873946 
L 278.595508 190.873946 
L 278.866987 191.576054 
L 279.986837 191.576054 
L 280.29225 192.2688 
L 280.835207 192.2688 
L 281.140621 185.8176 
L 281.4121 185.8176 
L 281.683578 186.543894 
L 281.988992 192.952371 
L 282.837363 192.952371 
L 283.108841 193.626947 
L 283.38032 193.626947 
L 283.685733 187.260632 
L 284.228691 187.260632 
L 284.534104 187.968 
L 284.805583 187.968 
L 285.077061 194.292706 
L 285.653954 194.292706 
L 285.925432 194.949818 
L 286.230846 188.666182 
L 287.079217 188.666182 
L 287.350695 189.355355 
L 288.199066 189.355355 
L 288.470545 195.598452 
L 288.775958 196.238769 
L 289.047437 190.035692 
L 289.895808 190.035692 
L 290.167286 190.707363 
L 291.321071 190.707363 
L 291.592549 185.245975 
L 291.864028 191.370532 
L 292.712399 191.370532 
L 293.017812 192.025358 
L 293.866183 192.025358 
L 294.137662 185.939321 
L 294.409141 186.624 
L 294.714554 186.624 
L 294.986033 192.672 
L 295.562925 192.672 
L 295.834403 193.310609 
L 296.411296 193.310609 
L 296.682774 187.300174 
L 296.954253 187.300174 
L 297.259666 187.968 
L 297.802624 187.968 
L 298.108037 193.941333 
L 298.379516 193.941333 
L 298.650995 194.564319 
L 298.956408 194.564319 
L 299.227887 188.627632 
L 299.804779 188.627632 
L 300.076258 189.27922 
L 301.196107 189.27922 
L 301.501521 189.922909 
L 301.772999 195.787636 
L 302.044478 189.922909 
L 302.62137 189.922909 
L 302.892849 190.558843 
L 304.046633 190.558843 
L 304.318112 191.187162 
L 304.58959 185.392671 
L 304.895004 191.187162 
L 305.437961 191.187162 
L 305.743375 191.808 
L 306.863224 191.808 
L 307.134703 186.695574 
L 307.711595 186.695574 
L 307.983074 192.421491 
L 308.288487 192.421491 
L 308.559966 193.027765 
L 309.408337 193.027765 
L 309.679815 187.335529 
L 309.985229 187.968 
L 310.8336 187.968 
L 311.105078 193.626947 
L 311.376557 194.219163 
L 312.224928 194.219163 
L 312.530341 188.593116 
L 312.80182 189.211006 
L 313.921669 189.211006 
L 314.227083 189.821793 
L 314.498562 195.383172 
L 314.77004 195.383172 
L 315.075454 189.821793 
L 315.346932 189.821793 
L 315.618411 190.4256 
L 316.772195 190.4256 
L 317.043674 191.022545 
L 317.315153 191.022545 
L 317.620566 185.524364 
L 317.892045 191.022545 
L 318.163523 191.022545 
L 318.468937 191.612746 
L 319.588786 191.612746 
L 319.860265 192.196315 
L 320.165679 186.75991 
L 320.708636 186.75991 
L 321.014049 192.196315 
L 321.285528 192.773363 
L 322.405378 192.773363 
L 322.710791 193.344 
L 322.98227 187.968 
L 323.830641 187.968 
L 324.102119 188.562033 
L 324.407533 193.908331 
L 325.255904 193.908331 
L 325.527382 189.149538 
L 326.647232 189.149538 
L 326.952645 189.730623 
L 327.224124 189.730623 
L 327.495602 195.018492 
L 327.801016 195.018492 
L 328.072495 189.730623 
L 328.343973 190.305391 
L 329.497758 190.305391 
L 329.769236 190.873946 
L 330.346128 190.873946 
L 330.617607 185.643243 
L 330.889086 190.873946 
L 331.194499 191.436387 
L 332.314349 191.436387 
L 332.585827 191.992813 
L 332.891241 191.992813 
L 333.16272 186.818053 
L 333.739612 186.818053 
L 334.01109 187.396085 
L 334.282569 192.543319 
L 335.13094 192.543319 
L 335.436353 193.088 
L 335.707832 193.088 
L 335.979311 187.968 
L 336.556203 187.968 
L 336.827682 188.533895 
L 337.133095 188.533895 
L 337.404574 193.626947 
L 337.981466 193.626947 
L 338.252944 194.160251 
L 338.524423 189.093864 
L 339.372794 189.093864 
L 339.678207 189.648 
L 340.221165 189.648 
L 340.526578 194.688 
L 340.798057 194.688 
L 341.069536 190.196394 
L 342.22332 190.196394 
L 342.494799 190.739134 
L 343.343169 190.739134 
L 343.614648 185.751093 
L 343.920062 186.313846 
L 344.19154 191.276308 
L 345.039911 191.276308 
L 345.31139 191.808 
L 346.159761 191.808 
L 346.465174 186.870857 
L 346.736653 187.422213 
L 347.008131 187.422213 
L 347.313545 192.334294 
L 347.856502 192.334294 
L 348.161916 192.855273 
L 348.704873 192.855273 
L 349.010286 187.968 
L 349.281765 187.968 
L 349.553244 188.508302 
L 350.130136 188.508302 
L 350.401615 193.371015 
L 350.707028 193.371015 
L 350.978507 193.8816 
L 351.249985 193.8816 
L 351.555399 189.0432 
L 352.098356 189.0432 
L 352.40377 189.572776 
L 353.252141 189.572776 
L 353.523619 194.387104 
L 353.795098 194.887604 
L 354.100511 190.097109 
L 354.948882 190.097109 
L 355.220361 190.616276 
L 356.34021 190.616276 
L 356.645624 186.386824 
L 356.917103 191.130353 
L 357.765473 191.130353 
L 358.036952 191.639415 
L 359.190736 191.639415 
L 359.462215 187.446058 
L 360.039107 187.446058 
L 360.310586 192.143534 
L 360.582064 192.143534 
L 360.887478 192.642783 
L 361.735849 192.642783 
L 362.007327 187.968 
L 362.278806 188.484923 
L 363.127177 188.484923 
L 363.43259 193.137231 
L 363.704069 193.626947 
L 364.280961 193.626947 
L 364.55244 188.9969 
L 364.823919 188.9969 
L 365.129332 189.504 
L 366.249182 189.504 
L 366.52066 190.006294 
L 366.826074 194.592455 
L 367.097552 190.006294 
L 367.674445 190.006294 
L 367.945923 190.503849 
L 369.065773 190.503849 
L 369.371186 190.996732 
L 370.491036 190.996732 
L 370.762514 191.485009 
L 371.916299 191.485009 
L 372.187777 191.968744 
L 372.459256 187.467907 
L 373.036148 187.467907 
L 373.307627 191.968744 
L 373.61304 192.448 
L 374.73289 192.448 
L 375.004368 188.463484 
L 376.158153 188.463484 
L 376.429631 188.954422 
L 376.70111 193.393321 
L 377.278002 193.393321 
L 377.549481 188.954422 
L 377.854894 189.440877 
L 378.974744 189.440877 
L 379.246223 189.922909 
L 379.551636 189.922909 
L 379.823115 194.321455 
L 380.094593 189.922909 
L 380.400007 189.922909 
L 380.671486 190.400579 
L 381.791335 190.400579 
L 382.096748 190.873946 
L 383.216598 190.873946 
L 383.488077 191.343067 
L 384.641861 191.343067 
L 384.91334 191.808 
L 385.184818 191.808 
L 385.490232 187.488 
L 386.033189 187.488 
L 386.338603 187.968 
L 386.610081 192.2688 
L 387.458452 192.2688 
L 387.729931 192.725522 
L 388.035344 188.443752 
L 388.883715 188.443752 
L 389.155194 188.915313 
L 389.426672 188.915313 
L 389.732086 193.17822 
L 390.275043 193.17822 
L 390.580457 189.382737 
L 391.700306 189.382737 
L 391.971785 189.846079 
L 392.548677 189.846079 
L 392.820156 194.071755 
L 393.125569 194.071755 
L 393.397048 190.305391 
L 394.516897 190.305391 
L 394.822311 190.760727 
L 395.94216 190.760727 
L 396.213639 191.212138 
L 397.367423 191.212138 
L 397.638902 191.659674 
L 398.215794 191.659674 
L 398.487273 187.506541 
L 398.487273 187.506541 
" style="fill:none;stroke:#1f77b4;stroke-linecap:square;stroke-width:1.5;"/>
   </g>
   <g id="patch_3">
    <path d="M 57.6 307.584 
L 57.6 41.472 
" style="fill:none;stroke:#000000;stroke-linecap:square;stroke-linejoin:miter;stroke-width:0.8;"/>
   </g>
   <g id="patch_4">
    <path d="M 414.72 307.584 
L 414.72 41.472 
" style="fill:none;stroke:#000000;stroke-linecap:square;stroke-linejoin:miter;stroke-width:0.8;"/>
   </g>
   <g id="patch_5">
    <path d="M 57.6 307.584 
L 414.72 307.584 
" style="fill:none;stroke:#000000;stroke-linecap:square;stroke-linejoin:miter;stroke-width:0.8;"/>
   </g>
   <g id="patch_6">
    <path d="M 57.6 41.472 
L 414.72 41.472 
" style="fill:none;stroke:#000000;stroke-linecap:square;stroke-linejoin:miter;stroke-width:0.8;"/>
   </g>
   <g id="text_17">
    <!-- Speed function of time -->
    <g transform="translate(167.024063 35.472)scale(0.12 -0.12)">
     <defs>
      <path id="DejaVuSerif-32"/>
      <path d="M 43.015625 63.71875 
L 38.28125 63.71875 
Q 38.234375 67.390625 36.203125 69.28125 
Q 34.1875 71.1875 30.328125 71.1875 
Q 25.296875 71.1875 23.234375 68.421875 
Q 21.1875 65.671875 21.1875 58.59375 
L 21.1875 51.90625 
L 35.6875 51.90625 
L 35.6875 46.6875 
L 21.1875 46.6875 
L 21.1875 5.171875 
L 32.71875 5.171875 
L 32.71875 0 
L 3.609375 0 
L 3.609375 5.171875 
L 12.203125 5.171875 
L 12.203125 46.6875 
L 3.609375 46.6875 
L 3.609375 51.90625 
L 12.203125 51.90625 
L 12.203125 58.40625 
Q 12.203125 67.09375 16.71875 71.53125 
Q 21.234375 75.984375 29.984375 75.984375 
Q 33.25 75.984375 36.515625 75.390625 
Q 39.796875 74.8125 43.015625 73.578125 
z
" id="DejaVuSerif-102"/>
      <path d="M 35.40625 51.90625 
L 52.203125 51.90625 
L 52.203125 5.171875 
L 60.6875 5.171875 
L 60.6875 0 
L 43.21875 0 
L 43.21875 9.1875 
Q 40.71875 4 36.765625 1.28125 
Q 32.8125 -1.421875 27.59375 -1.421875 
Q 18.953125 -1.421875 14.875 3.484375 
Q 10.796875 8.40625 10.796875 18.890625 
L 10.796875 46.6875 
L 2.6875 46.6875 
L 2.6875 51.90625 
L 19.828125 51.90625 
L 19.828125 21.6875 
Q 19.828125 12.203125 22.140625 8.6875 
Q 24.46875 5.171875 30.421875 5.171875 
Q 36.671875 5.171875 39.9375 9.765625 
Q 43.21875 14.359375 43.21875 23.09375 
L 43.21875 46.6875 
L 35.40625 46.6875 
z
" id="DejaVuSerif-117"/>
      <path d="M 4.109375 0 
L 4.109375 5.171875 
L 12.203125 5.171875 
L 12.203125 46.6875 
L 3.609375 46.6875 
L 3.609375 51.90625 
L 21.1875 51.90625 
L 21.1875 42.671875 
Q 23.6875 47.953125 27.65625 50.640625 
Q 31.640625 53.328125 36.921875 53.328125 
Q 45.515625 53.328125 49.5625 48.390625 
Q 53.609375 43.453125 53.609375 33.015625 
L 53.609375 5.171875 
L 61.625 5.171875 
L 61.625 0 
L 36.8125 0 
L 36.8125 5.171875 
L 44.578125 5.171875 
L 44.578125 30.171875 
Q 44.578125 39.703125 42.234375 43.234375 
Q 39.890625 46.78125 33.984375 46.78125 
Q 27.734375 46.78125 24.453125 42.203125 
Q 21.1875 37.640625 21.1875 28.90625 
L 21.1875 5.171875 
L 29 5.171875 
L 29 0 
z
" id="DejaVuSerif-110"/>
      <path d="M 51.421875 15.578125 
Q 49.515625 7.28125 44.09375 2.921875 
Q 38.671875 -1.421875 30.078125 -1.421875 
Q 18.75 -1.421875 11.859375 6.078125 
Q 4.984375 13.578125 4.984375 25.984375 
Q 4.984375 38.421875 11.859375 45.875 
Q 18.75 53.328125 30.078125 53.328125 
Q 35.015625 53.328125 39.890625 52.171875 
Q 44.78125 51.03125 49.703125 48.6875 
L 49.703125 35.40625 
L 44.484375 35.40625 
Q 43.453125 42.234375 40.015625 45.359375 
Q 36.578125 48.484375 30.171875 48.484375 
Q 22.90625 48.484375 19.1875 42.84375 
Q 15.484375 37.203125 15.484375 25.984375 
Q 15.484375 14.75 19.171875 9.078125 
Q 22.859375 3.421875 30.171875 3.421875 
Q 35.984375 3.421875 39.453125 6.4375 
Q 42.921875 9.46875 44.1875 15.578125 
z
" id="DejaVuSerif-99"/>
      <path d="M 10.796875 46.6875 
L 2.875 46.6875 
L 2.875 51.90625 
L 10.796875 51.90625 
L 10.796875 68.015625 
L 19.828125 68.015625 
L 19.828125 51.90625 
L 36.71875 51.90625 
L 36.71875 46.6875 
L 19.828125 46.6875 
L 19.828125 13.71875 
Q 19.828125 7.125 21.09375 5.265625 
Q 22.359375 3.421875 25.78125 3.421875 
Q 29.296875 3.421875 30.90625 5.484375 
Q 32.515625 7.5625 32.625 12.203125 
L 39.40625 12.203125 
Q 39.015625 5.125 35.546875 1.84375 
Q 32.078125 -1.421875 25 -1.421875 
Q 17.234375 -1.421875 14.015625 2.015625 
Q 10.796875 5.46875 10.796875 13.71875 
z
" id="DejaVuSerif-116"/>
      <path d="M 30.078125 3.421875 
Q 37.3125 3.421875 40.984375 9.125 
Q 44.671875 14.84375 44.671875 25.984375 
Q 44.671875 37.109375 40.984375 42.796875 
Q 37.3125 48.484375 30.078125 48.484375 
Q 22.859375 48.484375 19.171875 42.796875 
Q 15.484375 37.109375 15.484375 25.984375 
Q 15.484375 14.84375 19.1875 9.125 
Q 22.90625 3.421875 30.078125 3.421875 
z
M 30.078125 -1.421875 
Q 18.75 -1.421875 11.859375 6.078125 
Q 4.984375 13.578125 4.984375 25.984375 
Q 4.984375 38.375 11.84375 45.84375 
Q 18.703125 53.328125 30.078125 53.328125 
Q 41.453125 53.328125 48.3125 45.84375 
Q 55.171875 38.375 55.171875 25.984375 
Q 55.171875 13.578125 48.3125 6.078125 
Q 41.453125 -1.421875 30.078125 -1.421875 
z
" id="DejaVuSerif-111"/>
     </defs>
     <use xlink:href="#DejaVuSerif-83"/>
     <use x="68.505859" xlink:href="#DejaVuSerif-112"/>
     <use x="132.519531" xlink:href="#DejaVuSerif-101"/>
     <use x="191.699219" xlink:href="#DejaVuSerif-101"/>
     <use x="250.878906" xlink:href="#DejaVuSerif-100"/>
     <use x="314.892578" xlink:href="#DejaVuSerif-32"/>
     <use x="346.679688" xlink:href="#DejaVuSerif-102"/>
     <use x="383.691406" xlink:href="#DejaVuSerif-117"/>
     <use x="448.095703" xlink:href="#DejaVuSerif-110"/>
     <use x="512.5" xlink:href="#DejaVuSerif-99"/>
     <use x="568.505859" xlink:href="#DejaVuSerif-116"/>
     <use x="608.691406" xlink:href="#DejaVuSerif-105"/>
     <use x="640.673828" xlink:href="#DejaVuSerif-111"/>
     <use x="700.878906" xlink:href="#DejaVuSerif-110"/>
     <use x="765.283203" xlink:href="#DejaVuSerif-32"/>
     <use x="797.070312" xlink:href="#DejaVuSerif-111"/>
     <use x="857.275391" xlink:href="#DejaVuSerif-102"/>
     <use x="894.287109" xlink:href="#DejaVuSerif-32"/>
     <use x="926.074219" xlink:href="#DejaVuSerif-116"/>
     <use x="966.259766" xlink:href="#DejaVuSerif-105"/>
     <use x="998.242188" xlink:href="#DejaVuSerif-109"/>
     <use x="1093.066406" xlink:href="#DejaVuSerif-101"/>
    </g>
   </g>
  </g>
 </g>
 <defs>
  <clipPath id="peb936092f2">
   <rect height="266.112" width="357.12" x="57.6" y="41.472"/>
  </clipPath>
 </defs>
</svg>
