<?xml version="1.0" encoding="utf-8" standalone="no"?>
<!DOCTYPE svg PUBLIC "-//W3C//DTD SVG 1.1//EN"
  "http://www.w3.org/Graphics/SVG/1.1/DTD/svg11.dtd">
<!-- Created with matplotlib (https://matplotlib.org/) -->
<svg height="345.6pt" version="1.1" viewBox="0 0 460.8 345.6" width="460.8pt" xmlns="http://www.w3.org/2000/svg" xmlns:xlink="http://www.w3.org/1999/xlink">
 <metadata>
  <rdf:RDF xmlns:cc="http://creativecommons.org/ns#" xmlns:dc="http://purl.org/dc/elements/1.1/" xmlns:rdf="http://www.w3.org/1999/02/22-rdf-syntax-ns#">
   <cc:Work>
    <dc:type rdf:resource="http://purl.org/dc/dcmitype/StillImage"/>
    <dc:date>2022-07-17T16:39:38.674151</dc:date>
    <dc:format>image/svg+xml</dc:format>
    <dc:creator>
     <cc:Agent>
      <dc:title>Matplotlib v3.3.4, https://matplotlib.org/</dc:title>
     </cc:Agent>
    </dc:creator>
   </cc:Work>
  </rdf:RDF>
 </metadata>
 <defs>
  <style type="text/css">*{stroke-linecap:butt;stroke-linejoin:round;}</style>
 </defs>
 <g id="figure_1">
  <g id="patch_1">
   <path d="M 0 345.6 
L 460.8 345.6 
L 460.8 0 
L 0 0 
z
" style="fill:#ffffff;"/>
  </g>
  <g id="axes_1">
   <g id="patch_2">
    <path d="M 57.6 307.584 
L 414.72 307.584 
L 414.72 41.472 
L 57.6 41.472 
z
" style="fill:#ffffff;"/>
   </g>
   <g id="matplotlib.axis_1">
    <g id="xtick_1">
     <g id="line2d_1">
      <defs>
       <path d="M 0 0 
L 0 3.5 
" id="mbc308f3cdf" style="stroke:#000000;stroke-width:0.8;"/>
      </defs>
      <g>
       <use style="stroke:#000000;stroke-width:0.8;" x="64.203143" xlink:href="#mbc308f3cdf" y="307.584"/>
      </g>
     </g>
     <g id="text_1">
      <!-- 0 -->
      <g transform="translate(61.021893 322.182437)scale(0.1 -0.1)">
       <defs>
        <path d="M 31.78125 3.421875 
Q 39.265625 3.421875 42.96875 11.625 
Q 46.6875 19.828125 46.6875 36.375 
Q 46.6875 52.984375 42.96875 61.1875 
Q 39.265625 69.390625 31.78125 69.390625 
Q 24.3125 69.390625 20.59375 61.1875 
Q 16.890625 52.984375 16.890625 36.375 
Q 16.890625 19.828125 20.59375 11.625 
Q 24.3125 3.421875 31.78125 3.421875 
z
M 31.78125 -1.421875 
Q 19.921875 -1.421875 13.25 8.53125 
Q 6.59375 18.5 6.59375 36.375 
Q 6.59375 54.296875 13.25 64.25 
Q 19.921875 74.21875 31.78125 74.21875 
Q 43.703125 74.21875 50.34375 64.25 
Q 56.984375 54.296875 56.984375 36.375 
Q 56.984375 18.5 50.34375 8.53125 
Q 43.703125 -1.421875 31.78125 -1.421875 
z
" id="DejaVuSerif-48"/>
       </defs>
       <use xlink:href="#DejaVuSerif-48"/>
      </g>
     </g>
    </g>
    <g id="xtick_2">
     <g id="line2d_2">
      <g>
       <use style="stroke:#000000;stroke-width:0.8;" x="119.229337" xlink:href="#mbc308f3cdf" y="307.584"/>
      </g>
     </g>
     <g id="text_2">
      <!-- 20 -->
      <g transform="translate(112.866837 322.182437)scale(0.1 -0.1)">
       <defs>
        <path d="M 12.796875 55.515625 
L 7.328125 55.515625 
L 7.328125 68.5 
Q 12.546875 71.296875 17.84375 72.75 
Q 23.140625 74.21875 28.21875 74.21875 
Q 39.59375 74.21875 46.1875 68.703125 
Q 52.78125 63.1875 52.78125 53.71875 
Q 52.78125 43.015625 37.84375 28.125 
Q 36.671875 27 36.078125 26.421875 
L 17.671875 8.015625 
L 48.09375 8.015625 
L 48.09375 17 
L 53.8125 17 
L 53.8125 0 
L 6.78125 0 
L 6.78125 5.328125 
L 28.90625 27.390625 
Q 36.234375 34.71875 39.359375 40.84375 
Q 42.484375 46.96875 42.484375 53.71875 
Q 42.484375 61.078125 38.640625 65.234375 
Q 34.8125 69.390625 28.078125 69.390625 
Q 21.09375 69.390625 17.28125 65.921875 
Q 13.484375 62.453125 12.796875 55.515625 
z
" id="DejaVuSerif-50"/>
       </defs>
       <use xlink:href="#DejaVuSerif-50"/>
       <use x="63.623047" xlink:href="#DejaVuSerif-48"/>
      </g>
     </g>
    </g>
    <g id="xtick_3">
     <g id="line2d_3">
      <g>
       <use style="stroke:#000000;stroke-width:0.8;" x="174.255532" xlink:href="#mbc308f3cdf" y="307.584"/>
      </g>
     </g>
     <g id="text_3">
      <!-- 40 -->
      <g transform="translate(167.893032 322.182437)scale(0.1 -0.1)">
       <defs>
        <path d="M 34.90625 24.703125 
L 34.90625 63.484375 
L 10.015625 24.703125 
z
M 56.390625 0 
L 23.1875 0 
L 23.1875 5.171875 
L 34.90625 5.171875 
L 34.90625 19.484375 
L 3.078125 19.484375 
L 3.078125 24.8125 
L 35.015625 74.21875 
L 44.671875 74.21875 
L 44.671875 24.703125 
L 58.59375 24.703125 
L 58.59375 19.484375 
L 44.671875 19.484375 
L 44.671875 5.171875 
L 56.390625 5.171875 
z
" id="DejaVuSerif-52"/>
       </defs>
       <use xlink:href="#DejaVuSerif-52"/>
       <use x="63.623047" xlink:href="#DejaVuSerif-48"/>
      </g>
     </g>
    </g>
    <g id="xtick_4">
     <g id="line2d_4">
      <g>
       <use style="stroke:#000000;stroke-width:0.8;" x="229.281726" xlink:href="#mbc308f3cdf" y="307.584"/>
      </g>
     </g>
     <g id="text_4">
      <!-- 60 -->
      <g transform="translate(222.919226 322.182437)scale(0.1 -0.1)">
       <defs>
        <path d="M 32.71875 3.421875 
Q 39.59375 3.421875 43.296875 8.46875 
Q 47.015625 13.53125 47.015625 23 
Q 47.015625 32.46875 43.296875 37.515625 
Q 39.59375 42.578125 32.71875 42.578125 
Q 25.734375 42.578125 22.0625 37.6875 
Q 18.40625 32.8125 18.40625 23.578125 
Q 18.40625 13.875 22.109375 8.640625 
Q 25.828125 3.421875 32.71875 3.421875 
z
M 16.796875 40.140625 
Q 20.125 43.796875 24.3125 45.59375 
Q 28.515625 47.40625 33.796875 47.40625 
Q 44.671875 47.40625 51 40.859375 
Q 57.328125 34.328125 57.328125 23 
Q 57.328125 11.921875 50.515625 5.25 
Q 43.703125 -1.421875 32.328125 -1.421875 
Q 19.96875 -1.421875 13.328125 7.78125 
Q 6.6875 17 6.6875 34.078125 
Q 6.6875 53.21875 14.546875 63.71875 
Q 22.40625 74.21875 36.71875 74.21875 
Q 40.578125 74.21875 44.828125 73.484375 
Q 49.078125 72.75 53.515625 71.296875 
L 53.515625 59.28125 
L 48 59.28125 
Q 47.40625 64.203125 44.234375 66.796875 
Q 41.0625 69.390625 35.6875 69.390625 
Q 26.21875 69.390625 21.578125 62.203125 
Q 16.9375 55.03125 16.796875 40.140625 
z
" id="DejaVuSerif-54"/>
       </defs>
       <use xlink:href="#DejaVuSerif-54"/>
       <use x="63.623047" xlink:href="#DejaVuSerif-48"/>
      </g>
     </g>
    </g>
    <g id="xtick_5">
     <g id="line2d_5">
      <g>
       <use style="stroke:#000000;stroke-width:0.8;" x="284.30792" xlink:href="#mbc308f3cdf" y="307.584"/>
      </g>
     </g>
     <g id="text_5">
      <!-- 80 -->
      <g transform="translate(277.94542 322.182437)scale(0.1 -0.1)">
       <defs>
        <path d="M 46.578125 19.921875 
Q 46.578125 27.734375 42.6875 32.046875 
Q 38.8125 36.375 31.78125 36.375 
Q 24.75 36.375 20.875 32.046875 
Q 17 27.734375 17 19.921875 
Q 17 12.0625 20.875 7.734375 
Q 24.75 3.421875 31.78125 3.421875 
Q 38.8125 3.421875 42.6875 7.734375 
Q 46.578125 12.0625 46.578125 19.921875 
z
M 44.578125 55.328125 
Q 44.578125 61.96875 41.203125 65.671875 
Q 37.84375 69.390625 31.78125 69.390625 
Q 25.78125 69.390625 22.390625 65.671875 
Q 19 61.96875 19 55.328125 
Q 19 48.640625 22.390625 44.921875 
Q 25.78125 41.21875 31.78125 41.21875 
Q 37.84375 41.21875 41.203125 44.921875 
Q 44.578125 48.640625 44.578125 55.328125 
z
M 39.3125 38.8125 
Q 47.609375 37.703125 52.25 32.6875 
Q 56.890625 27.6875 56.890625 19.921875 
Q 56.890625 9.671875 50.390625 4.125 
Q 43.890625 -1.421875 31.78125 -1.421875 
Q 19.734375 -1.421875 13.203125 4.125 
Q 6.6875 9.671875 6.6875 19.921875 
Q 6.6875 27.6875 11.328125 32.6875 
Q 15.96875 37.703125 24.3125 38.8125 
Q 16.9375 40.140625 13 44.40625 
Q 9.078125 48.6875 9.078125 55.328125 
Q 9.078125 64.109375 15.125 69.15625 
Q 21.1875 74.21875 31.78125 74.21875 
Q 42.390625 74.21875 48.4375 69.15625 
Q 54.5 64.109375 54.5 55.328125 
Q 54.5 48.6875 50.5625 44.40625 
Q 46.625 40.140625 39.3125 38.8125 
z
" id="DejaVuSerif-56"/>
       </defs>
       <use xlink:href="#DejaVuSerif-56"/>
       <use x="63.623047" xlink:href="#DejaVuSerif-48"/>
      </g>
     </g>
    </g>
    <g id="xtick_6">
     <g id="line2d_6">
      <g>
       <use style="stroke:#000000;stroke-width:0.8;" x="339.334114" xlink:href="#mbc308f3cdf" y="307.584"/>
      </g>
     </g>
     <g id="text_6">
      <!-- 100 -->
      <g transform="translate(329.790364 322.182437)scale(0.1 -0.1)">
       <defs>
        <path d="M 14.203125 0 
L 14.203125 5.171875 
L 26.90625 5.171875 
L 26.90625 65.828125 
L 12.203125 56.296875 
L 12.203125 62.703125 
L 29.984375 74.21875 
L 36.71875 74.21875 
L 36.71875 5.171875 
L 49.421875 5.171875 
L 49.421875 0 
z
" id="DejaVuSerif-49"/>
       </defs>
       <use xlink:href="#DejaVuSerif-49"/>
       <use x="63.623047" xlink:href="#DejaVuSerif-48"/>
       <use x="127.246094" xlink:href="#DejaVuSerif-48"/>
      </g>
     </g>
    </g>
    <g id="xtick_7">
     <g id="line2d_7">
      <g>
       <use style="stroke:#000000;stroke-width:0.8;" x="394.360308" xlink:href="#mbc308f3cdf" y="307.584"/>
      </g>
     </g>
     <g id="text_7">
      <!-- 120 -->
      <g transform="translate(384.816558 322.182437)scale(0.1 -0.1)">
       <use xlink:href="#DejaVuSerif-49"/>
       <use x="63.623047" xlink:href="#DejaVuSerif-50"/>
       <use x="127.246094" xlink:href="#DejaVuSerif-48"/>
      </g>
     </g>
    </g>
    <g id="text_8">
     <!-- Time -->
     <g transform="translate(223.524844 335.860562)scale(0.1 -0.1)">
      <defs>
       <path d="M 19.09375 0 
L 19.09375 5.171875 
L 28.421875 5.171875 
L 28.421875 67.09375 
L 6.984375 67.09375 
L 6.984375 55.71875 
L 0.984375 55.71875 
L 0.984375 72.90625 
L 65.71875 72.90625 
L 65.71875 55.71875 
L 59.71875 55.71875 
L 59.71875 67.09375 
L 38.28125 67.09375 
L 38.28125 5.171875 
L 47.609375 5.171875 
L 47.609375 0 
z
" id="DejaVuSerif-84"/>
       <path d="M 9.71875 68.015625 
Q 9.71875 70.265625 11.34375 71.921875 
Q 12.984375 73.578125 15.28125 73.578125 
Q 17.53125 73.578125 19.15625 71.921875 
Q 20.796875 70.265625 20.796875 68.015625 
Q 20.796875 65.71875 19.1875 64.109375 
Q 17.578125 62.5 15.28125 62.5 
Q 12.984375 62.5 11.34375 64.109375 
Q 9.71875 65.71875 9.71875 68.015625 
z
M 21.1875 5.171875 
L 29.6875 5.171875 
L 29.6875 0 
L 3.609375 0 
L 3.609375 5.171875 
L 12.203125 5.171875 
L 12.203125 46.6875 
L 3.609375 46.6875 
L 3.609375 51.90625 
L 21.1875 51.90625 
z
" id="DejaVuSerif-105"/>
       <path d="M 51.8125 41.796875 
Q 54.390625 47.515625 58.421875 50.421875 
Q 62.453125 53.328125 67.828125 53.328125 
Q 75.984375 53.328125 79.984375 48.265625 
Q 83.984375 43.21875 83.984375 33.015625 
L 83.984375 5.171875 
L 92.09375 5.171875 
L 92.09375 0 
L 67.1875 0 
L 67.1875 5.171875 
L 75 5.171875 
L 75 31.984375 
Q 75 39.9375 72.65625 43.3125 
Q 70.3125 46.6875 64.890625 46.6875 
Q 58.890625 46.6875 55.734375 42.140625 
Q 52.59375 37.59375 52.59375 28.90625 
L 52.59375 5.171875 
L 60.40625 5.171875 
L 60.40625 0 
L 35.796875 0 
L 35.796875 5.171875 
L 43.609375 5.171875 
L 43.609375 32.328125 
Q 43.609375 40.09375 41.265625 43.390625 
Q 38.921875 46.6875 33.5 46.6875 
Q 27.484375 46.6875 24.328125 42.140625 
Q 21.1875 37.59375 21.1875 28.90625 
L 21.1875 5.171875 
L 29 5.171875 
L 29 0 
L 4.109375 0 
L 4.109375 5.171875 
L 12.203125 5.171875 
L 12.203125 46.78125 
L 3.609375 46.78125 
L 3.609375 51.90625 
L 21.1875 51.90625 
L 21.1875 42.671875 
Q 23.6875 47.859375 27.53125 50.59375 
Q 31.390625 53.328125 36.28125 53.328125 
Q 42.328125 53.328125 46.375 50.3125 
Q 50.4375 47.3125 51.8125 41.796875 
z
" id="DejaVuSerif-109"/>
       <path d="M 54.203125 25 
L 15.484375 25 
L 15.484375 24.609375 
Q 15.484375 14.109375 19.4375 8.765625 
Q 23.390625 3.421875 31.109375 3.421875 
Q 37.015625 3.421875 40.796875 6.515625 
Q 44.578125 9.625 46.09375 15.71875 
L 53.328125 15.71875 
Q 51.171875 7.171875 45.375 2.875 
Q 39.59375 -1.421875 30.171875 -1.421875 
Q 18.796875 -1.421875 11.890625 6.078125 
Q 4.984375 13.578125 4.984375 25.984375 
Q 4.984375 38.28125 11.765625 45.796875 
Q 18.5625 53.328125 29.59375 53.328125 
Q 41.359375 53.328125 47.65625 46.0625 
Q 53.953125 38.8125 54.203125 25 
z
M 43.609375 30.171875 
Q 43.3125 39.265625 39.765625 43.875 
Q 36.234375 48.484375 29.59375 48.484375 
Q 23.390625 48.484375 19.828125 43.84375 
Q 16.265625 39.203125 15.484375 30.171875 
z
" id="DejaVuSerif-101"/>
      </defs>
      <use xlink:href="#DejaVuSerif-84"/>
      <use x="66.699219" xlink:href="#DejaVuSerif-105"/>
      <use x="98.681641" xlink:href="#DejaVuSerif-109"/>
      <use x="193.505859" xlink:href="#DejaVuSerif-101"/>
     </g>
    </g>
   </g>
   <g id="matplotlib.axis_2">
    <g id="ytick_1">
     <g id="line2d_8">
      <defs>
       <path d="M 0 0 
L -3.5 0 
" id="m56a91de651" style="stroke:#000000;stroke-width:0.8;"/>
      </defs>
      <g>
       <use style="stroke:#000000;stroke-width:0.8;" x="57.6" xlink:href="#m56a91de651" y="295.488"/>
      </g>
     </g>
     <g id="text_9">
      <!-- 0.00 -->
      <g transform="translate(28.334375 299.287219)scale(0.1 -0.1)">
       <defs>
        <path d="M 9.421875 5.078125 
Q 9.421875 7.8125 11.28125 9.71875 
Q 13.140625 11.625 15.921875 11.625 
Q 18.609375 11.625 20.5 9.71875 
Q 22.40625 7.8125 22.40625 5.078125 
Q 22.40625 2.390625 20.5 0.484375 
Q 18.609375 -1.421875 15.921875 -1.421875 
Q 13.140625 -1.421875 11.28125 0.453125 
Q 9.421875 2.34375 9.421875 5.078125 
z
" id="DejaVuSerif-46"/>
       </defs>
       <use xlink:href="#DejaVuSerif-48"/>
       <use x="63.623047" xlink:href="#DejaVuSerif-46"/>
       <use x="95.410156" xlink:href="#DejaVuSerif-48"/>
       <use x="159.033203" xlink:href="#DejaVuSerif-48"/>
      </g>
     </g>
    </g>
    <g id="ytick_2">
     <g id="line2d_9">
      <g>
       <use style="stroke:#000000;stroke-width:0.8;" x="57.6" xlink:href="#m56a91de651" y="265.248"/>
      </g>
     </g>
     <g id="text_10">
      <!-- 0.25 -->
      <g transform="translate(28.334375 269.047219)scale(0.1 -0.1)">
       <defs>
        <path d="M 50.296875 72.90625 
L 50.296875 64.890625 
L 16.890625 64.890625 
L 16.890625 44 
Q 19.4375 45.75 22.828125 46.625 
Q 26.21875 47.515625 30.421875 47.515625 
Q 42.234375 47.515625 49.0625 40.96875 
Q 55.90625 34.421875 55.90625 23.09375 
Q 55.90625 11.53125 49 5.046875 
Q 42.09375 -1.421875 29.59375 -1.421875 
Q 24.5625 -1.421875 19.28125 -0.1875 
Q 14.015625 1.03125 8.5 3.515625 
L 8.5 17.671875 
L 14.015625 17.671875 
Q 14.453125 10.75 18.421875 7.078125 
Q 22.40625 3.421875 29.59375 3.421875 
Q 37.3125 3.421875 41.453125 8.5 
Q 45.609375 13.578125 45.609375 23.09375 
Q 45.609375 32.5625 41.484375 37.609375 
Q 37.359375 42.671875 29.59375 42.671875 
Q 25.203125 42.671875 21.84375 41.109375 
Q 18.5 39.546875 15.921875 36.28125 
L 11.71875 36.28125 
L 11.71875 72.90625 
z
" id="DejaVuSerif-53"/>
       </defs>
       <use xlink:href="#DejaVuSerif-48"/>
       <use x="63.623047" xlink:href="#DejaVuSerif-46"/>
       <use x="95.410156" xlink:href="#DejaVuSerif-50"/>
       <use x="159.033203" xlink:href="#DejaVuSerif-53"/>
      </g>
     </g>
    </g>
    <g id="ytick_3">
     <g id="line2d_10">
      <g>
       <use style="stroke:#000000;stroke-width:0.8;" x="57.6" xlink:href="#m56a91de651" y="235.008"/>
      </g>
     </g>
     <g id="text_11">
      <!-- 0.50 -->
      <g transform="translate(28.334375 238.807219)scale(0.1 -0.1)">
       <use xlink:href="#DejaVuSerif-48"/>
       <use x="63.623047" xlink:href="#DejaVuSerif-46"/>
       <use x="95.410156" xlink:href="#DejaVuSerif-53"/>
       <use x="159.033203" xlink:href="#DejaVuSerif-48"/>
      </g>
     </g>
    </g>
    <g id="ytick_4">
     <g id="line2d_11">
      <g>
       <use style="stroke:#000000;stroke-width:0.8;" x="57.6" xlink:href="#m56a91de651" y="204.768"/>
      </g>
     </g>
     <g id="text_12">
      <!-- 0.75 -->
      <g transform="translate(28.334375 208.567219)scale(0.1 -0.1)">
       <defs>
        <path d="M 56.390625 67.921875 
L 27.875 0 
L 20.609375 0 
L 47.796875 64.890625 
L 14.109375 64.890625 
L 14.109375 55.90625 
L 8.40625 55.90625 
L 8.40625 72.90625 
L 56.390625 72.90625 
z
" id="DejaVuSerif-55"/>
       </defs>
       <use xlink:href="#DejaVuSerif-48"/>
       <use x="63.623047" xlink:href="#DejaVuSerif-46"/>
       <use x="95.410156" xlink:href="#DejaVuSerif-55"/>
       <use x="159.033203" xlink:href="#DejaVuSerif-53"/>
      </g>
     </g>
    </g>
    <g id="ytick_5">
     <g id="line2d_12">
      <g>
       <use style="stroke:#000000;stroke-width:0.8;" x="57.6" xlink:href="#m56a91de651" y="174.528"/>
      </g>
     </g>
     <g id="text_13">
      <!-- 1.00 -->
      <g transform="translate(28.334375 178.327219)scale(0.1 -0.1)">
       <use xlink:href="#DejaVuSerif-49"/>
       <use x="63.623047" xlink:href="#DejaVuSerif-46"/>
       <use x="95.410156" xlink:href="#DejaVuSerif-48"/>
       <use x="159.033203" xlink:href="#DejaVuSerif-48"/>
      </g>
     </g>
    </g>
    <g id="ytick_6">
     <g id="line2d_13">
      <g>
       <use style="stroke:#000000;stroke-width:0.8;" x="57.6" xlink:href="#m56a91de651" y="144.288"/>
      </g>
     </g>
     <g id="text_14">
      <!-- 1.25 -->
      <g transform="translate(28.334375 148.087219)scale(0.1 -0.1)">
       <use xlink:href="#DejaVuSerif-49"/>
       <use x="63.623047" xlink:href="#DejaVuSerif-46"/>
       <use x="95.410156" xlink:href="#DejaVuSerif-50"/>
       <use x="159.033203" xlink:href="#DejaVuSerif-53"/>
      </g>
     </g>
    </g>
    <g id="ytick_7">
     <g id="line2d_14">
      <g>
       <use style="stroke:#000000;stroke-width:0.8;" x="57.6" xlink:href="#m56a91de651" y="114.048"/>
      </g>
     </g>
     <g id="text_15">
      <!-- 1.50 -->
      <g transform="translate(28.334375 117.847219)scale(0.1 -0.1)">
       <use xlink:href="#DejaVuSerif-49"/>
       <use x="63.623047" xlink:href="#DejaVuSerif-46"/>
       <use x="95.410156" xlink:href="#DejaVuSerif-53"/>
       <use x="159.033203" xlink:href="#DejaVuSerif-48"/>
      </g>
     </g>
    </g>
    <g id="ytick_8">
     <g id="line2d_15">
      <g>
       <use style="stroke:#000000;stroke-width:0.8;" x="57.6" xlink:href="#m56a91de651" y="83.808"/>
      </g>
     </g>
     <g id="text_16">
      <!-- 1.75 -->
      <g transform="translate(28.334375 87.607219)scale(0.1 -0.1)">
       <use xlink:href="#DejaVuSerif-49"/>
       <use x="63.623047" xlink:href="#DejaVuSerif-46"/>
       <use x="95.410156" xlink:href="#DejaVuSerif-55"/>
       <use x="159.033203" xlink:href="#DejaVuSerif-53"/>
      </g>
     </g>
    </g>
    <g id="ytick_9">
     <g id="line2d_16">
      <g>
       <use style="stroke:#000000;stroke-width:0.8;" x="57.6" xlink:href="#m56a91de651" y="53.568"/>
      </g>
     </g>
     <g id="text_17">
      <!-- 2.00 -->
      <g transform="translate(28.334375 57.367219)scale(0.1 -0.1)">
       <use xlink:href="#DejaVuSerif-50"/>
       <use x="63.623047" xlink:href="#DejaVuSerif-46"/>
       <use x="95.410156" xlink:href="#DejaVuSerif-48"/>
       <use x="159.033203" xlink:href="#DejaVuSerif-48"/>
      </g>
     </g>
    </g>
    <g id="text_18">
     <!-- Speed -->
     <g transform="translate(22.254687 190.273313)rotate(-90)scale(0.1 -0.1)">
      <defs>
       <path d="M 9.28125 3.515625 
L 9.28125 20.125 
L 14.890625 20.0625 
Q 15.140625 11.765625 19.703125 7.78125 
Q 24.265625 3.8125 33.59375 3.8125 
Q 42.28125 3.8125 46.84375 7.25 
Q 51.421875 10.6875 51.421875 17.28125 
Q 51.421875 22.5625 48.65625 25.390625 
Q 45.90625 28.21875 37.015625 30.90625 
L 27.390625 33.796875 
Q 16.9375 36.96875 12.671875 41.703125 
Q 8.40625 46.4375 8.40625 54.6875 
Q 8.40625 63.96875 14.984375 69.09375 
Q 21.578125 74.21875 33.5 74.21875 
Q 38.578125 74.21875 44.625 73.109375 
Q 50.6875 72.015625 57.515625 69.921875 
L 57.515625 54.390625 
L 52 54.390625 
Q 51.171875 62.109375 46.84375 65.546875 
Q 42.53125 69 33.6875 69 
Q 25.984375 69 21.953125 65.84375 
Q 17.921875 62.703125 17.921875 56.6875 
Q 17.921875 51.46875 20.9375 48.484375 
Q 23.96875 45.515625 33.796875 42.578125 
L 42.828125 39.890625 
Q 52.734375 36.921875 56.953125 32.296875 
Q 61.1875 27.6875 61.1875 19.921875 
Q 61.1875 9.328125 54.390625 3.953125 
Q 47.609375 -1.421875 34.1875 -1.421875 
Q 28.171875 -1.421875 21.9375 -0.1875 
Q 15.71875 1.03125 9.28125 3.515625 
z
" id="DejaVuSerif-83"/>
       <path d="M 20.515625 28.515625 
L 20.515625 23.390625 
Q 20.515625 14.015625 24.09375 9.109375 
Q 27.6875 4.203125 34.515625 4.203125 
Q 41.40625 4.203125 44.9375 9.71875 
Q 48.484375 15.234375 48.484375 25.984375 
Q 48.484375 36.765625 44.9375 42.234375 
Q 41.40625 47.703125 34.515625 47.703125 
Q 27.6875 47.703125 24.09375 42.765625 
Q 20.515625 37.84375 20.515625 28.515625 
z
M 11.53125 46.6875 
L 2.875 46.6875 
L 2.875 51.90625 
L 20.515625 51.90625 
L 20.515625 43.796875 
Q 23.140625 48.6875 27.21875 51 
Q 31.296875 53.328125 37.3125 53.328125 
Q 46.875 53.328125 52.921875 45.75 
Q 58.984375 38.1875 58.984375 25.984375 
Q 58.984375 13.765625 52.921875 6.171875 
Q 46.875 -1.421875 37.3125 -1.421875 
Q 31.296875 -1.421875 27.21875 0.890625 
Q 23.140625 3.21875 20.515625 8.109375 
L 20.515625 -15.578125 
L 29 -15.578125 
L 29 -20.796875 
L 2.875 -20.796875 
L 2.875 -15.578125 
L 11.53125 -15.578125 
z
" id="DejaVuSerif-112"/>
       <path d="M 52.484375 5.171875 
L 61.078125 5.171875 
L 61.078125 0 
L 43.5 0 
L 43.5 8.109375 
Q 40.875 3.21875 36.796875 0.890625 
Q 32.71875 -1.421875 26.703125 -1.421875 
Q 17.140625 -1.421875 11.0625 6.171875 
Q 4.984375 13.765625 4.984375 25.984375 
Q 4.984375 38.1875 11.03125 45.75 
Q 17.09375 53.328125 26.703125 53.328125 
Q 32.71875 53.328125 36.796875 51 
Q 40.875 48.6875 43.5 43.796875 
L 43.5 70.796875 
L 35.015625 70.796875 
L 35.015625 75.984375 
L 52.484375 75.984375 
z
M 43.5 23.390625 
L 43.5 28.515625 
Q 43.5 37.84375 39.90625 42.765625 
Q 36.328125 47.703125 29.5 47.703125 
Q 22.5625 47.703125 19.015625 42.234375 
Q 15.484375 36.765625 15.484375 25.984375 
Q 15.484375 15.234375 19.015625 9.71875 
Q 22.5625 4.203125 29.5 4.203125 
Q 36.328125 4.203125 39.90625 9.109375 
Q 43.5 14.015625 43.5 23.390625 
z
" id="DejaVuSerif-100"/>
      </defs>
      <use xlink:href="#DejaVuSerif-83"/>
      <use x="68.505859" xlink:href="#DejaVuSerif-112"/>
      <use x="132.519531" xlink:href="#DejaVuSerif-101"/>
      <use x="191.699219" xlink:href="#DejaVuSerif-101"/>
      <use x="250.878906" xlink:href="#DejaVuSerif-100"/>
     </g>
    </g>
   </g>
   <g id="line2d_17">
    <path clip-path="url(#p3519ebd525)" d="M 73.832727 114.048 
L 74.30045 114.048 
L 74.740659 295.488 
L 75.208382 295.488 
L 75.676105 114.048 
L 76.116314 150.336 
L 77.959692 150.336 
L 78.427414 174.528 
L 79.803069 174.528 
L 80.243279 53.568 
L 80.711002 88.128 
L 81.178724 191.808 
L 81.618934 191.808 
L 82.086656 88.128 
L 82.554379 88.128 
L 82.994589 114.048 
L 84.837966 114.048 
L 85.305689 134.208 
L 87.121553 134.208 
L 87.589276 150.336 
L 88.056998 77.76 
L 88.497208 150.336 
L 89.432653 150.336 
L 89.872863 97.553455 
L 90.808308 97.553455 
L 91.248518 163.531636 
L 91.71624 97.553455 
L 92.183963 114.048 
L 93.999827 114.048 
L 94.46755 128.004923 
L 94.935273 128.004923 
L 95.375482 72.177231 
L 95.843205 128.004923 
L 96.310928 128.004923 
L 96.751137 139.968 
L 97.21886 88.128 
L 97.686582 88.128 
L 98.126792 139.968 
L 98.594515 139.968 
L 99.062237 101.952 
L 100.878102 101.952 
L 101.345824 114.048 
L 101.813547 114.048 
L 102.253757 68.688 
L 102.721479 114.048 
L 103.189202 114.048 
L 103.629411 124.720941 
L 104.097134 82.029176 
L 104.564857 82.029176 
L 105.005066 124.720941 
L 105.472789 124.720941 
L 105.940512 93.888 
L 107.756376 93.888 
L 108.224099 104.498526 
L 110.067476 104.498526 
L 110.507686 114.048 
L 110.975408 77.76 
L 111.443131 114.048 
L 112.351063 114.048 
L 112.818786 88.128 
L 113.258995 88.128 
L 113.726718 122.688 
L 114.194441 88.128 
L 114.63465 88.128 
L 115.102373 97.553455 
L 116.94575 97.553455 
L 117.38596 106.159304 
L 118.761615 106.159304 
L 119.229337 74.604522 
L 119.69706 83.808 
L 120.13727 114.048 
L 120.604992 114.048 
L 121.072715 83.808 
L 121.512924 83.808 
L 121.980647 92.2752 
L 122.44837 121.3056 
L 122.888579 92.2752 
L 123.824025 92.2752 
L 124.264234 72.177231 
L 124.731957 100.091077 
L 126.107612 100.091077 
L 126.575334 107.328 
L 127.483267 107.328 
L 127.950989 80.448 
L 128.391199 107.328 
L 128.858921 114.048 
L 129.326644 88.128 
L 130.234576 88.128 
L 130.702299 114.048 
L 131.142508 95.278345 
L 132.985886 95.278345 
L 133.453609 101.952 
L 133.893818 101.952 
L 134.361541 77.76 
L 134.829263 101.952 
L 135.269473 101.952 
L 135.737196 108.195097 
L 136.204918 84.783484 
L 136.645128 84.783484 
L 137.112851 108.195097 
L 137.580573 84.783484 
L 138.020783 91.368 
L 138.488505 91.368 
L 138.956228 114.048 
L 139.396438 91.368 
L 139.86416 91.368 
L 140.331883 97.553455 
L 142.147747 97.553455 
L 142.61547 82.029176 
L 143.083193 82.029176 
L 143.523402 103.375059 
L 143.991125 103.375059 
L 144.458847 82.029176 
L 144.899057 88.128 
L 145.36678 108.864 
L 145.834502 88.128 
L 146.742435 88.128 
L 147.210157 93.888 
L 149.026022 93.888 
L 149.493744 99.336649 
L 150.401676 99.336649 
L 150.869399 79.721514 
L 151.337122 99.336649 
L 151.777331 104.498526 
L 152.245054 104.498526 
L 152.712777 85.399579 
L 153.152986 85.399579 
L 153.620709 104.498526 
L 154.088431 90.786462 
L 154.996364 90.786462 
L 155.464086 109.395692 
L 155.904296 90.786462 
L 156.372018 95.904 
L 156.839741 95.904 
L 157.279951 77.76 
L 157.747673 95.904 
L 158.215396 95.904 
L 158.655606 100.771902 
L 159.123328 83.070439 
L 159.591051 83.070439 
L 160.03126 100.771902 
L 160.498983 100.771902 
L 160.966706 88.128 
L 161.406915 88.128 
L 161.874638 105.408 
L 162.342361 88.128 
L 162.78257 88.128 
L 163.250293 92.950326 
L 165.09367 92.950326 
L 165.53388 81.058909 
L 166.001602 97.553455 
L 166.909535 97.553455 
L 167.377257 81.058909 
L 167.84498 85.824 
L 168.28519 101.952 
L 168.752912 85.824 
L 169.220635 85.824 
L 169.660844 101.952 
L 170.128567 106.159304 
L 170.59629 90.381913 
L 171.971945 90.381913 
L 172.412154 94.745872 
L 173.347599 94.745872 
L 173.787809 79.30417 
L 174.255532 94.745872 
L 174.723254 98.928 
L 175.163464 98.928 
L 175.631186 83.808 
L 176.098909 98.928 
L 176.539119 98.928 
L 177.006841 88.128 
L 177.914773 88.128 
L 178.382496 102.939429 
L 178.850219 88.128 
L 179.290428 92.2752 
L 181.133806 92.2752 
L 181.601529 96.259765 
L 182.041738 82.029176 
L 182.509461 96.259765 
L 182.977183 96.259765 
L 183.417393 82.029176 
L 183.885116 86.134154 
L 184.352838 86.134154 
L 184.793048 100.091077 
L 185.26077 86.134154 
L 185.728493 86.134154 
L 186.168703 90.084226 
L 188.01208 90.084226 
L 188.479803 80.448 
L 188.920012 93.888 
L 189.387735 93.888 
L 189.855458 80.448 
L 190.295667 93.888 
L 190.76339 97.553455 
L 191.231112 97.553455 
L 191.671322 84.357818 
L 192.139045 84.357818 
L 192.606767 97.553455 
L 193.046977 88.128 
L 193.982422 88.128 
L 194.422632 101.088 
L 194.890354 88.128 
L 195.358077 91.765895 
L 197.173941 91.765895 
L 197.641664 95.278345 
L 198.109387 82.765241 
L 198.549596 95.278345 
L 199.485042 95.278345 
L 199.925251 86.370712 
L 200.392974 86.370712 
L 200.860696 98.671729 
L 201.300906 86.370712 
L 201.768629 86.370712 
L 202.236351 89.856 
L 204.052216 89.856 
L 204.519938 81.329311 
L 204.987661 93.227016 
L 205.895593 93.227016 
L 206.363316 81.329311 
L 206.803525 84.783484 
L 207.271248 96.48929 
L 207.738971 84.783484 
L 208.17918 84.783484 
L 208.646903 96.48929 
L 209.114626 99.648 
L 209.554835 88.128 
L 210.93049 88.128 
L 211.398213 91.368 
L 213.24159 91.368 
L 213.6818 94.508308 
L 214.149522 83.342769 
L 214.617245 83.342769 
L 215.057455 94.508308 
L 215.525177 94.508308 
L 215.9929 86.557091 
L 216.433109 86.557091 
L 216.900832 97.553455 
L 217.368555 86.557091 
L 217.808764 86.557091 
L 218.276487 89.675463 
L 220.119864 89.675463 
L 220.560074 82.029176 
L 221.027797 92.702118 
L 221.935729 92.702118 
L 222.403451 82.029176 
L 222.871174 85.122783 
L 223.311384 95.641043 
L 223.779106 85.122783 
L 224.246829 85.122783 
L 224.687039 95.641043 
L 225.154761 98.496 
L 225.622484 88.128 
L 226.530416 88.128 
L 226.998139 98.496 
L 227.438348 91.048563 
L 228.373794 91.048563 
L 228.814003 80.826592 
L 229.281726 91.048563 
L 229.749448 93.888 
L 230.189658 93.888 
L 230.657381 83.808 
L 231.125103 93.888 
L 231.565313 93.888 
L 232.033035 86.707726 
L 232.940968 86.707726 
L 233.40869 96.649644 
L 233.876413 86.707726 
L 234.316622 89.529081 
L 236.16 89.529081 
L 236.627723 92.2752 
L 237.067932 82.5984 
L 237.535655 92.2752 
L 238.003378 92.2752 
L 238.443587 82.5984 
L 238.91131 85.399579 
L 239.379032 94.949053 
L 239.819242 94.949053 
L 240.286965 85.399579 
L 240.754687 85.399579 
L 241.194897 88.128 
L 242.570552 88.128 
L 243.038274 97.553455 
L 243.505997 90.786462 
L 244.413929 90.786462 
L 244.881652 81.481846 
L 245.321861 90.786462 
L 245.789584 93.37762 
L 246.257307 93.37762 
L 246.697516 84.190785 
L 247.165239 93.37762 
L 247.632961 93.37762 
L 248.073171 86.832 
L 249.008616 86.832 
L 249.448826 95.904 
L 249.916549 86.832 
L 250.384271 89.408 
L 252.200136 89.408 
L 252.667858 91.921171 
L 253.135581 83.070439 
L 253.57579 91.921171 
L 254.043513 91.921171 
L 254.511236 83.070439 
L 254.951445 85.629687 
L 255.419168 94.373783 
L 255.886891 94.373783 
L 256.3271 85.629687 
L 256.794823 85.629687 
L 257.262545 88.128 
L 258.6382 88.128 
L 259.07841 96.768 
L 259.546133 90.567529 
L 260.454065 90.567529 
L 260.921787 82.029176 
L 261.38951 90.567529 
L 261.82972 92.950326 
L 262.297442 92.950326 
L 262.765165 84.511256 
L 263.205374 92.950326 
L 263.673097 92.950326 
L 264.14082 86.936276 
L 265.048752 86.936276 
L 265.516475 95.278345 
L 265.956684 86.936276 
L 266.424407 89.306182 
L 266.892129 89.306182 
L 267.332339 81.058909 
L 267.800062 89.306182 
L 268.267784 89.306182 
L 268.707994 91.622831 
L 269.175716 83.468225 
L 269.643439 91.622831 
L 270.083649 91.622831 
L 270.551371 83.468225 
L 271.019094 85.824 
L 271.459304 85.824 
L 271.927026 93.888 
L 272.394749 85.824 
L 272.834958 85.824 
L 273.302681 88.128 
L 275.146059 88.128 
L 275.586268 82.493217 
L 276.053991 90.381913 
L 276.521713 90.381913 
L 276.961923 82.493217 
L 277.429646 90.381913 
L 277.897368 92.587355 
L 278.337578 92.587355 
L 278.8053 84.783484 
L 279.273023 84.783484 
L 279.713233 92.587355 
L 280.180955 87.025021 
L 281.088888 87.025021 
L 281.55661 94.745872 
L 282.024333 87.025021 
L 282.464542 89.219368 
L 282.932265 89.219368 
L 283.399988 81.579789 
L 283.840197 89.219368 
L 284.30792 89.219368 
L 284.775643 91.368 
L 285.215852 83.808 
L 285.683575 91.368 
L 286.151297 91.368 
L 286.591507 83.808 
L 287.05923 85.990268 
L 287.526952 85.990268 
L 287.967162 93.47233 
L 288.434884 85.990268 
L 288.902607 85.990268 
L 289.342817 88.128 
L 291.186194 88.128 
L 291.653917 82.891636 
L 292.094126 90.222545 
L 292.561849 90.222545 
L 293.029572 82.891636 
L 293.469781 90.222545 
L 293.937504 92.2752 
L 294.405227 92.2752 
L 294.845436 85.0176 
L 295.313159 85.0176 
L 295.780881 92.2752 
L 296.221091 87.101465 
L 297.156536 87.101465 
L 297.596746 94.287208 
L 298.064468 87.101465 
L 298.532191 89.144471 
L 298.972401 89.144471 
L 299.440123 82.029176 
L 299.907846 89.144471 
L 300.348055 89.144471 
L 300.815778 91.147806 
L 301.283501 84.101592 
L 301.72371 91.147806 
L 302.191433 91.147806 
L 302.659156 84.101592 
L 303.099365 86.134154 
L 303.567088 86.134154 
L 304.03481 93.112615 
L 304.47502 86.134154 
L 304.942743 86.134154 
L 305.410465 88.128 
L 307.22633 88.128 
L 307.694052 83.237434 
L 308.161775 90.084226 
L 308.601985 90.084226 
L 309.069707 83.237434 
L 309.53743 90.084226 
L 309.977639 92.003888 
L 310.445362 92.003888 
L 310.913085 85.221084 
L 311.353294 85.221084 
L 311.821017 92.003888 
L 312.28874 87.168 
L 313.196672 87.168 
L 313.664394 93.888 
L 314.104604 87.168 
L 314.572327 89.079193 
L 315.040049 89.079193 
L 315.480259 82.420844 
L 315.947982 89.079193 
L 316.415704 89.079193 
L 316.855914 90.955636 
L 317.323636 84.357818 
L 317.791359 90.955636 
L 318.231569 90.955636 
L 318.699291 84.357818 
L 319.167014 86.259892 
L 319.607223 86.259892 
L 320.074946 92.79827 
L 320.542669 86.259892 
L 320.982878 86.259892 
L 321.450601 88.128 
L 323.293978 88.128 
L 323.734188 83.540389 
L 324.201911 89.963044 
L 324.669633 89.963044 
L 325.109843 83.540389 
L 325.577565 89.963044 
L 326.045288 91.765895 
L 326.485498 91.765895 
L 326.95322 85.399579 
L 327.420943 85.399579 
L 327.861153 91.765895 
L 328.328875 87.226435 
L 329.236807 87.226435 
L 329.70453 93.537391 
L 330.172253 87.226435 
L 330.612462 89.021793 
L 331.080185 89.021793 
L 331.547908 82.765241 
L 331.988117 89.021793 
L 332.45584 89.021793 
L 332.923562 90.786462 
L 333.363772 84.583385 
L 333.831495 90.786462 
L 334.299217 90.786462 
L 334.739427 84.583385 
L 335.207149 86.370712 
L 335.674872 86.370712 
L 336.115082 92.52122 
L 336.582804 86.370712 
L 337.050527 86.370712 
L 337.490737 88.128 
L 339.334114 88.128 
L 339.801837 83.808 
L 340.242046 89.856 
L 340.709769 89.856 
L 341.177492 83.808 
L 341.617701 89.856 
L 342.085424 91.555438 
L 342.553146 91.555438 
L 342.993356 85.557421 
L 343.461079 85.557421 
L 343.928801 91.555438 
L 344.369011 87.278164 
L 345.304456 87.278164 
L 345.744666 93.227016 
L 346.212388 87.278164 
L 346.680111 88.970927 
L 347.12032 88.970927 
L 347.588043 83.070439 
L 348.055766 88.970927 
L 348.495975 88.970927 
L 348.963698 90.636387 
L 349.431421 84.783484 
L 349.87163 90.636387 
L 350.339353 90.636387 
L 350.807076 84.783484 
L 351.247285 86.46912 
L 351.715008 86.46912 
L 352.18273 92.2752 
L 352.62294 86.46912 
L 353.090663 86.46912 
L 353.558385 88.128 
L 355.37425 88.128 
L 355.841972 84.04611 
L 356.309695 89.760756 
L 356.749904 89.760756 
L 357.217627 84.04611 
L 357.68535 89.760756 
L 358.125559 91.368 
L 358.593282 91.368 
L 359.061005 85.698 
L 359.501214 85.698 
L 359.968937 91.368 
L 360.436659 87.324279 
L 361.344592 87.324279 
L 361.812314 92.950326 
L 362.252524 87.324279 
L 362.720247 88.925538 
L 363.187969 88.925538 
L 363.628179 83.342769 
L 364.095901 88.925538 
L 364.563624 88.925538 
L 365.003834 90.502351 
L 365.471556 84.962198 
L 365.939279 90.502351 
L 366.379488 90.502351 
L 366.847211 84.962198 
L 367.314934 86.557091 
L 367.755143 86.557091 
L 368.222866 92.055273 
L 368.690589 86.557091 
L 369.130798 86.557091 
L 369.598521 88.128 
L 371.441898 88.128 
L 371.882108 84.259343 
L 372.349831 89.675463 
L 372.817553 89.675463 
L 373.257763 84.259343 
L 373.725485 89.675463 
L 374.193208 91.2 
L 374.633418 85.824 
L 375.568863 85.824 
L 376.009072 91.2 
L 376.476795 87.365647 
L 378.320173 87.365647 
L 378.760382 88.884788 
L 379.228105 88.884788 
L 379.695827 83.58727 
L 380.136037 88.884788 
L 380.60376 88.884788 
L 381.071482 85.122783 
L 381.511692 85.122783 
L 381.979414 90.381913 
L 382.447137 90.381913 
L 382.887347 85.122783 
L 383.355069 86.636201 
L 385.198447 86.636201 
L 385.638656 88.128 
L 387.014311 88.128 
L 387.482034 82.944 
L 387.949757 84.451404 
L 388.389966 89.598638 
L 388.857689 89.598638 
L 389.325411 84.451404 
L 389.765621 89.598638 
L 390.233344 91.048563 
L 390.701066 85.937577 
L 391.608998 85.937577 
L 392.076721 91.048563 
L 392.516931 87.402965 
L 394.360308 87.402965 
L 394.828031 88.848 
L 395.26824 88.848 
L 395.735963 83.808 
L 396.203686 88.848 
L 396.643895 83.808 
L 397.111618 85.267862 
L 398.01955 85.267862 
L 398.487273 80.262621 
L 398.487273 80.262621 
" style="fill:none;stroke:#1f77b4;stroke-linecap:square;stroke-width:1.5;"/>
   </g>
   <g id="patch_3">
    <path d="M 57.6 307.584 
L 57.6 41.472 
" style="fill:none;stroke:#000000;stroke-linecap:square;stroke-linejoin:miter;stroke-width:0.8;"/>
   </g>
   <g id="patch_4">
    <path d="M 414.72 307.584 
L 414.72 41.472 
" style="fill:none;stroke:#000000;stroke-linecap:square;stroke-linejoin:miter;stroke-width:0.8;"/>
   </g>
   <g id="patch_5">
    <path d="M 57.6 307.584 
L 414.72 307.584 
" style="fill:none;stroke:#000000;stroke-linecap:square;stroke-linejoin:miter;stroke-width:0.8;"/>
   </g>
   <g id="patch_6">
    <path d="M 57.6 41.472 
L 414.72 41.472 
" style="fill:none;stroke:#000000;stroke-linecap:square;stroke-linejoin:miter;stroke-width:0.8;"/>
   </g>
   <g id="text_19">
    <!-- Speed function of time -->
    <g transform="translate(167.024063 35.472)scale(0.12 -0.12)">
     <defs>
      <path id="DejaVuSerif-32"/>
      <path d="M 43.015625 63.71875 
L 38.28125 63.71875 
Q 38.234375 67.390625 36.203125 69.28125 
Q 34.1875 71.1875 30.328125 71.1875 
Q 25.296875 71.1875 23.234375 68.421875 
Q 21.1875 65.671875 21.1875 58.59375 
L 21.1875 51.90625 
L 35.6875 51.90625 
L 35.6875 46.6875 
L 21.1875 46.6875 
L 21.1875 5.171875 
L 32.71875 5.171875 
L 32.71875 0 
L 3.609375 0 
L 3.609375 5.171875 
L 12.203125 5.171875 
L 12.203125 46.6875 
L 3.609375 46.6875 
L 3.609375 51.90625 
L 12.203125 51.90625 
L 12.203125 58.40625 
Q 12.203125 67.09375 16.71875 71.53125 
Q 21.234375 75.984375 29.984375 75.984375 
Q 33.25 75.984375 36.515625 75.390625 
Q 39.796875 74.8125 43.015625 73.578125 
z
" id="DejaVuSerif-102"/>
      <path d="M 35.40625 51.90625 
L 52.203125 51.90625 
L 52.203125 5.171875 
L 60.6875 5.171875 
L 60.6875 0 
L 43.21875 0 
L 43.21875 9.1875 
Q 40.71875 4 36.765625 1.28125 
Q 32.8125 -1.421875 27.59375 -1.421875 
Q 18.953125 -1.421875 14.875 3.484375 
Q 10.796875 8.40625 10.796875 18.890625 
L 10.796875 46.6875 
L 2.6875 46.6875 
L 2.6875 51.90625 
L 19.828125 51.90625 
L 19.828125 21.6875 
Q 19.828125 12.203125 22.140625 8.6875 
Q 24.46875 5.171875 30.421875 5.171875 
Q 36.671875 5.171875 39.9375 9.765625 
Q 43.21875 14.359375 43.21875 23.09375 
L 43.21875 46.6875 
L 35.40625 46.6875 
z
" id="DejaVuSerif-117"/>
      <path d="M 4.109375 0 
L 4.109375 5.171875 
L 12.203125 5.171875 
L 12.203125 46.6875 
L 3.609375 46.6875 
L 3.609375 51.90625 
L 21.1875 51.90625 
L 21.1875 42.671875 
Q 23.6875 47.953125 27.65625 50.640625 
Q 31.640625 53.328125 36.921875 53.328125 
Q 45.515625 53.328125 49.5625 48.390625 
Q 53.609375 43.453125 53.609375 33.015625 
L 53.609375 5.171875 
L 61.625 5.171875 
L 61.625 0 
L 36.8125 0 
L 36.8125 5.171875 
L 44.578125 5.171875 
L 44.578125 30.171875 
Q 44.578125 39.703125 42.234375 43.234375 
Q 39.890625 46.78125 33.984375 46.78125 
Q 27.734375 46.78125 24.453125 42.203125 
Q 21.1875 37.640625 21.1875 28.90625 
L 21.1875 5.171875 
L 29 5.171875 
L 29 0 
z
" id="DejaVuSerif-110"/>
      <path d="M 51.421875 15.578125 
Q 49.515625 7.28125 44.09375 2.921875 
Q 38.671875 -1.421875 30.078125 -1.421875 
Q 18.75 -1.421875 11.859375 6.078125 
Q 4.984375 13.578125 4.984375 25.984375 
Q 4.984375 38.421875 11.859375 45.875 
Q 18.75 53.328125 30.078125 53.328125 
Q 35.015625 53.328125 39.890625 52.171875 
Q 44.78125 51.03125 49.703125 48.6875 
L 49.703125 35.40625 
L 44.484375 35.40625 
Q 43.453125 42.234375 40.015625 45.359375 
Q 36.578125 48.484375 30.171875 48.484375 
Q 22.90625 48.484375 19.1875 42.84375 
Q 15.484375 37.203125 15.484375 25.984375 
Q 15.484375 14.75 19.171875 9.078125 
Q 22.859375 3.421875 30.171875 3.421875 
Q 35.984375 3.421875 39.453125 6.4375 
Q 42.921875 9.46875 44.1875 15.578125 
z
" id="DejaVuSerif-99"/>
      <path d="M 10.796875 46.6875 
L 2.875 46.6875 
L 2.875 51.90625 
L 10.796875 51.90625 
L 10.796875 68.015625 
L 19.828125 68.015625 
L 19.828125 51.90625 
L 36.71875 51.90625 
L 36.71875 46.6875 
L 19.828125 46.6875 
L 19.828125 13.71875 
Q 19.828125 7.125 21.09375 5.265625 
Q 22.359375 3.421875 25.78125 3.421875 
Q 29.296875 3.421875 30.90625 5.484375 
Q 32.515625 7.5625 32.625 12.203125 
L 39.40625 12.203125 
Q 39.015625 5.125 35.546875 1.84375 
Q 32.078125 -1.421875 25 -1.421875 
Q 17.234375 -1.421875 14.015625 2.015625 
Q 10.796875 5.46875 10.796875 13.71875 
z
" id="DejaVuSerif-116"/>
      <path d="M 30.078125 3.421875 
Q 37.3125 3.421875 40.984375 9.125 
Q 44.671875 14.84375 44.671875 25.984375 
Q 44.671875 37.109375 40.984375 42.796875 
Q 37.3125 48.484375 30.078125 48.484375 
Q 22.859375 48.484375 19.171875 42.796875 
Q 15.484375 37.109375 15.484375 25.984375 
Q 15.484375 14.84375 19.1875 9.125 
Q 22.90625 3.421875 30.078125 3.421875 
z
M 30.078125 -1.421875 
Q 18.75 -1.421875 11.859375 6.078125 
Q 4.984375 13.578125 4.984375 25.984375 
Q 4.984375 38.375 11.84375 45.84375 
Q 18.703125 53.328125 30.078125 53.328125 
Q 41.453125 53.328125 48.3125 45.84375 
Q 55.171875 38.375 55.171875 25.984375 
Q 55.171875 13.578125 48.3125 6.078125 
Q 41.453125 -1.421875 30.078125 -1.421875 
z
" id="DejaVuSerif-111"/>
     </defs>
     <use xlink:href="#DejaVuSerif-83"/>
     <use x="68.505859" xlink:href="#DejaVuSerif-112"/>
     <use x="132.519531" xlink:href="#DejaVuSerif-101"/>
     <use x="191.699219" xlink:href="#DejaVuSerif-101"/>
     <use x="250.878906" xlink:href="#DejaVuSerif-100"/>
     <use x="314.892578" xlink:href="#DejaVuSerif-32"/>
     <use x="346.679688" xlink:href="#DejaVuSerif-102"/>
     <use x="383.691406" xlink:href="#DejaVuSerif-117"/>
     <use x="448.095703" xlink:href="#DejaVuSerif-110"/>
     <use x="512.5" xlink:href="#DejaVuSerif-99"/>
     <use x="568.505859" xlink:href="#DejaVuSerif-116"/>
     <use x="608.691406" xlink:href="#DejaVuSerif-105"/>
     <use x="640.673828" xlink:href="#DejaVuSerif-111"/>
     <use x="700.878906" xlink:href="#DejaVuSerif-110"/>
     <use x="765.283203" xlink:href="#DejaVuSerif-32"/>
     <use x="797.070312" xlink:href="#DejaVuSerif-111"/>
     <use x="857.275391" xlink:href="#DejaVuSerif-102"/>
     <use x="894.287109" xlink:href="#DejaVuSerif-32"/>
     <use x="926.074219" xlink:href="#DejaVuSerif-116"/>
     <use x="966.259766" xlink:href="#DejaVuSerif-105"/>
     <use x="998.242188" xlink:href="#DejaVuSerif-109"/>
     <use x="1093.066406" xlink:href="#DejaVuSerif-101"/>
    </g>
   </g>
  </g>
 </g>
 <defs>
  <clipPath id="p3519ebd525">
   <rect height="266.112" width="357.12" x="57.6" y="41.472"/>
  </clipPath>
 </defs>
</svg>
