<?xml version="1.0" encoding="utf-8" standalone="no"?>
<!DOCTYPE svg PUBLIC "-//W3C//DTD SVG 1.1//EN"
  "http://www.w3.org/Graphics/SVG/1.1/DTD/svg11.dtd">
<!-- Created with matplotlib (https://matplotlib.org/) -->
<svg height="345.6pt" version="1.1" viewBox="0 0 460.8 345.6" width="460.8pt" xmlns="http://www.w3.org/2000/svg" xmlns:xlink="http://www.w3.org/1999/xlink">
 <metadata>
  <rdf:RDF xmlns:cc="http://creativecommons.org/ns#" xmlns:dc="http://purl.org/dc/elements/1.1/" xmlns:rdf="http://www.w3.org/1999/02/22-rdf-syntax-ns#">
   <cc:Work>
    <dc:type rdf:resource="http://purl.org/dc/dcmitype/StillImage"/>
    <dc:date>2022-12-08T09:29:44.537920</dc:date>
    <dc:format>image/svg+xml</dc:format>
    <dc:creator>
     <cc:Agent>
      <dc:title>Matplotlib v3.3.4, https://matplotlib.org/</dc:title>
     </cc:Agent>
    </dc:creator>
   </cc:Work>
  </rdf:RDF>
 </metadata>
 <defs>
  <style type="text/css">*{stroke-linecap:butt;stroke-linejoin:round;}</style>
 </defs>
 <g id="figure_1">
  <g id="patch_1">
   <path d="M 0 345.6 
L 460.8 345.6 
L 460.8 0 
L 0 0 
z
" style="fill:#ffffff;"/>
  </g>
  <g id="axes_1">
   <g id="patch_2">
    <path d="M 57.6 307.584 
L 414.72 307.584 
L 414.72 41.472 
L 57.6 41.472 
z
" style="fill:#ffffff;"/>
   </g>
   <g id="matplotlib.axis_1">
    <g id="xtick_1">
     <g id="line2d_1">
      <defs>
       <path d="M 0 0 
L 0 3.5 
" id="mea4c27efdc" style="stroke:#000000;stroke-width:0.8;"/>
      </defs>
      <g>
       <use style="stroke:#000000;stroke-width:0.8;" x="71.544125" xlink:href="#mea4c27efdc" y="307.584"/>
      </g>
     </g>
     <g id="text_1">
      <!-- 0 -->
      <g transform="translate(68.362875 322.182437)scale(0.1 -0.1)">
       <defs>
        <path d="M 31.78125 3.421875 
Q 39.265625 3.421875 42.96875 11.625 
Q 46.6875 19.828125 46.6875 36.375 
Q 46.6875 52.984375 42.96875 61.1875 
Q 39.265625 69.390625 31.78125 69.390625 
Q 24.3125 69.390625 20.59375 61.1875 
Q 16.890625 52.984375 16.890625 36.375 
Q 16.890625 19.828125 20.59375 11.625 
Q 24.3125 3.421875 31.78125 3.421875 
z
M 31.78125 -1.421875 
Q 19.921875 -1.421875 13.25 8.53125 
Q 6.59375 18.5 6.59375 36.375 
Q 6.59375 54.296875 13.25 64.25 
Q 19.921875 74.21875 31.78125 74.21875 
Q 43.703125 74.21875 50.34375 64.25 
Q 56.984375 54.296875 56.984375 36.375 
Q 56.984375 18.5 50.34375 8.53125 
Q 43.703125 -1.421875 31.78125 -1.421875 
z
" id="DejaVuSerif-48"/>
       </defs>
       <use xlink:href="#DejaVuSerif-48"/>
      </g>
     </g>
    </g>
    <g id="xtick_2">
     <g id="line2d_2">
      <g>
       <use style="stroke:#000000;stroke-width:0.8;" x="136.932755" xlink:href="#mea4c27efdc" y="307.584"/>
      </g>
     </g>
     <g id="text_2">
      <!-- 100 -->
      <g transform="translate(127.389005 322.182437)scale(0.1 -0.1)">
       <defs>
        <path d="M 14.203125 0 
L 14.203125 5.171875 
L 26.90625 5.171875 
L 26.90625 65.828125 
L 12.203125 56.296875 
L 12.203125 62.703125 
L 29.984375 74.21875 
L 36.71875 74.21875 
L 36.71875 5.171875 
L 49.421875 5.171875 
L 49.421875 0 
z
" id="DejaVuSerif-49"/>
       </defs>
       <use xlink:href="#DejaVuSerif-49"/>
       <use x="63.623047" xlink:href="#DejaVuSerif-48"/>
       <use x="127.246094" xlink:href="#DejaVuSerif-48"/>
      </g>
     </g>
    </g>
    <g id="xtick_3">
     <g id="line2d_3">
      <g>
       <use style="stroke:#000000;stroke-width:0.8;" x="202.321384" xlink:href="#mea4c27efdc" y="307.584"/>
      </g>
     </g>
     <g id="text_3">
      <!-- 200 -->
      <g transform="translate(192.777634 322.182437)scale(0.1 -0.1)">
       <defs>
        <path d="M 12.796875 55.515625 
L 7.328125 55.515625 
L 7.328125 68.5 
Q 12.546875 71.296875 17.84375 72.75 
Q 23.140625 74.21875 28.21875 74.21875 
Q 39.59375 74.21875 46.1875 68.703125 
Q 52.78125 63.1875 52.78125 53.71875 
Q 52.78125 43.015625 37.84375 28.125 
Q 36.671875 27 36.078125 26.421875 
L 17.671875 8.015625 
L 48.09375 8.015625 
L 48.09375 17 
L 53.8125 17 
L 53.8125 0 
L 6.78125 0 
L 6.78125 5.328125 
L 28.90625 27.390625 
Q 36.234375 34.71875 39.359375 40.84375 
Q 42.484375 46.96875 42.484375 53.71875 
Q 42.484375 61.078125 38.640625 65.234375 
Q 34.8125 69.390625 28.078125 69.390625 
Q 21.09375 69.390625 17.28125 65.921875 
Q 13.484375 62.453125 12.796875 55.515625 
z
" id="DejaVuSerif-50"/>
       </defs>
       <use xlink:href="#DejaVuSerif-50"/>
       <use x="63.623047" xlink:href="#DejaVuSerif-48"/>
       <use x="127.246094" xlink:href="#DejaVuSerif-48"/>
      </g>
     </g>
    </g>
    <g id="xtick_4">
     <g id="line2d_4">
      <g>
       <use style="stroke:#000000;stroke-width:0.8;" x="267.710014" xlink:href="#mea4c27efdc" y="307.584"/>
      </g>
     </g>
     <g id="text_4">
      <!-- 300 -->
      <g transform="translate(258.166264 322.182437)scale(0.1 -0.1)">
       <defs>
        <path d="M 9.71875 69.828125 
Q 15.4375 71.96875 20.671875 73.09375 
Q 25.921875 74.21875 30.515625 74.21875 
Q 41.21875 74.21875 47.21875 69.59375 
Q 53.21875 64.984375 53.21875 56.78125 
Q 53.21875 50.203125 49.0625 45.78125 
Q 44.921875 41.359375 37.3125 39.796875 
Q 46.296875 38.53125 51.25 33.28125 
Q 56.203125 28.03125 56.203125 19.671875 
Q 56.203125 9.46875 49.34375 4.015625 
Q 42.484375 -1.421875 29.59375 -1.421875 
Q 23.875 -1.421875 18.421875 -0.1875 
Q 12.984375 1.03125 7.625 3.515625 
L 7.625 17.671875 
L 13.09375 17.671875 
Q 13.578125 10.640625 17.828125 7.03125 
Q 22.078125 3.421875 29.78125 3.421875 
Q 37.25 3.421875 41.578125 7.734375 
Q 45.90625 12.0625 45.90625 19.578125 
Q 45.90625 28.171875 41.453125 32.59375 
Q 37.015625 37.015625 28.421875 37.015625 
L 23.78125 37.015625 
L 23.78125 42 
L 26.21875 42 
Q 34.765625 42 39.03125 45.53125 
Q 43.3125 49.078125 43.3125 56.203125 
Q 43.3125 62.59375 39.796875 65.984375 
Q 36.28125 69.390625 29.6875 69.390625 
Q 23.09375 69.390625 19.453125 66.265625 
Q 15.828125 63.140625 15.1875 56.984375 
L 9.71875 56.984375 
z
" id="DejaVuSerif-51"/>
       </defs>
       <use xlink:href="#DejaVuSerif-51"/>
       <use x="63.623047" xlink:href="#DejaVuSerif-48"/>
       <use x="127.246094" xlink:href="#DejaVuSerif-48"/>
      </g>
     </g>
    </g>
    <g id="xtick_5">
     <g id="line2d_5">
      <g>
       <use style="stroke:#000000;stroke-width:0.8;" x="333.098643" xlink:href="#mea4c27efdc" y="307.584"/>
      </g>
     </g>
     <g id="text_5">
      <!-- 400 -->
      <g transform="translate(323.554893 322.182437)scale(0.1 -0.1)">
       <defs>
        <path d="M 34.90625 24.703125 
L 34.90625 63.484375 
L 10.015625 24.703125 
z
M 56.390625 0 
L 23.1875 0 
L 23.1875 5.171875 
L 34.90625 5.171875 
L 34.90625 19.484375 
L 3.078125 19.484375 
L 3.078125 24.8125 
L 35.015625 74.21875 
L 44.671875 74.21875 
L 44.671875 24.703125 
L 58.59375 24.703125 
L 58.59375 19.484375 
L 44.671875 19.484375 
L 44.671875 5.171875 
L 56.390625 5.171875 
z
" id="DejaVuSerif-52"/>
       </defs>
       <use xlink:href="#DejaVuSerif-52"/>
       <use x="63.623047" xlink:href="#DejaVuSerif-48"/>
       <use x="127.246094" xlink:href="#DejaVuSerif-48"/>
      </g>
     </g>
    </g>
    <g id="xtick_6">
     <g id="line2d_6">
      <g>
       <use style="stroke:#000000;stroke-width:0.8;" x="398.487273" xlink:href="#mea4c27efdc" y="307.584"/>
      </g>
     </g>
     <g id="text_6">
      <!-- 500 -->
      <g transform="translate(388.943523 322.182437)scale(0.1 -0.1)">
       <defs>
        <path d="M 50.296875 72.90625 
L 50.296875 64.890625 
L 16.890625 64.890625 
L 16.890625 44 
Q 19.4375 45.75 22.828125 46.625 
Q 26.21875 47.515625 30.421875 47.515625 
Q 42.234375 47.515625 49.0625 40.96875 
Q 55.90625 34.421875 55.90625 23.09375 
Q 55.90625 11.53125 49 5.046875 
Q 42.09375 -1.421875 29.59375 -1.421875 
Q 24.5625 -1.421875 19.28125 -0.1875 
Q 14.015625 1.03125 8.5 3.515625 
L 8.5 17.671875 
L 14.015625 17.671875 
Q 14.453125 10.75 18.421875 7.078125 
Q 22.40625 3.421875 29.59375 3.421875 
Q 37.3125 3.421875 41.453125 8.5 
Q 45.609375 13.578125 45.609375 23.09375 
Q 45.609375 32.5625 41.484375 37.609375 
Q 37.359375 42.671875 29.59375 42.671875 
Q 25.203125 42.671875 21.84375 41.109375 
Q 18.5 39.546875 15.921875 36.28125 
L 11.71875 36.28125 
L 11.71875 72.90625 
z
" id="DejaVuSerif-53"/>
       </defs>
       <use xlink:href="#DejaVuSerif-53"/>
       <use x="63.623047" xlink:href="#DejaVuSerif-48"/>
       <use x="127.246094" xlink:href="#DejaVuSerif-48"/>
      </g>
     </g>
    </g>
    <g id="text_7">
     <!-- Time -->
     <g transform="translate(223.524844 335.860562)scale(0.1 -0.1)">
      <defs>
       <path d="M 19.09375 0 
L 19.09375 5.171875 
L 28.421875 5.171875 
L 28.421875 67.09375 
L 6.984375 67.09375 
L 6.984375 55.71875 
L 0.984375 55.71875 
L 0.984375 72.90625 
L 65.71875 72.90625 
L 65.71875 55.71875 
L 59.71875 55.71875 
L 59.71875 67.09375 
L 38.28125 67.09375 
L 38.28125 5.171875 
L 47.609375 5.171875 
L 47.609375 0 
z
" id="DejaVuSerif-84"/>
       <path d="M 9.71875 68.015625 
Q 9.71875 70.265625 11.34375 71.921875 
Q 12.984375 73.578125 15.28125 73.578125 
Q 17.53125 73.578125 19.15625 71.921875 
Q 20.796875 70.265625 20.796875 68.015625 
Q 20.796875 65.71875 19.1875 64.109375 
Q 17.578125 62.5 15.28125 62.5 
Q 12.984375 62.5 11.34375 64.109375 
Q 9.71875 65.71875 9.71875 68.015625 
z
M 21.1875 5.171875 
L 29.6875 5.171875 
L 29.6875 0 
L 3.609375 0 
L 3.609375 5.171875 
L 12.203125 5.171875 
L 12.203125 46.6875 
L 3.609375 46.6875 
L 3.609375 51.90625 
L 21.1875 51.90625 
z
" id="DejaVuSerif-105"/>
       <path d="M 51.8125 41.796875 
Q 54.390625 47.515625 58.421875 50.421875 
Q 62.453125 53.328125 67.828125 53.328125 
Q 75.984375 53.328125 79.984375 48.265625 
Q 83.984375 43.21875 83.984375 33.015625 
L 83.984375 5.171875 
L 92.09375 5.171875 
L 92.09375 0 
L 67.1875 0 
L 67.1875 5.171875 
L 75 5.171875 
L 75 31.984375 
Q 75 39.9375 72.65625 43.3125 
Q 70.3125 46.6875 64.890625 46.6875 
Q 58.890625 46.6875 55.734375 42.140625 
Q 52.59375 37.59375 52.59375 28.90625 
L 52.59375 5.171875 
L 60.40625 5.171875 
L 60.40625 0 
L 35.796875 0 
L 35.796875 5.171875 
L 43.609375 5.171875 
L 43.609375 32.328125 
Q 43.609375 40.09375 41.265625 43.390625 
Q 38.921875 46.6875 33.5 46.6875 
Q 27.484375 46.6875 24.328125 42.140625 
Q 21.1875 37.59375 21.1875 28.90625 
L 21.1875 5.171875 
L 29 5.171875 
L 29 0 
L 4.109375 0 
L 4.109375 5.171875 
L 12.203125 5.171875 
L 12.203125 46.78125 
L 3.609375 46.78125 
L 3.609375 51.90625 
L 21.1875 51.90625 
L 21.1875 42.671875 
Q 23.6875 47.859375 27.53125 50.59375 
Q 31.390625 53.328125 36.28125 53.328125 
Q 42.328125 53.328125 46.375 50.3125 
Q 50.4375 47.3125 51.8125 41.796875 
z
" id="DejaVuSerif-109"/>
       <path d="M 54.203125 25 
L 15.484375 25 
L 15.484375 24.609375 
Q 15.484375 14.109375 19.4375 8.765625 
Q 23.390625 3.421875 31.109375 3.421875 
Q 37.015625 3.421875 40.796875 6.515625 
Q 44.578125 9.625 46.09375 15.71875 
L 53.328125 15.71875 
Q 51.171875 7.171875 45.375 2.875 
Q 39.59375 -1.421875 30.171875 -1.421875 
Q 18.796875 -1.421875 11.890625 6.078125 
Q 4.984375 13.578125 4.984375 25.984375 
Q 4.984375 38.28125 11.765625 45.796875 
Q 18.5625 53.328125 29.59375 53.328125 
Q 41.359375 53.328125 47.65625 46.0625 
Q 53.953125 38.8125 54.203125 25 
z
M 43.609375 30.171875 
Q 43.3125 39.265625 39.765625 43.875 
Q 36.234375 48.484375 29.59375 48.484375 
Q 23.390625 48.484375 19.828125 43.84375 
Q 16.265625 39.203125 15.484375 30.171875 
z
" id="DejaVuSerif-101"/>
      </defs>
      <use xlink:href="#DejaVuSerif-84"/>
      <use x="66.699219" xlink:href="#DejaVuSerif-105"/>
      <use x="98.681641" xlink:href="#DejaVuSerif-109"/>
      <use x="193.505859" xlink:href="#DejaVuSerif-101"/>
     </g>
    </g>
   </g>
   <g id="matplotlib.axis_2">
    <g id="ytick_1">
     <g id="line2d_7">
      <defs>
       <path d="M 0 0 
L -3.5 0 
" id="m1b6f3a75d8" style="stroke:#000000;stroke-width:0.8;"/>
      </defs>
      <g>
       <use style="stroke:#000000;stroke-width:0.8;" x="57.6" xlink:href="#m1b6f3a75d8" y="295.729437"/>
      </g>
     </g>
     <g id="text_8">
      <!-- −16 -->
      <g transform="translate(29.495313 299.528656)scale(0.1 -0.1)">
       <defs>
        <path d="M 10.59375 35.296875 
L 73.1875 35.296875 
L 73.1875 27.390625 
L 10.59375 27.390625 
z
" id="DejaVuSerif-8722"/>
        <path d="M 32.71875 3.421875 
Q 39.59375 3.421875 43.296875 8.46875 
Q 47.015625 13.53125 47.015625 23 
Q 47.015625 32.46875 43.296875 37.515625 
Q 39.59375 42.578125 32.71875 42.578125 
Q 25.734375 42.578125 22.0625 37.6875 
Q 18.40625 32.8125 18.40625 23.578125 
Q 18.40625 13.875 22.109375 8.640625 
Q 25.828125 3.421875 32.71875 3.421875 
z
M 16.796875 40.140625 
Q 20.125 43.796875 24.3125 45.59375 
Q 28.515625 47.40625 33.796875 47.40625 
Q 44.671875 47.40625 51 40.859375 
Q 57.328125 34.328125 57.328125 23 
Q 57.328125 11.921875 50.515625 5.25 
Q 43.703125 -1.421875 32.328125 -1.421875 
Q 19.96875 -1.421875 13.328125 7.78125 
Q 6.6875 17 6.6875 34.078125 
Q 6.6875 53.21875 14.546875 63.71875 
Q 22.40625 74.21875 36.71875 74.21875 
Q 40.578125 74.21875 44.828125 73.484375 
Q 49.078125 72.75 53.515625 71.296875 
L 53.515625 59.28125 
L 48 59.28125 
Q 47.40625 64.203125 44.234375 66.796875 
Q 41.0625 69.390625 35.6875 69.390625 
Q 26.21875 69.390625 21.578125 62.203125 
Q 16.9375 55.03125 16.796875 40.140625 
z
" id="DejaVuSerif-54"/>
       </defs>
       <use xlink:href="#DejaVuSerif-8722"/>
       <use x="83.789062" xlink:href="#DejaVuSerif-49"/>
       <use x="147.412109" xlink:href="#DejaVuSerif-54"/>
      </g>
     </g>
    </g>
    <g id="ytick_2">
     <g id="line2d_8">
      <g>
       <use style="stroke:#000000;stroke-width:0.8;" x="57.6" xlink:href="#m1b6f3a75d8" y="238.750275"/>
      </g>
     </g>
     <g id="text_9">
      <!-- −14 -->
      <g transform="translate(29.495313 242.549494)scale(0.1 -0.1)">
       <use xlink:href="#DejaVuSerif-8722"/>
       <use x="83.789062" xlink:href="#DejaVuSerif-49"/>
       <use x="147.412109" xlink:href="#DejaVuSerif-52"/>
      </g>
     </g>
    </g>
    <g id="ytick_3">
     <g id="line2d_9">
      <g>
       <use style="stroke:#000000;stroke-width:0.8;" x="57.6" xlink:href="#m1b6f3a75d8" y="181.771114"/>
      </g>
     </g>
     <g id="text_10">
      <!-- −12 -->
      <g transform="translate(29.495313 185.570333)scale(0.1 -0.1)">
       <use xlink:href="#DejaVuSerif-8722"/>
       <use x="83.789062" xlink:href="#DejaVuSerif-49"/>
       <use x="147.412109" xlink:href="#DejaVuSerif-50"/>
      </g>
     </g>
    </g>
    <g id="ytick_4">
     <g id="line2d_10">
      <g>
       <use style="stroke:#000000;stroke-width:0.8;" x="57.6" xlink:href="#m1b6f3a75d8" y="124.791952"/>
      </g>
     </g>
     <g id="text_11">
      <!-- −10 -->
      <g transform="translate(29.495313 128.591171)scale(0.1 -0.1)">
       <use xlink:href="#DejaVuSerif-8722"/>
       <use x="83.789062" xlink:href="#DejaVuSerif-49"/>
       <use x="147.412109" xlink:href="#DejaVuSerif-48"/>
      </g>
     </g>
    </g>
    <g id="ytick_5">
     <g id="line2d_11">
      <g>
       <use style="stroke:#000000;stroke-width:0.8;" x="57.6" xlink:href="#m1b6f3a75d8" y="67.81279"/>
      </g>
     </g>
     <g id="text_12">
      <!-- −8 -->
      <g transform="translate(35.857813 71.612009)scale(0.1 -0.1)">
       <defs>
        <path d="M 46.578125 19.921875 
Q 46.578125 27.734375 42.6875 32.046875 
Q 38.8125 36.375 31.78125 36.375 
Q 24.75 36.375 20.875 32.046875 
Q 17 27.734375 17 19.921875 
Q 17 12.0625 20.875 7.734375 
Q 24.75 3.421875 31.78125 3.421875 
Q 38.8125 3.421875 42.6875 7.734375 
Q 46.578125 12.0625 46.578125 19.921875 
z
M 44.578125 55.328125 
Q 44.578125 61.96875 41.203125 65.671875 
Q 37.84375 69.390625 31.78125 69.390625 
Q 25.78125 69.390625 22.390625 65.671875 
Q 19 61.96875 19 55.328125 
Q 19 48.640625 22.390625 44.921875 
Q 25.78125 41.21875 31.78125 41.21875 
Q 37.84375 41.21875 41.203125 44.921875 
Q 44.578125 48.640625 44.578125 55.328125 
z
M 39.3125 38.8125 
Q 47.609375 37.703125 52.25 32.6875 
Q 56.890625 27.6875 56.890625 19.921875 
Q 56.890625 9.671875 50.390625 4.125 
Q 43.890625 -1.421875 31.78125 -1.421875 
Q 19.734375 -1.421875 13.203125 4.125 
Q 6.6875 9.671875 6.6875 19.921875 
Q 6.6875 27.6875 11.328125 32.6875 
Q 15.96875 37.703125 24.3125 38.8125 
Q 16.9375 40.140625 13 44.40625 
Q 9.078125 48.6875 9.078125 55.328125 
Q 9.078125 64.109375 15.125 69.15625 
Q 21.1875 74.21875 31.78125 74.21875 
Q 42.390625 74.21875 48.4375 69.15625 
Q 54.5 64.109375 54.5 55.328125 
Q 54.5 48.6875 50.5625 44.40625 
Q 46.625 40.140625 39.3125 38.8125 
z
" id="DejaVuSerif-56"/>
       </defs>
       <use xlink:href="#DejaVuSerif-8722"/>
       <use x="83.789062" xlink:href="#DejaVuSerif-56"/>
      </g>
     </g>
    </g>
    <g id="text_13">
     <!-- Speed -->
     <g transform="translate(23.415625 190.273313)rotate(-90)scale(0.1 -0.1)">
      <defs>
       <path d="M 9.28125 3.515625 
L 9.28125 20.125 
L 14.890625 20.0625 
Q 15.140625 11.765625 19.703125 7.78125 
Q 24.265625 3.8125 33.59375 3.8125 
Q 42.28125 3.8125 46.84375 7.25 
Q 51.421875 10.6875 51.421875 17.28125 
Q 51.421875 22.5625 48.65625 25.390625 
Q 45.90625 28.21875 37.015625 30.90625 
L 27.390625 33.796875 
Q 16.9375 36.96875 12.671875 41.703125 
Q 8.40625 46.4375 8.40625 54.6875 
Q 8.40625 63.96875 14.984375 69.09375 
Q 21.578125 74.21875 33.5 74.21875 
Q 38.578125 74.21875 44.625 73.109375 
Q 50.6875 72.015625 57.515625 69.921875 
L 57.515625 54.390625 
L 52 54.390625 
Q 51.171875 62.109375 46.84375 65.546875 
Q 42.53125 69 33.6875 69 
Q 25.984375 69 21.953125 65.84375 
Q 17.921875 62.703125 17.921875 56.6875 
Q 17.921875 51.46875 20.9375 48.484375 
Q 23.96875 45.515625 33.796875 42.578125 
L 42.828125 39.890625 
Q 52.734375 36.921875 56.953125 32.296875 
Q 61.1875 27.6875 61.1875 19.921875 
Q 61.1875 9.328125 54.390625 3.953125 
Q 47.609375 -1.421875 34.1875 -1.421875 
Q 28.171875 -1.421875 21.9375 -0.1875 
Q 15.71875 1.03125 9.28125 3.515625 
z
" id="DejaVuSerif-83"/>
       <path d="M 20.515625 28.515625 
L 20.515625 23.390625 
Q 20.515625 14.015625 24.09375 9.109375 
Q 27.6875 4.203125 34.515625 4.203125 
Q 41.40625 4.203125 44.9375 9.71875 
Q 48.484375 15.234375 48.484375 25.984375 
Q 48.484375 36.765625 44.9375 42.234375 
Q 41.40625 47.703125 34.515625 47.703125 
Q 27.6875 47.703125 24.09375 42.765625 
Q 20.515625 37.84375 20.515625 28.515625 
z
M 11.53125 46.6875 
L 2.875 46.6875 
L 2.875 51.90625 
L 20.515625 51.90625 
L 20.515625 43.796875 
Q 23.140625 48.6875 27.21875 51 
Q 31.296875 53.328125 37.3125 53.328125 
Q 46.875 53.328125 52.921875 45.75 
Q 58.984375 38.1875 58.984375 25.984375 
Q 58.984375 13.765625 52.921875 6.171875 
Q 46.875 -1.421875 37.3125 -1.421875 
Q 31.296875 -1.421875 27.21875 0.890625 
Q 23.140625 3.21875 20.515625 8.109375 
L 20.515625 -15.578125 
L 29 -15.578125 
L 29 -20.796875 
L 2.875 -20.796875 
L 2.875 -15.578125 
L 11.53125 -15.578125 
z
" id="DejaVuSerif-112"/>
       <path d="M 52.484375 5.171875 
L 61.078125 5.171875 
L 61.078125 0 
L 43.5 0 
L 43.5 8.109375 
Q 40.875 3.21875 36.796875 0.890625 
Q 32.71875 -1.421875 26.703125 -1.421875 
Q 17.140625 -1.421875 11.0625 6.171875 
Q 4.984375 13.765625 4.984375 25.984375 
Q 4.984375 38.1875 11.03125 45.75 
Q 17.09375 53.328125 26.703125 53.328125 
Q 32.71875 53.328125 36.796875 51 
Q 40.875 48.6875 43.5 43.796875 
L 43.5 70.796875 
L 35.015625 70.796875 
L 35.015625 75.984375 
L 52.484375 75.984375 
z
M 43.5 23.390625 
L 43.5 28.515625 
Q 43.5 37.84375 39.90625 42.765625 
Q 36.328125 47.703125 29.5 47.703125 
Q 22.5625 47.703125 19.015625 42.234375 
Q 15.484375 36.765625 15.484375 25.984375 
Q 15.484375 15.234375 19.015625 9.71875 
Q 22.5625 4.203125 29.5 4.203125 
Q 36.328125 4.203125 39.90625 9.109375 
Q 43.5 14.015625 43.5 23.390625 
z
" id="DejaVuSerif-100"/>
      </defs>
      <use xlink:href="#DejaVuSerif-83"/>
      <use x="68.505859" xlink:href="#DejaVuSerif-112"/>
      <use x="132.519531" xlink:href="#DejaVuSerif-101"/>
      <use x="191.699219" xlink:href="#DejaVuSerif-101"/>
      <use x="250.878906" xlink:href="#DejaVuSerif-100"/>
     </g>
    </g>
   </g>
   <g id="line2d_12">
    <path clip-path="url(#pb53b6ecc36)" d="M 73.832727 96.302371 
L 73.943888 53.568 
L 74.04851 96.302371 
L 74.270831 96.302371 
L 74.375453 79.208623 
L 74.486614 113.39612 
L 74.813557 113.39612 
L 75.029339 124.791952 
L 75.251661 124.791952 
L 75.467443 157.351473 
L 75.683225 157.351473 
L 75.794386 181.771114 
L 76.337112 181.771114 
L 76.448272 203.138299 
L 76.664055 200.764168 
L 76.886376 200.764168 
L 76.990998 219.757222 
L 77.102159 215.958611 
L 77.213319 215.958611 
L 77.317941 233.052359 
L 77.429102 233.052359 
L 77.540263 215.958611 
L 77.644884 228.390428 
L 77.867206 228.390428 
L 77.971828 243.930199 
L 78.082988 243.930199 
L 78.194149 252.995066 
L 78.298771 238.750275 
L 78.409931 238.750275 
L 78.521092 252.995066 
L 78.625714 238.750275 
L 78.736874 247.5163 
L 79.174978 247.5163 
L 79.2796 255.030036 
L 79.717704 255.030036 
L 79.828865 250.146108 
L 79.933486 261.54194 
L 80.26043 261.54194 
L 80.37159 256.556263 
L 80.587373 256.556263 
L 80.698533 267.239856 
L 80.809694 256.556263 
L 81.025477 272.267429 
L 81.136637 262.212283 
L 81.241259 272.267429 
L 81.35242 262.212283 
L 81.568202 267.239856 
L 81.895145 267.239856 
L 82.006306 262.741501 
L 82.117467 271.738211 
L 82.222088 262.741501 
L 82.333249 271.738211 
L 82.44441 271.738211 
L 82.549032 275.786731 
L 82.987135 275.786731 
L 83.098296 279.449677 
L 83.202918 271.309796 
L 83.529861 271.309796 
L 83.752182 275.009742 
L 84.079126 275.009742 
L 84.183747 270.955889 
L 84.294908 278.387953 
L 84.621851 278.387953 
L 84.733012 274.362251 
L 84.837634 281.484647 
L 84.948794 274.362251 
L 85.164577 281.484647 
L 85.275737 277.496105 
L 85.602681 277.496105 
L 85.713841 284.333605 
L 85.818463 280.388894 
L 86.145406 280.388894 
L 86.256567 286.963412 
L 86.58351 276.736383 
L 86.694671 283.067401 
L 86.799293 276.736383 
L 86.910453 279.449677 
L 87.021614 285.554587 
L 87.126236 279.449677 
L 87.237396 285.554587 
L 87.348557 279.449677 
L 87.564339 281.975846 
L 87.780122 281.975846 
L 87.891283 287.870242 
L 88.107065 284.333605 
L 88.434008 284.333605 
L 88.545169 281.025137 
L 88.65633 286.53925 
L 88.760951 281.025137 
L 88.872112 286.53925 
L 88.983273 286.53925 
L 89.199055 283.265246 
L 89.414838 283.265246 
L 89.525998 288.607042 
L 89.741781 285.36959 
L 90.068724 285.36959 
L 90.179885 282.322576 
L 90.395667 287.350149 
L 90.617988 287.350149 
L 90.833771 284.333605 
L 90.944932 289.217533 
L 91.049553 284.333605 
L 91.271875 290.981174 
L 91.376497 286.23291 
L 91.70344 286.23291 
L 91.8146 288.02955 
L 91.925761 283.409618 
L 92.030383 288.02955 
L 92.252704 288.02955 
L 92.357326 289.731631 
L 92.468487 285.233276 
L 92.579647 285.233276 
L 92.684269 289.731631 
L 92.79543 285.233276 
L 92.90659 286.963412 
L 93.011212 291.346425 
L 93.122373 286.963412 
L 93.338155 286.963412 
L 93.560477 288.607042 
L 93.88742 288.607042 
L 93.992042 286.001288 
L 94.103202 290.170495 
L 94.214363 290.170495 
L 94.318985 286.001288 
L 94.430146 290.170495 
L 94.645928 287.589557 
L 94.757089 291.659497 
L 94.972871 287.589557 
L 95.195193 289.103953 
L 95.299814 289.103953 
L 95.410975 293.079244 
L 95.522136 289.103953 
L 95.626757 290.549513 
L 95.737918 286.66457 
L 95.953701 290.549513 
L 96.064861 286.66457 
L 96.176022 288.132216 
L 96.280644 291.930826 
L 96.391804 288.132216 
L 96.502965 291.930826 
L 96.607587 288.132216 
L 96.829908 289.53605 
L 97.156851 289.53605 
L 97.261473 287.243179 
L 97.483795 290.880147 
L 97.699577 290.880147 
L 97.810738 292.16824 
L 97.91536 288.607042 
L 98.02652 292.16824 
L 98.242303 288.607042 
L 98.464624 289.915237 
L 98.569246 289.915237 
L 98.680406 293.403757 
L 98.791567 289.915237 
L 99.00735 291.171104 
L 99.223132 291.171104 
L 99.334293 287.752354 
L 99.445453 289.026006 
L 99.550075 292.377722 
L 99.772397 289.026006 
L 99.877018 292.377722 
L 100.09934 290.250672 
L 100.203962 293.537931 
L 100.426283 290.250672 
L 100.642065 291.429123 
L 100.753226 291.429123 
L 100.857848 288.203887 
L 101.080169 292.563928 
L 101.295952 289.398419 
L 101.407112 292.563928 
L 101.511734 289.398419 
L 101.622895 290.549513 
L 101.734055 293.657468 
L 101.949838 290.549513 
L 102.060999 293.657468 
L 102.387942 288.607042 
L 102.603724 291.659497 
L 102.714885 289.731631 
L 102.930667 292.730534 
L 103.041828 289.731631 
L 103.257611 293.764638 
L 103.473393 290.81744 
L 103.584554 293.764638 
L 103.695714 290.81744 
L 103.911497 291.866443 
L 104.127279 291.866443 
L 104.23844 288.969198 
L 104.349601 290.031521 
L 104.454222 292.880479 
L 104.565383 290.031521 
L 104.781166 292.880479 
L 105.003487 291.059014 
L 105.108109 293.861268 
L 105.33043 291.059014 
L 105.546213 292.053362 
L 105.657373 292.053362 
L 105.761995 289.296306 
L 105.984316 293.016144 
L 106.088938 290.30285 
L 106.31126 293.016144 
L 106.415881 290.30285 
L 106.527042 291.27794 
L 106.638203 293.948838 
L 106.853985 291.27794 
L 106.965146 293.948838 
L 107.180928 292.223027 
L 107.507871 292.223027 
L 107.619032 293.139475 
L 107.723654 290.549513 
L 107.834815 293.139475 
L 107.945975 290.549513 
L 108.161758 294.028567 
L 108.37754 291.477261 
L 108.488701 294.028567 
L 108.599862 291.477261 
L 108.815644 292.377722 
L 109.142587 292.377722 
L 109.253748 290.774727 
L 109.46953 293.252082 
L 109.580691 290.774727 
L 109.796473 294.101461 
L 109.907634 291.659497 
L 110.012256 294.101461 
L 110.234577 291.659497 
L 110.45036 292.519344 
L 110.777303 292.519344 
L 110.993085 293.355305 
L 111.104246 290.981174 
L 111.320029 293.355305 
L 111.54235 291.826755 
L 111.646972 294.168364 
L 111.869293 291.826755 
L 112.085076 292.649482 
L 112.412019 292.649482 
L 112.523179 293.450271 
L 112.627801 291.171104 
L 112.850122 293.450271 
L 112.954744 291.171104 
L 113.065905 291.980808 
L 113.177066 294.229986 
L 113.392848 291.980808 
L 113.504009 294.229986 
L 113.719791 292.769481 
L 114.046734 292.769481 
L 114.262517 293.537931 
L 114.58946 293.537931 
L 114.700621 294.286927 
L 114.916403 292.123161 
L 115.027564 294.286927 
L 115.138725 292.123161 
L 115.354507 292.880479 
L 115.68145 292.880479 
L 115.792611 291.508758 
L 116.008393 293.619098 
L 116.119554 291.508758 
L 116.335336 294.339701 
L 116.551119 292.255098 
L 116.66228 294.339701 
L 116.77344 292.255098 
L 116.878062 292.983453 
L 116.989223 295.042941 
L 117.205005 292.983453 
L 117.316166 295.042941 
L 117.643109 291.659497 
L 117.858892 293.694467 
L 118.081213 292.377722 
L 118.185835 294.388751 
L 118.408156 292.377722 
L 118.623938 293.079244 
L 118.950882 293.079244 
L 119.166664 293.764638 
L 119.277825 291.79984 
L 119.493607 293.764638 
L 119.604768 292.491985 
L 119.82055 294.434456 
L 119.931711 292.491985 
L 120.147494 295.089222 
L 120.369815 293.168576 
L 120.585597 293.168576 
L 120.696758 293.830132 
L 120.80138 291.930826 
L 121.023701 293.830132 
L 121.128323 291.930826 
L 121.239484 292.598714 
L 121.350644 294.477148 
L 121.566427 292.598714 
L 121.677587 294.477148 
L 121.89337 293.252082 
L 122.220313 293.252082 
L 122.436096 293.8914 
L 122.763039 293.8914 
L 122.98536 294.517115 
L 123.089982 292.698631 
L 123.312303 294.517115 
L 123.528086 293.330315 
L 123.855029 293.330315 
L 123.96619 292.16824 
L 124.181972 293.948838 
L 124.293133 292.16824 
L 124.508915 294.554609 
L 124.724698 292.792367 
L 124.835858 294.554609 
L 124.947019 292.792367 
L 125.162801 293.403757 
L 125.378584 293.403757 
L 125.489745 295.148017 
L 125.705527 294.002796 
L 126.03247 294.002796 
L 126.143631 294.589854 
L 126.254792 292.880479 
L 126.470574 294.589854 
L 126.581735 292.880479 
L 126.797517 293.472837 
L 127.12446 293.472837 
L 127.340243 294.053579 
L 127.451403 292.377722 
L 127.667186 294.053579 
L 127.889507 292.963458 
L 127.994129 294.623046 
L 128.21645 292.963458 
L 128.432233 293.537931 
L 128.759176 293.537931 
L 128.974959 294.101461 
L 129.301902 294.101461 
L 129.413062 293.041741 
L 129.628845 294.654359 
L 129.740005 293.041741 
L 129.955788 295.196922 
L 130.178109 293.599375 
L 130.282731 295.196922 
L 130.393892 293.599375 
L 130.505052 294.146683 
L 130.609674 292.563928 
L 130.831996 294.146683 
L 130.936617 292.563928 
L 131.047778 293.115714 
L 131.158939 294.683948 
L 131.374721 293.115714 
L 131.485882 294.683948 
L 131.701664 293.657468 
L 132.028608 293.657468 
L 132.139768 294.18946 
L 132.24439 292.649482 
L 132.466711 294.18946 
L 132.571333 294.18946 
L 132.793654 294.711952 
L 132.898276 293.185725 
L 133.120598 294.711952 
L 133.33638 293.712476 
L 133.447541 295.225197 
L 133.663323 293.712476 
L 133.879106 294.229986 
L 134.206049 294.229986 
L 134.31721 294.738495 
L 134.532992 293.252082 
L 134.644153 294.738495 
L 134.755313 293.252082 
L 134.971096 293.764638 
L 135.298039 293.764638 
L 135.4092 292.807429 
L 135.624982 294.268433 
L 135.736143 292.807429 
L 135.951925 294.763689 
L 136.167708 293.315066 
L 136.278868 294.763689 
L 136.390029 293.315066 
L 136.494651 293.814171 
L 136.605812 295.250621 
L 136.821594 293.814171 
L 136.932755 295.250621 
L 137.148537 294.304958 
L 137.47548 294.304958 
L 137.586641 294.787633 
L 137.697802 293.374926 
L 137.913584 294.787633 
L 138.024745 293.374926 
L 138.240527 293.861268 
L 138.56747 293.861268 
L 138.783253 294.339701 
L 138.894414 292.949966 
L 139.110196 294.339701 
L 139.332517 293.43189 
L 139.437139 294.810418 
L 139.659461 293.43189 
L 139.875243 293.906104 
L 140.202186 293.906104 
L 140.417969 294.37279 
L 140.744912 294.37279 
L 140.856073 293.486163 
L 141.071855 294.832127 
L 141.183016 293.486163 
L 141.398798 295.284287 
L 141.621119 293.948838 
L 141.725741 295.284287 
L 141.836902 293.948838 
L 142.052684 294.40434 
L 142.379628 294.40434 
L 142.490788 293.537931 
L 142.601949 294.852835 
L 142.817731 293.537931 
L 142.928892 294.852835 
L 143.144675 293.989615 
L 143.471618 293.989615 
L 143.582778 294.434456 
L 143.6874 293.139475 
L 143.909722 294.434456 
L 144.014343 293.139475 
L 144.125504 293.587363 
L 144.236665 294.872608 
L 144.452447 293.587363 
L 144.563608 294.872608 
L 144.77939 294.028567 
L 145.106333 294.028567 
L 145.322116 294.463234 
L 145.649059 294.463234 
L 145.87138 294.891508 
L 145.976002 293.634615 
L 146.198324 294.891508 
L 146.414106 294.065812 
L 146.525267 295.313531 
L 146.741049 294.065812 
L 146.956832 294.49076 
L 147.067992 294.49076 
L 147.179153 293.252082 
L 147.394935 294.909593 
L 147.610718 293.679827 
L 147.721879 294.909593 
L 147.833039 293.679827 
L 148.048822 294.101461 
L 148.375765 294.101461 
L 148.486926 293.304792 
L 148.702708 294.517115 
L 148.813869 293.304792 
L 149.029651 294.926914 
L 149.245434 293.723129 
L 149.356594 294.926914 
L 149.467755 293.723129 
L 149.683537 294.135614 
L 149.89932 294.135614 
L 150.010481 295.330981 
L 150.226263 294.542371 
L 150.553206 294.542371 
L 150.664367 294.943518 
L 150.775528 293.764638 
L 150.99131 294.943518 
L 151.102471 293.764638 
L 151.207093 294.168364 
L 151.318253 295.339169 
L 151.534036 294.168364 
L 151.645196 295.339169 
L 151.860979 294.566597 
L 152.187922 294.566597 
L 152.410243 293.804465 
L 152.514865 294.959448 
L 152.737186 293.804465 
L 152.952969 294.199795 
L 153.279912 294.199795 
L 153.495695 294.589854 
L 153.606855 293.450271 
L 153.822638 294.589854 
L 154.044959 293.84271 
L 154.149581 294.974746 
L 154.371902 293.84271 
L 154.587685 294.229986 
L 154.698845 294.229986 
L 154.803467 295.354574 
L 154.914628 294.229986 
L 155.13041 294.612199 
L 155.457353 294.612199 
L 155.568514 293.879464 
L 155.784297 294.989448 
L 155.895457 293.879464 
L 156.11124 295.36183 
L 156.333561 294.259007 
L 156.438183 295.36183 
L 156.549344 294.259007 
L 156.765126 294.633684 
L 157.092069 294.633684 
L 157.20323 293.914814 
L 157.314391 295.003588 
L 157.530173 293.914814 
L 157.641334 295.003588 
L 157.857116 294.286927 
L 158.184059 294.286927 
L 158.29522 294.654359 
L 158.399842 293.57928 
L 158.622163 294.654359 
L 158.726785 293.57928 
L 158.837946 293.948838 
L 158.949106 295.017198 
L 159.164889 293.948838 
L 159.276049 295.017198 
L 159.491832 294.313806 
L 159.818775 294.313806 
L 159.929936 294.674267 
L 160.034558 293.619098 
L 160.256879 294.674267 
L 160.361501 294.674267 
L 160.583822 295.030306 
L 160.688444 293.98161 
L 160.910765 295.030306 
L 161.126548 294.339701 
L 161.237708 295.382003 
L 161.453491 294.339701 
L 161.669273 294.693452 
L 161.996216 294.693452 
L 162.218538 295.042941 
L 162.32316 294.013197 
L 162.545481 295.042941 
L 162.761263 294.364667 
L 163.088207 294.364667 
L 163.199367 293.694467 
L 163.41515 294.711952 
L 163.52631 293.694467 
L 163.742093 295.055128 
L 163.957875 294.043663 
L 164.069036 295.055128 
L 164.180197 294.043663 
L 164.395979 294.388751 
L 164.722922 294.388751 
L 164.834083 293.730168 
L 165.049865 294.729803 
L 165.161026 293.730168 
L 165.376809 295.066889 
L 165.592591 294.073066 
L 165.703752 295.066889 
L 165.814912 294.073066 
L 165.919534 294.412 
L 166.030695 295.400078 
L 166.246477 294.412 
L 166.357638 295.400078 
L 166.57342 294.747038 
L 166.900364 294.747038 
L 167.011524 295.078247 
L 167.122685 294.101461 
L 167.338467 295.078247 
L 167.449628 294.101461 
L 167.55425 294.434456 
L 167.665411 295.405692 
L 167.881193 294.434456 
L 167.992354 295.405692 
L 168.208136 294.763689 
L 168.535079 294.763689 
L 168.757401 294.128899 
L 168.862023 295.089222 
L 169.084344 294.128899 
L 169.300126 294.45616 
L 169.627069 294.45616 
L 169.842852 294.779784 
L 169.954013 293.830132 
L 170.169795 294.779784 
L 170.392116 294.155427 
L 170.496738 295.099833 
L 170.71906 294.155427 
L 170.934842 294.477148 
L 171.261785 294.477148 
L 171.477568 294.795353 
L 171.588728 293.861268 
L 171.804511 294.795353 
L 172.026832 294.18109 
L 172.131454 295.110098 
L 172.242615 294.18109 
L 172.458397 295.421442 
L 172.680718 294.497455 
L 172.78534 295.421442 
L 172.896501 294.497455 
L 173.112283 294.810418 
L 173.439227 294.810418 
L 173.550387 294.20593 
L 173.76617 295.120034 
L 173.87733 294.20593 
L 174.093113 295.426356 
L 174.315434 294.517115 
L 174.531217 294.517115 
L 174.642377 294.825006 
L 174.746999 293.920575 
L 174.969321 294.825006 
L 175.073942 293.920575 
L 175.185103 294.229986 
L 175.296264 295.129656 
L 175.512046 294.229986 
L 175.623207 295.129656 
L 175.838989 294.536156 
L 176.165932 294.536156 
L 176.277093 294.839138 
L 176.381715 293.948838 
L 176.604036 294.839138 
L 176.708658 293.948838 
L 176.819819 294.253293 
L 176.930979 295.138979 
L 177.146762 294.253293 
L 177.257923 295.138979 
L 177.473705 294.554609 
L 177.800648 294.554609 
L 177.911809 294.852835 
L 178.016431 293.976232 
L 178.238752 294.852835 
L 178.343374 293.976232 
L 178.454534 294.275887 
L 178.565695 295.148017 
L 178.670317 294.275887 
L 178.892638 295.148017 
L 179.108421 294.5725 
L 179.219581 295.440203 
L 179.435364 294.5725 
L 179.651146 294.866116 
L 179.97809 294.866116 
L 180.200411 295.156782 
L 180.305033 294.2978 
L 180.527354 295.156782 
L 180.743137 294.589854 
L 181.07008 294.589854 
L 181.18124 294.028567 
L 181.397023 294.879002 
L 181.508183 294.028567 
L 181.723966 295.165287 
L 181.939748 294.319062 
L 182.050909 295.165287 
L 182.16207 294.319062 
L 182.377852 294.606695 
L 182.704795 294.606695 
L 182.815956 294.053579 
L 183.031739 294.891508 
L 183.142899 294.053579 
L 183.358682 295.173543 
L 183.574464 294.339701 
L 183.685625 295.173543 
L 183.796785 294.339701 
L 184.012568 294.623046 
L 184.339511 294.623046 
L 184.450672 294.077867 
L 184.666454 294.903652 
L 184.777615 294.077867 
L 184.993397 295.181561 
L 185.20918 294.359746 
L 185.320341 295.181561 
L 185.431501 294.359746 
L 185.536123 294.638927 
L 185.647284 295.45681 
L 185.863066 294.638927 
L 185.974227 295.45681 
L 186.190009 294.915449 
L 186.516952 294.915449 
L 186.628113 295.18935 
L 186.739274 294.37922 
L 186.955056 295.18935 
L 187.066217 294.37922 
L 187.281999 294.654359 
L 187.608943 294.654359 
L 187.824725 294.926914 
L 187.935886 294.12439 
L 188.151668 294.926914 
L 188.37399 294.398148 
L 188.478611 295.196922 
L 188.700933 294.398148 
L 188.916715 294.66936 
L 189.243658 294.66936 
L 189.459441 294.93806 
L 189.570601 294.146683 
L 189.786384 294.93806 
L 190.008705 294.416553 
L 190.113327 295.204284 
L 190.335648 294.416553 
L 190.551431 294.683948 
L 190.878374 294.683948 
L 191.094157 294.948901 
L 191.205317 294.168364 
L 191.4211 294.948901 
L 191.643421 294.434456 
L 191.748043 295.211445 
L 191.970364 294.434456 
L 192.186147 294.69814 
L 192.51309 294.69814 
L 192.728872 294.959448 
L 193.055815 294.959448 
L 193.166976 294.451877 
L 193.382759 295.218413 
L 193.493919 294.451877 
L 193.709702 295.475066 
L 193.932023 294.711952 
L 194.147806 294.711952 
L 194.258966 294.969715 
L 194.363588 294.209993 
L 194.585909 294.969715 
L 194.690531 294.209993 
L 194.801692 294.468836 
L 194.912853 295.225197 
L 195.128635 294.468836 
L 195.239796 295.225197 
L 195.455578 294.725399 
L 195.782521 294.725399 
L 195.893682 294.979711 
L 195.998304 294.229986 
L 196.220625 294.979711 
L 196.325247 294.229986 
L 196.436408 294.485351 
L 196.547568 295.231803 
L 196.763351 294.485351 
L 196.874511 295.231803 
L 197.090294 294.738495 
L 197.417237 294.738495 
L 197.528398 294.989448 
L 197.63302 294.249459 
L 197.855341 294.989448 
L 197.959963 294.249459 
L 198.071123 294.501438 
L 198.182284 295.238237 
L 198.398066 294.501438 
L 198.509227 295.238237 
L 198.72501 294.751254 
L 199.051953 294.751254 
L 199.163113 294.998935 
L 199.267735 294.268433 
L 199.490057 294.998935 
L 199.594678 294.268433 
L 199.705839 294.517115 
L 199.817 295.244508 
L 199.921622 294.517115 
L 200.143943 295.244508 
L 200.359725 294.763689 
L 200.470886 295.488 
L 200.686668 294.763689 
L 200.902451 295.008182 
L 201.013612 295.008182 
L 201.124772 294.286927 
L 201.340555 295.250621 
L 201.556337 294.532396 
L 201.667498 295.250621 
L 201.778659 294.532396 
L 201.994441 294.775811 
L 202.321384 294.775811 
L 202.432545 294.304958 
L 202.648327 295.017198 
L 202.759488 294.304958 
L 202.975271 295.256581 
L 203.191053 294.547297 
L 203.302214 295.256581 
L 203.413374 294.547297 
L 203.629157 294.787633 
L 203.9561 294.787633 
L 204.067261 294.322544 
L 204.283043 295.025991 
L 204.394204 294.322544 
L 204.609986 295.262395 
L 204.825769 294.561831 
L 204.936929 295.262395 
L 205.04809 294.561831 
L 205.263873 294.799165 
L 205.590816 294.799165 
L 205.701976 294.339701 
L 205.917759 295.034569 
L 206.02892 294.339701 
L 206.244702 295.268067 
L 206.460484 294.576013 
L 206.571645 295.268067 
L 206.682806 294.576013 
L 206.898588 294.810418 
L 207.225531 294.810418 
L 207.336692 294.356445 
L 207.552475 295.042941 
L 207.663635 294.356445 
L 207.879418 295.273604 
L 207.990578 294.589854 
L 208.0952 295.273604 
L 208.317522 294.589854 
L 208.533304 294.821403 
L 208.860247 294.821403 
L 209.07603 295.051114 
L 209.18719 294.37279 
L 209.402973 295.051114 
L 209.625294 294.603367 
L 209.729916 295.279009 
L 209.952237 294.603367 
L 210.16802 294.832127 
L 210.494963 294.832127 
L 210.710745 295.059094 
L 210.821906 294.388751 
L 211.037689 295.059094 
L 211.26001 294.616563 
L 211.364632 295.284287 
L 211.586953 294.616563 
L 211.802736 294.842602 
L 212.129679 294.842602 
L 212.345461 295.066889 
L 212.456622 294.40434 
L 212.672404 295.066889 
L 212.894726 294.629453 
L 212.999347 295.289444 
L 213.221669 294.629453 
L 213.437451 294.852835 
L 213.764394 294.852835 
L 213.980177 295.074504 
L 214.091338 294.419571 
L 214.30712 295.074504 
L 214.529441 294.642049 
L 214.634063 295.294482 
L 214.856385 294.642049 
L 215.072167 294.862834 
L 215.39911 294.862834 
L 215.614893 295.081947 
L 215.726053 294.434456 
L 215.837214 295.081947 
L 215.941836 294.434456 
L 216.052996 294.654359 
L 216.164157 295.299406 
L 216.37994 294.654359 
L 216.4911 295.299406 
L 216.706883 294.872608 
L 217.033826 294.872608 
L 217.144987 295.089222 
L 217.249608 294.449007 
L 217.47193 295.089222 
L 217.576551 294.449007 
L 217.687712 294.666393 
L 217.798873 295.30422 
L 218.014655 294.666393 
L 218.125816 295.30422 
L 218.341598 294.882163 
L 218.668542 294.882163 
L 218.779702 295.096335 
L 218.884324 294.463234 
L 219.106645 295.096335 
L 219.211267 294.463234 
L 219.322428 294.678161 
L 219.433589 295.308927 
L 219.649371 294.678161 
L 219.760532 295.308927 
L 219.976314 294.891508 
L 220.303257 294.891508 
L 220.414418 295.103292 
L 220.51904 294.477148 
L 220.741361 295.103292 
L 220.845983 294.477148 
L 220.957144 294.689671 
L 221.068304 295.313531 
L 221.284087 294.689671 
L 221.395247 295.313531 
L 221.61103 294.900649 
L 221.937973 294.900649 
L 222.049134 295.110098 
L 222.153756 294.49076 
L 222.376077 295.110098 
L 222.480699 294.49076 
L 222.591859 294.700932 
L 222.70302 295.318035 
L 222.918803 294.700932 
L 223.029963 295.318035 
L 223.245746 294.909593 
L 223.572689 294.909593 
L 223.788471 294.504079 
L 223.899632 295.116758 
L 224.115414 294.504079 
L 224.337736 294.711952 
L 224.442358 294.711952 
L 224.553518 295.322443 
L 224.664679 294.711952 
L 224.880461 294.918346 
L 225.207405 294.918346 
L 225.318565 294.517115 
L 225.534348 295.123276 
L 225.645508 294.517115 
L 225.861291 295.326758 
L 226.077073 294.722738 
L 226.188234 295.326758 
L 226.299395 294.722738 
L 226.515177 294.926914 
L 226.84212 294.926914 
L 226.953281 294.529876 
L 227.169063 295.129656 
L 227.280224 294.529876 
L 227.496007 295.330981 
L 227.711789 294.733298 
L 227.82295 295.330981 
L 227.93411 294.733298 
L 228.149893 294.935302 
L 228.476836 294.935302 
L 228.587997 294.542371 
L 228.803779 295.135904 
L 228.91494 294.542371 
L 229.130722 295.335118 
L 229.346505 294.743638 
L 229.457665 295.335118 
L 229.568826 294.743638 
L 229.784609 294.943518 
L 230.111552 294.943518 
L 230.222712 294.554609 
L 230.438495 295.142023 
L 230.549656 294.554609 
L 230.765438 295.339169 
L 230.981221 294.753767 
L 231.092381 295.339169 
L 231.203542 294.753767 
L 231.308164 294.951565 
L 231.419324 294.36816 
L 231.635107 294.951565 
L 231.746268 294.36816 
L 231.857428 294.566597 
L 231.96205 295.148017 
L 232.184371 294.566597 
L 232.288993 295.148017 
L 232.511314 294.763689 
L 232.838258 294.763689 
L 232.942879 294.959448 
L 233.05404 294.381957 
L 233.269823 294.959448 
L 233.380983 294.959448 
L 233.596766 295.15389 
L 233.707926 294.578343 
L 233.923709 295.15389 
L 234.14603 294.773411 
L 234.250652 295.347027 
L 234.472973 294.773411 
L 234.688756 294.967174 
L 235.015699 294.967174 
L 235.231481 295.159646 
L 235.342642 294.589854 
L 235.558425 295.159646 
L 235.780746 294.782939 
L 235.885368 295.350838 
L 236.107689 294.782939 
L 236.323472 294.974746 
L 236.650415 294.974746 
L 236.866197 295.165287 
L 236.977358 294.601137 
L 237.19314 295.165287 
L 237.415462 294.79228 
L 237.520083 295.354574 
L 237.742405 294.79228 
L 237.958187 294.982169 
L 238.28513 294.982169 
L 238.500913 295.170818 
L 238.612074 294.612199 
L 238.827856 295.170818 
L 239.050177 294.801438 
L 239.154799 295.358237 
L 239.377121 294.801438 
L 239.481742 294.434456 
L 239.704064 294.989448 
L 239.808686 294.434456 
L 240.031007 295.176241 
L 240.246789 294.623046 
L 240.35795 295.176241 
L 240.462572 294.623046 
L 240.684893 294.810418 
L 241.011836 294.810418 
L 241.116458 294.446948 
L 241.338779 294.996586 
L 241.443401 294.446948 
L 241.665723 295.181561 
L 241.881505 294.633684 
L 241.992666 295.181561 
L 242.097288 294.633684 
L 242.208448 294.819227 
L 242.319609 295.365353 
L 242.535391 294.819227 
L 242.646552 295.365353 
L 242.862335 295.003588 
L 243.189278 295.003588 
L 243.300438 295.186778 
L 243.40506 294.64412 
L 243.627381 295.186778 
L 243.732003 294.64412 
L 243.843164 294.827868 
L 243.954325 295.36881 
L 244.170107 294.827868 
L 244.281268 295.36881 
L 244.49705 295.010457 
L 244.823993 295.010457 
L 244.935154 295.191898 
L 245.039776 294.654359 
L 245.262097 295.191898 
L 245.366719 294.654359 
L 245.47788 294.836347 
L 245.58904 295.372201 
L 245.804823 294.836347 
L 245.915984 295.372201 
L 246.131766 295.017198 
L 246.458709 295.017198 
L 246.56987 295.196922 
L 246.674492 294.664406 
L 246.896813 295.196922 
L 247.001435 294.664406 
L 247.112595 294.844668 
L 247.223756 295.375529 
L 247.439539 294.844668 
L 247.550699 295.375529 
L 247.877642 294.494595 
L 248.093425 295.023813 
L 248.309207 294.674267 
L 248.420368 295.201852 
L 248.636151 294.674267 
L 248.858472 294.852835 
L 249.185415 294.852835 
L 249.401197 295.030306 
L 249.512358 294.505958 
L 249.728141 295.030306 
L 249.943923 294.683948 
L 250.055084 295.206693 
L 250.270866 294.683948 
L 250.493188 294.860852 
L 250.820131 294.860852 
L 251.035913 295.036681 
L 251.147074 294.517115 
L 251.362856 295.036681 
L 251.578639 294.693452 
L 251.6898 295.211445 
L 251.80096 294.693452 
L 252.016743 295.385152 
L 252.232525 294.868725 
L 252.343686 295.385152 
L 252.454846 294.868725 
L 252.670629 295.042941 
L 252.997572 295.042941 
L 253.108733 294.702786 
L 253.324515 295.216111 
L 253.435676 294.702786 
L 253.651458 295.388245 
L 253.867241 294.876456 
L 253.978402 295.388245 
L 254.089562 294.876456 
L 254.305345 295.049089 
L 254.632288 295.049089 
L 254.743449 294.711952 
L 254.959231 295.220695 
L 255.070392 294.711952 
L 255.286174 295.391282 
L 255.501957 294.884049 
L 255.613117 295.391282 
L 255.724278 294.884049 
L 255.94006 295.055128 
L 256.267004 295.055128 
L 256.378164 294.720956 
L 256.482786 295.225197 
L 256.705107 294.720956 
L 256.809729 295.225197 
L 257.032051 294.891508 
L 257.358994 294.891508 
L 257.463615 295.06106 
L 257.574776 294.559777 
L 257.790559 295.06106 
L 257.901719 294.559777 
L 258.01288 294.729803 
L 258.117502 295.22962 
L 258.339823 294.729803 
L 258.444445 295.22962 
L 258.666766 294.898837 
L 258.993709 294.898837 
L 259.098331 295.066889 
L 259.209492 294.569977 
L 259.425274 295.066889 
L 259.536435 294.569977 
L 259.647596 294.738495 
L 259.752218 295.233966 
L 259.974539 294.738495 
L 260.079161 295.233966 
L 260.301482 294.906039 
L 260.628425 294.906039 
L 260.733047 295.072617 
L 260.844208 294.580002 
L 261.05999 295.072617 
L 261.171151 294.580002 
L 261.282311 294.747038 
L 261.386933 295.238237 
L 261.498094 294.747038 
L 261.713876 295.238237 
L 261.936198 294.913117 
L 262.04082 295.402909 
L 262.263141 294.913117 
L 262.478923 295.078247 
L 262.805867 295.078247 
L 263.021649 295.242436 
L 263.13281 294.755434 
L 263.348592 295.242436 
L 263.570913 294.920074 
L 263.675535 295.405692 
L 263.897857 294.920074 
L 264.113639 295.083781 
L 264.440582 295.083781 
L 264.656365 295.246563 
L 264.767525 294.763689 
L 264.983308 295.246563 
L 265.205629 294.926914 
L 265.532572 294.926914 
L 265.637194 294.60906 
L 265.859516 295.089222 
L 265.964137 294.60906 
L 266.186459 295.250621 
L 266.402241 294.771804 
L 266.513402 295.250621 
L 266.618024 294.771804 
L 266.840345 294.933639 
L 267.167288 294.933639 
L 267.27191 294.618423 
L 267.494231 295.094572 
L 267.598853 294.618423 
L 267.821174 295.254611 
L 268.036957 294.779784 
L 268.148118 295.254611 
L 268.252739 294.779784 
L 268.475061 294.940252 
L 268.802004 294.940252 
L 268.906626 294.62763 
L 269.128947 295.099833 
L 269.233569 294.62763 
L 269.45589 295.258535 
L 269.671673 294.787633 
L 269.782833 295.258535 
L 269.887455 294.787633 
L 270.109776 294.946756 
L 270.43672 294.946756 
L 270.541341 294.636686 
L 270.763663 295.105008 
L 270.868285 294.636686 
L 271.090606 295.262395 
L 271.195228 294.795353 
L 271.417549 295.262395 
L 271.522171 294.795353 
L 271.633332 294.953154 
L 271.744492 295.418924 
L 271.960275 294.953154 
L 272.071435 295.418924 
L 272.287218 295.110098 
L 272.614161 295.110098 
L 272.725322 295.266192 
L 272.829943 294.802947 
L 273.052265 295.266192 
L 273.156887 294.802947 
L 273.268047 294.959448 
L 273.379208 295.421442 
L 273.59499 294.959448 
L 273.706151 295.421442 
L 274.033094 294.654359 
L 274.248877 295.115107 
L 274.464659 294.810418 
L 274.57582 295.269928 
L 274.791602 294.810418 
L 275.013924 294.965641 
L 275.340867 294.965641 
L 275.556649 295.120034 
L 275.66781 294.662982 
L 275.883592 295.120034 
L 276.099375 294.817771 
L 276.210536 295.273604 
L 276.426318 294.817771 
L 276.648639 294.971736 
L 276.975583 294.971736 
L 277.191365 295.124884 
L 277.302526 294.671469 
L 277.518308 295.124884 
L 277.734091 294.825006 
L 277.845251 295.277222 
L 278.061034 294.825006 
L 278.283355 294.977733 
L 278.610298 294.977733 
L 278.826081 295.129656 
L 278.937241 294.679821 
L 279.153024 295.129656 
L 279.368806 294.832127 
L 279.479967 295.280782 
L 279.69575 294.832127 
L 279.918071 294.983637 
L 280.245014 294.983637 
L 280.460796 295.134354 
L 280.571957 294.688043 
L 280.78774 295.134354 
L 281.003522 294.839138 
L 281.114683 295.284287 
L 281.225843 294.839138 
L 281.441626 295.433441 
L 281.657408 294.989448 
L 281.768569 295.433441 
L 281.87973 294.989448 
L 282.095512 295.138979 
L 282.422455 295.138979 
L 282.533616 294.846039 
L 282.749399 295.287738 
L 282.860559 294.846039 
L 282.965181 295.287738 
L 283.187502 294.99517 
L 283.514445 294.99517 
L 283.619067 295.143533 
L 283.730228 294.704105 
L 283.94601 295.143533 
L 284.057171 294.704105 
L 284.168332 294.852835 
L 284.272954 295.291136 
L 284.495275 294.852835 
L 284.599897 295.291136 
L 284.822218 295.000803 
L 285.149161 295.000803 
L 285.253783 295.148017 
L 285.364944 294.711952 
L 285.580726 295.148017 
L 285.691887 294.711952 
L 285.803048 294.859526 
L 285.907669 295.294482 
L 286.129991 294.859526 
L 286.234612 295.294482 
L 286.456934 295.006351 
L 286.783877 295.006351 
L 286.888499 295.152433 
L 286.999659 294.71968 
L 287.215442 295.152433 
L 287.326603 294.71968 
L 287.437763 294.866116 
L 287.542385 295.297777 
L 287.764706 294.866116 
L 287.869328 295.297777 
L 288.09165 295.011815 
L 288.418593 295.011815 
L 288.523215 295.156782 
L 288.634375 294.727291 
L 288.850158 295.156782 
L 288.961318 294.727291 
L 289.072479 294.872608 
L 289.177101 295.301022 
L 289.399422 294.872608 
L 289.504044 295.301022 
L 289.726365 295.017198 
L 290.053308 295.017198 
L 290.15793 295.161066 
L 290.269091 294.734788 
L 290.484873 295.161066 
L 290.596034 294.734788 
L 290.707195 294.879002 
L 290.811817 295.30422 
L 291.034138 294.879002 
L 291.13876 295.30422 
L 291.361081 295.0225 
L 291.688024 295.0225 
L 291.903807 295.165287 
L 292.23075 295.165287 
L 292.34191 295.307369 
L 292.557693 294.885301 
L 292.668854 295.307369 
L 292.773475 294.885301 
L 292.995797 295.027723 
L 293.32274 295.027723 
L 293.427362 294.749452 
L 293.649683 295.169445 
L 293.754305 294.749452 
L 293.976626 295.310473 
L 294.192409 294.891508 
L 294.303569 295.310473 
L 294.408191 294.891508 
L 294.630512 295.03287 
L 294.957456 295.03287 
L 295.062077 294.756622 
L 295.284399 295.173543 
L 295.389021 294.756622 
L 295.611342 295.313531 
L 295.827124 294.897625 
L 296.042907 294.897625 
L 296.154068 295.037942 
L 296.265228 294.623046 
L 296.481011 295.037942 
L 296.592171 294.623046 
L 296.807954 294.763689 
L 297.134897 294.763689 
L 297.246058 294.903652 
L 297.46184 294.49076 
L 297.573001 294.903652 
L 297.677623 294.49076 
L 297.899944 294.631044 
L 298.115726 294.631044 
L 298.226887 294.219146 
L 298.331509 294.359746 
L 298.44267 294.770653 
L 298.658452 294.359746 
L 298.769613 294.359746 
L 298.985395 294.499671 
L 299.096556 294.089749 
L 299.312338 294.499671 
L 299.53466 294.229986 
L 299.861603 294.229986 
L 299.966225 293.961587 
L 300.077385 294.369553 
L 300.293168 293.961587 
L 300.404328 294.369553 
L 300.731272 293.694467 
L 300.947054 294.101461 
L 301.169375 293.834643 
L 301.496319 293.834643 
L 301.60094 293.56909 
L 301.712101 293.974155 
L 301.927884 293.56909 
L 302.039044 293.974155 
L 302.365987 293.304792 
L 302.58177 293.708899 
L 302.692931 293.444895 
L 302.908713 293.84805 
L 303.019874 293.444895 
L 303.131034 293.84805 
L 303.457977 293.182133 
L 303.67376 293.584339 
L 303.889542 293.321867 
L 304.000703 293.723129 
L 304.216486 293.321867 
L 304.327646 293.060624 
L 304.543429 293.460946 
L 304.654589 293.060624 
L 304.76575 293.460946 
L 304.981533 293.199988 
L 305.308476 293.199988 
L 305.524258 292.940247 
L 305.635419 293.338703 
L 305.851201 292.940247 
L 305.962362 292.681715 
L 306.178144 293.079244 
L 306.289305 292.681715 
L 306.400466 293.079244 
L 306.616248 292.820988 
L 306.943191 292.820988 
L 307.158974 292.563928 
L 307.270135 292.959617 
L 307.485917 292.563928 
L 307.597078 292.308056 
L 307.81286 292.70283 
L 307.924021 292.308056 
L 308.035182 292.70283 
L 308.250964 292.447227 
L 308.577907 292.447227 
L 308.79369 292.1928 
L 308.90485 292.585759 
L 309.120633 292.1928 
L 309.231793 291.939539 
L 309.447576 292.331597 
L 309.558737 291.939539 
L 309.669897 292.331597 
L 309.88568 292.078598 
L 310.212623 292.078598 
L 310.428405 291.826755 
L 310.539566 292.217023 
L 310.755349 291.826755 
L 310.866509 291.576059 
L 311.082292 291.965438 
L 311.193452 291.576059 
L 311.304613 291.965438 
L 311.631556 291.326502 
L 311.847339 291.714996 
L 312.063121 291.46569 
L 312.390064 291.46569 
L 312.501225 291.217513 
L 312.612386 291.604249 
L 312.828168 291.217513 
L 312.939329 291.604249 
L 313.266272 290.970455 
L 313.482054 291.356319 
L 313.593215 291.109505 
L 313.697837 291.494499 
L 313.920158 291.109505 
L 314.02478 291.494499 
L 314.351723 290.863801 
L 314.574044 291.24793 
L 314.789827 291.002466 
L 315.11677 291.002466 
L 315.227931 290.758101 
L 315.332553 291.140511 
L 315.554874 290.758101 
L 315.659496 291.140511 
L 315.986439 290.514826 
L 316.20876 290.896383 
L 316.424543 290.653343 
L 316.751486 290.653343 
L 316.862647 290.411382 
L 316.967268 290.791243 
L 317.18959 290.411382 
L 317.294211 290.791243 
L 317.621155 290.170495 
L 317.843476 290.549513 
L 318.059258 290.308853 
L 318.386202 290.308853 
L 318.497362 290.069256 
L 318.601984 290.446601 
L 318.824305 290.069256 
L 318.928927 290.446601 
L 319.25587 289.830713 
L 319.478192 290.207228 
L 319.693974 289.968906 
L 319.909757 289.968906 
L 320.020917 289.59322 
L 320.132078 289.731631 
L 320.2367 290.106494 
L 320.459021 289.731631 
L 320.563643 290.106494 
L 320.890586 289.495393 
L 321.001747 289.869436 
L 321.112907 289.495393 
L 321.32869 289.633413 
L 321.544472 289.633413 
L 321.655633 289.260187 
L 321.766794 289.398419 
L 321.871416 289.770832 
L 322.093737 289.398419 
L 322.198359 289.398419 
L 322.42068 289.53605 
L 322.525302 289.164447 
L 322.636463 289.53605 
L 322.747623 289.164447 
L 322.963406 289.302287 
L 323.179188 289.302287 
L 323.290349 288.931489 
L 323.401509 289.069535 
L 323.506131 289.43953 
L 323.728453 289.069535 
L 323.833074 289.069535 
L 324.055396 289.206984 
L 324.160018 288.837789 
L 324.271178 289.206984 
L 324.382339 288.837789 
L 324.486961 288.975442 
L 324.598121 289.343841 
L 324.813904 288.975442 
L 324.925065 288.975442 
L 325.140847 289.112502 
L 325.252008 288.744895 
L 325.363168 289.112502 
L 325.46779 288.744895 
L 325.578951 288.882156 
L 325.690112 288.515337 
L 325.905894 288.882156 
L 326.017055 288.515337 
L 326.232837 288.652796 
L 326.55978 288.652796 
L 326.670941 288.789667 
L 326.886723 288.424416 
L 326.997884 288.789667 
L 327.102506 288.424416 
L 327.213667 288.561483 
L 327.324827 288.197011 
L 327.54061 288.561483 
L 327.65177 288.197011 
L 327.867553 288.334269 
L 328.194496 288.334269 
L 328.305657 288.470945 
L 328.521439 288.108021 
L 328.6326 288.470945 
L 328.737222 288.108021 
L 328.848382 288.244886 
L 328.959543 287.882731 
L 329.175325 288.244886 
L 329.286486 287.882731 
L 329.502269 288.019783 
L 329.829212 288.019783 
L 329.940372 288.156257 
L 330.156155 287.79563 
L 330.267316 288.156257 
L 330.371937 287.79563 
L 330.483098 287.932289 
L 330.594259 287.57242 
L 330.810041 287.932289 
L 330.921202 287.57242 
L 331.136984 287.709261 
L 331.248145 287.709261 
L 331.352767 287.350149 
L 331.575088 287.845528 
L 331.790871 287.487168 
L 332.006653 287.487168 
L 332.117814 287.623615 
L 332.228974 287.266005 
L 332.333596 287.623615 
L 332.555918 287.266005 
L 332.7717 287.402629 
L 332.882861 287.402629 
L 332.987483 287.045765 
L 333.209804 287.538683 
L 333.425586 287.182563 
L 333.641369 287.182563 
L 333.75253 287.318792 
L 333.86369 286.963412 
L 333.968312 287.318792 
L 334.190633 286.963412 
L 334.406416 287.099813 
L 334.517576 287.099813 
L 334.622198 286.745171 
L 334.84452 287.235649 
L 335.060302 286.881741 
L 335.276085 286.881741 
L 335.498406 286.66457 
L 335.603028 287.017747 
L 335.714188 286.66457 
L 335.825349 287.017747 
L 336.041132 286.800744 
L 336.368075 286.800744 
L 336.583857 286.584633 
L 336.695018 286.936357 
L 336.9108 286.584633 
L 337.021961 286.369411 
L 337.237743 286.720412 
L 337.348904 286.369411 
L 337.460065 286.720412 
L 337.675847 286.505352 
L 338.00279 286.505352 
L 338.218573 286.291171 
L 338.329734 286.640736 
L 338.545516 286.291171 
L 338.656677 286.077865 
L 338.872459 286.426717 
L 338.98362 286.077865 
L 339.094781 286.426717 
L 339.421724 285.865427 
L 339.637506 286.213569 
L 339.853289 286.001288 
L 340.180232 286.001288 
L 340.291392 285.789867 
L 340.402553 286.136597 
L 340.618336 285.789867 
L 340.729496 286.136597 
L 341.056439 285.579303 
L 341.272222 285.92533 
L 341.488004 285.714918 
L 341.814948 285.714918 
L 341.926108 285.505354 
L 342.037269 285.849986 
L 342.253051 285.505354 
L 342.364212 285.849986 
L 342.691155 285.296633 
L 342.906938 285.640571 
L 343.12272 285.431998 
L 343.345041 285.431998 
L 343.449663 285.08875 
L 343.560824 285.224261 
L 343.671985 285.566821 
L 343.887767 285.224261 
L 343.998928 285.224261 
L 344.21471 285.35923 
L 344.325871 285.017355 
L 344.430493 285.35923 
L 344.541653 285.017355 
L 344.757436 285.152467 
L 344.979757 285.152467 
L 345.084379 284.811274 
L 345.19554 284.946528 
L 345.3067 285.287041 
L 345.522483 284.946528 
L 345.633644 284.946528 
L 345.849426 285.081244 
L 345.960587 284.741408 
L 346.065208 285.081244 
L 346.176369 284.741408 
L 346.28753 284.876263 
L 346.392152 284.537102 
L 346.614473 284.876263 
L 346.719095 284.537102 
L 346.941416 284.672095 
L 347.268359 284.672095 
L 347.372981 284.806554 
L 347.484142 284.468733 
L 347.699924 284.806554 
L 347.811085 284.468733 
L 348.026867 284.603329 
L 348.35381 284.603329 
L 348.464971 284.737394 
L 348.680754 284.400903 
L 348.791914 284.737394 
L 348.903075 284.400903 
L 349.007697 284.535103 
L 349.118857 284.199273 
L 349.33464 284.535103 
L 349.445801 284.199273 
L 349.661583 284.333605 
L 349.988526 284.333605 
L 350.099687 284.467411 
L 350.315469 284.132895 
L 350.537791 284.132895 
L 350.642413 284.266832 
L 350.753573 283.93297 
L 350.864734 284.266832 
L 351.080516 283.93297 
L 351.296299 284.067036 
L 351.407459 284.067036 
L 351.51862 283.733824 
L 351.734403 284.20058 
L 351.845563 283.868016 
L 351.950185 284.20058 
L 352.172506 283.868016 
L 352.388289 284.001687 
L 352.49945 284.001687 
L 352.604071 283.66977 
L 352.826393 284.13484 
L 352.931015 283.803566 
L 353.042175 284.13484 
L 353.257958 283.803566 
L 353.480279 283.936845 
L 353.807222 283.936845 
L 354.023005 283.739614 
L 354.134165 284.069609 
L 354.349948 283.739614 
L 354.461108 283.543142 
L 354.676891 283.872502 
L 354.892673 283.872502 
L 355.114995 283.676153 
L 355.219617 284.004879 
L 355.330777 283.676153 
L 355.441938 284.004879 
L 355.65772 283.808653 
L 355.984664 283.808653 
L 356.200446 283.613179 
L 356.311607 283.940645 
L 356.422767 283.613179 
L 356.527389 283.940645 
L 356.854332 283.418452 
L 357.076654 283.745292 
L 357.181275 283.550685 
L 357.292436 283.876902 
L 357.508219 283.550685 
L 357.619379 283.876902 
L 357.835162 283.682414 
L 358.162105 283.682414 
L 358.273266 283.488667 
L 358.384426 283.813643 
L 358.489048 283.488667 
L 358.711369 283.813643 
L 358.927152 283.620014 
L 359.142934 283.620014 
L 359.254095 283.944373 
L 359.581038 283.427118 
L 359.796821 283.750863 
L 359.907981 283.558085 
L 360.019142 283.881218 
L 360.234924 283.558085 
L 360.346085 283.558085 
L 360.561868 283.688558 
L 360.673028 283.366034 
L 360.77765 283.688558 
L 360.888811 283.366034 
L 360.999971 283.496623 
L 361.104593 283.818539 
L 361.215754 283.496623 
L 361.326915 283.818539 
L 361.431536 283.496623 
L 361.653858 283.62672 
L 361.86964 283.62672 
L 361.980801 283.305409 
L 362.085423 283.435622 
L 362.196583 283.75633 
L 362.307744 283.435622 
L 362.412366 283.75633 
L 362.523527 283.435622 
L 362.739309 283.565346 
L 363.066252 283.565346 
L 363.288573 283.694586 
L 363.393195 283.375077 
L 363.504356 283.694586 
L 363.615517 283.375077 
L 363.831299 283.50443 
L 364.158242 283.50443 
L 364.269403 283.633302 
L 364.374025 283.314983 
L 364.596346 283.633302 
L 364.700968 283.314983 
L 364.923289 283.443967 
L 365.027911 283.443967 
L 365.139072 283.761695 
L 365.250232 283.443967 
L 365.354854 283.572473 
L 365.466015 283.255335 
L 365.681797 283.572473 
L 365.792958 283.572473 
L 365.904119 283.700503 
L 366.119901 283.383952 
L 366.231062 283.700503 
L 366.335684 283.383952 
L 366.558005 283.512094 
L 366.662627 283.512094 
L 366.773787 283.196128 
L 366.98957 283.639763 
L 367.100731 283.32438 
L 367.211891 283.639763 
L 367.427674 283.32438 
L 367.643456 283.452159 
L 367.970399 283.452159 
L 368.08156 283.579469 
L 368.192721 283.265246 
L 368.297342 283.579469 
L 368.408503 283.265246 
L 368.624286 283.706311 
L 368.846607 283.392665 
L 369.062389 283.392665 
L 369.278172 283.519617 
L 369.389333 283.519617 
L 369.500493 283.206544 
L 369.716276 283.646105 
L 369.827436 283.333605 
L 369.932058 283.646105 
L 370.15438 283.333605 
L 370.259001 283.148272 
L 370.481323 283.460202 
L 370.697105 283.460202 
L 370.912888 283.274976 
L 371.024048 283.586337 
L 371.135209 283.274976 
L 371.239831 283.586337 
L 371.462152 283.401219 
L 371.566774 283.712014 
L 371.789095 283.401219 
L 371.893717 283.216772 
L 372.116038 283.527003 
L 372.331821 283.527003 
L 372.547603 283.342663 
L 372.769925 283.342663 
L 372.874547 283.652332 
L 373.20149 283.158989 
L 373.423811 283.468099 
L 373.528433 283.28453 
L 373.639594 283.593081 
L 373.855376 283.28453 
L 373.966537 283.593081 
L 374.182319 283.409618 
L 374.509262 283.409618 
L 374.620423 283.226815 
L 374.731584 283.534257 
L 374.836205 283.226815 
L 375.058527 283.534257 
L 375.274309 283.351558 
L 375.490092 283.351558 
L 375.601252 283.658448 
L 375.928196 283.169514 
L 376.039356 283.475854 
L 376.143978 283.169514 
L 376.255139 283.293913 
L 376.366299 283.599705 
L 376.582082 283.293913 
L 376.693243 283.293913 
L 376.909025 283.417868 
L 377.124807 283.417868 
L 377.235968 283.112623 
L 377.347129 283.23668 
L 377.451751 283.541381 
L 377.562911 283.23668 
L 377.674072 283.541381 
L 377.778694 283.23668 
L 378.001015 283.360295 
L 378.327958 283.360295 
L 378.543741 283.483472 
L 378.654901 283.179853 
L 378.759523 283.483472 
L 378.870684 283.179853 
L 379.086466 283.303131 
L 379.41341 283.303131 
L 379.52457 283.425972 
L 379.635731 283.123428 
L 379.851513 283.425972 
L 379.962674 283.123428 
L 380.178456 283.24637 
L 380.289617 283.24637 
L 380.394239 283.54838 
L 380.5054 283.24637 
L 380.61656 283.368878 
L 380.721182 283.067401 
L 380.943503 283.368878 
L 381.048125 283.368878 
L 381.159286 283.490955 
L 381.375068 283.190009 
L 381.486229 283.490955 
L 381.59739 283.190009 
L 381.813172 283.312186 
L 382.140115 283.312186 
L 382.251276 283.433934 
L 382.355898 283.134043 
L 382.467059 283.433934 
L 382.682841 283.134043 
L 382.905162 283.25589 
L 383.232105 283.25589 
L 383.447888 283.377311 
L 383.559049 283.377311 
L 383.66367 283.078469 
L 383.885992 283.498308 
L 383.990614 283.199988 
L 384.101774 283.498308 
L 384.317557 283.199988 
L 384.539878 283.321083 
L 384.866821 283.321083 
L 385.082604 283.144474 
L 385.193764 283.441757 
L 385.298386 283.144474 
L 385.409547 283.441757 
L 385.625329 283.265246 
L 385.952272 283.265246 
L 386.063433 283.089346 
L 386.279216 283.385598 
L 386.390376 283.089346 
L 386.501537 283.385598 
L 386.717319 283.209794 
L 386.82848 283.505534 
L 387.044263 283.209794 
L 387.155423 283.034598 
L 387.260045 283.329827 
L 387.371206 283.034598 
L 387.586988 283.329827 
L 387.80931 283.154726 
L 388.025092 283.154726 
L 388.136253 283.449445 
L 388.463196 282.980227 
L 388.678978 283.27444 
L 388.790139 283.100035 
L 388.894761 283.393742 
L 389.005921 283.100035 
L 389.221704 283.393742 
L 389.444025 283.219433 
L 389.659808 283.219433 
L 389.770968 283.512636 
L 390.097912 283.04572 
L 390.202533 283.338421 
L 390.313694 283.04572 
L 390.424855 283.164801 
L 390.529477 283.457002 
L 390.751798 283.164801 
L 390.85642 283.164801 
L 391.078741 283.283477 
L 391.294523 283.283477 
L 391.405684 282.991775 
L 391.621467 283.401748 
L 391.732627 283.110543 
L 391.837249 283.401748 
L 391.94841 283.110543 
L 392.164192 283.228907 
L 392.491135 283.228907 
L 392.713457 283.346869 
L 392.818079 283.056652 
L 392.929239 283.346869 
L 393.0404 283.056652 
L 393.256182 283.174707 
L 393.583126 283.174707 
L 393.694286 283.292361 
L 393.798908 283.003127 
L 394.021229 283.292361 
L 394.125851 283.003127 
L 394.348172 283.120873 
L 394.452794 283.120873 
L 394.563955 283.409618 
L 394.675116 283.120873 
L 394.779737 283.238221 
L 394.890898 282.949962 
L 395.106681 283.238221 
L 395.217841 283.238221 
L 395.329002 283.355175 
L 395.544784 283.067401 
L 395.760567 283.067401 
L 395.982888 283.184445 
L 396.309831 283.184445 
L 396.414453 283.301096 
L 396.525614 283.014289 
L 396.636775 283.301096 
L 396.741396 283.014289 
L 396.963718 283.417357 
L 397.1795 283.13103 
L 397.395283 283.13103 
L 397.617604 283.24738 
L 397.722226 283.24738 
L 397.833386 282.961531 
L 398.049169 283.363342 
L 398.16033 283.077971 
L 398.27149 283.363342 
L 398.487273 283.077971 
L 398.487273 283.077971 
" style="fill:none;stroke:#1f77b4;stroke-linecap:square;stroke-width:1.5;"/>
   </g>
   <g id="patch_3">
    <path d="M 57.6 307.584 
L 57.6 41.472 
" style="fill:none;stroke:#000000;stroke-linecap:square;stroke-linejoin:miter;stroke-width:0.8;"/>
   </g>
   <g id="patch_4">
    <path d="M 414.72 307.584 
L 414.72 41.472 
" style="fill:none;stroke:#000000;stroke-linecap:square;stroke-linejoin:miter;stroke-width:0.8;"/>
   </g>
   <g id="patch_5">
    <path d="M 57.6 307.584 
L 414.72 307.584 
" style="fill:none;stroke:#000000;stroke-linecap:square;stroke-linejoin:miter;stroke-width:0.8;"/>
   </g>
   <g id="patch_6">
    <path d="M 57.6 41.472 
L 414.72 41.472 
" style="fill:none;stroke:#000000;stroke-linecap:square;stroke-linejoin:miter;stroke-width:0.8;"/>
   </g>
   <g id="text_14">
    <!-- Speed function of time -->
    <g transform="translate(167.024063 35.472)scale(0.12 -0.12)">
     <defs>
      <path id="DejaVuSerif-32"/>
      <path d="M 43.015625 63.71875 
L 38.28125 63.71875 
Q 38.234375 67.390625 36.203125 69.28125 
Q 34.1875 71.1875 30.328125 71.1875 
Q 25.296875 71.1875 23.234375 68.421875 
Q 21.1875 65.671875 21.1875 58.59375 
L 21.1875 51.90625 
L 35.6875 51.90625 
L 35.6875 46.6875 
L 21.1875 46.6875 
L 21.1875 5.171875 
L 32.71875 5.171875 
L 32.71875 0 
L 3.609375 0 
L 3.609375 5.171875 
L 12.203125 5.171875 
L 12.203125 46.6875 
L 3.609375 46.6875 
L 3.609375 51.90625 
L 12.203125 51.90625 
L 12.203125 58.40625 
Q 12.203125 67.09375 16.71875 71.53125 
Q 21.234375 75.984375 29.984375 75.984375 
Q 33.25 75.984375 36.515625 75.390625 
Q 39.796875 74.8125 43.015625 73.578125 
z
" id="DejaVuSerif-102"/>
      <path d="M 35.40625 51.90625 
L 52.203125 51.90625 
L 52.203125 5.171875 
L 60.6875 5.171875 
L 60.6875 0 
L 43.21875 0 
L 43.21875 9.1875 
Q 40.71875 4 36.765625 1.28125 
Q 32.8125 -1.421875 27.59375 -1.421875 
Q 18.953125 -1.421875 14.875 3.484375 
Q 10.796875 8.40625 10.796875 18.890625 
L 10.796875 46.6875 
L 2.6875 46.6875 
L 2.6875 51.90625 
L 19.828125 51.90625 
L 19.828125 21.6875 
Q 19.828125 12.203125 22.140625 8.6875 
Q 24.46875 5.171875 30.421875 5.171875 
Q 36.671875 5.171875 39.9375 9.765625 
Q 43.21875 14.359375 43.21875 23.09375 
L 43.21875 46.6875 
L 35.40625 46.6875 
z
" id="DejaVuSerif-117"/>
      <path d="M 4.109375 0 
L 4.109375 5.171875 
L 12.203125 5.171875 
L 12.203125 46.6875 
L 3.609375 46.6875 
L 3.609375 51.90625 
L 21.1875 51.90625 
L 21.1875 42.671875 
Q 23.6875 47.953125 27.65625 50.640625 
Q 31.640625 53.328125 36.921875 53.328125 
Q 45.515625 53.328125 49.5625 48.390625 
Q 53.609375 43.453125 53.609375 33.015625 
L 53.609375 5.171875 
L 61.625 5.171875 
L 61.625 0 
L 36.8125 0 
L 36.8125 5.171875 
L 44.578125 5.171875 
L 44.578125 30.171875 
Q 44.578125 39.703125 42.234375 43.234375 
Q 39.890625 46.78125 33.984375 46.78125 
Q 27.734375 46.78125 24.453125 42.203125 
Q 21.1875 37.640625 21.1875 28.90625 
L 21.1875 5.171875 
L 29 5.171875 
L 29 0 
z
" id="DejaVuSerif-110"/>
      <path d="M 51.421875 15.578125 
Q 49.515625 7.28125 44.09375 2.921875 
Q 38.671875 -1.421875 30.078125 -1.421875 
Q 18.75 -1.421875 11.859375 6.078125 
Q 4.984375 13.578125 4.984375 25.984375 
Q 4.984375 38.421875 11.859375 45.875 
Q 18.75 53.328125 30.078125 53.328125 
Q 35.015625 53.328125 39.890625 52.171875 
Q 44.78125 51.03125 49.703125 48.6875 
L 49.703125 35.40625 
L 44.484375 35.40625 
Q 43.453125 42.234375 40.015625 45.359375 
Q 36.578125 48.484375 30.171875 48.484375 
Q 22.90625 48.484375 19.1875 42.84375 
Q 15.484375 37.203125 15.484375 25.984375 
Q 15.484375 14.75 19.171875 9.078125 
Q 22.859375 3.421875 30.171875 3.421875 
Q 35.984375 3.421875 39.453125 6.4375 
Q 42.921875 9.46875 44.1875 15.578125 
z
" id="DejaVuSerif-99"/>
      <path d="M 10.796875 46.6875 
L 2.875 46.6875 
L 2.875 51.90625 
L 10.796875 51.90625 
L 10.796875 68.015625 
L 19.828125 68.015625 
L 19.828125 51.90625 
L 36.71875 51.90625 
L 36.71875 46.6875 
L 19.828125 46.6875 
L 19.828125 13.71875 
Q 19.828125 7.125 21.09375 5.265625 
Q 22.359375 3.421875 25.78125 3.421875 
Q 29.296875 3.421875 30.90625 5.484375 
Q 32.515625 7.5625 32.625 12.203125 
L 39.40625 12.203125 
Q 39.015625 5.125 35.546875 1.84375 
Q 32.078125 -1.421875 25 -1.421875 
Q 17.234375 -1.421875 14.015625 2.015625 
Q 10.796875 5.46875 10.796875 13.71875 
z
" id="DejaVuSerif-116"/>
      <path d="M 30.078125 3.421875 
Q 37.3125 3.421875 40.984375 9.125 
Q 44.671875 14.84375 44.671875 25.984375 
Q 44.671875 37.109375 40.984375 42.796875 
Q 37.3125 48.484375 30.078125 48.484375 
Q 22.859375 48.484375 19.171875 42.796875 
Q 15.484375 37.109375 15.484375 25.984375 
Q 15.484375 14.84375 19.1875 9.125 
Q 22.90625 3.421875 30.078125 3.421875 
z
M 30.078125 -1.421875 
Q 18.75 -1.421875 11.859375 6.078125 
Q 4.984375 13.578125 4.984375 25.984375 
Q 4.984375 38.375 11.84375 45.84375 
Q 18.703125 53.328125 30.078125 53.328125 
Q 41.453125 53.328125 48.3125 45.84375 
Q 55.171875 38.375 55.171875 25.984375 
Q 55.171875 13.578125 48.3125 6.078125 
Q 41.453125 -1.421875 30.078125 -1.421875 
z
" id="DejaVuSerif-111"/>
     </defs>
     <use xlink:href="#DejaVuSerif-83"/>
     <use x="68.505859" xlink:href="#DejaVuSerif-112"/>
     <use x="132.519531" xlink:href="#DejaVuSerif-101"/>
     <use x="191.699219" xlink:href="#DejaVuSerif-101"/>
     <use x="250.878906" xlink:href="#DejaVuSerif-100"/>
     <use x="314.892578" xlink:href="#DejaVuSerif-32"/>
     <use x="346.679688" xlink:href="#DejaVuSerif-102"/>
     <use x="383.691406" xlink:href="#DejaVuSerif-117"/>
     <use x="448.095703" xlink:href="#DejaVuSerif-110"/>
     <use x="512.5" xlink:href="#DejaVuSerif-99"/>
     <use x="568.505859" xlink:href="#DejaVuSerif-116"/>
     <use x="608.691406" xlink:href="#DejaVuSerif-105"/>
     <use x="640.673828" xlink:href="#DejaVuSerif-111"/>
     <use x="700.878906" xlink:href="#DejaVuSerif-110"/>
     <use x="765.283203" xlink:href="#DejaVuSerif-32"/>
     <use x="797.070312" xlink:href="#DejaVuSerif-111"/>
     <use x="857.275391" xlink:href="#DejaVuSerif-102"/>
     <use x="894.287109" xlink:href="#DejaVuSerif-32"/>
     <use x="926.074219" xlink:href="#DejaVuSerif-116"/>
     <use x="966.259766" xlink:href="#DejaVuSerif-105"/>
     <use x="998.242188" xlink:href="#DejaVuSerif-109"/>
     <use x="1093.066406" xlink:href="#DejaVuSerif-101"/>
    </g>
   </g>
  </g>
 </g>
 <defs>
  <clipPath id="pb53b6ecc36">
   <rect height="266.112" width="357.12" x="57.6" y="41.472"/>
  </clipPath>
 </defs>
</svg>
