<?xml version="1.0" encoding="utf-8" standalone="no"?>
<!DOCTYPE svg PUBLIC "-//W3C//DTD SVG 1.1//EN"
  "http://www.w3.org/Graphics/SVG/1.1/DTD/svg11.dtd">
<!-- Created with matplotlib (https://matplotlib.org/) -->
<svg height="345.6pt" version="1.1" viewBox="0 0 460.8 345.6" width="460.8pt" xmlns="http://www.w3.org/2000/svg" xmlns:xlink="http://www.w3.org/1999/xlink">
 <metadata>
  <rdf:RDF xmlns:cc="http://creativecommons.org/ns#" xmlns:dc="http://purl.org/dc/elements/1.1/" xmlns:rdf="http://www.w3.org/1999/02/22-rdf-syntax-ns#">
   <cc:Work>
    <dc:type rdf:resource="http://purl.org/dc/dcmitype/StillImage"/>
    <dc:date>2023-01-13T14:01:25.417168</dc:date>
    <dc:format>image/svg+xml</dc:format>
    <dc:creator>
     <cc:Agent>
      <dc:title>Matplotlib v3.3.4, https://matplotlib.org/</dc:title>
     </cc:Agent>
    </dc:creator>
   </cc:Work>
  </rdf:RDF>
 </metadata>
 <defs>
  <style type="text/css">*{stroke-linecap:butt;stroke-linejoin:round;}</style>
 </defs>
 <g id="figure_1">
  <g id="patch_1">
   <path d="M 0 345.6 
L 460.8 345.6 
L 460.8 0 
L 0 0 
z
" style="fill:#ffffff;"/>
  </g>
  <g id="axes_1">
   <g id="patch_2">
    <path d="M 57.6 307.584 
L 414.72 307.584 
L 414.72 41.472 
L 57.6 41.472 
z
" style="fill:#ffffff;"/>
   </g>
   <g id="matplotlib.axis_1">
    <g id="xtick_1">
     <g id="line2d_1">
      <defs>
       <path d="M 0 0 
L 0 3.5 
" id="m9de28fa7f8" style="stroke:#000000;stroke-width:0.8;"/>
      </defs>
      <g>
       <use style="stroke:#000000;stroke-width:0.8;" x="72.692445" xlink:href="#m9de28fa7f8" y="307.584"/>
      </g>
     </g>
     <g id="text_1">
      <!-- 0 -->
      <g transform="translate(69.511195 322.182437)scale(0.1 -0.1)">
       <defs>
        <path d="M 31.78125 3.421875 
Q 39.265625 3.421875 42.96875 11.625 
Q 46.6875 19.828125 46.6875 36.375 
Q 46.6875 52.984375 42.96875 61.1875 
Q 39.265625 69.390625 31.78125 69.390625 
Q 24.3125 69.390625 20.59375 61.1875 
Q 16.890625 52.984375 16.890625 36.375 
Q 16.890625 19.828125 20.59375 11.625 
Q 24.3125 3.421875 31.78125 3.421875 
z
M 31.78125 -1.421875 
Q 19.921875 -1.421875 13.25 8.53125 
Q 6.59375 18.5 6.59375 36.375 
Q 6.59375 54.296875 13.25 64.25 
Q 19.921875 74.21875 31.78125 74.21875 
Q 43.703125 74.21875 50.34375 64.25 
Q 56.984375 54.296875 56.984375 36.375 
Q 56.984375 18.5 50.34375 8.53125 
Q 43.703125 -1.421875 31.78125 -1.421875 
z
" id="DejaVuSerif-48"/>
       </defs>
       <use xlink:href="#DejaVuSerif-48"/>
      </g>
     </g>
    </g>
    <g id="xtick_2">
     <g id="line2d_2">
      <g>
       <use style="stroke:#000000;stroke-width:0.8;" x="137.851411" xlink:href="#m9de28fa7f8" y="307.584"/>
      </g>
     </g>
     <g id="text_2">
      <!-- 200 -->
      <g transform="translate(128.307661 322.182437)scale(0.1 -0.1)">
       <defs>
        <path d="M 12.796875 55.515625 
L 7.328125 55.515625 
L 7.328125 68.5 
Q 12.546875 71.296875 17.84375 72.75 
Q 23.140625 74.21875 28.21875 74.21875 
Q 39.59375 74.21875 46.1875 68.703125 
Q 52.78125 63.1875 52.78125 53.71875 
Q 52.78125 43.015625 37.84375 28.125 
Q 36.671875 27 36.078125 26.421875 
L 17.671875 8.015625 
L 48.09375 8.015625 
L 48.09375 17 
L 53.8125 17 
L 53.8125 0 
L 6.78125 0 
L 6.78125 5.328125 
L 28.90625 27.390625 
Q 36.234375 34.71875 39.359375 40.84375 
Q 42.484375 46.96875 42.484375 53.71875 
Q 42.484375 61.078125 38.640625 65.234375 
Q 34.8125 69.390625 28.078125 69.390625 
Q 21.09375 69.390625 17.28125 65.921875 
Q 13.484375 62.453125 12.796875 55.515625 
z
" id="DejaVuSerif-50"/>
       </defs>
       <use xlink:href="#DejaVuSerif-50"/>
       <use x="63.623047" xlink:href="#DejaVuSerif-48"/>
       <use x="127.246094" xlink:href="#DejaVuSerif-48"/>
      </g>
     </g>
    </g>
    <g id="xtick_3">
     <g id="line2d_3">
      <g>
       <use style="stroke:#000000;stroke-width:0.8;" x="203.010376" xlink:href="#m9de28fa7f8" y="307.584"/>
      </g>
     </g>
     <g id="text_3">
      <!-- 400 -->
      <g transform="translate(193.466626 322.182437)scale(0.1 -0.1)">
       <defs>
        <path d="M 34.90625 24.703125 
L 34.90625 63.484375 
L 10.015625 24.703125 
z
M 56.390625 0 
L 23.1875 0 
L 23.1875 5.171875 
L 34.90625 5.171875 
L 34.90625 19.484375 
L 3.078125 19.484375 
L 3.078125 24.8125 
L 35.015625 74.21875 
L 44.671875 74.21875 
L 44.671875 24.703125 
L 58.59375 24.703125 
L 58.59375 19.484375 
L 44.671875 19.484375 
L 44.671875 5.171875 
L 56.390625 5.171875 
z
" id="DejaVuSerif-52"/>
       </defs>
       <use xlink:href="#DejaVuSerif-52"/>
       <use x="63.623047" xlink:href="#DejaVuSerif-48"/>
       <use x="127.246094" xlink:href="#DejaVuSerif-48"/>
      </g>
     </g>
    </g>
    <g id="xtick_4">
     <g id="line2d_4">
      <g>
       <use style="stroke:#000000;stroke-width:0.8;" x="268.169342" xlink:href="#m9de28fa7f8" y="307.584"/>
      </g>
     </g>
     <g id="text_4">
      <!-- 600 -->
      <g transform="translate(258.625592 322.182437)scale(0.1 -0.1)">
       <defs>
        <path d="M 32.71875 3.421875 
Q 39.59375 3.421875 43.296875 8.46875 
Q 47.015625 13.53125 47.015625 23 
Q 47.015625 32.46875 43.296875 37.515625 
Q 39.59375 42.578125 32.71875 42.578125 
Q 25.734375 42.578125 22.0625 37.6875 
Q 18.40625 32.8125 18.40625 23.578125 
Q 18.40625 13.875 22.109375 8.640625 
Q 25.828125 3.421875 32.71875 3.421875 
z
M 16.796875 40.140625 
Q 20.125 43.796875 24.3125 45.59375 
Q 28.515625 47.40625 33.796875 47.40625 
Q 44.671875 47.40625 51 40.859375 
Q 57.328125 34.328125 57.328125 23 
Q 57.328125 11.921875 50.515625 5.25 
Q 43.703125 -1.421875 32.328125 -1.421875 
Q 19.96875 -1.421875 13.328125 7.78125 
Q 6.6875 17 6.6875 34.078125 
Q 6.6875 53.21875 14.546875 63.71875 
Q 22.40625 74.21875 36.71875 74.21875 
Q 40.578125 74.21875 44.828125 73.484375 
Q 49.078125 72.75 53.515625 71.296875 
L 53.515625 59.28125 
L 48 59.28125 
Q 47.40625 64.203125 44.234375 66.796875 
Q 41.0625 69.390625 35.6875 69.390625 
Q 26.21875 69.390625 21.578125 62.203125 
Q 16.9375 55.03125 16.796875 40.140625 
z
" id="DejaVuSerif-54"/>
       </defs>
       <use xlink:href="#DejaVuSerif-54"/>
       <use x="63.623047" xlink:href="#DejaVuSerif-48"/>
       <use x="127.246094" xlink:href="#DejaVuSerif-48"/>
      </g>
     </g>
    </g>
    <g id="xtick_5">
     <g id="line2d_5">
      <g>
       <use style="stroke:#000000;stroke-width:0.8;" x="333.328307" xlink:href="#m9de28fa7f8" y="307.584"/>
      </g>
     </g>
     <g id="text_5">
      <!-- 800 -->
      <g transform="translate(323.784557 322.182437)scale(0.1 -0.1)">
       <defs>
        <path d="M 46.578125 19.921875 
Q 46.578125 27.734375 42.6875 32.046875 
Q 38.8125 36.375 31.78125 36.375 
Q 24.75 36.375 20.875 32.046875 
Q 17 27.734375 17 19.921875 
Q 17 12.0625 20.875 7.734375 
Q 24.75 3.421875 31.78125 3.421875 
Q 38.8125 3.421875 42.6875 7.734375 
Q 46.578125 12.0625 46.578125 19.921875 
z
M 44.578125 55.328125 
Q 44.578125 61.96875 41.203125 65.671875 
Q 37.84375 69.390625 31.78125 69.390625 
Q 25.78125 69.390625 22.390625 65.671875 
Q 19 61.96875 19 55.328125 
Q 19 48.640625 22.390625 44.921875 
Q 25.78125 41.21875 31.78125 41.21875 
Q 37.84375 41.21875 41.203125 44.921875 
Q 44.578125 48.640625 44.578125 55.328125 
z
M 39.3125 38.8125 
Q 47.609375 37.703125 52.25 32.6875 
Q 56.890625 27.6875 56.890625 19.921875 
Q 56.890625 9.671875 50.390625 4.125 
Q 43.890625 -1.421875 31.78125 -1.421875 
Q 19.734375 -1.421875 13.203125 4.125 
Q 6.6875 9.671875 6.6875 19.921875 
Q 6.6875 27.6875 11.328125 32.6875 
Q 15.96875 37.703125 24.3125 38.8125 
Q 16.9375 40.140625 13 44.40625 
Q 9.078125 48.6875 9.078125 55.328125 
Q 9.078125 64.109375 15.125 69.15625 
Q 21.1875 74.21875 31.78125 74.21875 
Q 42.390625 74.21875 48.4375 69.15625 
Q 54.5 64.109375 54.5 55.328125 
Q 54.5 48.6875 50.5625 44.40625 
Q 46.625 40.140625 39.3125 38.8125 
z
" id="DejaVuSerif-56"/>
       </defs>
       <use xlink:href="#DejaVuSerif-56"/>
       <use x="63.623047" xlink:href="#DejaVuSerif-48"/>
       <use x="127.246094" xlink:href="#DejaVuSerif-48"/>
      </g>
     </g>
    </g>
    <g id="xtick_6">
     <g id="line2d_6">
      <g>
       <use style="stroke:#000000;stroke-width:0.8;" x="398.487273" xlink:href="#m9de28fa7f8" y="307.584"/>
      </g>
     </g>
     <g id="text_6">
      <!-- 1000 -->
      <g transform="translate(385.762273 322.182437)scale(0.1 -0.1)">
       <defs>
        <path d="M 14.203125 0 
L 14.203125 5.171875 
L 26.90625 5.171875 
L 26.90625 65.828125 
L 12.203125 56.296875 
L 12.203125 62.703125 
L 29.984375 74.21875 
L 36.71875 74.21875 
L 36.71875 5.171875 
L 49.421875 5.171875 
L 49.421875 0 
z
" id="DejaVuSerif-49"/>
       </defs>
       <use xlink:href="#DejaVuSerif-49"/>
       <use x="63.623047" xlink:href="#DejaVuSerif-48"/>
       <use x="127.246094" xlink:href="#DejaVuSerif-48"/>
       <use x="190.869141" xlink:href="#DejaVuSerif-48"/>
      </g>
     </g>
    </g>
    <g id="text_7">
     <!-- Time -->
     <g transform="translate(223.524844 335.860562)scale(0.1 -0.1)">
      <defs>
       <path d="M 19.09375 0 
L 19.09375 5.171875 
L 28.421875 5.171875 
L 28.421875 67.09375 
L 6.984375 67.09375 
L 6.984375 55.71875 
L 0.984375 55.71875 
L 0.984375 72.90625 
L 65.71875 72.90625 
L 65.71875 55.71875 
L 59.71875 55.71875 
L 59.71875 67.09375 
L 38.28125 67.09375 
L 38.28125 5.171875 
L 47.609375 5.171875 
L 47.609375 0 
z
" id="DejaVuSerif-84"/>
       <path d="M 9.71875 68.015625 
Q 9.71875 70.265625 11.34375 71.921875 
Q 12.984375 73.578125 15.28125 73.578125 
Q 17.53125 73.578125 19.15625 71.921875 
Q 20.796875 70.265625 20.796875 68.015625 
Q 20.796875 65.71875 19.1875 64.109375 
Q 17.578125 62.5 15.28125 62.5 
Q 12.984375 62.5 11.34375 64.109375 
Q 9.71875 65.71875 9.71875 68.015625 
z
M 21.1875 5.171875 
L 29.6875 5.171875 
L 29.6875 0 
L 3.609375 0 
L 3.609375 5.171875 
L 12.203125 5.171875 
L 12.203125 46.6875 
L 3.609375 46.6875 
L 3.609375 51.90625 
L 21.1875 51.90625 
z
" id="DejaVuSerif-105"/>
       <path d="M 51.8125 41.796875 
Q 54.390625 47.515625 58.421875 50.421875 
Q 62.453125 53.328125 67.828125 53.328125 
Q 75.984375 53.328125 79.984375 48.265625 
Q 83.984375 43.21875 83.984375 33.015625 
L 83.984375 5.171875 
L 92.09375 5.171875 
L 92.09375 0 
L 67.1875 0 
L 67.1875 5.171875 
L 75 5.171875 
L 75 31.984375 
Q 75 39.9375 72.65625 43.3125 
Q 70.3125 46.6875 64.890625 46.6875 
Q 58.890625 46.6875 55.734375 42.140625 
Q 52.59375 37.59375 52.59375 28.90625 
L 52.59375 5.171875 
L 60.40625 5.171875 
L 60.40625 0 
L 35.796875 0 
L 35.796875 5.171875 
L 43.609375 5.171875 
L 43.609375 32.328125 
Q 43.609375 40.09375 41.265625 43.390625 
Q 38.921875 46.6875 33.5 46.6875 
Q 27.484375 46.6875 24.328125 42.140625 
Q 21.1875 37.59375 21.1875 28.90625 
L 21.1875 5.171875 
L 29 5.171875 
L 29 0 
L 4.109375 0 
L 4.109375 5.171875 
L 12.203125 5.171875 
L 12.203125 46.78125 
L 3.609375 46.78125 
L 3.609375 51.90625 
L 21.1875 51.90625 
L 21.1875 42.671875 
Q 23.6875 47.859375 27.53125 50.59375 
Q 31.390625 53.328125 36.28125 53.328125 
Q 42.328125 53.328125 46.375 50.3125 
Q 50.4375 47.3125 51.8125 41.796875 
z
" id="DejaVuSerif-109"/>
       <path d="M 54.203125 25 
L 15.484375 25 
L 15.484375 24.609375 
Q 15.484375 14.109375 19.4375 8.765625 
Q 23.390625 3.421875 31.109375 3.421875 
Q 37.015625 3.421875 40.796875 6.515625 
Q 44.578125 9.625 46.09375 15.71875 
L 53.328125 15.71875 
Q 51.171875 7.171875 45.375 2.875 
Q 39.59375 -1.421875 30.171875 -1.421875 
Q 18.796875 -1.421875 11.890625 6.078125 
Q 4.984375 13.578125 4.984375 25.984375 
Q 4.984375 38.28125 11.765625 45.796875 
Q 18.5625 53.328125 29.59375 53.328125 
Q 41.359375 53.328125 47.65625 46.0625 
Q 53.953125 38.8125 54.203125 25 
z
M 43.609375 30.171875 
Q 43.3125 39.265625 39.765625 43.875 
Q 36.234375 48.484375 29.59375 48.484375 
Q 23.390625 48.484375 19.828125 43.84375 
Q 16.265625 39.203125 15.484375 30.171875 
z
" id="DejaVuSerif-101"/>
      </defs>
      <use xlink:href="#DejaVuSerif-84"/>
      <use x="66.699219" xlink:href="#DejaVuSerif-105"/>
      <use x="98.681641" xlink:href="#DejaVuSerif-109"/>
      <use x="193.505859" xlink:href="#DejaVuSerif-101"/>
     </g>
    </g>
   </g>
   <g id="matplotlib.axis_2">
    <g id="ytick_1">
     <g id="line2d_7">
      <defs>
       <path d="M 0 0 
L -3.5 0 
" id="mfd91666d38" style="stroke:#000000;stroke-width:0.8;"/>
      </defs>
      <g>
       <use style="stroke:#000000;stroke-width:0.8;" x="57.6" xlink:href="#mfd91666d38" y="295.488"/>
      </g>
     </g>
     <g id="text_8">
      <!-- 0.0 -->
      <g transform="translate(34.696875 299.287219)scale(0.1 -0.1)">
       <defs>
        <path d="M 9.421875 5.078125 
Q 9.421875 7.8125 11.28125 9.71875 
Q 13.140625 11.625 15.921875 11.625 
Q 18.609375 11.625 20.5 9.71875 
Q 22.40625 7.8125 22.40625 5.078125 
Q 22.40625 2.390625 20.5 0.484375 
Q 18.609375 -1.421875 15.921875 -1.421875 
Q 13.140625 -1.421875 11.28125 0.453125 
Q 9.421875 2.34375 9.421875 5.078125 
z
" id="DejaVuSerif-46"/>
       </defs>
       <use xlink:href="#DejaVuSerif-48"/>
       <use x="63.623047" xlink:href="#DejaVuSerif-46"/>
       <use x="95.410156" xlink:href="#DejaVuSerif-48"/>
      </g>
     </g>
    </g>
    <g id="ytick_2">
     <g id="line2d_8">
      <g>
       <use style="stroke:#000000;stroke-width:0.8;" x="57.6" xlink:href="#mfd91666d38" y="263.232"/>
      </g>
     </g>
     <g id="text_9">
      <!-- 0.2 -->
      <g transform="translate(34.696875 267.031219)scale(0.1 -0.1)">
       <use xlink:href="#DejaVuSerif-48"/>
       <use x="63.623047" xlink:href="#DejaVuSerif-46"/>
       <use x="95.410156" xlink:href="#DejaVuSerif-50"/>
      </g>
     </g>
    </g>
    <g id="ytick_3">
     <g id="line2d_9">
      <g>
       <use style="stroke:#000000;stroke-width:0.8;" x="57.6" xlink:href="#mfd91666d38" y="230.976"/>
      </g>
     </g>
     <g id="text_10">
      <!-- 0.4 -->
      <g transform="translate(34.696875 234.775219)scale(0.1 -0.1)">
       <use xlink:href="#DejaVuSerif-48"/>
       <use x="63.623047" xlink:href="#DejaVuSerif-46"/>
       <use x="95.410156" xlink:href="#DejaVuSerif-52"/>
      </g>
     </g>
    </g>
    <g id="ytick_4">
     <g id="line2d_10">
      <g>
       <use style="stroke:#000000;stroke-width:0.8;" x="57.6" xlink:href="#mfd91666d38" y="198.72"/>
      </g>
     </g>
     <g id="text_11">
      <!-- 0.6 -->
      <g transform="translate(34.696875 202.519219)scale(0.1 -0.1)">
       <use xlink:href="#DejaVuSerif-48"/>
       <use x="63.623047" xlink:href="#DejaVuSerif-46"/>
       <use x="95.410156" xlink:href="#DejaVuSerif-54"/>
      </g>
     </g>
    </g>
    <g id="ytick_5">
     <g id="line2d_11">
      <g>
       <use style="stroke:#000000;stroke-width:0.8;" x="57.6" xlink:href="#mfd91666d38" y="166.464"/>
      </g>
     </g>
     <g id="text_12">
      <!-- 0.8 -->
      <g transform="translate(34.696875 170.263219)scale(0.1 -0.1)">
       <use xlink:href="#DejaVuSerif-48"/>
       <use x="63.623047" xlink:href="#DejaVuSerif-46"/>
       <use x="95.410156" xlink:href="#DejaVuSerif-56"/>
      </g>
     </g>
    </g>
    <g id="ytick_6">
     <g id="line2d_12">
      <g>
       <use style="stroke:#000000;stroke-width:0.8;" x="57.6" xlink:href="#mfd91666d38" y="134.208"/>
      </g>
     </g>
     <g id="text_13">
      <!-- 1.0 -->
      <g transform="translate(34.696875 138.007219)scale(0.1 -0.1)">
       <use xlink:href="#DejaVuSerif-49"/>
       <use x="63.623047" xlink:href="#DejaVuSerif-46"/>
       <use x="95.410156" xlink:href="#DejaVuSerif-48"/>
      </g>
     </g>
    </g>
    <g id="ytick_7">
     <g id="line2d_13">
      <g>
       <use style="stroke:#000000;stroke-width:0.8;" x="57.6" xlink:href="#mfd91666d38" y="101.952"/>
      </g>
     </g>
     <g id="text_14">
      <!-- 1.2 -->
      <g transform="translate(34.696875 105.751219)scale(0.1 -0.1)">
       <use xlink:href="#DejaVuSerif-49"/>
       <use x="63.623047" xlink:href="#DejaVuSerif-46"/>
       <use x="95.410156" xlink:href="#DejaVuSerif-50"/>
      </g>
     </g>
    </g>
    <g id="ytick_8">
     <g id="line2d_14">
      <g>
       <use style="stroke:#000000;stroke-width:0.8;" x="57.6" xlink:href="#mfd91666d38" y="69.696"/>
      </g>
     </g>
     <g id="text_15">
      <!-- 1.4 -->
      <g transform="translate(34.696875 73.495219)scale(0.1 -0.1)">
       <use xlink:href="#DejaVuSerif-49"/>
       <use x="63.623047" xlink:href="#DejaVuSerif-46"/>
       <use x="95.410156" xlink:href="#DejaVuSerif-52"/>
      </g>
     </g>
    </g>
    <g id="text_16">
     <!-- Speed -->
     <g transform="translate(28.617187 190.273313)rotate(-90)scale(0.1 -0.1)">
      <defs>
       <path d="M 9.28125 3.515625 
L 9.28125 20.125 
L 14.890625 20.0625 
Q 15.140625 11.765625 19.703125 7.78125 
Q 24.265625 3.8125 33.59375 3.8125 
Q 42.28125 3.8125 46.84375 7.25 
Q 51.421875 10.6875 51.421875 17.28125 
Q 51.421875 22.5625 48.65625 25.390625 
Q 45.90625 28.21875 37.015625 30.90625 
L 27.390625 33.796875 
Q 16.9375 36.96875 12.671875 41.703125 
Q 8.40625 46.4375 8.40625 54.6875 
Q 8.40625 63.96875 14.984375 69.09375 
Q 21.578125 74.21875 33.5 74.21875 
Q 38.578125 74.21875 44.625 73.109375 
Q 50.6875 72.015625 57.515625 69.921875 
L 57.515625 54.390625 
L 52 54.390625 
Q 51.171875 62.109375 46.84375 65.546875 
Q 42.53125 69 33.6875 69 
Q 25.984375 69 21.953125 65.84375 
Q 17.921875 62.703125 17.921875 56.6875 
Q 17.921875 51.46875 20.9375 48.484375 
Q 23.96875 45.515625 33.796875 42.578125 
L 42.828125 39.890625 
Q 52.734375 36.921875 56.953125 32.296875 
Q 61.1875 27.6875 61.1875 19.921875 
Q 61.1875 9.328125 54.390625 3.953125 
Q 47.609375 -1.421875 34.1875 -1.421875 
Q 28.171875 -1.421875 21.9375 -0.1875 
Q 15.71875 1.03125 9.28125 3.515625 
z
" id="DejaVuSerif-83"/>
       <path d="M 20.515625 28.515625 
L 20.515625 23.390625 
Q 20.515625 14.015625 24.09375 9.109375 
Q 27.6875 4.203125 34.515625 4.203125 
Q 41.40625 4.203125 44.9375 9.71875 
Q 48.484375 15.234375 48.484375 25.984375 
Q 48.484375 36.765625 44.9375 42.234375 
Q 41.40625 47.703125 34.515625 47.703125 
Q 27.6875 47.703125 24.09375 42.765625 
Q 20.515625 37.84375 20.515625 28.515625 
z
M 11.53125 46.6875 
L 2.875 46.6875 
L 2.875 51.90625 
L 20.515625 51.90625 
L 20.515625 43.796875 
Q 23.140625 48.6875 27.21875 51 
Q 31.296875 53.328125 37.3125 53.328125 
Q 46.875 53.328125 52.921875 45.75 
Q 58.984375 38.1875 58.984375 25.984375 
Q 58.984375 13.765625 52.921875 6.171875 
Q 46.875 -1.421875 37.3125 -1.421875 
Q 31.296875 -1.421875 27.21875 0.890625 
Q 23.140625 3.21875 20.515625 8.109375 
L 20.515625 -15.578125 
L 29 -15.578125 
L 29 -20.796875 
L 2.875 -20.796875 
L 2.875 -15.578125 
L 11.53125 -15.578125 
z
" id="DejaVuSerif-112"/>
       <path d="M 52.484375 5.171875 
L 61.078125 5.171875 
L 61.078125 0 
L 43.5 0 
L 43.5 8.109375 
Q 40.875 3.21875 36.796875 0.890625 
Q 32.71875 -1.421875 26.703125 -1.421875 
Q 17.140625 -1.421875 11.0625 6.171875 
Q 4.984375 13.765625 4.984375 25.984375 
Q 4.984375 38.1875 11.03125 45.75 
Q 17.09375 53.328125 26.703125 53.328125 
Q 32.71875 53.328125 36.796875 51 
Q 40.875 48.6875 43.5 43.796875 
L 43.5 70.796875 
L 35.015625 70.796875 
L 35.015625 75.984375 
L 52.484375 75.984375 
z
M 43.5 23.390625 
L 43.5 28.515625 
Q 43.5 37.84375 39.90625 42.765625 
Q 36.328125 47.703125 29.5 47.703125 
Q 22.5625 47.703125 19.015625 42.234375 
Q 15.484375 36.765625 15.484375 25.984375 
Q 15.484375 15.234375 19.015625 9.71875 
Q 22.5625 4.203125 29.5 4.203125 
Q 36.328125 4.203125 39.90625 9.109375 
Q 43.5 14.015625 43.5 23.390625 
z
" id="DejaVuSerif-100"/>
      </defs>
      <use xlink:href="#DejaVuSerif-83"/>
      <use x="68.505859" xlink:href="#DejaVuSerif-112"/>
      <use x="132.519531" xlink:href="#DejaVuSerif-101"/>
      <use x="191.699219" xlink:href="#DejaVuSerif-101"/>
      <use x="250.878906" xlink:href="#DejaVuSerif-100"/>
     </g>
    </g>
   </g>
   <g id="line2d_15">
    <path clip-path="url(#pb6122c391a)" d="M 73.832727 295.488 
L 73.995625 295.488 
L 74.05101 53.568 
L 74.103137 101.952 
L 74.266034 101.952 
L 74.428932 295.488 
L 74.539702 295.488 
L 74.591829 134.208 
L 74.647214 157.248 
L 74.865497 157.248 
L 74.973009 174.528 
L 75.080521 295.488 
L 75.135907 174.528 
L 75.191292 187.968 
L 75.406316 187.968 
L 75.569214 198.72 
L 75.624599 101.952 
L 75.679984 198.72 
L 75.842881 207.517091 
L 75.950394 207.517091 
L 76.057906 214.848 
L 76.220803 134.208 
L 76.276188 146.614154 
L 76.439086 221.051077 
L 76.494471 221.051077 
L 76.657368 157.248 
L 76.764881 157.248 
L 76.872393 166.464 
L 76.927778 230.976 
L 76.983163 166.464 
L 77.03529 166.464 
L 77.198188 174.528 
L 77.308958 174.528 
L 77.361085 181.643294 
L 77.41647 124.720941 
L 77.471855 181.643294 
L 77.579368 181.643294 
L 77.742265 187.968 
L 77.849777 134.208 
L 77.960548 142.696421 
L 78.123445 193.626947 
L 78.175572 198.72 
L 78.33847 150.336 
L 78.393855 150.336 
L 78.501367 157.248 
L 78.556752 203.328 
L 78.612137 157.248 
L 78.664265 157.248 
L 78.827162 163.531636 
L 78.937932 163.531636 
L 79.10083 169.26887 
L 79.208342 169.26887 
L 79.371239 174.528 
L 79.478752 134.208 
L 79.534137 140.6592 
L 79.697034 179.3664 
L 79.752419 179.3664 
L 79.915317 146.614154 
L 79.967444 146.614154 
L 80.130341 187.968 
L 80.293239 152.128 
L 80.456136 157.248 
L 80.566906 157.248 
L 80.729804 162.014897 
L 80.837316 162.014897 
L 80.944828 166.464 
L 81.000213 134.208 
L 81.055599 166.464 
L 81.107726 166.464 
L 81.270623 170.626065 
L 81.326008 170.626065 
L 81.381393 139.410581 
L 81.433521 144.288 
L 81.488906 144.288 
L 81.651803 174.528 
L 81.707188 178.193455 
L 81.870086 148.869818 
L 81.922213 148.869818 
L 81.977598 153.182118 
L 82.08511 181.643294 
L 82.19588 153.182118 
L 82.358778 157.248 
L 82.410905 157.248 
L 82.46629 184.896 
L 82.521675 161.088 
L 82.7367 161.088 
L 82.84747 164.720432 
L 82.954982 138.566919 
L 83.11788 168.161684 
L 83.225392 168.161684 
L 83.280777 142.696421 
L 83.336162 146.614154 
L 83.443675 146.614154 
L 83.606572 174.528 
L 83.76947 150.336 
L 83.824855 150.336 
L 83.932367 153.876293 
L 83.987752 177.478244 
L 84.039879 153.876293 
L 84.095264 153.876293 
L 84.258162 157.248 
L 84.365674 157.248 
L 84.421059 137.958698 
L 84.583957 160.462884 
L 84.639342 160.462884 
L 84.746854 163.531636 
L 84.854366 141.538909 
L 85.017264 166.464 
L 85.128034 166.464 
L 85.180161 144.96 
L 85.235546 148.232348 
L 85.343059 148.232348 
L 85.505956 171.954383 
L 85.668853 151.365447 
L 85.724238 151.365447 
L 85.831751 154.368 
L 85.887136 174.528 
L 85.942521 154.368 
L 85.994648 154.368 
L 86.157546 157.248 
L 86.268316 157.248 
L 86.320443 140.6592 
L 86.48334 160.0128 
L 86.538726 160.0128 
L 86.594111 162.669176 
L 86.757008 143.695059 
L 86.919905 165.223385 
L 86.972033 165.223385 
L 87.082803 146.614154 
L 87.2457 149.423094 
L 87.353213 167.681208 
L 87.51611 152.128 
L 87.623622 152.128 
L 87.78652 154.734545 
L 87.89729 154.734545 
L 88.060187 157.248 
L 88.1677 139.968 
L 88.223085 142.696421 
L 88.385982 159.673263 
L 88.438109 159.673263 
L 88.601007 145.330759 
L 88.656392 145.330759 
L 88.819289 164.277153 
L 88.982187 147.875797 
L 89.145084 150.336 
L 89.252596 150.336 
L 89.415494 152.715541 
L 89.526264 152.715541 
L 89.633776 139.410581 
L 89.796674 155.018323 
L 89.852059 157.248 
L 90.014956 141.888 
L 90.177854 159.408 
L 90.340751 144.288 
L 90.503649 146.614154 
L 90.611161 146.614154 
L 90.774058 148.869818 
L 90.829443 148.869818 
L 90.881571 134.208 
L 90.936956 136.615164 
L 90.992341 136.615164 
L 91.155238 151.058149 
L 91.318136 138.951529 
L 91.425648 138.951529 
L 91.588545 141.220174 
L 91.696058 141.220174 
L 91.806828 143.424 
L 91.858955 129.6 
L 91.91434 143.424 
L 91.969725 143.424 
L 92.132623 145.565746 
L 92.240135 131.936451 
L 92.347647 134.208 
L 92.458418 147.648 
L 92.510545 134.208 
L 92.56593 136.417315 
L 92.728827 136.417315 
L 92.784212 123.161425 
L 92.83634 125.490162 
L 92.999237 138.566919 
L 93.054622 138.566919 
L 93.21752 127.7568 
L 93.380417 142.696421 
L 93.543314 129.963789 
L 93.598699 129.963789 
L 93.650827 132.113455 
L 93.706212 119.546182 
L 93.761597 132.113455 
L 93.869109 132.113455 
L 93.924494 134.208 
L 94.087392 121.801846 
L 94.250289 136.249519 
L 94.413187 124.000405 
L 94.576084 126.144 
L 94.683596 126.144 
L 94.846494 128.234667 
L 94.901879 116.288 
L 94.954006 128.234667 
L 95.116903 130.274341 
L 95.227674 118.473366 
L 95.335186 120.606072 
L 95.390571 132.264867 
L 95.442698 120.606072 
L 95.498083 120.606072 
L 95.660981 122.688 
L 95.768493 122.688 
L 95.93139 124.720941 
L 95.986776 124.720941 
L 96.042161 113.336471 
L 96.094288 115.454512 
L 96.149673 115.454512 
L 96.257185 126.706605 
L 96.31257 115.454512 
L 96.367955 117.523862 
L 96.58298 117.523862 
L 96.745877 119.546182 
L 96.856648 119.546182 
L 96.96416 110.650247 
L 97.127057 121.523056 
L 97.289955 112.704 
L 97.34534 112.704 
L 97.397467 123.456 
L 97.452852 114.712615 
L 97.671135 114.712615 
L 97.723262 106.159304 
L 97.886159 116.677565 
L 97.941544 116.677565 
L 98.104442 108.195097 
L 98.211954 118.600258 
L 98.374852 110.187574 
L 98.485622 110.187574 
L 98.648519 112.138105 
L 98.756032 112.138105 
L 98.811417 114.048 
L 98.863544 103.968 
L 98.918929 114.048 
L 99.026441 114.048 
L 99.081826 115.918515 
L 99.189339 105.942433 
L 99.352236 117.750857 
L 99.515134 107.876571 
L 99.570519 107.876571 
L 99.733416 109.771636 
L 99.840928 109.771636 
L 99.896313 111.6288 
L 99.951699 101.952 
L 100.003826 111.6288 
L 100.114596 111.6288 
L 100.166723 113.449188 
L 100.329621 103.868198 
L 100.440391 115.233882 
L 100.603288 105.746824 
L 100.655415 105.746824 
L 100.710801 107.588971 
L 100.766186 116.983922 
L 100.818313 107.588971 
L 100.929083 107.588971 
L 101.09198 109.395692 
L 101.199493 109.395692 
L 101.307005 111.168 
L 101.417775 101.952 
L 101.580673 112.906868 
L 101.74357 103.777811 
L 101.795697 105.569495 
L 101.851082 114.613234 
L 101.906468 105.569495 
L 102.01398 105.569495 
L 102.176877 107.328 
L 102.28439 107.328 
L 102.39516 109.054239 
L 102.447287 100.17644 
L 102.502672 109.054239 
L 102.558057 109.054239 
L 102.720955 110.749091 
L 102.828467 101.952 
L 102.883852 103.695568 
L 102.991364 112.413405 
L 103.098877 103.695568 
L 103.209647 105.408 
L 103.261774 114.048 
L 103.317159 105.408 
L 103.372544 105.408 
L 103.535442 107.090124 
L 103.642954 107.090124 
L 103.805851 108.742737 
L 103.861237 100.254316 
L 103.913364 108.742737 
L 104.076261 110.366609 
L 104.187031 101.952 
L 104.239159 103.620414 
L 104.349929 111.962483 
L 104.457441 103.620414 
L 104.564953 105.260308 
L 104.620338 113.531077 
L 104.675724 105.260308 
L 104.727851 105.260308 
L 104.890748 106.872407 
L 105.001518 106.872407 
L 105.164416 108.457412 
L 105.216543 108.457412 
L 105.271928 100.325647 
L 105.327313 101.952 
L 105.490211 110.016 
L 105.542338 101.952 
L 105.597723 103.551471 
L 105.653108 103.551471 
L 105.76062 111.548826 
L 105.816005 103.551471 
L 105.868133 105.124721 
L 105.978903 105.124721 
L 106.03103 113.056525 
L 106.086415 105.124721 
L 106.249313 106.67239 
L 106.356825 106.67239 
L 106.519722 108.195097 
L 106.575107 108.195097 
L 106.630493 100.391226 
L 106.68262 101.952 
L 106.845517 109.69344 
L 106.900902 101.952 
L 106.956287 103.488 
L 107.008415 103.488 
L 107.171312 111.168 
L 107.334209 104.999811 
L 107.44498 112.619339 
L 107.607877 106.488 
L 107.715389 106.488 
L 107.770774 100.451721 
L 107.933672 107.953116 
L 107.985799 107.953116 
L 108.096569 101.952 
L 108.259467 109.395692 
L 108.422364 103.429374 
L 108.529876 110.816244 
L 108.692774 104.884364 
L 108.748159 104.884364 
L 108.800286 112.215273 
L 108.855671 106.317474 
L 109.073954 106.317474 
L 109.236851 107.729194 
L 109.344363 107.729194 
L 109.399749 109.12 
L 109.451876 101.952 
L 109.507261 109.12 
L 109.614773 109.12 
L 109.670158 110.490353 
L 109.777671 103.375059 
L 109.940568 111.840701 
L 110.103465 104.777343 
L 110.158851 104.777343 
L 110.321748 106.159304 
L 110.42926 106.159304 
L 110.484645 107.521381 
L 110.54003 100.559655 
L 110.592158 107.521381 
L 110.702928 107.521381 
L 110.755055 108.864 
L 110.865825 101.952 
L 111.028723 110.187574 
L 111.19162 103.324596 
L 111.299132 111.492507 
L 111.46203 104.677859 
L 111.517415 104.677859 
L 111.680312 106.012196 
L 111.787825 106.012196 
L 111.950722 107.328 
L 112.058234 107.328 
L 112.113619 108.625655 
L 112.221132 101.952 
L 112.384029 109.905534 
L 112.546927 103.277589 
L 112.657697 111.168 
L 112.820594 104.585143 
L 112.872721 104.585143 
L 112.983492 99.336649 
L 113.146389 105.875027 
L 113.309287 100.653101 
L 113.416799 100.653101 
L 113.579696 101.952 
L 113.635081 95.5008 
L 113.687209 101.952 
L 113.797979 103.233695 
L 113.960876 90.416742 
L 114.013003 91.765895 
L 114.068388 98.132211 
L 114.123774 91.765895 
L 114.231286 91.765895 
L 114.286671 93.097412 
L 114.338798 86.772706 
L 114.394183 93.097412 
L 114.501696 93.097412 
L 114.938261 101.952 
L 114.990388 101.952 
L 115.045773 108.195097 
L 115.101158 103.192615 
L 115.264055 103.192615 
L 115.316183 96.989538 
L 115.371568 98.25386 
L 115.534465 104.417427 
L 115.58985 104.417427 
L 116.023157 112.906868 
L 116.078543 112.906868 
L 116.24144 120.096 
L 116.348952 120.096 
L 116.404337 114.048 
L 116.456465 115.174957 
L 116.567235 121.185391 
L 116.674747 115.174957 
L 116.782259 116.288 
L 116.945157 122.261333 
L 117.108054 123.324074 
L 117.270952 130.274341 
L 117.433849 130.274341 
L 117.596746 137.140364 
L 117.652132 137.140364 
L 117.759644 131.275636 
L 117.815029 132.264867 
L 117.870414 138.094265 
L 117.922541 132.264867 
L 118.033311 132.264867 
L 118.196209 133.242251 
L 118.359106 139.968 
L 118.522004 139.968 
L 118.684901 146.614154 
L 118.847799 146.614154 
L 118.899926 147.489882 
L 119.010696 153.182118 
L 119.118208 147.489882 
L 119.281106 148.355368 
L 119.388618 148.355368 
L 119.551515 149.210791 
L 119.714413 155.64985 
L 119.87731 155.64985 
L 120.040208 162.014897 
L 120.203105 162.014897 
L 120.25849 162.7776 
L 120.313875 168.3072 
L 120.366002 162.7776 
L 120.476773 162.7776 
L 120.5289 163.531636 
L 120.584285 158.033455 
L 120.63967 163.531636 
L 120.747182 163.531636 
L 120.91008 164.277153 
L 121.072977 170.450697 
L 121.235875 170.450697 
L 121.398772 176.555263 
L 121.561669 176.555263 
L 121.669182 177.216 
L 121.724567 182.592 
L 121.779952 177.216 
L 121.832079 177.216 
L 121.994977 177.869436 
L 122.105747 177.869436 
L 122.268644 178.515692 
L 122.431542 184.442754 
L 122.594439 184.442754 
L 122.757336 190.305391 
L 122.864849 190.305391 
L 123.027746 196.104649 
L 123.083131 196.104649 
L 123.190644 190.873946 
L 123.246029 191.436387 
L 123.298156 196.638968 
L 123.353541 191.436387 
L 123.408926 191.436387 
L 123.571824 197.167572 
L 123.734721 197.167572 
L 123.786848 197.690553 
L 123.949746 202.837787 
L 124.005131 202.837787 
L 124.060516 203.328 
L 124.27554 213.568 
L 124.386311 213.999158 
L 124.493823 219.092211 
L 124.549208 213.999158 
L 124.601335 214.425801 
L 124.65672 214.425801 
L 124.712105 219.492188 
L 124.764233 214.425801 
L 124.819618 214.425801 
L 124.982515 214.848 
L 125.090027 214.848 
L 125.252925 215.265824 
L 125.363695 215.265824 
L 125.526593 215.67934 
L 125.57872 215.67934 
L 125.741617 221.051077 
L 125.852387 221.051077 
L 125.904515 226.013538 
L 125.9599 221.430857 
L 126.122797 221.430857 
L 126.178182 216.493714 
L 126.230309 216.894701 
L 126.448592 216.894701 
L 126.611489 217.291636 
L 126.719002 217.291636 
L 126.881899 217.684583 
L 126.992669 217.684583 
L 127.155567 218.0736 
L 127.207694 218.0736 
L 127.318464 223.273075 
L 127.481361 218.458746 
L 127.533489 223.273075 
L 127.588874 218.840079 
L 127.807156 218.840079 
L 127.970054 219.217655 
L 128.077566 219.217655 
L 128.240463 219.591529 
L 128.347976 219.591529 
L 128.510873 219.961756 
L 128.621643 219.961756 
L 128.784541 220.328388 
L 128.836668 215.630913 
L 128.892053 220.328388 
L 128.999565 220.691478 
L 129.110336 216.016696 
L 129.273233 221.051077 
L 129.43613 221.051077 
L 129.599028 221.407234 
L 129.70654 221.407234 
L 129.869438 221.76 
L 129.97695 221.76 
L 130.139847 222.109422 
L 130.250618 222.109422 
L 130.413515 217.891019 
L 130.465642 217.891019 
L 130.521027 213.326491 
L 130.576412 213.712225 
L 130.73931 218.255324 
L 130.791437 218.255324 
L 130.846822 218.616224 
L 131.009719 223.138093 
L 131.065105 223.138093 
L 131.228002 223.474605 
L 131.335514 223.474605 
L 131.498412 223.808 
L 131.605924 223.808 
L 131.768821 224.138323 
L 131.879592 219.678968 
L 131.987104 220.026716 
L 132.150001 215.587817 
L 132.205386 215.952658 
L 132.368284 220.371288 
L 132.420411 220.371288 
L 132.475796 220.712727 
L 132.638694 225.111273 
L 132.694079 225.111273 
L 132.856976 225.429719 
L 132.964488 225.429719 
L 133.127386 225.745297 
L 133.234898 225.745297 
L 133.290283 226.058045 
L 133.453181 221.718673 
L 133.508566 221.718673 
L 133.671463 217.728 
L 133.778976 217.728 
L 133.941873 218.0736 
L 134.10477 222.697912 
L 134.212283 222.697912 
L 134.37518 227.28148 
L 134.593463 227.28148 
L 134.75636 227.580632 
L 134.811745 227.580632 
L 134.863872 223.336421 
L 134.919257 223.651493 
L 135.02677 223.651493 
L 135.13754 219.425817 
L 135.300437 219.756522 
L 135.40795 219.756522 
L 135.570847 220.084364 
L 135.626232 220.084364 
L 135.78913 224.580414 
L 135.896642 224.580414 
L 136.059539 229.037871 
L 136.222437 229.037871 
L 136.329949 229.321846 
L 136.492846 225.186462 
L 136.548232 225.485617 
L 136.711129 221.36783 
L 136.766514 221.36783 
L 136.929411 221.681898 
L 137.036924 221.681898 
L 137.199821 221.993316 
L 137.307333 221.993316 
L 137.418104 222.302118 
L 137.581001 226.368 
L 137.688513 226.657205 
L 137.851411 230.706075 
L 137.906796 230.976 
L 138.069693 226.944 
L 138.121821 226.944 
L 138.284718 223.213145 
L 138.395488 223.213145 
L 138.558386 223.511802 
L 138.665898 223.511802 
L 138.828795 223.808 
L 138.936308 223.808 
L 139.099205 224.10177 
L 139.15459 224.10177 
L 139.317488 228.342857 
L 139.425 228.342857 
L 139.480385 232.292571 
L 139.53577 228.615805 
L 139.750795 228.615805 
L 139.913692 224.96881 
L 140.024462 224.96881 
L 140.18736 225.253161 
L 140.294872 225.253161 
L 140.457769 225.535229 
L 140.565282 225.535229 
L 140.728179 225.81504 
L 140.838949 225.81504 
L 140.946462 226.092622 
L 141.053974 229.94792 
L 141.109359 226.092622 
L 141.164744 226.368 
L 141.216871 226.368 
L 141.379769 230.208 
L 141.542666 226.641202 
L 141.653436 226.641202 
L 141.816334 226.912252 
L 141.923846 226.912252 
L 142.086744 227.181176 
L 142.194256 227.181176 
L 142.357153 227.448 
L 142.467924 227.448 
L 142.630821 227.712747 
L 142.682948 227.712747 
L 142.738333 223.947455 
L 142.793718 224.224744 
L 142.956616 227.975442 
L 143.008743 227.975442 
L 143.17164 228.236108 
L 143.282411 228.236108 
L 143.445308 228.494769 
L 143.55282 228.494769 
L 143.715718 228.751448 
L 143.82323 228.751448 
L 143.986127 229.006168 
L 144.096898 229.006168 
L 144.259795 229.258951 
L 144.311922 229.258951 
L 144.367307 225.579559 
L 144.422693 225.844364 
L 144.58559 225.844364 
L 144.748487 229.758792 
L 144.800615 229.758792 
L 144.856 226.10717 
L 144.911385 229.758792 
L 145.074282 230.005895 
L 145.181794 230.005895 
L 145.344692 230.251146 
L 145.452204 230.251146 
L 145.615102 230.494567 
L 145.725872 230.494567 
L 145.888769 230.736178 
L 145.996282 230.736178 
L 146.159179 227.392 
L 146.266691 227.392 
L 146.429589 227.643277 
L 146.540359 227.643277 
L 146.703256 227.892706 
L 146.755383 227.892706 
L 146.918281 231.684923 
L 147.081178 231.684923 
L 147.244076 231.917781 
L 147.354846 231.917781 
L 147.517743 232.148945 
L 147.625256 232.148945 
L 147.788153 228.872348 
L 147.895665 228.872348 
L 148.058563 229.112838 
L 148.169333 229.112838 
L 148.22146 229.351597 
L 148.384358 225.870734 
L 148.547255 229.588645 
L 148.658025 229.588645 
L 148.820923 233.28 
L 148.98382 233.28 
L 149.146718 233.501381 
L 149.25423 233.501381 
L 149.309615 233.721191 
L 149.472512 230.289702 
L 149.52464 230.289702 
L 149.687537 230.520085 
L 149.798307 230.520085 
L 149.961205 230.748845 
L 150.068717 227.341521 
L 150.231614 227.580632 
L 150.286999 224.185263 
L 150.339127 227.580632 
L 150.502024 227.81807 
L 150.557409 227.81807 
L 150.720307 231.425561 
L 150.883204 231.425561 
L 151.046101 231.648 
L 151.153614 231.648 
L 151.316511 231.8689 
L 151.427281 231.8689 
L 151.590179 232.088276 
L 151.697691 232.088276 
L 151.860588 232.306144 
L 151.968101 228.980784 
L 152.130998 229.208548 
L 152.186383 229.208548 
L 152.349281 232.73742 
L 152.456793 232.73742 
L 152.61969 236.242286 
L 152.782588 232.950857 
L 152.837973 233.162847 
L 153.00087 229.882576 
L 153.056255 229.882576 
L 153.219153 230.104216 
L 153.326665 230.104216 
L 153.489563 230.324364 
L 153.597075 230.324364 
L 153.759972 230.543034 
L 153.870743 230.543034 
L 154.03364 230.760241 
L 154.141152 230.760241 
L 154.196537 230.976 
L 154.359435 234.2016 
L 154.411562 234.2016 
L 154.574459 234.405209 
L 154.68523 234.405209 
L 154.848127 234.60747 
L 154.955639 234.60747 
L 155.118537 234.808396 
L 155.226049 234.808396 
L 155.281434 235.008 
L 155.444332 231.824842 
L 155.499717 231.824842 
L 155.662614 228.860852 
L 155.770126 228.860852 
L 155.933024 229.078588 
L 156.040536 229.078588 
L 156.151306 229.294906 
L 156.314204 232.446958 
L 156.477101 232.651636 
L 156.639999 235.986641 
L 156.855023 235.986641 
L 157.017921 236.178581 
L 157.073306 236.178581 
L 157.128691 233.057032 
L 157.236203 233.257775 
L 157.3991 233.257775 
L 157.561998 233.457231 
L 157.66951 233.457231 
L 157.832408 233.655412 
L 157.943178 233.655412 
L 157.995305 233.852331 
L 158.106075 230.770548 
L 158.268973 234.048 
L 158.483997 234.048 
L 158.539382 234.24243 
L 158.70228 237.304709 
L 158.757665 237.304709 
L 158.865177 237.488252 
L 159.028075 234.435634 
L 159.190972 234.627623 
L 159.298484 234.627623 
L 159.461382 234.818408 
L 159.572152 234.818408 
L 159.735049 235.008 
L 159.787177 235.008 
L 159.842562 231.984 
L 159.897947 232.181832 
L 160.112971 232.181832 
L 160.168357 232.378435 
L 160.331254 235.383652 
L 160.386639 235.383652 
L 160.549536 235.569734 
L 160.601664 235.569734 
L 160.712434 238.741333 
L 160.875331 235.754667 
L 160.927458 235.754667 
L 161.090356 235.938462 
L 161.201126 235.938462 
L 161.364024 236.121129 
L 161.471536 236.121129 
L 161.634433 236.302679 
L 161.741946 233.343413 
L 161.797331 233.532878 
L 162.015613 233.532878 
L 162.178511 233.721191 
L 162.341408 236.840727 
L 162.556433 236.840727 
L 162.71933 234.094405 
L 162.774715 234.094405 
L 162.937613 237.194024 
L 163.10051 237.194024 
L 163.263407 237.369081 
L 163.37092 237.369081 
L 163.48169 237.54309 
L 163.644587 234.645844 
L 163.807485 234.827463 
L 163.914997 234.827463 
L 164.077894 235.008 
L 164.185407 235.008 
L 164.296177 235.187466 
L 164.459074 238.05892 
L 164.621972 235.36587 
L 164.729484 235.36587 
L 164.892382 235.543221 
L 165.055279 238.565647 
L 165.273561 238.565647 
L 165.381074 238.732575 
L 165.543971 235.894804 
L 165.706869 236.069053 
L 165.814381 236.069053 
L 165.977278 236.242286 
L 166.088049 236.242286 
L 166.250946 236.414512 
L 166.303073 236.414512 
L 166.358458 239.227535 
L 166.413843 236.585739 
L 166.628868 236.585739 
L 166.791765 236.755977 
L 166.902536 236.755977 
L 167.065433 236.925233 
L 167.22833 239.874207 
L 167.280458 239.874207 
L 167.443355 237.093517 
L 167.606252 237.260837 
L 167.717023 237.260837 
L 167.87992 237.4272 
L 167.987432 237.4272 
L 168.15033 237.592615 
L 168.257842 237.592615 
L 168.420739 235.008 
L 168.583637 237.920635 
L 168.801919 237.920635 
L 168.964817 238.083254 
L 169.072329 238.083254 
L 169.235227 238.244958 
L 169.345997 238.244958 
L 169.508894 238.405753 
L 169.561021 238.405753 
L 169.723919 241.276235 
L 169.886816 241.276235 
L 170.049714 241.427665 
L 170.160484 241.427665 
L 170.212611 241.578251 
L 170.375508 238.882763 
L 170.430894 238.882763 
L 170.593791 239.04 
L 170.701303 239.04 
L 170.864201 239.196366 
L 170.974971 239.196366 
L 171.137868 239.351867 
L 171.245381 236.678718 
L 171.408278 236.840727 
L 171.51579 236.840727 
L 171.626561 237.001846 
L 171.789458 239.660308 
L 171.952355 239.81326 
L 172.059868 239.81326 
L 172.115253 239.965377 
L 172.27815 237.321443 
L 172.330277 237.321443 
L 172.493175 237.479935 
L 172.54856 237.479935 
L 172.711457 240.26713 
L 172.81897 240.26713 
L 172.981867 243.03922 
L 173.092637 243.03922 
L 173.144764 240.41678 
L 173.20015 240.565622 
L 173.418432 240.565622 
L 173.58133 240.71366 
L 173.688842 240.71366 
L 173.851739 240.860903 
L 173.959252 240.860903 
L 174.014637 241.007357 
L 174.177534 238.41304 
L 174.232919 238.41304 
L 174.395817 238.565647 
L 174.503329 238.565647 
L 174.666226 238.71744 
L 174.773739 238.71744 
L 174.884509 238.868426 
L 174.992021 241.442043 
L 175.047406 238.868426 
L 175.154919 239.01861 
L 175.317816 239.01861 
L 175.480713 239.168 
L 175.588226 239.168 
L 175.751123 239.316602 
L 175.861893 239.316602 
L 175.914021 239.464421 
L 175.969406 242.010947 
L 176.024791 239.464421 
L 176.132303 239.464421 
L 176.187688 239.611465 
L 176.350586 242.151307 
L 176.402713 242.151307 
L 176.56561 242.290932 
L 176.67638 242.290932 
L 176.839278 242.429828 
L 176.94679 242.429828 
L 177.109688 240.048 
L 177.2172 240.048 
L 177.380097 240.192 
L 177.490867 240.192 
L 177.653765 240.335254 
L 177.761277 240.335254 
L 177.924175 240.477767 
L 178.031687 237.977302 
L 178.087072 238.125526 
L 178.142457 238.125526 
L 178.305355 240.619546 
L 178.468252 240.760596 
L 178.575764 240.760596 
L 178.738662 240.900923 
L 178.846174 240.900923 
L 178.901559 241.040532 
L 179.064457 238.565647 
L 179.119842 238.565647 
L 179.282739 238.710857 
L 179.445636 241.317618 
L 179.660661 241.317618 
L 179.823558 241.455107 
L 179.878944 241.455107 
L 179.934329 238.999066 
L 180.041841 239.142076 
L 180.204738 239.142076 
L 180.367636 239.284364 
L 180.530533 241.863416 
L 180.748816 241.863416 
L 180.856328 241.998151 
L 181.019225 239.566794 
L 181.182123 239.706947 
L 181.289635 239.706947 
L 181.452533 239.8464 
L 181.507918 239.8464 
L 181.670815 242.398324 
L 181.833713 242.398324 
L 181.889098 242.530388 
L 182.051995 240.123224 
L 182.104122 240.123224 
L 182.26702 240.260605 
L 182.37779 240.260605 
L 182.540687 240.397307 
L 182.6482 240.397307 
L 182.703585 240.533333 
L 182.866482 242.922667 
L 182.918609 240.533333 
L 182.973994 240.66869 
L 183.192277 240.66869 
L 183.355174 240.803381 
L 183.462687 240.803381 
L 183.625584 240.937412 
L 183.733096 240.937412 
L 183.895994 241.070787 
L 184.006764 241.070787 
L 184.169661 241.203512 
L 184.277174 241.203512 
L 184.440071 241.335591 
L 184.547583 241.335591 
L 184.710481 241.467029 
L 184.821251 241.467029 
L 184.873378 241.597831 
L 184.984149 239.25478 
L 185.147046 241.728 
L 185.362071 241.728 
L 185.524968 241.857542 
L 185.635738 241.857542 
L 185.798636 241.986462 
L 185.850763 241.986462 
L 185.906148 239.660308 
L 186.01366 239.794187 
L 186.12443 239.794187 
L 186.287328 242.24245 
L 186.450225 242.24245 
L 186.613123 242.369527 
L 186.720635 242.369527 
L 186.883532 242.496 
L 186.991045 240.192 
L 187.04643 240.323344 
L 187.264712 240.323344 
L 187.372225 240.454066 
L 187.535122 242.747147 
L 187.698019 242.87183 
L 187.805532 242.87183 
L 187.916302 242.995925 
L 188.079199 240.71366 
L 188.242097 240.842541 
L 188.349609 240.842541 
L 188.512507 240.970817 
L 188.675404 243.364721 
L 188.893686 243.364721 
L 189.056584 241.22557 
L 189.164096 241.22557 
L 189.326994 241.352056 
L 189.434506 241.352056 
L 189.597403 241.477953 
L 189.708174 241.477953 
L 189.760301 241.603267 
L 189.923198 243.848464 
L 189.978583 241.603267 
L 190.086096 241.728 
L 190.248993 241.728 
L 190.41189 241.852157 
L 190.522661 241.852157 
L 190.685558 241.975742 
L 190.79307 241.975742 
L 190.900583 242.098759 
L 190.955968 244.32331 
L 191.011353 242.098759 
L 191.06348 242.098759 
L 191.226377 242.221211 
L 191.337148 242.221211 
L 191.500045 242.343103 
L 191.607557 242.343103 
L 191.770455 242.464438 
L 191.877967 242.464438 
L 191.988737 242.585221 
L 192.09625 240.380938 
L 192.259147 242.705455 
L 192.422044 242.705455 
L 192.584942 242.825143 
L 192.692454 242.825143 
L 192.855352 242.94429 
L 192.966122 242.94429 
L 193.018249 243.062898 
L 193.181146 240.878519 
L 193.236531 240.878519 
L 193.344044 241.001514 
L 193.506941 243.180973 
L 193.669839 243.298517 
L 193.780609 243.298517 
L 193.943506 243.415534 
L 194.051019 243.415534 
L 194.213916 241.367195 
L 194.321428 241.367195 
L 194.484326 241.488 
L 194.539711 241.488 
L 194.702608 243.763457 
L 194.865506 243.763457 
L 195.028403 243.8784 
L 195.083788 243.8784 
L 195.135915 241.728 
L 195.1913 241.847202 
L 195.409583 241.847202 
L 195.57248 241.965876 
L 195.679993 241.965876 
L 195.735378 242.084026 
L 195.898275 244.220185 
L 195.950402 244.220185 
L 196.1133 244.33311 
L 196.22407 242.201656 
L 196.276197 242.318769 
L 196.49448 242.318769 
L 196.657377 242.435368 
L 196.764889 242.435368 
L 196.927787 242.551457 
L 197.090684 244.779878 
L 197.146069 244.779878 
L 197.308967 242.667039 
L 197.471864 242.782118 
L 197.579377 242.782118 
L 197.742274 242.896696 
L 197.853044 242.896696 
L 198.015942 243.010777 
L 198.123454 243.010777 
L 198.286351 243.124364 
L 198.393864 243.124364 
L 198.556761 243.23746 
L 198.667531 243.23746 
L 198.830429 243.350069 
L 198.937941 243.350069 
L 199.100838 243.462194 
L 199.208351 243.462194 
L 199.263736 243.573837 
L 199.319121 241.49727 
L 199.371248 243.573837 
L 199.482018 243.573837 
L 199.644916 243.685002 
L 200.022838 243.795692 
L 200.185735 243.90591 
L 200.296505 243.90591 
L 200.459403 241.956766 
L 200.51153 241.956766 
L 200.674427 244.124943 
L 201.110992 244.233763 
L 201.27389 244.342123 
L 201.326017 244.342123 
L 201.381402 242.296288 
L 201.488914 242.408506 
L 201.651812 242.408506 
L 201.762582 242.520253 
L 201.92548 244.557474 
L 202.088377 244.664471 
L 202.414172 244.771019 
L 202.466299 242.74234 
L 202.521684 242.852686 
L 202.954991 242.962572 
L 203.117889 245.088 
L 203.443683 245.192782 
L 203.554454 243.180973 
L 203.606581 243.289494 
L 204.095273 243.397565 
L 204.206043 243.50519 
L 204.368941 245.504529 
L 204.531838 245.607588 
L 204.63935 243.612371 
L 204.802248 243.719111 
L 205.183428 243.825413 
L 205.346325 243.931279 
L 205.398452 243.931279 
L 205.56135 246.015607 
L 205.616735 246.015607 
L 205.724247 244.036712 
L 205.779632 244.141714 
L 206.268325 244.246289 
L 206.431222 244.350439 
L 206.812402 244.454166 
L 206.975299 244.557474 
L 207.353221 244.660364 
L 207.516119 244.762839 
L 207.734401 244.864901 
L 207.841914 242.917859 
L 208.004811 244.966554 
L 208.441376 245.0678 
L 208.604274 245.16864 
L 208.819298 245.269078 
L 208.982196 243.337581 
L 209.145093 243.441466 
L 209.30799 245.468755 
L 209.796683 245.568 
L 209.907453 245.666851 
L 210.07035 243.750653 
L 210.233248 243.852901 
L 210.396145 243.954746 
L 210.559042 245.863385 
L 210.884837 245.961071 
L 210.99235 246.058373 
L 211.155247 244.157234 
L 211.318144 244.257882 
L 211.588554 244.358137 
L 211.751452 246.348 
L 212.077246 246.443789 
L 212.240144 244.557474 
L 212.403041 244.65656 
L 212.784221 244.755262 
L 212.891733 244.853581 
L 213.054631 246.72893 
L 213.165401 246.823242 
L 213.328298 244.95152 
L 213.491196 245.049081 
L 213.869118 245.146266 
L 214.032015 245.243077 
L 214.0874 245.243077 
L 214.250298 247.196868 
L 214.413195 245.339516 
L 214.576093 245.435586 
L 214.957273 245.531289 
L 215.12017 245.626626 
L 215.335195 245.7216 
L 215.39058 243.8784 
L 215.445965 245.7216 
L 215.77176 245.816213 
L 215.934657 245.910467 
L 216.312579 246.004364 
L 216.423349 246.097905 
L 216.586247 244.268643 
L 216.693759 244.365283 
L 216.856656 246.191094 
L 217.019554 246.283932 
L 217.400734 246.376421 
L 217.508246 246.468563 
L 217.671144 244.653028 
L 217.834041 244.748225 
L 217.889426 244.748225 
L 218.052323 246.651813 
L 218.485631 246.742925 
L 218.593143 246.833698 
L 218.75604 245.031687 
L 218.918938 245.125472 
L 219.192605 245.218909 
L 219.355503 247.104 
L 219.733425 247.193434 
L 219.844195 245.404747 
L 219.896322 245.497151 
L 220.385014 245.589215 
L 220.495785 245.680941 
L 220.658682 247.459765 
L 220.82158 247.54789 
L 220.929092 245.77233 
L 221.091989 245.863385 
L 221.473169 245.954106 
L 221.636067 246.044496 
L 221.798964 246.134557 
L 221.906476 247.89718 
L 222.013989 246.134557 
L 222.069374 246.224291 
L 222.558066 246.313699 
L 222.720963 246.402783 
L 223.102143 246.491544 
L 223.265041 246.579986 
L 223.642963 246.668108 
L 223.80586 246.755914 
L 224.131655 246.843404 
L 224.18704 245.106097 
L 224.294552 245.196387 
L 224.349938 245.196387 
L 224.512835 247.017445 
L 225.001527 247.104 
L 225.164425 247.190246 
L 225.271937 247.190246 
L 225.434834 245.554335 
L 225.653117 245.643027 
L 225.816014 247.361819 
L 225.978912 247.447149 
L 226.360092 247.532177 
L 226.522989 245.907223 
L 226.900911 245.994667 
L 226.956296 246.081803 
L 227.119194 247.785465 
L 227.444988 247.869301 
L 227.500373 247.952842 
L 227.663271 246.255158 
L 227.989066 246.34138 
L 228.151963 246.427301 
L 228.20409 246.427301 
L 228.366988 248.201717 
L 228.58527 248.284098 
L 228.748168 246.598244 
L 229.073963 246.68327 
L 229.23686 246.768 
L 229.50727 246.852437 
L 229.670167 248.610768 
L 229.725552 248.610768 
L 229.88845 246.936581 
L 230.051347 247.020435 
L 230.432527 247.104 
L 230.595424 247.187277 
L 230.810449 247.270268 
L 230.865834 245.607588 
L 230.921219 247.270268 
L 231.247014 247.352974 
L 231.409911 247.435397 
L 231.787833 247.517538 
L 231.950731 247.599399 
L 232.061501 245.948068 
L 232.113628 246.032463 
L 232.169013 246.032463 
L 232.331911 247.680981 
L 232.494808 247.762286 
L 232.875988 247.843314 
L 233.038886 247.924068 
L 233.146398 246.283932 
L 233.309295 246.367188 
L 233.472193 246.450162 
L 233.63509 248.084757 
L 233.960885 248.164695 
L 234.123782 248.244364 
L 234.179167 248.244364 
L 234.231295 246.615273 
L 234.28668 246.697412 
L 234.775372 246.779275 
L 234.830757 246.860864 
L 234.993655 248.481769 
L 235.319449 248.560375 
L 235.482347 247.023225 
L 235.860269 247.104 
L 236.023166 247.184506 
L 236.078551 247.184506 
L 236.241449 248.872186 
L 236.459731 248.949493 
L 236.622629 247.344716 
L 236.948423 247.424424 
L 237.111321 247.503868 
L 237.437116 247.58305 
L 237.544628 249.256171 
L 237.707525 247.66197 
L 238.03332 247.740632 
L 238.196218 247.819034 
L 238.577398 247.89718 
L 238.68491 247.97507 
L 238.792422 246.391306 
L 238.95532 248.052706 
L 239.391885 248.130088 
L 239.554782 248.207218 
L 239.825192 248.284098 
L 239.932704 246.710634 
L 239.988089 246.789818 
L 240.095602 246.789818 
L 240.258499 248.437109 
L 240.747191 248.513243 
L 240.910089 248.589131 
L 240.965474 248.589131 
L 241.020859 247.025835 
L 241.128371 247.104 
L 241.454166 247.181913 
L 241.617063 248.815331 
L 242.105756 248.890247 
L 242.268653 247.414154 
L 242.649833 247.491072 
L 242.81273 247.567744 
L 242.975628 249.187522 
L 243.246037 249.261248 
L 243.408935 247.720357 
L 243.73473 247.796299 
L 243.897627 247.872 
L 244.168037 247.947461 
L 244.330934 249.553823 
L 244.386319 249.553823 
L 244.549217 248.022684 
L 244.712114 248.097668 
L 245.093294 248.172416 
L 245.256192 248.246929 
L 245.634114 248.321208 
L 245.797011 248.395253 
L 246.178191 248.469066 
L 246.341088 248.542648 
L 246.666883 248.616 
L 246.722268 247.104 
L 246.829781 247.179482 
L 246.885166 247.179482 
L 247.048063 248.762019 
L 247.536755 248.834687 
L 247.699653 248.90713 
L 247.807165 248.90713 
L 247.970062 247.47907 
L 248.240472 247.553387 
L 248.40337 249.123116 
L 248.892062 249.194667 
L 248.947447 249.265997 
L 249.110344 247.774965 
L 249.436139 247.848369 
L 249.599037 247.921548 
L 249.761934 249.478675 
L 250.143114 249.549133 
L 250.250626 248.067234 
L 250.413524 248.139743 
L 250.794704 248.212031 
L 250.957601 248.284098 
L 251.120498 249.828822 
L 251.283396 249.828822 
L 251.335523 248.355945 
L 251.390908 248.427574 
L 251.8796 248.498986 
L 252.042498 248.570182 
L 252.312908 248.641162 
L 252.423678 250.105126 
L 252.586575 248.711927 
L 252.964497 248.78248 
L 253.127395 248.852819 
L 253.508575 248.922947 
L 253.56396 248.992865 
L 253.671472 247.539892 
L 253.834369 249.062573 
L 254.323062 249.132072 
L 254.485959 249.201363 
L 254.756369 249.270448 
L 254.867139 247.826149 
L 254.919266 247.89718 
L 255.030036 247.89718 
L 255.192934 249.408 
L 255.681626 249.47647 
L 255.844523 249.544736 
L 255.896651 249.544736 
L 255.952036 248.109009 
L 256.059548 248.1792 
L 256.440728 248.249183 
L 256.603625 249.748325 
L 257.036933 249.815788 
L 257.19983 248.457897 
L 257.58101 248.527059 
L 257.743907 248.596018 
L 257.799292 248.596018 
L 257.96219 250.08366 
L 258.2326 250.150138 
L 258.395497 248.733329 
L 258.558394 248.801684 
L 258.939574 248.869839 
L 259.102472 248.937796 
L 259.154599 248.937796 
L 259.317496 250.414114 
L 259.372881 250.414114 
L 259.480394 249.005555 
L 259.535779 249.073116 
L 260.024471 249.140482 
L 260.187369 249.207652 
L 260.568548 249.274628 
L 260.620676 247.943029 
L 260.676061 249.34141 
L 261.109368 249.408 
L 261.272265 249.474398 
L 261.653445 249.540604 
L 261.70883 249.606621 
L 261.871728 248.216276 
L 261.97924 248.284098 
L 262.142137 249.672448 
L 262.467932 249.738086 
L 262.63083 249.803536 
L 262.901239 249.8688 
L 263.01201 248.4864 
L 263.064137 248.553449 
L 263.389932 248.620308 
L 263.552829 249.998769 
L 263.715726 250.063477 
L 264.041521 250.128 
L 264.096906 248.753455 
L 264.204419 248.819745 
L 264.640984 248.885847 
L 264.748496 248.951762 
L 264.911394 250.320475 
L 265.074291 250.384271 
L 265.237188 250.447887 
L 265.400086 249.083035 
L 265.725881 249.148394 
L 265.888778 249.21357 
L 266.159188 249.278562 
L 266.322085 250.700567 
L 266.37747 250.700567 
L 266.540368 249.343372 
L 266.703265 249.408 
L 267.084445 249.472448 
L 267.247342 249.536715 
L 267.517752 249.600803 
L 267.573137 250.950427 
L 267.625264 249.600803 
L 267.788162 249.664713 
L 268.169342 249.728445 
L 268.332239 249.792 
L 268.713419 249.855379 
L 268.876317 248.578305 
L 268.928444 248.578305 
L 269.091341 249.98161 
L 269.527906 250.044464 
L 269.690804 250.107145 
L 269.905828 250.169653 
L 270.068726 248.83676 
L 270.231623 248.90093 
L 270.287008 248.90093 
L 270.449906 250.294154 
L 270.883213 250.356148 
L 271.04611 250.417973 
L 271.101495 250.417973 
L 271.15688 249.092384 
L 271.264393 249.155852 
L 271.6977 249.219148 
L 271.753085 249.28227 
L 271.915982 250.602434 
L 272.241777 250.663586 
L 272.404675 249.408 
L 272.785854 249.470609 
L 272.948752 249.533047 
L 273.111649 249.595317 
L 273.274547 250.906537 
L 273.437444 250.966863 
L 273.600342 249.657418 
L 273.763239 249.719351 
L 274.141161 249.781117 
L 274.304058 249.842717 
L 274.522341 249.904151 
L 274.629853 251.206546 
L 274.685238 249.904151 
L 274.792751 249.965419 
L 275.229316 250.026523 
L 275.392213 250.087464 
L 275.770135 250.148241 
L 275.82552 250.208856 
L 275.933033 248.915166 
L 276.09593 250.269308 
L 276.584622 250.3296 
L 276.74752 250.389731 
L 276.965802 250.449702 
L 277.1287 249.162894 
L 277.291597 249.224414 
L 277.346982 249.224414 
L 277.509879 250.569167 
L 277.943187 250.628662 
L 278.106084 250.688 
L 278.161469 250.688 
L 278.213596 249.408 
L 278.268981 249.468872 
L 278.702289 249.529583 
L 278.865186 250.865075 
L 279.301751 250.923789 
L 279.353878 250.98235 
L 279.516776 249.71076 
L 279.84257 249.770835 
L 280.005468 249.830752 
L 280.168365 249.890513 
L 280.331263 251.15711 
L 280.549545 251.215059 
L 280.657058 249.950118 
L 280.712443 250.009567 
L 281.201135 250.06886 
L 281.364032 250.128 
L 281.582315 250.186986 
L 281.745212 251.445347 
L 281.90811 250.245818 
L 282.286032 250.304498 
L 282.448929 250.363026 
L 282.830109 250.421402 
L 282.937621 250.479628 
L 282.993006 249.229395 
L 283.048392 250.479628 
L 283.374186 250.537703 
L 283.537084 250.595629 
L 283.915006 250.653405 
L 284.077903 250.711033 
L 284.133288 250.711033 
L 284.188673 249.467229 
L 284.296186 249.526306 
L 284.403698 249.526306 
L 284.566595 250.825846 
L 285.003161 250.883032 
L 285.166058 250.940072 
L 285.328955 250.996966 
L 285.491853 249.761103 
L 285.817648 249.819429 
L 285.869775 249.877605 
L 286.032672 251.110318 
L 286.358467 251.166779 
L 286.469237 251.223095 
L 286.632135 249.993515 
L 286.795032 250.051249 
L 287.172954 250.108837 
L 287.283724 250.166278 
L 287.446622 251.39119 
L 287.609519 251.446938 
L 287.661646 251.446938 
L 287.717031 250.223575 
L 287.824544 250.280727 
L 288.261109 250.337735 
L 288.424006 250.394599 
L 288.694416 250.451321 
L 288.857313 251.723578 
L 289.020211 250.507899 
L 289.346006 250.564336 
L 289.508903 250.620632 
L 289.890083 250.676786 
L 290.05298 250.7328 
L 290.105108 249.5232 
L 290.160493 250.7328 
L 290.32339 250.788674 
L 290.70457 250.844409 
L 290.867467 250.900005 
L 291.245389 250.955463 
L 291.408287 249.808696 
L 291.571184 249.86537 
L 291.734082 251.065965 
L 292.333544 251.175921 
L 292.441056 251.230695 
L 292.603954 250.034551 
L 292.766851 250.090667 
L 292.985134 250.146644 
L 293.148031 251.339837 
L 293.310929 251.394207 
L 293.636723 251.448443 
L 293.688851 250.258185 
L 293.744236 250.313749 
L 294.451211 250.424471 
L 294.614108 251.664059 
L 294.829133 251.717633 
L 294.99203 250.53465 
L 295.591492 250.644293 
L 295.75439 250.698914 
L 295.917287 250.753401 
L 296.0248 251.930628 
L 296.132312 250.753401 
L 296.187697 250.807757 
L 296.946799 250.916073 
L 297.109696 250.970034 
L 297.220467 250.970034 
L 297.327979 249.853756 
L 297.490876 251.023865 
L 297.653774 251.077565 
L 298.305363 251.184578 
L 298.468261 251.237892 
L 298.575773 250.073415 
L 298.631158 250.128 
L 298.73867 250.128 
L 298.901568 251.344134 
L 299.663928 251.449868 
L 299.826825 250.345033 
L 300.260132 250.452773 
L 300.42303 251.607523 
L 300.856337 251.712 
L 301.019234 250.56 
L 301.182132 250.613422 
L 301.670824 250.719886 
L 301.833721 251.867786 
L 301.996619 251.919469 
L 302.052004 251.919469 
L 302.107389 250.772929 
L 302.214901 250.825846 
L 302.921876 250.931306 
L 303.084773 250.983849 
L 303.247671 252.176057 
L 303.410568 251.036269 
L 304.006773 251.140738 
L 304.16967 251.192789 
L 304.44008 251.244717 
L 304.55085 250.110274 
L 304.602977 250.16341 
L 304.765875 251.296525 
L 305.365337 251.399776 
L 305.528235 251.451221 
L 305.635747 251.451221 
L 305.798644 250.374713 
L 306.016927 250.427232 
L 306.179824 251.553751 
L 306.342722 251.604837 
L 306.831414 251.706654 
L 306.994311 250.584056 
L 307.157209 250.636088 
L 307.483004 250.688 
L 307.645901 251.858497 
L 308.079208 251.908878 
L 308.242106 250.843017 
L 308.893695 250.945768 
L 308.94908 250.996966 
L 309.111978 252.109241 
L 309.274875 252.159045 
L 309.437773 251.048046 
L 309.60067 251.099009 
L 310.25226 251.200586 
L 310.415157 251.2512 
L 310.467284 252.35712 
L 310.522669 251.2512 
L 310.740952 251.301699 
L 311.337156 251.402351 
L 311.555439 251.452505 
L 311.662951 251.502545 
L 311.825849 250.402909 
L 311.988746 251.552472 
L 312.695721 251.651986 
L 312.858618 251.701575 
L 312.966131 250.606914 
L 313.184413 250.657627 
L 313.34731 250.708226 
L 313.510208 251.800415 
L 313.673105 251.849669 
L 314.051027 251.898811 
L 314.213925 250.859339 
L 314.758002 250.959515 
L 314.9209 252.094278 
L 315.302079 252.142871 
L 315.409592 251.059243 
L 315.627874 251.10894 
L 316.224079 251.208 
L 316.279464 251.257365 
L 316.442361 252.336161 
L 316.494489 252.336161 
L 316.657386 251.306619 
L 317.308976 251.4048 
L 317.527258 251.453727 
L 318.123463 251.551256 
L 318.341745 251.599858 
L 318.885823 251.696742 
L 318.93795 250.628662 
L 318.993335 250.678121 
L 319.156232 250.678121 
L 319.31913 251.793198 
L 320.026104 251.889231 
L 320.133617 251.937089 
L 320.296514 250.874872 
L 320.514797 250.923789 
L 320.677694 250.9726 
L 320.840592 252.032491 
L 321.055616 252.080035 
L 321.329284 252.127475 
L 321.381411 251.069902 
L 321.436796 251.118393 
L 322.088386 251.215059 
L 322.251283 252.316205 
L 322.521693 252.36313 
L 322.68459 251.311304 
L 323.284053 251.407132 
L 323.499077 251.454891 
L 323.609848 251.502545 
L 323.71736 252.549818 
L 323.824872 251.502545 
L 323.880257 251.550097 
L 324.639359 251.644893 
L 324.857642 251.692138 
L 324.965154 251.739281 
L 325.075924 250.697645 
L 325.238822 251.786323 
L 325.997924 251.880103 
L 326.160821 251.926842 
L 326.268333 250.889672 
L 326.323718 250.937422 
L 326.594128 250.98507 
L 326.757026 252.020021 
L 327.356488 252.112803 
L 327.519385 251.127403 
L 328.008078 251.221787 
L 328.170975 252.251234 
L 328.386 252.297182 
L 328.604282 252.343032 
L 328.711795 251.315771 
L 328.76718 251.362613 
L 329.474154 251.456 
L 329.637052 252.525463 
L 329.799949 252.525463 
L 329.962847 251.548993 
L 330.614436 251.641593 
L 330.829461 251.687747 
L 331.428923 251.779765 
L 331.643948 251.825629 
L 332.188025 251.917068 
L 332.24341 250.903791 
L 332.350923 250.950427 
L 332.458435 250.950427 
L 332.621332 252.008125 
L 333.328307 252.098803 
L 333.43582 252.144 
L 333.598717 251.136 
L 333.816999 251.182152 
L 333.979897 251.228208 
L 334.142794 252.234112 
L 334.361077 252.279028 
L 334.631487 252.323851 
L 334.686872 251.320033 
L 334.794384 251.365803 
L 335.445974 251.457059 
L 335.608871 252.502215 
L 335.827154 252.546576 
L 335.990051 251.547938 
L 336.586256 251.638443 
L 336.804538 251.683556 
L 336.967435 251.728576 
L 337.074948 252.723108 
L 337.130333 251.728576 
L 337.237845 251.773503 
L 337.94482 251.863082 
L 338.159845 251.907734 
L 338.270615 251.952294 
L 338.433512 250.962847 
L 338.59641 251.996764 
L 339.300126 252.085431 
L 339.463024 252.129629 
L 339.573794 251.144212 
L 339.625921 251.189322 
L 339.899589 251.234341 
L 340.062486 252.217756 
L 340.658691 252.305525 
L 340.714076 252.349277 
L 340.876973 251.368851 
L 341.365666 251.458071 
L 341.528563 252.48 
L 341.906485 252.523399 
L 342.017255 251.54693 
L 342.069382 251.591226 
L 342.831742 251.679549 
L 342.88387 251.723578 
L 343.046767 252.696121 
L 343.102152 252.696121 
L 343.265049 251.767518 
L 343.916639 251.855134 
L 344.134922 251.898811 
L 344.731126 251.985902 
L 344.949409 252.029317 
L 345.545613 252.115888 
L 345.708511 251.196179 
L 345.871408 251.240207 
L 346.034306 252.202115 
L 346.63051 252.288 
L 346.74128 252.330815 
L 346.904178 251.371766 
L 347.119202 251.415446 
L 347.337485 251.459039 
L 347.500382 252.458751 
L 347.989074 252.501228 
L 348.151972 251.589302 
L 348.803562 251.675717 
L 348.858947 251.718796 
L 349.021844 252.670301 
L 349.184742 252.712361 
L 349.347639 251.761792 
L 349.562664 251.804703 
L 350.162126 251.890272 
L 350.325023 251.932932 
L 350.432536 252.879781 
L 350.595433 251.975507 
L 351.247023 252.06041 
L 351.465305 252.102737 
L 351.628203 252.144981 
L 351.7911 251.202742 
L 351.843227 251.245821 
L 352.006125 252.187144 
L 352.605587 252.271223 
L 352.820612 252.313141 
L 352.875997 251.374557 
L 352.983509 251.417302 
L 353.309304 251.459965 
L 353.472201 252.438406 
L 354.071664 252.521514 
L 354.234561 251.587459 
L 354.449586 251.629794 
L 354.886151 251.714218 
L 355.049048 252.645575 
L 355.264073 252.686769 
L 355.319458 251.756308 
L 355.42697 251.798317 
L 356.133945 251.882094 
L 356.352228 251.923862 
L 356.45974 252.89156 
L 356.622637 251.96555 
L 357.218842 252.048688 
L 357.437124 252.090137 
L 357.707534 252.131508 
L 357.762919 251.20903 
L 357.870432 251.2512 
L 358.033329 252.1728 
L 358.251612 252.214013 
L 358.847816 252.296205 
L 358.903201 252.337184 
L 359.066099 251.419082 
L 359.336508 251.460853 
L 359.499406 252.418909 
L 360.150995 252.500325 
L 360.206381 251.585694 
L 360.313893 251.62715 
L 360.85797 251.709828 
L 361.020868 252.621874 
L 361.23915 252.662237 
L 361.346662 252.702525 
L 361.50956 251.792196 
L 362.105764 251.874254 
L 362.324047 251.915167 
L 362.486944 252.86292 
L 362.542329 252.86292 
L 362.649842 251.956004 
L 362.868124 251.996764 
L 363.464329 252.078056 
L 363.682611 252.118588 
L 363.790124 252.159045 
L 363.845509 251.256358 
L 363.897636 252.159045 
L 364.549226 252.239732 
L 364.767508 252.279963 
L 364.985791 252.320119 
L 365.093303 251.420788 
L 365.311585 251.461705 
L 365.474483 252.400208 
L 366.1782 252.48 
L 366.341097 251.624614 
L 366.885174 251.705618 
L 367.048072 252.638701 
L 367.429252 252.678194 
L 367.536764 251.786323 
L 367.755047 251.826564 
L 368.351251 251.906824 
L 368.406636 251.946843 
L 368.569534 252.835438 
L 368.621661 252.835438 
L 368.784558 251.986789 
L 369.436148 252.066462 
L 369.654431 252.106188 
L 370.250635 252.185425 
L 370.468918 252.224934 
L 371.065122 252.303738 
L 371.22802 251.462522 
L 371.390917 251.502545 
L 371.553814 252.382255 
L 372.153277 252.460486 
L 372.260789 252.499496 
L 372.423687 251.62218 
L 372.641969 251.661913 
L 372.856994 251.701575 
L 373.019891 252.616101 
L 373.508583 252.654829 
L 373.671481 251.82013 
L 374.32307 251.898811 
L 374.378456 251.938045 
L 374.541353 252.809044 
L 374.70425 252.847424 
L 374.867148 251.977209 
L 375.08543 252.016302 
L 375.681635 252.094278 
L 375.899917 252.133161 
L 375.952045 253.000258 
L 376.00743 252.171975 
L 376.766532 252.249394 
L 376.984814 252.288 
L 377.147712 252.326537 
L 377.310609 251.463308 
L 377.418121 251.502545 
L 377.581019 252.365005 
L 377.799301 252.403405 
L 378.343379 252.48 
L 378.395506 251.61984 
L 378.450891 251.658799 
L 378.884198 251.697689 
L 379.047095 252.594383 
L 379.591173 252.670301 
L 379.75407 251.813947 
L 379.972353 251.852562 
L 380.40566 251.929589 
L 380.568557 252.783675 
L 380.78684 252.821333 
L 380.838967 251.968 
L 380.894352 252.006344 
L 381.653454 252.082828 
L 381.871737 252.12097 
L 381.979249 252.159045 
L 382.034634 253.008632 
L 382.090019 252.159045 
L 382.741609 252.234994 
L 382.956633 252.272869 
L 383.230301 252.310677 
L 383.282428 251.464063 
L 383.337813 251.502545 
L 383.445326 251.502545 
L 383.608223 252.386096 
L 384.370583 252.461252 
L 384.42271 252.498732 
L 384.585607 251.655805 
L 384.966787 251.732035 
L 385.129685 252.573496 
L 385.673762 252.648 
L 385.725889 251.808 
L 385.781274 251.845884 
L 386.432864 251.921455 
L 386.595762 252.796235 
L 386.866171 252.833134 
L 387.029069 251.996764 
L 387.628531 252.071814 
L 387.843556 252.109241 
L 388.006453 252.146605 
L 388.117223 252.980093 
L 388.169351 252.146605 
L 388.224736 252.183904 
L 388.983838 252.258309 
L 389.20212 252.295416 
L 389.309632 252.33246 
L 389.47253 251.502545 
L 389.635427 252.36944 
L 390.505299 252.48 
L 390.612812 251.652923 
L 390.668197 251.690357 
L 390.993992 251.727727 
L 391.156889 252.553392 
L 391.375172 252.589995 
L 391.753094 252.663013 
L 391.915991 251.839455 
L 392.515454 251.913624 
L 392.567581 251.950615 
L 392.730478 252.772075 
L 392.948761 252.808305 
L 393.056273 251.987542 
L 393.111658 252.024407 
L 394.033657 252.134627 
L 394.196555 252.988541 
L 394.359452 252.171243 
L 395.229324 252.280721 
L 395.392222 252.317091 
L 395.499734 251.502545 
L 395.555119 251.539539 
L 395.718017 252.353399 
L 396.587889 252.46196 
L 396.640016 252.498025 
L 396.802913 251.686894 
L 397.021196 251.723578 
L 397.184093 252.569975 
L 397.835683 252.641684 
L 397.943195 251.833263 
L 397.99858 251.869703 
L 398.487273 251.906082 
L 398.487273 251.906082 
" style="fill:none;stroke:#1f77b4;stroke-linecap:square;stroke-width:1.5;"/>
   </g>
   <g id="patch_3">
    <path d="M 57.6 307.584 
L 57.6 41.472 
" style="fill:none;stroke:#000000;stroke-linecap:square;stroke-linejoin:miter;stroke-width:0.8;"/>
   </g>
   <g id="patch_4">
    <path d="M 414.72 307.584 
L 414.72 41.472 
" style="fill:none;stroke:#000000;stroke-linecap:square;stroke-linejoin:miter;stroke-width:0.8;"/>
   </g>
   <g id="patch_5">
    <path d="M 57.6 307.584 
L 414.72 307.584 
" style="fill:none;stroke:#000000;stroke-linecap:square;stroke-linejoin:miter;stroke-width:0.8;"/>
   </g>
   <g id="patch_6">
    <path d="M 57.6 41.472 
L 414.72 41.472 
" style="fill:none;stroke:#000000;stroke-linecap:square;stroke-linejoin:miter;stroke-width:0.8;"/>
   </g>
   <g id="text_17">
    <!-- Speed function of time -->
    <g transform="translate(167.024063 35.472)scale(0.12 -0.12)">
     <defs>
      <path id="DejaVuSerif-32"/>
      <path d="M 43.015625 63.71875 
L 38.28125 63.71875 
Q 38.234375 67.390625 36.203125 69.28125 
Q 34.1875 71.1875 30.328125 71.1875 
Q 25.296875 71.1875 23.234375 68.421875 
Q 21.1875 65.671875 21.1875 58.59375 
L 21.1875 51.90625 
L 35.6875 51.90625 
L 35.6875 46.6875 
L 21.1875 46.6875 
L 21.1875 5.171875 
L 32.71875 5.171875 
L 32.71875 0 
L 3.609375 0 
L 3.609375 5.171875 
L 12.203125 5.171875 
L 12.203125 46.6875 
L 3.609375 46.6875 
L 3.609375 51.90625 
L 12.203125 51.90625 
L 12.203125 58.40625 
Q 12.203125 67.09375 16.71875 71.53125 
Q 21.234375 75.984375 29.984375 75.984375 
Q 33.25 75.984375 36.515625 75.390625 
Q 39.796875 74.8125 43.015625 73.578125 
z
" id="DejaVuSerif-102"/>
      <path d="M 35.40625 51.90625 
L 52.203125 51.90625 
L 52.203125 5.171875 
L 60.6875 5.171875 
L 60.6875 0 
L 43.21875 0 
L 43.21875 9.1875 
Q 40.71875 4 36.765625 1.28125 
Q 32.8125 -1.421875 27.59375 -1.421875 
Q 18.953125 -1.421875 14.875 3.484375 
Q 10.796875 8.40625 10.796875 18.890625 
L 10.796875 46.6875 
L 2.6875 46.6875 
L 2.6875 51.90625 
L 19.828125 51.90625 
L 19.828125 21.6875 
Q 19.828125 12.203125 22.140625 8.6875 
Q 24.46875 5.171875 30.421875 5.171875 
Q 36.671875 5.171875 39.9375 9.765625 
Q 43.21875 14.359375 43.21875 23.09375 
L 43.21875 46.6875 
L 35.40625 46.6875 
z
" id="DejaVuSerif-117"/>
      <path d="M 4.109375 0 
L 4.109375 5.171875 
L 12.203125 5.171875 
L 12.203125 46.6875 
L 3.609375 46.6875 
L 3.609375 51.90625 
L 21.1875 51.90625 
L 21.1875 42.671875 
Q 23.6875 47.953125 27.65625 50.640625 
Q 31.640625 53.328125 36.921875 53.328125 
Q 45.515625 53.328125 49.5625 48.390625 
Q 53.609375 43.453125 53.609375 33.015625 
L 53.609375 5.171875 
L 61.625 5.171875 
L 61.625 0 
L 36.8125 0 
L 36.8125 5.171875 
L 44.578125 5.171875 
L 44.578125 30.171875 
Q 44.578125 39.703125 42.234375 43.234375 
Q 39.890625 46.78125 33.984375 46.78125 
Q 27.734375 46.78125 24.453125 42.203125 
Q 21.1875 37.640625 21.1875 28.90625 
L 21.1875 5.171875 
L 29 5.171875 
L 29 0 
z
" id="DejaVuSerif-110"/>
      <path d="M 51.421875 15.578125 
Q 49.515625 7.28125 44.09375 2.921875 
Q 38.671875 -1.421875 30.078125 -1.421875 
Q 18.75 -1.421875 11.859375 6.078125 
Q 4.984375 13.578125 4.984375 25.984375 
Q 4.984375 38.421875 11.859375 45.875 
Q 18.75 53.328125 30.078125 53.328125 
Q 35.015625 53.328125 39.890625 52.171875 
Q 44.78125 51.03125 49.703125 48.6875 
L 49.703125 35.40625 
L 44.484375 35.40625 
Q 43.453125 42.234375 40.015625 45.359375 
Q 36.578125 48.484375 30.171875 48.484375 
Q 22.90625 48.484375 19.1875 42.84375 
Q 15.484375 37.203125 15.484375 25.984375 
Q 15.484375 14.75 19.171875 9.078125 
Q 22.859375 3.421875 30.171875 3.421875 
Q 35.984375 3.421875 39.453125 6.4375 
Q 42.921875 9.46875 44.1875 15.578125 
z
" id="DejaVuSerif-99"/>
      <path d="M 10.796875 46.6875 
L 2.875 46.6875 
L 2.875 51.90625 
L 10.796875 51.90625 
L 10.796875 68.015625 
L 19.828125 68.015625 
L 19.828125 51.90625 
L 36.71875 51.90625 
L 36.71875 46.6875 
L 19.828125 46.6875 
L 19.828125 13.71875 
Q 19.828125 7.125 21.09375 5.265625 
Q 22.359375 3.421875 25.78125 3.421875 
Q 29.296875 3.421875 30.90625 5.484375 
Q 32.515625 7.5625 32.625 12.203125 
L 39.40625 12.203125 
Q 39.015625 5.125 35.546875 1.84375 
Q 32.078125 -1.421875 25 -1.421875 
Q 17.234375 -1.421875 14.015625 2.015625 
Q 10.796875 5.46875 10.796875 13.71875 
z
" id="DejaVuSerif-116"/>
      <path d="M 30.078125 3.421875 
Q 37.3125 3.421875 40.984375 9.125 
Q 44.671875 14.84375 44.671875 25.984375 
Q 44.671875 37.109375 40.984375 42.796875 
Q 37.3125 48.484375 30.078125 48.484375 
Q 22.859375 48.484375 19.171875 42.796875 
Q 15.484375 37.109375 15.484375 25.984375 
Q 15.484375 14.84375 19.1875 9.125 
Q 22.90625 3.421875 30.078125 3.421875 
z
M 30.078125 -1.421875 
Q 18.75 -1.421875 11.859375 6.078125 
Q 4.984375 13.578125 4.984375 25.984375 
Q 4.984375 38.375 11.84375 45.84375 
Q 18.703125 53.328125 30.078125 53.328125 
Q 41.453125 53.328125 48.3125 45.84375 
Q 55.171875 38.375 55.171875 25.984375 
Q 55.171875 13.578125 48.3125 6.078125 
Q 41.453125 -1.421875 30.078125 -1.421875 
z
" id="DejaVuSerif-111"/>
     </defs>
     <use xlink:href="#DejaVuSerif-83"/>
     <use x="68.505859" xlink:href="#DejaVuSerif-112"/>
     <use x="132.519531" xlink:href="#DejaVuSerif-101"/>
     <use x="191.699219" xlink:href="#DejaVuSerif-101"/>
     <use x="250.878906" xlink:href="#DejaVuSerif-100"/>
     <use x="314.892578" xlink:href="#DejaVuSerif-32"/>
     <use x="346.679688" xlink:href="#DejaVuSerif-102"/>
     <use x="383.691406" xlink:href="#DejaVuSerif-117"/>
     <use x="448.095703" xlink:href="#DejaVuSerif-110"/>
     <use x="512.5" xlink:href="#DejaVuSerif-99"/>
     <use x="568.505859" xlink:href="#DejaVuSerif-116"/>
     <use x="608.691406" xlink:href="#DejaVuSerif-105"/>
     <use x="640.673828" xlink:href="#DejaVuSerif-111"/>
     <use x="700.878906" xlink:href="#DejaVuSerif-110"/>
     <use x="765.283203" xlink:href="#DejaVuSerif-32"/>
     <use x="797.070312" xlink:href="#DejaVuSerif-111"/>
     <use x="857.275391" xlink:href="#DejaVuSerif-102"/>
     <use x="894.287109" xlink:href="#DejaVuSerif-32"/>
     <use x="926.074219" xlink:href="#DejaVuSerif-116"/>
     <use x="966.259766" xlink:href="#DejaVuSerif-105"/>
     <use x="998.242188" xlink:href="#DejaVuSerif-109"/>
     <use x="1093.066406" xlink:href="#DejaVuSerif-101"/>
    </g>
   </g>
  </g>
 </g>
 <defs>
  <clipPath id="pb6122c391a">
   <rect height="266.112" width="357.12" x="57.6" y="41.472"/>
  </clipPath>
 </defs>
</svg>
