<?xml version="1.0" encoding="utf-8" standalone="no"?>
<!DOCTYPE svg PUBLIC "-//W3C//DTD SVG 1.1//EN"
  "http://www.w3.org/Graphics/SVG/1.1/DTD/svg11.dtd">
<!-- Created with matplotlib (https://matplotlib.org/) -->
<svg height="345.6pt" version="1.1" viewBox="0 0 460.8 345.6" width="460.8pt" xmlns="http://www.w3.org/2000/svg" xmlns:xlink="http://www.w3.org/1999/xlink">
 <metadata>
  <rdf:RDF xmlns:cc="http://creativecommons.org/ns#" xmlns:dc="http://purl.org/dc/elements/1.1/" xmlns:rdf="http://www.w3.org/1999/02/22-rdf-syntax-ns#">
   <cc:Work>
    <dc:type rdf:resource="http://purl.org/dc/dcmitype/StillImage"/>
    <dc:date>2023-01-04T15:59:15.299554</dc:date>
    <dc:format>image/svg+xml</dc:format>
    <dc:creator>
     <cc:Agent>
      <dc:title>Matplotlib v3.3.4, https://matplotlib.org/</dc:title>
     </cc:Agent>
    </dc:creator>
   </cc:Work>
  </rdf:RDF>
 </metadata>
 <defs>
  <style type="text/css">*{stroke-linecap:butt;stroke-linejoin:round;}</style>
 </defs>
 <g id="figure_1">
  <g id="patch_1">
   <path d="M 0 345.6 
L 460.8 345.6 
L 460.8 0 
L 0 0 
z
" style="fill:#ffffff;"/>
  </g>
  <g id="axes_1">
   <g id="patch_2">
    <path d="M 57.6 307.584 
L 414.72 307.584 
L 414.72 41.472 
L 57.6 41.472 
z
" style="fill:#ffffff;"/>
   </g>
   <g id="matplotlib.axis_1">
    <g id="xtick_1">
     <g id="line2d_1">
      <defs>
       <path d="M 0 0 
L 0 3.5 
" id="m98580fddf1" style="stroke:#000000;stroke-width:0.8;"/>
      </defs>
      <g>
       <use style="stroke:#000000;stroke-width:0.8;" x="73.691441" xlink:href="#m98580fddf1" y="307.584"/>
      </g>
     </g>
     <g id="text_1">
      <!-- 0 -->
      <g transform="translate(70.510191 322.182437)scale(0.1 -0.1)">
       <defs>
        <path d="M 31.78125 3.421875 
Q 39.265625 3.421875 42.96875 11.625 
Q 46.6875 19.828125 46.6875 36.375 
Q 46.6875 52.984375 42.96875 61.1875 
Q 39.265625 69.390625 31.78125 69.390625 
Q 24.3125 69.390625 20.59375 61.1875 
Q 16.890625 52.984375 16.890625 36.375 
Q 16.890625 19.828125 20.59375 11.625 
Q 24.3125 3.421875 31.78125 3.421875 
z
M 31.78125 -1.421875 
Q 19.921875 -1.421875 13.25 8.53125 
Q 6.59375 18.5 6.59375 36.375 
Q 6.59375 54.296875 13.25 64.25 
Q 19.921875 74.21875 31.78125 74.21875 
Q 43.703125 74.21875 50.34375 64.25 
Q 56.984375 54.296875 56.984375 36.375 
Q 56.984375 18.5 50.34375 8.53125 
Q 43.703125 -1.421875 31.78125 -1.421875 
z
" id="DejaVuSerif-48"/>
       </defs>
       <use xlink:href="#DejaVuSerif-48"/>
      </g>
     </g>
    </g>
    <g id="xtick_2">
     <g id="line2d_2">
      <g>
       <use style="stroke:#000000;stroke-width:0.8;" x="114.29092" xlink:href="#m98580fddf1" y="307.584"/>
      </g>
     </g>
     <g id="text_2">
      <!-- 250 -->
      <g transform="translate(104.74717 322.182437)scale(0.1 -0.1)">
       <defs>
        <path d="M 12.796875 55.515625 
L 7.328125 55.515625 
L 7.328125 68.5 
Q 12.546875 71.296875 17.84375 72.75 
Q 23.140625 74.21875 28.21875 74.21875 
Q 39.59375 74.21875 46.1875 68.703125 
Q 52.78125 63.1875 52.78125 53.71875 
Q 52.78125 43.015625 37.84375 28.125 
Q 36.671875 27 36.078125 26.421875 
L 17.671875 8.015625 
L 48.09375 8.015625 
L 48.09375 17 
L 53.8125 17 
L 53.8125 0 
L 6.78125 0 
L 6.78125 5.328125 
L 28.90625 27.390625 
Q 36.234375 34.71875 39.359375 40.84375 
Q 42.484375 46.96875 42.484375 53.71875 
Q 42.484375 61.078125 38.640625 65.234375 
Q 34.8125 69.390625 28.078125 69.390625 
Q 21.09375 69.390625 17.28125 65.921875 
Q 13.484375 62.453125 12.796875 55.515625 
z
" id="DejaVuSerif-50"/>
        <path d="M 50.296875 72.90625 
L 50.296875 64.890625 
L 16.890625 64.890625 
L 16.890625 44 
Q 19.4375 45.75 22.828125 46.625 
Q 26.21875 47.515625 30.421875 47.515625 
Q 42.234375 47.515625 49.0625 40.96875 
Q 55.90625 34.421875 55.90625 23.09375 
Q 55.90625 11.53125 49 5.046875 
Q 42.09375 -1.421875 29.59375 -1.421875 
Q 24.5625 -1.421875 19.28125 -0.1875 
Q 14.015625 1.03125 8.5 3.515625 
L 8.5 17.671875 
L 14.015625 17.671875 
Q 14.453125 10.75 18.421875 7.078125 
Q 22.40625 3.421875 29.59375 3.421875 
Q 37.3125 3.421875 41.453125 8.5 
Q 45.609375 13.578125 45.609375 23.09375 
Q 45.609375 32.5625 41.484375 37.609375 
Q 37.359375 42.671875 29.59375 42.671875 
Q 25.203125 42.671875 21.84375 41.109375 
Q 18.5 39.546875 15.921875 36.28125 
L 11.71875 36.28125 
L 11.71875 72.90625 
z
" id="DejaVuSerif-53"/>
       </defs>
       <use xlink:href="#DejaVuSerif-50"/>
       <use x="63.623047" xlink:href="#DejaVuSerif-53"/>
       <use x="127.246094" xlink:href="#DejaVuSerif-48"/>
      </g>
     </g>
    </g>
    <g id="xtick_3">
     <g id="line2d_3">
      <g>
       <use style="stroke:#000000;stroke-width:0.8;" x="154.890399" xlink:href="#m98580fddf1" y="307.584"/>
      </g>
     </g>
     <g id="text_3">
      <!-- 500 -->
      <g transform="translate(145.346649 322.182437)scale(0.1 -0.1)">
       <use xlink:href="#DejaVuSerif-53"/>
       <use x="63.623047" xlink:href="#DejaVuSerif-48"/>
       <use x="127.246094" xlink:href="#DejaVuSerif-48"/>
      </g>
     </g>
    </g>
    <g id="xtick_4">
     <g id="line2d_4">
      <g>
       <use style="stroke:#000000;stroke-width:0.8;" x="195.489878" xlink:href="#m98580fddf1" y="307.584"/>
      </g>
     </g>
     <g id="text_4">
      <!-- 750 -->
      <g transform="translate(185.946128 322.182437)scale(0.1 -0.1)">
       <defs>
        <path d="M 56.390625 67.921875 
L 27.875 0 
L 20.609375 0 
L 47.796875 64.890625 
L 14.109375 64.890625 
L 14.109375 55.90625 
L 8.40625 55.90625 
L 8.40625 72.90625 
L 56.390625 72.90625 
z
" id="DejaVuSerif-55"/>
       </defs>
       <use xlink:href="#DejaVuSerif-55"/>
       <use x="63.623047" xlink:href="#DejaVuSerif-53"/>
       <use x="127.246094" xlink:href="#DejaVuSerif-48"/>
      </g>
     </g>
    </g>
    <g id="xtick_5">
     <g id="line2d_5">
      <g>
       <use style="stroke:#000000;stroke-width:0.8;" x="236.089357" xlink:href="#m98580fddf1" y="307.584"/>
      </g>
     </g>
     <g id="text_5">
      <!-- 1000 -->
      <g transform="translate(223.364357 322.182437)scale(0.1 -0.1)">
       <defs>
        <path d="M 14.203125 0 
L 14.203125 5.171875 
L 26.90625 5.171875 
L 26.90625 65.828125 
L 12.203125 56.296875 
L 12.203125 62.703125 
L 29.984375 74.21875 
L 36.71875 74.21875 
L 36.71875 5.171875 
L 49.421875 5.171875 
L 49.421875 0 
z
" id="DejaVuSerif-49"/>
       </defs>
       <use xlink:href="#DejaVuSerif-49"/>
       <use x="63.623047" xlink:href="#DejaVuSerif-48"/>
       <use x="127.246094" xlink:href="#DejaVuSerif-48"/>
       <use x="190.869141" xlink:href="#DejaVuSerif-48"/>
      </g>
     </g>
    </g>
    <g id="xtick_6">
     <g id="line2d_6">
      <g>
       <use style="stroke:#000000;stroke-width:0.8;" x="276.688836" xlink:href="#m98580fddf1" y="307.584"/>
      </g>
     </g>
     <g id="text_6">
      <!-- 1250 -->
      <g transform="translate(263.963836 322.182437)scale(0.1 -0.1)">
       <use xlink:href="#DejaVuSerif-49"/>
       <use x="63.623047" xlink:href="#DejaVuSerif-50"/>
       <use x="127.246094" xlink:href="#DejaVuSerif-53"/>
       <use x="190.869141" xlink:href="#DejaVuSerif-48"/>
      </g>
     </g>
    </g>
    <g id="xtick_7">
     <g id="line2d_7">
      <g>
       <use style="stroke:#000000;stroke-width:0.8;" x="317.288315" xlink:href="#m98580fddf1" y="307.584"/>
      </g>
     </g>
     <g id="text_7">
      <!-- 1500 -->
      <g transform="translate(304.563315 322.182437)scale(0.1 -0.1)">
       <use xlink:href="#DejaVuSerif-49"/>
       <use x="63.623047" xlink:href="#DejaVuSerif-53"/>
       <use x="127.246094" xlink:href="#DejaVuSerif-48"/>
       <use x="190.869141" xlink:href="#DejaVuSerif-48"/>
      </g>
     </g>
    </g>
    <g id="xtick_8">
     <g id="line2d_8">
      <g>
       <use style="stroke:#000000;stroke-width:0.8;" x="357.887794" xlink:href="#m98580fddf1" y="307.584"/>
      </g>
     </g>
     <g id="text_8">
      <!-- 1750 -->
      <g transform="translate(345.162794 322.182437)scale(0.1 -0.1)">
       <use xlink:href="#DejaVuSerif-49"/>
       <use x="63.623047" xlink:href="#DejaVuSerif-55"/>
       <use x="127.246094" xlink:href="#DejaVuSerif-53"/>
       <use x="190.869141" xlink:href="#DejaVuSerif-48"/>
      </g>
     </g>
    </g>
    <g id="xtick_9">
     <g id="line2d_9">
      <g>
       <use style="stroke:#000000;stroke-width:0.8;" x="398.487273" xlink:href="#m98580fddf1" y="307.584"/>
      </g>
     </g>
     <g id="text_9">
      <!-- 2000 -->
      <g transform="translate(385.762273 322.182437)scale(0.1 -0.1)">
       <use xlink:href="#DejaVuSerif-50"/>
       <use x="63.623047" xlink:href="#DejaVuSerif-48"/>
       <use x="127.246094" xlink:href="#DejaVuSerif-48"/>
       <use x="190.869141" xlink:href="#DejaVuSerif-48"/>
      </g>
     </g>
    </g>
    <g id="text_10">
     <!-- Time -->
     <g transform="translate(223.524844 335.860562)scale(0.1 -0.1)">
      <defs>
       <path d="M 19.09375 0 
L 19.09375 5.171875 
L 28.421875 5.171875 
L 28.421875 67.09375 
L 6.984375 67.09375 
L 6.984375 55.71875 
L 0.984375 55.71875 
L 0.984375 72.90625 
L 65.71875 72.90625 
L 65.71875 55.71875 
L 59.71875 55.71875 
L 59.71875 67.09375 
L 38.28125 67.09375 
L 38.28125 5.171875 
L 47.609375 5.171875 
L 47.609375 0 
z
" id="DejaVuSerif-84"/>
       <path d="M 9.71875 68.015625 
Q 9.71875 70.265625 11.34375 71.921875 
Q 12.984375 73.578125 15.28125 73.578125 
Q 17.53125 73.578125 19.15625 71.921875 
Q 20.796875 70.265625 20.796875 68.015625 
Q 20.796875 65.71875 19.1875 64.109375 
Q 17.578125 62.5 15.28125 62.5 
Q 12.984375 62.5 11.34375 64.109375 
Q 9.71875 65.71875 9.71875 68.015625 
z
M 21.1875 5.171875 
L 29.6875 5.171875 
L 29.6875 0 
L 3.609375 0 
L 3.609375 5.171875 
L 12.203125 5.171875 
L 12.203125 46.6875 
L 3.609375 46.6875 
L 3.609375 51.90625 
L 21.1875 51.90625 
z
" id="DejaVuSerif-105"/>
       <path d="M 51.8125 41.796875 
Q 54.390625 47.515625 58.421875 50.421875 
Q 62.453125 53.328125 67.828125 53.328125 
Q 75.984375 53.328125 79.984375 48.265625 
Q 83.984375 43.21875 83.984375 33.015625 
L 83.984375 5.171875 
L 92.09375 5.171875 
L 92.09375 0 
L 67.1875 0 
L 67.1875 5.171875 
L 75 5.171875 
L 75 31.984375 
Q 75 39.9375 72.65625 43.3125 
Q 70.3125 46.6875 64.890625 46.6875 
Q 58.890625 46.6875 55.734375 42.140625 
Q 52.59375 37.59375 52.59375 28.90625 
L 52.59375 5.171875 
L 60.40625 5.171875 
L 60.40625 0 
L 35.796875 0 
L 35.796875 5.171875 
L 43.609375 5.171875 
L 43.609375 32.328125 
Q 43.609375 40.09375 41.265625 43.390625 
Q 38.921875 46.6875 33.5 46.6875 
Q 27.484375 46.6875 24.328125 42.140625 
Q 21.1875 37.59375 21.1875 28.90625 
L 21.1875 5.171875 
L 29 5.171875 
L 29 0 
L 4.109375 0 
L 4.109375 5.171875 
L 12.203125 5.171875 
L 12.203125 46.78125 
L 3.609375 46.78125 
L 3.609375 51.90625 
L 21.1875 51.90625 
L 21.1875 42.671875 
Q 23.6875 47.859375 27.53125 50.59375 
Q 31.390625 53.328125 36.28125 53.328125 
Q 42.328125 53.328125 46.375 50.3125 
Q 50.4375 47.3125 51.8125 41.796875 
z
" id="DejaVuSerif-109"/>
       <path d="M 54.203125 25 
L 15.484375 25 
L 15.484375 24.609375 
Q 15.484375 14.109375 19.4375 8.765625 
Q 23.390625 3.421875 31.109375 3.421875 
Q 37.015625 3.421875 40.796875 6.515625 
Q 44.578125 9.625 46.09375 15.71875 
L 53.328125 15.71875 
Q 51.171875 7.171875 45.375 2.875 
Q 39.59375 -1.421875 30.171875 -1.421875 
Q 18.796875 -1.421875 11.890625 6.078125 
Q 4.984375 13.578125 4.984375 25.984375 
Q 4.984375 38.28125 11.765625 45.796875 
Q 18.5625 53.328125 29.59375 53.328125 
Q 41.359375 53.328125 47.65625 46.0625 
Q 53.953125 38.8125 54.203125 25 
z
M 43.609375 30.171875 
Q 43.3125 39.265625 39.765625 43.875 
Q 36.234375 48.484375 29.59375 48.484375 
Q 23.390625 48.484375 19.828125 43.84375 
Q 16.265625 39.203125 15.484375 30.171875 
z
" id="DejaVuSerif-101"/>
      </defs>
      <use xlink:href="#DejaVuSerif-84"/>
      <use x="66.699219" xlink:href="#DejaVuSerif-105"/>
      <use x="98.681641" xlink:href="#DejaVuSerif-109"/>
      <use x="193.505859" xlink:href="#DejaVuSerif-101"/>
     </g>
    </g>
   </g>
   <g id="matplotlib.axis_2">
    <g id="ytick_1">
     <g id="line2d_10">
      <defs>
       <path d="M 0 0 
L -3.5 0 
" id="m08ba4d8990" style="stroke:#000000;stroke-width:0.8;"/>
      </defs>
      <g>
       <use style="stroke:#000000;stroke-width:0.8;" x="57.6" xlink:href="#m08ba4d8990" y="303.704129"/>
      </g>
     </g>
     <g id="text_11">
      <!-- −8 -->
      <g transform="translate(35.857813 307.503348)scale(0.1 -0.1)">
       <defs>
        <path d="M 10.59375 35.296875 
L 73.1875 35.296875 
L 73.1875 27.390625 
L 10.59375 27.390625 
z
" id="DejaVuSerif-8722"/>
        <path d="M 46.578125 19.921875 
Q 46.578125 27.734375 42.6875 32.046875 
Q 38.8125 36.375 31.78125 36.375 
Q 24.75 36.375 20.875 32.046875 
Q 17 27.734375 17 19.921875 
Q 17 12.0625 20.875 7.734375 
Q 24.75 3.421875 31.78125 3.421875 
Q 38.8125 3.421875 42.6875 7.734375 
Q 46.578125 12.0625 46.578125 19.921875 
z
M 44.578125 55.328125 
Q 44.578125 61.96875 41.203125 65.671875 
Q 37.84375 69.390625 31.78125 69.390625 
Q 25.78125 69.390625 22.390625 65.671875 
Q 19 61.96875 19 55.328125 
Q 19 48.640625 22.390625 44.921875 
Q 25.78125 41.21875 31.78125 41.21875 
Q 37.84375 41.21875 41.203125 44.921875 
Q 44.578125 48.640625 44.578125 55.328125 
z
M 39.3125 38.8125 
Q 47.609375 37.703125 52.25 32.6875 
Q 56.890625 27.6875 56.890625 19.921875 
Q 56.890625 9.671875 50.390625 4.125 
Q 43.890625 -1.421875 31.78125 -1.421875 
Q 19.734375 -1.421875 13.203125 4.125 
Q 6.6875 9.671875 6.6875 19.921875 
Q 6.6875 27.6875 11.328125 32.6875 
Q 15.96875 37.703125 24.3125 38.8125 
Q 16.9375 40.140625 13 44.40625 
Q 9.078125 48.6875 9.078125 55.328125 
Q 9.078125 64.109375 15.125 69.15625 
Q 21.1875 74.21875 31.78125 74.21875 
Q 42.390625 74.21875 48.4375 69.15625 
Q 54.5 64.109375 54.5 55.328125 
Q 54.5 48.6875 50.5625 44.40625 
Q 46.625 40.140625 39.3125 38.8125 
z
" id="DejaVuSerif-56"/>
       </defs>
       <use xlink:href="#DejaVuSerif-8722"/>
       <use x="83.789062" xlink:href="#DejaVuSerif-56"/>
      </g>
     </g>
    </g>
    <g id="ytick_2">
     <g id="line2d_11">
      <g>
       <use style="stroke:#000000;stroke-width:0.8;" x="57.6" xlink:href="#m08ba4d8990" y="264.253129"/>
      </g>
     </g>
     <g id="text_12">
      <!-- −6 -->
      <g transform="translate(35.857813 268.052348)scale(0.1 -0.1)">
       <defs>
        <path d="M 32.71875 3.421875 
Q 39.59375 3.421875 43.296875 8.46875 
Q 47.015625 13.53125 47.015625 23 
Q 47.015625 32.46875 43.296875 37.515625 
Q 39.59375 42.578125 32.71875 42.578125 
Q 25.734375 42.578125 22.0625 37.6875 
Q 18.40625 32.8125 18.40625 23.578125 
Q 18.40625 13.875 22.109375 8.640625 
Q 25.828125 3.421875 32.71875 3.421875 
z
M 16.796875 40.140625 
Q 20.125 43.796875 24.3125 45.59375 
Q 28.515625 47.40625 33.796875 47.40625 
Q 44.671875 47.40625 51 40.859375 
Q 57.328125 34.328125 57.328125 23 
Q 57.328125 11.921875 50.515625 5.25 
Q 43.703125 -1.421875 32.328125 -1.421875 
Q 19.96875 -1.421875 13.328125 7.78125 
Q 6.6875 17 6.6875 34.078125 
Q 6.6875 53.21875 14.546875 63.71875 
Q 22.40625 74.21875 36.71875 74.21875 
Q 40.578125 74.21875 44.828125 73.484375 
Q 49.078125 72.75 53.515625 71.296875 
L 53.515625 59.28125 
L 48 59.28125 
Q 47.40625 64.203125 44.234375 66.796875 
Q 41.0625 69.390625 35.6875 69.390625 
Q 26.21875 69.390625 21.578125 62.203125 
Q 16.9375 55.03125 16.796875 40.140625 
z
" id="DejaVuSerif-54"/>
       </defs>
       <use xlink:href="#DejaVuSerif-8722"/>
       <use x="83.789062" xlink:href="#DejaVuSerif-54"/>
      </g>
     </g>
    </g>
    <g id="ytick_3">
     <g id="line2d_12">
      <g>
       <use style="stroke:#000000;stroke-width:0.8;" x="57.6" xlink:href="#m08ba4d8990" y="224.802129"/>
      </g>
     </g>
     <g id="text_13">
      <!-- −4 -->
      <g transform="translate(35.857813 228.601347)scale(0.1 -0.1)">
       <defs>
        <path d="M 34.90625 24.703125 
L 34.90625 63.484375 
L 10.015625 24.703125 
z
M 56.390625 0 
L 23.1875 0 
L 23.1875 5.171875 
L 34.90625 5.171875 
L 34.90625 19.484375 
L 3.078125 19.484375 
L 3.078125 24.8125 
L 35.015625 74.21875 
L 44.671875 74.21875 
L 44.671875 24.703125 
L 58.59375 24.703125 
L 58.59375 19.484375 
L 44.671875 19.484375 
L 44.671875 5.171875 
L 56.390625 5.171875 
z
" id="DejaVuSerif-52"/>
       </defs>
       <use xlink:href="#DejaVuSerif-8722"/>
       <use x="83.789062" xlink:href="#DejaVuSerif-52"/>
      </g>
     </g>
    </g>
    <g id="ytick_4">
     <g id="line2d_13">
      <g>
       <use style="stroke:#000000;stroke-width:0.8;" x="57.6" xlink:href="#m08ba4d8990" y="185.351128"/>
      </g>
     </g>
     <g id="text_14">
      <!-- −2 -->
      <g transform="translate(35.857813 189.150347)scale(0.1 -0.1)">
       <use xlink:href="#DejaVuSerif-8722"/>
       <use x="83.789062" xlink:href="#DejaVuSerif-50"/>
      </g>
     </g>
    </g>
    <g id="ytick_5">
     <g id="line2d_14">
      <g>
       <use style="stroke:#000000;stroke-width:0.8;" x="57.6" xlink:href="#m08ba4d8990" y="145.900128"/>
      </g>
     </g>
     <g id="text_15">
      <!-- 0 -->
      <g transform="translate(44.2375 149.699347)scale(0.1 -0.1)">
       <use xlink:href="#DejaVuSerif-48"/>
      </g>
     </g>
    </g>
    <g id="ytick_6">
     <g id="line2d_15">
      <g>
       <use style="stroke:#000000;stroke-width:0.8;" x="57.6" xlink:href="#m08ba4d8990" y="106.449128"/>
      </g>
     </g>
     <g id="text_16">
      <!-- 2 -->
      <g transform="translate(44.2375 110.248347)scale(0.1 -0.1)">
       <use xlink:href="#DejaVuSerif-50"/>
      </g>
     </g>
    </g>
    <g id="ytick_7">
     <g id="line2d_16">
      <g>
       <use style="stroke:#000000;stroke-width:0.8;" x="57.6" xlink:href="#m08ba4d8990" y="66.998128"/>
      </g>
     </g>
     <g id="text_17">
      <!-- 4 -->
      <g transform="translate(44.2375 70.797346)scale(0.1 -0.1)">
       <use xlink:href="#DejaVuSerif-52"/>
      </g>
     </g>
    </g>
    <g id="text_18">
     <!-- Speed -->
     <g transform="translate(29.778125 190.273313)rotate(-90)scale(0.1 -0.1)">
      <defs>
       <path d="M 9.28125 3.515625 
L 9.28125 20.125 
L 14.890625 20.0625 
Q 15.140625 11.765625 19.703125 7.78125 
Q 24.265625 3.8125 33.59375 3.8125 
Q 42.28125 3.8125 46.84375 7.25 
Q 51.421875 10.6875 51.421875 17.28125 
Q 51.421875 22.5625 48.65625 25.390625 
Q 45.90625 28.21875 37.015625 30.90625 
L 27.390625 33.796875 
Q 16.9375 36.96875 12.671875 41.703125 
Q 8.40625 46.4375 8.40625 54.6875 
Q 8.40625 63.96875 14.984375 69.09375 
Q 21.578125 74.21875 33.5 74.21875 
Q 38.578125 74.21875 44.625 73.109375 
Q 50.6875 72.015625 57.515625 69.921875 
L 57.515625 54.390625 
L 52 54.390625 
Q 51.171875 62.109375 46.84375 65.546875 
Q 42.53125 69 33.6875 69 
Q 25.984375 69 21.953125 65.84375 
Q 17.921875 62.703125 17.921875 56.6875 
Q 17.921875 51.46875 20.9375 48.484375 
Q 23.96875 45.515625 33.796875 42.578125 
L 42.828125 39.890625 
Q 52.734375 36.921875 56.953125 32.296875 
Q 61.1875 27.6875 61.1875 19.921875 
Q 61.1875 9.328125 54.390625 3.953125 
Q 47.609375 -1.421875 34.1875 -1.421875 
Q 28.171875 -1.421875 21.9375 -0.1875 
Q 15.71875 1.03125 9.28125 3.515625 
z
" id="DejaVuSerif-83"/>
       <path d="M 20.515625 28.515625 
L 20.515625 23.390625 
Q 20.515625 14.015625 24.09375 9.109375 
Q 27.6875 4.203125 34.515625 4.203125 
Q 41.40625 4.203125 44.9375 9.71875 
Q 48.484375 15.234375 48.484375 25.984375 
Q 48.484375 36.765625 44.9375 42.234375 
Q 41.40625 47.703125 34.515625 47.703125 
Q 27.6875 47.703125 24.09375 42.765625 
Q 20.515625 37.84375 20.515625 28.515625 
z
M 11.53125 46.6875 
L 2.875 46.6875 
L 2.875 51.90625 
L 20.515625 51.90625 
L 20.515625 43.796875 
Q 23.140625 48.6875 27.21875 51 
Q 31.296875 53.328125 37.3125 53.328125 
Q 46.875 53.328125 52.921875 45.75 
Q 58.984375 38.1875 58.984375 25.984375 
Q 58.984375 13.765625 52.921875 6.171875 
Q 46.875 -1.421875 37.3125 -1.421875 
Q 31.296875 -1.421875 27.21875 0.890625 
Q 23.140625 3.21875 20.515625 8.109375 
L 20.515625 -15.578125 
L 29 -15.578125 
L 29 -20.796875 
L 2.875 -20.796875 
L 2.875 -15.578125 
L 11.53125 -15.578125 
z
" id="DejaVuSerif-112"/>
       <path d="M 52.484375 5.171875 
L 61.078125 5.171875 
L 61.078125 0 
L 43.5 0 
L 43.5 8.109375 
Q 40.875 3.21875 36.796875 0.890625 
Q 32.71875 -1.421875 26.703125 -1.421875 
Q 17.140625 -1.421875 11.0625 6.171875 
Q 4.984375 13.765625 4.984375 25.984375 
Q 4.984375 38.1875 11.03125 45.75 
Q 17.09375 53.328125 26.703125 53.328125 
Q 32.71875 53.328125 36.796875 51 
Q 40.875 48.6875 43.5 43.796875 
L 43.5 70.796875 
L 35.015625 70.796875 
L 35.015625 75.984375 
L 52.484375 75.984375 
z
M 43.5 23.390625 
L 43.5 28.515625 
Q 43.5 37.84375 39.90625 42.765625 
Q 36.328125 47.703125 29.5 47.703125 
Q 22.5625 47.703125 19.015625 42.234375 
Q 15.484375 36.765625 15.484375 25.984375 
Q 15.484375 15.234375 19.015625 9.71875 
Q 22.5625 4.203125 29.5 4.203125 
Q 36.328125 4.203125 39.90625 9.109375 
Q 43.5 14.015625 43.5 23.390625 
z
" id="DejaVuSerif-100"/>
      </defs>
      <use xlink:href="#DejaVuSerif-83"/>
      <use x="68.505859" xlink:href="#DejaVuSerif-112"/>
      <use x="132.519531" xlink:href="#DejaVuSerif-101"/>
      <use x="191.699219" xlink:href="#DejaVuSerif-101"/>
      <use x="250.878906" xlink:href="#DejaVuSerif-100"/>
     </g>
    </g>
   </g>
   <g id="line2d_17">
    <path clip-path="url(#pc38d283961)" d="M 73.832727 175.488378 
L 73.840847 175.488378 
L 73.928542 145.900128 
L 73.954526 162.8077 
L 73.962646 162.8077 
L 73.996749 145.900128 
L 74.09094 156.659492 
L 74.097436 156.659492 
L 74.138035 155.004205 
L 74.144531 164.108282 
L 74.151027 164.108282 
L 74.157523 164.108282 
L 74.26633 153.297191 
L 74.328041 165.625628 
L 74.381632 163.653078 
L 74.402744 163.653078 
L 74.483943 161.337476 
L 74.456335 167.418856 
L 74.490439 166.483259 
L 74.503431 166.483259 
L 74.550526 164.836608 
L 74.522918 170.557003 
L 74.578134 168.660321 
L 74.58463 173.212359 
L 74.646341 167.034593 
L 74.685316 170.386956 
L 74.706428 170.386956 
L 74.71942 173.515828 
L 74.821731 167.418856 
L 74.834722 171.00531 
L 74.928913 165.625628 
L 75.010112 170.816549 
L 75.044216 170.177667 
L 75.153022 165.166896 
L 75.17251 167.919291 
L 75.18063 167.919291 
L 75.193622 164.729015 
L 75.234221 169.570728 
L 75.308924 166.04532 
L 75.31542 168.563469 
L 75.390123 164.836608 
L 75.416107 167.203668 
L 75.471322 164.108282 
L 75.552521 165.625628 
L 75.565513 167.418856 
L 75.627224 164.587444 
L 75.659704 166.305818 
L 75.714919 163.953976 
L 75.76851 165.302259 
L 75.789622 165.302259 
L 75.80911 166.898241 
L 75.890309 164.392785 
L 75.911421 165.929098 
L 75.971508 163.564755 
L 75.999115 165.045467 
L 76.012107 165.045467 
L 76.025099 163.304981 
L 76.120914 164.236509 
L 76.12741 164.236509 
L 76.168009 165.355416 
L 76.249208 163.258568 
L 76.2622 164.836608 
L 76.336903 162.590936 
L 76.358015 164.108282 
L 76.364511 164.108282 
L 76.390494 162.37966 
L 76.505797 163.011405 
L 76.533405 163.011405 
L 76.546396 164.216664 
L 76.634091 162.4145 
L 76.655203 163.585059 
L 76.72341 161.857836 
L 76.742898 162.995562 
L 76.770506 162.995562 
L 76.8988 161.009022 
L 76.911792 162.095802 
L 76.939399 162.095802 
L 77.007607 160.541737 
L 77.07419 161.441431 
L 77.1765 160.984334 
L 77.182996 161.986944 
L 77.283683 160.415119 
L 77.311291 160.415119 
L 77.446081 158.811365 
L 77.480184 159.76129 
L 77.520784 158.468588 
L 77.561383 159.396523 
L 77.689678 156.933035 
L 77.697798 156.933035 
L 77.723781 154.851195 
L 77.839084 55.680218 
L 77.852076 55.680218 
L 77.866692 56.413713 
L 77.94789 55.005024 
L 77.960882 55.726413 
L 77.975498 55.726413 
L 78.056697 54.361479 
L 78.089177 55.071081 
L 78.095673 55.769766 
L 78.12328 53.948951 
L 78.197983 55.133165 
L 78.204479 55.133165 
L 78.292174 53.847794 
L 78.319782 54.52465 
L 78.326278 54.52465 
L 78.366877 54.991302 
L 78.428588 53.942401 
L 78.475684 55.246766 
L 78.488676 53.568 
L 78.543891 54.859358 
L 78.556883 54.859358 
L 78.563379 54.031715 
L 78.603978 55.298866 
L 78.664065 55.108785 
L 78.725776 56.335695 
L 78.841079 135.777832 
L 78.854071 135.777832 
L 78.868687 134.999194 
L 78.915782 135.90929 
L 78.969373 135.21018 
L 79.003477 136.037378 
L 79.07818 135.479109 
L 79.097668 134.734751 
L 79.144763 135.608563 
L 79.191858 134.941517 
L 79.300665 135.858055 
L 79.38836 134.628414 
L 79.415968 135.395424 
L 79.443575 135.395424 
L 79.476055 134.761022 
L 79.516654 135.578646 
L 79.557254 134.954186 
L 79.57187 134.954186 
L 79.591357 135.697283 
L 79.679052 135.140765 
L 79.740763 135.261656 
L 79.747259 134.596752 
L 79.787859 135.379861 
L 79.84957 134.784101 
L 79.88205 135.495469 
L 79.990856 135.082918 
L 80.02496 135.140765 
L 80.044448 134.507861 
L 80.093167 135.25462 
L 80.140262 134.687739 
L 80.240949 135.475252 
L 80.247445 134.862025 
L 80.288044 134.918922 
L 80.315652 134.975236 
L 80.322148 134.368297 
L 80.424459 135.140765 
L 80.458562 135.194832 
L 80.465058 134.656593 
L 80.47805 134.656593 
L 80.512154 134.712531 
L 80.531641 135.353821 
L 80.606344 134.296893 
L 80.62096 134.877055 
L 80.674551 134.984075 
L 80.694039 134.409546 
L 80.734639 135.089037 
L 80.789854 134.574482 
L 80.884045 135.29302 
L 80.897037 134.734751 
L 80.958748 134.8391 
L 80.965244 134.286049 
L 81.067554 134.992018 
L 81.100034 135.042055 
L 81.108154 134.55121 
L 81.121146 134.55121 
L 81.155249 134.602796 
L 81.168241 135.140765 
L 81.24944 134.224047 
L 81.262432 134.754778 
L 81.311151 134.853848 
L 81.330639 134.327835 
L 81.377734 134.951172 
L 81.42483 134.480102 
L 81.452437 135.046796 
L 81.533636 134.628414 
L 81.595348 134.725167 
L 81.601844 134.217214 
L 81.70253 134.867221 
L 81.730138 134.913774 
L 81.74313 134.414394 
L 81.798345 135.00571 
L 81.84544 134.557966 
L 81.939631 134.697992 
L 81.946127 134.210943 
L 81.986727 134.789438 
L 82.048438 134.353494 
L 82.149125 134.967923 
L 82.189724 134.583507 
L 82.217332 134.583507 
L 82.236819 134.158759 
L 82.292035 134.717168 
L 82.326138 134.296893 
L 82.426825 134.890547 
L 82.433321 134.431814 
L 82.495032 134.520032 
L 82.501528 134.064828 
L 82.602215 134.649843 
L 82.636318 134.692458 
L 82.65743 134.244151 
L 82.698029 134.776726 
L 82.751621 134.375117 
L 82.826324 134.460805 
L 82.845812 134.064828 
L 82.907523 134.586974 
L 82.927011 134.151852 
L 82.96761 134.669551 
L 83.022825 134.280015 
L 83.035817 134.322117 
L 83.048809 134.750932 
L 83.123512 133.979682 
L 83.144624 134.446612 
L 83.185223 134.487517 
L 83.198215 134.064828 
L 83.238815 134.568458 
L 83.292406 134.190291 
L 83.320014 134.648258 
L 83.401212 134.313121 
L 83.462924 134.393586 
L 83.46942 133.982639 
L 83.570106 134.512211 
L 83.597714 134.55121 
L 83.60421 134.145892 
L 83.625322 134.186009 
L 83.651305 134.225853 
L 83.665921 134.628414 
L 83.760112 134.343775 
L 83.800711 134.382554 
L 83.807207 133.985397 
L 83.847807 134.459338 
L 83.909518 134.104148 
L 84.003709 134.609875 
L 84.050804 134.296893 
L 84.071916 134.296893 
L 84.078412 133.910118 
L 84.179098 134.409546 
L 84.206706 134.446612 
L 84.213202 134.064828 
L 84.234314 134.102884 
L 84.260297 134.140695 
L 84.274913 134.520032 
L 84.369104 134.25269 
L 84.409704 134.289549 
L 84.416199 133.915014 
L 84.456799 134.362572 
L 84.51851 134.027727 
L 84.612701 134.505895 
L 84.659796 134.210943 
L 84.680908 134.210943 
L 84.687404 133.845656 
L 84.788091 134.318183 
L 84.815698 134.353494 
L 84.822194 133.992662 
L 84.835186 134.028855 
L 84.86929 134.064828 
L 84.883905 134.423474 
L 84.978096 134.171452 
L 85.018696 134.206568 
L 85.025192 133.852218 
L 85.127502 134.310665 
L 85.153486 134.344954 
L 85.159982 133.994797 
L 85.181094 134.029916 
L 85.208701 134.064828 
L 85.221693 134.412925 
L 85.296396 133.787979 
L 85.315884 134.168344 
L 85.356483 134.202448 
L 85.364603 133.858398 
L 85.403579 134.270065 
L 85.471786 133.996809 
L 85.559481 134.40298 
L 85.580593 134.098547 
L 85.621192 134.132074 
L 85.634184 133.795844 
L 85.728375 134.231523 
L 85.755982 134.264299 
L 85.770598 133.931847 
L 85.817693 134.329304 
L 85.871285 134.031861 
L 85.898892 133.73607 
L 85.95898 134.130217 
L 85.971971 133.803275 
L 86.014195 134.194886 
L 86.067786 133.902701 
L 86.161977 134.322117 
L 86.176593 134.000506 
L 86.230184 133.744955 
L 86.290271 134.128459 
L 86.311383 133.810306 
L 86.351983 134.191409 
L 86.405574 133.907024 
L 86.426686 134.253689 
L 86.514381 134.002207 
L 86.567972 133.753373 
L 86.621563 134.126793 
L 86.649171 133.816968 
L 86.68977 134.188113 
L 86.736866 133.911123 
L 86.744986 133.911123 
L 86.757977 134.248797 
L 86.83268 133.698788 
L 86.858664 134.034403 
L 86.892768 134.064828 
L 86.913879 133.761359 
L 86.960975 134.125212 
L 87.001574 133.854021 
L 87.089269 134.214642 
L 87.108757 133.94528 
L 87.157476 133.975393 
L 87.170468 133.707985 
L 87.264659 134.094343 
L 87.292267 134.094343 
L 87.32637 133.8293 
L 87.345858 134.152932 
L 87.407569 133.918713 
L 87.488768 133.97759 
L 87.495264 133.686796 
L 87.595951 134.064828 
L 87.623558 134.093624 
L 87.630054 133.805661 
L 87.64467 133.835016 
L 87.67715 133.86423 
L 87.685269 134.150799 
L 87.758349 133.637046 
L 87.785956 133.951027 
L 87.82006 133.979682 
L 87.833052 133.695862 
L 87.873651 134.036582 
L 87.928866 133.783035 
L 87.948354 134.09294 
L 88.036049 133.868972 
L 88.083144 133.925589 
L 88.09776 133.647112 
L 88.144856 133.981676 
L 88.185455 133.732997 
L 88.279646 134.092288 
L 88.294262 133.817687 
L 88.347853 133.873495 
L 88.354349 133.600163 
L 88.450164 133.956247 
L 88.45666 133.956247 
L 88.476147 133.956247 
L 88.510251 133.712748 
L 88.531363 134.010786 
L 88.59145 133.795844 
L 88.597946 133.795844 
L 88.612562 134.064828 
L 88.685641 133.610652 
L 88.706752 133.877814 
L 88.740856 133.904892 
L 88.747352 133.638331 
L 88.787951 133.958682 
L 88.848039 133.720625 
L 88.875646 134.011992 
L 89.003941 133.855354 
L 89.018556 133.593511 
L 89.112747 133.93477 
L 89.138731 133.96101 
L 89.153347 133.701464 
L 89.200442 134.013146 
L 89.254033 133.781193 
L 89.275145 133.55025 
L 89.335232 133.859888 
L 89.349848 133.603713 
L 89.396944 133.911785 
L 89.437543 133.683044 
L 89.531734 134.01425 
L 89.544726 133.761359 
L 89.593445 133.787241 
L 89.606437 133.561198 
L 89.700628 133.889676 
L 89.728235 133.889676 
L 89.762339 133.665324 
L 89.781827 133.940246 
L 89.843538 133.742273 
L 89.850034 133.742273 
L 89.85653 133.990392 
L 89.931233 133.545953 
L 89.95884 133.818259 
L 89.992944 133.843378 
L 89.99944 133.597321 
L 90.040039 133.893302 
L 90.106622 133.698788 
L 90.121238 133.942815 
L 90.215429 133.773796 
L 90.249533 133.798594 
L 90.26902 133.556564 
L 90.356715 133.872384 
L 90.377827 133.896781 
L 90.405435 133.656714 
L 90.446034 133.94528 
L 90.493129 133.730767 
L 90.512617 133.755253 
L 90.519113 133.517118 
L 90.614928 133.828122 
L 90.621424 133.828122 
L 90.642536 133.828122 
L 90.675015 133.615984 
L 90.696127 133.876218 
L 90.756214 133.689104 
L 90.76271 133.689104 
L 90.77083 133.923932 
L 90.843909 133.50347 
L 90.871517 133.761359 
L 90.90562 133.785254 
L 90.912116 133.552276 
L 90.952716 133.832763 
L 91.014427 133.624768 
L 91.033915 133.879902 
L 91.155713 133.743715 
L 91.162209 133.743715 
L 91.176825 133.514349 
L 91.271015 133.813984 
L 91.292127 133.837226 
L 91.318111 133.609624 
L 91.35871 133.883444 
L 91.405806 133.680124 
L 91.426917 133.703445 
L 91.433413 133.47758 
L 91.527604 133.772876 
L 91.535724 133.772876 
L 91.555212 133.772876 
L 91.589315 133.571691 
L 91.602307 133.818725 
L 91.670514 133.641343 
L 91.67701 133.641343 
L 91.683506 133.86423 
L 91.758209 133.465291 
L 91.785817 133.710212 
L 91.811801 133.732997 
L 91.826416 133.511777 
L 91.867016 133.778312 
L 91.920607 133.580857 
L 91.948215 133.823291 
L 92.029414 133.649171 
L 92.083005 133.476333 
L 92.136596 133.739086 
L 92.164204 133.521924 
L 92.204803 133.78355 
L 92.251899 133.589688 
L 92.273011 133.827691 
L 92.339594 133.441918 
L 92.360705 133.656714 
L 92.401305 133.678894 
L 92.420793 133.486974 
L 92.501992 133.744955 
L 92.529599 133.766817 
L 92.536095 133.553952 
L 92.557207 133.576117 
L 92.583191 133.598203 
L 92.591311 133.810306 
L 92.66439 133.430794 
L 92.691997 133.663989 
L 92.726101 133.685762 
L 92.739093 133.475169 
L 92.834907 133.750617 
L 92.854395 133.772082 
L 92.873883 133.562978 
L 92.969698 133.628024 
L 92.98269 133.649554 
L 92.997305 133.441918 
L 93.085 133.713694 
L 93.091496 133.713694 
L 93.110984 133.713694 
L 93.145087 133.528734 
L 93.166199 133.756081 
L 93.226286 133.593057 
L 93.307485 133.635569 
L 93.313981 133.431159 
L 93.409796 133.698788 
L 93.416292 133.698788 
L 93.43578 133.719716 
L 93.442276 133.51671 
L 93.476379 133.537914 
L 93.490995 133.559046 
L 93.497491 133.761359 
L 93.598178 133.622011 
L 93.625785 133.642856 
L 93.646897 133.441918 
L 93.693992 133.684336 
L 93.734592 133.50505 
L 93.822287 133.746032 
L 93.841774 133.567547 
L 93.890494 133.588239 
L 93.89699 133.410616 
L 93.997676 133.670318 
L 94.018788 133.670318 
L 94.025284 133.473063 
L 94.07238 133.710949 
L 94.125971 133.534889 
L 94.147083 133.75131 
L 94.20717 133.596103 
L 94.221786 133.400801 
L 94.268881 133.636577 
L 94.30948 133.462374 
L 94.403671 133.716731 
L 94.416663 133.523344 
L 94.531966 133.583718 
L 94.546581 133.411581 
L 94.634276 133.643507 
L 94.66026 133.663307 
L 94.66838 133.472107 
L 94.700859 133.492152 
L 94.728467 133.702718 
L 94.856761 133.591416 
L 94.871377 133.402051 
L 94.965568 133.650216 
L 94.985056 133.669691 
L 95.006168 133.48153 
L 95.046767 133.708456 
L 95.100358 133.540479 
L 95.114974 133.560005 
L 95.12147 133.373033 
L 95.215661 133.618213 
L 95.222157 133.618213 
L 95.243268 133.618213 
L 95.277372 133.451696 
L 95.290364 133.656714 
L 95.358571 133.510048 
L 95.365067 133.510048 
L 95.371563 133.694975 
L 95.43977 133.364296 
L 95.47225 133.567856 
L 95.499857 133.587005 
L 95.512849 133.403228 
L 95.553449 133.625127 
L 95.608664 133.461173 
L 95.628152 133.663012 
L 95.715846 133.518584 
L 95.764566 133.375041 
L 95.818157 133.575467 
L 95.852261 133.413344 
L 95.865253 133.613099 
L 95.93346 133.470361 
L 95.946451 133.650503 
L 96.040642 133.52686 
L 96.074746 133.545579 
L 96.089362 133.366528 
L 96.183552 133.601398 
L 96.20304 133.619892 
L 96.224152 133.441918 
L 96.271247 133.656714 
L 96.318343 133.497868 
L 96.332959 133.516406 
L 96.339454 133.339496 
L 96.433645 133.571691 
L 96.440141 133.571691 
L 96.461253 133.571691 
L 96.495356 133.41415 
L 96.514844 133.608274 
L 96.576555 133.469562 
L 96.583051 133.469562 
L 96.589547 133.64464 
L 96.66425 133.331668 
L 96.690234 133.524483 
L 96.717842 133.542683 
L 96.730833 133.368634 
L 96.771433 133.578921 
L 96.826648 133.423677 
L 96.846136 133.614948 
L 96.933831 133.478239 
L 96.98255 133.342324 
L 97.042637 133.55025 
L 97.070245 133.378724 
L 97.083237 133.568122 
L 97.151444 133.432929 
L 97.170932 133.603713 
L 97.258627 133.486667 
L 97.299226 133.504477 
L 97.307346 133.334673 
L 97.401537 133.557601 
L 97.429144 133.575208 
L 97.442136 133.406373 
L 97.489232 133.610272 
L 97.542823 133.459614 
L 97.557439 133.309383 
L 97.617526 133.512403 
L 97.638638 133.345001 
L 97.726333 133.564745 
L 97.74582 133.564745 
L 97.779924 133.415634 
L 97.807532 133.599395 
L 97.861123 133.46809 
L 97.935826 133.502817 
L 97.948818 133.337519 
L 97.989417 133.53735 
L 98.044633 133.389936 
L 98.132327 133.605841 
L 98.151815 133.441918 
L 98.200535 133.312862 
L 98.260622 133.510558 
L 98.281733 133.347537 
L 98.294725 133.5276 
L 98.369428 133.399194 
L 98.450627 133.595302 
L 98.476611 133.450427 
L 98.510715 133.467412 
L 98.52533 133.305948 
L 98.613025 133.518089 
L 98.619521 133.518089 
L 98.639009 133.534889 
L 98.660121 133.374302 
L 98.70072 133.568354 
L 98.754311 133.425082 
L 98.768927 133.441918 
L 98.775423 133.282197 
L 98.869614 133.492152 
L 98.87611 133.492152 
L 98.897222 133.492152 
L 98.931325 133.349944 
L 98.944317 133.525418 
L 99.012524 133.400279 
L 99.025516 133.558505 
L 99.093723 133.275808 
L 99.119707 133.450212 
L 99.15381 133.466768 
L 99.166802 133.309383 
L 99.262617 133.516172 
L 99.282105 133.532553 
L 99.303216 133.376001 
L 99.343816 133.565185 
L 99.397407 133.425504 
L 99.410399 133.441918 
L 99.418519 133.28619 
L 99.51271 133.490901 
L 99.532197 133.490901 
L 99.540317 133.335786 
L 99.587413 133.523344 
L 99.6475 133.401311 
L 99.728699 133.433817 
L 99.735195 133.279912 
L 99.83101 133.482262 
L 99.837506 133.482262 
L 99.856993 133.498326 
L 99.878105 133.345217 
L 99.918704 133.530331 
L 99.972296 133.393754 
L 99.978792 133.393754 
L 99.986912 133.25753 
L 100.068111 133.441918 
L 100.081102 133.441918 
L 100.115206 133.306155 
L 100.175293 133.489711 
L 100.181789 133.338365 
L 100.230508 133.52137 
L 100.2841 133.386371 
L 100.365299 133.434013 
L 100.378291 133.283818 
L 100.474105 133.481292 
L 100.493593 133.496973 
L 100.521201 133.347537 
L 100.547184 133.512614 
L 100.608896 133.394905 
L 100.621887 133.394905 
L 100.628383 133.261931 
L 100.709582 133.441918 
L 100.724198 133.441918 
L 100.758302 133.309383 
L 100.811893 133.488578 
L 100.824885 133.340821 
L 100.87198 133.519491 
L 100.927196 133.387684 
L 100.946683 133.256205 
L 101.001899 133.434199 
L 101.021386 133.287541 
L 101.068482 133.465017 
L 101.109081 133.334254 
L 101.19028 133.510959 
L 101.217888 133.380623 
L 101.258487 133.396003 
L 101.264983 133.250606 
L 101.352678 133.441918 
L 101.367294 133.441918 
L 101.393278 133.312462 
L 101.448493 133.487496 
L 101.467981 133.343163 
L 101.515076 133.517697 
L 101.562171 133.388936 
L 101.576787 133.40412 
L 101.589779 133.260487 
L 101.677474 133.44945 
L 101.68397 133.44945 
L 101.705082 133.44945 
L 101.739185 133.321548 
L 101.758673 133.479488 
L 101.820384 133.366958 
L 101.82688 133.366958 
L 101.833376 133.509381 
L 101.901583 133.25497 
L 101.935687 133.412042 
L 101.955174 133.426998 
L 101.976286 133.285257 
L 102.016886 133.456802 
L 102.070477 133.330418 
L 102.083469 133.486464 
L 102.179283 133.375257 
L 102.219883 133.264577 
L 102.273474 133.419776 
L 102.27997 133.279548 
L 102.32057 133.449281 
L 102.382281 133.324249 
L 102.401769 133.478646 
L 102.530063 133.398051 
L 102.551175 133.259139 
L 102.63887 133.441918 
L 102.658357 133.456472 
L 102.685965 133.318209 
L 102.720069 133.470992 
L 102.77366 133.36215 
L 102.788276 133.36215 
L 102.794772 133.23911 
L 102.895458 133.420264 
L 102.910074 133.420264 
L 102.923066 133.283122 
L 102.963665 133.449119 
L 103.023753 133.32683 
L 103.098456 133.370236 
L 103.113071 133.234042 
L 103.207262 133.413344 
L 103.22675 133.413344 
L 103.260854 133.292077 
L 103.281965 133.441918 
L 103.342053 133.335255 
L 103.600265 133.434863 
L 103.613257 133.448964 
L 103.619753 133.315081 
L 103.673344 133.343489 
L 104.309944 133.331668 
L 104.31644 133.214779 
L 104.404135 133.373239 
L 104.412255 133.373239 
L 104.438238 133.256691 
L 104.49995 133.414537 
L 104.512942 133.284479 
L 104.560037 133.441918 
L 104.615252 133.325932 
L 104.688331 133.367114 
L 104.63474 133.2102 
L 104.696451 133.237908 
L 104.709443 133.237908 
L 104.81825 133.408027 
L 104.850729 133.292961 
L 104.878337 133.435154 
L 104.931928 133.333937 
L 104.940048 133.333937 
L 104.95304 133.205711 
L 105.040735 133.374649 
L 105.047231 133.374649 
L 105.068342 133.38816 
L 105.08783 133.260487 
L 105.12843 133.415097 
L 105.183645 133.30126 
L 106.143417 133.312009 
L 106.149913 133.188596 
L 106.245727 133.351265 
L 106.252223 133.351265 
L 106.461717 133.306782 
L 106.468212 133.184517 
L 106.555907 133.34569 
L 106.570523 133.34569 
L 106.780016 133.301651 
L 106.793008 133.193518 
L 106.874207 133.340218 
L 106.880703 133.340218 
L 106.914807 133.232376 
L 106.970022 133.378549 
L 106.983014 133.258149 
L 107.083701 133.296614 
L 107.104812 133.189472 
L 107.158404 133.334845 
L 107.186011 133.215176 
L 107.199003 133.347537 
L 107.26721 133.253537 
L 107.286698 133.372845 
L 107.376017 133.291668 
L 107.976889 133.282039 
L 107.985009 133.165205 
L 108.072704 133.319297 
L 108.0792 133.319297 
L 108.295189 133.277352 
L 108.301685 133.161547 
L 108.391004 133.314297 
L 108.403996 133.314297 
L 108.431603 133.21121 
L 108.485195 133.351026 
L 108.504682 133.235897 
L 108.600497 133.272747 
L 109.493686 133.259401 
L 109.500182 133.147536 
L 109.594372 133.295143 
L 109.600868 133.295143 
L 109.872073 133.27876 
L 109.893184 133.168047 
L 109.980879 133.314081 
L 110.128661 133.250876 
L 110.136781 133.15273 
L 110.21798 133.286046 
L 110.230972 133.286046 
L 110.25858 133.188139 
L 110.318667 133.32102 
L 110.331659 133.211636 
L 110.380378 133.344229 
L 110.43397 133.24672 
L 110.508673 133.28161 
L 110.446961 133.149391 
L 110.515168 133.172829 
L 110.534656 133.28161 
L 110.575256 133.196182 
L 110.630471 133.316308 
L 110.636967 133.207827 
L 110.697054 133.339334 
L 110.737654 133.242632 
L 110.765261 133.146106 
L 110.818853 133.277247 
L 110.839964 133.169359 
L 110.880564 133.300218 
L 110.927659 133.204079 
L 111.008858 133.334519 
L 111.036466 133.23861 
L 112.585742 133.230486 
L 112.592238 133.127481 
L 112.679933 133.26348 
L 112.694549 133.26348 
L 112.897546 133.22675 
L 112.904042 133.124545 
L 112.998233 133.259498 
L 113.004729 133.259498 
L 113.085928 133.292077 
L 113.032336 133.168523 
L 113.092423 133.190399 
L 113.147639 133.212199 
L 113.154135 133.313703 
L 113.222342 133.132596 
L 113.254821 133.24476 
L 113.532522 133.230223 
L 113.539018 133.129668 
L 113.628337 133.262435 
L 113.641328 133.262435 
L 113.844326 133.226578 
L 113.850822 133.126786 
L 113.945012 133.258555 
L 113.953132 133.258555 
L 114.034331 133.290371 
L 113.979116 133.169721 
L 114.040827 133.191081 
L 119.934248 133.163751 
L 119.940744 133.077109 
L 120.028438 133.191661 
L 120.043054 133.191661 
L 120.124253 133.21945 
L 120.069038 133.114549 
L 120.137245 133.133186 
L 135.876851 133.07909 
L 135.883347 133.021673 
L 135.984034 133.106947 
L 147.514286 133.039211 
L 147.520782 132.990864 
L 147.623092 133.062755 
L 173.268971 132.991085 
L 173.35017 132.959664 
L 173.376154 133.004231 
L 191.619936 132.961106 
L 191.667031 295.488 
L 191.733614 295.47009 
L 191.876524 295.289873 
L 192.038922 295.186684 
L 192.160721 295.083731 
L 192.310127 294.981012 
L 192.431925 294.844799 
L 192.444917 294.878528 
L 192.51962 294.784968 
L 192.532612 294.784968 
L 192.647914 294.691568 
L 192.769713 294.589704 
L 192.885015 294.496655 
L 193.006814 294.395215 
L 193.122116 294.302516 
L 193.243915 294.201496 
L 193.357593 294.109146 
L 193.487512 294.008544 
L 193.628798 293.90817 
L 193.7441 293.774664 
L 193.750596 293.808021 
L 193.865899 293.716394 
L 193.981201 293.583366 
L 193.987697 293.616658 
L 194.103 293.525372 
L 194.210182 293.392821 
L 194.224798 293.426047 
L 194.340101 293.3351 
L 194.447283 293.203022 
L 194.461899 293.236184 
L 194.575578 293.145575 
L 194.705496 293.047064 
L 194.812679 292.95679 
L 194.934477 292.858683 
L 195.04978 292.768743 
L 195.171578 292.671036 
L 195.286881 292.581429 
L 195.408679 292.48412 
L 195.523982 292.394842 
L 195.64578 292.29793 
L 195.761082 292.20898 
L 195.882881 292.112462 
L 196.030663 292.016156 
L 196.145966 291.887361 
L 196.152461 291.920064 
L 196.267764 291.831796 
L 196.383066 291.703453 
L 196.389562 291.736093 
L 196.504865 291.648147 
L 196.613672 291.520253 
L 196.626663 291.55283 
L 196.741966 291.465205 
L 196.849149 291.337758 
L 196.863764 291.370272 
L 196.979067 291.282966 
L 197.100865 291.188416 
L 197.214544 291.101426 
L 197.344462 291.007255 
L 197.451645 290.920581 
L 197.573443 290.826788 
L 197.688746 290.740427 
L 197.810544 290.64701 
L 197.925847 290.56096 
L 198.047645 290.467916 
L 198.197051 290.375074 
L 198.31885 290.250299 
L 198.331841 290.282434 
L 198.406545 290.197031 
L 198.419536 290.197031 
L 198.534839 290.111768 
L 198.656637 290.019664 
L 198.77194 289.934705 
L 198.893738 289.842967 
L 199.009041 289.758312 
L 199.130839 289.666938 
L 199.244518 289.582585 
L 199.374436 289.491572 
L 199.515722 289.400754 
L 199.631025 289.278334 
L 199.637521 289.310132 
L 199.752823 289.226406 
L 199.868126 289.104403 
L 199.874622 289.136141 
L 199.989924 289.052713 
L 200.097107 288.931123 
L 200.111723 288.962802 
L 200.227025 288.879669 
L 200.334208 288.758492 
L 200.348824 288.790112 
L 200.462502 288.707273 
L 200.59242 288.618067 
L 200.699603 288.535519 
L 200.821402 288.446662 
L 200.936704 288.364405 
L 201.058502 288.275895 
L 201.173805 288.193927 
L 201.295603 288.105762 
L 201.410906 288.024081 
L 201.532704 287.93626 
L 201.680487 287.848624 
L 201.802285 287.729913 
L 201.810405 287.761173 
L 201.917587 287.680089 
L 202.03289 287.561774 
L 202.039386 287.592977 
L 202.154688 287.512175 
L 202.269991 287.394255 
L 202.276487 287.425401 
L 202.391789 287.344879 
L 202.500596 287.227352 
L 202.513588 287.25844 
L 202.62889 287.178198 
L 202.736073 287.061062 
L 202.750689 287.092093 
L 202.865991 287.012129 
L 202.98779 286.926355 
L 203.101468 286.846667 
L 203.231387 286.761223 
L 203.338569 286.68181 
L 203.460368 286.596694 
L 203.57567 286.517555 
L 203.697469 286.432765 
L 203.812771 286.353897 
L 203.93457 286.269431 
L 204.083976 286.185141 
L 204.197654 286.07034 
L 204.205774 286.101025 
L 204.319453 286.022722 
L 204.434755 285.908298 
L 204.449371 285.938927 
L 204.556554 285.860892 
L 204.66536 285.746841 
L 204.678352 285.777415 
L 204.793655 285.699646 
L 204.902461 285.585967 
L 204.915453 285.616486 
L 205.030756 285.538982 
L 205.152554 285.456138 
L 205.267856 285.378896 
L 205.389655 285.296365 
L 205.504957 285.219386 
L 205.626756 285.137167 
L 205.740434 285.060448 
L 205.870353 284.978539 
L 205.977535 284.902079 
L 206.099334 284.820479 
L 206.24874 284.739045 
L 206.370538 284.627593 
L 206.38353 284.657778 
L 206.42413 284.587037 
L 206.471225 284.581855 
L 206.620631 284.500893 
L 206.748925 284.389995 
L 206.755421 284.420095 
L 206.830124 284.314489 
L 206.851236 284.344566 
L 206.992522 284.26407 
L 207.120817 284.153722 
L 207.263727 284.073583 
L 207.379029 283.963651 
L 207.385525 283.993607 
L 207.534931 283.913792 
L 207.663226 283.804243 
L 207.804512 283.724781 
L 207.919814 283.615644 
L 207.92631 283.645478 
L 208.075716 283.566336 
L 208.204011 283.457578 
L 208.346921 283.378783 
L 208.460599 283.270433 
L 208.468719 283.300147 
L 208.616501 283.221669 
L 208.744796 283.113692 
L 208.887706 283.035558 
L 209.003009 282.927983 
L 209.009504 282.957579 
L 209.158911 282.879757 
L 209.287205 282.772553 
L 209.428491 282.69507 
L 209.543794 282.588264 
L 209.55029 282.617741 
L 209.699696 282.540567 
L 209.82799 282.434127 
L 210.00338 282.323411 
L 210.133298 282.246777 
L 210.308688 282.13654 
L 210.430486 282.060262 
L 210.612372 281.9505 
L 210.74229 281.874576 
L 210.91768 281.765287 
L 211.039478 281.689713 
L 211.221364 281.580894 
L 211.351282 281.505668 
L 211.526672 281.397315 
L 211.635479 281.293406 
L 211.648471 281.322436 
L 211.830356 281.214546 
L 211.939163 281.111045 
L 211.960275 281.140011 
L 212.135664 281.032581 
L 212.250967 280.929486 
L 212.257463 280.958388 
L 212.439348 280.851416 
L 212.561147 280.748723 
L 212.569267 280.777561 
L 212.710553 280.67504 
L 212.832351 280.601501 
L 213.015861 280.495404 
L 213.137659 280.422199 
L 213.319545 280.316551 
L 213.441344 280.24368 
L 213.624853 280.138477 
L 213.746652 280.065936 
L 213.928537 279.961177 
L 214.050336 279.888964 
L 214.233845 279.784645 
L 214.341028 279.684288 
L 214.355644 279.712758 
L 214.537529 279.608876 
L 214.652832 279.508905 
L 214.659328 279.537314 
L 214.842838 279.433866 
L 214.956516 279.334278 
L 214.964636 279.362626 
L 215.146522 279.25961 
L 215.26832 279.160402 
L 215.281312 279.188689 
L 215.321911 279.125006 
L 215.370631 279.121454 
L 215.552516 279.019021 
L 215.674315 278.948532 
L 215.857825 278.846524 
L 215.965007 278.748205 
L 215.979623 278.776351 
L 216.161509 278.674765 
L 216.276811 278.576819 
L 216.283307 278.604905 
L 216.466817 278.503739 
L 216.580495 278.406164 
L 216.588615 278.434189 
L 216.770501 278.333441 
L 216.892299 278.236234 
L 216.905291 278.2642 
L 216.945891 278.201676 
L 216.99461 278.198382 
L 217.176496 278.098197 
L 217.298294 278.029374 
L 217.481804 277.929599 
L 217.588986 277.833252 
L 217.603602 277.86108 
L 217.785488 277.761715 
L 217.90079 277.665728 
L 217.907286 277.693498 
L 218.090796 277.594538 
L 218.204474 277.498911 
L 218.212594 277.526622 
L 218.39448 277.428065 
L 218.516278 277.332795 
L 218.52927 277.360447 
L 218.56987 277.299046 
L 218.618589 277.296 
L 218.800475 277.197988 
L 218.922273 277.130774 
L 219.105783 277.03316 
L 219.212965 276.938721 
L 219.227581 276.966239 
L 219.409467 276.86902 
L 219.524769 276.774931 
L 219.531265 276.802391 
L 219.714775 276.705565 
L 219.828454 276.611824 
L 219.836573 276.639227 
L 220.018459 276.542791 
L 220.140258 276.449395 
L 220.153249 276.476741 
L 220.193849 276.416428 
L 220.242568 276.41362 
L 220.424454 276.317711 
L 220.546252 276.252051 
L 220.729762 276.156526 
L 220.836945 276.063937 
L 220.85156 276.09115 
L 221.033446 275.996008 
L 221.095157 275.963446 
L 221.208836 145.900128 
L 398.487273 145.900128 
L 398.487273 145.900128 
" style="fill:none;stroke:#1f77b4;stroke-linecap:square;stroke-width:1.5;"/>
   </g>
   <g id="patch_3">
    <path d="M 57.6 307.584 
L 57.6 41.472 
" style="fill:none;stroke:#000000;stroke-linecap:square;stroke-linejoin:miter;stroke-width:0.8;"/>
   </g>
   <g id="patch_4">
    <path d="M 414.72 307.584 
L 414.72 41.472 
" style="fill:none;stroke:#000000;stroke-linecap:square;stroke-linejoin:miter;stroke-width:0.8;"/>
   </g>
   <g id="patch_5">
    <path d="M 57.6 307.584 
L 414.72 307.584 
" style="fill:none;stroke:#000000;stroke-linecap:square;stroke-linejoin:miter;stroke-width:0.8;"/>
   </g>
   <g id="patch_6">
    <path d="M 57.6 41.472 
L 414.72 41.472 
" style="fill:none;stroke:#000000;stroke-linecap:square;stroke-linejoin:miter;stroke-width:0.8;"/>
   </g>
   <g id="text_19">
    <!-- Speed function of time -->
    <g transform="translate(167.024063 35.472)scale(0.12 -0.12)">
     <defs>
      <path id="DejaVuSerif-32"/>
      <path d="M 43.015625 63.71875 
L 38.28125 63.71875 
Q 38.234375 67.390625 36.203125 69.28125 
Q 34.1875 71.1875 30.328125 71.1875 
Q 25.296875 71.1875 23.234375 68.421875 
Q 21.1875 65.671875 21.1875 58.59375 
L 21.1875 51.90625 
L 35.6875 51.90625 
L 35.6875 46.6875 
L 21.1875 46.6875 
L 21.1875 5.171875 
L 32.71875 5.171875 
L 32.71875 0 
L 3.609375 0 
L 3.609375 5.171875 
L 12.203125 5.171875 
L 12.203125 46.6875 
L 3.609375 46.6875 
L 3.609375 51.90625 
L 12.203125 51.90625 
L 12.203125 58.40625 
Q 12.203125 67.09375 16.71875 71.53125 
Q 21.234375 75.984375 29.984375 75.984375 
Q 33.25 75.984375 36.515625 75.390625 
Q 39.796875 74.8125 43.015625 73.578125 
z
" id="DejaVuSerif-102"/>
      <path d="M 35.40625 51.90625 
L 52.203125 51.90625 
L 52.203125 5.171875 
L 60.6875 5.171875 
L 60.6875 0 
L 43.21875 0 
L 43.21875 9.1875 
Q 40.71875 4 36.765625 1.28125 
Q 32.8125 -1.421875 27.59375 -1.421875 
Q 18.953125 -1.421875 14.875 3.484375 
Q 10.796875 8.40625 10.796875 18.890625 
L 10.796875 46.6875 
L 2.6875 46.6875 
L 2.6875 51.90625 
L 19.828125 51.90625 
L 19.828125 21.6875 
Q 19.828125 12.203125 22.140625 8.6875 
Q 24.46875 5.171875 30.421875 5.171875 
Q 36.671875 5.171875 39.9375 9.765625 
Q 43.21875 14.359375 43.21875 23.09375 
L 43.21875 46.6875 
L 35.40625 46.6875 
z
" id="DejaVuSerif-117"/>
      <path d="M 4.109375 0 
L 4.109375 5.171875 
L 12.203125 5.171875 
L 12.203125 46.6875 
L 3.609375 46.6875 
L 3.609375 51.90625 
L 21.1875 51.90625 
L 21.1875 42.671875 
Q 23.6875 47.953125 27.65625 50.640625 
Q 31.640625 53.328125 36.921875 53.328125 
Q 45.515625 53.328125 49.5625 48.390625 
Q 53.609375 43.453125 53.609375 33.015625 
L 53.609375 5.171875 
L 61.625 5.171875 
L 61.625 0 
L 36.8125 0 
L 36.8125 5.171875 
L 44.578125 5.171875 
L 44.578125 30.171875 
Q 44.578125 39.703125 42.234375 43.234375 
Q 39.890625 46.78125 33.984375 46.78125 
Q 27.734375 46.78125 24.453125 42.203125 
Q 21.1875 37.640625 21.1875 28.90625 
L 21.1875 5.171875 
L 29 5.171875 
L 29 0 
z
" id="DejaVuSerif-110"/>
      <path d="M 51.421875 15.578125 
Q 49.515625 7.28125 44.09375 2.921875 
Q 38.671875 -1.421875 30.078125 -1.421875 
Q 18.75 -1.421875 11.859375 6.078125 
Q 4.984375 13.578125 4.984375 25.984375 
Q 4.984375 38.421875 11.859375 45.875 
Q 18.75 53.328125 30.078125 53.328125 
Q 35.015625 53.328125 39.890625 52.171875 
Q 44.78125 51.03125 49.703125 48.6875 
L 49.703125 35.40625 
L 44.484375 35.40625 
Q 43.453125 42.234375 40.015625 45.359375 
Q 36.578125 48.484375 30.171875 48.484375 
Q 22.90625 48.484375 19.1875 42.84375 
Q 15.484375 37.203125 15.484375 25.984375 
Q 15.484375 14.75 19.171875 9.078125 
Q 22.859375 3.421875 30.171875 3.421875 
Q 35.984375 3.421875 39.453125 6.4375 
Q 42.921875 9.46875 44.1875 15.578125 
z
" id="DejaVuSerif-99"/>
      <path d="M 10.796875 46.6875 
L 2.875 46.6875 
L 2.875 51.90625 
L 10.796875 51.90625 
L 10.796875 68.015625 
L 19.828125 68.015625 
L 19.828125 51.90625 
L 36.71875 51.90625 
L 36.71875 46.6875 
L 19.828125 46.6875 
L 19.828125 13.71875 
Q 19.828125 7.125 21.09375 5.265625 
Q 22.359375 3.421875 25.78125 3.421875 
Q 29.296875 3.421875 30.90625 5.484375 
Q 32.515625 7.5625 32.625 12.203125 
L 39.40625 12.203125 
Q 39.015625 5.125 35.546875 1.84375 
Q 32.078125 -1.421875 25 -1.421875 
Q 17.234375 -1.421875 14.015625 2.015625 
Q 10.796875 5.46875 10.796875 13.71875 
z
" id="DejaVuSerif-116"/>
      <path d="M 30.078125 3.421875 
Q 37.3125 3.421875 40.984375 9.125 
Q 44.671875 14.84375 44.671875 25.984375 
Q 44.671875 37.109375 40.984375 42.796875 
Q 37.3125 48.484375 30.078125 48.484375 
Q 22.859375 48.484375 19.171875 42.796875 
Q 15.484375 37.109375 15.484375 25.984375 
Q 15.484375 14.84375 19.1875 9.125 
Q 22.90625 3.421875 30.078125 3.421875 
z
M 30.078125 -1.421875 
Q 18.75 -1.421875 11.859375 6.078125 
Q 4.984375 13.578125 4.984375 25.984375 
Q 4.984375 38.375 11.84375 45.84375 
Q 18.703125 53.328125 30.078125 53.328125 
Q 41.453125 53.328125 48.3125 45.84375 
Q 55.171875 38.375 55.171875 25.984375 
Q 55.171875 13.578125 48.3125 6.078125 
Q 41.453125 -1.421875 30.078125 -1.421875 
z
" id="DejaVuSerif-111"/>
     </defs>
     <use xlink:href="#DejaVuSerif-83"/>
     <use x="68.505859" xlink:href="#DejaVuSerif-112"/>
     <use x="132.519531" xlink:href="#DejaVuSerif-101"/>
     <use x="191.699219" xlink:href="#DejaVuSerif-101"/>
     <use x="250.878906" xlink:href="#DejaVuSerif-100"/>
     <use x="314.892578" xlink:href="#DejaVuSerif-32"/>
     <use x="346.679688" xlink:href="#DejaVuSerif-102"/>
     <use x="383.691406" xlink:href="#DejaVuSerif-117"/>
     <use x="448.095703" xlink:href="#DejaVuSerif-110"/>
     <use x="512.5" xlink:href="#DejaVuSerif-99"/>
     <use x="568.505859" xlink:href="#DejaVuSerif-116"/>
     <use x="608.691406" xlink:href="#DejaVuSerif-105"/>
     <use x="640.673828" xlink:href="#DejaVuSerif-111"/>
     <use x="700.878906" xlink:href="#DejaVuSerif-110"/>
     <use x="765.283203" xlink:href="#DejaVuSerif-32"/>
     <use x="797.070312" xlink:href="#DejaVuSerif-111"/>
     <use x="857.275391" xlink:href="#DejaVuSerif-102"/>
     <use x="894.287109" xlink:href="#DejaVuSerif-32"/>
     <use x="926.074219" xlink:href="#DejaVuSerif-116"/>
     <use x="966.259766" xlink:href="#DejaVuSerif-105"/>
     <use x="998.242188" xlink:href="#DejaVuSerif-109"/>
     <use x="1093.066406" xlink:href="#DejaVuSerif-101"/>
    </g>
   </g>
  </g>
 </g>
 <defs>
  <clipPath id="pc38d283961">
   <rect height="266.112" width="357.12" x="57.6" y="41.472"/>
  </clipPath>
 </defs>
</svg>
