<?xml version="1.0" encoding="utf-8" standalone="no"?>
<!DOCTYPE svg PUBLIC "-//W3C//DTD SVG 1.1//EN"
  "http://www.w3.org/Graphics/SVG/1.1/DTD/svg11.dtd">
<!-- Created with matplotlib (https://matplotlib.org/) -->
<svg height="345.6pt" version="1.1" viewBox="0 0 460.8 345.6" width="460.8pt" xmlns="http://www.w3.org/2000/svg" xmlns:xlink="http://www.w3.org/1999/xlink">
 <metadata>
  <rdf:RDF xmlns:cc="http://creativecommons.org/ns#" xmlns:dc="http://purl.org/dc/elements/1.1/" xmlns:rdf="http://www.w3.org/1999/02/22-rdf-syntax-ns#">
   <cc:Work>
    <dc:type rdf:resource="http://purl.org/dc/dcmitype/StillImage"/>
    <dc:date>2022-05-25T01:06:38.402654</dc:date>
    <dc:format>image/svg+xml</dc:format>
    <dc:creator>
     <cc:Agent>
      <dc:title>Matplotlib v3.3.4, https://matplotlib.org/</dc:title>
     </cc:Agent>
    </dc:creator>
   </cc:Work>
  </rdf:RDF>
 </metadata>
 <defs>
  <style type="text/css">*{stroke-linecap:butt;stroke-linejoin:round;}</style>
 </defs>
 <g id="figure_1">
  <g id="patch_1">
   <path d="M 0 345.6 
L 460.8 345.6 
L 460.8 0 
L 0 0 
z
" style="fill:#ffffff;"/>
  </g>
  <g id="axes_1">
   <g id="patch_2">
    <path d="M 57.6 307.584 
L 414.72 307.584 
L 414.72 41.472 
L 57.6 41.472 
z
" style="fill:#ffffff;"/>
   </g>
   <g id="PolyCollection_1">
    <defs>
     <path d="M 57.6 -38.016 
L 57.6 -279.936 
L 58.31424 -279.935999 
L 59.02848 -279.935996 
L 59.74272 -279.935991 
L 60.45696 -279.935985 
L 61.1712 -279.935978 
L 61.88544 -279.935968 
L 62.59968 -279.935956 
L 63.31392 -279.935942 
L 64.02816 -279.935925 
L 64.7424 -279.935905 
L 65.45664 -279.935881 
L 66.17088 -279.935854 
L 66.88512 -279.935822 
L 67.59936 -279.935784 
L 68.3136 -279.935741 
L 69.02784 -279.935691 
L 69.74208 -279.935633 
L 70.45632 -279.935566 
L 71.17056 -279.935489 
L 71.8848 -279.9354 
L 72.59904 -279.935297 
L 73.31328 -279.93518 
L 74.02752 -279.935045 
L 74.74176 -279.93489 
L 75.456 -279.934712 
L 76.17024 -279.934508 
L 76.88448 -279.934276 
L 77.59872 -279.93401 
L 78.31296 -279.933706 
L 79.0272 -279.93336 
L 79.74144 -279.932966 
L 80.45568 -279.932517 
L 81.16992 -279.932006 
L 81.88416 -279.931426 
L 82.5984 -279.930767 
L 83.31264 -279.93002 
L 84.02688 -279.929174 
L 84.74112 -279.928216 
L 85.45536 -279.927133 
L 86.1696 -279.92591 
L 86.88384 -279.924529 
L 87.59808 -279.922971 
L 88.31232 -279.921217 
L 89.02656 -279.919243 
L 89.7408 -279.917023 
L 90.45504 -279.914529 
L 91.16928 -279.91173 
L 91.88352 -279.908592 
L 92.59776 -279.905077 
L 93.312 -279.901143 
L 94.02624 -279.896745 
L 94.74048 -279.891833 
L 95.45472 -279.886351 
L 96.16896 -279.88024 
L 96.8832 -279.873433 
L 97.59744 -279.865859 
L 98.31168 -279.857438 
L 99.02592 -279.848087 
L 99.74016 -279.83771 
L 100.4544 -279.826207 
L 101.16864 -279.813469 
L 101.88288 -279.799374 
L 102.59712 -279.783794 
L 103.31136 -279.766589 
L 104.0256 -279.747607 
L 104.73984 -279.726684 
L 105.45408 -279.703644 
L 106.16832 -279.678297 
L 106.88256 -279.650438 
L 107.5968 -279.619847 
L 108.31104 -279.586289 
L 109.02528 -279.549511 
L 109.73952 -279.509241 
L 110.45376 -279.46519 
L 111.168 -279.417049 
L 111.88224 -279.364488 
L 112.59648 -279.307156 
L 113.31072 -279.244679 
L 114.02496 -279.17666 
L 114.7392 -279.102678 
L 115.45344 -279.022287 
L 116.16768 -278.935014 
L 116.88192 -278.84036 
L 117.59616 -278.737799 
L 118.3104 -278.626775 
L 119.02464 -278.506705 
L 119.73888 -278.376975 
L 120.45312 -278.236941 
L 121.16736 -278.085928 
L 121.8816 -277.92323 
L 122.59584 -277.748111 
L 123.31008 -277.559799 
L 124.02432 -277.357496 
L 124.73856 -277.140366 
L 125.4528 -276.907547 
L 126.16704 -276.65814 
L 126.88128 -276.391218 
L 127.59552 -276.105824 
L 128.30976 -275.800968 
L 129.024 -275.475634 
L 129.73824 -275.128776 
L 130.45248 -274.759321 
L 131.16672 -274.366172 
L 131.88096 -273.948207 
L 132.5952 -273.504282 
L 133.30944 -273.033233 
L 134.02368 -272.533878 
L 134.73792 -272.005021 
L 135.45216 -271.44545 
L 136.1664 -270.853944 
L 136.88064 -270.229277 
L 137.59488 -269.570215 
L 138.30912 -268.875527 
L 139.02336 -268.143983 
L 139.7376 -267.37436 
L 140.45184 -266.565446 
L 141.16608 -265.716044 
L 141.88032 -264.824974 
L 142.59456 -263.891081 
L 143.3088 -262.913239 
L 144.02304 -261.890351 
L 144.73728 -260.82136 
L 145.45152 -259.70525 
L 146.16576 -258.541051 
L 146.88 -257.327845 
L 147.59424 -256.064771 
L 148.30848 -254.751027 
L 149.02272 -253.38588 
L 149.73696 -251.968665 
L 150.4512 -250.498793 
L 151.16544 -248.975757 
L 151.87968 -247.39913 
L 152.59392 -245.768578 
L 153.30816 -244.083856 
L 154.0224 -242.344816 
L 154.73664 -240.55141 
L 155.45088 -238.703694 
L 156.16512 -236.801827 
L 156.87936 -234.84608 
L 157.5936 -232.836832 
L 158.30784 -230.774577 
L 159.02208 -228.659922 
L 159.73632 -226.493589 
L 160.45056 -224.276419 
L 161.1648 -222.009365 
L 161.87904 -219.693501 
L 162.59328 -217.330015 
L 163.30752 -214.920208 
L 164.02176 -212.465497 
L 164.736 -209.967408 
L 165.45024 -207.427578 
L 166.16448 -204.84775 
L 166.87872 -202.229766 
L 167.59296 -199.575572 
L 168.3072 -196.887205 
L 169.02144 -194.166793 
L 169.73568 -191.41655 
L 170.44992 -188.638768 
L 171.16416 -185.835814 
L 171.8784 -183.010121 
L 172.59264 -180.164186 
L 173.30688 -177.300559 
L 174.02112 -174.421836 
L 174.73536 -171.530657 
L 175.4496 -168.629693 
L 176.16384 -165.72164 
L 176.87808 -162.809214 
L 177.59232 -159.895139 
L 178.30656 -156.982143 
L 179.0208 -154.07295 
L 179.73504 -151.170268 
L 180.44928 -148.276788 
L 181.16352 -145.395169 
L 181.87776 -142.528038 
L 182.592 -139.677978 
L 183.30624 -136.847522 
L 184.02048 -134.039146 
L 184.73472 -131.255266 
L 185.44896 -128.498224 
L 186.1632 -125.77029 
L 186.87744 -123.073654 
L 187.59168 -120.410417 
L 188.30592 -117.782592 
L 189.02016 -115.192097 
L 189.7344 -112.64075 
L 190.44864 -110.130265 
L 191.16288 -107.662255 
L 191.87712 -105.23822 
L 192.59136 -102.859552 
L 193.3056 -100.527532 
L 194.01984 -98.243325 
L 194.73408 -96.007983 
L 195.44832 -93.822445 
L 196.16256 -91.687534 
L 196.8768 -89.603959 
L 197.59104 -87.572317 
L 198.30528 -85.593093 
L 199.01952 -83.666661 
L 199.73376 -81.793288 
L 200.448 -79.973137 
L 201.16224 -78.206266 
L 201.87648 -76.492633 
L 202.59072 -74.832101 
L 203.30496 -73.22444 
L 204.0192 -71.669331 
L 204.73344 -70.166368 
L 205.44768 -68.715067 
L 206.16192 -67.314864 
L 206.87616 -65.965125 
L 207.5904 -64.665148 
L 208.30464 -63.414167 
L 209.01888 -62.211358 
L 209.73312 -61.055844 
L 210.44736 -59.946697 
L 211.1616 -58.882946 
L 211.87584 -57.863579 
L 212.59008 -56.88755 
L 213.30432 -55.953782 
L 214.01856 -55.06117 
L 214.7328 -54.208589 
L 215.44704 -53.394893 
L 216.16128 -52.618926 
L 216.87552 -51.879518 
L 217.58976 -51.175495 
L 218.304 -50.505679 
L 219.01824 -49.868894 
L 219.73248 -49.263965 
L 220.44672 -48.689726 
L 221.16096 -48.14502 
L 221.8752 -47.6287 
L 222.58944 -47.139635 
L 223.30368 -46.676712 
L 224.01792 -46.238835 
L 224.73216 -45.824928 
L 225.4464 -45.43394 
L 226.16064 -45.064839 
L 226.87488 -44.716623 
L 227.58912 -44.388312 
L 228.30336 -44.078956 
L 229.0176 -43.787632 
L 229.73184 -43.513443 
L 230.44608 -43.255525 
L 231.16032 -43.013041 
L 231.87456 -42.785183 
L 232.5888 -42.571174 
L 233.30304 -42.370266 
L 234.01728 -42.181741 
L 234.73152 -42.00491 
L 235.44576 -41.839112 
L 236.16 -41.683716 
L 236.87424 -41.53812 
L 237.58848 -41.401746 
L 238.30272 -41.274047 
L 239.01696 -41.154501 
L 239.7312 -41.04261 
L 240.44544 -40.937904 
L 241.15968 -40.839935 
L 241.87392 -40.74828 
L 242.58816 -40.662537 
L 243.3024 -40.582327 
L 244.01664 -40.507292 
L 244.73088 -40.437095 
L 245.44512 -40.371416 
L 246.15936 -40.309957 
L 246.8736 -40.252434 
L 247.58784 -40.198582 
L 248.30208 -40.148153 
L 249.01632 -40.100912 
L 249.73056 -40.056641 
L 250.4448 -40.015133 
L 251.15904 -39.976198 
L 251.87328 -39.939653 
L 252.58752 -39.905332 
L 253.30176 -39.873077 
L 254.016 -39.842741 
L 254.73024 -39.814187 
L 255.44448 -39.787286 
L 256.15872 -39.761919 
L 256.87296 -39.737974 
L 257.5872 -39.715347 
L 258.30144 -39.69394 
L 259.01568 -39.673663 
L 259.72992 -39.65443 
L 260.44416 -39.636162 
L 261.1584 -39.618785 
L 261.87264 -39.60223 
L 262.58688 -39.58643 
L 263.30112 -39.571324 
L 264.01536 -39.556855 
L 264.7296 -39.542967 
L 265.44384 -39.52961 
L 266.15808 -39.516733 
L 266.87232 -39.504291 
L 267.58656 -39.492238 
L 268.3008 -39.48053 
L 269.01504 -39.469127 
L 269.72928 -39.457988 
L 270.44352 -39.447074 
L 271.15776 -39.436345 
L 271.872 -39.425763 
L 272.58624 -39.415291 
L 273.30048 -39.40489 
L 274.01472 -39.394523 
L 274.72896 -39.38415 
L 275.4432 -39.373732 
L 276.15744 -39.36323 
L 276.87168 -39.352602 
L 277.58592 -39.341808 
L 278.30016 -39.330803 
L 279.0144 -39.319544 
L 279.72864 -39.307984 
L 280.44288 -39.296076 
L 281.15712 -39.283771 
L 281.87136 -39.271018 
L 282.5856 -39.257767 
L 283.29984 -39.243964 
L 284.01408 -39.229554 
L 284.72832 -39.214482 
L 285.44256 -39.198695 
L 286.1568 -39.182135 
L 286.87104 -39.164748 
L 287.58528 -39.146483 
L 288.29952 -39.127286 
L 289.01376 -39.107111 
L 289.728 -39.085915 
L 290.44224 -39.06366 
L 291.15648 -39.040315 
L 291.87072 -39.015857 
L 292.58496 -38.990276 
L 293.2992 -38.963569 
L 294.01344 -38.93575 
L 294.72768 -38.906844 
L 295.44192 -38.876894 
L 296.15616 -38.845958 
L 296.8704 -38.814112 
L 297.58464 -38.78145 
L 298.29888 -38.748083 
L 299.01312 -38.714135 
L 299.72736 -38.679751 
L 300.4416 -38.645084 
L 301.15584 -38.6103 
L 301.87008 -38.575573 
L 302.58432 -38.54108 
L 303.29856 -38.506999 
L 304.0128 -38.473506 
L 304.72704 -38.440769 
L 305.44128 -38.408946 
L 306.15552 -38.378183 
L 306.86976 -38.348608 
L 307.584 -38.320332 
L 308.29824 -38.293445 
L 309.01248 -38.268018 
L 309.72672 -38.244099 
L 310.44096 -38.221718 
L 311.1552 -38.200883 
L 311.86944 -38.181585 
L 312.58368 -38.163799 
L 313.29792 -38.147485 
L 314.01216 -38.132592 
L 314.7264 -38.119056 
L 315.44064 -38.10681 
L 316.15488 -38.095775 
L 316.86912 -38.085875 
L 317.58336 -38.077027 
L 318.2976 -38.069151 
L 319.01184 -38.062165 
L 319.72608 -38.055991 
L 320.44032 -38.050553 
L 321.15456 -38.04578 
L 321.8688 -38.041604 
L 322.58304 -38.037962 
L 323.29728 -38.034794 
L 324.01152 -38.032048 
L 324.72576 -38.029672 
L 325.44 -38.027624 
L 326.15424 -38.025862 
L 326.86848 -38.024351 
L 327.58272 -38.023057 
L 328.29696 -38.021952 
L 329.0112 -38.021011 
L 329.72544 -38.020211 
L 330.43968 -38.019533 
L 331.15392 -38.018958 
L 331.86816 -38.018473 
L 332.5824 -38.018064 
L 333.29664 -38.01772 
L 334.01088 -38.017431 
L 334.72512 -38.017188 
L 335.43936 -38.016985 
L 336.1536 -38.016816 
L 336.86784 -38.016675 
L 337.58208 -38.016557 
L 338.29632 -38.016459 
L 339.01056 -38.016378 
L 339.7248 -38.016311 
L 340.43904 -38.016255 
L 341.15328 -38.016209 
L 341.86752 -38.016171 
L 342.58176 -38.01614 
L 343.296 -38.016114 
L 344.01024 -38.016093 
L 344.72448 -38.016076 
L 345.43872 -38.016062 
L 346.15296 -38.01605 
L 346.8672 -38.016041 
L 347.58144 -38.016033 
L 348.29568 -38.016027 
L 349.00992 -38.016022 
L 349.72416 -38.016017 
L 350.4384 -38.016014 
L 351.15264 -38.016011 
L 351.86688 -38.016009 
L 352.58112 -38.016007 
L 353.29536 -38.016006 
L 354.0096 -38.016005 
L 354.72384 -38.016004 
L 355.43808 -38.016003 
L 356.15232 -38.016002 
L 356.86656 -38.016002 
L 357.5808 -38.016002 
L 358.29504 -38.016001 
L 359.00928 -38.016001 
L 359.72352 -38.016001 
L 360.43776 -38.016001 
L 361.152 -38.016 
L 361.86624 -38.016 
L 362.58048 -38.016 
L 363.29472 -38.016 
L 364.00896 -38.016 
L 364.7232 -38.016 
L 365.43744 -38.016 
L 366.15168 -38.016 
L 366.86592 -38.016 
L 367.58016 -38.016 
L 368.2944 -38.016 
L 369.00864 -38.016 
L 369.72288 -38.016 
L 370.43712 -38.016 
L 371.15136 -38.016 
L 371.8656 -38.016 
L 372.57984 -38.016 
L 373.29408 -38.016 
L 374.00832 -38.016 
L 374.72256 -38.016 
L 375.4368 -38.016 
L 376.15104 -38.016 
L 376.86528 -38.016 
L 377.57952 -38.016 
L 378.29376 -38.016 
L 379.008 -38.016 
L 379.72224 -38.016 
L 380.43648 -38.016 
L 381.15072 -38.016 
L 381.86496 -38.016 
L 382.5792 -38.016 
L 383.29344 -38.016 
L 384.00768 -38.016 
L 384.72192 -38.016 
L 385.43616 -38.016 
L 386.1504 -38.016 
L 386.86464 -38.016 
L 387.57888 -38.016 
L 388.29312 -38.016 
L 389.00736 -38.016 
L 389.7216 -38.016 
L 390.43584 -38.016 
L 391.15008 -38.016 
L 391.86432 -38.016 
L 392.57856 -38.016 
L 393.2928 -38.016 
L 394.00704 -38.016 
L 394.72128 -38.016 
L 395.43552 -38.016 
L 396.14976 -38.016 
L 396.864 -38.016 
L 397.57824 -38.016 
L 398.29248 -38.016 
L 399.00672 -38.016 
L 399.72096 -38.016 
L 400.4352 -38.016 
L 401.14944 -38.016 
L 401.86368 -38.016 
L 402.57792 -38.016 
L 403.29216 -38.016 
L 404.0064 -38.016 
L 404.72064 -38.016 
L 405.43488 -38.016 
L 406.14912 -38.016 
L 406.86336 -38.016 
L 407.5776 -38.016 
L 408.29184 -38.016 
L 409.00608 -38.016 
L 409.72032 -38.016 
L 410.43456 -38.016 
L 411.1488 -38.016 
L 411.86304 -38.016 
L 412.57728 -38.016 
L 413.29152 -38.016 
L 414.00576 -38.016 
L 414.72 -38.016 
L 414.72 -38.016 
L 414.72 -38.016 
L 414.00576 -38.016 
L 413.29152 -38.016 
L 412.57728 -38.016 
L 411.86304 -38.016 
L 411.1488 -38.016 
L 410.43456 -38.016 
L 409.72032 -38.016 
L 409.00608 -38.016 
L 408.29184 -38.016 
L 407.5776 -38.016 
L 406.86336 -38.016 
L 406.14912 -38.016 
L 405.43488 -38.016 
L 404.72064 -38.016 
L 404.0064 -38.016 
L 403.29216 -38.016 
L 402.57792 -38.016 
L 401.86368 -38.016 
L 401.14944 -38.016 
L 400.4352 -38.016 
L 399.72096 -38.016 
L 399.00672 -38.016 
L 398.29248 -38.016 
L 397.57824 -38.016 
L 396.864 -38.016 
L 396.14976 -38.016 
L 395.43552 -38.016 
L 394.72128 -38.016 
L 394.00704 -38.016 
L 393.2928 -38.016 
L 392.57856 -38.016 
L 391.86432 -38.016 
L 391.15008 -38.016 
L 390.43584 -38.016 
L 389.7216 -38.016 
L 389.00736 -38.016 
L 388.29312 -38.016 
L 387.57888 -38.016 
L 386.86464 -38.016 
L 386.1504 -38.016 
L 385.43616 -38.016 
L 384.72192 -38.016 
L 384.00768 -38.016 
L 383.29344 -38.016 
L 382.5792 -38.016 
L 381.86496 -38.016 
L 381.15072 -38.016 
L 380.43648 -38.016 
L 379.72224 -38.016 
L 379.008 -38.016 
L 378.29376 -38.016 
L 377.57952 -38.016 
L 376.86528 -38.016 
L 376.15104 -38.016 
L 375.4368 -38.016 
L 374.72256 -38.016 
L 374.00832 -38.016 
L 373.29408 -38.016 
L 372.57984 -38.016 
L 371.8656 -38.016 
L 371.15136 -38.016 
L 370.43712 -38.016 
L 369.72288 -38.016 
L 369.00864 -38.016 
L 368.2944 -38.016 
L 367.58016 -38.016 
L 366.86592 -38.016 
L 366.15168 -38.016 
L 365.43744 -38.016 
L 364.7232 -38.016 
L 364.00896 -38.016 
L 363.29472 -38.016 
L 362.58048 -38.016 
L 361.86624 -38.016 
L 361.152 -38.016 
L 360.43776 -38.016 
L 359.72352 -38.016 
L 359.00928 -38.016 
L 358.29504 -38.016 
L 357.5808 -38.016 
L 356.86656 -38.016 
L 356.15232 -38.016 
L 355.43808 -38.016 
L 354.72384 -38.016 
L 354.0096 -38.016 
L 353.29536 -38.016 
L 352.58112 -38.016 
L 351.86688 -38.016 
L 351.15264 -38.016 
L 350.4384 -38.016 
L 349.72416 -38.016 
L 349.00992 -38.016 
L 348.29568 -38.016 
L 347.58144 -38.016 
L 346.8672 -38.016 
L 346.15296 -38.016 
L 345.43872 -38.016 
L 344.72448 -38.016 
L 344.01024 -38.016 
L 343.296 -38.016 
L 342.58176 -38.016 
L 341.86752 -38.016 
L 341.15328 -38.016 
L 340.43904 -38.016 
L 339.7248 -38.016 
L 339.01056 -38.016 
L 338.29632 -38.016 
L 337.58208 -38.016 
L 336.86784 -38.016 
L 336.1536 -38.016 
L 335.43936 -38.016 
L 334.72512 -38.016 
L 334.01088 -38.016 
L 333.29664 -38.016 
L 332.5824 -38.016 
L 331.86816 -38.016 
L 331.15392 -38.016 
L 330.43968 -38.016 
L 329.72544 -38.016 
L 329.0112 -38.016 
L 328.29696 -38.016 
L 327.58272 -38.016 
L 326.86848 -38.016 
L 326.15424 -38.016 
L 325.44 -38.016 
L 324.72576 -38.016 
L 324.01152 -38.016 
L 323.29728 -38.016 
L 322.58304 -38.016 
L 321.8688 -38.016 
L 321.15456 -38.016 
L 320.44032 -38.016 
L 319.72608 -38.016 
L 319.01184 -38.016 
L 318.2976 -38.016 
L 317.58336 -38.016 
L 316.86912 -38.016 
L 316.15488 -38.016 
L 315.44064 -38.016 
L 314.7264 -38.016 
L 314.01216 -38.016 
L 313.29792 -38.016 
L 312.58368 -38.016 
L 311.86944 -38.016 
L 311.1552 -38.016 
L 310.44096 -38.016 
L 309.72672 -38.016 
L 309.01248 -38.016 
L 308.29824 -38.016 
L 307.584 -38.016 
L 306.86976 -38.016 
L 306.15552 -38.016 
L 305.44128 -38.016 
L 304.72704 -38.016 
L 304.0128 -38.016 
L 303.29856 -38.016 
L 302.58432 -38.016 
L 301.87008 -38.016 
L 301.15584 -38.016 
L 300.4416 -38.016 
L 299.72736 -38.016 
L 299.01312 -38.016 
L 298.29888 -38.016 
L 297.58464 -38.016 
L 296.8704 -38.016 
L 296.15616 -38.016 
L 295.44192 -38.016 
L 294.72768 -38.016 
L 294.01344 -38.016 
L 293.2992 -38.016 
L 292.58496 -38.016 
L 291.87072 -38.016 
L 291.15648 -38.016 
L 290.44224 -38.016 
L 289.728 -38.016 
L 289.01376 -38.016 
L 288.29952 -38.016 
L 287.58528 -38.016 
L 286.87104 -38.016 
L 286.1568 -38.016 
L 285.44256 -38.016 
L 284.72832 -38.016 
L 284.01408 -38.016 
L 283.29984 -38.016 
L 282.5856 -38.016 
L 281.87136 -38.016 
L 281.15712 -38.016 
L 280.44288 -38.016 
L 279.72864 -38.016 
L 279.0144 -38.016 
L 278.30016 -38.016 
L 277.58592 -38.016 
L 276.87168 -38.016 
L 276.15744 -38.016 
L 275.4432 -38.016 
L 274.72896 -38.016 
L 274.01472 -38.016 
L 273.30048 -38.016 
L 272.58624 -38.016 
L 271.872 -38.016 
L 271.15776 -38.016 
L 270.44352 -38.016 
L 269.72928 -38.016 
L 269.01504 -38.016 
L 268.3008 -38.016 
L 267.58656 -38.016 
L 266.87232 -38.016 
L 266.15808 -38.016 
L 265.44384 -38.016 
L 264.7296 -38.016 
L 264.01536 -38.016 
L 263.30112 -38.016 
L 262.58688 -38.016 
L 261.87264 -38.016 
L 261.1584 -38.016 
L 260.44416 -38.016 
L 259.72992 -38.016 
L 259.01568 -38.016 
L 258.30144 -38.016 
L 257.5872 -38.016 
L 256.87296 -38.016 
L 256.15872 -38.016 
L 255.44448 -38.016 
L 254.73024 -38.016 
L 254.016 -38.016 
L 253.30176 -38.016 
L 252.58752 -38.016 
L 251.87328 -38.016 
L 251.15904 -38.016 
L 250.4448 -38.016 
L 249.73056 -38.016 
L 249.01632 -38.016 
L 248.30208 -38.016 
L 247.58784 -38.016 
L 246.8736 -38.016 
L 246.15936 -38.016 
L 245.44512 -38.016 
L 244.73088 -38.016 
L 244.01664 -38.016 
L 243.3024 -38.016 
L 242.58816 -38.016 
L 241.87392 -38.016 
L 241.15968 -38.016 
L 240.44544 -38.016 
L 239.7312 -38.016 
L 239.01696 -38.016 
L 238.30272 -38.016 
L 237.58848 -38.016 
L 236.87424 -38.016 
L 236.16 -38.016 
L 235.44576 -38.016 
L 234.73152 -38.016 
L 234.01728 -38.016 
L 233.30304 -38.016 
L 232.5888 -38.016 
L 231.87456 -38.016 
L 231.16032 -38.016 
L 230.44608 -38.016 
L 229.73184 -38.016 
L 229.0176 -38.016 
L 228.30336 -38.016 
L 227.58912 -38.016 
L 226.87488 -38.016 
L 226.16064 -38.016 
L 225.4464 -38.016 
L 224.73216 -38.016 
L 224.01792 -38.016 
L 223.30368 -38.016 
L 222.58944 -38.016 
L 221.8752 -38.016 
L 221.16096 -38.016 
L 220.44672 -38.016 
L 219.73248 -38.016 
L 219.01824 -38.016 
L 218.304 -38.016 
L 217.58976 -38.016 
L 216.87552 -38.016 
L 216.16128 -38.016 
L 215.44704 -38.016 
L 214.7328 -38.016 
L 214.01856 -38.016 
L 213.30432 -38.016 
L 212.59008 -38.016 
L 211.87584 -38.016 
L 211.1616 -38.016 
L 210.44736 -38.016 
L 209.73312 -38.016 
L 209.01888 -38.016 
L 208.30464 -38.016 
L 207.5904 -38.016 
L 206.87616 -38.016 
L 206.16192 -38.016 
L 205.44768 -38.016 
L 204.73344 -38.016 
L 204.0192 -38.016 
L 203.30496 -38.016 
L 202.59072 -38.016 
L 201.87648 -38.016 
L 201.16224 -38.016 
L 200.448 -38.016 
L 199.73376 -38.016 
L 199.01952 -38.016 
L 198.30528 -38.016 
L 197.59104 -38.016 
L 196.8768 -38.016 
L 196.16256 -38.016 
L 195.44832 -38.016 
L 194.73408 -38.016 
L 194.01984 -38.016 
L 193.3056 -38.016 
L 192.59136 -38.016 
L 191.87712 -38.016 
L 191.16288 -38.016 
L 190.44864 -38.016 
L 189.7344 -38.016 
L 189.02016 -38.016 
L 188.30592 -38.016 
L 187.59168 -38.016 
L 186.87744 -38.016 
L 186.1632 -38.016 
L 185.44896 -38.016 
L 184.73472 -38.016 
L 184.02048 -38.016 
L 183.30624 -38.016 
L 182.592 -38.016 
L 181.87776 -38.016 
L 181.16352 -38.016 
L 180.44928 -38.016 
L 179.73504 -38.016 
L 179.0208 -38.016 
L 178.30656 -38.016 
L 177.59232 -38.016 
L 176.87808 -38.016 
L 176.16384 -38.016 
L 175.4496 -38.016 
L 174.73536 -38.016 
L 174.02112 -38.016 
L 173.30688 -38.016 
L 172.59264 -38.016 
L 171.8784 -38.016 
L 171.16416 -38.016 
L 170.44992 -38.016 
L 169.73568 -38.016 
L 169.02144 -38.016 
L 168.3072 -38.016 
L 167.59296 -38.016 
L 166.87872 -38.016 
L 166.16448 -38.016 
L 165.45024 -38.016 
L 164.736 -38.016 
L 164.02176 -38.016 
L 163.30752 -38.016 
L 162.59328 -38.016 
L 161.87904 -38.016 
L 161.1648 -38.016 
L 160.45056 -38.016 
L 159.73632 -38.016 
L 159.02208 -38.016 
L 158.30784 -38.016 
L 157.5936 -38.016 
L 156.87936 -38.016 
L 156.16512 -38.016 
L 155.45088 -38.016 
L 154.73664 -38.016 
L 154.0224 -38.016 
L 153.30816 -38.016 
L 152.59392 -38.016 
L 151.87968 -38.016 
L 151.16544 -38.016 
L 150.4512 -38.016 
L 149.73696 -38.016 
L 149.02272 -38.016 
L 148.30848 -38.016 
L 147.59424 -38.016 
L 146.88 -38.016 
L 146.16576 -38.016 
L 145.45152 -38.016 
L 144.73728 -38.016 
L 144.02304 -38.016 
L 143.3088 -38.016 
L 142.59456 -38.016 
L 141.88032 -38.016 
L 141.16608 -38.016 
L 140.45184 -38.016 
L 139.7376 -38.016 
L 139.02336 -38.016 
L 138.30912 -38.016 
L 137.59488 -38.016 
L 136.88064 -38.016 
L 136.1664 -38.016 
L 135.45216 -38.016 
L 134.73792 -38.016 
L 134.02368 -38.016 
L 133.30944 -38.016 
L 132.5952 -38.016 
L 131.88096 -38.016 
L 131.16672 -38.016 
L 130.45248 -38.016 
L 129.73824 -38.016 
L 129.024 -38.016 
L 128.30976 -38.016 
L 127.59552 -38.016 
L 126.88128 -38.016 
L 126.16704 -38.016 
L 125.4528 -38.016 
L 124.73856 -38.016 
L 124.02432 -38.016 
L 123.31008 -38.016 
L 122.59584 -38.016 
L 121.8816 -38.016 
L 121.16736 -38.016 
L 120.45312 -38.016 
L 119.73888 -38.016 
L 119.02464 -38.016 
L 118.3104 -38.016 
L 117.59616 -38.016 
L 116.88192 -38.016 
L 116.16768 -38.016 
L 115.45344 -38.016 
L 114.7392 -38.016 
L 114.02496 -38.016 
L 113.31072 -38.016 
L 112.59648 -38.016 
L 111.88224 -38.016 
L 111.168 -38.016 
L 110.45376 -38.016 
L 109.73952 -38.016 
L 109.02528 -38.016 
L 108.31104 -38.016 
L 107.5968 -38.016 
L 106.88256 -38.016 
L 106.16832 -38.016 
L 105.45408 -38.016 
L 104.73984 -38.016 
L 104.0256 -38.016 
L 103.31136 -38.016 
L 102.59712 -38.016 
L 101.88288 -38.016 
L 101.16864 -38.016 
L 100.4544 -38.016 
L 99.74016 -38.016 
L 99.02592 -38.016 
L 98.31168 -38.016 
L 97.59744 -38.016 
L 96.8832 -38.016 
L 96.16896 -38.016 
L 95.45472 -38.016 
L 94.74048 -38.016 
L 94.02624 -38.016 
L 93.312 -38.016 
L 92.59776 -38.016 
L 91.88352 -38.016 
L 91.16928 -38.016 
L 90.45504 -38.016 
L 89.7408 -38.016 
L 89.02656 -38.016 
L 88.31232 -38.016 
L 87.59808 -38.016 
L 86.88384 -38.016 
L 86.1696 -38.016 
L 85.45536 -38.016 
L 84.74112 -38.016 
L 84.02688 -38.016 
L 83.31264 -38.016 
L 82.5984 -38.016 
L 81.88416 -38.016 
L 81.16992 -38.016 
L 80.45568 -38.016 
L 79.74144 -38.016 
L 79.0272 -38.016 
L 78.31296 -38.016 
L 77.59872 -38.016 
L 76.88448 -38.016 
L 76.17024 -38.016 
L 75.456 -38.016 
L 74.74176 -38.016 
L 74.02752 -38.016 
L 73.31328 -38.016 
L 72.59904 -38.016 
L 71.8848 -38.016 
L 71.17056 -38.016 
L 70.45632 -38.016 
L 69.74208 -38.016 
L 69.02784 -38.016 
L 68.3136 -38.016 
L 67.59936 -38.016 
L 66.88512 -38.016 
L 66.17088 -38.016 
L 65.45664 -38.016 
L 64.7424 -38.016 
L 64.02816 -38.016 
L 63.31392 -38.016 
L 62.59968 -38.016 
L 61.88544 -38.016 
L 61.1712 -38.016 
L 60.45696 -38.016 
L 59.74272 -38.016 
L 59.02848 -38.016 
L 58.31424 -38.016 
L 57.6 -38.016 
z
" id="m372b969605" style="stroke:#509369;"/>
    </defs>
    <g clip-path="url(#p2a66bcc0a6)">
     <use style="fill:#509369;stroke:#509369;" x="0" xlink:href="#m372b969605" y="345.6"/>
    </g>
   </g>
   <g id="PolyCollection_2">
    <defs>
     <path d="M 57.6 -279.936054 
L 57.6 -279.936 
L 58.31424 -279.935999 
L 59.02848 -279.935996 
L 59.74272 -279.935991 
L 60.45696 -279.935985 
L 61.1712 -279.935978 
L 61.88544 -279.935968 
L 62.59968 -279.935956 
L 63.31392 -279.935942 
L 64.02816 -279.935925 
L 64.7424 -279.935905 
L 65.45664 -279.935881 
L 66.17088 -279.935854 
L 66.88512 -279.935822 
L 67.59936 -279.935784 
L 68.3136 -279.935741 
L 69.02784 -279.935691 
L 69.74208 -279.935633 
L 70.45632 -279.935566 
L 71.17056 -279.935489 
L 71.8848 -279.9354 
L 72.59904 -279.935297 
L 73.31328 -279.93518 
L 74.02752 -279.935045 
L 74.74176 -279.93489 
L 75.456 -279.934712 
L 76.17024 -279.934508 
L 76.88448 -279.934276 
L 77.59872 -279.93401 
L 78.31296 -279.933706 
L 79.0272 -279.93336 
L 79.74144 -279.932966 
L 80.45568 -279.932517 
L 81.16992 -279.932006 
L 81.88416 -279.931426 
L 82.5984 -279.930767 
L 83.31264 -279.93002 
L 84.02688 -279.929174 
L 84.74112 -279.928216 
L 85.45536 -279.927133 
L 86.1696 -279.92591 
L 86.88384 -279.924529 
L 87.59808 -279.922971 
L 88.31232 -279.921217 
L 89.02656 -279.919243 
L 89.7408 -279.917023 
L 90.45504 -279.914529 
L 91.16928 -279.91173 
L 91.88352 -279.908592 
L 92.59776 -279.905077 
L 93.312 -279.901143 
L 94.02624 -279.896745 
L 94.74048 -279.891833 
L 95.45472 -279.886351 
L 96.16896 -279.88024 
L 96.8832 -279.873433 
L 97.59744 -279.865859 
L 98.31168 -279.857438 
L 99.02592 -279.848087 
L 99.74016 -279.83771 
L 100.4544 -279.826207 
L 101.16864 -279.813469 
L 101.88288 -279.799374 
L 102.59712 -279.783794 
L 103.31136 -279.766589 
L 104.0256 -279.747607 
L 104.73984 -279.726684 
L 105.45408 -279.703644 
L 106.16832 -279.678297 
L 106.88256 -279.650438 
L 107.5968 -279.619847 
L 108.31104 -279.586289 
L 109.02528 -279.549511 
L 109.73952 -279.509241 
L 110.45376 -279.46519 
L 111.168 -279.417049 
L 111.88224 -279.364488 
L 112.59648 -279.307156 
L 113.31072 -279.244679 
L 114.02496 -279.17666 
L 114.7392 -279.102678 
L 115.45344 -279.022287 
L 116.16768 -278.935014 
L 116.88192 -278.84036 
L 117.59616 -278.737799 
L 118.3104 -278.626775 
L 119.02464 -278.506705 
L 119.73888 -278.376975 
L 120.45312 -278.236941 
L 121.16736 -278.085928 
L 121.8816 -277.92323 
L 122.59584 -277.748111 
L 123.31008 -277.559799 
L 124.02432 -277.357496 
L 124.73856 -277.140366 
L 125.4528 -276.907547 
L 126.16704 -276.65814 
L 126.88128 -276.391218 
L 127.59552 -276.105824 
L 128.30976 -275.800968 
L 129.024 -275.475634 
L 129.73824 -275.128776 
L 130.45248 -274.759321 
L 131.16672 -274.366172 
L 131.88096 -273.948207 
L 132.5952 -273.504282 
L 133.30944 -273.033233 
L 134.02368 -272.533878 
L 134.73792 -272.005021 
L 135.45216 -271.44545 
L 136.1664 -270.853944 
L 136.88064 -270.229277 
L 137.59488 -269.570215 
L 138.30912 -268.875527 
L 139.02336 -268.143983 
L 139.7376 -267.37436 
L 140.45184 -266.565446 
L 141.16608 -265.716044 
L 141.88032 -264.824974 
L 142.59456 -263.891081 
L 143.3088 -262.913239 
L 144.02304 -261.890351 
L 144.73728 -260.82136 
L 145.45152 -259.70525 
L 146.16576 -258.541051 
L 146.88 -257.327845 
L 147.59424 -256.064771 
L 148.30848 -254.751027 
L 149.02272 -253.38588 
L 149.73696 -251.968665 
L 150.4512 -250.498793 
L 151.16544 -248.975757 
L 151.87968 -247.39913 
L 152.59392 -245.768578 
L 153.30816 -244.083856 
L 154.0224 -242.344816 
L 154.73664 -240.55141 
L 155.45088 -238.703694 
L 156.16512 -236.801827 
L 156.87936 -234.84608 
L 157.5936 -232.836832 
L 158.30784 -230.774577 
L 159.02208 -228.659922 
L 159.73632 -226.493589 
L 160.45056 -224.276419 
L 161.1648 -222.009365 
L 161.87904 -219.693501 
L 162.59328 -217.330015 
L 163.30752 -214.920208 
L 164.02176 -212.465497 
L 164.736 -209.967408 
L 165.45024 -207.427578 
L 166.16448 -204.84775 
L 166.87872 -202.229766 
L 167.59296 -199.575572 
L 168.3072 -196.887205 
L 169.02144 -194.166793 
L 169.73568 -191.41655 
L 170.44992 -188.638768 
L 171.16416 -185.835814 
L 171.8784 -183.010121 
L 172.59264 -180.164186 
L 173.30688 -177.300559 
L 174.02112 -174.421836 
L 174.73536 -171.530657 
L 175.4496 -168.629693 
L 176.16384 -165.72164 
L 176.87808 -162.809214 
L 177.59232 -159.895139 
L 178.30656 -156.982143 
L 179.0208 -154.07295 
L 179.73504 -151.170268 
L 180.44928 -148.276788 
L 181.16352 -145.395169 
L 181.87776 -142.528038 
L 182.592 -139.677978 
L 183.30624 -136.847522 
L 184.02048 -134.039146 
L 184.73472 -131.255266 
L 185.44896 -128.498224 
L 186.1632 -125.77029 
L 186.87744 -123.073654 
L 187.59168 -120.410417 
L 188.30592 -117.782592 
L 189.02016 -115.192097 
L 189.7344 -112.64075 
L 190.44864 -110.130265 
L 191.16288 -107.662255 
L 191.87712 -105.23822 
L 192.59136 -102.859552 
L 193.3056 -100.527532 
L 194.01984 -98.243325 
L 194.73408 -96.007983 
L 195.44832 -93.822445 
L 196.16256 -91.687534 
L 196.8768 -89.603959 
L 197.59104 -87.572317 
L 198.30528 -85.593093 
L 199.01952 -83.666661 
L 199.73376 -81.793288 
L 200.448 -79.973137 
L 201.16224 -78.206266 
L 201.87648 -76.492633 
L 202.59072 -74.832101 
L 203.30496 -73.22444 
L 204.0192 -71.669331 
L 204.73344 -70.166368 
L 205.44768 -68.715067 
L 206.16192 -67.314864 
L 206.87616 -65.965125 
L 207.5904 -64.665148 
L 208.30464 -63.414167 
L 209.01888 -62.211358 
L 209.73312 -61.055844 
L 210.44736 -59.946697 
L 211.1616 -58.882946 
L 211.87584 -57.863579 
L 212.59008 -56.88755 
L 213.30432 -55.953782 
L 214.01856 -55.06117 
L 214.7328 -54.208589 
L 215.44704 -53.394893 
L 216.16128 -52.618926 
L 216.87552 -51.879518 
L 217.58976 -51.175495 
L 218.304 -50.505679 
L 219.01824 -49.868894 
L 219.73248 -49.263965 
L 220.44672 -48.689726 
L 221.16096 -48.14502 
L 221.8752 -47.6287 
L 222.58944 -47.139635 
L 223.30368 -46.676712 
L 224.01792 -46.238835 
L 224.73216 -45.824928 
L 225.4464 -45.43394 
L 226.16064 -45.064839 
L 226.87488 -44.716623 
L 227.58912 -44.388312 
L 228.30336 -44.078956 
L 229.0176 -43.787632 
L 229.73184 -43.513443 
L 230.44608 -43.255525 
L 231.16032 -43.013041 
L 231.87456 -42.785183 
L 232.5888 -42.571174 
L 233.30304 -42.370266 
L 234.01728 -42.181741 
L 234.73152 -42.00491 
L 235.44576 -41.839112 
L 236.16 -41.683716 
L 236.87424 -41.53812 
L 237.58848 -41.401746 
L 238.30272 -41.274047 
L 239.01696 -41.154501 
L 239.7312 -41.04261 
L 240.44544 -40.937904 
L 241.15968 -40.839935 
L 241.87392 -40.74828 
L 242.58816 -40.662537 
L 243.3024 -40.582327 
L 244.01664 -40.507292 
L 244.73088 -40.437095 
L 245.44512 -40.371416 
L 246.15936 -40.309957 
L 246.8736 -40.252434 
L 247.58784 -40.198582 
L 248.30208 -40.148153 
L 249.01632 -40.100912 
L 249.73056 -40.056641 
L 250.4448 -40.015133 
L 251.15904 -39.976198 
L 251.87328 -39.939653 
L 252.58752 -39.905332 
L 253.30176 -39.873077 
L 254.016 -39.842741 
L 254.73024 -39.814187 
L 255.44448 -39.787286 
L 256.15872 -39.761919 
L 256.87296 -39.737974 
L 257.5872 -39.715347 
L 258.30144 -39.69394 
L 259.01568 -39.673663 
L 259.72992 -39.65443 
L 260.44416 -39.636162 
L 261.1584 -39.618785 
L 261.87264 -39.60223 
L 262.58688 -39.58643 
L 263.30112 -39.571324 
L 264.01536 -39.556855 
L 264.7296 -39.542967 
L 265.44384 -39.52961 
L 266.15808 -39.516733 
L 266.87232 -39.504291 
L 267.58656 -39.492238 
L 268.3008 -39.48053 
L 269.01504 -39.469127 
L 269.72928 -39.457988 
L 270.44352 -39.447074 
L 271.15776 -39.436345 
L 271.872 -39.425763 
L 272.58624 -39.415291 
L 273.30048 -39.40489 
L 274.01472 -39.394523 
L 274.72896 -39.38415 
L 275.4432 -39.373732 
L 276.15744 -39.36323 
L 276.87168 -39.352602 
L 277.58592 -39.341808 
L 278.30016 -39.330803 
L 279.0144 -39.319544 
L 279.72864 -39.307984 
L 280.44288 -39.296076 
L 281.15712 -39.283771 
L 281.87136 -39.271018 
L 282.5856 -39.257767 
L 283.29984 -39.243964 
L 284.01408 -39.229554 
L 284.72832 -39.214482 
L 285.44256 -39.198695 
L 286.1568 -39.182135 
L 286.87104 -39.164748 
L 287.58528 -39.146483 
L 288.29952 -39.127286 
L 289.01376 -39.107111 
L 289.728 -39.085915 
L 290.44224 -39.06366 
L 291.15648 -39.040315 
L 291.87072 -39.015857 
L 292.58496 -38.990276 
L 293.2992 -38.963569 
L 294.01344 -38.93575 
L 294.72768 -38.906844 
L 295.44192 -38.876894 
L 296.15616 -38.845958 
L 296.8704 -38.814112 
L 297.58464 -38.78145 
L 298.29888 -38.748083 
L 299.01312 -38.714135 
L 299.72736 -38.679751 
L 300.4416 -38.645084 
L 301.15584 -38.6103 
L 301.87008 -38.575573 
L 302.58432 -38.54108 
L 303.29856 -38.506999 
L 304.0128 -38.473506 
L 304.72704 -38.440769 
L 305.44128 -38.408946 
L 306.15552 -38.378183 
L 306.86976 -38.348608 
L 307.584 -38.320332 
L 308.29824 -38.293445 
L 309.01248 -38.268018 
L 309.72672 -38.244099 
L 310.44096 -38.221718 
L 311.1552 -38.200883 
L 311.86944 -38.181585 
L 312.58368 -38.163799 
L 313.29792 -38.147485 
L 314.01216 -38.132592 
L 314.7264 -38.119056 
L 315.44064 -38.10681 
L 316.15488 -38.095775 
L 316.86912 -38.085875 
L 317.58336 -38.077027 
L 318.2976 -38.069151 
L 319.01184 -38.062165 
L 319.72608 -38.055991 
L 320.44032 -38.050553 
L 321.15456 -38.04578 
L 321.8688 -38.041604 
L 322.58304 -38.037962 
L 323.29728 -38.034794 
L 324.01152 -38.032048 
L 324.72576 -38.029672 
L 325.44 -38.027624 
L 326.15424 -38.025862 
L 326.86848 -38.024351 
L 327.58272 -38.023057 
L 328.29696 -38.021952 
L 329.0112 -38.021011 
L 329.72544 -38.020211 
L 330.43968 -38.019533 
L 331.15392 -38.018958 
L 331.86816 -38.018473 
L 332.5824 -38.018064 
L 333.29664 -38.01772 
L 334.01088 -38.017431 
L 334.72512 -38.017188 
L 335.43936 -38.016985 
L 336.1536 -38.016816 
L 336.86784 -38.016675 
L 337.58208 -38.016557 
L 338.29632 -38.016459 
L 339.01056 -38.016378 
L 339.7248 -38.016311 
L 340.43904 -38.016255 
L 341.15328 -38.016209 
L 341.86752 -38.016171 
L 342.58176 -38.01614 
L 343.296 -38.016114 
L 344.01024 -38.016093 
L 344.72448 -38.016076 
L 345.43872 -38.016062 
L 346.15296 -38.01605 
L 346.8672 -38.016041 
L 347.58144 -38.016033 
L 348.29568 -38.016027 
L 349.00992 -38.016022 
L 349.72416 -38.016017 
L 350.4384 -38.016014 
L 351.15264 -38.016011 
L 351.86688 -38.016009 
L 352.58112 -38.016007 
L 353.29536 -38.016006 
L 354.0096 -38.016005 
L 354.72384 -38.016004 
L 355.43808 -38.016003 
L 356.15232 -38.016002 
L 356.86656 -38.016002 
L 357.5808 -38.016002 
L 358.29504 -38.016001 
L 359.00928 -38.016001 
L 359.72352 -38.016001 
L 360.43776 -38.016001 
L 361.152 -38.016 
L 361.86624 -38.016 
L 362.58048 -38.016 
L 363.29472 -38.016 
L 364.00896 -38.016 
L 364.7232 -38.016 
L 365.43744 -38.016 
L 366.15168 -38.016 
L 366.86592 -38.016 
L 367.58016 -38.016 
L 368.2944 -38.016 
L 369.00864 -38.016 
L 369.72288 -38.016 
L 370.43712 -38.016 
L 371.15136 -38.016 
L 371.8656 -38.016 
L 372.57984 -38.016 
L 373.29408 -38.016 
L 374.00832 -38.016 
L 374.72256 -38.016 
L 375.4368 -38.016 
L 376.15104 -38.016 
L 376.86528 -38.016 
L 377.57952 -38.016 
L 378.29376 -38.016 
L 379.008 -38.016 
L 379.72224 -38.016 
L 380.43648 -38.016 
L 381.15072 -38.016 
L 381.86496 -38.016 
L 382.5792 -38.016 
L 383.29344 -38.016 
L 384.00768 -38.016 
L 384.72192 -38.016 
L 385.43616 -38.016 
L 386.1504 -38.016 
L 386.86464 -38.016 
L 387.57888 -38.016 
L 388.29312 -38.016 
L 389.00736 -38.016 
L 389.7216 -38.016 
L 390.43584 -38.016 
L 391.15008 -38.016 
L 391.86432 -38.016 
L 392.57856 -38.016 
L 393.2928 -38.016 
L 394.00704 -38.016 
L 394.72128 -38.016 
L 395.43552 -38.016 
L 396.14976 -38.016 
L 396.864 -38.016 
L 397.57824 -38.016 
L 398.29248 -38.016 
L 399.00672 -38.016 
L 399.72096 -38.016 
L 400.4352 -38.016 
L 401.14944 -38.016 
L 401.86368 -38.016 
L 402.57792 -38.016 
L 403.29216 -38.016 
L 404.0064 -38.016 
L 404.72064 -38.016 
L 405.43488 -38.016 
L 406.14912 -38.016 
L 406.86336 -38.016 
L 407.5776 -38.016 
L 408.29184 -38.016 
L 409.00608 -38.016 
L 409.72032 -38.016 
L 410.43456 -38.016 
L 411.1488 -38.016 
L 411.86304 -38.016 
L 412.57728 -38.016 
L 413.29152 -38.016 
L 414.00576 -38.016 
L 414.72 -38.016 
L 414.72 -38.016 
L 414.72 -38.016 
L 414.00576 -38.016 
L 413.29152 -38.016 
L 412.57728 -38.016 
L 411.86304 -38.016 
L 411.1488 -38.016 
L 410.43456 -38.016 
L 409.72032 -38.016 
L 409.00608 -38.016 
L 408.29184 -38.016 
L 407.5776 -38.016 
L 406.86336 -38.016 
L 406.14912 -38.016 
L 405.43488 -38.016 
L 404.72064 -38.016 
L 404.0064 -38.016 
L 403.29216 -38.016 
L 402.57792 -38.016 
L 401.86368 -38.016 
L 401.14944 -38.016 
L 400.4352 -38.016 
L 399.72096 -38.016 
L 399.00672 -38.016 
L 398.29248 -38.016 
L 397.57824 -38.016 
L 396.864 -38.016 
L 396.14976 -38.016 
L 395.43552 -38.016 
L 394.72128 -38.016 
L 394.00704 -38.016 
L 393.2928 -38.016 
L 392.57856 -38.016 
L 391.86432 -38.016 
L 391.15008 -38.016 
L 390.43584 -38.016 
L 389.7216 -38.016 
L 389.00736 -38.016 
L 388.29312 -38.016 
L 387.57888 -38.016 
L 386.86464 -38.016 
L 386.1504 -38.016 
L 385.43616 -38.016 
L 384.72192 -38.016 
L 384.00768 -38.016 
L 383.29344 -38.016 
L 382.5792 -38.016 
L 381.86496 -38.016 
L 381.15072 -38.016 
L 380.43648 -38.016 
L 379.72224 -38.016 
L 379.008 -38.016 
L 378.29376 -38.016 
L 377.57952 -38.016001 
L 376.86528 -38.016001 
L 376.15104 -38.016001 
L 375.4368 -38.016001 
L 374.72256 -38.016002 
L 374.00832 -38.016002 
L 373.29408 -38.016002 
L 372.57984 -38.016003 
L 371.8656 -38.016004 
L 371.15136 -38.016005 
L 370.43712 -38.016007 
L 369.72288 -38.016008 
L 369.00864 -38.016011 
L 368.2944 -38.016013 
L 367.58016 -38.016017 
L 366.86592 -38.016022 
L 366.15168 -38.016027 
L 365.43744 -38.016035 
L 364.7232 -38.016044 
L 364.00896 -38.016055 
L 363.29472 -38.016069 
L 362.58048 -38.016087 
L 361.86624 -38.016109 
L 361.152 -38.016137 
L 360.43776 -38.016172 
L 359.72352 -38.016216 
L 359.00928 -38.01627 
L 358.29504 -38.016338 
L 357.5808 -38.016422 
L 356.86656 -38.016526 
L 356.15232 -38.016655 
L 355.43808 -38.016816 
L 354.72384 -38.017014 
L 354.0096 -38.017259 
L 353.29536 -38.017562 
L 352.58112 -38.017935 
L 351.86688 -38.018394 
L 351.15264 -38.01896 
L 350.4384 -38.019654 
L 349.72416 -38.020507 
L 349.00992 -38.021551 
L 348.29568 -38.02283 
L 347.58144 -38.024393 
L 346.8672 -38.026301 
L 346.15296 -38.028628 
L 345.43872 -38.031462 
L 344.72448 -38.034908 
L 344.01024 -38.039094 
L 343.296 -38.04417 
L 342.58176 -38.050319 
L 341.86752 -38.057756 
L 341.15328 -38.06674 
L 340.43904 -38.077574 
L 339.7248 -38.090623 
L 339.01056 -38.106316 
L 338.29632 -38.125159 
L 337.58208 -38.147752 
L 336.86784 -38.174797 
L 336.1536 -38.207121 
L 335.43936 -38.245691 
L 334.72512 -38.291638 
L 334.01088 -38.346282 
L 333.29664 -38.411154 
L 332.5824 -38.488034 
L 331.86816 -38.578977 
L 331.15392 -38.686356 
L 330.43968 -38.812897 
L 329.72544 -38.961726 
L 329.0112 -39.136412 
L 328.29696 -39.341018 
L 327.58272 -39.580153 
L 326.86848 -39.859019 
L 326.15424 -40.183471 
L 325.44 -40.560059 
L 324.72576 -40.996087 
L 324.01152 -41.499647 
L 323.29728 -42.079664 
L 322.58304 -42.745914 
L 321.8688 -43.509045 
L 321.15456 -44.380567 
L 320.44032 -45.372832 
L 319.72608 -46.498979 
L 319.01184 -47.772859 
L 318.2976 -49.20892 
L 317.58336 -50.822061 
L 316.86912 -52.627437 
L 316.15488 -54.640232 
L 315.44064 -56.875385 
L 314.7264 -59.347271 
L 314.01216 -62.069348 
L 313.29792 -65.05377 
L 312.58368 -68.31098 
L 311.86944 -71.849279 
L 311.1552 -75.674413 
L 310.44096 -79.78916 
L 309.72672 -84.192969 
L 309.01248 -88.881648 
L 308.29824 -93.847125 
L 307.584 -99.077311 
L 306.86976 -104.556069 
L 306.15552 -110.263301 
L 305.44128 -116.175169 
L 304.72704 -122.264436 
L 304.0128 -128.50093 
L 303.29856 -134.85211 
L 302.58432 -141.283719 
L 301.87008 -147.760485 
L 301.15584 -154.24686 
L 300.4416 -160.707746 
L 299.72736 -167.109195 
L 299.01312 -173.41904 
L 298.29888 -179.607446 
L 297.58464 -185.647362 
L 296.8704 -191.514856 
L 296.15616 -197.189343 
L 295.44192 -202.653696 
L 294.72768 -207.894256 
L 294.01344 -212.900746 
L 293.2992 -217.666118 
L 292.58496 -222.186323 
L 291.87072 -226.460052 
L 291.15648 -230.488435 
L 290.44224 -234.274735 
L 289.728 -237.824032 
L 289.01376 -241.142915 
L 288.29952 -244.239194 
L 287.58528 -247.121625 
L 286.87104 -249.799666 
L 286.1568 -252.283252 
L 285.44256 -254.582608 
L 284.72832 -256.70808 
L 284.01408 -258.669993 
L 283.29984 -260.478538 
L 282.5856 -262.143676 
L 281.87136 -263.675066 
L 281.15712 -265.082005 
L 280.44288 -266.37339 
L 279.72864 -267.557689 
L 279.0144 -268.642921 
L 278.30016 -269.636654 
L 277.58592 -270.545997 
L 276.87168 -271.377611 
L 276.15744 -272.137716 
L 275.4432 -272.832108 
L 274.72896 -273.466171 
L 274.01472 -274.0449 
L 273.30048 -274.572917 
L 272.58624 -275.054493 
L 271.872 -275.493569 
L 271.15776 -275.893775 
L 270.44352 -276.258452 
L 269.72928 -276.59067 
L 269.01504 -276.893247 
L 268.3008 -277.168771 
L 267.58656 -277.41961 
L 266.87232 -277.647936 
L 266.15808 -277.855734 
L 265.44384 -278.044821 
L 264.7296 -278.216858 
L 264.01536 -278.373362 
L 263.30112 -278.515718 
L 262.58688 -278.645191 
L 261.87264 -278.762935 
L 261.1584 -278.870002 
L 260.44416 -278.967351 
L 259.72992 -279.055857 
L 259.01568 -279.136318 
L 258.30144 -279.209459 
L 257.5872 -279.275941 
L 256.87296 -279.336367 
L 256.15872 -279.391286 
L 255.44448 -279.441196 
L 254.73024 -279.486551 
L 254.016 -279.527766 
L 253.30176 -279.565216 
L 252.58752 -279.599244 
L 251.87328 -279.630161 
L 251.15904 -279.65825 
L 250.4448 -279.683769 
L 249.73056 -279.706952 
L 249.01632 -279.728011 
L 248.30208 -279.747142 
L 247.58784 -279.764519 
L 246.8736 -279.780304 
L 246.15936 -279.79464 
L 245.44512 -279.807662 
L 244.73088 -279.819488 
L 244.01664 -279.830229 
L 243.3024 -279.839983 
L 242.58816 -279.848841 
L 241.87392 -279.856885 
L 241.15968 -279.86419 
L 240.44544 -279.870823 
L 239.7312 -279.876846 
L 239.01696 -279.882315 
L 238.30272 -279.88728 
L 237.58848 -279.891788 
L 236.87424 -279.895881 
L 236.16 -279.899597 
L 235.44576 -279.90297 
L 234.73152 -279.906033 
L 234.01728 -279.908813 
L 233.30304 -279.911336 
L 232.5888 -279.913627 
L 231.87456 -279.915706 
L 231.16032 -279.917593 
L 230.44608 -279.919306 
L 229.73184 -279.92086 
L 229.0176 -279.922271 
L 228.30336 -279.923551 
L 227.58912 -279.924713 
L 226.87488 -279.925767 
L 226.16064 -279.926724 
L 225.4464 -279.927592 
L 224.73216 -279.92838 
L 224.01792 -279.929095 
L 223.30368 -279.929743 
L 222.58944 -279.930331 
L 221.8752 -279.930865 
L 221.16096 -279.931349 
L 220.44672 -279.931788 
L 219.73248 -279.932187 
L 219.01824 -279.932548 
L 218.304 -279.932876 
L 217.58976 -279.933173 
L 216.87552 -279.933443 
L 216.16128 -279.933687 
L 215.44704 -279.933909 
L 214.7328 -279.93411 
L 214.01856 -279.934292 
L 213.30432 -279.934458 
L 212.59008 -279.934608 
L 211.87584 -279.934744 
L 211.1616 -279.934867 
L 210.44736 -279.934978 
L 209.73312 -279.93508 
L 209.01888 -279.935171 
L 208.30464 -279.935255 
L 207.5904 -279.93533 
L 206.87616 -279.935398 
L 206.16192 -279.93546 
L 205.44768 -279.935516 
L 204.73344 -279.935567 
L 204.0192 -279.935613 
L 203.30496 -279.935655 
L 202.59072 -279.935693 
L 201.87648 -279.935727 
L 201.16224 -279.935758 
L 200.448 -279.935786 
L 199.73376 -279.935812 
L 199.01952 -279.935835 
L 198.30528 -279.935856 
L 197.59104 -279.935875 
L 196.8768 -279.935892 
L 196.16256 -279.935907 
L 195.44832 -279.935921 
L 194.73408 -279.935934 
L 194.01984 -279.935945 
L 193.3056 -279.935956 
L 192.59136 -279.935965 
L 191.87712 -279.935974 
L 191.16288 -279.935982 
L 190.44864 -279.935988 
L 189.7344 -279.935995 
L 189.02016 -279.936001 
L 188.30592 -279.936006 
L 187.59168 -279.93601 
L 186.87744 -279.936015 
L 186.1632 -279.936018 
L 185.44896 -279.936022 
L 184.73472 -279.936025 
L 184.02048 -279.936028 
L 183.30624 -279.93603 
L 182.592 -279.936033 
L 181.87776 -279.936035 
L 181.16352 -279.936037 
L 180.44928 -279.936038 
L 179.73504 -279.93604 
L 179.0208 -279.936041 
L 178.30656 -279.936043 
L 177.59232 -279.936044 
L 176.87808 -279.936045 
L 176.16384 -279.936046 
L 175.4496 -279.936047 
L 174.73536 -279.936047 
L 174.02112 -279.936048 
L 173.30688 -279.936049 
L 172.59264 -279.936049 
L 171.8784 -279.93605 
L 171.16416 -279.93605 
L 170.44992 -279.93605 
L 169.73568 -279.936051 
L 169.02144 -279.936051 
L 168.3072 -279.936051 
L 167.59296 -279.936052 
L 166.87872 -279.936052 
L 166.16448 -279.936052 
L 165.45024 -279.936052 
L 164.736 -279.936053 
L 164.02176 -279.936053 
L 163.30752 -279.936053 
L 162.59328 -279.936053 
L 161.87904 -279.936053 
L 161.1648 -279.936053 
L 160.45056 -279.936053 
L 159.73632 -279.936053 
L 159.02208 -279.936053 
L 158.30784 -279.936054 
L 157.5936 -279.936054 
L 156.87936 -279.936054 
L 156.16512 -279.936054 
L 155.45088 -279.936054 
L 154.73664 -279.936054 
L 154.0224 -279.936054 
L 153.30816 -279.936054 
L 152.59392 -279.936054 
L 151.87968 -279.936054 
L 151.16544 -279.936054 
L 150.4512 -279.936054 
L 149.73696 -279.936054 
L 149.02272 -279.936054 
L 148.30848 -279.936054 
L 147.59424 -279.936054 
L 146.88 -279.936054 
L 146.16576 -279.936054 
L 145.45152 -279.936054 
L 144.73728 -279.936054 
L 144.02304 -279.936054 
L 143.3088 -279.936054 
L 142.59456 -279.936054 
L 141.88032 -279.936054 
L 141.16608 -279.936054 
L 140.45184 -279.936054 
L 139.7376 -279.936054 
L 139.02336 -279.936054 
L 138.30912 -279.936054 
L 137.59488 -279.936054 
L 136.88064 -279.936054 
L 136.1664 -279.936054 
L 135.45216 -279.936054 
L 134.73792 -279.936054 
L 134.02368 -279.936054 
L 133.30944 -279.936054 
L 132.5952 -279.936054 
L 131.88096 -279.936054 
L 131.16672 -279.936054 
L 130.45248 -279.936054 
L 129.73824 -279.936054 
L 129.024 -279.936054 
L 128.30976 -279.936054 
L 127.59552 -279.936054 
L 126.88128 -279.936054 
L 126.16704 -279.936054 
L 125.4528 -279.936054 
L 124.73856 -279.936054 
L 124.02432 -279.936054 
L 123.31008 -279.936054 
L 122.59584 -279.936054 
L 121.8816 -279.936054 
L 121.16736 -279.936054 
L 120.45312 -279.936054 
L 119.73888 -279.936054 
L 119.02464 -279.936054 
L 118.3104 -279.936054 
L 117.59616 -279.936054 
L 116.88192 -279.936054 
L 116.16768 -279.936054 
L 115.45344 -279.936054 
L 114.7392 -279.936054 
L 114.02496 -279.936054 
L 113.31072 -279.936054 
L 112.59648 -279.936054 
L 111.88224 -279.936054 
L 111.168 -279.936054 
L 110.45376 -279.936054 
L 109.73952 -279.936054 
L 109.02528 -279.936054 
L 108.31104 -279.936054 
L 107.5968 -279.936054 
L 106.88256 -279.936054 
L 106.16832 -279.936054 
L 105.45408 -279.936054 
L 104.73984 -279.936054 
L 104.0256 -279.936054 
L 103.31136 -279.936054 
L 102.59712 -279.936054 
L 101.88288 -279.936054 
L 101.16864 -279.936054 
L 100.4544 -279.936054 
L 99.74016 -279.936054 
L 99.02592 -279.936054 
L 98.31168 -279.936054 
L 97.59744 -279.936054 
L 96.8832 -279.936054 
L 96.16896 -279.936054 
L 95.45472 -279.936054 
L 94.74048 -279.936054 
L 94.02624 -279.936054 
L 93.312 -279.936054 
L 92.59776 -279.936054 
L 91.88352 -279.936054 
L 91.16928 -279.936054 
L 90.45504 -279.936054 
L 89.7408 -279.936054 
L 89.02656 -279.936054 
L 88.31232 -279.936054 
L 87.59808 -279.936054 
L 86.88384 -279.936054 
L 86.1696 -279.936054 
L 85.45536 -279.936054 
L 84.74112 -279.936054 
L 84.02688 -279.936054 
L 83.31264 -279.936054 
L 82.5984 -279.936054 
L 81.88416 -279.936054 
L 81.16992 -279.936054 
L 80.45568 -279.936054 
L 79.74144 -279.936054 
L 79.0272 -279.936054 
L 78.31296 -279.936054 
L 77.59872 -279.936054 
L 76.88448 -279.936054 
L 76.17024 -279.936054 
L 75.456 -279.936054 
L 74.74176 -279.936054 
L 74.02752 -279.936054 
L 73.31328 -279.936054 
L 72.59904 -279.936054 
L 71.8848 -279.936054 
L 71.17056 -279.936054 
L 70.45632 -279.936054 
L 69.74208 -279.936054 
L 69.02784 -279.936054 
L 68.3136 -279.936054 
L 67.59936 -279.936054 
L 66.88512 -279.936054 
L 66.17088 -279.936054 
L 65.45664 -279.936054 
L 64.7424 -279.936054 
L 64.02816 -279.936054 
L 63.31392 -279.936054 
L 62.59968 -279.936054 
L 61.88544 -279.936054 
L 61.1712 -279.936054 
L 60.45696 -279.936054 
L 59.74272 -279.936054 
L 59.02848 -279.936054 
L 58.31424 -279.936054 
L 57.6 -279.936054 
z
" id="mcb86f91b76" style="stroke:#afe88e;"/>
    </defs>
    <g clip-path="url(#p2a66bcc0a6)">
     <use style="fill:#afe88e;stroke:#afe88e;" x="0" xlink:href="#mcb86f91b76" y="345.6"/>
    </g>
   </g>
   <g id="line2d_1">
    <path clip-path="url(#p2a66bcc0a6)" d="M 57.6 65.663946 
L 244.01664 65.769771 
L 252.58752 66.000756 
L 257.5872 66.324059 
L 261.1584 66.729998 
L 264.01536 67.226638 
L 266.87232 67.952064 
L 269.01504 68.706753 
L 271.15776 69.706225 
L 273.30048 71.027083 
L 274.72896 72.133829 
L 276.15744 73.462284 
L 277.58592 75.054003 
L 279.0144 76.957079 
L 280.44288 79.22661 
L 281.87136 81.924934 
L 283.29984 85.121462 
L 284.72832 88.89192 
L 286.1568 93.316748 
L 287.58528 98.478375 
L 289.01376 104.457085 
L 290.44224 111.325265 
L 291.87072 119.139948 
L 293.2992 127.933882 
L 295.44192 142.946304 
L 297.58464 159.952638 
L 300.4416 184.892254 
L 305.44128 229.424831 
L 307.584 246.522689 
L 309.72672 261.407031 
L 311.1552 269.925587 
L 312.58368 277.28902 
L 314.01216 283.530652 
L 315.44064 288.724615 
L 316.86912 292.972563 
L 318.2976 296.39108 
L 319.72608 299.101021 
L 321.15456 301.219433 
L 322.58304 302.854086 
L 324.01152 304.100353 
L 325.44 305.039941 
L 326.86848 305.740981 
L 329.0112 306.463588 
L 331.15392 306.913644 
L 334.01088 307.253718 
L 338.29632 307.474841 
L 346.15296 307.571372 
L 384.00768 307.584 
L 414.72 307.584 
L 414.72 307.584 
" style="fill:none;stroke:#000000;stroke-linecap:square;stroke-width:0.7;"/>
   </g>
   <g id="patch_3">
    <path d="M 57.6 307.584 
L 57.6 41.472 
" style="fill:none;stroke:#000000;stroke-linecap:square;stroke-linejoin:miter;stroke-width:0.8;"/>
   </g>
   <g id="patch_4">
    <path d="M 414.72 307.584 
L 414.72 41.472 
" style="fill:none;stroke:#000000;stroke-linecap:square;stroke-linejoin:miter;stroke-width:0.8;"/>
   </g>
   <g id="patch_5">
    <path d="M 57.6 307.584 
L 414.72 307.584 
" style="fill:none;stroke:#000000;stroke-linecap:square;stroke-linejoin:miter;stroke-width:0.8;"/>
   </g>
   <g id="patch_6">
    <path d="M 57.6 41.472 
L 414.72 41.472 
" style="fill:none;stroke:#000000;stroke-linecap:square;stroke-linejoin:miter;stroke-width:0.8;"/>
   </g>
   <g id="legend_1">
    <g id="patch_7">
     <path d="M 91.90611 34.09119 
L 246.68736 34.09119 
Q 249.08736 34.09119 249.08736 31.69119 
L 249.08736 15.27744 
Q 249.08736 12.87744 246.68736 12.87744 
L 91.90611 12.87744 
Q 89.50611 12.87744 89.50611 15.27744 
L 89.50611 31.69119 
Q 89.50611 34.09119 91.90611 34.09119 
z
" style="fill:#ffffff;opacity:0.8;stroke:#cccccc;stroke-linejoin:miter;"/>
    </g>
    <g id="patch_8">
     <path d="M 94.30611 26.795565 
L 118.30611 26.795565 
L 118.30611 18.395565 
L 94.30611 18.395565 
z
" style="fill:#509369;stroke:#509369;stroke-linejoin:miter;"/>
    </g>
    <g id="text_1">
     <!-- back -->
     <g transform="translate(127.90611 26.795565)scale(0.12 -0.12)">
      <defs>
       <path d="M 11.53125 5.171875 
L 11.53125 70.796875 
L 2.875 70.796875 
L 2.875 75.984375 
L 20.515625 75.984375 
L 20.515625 43.796875 
Q 23.140625 48.6875 27.21875 51 
Q 31.296875 53.328125 37.3125 53.328125 
Q 46.875 53.328125 52.921875 45.75 
Q 58.984375 38.1875 58.984375 25.984375 
Q 58.984375 13.765625 52.921875 6.171875 
Q 46.875 -1.421875 37.3125 -1.421875 
Q 31.296875 -1.421875 27.21875 0.890625 
Q 23.140625 3.21875 20.515625 8.109375 
L 20.515625 0 
L 2.875 0 
L 2.875 5.171875 
z
M 20.515625 23.390625 
Q 20.515625 14.015625 24.09375 9.109375 
Q 27.6875 4.203125 34.515625 4.203125 
Q 41.40625 4.203125 44.9375 9.71875 
Q 48.484375 15.234375 48.484375 25.984375 
Q 48.484375 36.765625 44.9375 42.234375 
Q 41.40625 47.703125 34.515625 47.703125 
Q 27.6875 47.703125 24.09375 42.765625 
Q 20.515625 37.84375 20.515625 28.515625 
z
" id="DejaVuSerif-98"/>
       <path d="M 39.796875 16.3125 
L 39.796875 27.296875 
L 28.21875 27.296875 
Q 21.53125 27.296875 18.25 24.40625 
Q 14.984375 21.53125 14.984375 15.578125 
Q 14.984375 10.15625 18.296875 6.984375 
Q 21.625 3.8125 27.296875 3.8125 
Q 32.90625 3.8125 36.34375 7.28125 
Q 39.796875 10.75 39.796875 16.3125 
z
M 48.78125 32.421875 
L 48.78125 5.171875 
L 56.78125 5.171875 
L 56.78125 0 
L 39.796875 0 
L 39.796875 5.609375 
Q 36.8125 2 32.90625 0.28125 
Q 29 -1.421875 23.78125 -1.421875 
Q 15.140625 -1.421875 10.0625 3.171875 
Q 4.984375 7.765625 4.984375 15.578125 
Q 4.984375 23.640625 10.796875 28.078125 
Q 16.609375 32.515625 27.203125 32.515625 
L 39.796875 32.515625 
L 39.796875 36.078125 
Q 39.796875 42 36.203125 45.234375 
Q 32.625 48.484375 26.125 48.484375 
Q 20.75 48.484375 17.578125 46.046875 
Q 14.40625 43.609375 13.625 38.8125 
L 8.984375 38.8125 
L 8.984375 49.3125 
Q 13.671875 51.3125 18.09375 52.3125 
Q 22.515625 53.328125 26.703125 53.328125 
Q 37.5 53.328125 43.140625 47.96875 
Q 48.78125 42.625 48.78125 32.421875 
z
" id="DejaVuSerif-97"/>
       <path d="M 51.421875 15.578125 
Q 49.515625 7.28125 44.09375 2.921875 
Q 38.671875 -1.421875 30.078125 -1.421875 
Q 18.75 -1.421875 11.859375 6.078125 
Q 4.984375 13.578125 4.984375 25.984375 
Q 4.984375 38.421875 11.859375 45.875 
Q 18.75 53.328125 30.078125 53.328125 
Q 35.015625 53.328125 39.890625 52.171875 
Q 44.78125 51.03125 49.703125 48.6875 
L 49.703125 35.40625 
L 44.484375 35.40625 
Q 43.453125 42.234375 40.015625 45.359375 
Q 36.578125 48.484375 30.171875 48.484375 
Q 22.90625 48.484375 19.1875 42.84375 
Q 15.484375 37.203125 15.484375 25.984375 
Q 15.484375 14.75 19.171875 9.078125 
Q 22.859375 3.421875 30.171875 3.421875 
Q 35.984375 3.421875 39.453125 6.4375 
Q 42.921875 9.46875 44.1875 15.578125 
z
" id="DejaVuSerif-99"/>
       <path d="M 28.609375 0 
L 3.421875 0 
L 3.421875 5.171875 
L 11.53125 5.171875 
L 11.53125 70.796875 
L 2.875 70.796875 
L 2.875 75.984375 
L 20.515625 75.984375 
L 20.515625 26.515625 
L 42.390625 46.6875 
L 34.90625 46.6875 
L 34.90625 51.90625 
L 58.40625 51.90625 
L 58.40625 46.6875 
L 49.515625 46.6875 
L 34.078125 32.421875 
L 53.8125 5.171875 
L 61.28125 5.171875 
L 61.28125 0 
L 35.6875 0 
L 35.6875 5.171875 
L 43.109375 5.171875 
L 27.59375 26.515625 
L 20.515625 19.921875 
L 20.515625 5.171875 
L 28.609375 5.171875 
z
" id="DejaVuSerif-107"/>
      </defs>
      <use xlink:href="#DejaVuSerif-98"/>
      <use x="64.013672" xlink:href="#DejaVuSerif-97"/>
      <use x="123.632812" xlink:href="#DejaVuSerif-99"/>
      <use x="179.638672" xlink:href="#DejaVuSerif-107"/>
     </g>
    </g>
    <g id="patch_9">
     <path d="M 180.734235 26.795565 
L 204.734235 26.795565 
L 204.734235 18.395565 
L 180.734235 18.395565 
z
" style="fill:#afe88e;stroke:#afe88e;stroke-linejoin:miter;"/>
    </g>
    <g id="text_2">
     <!-- front -->
     <g transform="translate(214.334235 26.795565)scale(0.12 -0.12)">
      <defs>
       <path d="M 43.015625 63.71875 
L 38.28125 63.71875 
Q 38.234375 67.390625 36.203125 69.28125 
Q 34.1875 71.1875 30.328125 71.1875 
Q 25.296875 71.1875 23.234375 68.421875 
Q 21.1875 65.671875 21.1875 58.59375 
L 21.1875 51.90625 
L 35.6875 51.90625 
L 35.6875 46.6875 
L 21.1875 46.6875 
L 21.1875 5.171875 
L 32.71875 5.171875 
L 32.71875 0 
L 3.609375 0 
L 3.609375 5.171875 
L 12.203125 5.171875 
L 12.203125 46.6875 
L 3.609375 46.6875 
L 3.609375 51.90625 
L 12.203125 51.90625 
L 12.203125 58.40625 
Q 12.203125 67.09375 16.71875 71.53125 
Q 21.234375 75.984375 29.984375 75.984375 
Q 33.25 75.984375 36.515625 75.390625 
Q 39.796875 74.8125 43.015625 73.578125 
z
" id="DejaVuSerif-102"/>
       <path d="M 47.796875 52 
L 47.796875 39.015625 
L 42.625 39.015625 
Q 42.390625 42.875 40.484375 44.78125 
Q 38.578125 46.6875 34.90625 46.6875 
Q 28.265625 46.6875 24.71875 42.09375 
Q 21.1875 37.5 21.1875 28.90625 
L 21.1875 5.171875 
L 31.59375 5.171875 
L 31.59375 0 
L 4.109375 0 
L 4.109375 5.171875 
L 12.203125 5.171875 
L 12.203125 46.78125 
L 3.609375 46.78125 
L 3.609375 51.90625 
L 21.1875 51.90625 
L 21.1875 42.671875 
Q 23.828125 48.09375 27.96875 50.703125 
Q 32.125 53.328125 38.09375 53.328125 
Q 40.28125 53.328125 42.703125 52.984375 
Q 45.125 52.640625 47.796875 52 
z
" id="DejaVuSerif-114"/>
       <path d="M 30.078125 3.421875 
Q 37.3125 3.421875 40.984375 9.125 
Q 44.671875 14.84375 44.671875 25.984375 
Q 44.671875 37.109375 40.984375 42.796875 
Q 37.3125 48.484375 30.078125 48.484375 
Q 22.859375 48.484375 19.171875 42.796875 
Q 15.484375 37.109375 15.484375 25.984375 
Q 15.484375 14.84375 19.1875 9.125 
Q 22.90625 3.421875 30.078125 3.421875 
z
M 30.078125 -1.421875 
Q 18.75 -1.421875 11.859375 6.078125 
Q 4.984375 13.578125 4.984375 25.984375 
Q 4.984375 38.375 11.84375 45.84375 
Q 18.703125 53.328125 30.078125 53.328125 
Q 41.453125 53.328125 48.3125 45.84375 
Q 55.171875 38.375 55.171875 25.984375 
Q 55.171875 13.578125 48.3125 6.078125 
Q 41.453125 -1.421875 30.078125 -1.421875 
z
" id="DejaVuSerif-111"/>
       <path d="M 4.109375 0 
L 4.109375 5.171875 
L 12.203125 5.171875 
L 12.203125 46.6875 
L 3.609375 46.6875 
L 3.609375 51.90625 
L 21.1875 51.90625 
L 21.1875 42.671875 
Q 23.6875 47.953125 27.65625 50.640625 
Q 31.640625 53.328125 36.921875 53.328125 
Q 45.515625 53.328125 49.5625 48.390625 
Q 53.609375 43.453125 53.609375 33.015625 
L 53.609375 5.171875 
L 61.625 5.171875 
L 61.625 0 
L 36.8125 0 
L 36.8125 5.171875 
L 44.578125 5.171875 
L 44.578125 30.171875 
Q 44.578125 39.703125 42.234375 43.234375 
Q 39.890625 46.78125 33.984375 46.78125 
Q 27.734375 46.78125 24.453125 42.203125 
Q 21.1875 37.640625 21.1875 28.90625 
L 21.1875 5.171875 
L 29 5.171875 
L 29 0 
z
" id="DejaVuSerif-110"/>
       <path d="M 10.796875 46.6875 
L 2.875 46.6875 
L 2.875 51.90625 
L 10.796875 51.90625 
L 10.796875 68.015625 
L 19.828125 68.015625 
L 19.828125 51.90625 
L 36.71875 51.90625 
L 36.71875 46.6875 
L 19.828125 46.6875 
L 19.828125 13.71875 
Q 19.828125 7.125 21.09375 5.265625 
Q 22.359375 3.421875 25.78125 3.421875 
Q 29.296875 3.421875 30.90625 5.484375 
Q 32.515625 7.5625 32.625 12.203125 
L 39.40625 12.203125 
Q 39.015625 5.125 35.546875 1.84375 
Q 32.078125 -1.421875 25 -1.421875 
Q 17.234375 -1.421875 14.015625 2.015625 
Q 10.796875 5.46875 10.796875 13.71875 
z
" id="DejaVuSerif-116"/>
      </defs>
      <use xlink:href="#DejaVuSerif-102"/>
      <use x="37.011719" xlink:href="#DejaVuSerif-114"/>
      <use x="84.814453" xlink:href="#DejaVuSerif-111"/>
      <use x="145.019531" xlink:href="#DejaVuSerif-110"/>
      <use x="209.423828" xlink:href="#DejaVuSerif-116"/>
     </g>
    </g>
   </g>
  </g>
 </g>
 <defs>
  <clipPath id="p2a66bcc0a6">
   <rect height="266.112" width="357.12" x="57.6" y="41.472"/>
  </clipPath>
 </defs>
</svg>
